v -431.569 88.341 -3267.29
v -431.471 99.591 -3267.34
v -431.43 99.591 -3267.3
v -431.486 88.341 -3267.2
v -431.374 99.591 -3267.29
v -431.374 88.341 -3267.17
v -431.318 99.591 -3267.3
v -431.261 88.341 -3267.2
v -431.276 99.591 -3267.34
v -431.179 88.341 -3267.29
v -431.261 99.591 -3267.4
v -431.149 88.341 -3267.4
v -431.276 99.591 -3267.45
v -431.179 88.341 -3267.51
v -431.318 99.591 -3267.5
v -431.261 88.341 -3267.59
v -431.374 99.591 -3267.51
v -431.374 88.341 -3267.62
v -431.43 99.591 -3267.5
v -431.486 88.341 -3267.59
v -431.471 99.591 -3267.45
v -431.569 88.341 -3267.51
v -431.486 99.591 -3267.4
v -431.599 88.341 -3267.4
v -431.374 101.466 -3267.4
v -431.374 101.466 -3267.4
v -431.374 101.466 -3267.4
v -431.374 101.466 -3267.4
v -431.374 101.466 -3267.4
v -431.374 101.466 -3267.4
v -431.374 101.466 -3267.4
v -431.374 101.466 -3267.4
v -431.374 101.466 -3267.4
v -431.374 101.466 -3267.4
v -431.374 101.466 -3267.4
v -431.374 101.466 -3267.4
v -431.861 71.466 -3267.12
v -431.763 81.7785 -3267.17
v -431.599 81.7785 -3267.01
v -431.655 71.466 -3266.91
v -431.374 81.7785 -3266.95
v -431.374 71.466 -3266.84
v -431.374 71.466 -3266.84
v -431.374 81.7785 -3266.95
v -431.149 81.7785 -3267.01
v -431.092 71.466 -3266.91
v -430.984 81.7785 -3267.17
v -430.887 71.466 -3267.12
v -430.924 81.7785 -3267.4
v -430.811 71.466 -3267.4
v -430.984 81.7785 -3267.62
v -430.887 71.466 -3267.68
v -431.149 81.7785 -3267.79
v -431.092 71.466 -3267.89
v -431.374 81.7785 -3267.85
v -431.374 71.466 -3267.96
v -431.599 81.7785 -3267.79
v -431.655 71.466 -3267.89
v -431.763 81.7785 -3267.62
v -431.861 71.466 -3267.68
v -431.824 81.7785 -3267.4
v -431.936 71.466 -3267.4
v -431.763 81.7785 -3267.17
v -431.666 82.716 -3267.23
v -431.543 82.716 -3267.11
v -431.599 81.7785 -3267.01
v -431.374 82.716 -3267.06
v -431.374 81.7785 -3266.95
v -431.374 81.7785 -3266.95
v -431.374 82.716 -3267.06
v -431.205 82.716 -3267.11
v -431.149 81.7785 -3267.01
v -431.081 82.716 -3267.23
v -430.984 81.7785 -3267.17
v -431.036 82.716 -3267.4
v -430.924 81.7785 -3267.4
v -431.081 82.716 -3267.57
v -430.984 81.7785 -3267.62
v -431.205 82.716 -3267.69
v -431.149 81.7785 -3267.79
v -431.374 82.716 -3267.74
v -431.374 81.7785 -3267.85
v -431.543 82.716 -3267.69
v -431.599 81.7785 -3267.79
v -431.666 82.716 -3267.57
v -431.763 81.7785 -3267.62
v -431.711 82.716 -3267.4
v -431.824 81.7785 -3267.4
v -431.666 82.716 -3267.23
v -431.569 88.341 -3267.29
v -431.486 88.341 -3267.2
v -431.543 82.716 -3267.11
v -431.374 88.341 -3267.17
v -431.374 82.716 -3267.06
v -431.374 82.716 -3267.06
v -431.374 88.341 -3267.17
v -431.261 88.341 -3267.2
v -431.205 82.716 -3267.11
v -431.179 88.341 -3267.29
v -431.081 82.716 -3267.23
v -431.149 88.341 -3267.4
v -431.036 82.716 -3267.4
v -431.179 88.341 -3267.51
v -431.081 82.716 -3267.57
v -431.261 88.341 -3267.59
v -431.205 82.716 -3267.69
v -431.374 88.341 -3267.62
v -431.374 82.716 -3267.74
v -431.486 88.341 -3267.59
v -431.543 82.716 -3267.69
v -431.569 88.341 -3267.51
v -431.666 82.716 -3267.57
v -431.599 88.341 -3267.4
v -431.711 82.716 -3267.4
v -431.861 71.466 -3267.12
v -431.655 71.466 -3266.91
v -431.374 71.466 -3266.84
v -431.092 71.466 -3266.91
v -431.861 71.466 -3267.12
v -431.092 71.466 -3266.91
v -430.887 71.466 -3267.12
v -430.811 71.466 -3267.4
v -430.887 71.466 -3267.68
v -431.092 71.466 -3267.89
v -431.374 71.466 -3267.96
v -431.655 71.466 -3267.89
v -431.861 71.466 -3267.68
v -431.936 71.466 -3267.4
v -430.94 71.466 -3267.82
v -431.374 71.466 -3268.02
v -430.94 74.466 -3267.82
v -431.374 74.466 -3268.02
v -431.983 71.466 -3267.41
v -431.802 71.466 -3266.95
v -431.983 74.466 -3267.41
v -431.802 74.466 -3266.95
v -431.802 71.466 -3266.95
v -431.384 71.466 -3266.79
v -431.802 74.466 -3266.95
v -431.384 74.466 -3266.79
v -430.944 71.466 -3266.95
v -430.757 71.466 -3267.4
v -430.944 74.466 -3266.95
v -430.757 74.466 -3267.4
v -430.757 71.466 -3267.4
v -430.94 71.466 -3267.82
v -430.757 74.466 -3267.4
v -430.94 74.466 -3267.82
v -431.384 71.466 -3266.79
v -430.944 71.466 -3266.95
v -431.384 74.466 -3266.79
v -430.944 74.466 -3266.95
v -431.374 71.466 -3268.02
v -431.796 71.466 -3267.84
v -431.374 74.466 -3268.02
v -431.796 74.466 -3267.84
v -431.796 71.466 -3267.84
v -431.983 71.466 -3267.41
v -431.796 74.466 -3267.84
v -431.983 74.466 -3267.41
v -428.697 86.8826 -3267.27
v -431.057 97.8827 -3267.32
v -431.017 97.8917 -3267.28
v -428.617 86.9006 -3267.19
v -430.962 97.9039 -3267.27
v -428.507 86.9251 -3267.16
v -430.907 97.9162 -3267.28
v -428.397 86.9497 -3267.19
v -430.867 97.9252 -3267.32
v -428.317 86.9676 -3267.27
v -430.852 97.9285 -3267.38
v -428.287 86.9742 -3267.38
v -430.867 97.9252 -3267.44
v -428.317 86.9676 -3267.49
v -430.907 97.9162 -3267.48
v -428.397 86.9497 -3267.58
v -430.962 97.9039 -3267.49
v -428.507 86.9251 -3267.61
v -431.017 97.8917 -3267.48
v -428.617 86.9006 -3267.58
v -431.057 97.8827 -3267.44
v -428.697 86.8826 -3267.49
v -431.072 97.8794 -3267.38
v -428.727 86.876 -3267.38
v -431.371 99.7338 -3267.38
v -431.371 99.7338 -3267.38
v -431.371 99.7338 -3267.38
v -431.371 99.7338 -3267.38
v -431.371 99.7338 -3267.38
v -431.371 99.7338 -3267.38
v -431.371 99.7338 -3267.38
v -431.371 99.7338 -3267.38
v -431.371 99.7338 -3267.38
v -431.371 99.7338 -3267.38
v -431.371 99.7338 -3267.38
v -431.371 99.7338 -3267.38
v -425.3 70.3505 -3267.1
v -427.455 80.4357 -3267.16
v -427.294 80.4717 -3266.99
v -425.099 70.3955 -3266.89
v -427.075 80.5208 -3266.93
v -424.824 70.4568 -3266.82
v -424.824 70.4568 -3266.82
v -427.075 80.5208 -3266.93
v -426.855 80.5699 -3266.99
v -424.55 70.5182 -3266.89
v -426.695 80.6058 -3267.16
v -424.349 70.5631 -3267.1
v -426.636 80.619 -3267.38
v -424.275 70.5796 -3267.38
v -426.695 80.6058 -3267.61
v -424.349 70.5631 -3267.66
v -426.855 80.5699 -3267.77
v -424.55 70.5182 -3267.87
v -427.075 80.5208 -3267.83
v -424.824 70.4568 -3267.94
v -427.294 80.4717 -3267.77
v -425.099 70.3955 -3267.87
v -427.455 80.4357 -3267.61
v -425.3 70.3505 -3267.66
v -427.514 80.4226 -3267.38
v -425.373 70.3341 -3267.38
v -427.455 80.4357 -3267.16
v -427.565 81.3719 -3267.21
v -427.444 81.3988 -3267.09
v -427.294 80.4717 -3266.99
v -427.279 81.4357 -3267.04
v -427.075 80.5208 -3266.93
v -427.075 80.5208 -3266.93
v -427.279 81.4357 -3267.04
v -427.115 81.4725 -3267.09
v -426.855 80.5699 -3266.99
v -426.994 81.4995 -3267.21
v -426.695 80.6058 -3267.16
v -426.95 81.5093 -3267.38
v -426.636 80.619 -3267.38
v -426.994 81.4995 -3267.55
v -426.695 80.6058 -3267.61
v -427.115 81.4725 -3267.67
v -426.855 80.5699 -3267.77
v -427.279 81.4357 -3267.72
v -427.075 80.5208 -3267.83
v -427.444 81.3988 -3267.67
v -427.294 80.4717 -3267.77
v -427.565 81.3719 -3267.55
v -427.455 80.4357 -3267.61
v -427.609 81.362 -3267.38
v -427.514 80.4226 -3267.38
v -427.565 81.3719 -3267.21
v -428.697 86.8826 -3267.27
v -428.617 86.9006 -3267.19
v -427.444 81.3988 -3267.09
v -428.507 86.9251 -3267.16
v -427.279 81.4357 -3267.04
v -427.279 81.4357 -3267.04
v -428.507 86.9251 -3267.16
v -428.397 86.9497 -3267.19
v -427.115 81.4725 -3267.09
v -428.317 86.9676 -3267.27
v -426.994 81.4995 -3267.21
v -428.287 86.9742 -3267.38
v -426.95 81.5093 -3267.38
v -428.317 86.9676 -3267.49
v -426.994 81.4995 -3267.55
v -428.397 86.9497 -3267.58
v -427.115 81.4725 -3267.67
v -428.507 86.9251 -3267.61
v -427.279 81.4357 -3267.72
v -428.617 86.9006 -3267.58
v -427.444 81.3988 -3267.67
v -428.697 86.8826 -3267.49
v -427.565 81.3719 -3267.55
v -428.727 86.876 -3267.38
v -427.609 81.362 -3267.38
v -425.3 70.3505 -3267.1
v -425.099 70.3955 -3266.89
v -424.824 70.4568 -3266.82
v -424.55 70.5182 -3266.89
v -425.3 70.3505 -3267.1
v -424.55 70.5182 -3266.89
v -424.349 70.5631 -3267.1
v -424.275 70.5796 -3267.38
v -424.349 70.5631 -3267.66
v -424.55 70.5182 -3267.87
v -424.824 70.4568 -3267.94
v -425.099 70.3955 -3267.87
v -425.3 70.3505 -3267.66
v -425.373 70.3341 -3267.38
v -424.401 70.5515 -3267.8
v -424.824 70.4569 -3268
v -424.401 73.5515 -3267.8
v -424.824 73.4569 -3268
v -425.419 70.3238 -3267.39
v -425.243 70.3633 -3266.93
v -425.419 73.3238 -3267.39
v -425.243 73.3633 -3266.93
v -425.243 70.3633 -3266.93
v -424.835 70.4546 -3266.77
v -425.243 73.3633 -3266.93
v -424.835 73.4546 -3266.77
v -424.405 70.5506 -3266.94
v -424.223 70.5914 -3267.39
v -424.405 73.5506 -3266.94
v -424.223 73.5914 -3267.39
v -424.223 70.5914 -3267.39
v -424.401 70.5515 -3267.8
v -424.223 73.5914 -3267.39
v -424.401 73.5515 -3267.8
v -424.835 70.4546 -3266.77
v -424.405 70.5506 -3266.94
v -424.835 73.4546 -3266.77
v -424.405 73.5506 -3266.94
v -424.824 70.4569 -3268
v -425.236 70.3647 -3267.82
v -424.824 73.4569 -3268
v -425.236 73.3647 -3267.82
v -425.236 70.3647 -3267.82
v -425.419 70.3238 -3267.39
v -425.236 73.3647 -3267.82
v -425.419 73.3238 -3267.39
v -435.048 87.1854 -3266.76
v -431.956 97.991 -3267.27
v -431.916 97.9816 -3267.22
v -434.967 87.1666 -3266.68
v -431.862 97.9672 -3267.21
v -434.859 87.1378 -3266.65
v -431.808 97.9516 -3267.22
v -434.751 87.1066 -3266.68
v -431.768 97.939 -3267.27
v -434.672 87.0815 -3266.76
v -431.754 97.9328 -3267.32
v -434.644 87.0691 -3266.87
v -431.769 97.9347 -3267.38
v -434.675 87.0728 -3266.98
v -431.81 97.9441 -3267.42
v -434.755 87.0916 -3267.07
v -431.864 97.9585 -3267.43
v -434.864 87.1204 -3267.1
v -431.918 97.9741 -3267.42
v -434.972 87.1516 -3267.07
v -431.957 97.9867 -3267.38
v -435.05 87.1767 -3266.98
v -431.971 97.9928 -3267.32
v -435.078 87.1891 -3266.87
v -431.363 99.7685 -3267.4
v -431.363 99.7685 -3267.4
v -431.363 99.7685 -3267.4
v -431.363 99.7685 -3267.4
v -431.363 99.7685 -3267.4
v -431.363 99.7685 -3267.4
v -431.363 99.7685 -3267.4
v -431.363 99.7685 -3267.4
v -431.363 99.7685 -3267.4
v -431.363 99.7685 -3267.4
v -431.363 99.7685 -3267.4
v -431.363 99.7685 -3267.4
v -439.825 71.0192 -3265.92
v -436.983 80.922 -3266.38
v -436.823 80.8844 -3266.22
v -439.624 70.9723 -3265.71
v -436.605 80.8267 -3266.16
v -439.353 70.9001 -3265.64
v -439.353 70.9001 -3265.64
v -436.605 80.8267 -3266.16
v -436.389 80.7644 -3266.22
v -439.082 70.8222 -3265.71
v -436.232 80.7141 -3266.38
v -438.886 70.7594 -3265.92
v -436.176 80.6894 -3266.61
v -438.816 70.7284 -3266.2
v -436.237 80.6968 -3266.83
v -438.892 70.7377 -3266.48
v -436.397 80.7344 -3267
v -439.093 70.7847 -3266.68
v -436.615 80.7921 -3267.06
v -439.365 70.8568 -3266.76
v -436.831 80.8544 -3267
v -439.635 70.9347 -3266.68
v -436.988 80.9047 -3266.83
v -439.831 70.9976 -3266.48
v -437.044 80.9294 -3266.61
v -439.901 71.0285 -3266.2
v -436.983 80.922 -3266.38
v -436.64 81.7967 -3266.48
v -436.52 81.7685 -3266.35
v -436.823 80.8844 -3266.22
v -436.357 81.7252 -3266.31
v -436.605 80.8267 -3266.16
v -436.605 80.8267 -3266.16
v -436.357 81.7252 -3266.31
v -436.195 81.6785 -3266.35
v -436.389 80.7644 -3266.22
v -436.077 81.6408 -3266.48
v -436.232 80.7141 -3266.38
v -436.035 81.6222 -3266.65
v -436.176 80.6894 -3266.61
v -436.08 81.6277 -3266.82
v -436.237 80.6968 -3266.83
v -436.201 81.6559 -3266.94
v -436.397 80.7344 -3267
v -436.364 81.6992 -3266.98
v -436.615 80.7921 -3267.06
v -436.526 81.746 -3266.94
v -436.831 80.8544 -3267
v -436.644 81.7837 -3266.82
v -436.988 80.9047 -3266.83
v -436.686 81.8022 -3266.65
v -437.044 80.9294 -3266.61
v -436.64 81.7967 -3266.48
v -435.048 87.1854 -3266.76
v -434.967 87.1666 -3266.68
v -436.52 81.7685 -3266.35
v -434.859 87.1378 -3266.65
v -436.357 81.7252 -3266.31
v -436.357 81.7252 -3266.31
v -434.859 87.1378 -3266.65
v -434.751 87.1066 -3266.68
v -436.195 81.6785 -3266.35
v -434.672 87.0815 -3266.76
v -436.077 81.6408 -3266.48
v -434.644 87.0691 -3266.87
v -436.035 81.6222 -3266.65
v -434.675 87.0728 -3266.98
v -436.08 81.6277 -3266.82
v -434.755 87.0916 -3267.07
v -436.201 81.6559 -3266.94
v -434.864 87.1204 -3267.1
v -436.364 81.6992 -3266.98
v -434.972 87.1516 -3267.07
v -436.526 81.746 -3266.94
v -435.05 87.1767 -3266.98
v -436.644 81.7837 -3266.82
v -435.078 87.1891 -3266.87
v -436.686 81.8022 -3266.65
v -439.825 71.0192 -3265.92
v -439.624 70.9723 -3265.71
v -439.353 70.9001 -3265.64
v -439.082 70.8222 -3265.71
v -439.825 71.0192 -3265.92
v -439.082 70.8222 -3265.71
v -438.886 70.7594 -3265.92
v -438.816 70.7284 -3266.2
v -438.892 70.7377 -3266.48
v -439.093 70.7847 -3266.68
v -439.365 70.8568 -3266.76
v -439.635 70.9347 -3266.68
v -439.831 70.9976 -3266.48
v -439.901 71.0285 -3266.2
v -438.945 70.7464 -3266.62
v -439.365 70.8543 -3266.82
v -438.945 73.7464 -3266.62
v -439.365 73.8543 -3266.82
v -439.946 71.0407 -3266.21
v -439.767 71.0102 -3265.74
v -439.946 74.0407 -3266.21
v -439.767 74.0102 -3265.74
v -439.767 71.0102 -3265.74
v -439.362 70.9048 -3265.59
v -439.767 74.0102 -3265.74
v -439.362 73.9048 -3265.59
v -438.94 70.781 -3265.75
v -438.765 70.7138 -3266.2
v -438.94 73.781 -3265.75
v -438.765 73.7138 -3266.2
v -438.765 70.7138 -3266.2
v -438.945 70.7464 -3266.62
v -438.765 73.7138 -3266.2
v -438.945 73.7464 -3266.62
v -439.362 70.9048 -3265.59
v -438.94 70.781 -3265.75
v -439.362 73.9048 -3265.59
v -438.94 73.781 -3265.75
v -439.365 70.8543 -3266.82
v -439.77 70.9742 -3266.63
v -439.365 73.8543 -3266.82
v -439.77 73.9742 -3266.63
v -439.77 70.9742 -3266.63
v -439.946 71.0407 -3266.21
v -439.77 73.9742 -3266.63
v -439.946 74.0407 -3266.21
v -431.212 86.9719 -3264.51
v -431.395 97.958 -3266.93
v -431.352 97.9674 -3266.89
v -431.128 86.9908 -3264.43
v -431.296 97.9717 -3266.88
v -431.015 86.9992 -3264.41
v -431.24 97.9696 -3266.89
v -430.903 86.995 -3264.44
v -431.2 97.9617 -3266.93
v -430.823 86.9793 -3264.52
v -431.186 97.9501 -3266.99
v -430.796 86.9562 -3264.63
v -431.203 97.938 -3267.04
v -430.829 86.9319 -3264.74
v -431.245 97.9286 -3267.08
v -430.913 86.913 -3264.82
v -431.301 97.9243 -3267.1
v -431.026 86.9046 -3264.84
v -431.357 97.9264 -3267.08
v -431.138 86.9088 -3264.81
v -431.397 97.9343 -3267.04
v -431.218 86.9245 -3264.73
v -431.411 97.9459 -3266.98
v -431.245 86.9476 -3264.62
v -431.345 99.7807 -3267.38
v -431.345 99.7807 -3267.38
v -431.345 99.7807 -3267.38
v -431.345 99.7807 -3267.38
v -431.345 99.7807 -3267.38
v -431.345 99.7807 -3267.38
v -431.345 99.7807 -3267.38
v -431.345 99.7807 -3267.38
v -431.345 99.7807 -3267.38
v -431.345 99.7807 -3267.38
v -431.345 99.7807 -3267.38
v -431.345 99.7807 -3267.38
v -431.083 70.5077 -3260.8
v -431.242 80.5774 -3263.02
v -431.073 80.6152 -3262.86
v -430.872 70.5549 -3260.6
v -430.847 80.6322 -3262.81
v -430.589 70.5761 -3260.53
v -430.589 70.5761 -3260.53
v -430.847 80.6322 -3262.81
v -430.624 80.6238 -3262.87
v -430.31 70.5656 -3260.62
v -430.463 80.5922 -3263.04
v -430.109 70.5262 -3260.82
v -430.408 80.5461 -3263.26
v -430.041 70.4684 -3261.1
v -430.474 80.4976 -3263.48
v -430.123 70.4078 -3261.37
v -430.643 80.4598 -3263.64
v -430.334 70.3606 -3261.57
v -430.869 80.4428 -3263.69
v -430.617 70.3394 -3261.63
v -431.093 80.4512 -3263.62
v -430.896 70.3499 -3261.55
v -431.253 80.4828 -3263.46
v -431.097 70.3893 -3261.35
v -431.308 80.529 -3263.24
v -431.165 70.4471 -3261.07
v -431.242 80.5774 -3263.02
v -431.169 81.4838 -3263.27
v -431.043 81.5121 -3263.15
v -431.073 80.6152 -3262.86
v -430.873 81.5249 -3263.12
v -430.847 80.6322 -3262.81
v -430.847 80.6322 -3262.81
v -430.873 81.5249 -3263.12
v -430.706 81.5185 -3263.16
v -430.624 80.6238 -3262.87
v -430.585 81.4949 -3263.29
v -430.463 80.5922 -3263.04
v -430.544 81.4603 -3263.45
v -430.408 80.5461 -3263.26
v -430.593 81.4239 -3263.62
v -430.474 80.4976 -3263.48
v -430.72 81.3956 -3263.74
v -430.643 80.4598 -3263.64
v -430.89 81.3828 -3263.77
v -430.869 80.4428 -3263.69
v -431.057 81.3891 -3263.73
v -431.093 80.4512 -3263.62
v -431.178 81.4128 -3263.6
v -431.253 80.4828 -3263.46
v -431.219 81.4474 -3263.44
v -431.308 80.529 -3263.24
v -431.169 81.4838 -3263.27
v -431.212 86.9719 -3264.51
v -431.128 86.9908 -3264.43
v -431.043 81.5121 -3263.15
v -431.015 86.9992 -3264.41
v -430.873 81.5249 -3263.12
v -430.873 81.5249 -3263.12
v -431.015 86.9992 -3264.41
v -430.903 86.995 -3264.44
v -430.706 81.5185 -3263.16
v -430.823 86.9793 -3264.52
v -430.585 81.4949 -3263.29
v -430.796 86.9562 -3264.63
v -430.544 81.4603 -3263.45
v -430.829 86.9319 -3264.74
v -430.593 81.4239 -3263.62
v -430.913 86.913 -3264.82
v -430.72 81.3956 -3263.74
v -431.026 86.9046 -3264.84
v -430.89 81.3828 -3263.77
v -431.138 86.9088 -3264.81
v -431.057 81.3891 -3263.73
v -431.218 86.9245 -3264.73
v -431.178 81.4128 -3263.6
v -431.245 86.9476 -3264.62
v -431.219 81.4474 -3263.44
v -431.083 70.5077 -3260.8
v -430.872 70.5549 -3260.6
v -430.589 70.5761 -3260.53
v -430.31 70.5656 -3260.62
v -431.083 70.5077 -3260.8
v -430.31 70.5656 -3260.62
v -430.109 70.5262 -3260.82
v -430.041 70.4684 -3261.1
v -430.123 70.4078 -3261.37
v -430.334 70.3606 -3261.57
v -430.617 70.3394 -3261.63
v -430.896 70.3499 -3261.55
v -431.097 70.3893 -3261.35
v -431.165 70.4471 -3261.07
v -430.18 70.3766 -3261.51
v -430.618 70.3264 -3261.7
v -430.18 73.3766 -3261.51
v -430.618 73.3264 -3261.7
v -431.213 70.4441 -3261.08
v -431.02 70.5448 -3260.63
v -431.213 73.4441 -3261.08
v -431.02 73.5448 -3260.63
v -431.02 70.5448 -3260.63
v -430.599 70.5859 -3260.49
v -431.02 73.5448 -3260.63
v -430.599 73.5859 -3260.49
v -430.163 70.5594 -3260.66
v -429.987 70.4683 -3261.11
v -430.163 73.5594 -3260.66
v -429.987 73.4683 -3261.11
v -429.987 70.4683 -3261.11
v -430.18 70.3766 -3261.51
v -429.987 73.4683 -3261.11
v -430.18 73.3766 -3261.51
v -430.599 70.5859 -3260.49
v -430.163 70.5594 -3260.66
v -430.599 73.5859 -3260.49
v -430.163 73.5594 -3260.66
v -430.618 70.3264 -3261.7
v -431.036 70.3575 -3261.5
v -430.618 73.3264 -3261.7
v -431.036 73.3575 -3261.5
v -431.036 70.3575 -3261.5
v -431.213 70.4441 -3261.08
v -431.036 73.3575 -3261.5
v -431.213 73.4441 -3261.08
v -464 78.1687 -3232
v -464 78.7761 -3234
v -464 79.4223 -3236
v -464 79.187 -3238
v -464 79.1103 -3240
v -464 79.5367 -3242
v -464 80.0158 -3244
v -464 79.8975 -3246
v -464 79.3712 -3248
v -464 78.2143 -3250
v -464 77.7286 -3252
v -464 77.5375 -3254
v -464 77.3214 -3256
v -464 77.0244 -3258
v -464 76.8723 -3260
v -464 76.5792 -3262
v -464 76.3497 -3264
v -464 76.0969 -3266
v -464 75.9091 -3268
v -464 75.3576 -3270
v -464 74.9919 -3272
v -464 74.6411 -3274
v -464 74.3938 -3276
v -464 75.0854 -3278
v -464 75.6369 -3280
v -464 76.1172 -3282
v -464 76.6689 -3284
v -464 76.9792 -3286
v -464 77.1411 -3288
v -464 77.4347 -3290
v -464 77.6645 -3292
v -464 77.913 -3294
v -462 77.8808 -3232
v -462 77.9239 -3234
v -462 78.2494 -3236
v -462 78.6766 -3238
v -462 79.0221 -3240
v -462 79.5748 -3242
v -462 79.3918 -3244
v -462 79.2084 -3246
v -462 78.7966 -3248
v -462 77.7774 -3250
v -462 77.5595 -3252
v -462 77.4665 -3254
v -462 77.3447 -3256
v -462 77.0022 -3258
v -462 76.807 -3260
v -462 76.5109 -3262
v -462 76.1601 -3264
v -462 75.9749 -3266
v -462 75.6314 -3268
v -462 75.3113 -3270
v -462 74.8855 -3272
v -462 74.4338 -3274
v -462 74.4913 -3276
v -462 75.1734 -3278
v -462 75.5933 -3280
v -462 76.1894 -3282
v -462 76.78 -3284
v -462 77.0074 -3286
v -462 77.3525 -3288
v -462 77.587 -3290
v -462 77.6799 -3292
v -462 77.8259 -3294
v -460 77.8113 -3232
v -460 77.9014 -3234
v -460 77.6777 -3236
v -460 78.0346 -3238
v -460 78.4083 -3240
v -460 78.9463 -3242
v -460 79.4493 -3244
v -460 78.6477 -3246
v -460 77.9481 -3248
v -460 77.5874 -3250
v -460 77.4622 -3252
v -460 77.2732 -3254
v -460 77.1905 -3256
v -460 76.9739 -3258
v -460 76.8113 -3260
v -460 76.5305 -3262
v -460 76.1701 -3264
v -460 75.9121 -3266
v -460 75.5953 -3268
v -460 75.2022 -3270
v -460 74.751 -3272
v -460 74.3476 -3274
v -460 74.5765 -3276
v -460 75.1914 -3278
v -460 75.67 -3280
v -460 76.268 -3282
v -460 76.6803 -3284
v -460 77.119 -3286
v -460 77.4161 -3288
v -460 77.5646 -3290
v -460 77.7009 -3292
v -460 77.8984 -3294
v -458 77.5562 -3232
v -458 77.6868 -3234
v -458 77.6208 -3236
v -458 77.6477 -3238
v -458 77.8577 -3240
v -458 78.314 -3242
v -458 78.5048 -3244
v -458 77.8738 -3246
v -458 77.5369 -3248
v -458 77.327 -3250
v -458 77.3076 -3252
v -458 77.0969 -3254
v -458 77.0913 -3256
v -458 76.8901 -3258
v -458 76.8042 -3260
v -458 76.4874 -3262
v -458 76.2588 -3264
v -458 75.763 -3266
v -458 75.5701 -3268
v -458 75.1935 -3270
v -458 74.7919 -3272
v -458 74.3235 -3274
v -458 74.7643 -3276
v -458 75.1912 -3278
v -458 75.686 -3280
v -458 76.2121 -3282
v -458 76.7796 -3284
v -458 77.0555 -3286
v -458 77.8231 -3288
v -458 78.0453 -3290
v -458 78.069 -3292
v -458 77.8937 -3294
v -456 77.1999 -3232
v -456 77.1331 -3234
v -456 77.2184 -3236
v -456 77.5354 -3238
v -456 77.6469 -3240
v -456 78.1079 -3242
v -456 77.9694 -3244
v -456 77.4858 -3246
v -456 77.3613 -3248
v -456 77.2614 -3250
v -456 77.114 -3252
v -456 77.0348 -3254
v -456 77.0935 -3256
v -456 76.8385 -3258
v -456 76.644 -3260
v -456 76.4775 -3262
v -456 76.2207 -3264
v -456 75.7296 -3266
v -456 75.509 -3268
v -456 75.1539 -3270
v -456 74.6078 -3272
v -456 74.3806 -3274
v -456 74.9088 -3276
v -456 75.143 -3278
v -456 75.6543 -3280
v -456 76.0149 -3282
v -456 76.6253 -3284
v -456 77.0434 -3286
v -456 77.821 -3288
v -456 78.6043 -3290
v -456 78.976 -3292
v -456 78.5823 -3294
v -454 77.0751 -3232
v -454 77.0855 -3234
v -454 77.1474 -3236
v -454 77.0657 -3238
v -454 77.2533 -3240
v -454 77.5476 -3242
v -454 77.6953 -3244
v -454 77.4053 -3246
v -454 77.3365 -3248
v -454 77.116 -3250
v -454 77.0079 -3252
v -454 76.8864 -3254
v -454 76.9619 -3256
v -454 76.9117 -3258
v -454 76.6822 -3260
v -454 76.197 -3262
v -454 75.8472 -3264
v -454 75.5138 -3266
v -454 75.3373 -3268
v -454 75.0057 -3270
v -454 74.7109 -3272
v -454 74.5513 -3274
v -454 74.9547 -3276
v -454 75.2303 -3278
v -454 75.6581 -3280
v -454 76.2197 -3282
v -454 76.7425 -3284
v -454 77.3168 -3286
v -454 77.8526 -3288
v -454 78.8291 -3290
v -454 79.1913 -3292
v -454 79.8117 -3294
v -452 76.9057 -3232
v -452 76.8584 -3234
v -452 77.1128 -3236
v -452 77.1863 -3238
v -452 77.2098 -3240
v -452 77.3233 -3242
v -452 77.7191 -3244
v -452 77.3451 -3246
v -452 77.3142 -3248
v -452 77.1202 -3250
v -452 77.0638 -3252
v -452 76.9382 -3254
v -452 76.868 -3256
v -452 76.7789 -3258
v -452 76.4879 -3260
v -452 76.2116 -3262
v -452 75.733 -3264
v -452 75.5009 -3266
v -452 75.2785 -3268
v -452 74.9392 -3270
v -452 74.5302 -3272
v -452 74.646 -3274
v -452 75.0082 -3276
v -452 75.4278 -3278
v -452 75.7258 -3280
v -452 76.1948 -3282
v -452 76.5287 -3284
v -452 77.1336 -3286
v -452 77.8037 -3288
v -452 78.8849 -3290
v -452 79.5359 -3292
v -452 80.6711 -3294
v -450 76.8322 -3232
v -450 76.9961 -3234
v -450 77.0425 -3236
v -450 77.2021 -3238
v -450 77.2636 -3240
v -450 77.3745 -3242
v -450 77.5827 -3244
v -450 77.5293 -3246
v -450 77.3029 -3248
v -450 77.2061 -3250
v -450 77.1276 -3252
v -450 76.9649 -3254
v -450 76.8896 -3256
v -450 76.7628 -3258
v -450 76.4744 -3260
v -450 76.1142 -3262
v -450 75.6996 -3264
v -450 75.4395 -3266
v -450 75.1901 -3268
v -450 74.9005 -3270
v -450 74.5807 -3272
v -450 74.636 -3274
v -450 75.0844 -3276
v -450 75.5347 -3278
v -450 75.8589 -3280
v -450 76.2975 -3282
v -450 76.601 -3284
v -450 77.0557 -3286
v -450 77.706 -3288
v -450 78.4303 -3290
v -450 79.0898 -3292
v -450 80.5758 -3294
v -448 76.8318 -3232
v -448 77.1244 -3234
v -448 77.0246 -3236
v -448 77.2033 -3238
v -448 77.2324 -3240
v -448 77.398 -3242
v -448 77.3492 -3244
v -448 77.543 -3246
v -448 77.2968 -3248
v -448 77.2045 -3250
v -448 77.0484 -3252
v -448 77.0929 -3254
v -448 76.8216 -3256
v -448 76.7844 -3258
v -448 76.4186 -3260
v -448 76.1473 -3262
v -448 75.7061 -3264
v -448 75.5183 -3266
v -448 75.1202 -3268
v -448 74.9194 -3270
v -448 74.6046 -3272
v -448 74.5477 -3274
v -448 75.0382 -3276
v -448 75.5421 -3278
v -448 75.8894 -3280
v -448 76.361 -3282
v -448 76.6534 -3284
v -448 76.9035 -3286
v -448 77.5267 -3288
v -448 78.3584 -3290
v -448 79.348 -3292
v -448 79.8986 -3294
v -446 76.7735 -3232
v -446 76.961 -3234
v -446 77.0544 -3236
v -446 77.1024 -3238
v -446 77.1851 -3240
v -446 77.3493 -3242
v -446 77.4031 -3244
v -446 77.4231 -3246
v -446 77.287 -3248
v -446 77.1395 -3250
v -446 77.102 -3252
v -446 76.9503 -3254
v -446 76.7947 -3256
v -446 76.6499 -3258
v -446 76.506 -3260
v -446 76.204 -3262
v -446 75.7565 -3264
v -446 75.6155 -3266
v -446 75.3529 -3268
v -446 74.9473 -3270
v -446 74.5868 -3272
v -446 74.4194 -3274
v -446 74.9556 -3276
v -446 75.3924 -3278
v -446 75.8225 -3280
v -446 76.2365 -3282
v -446 76.6675 -3284
v -446 77.068 -3286
v -446 77.4778 -3288
v -446 78.2858 -3290
v -446 79.0103 -3292
v -446 79.4841 -3294
v -444 76.7711 -3232
v -444 76.934 -3234
v -444 77.0303 -3236
v -444 76.9875 -3238
v -444 77.1777 -3240
v -444 77.23 -3242
v -444 77.2888 -3244
v -444 77.2561 -3246
v -444 77.1029 -3248
v -444 77.1432 -3250
v -444 76.9164 -3252
v -444 76.9326 -3254
v -444 76.8241 -3256
v -444 76.4921 -3258
v -444 76.3647 -3260
v -444 76.3013 -3262
v -444 75.8824 -3264
v -444 75.6815 -3266
v -444 75.2894 -3268
v -444 74.9116 -3270
v -444 74.5454 -3272
v -444 74.1849 -3274
v -444 74.6584 -3276
v -444 75.2945 -3278
v -444 75.6832 -3280
v -444 76.0445 -3282
v -444 76.5568 -3284
v -444 77.0872 -3286
v -444 77.6701 -3288
v -444 78.3973 -3290
v -444 78.7385 -3292
v -444 79.0755 -3294
v -442 76.687 -3232
v -442 76.9086 -3234
v -442 76.861 -3236
v -442 76.907 -3238
v -442 77.0784 -3240
v -442 77.2064 -3242
v -442 77.1376 -3244
v -442 77.281 -3246
v -442 77.16 -3248
v -442 77.0655 -3250
v -442 76.9377 -3252
v -442 76.995 -3254
v -442 76.7393 -3256
v -442 76.5757 -3258
v -442 76.5095 -3260
v -442 76.3292 -3262
v -442 75.994 -3264
v -442 75.9291 -3266
v -442 75.5432 -3268
v -442 75.0431 -3270
v -442 74.5188 -3272
v -442 74.1784 -3274
v -442 74.4695 -3276
v -442 75.0532 -3278
v -442 75.5326 -3280
v -442 76.0621 -3282
v -442 76.4738 -3284
v -442 76.8603 -3286
v -442 77.3908 -3288
v -442 77.9642 -3290
v -442 78.6776 -3292
v -442 78.4248 -3294
v -440 76.6126 -3232
v -440 76.8717 -3234
v -440 76.8023 -3236
v -440 76.9492 -3238
v -440 77.083 -3240
v -440 77.2079 -3242
v -440 77.2469 -3244
v -440 77.3134 -3246
v -440 77.2598 -3248
v -440 77.1565 -3250
v -440 77.1045 -3252
v -440 76.9643 -3254
v -440 76.746 -3256
v -440 76.7347 -3258
v -440 76.575 -3260
v -440 76.4837 -3262
v -440 76.2262 -3264
v -440 76.0864 -3266
v -440 75.6228 -3268
v -440 75.205 -3270
v -440 74.7504 -3272
v -440 74.2135 -3274
v -440 74.4611 -3276
v -440 74.8566 -3278
v -440 75.4453 -3280
v -440 75.9247 -3282
v -440 76.4267 -3284
v -440 76.7156 -3286
v -440 77.0984 -3288
v -440 77.5347 -3290
v -440 78.1093 -3292
v -440 77.9053 -3294
v -438 76.5272 -3232
v -438 76.8652 -3234
v -438 76.8371 -3236
v -438 76.8912 -3238
v -438 77.0704 -3240
v -438 77.3182 -3242
v -438 77.2545 -3244
v -438 77.4047 -3246
v -438 77.27 -3248
v -438 77.2451 -3250
v -438 77.1662 -3252
v -438 77.0872 -3254
v -438 76.8521 -3256
v -438 76.9148 -3258
v -438 76.6997 -3260
v -438 76.5579 -3262
v -438 76.3987 -3264
v -438 76.1823 -3266
v -438 75.8327 -3268
v -438 75.3947 -3270
v -438 74.8623 -3272
v -438 74.3403 -3274
v -438 74.3184 -3276
v -438 74.8456 -3278
v -438 75.336 -3280
v -438 75.8211 -3282
v -438 76.2325 -3284
v -438 76.4794 -3286
v -438 76.8633 -3288
v -438 77.2289 -3290
v -438 77.7996 -3292
v -438 77.8346 -3294
v -436 76.4728 -3232
v -436 76.6523 -3234
v -436 76.8763 -3236
v -436 76.933 -3238
v -436 77.201 -3240
v -436 77.1405 -3242
v -436 77.2006 -3244
v -436 77.2307 -3246
v -436 77.3531 -3248
v -436 77.2258 -3250
v -436 77.1485 -3252
v -436 77.0781 -3254
v -436 77.0229 -3256
v -436 76.9496 -3258
v -436 76.8536 -3260
v -436 76.6811 -3262
v -436 76.5001 -3264
v -436 76.2037 -3266
v -436 75.8684 -3268
v -436 75.528 -3270
v -436 75.1652 -3272
v -436 74.5971 -3274
v -436 74.2728 -3276
v -436 74.6172 -3278
v -436 75.1419 -3280
v -436 75.4623 -3282
v -436 76.063 -3284
v -436 76.3108 -3286
v -436 76.7476 -3288
v -436 76.8833 -3290
v -436 77.3191 -3292
v -436 77.7809 -3294
v -434 76.5857 -3232
v -434 76.6918 -3234
v -434 76.972 -3236
v -434 77.0387 -3238
v -434 77.0649 -3240
v -434 77.1938 -3242
v -434 77.3757 -3244
v -434 77.2172 -3246
v -434 77.3266 -3248
v -434 77.3176 -3250
v -434 77.2815 -3252
v -434 77.0404 -3254
v -434 76.9679 -3256
v -434 76.9936 -3258
v -434 76.8333 -3260
v -434 76.7796 -3262
v -434 76.5872 -3264
v -434 76.2283 -3266
v -434 75.9408 -3268
v -434 75.6056 -3270
v -434 75.3157 -3272
v -434 74.7642 -3274
v -434 74.3587 -3276
v -434 74.3895 -3278
v -434 74.8255 -3280
v -434 75.3467 -3282
v -434 75.853 -3284
v -434 76.0146 -3286
v -434 76.4897 -3288
v -434 76.8894 -3290
v -434 77.5692 -3292
v -434 77.7999 -3294
v -432 76.4532 -3232
v -432 76.7189 -3234
v -432 76.8941 -3236
v -432 76.9968 -3238
v -432 77.1383 -3240
v -432 77.1437 -3242
v -432 77.2917 -3244
v -432 77.1565 -3246
v -432 77.3202 -3248
v -432 77.3239 -3250
v -432 77.3515 -3252
v -432 77.185 -3254
v -432 76.9454 -3256
v -432 77.0267 -3258
v -432 76.9885 -3260
v -432 76.8766 -3262
v -432 76.7505 -3264
v -432 76.3545 -3266
v -432 76.0087 -3268
v -432 75.7535 -3270
v -432 75.5729 -3272
v -432 75.1922 -3274
v -432 74.6787 -3276
v -432 74.3255 -3278
v -432 74.5478 -3280
v -432 74.9769 -3282
v -432 75.574 -3284
v -432 75.8844 -3286
v -432 76.3447 -3288
v -432 76.7614 -3290
v -432 77.112 -3292
v -432 77.5396 -3294
v -430 76.5603 -3232
v -430 76.7225 -3234
v -430 76.962 -3236
v -430 77.2058 -3238
v -430 77.2478 -3240
v -430 77.2904 -3242
v -430 77.2252 -3244
v -430 77.3876 -3246
v -430 77.5042 -3248
v -430 77.4636 -3250
v -430 77.3643 -3252
v -430 77.3121 -3254
v -430 77.1674 -3256
v -430 77.1826 -3258
v -430 77.0913 -3260
v -430 77.0047 -3262
v -430 76.6985 -3264
v -430 76.5843 -3266
v -430 76.2067 -3268
v -430 76.0068 -3270
v -430 75.7275 -3272
v -430 75.5486 -3274
v -430 74.9993 -3276
v -430 74.5279 -3278
v -430 74.412 -3280
v -430 74.878 -3282
v -430 75.2926 -3284
v -430 75.5501 -3286
v -430 76.0788 -3288
v -430 76.468 -3290
v -430 76.958 -3292
v -430 77.1865 -3294
v -428 76.6234 -3232
v -428 76.9655 -3234
v -428 77.0306 -3236
v -428 77.2571 -3238
v -428 77.4552 -3240
v -428 77.4788 -3242
v -428 77.6127 -3244
v -428 77.5422 -3246
v -428 77.5381 -3248
v -428 77.6255 -3250
v -428 77.5522 -3252
v -428 77.6026 -3254
v -428 77.4915 -3256
v -428 77.5646 -3258
v -428 77.2688 -3260
v -428 77.1099 -3262
v -428 76.9891 -3264
v -428 76.7839 -3266
v -428 76.4253 -3268
v -428 76.2631 -3270
v -428 76.0482 -3272
v -428 75.6345 -3274
v -428 75.2097 -3276
v -428 74.8937 -3278
v -428 74.4626 -3280
v -428 74.7082 -3282
v -428 74.9886 -3284
v -428 75.4036 -3286
v -428 75.7774 -3288
v -428 76.2162 -3290
v -428 76.5806 -3292
v -428 77.0501 -3294
v -426 76.6743 -3232
v -426 76.9896 -3234
v -426 77.4026 -3236
v -426 77.6849 -3238
v -426 77.5257 -3240
v -426 77.6262 -3242
v -426 77.5838 -3244
v -426 77.6866 -3246
v -426 77.7064 -3248
v -426 77.7415 -3250
v -426 77.7927 -3252
v -426 77.6602 -3254
v -426 77.6544 -3256
v -426 77.6046 -3258
v -426 77.7185 -3260
v -426 77.7208 -3262
v -426 77.2053 -3264
v -426 76.9572 -3266
v -426 76.598 -3268
v -426 76.261 -3270
v -426 76.128 -3272
v -426 75.8558 -3274
v -426 75.6051 -3276
v -426 75.2359 -3278
v -426 74.835 -3280
v -426 74.3494 -3282
v -426 74.8096 -3284
v -426 75.3763 -3286
v -426 75.6212 -3288
v -426 76.0105 -3290
v -426 76.4699 -3292
v -426 76.8477 -3294
v -424 76.681 -3232
v -424 77.0851 -3234
v -424 77.6453 -3236
v -424 77.7433 -3238
v -424 77.7032 -3240
v -424 77.8491 -3242
v -424 77.7164 -3244
v -424 77.8063 -3246
v -424 77.9079 -3248
v -424 77.9544 -3250
v -424 77.8642 -3252
v -424 77.7679 -3254
v -424 77.7308 -3256
v -424 77.6236 -3258
v -424 77.6191 -3260
v -424 77.6781 -3262
v -424 77.5147 -3264
v -424 77.1842 -3266
v -424 76.7797 -3268
v -424 76.6408 -3270
v -424 76.216 -3272
v -424 75.8987 -3274
v -424 75.6234 -3276
v -424 75.2619 -3278
v -424 74.9985 -3280
v -424 74.6784 -3282
v -424 74.4863 -3284
v -424 75.0506 -3286
v -424 75.2997 -3288
v -424 75.6457 -3290
v -424 76.1274 -3292
v -424 76.6293 -3294
v -422 76.9683 -3232
v -422 77.3777 -3234
v -422 77.5816 -3236
v -422 77.5191 -3238
v -422 77.7486 -3240
v -422 77.8279 -3242
v -422 77.7563 -3244
v -422 77.6834 -3246
v -422 78.4887 -3248
v -422 78.6104 -3250
v -422 78.4743 -3252
v -422 78.0261 -3254
v -422 77.8808 -3256
v -422 77.683 -3258
v -422 77.6995 -3260
v -422 77.7371 -3262
v -422 77.5853 -3264
v -422 77.3265 -3266
v -422 77.1511 -3268
v -422 76.7486 -3270
v -422 76.3772 -3272
v -422 76.2154 -3274
v -422 75.862 -3276
v -422 75.4683 -3278
v -422 75.2166 -3280
v -422 74.9887 -3282
v -422 74.5093 -3284
v -422 74.7932 -3286
v -422 75.0634 -3288
v -422 75.4997 -3290
v -422 75.8346 -3292
v -422 76.24 -3294
v -420 77.0882 -3232
v -420 77.7452 -3234
v -420 77.6411 -3236
v -420 77.6117 -3238
v -420 77.7188 -3240
v -420 77.7975 -3242
v -420 77.7477 -3244
v -420 77.8639 -3246
v -420 78.713 -3248
v -420 79.1126 -3250
v -420 78.8587 -3252
v -420 78.1103 -3254
v -420 77.9886 -3256
v -420 78.1644 -3258
v -420 78.4369 -3260
v -420 78.429 -3262
v -420 77.7871 -3264
v -420 77.5858 -3266
v -420 77.3903 -3268
v -420 77.0391 -3270
v -420 76.6487 -3272
v -420 76.3882 -3274
v -420 76.0554 -3276
v -420 75.8153 -3278
v -420 75.549 -3280
v -420 75.2325 -3282
v -420 74.9168 -3284
v -420 74.3935 -3286
v -420 74.7595 -3288
v -420 75.1041 -3290
v -420 75.5154 -3292
v -420 76.0091 -3294
v -418 77.3785 -3232
v -418 78.0476 -3234
v -418 77.7814 -3236
v -418 77.7359 -3238
v -418 77.8484 -3240
v -418 77.9685 -3242
v -418 77.9265 -3244
v -418 78.0389 -3246
v -418 78.1671 -3248
v -418 79.0542 -3250
v -418 78.6713 -3252
v -418 78.1886 -3254
v -418 78.053 -3256
v -418 78.9435 -3258
v -418 79.235 -3260
v -418 79.0056 -3262
v -418 78.6371 -3264
v -418 78.5163 -3266
v -418 78.0443 -3268
v -418 77.5506 -3270
v -418 76.9824 -3272
v -418 76.7397 -3274
v -418 76.3905 -3276
v -418 76.173 -3278
v -418 75.8553 -3280
v -418 75.5805 -3282
v -418 75.0809 -3284
v -418 74.7007 -3286
v -418 74.3739 -3288
v -418 74.7163 -3290
v -418 75.1283 -3292
v -418 75.6275 -3294
v -416 77.9945 -3232
v -416 78.8246 -3234
v -416 78.4117 -3236
v -416 78.6443 -3238
v -416 78.7728 -3240
v -416 78.8403 -3242
v -416 78.0149 -3244
v -416 78.1628 -3246
v -416 78.3058 -3248
v -416 78.4994 -3250
v -416 78.4066 -3252
v -416 78.3802 -3254
v -416 78.1695 -3256
v -416 78.6582 -3258
v -416 79.173 -3260
v -416 79.9065 -3262
v -416 79.5165 -3264
v -416 79.6805 -3266
v -416 79.0426 -3268
v -416 78.7737 -3270
v -416 77.6567 -3272
v -416 77.3917 -3274
v -416 76.7907 -3276
v -416 76.3753 -3278
v -416 76.1859 -3280
v -416 75.9569 -3282
v -416 75.3864 -3284
v -416 75.0471 -3286
v -416 74.4958 -3288
v -416 74.435 -3290
v -416 74.8559 -3292
v -416 75.3669 -3294
v -414 77.9023 -3232
v -414 78.8587 -3234
v -414 78.9785 -3236
v -414 79.1094 -3238
v -414 78.9727 -3240
v -414 79.0978 -3242
v -414 78.3493 -3244
v -414 78.4479 -3246
v -414 78.5055 -3248
v -414 78.527 -3250
v -414 78.6148 -3252
v -414 78.5529 -3254
v -414 78.3546 -3256
v -414 78.7345 -3258
v -414 79.6242 -3260
v -414 80.0035 -3262
v -414 79.3941 -3264
v -414 79.99 -3266
v -414 79.656 -3268
v -414 79.0274 -3270
v -414 78.5991 -3272
v -414 78.0098 -3274
v -414 77.2075 -3276
v -414 76.8428 -3278
v -414 76.481 -3280
v -414 76.1011 -3282
v -414 75.5382 -3284
v -414 75.3139 -3286
v -414 74.8971 -3288
v -414 74.3653 -3290
v -414 74.543 -3292
v -414 75.161 -3294
v -412 77.7008 -3232
v -412 78.9176 -3234
v -412 79.8544 -3236
v -412 79.4735 -3238
v -412 79.3883 -3240
v -412 78.3717 -3242
v -412 78.4465 -3244
v -412 78.4388 -3246
v -412 78.559 -3248
v -412 78.6666 -3250
v -412 78.6068 -3252
v -412 78.6205 -3254
v -412 78.5986 -3256
v -412 78.6788 -3258
v -412 80.3754 -3260
v -412 80.697 -3262
v -412 79.9934 -3264
v -412 80.3683 -3266
v -412 80.0939 -3268
v -412 79.5459 -3270
v -412 78.93 -3272
v -412 78.2316 -3274
v -412 77.8352 -3276
v -412 77.0654 -3278
v -412 76.6682 -3280
v -412 76.182 -3282
v -412 75.7947 -3284
v -412 75.5664 -3286
v -412 75.0819 -3288
v -412 74.8297 -3290
v -412 74.3211 -3292
v -412 74.6946 -3294
v -410 77.7951 -3232
v -410 79.4877 -3234
v -410 80.0994 -3236
v -410 79.931 -3238
v -410 78.3622 -3240
v -410 78.4111 -3242
v -410 78.6017 -3244
v -410 78.5701 -3246
v -410 78.6088 -3248
v -410 78.6822 -3250
v -410 78.7481 -3252
v -410 78.7397 -3254
v -410 78.7363 -3256
v -410 78.6245 -3258
v -410 79.2677 -3260
v -410 80.1393 -3262
v -410 80.4012 -3264
v -410 79.4327 -3266
v -410 79.4734 -3268
v -410 79.0725 -3270
v -410 78.8912 -3272
v -410 78.855 -3274
v -410 78.3999 -3276
v -410 77.3601 -3278
v -410 76.85 -3280
v -410 76.3721 -3282
v -410 76.0076 -3284
v -410 75.7853 -3286
v -410 75.3101 -3288
v -410 75.0492 -3290
v -410 74.6311 -3292
v -410 74.4599 -3294
v -408 78.1735 -3232
v -408 79.4626 -3234
v -408 80.8718 -3236
v -408 80.0929 -3238
v -408 78.4332 -3240
v -408 78.421 -3242
v -408 78.5144 -3244
v -408 78.6586 -3246
v -408 78.6375 -3248
v -408 78.7289 -3250
v -408 78.7348 -3252
v -408 78.8011 -3254
v -408 78.8304 -3256
v -408 78.8981 -3258
v -408 78.74 -3260
v -408 78.7021 -3262
v -408 78.4728 -3264
v -408 78.2723 -3266
v -408 78.1743 -3268
v -408 78.7305 -3270
v -408 79.448 -3272
v -408 79.5726 -3274
v -408 78.4365 -3276
v -408 77.8143 -3278
v -408 77.1453 -3280
v -408 76.5992 -3282
v -408 76.3308 -3284
v -408 75.8292 -3286
v -408 75.5441 -3288
v -408 75.1958 -3290
v -408 74.7691 -3292
v -408 74.3619 -3294
v -406 77.9299 -3232
v -406 79.0396 -3234
v -406 79.906 -3236
v -406 79.1581 -3238
v -406 78.339 -3240
v -406 78.5296 -3242
v -406 78.6774 -3244
v -406 78.6448 -3246
v -406 78.7317 -3248
v -406 78.6708 -3250
v -406 78.8176 -3252
v -406 78.8803 -3254
v -406 78.9772 -3256
v -406 78.9987 -3258
v -406 79.084 -3260
v -406 78.8041 -3262
v -406 78.6257 -3264
v -406 78.478 -3266
v -406 78.3129 -3268
v -406 78.2546 -3270
v -406 79.7913 -3272
v -406 80.425 -3274
v -406 80.0627 -3276
v -406 78.9741 -3278
v -406 77.3296 -3280
v -406 76.8953 -3282
v -406 76.6016 -3284
v -406 76.1118 -3286
v -406 75.7572 -3288
v -406 75.35 -3290
v -406 75.1177 -3292
v -406 74.6874 -3294
v -404 78.1566 -3232
v -404 78.2291 -3234
v -404 78.4549 -3236
v -404 78.5793 -3238
v -404 78.6126 -3240
v -404 78.5738 -3242
v -404 78.8139 -3244
v -404 78.8225 -3246
v -404 78.976 -3248
v -404 78.9182 -3250
v -404 78.9135 -3252
v -404 78.9544 -3254
v -404 79.1791 -3256
v -404 79.1947 -3258
v -404 79.0649 -3260
v -404 78.8637 -3262
v -404 78.6019 -3264
v -404 78.4525 -3266
v -404 78.363 -3268
v -404 78.4344 -3270
v -404 79.8485 -3272
v -404 80.6315 -3274
v -404 80.1216 -3276
v -404 79.0467 -3278
v -404 78.5145 -3280
v -404 77.4201 -3282
v -404 76.759 -3284
v -404 76.2847 -3286
v -404 75.8879 -3288
v -404 75.6383 -3290
v -404 75.2507 -3292
v -404 74.8431 -3294
v -402 78.2897 -3232
v -402 78.35 -3234
v -402 78.6214 -3236
v -402 78.7684 -3238
v -402 78.8384 -3240
v -402 78.9351 -3242
v -402 78.8998 -3244
v -402 78.9606 -3246
v -402 79.1193 -3248
v -402 79.095 -3250
v -402 79.1093 -3252
v -402 79.0956 -3254
v -402 79.2361 -3256
v -402 79.1262 -3258
v -402 79.1085 -3260
v -402 79.0032 -3262
v -402 78.7462 -3264
v -402 78.6593 -3266
v -402 78.6508 -3268
v -402 78.5016 -3270
v -402 79.2118 -3272
v -402 81.5027 -3274
v -402 80.9539 -3276
v -402 80.3137 -3278
v -402 79.0257 -3280
v -402 77.917 -3282
v -402 76.9658 -3284
v -402 76.6689 -3286
v -402 76.2811 -3288
v -402 75.9406 -3290
v -402 75.5558 -3292
v -402 75.1244 -3294
f 14 13 12
f 13 11 12
f 12 11 10
f 16 15 14
f 15 13 14
f 10 9 8
f 11 9 10
f 18 17 16
f 17 15 16
f 8 7 6
f 9 7 8
f 13 30 11
f 11 29 9
f 15 31 13
f 9 28 7
f 17 32 15
f 7 5 6
f 7 27 5
f 19 17 18
f 20 19 18
f 19 33 17
f 21 34 19
f 23 35 21
f 2 36 23
f 3 25 2
f 5 26 3
f 6 5 4
f 5 3 4
f 21 19 20
f 4 3 1
f 3 2 1
f 22 21 20
f 23 21 22
f 2 23 24
f 1 2 24
f 24 23 22
f 50 49 48
f 122 121 119
f 123 122 119
f 51 49 50
f 52 51 50
f 48 47 46
f 49 47 48
f 53 51 52
f 124 123 119
f 121 120 119
f 54 53 52
f 78 77 76
f 76 75 74
f 77 75 76
f 80 79 78
f 79 77 78
f 47 45 46
f 74 73 72
f 75 73 74
f 104 103 102
f 103 101 102
f 102 101 100
f 73 71 72
f 106 105 104
f 105 103 104
f 101 99 100
f 100 99 98
f 55 53 54
f 56 55 54
f 125 124 119
f 118 117 115
f 46 45 43
f 82 81 80
f 81 79 80
f 72 71 69
f 45 44 43
f 99 97 98
f 71 70 69
f 107 105 106
f 108 107 106
f 98 97 95
f 97 96 95
f 126 125 119
f 58 57 56
f 57 55 56
f 84 83 82
f 83 81 82
f 110 109 108
f 109 107 108
f 93 91 92
f 94 93 92
f 68 67 66
f 67 65 66
f 42 41 40
f 41 39 40
f 117 116 115
f 111 109 110
f 92 91 89
f 91 90 89
f 65 64 63
f 66 65 63
f 85 83 84
f 112 111 110
f 89 90 114
f 90 113 114
f 113 111 112
f 86 85 84
f 59 57 58
f 114 113 112
f 40 39 37
f 39 38 37
f 60 59 58
f 127 126 119
f 87 85 86
f 63 64 88
f 64 87 88
f 88 87 86
f 61 59 60
f 38 61 62
f 37 38 62
f 62 61 60
f 128 127 119
f 129 130 131
f 131 130 132
f 133 134 135
f 135 134 136
f 137 138 139
f 139 138 140
f 141 142 143
f 143 142 144
f 145 146 147
f 147 146 148
f 149 150 151
f 151 150 152
f 153 154 155
f 155 154 156
f 157 158 159
f 159 158 160
f 174 173 172
f 173 171 172
f 172 171 170
f 176 175 174
f 175 173 174
f 170 169 168
f 171 169 170
f 178 177 176
f 177 175 176
f 168 167 166
f 169 167 168
f 173 190 171
f 171 189 169
f 175 191 173
f 169 188 167
f 177 192 175
f 167 165 166
f 167 187 165
f 179 177 178
f 180 179 178
f 179 193 177
f 181 194 179
f 183 195 181
f 162 196 183
f 163 185 162
f 165 186 163
f 166 165 164
f 165 163 164
f 181 179 180
f 164 163 161
f 163 162 161
f 182 181 180
f 183 181 182
f 162 183 184
f 161 162 184
f 184 183 182
f 210 209 208
f 282 281 279
f 283 282 279
f 211 209 210
f 212 211 210
f 208 207 206
f 209 207 208
f 213 211 212
f 284 283 279
f 281 280 279
f 214 213 212
f 238 237 236
f 236 235 234
f 237 235 236
f 240 239 238
f 239 237 238
f 207 205 206
f 234 233 232
f 235 233 234
f 264 263 262
f 263 261 262
f 262 261 260
f 233 231 232
f 266 265 264
f 265 263 264
f 261 259 260
f 260 259 258
f 215 213 214
f 216 215 214
f 285 284 279
f 278 277 275
f 206 205 203
f 242 241 240
f 241 239 240
f 232 231 229
f 205 204 203
f 259 257 258
f 231 230 229
f 267 265 266
f 268 267 266
f 258 257 255
f 257 256 255
f 286 285 279
f 218 217 216
f 217 215 216
f 244 243 242
f 243 241 242
f 270 269 268
f 269 267 268
f 253 251 252
f 254 253 252
f 228 227 226
f 227 225 226
f 202 201 200
f 201 199 200
f 277 276 275
f 271 269 270
f 252 251 249
f 251 250 249
f 225 224 223
f 226 225 223
f 245 243 244
f 272 271 270
f 249 250 274
f 250 273 274
f 273 271 272
f 246 245 244
f 219 217 218
f 274 273 272
f 200 199 197
f 199 198 197
f 220 219 218
f 287 286 279
f 247 245 246
f 223 224 248
f 224 247 248
f 248 247 246
f 221 219 220
f 198 221 222
f 197 198 222
f 222 221 220
f 288 287 279
f 289 290 291
f 291 290 292
f 293 294 295
f 295 294 296
f 297 298 299
f 299 298 300
f 301 302 303
f 303 302 304
f 305 306 307
f 307 306 308
f 309 310 311
f 311 310 312
f 313 314 315
f 315 314 316
f 317 318 319
f 319 318 320
f 334 333 332
f 333 331 332
f 332 331 330
f 336 335 334
f 335 333 334
f 330 329 328
f 331 329 330
f 338 337 336
f 337 335 336
f 328 327 326
f 329 327 328
f 333 350 331
f 331 349 329
f 335 351 333
f 329 348 327
f 337 352 335
f 327 325 326
f 327 347 325
f 339 337 338
f 340 339 338
f 339 353 337
f 341 354 339
f 343 355 341
f 322 356 343
f 323 345 322
f 325 346 323
f 326 325 324
f 325 323 324
f 341 339 340
f 324 323 321
f 323 322 321
f 342 341 340
f 343 341 342
f 322 343 344
f 321 322 344
f 344 343 342
f 370 369 368
f 442 441 439
f 443 442 439
f 371 369 370
f 372 371 370
f 368 367 366
f 369 367 368
f 373 371 372
f 444 443 439
f 441 440 439
f 374 373 372
f 398 397 396
f 396 395 394
f 397 395 396
f 400 399 398
f 399 397 398
f 367 365 366
f 394 393 392
f 395 393 394
f 424 423 422
f 423 421 422
f 422 421 420
f 393 391 392
f 426 425 424
f 425 423 424
f 421 419 420
f 420 419 418
f 375 373 374
f 376 375 374
f 445 444 439
f 438 437 435
f 366 365 363
f 402 401 400
f 401 399 400
f 392 391 389
f 365 364 363
f 419 417 418
f 391 390 389
f 427 425 426
f 428 427 426
f 418 417 415
f 417 416 415
f 446 445 439
f 378 377 376
f 377 375 376
f 404 403 402
f 403 401 402
f 430 429 428
f 429 427 428
f 413 411 412
f 414 413 412
f 388 387 386
f 387 385 386
f 362 361 360
f 361 359 360
f 437 436 435
f 431 429 430
f 412 411 409
f 411 410 409
f 385 384 383
f 386 385 383
f 405 403 404
f 432 431 430
f 409 410 434
f 410 433 434
f 433 431 432
f 406 405 404
f 379 377 378
f 434 433 432
f 360 359 357
f 359 358 357
f 380 379 378
f 447 446 439
f 407 405 406
f 383 384 408
f 384 407 408
f 408 407 406
f 381 379 380
f 358 381 382
f 357 358 382
f 382 381 380
f 448 447 439
f 449 450 451
f 451 450 452
f 453 454 455
f 455 454 456
f 457 458 459
f 459 458 460
f 461 462 463
f 463 462 464
f 465 466 467
f 467 466 468
f 469 470 471
f 471 470 472
f 473 474 475
f 475 474 476
f 477 478 479
f 479 478 480
f 494 493 492
f 493 491 492
f 492 491 490
f 496 495 494
f 495 493 494
f 490 489 488
f 491 489 490
f 498 497 496
f 497 495 496
f 488 487 486
f 489 487 488
f 493 510 491
f 491 509 489
f 495 511 493
f 489 508 487
f 497 512 495
f 487 485 486
f 487 507 485
f 499 497 498
f 500 499 498
f 499 513 497
f 501 514 499
f 503 515 501
f 482 516 503
f 483 505 482
f 485 506 483
f 486 485 484
f 485 483 484
f 501 499 500
f 484 483 481
f 483 482 481
f 502 501 500
f 503 501 502
f 482 503 504
f 481 482 504
f 504 503 502
f 530 529 528
f 602 601 599
f 603 602 599
f 531 529 530
f 532 531 530
f 528 527 526
f 529 527 528
f 533 531 532
f 604 603 599
f 601 600 599
f 534 533 532
f 558 557 556
f 556 555 554
f 557 555 556
f 560 559 558
f 559 557 558
f 527 525 526
f 554 553 552
f 555 553 554
f 584 583 582
f 583 581 582
f 582 581 580
f 553 551 552
f 586 585 584
f 585 583 584
f 581 579 580
f 580 579 578
f 535 533 534
f 536 535 534
f 605 604 599
f 598 597 595
f 526 525 523
f 562 561 560
f 561 559 560
f 552 551 549
f 525 524 523
f 579 577 578
f 551 550 549
f 587 585 586
f 588 587 586
f 578 577 575
f 577 576 575
f 606 605 599
f 538 537 536
f 537 535 536
f 564 563 562
f 563 561 562
f 590 589 588
f 589 587 588
f 573 571 572
f 574 573 572
f 548 547 546
f 547 545 546
f 522 521 520
f 521 519 520
f 597 596 595
f 591 589 590
f 572 571 569
f 571 570 569
f 545 544 543
f 546 545 543
f 565 563 564
f 592 591 590
f 569 570 594
f 570 593 594
f 593 591 592
f 566 565 564
f 539 537 538
f 594 593 592
f 520 519 517
f 519 518 517
f 540 539 538
f 607 606 599
f 567 565 566
f 543 544 568
f 544 567 568
f 568 567 566
f 541 539 540
f 518 541 542
f 517 518 542
f 542 541 540
f 608 607 599
f 609 610 611
f 611 610 612
f 613 614 615
f 615 614 616
f 617 618 619
f 619 618 620
f 621 622 623
f 623 622 624
f 625 626 627
f 627 626 628
f 629 630 631
f 631 630 632
f 633 634 635
f 635 634 636
f 637 638 639
f 639 638 640
f 674 642 641
f 641 673 674
f 706 674 673
f 673 705 706
f 738 706 705
f 705 737 738
f 770 738 737
f 737 769 770
f 802 770 769
f 769 801 802
f 834 802 801
f 801 833 834
f 866 834 833
f 833 865 866
f 898 866 865
f 865 897 898
f 930 898 897
f 897 929 930
f 962 930 929
f 929 961 962
f 994 962 961
f 961 993 994
f 1026 994 993
f 993 1025 1026
f 1058 1026 1025
f 1025 1057 1058
f 1090 1058 1057
f 1057 1089 1090
f 1122 1090 1089
f 1089 1121 1122
f 1154 1122 1121
f 1121 1153 1154
f 1186 1154 1153
f 1153 1185 1186
f 1218 1186 1185
f 1185 1217 1218
f 1250 1218 1217
f 1217 1249 1250
f 1282 1250 1249
f 1249 1281 1282
f 1314 1282 1281
f 1281 1313 1314
f 1346 1314 1313
f 1313 1345 1346
f 1378 1346 1345
f 1345 1377 1378
f 1410 1378 1377
f 1377 1409 1410
f 1442 1410 1409
f 1409 1441 1442
f 1474 1442 1441
f 1441 1473 1474
f 1506 1474 1473
f 1473 1505 1506
f 1538 1506 1505
f 1505 1537 1538
f 1570 1538 1537
f 1537 1569 1570
f 1602 1570 1569
f 1569 1601 1602
f 1634 1602 1601
f 1601 1633 1634
f 675 643 642
f 642 674 675
f 707 675 674
f 674 706 707
f 739 707 706
f 706 738 739
f 771 739 738
f 738 770 771
f 803 771 770
f 770 802 803
f 835 803 802
f 802 834 835
f 867 835 834
f 834 866 867
f 899 867 866
f 866 898 899
f 931 899 898
f 898 930 931
f 963 931 930
f 930 962 963
f 995 963 962
f 962 994 995
f 1027 995 994
f 994 1026 1027
f 1059 1027 1026
f 1026 1058 1059
f 1091 1059 1058
f 1058 1090 1091
f 1123 1091 1090
f 1090 1122 1123
f 1155 1123 1122
f 1122 1154 1155
f 1187 1155 1154
f 1154 1186 1187
f 1219 1187 1186
f 1186 1218 1219
f 1251 1219 1218
f 1218 1250 1251
f 1283 1251 1250
f 1250 1282 1283
f 1315 1283 1282
f 1282 1314 1315
f 1347 1315 1314
f 1314 1346 1347
f 1379 1347 1346
f 1346 1378 1379
f 1411 1379 1378
f 1378 1410 1411
f 1443 1411 1410
f 1410 1442 1443
f 1475 1443 1442
f 1442 1474 1475
f 1507 1475 1474
f 1474 1506 1507
f 1539 1507 1506
f 1506 1538 1539
f 1571 1539 1538
f 1538 1570 1571
f 1603 1571 1570
f 1570 1602 1603
f 1635 1603 1602
f 1602 1634 1635
f 676 644 643
f 643 675 676
f 708 676 675
f 675 707 708
f 740 708 707
f 707 739 740
f 772 740 739
f 739 771 772
f 804 772 771
f 771 803 804
f 836 804 803
f 803 835 836
f 868 836 835
f 835 867 868
f 900 868 867
f 867 899 900
f 932 900 899
f 899 931 932
f 964 932 931
f 931 963 964
f 996 964 963
f 963 995 996
f 1028 996 995
f 995 1027 1028
f 1060 1028 1027
f 1027 1059 1060
f 1092 1060 1059
f 1059 1091 1092
f 1124 1092 1091
f 1091 1123 1124
f 1156 1124 1123
f 1123 1155 1156
f 1188 1156 1155
f 1155 1187 1188
f 1220 1188 1187
f 1187 1219 1220
f 1252 1220 1219
f 1219 1251 1252
f 1284 1252 1251
f 1251 1283 1284
f 1316 1284 1283
f 1283 1315 1316
f 1348 1316 1315
f 1315 1347 1348
f 1380 1348 1347
f 1347 1379 1380
f 1412 1380 1379
f 1379 1411 1412
f 1444 1412 1411
f 1411 1443 1444
f 1476 1444 1443
f 1443 1475 1476
f 1508 1476 1475
f 1475 1507 1508
f 1540 1508 1507
f 1507 1539 1540
f 1572 1540 1539
f 1539 1571 1572
f 1604 1572 1571
f 1571 1603 1604
f 1636 1604 1603
f 1603 1635 1636
f 677 645 644
f 644 676 677
f 709 677 676
f 676 708 709
f 741 709 708
f 708 740 741
f 773 741 740
f 740 772 773
f 805 773 772
f 772 804 805
f 837 805 804
f 804 836 837
f 869 837 836
f 836 868 869
f 901 869 868
f 868 900 901
f 933 901 900
f 900 932 933
f 965 933 932
f 932 964 965
f 997 965 964
f 964 996 997
f 1029 997 996
f 996 1028 1029
f 1061 1029 1028
f 1028 1060 1061
f 1093 1061 1060
f 1060 1092 1093
f 1125 1093 1092
f 1092 1124 1125
f 1157 1125 1124
f 1124 1156 1157
f 1189 1157 1156
f 1156 1188 1189
f 1221 1189 1188
f 1188 1220 1221
f 1253 1221 1220
f 1220 1252 1253
f 1285 1253 1252
f 1252 1284 1285
f 1317 1285 1284
f 1284 1316 1317
f 1349 1317 1316
f 1316 1348 1349
f 1381 1349 1348
f 1348 1380 1381
f 1413 1381 1380
f 1380 1412 1413
f 1445 1413 1412
f 1412 1444 1445
f 1477 1445 1444
f 1444 1476 1477
f 1509 1477 1476
f 1476 1508 1509
f 1541 1509 1508
f 1508 1540 1541
f 1573 1541 1540
f 1540 1572 1573
f 1605 1573 1572
f 1572 1604 1605
f 1637 1605 1604
f 1604 1636 1637
f 678 646 645
f 645 677 678
f 710 678 677
f 677 709 710
f 742 710 709
f 709 741 742
f 774 742 741
f 741 773 774
f 806 774 773
f 773 805 806
f 838 806 805
f 805 837 838
f 870 838 837
f 837 869 870
f 902 870 869
f 869 901 902
f 934 902 901
f 901 933 934
f 966 934 933
f 933 965 966
f 998 966 965
f 965 997 998
f 1030 998 997
f 997 1029 1030
f 1062 1030 1029
f 1029 1061 1062
f 1094 1062 1061
f 1061 1093 1094
f 1126 1094 1093
f 1093 1125 1126
f 1158 1126 1125
f 1125 1157 1158
f 1190 1158 1157
f 1157 1189 1190
f 1222 1190 1189
f 1189 1221 1222
f 1254 1222 1221
f 1221 1253 1254
f 1286 1254 1253
f 1253 1285 1286
f 1318 1286 1285
f 1285 1317 1318
f 1350 1318 1317
f 1317 1349 1350
f 1382 1350 1349
f 1349 1381 1382
f 1414 1382 1381
f 1381 1413 1414
f 1446 1414 1413
f 1413 1445 1446
f 1478 1446 1445
f 1445 1477 1478
f 1510 1478 1477
f 1477 1509 1510
f 1542 1510 1509
f 1509 1541 1542
f 1574 1542 1541
f 1541 1573 1574
f 1606 1574 1573
f 1573 1605 1606
f 1638 1606 1605
f 1605 1637 1638
f 679 647 646
f 646 678 679
f 711 679 678
f 678 710 711
f 743 711 710
f 710 742 743
f 775 743 742
f 742 774 775
f 807 775 774
f 774 806 807
f 839 807 806
f 806 838 839
f 871 839 838
f 838 870 871
f 903 871 870
f 870 902 903
f 935 903 902
f 902 934 935
f 967 935 934
f 934 966 967
f 999 967 966
f 966 998 999
f 1031 999 998
f 998 1030 1031
f 1063 1031 1030
f 1030 1062 1063
f 1095 1063 1062
f 1062 1094 1095
f 1127 1095 1094
f 1094 1126 1127
f 1159 1127 1126
f 1126 1158 1159
f 1191 1159 1158
f 1158 1190 1191
f 1223 1191 1190
f 1190 1222 1223
f 1255 1223 1222
f 1222 1254 1255
f 1287 1255 1254
f 1254 1286 1287
f 1319 1287 1286
f 1286 1318 1319
f 1351 1319 1318
f 1318 1350 1351
f 1383 1351 1350
f 1350 1382 1383
f 1415 1383 1382
f 1382 1414 1415
f 1447 1415 1414
f 1414 1446 1447
f 1479 1447 1446
f 1446 1478 1479
f 1511 1479 1478
f 1478 1510 1511
f 1543 1511 1510
f 1510 1542 1543
f 1575 1543 1542
f 1542 1574 1575
f 1607 1575 1574
f 1574 1606 1607
f 1639 1607 1606
f 1606 1638 1639
f 680 648 647
f 647 679 680
f 712 680 679
f 679 711 712
f 744 712 711
f 711 743 744
f 776 744 743
f 743 775 776
f 808 776 775
f 775 807 808
f 840 808 807
f 807 839 840
f 872 840 839
f 839 871 872
f 904 872 871
f 871 903 904
f 936 904 903
f 903 935 936
f 968 936 935
f 935 967 968
f 1000 968 967
f 967 999 1000
f 1032 1000 999
f 999 1031 1032
f 1064 1032 1031
f 1031 1063 1064
f 1096 1064 1063
f 1063 1095 1096
f 1128 1096 1095
f 1095 1127 1128
f 1160 1128 1127
f 1127 1159 1160
f 1192 1160 1159
f 1159 1191 1192
f 1224 1192 1191
f 1191 1223 1224
f 1256 1224 1223
f 1223 1255 1256
f 1288 1256 1255
f 1255 1287 1288
f 1320 1288 1287
f 1287 1319 1320
f 1352 1320 1319
f 1319 1351 1352
f 1384 1352 1351
f 1351 1383 1384
f 1416 1384 1383
f 1383 1415 1416
f 1448 1416 1415
f 1415 1447 1448
f 1480 1448 1447
f 1447 1479 1480
f 1512 1480 1479
f 1479 1511 1512
f 1544 1512 1511
f 1511 1543 1544
f 1576 1544 1543
f 1543 1575 1576
f 1608 1576 1575
f 1575 1607 1608
f 1640 1608 1607
f 1607 1639 1640
f 681 649 648
f 648 680 681
f 713 681 680
f 680 712 713
f 745 713 712
f 712 744 745
f 777 745 744
f 744 776 777
f 809 777 776
f 776 808 809
f 841 809 808
f 808 840 841
f 873 841 840
f 840 872 873
f 905 873 872
f 872 904 905
f 937 905 904
f 904 936 937
f 969 937 936
f 936 968 969
f 1001 969 968
f 968 1000 1001
f 1033 1001 1000
f 1000 1032 1033
f 1065 1033 1032
f 1032 1064 1065
f 1097 1065 1064
f 1064 1096 1097
f 1129 1097 1096
f 1096 1128 1129
f 1161 1129 1128
f 1128 1160 1161
f 1193 1161 1160
f 1160 1192 1193
f 1225 1193 1192
f 1192 1224 1225
f 1257 1225 1224
f 1224 1256 1257
f 1289 1257 1256
f 1256 1288 1289
f 1321 1289 1288
f 1288 1320 1321
f 1353 1321 1320
f 1320 1352 1353
f 1385 1353 1352
f 1352 1384 1385
f 1417 1385 1384
f 1384 1416 1417
f 1449 1417 1416
f 1416 1448 1449
f 1481 1449 1448
f 1448 1480 1481
f 1513 1481 1480
f 1480 1512 1513
f 1545 1513 1512
f 1512 1544 1545
f 1577 1545 1544
f 1544 1576 1577
f 1609 1577 1576
f 1576 1608 1609
f 1641 1609 1608
f 1608 1640 1641
f 682 650 649
f 649 681 682
f 714 682 681
f 681 713 714
f 746 714 713
f 713 745 746
f 778 746 745
f 745 777 778
f 810 778 777
f 777 809 810
f 842 810 809
f 809 841 842
f 874 842 841
f 841 873 874
f 906 874 873
f 873 905 906
f 938 906 905
f 905 937 938
f 970 938 937
f 937 969 970
f 1002 970 969
f 969 1001 1002
f 1034 1002 1001
f 1001 1033 1034
f 1066 1034 1033
f 1033 1065 1066
f 1098 1066 1065
f 1065 1097 1098
f 1130 1098 1097
f 1097 1129 1130
f 1162 1130 1129
f 1129 1161 1162
f 1194 1162 1161
f 1161 1193 1194
f 1226 1194 1193
f 1193 1225 1226
f 1258 1226 1225
f 1225 1257 1258
f 1290 1258 1257
f 1257 1289 1290
f 1322 1290 1289
f 1289 1321 1322
f 1354 1322 1321
f 1321 1353 1354
f 1386 1354 1353
f 1353 1385 1386
f 1418 1386 1385
f 1385 1417 1418
f 1450 1418 1417
f 1417 1449 1450
f 1482 1450 1449
f 1449 1481 1482
f 1514 1482 1481
f 1481 1513 1514
f 1546 1514 1513
f 1513 1545 1546
f 1578 1546 1545
f 1545 1577 1578
f 1610 1578 1577
f 1577 1609 1610
f 1642 1610 1609
f 1609 1641 1642
f 683 651 650
f 650 682 683
f 715 683 682
f 682 714 715
f 747 715 714
f 714 746 747
f 779 747 746
f 746 778 779
f 811 779 778
f 778 810 811
f 843 811 810
f 810 842 843
f 875 843 842
f 842 874 875
f 907 875 874
f 874 906 907
f 939 907 906
f 906 938 939
f 971 939 938
f 938 970 971
f 1003 971 970
f 970 1002 1003
f 1035 1003 1002
f 1002 1034 1035
f 1067 1035 1034
f 1034 1066 1067
f 1099 1067 1066
f 1066 1098 1099
f 1131 1099 1098
f 1098 1130 1131
f 1163 1131 1130
f 1130 1162 1163
f 1195 1163 1162
f 1162 1194 1195
f 1227 1195 1194
f 1194 1226 1227
f 1259 1227 1226
f 1226 1258 1259
f 1291 1259 1258
f 1258 1290 1291
f 1323 1291 1290
f 1290 1322 1323
f 1355 1323 1322
f 1322 1354 1355
f 1387 1355 1354
f 1354 1386 1387
f 1419 1387 1386
f 1386 1418 1419
f 1451 1419 1418
f 1418 1450 1451
f 1483 1451 1450
f 1450 1482 1483
f 1515 1483 1482
f 1482 1514 1515
f 1547 1515 1514
f 1514 1546 1547
f 1579 1547 1546
f 1546 1578 1579
f 1611 1579 1578
f 1578 1610 1611
f 1643 1611 1610
f 1610 1642 1643
f 684 652 651
f 651 683 684
f 716 684 683
f 683 715 716
f 748 716 715
f 715 747 748
f 780 748 747
f 747 779 780
f 812 780 779
f 779 811 812
f 844 812 811
f 811 843 844
f 876 844 843
f 843 875 876
f 908 876 875
f 875 907 908
f 940 908 907
f 907 939 940
f 972 940 939
f 939 971 972
f 1004 972 971
f 971 1003 1004
f 1036 1004 1003
f 1003 1035 1036
f 1068 1036 1035
f 1035 1067 1068
f 1100 1068 1067
f 1067 1099 1100
f 1132 1100 1099
f 1099 1131 1132
f 1164 1132 1131
f 1131 1163 1164
f 1196 1164 1163
f 1163 1195 1196
f 1228 1196 1195
f 1195 1227 1228
f 1260 1228 1227
f 1227 1259 1260
f 1292 1260 1259
f 1259 1291 1292
f 1324 1292 1291
f 1291 1323 1324
f 1356 1324 1323
f 1323 1355 1356
f 1388 1356 1355
f 1355 1387 1388
f 1420 1388 1387
f 1387 1419 1420
f 1452 1420 1419
f 1419 1451 1452
f 1484 1452 1451
f 1451 1483 1484
f 1516 1484 1483
f 1483 1515 1516
f 1548 1516 1515
f 1515 1547 1548
f 1580 1548 1547
f 1547 1579 1580
f 1612 1580 1579
f 1579 1611 1612
f 1644 1612 1611
f 1611 1643 1644
f 685 653 652
f 652 684 685
f 717 685 684
f 684 716 717
f 749 717 716
f 716 748 749
f 781 749 748
f 748 780 781
f 813 781 780
f 780 812 813
f 845 813 812
f 812 844 845
f 877 845 844
f 844 876 877
f 909 877 876
f 876 908 909
f 941 909 908
f 908 940 941
f 973 941 940
f 940 972 973
f 1005 973 972
f 972 1004 1005
f 1037 1005 1004
f 1004 1036 1037
f 1069 1037 1036
f 1036 1068 1069
f 1101 1069 1068
f 1068 1100 1101
f 1133 1101 1100
f 1100 1132 1133
f 1165 1133 1132
f 1132 1164 1165
f 1197 1165 1164
f 1164 1196 1197
f 1229 1197 1196
f 1196 1228 1229
f 1261 1229 1228
f 1228 1260 1261
f 1293 1261 1260
f 1260 1292 1293
f 1325 1293 1292
f 1292 1324 1325
f 1357 1325 1324
f 1324 1356 1357
f 1389 1357 1356
f 1356 1388 1389
f 1421 1389 1388
f 1388 1420 1421
f 1453 1421 1420
f 1420 1452 1453
f 1485 1453 1452
f 1452 1484 1485
f 1517 1485 1484
f 1484 1516 1517
f 1549 1517 1516
f 1516 1548 1549
f 1581 1549 1548
f 1548 1580 1581
f 1613 1581 1580
f 1580 1612 1613
f 1645 1613 1612
f 1612 1644 1645
f 686 654 653
f 653 685 686
f 718 686 685
f 685 717 718
f 750 718 717
f 717 749 750
f 782 750 749
f 749 781 782
f 814 782 781
f 781 813 814
f 846 814 813
f 813 845 846
f 878 846 845
f 845 877 878
f 910 878 877
f 877 909 910
f 942 910 909
f 909 941 942
f 974 942 941
f 941 973 974
f 1006 974 973
f 973 1005 1006
f 1038 1006 1005
f 1005 1037 1038
f 1070 1038 1037
f 1037 1069 1070
f 1102 1070 1069
f 1069 1101 1102
f 1134 1102 1101
f 1101 1133 1134
f 1166 1134 1133
f 1133 1165 1166
f 1198 1166 1165
f 1165 1197 1198
f 1230 1198 1197
f 1197 1229 1230
f 1262 1230 1229
f 1229 1261 1262
f 1294 1262 1261
f 1261 1293 1294
f 1326 1294 1293
f 1293 1325 1326
f 1358 1326 1325
f 1325 1357 1358
f 1390 1358 1357
f 1357 1389 1390
f 1422 1390 1389
f 1389 1421 1422
f 1454 1422 1421
f 1421 1453 1454
f 1486 1454 1453
f 1453 1485 1486
f 1518 1486 1485
f 1485 1517 1518
f 1550 1518 1517
f 1517 1549 1550
f 1582 1550 1549
f 1549 1581 1582
f 1614 1582 1581
f 1581 1613 1614
f 1646 1614 1613
f 1613 1645 1646
f 687 655 654
f 654 686 687
f 719 687 686
f 686 718 719
f 751 719 718
f 718 750 751
f 783 751 750
f 750 782 783
f 815 783 782
f 782 814 815
f 847 815 814
f 814 846 847
f 879 847 846
f 846 878 879
f 911 879 878
f 878 910 911
f 943 911 910
f 910 942 943
f 975 943 942
f 942 974 975
f 1007 975 974
f 974 1006 1007
f 1039 1007 1006
f 1006 1038 1039
f 1071 1039 1038
f 1038 1070 1071
f 1103 1071 1070
f 1070 1102 1103
f 1135 1103 1102
f 1102 1134 1135
f 1167 1135 1134
f 1134 1166 1167
f 1199 1167 1166
f 1166 1198 1199
f 1231 1199 1198
f 1198 1230 1231
f 1263 1231 1230
f 1230 1262 1263
f 1295 1263 1262
f 1262 1294 1295
f 1327 1295 1294
f 1294 1326 1327
f 1359 1327 1326
f 1326 1358 1359
f 1391 1359 1358
f 1358 1390 1391
f 1423 1391 1390
f 1390 1422 1423
f 1455 1423 1422
f 1422 1454 1455
f 1487 1455 1454
f 1454 1486 1487
f 1519 1487 1486
f 1486 1518 1519
f 1551 1519 1518
f 1518 1550 1551
f 1583 1551 1550
f 1550 1582 1583
f 1615 1583 1582
f 1582 1614 1615
f 1647 1615 1614
f 1614 1646 1647
f 688 656 655
f 655 687 688
f 720 688 687
f 687 719 720
f 752 720 719
f 719 751 752
f 784 752 751
f 751 783 784
f 816 784 783
f 783 815 816
f 848 816 815
f 815 847 848
f 880 848 847
f 847 879 880
f 912 880 879
f 879 911 912
f 944 912 911
f 911 943 944
f 976 944 943
f 943 975 976
f 1008 976 975
f 975 1007 1008
f 1040 1008 1007
f 1007 1039 1040
f 1072 1040 1039
f 1039 1071 1072
f 1104 1072 1071
f 1071 1103 1104
f 1136 1104 1103
f 1103 1135 1136
f 1168 1136 1135
f 1135 1167 1168
f 1200 1168 1167
f 1167 1199 1200
f 1232 1200 1199
f 1199 1231 1232
f 1264 1232 1231
f 1231 1263 1264
f 1296 1264 1263
f 1263 1295 1296
f 1328 1296 1295
f 1295 1327 1328
f 1360 1328 1327
f 1327 1359 1360
f 1392 1360 1359
f 1359 1391 1392
f 1424 1392 1391
f 1391 1423 1424
f 1456 1424 1423
f 1423 1455 1456
f 1488 1456 1455
f 1455 1487 1488
f 1520 1488 1487
f 1487 1519 1520
f 1552 1520 1519
f 1519 1551 1552
f 1584 1552 1551
f 1551 1583 1584
f 1616 1584 1583
f 1583 1615 1616
f 1648 1616 1615
f 1615 1647 1648
f 689 657 656
f 656 688 689
f 721 689 688
f 688 720 721
f 753 721 720
f 720 752 753
f 785 753 752
f 752 784 785
f 817 785 784
f 784 816 817
f 849 817 816
f 816 848 849
f 881 849 848
f 848 880 881
f 913 881 880
f 880 912 913
f 945 913 912
f 912 944 945
f 977 945 944
f 944 976 977
f 1009 977 976
f 976 1008 1009
f 1041 1009 1008
f 1008 1040 1041
f 1073 1041 1040
f 1040 1072 1073
f 1105 1073 1072
f 1072 1104 1105
f 1137 1105 1104
f 1104 1136 1137
f 1169 1137 1136
f 1136 1168 1169
f 1201 1169 1168
f 1168 1200 1201
f 1233 1201 1200
f 1200 1232 1233
f 1265 1233 1232
f 1232 1264 1265
f 1297 1265 1264
f 1264 1296 1297
f 1329 1297 1296
f 1296 1328 1329
f 1361 1329 1328
f 1328 1360 1361
f 1393 1361 1360
f 1360 1392 1393
f 1425 1393 1392
f 1392 1424 1425
f 1457 1425 1424
f 1424 1456 1457
f 1489 1457 1456
f 1456 1488 1489
f 1521 1489 1488
f 1488 1520 1521
f 1553 1521 1520
f 1520 1552 1553
f 1585 1553 1552
f 1552 1584 1585
f 1617 1585 1584
f 1584 1616 1617
f 1649 1617 1616
f 1616 1648 1649
f 690 658 657
f 657 689 690
f 722 690 689
f 689 721 722
f 754 722 721
f 721 753 754
f 786 754 753
f 753 785 786
f 818 786 785
f 785 817 818
f 850 818 817
f 817 849 850
f 882 850 849
f 849 881 882
f 914 882 881
f 881 913 914
f 946 914 913
f 913 945 946
f 978 946 945
f 945 977 978
f 1010 978 977
f 977 1009 1010
f 1042 1010 1009
f 1009 1041 1042
f 1074 1042 1041
f 1041 1073 1074
f 1106 1074 1073
f 1073 1105 1106
f 1138 1106 1105
f 1105 1137 1138
f 1170 1138 1137
f 1137 1169 1170
f 1202 1170 1169
f 1169 1201 1202
f 1234 1202 1201
f 1201 1233 1234
f 1266 1234 1233
f 1233 1265 1266
f 1298 1266 1265
f 1265 1297 1298
f 1330 1298 1297
f 1297 1329 1330
f 1362 1330 1329
f 1329 1361 1362
f 1394 1362 1361
f 1361 1393 1394
f 1426 1394 1393
f 1393 1425 1426
f 1458 1426 1425
f 1425 1457 1458
f 1490 1458 1457
f 1457 1489 1490
f 1522 1490 1489
f 1489 1521 1522
f 1554 1522 1521
f 1521 1553 1554
f 1586 1554 1553
f 1553 1585 1586
f 1618 1586 1585
f 1585 1617 1618
f 1650 1618 1617
f 1617 1649 1650
f 691 659 658
f 658 690 691
f 723 691 690
f 690 722 723
f 755 723 722
f 722 754 755
f 787 755 754
f 754 786 787
f 819 787 786
f 786 818 819
f 851 819 818
f 818 850 851
f 883 851 850
f 850 882 883
f 915 883 882
f 882 914 915
f 947 915 914
f 914 946 947
f 979 947 946
f 946 978 979
f 1011 979 978
f 978 1010 1011
f 1043 1011 1010
f 1010 1042 1043
f 1075 1043 1042
f 1042 1074 1075
f 1107 1075 1074
f 1074 1106 1107
f 1139 1107 1106
f 1106 1138 1139
f 1171 1139 1138
f 1138 1170 1171
f 1203 1171 1170
f 1170 1202 1203
f 1235 1203 1202
f 1202 1234 1235
f 1267 1235 1234
f 1234 1266 1267
f 1299 1267 1266
f 1266 1298 1299
f 1331 1299 1298
f 1298 1330 1331
f 1363 1331 1330
f 1330 1362 1363
f 1395 1363 1362
f 1362 1394 1395
f 1427 1395 1394
f 1394 1426 1427
f 1459 1427 1426
f 1426 1458 1459
f 1491 1459 1458
f 1458 1490 1491
f 1523 1491 1490
f 1490 1522 1523
f 1555 1523 1522
f 1522 1554 1555
f 1587 1555 1554
f 1554 1586 1587
f 1619 1587 1586
f 1586 1618 1619
f 1651 1619 1618
f 1618 1650 1651
f 692 660 659
f 659 691 692
f 724 692 691
f 691 723 724
f 756 724 723
f 723 755 756
f 788 756 755
f 755 787 788
f 820 788 787
f 787 819 820
f 852 820 819
f 819 851 852
f 884 852 851
f 851 883 884
f 916 884 883
f 883 915 916
f 948 916 915
f 915 947 948
f 980 948 947
f 947 979 980
f 1012 980 979
f 979 1011 1012
f 1044 1012 1011
f 1011 1043 1044
f 1076 1044 1043
f 1043 1075 1076
f 1108 1076 1075
f 1075 1107 1108
f 1140 1108 1107
f 1107 1139 1140
f 1172 1140 1139
f 1139 1171 1172
f 1204 1172 1171
f 1171 1203 1204
f 1236 1204 1203
f 1203 1235 1236
f 1268 1236 1235
f 1235 1267 1268
f 1300 1268 1267
f 1267 1299 1300
f 1332 1300 1299
f 1299 1331 1332
f 1364 1332 1331
f 1331 1363 1364
f 1396 1364 1363
f 1363 1395 1396
f 1428 1396 1395
f 1395 1427 1428
f 1460 1428 1427
f 1427 1459 1460
f 1492 1460 1459
f 1459 1491 1492
f 1524 1492 1491
f 1491 1523 1524
f 1556 1524 1523
f 1523 1555 1556
f 1588 1556 1555
f 1555 1587 1588
f 1620 1588 1587
f 1587 1619 1620
f 1652 1620 1619
f 1619 1651 1652
f 693 661 660
f 660 692 693
f 725 693 692
f 692 724 725
f 757 725 724
f 724 756 757
f 789 757 756
f 756 788 789
f 821 789 788
f 788 820 821
f 853 821 820
f 820 852 853
f 885 853 852
f 852 884 885
f 917 885 884
f 884 916 917
f 949 917 916
f 916 948 949
f 981 949 948
f 948 980 981
f 1013 981 980
f 980 1012 1013
f 1045 1013 1012
f 1012 1044 1045
f 1077 1045 1044
f 1044 1076 1077
f 1109 1077 1076
f 1076 1108 1109
f 1141 1109 1108
f 1108 1140 1141
f 1173 1141 1140
f 1140 1172 1173
f 1205 1173 1172
f 1172 1204 1205
f 1237 1205 1204
f 1204 1236 1237
f 1269 1237 1236
f 1236 1268 1269
f 1301 1269 1268
f 1268 1300 1301
f 1333 1301 1300
f 1300 1332 1333
f 1365 1333 1332
f 1332 1364 1365
f 1397 1365 1364
f 1364 1396 1397
f 1429 1397 1396
f 1396 1428 1429
f 1461 1429 1428
f 1428 1460 1461
f 1493 1461 1460
f 1460 1492 1493
f 1525 1493 1492
f 1492 1524 1525
f 1557 1525 1524
f 1524 1556 1557
f 1589 1557 1556
f 1556 1588 1589
f 1621 1589 1588
f 1588 1620 1621
f 1653 1621 1620
f 1620 1652 1653
f 694 662 661
f 661 693 694
f 726 694 693
f 693 725 726
f 758 726 725
f 725 757 758
f 790 758 757
f 757 789 790
f 822 790 789
f 789 821 822
f 854 822 821
f 821 853 854
f 886 854 853
f 853 885 886
f 918 886 885
f 885 917 918
f 950 918 917
f 917 949 950
f 982 950 949
f 949 981 982
f 1014 982 981
f 981 1013 1014
f 1046 1014 1013
f 1013 1045 1046
f 1078 1046 1045
f 1045 1077 1078
f 1110 1078 1077
f 1077 1109 1110
f 1142 1110 1109
f 1109 1141 1142
f 1174 1142 1141
f 1141 1173 1174
f 1206 1174 1173
f 1173 1205 1206
f 1238 1206 1205
f 1205 1237 1238
f 1270 1238 1237
f 1237 1269 1270
f 1302 1270 1269
f 1269 1301 1302
f 1334 1302 1301
f 1301 1333 1334
f 1366 1334 1333
f 1333 1365 1366
f 1398 1366 1365
f 1365 1397 1398
f 1430 1398 1397
f 1397 1429 1430
f 1462 1430 1429
f 1429 1461 1462
f 1494 1462 1461
f 1461 1493 1494
f 1526 1494 1493
f 1493 1525 1526
f 1558 1526 1525
f 1525 1557 1558
f 1590 1558 1557
f 1557 1589 1590
f 1622 1590 1589
f 1589 1621 1622
f 1654 1622 1621
f 1621 1653 1654
f 695 663 662
f 662 694 695
f 727 695 694
f 694 726 727
f 759 727 726
f 726 758 759
f 791 759 758
f 758 790 791
f 823 791 790
f 790 822 823
f 855 823 822
f 822 854 855
f 887 855 854
f 854 886 887
f 919 887 886
f 886 918 919
f 951 919 918
f 918 950 951
f 983 951 950
f 950 982 983
f 1015 983 982
f 982 1014 1015
f 1047 1015 1014
f 1014 1046 1047
f 1079 1047 1046
f 1046 1078 1079
f 1111 1079 1078
f 1078 1110 1111
f 1143 1111 1110
f 1110 1142 1143
f 1175 1143 1142
f 1142 1174 1175
f 1207 1175 1174
f 1174 1206 1207
f 1239 1207 1206
f 1206 1238 1239
f 1271 1239 1238
f 1238 1270 1271
f 1303 1271 1270
f 1270 1302 1303
f 1335 1303 1302
f 1302 1334 1335
f 1367 1335 1334
f 1334 1366 1367
f 1399 1367 1366
f 1366 1398 1399
f 1431 1399 1398
f 1398 1430 1431
f 1463 1431 1430
f 1430 1462 1463
f 1495 1463 1462
f 1462 1494 1495
f 1527 1495 1494
f 1494 1526 1527
f 1559 1527 1526
f 1526 1558 1559
f 1591 1559 1558
f 1558 1590 1591
f 1623 1591 1590
f 1590 1622 1623
f 1655 1623 1622
f 1622 1654 1655
f 696 664 663
f 663 695 696
f 728 696 695
f 695 727 728
f 760 728 727
f 727 759 760
f 792 760 759
f 759 791 792
f 824 792 791
f 791 823 824
f 856 824 823
f 823 855 856
f 888 856 855
f 855 887 888
f 920 888 887
f 887 919 920
f 952 920 919
f 919 951 952
f 984 952 951
f 951 983 984
f 1016 984 983
f 983 1015 1016
f 1048 1016 1015
f 1015 1047 1048
f 1080 1048 1047
f 1047 1079 1080
f 1112 1080 1079
f 1079 1111 1112
f 1144 1112 1111
f 1111 1143 1144
f 1176 1144 1143
f 1143 1175 1176
f 1208 1176 1175
f 1175 1207 1208
f 1240 1208 1207
f 1207 1239 1240
f 1272 1240 1239
f 1239 1271 1272
f 1304 1272 1271
f 1271 1303 1304
f 1336 1304 1303
f 1303 1335 1336
f 1368 1336 1335
f 1335 1367 1368
f 1400 1368 1367
f 1367 1399 1400
f 1432 1400 1399
f 1399 1431 1432
f 1464 1432 1431
f 1431 1463 1464
f 1496 1464 1463
f 1463 1495 1496
f 1528 1496 1495
f 1495 1527 1528
f 1560 1528 1527
f 1527 1559 1560
f 1592 1560 1559
f 1559 1591 1592
f 1624 1592 1591
f 1591 1623 1624
f 1656 1624 1623
f 1623 1655 1656
f 697 665 664
f 664 696 697
f 729 697 696
f 696 728 729
f 761 729 728
f 728 760 761
f 793 761 760
f 760 792 793
f 825 793 792
f 792 824 825
f 857 825 824
f 824 856 857
f 889 857 856
f 856 888 889
f 921 889 888
f 888 920 921
f 953 921 920
f 920 952 953
f 985 953 952
f 952 984 985
f 1017 985 984
f 984 1016 1017
f 1049 1017 1016
f 1016 1048 1049
f 1081 1049 1048
f 1048 1080 1081
f 1113 1081 1080
f 1080 1112 1113
f 1145 1113 1112
f 1112 1144 1145
f 1177 1145 1144
f 1144 1176 1177
f 1209 1177 1176
f 1176 1208 1209
f 1241 1209 1208
f 1208 1240 1241
f 1273 1241 1240
f 1240 1272 1273
f 1305 1273 1272
f 1272 1304 1305
f 1337 1305 1304
f 1304 1336 1337
f 1369 1337 1336
f 1336 1368 1369
f 1401 1369 1368
f 1368 1400 1401
f 1433 1401 1400
f 1400 1432 1433
f 1465 1433 1432
f 1432 1464 1465
f 1497 1465 1464
f 1464 1496 1497
f 1529 1497 1496
f 1496 1528 1529
f 1561 1529 1528
f 1528 1560 1561
f 1593 1561 1560
f 1560 1592 1593
f 1625 1593 1592
f 1592 1624 1625
f 1657 1625 1624
f 1624 1656 1657
f 698 666 665
f 665 697 698
f 730 698 697
f 697 729 730
f 762 730 729
f 729 761 762
f 794 762 761
f 761 793 794
f 826 794 793
f 793 825 826
f 858 826 825
f 825 857 858
f 890 858 857
f 857 889 890
f 922 890 889
f 889 921 922
f 954 922 921
f 921 953 954
f 986 954 953
f 953 985 986
f 1018 986 985
f 985 1017 1018
f 1050 1018 1017
f 1017 1049 1050
f 1082 1050 1049
f 1049 1081 1082
f 1114 1082 1081
f 1081 1113 1114
f 1146 1114 1113
f 1113 1145 1146
f 1178 1146 1145
f 1145 1177 1178
f 1210 1178 1177
f 1177 1209 1210
f 1242 1210 1209
f 1209 1241 1242
f 1274 1242 1241
f 1241 1273 1274
f 1306 1274 1273
f 1273 1305 1306
f 1338 1306 1305
f 1305 1337 1338
f 1370 1338 1337
f 1337 1369 1370
f 1402 1370 1369
f 1369 1401 1402
f 1434 1402 1401
f 1401 1433 1434
f 1466 1434 1433
f 1433 1465 1466
f 1498 1466 1465
f 1465 1497 1498
f 1530 1498 1497
f 1497 1529 1530
f 1562 1530 1529
f 1529 1561 1562
f 1594 1562 1561
f 1561 1593 1594
f 1626 1594 1593
f 1593 1625 1626
f 1658 1626 1625
f 1625 1657 1658
f 699 667 666
f 666 698 699
f 731 699 698
f 698 730 731
f 763 731 730
f 730 762 763
f 795 763 762
f 762 794 795
f 827 795 794
f 794 826 827
f 859 827 826
f 826 858 859
f 891 859 858
f 858 890 891
f 923 891 890
f 890 922 923
f 955 923 922
f 922 954 955
f 987 955 954
f 954 986 987
f 1019 987 986
f 986 1018 1019
f 1051 1019 1018
f 1018 1050 1051
f 1083 1051 1050
f 1050 1082 1083
f 1115 1083 1082
f 1082 1114 1115
f 1147 1115 1114
f 1114 1146 1147
f 1179 1147 1146
f 1146 1178 1179
f 1211 1179 1178
f 1178 1210 1211
f 1243 1211 1210
f 1210 1242 1243
f 1275 1243 1242
f 1242 1274 1275
f 1307 1275 1274
f 1274 1306 1307
f 1339 1307 1306
f 1306 1338 1339
f 1371 1339 1338
f 1338 1370 1371
f 1403 1371 1370
f 1370 1402 1403
f 1435 1403 1402
f 1402 1434 1435
f 1467 1435 1434
f 1434 1466 1467
f 1499 1467 1466
f 1466 1498 1499
f 1531 1499 1498
f 1498 1530 1531
f 1563 1531 1530
f 1530 1562 1563
f 1595 1563 1562
f 1562 1594 1595
f 1627 1595 1594
f 1594 1626 1627
f 1659 1627 1626
f 1626 1658 1659
f 700 668 667
f 667 699 700
f 732 700 699
f 699 731 732
f 764 732 731
f 731 763 764
f 796 764 763
f 763 795 796
f 828 796 795
f 795 827 828
f 860 828 827
f 827 859 860
f 892 860 859
f 859 891 892
f 924 892 891
f 891 923 924
f 956 924 923
f 923 955 956
f 988 956 955
f 955 987 988
f 1020 988 987
f 987 1019 1020
f 1052 1020 1019
f 1019 1051 1052
f 1084 1052 1051
f 1051 1083 1084
f 1116 1084 1083
f 1083 1115 1116
f 1148 1116 1115
f 1115 1147 1148
f 1180 1148 1147
f 1147 1179 1180
f 1212 1180 1179
f 1179 1211 1212
f 1244 1212 1211
f 1211 1243 1244
f 1276 1244 1243
f 1243 1275 1276
f 1308 1276 1275
f 1275 1307 1308
f 1340 1308 1307
f 1307 1339 1340
f 1372 1340 1339
f 1339 1371 1372
f 1404 1372 1371
f 1371 1403 1404
f 1436 1404 1403
f 1403 1435 1436
f 1468 1436 1435
f 1435 1467 1468
f 1500 1468 1467
f 1467 1499 1500
f 1532 1500 1499
f 1499 1531 1532
f 1564 1532 1531
f 1531 1563 1564
f 1596 1564 1563
f 1563 1595 1596
f 1628 1596 1595
f 1595 1627 1628
f 1660 1628 1627
f 1627 1659 1660
f 701 669 668
f 668 700 701
f 733 701 700
f 700 732 733
f 765 733 732
f 732 764 765
f 797 765 764
f 764 796 797
f 829 797 796
f 796 828 829
f 861 829 828
f 828 860 861
f 893 861 860
f 860 892 893
f 925 893 892
f 892 924 925
f 957 925 924
f 924 956 957
f 989 957 956
f 956 988 989
f 1021 989 988
f 988 1020 1021
f 1053 1021 1020
f 1020 1052 1053
f 1085 1053 1052
f 1052 1084 1085
f 1117 1085 1084
f 1084 1116 1117
f 1149 1117 1116
f 1116 1148 1149
f 1181 1149 1148
f 1148 1180 1181
f 1213 1181 1180
f 1180 1212 1213
f 1245 1213 1212
f 1212 1244 1245
f 1277 1245 1244
f 1244 1276 1277
f 1309 1277 1276
f 1276 1308 1309
f 1341 1309 1308
f 1308 1340 1341
f 1373 1341 1340
f 1340 1372 1373
f 1405 1373 1372
f 1372 1404 1405
f 1437 1405 1404
f 1404 1436 1437
f 1469 1437 1436
f 1436 1468 1469
f 1501 1469 1468
f 1468 1500 1501
f 1533 1501 1500
f 1500 1532 1533
f 1565 1533 1532
f 1532 1564 1565
f 1597 1565 1564
f 1564 1596 1597
f 1629 1597 1596
f 1596 1628 1629
f 1661 1629 1628
f 1628 1660 1661
f 702 670 669
f 669 701 702
f 734 702 701
f 701 733 734
f 766 734 733
f 733 765 766
f 798 766 765
f 765 797 798
f 830 798 797
f 797 829 830
f 862 830 829
f 829 861 862
f 894 862 861
f 861 893 894
f 926 894 893
f 893 925 926
f 958 926 925
f 925 957 958
f 990 958 957
f 957 989 990
f 1022 990 989
f 989 1021 1022
f 1054 1022 1021
f 1021 1053 1054
f 1086 1054 1053
f 1053 1085 1086
f 1118 1086 1085
f 1085 1117 1118
f 1150 1118 1117
f 1117 1149 1150
f 1182 1150 1149
f 1149 1181 1182
f 1214 1182 1181
f 1181 1213 1214
f 1246 1214 1213
f 1213 1245 1246
f 1278 1246 1245
f 1245 1277 1278
f 1310 1278 1277
f 1277 1309 1310
f 1342 1310 1309
f 1309 1341 1342
f 1374 1342 1341
f 1341 1373 1374
f 1406 1374 1373
f 1373 1405 1406
f 1438 1406 1405
f 1405 1437 1438
f 1470 1438 1437
f 1437 1469 1470
f 1502 1470 1469
f 1469 1501 1502
f 1534 1502 1501
f 1501 1533 1534
f 1566 1534 1533
f 1533 1565 1566
f 1598 1566 1565
f 1565 1597 1598
f 1630 1598 1597
f 1597 1629 1630
f 1662 1630 1629
f 1629 1661 1662
f 703 671 670
f 670 702 703
f 735 703 702
f 702 734 735
f 767 735 734
f 734 766 767
f 799 767 766
f 766 798 799
f 831 799 798
f 798 830 831
f 863 831 830
f 830 862 863
f 895 863 862
f 862 894 895
f 927 895 894
f 894 926 927
f 959 927 926
f 926 958 959
f 991 959 958
f 958 990 991
f 1023 991 990
f 990 1022 1023
f 1055 1023 1022
f 1022 1054 1055
f 1087 1055 1054
f 1054 1086 1087
f 1119 1087 1086
f 1086 1118 1119
f 1151 1119 1118
f 1118 1150 1151
f 1183 1151 1150
f 1150 1182 1183
f 1215 1183 1182
f 1182 1214 1215
f 1247 1215 1214
f 1214 1246 1247
f 1279 1247 1246
f 1246 1278 1279
f 1311 1279 1278
f 1278 1310 1311
f 1343 1311 1310
f 1310 1342 1343
f 1375 1343 1342
f 1342 1374 1375
f 1407 1375 1374
f 1374 1406 1407
f 1439 1407 1406
f 1406 1438 1439
f 1471 1439 1438
f 1438 1470 1471
f 1503 1471 1470
f 1470 1502 1503
f 1535 1503 1502
f 1502 1534 1535
f 1567 1535 1534
f 1534 1566 1567
f 1599 1567 1566
f 1566 1598 1599
f 1631 1599 1598
f 1598 1630 1631
f 1663 1631 1630
f 1630 1662 1663
f 704 672 671
f 671 703 704
f 736 704 703
f 703 735 736
f 768 736 735
f 735 767 768
f 800 768 767
f 767 799 800
f 832 800 799
f 799 831 832
f 864 832 831
f 831 863 864
f 896 864 863
f 863 895 896
f 928 896 895
f 895 927 928
f 960 928 927
f 927 959 960
f 992 960 959
f 959 991 992
f 1024 992 991
f 991 1023 1024
f 1056 1024 1023
f 1023 1055 1056
f 1088 1056 1055
f 1055 1087 1088
f 1120 1088 1087
f 1087 1119 1120
f 1152 1120 1119
f 1119 1151 1152
f 1184 1152 1151
f 1151 1183 1184
f 1216 1184 1183
f 1183 1215 1216
f 1248 1216 1215
f 1215 1247 1248
f 1280 1248 1247
f 1247 1279 1280
f 1312 1280 1279
f 1279 1311 1312
f 1344 1312 1311
f 1311 1343 1344
f 1376 1344 1343
f 1343 1375 1376
f 1408 1376 1375
f 1375 1407 1408
f 1440 1408 1407
f 1407 1439 1440
f 1472 1440 1439
f 1439 1471 1472
f 1504 1472 1471
f 1471 1503 1504
f 1536 1504 1503
f 1503 1535 1536
f 1568 1536 1535
f 1535 1567 1568
f 1600 1568 1567
f 1567 1599 1600
f 1632 1600 1599
f 1599 1631 1632
f 1664 1632 1631
f 1631 1663 1664
