v -242.736 16.3615 474.981
v -242.66 16.5001 474.839
v -242.736 16.4152 474.942
v -242.736 16.5425 474.848
v -242.736 16.3597 474.982
v -242.7 16.3232 474.94
v -242.545 16.2523 474.744
v -242.637 16.2549 474.871
v -242.65 16.2677 474.886
v -242.556 16.2487 474.687
v -242.734 16.5044 474.54
v -242.502 16.2461 474.599
v -242.485 16.3023 474.473
v -242.257 16.2163 474.387
v -242.422 16.2369 474.528
v -242.608 16.2024 474.295
v -242.637 16.1994 474.275
v -242.652 16.2126 474.28
v -242.736 16.4144 474.417
v -242.689 16.2484 474.315
v -242.736 16.3019 474.319
v -242.736 16.5406 474.648
v -242.736 16.5706 474.762
v -242.736 15.6676 477.044
v -242.736 16.836 477.062
v -242.637 15.5898 477.043
v -241.886 15.5482 477.042
v -241.786 15.6445 477.043
v -242.661 16.9221 477.063
v -241.862 16.9221 477.063
v -241.786 16.836 477.062
v -241.786 15.7008 472.818
v -241.786 16.9104 472.836
v -241.886 15.6348 472.817
v -242.637 15.6234 472.816
v -242.736 15.7301 472.818
v -241.862 16.9965 472.838
v -242.661 16.9965 472.838
v -242.736 16.9104 472.836
v -242.637 15.7267 476.806
v -242.736 15.8174 476.816
v -242.637 15.5898 477.043
v -242.736 15.6676 477.044
v -242.736 15.9479 476.556
v -242.637 15.8622 476.549
v -242.736 16.1058 476.165
v -242.637 16.0295 476.159
v -242.736 16.2484 475.76
v -242.637 16.1608 475.756
v -242.736 16.3478 475.354
v -242.637 16.2637 475.351
v -242.637 16.2586 474.94
v -242.7 16.3232 474.94
v -242.736 16.3597 474.982
v -242.65 16.2677 474.886
v -242.65 16.2677 474.886
v -242.637 16.2549 474.871
v -242.689 16.2484 474.315
v -242.736 16.2592 474.119
v -242.736 16.3019 474.319
v -242.652 16.2126 474.28
v -242.637 16.1994 474.275
v -242.637 16.1766 474.121
v -242.736 16.1644 473.71
v -242.637 16.1002 473.714
v -242.736 16.0082 473.314
v -242.637 15.9472 473.32
v -242.637 15.8092 473.058
v -242.736 15.8956 473.051
v -242.637 15.6234 472.816
v -242.736 15.7301 472.818
v -241.886 15.74 476.806
v -241.886 15.5482 477.042
v -241.786 15.8028 476.815
v -241.786 15.6445 477.043
v -241.886 15.797 473.058
v -241.786 15.8941 473.051
v -241.886 15.6348 472.817
v -241.786 15.7008 472.818
v -241.786 16.0384 473.315
v -241.886 15.9177 473.319
v -241.886 16.1023 473.714
v -241.786 16.1778 473.71
v -241.786 16.2951 474.119
v -241.886 16.2081 474.121
v -241.786 16.3653 474.528
v -241.886 16.2375 474.528
v -241.786 16.3678 474.941
v -241.886 16.2921 474.94
v -241.886 16.265 475.351
v -241.786 16.3496 475.354
v -241.786 16.2746 475.761
v -241.886 16.1926 475.756
v -241.886 16.0238 476.159
v -241.786 16.1205 476.166
v -241.886 15.8972 476.549
v -241.786 15.9517 476.556
v -241.886 15.797 473.058
v -241.886 15.9177 473.319
v -241.886 16.2081 474.121
v -241.886 16.1023 473.714
v -242.502 16.2461 474.599
v -241.886 16.2921 474.94
v -242.422 16.2369 474.528
v -241.886 16.2375 474.528
v -242.502 16.2461 474.599
v -242.556 16.2487 474.687
v -242.545 16.2523 474.744
v -242.637 16.2549 474.871
v -241.886 16.265 475.351
v -241.886 16.1926 475.756
v -241.886 15.8972 476.549
v -241.886 16.0238 476.159
v -241.886 15.74 476.806
v -242.257 16.2163 474.387
v -242.608 16.2024 474.295
v -241.886 15.6348 472.817
v -241.886 15.5482 477.042
v -242.736 17.019 473.105
v -242.736 16.9104 472.836
v -242.661 17.1051 473.107
v -242.661 16.9965 472.838
v -241.786 17.019 473.105
v -241.862 17.1051 473.107
v -241.786 16.9104 472.836
v -241.862 16.9965 472.838
v -242.736 17.0061 474.016
v -242.661 17.0922 474.018
v -241.786 17.0061 474.016
v -241.862 17.0922 474.018
v -242.736 17.0748 474.952
v -242.661 17.161 474.953
v -241.786 17.0748 474.952
v -241.862 17.161 474.953
v -242.736 17.0972 475.887
v -242.661 17.1834 475.888
v -241.786 17.0972 475.887
v -241.862 17.1834 475.888
v -241.786 16.9621 476.796
v -241.862 17.0483 476.798
v -242.736 16.9621 476.796
v -242.661 17.0483 476.798
v -241.786 16.836 477.062
v -241.862 16.9221 477.063
v -242.736 16.836 477.062
v -242.661 16.9221 477.063
v -242.736 16.4152 474.942
v -242.736 16.5425 474.848
v -242.736 16.5406 474.648
v -242.736 16.5706 474.762
v -242.736 16.3019 474.319
v -242.736 16.4144 474.417
v -242.734 16.5044 474.54
v -242.736 16.3597 474.982
v -242.736 16.3615 474.981
v -241 12.9441 477.038
v -241.707 12.237 477.038
v -237.965 9.90941 477.038
v -238.672 9.20231 477.038
v -237.965 9.90941 478.038
v -238.672 9.20231 478.038
v -241 12.9441 478.038
v -241.707 12.237 478.038
v -238.672 9.20231 478.038
v -238.672 9.20231 477.038
v -241.707 12.237 478.038
v -241.707 12.237 477.038
v -237.965 9.90941 478.038
v -241 12.9441 478.038
v -237.965 9.90941 477.038
v -241 12.9441 477.038
v -237.965 9.90941 477.038
v -238.672 9.20231 477.038
v -237.965 9.90941 478.038
v -238.672 9.20231 478.038
v -238.238 12.9181 477.986
v -239.238 12.9181 477.986
v -238.238 17.2099 477.986
v -239.238 17.2099 477.986
v -238.238 17.2099 476.986
v -239.238 17.2099 476.986
v -238.238 12.9181 476.986
v -239.238 12.9181 476.986
v -239.238 17.2099 476.986
v -239.238 17.2099 477.986
v -239.238 12.9181 476.986
v -239.238 12.9181 477.986
v -238.238 17.2099 476.986
v -238.238 12.9181 476.986
v -238.238 17.2099 477.986
v -238.238 12.9181 477.986
v -238.238 17.2099 477.986
v -239.238 17.2099 477.986
v -238.238 17.2099 476.986
v -239.238 17.2099 476.986
v -229.187 12.9598 478.674
v -229.187 12.9598 479.174
v -229.187 16.9598 478.674
v -229.187 16.9598 479.174
v -237.187 16.9598 478.674
v -237.187 16.9598 479.174
v -237.187 12.9598 478.674
v -237.187 12.9598 479.174
v -237.187 16.9598 479.174
v -229.187 16.9598 479.174
v -237.187 12.9598 479.174
v -229.187 12.9598 479.174
v -237.187 16.9598 478.674
v -237.187 12.9598 478.674
v -229.187 16.9598 478.674
v -229.187 12.9598 478.674
v -229.187 16.9598 478.674
v -229.187 16.9598 479.174
v -237.187 16.9598 478.674
v -237.187 16.9598 479.174
v -241.696 8.91642 472.916
v -242.696 8.91642 472.916
v -241.696 17.1635 472.916
v -242.696 17.1635 472.916
v -241.696 17.1635 471.916
v -242.696 17.1635 471.916
v -241.696 8.91642 471.916
v -242.696 8.91642 471.916
v -242.696 17.1635 471.916
v -242.696 17.1635 472.916
v -242.696 8.91642 471.916
v -242.696 8.91642 472.916
v -241.696 17.1635 471.916
v -241.696 8.91642 471.916
v -241.696 17.1635 472.916
v -241.696 8.91642 472.916
v -241.696 17.1635 472.916
v -242.696 17.1635 472.916
v -241.696 17.1635 471.916
v -242.696 17.1635 471.916
v -222.325 13.0707 475.131
v -222.325 13.0707 475.631
v -222.325 15.0707 475.131
v -222.325 15.0707 475.631
v -226.325 15.0707 475.131
v -226.325 15.0707 475.631
v -226.325 13.0707 475.131
v -226.325 13.0707 475.631
v -226.325 15.0707 475.631
v -222.325 15.0707 475.631
v -226.325 13.0707 475.631
v -222.325 13.0707 475.631
v -226.325 15.0707 475.131
v -226.325 13.0707 475.131
v -222.325 15.0707 475.131
v -222.325 13.0707 475.131
v -222.325 15.0707 475.131
v -222.325 15.0707 475.631
v -226.325 15.0707 475.131
v -226.325 15.0707 475.631
v -231.43 13.1311 452.265
v -232.43 13.1311 452.265
v -231.43 17.4228 452.265
v -232.43 17.4228 452.265
v -231.43 17.4228 451.265
v -232.43 17.4228 451.265
v -231.43 13.1311 451.265
v -232.43 13.1311 451.265
v -232.43 17.4228 451.265
v -232.43 17.4228 452.265
v -232.43 13.1311 451.265
v -232.43 13.1311 452.265
v -231.43 17.4228 451.265
v -231.43 13.1311 451.265
v -231.43 17.4228 452.265
v -231.43 13.1311 452.265
v -231.43 17.4228 452.265
v -232.43 17.4228 452.265
v -231.43 17.4228 451.265
v -232.43 17.4228 451.265
v -229.637 13.0607 473.161
v -230.637 13.0607 473.161
v -229.637 17.3525 473.161
v -230.637 17.3525 473.161
v -229.637 17.3525 472.161
v -230.637 17.3525 472.161
v -229.637 13.0607 472.161
v -230.637 13.0607 472.161
v -230.637 17.3525 472.161
v -230.637 17.3525 473.161
v -230.637 13.0607 472.161
v -230.637 13.0607 473.161
v -229.637 17.3525 472.161
v -229.637 13.0607 472.161
v -229.637 17.3525 473.161
v -229.637 13.0607 473.161
v -229.637 17.3525 473.161
v -230.637 17.3525 473.161
v -229.637 17.3525 472.161
v -230.637 17.3525 472.161
v -230.461 12.9305 472.333
v -230.461 12.9305 472.833
v -230.461 16.9305 472.333
v -230.461 16.9305 472.833
v -238.461 16.9305 472.333
v -238.461 16.9305 472.833
v -238.461 12.9305 472.333
v -238.461 12.9305 472.833
v -238.461 16.9305 472.833
v -230.461 16.9305 472.833
v -238.461 12.9305 472.833
v -230.461 12.9305 472.833
v -238.461 16.9305 472.333
v -238.461 12.9305 472.333
v -230.461 16.9305 472.333
v -230.461 12.9305 472.333
v -230.461 16.9305 472.333
v -230.461 16.9305 472.833
v -238.461 16.9305 472.333
v -238.461 16.9305 472.833
v -232.245 13.0168 438.362
v -231.745 13.0168 438.362
v -232.245 17.0168 438.362
v -231.745 17.0168 438.362
v -232.245 17.0168 446.362
v -231.745 17.0168 446.362
v -232.245 13.0168 446.362
v -231.745 13.0168 446.362
v -231.745 17.0168 446.362
v -231.745 17.0168 438.362
v -231.745 13.0168 446.362
v -231.745 13.0168 438.362
v -232.245 17.0168 446.362
v -232.245 13.0168 446.362
v -232.245 17.0168 438.362
v -232.245 13.0168 438.362
v -232.245 17.0168 438.362
v -231.745 17.0168 438.362
v -232.245 17.0168 446.362
v -231.745 17.0168 446.362
v -232.244 13.0154 444.168
v -231.744 13.0154 444.168
v -232.244 17.0154 444.168
v -231.744 17.0154 444.168
v -232.244 17.0154 452.168
v -231.744 17.0154 452.168
v -232.244 13.0154 452.168
v -231.744 13.0154 452.168
v -231.744 17.0154 452.168
v -231.744 17.0154 444.168
v -231.744 13.0154 452.168
v -231.744 13.0154 444.168
v -232.244 17.0154 452.168
v -232.244 13.0154 452.168
v -232.244 17.0154 444.168
v -232.244 13.0154 444.168
v -232.244 17.0154 444.168
v -231.744 17.0154 444.168
v -232.244 17.0154 452.168
v -231.744 17.0154 452.168
v -232.381 13.0042 437.668
v -232.381 13.0042 438.168
v -232.381 17.0042 437.668
v -232.381 17.0042 438.168
v -240.381 17.0042 437.668
v -240.381 17.0042 438.168
v -240.381 13.0042 437.668
v -240.381 13.0042 438.168
v -240.381 17.0042 438.168
v -232.381 17.0042 438.168
v -240.381 13.0042 438.168
v -232.381 13.0042 438.168
v -240.381 17.0042 437.668
v -240.381 13.0042 437.668
v -232.381 17.0042 437.668
v -232.381 13.0042 437.668
v -232.381 17.0042 437.668
v -232.381 17.0042 438.168
v -240.381 17.0042 437.668
v -240.381 17.0042 438.168
v -232.479 13.0827 438.37
v -232.479 13.0827 437.37
v -232.479 17.3745 438.37
v -232.479 17.3745 437.37
v -231.479 17.3745 438.37
v -231.479 17.3745 437.37
v -231.479 13.0827 438.37
v -231.479 13.0827 437.37
v -231.479 17.3745 437.37
v -232.479 17.3745 437.37
v -231.479 13.0827 437.37
v -232.479 13.0827 437.37
v -231.479 17.3745 438.37
v -231.479 13.0827 438.37
v -232.479 17.3745 438.37
v -232.479 13.0827 438.37
v -232.479 17.3745 438.37
v -232.479 17.3745 437.37
v -231.479 17.3745 438.37
v -231.479 17.3745 437.37
v -234.847 12.9249 449.555
v -235.847 12.9249 449.555
v -234.847 17.2167 449.555
v -235.847 17.2167 449.555
v -234.847 17.2167 448.555
v -235.847 17.2167 448.555
v -234.847 12.9249 448.555
v -235.847 12.9249 448.555
v -235.847 17.2167 448.555
v -235.847 17.2167 449.555
v -235.847 12.9249 448.555
v -235.847 12.9249 449.555
v -234.847 17.2167 448.555
v -234.847 12.9249 448.555
v -234.847 17.2167 449.555
v -234.847 12.9249 449.555
v -234.847 17.2167 449.555
v -235.847 17.2167 449.555
v -234.847 17.2167 448.555
v -235.847 17.2167 448.555
v -235.074 12.9976 456.919
v -235.574 12.9976 456.919
v -235.074 16.9976 456.919
v -235.574 16.9976 456.919
v -235.074 16.9976 448.919
v -235.574 16.9976 448.919
v -235.074 12.9976 448.919
v -235.574 12.9976 448.919
v -235.574 16.9976 448.919
v -235.574 16.9976 456.919
v -235.574 12.9976 448.919
v -235.574 12.9976 456.919
v -235.074 16.9976 448.919
v -235.074 12.9976 448.919
v -235.074 16.9976 456.919
v -235.074 12.9976 456.919
v -235.074 16.9976 456.919
v -235.574 16.9976 456.919
v -235.074 16.9976 448.919
v -235.574 16.9976 448.919
v -235.347 12.7655 448.668
v -235.701 12.7655 449.021
v -235.347 16.7655 448.668
v -235.701 16.7655 449.021
v -241.004 16.7655 443.011
v -241.357 16.7655 443.364
v -241.004 12.7655 443.011
v -241.357 12.7655 443.364
v -241.357 16.7655 443.364
v -235.701 16.7655 449.021
v -241.357 12.7655 443.364
v -235.701 12.7655 449.021
v -241.004 16.7655 443.011
v -241.004 12.7655 443.011
v -235.347 16.7655 448.668
v -235.347 12.7655 448.668
v -235.347 16.7655 448.668
v -235.701 16.7655 449.021
v -241.004 16.7655 443.011
v -241.357 16.7655 443.364
v -231.062 13.1051 472.303
v -231.562 13.1051 472.303
v -231.062 17.1051 472.303
v -231.562 17.1051 472.303
v -231.062 17.1051 456.303
v -231.562 17.1051 456.303
v -231.062 13.1051 456.303
v -231.562 13.1051 456.303
v -231.562 17.1051 456.303
v -231.562 17.1051 472.303
v -231.562 13.1051 456.303
v -231.562 13.1051 472.303
v -231.062 17.1051 456.303
v -231.062 13.1051 456.303
v -231.062 17.1051 472.303
v -231.062 13.1051 472.303
v -231.062 17.1051 472.303
v -231.562 17.1051 472.303
v -231.062 17.1051 456.303
v -231.562 17.1051 456.303
v -234.896 12.952 471.988
v -235.896 12.952 471.988
v -234.896 17.2437 471.988
v -235.896 17.2437 471.988
v -234.896 17.2437 470.988
v -235.896 17.2437 470.988
v -234.896 12.952 470.988
v -235.896 12.952 470.988
v -235.896 17.2437 470.988
v -235.896 17.2437 471.988
v -235.896 12.952 470.988
v -235.896 12.952 471.988
v -234.896 17.2437 470.988
v -234.896 12.952 470.988
v -234.896 17.2437 471.988
v -234.896 12.952 471.988
v -234.896 17.2437 471.988
v -235.896 17.2437 471.988
v -234.896 17.2437 470.988
v -235.896 17.2437 470.988
v -235.078 12.998 472.045
v -235.578 12.998 472.045
v -235.078 16.998 472.045
v -235.578 16.998 472.045
v -235.078 16.998 456.045
v -235.578 16.998 456.045
v -235.078 12.998 456.045
v -235.578 12.998 456.045
v -235.578 16.998 456.045
v -235.578 16.998 472.045
v -235.578 12.998 456.045
v -235.578 12.998 472.045
v -235.078 16.998 456.045
v -235.078 12.998 456.045
v -235.078 16.998 472.045
v -235.078 12.998 472.045
v -235.078 16.998 472.045
v -235.578 16.998 472.045
v -235.078 16.998 456.045
v -235.578 16.998 456.045
v -241.884 13.0036 472.41
v -242.384 13.0036 472.41
v -241.884 15.0036 472.41
v -242.384 15.0036 472.41
v -241.884 15.0036 468.41
v -242.384 15.0036 468.41
v -241.884 13.0036 468.41
v -242.384 13.0036 468.41
v -242.384 15.0036 468.41
v -242.384 15.0036 472.41
v -242.384 13.0036 468.41
v -242.384 13.0036 472.41
v -241.884 15.0036 468.41
v -241.884 13.0036 468.41
v -241.884 15.0036 472.41
v -241.884 13.0036 472.41
v -241.884 15.0036 472.41
v -242.384 15.0036 472.41
v -241.884 15.0036 468.41
v -242.384 15.0036 468.41
v -241.723 12.9003 478.022
v -242.723 12.9003 478.022
v -241.723 17.192 478.022
v -242.723 17.192 478.022
v -241.723 17.192 477.022
v -242.723 17.192 477.022
v -241.723 12.9003 477.022
v -242.723 12.9003 477.022
v -242.723 17.192 477.022
v -242.723 17.192 478.022
v -242.723 12.9003 477.022
v -242.723 12.9003 478.022
v -241.723 17.192 477.022
v -241.723 12.9003 477.022
v -241.723 17.192 478.022
v -241.723 12.9003 478.022
v -241.723 17.192 478.022
v -242.723 17.192 478.022
v -241.723 17.192 477.022
v -242.723 17.192 477.022
v -246.025 12.0575 438.378
v -247.025 12.0575 438.378
v -246.025 16.3492 438.378
v -247.025 16.3492 438.378
v -246.025 16.3492 437.378
v -247.025 16.3492 437.378
v -246.025 12.0575 437.378
v -247.025 12.0575 437.378
v -247.025 16.3492 437.378
v -247.025 16.3492 438.378
v -247.025 12.0575 437.378
v -247.025 12.0575 438.378
v -246.025 16.3492 437.378
v -246.025 12.0575 437.378
v -246.025 16.3492 438.378
v -246.025 12.0575 438.378
v -246.025 16.3492 438.378
v -247.025 16.3492 438.378
v -246.025 16.3492 437.378
v -247.025 16.3492 437.378
v -234.831 13.0143 460.042
v -235.831 13.0143 460.042
v -234.831 17.3061 460.042
v -235.831 17.3061 460.042
v -234.831 17.3061 459.042
v -235.831 17.3061 459.042
v -234.831 13.0143 459.042
v -235.831 13.0143 459.042
v -235.831 17.3061 459.042
v -235.831 17.3061 460.042
v -235.831 13.0143 459.042
v -235.831 13.0143 460.042
v -234.831 17.3061 459.042
v -234.831 13.0143 459.042
v -234.831 17.3061 460.042
v -234.831 13.0143 460.042
v -234.831 17.3061 460.042
v -235.831 17.3061 460.042
v -234.831 17.3061 459.042
v -235.831 17.3061 459.042
v -222.384 13.0839 474.952
v -222.884 13.0839 474.952
v -222.384 17.0839 474.952
v -222.884 17.0839 474.952
v -222.384 17.0839 466.952
v -222.884 17.0839 466.952
v -222.384 13.0839 466.952
v -222.884 13.0839 466.952
v -222.884 17.0839 466.952
v -222.884 17.0839 474.952
v -222.884 13.0839 466.952
v -222.884 13.0839 474.952
v -222.384 17.0839 466.952
v -222.384 13.0839 466.952
v -222.384 17.0839 474.952
v -222.384 13.0839 474.952
v -222.384 17.0839 474.952
v -222.884 17.0839 474.952
v -222.384 17.0839 466.952
v -222.884 17.0839 466.952
v -222.124 13.0452 475.922
v -223.124 13.0452 475.922
v -222.124 17.337 475.922
v -223.124 17.337 475.922
v -222.124 17.337 474.922
v -223.124 17.337 474.922
v -222.124 13.0452 474.922
v -223.124 13.0452 474.922
v -223.124 17.337 474.922
v -223.124 17.337 475.922
v -223.124 13.0452 474.922
v -223.124 13.0452 475.922
v -222.124 17.337 474.922
v -222.124 13.0452 474.922
v -222.124 17.337 475.922
v -222.124 13.0452 475.922
v -222.124 17.337 475.922
v -223.124 17.337 475.922
v -222.124 17.337 474.922
v -223.124 17.337 474.922
v -220.919 13.0845 456.131
v -221.919 13.0845 456.131
v -220.919 17.3762 456.131
v -221.919 17.3762 456.131
v -220.919 17.3762 455.131
v -221.919 17.3762 455.131
v -220.919 13.0845 455.131
v -221.919 13.0845 455.131
v -221.919 17.3762 455.131
v -221.919 17.3762 456.131
v -221.919 13.0845 455.131
v -221.919 13.0845 456.131
v -220.919 17.3762 455.131
v -220.919 13.0845 455.131
v -220.919 17.3762 456.131
v -220.919 13.0845 456.131
v -220.919 17.3762 456.131
v -221.919 17.3762 456.131
v -220.919 17.3762 455.131
v -221.919 17.3762 455.131
v -220.898 12.9707 470.329
v -221.898 12.9707 470.329
v -220.898 17.2624 470.329
v -221.898 17.2624 470.329
v -220.898 17.2624 469.329
v -221.898 17.2624 469.329
v -220.898 12.9707 469.329
v -221.898 12.9707 469.329
v -221.898 17.2624 469.329
v -221.898 17.2624 470.329
v -221.898 12.9707 469.329
v -221.898 12.9707 470.329
v -220.898 17.2624 469.329
v -220.898 12.9707 469.329
v -220.898 17.2624 470.329
v -220.898 12.9707 470.329
v -220.898 17.2624 470.329
v -221.898 17.2624 470.329
v -220.898 17.2624 469.329
v -221.898 17.2624 469.329
v -222.153 13.0056 452.206
v -223.153 13.0056 452.206
v -222.153 17.2973 452.206
v -223.153 17.2973 452.206
v -222.153 17.2973 451.206
v -223.153 17.2973 451.206
v -222.153 13.0056 451.206
v -223.153 13.0056 451.206
v -223.153 17.2973 451.206
v -223.153 17.2973 452.206
v -223.153 13.0056 451.206
v -223.153 13.0056 452.206
v -222.153 17.2973 451.206
v -222.153 13.0056 451.206
v -222.153 17.2973 452.206
v -222.153 13.0056 452.206
v -222.153 17.2973 452.206
v -223.153 17.2973 452.206
v -222.153 17.2973 451.206
v -223.153 17.2973 451.206
v -225.834 13.0491 469.674
v -225.834 13.104 469.177
v -225.834 17.0249 470.113
v -225.834 17.0798 469.616
v -217.834 17.0249 470.113
v -217.834 17.0798 469.616
v -217.834 13.0491 469.674
v -217.834 13.104 469.177
v -217.834 17.0798 469.616
v -225.834 17.0798 469.616
v -217.834 13.104 469.177
v -225.834 13.104 469.177
v -217.834 17.0249 470.113
v -217.834 13.0491 469.674
v -225.834 17.0249 470.113
v -225.834 13.0491 469.674
v -225.834 17.0249 470.113
v -225.834 17.0798 469.616
v -217.834 17.0249 470.113
v -217.834 17.0798 469.616
v -225.886 13.0515 455.496
v -225.886 13.1064 454.999
v -225.886 17.0274 455.935
v -225.886 17.0823 455.438
v -217.886 17.0274 455.935
v -217.886 17.0823 455.438
v -217.886 13.0515 455.496
v -217.886 13.1064 454.999
v -217.886 17.0823 455.438
v -225.886 17.0823 455.438
v -217.886 13.1064 454.999
v -225.886 13.1064 454.999
v -217.886 17.0274 455.935
v -217.886 13.0515 455.496
v -225.886 17.0274 455.935
v -225.886 13.0515 455.496
v -225.886 17.0274 455.935
v -225.886 17.0823 455.438
v -217.886 17.0274 455.935
v -217.886 17.0823 455.438
v -217.235 12.9304 470.315
v -218.235 12.9304 470.315
v -217.235 17.2221 470.315
v -218.235 17.2221 470.315
v -217.235 17.2221 469.315
v -218.235 17.2221 469.315
v -217.235 12.9304 469.315
v -218.235 12.9304 469.315
v -218.235 17.2221 469.315
v -218.235 17.2221 470.315
v -218.235 12.9304 469.315
v -218.235 12.9304 470.315
v -217.235 17.2221 469.315
v -217.235 12.9304 469.315
v -217.235 17.2221 470.315
v -217.235 12.9304 470.315
v -217.235 17.2221 470.315
v -218.235 17.2221 470.315
v -217.235 17.2221 469.315
v -218.235 17.2221 469.315
v -217.198 12.9417 456.123
v -218.198 12.9417 456.123
v -217.198 17.2335 456.123
v -218.198 17.2335 456.123
v -217.198 17.2335 455.123
v -218.198 17.2335 455.123
v -217.198 12.9417 455.123
v -218.198 12.9417 455.123
v -218.198 17.2335 455.123
v -218.198 17.2335 456.123
v -218.198 12.9417 455.123
v -218.198 12.9417 456.123
v -217.198 17.2335 455.123
v -217.198 12.9417 455.123
v -217.198 17.2335 456.123
v -217.198 12.9417 456.123
v -217.198 17.2335 456.123
v -218.198 17.2335 456.123
v -217.198 17.2335 455.123
v -218.198 17.2335 455.123
v -217.939 12.8964 455.776
v -217.439 12.8964 455.776
v -217.939 16.8964 455.776
v -217.439 16.8964 455.776
v -217.939 16.8964 463.776
v -217.439 16.8964 463.776
v -217.939 12.8964 463.776
v -217.439 12.8964 463.776
v -217.439 16.8964 463.776
v -217.439 16.8964 455.776
v -217.439 12.8964 463.776
v -217.439 12.8964 455.776
v -217.939 16.8964 463.776
v -217.939 12.8964 463.776
v -217.939 16.8964 455.776
v -217.939 12.8964 455.776
v -217.939 16.8964 455.776
v -217.439 16.8964 455.776
v -217.939 16.8964 463.776
v -217.439 16.8964 463.776
v -217.939 12.7293 461.582
v -217.439 12.7293 461.582
v -217.939 16.7293 461.582
v -217.439 16.7293 461.582
v -217.939 16.7293 469.582
v -217.439 16.7293 469.582
v -217.939 12.7293 469.582
v -217.439 12.7293 469.582
v -217.439 16.7293 469.582
v -217.439 16.7293 461.582
v -217.439 12.7293 469.582
v -217.439 12.7293 461.582
v -217.939 16.7293 469.582
v -217.939 12.7293 469.582
v -217.939 16.7293 461.582
v -217.939 12.7293 461.582
v -217.939 16.7293 461.582
v -217.439 16.7293 461.582
v -217.939 16.7293 469.582
v -217.439 16.7293 469.582
v -266 13.1421 489
v -266 13.1483 487
v -266 13.1726 485
v -266 13.1187 483
v -266 13.0905 481
v -266 12.9287 479
v -266 12.9578 477
v -266 12.7808 475
v -266 12.3935 473
v -266 11.9103 471
v -266 11.466 469
v -266 10.9994 467
v -266 10.8012 465
v -266 10.7965 463
v -266 10.7903 461
v -266 10.7858 459
v -266 10.6845 457
v -266 10.7014 455
v -266 10.5679 453
v -266 10.5498 451
v -266 10.3183 449
v -266 10.3645 447
v -266 10.3371 445
v -266 10.2926 443
v -266 10.2863 441
v -266 10.1836 439
v -266 10.1978 437
v -266 10.1524 435
v -266 10.1096 433
v -266 10.0902 431
v -266 10.1387 429
v -266 10.0044 427
v -264 12.9683 489
v -264 13.0663 487
v -264 13.1156 485
v -264 13.1936 483
v -264 13.0351 481
v -264 12.9261 479
v -264 13.0629 477
v -264 12.8892 475
v -264 12.5786 473
v -264 11.9918 471
v -264 11.5867 469
v -264 11.1612 467
v -264 10.9176 465
v -264 10.7295 463
v -264 10.6736 461
v -264 10.6606 459
v -264 10.76 457
v -264 10.7183 455
v -264 10.6884 453
v -264 10.6478 451
v -264 10.4674 449
v -264 10.4388 447
v -264 10.3497 445
v -264 10.4194 443
v -264 10.2997 441
v -264 10.2223 439
v -264 10.22 437
v -264 10.197 435
v -264 10.2748 433
v -264 10.1551 431
v -264 10.1538 429
v -264 10.1169 427
v -262 12.8403 489
v -262 12.8968 487
v -262 13.1223 485
v -262 13.0161 483
v -262 12.9899 481
v -262 12.9789 479
v -262 12.9966 477
v -262 12.8813 475
v -262 12.5781 473
v -262 12.09 471
v -262 11.8243 469
v -262 11.4088 467
v -262 10.9336 465
v -262 10.9371 463
v -262 10.9295 461
v -262 10.7651 459
v -262 10.7389 457
v -262 10.7388 455
v -262 10.6502 453
v -262 10.6732 451
v -262 10.577 449
v -262 10.4531 447
v -262 10.5255 445
v -262 10.4092 443
v -262 10.4218 441
v -262 10.3309 439
v -262 10.2554 437
v -262 10.1975 435
v -262 10.246 433
v -262 10.3114 431
v -262 10.3717 429
v -262 10.2853 427
v -260 12.7828 489
v -260 12.93 487
v -260 12.9172 485
v -260 12.9605 483
v -260 13.0311 481
v -260 13.0424 479
v -260 12.9848 477
v -260 13.0753 475
v -260 12.7706 473
v -260 12.1968 471
v -260 11.8898 469
v -260 11.4613 467
v -260 11.2135 465
v -260 10.9434 463
v -260 11.0134 461
v -260 10.8308 459
v -260 10.7315 457
v -260 10.6916 455
v -260 10.6471 453
v -260 10.678 451
v -260 10.7287 449
v -260 10.6813 447
v -260 10.6115 445
v -260 10.5182 443
v -260 10.5202 441
v -260 10.2493 439
v -260 10.4 437
v -260 10.4361 435
v -260 10.4377 433
v -260 10.4813 431
v -260 10.5343 429
v -260 10.3713 427
v -258 12.8876 489
v -258 12.8795 487
v -258 12.8895 485
v -258 12.9455 483
v -258 13.0021 481
v -258 12.9471 479
v -258 13.0986 477
v -258 13.1338 475
v -258 12.8214 473
v -258 12.4378 471
v -258 12.0617 469
v -258 11.6767 467
v -258 11.4628 465
v -258 11.2266 463
v -258 11.0342 461
v -258 10.9876 459
v -258 10.7805 457
v -258 10.7121 455
v -258 10.6778 453
v -258 10.7639 451
v -258 10.7301 449
v -258 10.8531 447
v -258 10.8037 445
v -258 10.735 443
v -258 10.6123 441
v -258 10.3997 439
v -258 10.5597 437
v -258 10.5621 435
v -258 10.6735 433
v -258 10.5811 431
v -258 10.6006 429
v -258 10.5664 427
v -256 12.9994 489
v -256 12.9736 487
v -256 12.7544 485
v -256 12.8993 483
v -256 12.9434 481
v -256 13.1101 479
v -256 13.1748 477
v -256 13.0834 475
v -256 12.9986 473
v -256 12.6712 471
v -256 12.2247 469
v -256 12.026 467
v -256 11.7615 465
v -256 11.5832 463
v -256 11.2573 461
v -256 11.0974 459
v -256 10.8377 457
v -256 10.7366 455
v -256 10.8107 453
v -256 10.8826 451
v -256 10.92 449
v -256 10.9318 447
v -256 10.9559 445
v -256 10.9412 443
v -256 10.8203 441
v -256 10.6924 439
v -256 10.7936 437
v -256 10.7941 435
v -256 10.8181 433
v -256 10.8275 431
v -256 10.8217 429
v -256 10.6758 427
v -254 13.0728 489
v -254 12.9261 487
v -254 13.0174 485
v -254 12.8276 483
v -254 12.9027 481
v -254 13.1176 479
v -254 13.0697 477
v -254 13.244 475
v -254 13.0458 473
v -254 12.7512 471
v -254 12.3624 469
v -254 12.0693 467
v -254 11.8294 465
v -254 11.6607 463
v -254 11.3692 461
v -254 11.2387 459
v -254 10.8606 457
v -254 10.9085 455
v -254 10.7263 453
v -254 10.8401 451
v -254 10.9996 449
v -254 11.0704 447
v -254 11.0008 445
v -254 11.0132 443
v -254 10.9535 441
v -254 10.8051 439
v -254 10.7898 437
v -254 10.8999 435
v -254 10.8603 433
v -254 10.8219 431
v -254 10.7993 429
v -254 10.73 427
v -252 13.1127 489
v -252 12.962 487
v -252 12.9453 485
v -252 13.0036 483
v -252 13.0199 481
v -252 13.1789 479
v -252 13.1588 477
v -252 13.1661 475
v -252 13.1737 473
v -252 12.7625 471
v -252 12.5818 469
v -252 12.3092 467
v -252 12.0647 465
v -252 11.853 463
v -252 11.5864 461
v -252 11.4171 459
v -252 11.2378 457
v -252 11.0889 455
v -252 11.1181 453
v -252 11.0459 451
v -252 11.0665 449
v -252 11.1674 447
v -252 11.1538 445
v -252 11.0753 443
v -252 11.0993 441
v -252 10.9807 439
v -252 10.9531 437
v -252 11.0447 435
v -252 11.1882 433
v -252 11.2101 431
v -252 11.2376 429
v -252 11.3126 427
v -250 13.0306 489
v -250 13.0702 487
v -250 13.0171 485
v -250 13.0558 483
v -250 13.0458 481
v -250 13.1375 479
v -250 13.1612 477
v -250 13.1207 475
v -250 13.0863 473
v -250 12.8995 471
v -250 12.6508 469
v -250 12.3753 467
v -250 12.2028 465
v -250 11.9337 463
v -250 11.8252 461
v -250 11.58 459
v -250 11.4779 457
v -250 11.4876 455
v -250 11.4498 453
v -250 11.5093 451
v -250 11.4831 449
v -250 11.4125 447
v -250 11.4299 445
v -250 11.3951 443
v -250 11.3912 441
v -250 11.4931 439
v -250 11.5407 437
v -250 11.6544 435
v -250 11.7854 433
v -250 11.6829 431
v -250 11.8257 429
v -250 11.9742 427
v -248 12.9775 489
v -248 13.0307 487
v -248 13.1366 485
v -248 13.0941 483
v -248 13.0969 481
v -248 13.0984 479
v -248 13.0542 477
v -248 13.0115 475
v -248 13.0443 473
v -248 12.8488 471
v -248 12.744 469
v -248 12.6135 467
v -248 12.3854 465
v -248 12.1444 463
v -248 12.0135 461
v -248 11.8686 459
v -248 11.8245 457
v -248 11.7902 455
v -248 11.8311 453
v -248 11.9585 451
v -248 11.8724 449
v -248 11.8075 447
v -248 11.8379 445
v -248 11.7632 443
v -248 11.8572 441
v -248 12.0259 439
v -248 12.0697 437
v -248 12.2004 435
v -248 12.3863 433
v -248 12.3603 431
v -248 12.4818 429
v -248 12.5468 427
v -246 12.9128 489
v -246 13.0903 487
v -246 13.0472 485
v -246 13.0964 483
v -246 13.0719 481
v -246 13.0309 479
v -246 13.0291 477
v -246 12.9424 475
v -246 12.8752 473
v -246 12.9024 471
v -246 12.9584 469
v -246 12.7631 467
v -246 12.5519 465
v -246 12.3748 463
v -246 12.2339 461
v -246 12.1915 459
v -246 12.2755 457
v -246 12.1597 455
v -246 12.1001 453
v -246 12.155 451
v -246 12.0836 449
v -246 12.0359 447
v -246 12.0424 445
v -246 12.1641 443
v -246 12.2438 441
v -246 12.4134 439
v -246 12.5626 437
v -246 12.7899 435
v -246 12.8128 433
v -246 12.8582 431
v -246 12.887 429
v -246 12.8577 427
v -244 13.0287 489
v -244 13.0021 487
v -244 13.0736 485
v -244 13.1215 483
v -244 13.0017 481
v -244 12.9086 479
v -244 12.9891 477
v -244 12.8661 475
v -244 12.9498 473
v -244 12.9288 471
v -244 13.0726 469
v -244 12.913 467
v -244 12.7798 465
v -244 12.6302 463
v -244 12.5872 461
v -244 12.5285 459
v -244 12.5082 457
v -244 12.4916 455
v -244 12.4792 453
v -244 12.3258 451
v -244 12.3356 449
v -244 12.3679 447
v -244 12.3762 445
v -244 12.5677 443
v -244 12.7182 441
v -244 12.8661 439
v -244 13.0182 437
v -244 13.1325 435
v -244 13.1526 433
v -244 13.1328 431
v -244 12.952 429
v -244 12.8144 427
v -242 13.1174 489
v -242 13.0476 487
v -242 13.075 485
v -242 13.0867 483
v -242 12.972 481
v -242 12.9396 479
v -242 12.914 477
v -242 12.8822 475
v -242 12.991 473
v -242 12.9607 471
v -242 13.0281 469
v -242 13.1269 467
v -242 12.9615 465
v -242 12.8335 463
v -242 12.7695 461
v -242 12.8273 459
v -242 12.6833 457
v -242 12.6784 455
v -242 12.6874 453
v -242 12.535 451
v -242 12.5351 449
v -242 12.6094 447
v -242 12.7012 445
v -242 12.8511 443
v -242 12.996 441
v -242 13.1591 439
v -242 13.1117 437
v -242 13.1559 435
v -242 13.1261 433
v -242 13.1233 431
v -242 12.9807 429
v -242 12.8784 427
v -240 13.1321 489
v -240 13.1632 487
v -240 13.063 485
v -240 13.0641 483
v -240 13.038 481
v -240 12.9482 479
v -240 12.9398 477
v -240 12.8628 475
v -240 12.9492 473
v -240 13.0214 471
v -240 13.0641 469
v -240 13.1133 467
v -240 13.0624 465
v -240 12.9505 463
v -240 12.9213 461
v -240 12.8453 459
v -240 12.8522 457
v -240 12.8596 455
v -240 12.7789 453
v -240 12.7532 451
v -240 12.7354 449
v -240 12.8005 447
v -240 12.7842 445
v -240 12.8498 443
v -240 12.9768 441
v -240 13.1107 439
v -240 13.15 437
v -240 13.1269 435
v -240 12.9918 433
v -240 13.046 431
v -240 12.9942 429
v -240 12.8673 427
v -238 13.0232 489
v -238 13.0486 487
v -238 13.0889 485
v -238 13.1057 483
v -238 13.0778 481
v -238 12.9612 479
v -238 12.9009 477
v -238 13.013 475
v -238 12.9975 473
v -238 12.9573 471
v -238 12.8976 469
v -238 12.9933 467
v -238 13.1297 465
v -238 13.0453 463
v -238 13.0089 461
v -238 12.9474 459
v -238 13.0166 457
v -238 12.9963 455
v -238 12.8684 453
v -238 12.8554 451
v -238 12.8099 449
v -238 12.7672 447
v -238 12.7271 445
v -238 12.8433 443
v -238 12.9261 441
v -238 12.9597 439
v -238 13.0385 437
v -238 13.0316 435
v -238 13.0012 433
v -238 12.963 431
v -238 12.9332 429
v -238 12.9943 427
v -236 12.9999 489
v -236 13.1049 487
v -236 13.133 485
v -236 13.0429 483
v -236 13.0071 481
v -236 13.0274 479
v -236 13.0095 477
v -236 12.8856 475
v -236 12.8983 473
v -236 12.9777 471
v -236 12.9692 469
v -236 13.0747 467
v -236 12.9797 465
v -236 12.9838 463
v -236 13.0014 461
v -236 13.0466 459
v -236 13.0206 457
v -236 13.0453 455
v -236 12.9639 453
v -236 12.959 451
v -236 12.9453 449
v -236 12.7828 447
v -236 12.877 445
v -236 12.8741 443
v -236 13.0167 441
v -236 13.0056 439
v -236 13.0618 437
v -236 12.9778 435
v -236 13.0058 433
v -236 12.9891 431
v -236 12.9208 429
v -236 13.0417 427
v -234 13.0108 489
v -234 13.046 487
v -234 13.1041 485
v -234 13.0761 483
v -234 12.9335 481
v -234 13.0146 479
v -234 12.9462 477
v -234 12.9086 475
v -234 12.9564 473
v -234 12.9224 471
v -234 13.0903 469
v -234 13.0125 467
v -234 13.0278 465
v -234 13.0439 463
v -234 12.9408 461
v -234 13.042 459
v -234 13.068 457
v -234 13.084 455
v -234 13.0122 453
v -234 13.0741 451
v -234 12.8929 449
v -234 12.9705 447
v -234 12.9207 445
v -234 12.8843 443
v -234 12.9792 441
v -234 13.1166 439
v -234 12.9999 437
v -234 13.0046 435
v -234 12.9684 433
v -234 12.949 431
v -234 13.0447 429
v -234 13.0848 427
v -232 13.0433 489
v -232 13.1739 487
v -232 13.0989 485
v -232 13.1055 483
v -232 12.9078 481
v -232 12.9777 479
v -232 12.9271 477
v -232 12.9431 475
v -232 12.9098 473
v -232 12.9728 471
v -232 13.0588 469
v -232 13.1369 467
v -232 13.1379 465
v -232 13.0792 463
v -232 13.0893 461
v -232 13.1144 459
v -232 13.1539 457
v -232 13.1019 455
v -232 13.1252 453
v -232 13.0884 451
v -232 13.0398 449
v -232 12.9699 447
v -232 12.9611 445
v -232 13.0036 443
v -232 12.9962 441
v -232 13.0879 439
v -232 13.0349 437
v -232 13.0129 435
v -232 12.9071 433
v -232 12.9461 431
v -232 13.0477 429
v -232 13.1544 427
v -230 13.1852 489
v -230 13.1229 487
v -230 13.0262 485
v -230 13.0709 483
v -230 12.8939 481
v -230 12.9794 479
v -230 13.0391 477
v -230 12.9619 475
v -230 13.0395 473
v -230 13.1108 471
v -230 13.1272 469
v -230 13.0552 467
v -230 13.0788 465
v -230 13.0795 463
v -230 13.1943 461
v -230 13.1786 459
v -230 13.1589 457
v -230 13.1756 455
v -230 13.0603 453
v -230 13.052 451
v -230 13.1124 449
v -230 12.9544 447
v -230 12.9942 445
v -230 12.9576 443
v -230 13.1308 441
v -230 13.1806 439
v -230 13.1514 437
v -230 13.0637 435
v -230 13.0236 433
v -230 13.0594 431
v -230 13.0789 429
v -230 13.1961 427
v -228 13.2051 489
v -228 13.0592 487
v -228 13.1103 485
v -228 13.0657 483
v -228 12.9947 481
v -228 12.9846 479
v -228 12.9566 477
v -228 12.9977 475
v -228 13.0736 473
v -228 13.0663 471
v -228 13.1389 469
v -228 12.9987 467
v -228 13.0189 465
v -228 12.9928 463
v -228 13.1317 461
v -228 13.1148 459
v -228 13.1219 457
v -228 13.1047 455
v -228 13.0785 453
v -228 12.9102 451
v -228 13.0491 449
v -228 13.0201 447
v -228 12.9788 445
v -228 13.0071 443
v -228 13.1573 441
v -228 13.0722 439
v -228 13.1524 437
v -228 13.0966 435
v -228 13.0464 433
v -228 13.1186 431
v -228 13.0878 429
v -228 13.2359 427
v -226 13.1661 489
v -226 13.0151 487
v -226 13.0572 485
v -226 13.0444 483
v -226 13.0352 481
v -226 13.072 479
v -226 13.0021 477
v -226 13.0567 475
v -226 13.073 473
v -226 13.058 471
v -226 13.0678 469
v -226 12.9185 467
v -226 12.9308 465
v -226 12.9319 463
v -226 13.0859 461
v -226 13.0637 459
v -226 13.1576 457
v -226 13.0897 455
v -226 13.0386 453
v -226 12.8982 451
v -226 13.0589 449
v -226 12.9648 447
v -226 12.9741 445
v -226 13.0112 443
v -226 13.0679 441
v -226 13.0971 439
v -226 13.0663 437
v -226 13.0427 435
v -226 12.9804 433
v -226 13.1052 431
v -226 13.019 429
v -226 13.2175 427
v -224 12.957 489
v -224 13.0509 487
v -224 12.992 485
v -224 12.9971 483
v -224 13.042 481
v -224 13.0239 479
v -224 13.0406 477
v -224 13.0698 475
v -224 13.0558 473
v -224 12.9858 471
v -224 12.9435 469
v -224 12.9452 467
v -224 12.7039 465
v -224 12.8992 463
v -224 13.0011 461
v -224 13.0792 459
v -224 13.041 457
v -224 13.0091 455
v -224 13.0768 453
v -224 12.9531 451
v -224 12.9435 449
v -224 13.0671 447
v -224 12.9492 445
v -224 12.9684 443
v -224 12.9618 441
v -224 13.0303 439
v -224 13.082 437
v -224 13.001 435
v -224 12.8931 433
v -224 12.9415 431
v -224 13.7174 429
v -224 14.6867 427
v -222 12.906 489
v -222 12.9922 487
v -222 13.0148 485
v -222 12.9218 483
v -222 13.0493 481
v -222 13.0457 479
v -222 13.0822 477
v -222 13.0414 475
v -222 13.0467 473
v -222 13.1087 471
v -222 12.9601 469
v -222 12.7746 467
v -222 12.7747 465
v -222 12.692 463
v -222 12.8521 461
v -222 13.0526 459
v -222 13.0683 457
v -222 13.0383 455
v -222 13.0742 453
v -222 12.9921 451
v -222 12.961 449
v -222 12.9921 447
v -222 12.9627 445
v -222 12.9569 443
v -222 13.051 441
v -222 13.0415 439
v -222 12.9546 437
v -222 13.0128 435
v -222 13.4842 433
v -222 14.4911 431
v -222 15.6553 429
v -222 16.5532 427
v -220 12.8397 489
v -220 12.8205 487
v -220 12.8076 485
v -220 12.9081 483
v -220 12.8883 481
v -220 12.7892 479
v -220 12.8683 477
v -220 12.9824 475
v -220 13.0037 473
v -220 13.0263 471
v -220 12.8506 469
v -220 12.8268 467
v -220 12.7519 465
v -220 12.8352 463
v -220 12.8702 461
v -220 12.9942 459
v -220 13.0609 457
v -220 13.0696 455
v -220 13.0544 453
v -220 12.9818 451
v -220 13.0846 449
v -220 13.067 447
v -220 12.9883 445
v -220 12.8865 443
v -220 12.9745 441
v -220 12.9696 439
v -220 13.1418 437
v -220 14.1783 435
v -220 15.1886 433
v -220 16.131 431
v -220 16.501 429
v -220 16.7641 427
v -218 12.7113 489
v -218 12.8853 487
v -218 12.8395 485
v -218 12.8895 483
v -218 12.7148 481
v -218 12.7772 479
v -218 12.8919 477
v -218 12.9402 475
v -218 13.0303 473
v -218 13.0177 471
v -218 12.8764 469
v -218 12.7554 467
v -218 12.6873 465
v -218 12.7301 463
v -218 12.8729 461
v -218 12.8939 459
v -218 12.9601 457
v -218 12.9935 455
v -218 12.9707 453
v -218 12.9929 451
v -218 13.1281 449
v -218 12.9799 447
v -218 12.943 445
v -218 12.9204 443
v -218 12.8429 441
v -218 13.6849 439
v -218 14.7101 437
v -218 15.7152 435
v -218 16.0434 433
v -218 16.2598 431
v -218 16.7472 429
v -218 17.1602 427
v -216 12.9554 489
v -216 12.9593 487
v -216 12.9427 485
v -216 12.8431 483
v -216 12.8804 481
v -216 12.7549 479
v -216 12.8412 477
v -216 12.9755 475
v -216 13.0771 473
v -216 13.093 471
v -216 12.8953 469
v -216 12.7651 467
v -216 12.7917 465
v -216 12.6993 463
v -216 12.7066 461
v -216 12.8752 459
v -216 12.8851 457
v -216 12.9464 455
v -216 13.0034 453
v -216 12.9223 451
v -216 13.0577 449
v -216 12.9338 447
v -216 12.9255 445
v -216 13.0618 443
v -216 13.9119 441
v -216 15.0453 439
v -216 15.5956 437
v -216 16.0221 435
v -216 16.2786 433
v -216 16.7214 431
v -216 17.0576 429
v -216 17.6138 427
v -214 12.9138 489
v -214 12.9112 487
v -214 13.0187 485
v -214 12.9876 483
v -214 13.027 481
v -214 12.9041 479
v -214 12.9866 477
v -214 13.0309 475
v -214 12.9689 473
v -214 13.0318 471
v -214 12.9761 469
v -214 12.8925 467
v -214 12.6305 465
v -214 12.8048 463
v -214 12.9011 461
v -214 13.0739 459
v -214 13.003 457
v -214 13.0058 455
v -214 12.9302 453
v -214 12.9428 451
v -214 13.1342 449
v -214 13.0215 447
v -214 13.3206 445
v -214 14.1369 443
v -214 14.9994 441
v -214 15.3607 439
v -214 15.7217 437
v -214 16.0467 435
v -214 16.6232 433
v -214 17.1992 431
v -214 17.5257 429
v -214 18.0365 427
v -212 13.0315 489
v -212 13.1326 487
v -212 13.1278 485
v -212 13.1043 483
v -212 13.1332 481
v -212 13.0629 479
v -212 13.0736 477
v -212 13.1015 475
v -212 13.0865 473
v -212 13.0366 471
v -212 12.999 469
v -212 12.8614 467
v -212 12.8912 465
v -212 12.8966 463
v -212 12.9636 461
v -212 13.1127 459
v -212 13.0297 457
v -212 12.9948 455
v -212 13.0539 453
v -212 12.9322 451
v -212 13.0425 449
v -212 13.5257 447
v -212 14.5404 445
v -212 15.0211 443
v -212 15.2168 441
v -212 15.3614 439
v -212 15.7339 437
v -212 16.2131 435
v -212 16.7331 433
v -212 17.4738 431
v -212 17.9891 429
v -212 18.5997 427
v -210 13.0761 489
v -210 13.2028 487
v -210 13.1854 485
v -210 13.1479 483
v -210 13.1313 481
v -210 13.1977 479
v -210 13.083 477
v -210 13.1219 475
v -210 13.158 473
v -210 13.0508 471
v -210 13.002 469
v -210 12.9557 467
v -210 12.9297 465
v -210 12.9595 463
v -210 13.034 461
v -210 13.1893 459
v -210 13.0887 457
v -210 13.0766 455
v -210 13.0223 453
v -210 13.0726 451
v -210 13.7253 449
v -210 14.7615 447
v -210 15.2021 445
v -210 15.247 443
v -210 15.1355 441
v -210 15.385 439
v -210 15.6466 437
v -210 16.1496 435
v -210 16.8029 433
v -210 17.646 431
v -210 18.1033 429
v -210 18.8239 427
v -208 13.1578 489
v -208 13.1695 487
v -208 13.2805 485
v -208 13.2529 483
v -208 13.1991 481
v -208 13.1639 479
v -208 13.1772 477
v -208 13.1536 475
v -208 13.1421 473
v -208 13.1365 471
v -208 13.121 469
v -208 12.9658 467
v -208 13.0054 465
v -208 13.0132 463
v -208 13.066 461
v -208 13.1649 459
v -208 13.1751 457
v -208 13.1156 455
v -208 12.9449 453
v -208 13.7392 451
v -208 14.8538 449
v -208 15.3928 447
v -208 15.5083 445
v -208 15.4963 443
v -208 15.445 441
v -208 15.3953 439
v -208 15.6108 437
v -208 16.0556 435
v -208 16.7738 433
v -208 17.5154 431
v -208 18.0304 429
v -208 18.74 427
v -206 13.1369 489
v -206 13.2229 487
v -206 13.2494 485
v -206 13.2179 483
v -206 13.1903 481
v -206 13.097 479
v -206 13.0842 477
v -206 13.1107 475
v -206 13.0044 473
v -206 13.0148 471
v -206 13.0486 469
v -206 12.9912 467
v -206 12.9816 465
v -206 13.0415 463
v -206 13.0465 461
v -206 13.1244 459
v -206 13.1398 457
v -206 13.1049 455
v -206 13.8727 453
v -206 14.9351 451
v -206 15.5682 449
v -206 15.968 447
v -206 16.1345 445
v -206 15.9916 443
v -206 15.7691 441
v -206 15.5726 439
v -206 15.6925 437
v -206 16.1072 435
v -206 16.8265 433
v -206 17.3656 431
v -206 17.8836 429
v -206 18.5407 427
v -204 13.0664 489
v -204 13.1115 487
v -204 13.1911 485
v -204 13.2212 483
v -204 13.2009 481
v -204 13.0531 479
v -204 12.9577 477
v -204 12.9248 475
v -204 12.9797 473
v -204 13.09 471
v -204 13.1323 469
v -204 13.0481 467
v -204 13.0454 465
v -204 13.0495 463
v -204 13.0232 461
v -204 13.1451 459
v -204 13.1615 457
v -204 13.8168 455
v -204 15.0668 453
v -204 15.5984 451
v -204 15.9696 449
v -204 16.2691 447
v -204 16.3451 445
v -204 16.2471 443
v -204 15.8775 441
v -204 15.8711 439
v -204 15.9842 437
v -204 16.3828 435
v -204 16.9228 433
v -204 17.5458 431
v -204 18.0442 429
v -204 18.3165 427
f 26 25 24
f 27 25 26
f 28 25 27
f 28 29 25
f 28 31 29
f 29 31 30
f 1 6 5
f 1 2 6
f 3 2 1
f 6 2 9
f 2 3 4
f 9 2 8
f 8 2 7
f 2 4 23
f 2 23 22
f 2 22 11
f 11 10 2
f 2 10 7
f 11 12 10
f 11 13 12
f 13 15 12
f 13 11 16
f 16 11 18
f 19 18 11
f 15 13 14
f 13 16 14
f 19 20 18
f 21 20 19
f 16 18 17
f 34 33 32
f 35 33 34
f 36 33 35
f 36 37 33
f 39 37 36
f 37 39 38
f 144 142 146
f 146 142 145
f 145 142 141
f 145 141 41
f 145 41 43
f 42 43 41
f 42 41 40
f 42 40 114
f 42 114 118
f 143 74 139
f 140 143 139
f 140 144 143
f 140 142 144
f 143 75 74
f 74 75 73
f 74 73 72
f 41 141 44
f 45 41 44
f 40 41 45
f 97 74 96
f 74 97 139
f 96 74 72
f 114 40 45
f 114 45 112
f 44 141 46
f 141 135 46
f 142 135 141
f 137 139 97
f 138 139 137
f 138 140 139
f 138 136 140
f 140 136 142
f 142 136 135
f 46 45 44
f 96 95 97
f 95 137 97
f 46 47 45
f 47 112 45
f 113 112 47
f 96 94 95
f 135 48 46
f 49 46 48
f 47 46 49
f 92 137 95
f 92 95 93
f 93 95 94
f 113 49 111
f 47 49 113
f 135 131 50
f 135 50 48
f 137 91 133
f 92 91 137
f 136 132 135
f 135 132 131
f 134 132 136
f 134 136 138
f 134 138 133
f 133 138 137
f 49 48 51
f 51 48 50
f 92 90 91
f 90 92 93
f 111 49 110
f 110 49 51
f 50 155 154
f 131 155 50
f 50 53 51
f 53 50 54
f 88 133 91
f 88 91 90
f 51 53 52
f 110 51 103
f 103 51 52
f 88 90 89
f 131 147 155
f 57 52 56
f 55 52 53
f 109 103 52
f 103 109 108
f 103 108 107
f 103 107 106
f 89 87 88
f 105 103 104
f 104 103 102
f 88 87 86
f 133 88 86
f 131 148 147
f 132 128 131
f 130 128 132
f 129 133 86
f 130 133 129
f 130 134 133
f 130 132 134
f 131 128 127
f 131 150 148
f 150 131 149
f 127 149 131
f 127 153 149
f 153 127 152
f 85 84 87
f 87 84 86
f 115 100 105
f 115 105 104
f 129 86 84
f 152 127 151
f 115 116 100
f 60 59 58
f 151 127 59
f 59 61 58
f 100 116 62
f 59 63 61
f 61 63 62
f 100 62 63
f 82 83 85
f 85 83 84
f 64 63 59
f 65 63 64
f 63 65 101
f 63 101 100
f 129 84 83
f 59 127 64
f 128 121 119
f 124 121 128
f 124 128 130
f 124 130 123
f 123 130 129
f 123 129 83
f 128 119 127
f 64 127 119
f 81 83 82
f 67 65 64
f 65 67 101
f 101 67 99
f 80 83 81
f 66 64 119
f 67 64 66
f 80 123 83
f 67 66 69
f 67 69 68
f 99 67 98
f 98 67 68
f 81 77 80
f 76 77 81
f 69 66 119
f 77 123 80
f 120 69 119
f 121 120 119
f 125 123 77
f 125 124 123
f 126 124 125
f 126 121 124
f 122 121 126
f 121 122 120
f 98 68 117
f 117 68 70
f 69 70 68
f 78 77 76
f 69 71 70
f 120 71 69
f 78 79 77
f 125 77 79
f 158 157 156
f 159 157 158
f 174 173 172
f 175 173 174
f 170 169 168
f 171 169 170
f 162 161 160
f 163 161 162
f 166 165 164
f 167 165 166
f 178 177 176
f 179 177 178
f 194 193 192
f 195 193 194
f 190 189 188
f 191 189 190
f 182 181 180
f 183 181 182
f 186 185 184
f 187 185 186
f 198 197 196
f 199 197 198
f 214 213 212
f 215 213 214
f 210 209 208
f 211 209 210
f 202 201 200
f 203 201 202
f 206 205 204
f 207 205 206
f 218 217 216
f 219 217 218
f 234 233 232
f 235 233 234
f 230 229 228
f 231 229 230
f 222 221 220
f 223 221 222
f 226 225 224
f 227 225 226
f 238 237 236
f 239 237 238
f 254 253 252
f 255 253 254
f 250 249 248
f 251 249 250
f 242 241 240
f 243 241 242
f 246 245 244
f 247 245 246
f 258 257 256
f 259 257 258
f 274 273 272
f 275 273 274
f 270 269 268
f 271 269 270
f 262 261 260
f 263 261 262
f 266 265 264
f 267 265 266
f 278 277 276
f 279 277 278
f 294 293 292
f 295 293 294
f 290 289 288
f 291 289 290
f 282 281 280
f 283 281 282
f 286 285 284
f 287 285 286
f 298 297 296
f 299 297 298
f 314 313 312
f 315 313 314
f 310 309 308
f 311 309 310
f 302 301 300
f 303 301 302
f 306 305 304
f 307 305 306
f 318 317 316
f 319 317 318
f 334 333 332
f 335 333 334
f 330 329 328
f 331 329 330
f 322 321 320
f 323 321 322
f 326 325 324
f 327 325 326
f 338 337 336
f 339 337 338
f 354 353 352
f 355 353 354
f 350 349 348
f 351 349 350
f 342 341 340
f 343 341 342
f 346 345 344
f 347 345 346
f 358 357 356
f 359 357 358
f 374 373 372
f 375 373 374
f 370 369 368
f 371 369 370
f 362 361 360
f 363 361 362
f 366 365 364
f 367 365 366
f 378 377 376
f 379 377 378
f 394 393 392
f 395 393 394
f 390 389 388
f 391 389 390
f 382 381 380
f 383 381 382
f 386 385 384
f 387 385 386
f 398 397 396
f 399 397 398
f 414 413 412
f 415 413 414
f 410 409 408
f 411 409 410
f 402 401 400
f 403 401 402
f 406 405 404
f 407 405 406
f 418 417 416
f 419 417 418
f 434 433 432
f 435 433 434
f 430 429 428
f 431 429 430
f 422 421 420
f 423 421 422
f 426 425 424
f 427 425 426
f 438 437 436
f 439 437 438
f 454 453 452
f 455 453 454
f 450 449 448
f 451 449 450
f 442 441 440
f 443 441 442
f 446 445 444
f 447 445 446
f 458 457 456
f 459 457 458
f 474 473 472
f 475 473 474
f 470 469 468
f 471 469 470
f 462 461 460
f 463 461 462
f 466 465 464
f 467 465 466
f 478 477 476
f 479 477 478
f 494 493 492
f 495 493 494
f 490 489 488
f 491 489 490
f 482 481 480
f 483 481 482
f 486 485 484
f 487 485 486
f 498 497 496
f 499 497 498
f 514 513 512
f 515 513 514
f 510 509 508
f 511 509 510
f 502 501 500
f 503 501 502
f 506 505 504
f 507 505 506
f 518 517 516
f 519 517 518
f 534 533 532
f 535 533 534
f 530 529 528
f 531 529 530
f 522 521 520
f 523 521 522
f 526 525 524
f 527 525 526
f 538 537 536
f 539 537 538
f 554 553 552
f 555 553 554
f 550 549 548
f 551 549 550
f 542 541 540
f 543 541 542
f 546 545 544
f 547 545 546
f 558 557 556
f 559 557 558
f 574 573 572
f 575 573 574
f 570 569 568
f 571 569 570
f 562 561 560
f 563 561 562
f 566 565 564
f 567 565 566
f 578 577 576
f 579 577 578
f 594 593 592
f 595 593 594
f 590 589 588
f 591 589 590
f 582 581 580
f 583 581 582
f 586 585 584
f 587 585 586
f 598 597 596
f 599 597 598
f 614 613 612
f 615 613 614
f 610 609 608
f 611 609 610
f 602 601 600
f 603 601 602
f 606 605 604
f 607 605 606
f 618 617 616
f 619 617 618
f 634 633 632
f 635 633 634
f 630 629 628
f 631 629 630
f 622 621 620
f 623 621 622
f 626 625 624
f 627 625 626
f 638 637 636
f 639 637 638
f 654 653 652
f 655 653 654
f 650 649 648
f 651 649 650
f 642 641 640
f 643 641 642
f 646 645 644
f 647 645 646
f 658 657 656
f 659 657 658
f 674 673 672
f 675 673 674
f 670 669 668
f 671 669 670
f 662 661 660
f 663 661 662
f 666 665 664
f 667 665 666
f 678 677 676
f 679 677 678
f 694 693 692
f 695 693 694
f 690 689 688
f 691 689 690
f 682 681 680
f 683 681 682
f 686 685 684
f 687 685 686
f 698 697 696
f 699 697 698
f 714 713 712
f 715 713 714
f 710 709 708
f 711 709 710
f 702 701 700
f 703 701 702
f 706 705 704
f 707 705 706
f 718 717 716
f 719 717 718
f 734 733 732
f 735 733 734
f 730 729 728
f 731 729 730
f 722 721 720
f 723 721 722
f 726 725 724
f 727 725 726
f 738 737 736
f 739 737 738
f 754 753 752
f 755 753 754
f 750 749 748
f 751 749 750
f 742 741 740
f 743 741 742
f 746 745 744
f 747 745 746
f 758 757 756
f 759 757 758
f 774 773 772
f 775 773 774
f 770 769 768
f 771 769 770
f 762 761 760
f 763 761 762
f 766 765 764
f 767 765 766
f 778 777 776
f 779 777 778
f 794 793 792
f 795 793 794
f 790 789 788
f 791 789 790
f 782 781 780
f 783 781 782
f 786 785 784
f 787 785 786
f 798 797 796
f 799 797 798
f 814 813 812
f 815 813 814
f 810 809 808
f 811 809 810
f 802 801 800
f 803 801 802
f 806 805 804
f 807 805 806
f 849 817 816
f 816 848 849
f 881 849 848
f 848 880 881
f 913 881 880
f 880 912 913
f 945 913 912
f 912 944 945
f 977 945 944
f 944 976 977
f 1009 977 976
f 976 1008 1009
f 1041 1009 1008
f 1008 1040 1041
f 1073 1041 1040
f 1040 1072 1073
f 1105 1073 1072
f 1072 1104 1105
f 1137 1105 1104
f 1104 1136 1137
f 1169 1137 1136
f 1136 1168 1169
f 1201 1169 1168
f 1168 1200 1201
f 1233 1201 1200
f 1200 1232 1233
f 1265 1233 1232
f 1232 1264 1265
f 1297 1265 1264
f 1264 1296 1297
f 1329 1297 1296
f 1296 1328 1329
f 1361 1329 1328
f 1328 1360 1361
f 1393 1361 1360
f 1360 1392 1393
f 1425 1393 1392
f 1392 1424 1425
f 1457 1425 1424
f 1424 1456 1457
f 1489 1457 1456
f 1456 1488 1489
f 1521 1489 1488
f 1488 1520 1521
f 1553 1521 1520
f 1520 1552 1553
f 1585 1553 1552
f 1552 1584 1585
f 1617 1585 1584
f 1584 1616 1617
f 1649 1617 1616
f 1616 1648 1649
f 1681 1649 1648
f 1648 1680 1681
f 1713 1681 1680
f 1680 1712 1713
f 1745 1713 1712
f 1712 1744 1745
f 1777 1745 1744
f 1744 1776 1777
f 1809 1777 1776
f 1776 1808 1809
f 850 818 817
f 817 849 850
f 882 850 849
f 849 881 882
f 914 882 881
f 881 913 914
f 946 914 913
f 913 945 946
f 978 946 945
f 945 977 978
f 1010 978 977
f 977 1009 1010
f 1042 1010 1009
f 1009 1041 1042
f 1074 1042 1041
f 1041 1073 1074
f 1106 1074 1073
f 1073 1105 1106
f 1138 1106 1105
f 1105 1137 1138
f 1170 1138 1137
f 1137 1169 1170
f 1202 1170 1169
f 1169 1201 1202
f 1234 1202 1201
f 1201 1233 1234
f 1266 1234 1233
f 1233 1265 1266
f 1298 1266 1265
f 1265 1297 1298
f 1330 1298 1297
f 1297 1329 1330
f 1362 1330 1329
f 1329 1361 1362
f 1394 1362 1361
f 1361 1393 1394
f 1426 1394 1393
f 1393 1425 1426
f 1458 1426 1425
f 1425 1457 1458
f 1490 1458 1457
f 1457 1489 1490
f 1522 1490 1489
f 1489 1521 1522
f 1554 1522 1521
f 1521 1553 1554
f 1586 1554 1553
f 1553 1585 1586
f 1618 1586 1585
f 1585 1617 1618
f 1650 1618 1617
f 1617 1649 1650
f 1682 1650 1649
f 1649 1681 1682
f 1714 1682 1681
f 1681 1713 1714
f 1746 1714 1713
f 1713 1745 1746
f 1778 1746 1745
f 1745 1777 1778
f 1810 1778 1777
f 1777 1809 1810
f 851 819 818
f 818 850 851
f 883 851 850
f 850 882 883
f 915 883 882
f 882 914 915
f 947 915 914
f 914 946 947
f 979 947 946
f 946 978 979
f 1011 979 978
f 978 1010 1011
f 1043 1011 1010
f 1010 1042 1043
f 1075 1043 1042
f 1042 1074 1075
f 1107 1075 1074
f 1074 1106 1107
f 1139 1107 1106
f 1106 1138 1139
f 1171 1139 1138
f 1138 1170 1171
f 1203 1171 1170
f 1170 1202 1203
f 1235 1203 1202
f 1202 1234 1235
f 1267 1235 1234
f 1234 1266 1267
f 1299 1267 1266
f 1266 1298 1299
f 1331 1299 1298
f 1298 1330 1331
f 1363 1331 1330
f 1330 1362 1363
f 1395 1363 1362
f 1362 1394 1395
f 1427 1395 1394
f 1394 1426 1427
f 1459 1427 1426
f 1426 1458 1459
f 1491 1459 1458
f 1458 1490 1491
f 1523 1491 1490
f 1490 1522 1523
f 1555 1523 1522
f 1522 1554 1555
f 1587 1555 1554
f 1554 1586 1587
f 1619 1587 1586
f 1586 1618 1619
f 1651 1619 1618
f 1618 1650 1651
f 1683 1651 1650
f 1650 1682 1683
f 1715 1683 1682
f 1682 1714 1715
f 1747 1715 1714
f 1714 1746 1747
f 1779 1747 1746
f 1746 1778 1779
f 1811 1779 1778
f 1778 1810 1811
f 852 820 819
f 819 851 852
f 884 852 851
f 851 883 884
f 916 884 883
f 883 915 916
f 948 916 915
f 915 947 948
f 980 948 947
f 947 979 980
f 1012 980 979
f 979 1011 1012
f 1044 1012 1011
f 1011 1043 1044
f 1076 1044 1043
f 1043 1075 1076
f 1108 1076 1075
f 1075 1107 1108
f 1140 1108 1107
f 1107 1139 1140
f 1172 1140 1139
f 1139 1171 1172
f 1204 1172 1171
f 1171 1203 1204
f 1236 1204 1203
f 1203 1235 1236
f 1268 1236 1235
f 1235 1267 1268
f 1300 1268 1267
f 1267 1299 1300
f 1332 1300 1299
f 1299 1331 1332
f 1364 1332 1331
f 1331 1363 1364
f 1396 1364 1363
f 1363 1395 1396
f 1428 1396 1395
f 1395 1427 1428
f 1460 1428 1427
f 1427 1459 1460
f 1492 1460 1459
f 1459 1491 1492
f 1524 1492 1491
f 1491 1523 1524
f 1556 1524 1523
f 1523 1555 1556
f 1588 1556 1555
f 1555 1587 1588
f 1620 1588 1587
f 1587 1619 1620
f 1652 1620 1619
f 1619 1651 1652
f 1684 1652 1651
f 1651 1683 1684
f 1716 1684 1683
f 1683 1715 1716
f 1748 1716 1715
f 1715 1747 1748
f 1780 1748 1747
f 1747 1779 1780
f 1812 1780 1779
f 1779 1811 1812
f 853 821 820
f 820 852 853
f 885 853 852
f 852 884 885
f 917 885 884
f 884 916 917
f 949 917 916
f 916 948 949
f 981 949 948
f 948 980 981
f 1013 981 980
f 980 1012 1013
f 1045 1013 1012
f 1012 1044 1045
f 1077 1045 1044
f 1044 1076 1077
f 1109 1077 1076
f 1076 1108 1109
f 1141 1109 1108
f 1108 1140 1141
f 1173 1141 1140
f 1140 1172 1173
f 1205 1173 1172
f 1172 1204 1205
f 1237 1205 1204
f 1204 1236 1237
f 1269 1237 1236
f 1236 1268 1269
f 1301 1269 1268
f 1268 1300 1301
f 1333 1301 1300
f 1300 1332 1333
f 1365 1333 1332
f 1332 1364 1365
f 1397 1365 1364
f 1364 1396 1397
f 1429 1397 1396
f 1396 1428 1429
f 1461 1429 1428
f 1428 1460 1461
f 1493 1461 1460
f 1460 1492 1493
f 1525 1493 1492
f 1492 1524 1525
f 1557 1525 1524
f 1524 1556 1557
f 1589 1557 1556
f 1556 1588 1589
f 1621 1589 1588
f 1588 1620 1621
f 1653 1621 1620
f 1620 1652 1653
f 1685 1653 1652
f 1652 1684 1685
f 1717 1685 1684
f 1684 1716 1717
f 1749 1717 1716
f 1716 1748 1749
f 1781 1749 1748
f 1748 1780 1781
f 1813 1781 1780
f 1780 1812 1813
f 854 822 821
f 821 853 854
f 886 854 853
f 853 885 886
f 918 886 885
f 885 917 918
f 950 918 917
f 917 949 950
f 982 950 949
f 949 981 982
f 1014 982 981
f 981 1013 1014
f 1046 1014 1013
f 1013 1045 1046
f 1078 1046 1045
f 1045 1077 1078
f 1110 1078 1077
f 1077 1109 1110
f 1142 1110 1109
f 1109 1141 1142
f 1174 1142 1141
f 1141 1173 1174
f 1206 1174 1173
f 1173 1205 1206
f 1238 1206 1205
f 1205 1237 1238
f 1270 1238 1237
f 1237 1269 1270
f 1302 1270 1269
f 1269 1301 1302
f 1334 1302 1301
f 1301 1333 1334
f 1366 1334 1333
f 1333 1365 1366
f 1398 1366 1365
f 1365 1397 1398
f 1430 1398 1397
f 1397 1429 1430
f 1462 1430 1429
f 1429 1461 1462
f 1494 1462 1461
f 1461 1493 1494
f 1526 1494 1493
f 1493 1525 1526
f 1558 1526 1525
f 1525 1557 1558
f 1590 1558 1557
f 1557 1589 1590
f 1622 1590 1589
f 1589 1621 1622
f 1654 1622 1621
f 1621 1653 1654
f 1686 1654 1653
f 1653 1685 1686
f 1718 1686 1685
f 1685 1717 1718
f 1750 1718 1717
f 1717 1749 1750
f 1782 1750 1749
f 1749 1781 1782
f 1814 1782 1781
f 1781 1813 1814
f 855 823 822
f 822 854 855
f 887 855 854
f 854 886 887
f 919 887 886
f 886 918 919
f 951 919 918
f 918 950 951
f 983 951 950
f 950 982 983
f 1015 983 982
f 982 1014 1015
f 1047 1015 1014
f 1014 1046 1047
f 1079 1047 1046
f 1046 1078 1079
f 1111 1079 1078
f 1078 1110 1111
f 1143 1111 1110
f 1110 1142 1143
f 1175 1143 1142
f 1142 1174 1175
f 1207 1175 1174
f 1174 1206 1207
f 1239 1207 1206
f 1206 1238 1239
f 1271 1239 1238
f 1238 1270 1271
f 1303 1271 1270
f 1270 1302 1303
f 1335 1303 1302
f 1302 1334 1335
f 1367 1335 1334
f 1334 1366 1367
f 1399 1367 1366
f 1366 1398 1399
f 1431 1399 1398
f 1398 1430 1431
f 1463 1431 1430
f 1430 1462 1463
f 1495 1463 1462
f 1462 1494 1495
f 1527 1495 1494
f 1494 1526 1527
f 1559 1527 1526
f 1526 1558 1559
f 1591 1559 1558
f 1558 1590 1591
f 1623 1591 1590
f 1590 1622 1623
f 1655 1623 1622
f 1622 1654 1655
f 1687 1655 1654
f 1654 1686 1687
f 1719 1687 1686
f 1686 1718 1719
f 1751 1719 1718
f 1718 1750 1751
f 1783 1751 1750
f 1750 1782 1783
f 1815 1783 1782
f 1782 1814 1815
f 856 824 823
f 823 855 856
f 888 856 855
f 855 887 888
f 920 888 887
f 887 919 920
f 952 920 919
f 919 951 952
f 984 952 951
f 951 983 984
f 1016 984 983
f 983 1015 1016
f 1048 1016 1015
f 1015 1047 1048
f 1080 1048 1047
f 1047 1079 1080
f 1112 1080 1079
f 1079 1111 1112
f 1144 1112 1111
f 1111 1143 1144
f 1176 1144 1143
f 1143 1175 1176
f 1208 1176 1175
f 1175 1207 1208
f 1240 1208 1207
f 1207 1239 1240
f 1272 1240 1239
f 1239 1271 1272
f 1304 1272 1271
f 1271 1303 1304
f 1336 1304 1303
f 1303 1335 1336
f 1368 1336 1335
f 1335 1367 1368
f 1400 1368 1367
f 1367 1399 1400
f 1432 1400 1399
f 1399 1431 1432
f 1464 1432 1431
f 1431 1463 1464
f 1496 1464 1463
f 1463 1495 1496
f 1528 1496 1495
f 1495 1527 1528
f 1560 1528 1527
f 1527 1559 1560
f 1592 1560 1559
f 1559 1591 1592
f 1624 1592 1591
f 1591 1623 1624
f 1656 1624 1623
f 1623 1655 1656
f 1688 1656 1655
f 1655 1687 1688
f 1720 1688 1687
f 1687 1719 1720
f 1752 1720 1719
f 1719 1751 1752
f 1784 1752 1751
f 1751 1783 1784
f 1816 1784 1783
f 1783 1815 1816
f 857 825 824
f 824 856 857
f 889 857 856
f 856 888 889
f 921 889 888
f 888 920 921
f 953 921 920
f 920 952 953
f 985 953 952
f 952 984 985
f 1017 985 984
f 984 1016 1017
f 1049 1017 1016
f 1016 1048 1049
f 1081 1049 1048
f 1048 1080 1081
f 1113 1081 1080
f 1080 1112 1113
f 1145 1113 1112
f 1112 1144 1145
f 1177 1145 1144
f 1144 1176 1177
f 1209 1177 1176
f 1176 1208 1209
f 1241 1209 1208
f 1208 1240 1241
f 1273 1241 1240
f 1240 1272 1273
f 1305 1273 1272
f 1272 1304 1305
f 1337 1305 1304
f 1304 1336 1337
f 1369 1337 1336
f 1336 1368 1369
f 1401 1369 1368
f 1368 1400 1401
f 1433 1401 1400
f 1400 1432 1433
f 1465 1433 1432
f 1432 1464 1465
f 1497 1465 1464
f 1464 1496 1497
f 1529 1497 1496
f 1496 1528 1529
f 1561 1529 1528
f 1528 1560 1561
f 1593 1561 1560
f 1560 1592 1593
f 1625 1593 1592
f 1592 1624 1625
f 1657 1625 1624
f 1624 1656 1657
f 1689 1657 1656
f 1656 1688 1689
f 1721 1689 1688
f 1688 1720 1721
f 1753 1721 1720
f 1720 1752 1753
f 1785 1753 1752
f 1752 1784 1785
f 1817 1785 1784
f 1784 1816 1817
f 858 826 825
f 825 857 858
f 890 858 857
f 857 889 890
f 922 890 889
f 889 921 922
f 954 922 921
f 921 953 954
f 986 954 953
f 953 985 986
f 1018 986 985
f 985 1017 1018
f 1050 1018 1017
f 1017 1049 1050
f 1082 1050 1049
f 1049 1081 1082
f 1114 1082 1081
f 1081 1113 1114
f 1146 1114 1113
f 1113 1145 1146
f 1178 1146 1145
f 1145 1177 1178
f 1210 1178 1177
f 1177 1209 1210
f 1242 1210 1209
f 1209 1241 1242
f 1274 1242 1241
f 1241 1273 1274
f 1306 1274 1273
f 1273 1305 1306
f 1338 1306 1305
f 1305 1337 1338
f 1370 1338 1337
f 1337 1369 1370
f 1402 1370 1369
f 1369 1401 1402
f 1434 1402 1401
f 1401 1433 1434
f 1466 1434 1433
f 1433 1465 1466
f 1498 1466 1465
f 1465 1497 1498
f 1530 1498 1497
f 1497 1529 1530
f 1562 1530 1529
f 1529 1561 1562
f 1594 1562 1561
f 1561 1593 1594
f 1626 1594 1593
f 1593 1625 1626
f 1658 1626 1625
f 1625 1657 1658
f 1690 1658 1657
f 1657 1689 1690
f 1722 1690 1689
f 1689 1721 1722
f 1754 1722 1721
f 1721 1753 1754
f 1786 1754 1753
f 1753 1785 1786
f 1818 1786 1785
f 1785 1817 1818
f 859 827 826
f 826 858 859
f 891 859 858
f 858 890 891
f 923 891 890
f 890 922 923
f 955 923 922
f 922 954 955
f 987 955 954
f 954 986 987
f 1019 987 986
f 986 1018 1019
f 1051 1019 1018
f 1018 1050 1051
f 1083 1051 1050
f 1050 1082 1083
f 1115 1083 1082
f 1082 1114 1115
f 1147 1115 1114
f 1114 1146 1147
f 1179 1147 1146
f 1146 1178 1179
f 1211 1179 1178
f 1178 1210 1211
f 1243 1211 1210
f 1210 1242 1243
f 1275 1243 1242
f 1242 1274 1275
f 1307 1275 1274
f 1274 1306 1307
f 1339 1307 1306
f 1306 1338 1339
f 1371 1339 1338
f 1338 1370 1371
f 1403 1371 1370
f 1370 1402 1403
f 1435 1403 1402
f 1402 1434 1435
f 1467 1435 1434
f 1434 1466 1467
f 1499 1467 1466
f 1466 1498 1499
f 1531 1499 1498
f 1498 1530 1531
f 1563 1531 1530
f 1530 1562 1563
f 1595 1563 1562
f 1562 1594 1595
f 1627 1595 1594
f 1594 1626 1627
f 1659 1627 1626
f 1626 1658 1659
f 1691 1659 1658
f 1658 1690 1691
f 1723 1691 1690
f 1690 1722 1723
f 1755 1723 1722
f 1722 1754 1755
f 1787 1755 1754
f 1754 1786 1787
f 1819 1787 1786
f 1786 1818 1819
f 860 828 827
f 827 859 860
f 892 860 859
f 859 891 892
f 924 892 891
f 891 923 924
f 956 924 923
f 923 955 956
f 988 956 955
f 955 987 988
f 1020 988 987
f 987 1019 1020
f 1052 1020 1019
f 1019 1051 1052
f 1084 1052 1051
f 1051 1083 1084
f 1116 1084 1083
f 1083 1115 1116
f 1148 1116 1115
f 1115 1147 1148
f 1180 1148 1147
f 1147 1179 1180
f 1212 1180 1179
f 1179 1211 1212
f 1244 1212 1211
f 1211 1243 1244
f 1276 1244 1243
f 1243 1275 1276
f 1308 1276 1275
f 1275 1307 1308
f 1340 1308 1307
f 1307 1339 1340
f 1372 1340 1339
f 1339 1371 1372
f 1404 1372 1371
f 1371 1403 1404
f 1436 1404 1403
f 1403 1435 1436
f 1468 1436 1435
f 1435 1467 1468
f 1500 1468 1467
f 1467 1499 1500
f 1532 1500 1499
f 1499 1531 1532
f 1564 1532 1531
f 1531 1563 1564
f 1596 1564 1563
f 1563 1595 1596
f 1628 1596 1595
f 1595 1627 1628
f 1660 1628 1627
f 1627 1659 1660
f 1692 1660 1659
f 1659 1691 1692
f 1724 1692 1691
f 1691 1723 1724
f 1756 1724 1723
f 1723 1755 1756
f 1788 1756 1755
f 1755 1787 1788
f 1820 1788 1787
f 1787 1819 1820
f 861 829 828
f 828 860 861
f 893 861 860
f 860 892 893
f 925 893 892
f 892 924 925
f 957 925 924
f 924 956 957
f 989 957 956
f 956 988 989
f 1021 989 988
f 988 1020 1021
f 1053 1021 1020
f 1020 1052 1053
f 1085 1053 1052
f 1052 1084 1085
f 1117 1085 1084
f 1084 1116 1117
f 1149 1117 1116
f 1116 1148 1149
f 1181 1149 1148
f 1148 1180 1181
f 1213 1181 1180
f 1180 1212 1213
f 1245 1213 1212
f 1212 1244 1245
f 1277 1245 1244
f 1244 1276 1277
f 1309 1277 1276
f 1276 1308 1309
f 1341 1309 1308
f 1308 1340 1341
f 1373 1341 1340
f 1340 1372 1373
f 1405 1373 1372
f 1372 1404 1405
f 1437 1405 1404
f 1404 1436 1437
f 1469 1437 1436
f 1436 1468 1469
f 1501 1469 1468
f 1468 1500 1501
f 1533 1501 1500
f 1500 1532 1533
f 1565 1533 1532
f 1532 1564 1565
f 1597 1565 1564
f 1564 1596 1597
f 1629 1597 1596
f 1596 1628 1629
f 1661 1629 1628
f 1628 1660 1661
f 1693 1661 1660
f 1660 1692 1693
f 1725 1693 1692
f 1692 1724 1725
f 1757 1725 1724
f 1724 1756 1757
f 1789 1757 1756
f 1756 1788 1789
f 1821 1789 1788
f 1788 1820 1821
f 862 830 829
f 829 861 862
f 894 862 861
f 861 893 894
f 926 894 893
f 893 925 926
f 958 926 925
f 925 957 958
f 990 958 957
f 957 989 990
f 1022 990 989
f 989 1021 1022
f 1054 1022 1021
f 1021 1053 1054
f 1086 1054 1053
f 1053 1085 1086
f 1118 1086 1085
f 1085 1117 1118
f 1150 1118 1117
f 1117 1149 1150
f 1182 1150 1149
f 1149 1181 1182
f 1214 1182 1181
f 1181 1213 1214
f 1246 1214 1213
f 1213 1245 1246
f 1278 1246 1245
f 1245 1277 1278
f 1310 1278 1277
f 1277 1309 1310
f 1342 1310 1309
f 1309 1341 1342
f 1374 1342 1341
f 1341 1373 1374
f 1406 1374 1373
f 1373 1405 1406
f 1438 1406 1405
f 1405 1437 1438
f 1470 1438 1437
f 1437 1469 1470
f 1502 1470 1469
f 1469 1501 1502
f 1534 1502 1501
f 1501 1533 1534
f 1566 1534 1533
f 1533 1565 1566
f 1598 1566 1565
f 1565 1597 1598
f 1630 1598 1597
f 1597 1629 1630
f 1662 1630 1629
f 1629 1661 1662
f 1694 1662 1661
f 1661 1693 1694
f 1726 1694 1693
f 1693 1725 1726
f 1758 1726 1725
f 1725 1757 1758
f 1790 1758 1757
f 1757 1789 1790
f 1822 1790 1789
f 1789 1821 1822
f 863 831 830
f 830 862 863
f 895 863 862
f 862 894 895
f 927 895 894
f 894 926 927
f 959 927 926
f 926 958 959
f 991 959 958
f 958 990 991
f 1023 991 990
f 990 1022 1023
f 1055 1023 1022
f 1022 1054 1055
f 1087 1055 1054
f 1054 1086 1087
f 1119 1087 1086
f 1086 1118 1119
f 1151 1119 1118
f 1118 1150 1151
f 1183 1151 1150
f 1150 1182 1183
f 1215 1183 1182
f 1182 1214 1215
f 1247 1215 1214
f 1214 1246 1247
f 1279 1247 1246
f 1246 1278 1279
f 1311 1279 1278
f 1278 1310 1311
f 1343 1311 1310
f 1310 1342 1343
f 1375 1343 1342
f 1342 1374 1375
f 1407 1375 1374
f 1374 1406 1407
f 1439 1407 1406
f 1406 1438 1439
f 1471 1439 1438
f 1438 1470 1471
f 1503 1471 1470
f 1470 1502 1503
f 1535 1503 1502
f 1502 1534 1535
f 1567 1535 1534
f 1534 1566 1567
f 1599 1567 1566
f 1566 1598 1599
f 1631 1599 1598
f 1598 1630 1631
f 1663 1631 1630
f 1630 1662 1663
f 1695 1663 1662
f 1662 1694 1695
f 1727 1695 1694
f 1694 1726 1727
f 1759 1727 1726
f 1726 1758 1759
f 1791 1759 1758
f 1758 1790 1791
f 1823 1791 1790
f 1790 1822 1823
f 864 832 831
f 831 863 864
f 896 864 863
f 863 895 896
f 928 896 895
f 895 927 928
f 960 928 927
f 927 959 960
f 992 960 959
f 959 991 992
f 1024 992 991
f 991 1023 1024
f 1056 1024 1023
f 1023 1055 1056
f 1088 1056 1055
f 1055 1087 1088
f 1120 1088 1087
f 1087 1119 1120
f 1152 1120 1119
f 1119 1151 1152
f 1184 1152 1151
f 1151 1183 1184
f 1216 1184 1183
f 1183 1215 1216
f 1248 1216 1215
f 1215 1247 1248
f 1280 1248 1247
f 1247 1279 1280
f 1312 1280 1279
f 1279 1311 1312
f 1344 1312 1311
f 1311 1343 1344
f 1376 1344 1343
f 1343 1375 1376
f 1408 1376 1375
f 1375 1407 1408
f 1440 1408 1407
f 1407 1439 1440
f 1472 1440 1439
f 1439 1471 1472
f 1504 1472 1471
f 1471 1503 1504
f 1536 1504 1503
f 1503 1535 1536
f 1568 1536 1535
f 1535 1567 1568
f 1600 1568 1567
f 1567 1599 1600
f 1632 1600 1599
f 1599 1631 1632
f 1664 1632 1631
f 1631 1663 1664
f 1696 1664 1663
f 1663 1695 1696
f 1728 1696 1695
f 1695 1727 1728
f 1760 1728 1727
f 1727 1759 1760
f 1792 1760 1759
f 1759 1791 1792
f 1824 1792 1791
f 1791 1823 1824
f 865 833 832
f 832 864 865
f 897 865 864
f 864 896 897
f 929 897 896
f 896 928 929
f 961 929 928
f 928 960 961
f 993 961 960
f 960 992 993
f 1025 993 992
f 992 1024 1025
f 1057 1025 1024
f 1024 1056 1057
f 1089 1057 1056
f 1056 1088 1089
f 1121 1089 1088
f 1088 1120 1121
f 1153 1121 1120
f 1120 1152 1153
f 1185 1153 1152
f 1152 1184 1185
f 1217 1185 1184
f 1184 1216 1217
f 1249 1217 1216
f 1216 1248 1249
f 1281 1249 1248
f 1248 1280 1281
f 1313 1281 1280
f 1280 1312 1313
f 1345 1313 1312
f 1312 1344 1345
f 1377 1345 1344
f 1344 1376 1377
f 1409 1377 1376
f 1376 1408 1409
f 1441 1409 1408
f 1408 1440 1441
f 1473 1441 1440
f 1440 1472 1473
f 1505 1473 1472
f 1472 1504 1505
f 1537 1505 1504
f 1504 1536 1537
f 1569 1537 1536
f 1536 1568 1569
f 1601 1569 1568
f 1568 1600 1601
f 1633 1601 1600
f 1600 1632 1633
f 1665 1633 1632
f 1632 1664 1665
f 1697 1665 1664
f 1664 1696 1697
f 1729 1697 1696
f 1696 1728 1729
f 1761 1729 1728
f 1728 1760 1761
f 1793 1761 1760
f 1760 1792 1793
f 1825 1793 1792
f 1792 1824 1825
f 866 834 833
f 833 865 866
f 898 866 865
f 865 897 898
f 930 898 897
f 897 929 930
f 962 930 929
f 929 961 962
f 994 962 961
f 961 993 994
f 1026 994 993
f 993 1025 1026
f 1058 1026 1025
f 1025 1057 1058
f 1090 1058 1057
f 1057 1089 1090
f 1122 1090 1089
f 1089 1121 1122
f 1154 1122 1121
f 1121 1153 1154
f 1186 1154 1153
f 1153 1185 1186
f 1218 1186 1185
f 1185 1217 1218
f 1250 1218 1217
f 1217 1249 1250
f 1282 1250 1249
f 1249 1281 1282
f 1314 1282 1281
f 1281 1313 1314
f 1346 1314 1313
f 1313 1345 1346
f 1378 1346 1345
f 1345 1377 1378
f 1410 1378 1377
f 1377 1409 1410
f 1442 1410 1409
f 1409 1441 1442
f 1474 1442 1441
f 1441 1473 1474
f 1506 1474 1473
f 1473 1505 1506
f 1538 1506 1505
f 1505 1537 1538
f 1570 1538 1537
f 1537 1569 1570
f 1602 1570 1569
f 1569 1601 1602
f 1634 1602 1601
f 1601 1633 1634
f 1666 1634 1633
f 1633 1665 1666
f 1698 1666 1665
f 1665 1697 1698
f 1730 1698 1697
f 1697 1729 1730
f 1762 1730 1729
f 1729 1761 1762
f 1794 1762 1761
f 1761 1793 1794
f 1826 1794 1793
f 1793 1825 1826
f 867 835 834
f 834 866 867
f 899 867 866
f 866 898 899
f 931 899 898
f 898 930 931
f 963 931 930
f 930 962 963
f 995 963 962
f 962 994 995
f 1027 995 994
f 994 1026 1027
f 1059 1027 1026
f 1026 1058 1059
f 1091 1059 1058
f 1058 1090 1091
f 1123 1091 1090
f 1090 1122 1123
f 1155 1123 1122
f 1122 1154 1155
f 1187 1155 1154
f 1154 1186 1187
f 1219 1187 1186
f 1186 1218 1219
f 1251 1219 1218
f 1218 1250 1251
f 1283 1251 1250
f 1250 1282 1283
f 1315 1283 1282
f 1282 1314 1315
f 1347 1315 1314
f 1314 1346 1347
f 1379 1347 1346
f 1346 1378 1379
f 1411 1379 1378
f 1378 1410 1411
f 1443 1411 1410
f 1410 1442 1443
f 1475 1443 1442
f 1442 1474 1475
f 1507 1475 1474
f 1474 1506 1507
f 1539 1507 1506
f 1506 1538 1539
f 1571 1539 1538
f 1538 1570 1571
f 1603 1571 1570
f 1570 1602 1603
f 1635 1603 1602
f 1602 1634 1635
f 1667 1635 1634
f 1634 1666 1667
f 1699 1667 1666
f 1666 1698 1699
f 1731 1699 1698
f 1698 1730 1731
f 1763 1731 1730
f 1730 1762 1763
f 1795 1763 1762
f 1762 1794 1795
f 1827 1795 1794
f 1794 1826 1827
f 868 836 835
f 835 867 868
f 900 868 867
f 867 899 900
f 932 900 899
f 899 931 932
f 964 932 931
f 931 963 964
f 996 964 963
f 963 995 996
f 1028 996 995
f 995 1027 1028
f 1060 1028 1027
f 1027 1059 1060
f 1092 1060 1059
f 1059 1091 1092
f 1124 1092 1091
f 1091 1123 1124
f 1156 1124 1123
f 1123 1155 1156
f 1188 1156 1155
f 1155 1187 1188
f 1220 1188 1187
f 1187 1219 1220
f 1252 1220 1219
f 1219 1251 1252
f 1284 1252 1251
f 1251 1283 1284
f 1316 1284 1283
f 1283 1315 1316
f 1348 1316 1315
f 1315 1347 1348
f 1380 1348 1347
f 1347 1379 1380
f 1412 1380 1379
f 1379 1411 1412
f 1444 1412 1411
f 1411 1443 1444
f 1476 1444 1443
f 1443 1475 1476
f 1508 1476 1475
f 1475 1507 1508
f 1540 1508 1507
f 1507 1539 1540
f 1572 1540 1539
f 1539 1571 1572
f 1604 1572 1571
f 1571 1603 1604
f 1636 1604 1603
f 1603 1635 1636
f 1668 1636 1635
f 1635 1667 1668
f 1700 1668 1667
f 1667 1699 1700
f 1732 1700 1699
f 1699 1731 1732
f 1764 1732 1731
f 1731 1763 1764
f 1796 1764 1763
f 1763 1795 1796
f 1828 1796 1795
f 1795 1827 1828
f 869 837 836
f 836 868 869
f 901 869 868
f 868 900 901
f 933 901 900
f 900 932 933
f 965 933 932
f 932 964 965
f 997 965 964
f 964 996 997
f 1029 997 996
f 996 1028 1029
f 1061 1029 1028
f 1028 1060 1061
f 1093 1061 1060
f 1060 1092 1093
f 1125 1093 1092
f 1092 1124 1125
f 1157 1125 1124
f 1124 1156 1157
f 1189 1157 1156
f 1156 1188 1189
f 1221 1189 1188
f 1188 1220 1221
f 1253 1221 1220
f 1220 1252 1253
f 1285 1253 1252
f 1252 1284 1285
f 1317 1285 1284
f 1284 1316 1317
f 1349 1317 1316
f 1316 1348 1349
f 1381 1349 1348
f 1348 1380 1381
f 1413 1381 1380
f 1380 1412 1413
f 1445 1413 1412
f 1412 1444 1445
f 1477 1445 1444
f 1444 1476 1477
f 1509 1477 1476
f 1476 1508 1509
f 1541 1509 1508
f 1508 1540 1541
f 1573 1541 1540
f 1540 1572 1573
f 1605 1573 1572
f 1572 1604 1605
f 1637 1605 1604
f 1604 1636 1637
f 1669 1637 1636
f 1636 1668 1669
f 1701 1669 1668
f 1668 1700 1701
f 1733 1701 1700
f 1700 1732 1733
f 1765 1733 1732
f 1732 1764 1765
f 1797 1765 1764
f 1764 1796 1797
f 1829 1797 1796
f 1796 1828 1829
f 870 838 837
f 837 869 870
f 902 870 869
f 869 901 902
f 934 902 901
f 901 933 934
f 966 934 933
f 933 965 966
f 998 966 965
f 965 997 998
f 1030 998 997
f 997 1029 1030
f 1062 1030 1029
f 1029 1061 1062
f 1094 1062 1061
f 1061 1093 1094
f 1126 1094 1093
f 1093 1125 1126
f 1158 1126 1125
f 1125 1157 1158
f 1190 1158 1157
f 1157 1189 1190
f 1222 1190 1189
f 1189 1221 1222
f 1254 1222 1221
f 1221 1253 1254
f 1286 1254 1253
f 1253 1285 1286
f 1318 1286 1285
f 1285 1317 1318
f 1350 1318 1317
f 1317 1349 1350
f 1382 1350 1349
f 1349 1381 1382
f 1414 1382 1381
f 1381 1413 1414
f 1446 1414 1413
f 1413 1445 1446
f 1478 1446 1445
f 1445 1477 1478
f 1510 1478 1477
f 1477 1509 1510
f 1542 1510 1509
f 1509 1541 1542
f 1574 1542 1541
f 1541 1573 1574
f 1606 1574 1573
f 1573 1605 1606
f 1638 1606 1605
f 1605 1637 1638
f 1670 1638 1637
f 1637 1669 1670
f 1702 1670 1669
f 1669 1701 1702
f 1734 1702 1701
f 1701 1733 1734
f 1766 1734 1733
f 1733 1765 1766
f 1798 1766 1765
f 1765 1797 1798
f 1830 1798 1797
f 1797 1829 1830
f 871 839 838
f 838 870 871
f 903 871 870
f 870 902 903
f 935 903 902
f 902 934 935
f 967 935 934
f 934 966 967
f 999 967 966
f 966 998 999
f 1031 999 998
f 998 1030 1031
f 1063 1031 1030
f 1030 1062 1063
f 1095 1063 1062
f 1062 1094 1095
f 1127 1095 1094
f 1094 1126 1127
f 1159 1127 1126
f 1126 1158 1159
f 1191 1159 1158
f 1158 1190 1191
f 1223 1191 1190
f 1190 1222 1223
f 1255 1223 1222
f 1222 1254 1255
f 1287 1255 1254
f 1254 1286 1287
f 1319 1287 1286
f 1286 1318 1319
f 1351 1319 1318
f 1318 1350 1351
f 1383 1351 1350
f 1350 1382 1383
f 1415 1383 1382
f 1382 1414 1415
f 1447 1415 1414
f 1414 1446 1447
f 1479 1447 1446
f 1446 1478 1479
f 1511 1479 1478
f 1478 1510 1511
f 1543 1511 1510
f 1510 1542 1543
f 1575 1543 1542
f 1542 1574 1575
f 1607 1575 1574
f 1574 1606 1607
f 1639 1607 1606
f 1606 1638 1639
f 1671 1639 1638
f 1638 1670 1671
f 1703 1671 1670
f 1670 1702 1703
f 1735 1703 1702
f 1702 1734 1735
f 1767 1735 1734
f 1734 1766 1767
f 1799 1767 1766
f 1766 1798 1799
f 1831 1799 1798
f 1798 1830 1831
f 872 840 839
f 839 871 872
f 904 872 871
f 871 903 904
f 936 904 903
f 903 935 936
f 968 936 935
f 935 967 968
f 1000 968 967
f 967 999 1000
f 1032 1000 999
f 999 1031 1032
f 1064 1032 1031
f 1031 1063 1064
f 1096 1064 1063
f 1063 1095 1096
f 1128 1096 1095
f 1095 1127 1128
f 1160 1128 1127
f 1127 1159 1160
f 1192 1160 1159
f 1159 1191 1192
f 1224 1192 1191
f 1191 1223 1224
f 1256 1224 1223
f 1223 1255 1256
f 1288 1256 1255
f 1255 1287 1288
f 1320 1288 1287
f 1287 1319 1320
f 1352 1320 1319
f 1319 1351 1352
f 1384 1352 1351
f 1351 1383 1384
f 1416 1384 1383
f 1383 1415 1416
f 1448 1416 1415
f 1415 1447 1448
f 1480 1448 1447
f 1447 1479 1480
f 1512 1480 1479
f 1479 1511 1512
f 1544 1512 1511
f 1511 1543 1544
f 1576 1544 1543
f 1543 1575 1576
f 1608 1576 1575
f 1575 1607 1608
f 1640 1608 1607
f 1607 1639 1640
f 1672 1640 1639
f 1639 1671 1672
f 1704 1672 1671
f 1671 1703 1704
f 1736 1704 1703
f 1703 1735 1736
f 1768 1736 1735
f 1735 1767 1768
f 1800 1768 1767
f 1767 1799 1800
f 1832 1800 1799
f 1799 1831 1832
f 873 841 840
f 840 872 873
f 905 873 872
f 872 904 905
f 937 905 904
f 904 936 937
f 969 937 936
f 936 968 969
f 1001 969 968
f 968 1000 1001
f 1033 1001 1000
f 1000 1032 1033
f 1065 1033 1032
f 1032 1064 1065
f 1097 1065 1064
f 1064 1096 1097
f 1129 1097 1096
f 1096 1128 1129
f 1161 1129 1128
f 1128 1160 1161
f 1193 1161 1160
f 1160 1192 1193
f 1225 1193 1192
f 1192 1224 1225
f 1257 1225 1224
f 1224 1256 1257
f 1289 1257 1256
f 1256 1288 1289
f 1321 1289 1288
f 1288 1320 1321
f 1353 1321 1320
f 1320 1352 1353
f 1385 1353 1352
f 1352 1384 1385
f 1417 1385 1384
f 1384 1416 1417
f 1449 1417 1416
f 1416 1448 1449
f 1481 1449 1448
f 1448 1480 1481
f 1513 1481 1480
f 1480 1512 1513
f 1545 1513 1512
f 1512 1544 1545
f 1577 1545 1544
f 1544 1576 1577
f 1609 1577 1576
f 1576 1608 1609
f 1641 1609 1608
f 1608 1640 1641
f 1673 1641 1640
f 1640 1672 1673
f 1705 1673 1672
f 1672 1704 1705
f 1737 1705 1704
f 1704 1736 1737
f 1769 1737 1736
f 1736 1768 1769
f 1801 1769 1768
f 1768 1800 1801
f 1833 1801 1800
f 1800 1832 1833
f 874 842 841
f 841 873 874
f 906 874 873
f 873 905 906
f 938 906 905
f 905 937 938
f 970 938 937
f 937 969 970
f 1002 970 969
f 969 1001 1002
f 1034 1002 1001
f 1001 1033 1034
f 1066 1034 1033
f 1033 1065 1066
f 1098 1066 1065
f 1065 1097 1098
f 1130 1098 1097
f 1097 1129 1130
f 1162 1130 1129
f 1129 1161 1162
f 1194 1162 1161
f 1161 1193 1194
f 1226 1194 1193
f 1193 1225 1226
f 1258 1226 1225
f 1225 1257 1258
f 1290 1258 1257
f 1257 1289 1290
f 1322 1290 1289
f 1289 1321 1322
f 1354 1322 1321
f 1321 1353 1354
f 1386 1354 1353
f 1353 1385 1386
f 1418 1386 1385
f 1385 1417 1418
f 1450 1418 1417
f 1417 1449 1450
f 1482 1450 1449
f 1449 1481 1482
f 1514 1482 1481
f 1481 1513 1514
f 1546 1514 1513
f 1513 1545 1546
f 1578 1546 1545
f 1545 1577 1578
f 1610 1578 1577
f 1577 1609 1610
f 1642 1610 1609
f 1609 1641 1642
f 1674 1642 1641
f 1641 1673 1674
f 1706 1674 1673
f 1673 1705 1706
f 1738 1706 1705
f 1705 1737 1738
f 1770 1738 1737
f 1737 1769 1770
f 1802 1770 1769
f 1769 1801 1802
f 1834 1802 1801
f 1801 1833 1834
f 875 843 842
f 842 874 875
f 907 875 874
f 874 906 907
f 939 907 906
f 906 938 939
f 971 939 938
f 938 970 971
f 1003 971 970
f 970 1002 1003
f 1035 1003 1002
f 1002 1034 1035
f 1067 1035 1034
f 1034 1066 1067
f 1099 1067 1066
f 1066 1098 1099
f 1131 1099 1098
f 1098 1130 1131
f 1163 1131 1130
f 1130 1162 1163
f 1195 1163 1162
f 1162 1194 1195
f 1227 1195 1194
f 1194 1226 1227
f 1259 1227 1226
f 1226 1258 1259
f 1291 1259 1258
f 1258 1290 1291
f 1323 1291 1290
f 1290 1322 1323
f 1355 1323 1322
f 1322 1354 1355
f 1387 1355 1354
f 1354 1386 1387
f 1419 1387 1386
f 1386 1418 1419
f 1451 1419 1418
f 1418 1450 1451
f 1483 1451 1450
f 1450 1482 1483
f 1515 1483 1482
f 1482 1514 1515
f 1547 1515 1514
f 1514 1546 1547
f 1579 1547 1546
f 1546 1578 1579
f 1611 1579 1578
f 1578 1610 1611
f 1643 1611 1610
f 1610 1642 1643
f 1675 1643 1642
f 1642 1674 1675
f 1707 1675 1674
f 1674 1706 1707
f 1739 1707 1706
f 1706 1738 1739
f 1771 1739 1738
f 1738 1770 1771
f 1803 1771 1770
f 1770 1802 1803
f 1835 1803 1802
f 1802 1834 1835
f 876 844 843
f 843 875 876
f 908 876 875
f 875 907 908
f 940 908 907
f 907 939 940
f 972 940 939
f 939 971 972
f 1004 972 971
f 971 1003 1004
f 1036 1004 1003
f 1003 1035 1036
f 1068 1036 1035
f 1035 1067 1068
f 1100 1068 1067
f 1067 1099 1100
f 1132 1100 1099
f 1099 1131 1132
f 1164 1132 1131
f 1131 1163 1164
f 1196 1164 1163
f 1163 1195 1196
f 1228 1196 1195
f 1195 1227 1228
f 1260 1228 1227
f 1227 1259 1260
f 1292 1260 1259
f 1259 1291 1292
f 1324 1292 1291
f 1291 1323 1324
f 1356 1324 1323
f 1323 1355 1356
f 1388 1356 1355
f 1355 1387 1388
f 1420 1388 1387
f 1387 1419 1420
f 1452 1420 1419
f 1419 1451 1452
f 1484 1452 1451
f 1451 1483 1484
f 1516 1484 1483
f 1483 1515 1516
f 1548 1516 1515
f 1515 1547 1548
f 1580 1548 1547
f 1547 1579 1580
f 1612 1580 1579
f 1579 1611 1612
f 1644 1612 1611
f 1611 1643 1644
f 1676 1644 1643
f 1643 1675 1676
f 1708 1676 1675
f 1675 1707 1708
f 1740 1708 1707
f 1707 1739 1740
f 1772 1740 1739
f 1739 1771 1772
f 1804 1772 1771
f 1771 1803 1804
f 1836 1804 1803
f 1803 1835 1836
f 877 845 844
f 844 876 877
f 909 877 876
f 876 908 909
f 941 909 908
f 908 940 941
f 973 941 940
f 940 972 973
f 1005 973 972
f 972 1004 1005
f 1037 1005 1004
f 1004 1036 1037
f 1069 1037 1036
f 1036 1068 1069
f 1101 1069 1068
f 1068 1100 1101
f 1133 1101 1100
f 1100 1132 1133
f 1165 1133 1132
f 1132 1164 1165
f 1197 1165 1164
f 1164 1196 1197
f 1229 1197 1196
f 1196 1228 1229
f 1261 1229 1228
f 1228 1260 1261
f 1293 1261 1260
f 1260 1292 1293
f 1325 1293 1292
f 1292 1324 1325
f 1357 1325 1324
f 1324 1356 1357
f 1389 1357 1356
f 1356 1388 1389
f 1421 1389 1388
f 1388 1420 1421
f 1453 1421 1420
f 1420 1452 1453
f 1485 1453 1452
f 1452 1484 1485
f 1517 1485 1484
f 1484 1516 1517
f 1549 1517 1516
f 1516 1548 1549
f 1581 1549 1548
f 1548 1580 1581
f 1613 1581 1580
f 1580 1612 1613
f 1645 1613 1612
f 1612 1644 1645
f 1677 1645 1644
f 1644 1676 1677
f 1709 1677 1676
f 1676 1708 1709
f 1741 1709 1708
f 1708 1740 1741
f 1773 1741 1740
f 1740 1772 1773
f 1805 1773 1772
f 1772 1804 1805
f 1837 1805 1804
f 1804 1836 1837
f 878 846 845
f 845 877 878
f 910 878 877
f 877 909 910
f 942 910 909
f 909 941 942
f 974 942 941
f 941 973 974
f 1006 974 973
f 973 1005 1006
f 1038 1006 1005
f 1005 1037 1038
f 1070 1038 1037
f 1037 1069 1070
f 1102 1070 1069
f 1069 1101 1102
f 1134 1102 1101
f 1101 1133 1134
f 1166 1134 1133
f 1133 1165 1166
f 1198 1166 1165
f 1165 1197 1198
f 1230 1198 1197
f 1197 1229 1230
f 1262 1230 1229
f 1229 1261 1262
f 1294 1262 1261
f 1261 1293 1294
f 1326 1294 1293
f 1293 1325 1326
f 1358 1326 1325
f 1325 1357 1358
f 1390 1358 1357
f 1357 1389 1390
f 1422 1390 1389
f 1389 1421 1422
f 1454 1422 1421
f 1421 1453 1454
f 1486 1454 1453
f 1453 1485 1486
f 1518 1486 1485
f 1485 1517 1518
f 1550 1518 1517
f 1517 1549 1550
f 1582 1550 1549
f 1549 1581 1582
f 1614 1582 1581
f 1581 1613 1614
f 1646 1614 1613
f 1613 1645 1646
f 1678 1646 1645
f 1645 1677 1678
f 1710 1678 1677
f 1677 1709 1710
f 1742 1710 1709
f 1709 1741 1742
f 1774 1742 1741
f 1741 1773 1774
f 1806 1774 1773
f 1773 1805 1806
f 1838 1806 1805
f 1805 1837 1838
f 879 847 846
f 846 878 879
f 911 879 878
f 878 910 911
f 943 911 910
f 910 942 943
f 975 943 942
f 942 974 975
f 1007 975 974
f 974 1006 1007
f 1039 1007 1006
f 1006 1038 1039
f 1071 1039 1038
f 1038 1070 1071
f 1103 1071 1070
f 1070 1102 1103
f 1135 1103 1102
f 1102 1134 1135
f 1167 1135 1134
f 1134 1166 1167
f 1199 1167 1166
f 1166 1198 1199
f 1231 1199 1198
f 1198 1230 1231
f 1263 1231 1230
f 1230 1262 1263
f 1295 1263 1262
f 1262 1294 1295
f 1327 1295 1294
f 1294 1326 1327
f 1359 1327 1326
f 1326 1358 1359
f 1391 1359 1358
f 1358 1390 1391
f 1423 1391 1390
f 1390 1422 1423
f 1455 1423 1422
f 1422 1454 1455
f 1487 1455 1454
f 1454 1486 1487
f 1519 1487 1486
f 1486 1518 1519
f 1551 1519 1518
f 1518 1550 1551
f 1583 1551 1550
f 1550 1582 1583
f 1615 1583 1582
f 1582 1614 1615
f 1647 1615 1614
f 1614 1646 1647
f 1679 1647 1646
f 1646 1678 1679
f 1711 1679 1678
f 1678 1710 1711
f 1743 1711 1710
f 1710 1742 1743
f 1775 1743 1742
f 1742 1774 1775
f 1807 1775 1774
f 1774 1806 1807
f 1839 1807 1806
f 1806 1838 1839
