v -5729.93 23.6998 -2850.95
v -5730.71 23.7513 -2851.35
v -5730.76 23.6242 -2850.79
v -5729.93 23.6998 -2850.95
v -5730.03 23.6899 -2850.59
v -5730.44 24.2484 -2850.83
v -5730.78 23.9312 -2850.34
v -5730.78 24.3529 -2850.2
v -5730.71 24.3305 -2851.2
v -5729.81 23.7331 -2851.32
v -5730.71 23.7513 -2851.35
v -5731.54 23.7423 -2851.09
v -5731.5 23.7284 -2850.71
v -5731.03 24.2628 -2850.88
v -5731.6 23.7805 -2851.46
v -5731.54 23.7423 -2851.09
v -5731.6 23.7805 -2851.46
v -5730.8 24.871 -2851.5
v -5730.64 24.9597 -2850.85
v -5730.83 24.9648 -2850.87
v -5730.62 24.8662 -2851.49
v -5729.81 23.7331 -2851.32
v -5730.62 24.8662 -2851.49
v -5730.64 24.9597 -2850.85
v -5730.83 24.9648 -2850.87
v -5730.78 24.3529 -2850.2
v -5729.98 23.6998 -2849.78
v -5730.83 23.7513 -2849.97
v -5730.73 23.6242 -2849.42
v -5729.98 23.6998 -2849.78
v -5729.98 23.6899 -2849.41
v -5730.44 24.2484 -2849.53
v -5730.64 23.9312 -2848.97
v -5730.6 24.3529 -2848.84
v -5730.79 24.3305 -2849.82
v -5729.96 23.7331 -2850.16
v -5730.83 23.7513 -2849.97
v -5731.57 23.7423 -2849.5
v -5731.43 23.7284 -2849.15
v -5731.02 24.2628 -2849.43
v -5731.72 23.7805 -2849.85
v -5731.57 23.7423 -2849.5
v -5731.72 23.7805 -2849.85
v -5730.95 24.871 -2850.09
v -5730.64 24.9597 -2849.51
v -5730.82 24.9648 -2849.47
v -5730.78 24.8662 -2850.13
v -5729.96 23.7331 -2850.16
v -5730.78 24.8662 -2850.13
v -5730.64 24.9597 -2849.51
v -5730.82 24.9648 -2849.47
v -5730.6 24.3529 -2848.84
v -5730.03 23.6998 -2848.22
v -5730.83 23.7513 -2848.59
v -5730.84 23.6242 -2848.03
v -5730.03 23.6998 -2848.22
v -5730.11 23.6899 -2847.86
v -5730.53 24.2484 -2848.07
v -5730.85 23.9312 -2847.57
v -5730.84 24.3529 -2847.43
v -5730.81 24.3305 -2848.44
v -5729.93 23.7331 -2848.59
v -5730.83 23.7513 -2848.59
v -5731.64 23.7423 -2848.28
v -5731.58 23.7284 -2847.91
v -5731.12 24.2628 -2848.1
v -5731.72 23.7805 -2848.65
v -5731.64 23.7423 -2848.28
v -5731.72 23.7805 -2848.65
v -5730.92 24.871 -2848.73
v -5730.74 24.9597 -2848.09
v -5730.92 24.9648 -2848.1
v -5730.74 24.8662 -2848.73
v -5729.93 23.7331 -2848.59
v -5730.74 24.8662 -2848.73
v -5730.74 24.9597 -2848.09
v -5730.92 24.9648 -2848.1
v -5730.84 24.3529 -2847.43
v -5729.28 23.5265 -2855.06
v -5729.99 23.578 -2855.58
v -5730.12 23.4509 -2855.03
v -5729.28 23.5265 -2855.06
v -5729.44 23.5167 -2854.72
v -5729.81 24.0751 -2855.01
v -5730.22 23.758 -2854.59
v -5730.24 24.1796 -2854.45
v -5730.01 24.1573 -2855.43
v -5729.11 23.5599 -2855.4
v -5729.99 23.578 -2855.58
v -5730.85 23.5691 -2855.45
v -5730.86 23.5551 -2855.07
v -5730.38 24.0895 -2855.16
v -5730.85 23.6072 -2855.83
v -5730.85 23.5691 -2855.45
v -5730.85 23.6072 -2855.83
v -5730.05 24.6977 -2855.74
v -5730 24.7864 -2855.07
v -5730.18 24.7915 -2855.12
v -5729.88 24.6929 -2855.7
v -5729.11 23.5599 -2855.4
v -5729.88 24.6929 -2855.7
v -5730 24.7864 -2855.07
v -5730.18 24.7915 -2855.12
v -5730.24 24.1796 -2854.45
v -5729.51 23.5265 -2853.91
v -5730.33 23.578 -2854.23
v -5730.32 23.4509 -2853.67
v -5729.51 23.5265 -2853.91
v -5729.58 23.5167 -2853.54
v -5730.01 24.0751 -2853.73
v -5730.3 23.758 -2853.22
v -5730.28 24.1796 -2853.07
v -5730.31 24.1573 -2854.08
v -5729.43 23.5599 -2854.28
v -5730.33 23.578 -2854.23
v -5731.13 23.5691 -2853.88
v -5731.04 23.5551 -2853.52
v -5730.6 24.0895 -2853.73
v -5731.22 23.6072 -2854.25
v -5731.13 23.5691 -2853.88
v -5731.22 23.6072 -2854.25
v -5730.43 24.6977 -2854.37
v -5730.21 24.7864 -2853.74
v -5730.4 24.7915 -2853.74
v -5730.25 24.6929 -2854.38
v -5729.43 23.5599 -2854.28
v -5730.25 24.6929 -2854.38
v -5730.21 24.7864 -2853.74
v -5730.4 24.7915 -2853.74
v -5730.28 24.1796 -2853.07
v -5729.81 23.5265 -2852.38
v -5730.54 23.578 -2852.86
v -5730.65 23.4509 -2852.31
v -5729.81 23.5265 -2852.38
v -5729.96 23.5167 -2852.03
v -5730.33 24.0751 -2852.31
v -5730.73 23.758 -2851.87
v -5730.74 24.1796 -2851.72
v -5730.56 24.1573 -2852.71
v -5729.66 23.5599 -2852.73
v -5730.54 23.578 -2852.86
v -5731.4 23.5691 -2852.69
v -5731.39 23.5551 -2852.32
v -5730.91 24.0895 -2852.43
v -5731.41 23.6072 -2853.07
v -5731.4 23.5691 -2852.69
v -5731.41 23.6072 -2853.07
v -5730.61 24.6977 -2853.02
v -5730.53 24.7864 -2852.36
v -5730.71 24.7915 -2852.4
v -5730.44 24.6929 -2852.99
v -5729.66 23.5599 -2852.73
v -5730.44 24.6929 -2852.99
v -5730.53 24.7864 -2852.36
v -5730.71 24.7915 -2852.4
v -5730.74 24.1796 -2851.72
v -5728.56 23.4198 -2859.41
v -5729.32 23.4714 -2859.85
v -5729.4 23.3442 -2859.3
v -5728.56 23.4198 -2859.41
v -5728.69 23.41 -2859.05
v -5729.08 23.9684 -2859.31
v -5729.45 23.6513 -2858.85
v -5729.46 24.0729 -2858.71
v -5729.32 24.0506 -2859.7
v -5728.43 23.4532 -2859.76
v -5729.32 23.4714 -2859.85
v -5730.16 23.4624 -2859.64
v -5730.14 23.4484 -2859.26
v -5729.66 23.9828 -2859.4
v -5730.2 23.5006 -2860.02
v -5730.16 23.4624 -2859.64
v -5730.2 23.5006 -2860.02
v -5729.39 24.591 -2860.01
v -5729.28 24.6798 -2859.35
v -5729.46 24.6848 -2859.38
v -5729.22 24.5862 -2859.99
v -5728.43 23.4532 -2859.76
v -5729.22 24.5862 -2859.99
v -5729.28 24.6798 -2859.35
v -5729.46 24.6848 -2859.38
v -5729.46 24.0729 -2858.71
v -5728.68 23.4198 -2858.24
v -5729.52 23.4714 -2858.48
v -5729.45 23.3442 -2857.92
v -5728.68 23.4198 -2858.24
v -5728.71 23.41 -2857.87
v -5729.15 23.9684 -2858.02
v -5729.39 23.6513 -2857.48
v -5729.36 24.0729 -2857.33
v -5729.49 24.0506 -2858.33
v -5728.63 23.4532 -2858.62
v -5729.52 23.4714 -2858.48
v -5730.28 23.4624 -2858.05
v -5730.16 23.4484 -2857.7
v -5729.74 23.9828 -2857.96
v -5730.41 23.5006 -2858.41
v -5730.28 23.4624 -2858.05
v -5730.41 23.5006 -2858.41
v -5729.64 24.591 -2858.61
v -5729.36 24.6798 -2858.01
v -5729.54 24.6848 -2857.98
v -5729.46 24.5862 -2858.63
v -5728.63 23.4532 -2858.62
v -5729.46 24.5862 -2858.63
v -5729.36 24.6798 -2858.01
v -5729.54 24.6848 -2857.98
v -5729.36 24.0729 -2857.33
v -5728.82 23.4198 -2856.69
v -5729.6 23.4714 -2857.1
v -5729.65 23.3442 -2856.54
v -5728.82 23.4198 -2856.69
v -5728.93 23.41 -2856.33
v -5729.34 23.9684 -2856.57
v -5729.68 23.6513 -2856.09
v -5729.68 24.0729 -2855.95
v -5729.6 24.0506 -2856.95
v -5728.7 23.4532 -2857.05
v -5729.6 23.4714 -2857.1
v -5730.43 23.4624 -2856.84
v -5730.39 23.4484 -2856.47
v -5729.92 23.9828 -2856.63
v -5730.49 23.5006 -2857.22
v -5730.43 23.4624 -2856.84
v -5730.49 23.5006 -2857.22
v -5729.68 24.591 -2857.25
v -5729.54 24.6798 -2856.6
v -5729.72 24.6848 -2856.62
v -5729.51 24.5862 -2857.24
v -5728.7 23.4532 -2857.05
v -5729.51 24.5862 -2857.24
v -5729.54 24.6798 -2856.6
v -5729.72 24.6848 -2856.62
v -5729.68 24.0729 -2855.95
v -5727.77 23.29 -2863.72
v -5728.48 23.3415 -2864.24
v -5728.61 23.2144 -2863.69
v -5727.77 23.29 -2863.72
v -5727.93 23.2801 -2863.38
v -5728.29 23.8385 -2863.68
v -5728.7 23.5214 -2863.25
v -5728.72 23.9431 -2863.11
v -5728.5 23.9207 -2864.09
v -5727.6 23.3233 -2864.07
v -5728.48 23.3415 -2864.24
v -5729.34 23.3325 -2864.1
v -5729.35 23.3185 -2863.72
v -5728.86 23.8529 -2863.82
v -5729.34 23.3707 -2864.48
v -5729.34 23.3325 -2864.1
v -5729.34 23.3707 -2864.48
v -5728.54 24.4611 -2864.4
v -5728.49 24.5499 -2863.73
v -5728.67 24.5549 -2863.78
v -5728.37 24.4563 -2864.36
v -5727.6 23.3233 -2864.07
v -5728.37 24.4563 -2864.36
v -5728.49 24.5499 -2863.73
v -5728.67 24.5549 -2863.78
v -5728.72 23.9431 -2863.11
v -5727.99 23.29 -2862.57
v -5728.81 23.3415 -2862.89
v -5728.79 23.2144 -2862.33
v -5727.99 23.29 -2862.57
v -5728.05 23.2801 -2862.2
v -5728.48 23.8385 -2862.39
v -5728.77 23.5214 -2861.88
v -5728.75 23.9431 -2861.73
v -5728.78 23.9207 -2862.74
v -5727.91 23.3233 -2862.95
v -5728.81 23.3415 -2862.89
v -5729.6 23.3325 -2862.53
v -5729.52 23.3185 -2862.17
v -5729.07 23.8529 -2862.39
v -5729.7 23.3707 -2862.9
v -5729.6 23.3325 -2862.53
v -5729.7 23.3707 -2862.9
v -5728.91 24.4611 -2863.03
v -5728.69 24.5499 -2862.4
v -5728.87 24.5549 -2862.39
v -5728.73 24.4563 -2863.04
v -5727.91 23.3233 -2862.95
v -5728.73 24.4563 -2863.04
v -5728.69 24.5499 -2862.4
v -5728.87 24.5549 -2862.39
v -5728.75 23.9431 -2861.73
v -5728.27 23.29 -2861.04
v -5729.01 23.3415 -2861.52
v -5729.11 23.2144 -2860.97
v -5728.27 23.29 -2861.04
v -5728.41 23.2801 -2860.69
v -5728.79 23.8385 -2860.97
v -5729.18 23.5214 -2860.52
v -5729.2 23.9431 -2860.38
v -5729.02 23.9207 -2861.37
v -5728.12 23.3233 -2861.39
v -5729.01 23.3415 -2861.52
v -5729.86 23.3325 -2861.34
v -5729.85 23.3185 -2860.96
v -5729.37 23.8529 -2861.08
v -5729.88 23.3707 -2861.72
v -5729.86 23.3325 -2861.34
v -5729.88 23.3707 -2861.72
v -5729.08 24.4611 -2861.68
v -5728.99 24.5499 -2861.02
v -5729.17 24.5549 -2861.05
v -5728.91 24.4563 -2861.65
v -5728.12 23.3233 -2861.39
v -5728.91 24.4563 -2861.65
v -5728.99 24.5499 -2861.02
v -5729.17 24.5549 -2861.05
v -5729.2 23.9431 -2860.38
v -5728.06 23.1314 -2868.46
v -5728.89 23.183 -2868.74
v -5728.85 23.0558 -2868.18
v -5728.06 23.1314 -2868.46
v -5728.1 23.1216 -2868.09
v -5728.54 23.68 -2868.26
v -5728.8 23.3629 -2867.73
v -5728.78 23.7845 -2867.59
v -5728.86 23.7622 -2868.59
v -5728 23.1648 -2868.84
v -5728.89 23.183 -2868.74
v -5729.67 23.174 -2868.34
v -5729.56 23.16 -2867.98
v -5729.13 23.6944 -2868.22
v -5729.78 23.2122 -2868.71
v -5729.67 23.174 -2868.34
v -5729.78 23.2122 -2868.71
v -5729 24.3026 -2868.87
v -5728.74 24.3914 -2868.26
v -5728.93 24.3964 -2868.24
v -5728.82 24.2978 -2868.89
v -5728 23.1648 -2868.84
v -5728.82 24.2978 -2868.89
v -5728.74 24.3914 -2868.26
v -5728.93 24.3964 -2868.24
v -5728.78 23.7845 -2867.59
v -5727.91 23.1314 -2867.3
v -5728.79 23.183 -2867.35
v -5728.6 23.0558 -2866.82
v -5727.91 23.1314 -2867.3
v -5727.86 23.1216 -2866.93
v -5728.33 23.68 -2866.98
v -5728.44 23.3629 -2866.4
v -5728.38 23.7845 -2866.27
v -5728.72 23.7622 -2867.22
v -5727.95 23.1648 -2867.68
v -5728.79 23.183 -2867.35
v -5729.44 23.174 -2866.77
v -5729.24 23.16 -2866.45
v -5728.89 23.6944 -2866.79
v -5729.65 23.2122 -2867.09
v -5729.44 23.174 -2866.77
v -5729.65 23.2122 -2867.09
v -5728.93 24.3026 -2867.46
v -5728.52 24.3914 -2866.93
v -5728.7 24.3964 -2866.86
v -5728.76 24.2978 -2867.52
v -5727.95 23.1648 -2867.68
v -5728.76 24.2978 -2867.52
v -5728.52 24.3914 -2866.93
v -5728.7 24.3964 -2866.86
v -5728.38 23.7845 -2866.27
v -5727.72 23.1314 -2865.76
v -5728.56 23.183 -2865.99
v -5728.49 23.0558 -2865.43
v -5727.72 23.1314 -2865.76
v -5727.74 23.1216 -2865.38
v -5728.19 23.68 -2865.53
v -5728.42 23.3629 -2864.98
v -5728.39 23.7845 -2864.84
v -5728.53 23.7622 -2865.84
v -5727.68 23.1648 -2866.14
v -5728.56 23.183 -2865.99
v -5729.32 23.174 -2865.55
v -5729.2 23.16 -2865.2
v -5728.77 23.6944 -2865.46
v -5729.46 23.2122 -2865.91
v -5729.32 23.174 -2865.55
v -5729.46 23.2122 -2865.91
v -5728.68 24.3026 -2866.12
v -5728.39 24.3914 -2865.51
v -5728.58 24.3964 -2865.49
v -5728.5 24.2978 -2866.14
v -5727.68 23.1648 -2866.14
v -5728.5 24.2978 -2866.14
v -5728.39 24.3914 -2865.51
v -5728.58 24.3964 -2865.49
v -5728.39 23.7845 -2864.84
v -5729.34 22.8924 -2872.9
v -5730.21 22.9439 -2873.02
v -5730.07 22.8168 -2872.47
v -5729.34 22.8924 -2872.9
v -5729.32 22.8825 -2872.53
v -5729.78 23.441 -2872.61
v -5729.94 23.1238 -2872.04
v -5729.89 23.5455 -2871.91
v -5730.16 23.5231 -2872.88
v -5729.36 22.9257 -2873.29
v -5730.21 22.9439 -2873.02
v -5730.9 22.9349 -2872.48
v -5730.73 22.921 -2872.15
v -5730.35 23.4554 -2872.47
v -5731.09 22.9731 -2872.82
v -5730.9 22.9349 -2872.48
v -5731.09 22.9731 -2872.82
v -5730.35 24.0636 -2873.13
v -5729.98 24.1523 -2872.57
v -5730.16 24.1574 -2872.52
v -5730.18 24.0588 -2873.18
v -5729.36 22.9257 -2873.29
v -5730.18 24.0588 -2873.18
v -5729.98 24.1523 -2872.57
v -5730.16 24.1574 -2872.52
v -5729.89 23.5455 -2871.91
v -5728.98 22.8924 -2871.79
v -5729.85 22.9439 -2871.68
v -5729.57 22.8168 -2871.19
v -5728.98 22.8924 -2871.79
v -5728.86 22.8825 -2871.44
v -5729.33 23.441 -2871.4
v -5729.33 23.1238 -2870.81
v -5729.25 23.5455 -2870.69
v -5729.76 23.5231 -2871.55
v -5729.1 22.9257 -2872.16
v -5729.85 22.9439 -2871.68
v -5730.38 22.9349 -2870.98
v -5730.13 22.921 -2870.7
v -5729.84 23.4554 -2871.11
v -5730.65 22.9731 -2871.26
v -5730.38 22.9349 -2870.98
v -5730.65 22.9731 -2871.26
v -5730.01 24.0636 -2871.75
v -5729.51 24.1523 -2871.3
v -5729.67 24.1574 -2871.21
v -5729.86 24.0588 -2871.84
v -5729.1 22.9257 -2872.16
v -5729.86 24.0588 -2871.84
v -5729.51 24.1523 -2871.3
v -5729.67 24.1574 -2871.21
v -5729.25 23.5455 -2870.69
v -5728.5 22.8924 -2870.31
v -5729.37 22.9439 -2870.38
v -5729.2 22.8168 -2869.84
v -5728.5 22.8924 -2870.31
v -5728.46 22.8825 -2869.94
v -5728.92 23.441 -2870
v -5729.05 23.1238 -2869.42
v -5728.99 23.5455 -2869.29
v -5729.31 23.5231 -2870.24
v -5728.53 22.9257 -2870.69
v -5729.37 22.9439 -2870.38
v -5730.04 22.9349 -2869.81
v -5729.85 22.921 -2869.48
v -5729.48 23.4554 -2869.82
v -5730.24 22.9731 -2870.13
v -5730.04 22.9349 -2869.81
v -5730.24 22.9731 -2870.13
v -5729.51 24.0636 -2870.48
v -5729.12 24.1523 -2869.94
v -5729.29 24.1574 -2869.89
v -5729.35 24.0588 -2870.54
v -5728.53 22.9257 -2870.69
v -5729.35 24.0588 -2870.54
v -5729.12 24.1523 -2869.94
v -5729.29 24.1574 -2869.89
v -5728.99 23.5455 -2869.29
v -5730.32 24.0525 -2847.13
v -5730.94 24.1099 -2847.26
v -5730.87 23.9591 -2846.88
v -5730.32 24.005 -2846.87
v -5730.77 24.4186 -2846.39
v -5730.32 24.0525 -2847.13
v -5730.8 24.1314 -2846.53
v -5730.91 24.5094 -2847.1
v -5730.3 24.1178 -2847.4
v -5730.65 24.4186 -2846.89
v -5730.3 24.1178 -2847.4
v -5730.91 24.5094 -2847.1
v -5730.94 24.1099 -2847.26
v -5731.47 24.0525 -2846.93
v -5731.37 24.005 -2846.68
v -5731.07 24.4186 -2846.82
v -5731.58 24.1178 -2847.17
v -5731.47 24.0525 -2846.93
v -5731.58 24.1178 -2847.17
v -5731.03 24.926 -2847.23
v -5730.8 24.926 -2846.8
v -5730.93 24.926 -2846.78
v -5730.9 24.926 -2847.26
v -5730.3 24.1178 -2847.4
v -5730.32 24.0525 -2846.05
v -5730.94 24.1099 -2846.18
v -5730.87 23.9591 -2845.8
v -5730.65 24.4186 -2845.82
v -5730.32 24.0525 -2846.05
v -5730.77 24.4186 -2845.31
v -5730.32 24.005 -2845.79
v -5730.8 24.1314 -2845.45
v -5730.91 24.5094 -2846.02
v -5730.3 24.1178 -2846.33
v -5730.94 24.1099 -2846.18
v -5731.47 24.0525 -2845.85
v -5731.07 24.4186 -2845.75
v -5731.47 24.0525 -2845.85
v -5731.37 24.005 -2845.6
v -5731.58 24.1178 -2846.1
v -5731.58 24.1178 -2846.1
v -5731.03 24.926 -2846.15
v -5730.8 24.926 -2845.72
v -5730.93 24.926 -2845.7
v -5730.9 24.926 -2846.18
v -5730.3 24.1178 -2846.33
v -5730.27 24.0525 -2844.71
v -5730.82 24.1099 -2845.01
v -5730.87 23.9591 -2844.63
v -5730.66 24.4186 -2844.58
v -5730.27 24.0525 -2844.71
v -5730.93 24.4186 -2844.13
v -5730.36 24.005 -2844.45
v -5730.91 24.1314 -2844.27
v -5730.84 24.5094 -2844.85
v -5730.18 24.1178 -2844.96
v -5730.82 24.1099 -2845.01
v -5731.43 24.0525 -2844.85
v -5731.08 24.4186 -2844.64
v -5731.43 24.0525 -2844.85
v -5731.41 24.005 -2844.59
v -5731.47 24.1178 -2845.12
v -5731.47 24.1178 -2845.12
v -5730.92 24.926 -2845.01
v -5730.83 24.926 -2844.53
v -5730.96 24.926 -2844.55
v -5730.79 24.926 -2845
v -5730.18 24.1178 -2844.96
v -5730.58 24.0986 -2843.46
v -5731.04 24.1503 -2843.8
v -5731.12 24.0146 -2843.46
v -5730.94 24.4281 -2843.39
v -5730.58 24.0986 -2843.46
v -5731.23 24.4281 -2843.02
v -5730.68 24.0559 -2843.25
v -5731.2 24.1696 -2843.15
v -5731.08 24.5099 -2843.65
v -5730.47 24.1574 -2843.68
v -5731.04 24.1503 -2843.8
v -5731.6 24.0986 -2843.72
v -5731.31 24.4281 -2843.49
v -5731.6 24.0986 -2843.72
v -5731.61 24.0559 -2843.48
v -5731.6 24.1574 -2843.96
v -5731.6 24.1574 -2843.96
v -5731.13 24.8848 -2843.81
v -5731.1 24.8848 -2843.37
v -5731.21 24.8848 -2843.4
v -5731.01 24.8848 -2843.78
v -5730.47 24.1574 -2843.68
v -5731.11 24.1448 -2842.33
v -5731.49 24.1907 -2842.67
v -5731.59 24.0701 -2842.37
v -5731.44 24.4377 -2842.3
v -5731.11 24.1448 -2842.33
v -5731.73 24.4377 -2841.99
v -5731.22 24.1068 -2842.14
v -5731.69 24.2079 -2842.1
v -5731.54 24.5103 -2842.54
v -5730.99 24.197 -2842.51
v -5731.49 24.1907 -2842.67
v -5731.99 24.1448 -2842.65
v -5731.76 24.4377 -2842.42
v -5731.99 24.1448 -2842.65
v -5732.02 24.1068 -2842.43
v -5731.97 24.197 -2842.86
v -5731.97 24.197 -2842.86
v -5731.52 24.8436 -2842.66
v -5731.63 24.8436 -2842.31
v -5731.63 24.8436 -2842.31
v -5731.52 24.8436 -2842.66
v -5730.99 24.197 -2842.51
v -5731.91 24.0986 -2841.37
v -5732.07 24.1388 -2841.79
v -5732.27 24.0333 -2841.6
v -5732.18 24.3549 -2841.48
v -5731.91 24.0986 -2841.37
v -5732.53 24.3549 -2841.36
v -5732.07 24.0654 -2841.28
v -5732.45 24.1538 -2841.43
v -5732.15 24.4185 -2841.71
v -5731.75 24.1443 -2841.46
v -5732.07 24.1388 -2841.79
v -5732.47 24.0986 -2841.98
v -5732.38 24.3549 -2841.7
v -5732.47 24.0986 -2841.98
v -5732.57 24.0654 -2841.83
v -5732.36 24.1443 -2842.14
v -5732.36 24.1443 -2842.14
v -5732.22 24.6244 -2841.8
v -5732.15 24.4185 -2841.71
v -5732.45 24.6244 -2841.57
v -5732.45 24.6244 -2841.57
v -5732.22 24.6244 -2841.8
v -5731.75 24.1443 -2841.46
v -5733.07 24.0639 -2841.12
v -5732.93 24.0983 -2841.47
v -5733.16 24.0079 -2841.47
v -5733.18 24.2836 -2841.34
v -5733.07 24.0639 -2841.12
v -5733.46 24.2836 -2841.46
v -5733.23 24.0354 -2841.15
v -5733.37 24.1112 -2841.46
v -5733.03 24.3381 -2841.47
v -5732.91 24.1031 -2841.08
v -5732.93 24.0983 -2841.47
v -5733.07 24.0639 -2841.82
v -5733.17 24.2836 -2841.59
v -5733.07 24.0639 -2841.82
v -5733.23 24.0354 -2841.78
v -5732.91 24.1031 -2841.86
v -5732.91 24.1031 -2841.86
v -5733.06 24.521 -2841.49
v -5733.31 24.521 -2841.47
v -5733.31 24.521 -2841.47
v -5733.06 24.521 -2841.49
v -5732.91 24.1031 -2841.08
v -5733.88 24.066 -2841.35
v -5733.7 24.0946 -2841.61
v -5733.88 24.0193 -2841.66
v -5733.92 24.249 -2841.56
v -5733.88 24.066 -2841.35
v -5734.13 24.249 -2841.72
v -5734 24.0422 -2841.41
v -5734.06 24.1054 -2841.7
v -5733.78 24.2944 -2841.63
v -5733.76 24.0986 -2841.29
v -5733.7 24.0946 -2841.61
v -5733.74 24.066 -2841.92
v -5733.87 24.249 -2841.76
v -5733.74 24.066 -2841.92
v -5733.87 24.0422 -2841.93
v -5733.6 24.0986 -2841.92
v -5733.6 24.0986 -2841.92
v -5733.82 24.4252 -2841.66
v -5733.99 24.4252 -2841.69
v -5733.99 24.4252 -2841.69
v -5733.82 24.4252 -2841.66
v -5733.76 24.0986 -2841.29
v -5734.51 24.0958 -2841.84
v -5734.3 24.1188 -2841.98
v -5734.43 24.0585 -2842.06
v -5734.49 24.2423 -2842
v -5734.51 24.0958 -2841.84
v -5734.6 24.2423 -2842.18
v -5734.59 24.0768 -2841.91
v -5734.55 24.1274 -2842.14
v -5734.36 24.2786 -2842.02
v -5734.44 24.1219 -2841.76
v -5734.3 24.1188 -2841.98
v -5734.25 24.0958 -2842.22
v -5734.39 24.2423 -2842.14
v -5734.25 24.0958 -2842.22
v -5734.35 24.0768 -2842.27
v -5734.14 24.1219 -2842.19
v -5734.14 24.1219 -2842.19
v -5734.36 24.3498 -2842.05
v -5734.48 24.3498 -2842.12
v -5734.48 24.3498 -2842.12
v -5734.36 24.3498 -2842.05
v -5734.44 24.1219 -2841.76
v -5734.84 24.1004 -2842.3
v -5734.66 24.1176 -2842.36
v -5734.74 24.0724 -2842.45
v -5734.79 24.2102 -2842.42
v -5734.84 24.1004 -2842.3
v -5734.84 24.2102 -2842.57
v -5734.88 24.0862 -2842.37
v -5734.81 24.1241 -2842.53
v -5734.7 24.2375 -2842.4
v -5734.81 24.12 -2842.23
v -5734.81 24.12 -2842.23
v -5734.66 24.1176 -2842.36
v -5734.57 24.1004 -2842.53
v -5734.69 24.2102 -2842.5
v -5734.57 24.1004 -2842.53
v -5734.64 24.0862 -2842.58
v -5734.51 24.12 -2842.48
v -5734.51 24.12 -2842.48
v -5734.79 24.2882 -2842.47
v -5734.81 24.12 -2842.23
v -5734.96 24.0863 -2842.81
v -5734.8 24.1019 -2842.74
v -5734.8 24.0608 -2842.85
v -5734.86 24.186 -2842.85
v -5734.96 24.0863 -2842.81
v -5734.8 24.186 -2842.98
v -5734.94 24.0733 -2842.88
v -5734.8 24.1078 -2842.94
v -5734.8 24.2107 -2842.79
v -5734.98 24.1041 -2842.74
v -5734.98 24.1041 -2842.74
v -5734.8 24.2107 -2842.79
v -5734.8 24.1019 -2842.74
v -5734.64 24.0863 -2842.8
v -5734.74 24.186 -2842.85
v -5734.64 24.0863 -2842.8
v -5734.65 24.0733 -2842.88
v -5734.62 24.1041 -2842.73
v -5734.62 24.1041 -2842.73
v -5734.83 24.2568 -2842.89
v -5734.98 24.1041 -2842.74
v -5734.62 24.1041 -2842.73
v -5734.89 24.1009 -2843.25
v -5734.79 24.1143 -2843.17
v -5734.77 24.0783 -2843.24
v -5734.81 24.1668 -2843.27
v -5734.89 24.1009 -2843.25
v -5734.75 24.1574 -2843.34
v -5734.87 24.0868 -2843.29
v -5734.76 24.1049 -2843.31
v -5734.78 24.188 -2843.21
v -5734.92 24.1184 -2843.2
v -5734.92 24.1184 -2843.2
v -5734.78 24.188 -2843.21
v -5734.79 24.1143 -2843.17
v -5734.67 24.0971 -2843.19
v -5734.73 24.1655 -2843.24
v -5734.67 24.0971 -2843.19
v -5734.67 24.0834 -2843.24
v -5734.67 24.1142 -2843.13
v -5734.67 24.1142 -2843.13
v -5734.78 24.2137 -2843.29
v -5734.92 24.1184 -2843.2
v -5734.67 24.1142 -2843.13
v -5734.53 24.109 -2842.51
v -5734.77 24.109 -2842.16
v -5734.53 27.109 -2842.51
v -5734.77 27.109 -2842.16
v -5734.77 24.109 -2842.16
v -5734.48 24.3498 -2842.12
v -5734.77 27.109 -2842.16
v -5734.48 27.3498 -2842.12
v -5734.48 24.3498 -2842.12
v -5734.53 24.109 -2842.51
v -5734.48 27.3498 -2842.12
v -5734.53 27.109 -2842.51
v -5762 23.0896 -2824
v -5762 23.027 -2826
v -5762 22.9639 -2828
v -5762 22.9 -2830
v -5762 22.8354 -2832
v -5762 22.77 -2834
v -5762 22.7038 -2836
v -5762 22.6368 -2838
v -5762 22.5689 -2840
v -5762 22.5002 -2842
v -5762 22.4307 -2844
v -5762 22.3604 -2846
v -5762 22.2893 -2848
v -5762 22.2173 -2850
v -5762 22.1446 -2852
v -5762 22.0712 -2854
v -5762 21.9971 -2856
v -5762 21.9222 -2858
v -5762 21.8468 -2860
v -5762 21.7708 -2862
v -5762 21.6942 -2864
v -5762 21.6171 -2866
v -5762 21.5396 -2868
v -5762 21.4617 -2870
v -5762 21.3834 -2872
v -5762 21.305 -2874
v -5762 21.2263 -2876
v -5762 21.1474 -2878
v -5762 21.0685 -2880
v -5762 20.9896 -2882
v -5762 20.9108 -2884
v -5762 20.8321 -2886
v -5760 23.2029 -2824
v -5760 23.1389 -2826
v -5760 23.0743 -2828
v -5760 23.0091 -2830
v -5760 22.9432 -2832
v -5760 22.8766 -2834
v -5760 22.8093 -2836
v -5760 22.7412 -2838
v -5760 22.6724 -2840
v -5760 22.6028 -2842
v -5760 22.5325 -2844
v -5760 22.4614 -2846
v -5760 22.3895 -2848
v -5760 22.317 -2850
v -5760 22.2437 -2852
v -5760 22.1698 -2854
v -5760 22.0952 -2856
v -5760 22.02 -2858
v -5760 21.9442 -2860
v -5760 21.8679 -2862
v -5760 21.7911 -2864
v -5760 21.7139 -2866
v -5760 21.6363 -2868
v -5760 21.5583 -2870
v -5760 21.4801 -2872
v -5760 21.4017 -2874
v -5760 21.3231 -2876
v -5760 21.2445 -2878
v -5760 21.1658 -2880
v -5760 21.0871 -2882
v -5760 21.0085 -2884
v -5760 20.9302 -2886
v -5758 23.3175 -2824
v -5758 23.252 -2826
v -5758 23.186 -2828
v -5758 23.1194 -2830
v -5758 23.0523 -2832
v -5758 22.9845 -2834
v -5758 22.916 -2836
v -5758 22.8469 -2838
v -5758 22.7771 -2840
v -5758 22.7065 -2842
v -5758 22.6354 -2844
v -5758 22.5635 -2846
v -5758 22.4909 -2848
v -5758 22.4177 -2850
v -5758 22.3439 -2852
v -5758 22.2694 -2854
v -5758 22.1944 -2856
v -5758 22.1188 -2858
v -5758 22.0427 -2860
v -5758 21.9661 -2862
v -5758 21.8891 -2864
v -5758 21.8117 -2866
v -5758 21.734 -2868
v -5758 21.656 -2870
v -5758 21.5779 -2872
v -5758 21.4995 -2874
v -5758 21.421 -2876
v -5758 21.3425 -2878
v -5758 21.264 -2880
v -5758 21.1856 -2882
v -5758 21.1073 -2884
v -5758 21.0292 -2886
v -5756 23.4337 -2824
v -5756 23.3667 -2826
v -5756 23.2993 -2828
v -5756 23.2313 -2830
v -5756 23.1629 -2832
v -5756 23.0938 -2834
v -5756 23.0242 -2836
v -5756 22.954 -2838
v -5756 22.8832 -2840
v -5756 22.8117 -2842
v -5756 22.7397 -2844
v -5756 22.667 -2846
v -5756 22.5937 -2848
v -5756 22.5198 -2850
v -5756 22.4454 -2852
v -5756 22.3704 -2854
v -5756 22.2949 -2856
v -5756 22.2189 -2858
v -5756 22.1425 -2860
v -5756 22.0656 -2862
v -5756 21.9884 -2864
v -5756 21.9109 -2866
v -5756 21.8331 -2868
v -5756 21.7551 -2870
v -5756 21.6769 -2872
v -5756 21.5986 -2874
v -5756 21.5202 -2876
v -5756 21.4419 -2878
v -5756 21.3635 -2880
v -5756 21.2854 -2882
v -5756 21.2073 -2884
v -5756 21.1296 -2886
v -5754 23.5517 -2824
v -5754 23.4832 -2826
v -5754 23.4143 -2828
v -5754 23.345 -2830
v -5754 23.2752 -2832
v -5754 23.2049 -2834
v -5754 23.1342 -2836
v -5754 23.0629 -2838
v -5754 22.991 -2840
v -5754 22.9186 -2842
v -5754 22.8457 -2844
v -5754 22.7722 -2846
v -5754 22.6982 -2848
v -5754 22.6237 -2850
v -5754 22.5486 -2852
v -5754 22.4731 -2854
v -5754 22.3971 -2856
v -5754 22.3207 -2858
v -5754 22.244 -2860
v -5754 22.1668 -2862
v -5754 22.0894 -2864
v -5754 22.0117 -2866
v -5754 21.9338 -2868
v -5754 21.8557 -2870
v -5754 21.7775 -2872
v -5754 21.6993 -2874
v -5754 21.621 -2876
v -5754 21.5428 -2878
v -5754 21.4647 -2880
v -5754 21.3867 -2882
v -5754 21.309 -2884
v -5754 21.2315 -2886
v -5752 23.6717 -2824
v -5752 23.6017 -2826
v -5752 23.5313 -2828
v -5752 23.4606 -2830
v -5752 23.3895 -2832
v -5752 23.318 -2834
v -5752 23.2461 -2836
v -5752 23.1737 -2838
v -5752 23.1008 -2840
v -5752 23.0275 -2842
v -5752 22.9537 -2844
v -5752 22.8794 -2846
v -5752 22.8046 -2848
v -5752 22.7294 -2850
v -5752 22.6537 -2852
v -5752 22.5777 -2854
v -5752 22.5012 -2856
v -5752 22.4244 -2858
v -5752 22.3473 -2860
v -5752 22.2699 -2862
v -5752 22.1923 -2864
v -5752 22.1144 -2866
v -5752 22.0364 -2868
v -5752 21.9583 -2870
v -5752 21.8801 -2872
v -5752 21.8019 -2874
v -5752 21.7237 -2876
v -5752 21.6456 -2878
v -5752 21.5677 -2880
v -5752 21.49 -2882
v -5752 21.4125 -2884
v -5752 21.3354 -2886
v -5750 23.794 -2824
v -5750 23.7224 -2826
v -5750 23.6506 -2828
v -5750 23.5785 -2830
v -5750 23.5061 -2832
v -5750 23.4334 -2834
v -5750 23.3603 -2836
v -5750 23.2868 -2838
v -5750 23.2129 -2840
v -5750 23.1386 -2842
v -5750 23.0639 -2844
v -5750 22.9888 -2846
v -5750 22.9132 -2848
v -5750 22.8374 -2850
v -5750 22.7611 -2852
v -5750 22.6845 -2854
v -5750 22.6076 -2856
v -5750 22.5304 -2858
v -5750 22.4529 -2860
v -5750 22.3752 -2862
v -5750 22.2974 -2864
v -5750 22.2193 -2866
v -5750 22.1412 -2868
v -5750 22.063 -2870
v -5750 21.9848 -2872
v -5750 21.9067 -2874
v -5750 21.8286 -2876
v -5750 21.7507 -2878
v -5750 21.673 -2880
v -5750 21.5955 -2882
v -5750 21.5183 -2884
v -5750 21.4415 -2886
v -5748 23.9189 -2824
v -5748 23.8457 -2826
v -5748 23.7725 -2828
v -5748 23.699 -2830
v -5748 23.6253 -2832
v -5748 23.5513 -2834
v -5748 23.477 -2836
v -5748 23.4024 -2838
v -5748 23.3275 -2840
v -5748 23.2522 -2842
v -5748 23.1766 -2844
v -5748 23.1007 -2846
v -5748 23.0244 -2848
v -5748 22.9479 -2850
v -5748 22.871 -2852
v -5748 22.7939 -2854
v -5748 22.7165 -2856
v -5748 22.6389 -2858
v -5748 22.5611 -2860
v -5748 22.4831 -2862
v -5748 22.405 -2864
v -5748 22.3268 -2866
v -5748 22.2485 -2868
v -5748 22.1703 -2870
v -5748 22.0921 -2872
v -5748 22.014 -2874
v -5748 21.9361 -2876
v -5748 21.8583 -2878
v -5748 21.7808 -2880
v -5748 21.7035 -2882
v -5748 21.6266 -2884
v -5748 21.5501 -2886
v -5746 24.0464 -2824
v -5746 23.9718 -2826
v -5746 23.8971 -2828
v -5746 23.8222 -2830
v -5746 23.7472 -2832
v -5746 23.6719 -2834
v -5746 23.5965 -2836
v -5746 23.5208 -2838
v -5746 23.4448 -2840
v -5746 23.3686 -2842
v -5746 23.2921 -2844
v -5746 23.2154 -2846
v -5746 23.1384 -2848
v -5746 23.0612 -2850
v -5746 22.9837 -2852
v -5746 22.906 -2854
v -5746 22.8282 -2856
v -5746 22.7501 -2858
v -5746 22.672 -2860
v -5746 22.5937 -2862
v -5746 22.5154 -2864
v -5746 22.4371 -2866
v -5746 22.3587 -2868
v -5746 22.2804 -2870
v -5746 22.2023 -2872
v -5746 22.1242 -2874
v -5746 22.0464 -2876
v -5746 21.9687 -2878
v -5746 21.8914 -2880
v -5746 21.8144 -2882
v -5746 21.7378 -2884
v -5746 21.6616 -2886
v -5744 24.177 -2824
v -5744 24.1008 -2826
v -5744 24.0246 -2828
v -5744 23.9484 -2830
v -5744 23.872 -2832
v -5744 23.7956 -2834
v -5744 23.719 -2836
v -5744 23.6422 -2838
v -5744 23.5652 -2840
v -5744 23.488 -2842
v -5744 23.4107 -2844
v -5744 23.3332 -2846
v -5744 23.2554 -2848
v -5744 23.1775 -2850
v -5744 23.0995 -2852
v -5744 23.0213 -2854
v -5744 22.9429 -2856
v -5744 22.8645 -2858
v -5744 22.786 -2860
v -5744 22.7075 -2862
v -5744 22.629 -2864
v -5744 22.5505 -2866
v -5744 22.472 -2868
v -5744 22.3937 -2870
v -5744 22.3155 -2872
v -5744 22.2376 -2874
v -5744 22.1598 -2876
v -5744 22.0824 -2878
v -5744 22.0052 -2880
v -5744 21.9285 -2882
v -5744 21.8521 -2884
v -5744 21.7763 -2886
v -5742 24.3106 -2824
v -5742 24.233 -2826
v -5742 24.1554 -2828
v -5742 24.0778 -2830
v -5742 24.0002 -2832
v -5742 23.9225 -2834
v -5742 23.8447 -2836
v -5742 23.7668 -2838
v -5742 23.6889 -2840
v -5742 23.6108 -2842
v -5742 23.5326 -2844
v -5742 23.4542 -2846
v -5742 23.3758 -2848
v -5742 23.2972 -2850
v -5742 23.2186 -2852
v -5742 23.1399 -2854
v -5742 23.0611 -2856
v -5742 22.9823 -2858
v -5742 22.9035 -2860
v -5742 22.8247 -2862
v -5742 22.746 -2864
v -5742 22.6673 -2866
v -5742 22.5888 -2868
v -5742 22.5104 -2870
v -5742 22.4323 -2872
v -5742 22.3544 -2874
v -5742 22.2768 -2876
v -5742 22.1995 -2878
v -5742 22.1226 -2880
v -5742 22.0461 -2882
v -5742 21.97 -2884
v -5742 21.8945 -2886
v -5740 24.4477 -2824
v -5740 24.3685 -2826
v -5740 24.2895 -2828
v -5740 24.2106 -2830
v -5740 24.1317 -2832
v -5740 24.0528 -2834
v -5740 23.9739 -2836
v -5740 23.895 -2838
v -5740 23.816 -2840
v -5740 23.737 -2842
v -5740 23.658 -2844
v -5740 23.5789 -2846
v -5740 23.4997 -2848
v -5740 23.4205 -2850
v -5740 23.3413 -2852
v -5740 23.2621 -2854
v -5740 23.1829 -2856
v -5740 23.1037 -2858
v -5740 23.0246 -2860
v -5740 22.9455 -2862
v -5740 22.8666 -2864
v -5740 22.7879 -2866
v -5740 22.7093 -2868
v -5740 22.6309 -2870
v -5740 22.5528 -2872
v -5740 22.475 -2874
v -5740 22.3975 -2876
v -5740 22.3204 -2878
v -5740 22.2437 -2880
v -5740 22.1675 -2882
v -5740 22.0918 -2884
v -5740 22.0166 -2886
v -5738 24.5882 -2824
v -5738 24.5076 -2826
v -5738 24.4272 -2828
v -5738 24.3469 -2830
v -5738 24.2668 -2832
v -5738 24.1867 -2834
v -5738 24.1067 -2836
v -5738 24.0268 -2838
v -5738 23.9469 -2840
v -5738 23.867 -2842
v -5738 23.7871 -2844
v -5738 23.7072 -2846
v -5738 23.6274 -2848
v -5738 23.5476 -2850
v -5738 23.4678 -2852
v -5738 23.3881 -2854
v -5738 23.3085 -2856
v -5738 23.229 -2858
v -5738 23.1496 -2860
v -5738 23.0703 -2862
v -5738 22.9913 -2864
v -5738 22.9124 -2866
v -5738 22.8338 -2868
v -5738 22.7554 -2870
v -5738 22.6774 -2872
v -5738 22.5997 -2874
v -5738 22.5223 -2876
v -5738 22.4454 -2878
v -5738 22.369 -2880
v -5738 22.2931 -2882
v -5738 22.2177 -2884
v -5738 22.1428 -2886
v -5736 24.7324 -2824
v -5736 24.6504 -2826
v -5736 24.5687 -2828
v -5736 24.4871 -2830
v -5736 24.4058 -2832
v -5736 24.3246 -2834
v -5736 24.2435 -2836
v -5736 24.1625 -2838
v -5736 24.0817 -2840
v -5736 24.0009 -2842
v -5736 23.9203 -2844
v -5736 23.8397 -2846
v -5736 23.7592 -2848
v -5736 23.6788 -2850
v -5736 23.5985 -2852
v -5736 23.5184 -2854
v -5736 23.4384 -2856
v -5736 23.3585 -2858
v -5736 23.2788 -2860
v -5736 23.1994 -2862
v -5736 23.1202 -2864
v -5736 23.0412 -2866
v -5736 22.9626 -2868
v -5736 22.8842 -2870
v -5736 22.8063 -2872
v -5736 22.7287 -2874
v -5736 22.6516 -2876
v -5736 22.5749 -2878
v -5736 22.4988 -2880
v -5736 22.4231 -2882
v -5736 22.3481 -2884
v -5736 22.2736 -2886
v -5734 24.8805 -2824
v -5734 24.7971 -2826
v -5734 24.714 -2828
v -5734 24.6312 -2830
v -5734 24.5487 -2832
v -5734 24.4664 -2834
v -5734 24.3843 -2836
v -5734 24.3023 -2838
v -5734 24.2206 -2840
v -5734 24.139 -2842
v -5734 24.0576 -2844
v -5734 23.9763 -2846
v -5734 23.8952 -2848
v -5734 23.8143 -2850
v -5734 23.7335 -2852
v -5734 23.6529 -2854
v -5734 23.5725 -2856
v -5734 23.4924 -2858
v -5734 23.4125 -2860
v -5734 23.3329 -2862
v -5734 23.2536 -2864
v -5734 23.1746 -2866
v -5734 23.0959 -2868
v -5734 23.0177 -2870
v -5734 22.9398 -2872
v -5734 22.8624 -2874
v -5734 22.7855 -2876
v -5734 22.7091 -2878
v -5734 22.6332 -2880
v -5734 22.5579 -2882
v -5734 22.4833 -2884
v -5734 22.4092 -2886
v -5732 25.0324 -2824
v -5732 24.9478 -2826
v -5732 24.8635 -2828
v -5732 24.7795 -2830
v -5732 24.6958 -2832
v -5732 24.6124 -2834
v -5732 24.5293 -2836
v -5732 24.4464 -2838
v -5732 24.3638 -2840
v -5732 24.2814 -2842
v -5732 24.1993 -2844
v -5732 24.1174 -2846
v -5732 24.0357 -2848
v -5732 23.9542 -2850
v -5732 23.873 -2852
v -5732 23.792 -2854
v -5732 23.7114 -2856
v -5732 23.631 -2858
v -5732 23.5509 -2860
v -5732 23.4711 -2862
v -5732 23.3917 -2864
v -5732 23.3127 -2866
v -5732 23.2341 -2868
v -5732 23.156 -2870
v -5732 23.0783 -2872
v -5732 23.0011 -2874
v -5732 22.9244 -2876
v -5732 22.8483 -2878
v -5732 22.7727 -2880
v -5732 22.6978 -2882
v -5732 22.6235 -2884
v -5732 22.5499 -2886
v -5730 25.185 -2824
v -5730 25.1002 -2826
v -5730 25.0155 -2828
v -5730 24.9309 -2830
v -5730 24.8466 -2832
v -5730 24.7625 -2834
v -5730 24.6786 -2836
v -5730 24.595 -2838
v -5730 24.5116 -2840
v -5730 24.4284 -2842
v -5730 24.3456 -2844
v -5730 24.2631 -2846
v -5730 24.1808 -2848
v -5730 24.0989 -2850
v -5730 24.0173 -2852
v -5730 23.936 -2854
v -5730 23.855 -2856
v -5730 23.7744 -2858
v -5730 23.6942 -2860
v -5730 23.6143 -2862
v -5730 23.5349 -2864
v -5730 23.4559 -2866
v -5730 23.3774 -2868
v -5730 23.2993 -2870
v -5730 23.2217 -2872
v -5730 23.1445 -2874
v -5730 23.0679 -2876
v -5730 22.9918 -2878
v -5730 22.9162 -2880
v -5730 22.8411 -2882
v -5730 22.7666 -2884
v -5730 22.6926 -2886
v -5728 25.337 -2824
v -5728 25.2518 -2826
v -5728 25.1668 -2828
v -5728 25.0821 -2830
v -5728 24.9974 -2832
v -5728 24.913 -2834
v -5728 24.8289 -2836
v -5728 24.7449 -2838
v -5728 24.6612 -2840
v -5728 24.5778 -2842
v -5728 24.4946 -2844
v -5728 24.4117 -2846
v -5728 24.3291 -2848
v -5728 24.2469 -2850
v -5728 24.1649 -2852
v -5728 24.0833 -2854
v -5728 24.002 -2856
v -5728 23.9211 -2858
v -5728 23.8406 -2860
v -5728 23.7605 -2862
v -5728 23.6807 -2864
v -5728 23.6014 -2866
v -5728 23.5225 -2868
v -5728 23.4441 -2870
v -5728 23.3662 -2872
v -5728 23.2887 -2874
v -5728 23.2117 -2876
v -5728 23.1352 -2878
v -5728 23.0592 -2880
v -5728 22.9838 -2882
v -5728 22.9089 -2884
v -5728 22.8346 -2886
v -5726 25.4882 -2824
v -5726 25.4027 -2826
v -5726 25.3175 -2828
v -5726 25.2324 -2830
v -5726 25.1475 -2832
v -5726 25.0628 -2834
v -5726 24.9784 -2836
v -5726 24.8941 -2838
v -5726 24.8101 -2840
v -5726 24.7264 -2842
v -5726 24.6429 -2844
v -5726 24.5597 -2846
v -5726 24.4768 -2848
v -5726 24.3942 -2850
v -5726 24.3119 -2852
v -5726 24.23 -2854
v -5726 24.1484 -2856
v -5726 24.0672 -2858
v -5726 23.9863 -2860
v -5726 23.9058 -2862
v -5726 23.8258 -2864
v -5726 23.7461 -2866
v -5726 23.6669 -2868
v -5726 23.5881 -2870
v -5726 23.5098 -2872
v -5726 23.432 -2874
v -5726 23.3546 -2876
v -5726 23.2778 -2878
v -5726 23.2014 -2880
v -5726 23.1256 -2882
v -5726 23.0504 -2884
v -5726 22.9757 -2886
v -5724 25.6387 -2824
v -5724 25.553 -2826
v -5724 25.4674 -2828
v -5724 25.382 -2830
v -5724 25.2968 -2832
v -5724 25.2119 -2834
v -5724 25.1271 -2836
v -5724 25.0426 -2838
v -5724 24.9583 -2840
v -5724 24.8742 -2842
v -5724 24.7904 -2844
v -5724 24.7069 -2846
v -5724 24.6237 -2848
v -5724 24.5408 -2850
v -5724 24.4582 -2852
v -5724 24.3759 -2854
v -5724 24.294 -2856
v -5724 24.2124 -2858
v -5724 24.1312 -2860
v -5724 24.0504 -2862
v -5724 23.97 -2864
v -5724 23.89 -2866
v -5724 23.8105 -2868
v -5724 23.7313 -2870
v -5724 23.6527 -2872
v -5724 23.5745 -2874
v -5724 23.4968 -2876
v -5724 23.4196 -2878
v -5724 23.3429 -2880
v -5724 23.2667 -2882
v -5724 23.1911 -2884
v -5724 23.116 -2886
v -5722 25.7885 -2824
v -5722 25.7025 -2826
v -5722 25.6166 -2828
v -5722 25.531 -2830
v -5722 25.4455 -2832
v -5722 25.3602 -2834
v -5722 25.2751 -2836
v -5722 25.1903 -2838
v -5722 25.1057 -2840
v -5722 25.0213 -2842
v -5722 24.9372 -2844
v -5722 24.8534 -2846
v -5722 24.7699 -2848
v -5722 24.6866 -2850
v -5722 24.6037 -2852
v -5722 24.5211 -2854
v -5722 24.4389 -2856
v -5722 24.357 -2858
v -5722 24.2754 -2860
v -5722 24.1943 -2862
v -5722 24.1136 -2864
v -5722 24.0332 -2866
v -5722 23.9533 -2868
v -5722 23.8738 -2870
v -5722 23.7948 -2872
v -5722 23.7162 -2874
v -5722 23.6382 -2876
v -5722 23.5606 -2878
v -5722 23.4835 -2880
v -5722 23.407 -2882
v -5722 23.331 -2884
v -5722 23.2556 -2886
v -5720 25.9375 -2824
v -5720 25.8512 -2826
v -5720 25.7651 -2828
v -5720 25.6791 -2830
v -5720 25.5933 -2832
v -5720 25.5078 -2834
v -5720 25.4224 -2836
v -5720 25.3372 -2838
v -5720 25.2523 -2840
v -5720 25.1676 -2842
v -5720 25.0832 -2844
v -5720 24.9991 -2846
v -5720 24.9152 -2848
v -5720 24.8317 -2850
v -5720 24.7484 -2852
v -5720 24.6655 -2854
v -5720 24.5829 -2856
v -5720 24.5007 -2858
v -5720 24.4188 -2860
v -5720 24.3373 -2862
v -5720 24.2563 -2864
v -5720 24.1756 -2866
v -5720 24.0953 -2868
v -5720 24.0155 -2870
v -5720 23.9361 -2872
v -5720 23.8572 -2874
v -5720 23.7787 -2876
v -5720 23.7008 -2878
v -5720 23.6234 -2880
v -5720 23.5464 -2882
v -5720 23.4701 -2884
v -5720 23.3942 -2886
v -5718 26.0858 -2824
v -5718 25.9992 -2826
v -5718 25.9128 -2828
v -5718 25.8265 -2830
v -5718 25.7404 -2832
v -5718 25.6546 -2834
v -5718 25.5689 -2836
v -5718 25.4834 -2838
v -5718 25.3982 -2840
v -5718 25.3132 -2842
v -5718 25.2285 -2844
v -5718 25.144 -2846
v -5718 25.0598 -2848
v -5718 24.976 -2850
v -5718 24.8924 -2852
v -5718 24.8091 -2854
v -5718 24.7262 -2856
v -5718 24.6436 -2858
v -5718 24.5614 -2860
v -5718 24.4796 -2862
v -5718 24.3982 -2864
v -5718 24.3171 -2866
v -5718 24.2365 -2868
v -5718 24.1563 -2870
v -5718 24.0766 -2872
v -5718 23.9973 -2874
v -5718 23.9185 -2876
v -5718 23.8402 -2878
v -5718 23.7623 -2880
v -5718 23.6851 -2882
v -5718 23.6083 -2884
v -5718 23.5321 -2886
v -5716 26.2333 -2824
v -5716 26.1465 -2826
v -5716 26.0598 -2828
v -5716 25.9732 -2830
v -5716 25.8868 -2832
v -5716 25.8006 -2834
v -5716 25.7147 -2836
v -5716 25.6289 -2838
v -5716 25.5433 -2840
v -5716 25.458 -2842
v -5716 25.373 -2844
v -5716 25.2882 -2846
v -5716 25.2037 -2848
v -5716 25.1195 -2850
v -5716 25.0356 -2852
v -5716 24.952 -2854
v -5716 24.8687 -2856
v -5716 24.7858 -2858
v -5716 24.7033 -2860
v -5716 24.6211 -2862
v -5716 24.5393 -2864
v -5716 24.4579 -2866
v -5716 24.3769 -2868
v -5716 24.2964 -2870
v -5716 24.2163 -2872
v -5716 24.1366 -2874
v -5716 24.0574 -2876
v -5716 23.9787 -2878
v -5716 23.9005 -2880
v -5716 23.8229 -2882
v -5716 23.7457 -2884
v -5716 23.6691 -2886
v -5714 26.3801 -2824
v -5714 26.293 -2826
v -5714 26.2059 -2828
v -5714 26.1191 -2830
v -5714 26.0324 -2832
v -5714 25.9459 -2834
v -5714 25.8596 -2836
v -5714 25.7735 -2838
v -5714 25.6877 -2840
v -5714 25.602 -2842
v -5714 25.5167 -2844
v -5714 25.4316 -2846
v -5714 25.3467 -2848
v -5714 25.2622 -2850
v -5714 25.1779 -2852
v -5714 25.094 -2854
v -5714 25.0104 -2856
v -5714 24.9271 -2858
v -5714 24.8442 -2860
v -5714 24.7617 -2862
v -5714 24.6796 -2864
v -5714 24.5978 -2866
v -5714 24.5165 -2868
v -5714 24.4356 -2870
v -5714 24.3551 -2872
v -5714 24.2751 -2874
v -5714 24.1955 -2876
v -5714 24.1164 -2878
v -5714 24.0379 -2880
v -5714 23.9598 -2882
v -5714 23.8823 -2884
v -5714 23.8053 -2886
v -5712 26.5261 -2824
v -5712 26.4387 -2826
v -5712 26.3514 -2828
v -5712 26.2642 -2830
v -5712 26.1772 -2832
v -5712 26.0904 -2834
v -5712 26.0038 -2836
v -5712 25.9174 -2838
v -5712 25.8312 -2840
v -5712 25.7453 -2842
v -5712 25.6596 -2844
v -5712 25.5741 -2846
v -5712 25.489 -2848
v -5712 25.4041 -2850
v -5712 25.3195 -2852
v -5712 25.2352 -2854
v -5712 25.1513 -2856
v -5712 25.0677 -2858
v -5712 24.9844 -2860
v -5712 24.9015 -2862
v -5712 24.819 -2864
v -5712 24.7369 -2866
v -5712 24.6552 -2868
v -5712 24.5739 -2870
v -5712 24.4931 -2872
v -5712 24.4127 -2874
v -5712 24.3328 -2876
v -5712 24.2533 -2878
v -5712 24.1744 -2880
v -5712 24.0959 -2882
v -5712 24.018 -2884
v -5712 23.9406 -2886
v -5710 26.6714 -2824
v -5710 26.5837 -2826
v -5710 26.496 -2828
v -5710 26.4086 -2830
v -5710 26.3213 -2832
v -5710 26.2341 -2834
v -5710 26.1472 -2836
v -5710 26.0605 -2838
v -5710 25.974 -2840
v -5710 25.8877 -2842
v -5710 25.8017 -2844
v -5710 25.7159 -2846
v -5710 25.6304 -2848
v -5710 25.5452 -2850
v -5710 25.4603 -2852
v -5710 25.3757 -2854
v -5710 25.2914 -2856
v -5710 25.2074 -2858
v -5710 25.1238 -2860
v -5710 25.0406 -2862
v -5710 24.9577 -2864
v -5710 24.8752 -2866
v -5710 24.7932 -2868
v -5710 24.7115 -2870
v -5710 24.6303 -2872
v -5710 24.5495 -2874
v -5710 24.4692 -2876
v -5710 24.3894 -2878
v -5710 24.31 -2880
v -5710 24.2312 -2882
v -5710 24.1529 -2884
v -5710 24.0751 -2886
v -5708 26.8159 -2824
v -5708 26.7278 -2826
v -5708 26.6399 -2828
v -5708 26.5521 -2830
v -5708 26.4645 -2832
v -5708 26.3771 -2834
v -5708 26.2898 -2836
v -5708 26.2028 -2838
v -5708 26.1159 -2840
v -5708 26.0293 -2842
v -5708 25.943 -2844
v -5708 25.8569 -2846
v -5708 25.771 -2848
v -5708 25.6855 -2850
v -5708 25.6002 -2852
v -5708 25.5153 -2854
v -5708 25.4306 -2856
v -5708 25.3463 -2858
v -5708 25.2623 -2860
v -5708 25.1787 -2862
v -5708 25.0955 -2864
v -5708 25.0127 -2866
v -5708 24.9302 -2868
v -5708 24.8482 -2870
v -5708 24.7666 -2872
v -5708 24.6855 -2874
v -5708 24.6048 -2876
v -5708 24.5246 -2878
v -5708 24.4448 -2880
v -5708 24.3656 -2882
v -5708 24.2869 -2884
v -5708 24.2087 -2886
v -5706 26.9596 -2824
v -5706 26.8712 -2826
v -5706 26.783 -2828
v -5706 26.6949 -2830
v -5706 26.6069 -2832
v -5706 26.5192 -2834
v -5706 26.4316 -2836
v -5706 26.3443 -2838
v -5706 26.2571 -2840
v -5706 26.1702 -2842
v -5706 26.0835 -2844
v -5706 25.997 -2846
v -5706 25.9108 -2848
v -5706 25.8249 -2850
v -5706 25.7393 -2852
v -5706 25.654 -2854
v -5706 25.569 -2856
v -5706 25.4844 -2858
v -5706 25.4 -2860
v -5706 25.3161 -2862
v -5706 25.2325 -2864
v -5706 25.1493 -2866
v -5706 25.0665 -2868
v -5706 24.9841 -2870
v -5706 24.9021 -2872
v -5706 24.8206 -2874
v -5706 24.7395 -2876
v -5706 24.6589 -2878
v -5706 24.5788 -2880
v -5706 24.4991 -2882
v -5706 24.42 -2884
v -5706 24.3415 -2886
v -5704 27.1025 -2824
v -5704 27.0138 -2826
v -5704 26.9253 -2828
v -5704 26.8368 -2830
v -5704 26.7486 -2832
v -5704 26.6605 -2834
v -5704 26.5726 -2836
v -5704 26.4849 -2838
v -5704 26.3974 -2840
v -5704 26.3102 -2842
v -5704 26.2231 -2844
v -5704 26.1364 -2846
v -5704 26.0498 -2848
v -5704 25.9636 -2850
v -5704 25.8776 -2852
v -5704 25.7919 -2854
v -5704 25.7066 -2856
v -5704 25.6216 -2858
v -5704 25.5369 -2860
v -5704 25.4526 -2862
v -5704 25.3686 -2864
v -5704 25.285 -2866
v -5704 25.2018 -2868
v -5704 25.119 -2870
v -5704 25.0367 -2872
v -5704 24.9548 -2874
v -5704 24.8733 -2876
v -5704 24.7923 -2878
v -5704 24.7118 -2880
v -5704 24.6318 -2882
v -5704 24.5523 -2884
v -5704 24.4733 -2886
v -5702 27.2446 -2824
v -5702 27.1556 -2826
v -5702 27.0668 -2828
v -5702 26.978 -2830
v -5702 26.8895 -2832
v -5702 26.8011 -2834
v -5702 26.7128 -2836
v -5702 26.6248 -2838
v -5702 26.537 -2840
v -5702 26.4494 -2842
v -5702 26.362 -2844
v -5702 26.2749 -2846
v -5702 26.188 -2848
v -5702 26.1014 -2850
v -5702 26.0151 -2852
v -5702 25.9291 -2854
v -5702 25.8434 -2856
v -5702 25.758 -2858
v -5702 25.6729 -2860
v -5702 25.5882 -2862
v -5702 25.5039 -2864
v -5702 25.4199 -2866
v -5702 25.3364 -2868
v -5702 25.2532 -2870
v -5702 25.1705 -2872
v -5702 25.0882 -2874
v -5702 25.0063 -2876
v -5702 24.9249 -2878
v -5702 24.844 -2880
v -5702 24.7636 -2882
v -5702 24.6837 -2884
v -5702 24.6043 -2886
v -5700 27.3859 -2824
v -5700 27.2966 -2826
v -5700 27.2074 -2828
v -5700 27.1184 -2830
v -5700 27.0295 -2832
v -5700 26.9407 -2834
v -5700 26.8522 -2836
v -5700 26.7638 -2838
v -5700 26.6757 -2840
v -5700 26.5877 -2842
v -5700 26.5 -2844
v -5700 26.4125 -2846
v -5700 26.3253 -2848
v -5700 26.2384 -2850
v -5700 26.1517 -2852
v -5700 26.0653 -2854
v -5700 25.9792 -2856
v -5700 25.8935 -2858
v -5700 25.8081 -2860
v -5700 25.723 -2862
v -5700 25.6383 -2864
v -5700 25.554 -2866
v -5700 25.47 -2868
v -5700 25.3865 -2870
v -5700 25.3034 -2872
v -5700 25.2207 -2874
v -5700 25.1384 -2876
v -5700 25.0566 -2878
v -5700 24.9753 -2880
v -5700 24.8945 -2882
v -5700 24.8142 -2884
v -5700 24.7344 -2886
f 4 10 6
f 10 9 6
f 11 9 10
f 2 22 1
f 56 62 58
f 62 61 58
f 54 74 53
f 63 61 62
f 3 2 1
f 5 3 1
f 6 5 4
f 30 36 32
f 36 35 32
f 37 35 36
f 28 48 27
f 32 31 30
f 31 29 27
f 29 28 27
f 34 31 32
f 34 33 31
f 33 29 31
f 55 54 53
f 58 57 56
f 57 55 53
f 8 7 5
f 8 5 6
f 7 3 5
f 60 59 57
f 60 57 58
f 59 55 57
f 45 34 32
f 45 32 47
f 32 35 47
f 19 8 6
f 19 6 21
f 6 9 21
f 71 60 58
f 71 58 73
f 58 61 73
f 40 39 34
f 33 34 39
f 50 51 52
f 40 34 46
f 23 9 18
f 25 23 18
f 23 25 24
f 49 51 50
f 29 33 39
f 24 25 26
f 15 9 11
f 9 15 14
f 9 14 18
f 17 2 12
f 2 3 12
f 29 39 38
f 28 29 38
f 75 77 76
f 76 77 78
f 75 61 70
f 77 75 70
f 3 13 12
f 3 7 13
f 49 35 44
f 51 49 44
f 7 8 13
f 14 13 8
f 14 8 20
f 41 35 37
f 35 41 40
f 35 40 44
f 14 20 18
f 67 61 63
f 61 67 66
f 61 66 70
f 40 46 44
f 69 54 64
f 54 55 64
f 43 28 38
f 59 60 65
f 66 65 60
f 66 60 72
f 55 65 64
f 55 59 65
f 66 72 70
f 41 42 40
f 40 42 39
f 15 16 14
f 14 16 13
f 67 68 66
f 66 68 65
f 82 88 84
f 88 87 84
f 89 87 88
f 80 100 79
f 134 140 136
f 140 139 136
f 132 152 131
f 141 139 140
f 81 80 79
f 83 81 79
f 84 83 82
f 108 114 110
f 114 113 110
f 115 113 114
f 106 126 105
f 110 109 108
f 109 107 105
f 107 106 105
f 112 109 110
f 112 111 109
f 111 107 109
f 133 132 131
f 136 135 134
f 135 133 131
f 86 85 83
f 86 83 84
f 85 81 83
f 138 137 135
f 138 135 136
f 137 133 135
f 123 112 110
f 123 110 125
f 110 113 125
f 97 86 84
f 97 84 99
f 84 87 99
f 149 138 136
f 149 136 151
f 136 139 151
f 118 117 112
f 111 112 117
f 128 129 130
f 118 112 124
f 101 87 96
f 103 101 96
f 101 103 102
f 127 129 128
f 107 111 117
f 102 103 104
f 93 87 89
f 87 93 92
f 87 92 96
f 95 80 90
f 80 81 90
f 107 117 116
f 106 107 116
f 153 155 154
f 154 155 156
f 153 139 148
f 155 153 148
f 81 91 90
f 81 85 91
f 127 113 122
f 129 127 122
f 85 86 91
f 92 91 86
f 92 86 98
f 119 113 115
f 113 119 118
f 113 118 122
f 92 98 96
f 145 139 141
f 139 145 144
f 139 144 148
f 118 124 122
f 147 132 142
f 132 133 142
f 121 106 116
f 137 138 143
f 144 143 138
f 144 138 150
f 133 143 142
f 133 137 143
f 144 150 148
f 119 120 118
f 118 120 117
f 93 94 92
f 92 94 91
f 145 146 144
f 144 146 143
f 160 166 162
f 166 165 162
f 167 165 166
f 158 178 157
f 212 218 214
f 218 217 214
f 210 230 209
f 219 217 218
f 159 158 157
f 161 159 157
f 162 161 160
f 186 192 188
f 192 191 188
f 193 191 192
f 184 204 183
f 188 187 186
f 187 185 183
f 185 184 183
f 190 187 188
f 190 189 187
f 189 185 187
f 211 210 209
f 214 213 212
f 213 211 209
f 164 163 161
f 164 161 162
f 163 159 161
f 216 215 213
f 216 213 214
f 215 211 213
f 201 190 188
f 201 188 203
f 188 191 203
f 175 164 162
f 175 162 177
f 162 165 177
f 227 216 214
f 227 214 229
f 214 217 229
f 196 195 190
f 189 190 195
f 206 207 208
f 196 190 202
f 179 165 174
f 181 179 174
f 179 181 180
f 205 207 206
f 185 189 195
f 180 181 182
f 171 165 167
f 165 171 170
f 165 170 174
f 173 158 168
f 158 159 168
f 185 195 194
f 184 185 194
f 231 233 232
f 232 233 234
f 231 217 226
f 233 231 226
f 159 169 168
f 159 163 169
f 205 191 200
f 207 205 200
f 163 164 169
f 170 169 164
f 170 164 176
f 197 191 193
f 191 197 196
f 191 196 200
f 170 176 174
f 223 217 219
f 217 223 222
f 217 222 226
f 196 202 200
f 225 210 220
f 210 211 220
f 199 184 194
f 215 216 221
f 222 221 216
f 222 216 228
f 211 221 220
f 211 215 221
f 222 228 226
f 197 198 196
f 196 198 195
f 171 172 170
f 170 172 169
f 223 224 222
f 222 224 221
f 238 244 240
f 244 243 240
f 245 243 244
f 236 256 235
f 290 296 292
f 296 295 292
f 288 308 287
f 297 295 296
f 237 236 235
f 239 237 235
f 240 239 238
f 264 270 266
f 270 269 266
f 271 269 270
f 262 282 261
f 266 265 264
f 265 263 261
f 263 262 261
f 268 265 266
f 268 267 265
f 267 263 265
f 289 288 287
f 292 291 290
f 291 289 287
f 242 241 239
f 242 239 240
f 241 237 239
f 294 293 291
f 294 291 292
f 293 289 291
f 279 268 266
f 279 266 281
f 266 269 281
f 253 242 240
f 253 240 255
f 240 243 255
f 305 294 292
f 305 292 307
f 292 295 307
f 274 273 268
f 267 268 273
f 284 285 286
f 274 268 280
f 257 243 252
f 259 257 252
f 257 259 258
f 283 285 284
f 263 267 273
f 258 259 260
f 249 243 245
f 243 249 248
f 243 248 252
f 251 236 246
f 236 237 246
f 263 273 272
f 262 263 272
f 309 311 310
f 310 311 312
f 309 295 304
f 311 309 304
f 237 247 246
f 237 241 247
f 283 269 278
f 285 283 278
f 241 242 247
f 248 247 242
f 248 242 254
f 275 269 271
f 269 275 274
f 269 274 278
f 248 254 252
f 301 295 297
f 295 301 300
f 295 300 304
f 274 280 278
f 303 288 298
f 288 289 298
f 277 262 272
f 293 294 299
f 300 299 294
f 300 294 306
f 289 299 298
f 289 293 299
f 300 306 304
f 275 276 274
f 274 276 273
f 249 250 248
f 248 250 247
f 301 302 300
f 300 302 299
f 316 322 318
f 322 321 318
f 323 321 322
f 314 334 313
f 368 374 370
f 374 373 370
f 366 386 365
f 375 373 374
f 315 314 313
f 317 315 313
f 318 317 316
f 342 348 344
f 348 347 344
f 349 347 348
f 340 360 339
f 344 343 342
f 343 341 339
f 341 340 339
f 346 343 344
f 346 345 343
f 345 341 343
f 367 366 365
f 370 369 368
f 369 367 365
f 320 319 317
f 320 317 318
f 319 315 317
f 372 371 369
f 372 369 370
f 371 367 369
f 357 346 344
f 357 344 359
f 344 347 359
f 331 320 318
f 331 318 333
f 318 321 333
f 383 372 370
f 383 370 385
f 370 373 385
f 352 351 346
f 345 346 351
f 362 363 364
f 352 346 358
f 335 321 330
f 337 335 330
f 335 337 336
f 361 363 362
f 341 345 351
f 336 337 338
f 327 321 323
f 321 327 326
f 321 326 330
f 329 314 324
f 314 315 324
f 341 351 350
f 340 341 350
f 387 389 388
f 388 389 390
f 387 373 382
f 389 387 382
f 315 325 324
f 315 319 325
f 361 347 356
f 363 361 356
f 319 320 325
f 326 325 320
f 326 320 332
f 353 347 349
f 347 353 352
f 347 352 356
f 326 332 330
f 379 373 375
f 373 379 378
f 373 378 382
f 352 358 356
f 381 366 376
f 366 367 376
f 355 340 350
f 371 372 377
f 378 377 372
f 378 372 384
f 367 377 376
f 367 371 377
f 378 384 382
f 353 354 352
f 352 354 351
f 327 328 326
f 326 328 325
f 379 380 378
f 378 380 377
f 394 400 396
f 400 399 396
f 401 399 400
f 392 412 391
f 446 452 448
f 452 451 448
f 444 464 443
f 453 451 452
f 393 392 391
f 395 393 391
f 396 395 394
f 420 426 422
f 426 425 422
f 427 425 426
f 418 438 417
f 422 421 420
f 421 419 417
f 419 418 417
f 424 421 422
f 424 423 421
f 423 419 421
f 445 444 443
f 448 447 446
f 447 445 443
f 398 397 395
f 398 395 396
f 397 393 395
f 450 449 447
f 450 447 448
f 449 445 447
f 435 424 422
f 435 422 437
f 422 425 437
f 409 398 396
f 409 396 411
f 396 399 411
f 461 450 448
f 461 448 463
f 448 451 463
f 430 429 424
f 423 424 429
f 440 441 442
f 430 424 436
f 413 399 408
f 415 413 408
f 413 415 414
f 439 441 440
f 419 423 429
f 414 415 416
f 405 399 401
f 399 405 404
f 399 404 408
f 407 392 402
f 392 393 402
f 419 429 428
f 418 419 428
f 465 467 466
f 466 467 468
f 465 451 460
f 467 465 460
f 393 403 402
f 393 397 403
f 439 425 434
f 441 439 434
f 397 398 403
f 404 403 398
f 404 398 410
f 431 425 427
f 425 431 430
f 425 430 434
f 404 410 408
f 457 451 453
f 451 457 456
f 451 456 460
f 430 436 434
f 459 444 454
f 444 445 454
f 433 418 428
f 449 450 455
f 456 455 450
f 456 450 462
f 445 455 454
f 445 449 455
f 456 462 460
f 431 432 430
f 430 432 429
f 405 406 404
f 404 406 403
f 457 458 456
f 456 458 455
f 519 524 518
f 524 523 518
f 525 523 524
f 516 536 515
f 521 519 520
f 520 519 518
f 521 517 515
f 517 516 515
f 494 514 493
f 474 477 476
f 502 501 496
f 503 501 502
f 470 492 469
f 497 502 496
f 481 480 479
f 498 497 496
f 499 497 498
f 499 495 493
f 495 494 493
f 478 473 474
f 478 474 476
f 474 473 472
f 472 471 469
f 471 470 469
f 500 495 499
f 498 500 499
f 475 471 472
f 473 475 472
f 520 522 521
f 522 517 521
f 547 545 546
f 546 545 540
f 541 546 540
f 538 558 537
f 543 541 542
f 542 541 540
f 539 538 537
f 543 539 537
f 511 498 496
f 511 496 513
f 496 501 513
f 489 473 478
f 478 476 491
f 489 478 491
f 518 523 535
f 533 518 535
f 533 520 518
f 542 544 543
f 544 539 543
f 511 512 498
f 500 498 507
f 506 507 498
f 506 498 505
f 484 473 490
f 471 475 483
f 484 483 473
f 489 490 473
f 505 498 512
f 475 473 483
f 535 523 532
f 534 535 532
f 535 534 533
f 491 490 489
f 513 512 511
f 495 500 507
f 516 517 526
f 531 516 526
f 530 523 525
f 533 534 520
f 523 527 532
f 523 530 527
f 495 507 504
f 494 495 504
f 471 483 482
f 470 471 482
f 517 522 529
f 517 529 526
f 513 501 510
f 490 491 488
f 491 476 488
f 512 513 510
f 476 484 488
f 480 485 484
f 485 480 481
f 501 505 510
f 501 508 505
f 508 501 503
f 522 520 529
f 527 534 532
f 527 520 534
f 528 520 527
f 528 529 520
f 484 490 488
f 505 512 510
f 487 470 482
f 509 494 504
f 555 542 540
f 540 545 557
f 555 540 557
f 560 580 559
f 569 567 568
f 568 567 562
f 563 568 562
f 557 556 555
f 556 557 554
f 557 545 554
f 552 545 547
f 538 539 548
f 553 538 548
f 484 486 483
f 485 486 484
f 508 506 505
f 545 552 549
f 545 549 554
f 530 528 527
f 555 556 542
f 561 560 559
f 565 563 564
f 564 563 562
f 565 561 559
f 539 544 551
f 539 551 548
f 549 556 554
f 544 542 551
f 549 542 556
f 566 561 565
f 564 566 565
f 550 551 542
f 550 542 549
f 552 550 549
f 577 564 562
f 577 562 579
f 562 567 579
f 560 561 570
f 575 560 570
f 574 567 569
f 567 571 576
f 571 578 576
f 567 574 571
f 561 573 570
f 561 566 573
f 571 564 578
f 566 564 573
f 572 573 564
f 572 564 571
f 582 603 581
f 591 589 590
f 585 590 584
f 590 589 584
f 574 572 571
f 587 583 581
f 586 585 584
f 587 585 586
f 583 582 581
f 597 582 592
f 582 583 592
f 596 589 591
f 588 583 587
f 586 588 587
f 584 589 602
f 589 596 593
f 599 593 598
f 600 586 584
f 600 584 602
f 593 601 598
f 583 595 592
f 583 588 595
f 596 594 593
f 594 586 593
f 593 586 601
f 588 586 595
f 594 595 586
f 614 612 613
f 613 612 607
f 605 625 604
f 608 613 607
f 620 605 615
f 612 619 616
f 619 612 614
f 619 617 616
f 606 605 604
f 605 606 615
f 607 612 624
f 612 616 621
f 622 607 624
f 616 623 621
f 610 606 604
f 610 608 609
f 609 608 607
f 617 618 609
f 617 609 616
f 606 618 615
f 606 611 618
f 611 606 610
f 616 609 623
f 622 609 607
f 609 611 610
f 611 609 618
f 642 627 637
f 634 641 638
f 641 634 636
f 641 639 638
f 636 634 635
f 627 628 637
f 627 647 626
f 628 627 626
f 628 640 637
f 639 640 631
f 639 631 638
f 635 634 629
f 630 635 629
f 634 638 643
f 629 634 646
f 638 645 643
f 644 629 646
f 638 631 645
f 628 633 640
f 633 631 640
f 631 630 629
f 632 628 626
f 632 630 631
f 633 628 632
f 644 631 629
f 631 633 632
f 663 661 660
f 656 663 660
f 663 656 658
f 664 649 659
f 661 653 660
f 661 662 653
f 650 662 659
f 649 650 659
f 658 656 657
f 649 669 648
f 650 649 648
f 655 653 662
f 650 655 662
f 651 656 668
f 657 656 651
f 656 660 665
f 660 667 665
f 666 651 668
f 660 653 667
f 654 650 648
f 655 650 654
f 652 657 651
f 666 653 651
f 653 652 651
f 686 684 683
f 678 686 683
f 686 678 681
f 687 671 682
f 654 652 653
f 653 655 654
f 671 672 682
f 672 685 682
f 684 685 675
f 684 675 683
f 708 691 703
f 707 705 698
f 711 701 702
f 677 675 685
f 672 677 685
f 692 706 703
f 691 692 703
f 705 704 698
f 705 706 695
f 705 695 704
f 697 695 706
f 692 697 706
f 681 678 680
f 671 689 670
f 672 671 670
f 714 719 728
f 719 717 728
f 714 728 725
f 727 728 717
f 727 726 720
f 727 717 726
f 729 727 720
f 713 714 725
f 730 713 725
f 733 723 724
f 678 683 688
f 683 675 688
f 678 673 674
f 679 678 674
f 673 678 688
f 726 717 731
f 720 726 731
f 677 672 676
f 676 672 670
f 704 695 709
f 698 704 709
f 717 716 715
f 731 717 715
f 719 714 718
f 717 719 718
f 718 716 717
f 714 713 712
f 718 714 712
f 715 720 731
f 724 723 722
f 721 720 716
f 720 715 716
f 675 674 673
f 688 675 673
f 713 732 712
f 702 701 700
f 692 691 690
f 691 710 690
f 698 693 694
f 699 698 694
f 693 698 709
f 697 692 696
f 696 692 690
f 695 697 696
f 696 694 695
f 695 694 693
f 709 695 693
f 675 677 676
f 676 674 675
f 734 735 736
f 736 735 737
f 738 739 740
f 740 739 741
f 742 743 744
f 744 743 745
f 779 747 746
f 746 778 779
f 811 779 778
f 778 810 811
f 843 811 810
f 810 842 843
f 875 843 842
f 842 874 875
f 907 875 874
f 874 906 907
f 939 907 906
f 906 938 939
f 971 939 938
f 938 970 971
f 1003 971 970
f 970 1002 1003
f 1035 1003 1002
f 1002 1034 1035
f 1067 1035 1034
f 1034 1066 1067
f 1099 1067 1066
f 1066 1098 1099
f 1131 1099 1098
f 1098 1130 1131
f 1163 1131 1130
f 1130 1162 1163
f 1195 1163 1162
f 1162 1194 1195
f 1227 1195 1194
f 1194 1226 1227
f 1259 1227 1226
f 1226 1258 1259
f 1291 1259 1258
f 1258 1290 1291
f 1323 1291 1290
f 1290 1322 1323
f 1355 1323 1322
f 1322 1354 1355
f 1387 1355 1354
f 1354 1386 1387
f 1419 1387 1386
f 1386 1418 1419
f 1451 1419 1418
f 1418 1450 1451
f 1483 1451 1450
f 1450 1482 1483
f 1515 1483 1482
f 1482 1514 1515
f 1547 1515 1514
f 1514 1546 1547
f 1579 1547 1546
f 1546 1578 1579
f 1611 1579 1578
f 1578 1610 1611
f 1643 1611 1610
f 1610 1642 1643
f 1675 1643 1642
f 1642 1674 1675
f 1707 1675 1674
f 1674 1706 1707
f 1739 1707 1706
f 1706 1738 1739
f 780 748 747
f 747 779 780
f 812 780 779
f 779 811 812
f 844 812 811
f 811 843 844
f 876 844 843
f 843 875 876
f 908 876 875
f 875 907 908
f 940 908 907
f 907 939 940
f 972 940 939
f 939 971 972
f 1004 972 971
f 971 1003 1004
f 1036 1004 1003
f 1003 1035 1036
f 1068 1036 1035
f 1035 1067 1068
f 1100 1068 1067
f 1067 1099 1100
f 1132 1100 1099
f 1099 1131 1132
f 1164 1132 1131
f 1131 1163 1164
f 1196 1164 1163
f 1163 1195 1196
f 1228 1196 1195
f 1195 1227 1228
f 1260 1228 1227
f 1227 1259 1260
f 1292 1260 1259
f 1259 1291 1292
f 1324 1292 1291
f 1291 1323 1324
f 1356 1324 1323
f 1323 1355 1356
f 1388 1356 1355
f 1355 1387 1388
f 1420 1388 1387
f 1387 1419 1420
f 1452 1420 1419
f 1419 1451 1452
f 1484 1452 1451
f 1451 1483 1484
f 1516 1484 1483
f 1483 1515 1516
f 1548 1516 1515
f 1515 1547 1548
f 1580 1548 1547
f 1547 1579 1580
f 1612 1580 1579
f 1579 1611 1612
f 1644 1612 1611
f 1611 1643 1644
f 1676 1644 1643
f 1643 1675 1676
f 1708 1676 1675
f 1675 1707 1708
f 1740 1708 1707
f 1707 1739 1740
f 781 749 748
f 748 780 781
f 813 781 780
f 780 812 813
f 845 813 812
f 812 844 845
f 877 845 844
f 844 876 877
f 909 877 876
f 876 908 909
f 941 909 908
f 908 940 941
f 973 941 940
f 940 972 973
f 1005 973 972
f 972 1004 1005
f 1037 1005 1004
f 1004 1036 1037
f 1069 1037 1036
f 1036 1068 1069
f 1101 1069 1068
f 1068 1100 1101
f 1133 1101 1100
f 1100 1132 1133
f 1165 1133 1132
f 1132 1164 1165
f 1197 1165 1164
f 1164 1196 1197
f 1229 1197 1196
f 1196 1228 1229
f 1261 1229 1228
f 1228 1260 1261
f 1293 1261 1260
f 1260 1292 1293
f 1325 1293 1292
f 1292 1324 1325
f 1357 1325 1324
f 1324 1356 1357
f 1389 1357 1356
f 1356 1388 1389
f 1421 1389 1388
f 1388 1420 1421
f 1453 1421 1420
f 1420 1452 1453
f 1485 1453 1452
f 1452 1484 1485
f 1517 1485 1484
f 1484 1516 1517
f 1549 1517 1516
f 1516 1548 1549
f 1581 1549 1548
f 1548 1580 1581
f 1613 1581 1580
f 1580 1612 1613
f 1645 1613 1612
f 1612 1644 1645
f 1677 1645 1644
f 1644 1676 1677
f 1709 1677 1676
f 1676 1708 1709
f 1741 1709 1708
f 1708 1740 1741
f 782 750 749
f 749 781 782
f 814 782 781
f 781 813 814
f 846 814 813
f 813 845 846
f 878 846 845
f 845 877 878
f 910 878 877
f 877 909 910
f 942 910 909
f 909 941 942
f 974 942 941
f 941 973 974
f 1006 974 973
f 973 1005 1006
f 1038 1006 1005
f 1005 1037 1038
f 1070 1038 1037
f 1037 1069 1070
f 1102 1070 1069
f 1069 1101 1102
f 1134 1102 1101
f 1101 1133 1134
f 1166 1134 1133
f 1133 1165 1166
f 1198 1166 1165
f 1165 1197 1198
f 1230 1198 1197
f 1197 1229 1230
f 1262 1230 1229
f 1229 1261 1262
f 1294 1262 1261
f 1261 1293 1294
f 1326 1294 1293
f 1293 1325 1326
f 1358 1326 1325
f 1325 1357 1358
f 1390 1358 1357
f 1357 1389 1390
f 1422 1390 1389
f 1389 1421 1422
f 1454 1422 1421
f 1421 1453 1454
f 1486 1454 1453
f 1453 1485 1486
f 1518 1486 1485
f 1485 1517 1518
f 1550 1518 1517
f 1517 1549 1550
f 1582 1550 1549
f 1549 1581 1582
f 1614 1582 1581
f 1581 1613 1614
f 1646 1614 1613
f 1613 1645 1646
f 1678 1646 1645
f 1645 1677 1678
f 1710 1678 1677
f 1677 1709 1710
f 1742 1710 1709
f 1709 1741 1742
f 783 751 750
f 750 782 783
f 815 783 782
f 782 814 815
f 847 815 814
f 814 846 847
f 879 847 846
f 846 878 879
f 911 879 878
f 878 910 911
f 943 911 910
f 910 942 943
f 975 943 942
f 942 974 975
f 1007 975 974
f 974 1006 1007
f 1039 1007 1006
f 1006 1038 1039
f 1071 1039 1038
f 1038 1070 1071
f 1103 1071 1070
f 1070 1102 1103
f 1135 1103 1102
f 1102 1134 1135
f 1167 1135 1134
f 1134 1166 1167
f 1199 1167 1166
f 1166 1198 1199
f 1231 1199 1198
f 1198 1230 1231
f 1263 1231 1230
f 1230 1262 1263
f 1295 1263 1262
f 1262 1294 1295
f 1327 1295 1294
f 1294 1326 1327
f 1359 1327 1326
f 1326 1358 1359
f 1391 1359 1358
f 1358 1390 1391
f 1423 1391 1390
f 1390 1422 1423
f 1455 1423 1422
f 1422 1454 1455
f 1487 1455 1454
f 1454 1486 1487
f 1519 1487 1486
f 1486 1518 1519
f 1551 1519 1518
f 1518 1550 1551
f 1583 1551 1550
f 1550 1582 1583
f 1615 1583 1582
f 1582 1614 1615
f 1647 1615 1614
f 1614 1646 1647
f 1679 1647 1646
f 1646 1678 1679
f 1711 1679 1678
f 1678 1710 1711
f 1743 1711 1710
f 1710 1742 1743
f 784 752 751
f 751 783 784
f 816 784 783
f 783 815 816
f 848 816 815
f 815 847 848
f 880 848 847
f 847 879 880
f 912 880 879
f 879 911 912
f 944 912 911
f 911 943 944
f 976 944 943
f 943 975 976
f 1008 976 975
f 975 1007 1008
f 1040 1008 1007
f 1007 1039 1040
f 1072 1040 1039
f 1039 1071 1072
f 1104 1072 1071
f 1071 1103 1104
f 1136 1104 1103
f 1103 1135 1136
f 1168 1136 1135
f 1135 1167 1168
f 1200 1168 1167
f 1167 1199 1200
f 1232 1200 1199
f 1199 1231 1232
f 1264 1232 1231
f 1231 1263 1264
f 1296 1264 1263
f 1263 1295 1296
f 1328 1296 1295
f 1295 1327 1328
f 1360 1328 1327
f 1327 1359 1360
f 1392 1360 1359
f 1359 1391 1392
f 1424 1392 1391
f 1391 1423 1424
f 1456 1424 1423
f 1423 1455 1456
f 1488 1456 1455
f 1455 1487 1488
f 1520 1488 1487
f 1487 1519 1520
f 1552 1520 1519
f 1519 1551 1552
f 1584 1552 1551
f 1551 1583 1584
f 1616 1584 1583
f 1583 1615 1616
f 1648 1616 1615
f 1615 1647 1648
f 1680 1648 1647
f 1647 1679 1680
f 1712 1680 1679
f 1679 1711 1712
f 1744 1712 1711
f 1711 1743 1744
f 785 753 752
f 752 784 785
f 817 785 784
f 784 816 817
f 849 817 816
f 816 848 849
f 881 849 848
f 848 880 881
f 913 881 880
f 880 912 913
f 945 913 912
f 912 944 945
f 977 945 944
f 944 976 977
f 1009 977 976
f 976 1008 1009
f 1041 1009 1008
f 1008 1040 1041
f 1073 1041 1040
f 1040 1072 1073
f 1105 1073 1072
f 1072 1104 1105
f 1137 1105 1104
f 1104 1136 1137
f 1169 1137 1136
f 1136 1168 1169
f 1201 1169 1168
f 1168 1200 1201
f 1233 1201 1200
f 1200 1232 1233
f 1265 1233 1232
f 1232 1264 1265
f 1297 1265 1264
f 1264 1296 1297
f 1329 1297 1296
f 1296 1328 1329
f 1361 1329 1328
f 1328 1360 1361
f 1393 1361 1360
f 1360 1392 1393
f 1425 1393 1392
f 1392 1424 1425
f 1457 1425 1424
f 1424 1456 1457
f 1489 1457 1456
f 1456 1488 1489
f 1521 1489 1488
f 1488 1520 1521
f 1553 1521 1520
f 1520 1552 1553
f 1585 1553 1552
f 1552 1584 1585
f 1617 1585 1584
f 1584 1616 1617
f 1649 1617 1616
f 1616 1648 1649
f 1681 1649 1648
f 1648 1680 1681
f 1713 1681 1680
f 1680 1712 1713
f 1745 1713 1712
f 1712 1744 1745
f 786 754 753
f 753 785 786
f 818 786 785
f 785 817 818
f 850 818 817
f 817 849 850
f 882 850 849
f 849 881 882
f 914 882 881
f 881 913 914
f 946 914 913
f 913 945 946
f 978 946 945
f 945 977 978
f 1010 978 977
f 977 1009 1010
f 1042 1010 1009
f 1009 1041 1042
f 1074 1042 1041
f 1041 1073 1074
f 1106 1074 1073
f 1073 1105 1106
f 1138 1106 1105
f 1105 1137 1138
f 1170 1138 1137
f 1137 1169 1170
f 1202 1170 1169
f 1169 1201 1202
f 1234 1202 1201
f 1201 1233 1234
f 1266 1234 1233
f 1233 1265 1266
f 1298 1266 1265
f 1265 1297 1298
f 1330 1298 1297
f 1297 1329 1330
f 1362 1330 1329
f 1329 1361 1362
f 1394 1362 1361
f 1361 1393 1394
f 1426 1394 1393
f 1393 1425 1426
f 1458 1426 1425
f 1425 1457 1458
f 1490 1458 1457
f 1457 1489 1490
f 1522 1490 1489
f 1489 1521 1522
f 1554 1522 1521
f 1521 1553 1554
f 1586 1554 1553
f 1553 1585 1586
f 1618 1586 1585
f 1585 1617 1618
f 1650 1618 1617
f 1617 1649 1650
f 1682 1650 1649
f 1649 1681 1682
f 1714 1682 1681
f 1681 1713 1714
f 1746 1714 1713
f 1713 1745 1746
f 787 755 754
f 754 786 787
f 819 787 786
f 786 818 819
f 851 819 818
f 818 850 851
f 883 851 850
f 850 882 883
f 915 883 882
f 882 914 915
f 947 915 914
f 914 946 947
f 979 947 946
f 946 978 979
f 1011 979 978
f 978 1010 1011
f 1043 1011 1010
f 1010 1042 1043
f 1075 1043 1042
f 1042 1074 1075
f 1107 1075 1074
f 1074 1106 1107
f 1139 1107 1106
f 1106 1138 1139
f 1171 1139 1138
f 1138 1170 1171
f 1203 1171 1170
f 1170 1202 1203
f 1235 1203 1202
f 1202 1234 1235
f 1267 1235 1234
f 1234 1266 1267
f 1299 1267 1266
f 1266 1298 1299
f 1331 1299 1298
f 1298 1330 1331
f 1363 1331 1330
f 1330 1362 1363
f 1395 1363 1362
f 1362 1394 1395
f 1427 1395 1394
f 1394 1426 1427
f 1459 1427 1426
f 1426 1458 1459
f 1491 1459 1458
f 1458 1490 1491
f 1523 1491 1490
f 1490 1522 1523
f 1555 1523 1522
f 1522 1554 1555
f 1587 1555 1554
f 1554 1586 1587
f 1619 1587 1586
f 1586 1618 1619
f 1651 1619 1618
f 1618 1650 1651
f 1683 1651 1650
f 1650 1682 1683
f 1715 1683 1682
f 1682 1714 1715
f 1747 1715 1714
f 1714 1746 1747
f 788 756 755
f 755 787 788
f 820 788 787
f 787 819 820
f 852 820 819
f 819 851 852
f 884 852 851
f 851 883 884
f 916 884 883
f 883 915 916
f 948 916 915
f 915 947 948
f 980 948 947
f 947 979 980
f 1012 980 979
f 979 1011 1012
f 1044 1012 1011
f 1011 1043 1044
f 1076 1044 1043
f 1043 1075 1076
f 1108 1076 1075
f 1075 1107 1108
f 1140 1108 1107
f 1107 1139 1140
f 1172 1140 1139
f 1139 1171 1172
f 1204 1172 1171
f 1171 1203 1204
f 1236 1204 1203
f 1203 1235 1236
f 1268 1236 1235
f 1235 1267 1268
f 1300 1268 1267
f 1267 1299 1300
f 1332 1300 1299
f 1299 1331 1332
f 1364 1332 1331
f 1331 1363 1364
f 1396 1364 1363
f 1363 1395 1396
f 1428 1396 1395
f 1395 1427 1428
f 1460 1428 1427
f 1427 1459 1460
f 1492 1460 1459
f 1459 1491 1492
f 1524 1492 1491
f 1491 1523 1524
f 1556 1524 1523
f 1523 1555 1556
f 1588 1556 1555
f 1555 1587 1588
f 1620 1588 1587
f 1587 1619 1620
f 1652 1620 1619
f 1619 1651 1652
f 1684 1652 1651
f 1651 1683 1684
f 1716 1684 1683
f 1683 1715 1716
f 1748 1716 1715
f 1715 1747 1748
f 789 757 756
f 756 788 789
f 821 789 788
f 788 820 821
f 853 821 820
f 820 852 853
f 885 853 852
f 852 884 885
f 917 885 884
f 884 916 917
f 949 917 916
f 916 948 949
f 981 949 948
f 948 980 981
f 1013 981 980
f 980 1012 1013
f 1045 1013 1012
f 1012 1044 1045
f 1077 1045 1044
f 1044 1076 1077
f 1109 1077 1076
f 1076 1108 1109
f 1141 1109 1108
f 1108 1140 1141
f 1173 1141 1140
f 1140 1172 1173
f 1205 1173 1172
f 1172 1204 1205
f 1237 1205 1204
f 1204 1236 1237
f 1269 1237 1236
f 1236 1268 1269
f 1301 1269 1268
f 1268 1300 1301
f 1333 1301 1300
f 1300 1332 1333
f 1365 1333 1332
f 1332 1364 1365
f 1397 1365 1364
f 1364 1396 1397
f 1429 1397 1396
f 1396 1428 1429
f 1461 1429 1428
f 1428 1460 1461
f 1493 1461 1460
f 1460 1492 1493
f 1525 1493 1492
f 1492 1524 1525
f 1557 1525 1524
f 1524 1556 1557
f 1589 1557 1556
f 1556 1588 1589
f 1621 1589 1588
f 1588 1620 1621
f 1653 1621 1620
f 1620 1652 1653
f 1685 1653 1652
f 1652 1684 1685
f 1717 1685 1684
f 1684 1716 1717
f 1749 1717 1716
f 1716 1748 1749
f 790 758 757
f 757 789 790
f 822 790 789
f 789 821 822
f 854 822 821
f 821 853 854
f 886 854 853
f 853 885 886
f 918 886 885
f 885 917 918
f 950 918 917
f 917 949 950
f 982 950 949
f 949 981 982
f 1014 982 981
f 981 1013 1014
f 1046 1014 1013
f 1013 1045 1046
f 1078 1046 1045
f 1045 1077 1078
f 1110 1078 1077
f 1077 1109 1110
f 1142 1110 1109
f 1109 1141 1142
f 1174 1142 1141
f 1141 1173 1174
f 1206 1174 1173
f 1173 1205 1206
f 1238 1206 1205
f 1205 1237 1238
f 1270 1238 1237
f 1237 1269 1270
f 1302 1270 1269
f 1269 1301 1302
f 1334 1302 1301
f 1301 1333 1334
f 1366 1334 1333
f 1333 1365 1366
f 1398 1366 1365
f 1365 1397 1398
f 1430 1398 1397
f 1397 1429 1430
f 1462 1430 1429
f 1429 1461 1462
f 1494 1462 1461
f 1461 1493 1494
f 1526 1494 1493
f 1493 1525 1526
f 1558 1526 1525
f 1525 1557 1558
f 1590 1558 1557
f 1557 1589 1590
f 1622 1590 1589
f 1589 1621 1622
f 1654 1622 1621
f 1621 1653 1654
f 1686 1654 1653
f 1653 1685 1686
f 1718 1686 1685
f 1685 1717 1718
f 1750 1718 1717
f 1717 1749 1750
f 791 759 758
f 758 790 791
f 823 791 790
f 790 822 823
f 855 823 822
f 822 854 855
f 887 855 854
f 854 886 887
f 919 887 886
f 886 918 919
f 951 919 918
f 918 950 951
f 983 951 950
f 950 982 983
f 1015 983 982
f 982 1014 1015
f 1047 1015 1014
f 1014 1046 1047
f 1079 1047 1046
f 1046 1078 1079
f 1111 1079 1078
f 1078 1110 1111
f 1143 1111 1110
f 1110 1142 1143
f 1175 1143 1142
f 1142 1174 1175
f 1207 1175 1174
f 1174 1206 1207
f 1239 1207 1206
f 1206 1238 1239
f 1271 1239 1238
f 1238 1270 1271
f 1303 1271 1270
f 1270 1302 1303
f 1335 1303 1302
f 1302 1334 1335
f 1367 1335 1334
f 1334 1366 1367
f 1399 1367 1366
f 1366 1398 1399
f 1431 1399 1398
f 1398 1430 1431
f 1463 1431 1430
f 1430 1462 1463
f 1495 1463 1462
f 1462 1494 1495
f 1527 1495 1494
f 1494 1526 1527
f 1559 1527 1526
f 1526 1558 1559
f 1591 1559 1558
f 1558 1590 1591
f 1623 1591 1590
f 1590 1622 1623
f 1655 1623 1622
f 1622 1654 1655
f 1687 1655 1654
f 1654 1686 1687
f 1719 1687 1686
f 1686 1718 1719
f 1751 1719 1718
f 1718 1750 1751
f 792 760 759
f 759 791 792
f 824 792 791
f 791 823 824
f 856 824 823
f 823 855 856
f 888 856 855
f 855 887 888
f 920 888 887
f 887 919 920
f 952 920 919
f 919 951 952
f 984 952 951
f 951 983 984
f 1016 984 983
f 983 1015 1016
f 1048 1016 1015
f 1015 1047 1048
f 1080 1048 1047
f 1047 1079 1080
f 1112 1080 1079
f 1079 1111 1112
f 1144 1112 1111
f 1111 1143 1144
f 1176 1144 1143
f 1143 1175 1176
f 1208 1176 1175
f 1175 1207 1208
f 1240 1208 1207
f 1207 1239 1240
f 1272 1240 1239
f 1239 1271 1272
f 1304 1272 1271
f 1271 1303 1304
f 1336 1304 1303
f 1303 1335 1336
f 1368 1336 1335
f 1335 1367 1368
f 1400 1368 1367
f 1367 1399 1400
f 1432 1400 1399
f 1399 1431 1432
f 1464 1432 1431
f 1431 1463 1464
f 1496 1464 1463
f 1463 1495 1496
f 1528 1496 1495
f 1495 1527 1528
f 1560 1528 1527
f 1527 1559 1560
f 1592 1560 1559
f 1559 1591 1592
f 1624 1592 1591
f 1591 1623 1624
f 1656 1624 1623
f 1623 1655 1656
f 1688 1656 1655
f 1655 1687 1688
f 1720 1688 1687
f 1687 1719 1720
f 1752 1720 1719
f 1719 1751 1752
f 793 761 760
f 760 792 793
f 825 793 792
f 792 824 825
f 857 825 824
f 824 856 857
f 889 857 856
f 856 888 889
f 921 889 888
f 888 920 921
f 953 921 920
f 920 952 953
f 985 953 952
f 952 984 985
f 1017 985 984
f 984 1016 1017
f 1049 1017 1016
f 1016 1048 1049
f 1081 1049 1048
f 1048 1080 1081
f 1113 1081 1080
f 1080 1112 1113
f 1145 1113 1112
f 1112 1144 1145
f 1177 1145 1144
f 1144 1176 1177
f 1209 1177 1176
f 1176 1208 1209
f 1241 1209 1208
f 1208 1240 1241
f 1273 1241 1240
f 1240 1272 1273
f 1305 1273 1272
f 1272 1304 1305
f 1337 1305 1304
f 1304 1336 1337
f 1369 1337 1336
f 1336 1368 1369
f 1401 1369 1368
f 1368 1400 1401
f 1433 1401 1400
f 1400 1432 1433
f 1465 1433 1432
f 1432 1464 1465
f 1497 1465 1464
f 1464 1496 1497
f 1529 1497 1496
f 1496 1528 1529
f 1561 1529 1528
f 1528 1560 1561
f 1593 1561 1560
f 1560 1592 1593
f 1625 1593 1592
f 1592 1624 1625
f 1657 1625 1624
f 1624 1656 1657
f 1689 1657 1656
f 1656 1688 1689
f 1721 1689 1688
f 1688 1720 1721
f 1753 1721 1720
f 1720 1752 1753
f 794 762 761
f 761 793 794
f 826 794 793
f 793 825 826
f 858 826 825
f 825 857 858
f 890 858 857
f 857 889 890
f 922 890 889
f 889 921 922
f 954 922 921
f 921 953 954
f 986 954 953
f 953 985 986
f 1018 986 985
f 985 1017 1018
f 1050 1018 1017
f 1017 1049 1050
f 1082 1050 1049
f 1049 1081 1082
f 1114 1082 1081
f 1081 1113 1114
f 1146 1114 1113
f 1113 1145 1146
f 1178 1146 1145
f 1145 1177 1178
f 1210 1178 1177
f 1177 1209 1210
f 1242 1210 1209
f 1209 1241 1242
f 1274 1242 1241
f 1241 1273 1274
f 1306 1274 1273
f 1273 1305 1306
f 1338 1306 1305
f 1305 1337 1338
f 1370 1338 1337
f 1337 1369 1370
f 1402 1370 1369
f 1369 1401 1402
f 1434 1402 1401
f 1401 1433 1434
f 1466 1434 1433
f 1433 1465 1466
f 1498 1466 1465
f 1465 1497 1498
f 1530 1498 1497
f 1497 1529 1530
f 1562 1530 1529
f 1529 1561 1562
f 1594 1562 1561
f 1561 1593 1594
f 1626 1594 1593
f 1593 1625 1626
f 1658 1626 1625
f 1625 1657 1658
f 1690 1658 1657
f 1657 1689 1690
f 1722 1690 1689
f 1689 1721 1722
f 1754 1722 1721
f 1721 1753 1754
f 795 763 762
f 762 794 795
f 827 795 794
f 794 826 827
f 859 827 826
f 826 858 859
f 891 859 858
f 858 890 891
f 923 891 890
f 890 922 923
f 955 923 922
f 922 954 955
f 987 955 954
f 954 986 987
f 1019 987 986
f 986 1018 1019
f 1051 1019 1018
f 1018 1050 1051
f 1083 1051 1050
f 1050 1082 1083
f 1115 1083 1082
f 1082 1114 1115
f 1147 1115 1114
f 1114 1146 1147
f 1179 1147 1146
f 1146 1178 1179
f 1211 1179 1178
f 1178 1210 1211
f 1243 1211 1210
f 1210 1242 1243
f 1275 1243 1242
f 1242 1274 1275
f 1307 1275 1274
f 1274 1306 1307
f 1339 1307 1306
f 1306 1338 1339
f 1371 1339 1338
f 1338 1370 1371
f 1403 1371 1370
f 1370 1402 1403
f 1435 1403 1402
f 1402 1434 1435
f 1467 1435 1434
f 1434 1466 1467
f 1499 1467 1466
f 1466 1498 1499
f 1531 1499 1498
f 1498 1530 1531
f 1563 1531 1530
f 1530 1562 1563
f 1595 1563 1562
f 1562 1594 1595
f 1627 1595 1594
f 1594 1626 1627
f 1659 1627 1626
f 1626 1658 1659
f 1691 1659 1658
f 1658 1690 1691
f 1723 1691 1690
f 1690 1722 1723
f 1755 1723 1722
f 1722 1754 1755
f 796 764 763
f 763 795 796
f 828 796 795
f 795 827 828
f 860 828 827
f 827 859 860
f 892 860 859
f 859 891 892
f 924 892 891
f 891 923 924
f 956 924 923
f 923 955 956
f 988 956 955
f 955 987 988
f 1020 988 987
f 987 1019 1020
f 1052 1020 1019
f 1019 1051 1052
f 1084 1052 1051
f 1051 1083 1084
f 1116 1084 1083
f 1083 1115 1116
f 1148 1116 1115
f 1115 1147 1148
f 1180 1148 1147
f 1147 1179 1180
f 1212 1180 1179
f 1179 1211 1212
f 1244 1212 1211
f 1211 1243 1244
f 1276 1244 1243
f 1243 1275 1276
f 1308 1276 1275
f 1275 1307 1308
f 1340 1308 1307
f 1307 1339 1340
f 1372 1340 1339
f 1339 1371 1372
f 1404 1372 1371
f 1371 1403 1404
f 1436 1404 1403
f 1403 1435 1436
f 1468 1436 1435
f 1435 1467 1468
f 1500 1468 1467
f 1467 1499 1500
f 1532 1500 1499
f 1499 1531 1532
f 1564 1532 1531
f 1531 1563 1564
f 1596 1564 1563
f 1563 1595 1596
f 1628 1596 1595
f 1595 1627 1628
f 1660 1628 1627
f 1627 1659 1660
f 1692 1660 1659
f 1659 1691 1692
f 1724 1692 1691
f 1691 1723 1724
f 1756 1724 1723
f 1723 1755 1756
f 797 765 764
f 764 796 797
f 829 797 796
f 796 828 829
f 861 829 828
f 828 860 861
f 893 861 860
f 860 892 893
f 925 893 892
f 892 924 925
f 957 925 924
f 924 956 957
f 989 957 956
f 956 988 989
f 1021 989 988
f 988 1020 1021
f 1053 1021 1020
f 1020 1052 1053
f 1085 1053 1052
f 1052 1084 1085
f 1117 1085 1084
f 1084 1116 1117
f 1149 1117 1116
f 1116 1148 1149
f 1181 1149 1148
f 1148 1180 1181
f 1213 1181 1180
f 1180 1212 1213
f 1245 1213 1212
f 1212 1244 1245
f 1277 1245 1244
f 1244 1276 1277
f 1309 1277 1276
f 1276 1308 1309
f 1341 1309 1308
f 1308 1340 1341
f 1373 1341 1340
f 1340 1372 1373
f 1405 1373 1372
f 1372 1404 1405
f 1437 1405 1404
f 1404 1436 1437
f 1469 1437 1436
f 1436 1468 1469
f 1501 1469 1468
f 1468 1500 1501
f 1533 1501 1500
f 1500 1532 1533
f 1565 1533 1532
f 1532 1564 1565
f 1597 1565 1564
f 1564 1596 1597
f 1629 1597 1596
f 1596 1628 1629
f 1661 1629 1628
f 1628 1660 1661
f 1693 1661 1660
f 1660 1692 1693
f 1725 1693 1692
f 1692 1724 1725
f 1757 1725 1724
f 1724 1756 1757
f 798 766 765
f 765 797 798
f 830 798 797
f 797 829 830
f 862 830 829
f 829 861 862
f 894 862 861
f 861 893 894
f 926 894 893
f 893 925 926
f 958 926 925
f 925 957 958
f 990 958 957
f 957 989 990
f 1022 990 989
f 989 1021 1022
f 1054 1022 1021
f 1021 1053 1054
f 1086 1054 1053
f 1053 1085 1086
f 1118 1086 1085
f 1085 1117 1118
f 1150 1118 1117
f 1117 1149 1150
f 1182 1150 1149
f 1149 1181 1182
f 1214 1182 1181
f 1181 1213 1214
f 1246 1214 1213
f 1213 1245 1246
f 1278 1246 1245
f 1245 1277 1278
f 1310 1278 1277
f 1277 1309 1310
f 1342 1310 1309
f 1309 1341 1342
f 1374 1342 1341
f 1341 1373 1374
f 1406 1374 1373
f 1373 1405 1406
f 1438 1406 1405
f 1405 1437 1438
f 1470 1438 1437
f 1437 1469 1470
f 1502 1470 1469
f 1469 1501 1502
f 1534 1502 1501
f 1501 1533 1534
f 1566 1534 1533
f 1533 1565 1566
f 1598 1566 1565
f 1565 1597 1598
f 1630 1598 1597
f 1597 1629 1630
f 1662 1630 1629
f 1629 1661 1662
f 1694 1662 1661
f 1661 1693 1694
f 1726 1694 1693
f 1693 1725 1726
f 1758 1726 1725
f 1725 1757 1758
f 799 767 766
f 766 798 799
f 831 799 798
f 798 830 831
f 863 831 830
f 830 862 863
f 895 863 862
f 862 894 895
f 927 895 894
f 894 926 927
f 959 927 926
f 926 958 959
f 991 959 958
f 958 990 991
f 1023 991 990
f 990 1022 1023
f 1055 1023 1022
f 1022 1054 1055
f 1087 1055 1054
f 1054 1086 1087
f 1119 1087 1086
f 1086 1118 1119
f 1151 1119 1118
f 1118 1150 1151
f 1183 1151 1150
f 1150 1182 1183
f 1215 1183 1182
f 1182 1214 1215
f 1247 1215 1214
f 1214 1246 1247
f 1279 1247 1246
f 1246 1278 1279
f 1311 1279 1278
f 1278 1310 1311
f 1343 1311 1310
f 1310 1342 1343
f 1375 1343 1342
f 1342 1374 1375
f 1407 1375 1374
f 1374 1406 1407
f 1439 1407 1406
f 1406 1438 1439
f 1471 1439 1438
f 1438 1470 1471
f 1503 1471 1470
f 1470 1502 1503
f 1535 1503 1502
f 1502 1534 1535
f 1567 1535 1534
f 1534 1566 1567
f 1599 1567 1566
f 1566 1598 1599
f 1631 1599 1598
f 1598 1630 1631
f 1663 1631 1630
f 1630 1662 1663
f 1695 1663 1662
f 1662 1694 1695
f 1727 1695 1694
f 1694 1726 1727
f 1759 1727 1726
f 1726 1758 1759
f 800 768 767
f 767 799 800
f 832 800 799
f 799 831 832
f 864 832 831
f 831 863 864
f 896 864 863
f 863 895 896
f 928 896 895
f 895 927 928
f 960 928 927
f 927 959 960
f 992 960 959
f 959 991 992
f 1024 992 991
f 991 1023 1024
f 1056 1024 1023
f 1023 1055 1056
f 1088 1056 1055
f 1055 1087 1088
f 1120 1088 1087
f 1087 1119 1120
f 1152 1120 1119
f 1119 1151 1152
f 1184 1152 1151
f 1151 1183 1184
f 1216 1184 1183
f 1183 1215 1216
f 1248 1216 1215
f 1215 1247 1248
f 1280 1248 1247
f 1247 1279 1280
f 1312 1280 1279
f 1279 1311 1312
f 1344 1312 1311
f 1311 1343 1344
f 1376 1344 1343
f 1343 1375 1376
f 1408 1376 1375
f 1375 1407 1408
f 1440 1408 1407
f 1407 1439 1440
f 1472 1440 1439
f 1439 1471 1472
f 1504 1472 1471
f 1471 1503 1504
f 1536 1504 1503
f 1503 1535 1536
f 1568 1536 1535
f 1535 1567 1568
f 1600 1568 1567
f 1567 1599 1600
f 1632 1600 1599
f 1599 1631 1632
f 1664 1632 1631
f 1631 1663 1664
f 1696 1664 1663
f 1663 1695 1696
f 1728 1696 1695
f 1695 1727 1728
f 1760 1728 1727
f 1727 1759 1760
f 801 769 768
f 768 800 801
f 833 801 800
f 800 832 833
f 865 833 832
f 832 864 865
f 897 865 864
f 864 896 897
f 929 897 896
f 896 928 929
f 961 929 928
f 928 960 961
f 993 961 960
f 960 992 993
f 1025 993 992
f 992 1024 1025
f 1057 1025 1024
f 1024 1056 1057
f 1089 1057 1056
f 1056 1088 1089
f 1121 1089 1088
f 1088 1120 1121
f 1153 1121 1120
f 1120 1152 1153
f 1185 1153 1152
f 1152 1184 1185
f 1217 1185 1184
f 1184 1216 1217
f 1249 1217 1216
f 1216 1248 1249
f 1281 1249 1248
f 1248 1280 1281
f 1313 1281 1280
f 1280 1312 1313
f 1345 1313 1312
f 1312 1344 1345
f 1377 1345 1344
f 1344 1376 1377
f 1409 1377 1376
f 1376 1408 1409
f 1441 1409 1408
f 1408 1440 1441
f 1473 1441 1440
f 1440 1472 1473
f 1505 1473 1472
f 1472 1504 1505
f 1537 1505 1504
f 1504 1536 1537
f 1569 1537 1536
f 1536 1568 1569
f 1601 1569 1568
f 1568 1600 1601
f 1633 1601 1600
f 1600 1632 1633
f 1665 1633 1632
f 1632 1664 1665
f 1697 1665 1664
f 1664 1696 1697
f 1729 1697 1696
f 1696 1728 1729
f 1761 1729 1728
f 1728 1760 1761
f 802 770 769
f 769 801 802
f 834 802 801
f 801 833 834
f 866 834 833
f 833 865 866
f 898 866 865
f 865 897 898
f 930 898 897
f 897 929 930
f 962 930 929
f 929 961 962
f 994 962 961
f 961 993 994
f 1026 994 993
f 993 1025 1026
f 1058 1026 1025
f 1025 1057 1058
f 1090 1058 1057
f 1057 1089 1090
f 1122 1090 1089
f 1089 1121 1122
f 1154 1122 1121
f 1121 1153 1154
f 1186 1154 1153
f 1153 1185 1186
f 1218 1186 1185
f 1185 1217 1218
f 1250 1218 1217
f 1217 1249 1250
f 1282 1250 1249
f 1249 1281 1282
f 1314 1282 1281
f 1281 1313 1314
f 1346 1314 1313
f 1313 1345 1346
f 1378 1346 1345
f 1345 1377 1378
f 1410 1378 1377
f 1377 1409 1410
f 1442 1410 1409
f 1409 1441 1442
f 1474 1442 1441
f 1441 1473 1474
f 1506 1474 1473
f 1473 1505 1506
f 1538 1506 1505
f 1505 1537 1538
f 1570 1538 1537
f 1537 1569 1570
f 1602 1570 1569
f 1569 1601 1602
f 1634 1602 1601
f 1601 1633 1634
f 1666 1634 1633
f 1633 1665 1666
f 1698 1666 1665
f 1665 1697 1698
f 1730 1698 1697
f 1697 1729 1730
f 1762 1730 1729
f 1729 1761 1762
f 803 771 770
f 770 802 803
f 835 803 802
f 802 834 835
f 867 835 834
f 834 866 867
f 899 867 866
f 866 898 899
f 931 899 898
f 898 930 931
f 963 931 930
f 930 962 963
f 995 963 962
f 962 994 995
f 1027 995 994
f 994 1026 1027
f 1059 1027 1026
f 1026 1058 1059
f 1091 1059 1058
f 1058 1090 1091
f 1123 1091 1090
f 1090 1122 1123
f 1155 1123 1122
f 1122 1154 1155
f 1187 1155 1154
f 1154 1186 1187
f 1219 1187 1186
f 1186 1218 1219
f 1251 1219 1218
f 1218 1250 1251
f 1283 1251 1250
f 1250 1282 1283
f 1315 1283 1282
f 1282 1314 1315
f 1347 1315 1314
f 1314 1346 1347
f 1379 1347 1346
f 1346 1378 1379
f 1411 1379 1378
f 1378 1410 1411
f 1443 1411 1410
f 1410 1442 1443
f 1475 1443 1442
f 1442 1474 1475
f 1507 1475 1474
f 1474 1506 1507
f 1539 1507 1506
f 1506 1538 1539
f 1571 1539 1538
f 1538 1570 1571
f 1603 1571 1570
f 1570 1602 1603
f 1635 1603 1602
f 1602 1634 1635
f 1667 1635 1634
f 1634 1666 1667
f 1699 1667 1666
f 1666 1698 1699
f 1731 1699 1698
f 1698 1730 1731
f 1763 1731 1730
f 1730 1762 1763
f 804 772 771
f 771 803 804
f 836 804 803
f 803 835 836
f 868 836 835
f 835 867 868
f 900 868 867
f 867 899 900
f 932 900 899
f 899 931 932
f 964 932 931
f 931 963 964
f 996 964 963
f 963 995 996
f 1028 996 995
f 995 1027 1028
f 1060 1028 1027
f 1027 1059 1060
f 1092 1060 1059
f 1059 1091 1092
f 1124 1092 1091
f 1091 1123 1124
f 1156 1124 1123
f 1123 1155 1156
f 1188 1156 1155
f 1155 1187 1188
f 1220 1188 1187
f 1187 1219 1220
f 1252 1220 1219
f 1219 1251 1252
f 1284 1252 1251
f 1251 1283 1284
f 1316 1284 1283
f 1283 1315 1316
f 1348 1316 1315
f 1315 1347 1348
f 1380 1348 1347
f 1347 1379 1380
f 1412 1380 1379
f 1379 1411 1412
f 1444 1412 1411
f 1411 1443 1444
f 1476 1444 1443
f 1443 1475 1476
f 1508 1476 1475
f 1475 1507 1508
f 1540 1508 1507
f 1507 1539 1540
f 1572 1540 1539
f 1539 1571 1572
f 1604 1572 1571
f 1571 1603 1604
f 1636 1604 1603
f 1603 1635 1636
f 1668 1636 1635
f 1635 1667 1668
f 1700 1668 1667
f 1667 1699 1700
f 1732 1700 1699
f 1699 1731 1732
f 1764 1732 1731
f 1731 1763 1764
f 805 773 772
f 772 804 805
f 837 805 804
f 804 836 837
f 869 837 836
f 836 868 869
f 901 869 868
f 868 900 901
f 933 901 900
f 900 932 933
f 965 933 932
f 932 964 965
f 997 965 964
f 964 996 997
f 1029 997 996
f 996 1028 1029
f 1061 1029 1028
f 1028 1060 1061
f 1093 1061 1060
f 1060 1092 1093
f 1125 1093 1092
f 1092 1124 1125
f 1157 1125 1124
f 1124 1156 1157
f 1189 1157 1156
f 1156 1188 1189
f 1221 1189 1188
f 1188 1220 1221
f 1253 1221 1220
f 1220 1252 1253
f 1285 1253 1252
f 1252 1284 1285
f 1317 1285 1284
f 1284 1316 1317
f 1349 1317 1316
f 1316 1348 1349
f 1381 1349 1348
f 1348 1380 1381
f 1413 1381 1380
f 1380 1412 1413
f 1445 1413 1412
f 1412 1444 1445
f 1477 1445 1444
f 1444 1476 1477
f 1509 1477 1476
f 1476 1508 1509
f 1541 1509 1508
f 1508 1540 1541
f 1573 1541 1540
f 1540 1572 1573
f 1605 1573 1572
f 1572 1604 1605
f 1637 1605 1604
f 1604 1636 1637
f 1669 1637 1636
f 1636 1668 1669
f 1701 1669 1668
f 1668 1700 1701
f 1733 1701 1700
f 1700 1732 1733
f 1765 1733 1732
f 1732 1764 1765
f 806 774 773
f 773 805 806
f 838 806 805
f 805 837 838
f 870 838 837
f 837 869 870
f 902 870 869
f 869 901 902
f 934 902 901
f 901 933 934
f 966 934 933
f 933 965 966
f 998 966 965
f 965 997 998
f 1030 998 997
f 997 1029 1030
f 1062 1030 1029
f 1029 1061 1062
f 1094 1062 1061
f 1061 1093 1094
f 1126 1094 1093
f 1093 1125 1126
f 1158 1126 1125
f 1125 1157 1158
f 1190 1158 1157
f 1157 1189 1190
f 1222 1190 1189
f 1189 1221 1222
f 1254 1222 1221
f 1221 1253 1254
f 1286 1254 1253
f 1253 1285 1286
f 1318 1286 1285
f 1285 1317 1318
f 1350 1318 1317
f 1317 1349 1350
f 1382 1350 1349
f 1349 1381 1382
f 1414 1382 1381
f 1381 1413 1414
f 1446 1414 1413
f 1413 1445 1446
f 1478 1446 1445
f 1445 1477 1478
f 1510 1478 1477
f 1477 1509 1510
f 1542 1510 1509
f 1509 1541 1542
f 1574 1542 1541
f 1541 1573 1574
f 1606 1574 1573
f 1573 1605 1606
f 1638 1606 1605
f 1605 1637 1638
f 1670 1638 1637
f 1637 1669 1670
f 1702 1670 1669
f 1669 1701 1702
f 1734 1702 1701
f 1701 1733 1734
f 1766 1734 1733
f 1733 1765 1766
f 807 775 774
f 774 806 807
f 839 807 806
f 806 838 839
f 871 839 838
f 838 870 871
f 903 871 870
f 870 902 903
f 935 903 902
f 902 934 935
f 967 935 934
f 934 966 967
f 999 967 966
f 966 998 999
f 1031 999 998
f 998 1030 1031
f 1063 1031 1030
f 1030 1062 1063
f 1095 1063 1062
f 1062 1094 1095
f 1127 1095 1094
f 1094 1126 1127
f 1159 1127 1126
f 1126 1158 1159
f 1191 1159 1158
f 1158 1190 1191
f 1223 1191 1190
f 1190 1222 1223
f 1255 1223 1222
f 1222 1254 1255
f 1287 1255 1254
f 1254 1286 1287
f 1319 1287 1286
f 1286 1318 1319
f 1351 1319 1318
f 1318 1350 1351
f 1383 1351 1350
f 1350 1382 1383
f 1415 1383 1382
f 1382 1414 1415
f 1447 1415 1414
f 1414 1446 1447
f 1479 1447 1446
f 1446 1478 1479
f 1511 1479 1478
f 1478 1510 1511
f 1543 1511 1510
f 1510 1542 1543
f 1575 1543 1542
f 1542 1574 1575
f 1607 1575 1574
f 1574 1606 1607
f 1639 1607 1606
f 1606 1638 1639
f 1671 1639 1638
f 1638 1670 1671
f 1703 1671 1670
f 1670 1702 1703
f 1735 1703 1702
f 1702 1734 1735
f 1767 1735 1734
f 1734 1766 1767
f 808 776 775
f 775 807 808
f 840 808 807
f 807 839 840
f 872 840 839
f 839 871 872
f 904 872 871
f 871 903 904
f 936 904 903
f 903 935 936
f 968 936 935
f 935 967 968
f 1000 968 967
f 967 999 1000
f 1032 1000 999
f 999 1031 1032
f 1064 1032 1031
f 1031 1063 1064
f 1096 1064 1063
f 1063 1095 1096
f 1128 1096 1095
f 1095 1127 1128
f 1160 1128 1127
f 1127 1159 1160
f 1192 1160 1159
f 1159 1191 1192
f 1224 1192 1191
f 1191 1223 1224
f 1256 1224 1223
f 1223 1255 1256
f 1288 1256 1255
f 1255 1287 1288
f 1320 1288 1287
f 1287 1319 1320
f 1352 1320 1319
f 1319 1351 1352
f 1384 1352 1351
f 1351 1383 1384
f 1416 1384 1383
f 1383 1415 1416
f 1448 1416 1415
f 1415 1447 1448
f 1480 1448 1447
f 1447 1479 1480
f 1512 1480 1479
f 1479 1511 1512
f 1544 1512 1511
f 1511 1543 1544
f 1576 1544 1543
f 1543 1575 1576
f 1608 1576 1575
f 1575 1607 1608
f 1640 1608 1607
f 1607 1639 1640
f 1672 1640 1639
f 1639 1671 1672
f 1704 1672 1671
f 1671 1703 1704
f 1736 1704 1703
f 1703 1735 1736
f 1768 1736 1735
f 1735 1767 1768
f 809 777 776
f 776 808 809
f 841 809 808
f 808 840 841
f 873 841 840
f 840 872 873
f 905 873 872
f 872 904 905
f 937 905 904
f 904 936 937
f 969 937 936
f 936 968 969
f 1001 969 968
f 968 1000 1001
f 1033 1001 1000
f 1000 1032 1033
f 1065 1033 1032
f 1032 1064 1065
f 1097 1065 1064
f 1064 1096 1097
f 1129 1097 1096
f 1096 1128 1129
f 1161 1129 1128
f 1128 1160 1161
f 1193 1161 1160
f 1160 1192 1193
f 1225 1193 1192
f 1192 1224 1225
f 1257 1225 1224
f 1224 1256 1257
f 1289 1257 1256
f 1256 1288 1289
f 1321 1289 1288
f 1288 1320 1321
f 1353 1321 1320
f 1320 1352 1353
f 1385 1353 1352
f 1352 1384 1385
f 1417 1385 1384
f 1384 1416 1417
f 1449 1417 1416
f 1416 1448 1449
f 1481 1449 1448
f 1448 1480 1481
f 1513 1481 1480
f 1480 1512 1513
f 1545 1513 1512
f 1512 1544 1545
f 1577 1545 1544
f 1544 1576 1577
f 1609 1577 1576
f 1576 1608 1609
f 1641 1609 1608
f 1608 1640 1641
f 1673 1641 1640
f 1640 1672 1673
f 1705 1673 1672
f 1672 1704 1705
f 1737 1705 1704
f 1704 1736 1737
f 1769 1737 1736
f 1736 1768 1769
