v 2311.54 32.4491 -3263.3
v 2310.84 32.4491 -3262.59
v 2311.54 36.7408 -3263.3
v 2310.84 36.7408 -3262.59
v 2310.84 36.7408 -3264.01
v 2310.13 36.7408 -3263.3
v 2310.84 32.4491 -3264.01
v 2310.13 32.4491 -3263.3
v 2310.13 36.7408 -3263.3
v 2310.84 36.7408 -3262.59
v 2310.13 32.4491 -3263.3
v 2310.84 32.4491 -3262.59
v 2310.84 36.7408 -3264.01
v 2310.84 32.4491 -3264.01
v 2311.54 36.7408 -3263.3
v 2311.54 32.4491 -3263.3
v 2311.54 36.7408 -3263.3
v 2310.84 36.7408 -3262.59
v 2310.84 36.7408 -3264.01
v 2310.13 36.7408 -3263.3
v 2316.26 32.8529 -3268
v 2315.55 32.8529 -3267.3
v 2316.26 41.1 -3268
v 2315.55 41.1 -3267.3
v 2315.55 41.1 -3268.71
v 2314.85 41.1 -3268
v 2315.55 32.8529 -3268.71
v 2314.85 32.8529 -3268
v 2314.85 41.1 -3268
v 2315.55 41.1 -3267.3
v 2314.85 32.8529 -3268
v 2315.55 32.8529 -3267.3
v 2315.55 41.1 -3268.71
v 2315.55 32.8529 -3268.71
v 2316.26 41.1 -3268
v 2316.26 32.8529 -3268
v 2316.26 41.1 -3268
v 2315.55 41.1 -3267.3
v 2315.55 41.1 -3268.71
v 2314.85 41.1 -3268
v 2306.74 32.4564 -3258.56
v 2306.03 32.4564 -3257.85
v 2306.74 40.7035 -3258.56
v 2306.03 40.7035 -3257.85
v 2306.03 40.7035 -3259.26
v 2305.32 40.7035 -3258.56
v 2306.03 32.4564 -3259.26
v 2305.32 32.4564 -3258.56
v 2305.32 40.7035 -3258.56
v 2306.03 40.7035 -3257.85
v 2305.32 32.4564 -3258.56
v 2306.03 32.4564 -3257.85
v 2306.03 40.7035 -3259.26
v 2306.03 32.4564 -3259.26
v 2306.74 40.7035 -3258.56
v 2306.74 32.4564 -3258.56
v 2306.74 40.7035 -3258.56
v 2306.03 40.7035 -3257.85
v 2306.03 40.7035 -3259.26
v 2305.32 40.7035 -3258.56
v 2316.51 34.2664 -3248.82
v 2315.8 34.2664 -3248.12
v 2316.51 38.5581 -3248.82
v 2315.8 38.5581 -3248.12
v 2315.8 38.5581 -3249.53
v 2315.09 38.5581 -3248.82
v 2315.8 34.2664 -3249.53
v 2315.09 34.2664 -3248.82
v 2315.09 38.5581 -3248.82
v 2315.8 38.5581 -3248.12
v 2315.09 34.2664 -3248.82
v 2315.8 34.2664 -3248.12
v 2315.8 38.5581 -3249.53
v 2315.8 34.2664 -3249.53
v 2316.51 38.5581 -3248.82
v 2316.51 34.2664 -3248.82
v 2316.51 38.5581 -3248.82
v 2315.8 38.5581 -3248.12
v 2315.8 38.5581 -3249.53
v 2315.09 38.5581 -3248.82
v 2322.19 30.9378 -3271.38
v 2322.44 30.7643 -3271.12
v 2322.65 30.8206 -3270.92
v 2322.64 30.6303 -3270.92
v 2321.28 33.6296 -3272.29
v 2320.82 34.0838 -3272.74
v 2320.1 33.0937 -3273.46
v 2320.37 34.003 -3273.2
v 2324.25 34.6303 -3268.96
v 2323.98 34.1962 -3269.37
v 2324.36 34.2676 -3268.99
v 2324.89 30.6303 -3268.68
v 2323.05 30.9522 -3270.51
v 2323.22 31.3709 -3270.34
v 2323.54 31.6811 -3270.03
v 2323.54 31.9426 -3270.02
v 2324.89 33.2789 -3268.68
v 2323.7 32.7507 -3269.87
v 2323.78 33.2264 -3269.72
v 2323.89 33.5139 -3269.58
v 2329.95 30.6303 -3263.61
v 2330.08 31.5293 -3263.48
v 2329.86 31.4555 -3263.71
v 2328.42 30.6303 -3265.14
v 2329.26 31.8412 -3264.3
v 2328.46 31.5975 -3265.11
v 2320.8 30.6303 -3272.77
v 2322.02 31.4807 -3271.54
v 2321.85 31.6752 -3271.72
v 2321.74 31.8277 -3271.82
v 2319.9 32.4452 -3273.66
v 2319.76 32.1211 -3273.8
v 2319.57 31.8004 -3274
v 2319.47 31.4341 -3274.1
v 2319.23 30.6303 -3274.33
v 2319.23 31.176 -3274.33
v 2321.46 32.3017 -3272.1
v 2319.99 32.8837 -3273.58
v 2321.4 33.0463 -3272.17
v 2321.33 33.4723 -3272.24
v 2327.32 32.1997 -3266.24
v 2327.65 32.1068 -3265.91
v 2327.46 32.3711 -3266.1
v 2327.62 32.4671 -3265.94
v 2330.47 31.1039 -3263.1
v 2330.54 30.7619 -3263.02
v 2330.54 30.6303 -3263.02
v 2330.24 31.3077 -3263.32
v 2330.14 31.4888 -3263.43
v 2330.19 31.176 -3262.67
v 2330.46 31.113 -3262.94
v 2330.19 30.6303 -3262.67
v 2330.54 30.7619 -3263.02
v 2330.54 30.6303 -3263.02
v 2328 31.6152 -3265.56
v 2327.05 30.6303 -3266.52
v 2327.21 32.1074 -3266.36
v 2327.08 31.9528 -3266.48
v 2327.02 31.6878 -3266.55
v 2327.01 31.3685 -3266.55
v 2326.95 31.0171 -3266.62
v 2326.69 30.6303 -3266.87
v 2325.56 33.3119 -3268
v 2326.15 32.9655 -3267.42
v 2326.62 32.742 -3266.94
v 2326.79 32.4392 -3266.77
v 2326.95 31.3864 -3266.62
v 2326.95 31.7067 -3266.62
v 2326.85 32.3545 -3266.72
v 2326.91 32.2248 -3266.66
v 2326.97 31.9914 -3266.59
v 2326.1 33.4021 -3267.17
v 2325.9 34.0666 -3267.28
v 2326.15 32.9655 -3267.42
v 2324.89 33.2789 -3268.68
v 2325.56 33.3119 -3268
v 2324.81 34.6303 -3268.42
v 2325.38 34.6303 -3267.8
v 2326.62 32.742 -3266.94
v 2324.46 34.6303 -3268.66
v 2324.36 34.2676 -3268.99
v 2324.25 34.6303 -3268.96
v 2329.66 32.2752 -3263.8
v 2329 32.4394 -3264.25
v 2329.26 31.8412 -3264.3
v 2329.86 31.4555 -3263.71
v 2330.08 31.5293 -3263.48
v 2328 31.6152 -3265.56
v 2328.13 33.0979 -3265.11
v 2327.69 32.5609 -3265.67
v 2328.62 33.0593 -3264.6
v 2328.46 31.5975 -3265.11
v 2327.65 32.1068 -3265.91
v 2327.62 32.4671 -3265.94
v 2326.91 32.2248 -3266.66
v 2326.97 31.9914 -3266.59
v 2327.03 32.1621 -3266.46
v 2326.98 31.9567 -3266.51
v 2327.21 32.1074 -3266.36
v 2327.08 31.9528 -3266.48
v 2326.94 31.6905 -3266.54
v 2327.02 31.6878 -3266.55
v 2326.95 31.7067 -3266.62
v 2326.94 31.6905 -3266.54
v 2326.95 31.3555 -3266.54
v 2327.01 31.3685 -3266.55
v 2326.95 31.3555 -3266.54
v 2326.95 31.3864 -3266.62
v 2326.95 31.0171 -3266.62
v 2326.95 31.0171 -3266.62
v 2330.19 30.6303 -3262.67
v 2328.39 30.6303 -3264.47
v 2330.19 31.176 -3262.67
v 2330.11 31.2372 -3262.74
v 2329.74 31.4453 -3263.12
v 2329.36 31.9905 -3263.5
v 2329.01 32.3642 -3263.85
v 2328.81 32.4233 -3264.05
v 2326.81 32.1342 -3266.05
v 2327.4 32.5213 -3265.45
v 2327.87 33.0764 -3264.98
v 2328.47 33.039 -3264.39
v 2322.33 30.6303 -3270.52
v 2322.55 30.8511 -3270.31
v 2324.53 30.6303 -3268.32
v 2322.79 30.975 -3270.07
v 2318.88 30.6303 -3273.98
v 2319.23 31.176 -3274.33
v 2318.88 31.0017 -3273.98
v 2318.96 31.176 -3274.07
v 2319.23 30.6303 -3274.33
v 2319.43 32.5156 -3273.43
v 2319.66 31.8001 -3273.2
v 2319.28 32.0956 -3273.58
v 2319.29 31.536 -3273.57
v 2319.16 31.243 -3273.7
v 2320.58 31.5745 -3272.28
v 2325.21 34.6303 -3267.65
v 2325.08 34.0105 -3267.77
v 2324.53 34.6303 -3268.32
v 2326.03 31.7242 -3266.83
v 2326.83 30.6303 -3266.03
v 2326.48 32.0694 -3266.38
v 2320.62 30.6303 -3272.23
v 2318.88 30.6303 -3273.98
v 2318.88 31.0017 -3273.98
v 2321 32.2547 -3271.85
v 2321.2 32.1831 -3271.66
v 2321.55 31.6968 -3271.31
v 2323.26 31.8111 -3269.59
v 2325.35 32.4451 -3267.51
v 2323.4 32.7341 -3269.46
v 2323.64 33.4529 -3269.22
v 2325.25 33.5247 -3267.6
v 2323.67 33.7532 -3269.19
v 2323.82 34.1207 -3269.03
v 2323.92 34.4544 -3268.94
v 2324.04 34.6303 -3268.82
v 2322.09 30.6303 -3270.77
v 2321.86 30.9242 -3270.99
v 2321.8 31.1414 -3271.06
v 2326.81 32.1342 -3266.05
v 2326.48 32.0694 -3266.38
v 2326.55 32.4009 -3266.56
v 2325.83 34.0107 -3267.22
v 2326.01 33.3809 -3267.09
v 2325.25 33.5247 -3267.6
v 2325.35 32.4451 -3267.51
v 2326.03 31.7242 -3266.83
v 2325.21 34.6303 -3267.65
v 2325.51 34.3747 -3267.5
v 2325.08 34.0105 -3267.77
v 2319.43 32.5156 -3273.43
v 2319.95 33.0909 -3273.2
v 2319.66 31.8001 -3273.2
v 2320.58 31.5745 -3272.28
v 2321 32.2547 -3271.85
v 2321.14 33.5874 -3272.04
v 2320.72 34.0746 -3272.53
v 2320.26 33.995 -3273.02
v 2321.23 32.7593 -3271.76
v 2321.2 32.1831 -3271.66
v 2324.53 34.6303 -3268.32
v 2324.81 34.6303 -3268.42
v 2325.21 34.6303 -3267.65
v 2325.38 34.6303 -3267.8
v 2324.46 34.6303 -3268.66
v 2324.04 34.6303 -3268.82
v 2324.25 34.6303 -3268.96
v 2329.87 31.5131 -3263.21
v 2329.71 31.9299 -3263.46
v 2330.08 31.5293 -3263.48
v 2329.66 32.2752 -3263.8
v 2329.52 32.2019 -3263.59
v 2328.81 32.4233 -3264.05
v 2329.66 32.2752 -3263.8
v 2329.01 32.3642 -3263.85
v 2329.52 32.2019 -3263.59
v 2329 32.4394 -3264.25
v 2328.62 33.0593 -3264.6
v 2329 32.4394 -3264.25
v 2328.47 33.039 -3264.39
v 2328.81 32.4233 -3264.05
v 2327.87 33.0764 -3264.98
v 2328.13 33.0979 -3265.11
v 2328.47 33.039 -3264.39
v 2328.62 33.0593 -3264.6
v 2328.13 33.0979 -3265.11
v 2327.87 33.0764 -3264.98
v 2327.69 32.5609 -3265.67
v 2327.4 32.5213 -3265.45
v 2327.62 32.4671 -3265.94
v 2323.89 33.5139 -3269.58
v 2323.49 33.0273 -3269.59
v 2323.78 33.2264 -3269.72
v 2323.48 32.7148 -3269.87
v 2323.35 32.7381 -3269.71
v 2323.64 33.4529 -3269.22
v 2323.32 31.8654 -3270.04
v 2323.23 31.9577 -3269.87
v 2323.19 31.5231 -3270.14
v 2322.79 30.975 -3270.07
v 2323.22 31.3709 -3270.34
v 2323.05 30.9522 -3270.51
v 2322.48 30.8564 -3270.53
v 2322.55 30.8511 -3270.31
v 2322.65 30.8206 -3270.92
v 2322.44 30.8272 -3270.66
v 2322.19 30.9378 -3271.38
v 2321.98 30.9292 -3271.14
v 2322.19 30.8885 -3270.94
v 2321.14 33.5874 -3272.04
v 2320.72 34.0746 -3272.53
v 2321.28 33.6296 -3272.29
v 2320.82 34.0838 -3272.74
v 2320.72 34.0746 -3272.53
v 2320.26 33.995 -3273.02
v 2320.82 34.0838 -3272.74
v 2320.37 34.003 -3273.2
v 2320.1 33.0937 -3273.46
v 2320.37 34.003 -3273.2
v 2319.95 33.0909 -3273.2
v 2320.26 33.995 -3273.02
v 2319.43 32.5156 -3273.43
v 2319.65 32.4883 -3273.67
v 2319.82 32.6746 -3273.61
v 2319.99 32.8837 -3273.58
v 2319.55 32.1931 -3273.82
v 2319.31 31.757 -3273.74
v 2319.57 31.8004 -3274
v 2319.47 31.4341 -3274.1
v 2319.28 31.4648 -3273.88
v 2319.28 32.0956 -3273.58
v 2318.96 31.176 -3274.07
v 2319.23 31.176 -3274.33
v 2326.55 32.4009 -3266.56
v 2326.01 33.3809 -3267.09
v 2326.79 32.4392 -3266.77
v 2326.62 32.742 -3266.94
v 2326.1 33.4021 -3267.17
v 2325.9 34.0666 -3267.28
v 2326.1 33.4021 -3267.17
v 2325.83 34.0107 -3267.22
v 2326.01 33.3809 -3267.09
v 2325.21 34.6303 -3267.65
v 2325.38 34.6303 -3267.8
v 2325.51 34.3747 -3267.5
v 2325.9 34.0666 -3267.28
v 2325.83 34.0107 -3267.22
v 2322.19 30.9378 -3271.38
v 2321.98 30.9292 -3271.14
v 2321.74 31.631 -3271.3
v 2321.8 31.1414 -3271.06
v 2321.23 32.7593 -3271.76
v 2321.45 32.1466 -3271.65
v 2321.2 32.1831 -3271.66
v 2321.74 31.631 -3271.3
v 2321.55 31.6968 -3271.31
v 2321.8 31.1414 -3271.06
v 2323.49 33.0273 -3269.59
v 2323.64 33.4529 -3269.22
v 2323.4 32.7341 -3269.46
v 2322.79 30.975 -3270.07
v 2323.23 31.9577 -3269.87
v 2323.26 31.8111 -3269.59
v 2323.35 32.7381 -3269.71
v 2319.31 31.757 -3273.74
v 2319.28 32.0956 -3273.58
v 2319.29 31.536 -3273.57
v 2319.28 31.4648 -3273.88
v 2319.16 31.243 -3273.7
v 2318.96 31.176 -3274.07
v 2318.88 31.0017 -3273.98
v 2329.01 32.3642 -3263.85
v 2329.52 32.2019 -3263.59
v 2329.36 31.9905 -3263.5
v 2329.71 31.9299 -3263.46
v 2330.19 31.176 -3262.67
v 2330.11 31.2372 -3262.74
v 2330.08 31.376 -3263.06
v 2329.74 31.4453 -3263.12
v 2329.87 31.5131 -3263.21
v 2323.78 33.2264 -3269.72
v 2323.48 32.7148 -3269.87
v 2323.7 32.7507 -3269.87
v 2323.32 31.8654 -3270.04
v 2323.54 31.9426 -3270.02
v 2323.19 31.5231 -3270.14
v 2323.54 31.6811 -3270.03
v 2323.22 31.3709 -3270.34
v 2323.87 34.2861 -3269.1
v 2324.25 34.6303 -3268.96
v 2323.92 34.4544 -3268.94
v 2324.04 34.6303 -3268.82
v 2323.98 34.1962 -3269.37
v 2323.75 34.0791 -3269.23
v 2323.67 33.7532 -3269.19
v 2323.87 34.2861 -3269.1
v 2323.92 34.4544 -3268.94
v 2323.82 34.1207 -3269.03
v 2323.75 34.0791 -3269.23
v 2323.67 33.7532 -3269.19
v 2321.86 30.9242 -3270.99
v 2322.55 30.8511 -3270.31
v 2322.33 30.6303 -3270.52
v 2322.48 30.8564 -3270.53
v 2322.44 30.8272 -3270.66
v 2322.09 30.6303 -3270.77
v 2321.98 30.9292 -3271.14
v 2322.19 30.8885 -3270.94
v 2322.09 30.6303 -3270.77
v 2322.28 30.6303 -3270.72
v 2321.37 33.1236 -3272.07
v 2321.33 33.4723 -3272.24
v 2321.42 32.7658 -3271.97
v 2321.23 32.7593 -3271.76
v 2321.45 32.1466 -3271.65
v 2321.54 32.2143 -3271.83
v 2321.88 31.7223 -3271.53
v 2322.02 31.4807 -3271.54
v 2321.37 33.1236 -3272.07
v 2321.33 33.4723 -3272.24
v 2321.4 33.0463 -3272.17
v 2321.85 31.6752 -3271.72
v 2321.88 31.7223 -3271.53
v 2321.74 31.8277 -3271.82
v 2321.54 32.2143 -3271.83
v 2321.46 32.3017 -3272.1
v 2322.02 31.4807 -3271.54
v 2321.42 32.7658 -3271.97
v 2321.37 33.1236 -3272.07
v 2321.4 33.0463 -3272.17
v 2319.82 32.6746 -3273.61
v 2319.9 32.4452 -3273.66
v 2319.99 32.8837 -3273.58
v 2319.65 32.4883 -3273.67
v 2319.76 32.1211 -3273.8
v 2319.55 32.1931 -3273.82
v 2319.57 31.8004 -3274
v 2326.55 32.4009 -3266.56
v 2326.9 32.1914 -3266.31
v 2326.81 32.1342 -3266.05
v 2326.81 32.1342 -3266.05
v 2327.09 32.1786 -3266.25
v 2327.26 32.2852 -3266.17
v 2327.46 32.3711 -3266.1
v 2326.91 32.2248 -3266.66
v 2327.21 32.1074 -3266.36
v 2327.32 32.1997 -3266.24
v 2327.03 32.1621 -3266.46
v 2327.21 32.1074 -3266.36
v 2330.08 31.376 -3263.06
v 2330.38 31.2475 -3263.03
v 2330.19 31.176 -3262.67
v 2330.46 31.113 -3262.94
v 2330.24 31.3077 -3263.32
v 2330.46 31.113 -3262.94
v 2330.47 31.1039 -3263.1
v 2330.54 30.7619 -3263.02
v 2330.24 31.3077 -3263.32
v 2330.38 31.2475 -3263.03
v 2326.85 32.3545 -3266.72
v 2326.91 32.2248 -3266.66
v 2330.14 31.4888 -3263.43
v 2322.85 30.6303 -3269.63
v 2322.61 30.8596 -3269.87
v 2322.87 30.6303 -3269.99
v 2322.28 30.6303 -3270.2
v 2322.34 30.8596 -3270.14
v 2322.19 30.6303 -3269.89
v 2322.25 30.8301 -3269.99
v 2322.5 30.8596 -3269.98
v 2322.52 30.6303 -3270.32
v 2322.44 30.6303 -3269.7
v 2325.66 30.7042 -3266.38
v 2325.62 30.8353 -3266.61
v 2325.79 30.7042 -3266.54
v 2325.58 30.7042 -3266.83
v 2325.62 30.8353 -3266.75
v 2325.43 30.7042 -3266.71
v 2325.52 30.8184 -3266.71
v 2325.73 30.7042 -3266.81
v 2325.49 30.7042 -3266.54
v 2325.47 30.6303 -3266.69
v 2325.59 30.6303 -3266.79
v 2325.71 30.6303 -3266.77
v 2325.76 30.6303 -3266.55
v 2325.65 30.6303 -3266.42
v 2325.52 30.6303 -3266.55
v 2327 30.7706 -3265.56
v 2326.91 30.7706 -3265.5
v 2326.88 30.7706 -3265.66
v 2326.87 30.7706 -3265.57
v 2327.02 30.6396 -3265.72
v 2327.24 30.6396 -3265.52
v 2327.16 30.6396 -3265.41
v 2326.91 30.6396 -3265.29
v 2326.75 30.6396 -3265.5
v 2326.77 30.6396 -3265.66
v 2326.84 30.6396 -3265.78
v 2327.69 30.6303 -3265.17
v 2326.96 30.6303 -3265.6
v 2327.22 30.7866 -3265.64
v 2324.49 30.6303 -3268.36
v 2325.03 30.7287 -3267.83
v 2324.67 30.6303 -3267.81
v 2325.62 30.6303 -3266.93
v 2325.5 30.8232 -3267.36
v 2326.26 30.9102 -3266.6
v 2326.02 30.6303 -3266.26
v 2326.89 30.7529 -3265.97
v 2326.6 30.6303 -3265.83
v 2325.79 30.6641 -3266.34
v 2325.91 30.7321 -3266.42
v 2325.87 30.6678 -3266.27
v 2325.89 30.6752 -3266.51
v 2325.99 30.6729 -3266.46
v 2326.01 30.6701 -3266.37
v 2325.81 30.6733 -3266.44
v 2325.88 30.6303 -3266.49
v 2325.96 30.6285 -3266.44
v 2325.98 30.6262 -3266.37
v 2325.87 30.6243 -3266.3
v 2325.81 30.6203 -3266.36
v 2325.82 30.6288 -3266.43
v 2321.94 30.6303 -3270.92
v 2321.45 30.6303 -3271.11
v 2321.67 30.7292 -3271.19
v 2320.09 30.6303 -3272.77
v 2320.4 30.6925 -3272.46
v 2320.11 30.6303 -3272.37
v 2320.32 30.6303 -3272.13
v 2321.11 30.8074 -3271.75
v 2320.68 30.6303 -3271.87
v 2320.85 30.6303 -3271.43
v 2321.47 30.7078 -3271.39
v 2321.22 30.6303 -3271.21
v 2323.86 30.6303 -3269.71
v 2323.59 30.7292 -3269.98
v 2323.67 30.6303 -3270.19
v 2322.01 30.6303 -3271.55
v 2322.41 30.6303 -3271.53
v 2322.59 30.7524 -3270.97
v 2322.65 30.6303 -3271.32
v 2322.91 30.6303 -3270.97
v 2323.03 30.8074 -3270.53
v 2323.35 30.6303 -3270.8
v 2323.39 30.7078 -3270.17
v 2323.57 30.6303 -3270.43
v 2328.1 30.6303 -3265.76
v 2328.43 30.6303 -3265.14
v 2327.77 30.7078 -3265.8
v 2325.83 30.6303 -3267.74
v 2326.31 30.6303 -3267.63
v 2326.26 30.6925 -3267.3
v 2326.64 30.6303 -3267.33
v 2327.26 30.8074 -3266.3
v 2327.02 30.6303 -3266.85
v 2327.59 30.6303 -3266.56
v 2327.93 30.6303 -3266.07
v 2327.31 30.7042 -3266.78
v 2327.1 30.8353 -3266.89
v 2327.26 30.7042 -3266.98
v 2326.9 30.7042 -3266.99
v 2326.98 30.8353 -3266.98
v 2326.91 30.7042 -3266.8
v 2326.96 30.8184 -3266.88
v 2327.01 30.7042 -3267.1
v 2327.08 30.7042 -3266.75
v 2326.94 30.6303 -3266.82
v 2326.94 30.6303 -3266.97
v 2327.03 30.6303 -3267.06
v 2327.23 30.6303 -3266.96
v 2327.27 30.6303 -3266.8
v 2327.08 30.6303 -3266.77
v 2327.24 30.6752 -3266.63
v 2327.36 30.735 -3266.71
v 2327.32 30.6798 -3266.56
v 2327.34 30.6737 -3266.8
v 2327.44 30.6713 -3266.74
v 2327.46 30.6726 -3266.65
v 2327.26 30.6784 -3266.72
v 2327.33 30.6303 -3266.77
v 2327.41 30.6284 -3266.73
v 2327.43 30.6294 -3266.66
v 2327.32 30.6352 -3266.58
v 2327.26 30.6299 -3266.64
v 2327.27 30.6341 -3266.71
v 2322.24 31.0331 -3270.59
v 2322.35 31.118 -3270.8
v 2322.39 31.018 -3270.72
v 2321.69 30.6303 -3270.43
v 2321.74 30.7332 -3270.47
v 2321.77 30.8517 -3270.38
v 2321.77 30.8957 -3270.55
v 2321.98 30.8463 -3270.15
v 2321.84 30.7503 -3270.28
v 2321.9 30.8592 -3270.28
v 2321.9 30.8592 -3270.28
v 2321.77 30.8517 -3270.38
v 2321.69 30.6303 -3270.43
v 2322.22 31.1457 -3271.04
v 2322.14 31.094 -3270.93
v 2322.16 31.0985 -3271.06
v 2321.77 30.8957 -3270.55
v 2321.89 30.8734 -3270.69
v 2321.94 30.9738 -3270.67
v 2322.16 31.0985 -3271.06
v 2322.14 31.094 -3270.93
v 2322.08 31.0429 -3270.95
v 2322.05 31.0374 -3270.8
v 2322.04 30.9202 -3270.9
v 2322.16 30.6675 -3270.1
v 2322.11 30.8566 -3270.05
v 2322.24 30.9254 -3270.19
v 2322.22 30.9743 -3270.39
v 2322.3 30.9033 -3270.38
v 2322.4 31.148 -3270.94
v 2326.57 30.8183 -3265.78
v 2326.65 30.8324 -3265.98
v 2326.68 30.7575 -3265.78
v 2326.7 30.7376 -3265.96
v 2326.2 30.7206 -3265.53
v 2326 30.6303 -3265.7
v 2326.05 30.7029 -3265.75
v 2326.39 30.7893 -3265.38
v 2326.28 30.8017 -3265.53
v 2326.13 30.8128 -3265.67
v 2326.09 30.8241 -3265.81
v 2326.47 30.8533 -3266.24
v 2326.41 30.8467 -3266.15
v 2326.41 30.7932 -3266.29
v 2326.33 30.8123 -3266.18
v 2326.11 30.8268 -3265.85
v 2326.17 30.7545 -3265.94
v 2326.25 30.8313 -3265.93
v 2326.34 30.839 -3266.04
v 2326.29 30.7236 -3266.12
v 2326.54 30.6394 -3265.27
v 2326.39 30.7893 -3265.38
v 2326.54 30.7792 -3265.26
v 2326.65 30.787 -3265.37
v 2326.59 30.8033 -3265.58
v 2326.66 30.7218 -3265.54
v 2326.64 30.8435 -3266.13
v 2326.71 30.807 -3266.08
v 2326.41 30.6405 -3266.3
v 2326.71 30.6456 -3266.09
v 2326.41 30.7932 -3266.29
v 2326.47 30.8533 -3266.24
v 2326.64 30.8435 -3266.13
v 2326.71 30.807 -3266.08
v 2322.4 31.148 -3270.94
v 2322.48 30.9786 -3270.96
v 2322.39 31.018 -3270.72
v 2322.29 30.7362 -3270.24
v 2322.3 30.9033 -3270.38
v 2322.24 30.9254 -3270.19
v 2322.16 30.6675 -3270.1
v 2322.11 30.8566 -3270.05
v 2321.69 30.6303 -3270.43
v 2322.22 30.9505 -3271.12
v 2321.74 30.7332 -3270.47
v 2322.16 31.0985 -3271.06
v 2322.08 31.0429 -3270.95
v 2322.04 30.9202 -3270.9
v 2321.89 30.8734 -3270.69
v 2321.77 30.8957 -3270.55
v 2322.16 31.0985 -3271.06
v 2322.22 30.9505 -3271.12
v 2322.22 31.1457 -3271.04
v 2322.48 30.9786 -3270.96
v 2322.4 31.148 -3270.94
v 2326.65 30.787 -3265.37
v 2326.66 30.7218 -3265.54
v 2326.65 30.6418 -3265.39
v 2326.71 30.6456 -3266.09
v 2326.68 30.7575 -3265.78
v 2326.7 30.7376 -3265.96
v 2326.71 30.807 -3266.08
v 2326.54 30.6394 -3265.27
v 2326.54 30.7792 -3265.26
v 2326 30.6303 -3265.7
v 2326.41 30.6405 -3266.3
v 2326.05 30.7029 -3265.75
v 2326.41 30.7932 -3266.29
v 2326.33 30.8123 -3266.18
v 2326.29 30.7236 -3266.12
v 2326.17 30.7545 -3265.94
v 2326.11 30.8268 -3265.85
v 2326.09 30.8241 -3265.81
v 2321.69 30.6303 -3270.43
v 2322.16 30.6675 -3270.1
v 2322.22 30.9505 -3271.12
v 2322.29 30.7362 -3270.24
v 2322.48 30.9786 -3270.96
v 2322.22 31.1457 -3271.04
v 2322.4 31.148 -3270.94
v 2322.14 31.094 -3270.93
v 2322.35 31.118 -3270.8
v 2322.24 31.0331 -3270.59
v 2322.05 31.0374 -3270.8
v 2321.94 30.9738 -3270.67
v 2322.22 30.9743 -3270.39
v 2322.11 30.8566 -3270.05
v 2321.98 30.8463 -3270.15
v 2322.24 30.9254 -3270.19
v 2321.9 30.8592 -3270.28
v 2321.77 30.8957 -3270.55
v 2321.77 30.8517 -3270.38
v 2326.41 30.6405 -3266.3
v 2326 30.6303 -3265.7
v 2326.71 30.6456 -3266.09
v 2326.54 30.6394 -3265.27
v 2326.65 30.6418 -3265.39
v 2326.47 30.8533 -3266.24
v 2326.64 30.8435 -3266.13
v 2326.41 30.8467 -3266.15
v 2326.54 30.7792 -3265.26
v 2326.39 30.7893 -3265.38
v 2326.65 30.787 -3265.37
v 2326.59 30.8033 -3265.58
v 2326.28 30.8017 -3265.53
v 2326.57 30.8183 -3265.78
v 2326.13 30.8128 -3265.67
v 2326.09 30.8241 -3265.81
v 2326.11 30.8268 -3265.85
v 2326.25 30.8313 -3265.93
v 2326.34 30.839 -3266.04
v 2326.65 30.8324 -3265.98
v 2318.72 33.5848 -3261.63
v 2318.02 33.5848 -3260.92
v 2318.72 35.7848 -3261.63
v 2318.02 35.7848 -3260.92
v 2318.02 35.7848 -3262.34
v 2317.31 35.7848 -3261.63
v 2318.02 33.5848 -3262.34
v 2317.31 33.5848 -3261.63
v 2317.31 35.7848 -3261.63
v 2318.02 35.7848 -3260.92
v 2317.31 33.5848 -3261.63
v 2318.02 33.5848 -3260.92
v 2318.02 35.7848 -3262.34
v 2318.02 33.5848 -3262.34
v 2318.72 35.7848 -3261.63
v 2318.72 33.5848 -3261.63
v 2318.72 35.7848 -3261.63
v 2318.02 35.7848 -3260.92
v 2318.02 35.7848 -3262.34
v 2317.31 35.7848 -3261.63
v 2315.08 33.5402 -3255.95
v 2314.08 33.5402 -3255.95
v 2315.08 35.7402 -3255.95
v 2314.08 35.7402 -3255.95
v 2315.08 35.7402 -3256.95
v 2314.08 35.7402 -3256.95
v 2315.08 33.5402 -3256.95
v 2314.08 33.5402 -3256.95
v 2314.08 35.7402 -3256.95
v 2314.08 35.7402 -3255.95
v 2314.08 33.5402 -3256.95
v 2314.08 33.5402 -3255.95
v 2315.08 35.7402 -3256.95
v 2315.08 33.5402 -3256.95
v 2315.08 35.7402 -3255.95
v 2315.08 33.5402 -3255.95
v 2315.08 35.7402 -3255.95
v 2314.08 35.7402 -3255.95
v 2315.08 35.7402 -3256.95
v 2314.08 35.7402 -3256.95
v 2324.44 35.6762 -3257.35
v 2324.44 35.5626 -3257.81
v 2324.44 34.4724 -3257.35
v 2324.44 35.01 -3258.22
v 2324.44 34.4724 -3258.26
v 2324.37 35.0101 -3258.35
v 2323.83 35.0572 -3258.35
v 2324.34 34.4724 -3258.35
v 2323.88 34.4724 -3258.35
v 2323.44 35.2389 -3258.35
v 2323.44 35.0932 -3258.35
v 2323.69 35.038 -3258.35
v 2323.44 34.4724 -3258.35
v 2323.62 34.4724 -3258.35
v 2323.44 36.7686 -3257.35
v 2323.44 34.4724 -3257.35
v 2323.44 36.6807 -3257.6
v 2323.44 36.4246 -3257.85
v 2323.44 35.9045 -3257.88
v 2323.44 35.3042 -3258.17
v 2323.44 34.4724 -3258.35
v 2323.44 35.0932 -3258.35
v 2323.44 35.2389 -3258.35
v 2323.68 36.6918 -3257.35
v 2323.69 36.1477 -3257.35
v 2323.44 36.7686 -3257.35
v 2323.44 34.4724 -3257.35
v 2323.73 35.0283 -3257.35
v 2324.44 34.4724 -3257.35
v 2324.16 36.0822 -3257.35
v 2324.44 35.6762 -3257.35
v 2324 36.033 -3257.35
v 2323.94 35.7517 -3257.35
v 2323.8 35.6857 -3257.35
v 2324.44 34.4724 -3258.26
v 2324.44 35.01 -3258.22
v 2324.34 34.4724 -3258.35
v 2324.37 35.0101 -3258.35
v 2323.78 34.4724 -3258.31
v 2323.88 34.4724 -3258.35
v 2323.78 35.0924 -3258.31
v 2323.83 35.0572 -3258.35
v 2323.69 35.038 -3258.35
v 2323.62 34.4724 -3258.35
v 2324.44 35.5626 -3257.81
v 2323.88 36.0286 -3257.74
v 2324.18 35.6893 -3257.89
v 2323.44 36.7686 -3257.35
v 2323.44 36.6807 -3257.6
v 2323.61 36.7425 -3257.43
v 2323.56 36.6807 -3257.6
v 2323.68 36.6918 -3257.35
v 2324.16 36.0822 -3257.35
v 2324.44 35.6762 -3257.35
v 2323.79 35.7354 -3258.02
v 2324.37 35.0101 -3258.35
v 2323.83 35.0572 -3258.35
v 2323.78 35.0924 -3258.31
v 2323.44 35.9045 -3257.88
v 2323.44 36.6807 -3257.6
v 2323.44 36.4246 -3257.85
v 2323.56 36.6807 -3257.6
v 2323.44 35.3042 -3258.17
v 2323.69 35.038 -3258.35
v 2323.78 35.0924 -3258.31
v 2323.44 35.2389 -3258.35
v 2323.44 35.3042 -3258.17
v 2324.44 35.5626 -3257.81
v 2323.73 36.7248 -3257.49
v 2323.73 36.7248 -3257.49
v 2323.77 36.1299 -3257.51
v 2323.73 36.7248 -3257.49
v 2323.88 36.0286 -3257.74
v 2323.68 36.6918 -3257.35
v 2323.69 36.1477 -3257.35
v 2323.8 35.6857 -3257.35
v 2323.69 36.1477 -3257.35
v 2323.9 35.7187 -3257.45
v 2323.9 36.0903 -3257.45
v 2323.73 35.0283 -3257.35
v 2323.94 35.7517 -3257.35
v 2323.73 35.0283 -3257.35
v 2323.9 35.7187 -3257.45
v 2323.9 36.0903 -3257.45
v 2324 36.033 -3257.35
v 2323.9 36.0903 -3257.45
v 2323.77 36.1299 -3257.51
v 2324 36.033 -3257.35
v 2323.69 36.1477 -3257.35
v 2324.69 34.4724 -3257.81
v 2324.44 34.711 -3257.64
v 2324.44 34.4724 -3258.26
v 2323.52 34.4724 -3257.35
v 2323.99 34.7685 -3257.35
v 2323.79 34.4724 -3257.02
v 2324.09 34.4724 -3256.86
v 2324.44 34.8086 -3257.35
v 2324.5 34.4724 -3256.92
v 2324.92 34.4724 -3257.19
v 2324.8 34.4724 -3257.58
v 2324.71 34.5173 -3257.04
v 2324.69 34.5219 -3257.12
v 2324.85 34.5771 -3257.14
v 2324.93 34.5134 -3257.19
v 2324.93 34.5158 -3257.11
v 2324.86 34.5147 -3257.22
v 2324.82 34.5205 -3257.05
v 2324.9 34.4724 -3257.11
v 2324.9 34.4705 -3257.18
v 2324.84 34.4715 -3257.19
v 2324.71 34.4773 -3257.11
v 2324.74 34.472 -3257.06
v 2324.81 34.4761 -3257.06
v 2324.51 34.5463 -3257.05
v 2324.64 34.5463 -3256.93
v 2324.43 34.6773 -3256.9
v 2324.35 34.5463 -3256.75
v 2324.2 34.5463 -3256.84
v 2324.41 34.6773 -3256.8
v 2324.31 34.6605 -3256.84
v 2324.52 34.5463 -3256.75
v 2324.29 34.5463 -3256.95
v 2324.24 34.4724 -3256.85
v 2324.36 34.4724 -3256.78
v 2324.51 34.4724 -3256.78
v 2324.59 34.4724 -3256.92
v 2324.5 34.4724 -3257.02
v 2324.32 34.4724 -3256.94
v 2323.79 34.4724 -3258.65
v 2323.93 34.5422 -3258.28
v 2323.44 34.4724 -3258.35
v 2324.21 34.4724 -3258.35
v 2324.11 34.4724 -3258.56
v 2323.94 34.4724 -3258.58
v 2310.13 31.694 -3260.79
v 2310.13 31.694 -3259.79
v 2318.38 31.694 -3260.79
v 2318.38 31.694 -3259.79
v 2318.38 32.694 -3260.79
v 2318.38 32.694 -3259.79
v 2310.13 32.694 -3260.79
v 2310.13 32.694 -3259.79
v 2318.38 32.694 -3259.79
v 2318.38 31.694 -3259.79
v 2310.13 32.694 -3259.79
v 2310.13 31.694 -3259.79
v 2318.38 32.694 -3260.79
v 2310.13 32.694 -3260.79
v 2318.38 31.694 -3260.79
v 2310.13 31.694 -3260.79
v 2318.38 31.694 -3260.79
v 2318.38 31.694 -3259.79
v 2318.38 32.694 -3260.79
v 2318.38 32.694 -3259.79
v 2323.78 38.4564 -3255.9
v 2323.62 38.5928 -3255.85
v 2323.75 38.5095 -3255.87
v 2323.68 38.6353 -3255.81
v 2323.78 38.4546 -3255.9
v 2323.72 38.4174 -3255.9
v 2323.47 38.3435 -3255.87
v 2323.63 38.3481 -3255.9
v 2323.65 38.3611 -3255.9
v 2323.44 38.339 -3255.82
v 2323.46 38.5925 -3255.59
v 2323.34 38.3352 -3255.8
v 2323.24 38.3894 -3255.72
v 2323.02 38.3021 -3255.82
v 2323.23 38.3248 -3255.81
v 2323.2 38.2868 -3255.51
v 2323.21 38.2835 -3255.48
v 2323.22 38.2967 -3255.47
v 2323.38 38.5006 -3255.5
v 2323.27 38.333 -3255.47
v 2323.31 38.3866 -3255.44
v 2323.54 38.6304 -3255.67
v 2323.62 38.6621 -3255.75
v 2325.24 37.7943 -3257.37
v 2325.24 38.9628 -3257.37
v 2325.17 37.7165 -3257.44
v 2324.64 37.6749 -3257.97
v 2324.57 37.7712 -3258.04
v 2325.19 39.049 -3257.42
v 2324.62 39.049 -3257.99
v 2324.57 38.9628 -3258.04
v 2321.58 37.7624 -3255.05
v 2321.58 38.9722 -3255.05
v 2321.65 37.6964 -3254.98
v 2322.18 37.685 -3254.45
v 2322.25 37.7918 -3254.38
v 2321.63 39.0583 -3255
v 2322.2 39.0583 -3254.43
v 2322.25 38.9722 -3254.38
v 2325 37.8498 -3257.27
v 2325.08 37.9406 -3257.21
v 2325.17 37.7165 -3257.44
v 2325.24 37.7943 -3257.37
v 2324.89 38.0671 -3257.02
v 2324.82 37.9813 -3257.09
v 2324.61 38.219 -3256.74
v 2324.54 38.1426 -3256.81
v 2324.33 38.3553 -3256.46
v 2324.25 38.2677 -3256.52
v 2324.04 38.4484 -3256.17
v 2323.97 38.3642 -3256.24
v 2323.68 38.3528 -3255.95
v 2323.72 38.4174 -3255.9
v 2323.78 38.4546 -3255.9
v 2323.65 38.3611 -3255.9
v 2323.65 38.3611 -3255.9
v 2323.63 38.3481 -3255.9
v 2323.27 38.333 -3255.47
v 2323.17 38.3409 -3255.29
v 2323.31 38.3866 -3255.44
v 2323.22 38.2967 -3255.47
v 2323.21 38.2835 -3255.48
v 2323.1 38.2583 -3255.37
v 2322.88 38.2397 -3255.01
v 2322.81 38.1756 -3255.08
v 2322.6 38.0775 -3254.73
v 2322.53 38.0165 -3254.8
v 2322.35 37.8745 -3254.62
v 2322.42 37.9608 -3254.54
v 2322.18 37.685 -3254.45
v 2322.25 37.7918 -3254.38
v 2324.47 37.8631 -3257.8
v 2324.64 37.6749 -3257.97
v 2324.41 37.926 -3257.88
v 2324.57 37.7712 -3258.04
v 2321.82 37.8624 -3255.15
v 2321.74 37.9594 -3255.22
v 2321.65 37.6964 -3254.98
v 2321.58 37.7624 -3255.05
v 2321.93 38.1076 -3255.4
v 2322 37.987 -3255.33
v 2322.28 38.1777 -3255.61
v 2322.21 38.2531 -3255.68
v 2322.49 38.3767 -3255.97
v 2322.57 38.2898 -3255.9
v 2322.78 38.4532 -3256.25
v 2322.85 38.3254 -3256.19
v 2323.07 38.462 -3256.55
v 2323.15 38.3863 -3256.48
v 2323.44 38.3656 -3256.77
v 2323.37 38.4503 -3256.84
v 2323.66 38.3815 -3257.13
v 2323.72 38.2994 -3257.05
v 2324.01 38.1369 -3257.34
v 2323.94 38.2336 -3257.41
v 2324.29 38.0162 -3257.62
v 2324.22 38.0708 -3257.69
v 2321.82 37.8624 -3255.15
v 2322 37.987 -3255.33
v 2322.57 38.2898 -3255.9
v 2322.28 38.1777 -3255.61
v 2323.34 38.3352 -3255.8
v 2323.15 38.3863 -3256.48
v 2323.23 38.3248 -3255.81
v 2322.85 38.3254 -3256.19
v 2323.34 38.3352 -3255.8
v 2323.44 38.339 -3255.82
v 2323.47 38.3435 -3255.87
v 2323.63 38.3481 -3255.9
v 2323.44 38.3656 -3256.77
v 2323.72 38.2994 -3257.05
v 2324.29 38.0162 -3257.62
v 2324.01 38.1369 -3257.34
v 2324.47 37.8631 -3257.8
v 2323.02 38.3021 -3255.82
v 2323.2 38.2868 -3255.51
v 2321.65 37.6964 -3254.98
v 2324.64 37.6749 -3257.97
v 2322.44 39.0849 -3254.57
v 2322.25 38.9722 -3254.38
v 2322.39 39.171 -3254.62
v 2322.2 39.0583 -3254.43
v 2321.77 39.0849 -3255.24
v 2321.82 39.171 -3255.19
v 2321.58 38.9722 -3255.05
v 2321.63 39.0583 -3255
v 2323.09 39.0861 -3255.21
v 2323.03 39.1722 -3255.27
v 2322.41 39.0861 -3255.89
v 2322.47 39.1722 -3255.83
v 2323.75 39.1692 -3255.87
v 2323.69 39.2553 -3255.93
v 2323.07 39.1692 -3256.55
v 2323.13 39.2553 -3256.49
v 2324.41 39.206 -3256.54
v 2324.35 39.2921 -3256.59
v 2323.74 39.206 -3257.21
v 2323.79 39.2921 -3257.15
v 2324.38 39.0849 -3257.85
v 2324.43 39.171 -3257.8
v 2325.05 39.0849 -3257.18
v 2325 39.171 -3257.23
v 2324.57 38.9628 -3258.04
v 2324.62 39.049 -3257.99
v 2325.24 38.9628 -3257.37
v 2325.19 39.049 -3257.42
v 2323.75 38.5095 -3255.87
v 2323.68 38.6353 -3255.81
v 2323.54 38.6304 -3255.67
v 2323.62 38.6621 -3255.75
v 2323.31 38.3866 -3255.44
v 2323.38 38.5006 -3255.5
v 2323.46 38.5925 -3255.59
v 2323.78 38.4546 -3255.9
v 2323.78 38.4564 -3255.9
v 2325.96 31.2539 -3258.06
v 2325.26 31.2539 -3257.36
v 2325.96 39.501 -3258.06
v 2325.26 39.501 -3257.36
v 2325.26 39.501 -3258.77
v 2324.55 39.501 -3258.06
v 2325.26 31.2539 -3258.77
v 2324.55 31.2539 -3258.06
v 2324.55 39.501 -3258.06
v 2325.26 39.501 -3257.36
v 2324.55 31.2539 -3258.06
v 2325.26 31.2539 -3257.36
v 2325.26 39.501 -3258.77
v 2325.26 31.2539 -3258.77
v 2325.96 39.501 -3258.06
v 2325.96 31.2539 -3258.06
v 2325.96 39.501 -3258.06
v 2325.26 39.501 -3257.36
v 2325.26 39.501 -3258.77
v 2324.55 39.501 -3258.06
v 2322.35 31.3372 -3254.47
v 2321.64 31.3372 -3253.76
v 2322.35 39.5843 -3254.47
v 2321.64 39.5843 -3253.76
v 2321.64 39.5843 -3255.17
v 2320.93 39.5843 -3254.47
v 2321.64 31.3372 -3255.17
v 2320.93 31.3372 -3254.47
v 2320.93 39.5843 -3254.47
v 2321.64 39.5843 -3253.76
v 2320.93 31.3372 -3254.47
v 2321.64 31.3372 -3253.76
v 2321.64 39.5843 -3255.17
v 2321.64 31.3372 -3255.17
v 2322.35 39.5843 -3254.47
v 2322.35 31.3372 -3254.47
v 2322.35 39.5843 -3254.47
v 2321.64 39.5843 -3253.76
v 2321.64 39.5843 -3255.17
v 2320.93 39.5843 -3254.47
v 2310.09 34.8114 -3264.77
v 2304.43 34.8114 -3259.12
v 2310.09 26.8114 -3264.77
v 2304.43 26.8114 -3259.12
v 2304.43 26.8114 -3259.12
v 2304.43 34.8114 -3259.12
v 2310.09 26.8114 -3253.46
v 2310.09 34.8114 -3253.46
v 2315.74 26.8114 -3270.43
v 2321.4 26.8114 -3264.77
v 2315.74 34.8114 -3270.43
v 2321.4 34.8114 -3264.77
v 2315.74 34.8114 -3247.8
v 2315.74 26.8114 -3247.8
v 2327.06 34.8114 -3259.12
v 2327.06 26.8114 -3259.12
v 2315.74 26.8114 -3247.8
v 2315.74 34.8114 -3247.8
v 2321.4 26.8114 -3253.46
v 2321.4 34.8114 -3253.46
v 2327.06 26.8114 -3259.12
v 2327.06 34.8114 -3259.12
v 2315.74 34.8114 -3270.43
v 2315.74 26.8114 -3270.43
v 2310.09 34.8114 -3253.46
v 2304.43 34.8114 -3259.12
v 2315.74 34.8114 -3259.12
v 2310.09 34.8114 -3264.77
v 2321.4 34.8114 -3253.46
v 2315.74 34.8114 -3247.8
v 2327.06 34.8114 -3259.12
v 2321.4 34.8114 -3264.77
v 2315.74 34.8114 -3270.43
v 2283 34.9174 -3223
v 2283 34.8189 -3225
v 2283 34.6994 -3227
v 2283 34.5676 -3229
v 2283 34.4339 -3231
v 2283 34.1791 -3233
v 2283 33.61 -3235
v 2283 33.0949 -3237
v 2283 32.9884 -3239
v 2283 32.9452 -3241
v 2283 32.8937 -3243
v 2283 32.8253 -3245
v 2283 32.7329 -3247
v 2283 32.6671 -3249
v 2283 32.9275 -3251
v 2283 33.1948 -3253
v 2283 33.1228 -3255
v 2283 32.8442 -3257
v 2283 32.5215 -3259
v 2283 32.1541 -3261
v 2283 31.7476 -3263
v 2283 31.3517 -3265
v 2283 30.9787 -3267
v 2283 30.6319 -3269
v 2283 30.3163 -3271
v 2283 30.0239 -3273
v 2283 29.6976 -3275
v 2283 28.5852 -3277
v 2283 27.4937 -3279
v 2283 27.0102 -3281
v 2283 27.1961 -3283
v 2283 27.6971 -3285
v 2285 34.9177 -3223
v 2285 34.8212 -3225
v 2285 34.7 -3227
v 2285 34.3765 -3229
v 2285 33.8033 -3231
v 2285 33.2591 -3233
v 2285 33.0543 -3235
v 2285 32.9575 -3237
v 2285 32.8828 -3239
v 2285 32.8058 -3241
v 2285 32.7193 -3243
v 2285 32.6169 -3245
v 2285 32.757 -3247
v 2285 33.0839 -3249
v 2285 33.2344 -3251
v 2285 33.0523 -3253
v 2285 32.8059 -3255
v 2285 32.5229 -3257
v 2285 32.2019 -3259
v 2285 31.8415 -3261
v 2285 31.4466 -3263
v 2285 31.0658 -3265
v 2285 30.7093 -3267
v 2285 30.3785 -3269
v 2285 30.0792 -3271
v 2285 29.7267 -3273
v 2285 28.8546 -3275
v 2285 27.6857 -3277
v 2285 26.2296 -3279
v 2285 25.4901 -3281
v 2285 26.0926 -3283
v 2285 27.1218 -3285
v 2287 34.9053 -3223
v 2287 34.569 -3225
v 2287 34.0478 -3227
v 2287 33.5546 -3229
v 2287 33.3339 -3231
v 2287 33.1814 -3233
v 2287 33.037 -3235
v 2287 32.913 -3237
v 2287 32.8042 -3239
v 2287 32.6882 -3241
v 2287 32.7087 -3243
v 2287 33.0223 -3245
v 2287 33.2635 -3247
v 2287 33.1722 -3249
v 2287 32.9653 -3251
v 2287 32.7328 -3253
v 2287 32.4731 -3255
v 2287 32.1844 -3257
v 2287 31.8655 -3259
v 2287 31.5148 -3261
v 2287 31.1363 -3263
v 2287 30.7761 -3265
v 2287 30.4419 -3267
v 2287 30.1325 -3269
v 2287 29.8489 -3271
v 2287 29.1078 -3273
v 2287 28.1125 -3275
v 2287 26.8433 -3277
v 2287 25.4008 -3279
v 2287 24.0236 -3281
v 2287 24.902 -3283
v 2287 26.3803 -3285
v 2289 34.265 -3223
v 2289 33.8561 -3225
v 2289 33.6682 -3227
v 2289 33.5313 -3229
v 2289 33.3768 -3231
v 2289 33.214 -3233
v 2289 33.0504 -3235
v 2289 32.8982 -3237
v 2289 32.81 -3239
v 2289 33.0635 -3241
v 2289 33.3535 -3243
v 2289 33.3361 -3245
v 2289 33.1331 -3247
v 2289 32.9136 -3249
v 2289 32.6767 -3251
v 2289 32.4217 -3253
v 2289 32.1477 -3255
v 2289 31.8537 -3257
v 2289 31.5385 -3259
v 2289 31.2003 -3261
v 2289 30.8426 -3263
v 2289 30.5077 -3265
v 2289 30.2001 -3267
v 2289 29.9155 -3269
v 2289 29.2922 -3271
v 2289 28.4661 -3273
v 2289 27.4202 -3275
v 2289 26.1574 -3277
v 2289 24.7233 -3279
v 2289 23.2775 -3281
v 2289 23.7309 -3283
v 2289 25.5394 -3285
v 2291 33.9008 -3223
v 2291 33.8328 -3225
v 2291 33.7302 -3227
v 2291 33.598 -3229
v 2291 33.4425 -3231
v 2291 33.2713 -3233
v 2291 33.0901 -3235
v 2291 33.178 -3237
v 2291 33.4887 -3239
v 2291 33.6143 -3241
v 2291 33.4114 -3243
v 2291 33.1802 -3245
v 2291 32.9361 -3247
v 2291 32.6804 -3249
v 2291 32.414 -3251
v 2291 32.1374 -3253
v 2291 31.8507 -3255
v 2291 31.5532 -3257
v 2291 31.2441 -3259
v 2291 30.9215 -3261
v 2291 30.5884 -3263
v 2291 30.2822 -3265
v 2291 30.0038 -3267
v 2291 29.7093 -3269
v 2291 28.7512 -3271
v 2291 27.8492 -3273
v 2291 26.8407 -3275
v 2291 25.7188 -3277
v 2291 24.4226 -3279
v 2291 22.9529 -3281
v 2291 22.9422 -3283
v 2291 24.8729 -3285
v 2293 33.9515 -3223
v 2293 33.897 -3225
v 2293 33.8053 -3227
v 2293 33.6797 -3229
v 2293 33.5251 -3231
v 2293 33.4082 -3233
v 2293 33.6253 -3235
v 2293 33.8889 -3237
v 2293 33.827 -3239
v 2293 33.5865 -3241
v 2293 33.3274 -3243
v 2293 33.0545 -3245
v 2293 32.7719 -3247
v 2293 32.4829 -3249
v 2293 32.19 -3251
v 2293 31.8949 -3253
v 2293 31.5984 -3255
v 2293 31.3006 -3257
v 2293 31.0006 -3259
v 2293 30.6967 -3261
v 2293 30.391 -3263
v 2293 30.1158 -3265
v 2293 29.8679 -3267
v 2293 29.2193 -3269
v 2293 28.3829 -3271
v 2293 27.4824 -3273
v 2293 26.5616 -3275
v 2293 25.6108 -3277
v 2293 24.4709 -3279
v 2293 22.9982 -3281
v 2293 22.695 -3283
v 2293 24.5737 -3285
v 2295 34.0089 -3223
v 2295 33.9682 -3225
v 2295 33.8881 -3227
v 2295 33.7705 -3229
v 2295 33.7469 -3231
v 2295 34.036 -3233
v 2295 34.2524 -3235
v 2295 34.0941 -3237
v 2295 33.8458 -3239
v 2295 33.5688 -3241
v 2295 33.2717 -3243
v 2295 32.9619 -3245
v 2295 32.6458 -3247
v 2295 32.3285 -3249
v 2295 32.0139 -3251
v 2295 31.7048 -3253
v 2295 31.4029 -3255
v 2295 31.1085 -3257
v 2295 30.821 -3259
v 2295 30.5386 -3261
v 2295 30.2625 -3263
v 2295 30.0191 -3265
v 2295 29.8014 -3267
v 2295 29.1179 -3269
v 2295 28.3446 -3271
v 2295 27.5143 -3273
v 2295 26.6594 -3275
v 2295 25.7697 -3277
v 2295 24.6731 -3279
v 2295 23.2328 -3281
v 2295 22.8449 -3283
v 2295 24.5615 -3285
v 2297 34.0687 -3223
v 2297 34.0414 -3225
v 2297 33.973 -3227
v 2297 33.998 -3229
v 2297 34.3358 -3231
v 2297 34.5748 -3233
v 2297 34.4063 -3235
v 2297 34.1559 -3237
v 2297 33.8802 -3239
v 2297 33.5723 -3241
v 2297 33.2434 -3243
v 2297 32.9033 -3245
v 2297 32.5604 -3247
v 2297 32.2214 -3249
v 2297 31.8914 -3251
v 2297 31.5742 -3253
v 2297 31.2719 -3255
v 2297 30.9851 -3257
v 2297 30.7134 -3259
v 2297 30.4545 -3261
v 2297 30.209 -3263
v 2297 29.9972 -3265
v 2297 29.8081 -3267
v 2297 29.2298 -3269
v 2297 28.5781 -3271
v 2297 27.8249 -3273
v 2297 26.9915 -3275
v 2297 26.1246 -3277
v 2297 25.0851 -3279
v 2297 23.7427 -3281
v 2297 23.4305 -3283
v 2297 24.8669 -3285
v 2299 34.1255 -3223
v 2299 34.1103 -3225
v 2299 34.1243 -3227
v 2299 34.4846 -3229
v 2299 34.8145 -3231
v 2299 34.7209 -3233
v 2299 34.4885 -3235
v 2299 34.222 -3237
v 2299 33.9246 -3239
v 2299 33.5926 -3241
v 2299 33.2396 -3243
v 2299 32.8774 -3245
v 2299 32.5158 -3247
v 2299 32.1628 -3249
v 2299 31.8246 -3251
v 2299 31.5055 -3253
v 2299 31.2081 -3255
v 2299 30.9331 -3257
v 2299 30.6799 -3259
v 2299 30.446 -3261
v 2299 30.2308 -3263
v 2299 30.049 -3265
v 2299 29.8857 -3267
v 2299 29.5889 -3269
v 2299 28.9871 -3271
v 2299 28.3725 -3273
v 2299 27.6242 -3275
v 2299 26.7658 -3277
v 2299 25.6923 -3279
v 2299 24.3263 -3281
v 2299 24.2841 -3283
v 2299 25.4715 -3285
v 2301 34.1743 -3223
v 2301 34.1709 -3225
v 2301 34.4588 -3227
v 2301 34.905 -3229
v 2301 34.9887 -3231
v 2301 34.8014 -3233
v 2301 34.5633 -3235
v 2301 34.2857 -3237
v 2301 33.9733 -3239
v 2301 33.6252 -3241
v 2301 33.2569 -3243
v 2301 32.8814 -3245
v 2301 32.5099 -3247
v 2301 32.1514 -3249
v 2301 31.8125 -3251
v 2301 31.498 -3253
v 2301 31.2105 -3255
v 2301 30.9508 -3257
v 2301 30.718 -3259
v 2301 30.5093 -3261
v 2301 30.3232 -3263
v 2301 30.1684 -3265
v 2301 30.027 -3267
v 2301 29.8765 -3269
v 2301 29.4902 -3271
v 2301 29.0551 -3273
v 2301 28.4679 -3275
v 2301 27.663 -3277
v 2301 26.5218 -3279
v 2301 25.0269 -3281
v 2301 25.3977 -3283
v 2301 26.2637 -3285
v 2303 34.2156 -3223
v 2303 34.3105 -3225
v 2303 34.7811 -3227
v 2303 35.1482 -3229
v 2303 35.0549 -3231
v 2303 34.8684 -3233
v 2303 34.6276 -3235
v 2303 34.3443 -3237
v 2303 34.024 -3239
v 2303 33.6683 -3241
v 2303 33.2937 -3243
v 2303 32.9143 -3245
v 2303 32.5419 -3247
v 2303 32.1859 -3249
v 2303 31.8534 -3251
v 2303 31.5492 -3253
v 2303 31.2758 -3255
v 2303 31.0339 -3257
v 2303 30.822 -3259
v 2303 30.6373 -3261
v 2303 30.477 -3263
v 2303 30.3449 -3265
v 2303 30.2204 -3267
v 2303 30.0791 -3269
v 2303 29.9109 -3271
v 2303 29.6462 -3273
v 2303 29.2183 -3275
v 2303 28.5104 -3277
v 2303 27.3878 -3279
v 2303 26.2135 -3281
v 2303 26.689 -3283
v 2303 26.9594 -3285
v 2305 34.2427 -3223
v 2305 34.4702 -3225
v 2305 35.0025 -3227
v 2305 35.2298 -3229
v 2305 35.098 -3231
v 2305 34.913 -3233
v 2305 34.6727 -3235
v 2305 34.3892 -3237
v 2305 34.0688 -3239
v 2305 33.7144 -3241
v 2305 33.3429 -3243
v 2305 32.9688 -3245
v 2305 32.604 -3247
v 2305 32.2583 -3249
v 2305 31.9384 -3251
v 2305 31.6491 -3253
v 2305 31.3927 -3255
v 2305 31.1695 -3257
v 2305 30.9777 -3259
v 2305 30.814 -3261
v 2305 30.675 -3263
v 2305 30.56 -3265
v 2305 30.4462 -3267
v 2305 30.3084 -3269
v 2305 30.1531 -3271
v 2305 30.0039 -3273
v 2305 29.7525 -3275
v 2305 29.2026 -3277
v 2305 28.2182 -3279
v 2305 27.7757 -3281
v 2305 27.8728 -3283
v 2305 27.4931 -3285
v 2307 34.2468 -3223
v 2307 34.567 -3225
v 2307 35.1076 -3227
v 2307 35.2361 -3229
v 2307 35.1069 -3231
v 2307 34.9244 -3233
v 2307 34.6879 -3235
v 2307 34.4103 -3237
v 2307 34.0978 -3239
v 2307 33.7536 -3241
v 2307 33.3943 -3243
v 2307 33.0343 -3245
v 2307 32.6851 -3247
v 2307 32.3561 -3249
v 2307 32.0539 -3251
v 2307 31.7826 -3253
v 2307 31.5444 -3255
v 2307 31.339 -3257
v 2307 31.1646 -3259
v 2307 31.0173 -3261
v 2307 30.8932 -3263
v 2307 30.7883 -3265
v 2307 30.6787 -3267
v 2307 30.5386 -3269
v 2307 30.3753 -3271
v 2307 30.2139 -3273
v 2307 30.0345 -3275
v 2307 29.6982 -3277
v 2307 28.9738 -3279
v 2307 28.8125 -3281
v 2307 28.5535 -3283
v 2307 27.7559 -3285
v 2309 34.206 -3223
v 2309 34.5545 -3225
v 2309 35.0939 -3227
v 2309 35.1909 -3229
v 2309 35.0647 -3231
v 2309 34.8865 -3233
v 2309 34.658 -3235
v 2309 34.3928 -3237
v 2309 34.0965 -3239
v 2309 33.7719 -3241
v 2309 33.4347 -3243
v 2309 33.0981 -3245
v 2309 32.773 -3247
v 2309 32.4677 -3249
v 2309 32.1883 -3251
v 2309 31.9384 -3253
v 2309 31.7195 -3255
v 2309 31.531 -3257
v 2309 31.3707 -3259
v 2309 31.2348 -3261
v 2309 31.119 -3263
v 2309 31.0169 -3265
v 2309 30.9046 -3267
v 2309 30.7568 -3269
v 2309 30.5813 -3271
v 2309 30.4046 -3273
v 2309 30.2075 -3275
v 2309 29.9714 -3277
v 2309 29.6072 -3279
v 2309 29.3129 -3281
v 2309 28.7431 -3283
v 2309 27.7198 -3285
v 2311 34.0787 -3223
v 2311 34.3907 -3225
v 2311 34.9395 -3227
v 2311 35.0668 -3229
v 2311 34.9478 -3231
v 2311 34.7791 -3233
v 2311 34.5647 -3235
v 2311 34.3183 -3237
v 2311 34.0461 -3239
v 2311 33.7513 -3241
v 2311 33.4475 -3243
v 2311 33.1464 -3245
v 2311 32.8571 -3247
v 2311 32.5867 -3249
v 2311 32.3399 -3251
v 2311 32.1192 -3253
v 2311 31.9254 -3255
v 2311 31.7574 -3257
v 2311 31.6125 -3259
v 2311 31.4867 -3261
v 2311 31.3755 -3263
v 2311 31.2716 -3265
v 2311 31.1517 -3267
v 2311 30.9914 -3269
v 2311 30.7997 -3271
v 2311 30.6038 -3273
v 2311 30.3853 -3275
v 2311 30.1294 -3277
v 2311 29.8256 -3279
v 2311 29.4653 -3281
v 2311 28.6964 -3283
v 2311 27.6614 -3285
v 2313 33.8677 -3223
v 2313 34.0852 -3225
v 2313 34.6392 -3227
v 2313 34.8656 -3229
v 2313 34.7572 -3231
v 2313 34.6019 -3233
v 2313 34.4062 -3235
v 2313 34.1835 -3237
v 2313 33.941 -3239
v 2313 33.6833 -3241
v 2313 33.4215 -3243
v 2313 33.1647 -3245
v 2313 32.9199 -3247
v 2313 32.6922 -3249
v 2313 32.4847 -3251
v 2313 32.2987 -3253
v 2313 32.1338 -3255
v 2313 31.9881 -3257
v 2313 31.8585 -3259
v 2313 31.7407 -3261
v 2313 31.6303 -3263
v 2313 31.5203 -3265
v 2313 31.3887 -3267
v 2313 31.2127 -3269
v 2313 31.0022 -3271
v 2313 30.7851 -3273
v 2313 30.5437 -3275
v 2313 30.2643 -3277
v 2313 29.9371 -3279
v 2313 29.5187 -3281
v 2313 28.6372 -3283
v 2313 27.6299 -3285
v 2315 33.592 -3223
v 2315 33.6835 -3225
v 2315 34.1959 -3227
v 2315 34.5797 -3229
v 2315 34.5104 -3231
v 2315 34.3711 -3233
v 2315 34.197 -3235
v 2315 34.0009 -3237
v 2315 33.7918 -3239
v 2315 33.5764 -3241
v 2315 33.3626 -3243
v 2315 33.1565 -3245
v 2315 32.9625 -3247
v 2315 32.7836 -3249
v 2315 32.6206 -3251
v 2315 32.4734 -3253
v 2315 32.3403 -3255
v 2315 32.2185 -3257
v 2315 32.1042 -3259
v 2315 31.9927 -3261
v 2315 31.8794 -3263
v 2315 31.7589 -3265
v 2315 31.611 -3267
v 2315 31.4154 -3269
v 2315 31.1831 -3271
v 2315 30.942 -3273
v 2315 30.6757 -3275
v 2315 30.3714 -3277
v 2315 30.0204 -3279
v 2315 29.5156 -3281
v 2315 28.5721 -3283
v 2315 27.6097 -3285
v 2317 33.2799 -3223
v 2317 33.2841 -3225
v 2317 33.6398 -3227
v 2317 34.1396 -3229
v 2317 34.236 -3231
v 2317 34.1143 -3233
v 2317 33.9633 -3235
v 2317 33.7957 -3237
v 2317 33.6222 -3239
v 2317 33.4523 -3241
v 2317 33.2905 -3243
v 2317 33.1394 -3245
v 2317 33.0007 -3247
v 2317 32.8746 -3249
v 2317 32.7601 -3251
v 2317 32.6549 -3253
v 2317 32.5561 -3255
v 2317 32.4596 -3257
v 2317 32.3608 -3259
v 2317 32.2544 -3261
v 2317 32.1355 -3263
v 2317 31.9999 -3265
v 2317 31.8307 -3267
v 2317 31.6105 -3269
v 2317 31.3521 -3271
v 2317 31.083 -3273
v 2317 30.7884 -3275
v 2317 30.4569 -3277
v 2317 30.081 -3279
v 2317 29.4766 -3281
v 2317 28.5095 -3283
v 2317 27.5948 -3285
v 2319 32.9453 -3223
v 2319 32.9519 -3225
v 2319 33.048 -3227
v 2319 33.5178 -3229
v 2319 33.8901 -3231
v 2319 33.8425 -3233
v 2319 33.7154 -3235
v 2319 33.5768 -3237
v 2319 33.4393 -3239
v 2319 33.3156 -3241
v 2319 33.2062 -3243
v 2319 33.1107 -3245
v 2319 33.0276 -3247
v 2319 32.9545 -3249
v 2319 32.8882 -3251
v 2319 32.8246 -3253
v 2319 32.7593 -3255
v 2319 32.6869 -3257
v 2319 32.6019 -3259
v 2319 32.4983 -3261
v 2319 32.3708 -3263
v 2319 32.2166 -3265
v 2319 32.0224 -3267
v 2319 31.7748 -3269
v 2319 31.4883 -3271
v 2319 31.1899 -3273
v 2319 30.8665 -3275
v 2319 30.5082 -3277
v 2319 30.1058 -3279
v 2319 29.4032 -3281
v 2319 28.4428 -3283
v 2319 27.5711 -3285
v 2321 32.601 -3223
v 2321 32.6137 -3225
v 2321 32.6145 -3227
v 2321 32.8004 -3229
v 2321 33.2514 -3231
v 2321 33.5315 -3233
v 2321 33.4624 -3235
v 2321 33.3521 -3237
v 2321 33.2494 -3239
v 2321 33.17 -3241
v 2321 33.1108 -3243
v 2321 33.0682 -3245
v 2321 33.0376 -3247
v 2321 33.0142 -3249
v 2321 32.9926 -3251
v 2321 32.9671 -3253
v 2321 32.9317 -3255
v 2321 32.88 -3257
v 2321 32.8057 -3259
v 2321 32.7018 -3261
v 2321 32.5627 -3263
v 2321 32.3871 -3265
v 2321 32.1659 -3267
v 2321 31.8899 -3269
v 2321 31.5754 -3271
v 2321 31.2486 -3273
v 2321 30.898 -3275
v 2321 30.5154 -3277
v 2321 30.0581 -3279
v 2321 29.2947 -3281
v 2321 28.3649 -3283
v 2321 27.5307 -3285
v 2323 32.259 -3223
v 2323 32.278 -3225
v 2323 32.2895 -3227
v 2323 32.2854 -3229
v 2323 32.4532 -3231
v 2323 32.8382 -3233
v 2323 33.1276 -3235
v 2323 33.1287 -3237
v 2323 33.0581 -3239
v 2323 33.0193 -3241
v 2323 33.0057 -3243
v 2323 33.0105 -3245
v 2323 33.0265 -3247
v 2323 33.0467 -3249
v 2323 33.0637 -3251
v 2323 33.0703 -3253
v 2323 33.0593 -3255
v 2323 33.0233 -3257
v 2323 32.9552 -3259
v 2323 32.8476 -3261
v 2323 32.6941 -3263
v 2323 32.4952 -3265
v 2323 32.246 -3267
v 2323 31.9421 -3269
v 2323 31.6016 -3271
v 2323 31.249 -3273
v 2323 30.875 -3275
v 2323 30.4725 -3277
v 2323 29.9307 -3279
v 2323 29.1496 -3281
v 2323 28.2702 -3283
v 2323 27.4721 -3285
v 2325 31.9301 -3223
v 2325 31.9552 -3225
v 2325 31.977 -3227
v 2325 31.9871 -3229
v 2325 31.975 -3231
v 2325 32.0105 -3233
v 2325 32.2967 -3235
v 2325 32.6225 -3237
v 2325 32.8289 -3239
v 2325 32.8669 -3241
v 2325 32.8923 -3243
v 2325 32.9369 -3245
v 2325 32.9915 -3247
v 2325 33.0469 -3249
v 2325 33.0944 -3251
v 2325 33.1254 -3253
v 2325 33.1317 -3255
v 2325 33.1053 -3257
v 2325 33.0384 -3259
v 2325 32.9232 -3261
v 2325 32.7529 -3263
v 2325 32.5294 -3265
v 2325 32.2527 -3267
v 2325 31.9229 -3269
v 2325 31.5596 -3271
v 2325 31.1856 -3273
v 2325 30.793 -3275
v 2325 30.3471 -3277
v 2325 29.7259 -3279
v 2325 28.9669 -3281
v 2325 28.1552 -3283
v 2325 27.3987 -3285
v 2327 31.6246 -3223
v 2327 31.6547 -3225
v 2327 31.6859 -3227
v 2327 31.7091 -3229
v 2327 31.713 -3231
v 2327 31.686 -3233
v 2327 31.6482 -3235
v 2327 31.7094 -3237
v 2327 31.9697 -3239
v 2327 32.3023 -3241
v 2327 32.6046 -3243
v 2327 32.8197 -3245
v 2327 32.9312 -3247
v 2327 33.0122 -3249
v 2327 33.0806 -3251
v 2327 33.127 -3253
v 2327 33.1428 -3255
v 2327 33.1191 -3257
v 2327 33.0481 -3259
v 2327 32.9215 -3261
v 2327 32.7324 -3263
v 2327 32.4842 -3265
v 2327 32.1812 -3267
v 2327 31.8285 -3269
v 2327 31.4469 -3271
v 2327 31.0567 -3273
v 2327 30.6206 -3275
v 2327 30.0817 -3277
v 2327 29.4483 -3279
v 2327 28.7465 -3281
v 2327 28.0181 -3283
v 2327 27.0146 -3285
v 2329 31.5406 -3223
v 2329 31.3853 -3225
v 2329 31.4241 -3227
v 2329 31.4586 -3229
v 2329 31.4768 -3231
v 2329 31.4661 -3233
v 2329 31.4454 -3235
v 2329 31.424 -3237
v 2329 31.4236 -3239
v 2329 31.4861 -3241
v 2329 31.7051 -3243
v 2329 32.0128 -3245
v 2329 32.3332 -3247
v 2329 32.6175 -3249
v 2329 32.8389 -3251
v 2329 32.9857 -3253
v 2329 33.056 -3255
v 2329 33.053 -3257
v 2329 32.9807 -3259
v 2329 32.8406 -3261
v 2329 32.6315 -3263
v 2329 32.3588 -3265
v 2329 32.0279 -3267
v 2329 31.6419 -3269
v 2329 31.2145 -3271
v 2329 30.7558 -3273
v 2329 30.2556 -3275
v 2329 29.7095 -3277
v 2329 29.1127 -3279
v 2329 28.4647 -3281
v 2329 27.546 -3283
v 2329 25.8418 -3285
v 2331 31.8868 -3223
v 2331 31.5029 -3225
v 2331 31.2462 -3227
v 2331 31.242 -3229
v 2331 31.2719 -3231
v 2331 31.2749 -3233
v 2331 31.268 -3235
v 2331 31.2592 -3237
v 2331 31.2712 -3239
v 2331 31.3302 -3241
v 2331 31.4204 -3243
v 2331 31.527 -3245
v 2331 31.6371 -3247
v 2331 31.7946 -3249
v 2331 31.9879 -3251
v 2331 32.1708 -3253
v 2331 32.3109 -3255
v 2331 32.3867 -3257
v 2331 32.3845 -3259
v 2331 32.2948 -3261
v 2331 32.1119 -3263
v 2331 31.8433 -3265
v 2331 31.5039 -3267
v 2331 31.1087 -3269
v 2331 30.6808 -3271
v 2331 30.2351 -3273
v 2331 29.7679 -3275
v 2331 29.1249 -3277
v 2331 27.8209 -3279
v 2331 27.2728 -3281
v 2331 26.0993 -3283
v 2331 24.1277 -3285
v 2333 32.0364 -3223
v 2333 31.919 -3225
v 2333 31.6251 -3227
v 2333 31.3198 -3229
v 2333 31.1318 -3231
v 2333 31.1163 -3233
v 2333 31.1191 -3235
v 2333 31.1181 -3237
v 2333 31.1363 -3239
v 2333 31.2002 -3241
v 2333 31.2932 -3243
v 2333 31.3998 -3245
v 2333 31.5063 -3247
v 2333 31.6006 -3249
v 2333 31.6714 -3251
v 2333 31.7092 -3253
v 2333 31.7051 -3255
v 2333 31.6645 -3257
v 2333 31.6003 -3259
v 2333 31.4871 -3261
v 2333 31.3054 -3263
v 2333 31.0538 -3265
v 2333 30.744 -3267
v 2333 30.3912 -3269
v 2333 30.0171 -3271
v 2333 29.633 -3273
v 2333 29.2137 -3275
v 2333 28.0574 -3277
v 2333 26.2504 -3279
v 2333 25.1017 -3281
v 2333 24.0856 -3283
v 2333 22.4307 -3285
v 2335 31.9081 -3223
v 2335 31.9368 -3225
v 2335 31.9701 -3227
v 2335 31.8377 -3229
v 2335 31.5757 -3231
v 2335 31.2835 -3233
v 2335 31.0666 -3235
v 2335 31.0026 -3237
v 2335 31.0209 -3239
v 2335 31.0819 -3241
v 2335 31.1687 -3243
v 2335 31.266 -3245
v 2335 31.3601 -3247
v 2335 31.4394 -3249
v 2335 31.4932 -3251
v 2335 31.5124 -3253
v 2335 31.4885 -3255
v 2335 31.4139 -3257
v 2335 31.2816 -3259
v 2335 31.0843 -3261
v 2335 30.8158 -3263
v 2335 30.4837 -3265
v 2335 30.1215 -3267
v 2335 29.7573 -3269
v 2335 29.4036 -3271
v 2335 29.0615 -3273
v 2335 28.1957 -3275
v 2335 26.573 -3277
v 2335 24.6527 -3279
v 2335 22.8238 -3281
v 2335 22.191 -3283
v 2335 21.1787 -3285
v 2337 31.8403 -3223
v 2337 31.8604 -3225
v 2337 31.8988 -3227
v 2337 31.945 -3229
v 2337 31.979 -3231
v 2337 31.8593 -3233
v 2337 31.6152 -3235
v 2337 31.3329 -3237
v 2337 31.1035 -3239
v 2337 31.0057 -3241
v 2337 31.0498 -3243
v 2337 31.1297 -3245
v 2337 31.2037 -3247
v 2337 31.261 -3249
v 2337 31.2917 -3251
v 2337 31.2873 -3253
v 2337 31.2403 -3255
v 2337 31.1435 -3257
v 2337 30.9907 -3259
v 2337 30.7753 -3261
v 2337 30.4914 -3263
v 2337 30.1468 -3265
v 2337 29.7633 -3267
v 2337 29.3642 -3269
v 2337 28.9712 -3271
v 2337 28.2326 -3273
v 2337 26.7793 -3275
v 2337 25.0011 -3277
v 2337 23.1753 -3279
v 2337 21.7893 -3281
v 2337 21.2116 -3283
v 2337 20.8024 -3285
v 2339 31.837 -3223
v 2339 31.8444 -3225
v 2339 31.8714 -3227
v 2339 31.9083 -3229
v 2339 31.942 -3231
v 2339 31.9579 -3233
v 2339 31.9596 -3235
v 2339 31.8855 -3237
v 2339 31.7041 -3239
v 2339 31.5008 -3241
v 2339 31.3048 -3243
v 2339 31.1478 -3245
v 2339 31.0653 -3247
v 2339 31.0755 -3249
v 2339 31.0796 -3251
v 2339 31.0496 -3253
v 2339 30.9786 -3255
v 2339 30.8604 -3257
v 2339 30.6892 -3259
v 2339 30.4589 -3261
v 2339 30.1641 -3263
v 2339 29.8128 -3265
v 2339 29.4279 -3267
v 2339 29.0343 -3269
v 2339 28.4148 -3271
v 2339 27.0165 -3273
v 2339 25.3235 -3275
v 2339 23.6179 -3277
v 2339 22.1398 -3279
v 2339 21.3158 -3281
v 2339 21.1439 -3283
v 2339 20.8066 -3285
v 2341 31.8756 -3223
v 2341 31.8665 -3225
v 2341 31.8778 -3227
v 2341 31.9 -3229
v 2341 31.9211 -3231
v 2341 31.9265 -3233
v 2341 31.9172 -3235
v 2341 31.8967 -3237
v 2341 31.8836 -3239
v 2341 31.8913 -3241
v 2341 31.8152 -3243
v 2341 31.6447 -3245
v 2341 31.4146 -3247
v 2341 31.1665 -3249
v 2341 30.946 -3251
v 2341 30.8024 -3253
v 2341 30.7089 -3255
v 2341 30.5723 -3257
v 2341 30.3869 -3259
v 2341 30.1469 -3261
v 2341 29.8471 -3263
v 2341 29.4951 -3265
v 2341 29.1147 -3267
v 2341 28.6241 -3269
v 2341 27.377 -3271
v 2341 25.6702 -3273
v 2341 23.9868 -3275
v 2341 22.4703 -3277
v 2341 21.398 -3279
v 2341 21.0745 -3281
v 2341 21.0659 -3283
v 2341 20.814 -3285
v 2343 31.8593 -3223
v 2343 31.8345 -3225
v 2343 31.8304 -3227
v 2343 31.8383 -3229
v 2343 31.8465 -3231
v 2343 31.841 -3233
v 2343 31.8204 -3235
v 2343 31.788 -3237
v 2343 31.7602 -3239
v 2343 31.7543 -3241
v 2343 31.7584 -3243
v 2343 31.7618 -3245
v 2343 31.7079 -3247
v 2343 31.5076 -3249
v 2343 31.2016 -3251
v 2343 30.8454 -3253
v 2343 30.5032 -3255
v 2343 30.2457 -3257
v 2343 30.0492 -3259
v 2343 29.8038 -3261
v 2343 29.5037 -3263
v 2343 29.1563 -3265
v 2343 28.7847 -3267
v 2343 27.8314 -3269
v 2343 25.9518 -3271
v 2343 24.0753 -3273
v 2343 22.4864 -3275
v 2343 21.2486 -3277
v 2343 20.6061 -3279
v 2343 20.5335 -3281
v 2343 20.7165 -3283
v 2343 20.7553 -3285
v 2345 31.8046 -3223
v 2345 31.7675 -3225
v 2345 31.7516 -3227
v 2345 31.7482 -3229
v 2345 31.746 -3231
v 2345 31.7312 -3233
v 2345 31.7007 -3235
v 2345 31.6573 -3237
v 2345 31.6151 -3239
v 2345 31.5889 -3241
v 2345 31.5684 -3243
v 2345 31.5448 -3245
v 2345 31.5105 -3247
v 2345 31.4594 -3249
v 2345 31.3374 -3251
v 2345 31.0335 -3253
v 2345 30.6053 -3255
v 2345 30.1348 -3257
v 2345 29.7175 -3259
v 2345 29.4309 -3261
v 2345 29.1326 -3263
v 2345 28.7931 -3265
v 2345 28.4344 -3267
v 2345 28.08 -3269
v 2345 26.7656 -3271
v 2345 23.3904 -3273
v 2345 21.1357 -3275
v 2345 20.2952 -3277
v 2345 19.9725 -3279
v 2345 19.9687 -3281
v 2345 20.3613 -3283
v 2345 20.7065 -3285
f 3 2 1
f 4 2 3
f 19 18 17
f 20 18 19
f 15 14 13
f 16 14 15
f 7 6 5
f 8 6 7
f 11 10 9
f 12 10 11
f 23 22 21
f 24 22 23
f 39 38 37
f 40 38 39
f 35 34 33
f 36 34 35
f 27 26 25
f 28 26 27
f 31 30 29
f 32 30 31
f 43 42 41
f 44 42 43
f 59 58 57
f 60 58 59
f 55 54 53
f 56 54 55
f 47 46 45
f 48 46 47
f 51 50 49
f 52 50 51
f 63 62 61
f 64 62 63
f 79 78 77
f 80 78 79
f 75 74 73
f 76 74 75
f 67 66 65
f 68 66 67
f 71 70 69
f 72 70 71
f 623 624 639
f 625 624 623
f 685 684 683
f 713 712 711
f 713 715 712
f 712 715 714
f 639 640 623
f 627 623 626
f 628 623 627
f 628 625 623
f 722 723 720
f 722 720 721
f 721 720 719
f 641 640 639
f 724 726 725
f 724 725 723
f 625 628 629
f 685 688 684
f 685 689 688
f 685 690 689
f 685 691 690
f 674 682 681
f 724 723 722
f 674 681 676
f 724 727 726
f 724 728 727
f 636 635 634
f 676 675 674
f 644 643 642
f 677 675 676
f 480 489 483
f 489 475 483
f 475 476 483
f 483 476 481
f 483 481 480
f 489 488 475
f 477 476 475
f 488 477 475
f 484 489 480
f 470 469 468
f 470 471 469
f 474 471 470
f 488 487 477
f 635 637 638
f 635 636 637
f 600 597 599
f 601 597 600
f 597 601 613
f 613 596 597
f 598 597 596
f 525 524 513
f 525 513 519
f 513 514 519
f 515 514 513
f 524 515 513
f 594 593 592
f 663 662 661
f 694 693 692
f 614 596 613
f 704 708 706
f 704 706 707
f 707 706 705
f 474 472 471
f 466 472 474
f 465 466 474
f 478 484 480
f 518 514 515
f 524 523 515
f 523 518 515
f 593 594 595
f 709 710 708
f 485 484 478
f 658 660 659
f 523 522 518
f 621 619 643
f 621 643 644
f 724 729 728
f 709 708 703
f 703 708 704
f 491 498 497
f 496 491 497
f 677 678 675
f 663 666 662
f 663 667 666
f 663 668 667
f 476 479 481
f 480 481 479
f 480 479 478
f 479 476 477
f 472 469 471
f 516 525 519
f 519 514 516
f 520 525 516
f 493 499 498
f 498 491 493
f 694 695 693
f 658 659 656
f 537 536 535
f 535 536 533
f 535 533 534
f 487 482 477
f 487 486 482
f 510 509 507
f 510 511 509
f 512 511 510
f 607 606 605
f 517 516 514
f 514 518 517
f 479 477 482
f 522 517 518
f 522 521 517
f 730 729 724
f 621 620 619
f 521 520 517
f 517 520 516
f 479 482 478
f 486 485 478
f 730 718 729
f 633 637 631
f 638 637 633
f 684 688 687
f 486 478 482
f 492 491 490
f 493 491 492
f 490 491 496
f 537 527 536
f 493 492 499
f 512 502 511
f 617 616 615
f 657 658 656
f 492 500 499
f 534 530 532
f 532 530 531
f 677 679 678
f 622 620 621
f 467 466 465
f 531 530 529
f 506 505 504
f 508 505 506
f 508 506 507
f 467 472 466
f 473 472 467
f 469 472 473
f 469 473 468
f 684 687 686
f 633 631 632
f 694 696 695
f 655 656 654
f 657 656 655
f 492 490 495
f 492 495 494
f 492 494 500
f 530 534 533
f 507 509 508
f 718 717 716
f 730 717 718
f 632 631 630
f 490 496 495
f 528 527 526
f 536 527 528
f 511 502 503
f 503 502 501
f 607 611 606
f 606 611 612
f 703 701 702
f 703 704 701
f 589 616 617
f 620 646 645
f 646 620 622
f 680 679 677
f 589 617 591
f 649 648 647
f 650 648 649
f 651 648 650
f 648 651 652
f 699 701 700
f 702 701 699
f 591 590 589
f 612 611 610
f 610 611 609
f 369 368 367
f 369 367 370
f 369 370 371
f 372 371 370
f 373 371 372
f 362 361 360
f 362 360 366
f 362 366 364
f 362 364 365
f 365 364 363
f 276 279 275
f 277 276 275
f 276 277 278
f 268 267 269
f 267 268 263
f 267 263 264
f 265 264 263
f 266 264 265
f 220 219 218
f 220 238 237
f 220 237 236
f 220 236 219
f 236 235 219
f 219 235 233
f 219 233 234
f 234 233 231
f 231 233 232
f 232 230 231
f 231 230 221
f 205 204 203
f 204 205 206
f 206 205 230
f 230 205 221
f 205 222 221
f 222 223 221
f 199 223 222
f 192 199 222
f 199 192 198
f 197 198 192
f 197 192 196
f 196 192 195
f 195 192 194
f 194 192 193
f 193 192 191
f 198 200 199
f 198 201 200
f 202 201 198
f 400 399 398
f 400 398 401
f 402 400 401
f 211 207 208
f 209 208 207
f 208 209 210
f 257 262 261
f 257 261 258
f 258 254 257
f 257 254 256
f 256 254 255
f 255 254 253
f 376 375 374
f 376 377 375
f 381 377 376
f 381 382 377
f 381 380 382
f 380 381 379
f 380 379 378
f 356 355 354
f 356 358 355
f 355 358 357
f 358 359 357
f 353 351 352
f 353 403 351
f 408 351 403
f 347 346 345
f 392 393 394
f 393 392 391
f 293 397 396
f 293 298 397
f 293 294 298
f 299 302 300
f 301 302 299
f 303 302 301
f 302 303 304
f 304 306 302
f 306 304 305
f 286 285 284
f 290 289 288
f 289 290 291
f 292 291 290
f 292 446 291
f 442 441 440
f 444 441 443
f 291 444 443
f 445 444 291
f 291 446 445
f 287 285 286
f 283 281 282
f 282 281 280
f 328 329 333
f 324 328 333
f 325 328 324
f 322 325 324
f 240 224 239
f 241 224 240
f 229 224 241
f 224 229 217
f 228 217 229
f 217 228 227
f 214 213 212
f 215 213 214
f 213 215 217
f 217 215 216
f 217 216 226
f 217 226 225
f 217 225 224
f 244 243 242
f 244 249 243
f 248 249 244
f 248 244 246
f 248 246 247
f 247 246 245
f 251 247 245
f 247 251 252
f 252 251 250
f 455 453 454
f 454 453 452
f 406 405 404
f 405 406 407
f 412 405 407
f 411 412 410
f 411 410 409
f 132 131 130
f 132 133 131
f 134 133 132
f 662 666 665
f 395 391 392
f 396 391 395
f 293 396 395
f 416 415 312
f 418 415 416
f 418 416 417
f 412 407 410
f 347 348 346
f 349 348 347
f 308 305 304
f 332 335 334
f 610 609 608
f 662 665 664
f 419 417 352
f 419 352 420
f 420 352 350
f 352 351 350
f 343 342 341
f 344 342 343
f 329 330 332
f 330 329 328
f 604 603 602
f 699 698 697
f 699 700 698
f 294 295 297
f 297 295 296
f 297 296 300
f 295 294 293
f 270 452 272
f 272 271 270
f 308 304 307
f 308 307 311
f 339 340 337
f 339 337 338
f 338 337 336
f 300 296 299
f 272 274 271
f 274 272 273
f 419 418 417
f 618 590 591
f 655 654 653
f 447 440 441
f 462 338 336
f 463 462 336
f 311 307 310
f 310 307 309
f 161 162 160
f 161 160 155
f 155 160 157
f 453 456 452
f 464 452 456
f 452 464 272
f 259 254 258
f 259 260 254
f 326 325 322
f 322 327 326
f 320 327 322
f 322 321 320
f 321 322 323
f 331 335 332
f 332 330 331
f 314 313 312
f 414 314 312
f 414 312 413
f 413 312 415
f 156 157 158
f 153 156 158
f 154 156 153
f 154 153 152
f 447 441 450
f 450 441 451
f 441 444 451
f 91 90 89
f 671 670 669
f 164 172 171
f 172 169 171
f 157 156 155
f 168 169 172
f 170 169 168
f 165 164 163
f 165 172 164
f 318 317 316
f 314 315 313
f 672 670 671
f 671 673 672
f 159 154 152
f 318 319 317
f 437 438 436
f 437 436 434
f 434 436 433
f 386 389 388
f 389 390 388
f 445 448 444
f 91 100 90
f 100 91 97
f 385 384 383
f 385 387 384
f 384 387 386
f 170 168 173
f 174 170 173
f 387 389 386
f 437 439 438
f 426 427 425
f 428 427 426
f 428 430 427
f 430 428 432
f 432 431 430
f 458 461 457
f 459 458 457
f 429 424 425
f 426 425 424
f 461 458 460
f 445 446 449
f 445 449 448
f 435 434 433
f 423 422 421
f 167 166 163
f 163 166 165
f 100 97 99
f 177 176 175
f 176 177 178
f 179 178 177
f 178 179 180
f 180 181 178
f 181 180 182
f 181 182 186
f 181 186 185
f 185 186 189
f 187 190 188
f 188 184 187
f 183 184 188
f 176 184 183
f 176 178 184
f 99 97 98
f 552 551 550
f 550 560 552
f 552 560 559
f 552 559 557
f 540 539 538
f 540 548 539
f 540 549 548
f 548 549 547
f 548 547 546
f 546 547 545
f 546 545 543
f 544 543 545
f 544 542 543
f 543 542 541
f 122 123 124
f 123 122 121
f 136 121 122
f 136 137 121
f 136 138 137
f 136 139 138
f 136 140 139
f 136 141 140
f 142 141 136
f 146 141 142
f 146 147 141
f 146 148 147
f 149 148 146
f 150 148 149
f 151 148 150
f 136 122 135
f 136 135 104
f 104 135 106
f 106 105 104
f 104 105 103
f 104 103 101
f 103 102 101
f 129 101 102
f 128 101 129
f 101 128 125
f 126 101 125
f 101 126 127
f 566 565 564
f 566 567 565
f 569 567 566
f 566 575 569
f 570 575 566
f 564 570 566
f 571 570 564
f 569 562 567
f 575 561 569
f 561 562 569
f 562 565 567
f 575 574 561
f 588 587 576
f 557 559 558
f 557 558 556
f 557 556 555
f 555 556 554
f 555 554 553
f 98 97 96
f 146 142 145
f 145 142 144
f 144 142 143
f 143 142 97
f 97 142 92
f 96 97 92
f 96 92 95
f 95 92 94
f 94 92 93
f 93 92 83
f 83 82 81
f 83 92 84
f 84 82 83
f 107 82 84
f 107 81 82
f 107 108 81
f 109 108 107
f 107 110 109
f 107 111 110
f 110 111 117
f 118 117 111
f 116 107 115
f 116 114 107
f 107 114 113
f 107 113 112
f 107 112 111
f 87 117 118
f 117 87 119
f 87 120 119
f 87 85 120
f 87 86 85
f 88 86 87
f 588 576 582
f 576 577 582
f 578 577 576
f 587 578 576
f 581 577 578
f 587 586 578
f 586 581 578
f 565 568 564
f 572 571 564
f 572 564 568
f 586 585 581
f 565 563 568
f 565 562 563
f 579 588 582
f 583 588 579
f 582 577 579
f 563 562 561
f 580 579 577
f 577 581 580
f 574 573 563
f 574 563 561
f 573 572 568
f 585 580 581
f 585 584 580
f 584 583 580
f 580 583 579
f 573 568 563
f 733 732 731
f 734 732 733
f 749 748 747
f 750 748 749
f 745 744 743
f 746 744 745
f 737 736 735
f 738 736 737
f 741 740 739
f 742 740 741
f 753 752 751
f 754 752 753
f 769 768 767
f 770 768 769
f 765 764 763
f 766 764 765
f 757 756 755
f 758 756 757
f 761 760 759
f 762 760 761
f 876 873 874
f 875 874 873
f 874 880 876
f 879 880 874
f 878 879 874
f 878 874 875
f 883 878 875
f 883 875 877
f 873 877 875
f 869 867 868
f 869 861 867
f 870 861 869
f 873 876 872
f 876 881 872
f 880 881 876
f 873 871 877
f 871 883 877
f 873 872 871
f 882 883 871
f 870 860 861
f 872 882 871
f 881 882 872
f 862 861 860
f 891 896 885
f 896 897 885
f 885 897 884
f 885 889 891
f 886 889 885
f 886 885 884
f 895 896 891
f 887 895 891
f 891 889 887
f 897 898 884
f 884 898 892
f 886 884 892
f 894 895 887
f 868 867 866
f 773 772 771
f 773 774 772
f 775 774 773
f 866 867 864
f 815 826 817
f 817 816 815
f 823 815 816
f 823 824 815
f 807 806 805
f 807 808 806
f 806 808 838
f 799 798 797
f 801 798 799
f 798 801 803
f 803 801 802
f 802 801 800
f 889 886 890
f 886 892 890
f 889 888 887
f 890 888 889
f 778 777 776
f 827 825 826
f 826 825 817
f 893 894 887
f 893 887 888
f 778 779 777
f 898 893 888
f 898 888 892
f 890 892 888
f 903 900 902
f 825 816 817
f 823 816 856
f 823 856 858
f 904 900 903
f 866 864 865
f 855 853 851
f 853 855 854
f 865 864 863
f 853 852 851
f 904 899 900
f 901 900 899
f 848 849 847
f 848 847 846
f 846 850 848
f 859 856 857
f 857 856 816
f 816 832 839
f 816 831 832
f 829 831 816
f 816 825 829
f 843 842 841
f 811 810 809
f 810 811 812
f 825 827 828
f 797 804 795
f 804 797 798
f 825 833 829
f 828 833 825
f 836 835 834
f 836 837 835
f 809 813 811
f 813 809 814
f 841 842 844
f 845 841 844
f 822 840 820
f 821 820 840
f 796 795 794
f 796 797 795
f 782 781 780
f 782 783 781
f 784 783 782
f 820 818 822
f 820 819 818
f 821 819 820
f 832 831 830
f 786 792 791
f 787 786 785
f 788 786 787
f 789 786 788
f 790 786 789
f 790 792 786
f 792 790 793
f 907 906 905
f 908 906 907
f 923 922 921
f 924 922 923
f 919 918 917
f 920 918 919
f 911 910 909
f 912 910 911
f 915 914 913
f 916 914 915
f 950 949 948
f 951 949 950
f 952 949 951
f 952 953 949
f 952 955 953
f 953 955 954
f 925 930 929
f 925 926 930
f 927 926 925
f 930 926 933
f 926 927 928
f 933 926 932
f 932 926 931
f 926 928 947
f 926 947 946
f 926 946 935
f 935 934 926
f 926 934 931
f 935 936 934
f 935 937 936
f 937 939 936
f 937 935 940
f 940 935 942
f 943 942 935
f 939 937 938
f 937 940 938
f 943 944 942
f 945 944 943
f 940 942 941
f 958 957 956
f 959 957 958
f 960 957 959
f 960 961 957
f 963 961 960
f 961 963 962
f 1068 1066 1070
f 1070 1066 1069
f 1069 1066 1065
f 1069 1065 965
f 1069 965 967
f 966 967 965
f 966 965 964
f 966 964 1038
f 966 1038 1042
f 1067 998 1063
f 1064 1067 1063
f 1064 1068 1067
f 1064 1066 1068
f 1067 999 998
f 998 999 997
f 998 997 996
f 965 1065 968
f 969 965 968
f 964 965 969
f 1021 998 1020
f 998 1021 1063
f 1020 998 996
f 1038 964 969
f 1038 969 1036
f 968 1065 970
f 1065 1059 970
f 1066 1059 1065
f 1061 1063 1021
f 1062 1063 1061
f 1062 1064 1063
f 1062 1060 1064
f 1064 1060 1066
f 1066 1060 1059
f 970 969 968
f 1020 1019 1021
f 1019 1061 1021
f 970 971 969
f 971 1036 969
f 1037 1036 971
f 1020 1018 1019
f 1059 972 970
f 973 970 972
f 971 970 973
f 1016 1061 1019
f 1016 1019 1017
f 1017 1019 1018
f 1037 973 1035
f 971 973 1037
f 1059 1055 974
f 1059 974 972
f 1061 1015 1057
f 1016 1015 1061
f 1060 1056 1059
f 1059 1056 1055
f 1058 1056 1060
f 1058 1060 1062
f 1058 1062 1057
f 1057 1062 1061
f 973 972 975
f 975 972 974
f 1016 1014 1015
f 1014 1016 1017
f 1035 973 1034
f 1034 973 975
f 974 1079 1078
f 1055 1079 974
f 974 977 975
f 977 974 978
f 1012 1057 1015
f 1012 1015 1014
f 975 977 976
f 1034 975 1027
f 1027 975 976
f 1012 1014 1013
f 1055 1071 1079
f 981 976 980
f 979 976 977
f 1033 1027 976
f 1027 1033 1032
f 1027 1032 1031
f 1027 1031 1030
f 1013 1011 1012
f 1029 1027 1028
f 1028 1027 1026
f 1012 1011 1010
f 1057 1012 1010
f 1055 1072 1071
f 1056 1052 1055
f 1054 1052 1056
f 1053 1057 1010
f 1054 1057 1053
f 1054 1058 1057
f 1054 1056 1058
f 1055 1052 1051
f 1055 1074 1072
f 1074 1055 1073
f 1051 1073 1055
f 1051 1077 1073
f 1077 1051 1076
f 1009 1008 1011
f 1011 1008 1010
f 1039 1024 1029
f 1039 1029 1028
f 1053 1010 1008
f 1076 1051 1075
f 1039 1040 1024
f 984 983 982
f 1075 1051 983
f 983 985 982
f 1024 1040 986
f 983 987 985
f 985 987 986
f 1024 986 987
f 1006 1007 1009
f 1009 1007 1008
f 988 987 983
f 989 987 988
f 987 989 1025
f 987 1025 1024
f 1053 1008 1007
f 983 1051 988
f 1052 1045 1043
f 1048 1045 1052
f 1048 1052 1054
f 1048 1054 1047
f 1047 1054 1053
f 1047 1053 1007
f 1052 1043 1051
f 988 1051 1043
f 1005 1007 1006
f 991 989 988
f 989 991 1025
f 1025 991 1023
f 1004 1007 1005
f 990 988 1043
f 991 988 990
f 1004 1047 1007
f 991 990 993
f 991 993 992
f 1023 991 1022
f 1022 991 992
f 1005 1001 1004
f 1000 1001 1005
f 993 990 1043
f 1001 1047 1004
f 1044 993 1043
f 1045 1044 1043
f 1049 1047 1001
f 1049 1048 1047
f 1050 1048 1049
f 1050 1045 1048
f 1046 1045 1050
f 1045 1046 1044
f 1022 992 1041
f 1041 992 994
f 993 994 992
f 1002 1001 1000
f 993 995 994
f 1044 995 993
f 1002 1003 1001
f 1049 1001 1003
f 1082 1081 1080
f 1083 1081 1082
f 1098 1097 1096
f 1099 1097 1098
f 1094 1093 1092
f 1095 1093 1094
f 1086 1085 1084
f 1087 1085 1086
f 1090 1089 1088
f 1091 1089 1090
f 1102 1101 1100
f 1103 1101 1102
f 1118 1117 1116
f 1119 1117 1118
f 1114 1113 1112
f 1115 1113 1114
f 1106 1105 1104
f 1107 1105 1106
f 1110 1109 1108
f 1111 1109 1110
f 1139 1138 1141
f 1141 1138 1140
f 1143 1122 1142
f 1142 1122 1120
f 1130 1129 1128
f 1131 1129 1130
f 1134 1129 1131
f 1135 1129 1134
f 1138 1137 1136
f 1139 1137 1138
f 1122 1121 1120
f 1123 1121 1122
f 1126 1125 1124
f 1127 1125 1126
f 1126 1132 1127
f 1133 1132 1126
f 1147 1146 1152
f 1152 1146 1151
f 1151 1146 1150
f 1150 1146 1148
f 1146 1145 1144
f 1147 1145 1146
f 1146 1149 1148
f 1144 1149 1146
f 1186 1154 1153
f 1153 1185 1186
f 1218 1186 1185
f 1185 1217 1218
f 1250 1218 1217
f 1217 1249 1250
f 1282 1250 1249
f 1249 1281 1282
f 1314 1282 1281
f 1281 1313 1314
f 1346 1314 1313
f 1313 1345 1346
f 1378 1346 1345
f 1345 1377 1378
f 1410 1378 1377
f 1377 1409 1410
f 1442 1410 1409
f 1409 1441 1442
f 1474 1442 1441
f 1441 1473 1474
f 1506 1474 1473
f 1473 1505 1506
f 1538 1506 1505
f 1505 1537 1538
f 1570 1538 1537
f 1537 1569 1570
f 1602 1570 1569
f 1569 1601 1602
f 1634 1602 1601
f 1601 1633 1634
f 1666 1634 1633
f 1633 1665 1666
f 1698 1666 1665
f 1665 1697 1698
f 1730 1698 1697
f 1697 1729 1730
f 1762 1730 1729
f 1729 1761 1762
f 1794 1762 1761
f 1761 1793 1794
f 1826 1794 1793
f 1793 1825 1826
f 1858 1826 1825
f 1825 1857 1858
f 1890 1858 1857
f 1857 1889 1890
f 1922 1890 1889
f 1889 1921 1922
f 1954 1922 1921
f 1921 1953 1954
f 1986 1954 1953
f 1953 1985 1986
f 2018 1986 1985
f 1985 2017 2018
f 2050 2018 2017
f 2017 2049 2050
f 2082 2050 2049
f 2049 2081 2082
f 2114 2082 2081
f 2081 2113 2114
f 2146 2114 2113
f 2113 2145 2146
f 1187 1155 1154
f 1154 1186 1187
f 1219 1187 1186
f 1186 1218 1219
f 1251 1219 1218
f 1218 1250 1251
f 1283 1251 1250
f 1250 1282 1283
f 1315 1283 1282
f 1282 1314 1315
f 1347 1315 1314
f 1314 1346 1347
f 1379 1347 1346
f 1346 1378 1379
f 1411 1379 1378
f 1378 1410 1411
f 1443 1411 1410
f 1410 1442 1443
f 1475 1443 1442
f 1442 1474 1475
f 1507 1475 1474
f 1474 1506 1507
f 1539 1507 1506
f 1506 1538 1539
f 1571 1539 1538
f 1538 1570 1571
f 1603 1571 1570
f 1570 1602 1603
f 1635 1603 1602
f 1602 1634 1635
f 1667 1635 1634
f 1634 1666 1667
f 1699 1667 1666
f 1666 1698 1699
f 1731 1699 1698
f 1698 1730 1731
f 1763 1731 1730
f 1730 1762 1763
f 1795 1763 1762
f 1762 1794 1795
f 1827 1795 1794
f 1794 1826 1827
f 1859 1827 1826
f 1826 1858 1859
f 1891 1859 1858
f 1858 1890 1891
f 1923 1891 1890
f 1890 1922 1923
f 1955 1923 1922
f 1922 1954 1955
f 1987 1955 1954
f 1954 1986 1987
f 2019 1987 1986
f 1986 2018 2019
f 2051 2019 2018
f 2018 2050 2051
f 2083 2051 2050
f 2050 2082 2083
f 2115 2083 2082
f 2082 2114 2115
f 2147 2115 2114
f 2114 2146 2147
f 1188 1156 1155
f 1155 1187 1188
f 1220 1188 1187
f 1187 1219 1220
f 1252 1220 1219
f 1219 1251 1252
f 1284 1252 1251
f 1251 1283 1284
f 1316 1284 1283
f 1283 1315 1316
f 1348 1316 1315
f 1315 1347 1348
f 1380 1348 1347
f 1347 1379 1380
f 1412 1380 1379
f 1379 1411 1412
f 1444 1412 1411
f 1411 1443 1444
f 1476 1444 1443
f 1443 1475 1476
f 1508 1476 1475
f 1475 1507 1508
f 1540 1508 1507
f 1507 1539 1540
f 1572 1540 1539
f 1539 1571 1572
f 1604 1572 1571
f 1571 1603 1604
f 1636 1604 1603
f 1603 1635 1636
f 1668 1636 1635
f 1635 1667 1668
f 1700 1668 1667
f 1667 1699 1700
f 1732 1700 1699
f 1699 1731 1732
f 1764 1732 1731
f 1731 1763 1764
f 1796 1764 1763
f 1763 1795 1796
f 1828 1796 1795
f 1795 1827 1828
f 1860 1828 1827
f 1827 1859 1860
f 1892 1860 1859
f 1859 1891 1892
f 1924 1892 1891
f 1891 1923 1924
f 1956 1924 1923
f 1923 1955 1956
f 1988 1956 1955
f 1955 1987 1988
f 2020 1988 1987
f 1987 2019 2020
f 2052 2020 2019
f 2019 2051 2052
f 2084 2052 2051
f 2051 2083 2084
f 2116 2084 2083
f 2083 2115 2116
f 2148 2116 2115
f 2115 2147 2148
f 1189 1157 1156
f 1156 1188 1189
f 1221 1189 1188
f 1188 1220 1221
f 1253 1221 1220
f 1220 1252 1253
f 1285 1253 1252
f 1252 1284 1285
f 1317 1285 1284
f 1284 1316 1317
f 1349 1317 1316
f 1316 1348 1349
f 1381 1349 1348
f 1348 1380 1381
f 1413 1381 1380
f 1380 1412 1413
f 1445 1413 1412
f 1412 1444 1445
f 1477 1445 1444
f 1444 1476 1477
f 1509 1477 1476
f 1476 1508 1509
f 1541 1509 1508
f 1508 1540 1541
f 1573 1541 1540
f 1540 1572 1573
f 1605 1573 1572
f 1572 1604 1605
f 1637 1605 1604
f 1604 1636 1637
f 1669 1637 1636
f 1636 1668 1669
f 1701 1669 1668
f 1668 1700 1701
f 1733 1701 1700
f 1700 1732 1733
f 1765 1733 1732
f 1732 1764 1765
f 1797 1765 1764
f 1764 1796 1797
f 1829 1797 1796
f 1796 1828 1829
f 1861 1829 1828
f 1828 1860 1861
f 1893 1861 1860
f 1860 1892 1893
f 1925 1893 1892
f 1892 1924 1925
f 1957 1925 1924
f 1924 1956 1957
f 1989 1957 1956
f 1956 1988 1989
f 2021 1989 1988
f 1988 2020 2021
f 2053 2021 2020
f 2020 2052 2053
f 2085 2053 2052
f 2052 2084 2085
f 2117 2085 2084
f 2084 2116 2117
f 2149 2117 2116
f 2116 2148 2149
f 1190 1158 1157
f 1157 1189 1190
f 1222 1190 1189
f 1189 1221 1222
f 1254 1222 1221
f 1221 1253 1254
f 1286 1254 1253
f 1253 1285 1286
f 1318 1286 1285
f 1285 1317 1318
f 1350 1318 1317
f 1317 1349 1350
f 1382 1350 1349
f 1349 1381 1382
f 1414 1382 1381
f 1381 1413 1414
f 1446 1414 1413
f 1413 1445 1446
f 1478 1446 1445
f 1445 1477 1478
f 1510 1478 1477
f 1477 1509 1510
f 1542 1510 1509
f 1509 1541 1542
f 1574 1542 1541
f 1541 1573 1574
f 1606 1574 1573
f 1573 1605 1606
f 1638 1606 1605
f 1605 1637 1638
f 1670 1638 1637
f 1637 1669 1670
f 1702 1670 1669
f 1669 1701 1702
f 1734 1702 1701
f 1701 1733 1734
f 1766 1734 1733
f 1733 1765 1766
f 1798 1766 1765
f 1765 1797 1798
f 1830 1798 1797
f 1797 1829 1830
f 1862 1830 1829
f 1829 1861 1862
f 1894 1862 1861
f 1861 1893 1894
f 1926 1894 1893
f 1893 1925 1926
f 1958 1926 1925
f 1925 1957 1958
f 1990 1958 1957
f 1957 1989 1990
f 2022 1990 1989
f 1989 2021 2022
f 2054 2022 2021
f 2021 2053 2054
f 2086 2054 2053
f 2053 2085 2086
f 2118 2086 2085
f 2085 2117 2118
f 2150 2118 2117
f 2117 2149 2150
f 1191 1159 1158
f 1158 1190 1191
f 1223 1191 1190
f 1190 1222 1223
f 1255 1223 1222
f 1222 1254 1255
f 1287 1255 1254
f 1254 1286 1287
f 1319 1287 1286
f 1286 1318 1319
f 1351 1319 1318
f 1318 1350 1351
f 1383 1351 1350
f 1350 1382 1383
f 1415 1383 1382
f 1382 1414 1415
f 1447 1415 1414
f 1414 1446 1447
f 1479 1447 1446
f 1446 1478 1479
f 1511 1479 1478
f 1478 1510 1511
f 1543 1511 1510
f 1510 1542 1543
f 1575 1543 1542
f 1542 1574 1575
f 1607 1575 1574
f 1574 1606 1607
f 1639 1607 1606
f 1606 1638 1639
f 1671 1639 1638
f 1638 1670 1671
f 1703 1671 1670
f 1670 1702 1703
f 1735 1703 1702
f 1702 1734 1735
f 1767 1735 1734
f 1734 1766 1767
f 1799 1767 1766
f 1766 1798 1799
f 1831 1799 1798
f 1798 1830 1831
f 1863 1831 1830
f 1830 1862 1863
f 1895 1863 1862
f 1862 1894 1895
f 1927 1895 1894
f 1894 1926 1927
f 1959 1927 1926
f 1926 1958 1959
f 1991 1959 1958
f 1958 1990 1991
f 2023 1991 1990
f 1990 2022 2023
f 2055 2023 2022
f 2022 2054 2055
f 2087 2055 2054
f 2054 2086 2087
f 2119 2087 2086
f 2086 2118 2119
f 2151 2119 2118
f 2118 2150 2151
f 1192 1160 1159
f 1159 1191 1192
f 1224 1192 1191
f 1191 1223 1224
f 1256 1224 1223
f 1223 1255 1256
f 1288 1256 1255
f 1255 1287 1288
f 1320 1288 1287
f 1287 1319 1320
f 1352 1320 1319
f 1319 1351 1352
f 1384 1352 1351
f 1351 1383 1384
f 1416 1384 1383
f 1383 1415 1416
f 1448 1416 1415
f 1415 1447 1448
f 1480 1448 1447
f 1447 1479 1480
f 1512 1480 1479
f 1479 1511 1512
f 1544 1512 1511
f 1511 1543 1544
f 1576 1544 1543
f 1543 1575 1576
f 1608 1576 1575
f 1575 1607 1608
f 1640 1608 1607
f 1607 1639 1640
f 1672 1640 1639
f 1639 1671 1672
f 1704 1672 1671
f 1671 1703 1704
f 1736 1704 1703
f 1703 1735 1736
f 1768 1736 1735
f 1735 1767 1768
f 1800 1768 1767
f 1767 1799 1800
f 1832 1800 1799
f 1799 1831 1832
f 1864 1832 1831
f 1831 1863 1864
f 1896 1864 1863
f 1863 1895 1896
f 1928 1896 1895
f 1895 1927 1928
f 1960 1928 1927
f 1927 1959 1960
f 1992 1960 1959
f 1959 1991 1992
f 2024 1992 1991
f 1991 2023 2024
f 2056 2024 2023
f 2023 2055 2056
f 2088 2056 2055
f 2055 2087 2088
f 2120 2088 2087
f 2087 2119 2120
f 2152 2120 2119
f 2119 2151 2152
f 1193 1161 1160
f 1160 1192 1193
f 1225 1193 1192
f 1192 1224 1225
f 1257 1225 1224
f 1224 1256 1257
f 1289 1257 1256
f 1256 1288 1289
f 1321 1289 1288
f 1288 1320 1321
f 1353 1321 1320
f 1320 1352 1353
f 1385 1353 1352
f 1352 1384 1385
f 1417 1385 1384
f 1384 1416 1417
f 1449 1417 1416
f 1416 1448 1449
f 1481 1449 1448
f 1448 1480 1481
f 1513 1481 1480
f 1480 1512 1513
f 1545 1513 1512
f 1512 1544 1545
f 1577 1545 1544
f 1544 1576 1577
f 1609 1577 1576
f 1576 1608 1609
f 1641 1609 1608
f 1608 1640 1641
f 1673 1641 1640
f 1640 1672 1673
f 1705 1673 1672
f 1672 1704 1705
f 1737 1705 1704
f 1704 1736 1737
f 1769 1737 1736
f 1736 1768 1769
f 1801 1769 1768
f 1768 1800 1801
f 1833 1801 1800
f 1800 1832 1833
f 1865 1833 1832
f 1832 1864 1865
f 1897 1865 1864
f 1864 1896 1897
f 1929 1897 1896
f 1896 1928 1929
f 1961 1929 1928
f 1928 1960 1961
f 1993 1961 1960
f 1960 1992 1993
f 2025 1993 1992
f 1992 2024 2025
f 2057 2025 2024
f 2024 2056 2057
f 2089 2057 2056
f 2056 2088 2089
f 2121 2089 2088
f 2088 2120 2121
f 2153 2121 2120
f 2120 2152 2153
f 1194 1162 1161
f 1161 1193 1194
f 1226 1194 1193
f 1193 1225 1226
f 1258 1226 1225
f 1225 1257 1258
f 1290 1258 1257
f 1257 1289 1290
f 1322 1290 1289
f 1289 1321 1322
f 1354 1322 1321
f 1321 1353 1354
f 1386 1354 1353
f 1353 1385 1386
f 1418 1386 1385
f 1385 1417 1418
f 1450 1418 1417
f 1417 1449 1450
f 1482 1450 1449
f 1449 1481 1482
f 1514 1482 1481
f 1481 1513 1514
f 1546 1514 1513
f 1513 1545 1546
f 1578 1546 1545
f 1545 1577 1578
f 1610 1578 1577
f 1577 1609 1610
f 1642 1610 1609
f 1609 1641 1642
f 1674 1642 1641
f 1641 1673 1674
f 1706 1674 1673
f 1673 1705 1706
f 1738 1706 1705
f 1705 1737 1738
f 1770 1738 1737
f 1737 1769 1770
f 1802 1770 1769
f 1769 1801 1802
f 1834 1802 1801
f 1801 1833 1834
f 1866 1834 1833
f 1833 1865 1866
f 1898 1866 1865
f 1865 1897 1898
f 1930 1898 1897
f 1897 1929 1930
f 1962 1930 1929
f 1929 1961 1962
f 1994 1962 1961
f 1961 1993 1994
f 2026 1994 1993
f 1993 2025 2026
f 2058 2026 2025
f 2025 2057 2058
f 2090 2058 2057
f 2057 2089 2090
f 2122 2090 2089
f 2089 2121 2122
f 2154 2122 2121
f 2121 2153 2154
f 1195 1163 1162
f 1162 1194 1195
f 1227 1195 1194
f 1194 1226 1227
f 1259 1227 1226
f 1226 1258 1259
f 1291 1259 1258
f 1258 1290 1291
f 1323 1291 1290
f 1290 1322 1323
f 1355 1323 1322
f 1322 1354 1355
f 1387 1355 1354
f 1354 1386 1387
f 1419 1387 1386
f 1386 1418 1419
f 1451 1419 1418
f 1418 1450 1451
f 1483 1451 1450
f 1450 1482 1483
f 1515 1483 1482
f 1482 1514 1515
f 1547 1515 1514
f 1514 1546 1547
f 1579 1547 1546
f 1546 1578 1579
f 1611 1579 1578
f 1578 1610 1611
f 1643 1611 1610
f 1610 1642 1643
f 1675 1643 1642
f 1642 1674 1675
f 1707 1675 1674
f 1674 1706 1707
f 1739 1707 1706
f 1706 1738 1739
f 1771 1739 1738
f 1738 1770 1771
f 1803 1771 1770
f 1770 1802 1803
f 1835 1803 1802
f 1802 1834 1835
f 1867 1835 1834
f 1834 1866 1867
f 1899 1867 1866
f 1866 1898 1899
f 1931 1899 1898
f 1898 1930 1931
f 1963 1931 1930
f 1930 1962 1963
f 1995 1963 1962
f 1962 1994 1995
f 2027 1995 1994
f 1994 2026 2027
f 2059 2027 2026
f 2026 2058 2059
f 2091 2059 2058
f 2058 2090 2091
f 2123 2091 2090
f 2090 2122 2123
f 2155 2123 2122
f 2122 2154 2155
f 1196 1164 1163
f 1163 1195 1196
f 1228 1196 1195
f 1195 1227 1228
f 1260 1228 1227
f 1227 1259 1260
f 1292 1260 1259
f 1259 1291 1292
f 1324 1292 1291
f 1291 1323 1324
f 1356 1324 1323
f 1323 1355 1356
f 1388 1356 1355
f 1355 1387 1388
f 1420 1388 1387
f 1387 1419 1420
f 1452 1420 1419
f 1419 1451 1452
f 1484 1452 1451
f 1451 1483 1484
f 1516 1484 1483
f 1483 1515 1516
f 1548 1516 1515
f 1515 1547 1548
f 1580 1548 1547
f 1547 1579 1580
f 1612 1580 1579
f 1579 1611 1612
f 1644 1612 1611
f 1611 1643 1644
f 1676 1644 1643
f 1643 1675 1676
f 1708 1676 1675
f 1675 1707 1708
f 1740 1708 1707
f 1707 1739 1740
f 1772 1740 1739
f 1739 1771 1772
f 1804 1772 1771
f 1771 1803 1804
f 1836 1804 1803
f 1803 1835 1836
f 1868 1836 1835
f 1835 1867 1868
f 1900 1868 1867
f 1867 1899 1900
f 1932 1900 1899
f 1899 1931 1932
f 1964 1932 1931
f 1931 1963 1964
f 1996 1964 1963
f 1963 1995 1996
f 2028 1996 1995
f 1995 2027 2028
f 2060 2028 2027
f 2027 2059 2060
f 2092 2060 2059
f 2059 2091 2092
f 2124 2092 2091
f 2091 2123 2124
f 2156 2124 2123
f 2123 2155 2156
f 1197 1165 1164
f 1164 1196 1197
f 1229 1197 1196
f 1196 1228 1229
f 1261 1229 1228
f 1228 1260 1261
f 1293 1261 1260
f 1260 1292 1293
f 1325 1293 1292
f 1292 1324 1325
f 1357 1325 1324
f 1324 1356 1357
f 1389 1357 1356
f 1356 1388 1389
f 1421 1389 1388
f 1388 1420 1421
f 1453 1421 1420
f 1420 1452 1453
f 1485 1453 1452
f 1452 1484 1485
f 1517 1485 1484
f 1484 1516 1517
f 1549 1517 1516
f 1516 1548 1549
f 1581 1549 1548
f 1548 1580 1581
f 1613 1581 1580
f 1580 1612 1613
f 1645 1613 1612
f 1612 1644 1645
f 1677 1645 1644
f 1644 1676 1677
f 1709 1677 1676
f 1676 1708 1709
f 1741 1709 1708
f 1708 1740 1741
f 1773 1741 1740
f 1740 1772 1773
f 1805 1773 1772
f 1772 1804 1805
f 1837 1805 1804
f 1804 1836 1837
f 1869 1837 1836
f 1836 1868 1869
f 1901 1869 1868
f 1868 1900 1901
f 1933 1901 1900
f 1900 1932 1933
f 1965 1933 1932
f 1932 1964 1965
f 1997 1965 1964
f 1964 1996 1997
f 2029 1997 1996
f 1996 2028 2029
f 2061 2029 2028
f 2028 2060 2061
f 2093 2061 2060
f 2060 2092 2093
f 2125 2093 2092
f 2092 2124 2125
f 2157 2125 2124
f 2124 2156 2157
f 1198 1166 1165
f 1165 1197 1198
f 1230 1198 1197
f 1197 1229 1230
f 1262 1230 1229
f 1229 1261 1262
f 1294 1262 1261
f 1261 1293 1294
f 1326 1294 1293
f 1293 1325 1326
f 1358 1326 1325
f 1325 1357 1358
f 1390 1358 1357
f 1357 1389 1390
f 1422 1390 1389
f 1389 1421 1422
f 1454 1422 1421
f 1421 1453 1454
f 1486 1454 1453
f 1453 1485 1486
f 1518 1486 1485
f 1485 1517 1518
f 1550 1518 1517
f 1517 1549 1550
f 1582 1550 1549
f 1549 1581 1582
f 1614 1582 1581
f 1581 1613 1614
f 1646 1614 1613
f 1613 1645 1646
f 1678 1646 1645
f 1645 1677 1678
f 1710 1678 1677
f 1677 1709 1710
f 1742 1710 1709
f 1709 1741 1742
f 1774 1742 1741
f 1741 1773 1774
f 1806 1774 1773
f 1773 1805 1806
f 1838 1806 1805
f 1805 1837 1838
f 1870 1838 1837
f 1837 1869 1870
f 1902 1870 1869
f 1869 1901 1902
f 1934 1902 1901
f 1901 1933 1934
f 1966 1934 1933
f 1933 1965 1966
f 1998 1966 1965
f 1965 1997 1998
f 2030 1998 1997
f 1997 2029 2030
f 2062 2030 2029
f 2029 2061 2062
f 2094 2062 2061
f 2061 2093 2094
f 2126 2094 2093
f 2093 2125 2126
f 2158 2126 2125
f 2125 2157 2158
f 1199 1167 1166
f 1166 1198 1199
f 1231 1199 1198
f 1198 1230 1231
f 1263 1231 1230
f 1230 1262 1263
f 1295 1263 1262
f 1262 1294 1295
f 1327 1295 1294
f 1294 1326 1327
f 1359 1327 1326
f 1326 1358 1359
f 1391 1359 1358
f 1358 1390 1391
f 1423 1391 1390
f 1390 1422 1423
f 1455 1423 1422
f 1422 1454 1455
f 1487 1455 1454
f 1454 1486 1487
f 1519 1487 1486
f 1486 1518 1519
f 1551 1519 1518
f 1518 1550 1551
f 1583 1551 1550
f 1550 1582 1583
f 1615 1583 1582
f 1582 1614 1615
f 1647 1615 1614
f 1614 1646 1647
f 1679 1647 1646
f 1646 1678 1679
f 1711 1679 1678
f 1678 1710 1711
f 1743 1711 1710
f 1710 1742 1743
f 1775 1743 1742
f 1742 1774 1775
f 1807 1775 1774
f 1774 1806 1807
f 1839 1807 1806
f 1806 1838 1839
f 1871 1839 1838
f 1838 1870 1871
f 1903 1871 1870
f 1870 1902 1903
f 1935 1903 1902
f 1902 1934 1935
f 1967 1935 1934
f 1934 1966 1967
f 1999 1967 1966
f 1966 1998 1999
f 2031 1999 1998
f 1998 2030 2031
f 2063 2031 2030
f 2030 2062 2063
f 2095 2063 2062
f 2062 2094 2095
f 2127 2095 2094
f 2094 2126 2127
f 2159 2127 2126
f 2126 2158 2159
f 1200 1168 1167
f 1167 1199 1200
f 1232 1200 1199
f 1199 1231 1232
f 1264 1232 1231
f 1231 1263 1264
f 1296 1264 1263
f 1263 1295 1296
f 1328 1296 1295
f 1295 1327 1328
f 1360 1328 1327
f 1327 1359 1360
f 1392 1360 1359
f 1359 1391 1392
f 1424 1392 1391
f 1391 1423 1424
f 1456 1424 1423
f 1423 1455 1456
f 1488 1456 1455
f 1455 1487 1488
f 1520 1488 1487
f 1487 1519 1520
f 1552 1520 1519
f 1519 1551 1552
f 1584 1552 1551
f 1551 1583 1584
f 1616 1584 1583
f 1583 1615 1616
f 1648 1616 1615
f 1615 1647 1648
f 1680 1648 1647
f 1647 1679 1680
f 1712 1680 1679
f 1679 1711 1712
f 1744 1712 1711
f 1711 1743 1744
f 1776 1744 1743
f 1743 1775 1776
f 1808 1776 1775
f 1775 1807 1808
f 1840 1808 1807
f 1807 1839 1840
f 1872 1840 1839
f 1839 1871 1872
f 1904 1872 1871
f 1871 1903 1904
f 1936 1904 1903
f 1903 1935 1936
f 1968 1936 1935
f 1935 1967 1968
f 2000 1968 1967
f 1967 1999 2000
f 2032 2000 1999
f 1999 2031 2032
f 2064 2032 2031
f 2031 2063 2064
f 2096 2064 2063
f 2063 2095 2096
f 2128 2096 2095
f 2095 2127 2128
f 2160 2128 2127
f 2127 2159 2160
f 1201 1169 1168
f 1168 1200 1201
f 1233 1201 1200
f 1200 1232 1233
f 1265 1233 1232
f 1232 1264 1265
f 1297 1265 1264
f 1264 1296 1297
f 1329 1297 1296
f 1296 1328 1329
f 1361 1329 1328
f 1328 1360 1361
f 1393 1361 1360
f 1360 1392 1393
f 1425 1393 1392
f 1392 1424 1425
f 1457 1425 1424
f 1424 1456 1457
f 1489 1457 1456
f 1456 1488 1489
f 1521 1489 1488
f 1488 1520 1521
f 1553 1521 1520
f 1520 1552 1553
f 1585 1553 1552
f 1552 1584 1585
f 1617 1585 1584
f 1584 1616 1617
f 1649 1617 1616
f 1616 1648 1649
f 1681 1649 1648
f 1648 1680 1681
f 1713 1681 1680
f 1680 1712 1713
f 1745 1713 1712
f 1712 1744 1745
f 1777 1745 1744
f 1744 1776 1777
f 1809 1777 1776
f 1776 1808 1809
f 1841 1809 1808
f 1808 1840 1841
f 1873 1841 1840
f 1840 1872 1873
f 1905 1873 1872
f 1872 1904 1905
f 1937 1905 1904
f 1904 1936 1937
f 1969 1937 1936
f 1936 1968 1969
f 2001 1969 1968
f 1968 2000 2001
f 2033 2001 2000
f 2000 2032 2033
f 2065 2033 2032
f 2032 2064 2065
f 2097 2065 2064
f 2064 2096 2097
f 2129 2097 2096
f 2096 2128 2129
f 2161 2129 2128
f 2128 2160 2161
f 1202 1170 1169
f 1169 1201 1202
f 1234 1202 1201
f 1201 1233 1234
f 1266 1234 1233
f 1233 1265 1266
f 1298 1266 1265
f 1265 1297 1298
f 1330 1298 1297
f 1297 1329 1330
f 1362 1330 1329
f 1329 1361 1362
f 1394 1362 1361
f 1361 1393 1394
f 1426 1394 1393
f 1393 1425 1426
f 1458 1426 1425
f 1425 1457 1458
f 1490 1458 1457
f 1457 1489 1490
f 1522 1490 1489
f 1489 1521 1522
f 1554 1522 1521
f 1521 1553 1554
f 1586 1554 1553
f 1553 1585 1586
f 1618 1586 1585
f 1585 1617 1618
f 1650 1618 1617
f 1617 1649 1650
f 1682 1650 1649
f 1649 1681 1682
f 1714 1682 1681
f 1681 1713 1714
f 1746 1714 1713
f 1713 1745 1746
f 1778 1746 1745
f 1745 1777 1778
f 1810 1778 1777
f 1777 1809 1810
f 1842 1810 1809
f 1809 1841 1842
f 1874 1842 1841
f 1841 1873 1874
f 1906 1874 1873
f 1873 1905 1906
f 1938 1906 1905
f 1905 1937 1938
f 1970 1938 1937
f 1937 1969 1970
f 2002 1970 1969
f 1969 2001 2002
f 2034 2002 2001
f 2001 2033 2034
f 2066 2034 2033
f 2033 2065 2066
f 2098 2066 2065
f 2065 2097 2098
f 2130 2098 2097
f 2097 2129 2130
f 2162 2130 2129
f 2129 2161 2162
f 1203 1171 1170
f 1170 1202 1203
f 1235 1203 1202
f 1202 1234 1235
f 1267 1235 1234
f 1234 1266 1267
f 1299 1267 1266
f 1266 1298 1299
f 1331 1299 1298
f 1298 1330 1331
f 1363 1331 1330
f 1330 1362 1363
f 1395 1363 1362
f 1362 1394 1395
f 1427 1395 1394
f 1394 1426 1427
f 1459 1427 1426
f 1426 1458 1459
f 1491 1459 1458
f 1458 1490 1491
f 1523 1491 1490
f 1490 1522 1523
f 1555 1523 1522
f 1522 1554 1555
f 1587 1555 1554
f 1554 1586 1587
f 1619 1587 1586
f 1586 1618 1619
f 1651 1619 1618
f 1618 1650 1651
f 1683 1651 1650
f 1650 1682 1683
f 1715 1683 1682
f 1682 1714 1715
f 1747 1715 1714
f 1714 1746 1747
f 1779 1747 1746
f 1746 1778 1779
f 1811 1779 1778
f 1778 1810 1811
f 1843 1811 1810
f 1810 1842 1843
f 1875 1843 1842
f 1842 1874 1875
f 1907 1875 1874
f 1874 1906 1907
f 1939 1907 1906
f 1906 1938 1939
f 1971 1939 1938
f 1938 1970 1971
f 2003 1971 1970
f 1970 2002 2003
f 2035 2003 2002
f 2002 2034 2035
f 2067 2035 2034
f 2034 2066 2067
f 2099 2067 2066
f 2066 2098 2099
f 2131 2099 2098
f 2098 2130 2131
f 2163 2131 2130
f 2130 2162 2163
f 1204 1172 1171
f 1171 1203 1204
f 1236 1204 1203
f 1203 1235 1236
f 1268 1236 1235
f 1235 1267 1268
f 1300 1268 1267
f 1267 1299 1300
f 1332 1300 1299
f 1299 1331 1332
f 1364 1332 1331
f 1331 1363 1364
f 1396 1364 1363
f 1363 1395 1396
f 1428 1396 1395
f 1395 1427 1428
f 1460 1428 1427
f 1427 1459 1460
f 1492 1460 1459
f 1459 1491 1492
f 1524 1492 1491
f 1491 1523 1524
f 1556 1524 1523
f 1523 1555 1556
f 1588 1556 1555
f 1555 1587 1588
f 1620 1588 1587
f 1587 1619 1620
f 1652 1620 1619
f 1619 1651 1652
f 1684 1652 1651
f 1651 1683 1684
f 1716 1684 1683
f 1683 1715 1716
f 1748 1716 1715
f 1715 1747 1748
f 1780 1748 1747
f 1747 1779 1780
f 1812 1780 1779
f 1779 1811 1812
f 1844 1812 1811
f 1811 1843 1844
f 1876 1844 1843
f 1843 1875 1876
f 1908 1876 1875
f 1875 1907 1908
f 1940 1908 1907
f 1907 1939 1940
f 1972 1940 1939
f 1939 1971 1972
f 2004 1972 1971
f 1971 2003 2004
f 2036 2004 2003
f 2003 2035 2036
f 2068 2036 2035
f 2035 2067 2068
f 2100 2068 2067
f 2067 2099 2100
f 2132 2100 2099
f 2099 2131 2132
f 2164 2132 2131
f 2131 2163 2164
f 1205 1173 1172
f 1172 1204 1205
f 1237 1205 1204
f 1204 1236 1237
f 1269 1237 1236
f 1236 1268 1269
f 1301 1269 1268
f 1268 1300 1301
f 1333 1301 1300
f 1300 1332 1333
f 1365 1333 1332
f 1332 1364 1365
f 1397 1365 1364
f 1364 1396 1397
f 1429 1397 1396
f 1396 1428 1429
f 1461 1429 1428
f 1428 1460 1461
f 1493 1461 1460
f 1460 1492 1493
f 1525 1493 1492
f 1492 1524 1525
f 1557 1525 1524
f 1524 1556 1557
f 1589 1557 1556
f 1556 1588 1589
f 1621 1589 1588
f 1588 1620 1621
f 1653 1621 1620
f 1620 1652 1653
f 1685 1653 1652
f 1652 1684 1685
f 1717 1685 1684
f 1684 1716 1717
f 1749 1717 1716
f 1716 1748 1749
f 1781 1749 1748
f 1748 1780 1781
f 1813 1781 1780
f 1780 1812 1813
f 1845 1813 1812
f 1812 1844 1845
f 1877 1845 1844
f 1844 1876 1877
f 1909 1877 1876
f 1876 1908 1909
f 1941 1909 1908
f 1908 1940 1941
f 1973 1941 1940
f 1940 1972 1973
f 2005 1973 1972
f 1972 2004 2005
f 2037 2005 2004
f 2004 2036 2037
f 2069 2037 2036
f 2036 2068 2069
f 2101 2069 2068
f 2068 2100 2101
f 2133 2101 2100
f 2100 2132 2133
f 2165 2133 2132
f 2132 2164 2165
f 1206 1174 1173
f 1173 1205 1206
f 1238 1206 1205
f 1205 1237 1238
f 1270 1238 1237
f 1237 1269 1270
f 1302 1270 1269
f 1269 1301 1302
f 1334 1302 1301
f 1301 1333 1334
f 1366 1334 1333
f 1333 1365 1366
f 1398 1366 1365
f 1365 1397 1398
f 1430 1398 1397
f 1397 1429 1430
f 1462 1430 1429
f 1429 1461 1462
f 1494 1462 1461
f 1461 1493 1494
f 1526 1494 1493
f 1493 1525 1526
f 1558 1526 1525
f 1525 1557 1558
f 1590 1558 1557
f 1557 1589 1590
f 1622 1590 1589
f 1589 1621 1622
f 1654 1622 1621
f 1621 1653 1654
f 1686 1654 1653
f 1653 1685 1686
f 1718 1686 1685
f 1685 1717 1718
f 1750 1718 1717
f 1717 1749 1750
f 1782 1750 1749
f 1749 1781 1782
f 1814 1782 1781
f 1781 1813 1814
f 1846 1814 1813
f 1813 1845 1846
f 1878 1846 1845
f 1845 1877 1878
f 1910 1878 1877
f 1877 1909 1910
f 1942 1910 1909
f 1909 1941 1942
f 1974 1942 1941
f 1941 1973 1974
f 2006 1974 1973
f 1973 2005 2006
f 2038 2006 2005
f 2005 2037 2038
f 2070 2038 2037
f 2037 2069 2070
f 2102 2070 2069
f 2069 2101 2102
f 2134 2102 2101
f 2101 2133 2134
f 2166 2134 2133
f 2133 2165 2166
f 1207 1175 1174
f 1174 1206 1207
f 1239 1207 1206
f 1206 1238 1239
f 1271 1239 1238
f 1238 1270 1271
f 1303 1271 1270
f 1270 1302 1303
f 1335 1303 1302
f 1302 1334 1335
f 1367 1335 1334
f 1334 1366 1367
f 1399 1367 1366
f 1366 1398 1399
f 1431 1399 1398
f 1398 1430 1431
f 1463 1431 1430
f 1430 1462 1463
f 1495 1463 1462
f 1462 1494 1495
f 1527 1495 1494
f 1494 1526 1527
f 1559 1527 1526
f 1526 1558 1559
f 1591 1559 1558
f 1558 1590 1591
f 1623 1591 1590
f 1590 1622 1623
f 1655 1623 1622
f 1622 1654 1655
f 1687 1655 1654
f 1654 1686 1687
f 1719 1687 1686
f 1686 1718 1719
f 1751 1719 1718
f 1718 1750 1751
f 1783 1751 1750
f 1750 1782 1783
f 1815 1783 1782
f 1782 1814 1815
f 1847 1815 1814
f 1814 1846 1847
f 1879 1847 1846
f 1846 1878 1879
f 1911 1879 1878
f 1878 1910 1911
f 1943 1911 1910
f 1910 1942 1943
f 1975 1943 1942
f 1942 1974 1975
f 2007 1975 1974
f 1974 2006 2007
f 2039 2007 2006
f 2006 2038 2039
f 2071 2039 2038
f 2038 2070 2071
f 2103 2071 2070
f 2070 2102 2103
f 2135 2103 2102
f 2102 2134 2135
f 2167 2135 2134
f 2134 2166 2167
f 1208 1176 1175
f 1175 1207 1208
f 1240 1208 1207
f 1207 1239 1240
f 1272 1240 1239
f 1239 1271 1272
f 1304 1272 1271
f 1271 1303 1304
f 1336 1304 1303
f 1303 1335 1336
f 1368 1336 1335
f 1335 1367 1368
f 1400 1368 1367
f 1367 1399 1400
f 1432 1400 1399
f 1399 1431 1432
f 1464 1432 1431
f 1431 1463 1464
f 1496 1464 1463
f 1463 1495 1496
f 1528 1496 1495
f 1495 1527 1528
f 1560 1528 1527
f 1527 1559 1560
f 1592 1560 1559
f 1559 1591 1592
f 1624 1592 1591
f 1591 1623 1624
f 1656 1624 1623
f 1623 1655 1656
f 1688 1656 1655
f 1655 1687 1688
f 1720 1688 1687
f 1687 1719 1720
f 1752 1720 1719
f 1719 1751 1752
f 1784 1752 1751
f 1751 1783 1784
f 1816 1784 1783
f 1783 1815 1816
f 1848 1816 1815
f 1815 1847 1848
f 1880 1848 1847
f 1847 1879 1880
f 1912 1880 1879
f 1879 1911 1912
f 1944 1912 1911
f 1911 1943 1944
f 1976 1944 1943
f 1943 1975 1976
f 2008 1976 1975
f 1975 2007 2008
f 2040 2008 2007
f 2007 2039 2040
f 2072 2040 2039
f 2039 2071 2072
f 2104 2072 2071
f 2071 2103 2104
f 2136 2104 2103
f 2103 2135 2136
f 2168 2136 2135
f 2135 2167 2168
f 1209 1177 1176
f 1176 1208 1209
f 1241 1209 1208
f 1208 1240 1241
f 1273 1241 1240
f 1240 1272 1273
f 1305 1273 1272
f 1272 1304 1305
f 1337 1305 1304
f 1304 1336 1337
f 1369 1337 1336
f 1336 1368 1369
f 1401 1369 1368
f 1368 1400 1401
f 1433 1401 1400
f 1400 1432 1433
f 1465 1433 1432
f 1432 1464 1465
f 1497 1465 1464
f 1464 1496 1497
f 1529 1497 1496
f 1496 1528 1529
f 1561 1529 1528
f 1528 1560 1561
f 1593 1561 1560
f 1560 1592 1593
f 1625 1593 1592
f 1592 1624 1625
f 1657 1625 1624
f 1624 1656 1657
f 1689 1657 1656
f 1656 1688 1689
f 1721 1689 1688
f 1688 1720 1721
f 1753 1721 1720
f 1720 1752 1753
f 1785 1753 1752
f 1752 1784 1785
f 1817 1785 1784
f 1784 1816 1817
f 1849 1817 1816
f 1816 1848 1849
f 1881 1849 1848
f 1848 1880 1881
f 1913 1881 1880
f 1880 1912 1913
f 1945 1913 1912
f 1912 1944 1945
f 1977 1945 1944
f 1944 1976 1977
f 2009 1977 1976
f 1976 2008 2009
f 2041 2009 2008
f 2008 2040 2041
f 2073 2041 2040
f 2040 2072 2073
f 2105 2073 2072
f 2072 2104 2105
f 2137 2105 2104
f 2104 2136 2137
f 2169 2137 2136
f 2136 2168 2169
f 1210 1178 1177
f 1177 1209 1210
f 1242 1210 1209
f 1209 1241 1242
f 1274 1242 1241
f 1241 1273 1274
f 1306 1274 1273
f 1273 1305 1306
f 1338 1306 1305
f 1305 1337 1338
f 1370 1338 1337
f 1337 1369 1370
f 1402 1370 1369
f 1369 1401 1402
f 1434 1402 1401
f 1401 1433 1434
f 1466 1434 1433
f 1433 1465 1466
f 1498 1466 1465
f 1465 1497 1498
f 1530 1498 1497
f 1497 1529 1530
f 1562 1530 1529
f 1529 1561 1562
f 1594 1562 1561
f 1561 1593 1594
f 1626 1594 1593
f 1593 1625 1626
f 1658 1626 1625
f 1625 1657 1658
f 1690 1658 1657
f 1657 1689 1690
f 1722 1690 1689
f 1689 1721 1722
f 1754 1722 1721
f 1721 1753 1754
f 1786 1754 1753
f 1753 1785 1786
f 1818 1786 1785
f 1785 1817 1818
f 1850 1818 1817
f 1817 1849 1850
f 1882 1850 1849
f 1849 1881 1882
f 1914 1882 1881
f 1881 1913 1914
f 1946 1914 1913
f 1913 1945 1946
f 1978 1946 1945
f 1945 1977 1978
f 2010 1978 1977
f 1977 2009 2010
f 2042 2010 2009
f 2009 2041 2042
f 2074 2042 2041
f 2041 2073 2074
f 2106 2074 2073
f 2073 2105 2106
f 2138 2106 2105
f 2105 2137 2138
f 2170 2138 2137
f 2137 2169 2170
f 1211 1179 1178
f 1178 1210 1211
f 1243 1211 1210
f 1210 1242 1243
f 1275 1243 1242
f 1242 1274 1275
f 1307 1275 1274
f 1274 1306 1307
f 1339 1307 1306
f 1306 1338 1339
f 1371 1339 1338
f 1338 1370 1371
f 1403 1371 1370
f 1370 1402 1403
f 1435 1403 1402
f 1402 1434 1435
f 1467 1435 1434
f 1434 1466 1467
f 1499 1467 1466
f 1466 1498 1499
f 1531 1499 1498
f 1498 1530 1531
f 1563 1531 1530
f 1530 1562 1563
f 1595 1563 1562
f 1562 1594 1595
f 1627 1595 1594
f 1594 1626 1627
f 1659 1627 1626
f 1626 1658 1659
f 1691 1659 1658
f 1658 1690 1691
f 1723 1691 1690
f 1690 1722 1723
f 1755 1723 1722
f 1722 1754 1755
f 1787 1755 1754
f 1754 1786 1787
f 1819 1787 1786
f 1786 1818 1819
f 1851 1819 1818
f 1818 1850 1851
f 1883 1851 1850
f 1850 1882 1883
f 1915 1883 1882
f 1882 1914 1915
f 1947 1915 1914
f 1914 1946 1947
f 1979 1947 1946
f 1946 1978 1979
f 2011 1979 1978
f 1978 2010 2011
f 2043 2011 2010
f 2010 2042 2043
f 2075 2043 2042
f 2042 2074 2075
f 2107 2075 2074
f 2074 2106 2107
f 2139 2107 2106
f 2106 2138 2139
f 2171 2139 2138
f 2138 2170 2171
f 1212 1180 1179
f 1179 1211 1212
f 1244 1212 1211
f 1211 1243 1244
f 1276 1244 1243
f 1243 1275 1276
f 1308 1276 1275
f 1275 1307 1308
f 1340 1308 1307
f 1307 1339 1340
f 1372 1340 1339
f 1339 1371 1372
f 1404 1372 1371
f 1371 1403 1404
f 1436 1404 1403
f 1403 1435 1436
f 1468 1436 1435
f 1435 1467 1468
f 1500 1468 1467
f 1467 1499 1500
f 1532 1500 1499
f 1499 1531 1532
f 1564 1532 1531
f 1531 1563 1564
f 1596 1564 1563
f 1563 1595 1596
f 1628 1596 1595
f 1595 1627 1628
f 1660 1628 1627
f 1627 1659 1660
f 1692 1660 1659
f 1659 1691 1692
f 1724 1692 1691
f 1691 1723 1724
f 1756 1724 1723
f 1723 1755 1756
f 1788 1756 1755
f 1755 1787 1788
f 1820 1788 1787
f 1787 1819 1820
f 1852 1820 1819
f 1819 1851 1852
f 1884 1852 1851
f 1851 1883 1884
f 1916 1884 1883
f 1883 1915 1916
f 1948 1916 1915
f 1915 1947 1948
f 1980 1948 1947
f 1947 1979 1980
f 2012 1980 1979
f 1979 2011 2012
f 2044 2012 2011
f 2011 2043 2044
f 2076 2044 2043
f 2043 2075 2076
f 2108 2076 2075
f 2075 2107 2108
f 2140 2108 2107
f 2107 2139 2140
f 2172 2140 2139
f 2139 2171 2172
f 1213 1181 1180
f 1180 1212 1213
f 1245 1213 1212
f 1212 1244 1245
f 1277 1245 1244
f 1244 1276 1277
f 1309 1277 1276
f 1276 1308 1309
f 1341 1309 1308
f 1308 1340 1341
f 1373 1341 1340
f 1340 1372 1373
f 1405 1373 1372
f 1372 1404 1405
f 1437 1405 1404
f 1404 1436 1437
f 1469 1437 1436
f 1436 1468 1469
f 1501 1469 1468
f 1468 1500 1501
f 1533 1501 1500
f 1500 1532 1533
f 1565 1533 1532
f 1532 1564 1565
f 1597 1565 1564
f 1564 1596 1597
f 1629 1597 1596
f 1596 1628 1629
f 1661 1629 1628
f 1628 1660 1661
f 1693 1661 1660
f 1660 1692 1693
f 1725 1693 1692
f 1692 1724 1725
f 1757 1725 1724
f 1724 1756 1757
f 1789 1757 1756
f 1756 1788 1789
f 1821 1789 1788
f 1788 1820 1821
f 1853 1821 1820
f 1820 1852 1853
f 1885 1853 1852
f 1852 1884 1885
f 1917 1885 1884
f 1884 1916 1917
f 1949 1917 1916
f 1916 1948 1949
f 1981 1949 1948
f 1948 1980 1981
f 2013 1981 1980
f 1980 2012 2013
f 2045 2013 2012
f 2012 2044 2045
f 2077 2045 2044
f 2044 2076 2077
f 2109 2077 2076
f 2076 2108 2109
f 2141 2109 2108
f 2108 2140 2141
f 2173 2141 2140
f 2140 2172 2173
f 1214 1182 1181
f 1181 1213 1214
f 1246 1214 1213
f 1213 1245 1246
f 1278 1246 1245
f 1245 1277 1278
f 1310 1278 1277
f 1277 1309 1310
f 1342 1310 1309
f 1309 1341 1342
f 1374 1342 1341
f 1341 1373 1374
f 1406 1374 1373
f 1373 1405 1406
f 1438 1406 1405
f 1405 1437 1438
f 1470 1438 1437
f 1437 1469 1470
f 1502 1470 1469
f 1469 1501 1502
f 1534 1502 1501
f 1501 1533 1534
f 1566 1534 1533
f 1533 1565 1566
f 1598 1566 1565
f 1565 1597 1598
f 1630 1598 1597
f 1597 1629 1630
f 1662 1630 1629
f 1629 1661 1662
f 1694 1662 1661
f 1661 1693 1694
f 1726 1694 1693
f 1693 1725 1726
f 1758 1726 1725
f 1725 1757 1758
f 1790 1758 1757
f 1757 1789 1790
f 1822 1790 1789
f 1789 1821 1822
f 1854 1822 1821
f 1821 1853 1854
f 1886 1854 1853
f 1853 1885 1886
f 1918 1886 1885
f 1885 1917 1918
f 1950 1918 1917
f 1917 1949 1950
f 1982 1950 1949
f 1949 1981 1982
f 2014 1982 1981
f 1981 2013 2014
f 2046 2014 2013
f 2013 2045 2046
f 2078 2046 2045
f 2045 2077 2078
f 2110 2078 2077
f 2077 2109 2110
f 2142 2110 2109
f 2109 2141 2142
f 2174 2142 2141
f 2141 2173 2174
f 1215 1183 1182
f 1182 1214 1215
f 1247 1215 1214
f 1214 1246 1247
f 1279 1247 1246
f 1246 1278 1279
f 1311 1279 1278
f 1278 1310 1311
f 1343 1311 1310
f 1310 1342 1343
f 1375 1343 1342
f 1342 1374 1375
f 1407 1375 1374
f 1374 1406 1407
f 1439 1407 1406
f 1406 1438 1439
f 1471 1439 1438
f 1438 1470 1471
f 1503 1471 1470
f 1470 1502 1503
f 1535 1503 1502
f 1502 1534 1535
f 1567 1535 1534
f 1534 1566 1567
f 1599 1567 1566
f 1566 1598 1599
f 1631 1599 1598
f 1598 1630 1631
f 1663 1631 1630
f 1630 1662 1663
f 1695 1663 1662
f 1662 1694 1695
f 1727 1695 1694
f 1694 1726 1727
f 1759 1727 1726
f 1726 1758 1759
f 1791 1759 1758
f 1758 1790 1791
f 1823 1791 1790
f 1790 1822 1823
f 1855 1823 1822
f 1822 1854 1855
f 1887 1855 1854
f 1854 1886 1887
f 1919 1887 1886
f 1886 1918 1919
f 1951 1919 1918
f 1918 1950 1951
f 1983 1951 1950
f 1950 1982 1983
f 2015 1983 1982
f 1982 2014 2015
f 2047 2015 2014
f 2014 2046 2047
f 2079 2047 2046
f 2046 2078 2079
f 2111 2079 2078
f 2078 2110 2111
f 2143 2111 2110
f 2110 2142 2143
f 2175 2143 2142
f 2142 2174 2175
f 1216 1184 1183
f 1183 1215 1216
f 1248 1216 1215
f 1215 1247 1248
f 1280 1248 1247
f 1247 1279 1280
f 1312 1280 1279
f 1279 1311 1312
f 1344 1312 1311
f 1311 1343 1344
f 1376 1344 1343
f 1343 1375 1376
f 1408 1376 1375
f 1375 1407 1408
f 1440 1408 1407
f 1407 1439 1440
f 1472 1440 1439
f 1439 1471 1472
f 1504 1472 1471
f 1471 1503 1504
f 1536 1504 1503
f 1503 1535 1536
f 1568 1536 1535
f 1535 1567 1568
f 1600 1568 1567
f 1567 1599 1600
f 1632 1600 1599
f 1599 1631 1632
f 1664 1632 1631
f 1631 1663 1664
f 1696 1664 1663
f 1663 1695 1696
f 1728 1696 1695
f 1695 1727 1728
f 1760 1728 1727
f 1727 1759 1760
f 1792 1760 1759
f 1759 1791 1792
f 1824 1792 1791
f 1791 1823 1824
f 1856 1824 1823
f 1823 1855 1856
f 1888 1856 1855
f 1855 1887 1888
f 1920 1888 1887
f 1887 1919 1920
f 1952 1920 1919
f 1919 1951 1952
f 1984 1952 1951
f 1951 1983 1984
f 2016 1984 1983
f 1983 2015 2016
f 2048 2016 2015
f 2015 2047 2048
f 2080 2048 2047
f 2047 2079 2080
f 2112 2080 2079
f 2079 2111 2112
f 2144 2112 2111
f 2111 2143 2144
f 2176 2144 2143
f 2143 2175 2176
