v 6388.33 67.6097 -196.282
v 6388.41 67.8085 -196.288
v 6388.33 67.6758 -196.273
v 6388.33 67.8323 -196.252
v 6388.33 67.6081 -196.283
v 6388.37 67.6107 -196.338
v 6388.53 67.6963 -196.528
v 6388.43 67.6099 -196.436
v 6388.42 67.6089 -196.416
v 6388.51 67.7339 -196.572
v 6388.34 68.0197 -196.5
v 6388.57 67.7932 -196.637
v 6388.58 67.9212 -196.689
v 6388.81 67.9192 -196.81
v 6388.65 67.8359 -196.695
v 6388.46 67.973 -196.886
v 6388.43 67.9848 -196.902
v 6388.42 67.9908 -196.889
v 6388.33 68.0406 -196.651
v 6388.38 67.9923 -196.839
v 6388.33 68.028 -196.799
v 6388.33 67.9702 -196.397
v 6388.33 67.9127 -196.294
v 6388.33 65.6759 -195.285
v 6388.33 66.5022 -194.459
v 6388.43 65.6209 -195.34
v 6389.18 65.5915 -195.369
v 6389.28 65.6596 -195.301
v 6388.41 66.5631 -194.398
v 6389.21 66.5631 -194.398
v 6389.28 66.5022 -194.459
v 6389.28 68.6417 -198.296
v 6389.28 69.4971 -197.44
v 6389.18 68.595 -198.342
v 6388.43 68.587 -198.35
v 6388.33 68.6624 -198.275
v 6389.21 69.5581 -197.379
v 6388.41 69.5581 -197.379
v 6388.33 69.4971 -197.44
v 6388.43 65.8837 -195.414
v 6388.33 65.9422 -195.344
v 6388.43 65.6209 -195.34
v 6388.33 65.6759 -195.285
v 6388.33 66.2165 -195.44
v 6388.43 66.1604 -195.505
v 6388.33 66.6021 -195.61
v 6388.43 66.5515 -195.668
v 6388.33 66.9863 -195.802
v 6388.43 66.9267 -195.866
v 6388.33 67.3407 -196.025
v 6388.43 67.2824 -196.085
v 6388.43 67.565 -196.384
v 6388.37 67.6107 -196.338
v 6388.33 67.6081 -196.283
v 6388.42 67.6089 -196.416
v 6388.42 67.6089 -196.416
v 6388.43 67.6099 -196.436
v 6388.38 67.9923 -196.839
v 6388.33 68.137 -196.973
v 6388.33 68.028 -196.799
v 6388.42 67.9908 -196.889
v 6388.43 67.9848 -196.902
v 6388.43 68.0763 -197.029
v 6388.33 68.3534 -197.332
v 6388.43 68.3045 -197.374
v 6388.33 68.5167 -197.725
v 6388.43 68.4692 -197.764
v 6388.43 68.5524 -198.048
v 6388.33 68.6191 -197.993
v 6388.43 68.587 -198.35
v 6388.33 68.6624 -198.275
v 6389.18 65.8931 -195.405
v 6389.18 65.5915 -195.369
v 6389.28 65.9319 -195.355
v 6389.28 65.6596 -195.301
v 6389.18 68.5438 -198.056
v 6389.28 68.6181 -197.994
v 6389.18 68.595 -198.342
v 6389.28 68.6417 -198.296
v 6389.28 68.5381 -197.704
v 6389.18 68.4483 -197.785
v 6389.18 68.306 -197.373
v 6389.28 68.3628 -197.323
v 6389.28 68.1623 -196.948
v 6389.18 68.0985 -197.007
v 6389.28 67.9279 -196.605
v 6389.18 67.8363 -196.694
v 6389.28 67.6422 -196.307
v 6389.18 67.5887 -196.36
v 6389.18 67.2833 -196.084
v 6389.28 67.342 -196.023
v 6389.28 67.0049 -195.783
v 6389.18 66.9492 -195.844
v 6389.18 66.5475 -195.672
v 6389.28 66.6124 -195.6
v 6389.18 66.1851 -195.48
v 6389.28 66.2192 -195.437
v 6389.18 68.5438 -198.056
v 6389.18 68.4483 -197.785
v 6389.18 68.0985 -197.007
v 6389.18 68.306 -197.373
v 6388.57 67.7932 -196.637
v 6389.18 67.5887 -196.36
v 6388.65 67.8359 -196.695
v 6389.18 67.8363 -196.694
v 6388.57 67.7932 -196.637
v 6388.51 67.7339 -196.572
v 6388.53 67.6963 -196.528
v 6388.43 67.6099 -196.436
v 6389.18 67.2833 -196.084
v 6389.18 66.9492 -195.844
v 6389.18 66.1851 -195.48
v 6389.18 66.5475 -195.672
v 6389.18 65.8931 -195.405
v 6388.81 67.9192 -196.81
v 6388.46 67.973 -196.886
v 6389.18 68.595 -198.342
v 6389.18 65.5915 -195.369
v 6388.33 69.3878 -197.172
v 6388.33 69.4971 -197.44
v 6388.41 69.4488 -197.111
v 6388.41 69.5581 -197.379
v 6389.28 69.3878 -197.172
v 6389.21 69.4488 -197.111
v 6389.28 69.4971 -197.44
v 6389.21 69.5581 -197.379
v 6388.33 68.7442 -196.526
v 6388.41 68.8051 -196.465
v 6389.28 68.7442 -196.526
v 6389.21 68.8051 -196.465
v 6388.33 68.1423 -195.807
v 6388.41 68.2032 -195.746
v 6389.28 68.1423 -195.807
v 6389.21 68.2032 -195.746
v 6388.33 67.5075 -195.12
v 6388.41 67.5685 -195.059
v 6389.28 67.5075 -195.12
v 6389.21 67.5685 -195.059
v 6389.28 66.7775 -194.561
v 6389.21 66.8384 -194.5
v 6388.33 66.7775 -194.561
v 6388.41 66.8384 -194.5
v 6389.28 66.5022 -194.459
v 6389.21 66.5631 -194.398
v 6388.33 66.5022 -194.459
v 6388.41 66.5631 -194.398
v 6388.33 67.6758 -196.273
v 6388.33 67.8323 -196.252
v 6388.33 67.9702 -196.397
v 6388.33 67.9127 -196.294
v 6388.33 68.028 -196.799
v 6388.33 68.0406 -196.651
v 6388.34 68.0197 -196.5
v 6388.33 67.6081 -196.283
v 6388.33 67.6097 -196.282
v 6396.12 65.4925 -207.439
v 6388.12 65.4925 -207.439
v 6396.12 57.4925 -207.439
v 6388.12 57.4925 -207.439
v 6388.12 57.4925 -207.439
v 6388.12 65.4925 -207.439
v 6388.12 57.4925 -199.439
v 6388.12 65.4925 -199.439
v 6404.12 57.4925 -207.439
v 6404.12 57.4925 -199.439
v 6404.12 65.4925 -207.439
v 6404.12 65.4925 -199.439
v 6388.12 65.4925 -191.439
v 6388.12 57.4925 -191.439
v 6404.12 65.4925 -191.439
v 6404.12 57.4925 -191.439
v 6388.12 57.4925 -191.439
v 6388.12 65.4925 -191.439
v 6396.12 57.4925 -191.439
v 6396.12 65.4925 -191.439
v 6404.12 57.4925 -191.439
v 6404.12 65.4925 -191.439
v 6404.12 65.4925 -207.439
v 6404.12 57.4925 -207.439
v 6388.12 65.4925 -199.439
v 6388.12 65.4925 -207.439
v 6396.12 65.4925 -199.439
v 6396.12 65.4925 -207.439
v 6396.12 65.4925 -191.439
v 6388.12 65.4925 -191.439
v 6404.12 65.4925 -191.439
v 6404.12 65.4925 -199.439
v 6404.12 65.4925 -207.439
v 6398.11 62.2317 -205.683
v 6398.11 62.2317 -206.683
v 6389.87 62.2317 -205.684
v 6389.87 62.2317 -206.684
v 6389.87 63.2317 -205.684
v 6389.87 63.2317 -206.684
v 6398.11 63.2317 -205.683
v 6398.11 63.2317 -206.683
v 6389.87 63.2317 -206.684
v 6389.87 62.2317 -206.684
v 6398.11 63.2317 -206.683
v 6398.11 62.2317 -206.683
v 6389.87 63.2317 -205.684
v 6398.11 63.2317 -205.683
v 6389.87 62.2317 -205.684
v 6398.11 62.2317 -205.683
v 6389.87 62.2317 -205.684
v 6389.87 62.2317 -206.684
v 6389.87 63.2317 -205.684
v 6389.87 63.2317 -206.684
v 6390.79 64.7862 -197.547
v 6390.09 64.7862 -196.84
v 6390.79 66.9862 -197.547
v 6390.09 66.9862 -196.84
v 6390.09 66.9862 -198.254
v 6389.38 66.9862 -197.547
v 6390.09 64.7862 -198.254
v 6389.38 64.7862 -197.547
v 6389.38 66.9862 -197.547
v 6390.09 66.9862 -196.84
v 6389.38 64.7862 -197.547
v 6390.09 64.7862 -196.84
v 6390.09 66.9862 -198.254
v 6390.09 64.7862 -198.254
v 6390.79 66.9862 -197.547
v 6390.79 64.7862 -197.547
v 6390.79 66.9862 -197.547
v 6390.09 66.9862 -196.84
v 6390.09 66.9862 -198.254
v 6389.38 66.9862 -197.547
v 6390.79 63.8622 -197.564
v 6390.08 63.8622 -198.271
v 6389.23 63.8622 -196.008
v 6388.52 63.8622 -196.715
v 6389.23 64.8622 -196.008
v 6388.52 64.8622 -196.715
v 6390.79 64.8622 -197.564
v 6390.08 64.8622 -198.271
v 6388.52 64.8622 -196.715
v 6388.52 63.8622 -196.715
v 6390.08 64.8622 -198.271
v 6390.08 63.8622 -198.271
v 6389.23 64.8622 -196.008
v 6390.79 64.8622 -197.564
v 6389.23 63.8622 -196.008
v 6390.79 63.8622 -197.564
v 6389.23 63.8622 -196.008
v 6388.52 63.8622 -196.715
v 6389.23 64.8622 -196.008
v 6388.52 64.8622 -196.715
v 6388.46 69.6703 -193.68
v 6388.33 69.6703 -193.646
v 6388.69 69.6703 -193.975
v 6388.39 69.6703 -194.525
v 6388.69 69.6703 -193.975
v 6388.33 69.6703 -194.429
v 6388.33 69.6703 -193.646
v 6388.58 69.6703 -193.701
v 6388.46 69.6703 -193.68
v 6388.65 65.3659 -195.21
v 6389.56 65.3786 -194.978
v 6388.94 65.9198 -195.166
v 6389.56 65.8789 -195.005
v 6389.14 66.0954 -195.125
v 6389.71 65.3654 -194.551
v 6389.47 65.3786 -194.31
v 6389.83 65.3903 -193.933
v 6389.47 65.3959 -193.991
v 6389.83 65.3903 -193.933
v 6389.85 65.6703 -194.025
v 6389.71 65.3654 -194.551
v 6389.81 65.7016 -194.205
v 6389.33 65.4012 -194.561
v 6389.43 65.4065 -194.462
v 6389.56 65.3786 -194.978
v 6389.43 65.4065 -194.462
v 6389.49 65.5806 -194.779
v 6389.56 65.3786 -194.978
v 6389.56 65.8789 -195.005
v 6388.65 65.3659 -195.21
v 6388.59 65.3769 -195.009
v 6388.33 65.3786 -194.525
v 6388.33 65.9994 -194.525
v 6388.33 65.3786 -193.525
v 6388.33 67.6748 -193.525
v 6388.33 68.3793 -194.525
v 6388.33 68.8773 -193.579
v 6388.33 69.3682 -194.44
v 6388.33 69.2797 -193.617
v 6388.33 69.6703 -193.646
v 6388.33 69.6703 -194.429
v 6388.33 68.3793 -194.525
v 6388.33 65.9994 -194.525
v 6388.64 67.0983 -194.525
v 6388.7 66.5786 -194.525
v 6388.58 65.9442 -194.525
v 6388.33 65.3786 -194.525
v 6388.51 65.3786 -194.525
v 6388.87 67.9544 -194.525
v 6389.33 67.3009 -194.525
v 6389.33 66.9114 -194.525
v 6388.79 66.5603 -194.525
v 6389.26 65.9163 -194.525
v 6388.72 65.9634 -194.525
v 6388.76 65.3786 -194.525
v 6389.23 65.3786 -194.525
v 6388.63 68.1816 -194.525
v 6388.39 69.1491 -194.525
v 6388.58 68.6616 -194.525
v 6389.33 65.759 -193.804
v 6389.33 65.9162 -194.396
v 6389.33 65.3786 -194.437
v 6389.33 66.5194 -193.653
v 6389.33 66.9114 -194.525
v 6389.33 67.0887 -193.728
v 6389.33 67.3009 -194.525
v 6389.33 67.7083 -194.359
v 6389.33 67.9416 -193.525
v 6389.33 68.3866 -194.208
v 6389.33 68.6443 -193.965
v 6389.33 69.1366 -193.525
v 6389.33 69.1585 -193.682
v 6389.33 69.1366 -193.525
v 6389.33 67.9416 -193.525
v 6388.82 68.9749 -193.525
v 6388.58 68.8126 -193.525
v 6388.33 67.6748 -193.525
v 6389.12 67.0879 -193.525
v 6388.33 65.3786 -193.525
v 6389.2 66.5512 -193.525
v 6389.19 66.3311 -193.525
v 6389.01 65.7106 -193.525
v 6388.46 69.6703 -193.68
v 6388.4 69.2887 -193.662
v 6388.33 69.6703 -193.646
v 6388.33 69.2797 -193.617
v 6389.33 65.9162 -194.396
v 6389.33 66.9114 -194.525
v 6389.26 65.9163 -194.525
v 6388.33 69.3682 -194.44
v 6388.38 69.4604 -194.525
v 6388.33 69.6703 -194.429
v 6388.39 69.6703 -194.525
v 6388.39 69.1491 -194.525
v 6388.33 68.3793 -194.525
v 6388.33 68.8773 -193.579
v 6388.38 68.9353 -193.579
v 6388.33 67.6748 -193.525
v 6388.58 68.8126 -193.525
v 6388.33 67.6748 -193.525
v 6388.38 68.9353 -193.579
v 6389.33 65.9162 -194.396
v 6389.26 65.9163 -194.525
v 6389.33 65.3786 -194.437
v 6389.23 65.3786 -194.525
v 6388.82 68.9749 -193.525
v 6388.67 65.9986 -194.479
v 6388.67 65.3786 -194.479
v 6388.72 65.9634 -194.525
v 6388.76 65.3786 -194.525
v 6388.79 66.5603 -194.525
v 6388.74 66.5174 -194.479
v 6388.64 67.0983 -194.525
v 6388.7 66.5786 -194.525
v 6388.74 66.5174 -194.479
v 6388.64 67.0983 -194.525
v 6388.58 65.9442 -194.525
v 6388.67 65.9986 -194.479
v 6388.67 65.3786 -194.479
v 6388.51 65.3786 -194.525
v 6389.12 67.0879 -193.525
v 6389.33 67.9416 -193.525
v 6389.33 67.0887 -193.728
v 6389.2 66.5512 -193.525
v 6389.33 66.5194 -193.653
v 6389.19 66.3311 -193.525
v 6389.33 65.759 -193.804
v 6389.01 65.7106 -193.525
v 6388.69 69.6703 -193.975
v 6388.39 69.6703 -194.525
v 6388.85 69.1088 -194.097
v 6388.38 69.4604 -194.525
v 6388.39 69.1491 -194.525
v 6389.33 67.3009 -194.525
v 6389.33 67.7083 -194.359
v 6388.98 68.3981 -194.263
v 6389.33 68.3866 -194.208
v 6388.87 67.9544 -194.525
v 6388.63 68.1816 -194.525
v 6389.33 68.6443 -193.965
v 6388.58 68.6616 -194.525
v 6389.33 69.1585 -193.682
v 6388.4 69.2887 -193.662
v 6388.58 69.6703 -193.701
v 6388.83 69.2909 -193.799
v 6388.67 69.3427 -193.665
v 6388.46 69.6703 -193.68
v 6388.67 69.3427 -193.665
v 6388.58 69.6703 -193.701
v 6388.95 69.1763 -193.609
v 6389.06 69.2113 -193.742
v 6388.69 69.6703 -193.975
v 6389.33 69.1366 -193.525
v 6389.47 65.3959 -193.991
v 6389.85 65.6703 -194.025
v 6389.83 65.3903 -193.933
v 6389.81 65.7016 -194.205
v 6389.47 65.3786 -194.31
v 6389.71 65.3654 -194.551
v 6388.65 65.3659 -195.21
v 6388.94 65.9198 -195.166
v 6388.92 65.655 -194.982
v 6389.49 65.5806 -194.779
v 6389.2 65.6593 -194.892
v 6389.56 65.8789 -195.005
v 6389.14 66.0954 -195.125
v 6389.43 65.4065 -194.462
v 6389.33 65.4012 -194.561
v 6388.59 65.3769 -195.009
v 6388.33 65.3786 -193.525
v 6389.01 65.7106 -193.525
v 6388.72 65.3786 -193.234
v 6389.18 65.3786 -193.028
v 6389.58 65.3786 -193.187
v 6389.57 65.3786 -193.587
v 6389.33 65.759 -193.804
v 6389.81 65.3786 -193.701
v 6389.33 65.3786 -194.437
v 6389.34 64.8126 -199.038
v 6389.34 64.8126 -198.038
v 6389.34 73.0597 -199.038
v 6389.34 73.0597 -198.038
v 6388.34 73.0597 -199.038
v 6388.34 73.0597 -198.038
v 6388.34 64.8126 -199.038
v 6388.34 64.8126 -198.038
v 6388.34 73.0597 -198.038
v 6389.34 73.0597 -198.038
v 6388.34 64.8126 -198.038
v 6389.34 64.8126 -198.038
v 6388.34 73.0597 -199.038
v 6388.34 64.8126 -199.038
v 6389.34 73.0597 -199.038
v 6389.34 64.8126 -199.038
v 6389.34 73.0597 -199.038
v 6389.34 73.0597 -198.038
v 6388.34 73.0597 -199.038
v 6388.34 73.0597 -198.038
v 6402.36 69.7495 -204.886
v 6402.29 69.7495 -204.772
v 6402.32 69.7495 -205.259
v 6401.72 69.7495 -205.436
v 6402.32 69.7495 -205.259
v 6401.74 69.7495 -205.325
v 6402.29 69.7495 -204.772
v 6402.43 69.7495 -204.986
v 6402.36 69.7495 -204.886
v 6401.42 65.4451 -206.104
v 6402.22 65.4577 -206.584
v 6401.65 65.999 -206.279
v 6402.2 65.958 -206.603
v 6401.82 66.1745 -206.389
v 6402.63 65.4446 -206.384
v 6402.63 65.4577 -206.046
v 6403.15 65.4695 -206.035
v 6402.86 65.475 -205.821
v 6403.15 65.4695 -206.035
v 6403.1 65.7494 -206.116
v 6402.63 65.4446 -206.384
v 6402.94 65.7807 -206.209
v 6402.35 65.4803 -206.122
v 6402.49 65.4857 -206.126
v 6402.22 65.4577 -206.584
v 6402.49 65.4857 -206.126
v 6402.31 65.6598 -206.391
v 6402.22 65.4577 -206.584
v 6402.2 65.958 -206.603
v 6401.42 65.4451 -206.104
v 6401.52 65.456 -205.92
v 6401.67 65.4577 -205.393
v 6401.67 66.0785 -205.393
v 6402.38 65.4577 -204.686
v 6402.38 67.754 -204.686
v 6401.67 68.4585 -205.393
v 6402.34 68.9564 -204.724
v 6401.73 69.4474 -205.333
v 6402.32 69.3588 -204.751
v 6402.29 69.7495 -204.772
v 6401.74 69.7495 -205.325
v 6401.67 68.4585 -205.393
v 6401.67 66.0785 -205.393
v 6401.89 67.1775 -205.609
v 6401.93 66.6577 -205.653
v 6401.85 66.0234 -205.57
v 6401.67 65.4577 -205.393
v 6401.8 65.4577 -205.521
v 6402.05 68.0335 -205.772
v 6402.38 67.38 -206.1
v 6402.38 66.9905 -206.1
v 6401.99 66.6395 -205.715
v 6402.33 65.9954 -206.051
v 6401.95 66.0425 -205.669
v 6401.98 65.4577 -205.699
v 6402.31 65.4577 -206.029
v 6401.89 68.2607 -205.606
v 6401.72 69.2282 -205.436
v 6401.85 68.7408 -205.567
v 6402.89 65.8381 -205.59
v 6402.47 65.9953 -206.009
v 6402.44 65.4577 -206.038
v 6403 66.5985 -205.483
v 6402.38 66.9905 -206.1
v 6402.94 67.1679 -205.536
v 6402.38 67.38 -206.1
v 6402.5 67.7875 -205.983
v 6403.09 68.0208 -205.393
v 6402.6 68.4657 -205.876
v 6402.78 68.7235 -205.704
v 6403.09 69.2158 -205.393
v 6402.98 69.2376 -205.504
v 6403.09 69.2158 -205.393
v 6403.09 68.0208 -205.393
v 6402.73 69.054 -205.032
v 6402.56 68.8918 -204.865
v 6402.38 67.754 -204.686
v 6402.94 67.167 -205.242
v 6402.38 65.4577 -204.686
v 6402.99 66.6303 -205.301
v 6402.99 66.4102 -205.296
v 6402.86 65.7898 -205.167
v 6402.36 69.7495 -204.886
v 6402.33 69.3678 -204.83
v 6402.29 69.7495 -204.772
v 6402.32 69.3588 -204.751
v 6402.47 65.9953 -206.009
v 6402.38 66.9905 -206.1
v 6402.33 65.9954 -206.051
v 6401.73 69.4474 -205.333
v 6401.71 69.5395 -205.43
v 6401.74 69.7495 -205.325
v 6401.72 69.7495 -205.436
v 6401.72 69.2282 -205.436
v 6401.67 68.4585 -205.393
v 6402.34 68.9564 -204.724
v 6402.38 69.0144 -204.76
v 6402.38 67.754 -204.686
v 6402.56 68.8918 -204.865
v 6402.38 67.754 -204.686
v 6402.38 69.0144 -204.76
v 6402.47 65.9953 -206.009
v 6402.33 65.9954 -206.051
v 6402.44 65.4577 -206.038
v 6402.31 65.4577 -206.029
v 6402.73 69.054 -205.032
v 6401.95 66.0777 -205.601
v 6401.94 65.4577 -205.597
v 6401.95 66.0425 -205.669
v 6401.98 65.4577 -205.699
v 6401.99 66.6395 -205.715
v 6402 66.5965 -205.65
v 6401.89 67.1775 -205.609
v 6401.93 66.6577 -205.653
v 6402 66.5965 -205.65
v 6401.89 67.1775 -205.609
v 6401.85 66.0234 -205.57
v 6401.95 66.0777 -205.601
v 6401.94 65.4577 -205.597
v 6401.8 65.4577 -205.521
v 6402.94 67.167 -205.242
v 6403.09 68.0208 -205.393
v 6402.94 67.1679 -205.536
v 6402.99 66.6303 -205.301
v 6403 66.5985 -205.483
v 6402.99 66.4102 -205.296
v 6402.89 65.8381 -205.59
v 6402.86 65.7898 -205.167
v 6402.32 69.7495 -205.259
v 6401.72 69.7495 -205.436
v 6402.34 69.188 -205.454
v 6401.71 69.5395 -205.43
v 6401.72 69.2282 -205.436
v 6402.38 67.38 -206.1
v 6402.5 67.7875 -205.983
v 6402.32 68.4773 -205.667
v 6402.6 68.4657 -205.876
v 6402.05 68.0335 -205.772
v 6401.89 68.2607 -205.606
v 6402.78 68.7235 -205.704
v 6401.85 68.7408 -205.567
v 6402.98 69.2376 -205.504
v 6402.33 69.3678 -204.83
v 6402.43 69.7495 -204.986
v 6402.54 69.37 -205.235
v 6402.52 69.4218 -205.025
v 6402.36 69.7495 -204.886
v 6402.52 69.4218 -205.025
v 6402.43 69.7495 -204.986
v 6402.76 69.2554 -205.182
v 6402.74 69.2904 -205.351
v 6402.32 69.7495 -205.259
v 6403.09 69.2158 -205.393
v 6402.86 65.475 -205.821
v 6403.1 65.7494 -206.116
v 6403.15 65.4695 -206.035
v 6402.94 65.7807 -206.209
v 6402.63 65.4577 -206.046
v 6402.63 65.4446 -206.384
v 6401.42 65.4451 -206.104
v 6401.65 65.999 -206.279
v 6401.77 65.7341 -206.135
v 6402.31 65.6598 -206.391
v 6402.03 65.7384 -206.264
v 6402.2 65.958 -206.603
v 6401.82 66.1745 -206.389
v 6402.49 65.4857 -206.126
v 6402.35 65.4803 -206.122
v 6401.52 65.456 -205.92
v 6402.38 65.4577 -204.686
v 6402.86 65.7898 -205.167
v 6402.86 65.4577 -204.756
v 6403.33 65.4577 -204.937
v 6403.5 65.4577 -205.327
v 6403.22 65.4577 -205.609
v 6402.89 65.8381 -205.59
v 6403.3 65.4577 -205.854
v 6402.44 65.4577 -206.038
v 6402.07 68.5789 -192.269
v 6401.95 68.5789 -192.236
v 6402.31 68.5789 -192.564
v 6402.01 68.5789 -193.115
v 6402.31 68.5789 -192.564
v 6401.95 68.5789 -193.019
v 6401.95 68.5789 -192.236
v 6402.19 68.5789 -192.291
v 6402.07 68.5789 -192.269
v 6402.27 64.2745 -193.8
v 6403.18 64.2871 -193.568
v 6402.56 64.8284 -193.756
v 6403.18 64.7874 -193.595
v 6402.75 65.0039 -193.715
v 6403.32 64.274 -193.141
v 6403.08 64.2871 -192.9
v 6403.45 64.2989 -192.523
v 6403.08 64.3044 -192.581
v 6403.45 64.2989 -192.523
v 6403.47 64.5788 -192.615
v 6403.32 64.274 -193.141
v 6403.42 64.6101 -192.795
v 6402.94 64.3098 -193.151
v 6403.04 64.3151 -193.052
v 6403.18 64.2871 -193.568
v 6403.04 64.3151 -193.052
v 6403.1 64.4892 -193.369
v 6403.18 64.2871 -193.568
v 6403.18 64.7874 -193.595
v 6402.27 64.2745 -193.8
v 6402.21 64.2854 -193.599
v 6401.95 64.2871 -193.115
v 6401.95 64.9079 -193.115
v 6401.95 64.2871 -192.115
v 6401.95 66.5834 -192.115
v 6401.95 67.2879 -193.115
v 6401.95 67.7858 -192.169
v 6401.95 68.2768 -193.03
v 6401.95 68.1883 -192.207
v 6401.95 68.5789 -192.236
v 6401.95 68.5789 -193.019
v 6401.95 67.2879 -193.115
v 6401.95 64.9079 -193.115
v 6402.25 66.0069 -193.115
v 6402.31 65.4871 -193.115
v 6402.2 64.8528 -193.115
v 6401.95 64.2871 -193.115
v 6402.13 64.2871 -193.115
v 6402.48 66.863 -193.115
v 6402.95 66.2095 -193.115
v 6402.95 65.8199 -193.115
v 6402.4 65.4689 -193.115
v 6402.88 64.8248 -193.115
v 6402.34 64.8719 -193.115
v 6402.38 64.2871 -193.115
v 6402.85 64.2871 -193.115
v 6402.25 67.0901 -193.115
v 6402.01 68.0576 -193.115
v 6402.19 67.5702 -193.115
v 6402.95 64.6675 -192.394
v 6402.95 64.8247 -192.986
v 6402.95 64.2871 -193.026
v 6402.95 65.4279 -192.243
v 6402.95 65.8199 -193.115
v 6402.95 65.9973 -192.317
v 6402.95 66.2095 -193.115
v 6402.95 66.6169 -192.949
v 6402.95 66.8502 -192.115
v 6402.95 67.2952 -192.798
v 6402.95 67.5529 -192.555
v 6402.95 68.0452 -192.115
v 6402.95 68.0671 -192.272
v 6402.95 68.0452 -192.115
v 6402.95 66.8502 -192.115
v 6402.44 67.8834 -192.115
v 6402.2 67.7212 -192.115
v 6401.95 66.5834 -192.115
v 6402.73 65.9965 -192.115
v 6401.95 64.2871 -192.115
v 6402.81 65.4597 -192.115
v 6402.81 65.2397 -192.115
v 6402.63 64.6192 -192.115
v 6402.07 68.5789 -192.269
v 6402.01 68.1972 -192.252
v 6401.95 68.5789 -192.236
v 6401.95 68.1883 -192.207
v 6402.95 64.8247 -192.986
v 6402.95 65.8199 -193.115
v 6402.88 64.8248 -193.115
v 6401.95 68.2768 -193.03
v 6402 68.369 -193.115
v 6401.95 68.5789 -193.019
v 6402.01 68.5789 -193.115
v 6402.01 68.0576 -193.115
v 6401.95 67.2879 -193.115
v 6401.95 67.7858 -192.169
v 6402 67.8438 -192.168
v 6401.95 66.5834 -192.115
v 6402.2 67.7212 -192.115
v 6401.95 66.5834 -192.115
v 6402 67.8438 -192.168
v 6402.95 64.8247 -192.986
v 6402.88 64.8248 -193.115
v 6402.95 64.2871 -193.026
v 6402.85 64.2871 -193.115
v 6402.44 67.8834 -192.115
v 6402.29 64.9071 -193.069
v 6402.28 64.2871 -193.069
v 6402.34 64.8719 -193.115
v 6402.38 64.2871 -193.115
v 6402.4 65.4689 -193.115
v 6402.35 65.4259 -193.069
v 6402.25 66.0069 -193.115
v 6402.31 65.4871 -193.115
v 6402.35 65.4259 -193.069
v 6402.25 66.0069 -193.115
v 6402.2 64.8528 -193.115
v 6402.29 64.9071 -193.069
v 6402.28 64.2871 -193.069
v 6402.13 64.2871 -193.115
v 6402.73 65.9965 -192.115
v 6402.95 66.8502 -192.115
v 6402.95 65.9973 -192.317
v 6402.81 65.4597 -192.115
v 6402.95 65.4279 -192.243
v 6402.81 65.2397 -192.115
v 6402.95 64.6675 -192.394
v 6402.63 64.6192 -192.115
v 6402.31 68.5789 -192.564
v 6402.01 68.5789 -193.115
v 6402.46 68.0174 -192.687
v 6402 68.369 -193.115
v 6402.01 68.0576 -193.115
v 6402.95 66.2095 -193.115
v 6402.95 66.6169 -192.949
v 6402.59 67.3067 -192.853
v 6402.95 67.2952 -192.798
v 6402.48 66.863 -193.115
v 6402.25 67.0901 -193.115
v 6402.95 67.5529 -192.555
v 6402.19 67.5702 -193.115
v 6402.95 68.0671 -192.272
v 6402.01 68.1972 -192.252
v 6402.19 68.5789 -192.291
v 6402.45 68.1994 -192.389
v 6402.29 68.2512 -192.254
v 6402.07 68.5789 -192.269
v 6402.29 68.2512 -192.254
v 6402.19 68.5789 -192.291
v 6402.56 68.0849 -192.199
v 6402.67 68.1199 -192.331
v 6402.31 68.5789 -192.564
v 6402.95 68.0452 -192.115
v 6403.08 64.3044 -192.581
v 6403.47 64.5788 -192.615
v 6403.45 64.2989 -192.523
v 6403.42 64.6101 -192.795
v 6403.08 64.2871 -192.9
v 6403.32 64.274 -193.141
v 6402.27 64.2745 -193.8
v 6402.56 64.8284 -193.756
v 6402.54 64.5635 -193.572
v 6403.1 64.4892 -193.369
v 6402.81 64.5678 -193.481
v 6403.18 64.7874 -193.595
v 6402.75 65.0039 -193.715
v 6403.04 64.3151 -193.052
v 6402.94 64.3098 -193.151
v 6402.21 64.2854 -193.599
v 6401.95 64.2871 -192.115
v 6402.63 64.6192 -192.115
v 6402.34 64.2871 -191.824
v 6402.8 64.2871 -191.618
v 6403.19 64.2871 -191.777
v 6403.19 64.2871 -192.176
v 6402.95 64.6675 -192.394
v 6403.42 64.2871 -192.29
v 6402.95 64.2871 -193.026
v 6388.86 69.1436 -205.867
v 6388.73 69.1436 -205.834
v 6389.09 69.1436 -206.162
v 6388.79 69.1436 -206.713
v 6389.09 69.1436 -206.162
v 6388.73 69.1436 -206.617
v 6388.73 69.1436 -205.834
v 6388.98 69.1436 -205.889
v 6388.86 69.1436 -205.867
v 6389.06 64.8392 -207.398
v 6389.97 64.8519 -207.165
v 6389.35 65.3932 -207.353
v 6389.97 65.3522 -207.192
v 6389.54 65.5687 -207.312
v 6390.11 64.8388 -206.739
v 6389.87 64.8519 -206.497
v 6390.23 64.8637 -206.12
v 6389.87 64.8692 -206.179
v 6390.23 64.8637 -206.12
v 6390.26 65.1436 -206.212
v 6390.11 64.8388 -206.739
v 6390.21 65.1749 -206.393
v 6389.73 64.8745 -206.748
v 6389.83 64.8799 -206.65
v 6389.97 64.8519 -207.165
v 6389.83 64.8799 -206.65
v 6389.89 65.054 -206.967
v 6389.97 64.8519 -207.165
v 6389.97 65.3522 -207.192
v 6389.06 64.8392 -207.398
v 6389 64.8502 -207.196
v 6388.73 64.8519 -206.713
v 6388.73 65.4727 -206.713
v 6388.73 64.8519 -205.713
v 6388.73 67.1481 -205.713
v 6388.73 67.8526 -206.713
v 6388.73 68.3506 -205.766
v 6388.73 68.8416 -206.627
v 6388.73 68.753 -205.804
v 6388.73 69.1436 -205.834
v 6388.73 69.1436 -206.617
v 6388.73 67.8526 -206.713
v 6388.73 65.4727 -206.713
v 6389.04 66.5716 -206.713
v 6389.1 66.0519 -206.713
v 6388.98 65.4175 -206.713
v 6388.73 64.8519 -206.713
v 6388.91 64.8519 -206.713
v 6389.27 67.4277 -206.713
v 6389.73 66.7742 -206.713
v 6389.73 66.3847 -206.713
v 6389.19 66.0336 -206.713
v 6389.66 65.3896 -206.713
v 6389.12 65.4367 -206.713
v 6389.17 64.8519 -206.713
v 6389.63 64.8519 -206.713
v 6389.03 67.6549 -206.713
v 6388.8 68.6224 -206.713
v 6388.98 68.1349 -206.713
v 6389.73 65.2323 -205.991
v 6389.73 65.3895 -206.583
v 6389.73 64.8519 -206.624
v 6389.73 65.9927 -205.84
v 6389.73 66.3847 -206.713
v 6389.73 66.562 -205.915
v 6389.73 66.7742 -206.713
v 6389.73 67.1816 -206.546
v 6389.73 67.4149 -205.713
v 6389.73 67.8599 -206.396
v 6389.73 68.1176 -206.152
v 6389.73 68.6099 -205.713
v 6389.73 68.6318 -205.87
v 6389.73 68.6099 -205.713
v 6389.73 67.4149 -205.713
v 6389.22 68.4482 -205.713
v 6388.99 68.2859 -205.713
v 6388.73 67.1481 -205.713
v 6389.52 66.5612 -205.713
v 6388.73 64.8519 -205.713
v 6389.6 66.0245 -205.713
v 6389.6 65.8044 -205.713
v 6389.42 65.1839 -205.713
v 6388.86 69.1436 -205.867
v 6388.8 68.762 -205.849
v 6388.73 69.1436 -205.834
v 6388.73 68.753 -205.804
v 6389.73 65.3895 -206.583
v 6389.73 66.3847 -206.713
v 6389.66 65.3896 -206.713
v 6388.73 68.8416 -206.627
v 6388.79 68.9337 -206.713
v 6388.73 69.1436 -206.617
v 6388.79 69.1436 -206.713
v 6388.8 68.6224 -206.713
v 6388.73 67.8526 -206.713
v 6388.73 68.3506 -205.766
v 6388.79 68.4086 -205.766
v 6388.73 67.1481 -205.713
v 6388.99 68.2859 -205.713
v 6388.73 67.1481 -205.713
v 6388.79 68.4086 -205.766
v 6389.73 65.3895 -206.583
v 6389.66 65.3896 -206.713
v 6389.73 64.8519 -206.624
v 6389.63 64.8519 -206.713
v 6389.22 68.4482 -205.713
v 6389.07 65.4719 -206.666
v 6389.07 64.8519 -206.666
v 6389.12 65.4367 -206.713
v 6389.17 64.8519 -206.713
v 6389.19 66.0336 -206.713
v 6389.14 65.9907 -206.666
v 6389.04 66.5716 -206.713
v 6389.1 66.0519 -206.713
v 6389.14 65.9907 -206.666
v 6389.04 66.5716 -206.713
v 6388.98 65.4175 -206.713
v 6389.07 65.4719 -206.666
v 6389.07 64.8519 -206.666
v 6388.91 64.8519 -206.713
v 6389.52 66.5612 -205.713
v 6389.73 67.4149 -205.713
v 6389.73 66.562 -205.915
v 6389.6 66.0245 -205.713
v 6389.73 65.9927 -205.84
v 6389.6 65.8044 -205.713
v 6389.73 65.2323 -205.991
v 6389.42 65.1839 -205.713
v 6389.09 69.1436 -206.162
v 6388.79 69.1436 -206.713
v 6389.25 68.5821 -206.284
v 6388.79 68.9337 -206.713
v 6388.8 68.6224 -206.713
v 6389.73 66.7742 -206.713
v 6389.73 67.1816 -206.546
v 6389.38 67.8714 -206.451
v 6389.73 67.8599 -206.396
v 6389.27 67.4277 -206.713
v 6389.03 67.6549 -206.713
v 6389.73 68.1176 -206.152
v 6388.98 68.1349 -206.713
v 6389.73 68.6318 -205.87
v 6388.8 68.762 -205.849
v 6388.98 69.1436 -205.889
v 6389.24 68.7642 -205.986
v 6389.07 68.816 -205.852
v 6388.86 69.1436 -205.867
v 6389.07 68.816 -205.852
v 6388.98 69.1436 -205.889
v 6389.35 68.6496 -205.797
v 6389.46 68.6846 -205.929
v 6389.09 69.1436 -206.162
v 6389.73 68.6099 -205.713
v 6389.87 64.8692 -206.179
v 6390.26 65.1436 -206.212
v 6390.23 64.8637 -206.12
v 6390.21 65.1749 -206.393
v 6389.87 64.8519 -206.497
v 6390.11 64.8388 -206.739
v 6389.06 64.8392 -207.398
v 6389.35 65.3932 -207.353
v 6389.33 65.1283 -207.169
v 6389.89 65.054 -206.967
v 6389.6 65.1326 -207.079
v 6389.97 65.3522 -207.192
v 6389.54 65.5687 -207.312
v 6389.83 64.8799 -206.65
v 6389.73 64.8745 -206.748
v 6389 64.8502 -207.196
v 6388.73 64.8519 -205.713
v 6389.42 65.1839 -205.713
v 6389.12 64.8519 -205.422
v 6389.59 64.8519 -205.215
v 6389.98 64.8519 -205.374
v 6389.98 64.8519 -205.774
v 6389.73 65.2323 -205.991
v 6390.21 64.8519 -205.888
v 6389.73 64.8519 -206.624
v 6363 78.0125 -163
v 6363 76.6724 -165
v 6363 75.8362 -167
v 6363 74.9335 -169
v 6363 74.8593 -171
v 6363 74.14 -173
v 6363 73.3402 -175
v 6363 72.585 -177
v 6363 72.0911 -179
v 6363 71.6262 -181
v 6363 71.015 -183
v 6363 70.225 -185
v 6363 69.2481 -187
v 6363 68.2422 -189
v 6363 67.5248 -191
v 6363 66.8071 -193
v 6363 66.1203 -195
v 6363 65.5181 -197
v 6363 64.9953 -199
v 6363 64.4877 -201
v 6363 64.2054 -203
v 6363 63.955 -205
v 6363 63.8656 -207
v 6363 63.8706 -209
v 6363 63.7728 -211
v 6363 63.6066 -213
v 6363 63.2675 -215
v 6363 62.9014 -217
v 6363 62.7483 -219
v 6363 62.5743 -221
v 6363 62.48 -223
v 6363 62.57 -225
v 6365 77.9282 -163
v 6365 76.5012 -165
v 6365 75.4988 -167
v 6365 74.5172 -169
v 6365 74.2126 -171
v 6365 73.6483 -173
v 6365 72.8225 -175
v 6365 72.0587 -177
v 6365 71.5234 -179
v 6365 71.0174 -181
v 6365 70.4316 -183
v 6365 69.7415 -185
v 6365 69.0577 -187
v 6365 68.4579 -189
v 6365 67.7565 -191
v 6365 66.969 -193
v 6365 66.2039 -195
v 6365 65.5625 -197
v 6365 65.0593 -199
v 6365 64.6263 -201
v 6365 64.1271 -203
v 6365 63.8087 -205
v 6365 63.5065 -207
v 6365 63.5102 -209
v 6365 63.4507 -211
v 6365 63.3537 -213
v 6365 63.0724 -215
v 6365 62.7178 -217
v 6365 62.5596 -219
v 6365 62.3608 -221
v 6365 62.2301 -223
v 6365 62.3109 -225
v 6367 77.3673 -163
v 6367 76.0704 -165
v 6367 74.7339 -167
v 6367 73.7212 -169
v 6367 73.1632 -171
v 6367 72.9496 -173
v 6367 72.203 -175
v 6367 71.5158 -177
v 6367 70.8436 -179
v 6367 70.3138 -181
v 6367 69.7602 -183
v 6367 69.3627 -185
v 6367 68.9621 -187
v 6367 68.4397 -189
v 6367 67.7586 -191
v 6367 66.9313 -193
v 6367 66.106 -195
v 6367 65.4214 -197
v 6367 64.9418 -199
v 6367 64.5536 -201
v 6367 64.1586 -203
v 6367 63.5806 -205
v 6367 63.2127 -207
v 6367 63.1653 -209
v 6367 63.1013 -211
v 6367 63.0377 -213
v 6367 62.809 -215
v 6367 62.4366 -217
v 6367 62.326 -219
v 6367 62.1612 -221
v 6367 62.0264 -223
v 6367 61.9622 -225
v 6369 76.4547 -163
v 6369 75.3945 -165
v 6369 73.6746 -167
v 6369 72.7106 -169
v 6369 71.993 -171
v 6369 72.191 -173
v 6369 71.5815 -175
v 6369 70.9808 -177
v 6369 70.319 -179
v 6369 69.6846 -181
v 6369 69.2529 -183
v 6369 68.9619 -185
v 6369 68.6611 -187
v 6369 68.2413 -189
v 6369 67.6237 -191
v 6369 66.8061 -193
v 6369 66.315 -195
v 6369 65.9009 -197
v 6369 65.4612 -199
v 6369 64.9556 -201
v 6369 64.3186 -203
v 6369 63.579 -205
v 6369 62.9494 -207
v 6369 62.8619 -209
v 6369 62.8136 -211
v 6369 62.7867 -213
v 6369 62.6101 -215
v 6369 62.2389 -217
v 6369 62.1309 -219
v 6369 61.9764 -221
v 6369 61.8132 -223
v 6369 61.6304 -225
v 6371 75.4744 -163
v 6371 74.53 -165
v 6371 72.8328 -167
v 6371 72.0226 -169
v 6371 71.3217 -171
v 6371 71.4967 -173
v 6371 71.0616 -175
v 6371 70.529 -177
v 6371 69.8491 -179
v 6371 69.1956 -181
v 6371 68.7483 -183
v 6371 68.4551 -185
v 6371 68.192 -187
v 6371 67.8459 -189
v 6371 67.3031 -191
v 6371 66.8637 -193
v 6371 66.5798 -195
v 6371 66.2136 -197
v 6371 65.7316 -199
v 6371 65.1249 -201
v 6371 64.3891 -203
v 6371 63.5521 -205
v 6371 62.9024 -207
v 6371 62.5532 -209
v 6371 62.5644 -211
v 6371 62.5832 -213
v 6371 62.4566 -215
v 6371 62.1062 -217
v 6371 62.0183 -219
v 6371 61.8541 -221
v 6371 61.6451 -223
v 6371 61.4094 -225
v 6373 74.6279 -163
v 6373 73.6534 -165
v 6373 72.5125 -167
v 6373 71.508 -169
v 6373 70.9564 -171
v 6373 70.9318 -173
v 6373 70.7324 -175
v 6373 70.1261 -177
v 6373 69.5692 -179
v 6373 68.9186 -181
v 6373 68.2623 -183
v 6373 67.9255 -185
v 6373 67.6544 -187
v 6373 67.3552 -189
v 6373 66.9003 -191
v 6373 66.6337 -193
v 6373 66.4496 -195
v 6373 66.1178 -197
v 6373 65.5949 -199
v 6373 64.901 -201
v 6373 64.0947 -203
v 6373 63.5017 -205
v 6373 62.927 -207
v 6373 62.415 -209
v 6373 62.3035 -211
v 6373 62.3789 -213
v 6373 62.297 -215
v 6373 62.0755 -217
v 6373 62.0081 -219
v 6373 61.8039 -221
v 6373 61.5271 -223
v 6373 61.228 -225
v 6375 73.8868 -163
v 6375 72.9469 -165
v 6375 72.2236 -167
v 6375 70.9315 -169
v 6375 70.4652 -171
v 6375 70.134 -173
v 6375 70.4662 -175
v 6375 69.9329 -177
v 6375 69.3842 -179
v 6375 68.7096 -181
v 6375 67.9673 -183
v 6375 67.5415 -185
v 6375 67.1958 -187
v 6375 66.8768 -189
v 6375 66.474 -191
v 6375 66.1058 -193
v 6375 65.9847 -195
v 6375 65.6746 -197
v 6375 65.1286 -199
v 6375 64.3913 -201
v 6375 63.9549 -203
v 6375 63.4387 -205
v 6375 62.9058 -207
v 6375 62.485 -209
v 6375 62.2201 -211
v 6375 62.1995 -213
v 6375 62.2182 -215
v 6375 62.2188 -217
v 6375 62.102 -219
v 6375 61.8122 -221
v 6375 61.4359 -223
v 6375 61.0503 -225
v 6377 73.1546 -163
v 6377 72.3008 -165
v 6377 71.6835 -167
v 6377 70.6067 -169
v 6377 70.0313 -171
v 6377 69.7148 -173
v 6377 70.1958 -175
v 6377 69.6159 -177
v 6377 68.9207 -179
v 6377 68.2757 -181
v 6377 67.7221 -183
v 6377 67.2316 -185
v 6377 66.8092 -187
v 6377 66.4366 -189
v 6377 66.0364 -191
v 6377 65.6128 -193
v 6377 65.397 -195
v 6377 65.095 -197
v 6377 64.6186 -199
v 6377 64.2464 -201
v 6377 63.8428 -203
v 6377 63.2853 -205
v 6377 62.7479 -207
v 6377 62.3652 -209
v 6377 62.1787 -211
v 6377 62.2159 -213
v 6377 62.2955 -215
v 6377 62.3224 -217
v 6377 62.1679 -219
v 6377 61.8117 -221
v 6377 61.3563 -223
v 6377 60.8969 -225
v 6379 72.4733 -163
v 6379 71.7626 -165
v 6379 71.3546 -167
v 6379 70.8641 -169
v 6379 69.8783 -171
v 6379 69.5084 -173
v 6379 69.5056 -175
v 6379 69.1752 -177
v 6379 68.4167 -179
v 6379 67.8521 -181
v 6379 67.3629 -183
v 6379 66.8705 -185
v 6379 66.3998 -187
v 6379 65.9554 -189
v 6379 65.507 -191
v 6379 65.1186 -193
v 6379 64.891 -195
v 6379 64.6917 -197
v 6379 64.4345 -199
v 6379 64.0854 -201
v 6379 63.6304 -203
v 6379 62.9952 -205
v 6379 62.3935 -207
v 6379 61.9904 -209
v 6379 62.0149 -211
v 6379 62.0783 -213
v 6379 62.2348 -215
v 6379 62.3185 -217
v 6379 62.1695 -219
v 6379 61.7883 -221
v 6379 61.2793 -223
v 6379 60.7481 -225
v 6381 73.0954 -163
v 6381 72.2292 -165
v 6381 71.7707 -167
v 6381 71.5455 -169
v 6381 70.2397 -171
v 6381 69.5574 -173
v 6381 68.7426 -175
v 6381 68.4927 -177
v 6381 67.7338 -179
v 6381 67.2466 -181
v 6381 66.86 -183
v 6381 66.4379 -185
v 6381 65.9704 -187
v 6381 65.4691 -189
v 6381 64.9508 -191
v 6381 64.5565 -193
v 6381 64.3957 -195
v 6381 64.2922 -197
v 6381 64.1184 -199
v 6381 63.7998 -201
v 6381 63.2894 -203
v 6381 62.5565 -205
v 6381 62.1543 -207
v 6381 62.293 -209
v 6381 62.3319 -211
v 6381 62.1969 -213
v 6381 62.117 -215
v 6381 62.2378 -217
v 6381 62.0952 -219
v 6381 61.7065 -221
v 6381 61.1759 -223
v 6381 60.7204 -225
v 6383 73.2476 -163
v 6383 72.3215 -165
v 6383 71.8298 -167
v 6383 71.5837 -169
v 6383 70.5786 -171
v 6383 69.4364 -173
v 6383 68.4345 -175
v 6383 68.2262 -177
v 6383 67.2762 -179
v 6383 66.5672 -181
v 6383 66.1546 -183
v 6383 65.8844 -185
v 6383 65.4949 -187
v 6383 64.9854 -189
v 6383 64.4059 -191
v 6383 64.1723 -193
v 6383 64.0007 -195
v 6383 63.7785 -197
v 6383 63.6638 -199
v 6383 63.3778 -201
v 6383 62.8331 -203
v 6383 62.4886 -205
v 6383 62.6189 -207
v 6383 62.7189 -209
v 6383 62.7302 -211
v 6383 62.5818 -213
v 6383 62.3803 -215
v 6383 62.1688 -217
v 6383 62.0151 -219
v 6383 61.6397 -221
v 6383 61.2592 -223
v 6383 60.8487 -225
v 6385 73.1553 -163
v 6385 72.2345 -165
v 6385 71.5119 -167
v 6385 71.1989 -169
v 6385 70.5536 -171
v 6385 68.9181 -173
v 6385 67.8928 -175
v 6385 67.8721 -177
v 6385 67.6449 -179
v 6385 67.0215 -181
v 6385 66.4171 -183
v 6385 65.7782 -185
v 6385 65.1656 -187
v 6385 64.7293 -189
v 6385 64.3711 -191
v 6385 64.1305 -193
v 6385 63.8953 -195
v 6385 63.6212 -197
v 6385 63.2722 -199
v 6385 62.9403 -201
v 6385 62.7923 -203
v 6385 62.7402 -205
v 6385 62.8329 -207
v 6385 62.9273 -209
v 6385 62.9546 -211
v 6385 62.8343 -213
v 6385 62.6483 -215
v 6385 62.4125 -217
v 6385 62.1163 -219
v 6385 61.7343 -221
v 6385 61.2979 -223
v 6385 60.8195 -225
v 6387 73.027 -163
v 6387 72.1242 -165
v 6387 71.3643 -167
v 6387 70.7052 -169
v 6387 70.1064 -171
v 6387 68.5607 -173
v 6387 68.0089 -175
v 6387 67.6713 -177
v 6387 67.9241 -179
v 6387 67.3566 -181
v 6387 66.8284 -183
v 6387 66.2741 -185
v 6387 65.6599 -187
v 6387 65.0325 -189
v 6387 64.5009 -191
v 6387 64.1841 -193
v 6387 63.8848 -195
v 6387 63.5361 -197
v 6387 63.2462 -199
v 6387 62.969 -201
v 6387 62.9058 -203
v 6387 62.7384 -205
v 6387 62.7794 -207
v 6387 62.8807 -209
v 6387 62.9447 -211
v 6387 62.8742 -213
v 6387 62.7232 -215
v 6387 62.4908 -217
v 6387 62.1567 -219
v 6387 61.7243 -221
v 6387 61.2531 -223
v 6387 60.7698 -225
v 6389 72.8641 -163
v 6389 72.0165 -165
v 6389 71.3034 -167
v 6389 70.681 -169
v 6389 70.0543 -171
v 6389 68.8252 -173
v 6389 67.9785 -175
v 6389 67.483 -177
v 6389 67.911 -179
v 6389 67.3701 -181
v 6389 66.8844 -183
v 6389 66.3906 -185
v 6389 65.8365 -187
v 6389 65.2485 -189
v 6389 64.718 -191
v 6389 64.3248 -193
v 6389 63.9864 -195
v 6389 63.6502 -197
v 6389 63.2964 -199
v 6389 62.9415 -201
v 6389 62.8653 -203
v 6389 62.8111 -205
v 6389 62.8141 -207
v 6389 62.8809 -209
v 6389 62.9207 -211
v 6389 62.8272 -213
v 6389 62.6323 -215
v 6389 62.3518 -217
v 6389 62.0118 -219
v 6389 61.5762 -221
v 6389 61.116 -223
v 6389 60.6662 -225
v 6391 72.6433 -163
v 6391 71.8688 -165
v 6391 71.2021 -167
v 6391 70.5897 -169
v 6391 69.9207 -171
v 6391 68.9743 -173
v 6391 67.6829 -175
v 6391 67.1278 -177
v 6391 67.42 -179
v 6391 67.0086 -181
v 6391 66.5632 -183
v 6391 66.134 -185
v 6391 65.6533 -187
v 6391 65.127 -189
v 6391 64.6241 -191
v 6391 64.2387 -193
v 6391 63.9218 -195
v 6391 63.5983 -197
v 6391 63.2402 -199
v 6391 62.8648 -201
v 6391 62.7091 -203
v 6391 62.7449 -205
v 6391 62.8477 -207
v 6391 62.9701 -209
v 6391 63.0055 -211
v 6391 62.8569 -213
v 6391 62.5578 -215
v 6391 62.1686 -217
v 6391 61.7514 -219
v 6391 61.3548 -221
v 6391 60.9363 -223
v 6391 60.5314 -225
v 6393 72.392 -163
v 6393 71.6575 -165
v 6393 71.0011 -167
v 6393 70.489 -169
v 6393 69.8119 -171
v 6393 68.9461 -173
v 6393 67.1989 -175
v 6393 66.5487 -177
v 6393 66.5333 -179
v 6393 66.4017 -181
v 6393 65.9751 -183
v 6393 65.5773 -185
v 6393 65.1388 -187
v 6393 64.6566 -189
v 6393 64.1861 -191
v 6393 63.8496 -193
v 6393 63.6314 -195
v 6393 63.408 -197
v 6393 63.1279 -199
v 6393 62.8 -201
v 6393 62.4944 -203
v 6393 62.5407 -205
v 6393 62.6991 -207
v 6393 62.8372 -209
v 6393 62.847 -211
v 6393 62.6497 -213
v 6393 62.2861 -215
v 6393 61.8556 -217
v 6393 61.5363 -219
v 6393 61.1968 -221
v 6393 60.8155 -223
v 6393 60.6081 -225
v 6395 72.229 -163
v 6395 71.5687 -165
v 6395 71.0444 -167
v 6395 70.5099 -169
v 6395 69.7972 -171
v 6395 68.9294 -173
v 6395 67.1044 -175
v 6395 66.3088 -177
v 6395 65.9906 -179
v 6395 66.1761 -181
v 6395 65.8354 -183
v 6395 65.5001 -185
v 6395 65.0832 -187
v 6395 64.5758 -189
v 6395 64.0419 -191
v 6395 63.545 -193
v 6395 63.1786 -195
v 6395 63.1309 -197
v 6395 62.9941 -199
v 6395 62.7596 -201
v 6395 62.4933 -203
v 6395 62.3178 -205
v 6395 62.3675 -207
v 6395 62.491 -209
v 6395 62.4611 -211
v 6395 62.2179 -213
v 6395 61.8354 -215
v 6395 61.6898 -217
v 6395 61.4694 -219
v 6395 61.1707 -221
v 6395 60.7843 -223
v 6395 60.882 -225
v 6397 72.1828 -163
v 6397 71.4772 -165
v 6397 70.8978 -167
v 6397 70.3149 -169
v 6397 69.5691 -171
v 6397 68.6757 -173
v 6397 66.8678 -175
v 6397 66.0108 -177
v 6397 65.5392 -179
v 6397 65.9133 -181
v 6397 65.6087 -183
v 6397 65.3078 -185
v 6397 64.9289 -187
v 6397 64.5699 -189
v 6397 64.1166 -191
v 6397 63.626 -193
v 6397 63.0457 -195
v 6397 62.7638 -197
v 6397 62.7994 -199
v 6397 62.6624 -201
v 6397 62.419 -203
v 6397 62.2311 -205
v 6397 62.103 -207
v 6397 62.0764 -209
v 6397 62.0062 -211
v 6397 61.9015 -213
v 6397 61.7784 -215
v 6397 61.6517 -217
v 6397 61.4657 -219
v 6397 61.1895 -221
v 6397 60.8812 -223
v 6397 61.1353 -225
v 6399 71.8632 -163
v 6399 71.1101 -165
v 6399 70.482 -167
v 6399 69.8682 -169
v 6399 69.121 -171
v 6399 68.2463 -173
v 6399 66.4965 -175
v 6399 65.5685 -177
v 6399 65.0073 -179
v 6399 65.4551 -181
v 6399 65.1991 -183
v 6399 65.1575 -185
v 6399 64.9471 -187
v 6399 64.5688 -189
v 6399 64.0914 -191
v 6399 63.5749 -193
v 6399 62.9745 -195
v 6399 62.595 -197
v 6399 62.5016 -199
v 6399 62.4157 -201
v 6399 62.1744 -203
v 6399 61.9706 -205
v 6399 61.8512 -207
v 6399 61.8191 -209
v 6399 61.8025 -211
v 6399 61.735 -213
v 6399 61.6323 -215
v 6399 61.5155 -217
v 6399 61.3417 -219
v 6399 61.0814 -221
v 6399 60.9476 -223
v 6399 61.2203 -225
v 6401 71.3674 -163
v 6401 70.6031 -165
v 6401 69.9637 -167
v 6401 69.3548 -169
v 6401 68.6368 -171
v 6401 67.7772 -173
v 6401 66.0015 -175
v 6401 64.972 -177
v 6401 64.4634 -179
v 6401 65.2132 -181
v 6401 65.0474 -183
v 6401 64.9971 -185
v 6401 64.7879 -187
v 6401 64.4055 -189
v 6401 63.9031 -191
v 6401 63.3314 -193
v 6401 62.6918 -195
v 6401 62.4888 -197
v 6401 62.3099 -199
v 6401 62.0079 -201
v 6401 61.7673 -203
v 6401 61.542 -205
v 6401 61.399 -207
v 6401 61.3506 -209
v 6401 61.3375 -211
v 6401 61.3107 -213
v 6401 61.2459 -215
v 6401 61.1382 -217
v 6401 60.9795 -219
v 6401 60.7701 -221
v 6401 60.8778 -223
v 6401 61.1247 -225
v 6403 70.7682 -163
v 6403 69.9686 -165
v 6403 69.3192 -167
v 6403 68.7349 -169
v 6403 68.0786 -171
v 6403 67.2603 -173
v 6403 65.4307 -175
v 6403 64.6037 -177
v 6403 64.5579 -179
v 6403 65.3232 -181
v 6403 65.15 -183
v 6403 64.8485 -185
v 6403 64.5945 -187
v 6403 64.1982 -189
v 6403 63.6627 -191
v 6403 63.0188 -193
v 6403 62.6417 -195
v 6403 62.3959 -197
v 6403 62.0991 -199
v 6403 61.6726 -201
v 6403 61.2426 -203
v 6403 61.0026 -205
v 6403 61.058 -207
v 6403 61.0194 -209
v 6403 60.8842 -211
v 6403 60.6937 -213
v 6403 60.6693 -215
v 6403 60.5661 -217
v 6403 60.4307 -219
v 6403 60.4333 -221
v 6403 60.6978 -223
v 6403 60.9136 -225
v 6405 70.4384 -163
v 6405 69.5065 -165
v 6405 68.5893 -167
v 6405 68.0248 -169
v 6405 67.4525 -171
v 6405 66.7213 -173
v 6405 65.3903 -175
v 6405 64.8909 -177
v 6405 64.6296 -179
v 6405 65.2413 -181
v 6405 65.1476 -183
v 6405 64.9703 -185
v 6405 64.6447 -187
v 6405 64.1772 -189
v 6405 63.6427 -191
v 6405 63.137 -193
v 6405 62.677 -195
v 6405 62.2694 -197
v 6405 61.8821 -199
v 6405 61.4322 -201
v 6405 60.8192 -203
v 6405 60.6916 -205
v 6405 60.7217 -207
v 6405 60.6591 -209
v 6405 60.5329 -211
v 6405 60.4115 -213
v 6405 60.2478 -215
v 6405 60.1063 -217
v 6405 59.9813 -219
v 6405 60.0711 -221
v 6405 60.4585 -223
v 6405 60.808 -225
v 6407 69.9305 -163
v 6407 69.0077 -165
v 6407 67.946 -167
v 6407 67.0831 -169
v 6407 66.7601 -171
v 6407 66.6844 -173
v 6407 65.4491 -175
v 6407 65.0368 -177
v 6407 64.9166 -179
v 6407 65.2778 -181
v 6407 65.2321 -183
v 6407 65.1174 -185
v 6407 64.8443 -187
v 6407 64.3985 -189
v 6407 63.8355 -191
v 6407 63.2264 -193
v 6407 62.6268 -195
v 6407 62.1132 -197
v 6407 61.6827 -199
v 6407 61.2539 -201
v 6407 60.6992 -203
v 6407 60.2267 -205
v 6407 60.2594 -207
v 6407 60.1983 -209
v 6407 60.0933 -211
v 6407 60.0324 -213
v 6407 59.9341 -215
v 6407 59.8367 -217
v 6407 59.7151 -219
v 6407 59.8355 -221
v 6407 60.2773 -223
v 6407 60.706 -225
v 6409 69.1919 -163
v 6409 68.2554 -165
v 6409 67.1743 -167
v 6409 66.473 -169
v 6409 66.4753 -171
v 6409 66.3489 -173
v 6409 65.3529 -175
v 6409 65.068 -177
v 6409 65.2269 -179
v 6409 65.4804 -181
v 6409 65.4098 -183
v 6409 65.2449 -185
v 6409 64.9081 -187
v 6409 64.3955 -189
v 6409 63.7722 -191
v 6409 63.1084 -193
v 6409 62.4577 -195
v 6409 61.9133 -197
v 6409 61.4798 -199
v 6409 61.0787 -201
v 6409 60.5764 -203
v 6409 59.9752 -205
v 6409 59.7462 -207
v 6409 59.7076 -209
v 6409 59.6358 -211
v 6409 59.6165 -213
v 6409 59.5673 -215
v 6409 59.5219 -217
v 6409 59.478 -219
v 6409 59.6765 -221
v 6409 60.1531 -223
v 6409 60.6116 -225
v 6411 68.4807 -163
v 6411 67.2001 -165
v 6411 66.753 -167
v 6411 66.4565 -169
v 6411 66.2323 -171
v 6411 65.797 -173
v 6411 65.1888 -175
v 6411 65.0368 -177
v 6411 65.5609 -179
v 6411 65.6812 -181
v 6411 65.5302 -183
v 6411 65.2384 -185
v 6411 64.7703 -187
v 6411 64.1513 -189
v 6411 63.4692 -191
v 6411 62.8099 -193
v 6411 62.1933 -195
v 6411 61.68 -197
v 6411 61.2614 -199
v 6411 60.8651 -201
v 6411 60.3736 -203
v 6411 59.7882 -205
v 6411 59.3079 -207
v 6411 59.1868 -209
v 6411 59.1667 -211
v 6411 59.2504 -213
v 6411 59.2653 -215
v 6411 59.182 -217
v 6411 59.2012 -219
v 6411 59.5006 -221
v 6411 59.9557 -223
v 6411 60.4161 -225
v 6413 67.803 -163
v 6413 66.8885 -165
v 6413 66.6528 -167
v 6413 66.4115 -169
v 6413 66.2133 -171
v 6413 65.3117 -173
v 6413 65.0481 -175
v 6413 64.9537 -177
v 6413 65.7856 -179
v 6413 65.7105 -181
v 6413 65.4879 -183
v 6413 65.0918 -185
v 6413 64.5251 -187
v 6413 63.8351 -189
v 6413 63.1235 -191
v 6413 62.4968 -193
v 6413 61.9414 -195
v 6413 61.4651 -197
v 6413 61.0404 -199
v 6413 60.6071 -201
v 6413 60.0796 -203
v 6413 59.4646 -205
v 6413 59.0077 -207
v 6413 58.7827 -209
v 6413 58.8819 -211
v 6413 59.0183 -213
v 6413 59.0553 -215
v 6413 58.9699 -217
v 6413 58.9403 -219
v 6413 59.2115 -221
v 6413 59.6302 -223
v 6413 60.0779 -225
v 6415 67.7112 -163
v 6415 67.0245 -165
v 6415 66.6849 -167
v 6415 66.4548 -169
v 6415 66.2171 -171
v 6415 65.0715 -173
v 6415 64.9675 -175
v 6415 64.8849 -177
v 6415 65.6134 -179
v 6415 65.5003 -181
v 6415 65.2538 -183
v 6415 64.8302 -185
v 6415 64.2512 -187
v 6415 63.5686 -189
v 6415 62.8788 -191
v 6415 62.4255 -193
v 6415 61.9784 -195
v 6415 61.4724 -197
v 6415 60.8934 -199
v 6415 60.3171 -201
v 6415 59.709 -203
v 6415 59.1381 -205
v 6415 58.739 -207
v 6415 58.4824 -209
v 6415 58.4504 -211
v 6415 58.6368 -213
v 6415 58.705 -215
v 6415 58.6815 -217
v 6415 58.7448 -219
v 6415 58.8423 -221
v 6415 59.2095 -223
v 6415 59.6586 -225
v 6417 67.6321 -163
v 6417 67.0831 -165
v 6417 66.891 -167
v 6417 66.6226 -169
v 6417 65.9911 -171
v 6417 65.0984 -173
v 6417 64.8923 -175
v 6417 65.0193 -177
v 6417 65.3536 -179
v 6417 65.0889 -181
v 6417 64.8534 -183
v 6417 64.4714 -185
v 6417 63.9584 -187
v 6417 63.3545 -189
v 6417 62.8191 -191
v 6417 62.4174 -193
v 6417 62.0064 -195
v 6417 61.5114 -197
v 6417 60.9123 -199
v 6417 60.2471 -201
v 6417 59.5978 -203
v 6417 59.0443 -205
v 6417 58.6187 -207
v 6417 58.3625 -209
v 6417 58.3317 -211
v 6417 58.4139 -213
v 6417 58.4685 -215
v 6417 58.5596 -217
v 6417 58.645 -219
v 6417 58.7221 -221
v 6417 58.8852 -223
v 6417 59.2395 -225
v 6419 67.571 -163
v 6419 67.3613 -165
v 6419 67.0661 -167
v 6419 66.7487 -169
v 6419 65.6028 -171
v 6419 65.0776 -173
v 6419 64.7635 -175
v 6419 65.2015 -177
v 6419 65.0725 -179
v 6419 64.7949 -181
v 6419 64.5049 -183
v 6419 64.1492 -185
v 6419 63.733 -187
v 6419 63.277 -189
v 6419 62.8137 -191
v 6419 62.3871 -193
v 6419 61.9527 -195
v 6419 61.4369 -197
v 6419 60.8271 -199
v 6419 60.1679 -201
v 6419 59.5336 -203
v 6419 58.9611 -205
v 6419 58.5244 -207
v 6419 58.2624 -209
v 6419 58.2773 -211
v 6419 58.3356 -213
v 6419 58.3611 -215
v 6419 58.4233 -217
v 6419 58.5195 -219
v 6419 58.65 -221
v 6419 58.8642 -223
v 6419 59.1133 -225
v 6421 67.8032 -163
v 6421 67.4941 -165
v 6421 67.1333 -167
v 6421 66.5259 -169
v 6421 65.472 -171
v 6421 64.9915 -173
v 6421 64.5783 -175
v 6421 65.088 -177
v 6421 64.7142 -179
v 6421 64.4343 -181
v 6421 64.1871 -183
v 6421 63.899 -185
v 6421 63.5499 -187
v 6421 63.1364 -189
v 6421 62.6735 -191
v 6421 62.2072 -193
v 6421 61.7268 -195
v 6421 61.1881 -197
v 6421 60.5929 -199
v 6421 59.9809 -201
v 6421 59.4028 -203
v 6421 58.8628 -205
v 6421 58.4498 -207
v 6421 58.2722 -209
v 6421 58.2967 -211
v 6421 58.318 -213
v 6421 58.2943 -215
v 6421 58.2938 -217
v 6421 58.3699 -219
v 6421 58.534 -221
v 6421 58.7995 -223
v 6421 59.0954 -225
v 6423 67.592 -163
v 6423 67.3978 -165
v 6423 67.0218 -167
v 6423 65.8755 -169
v 6423 65.3414 -171
v 6423 64.8236 -173
v 6423 64.6717 -175
v 6423 64.7364 -177
v 6423 64.3344 -179
v 6423 64.0422 -181
v 6423 63.7934 -183
v 6423 63.5256 -185
v 6423 63.214 -187
v 6423 62.8353 -189
v 6423 62.3779 -191
v 6423 61.8724 -193
v 6423 61.3381 -195
v 6423 60.7744 -197
v 6423 60.2026 -199
v 6423 59.654 -201
v 6423 59.1514 -203
v 6423 58.6739 -205
v 6423 58.3598 -207
v 6423 58.3495 -209
v 6423 58.3503 -211
v 6423 58.3336 -213
v 6423 58.2619 -215
v 6423 58.2441 -217
v 6423 58.3546 -219
v 6423 58.476 -221
v 6423 58.7048 -223
v 6423 59.0173 -225
v 6425 67.0152 -163
v 6425 67.0489 -165
v 6425 66.2359 -167
v 6425 65.4211 -169
v 6425 65.0188 -171
v 6425 64.5148 -173
v 6425 64.8672 -175
v 6425 64.4404 -177
v 6425 64.0244 -179
v 6425 63.7244 -181
v 6425 63.4386 -183
v 6425 63.1407 -185
v 6425 62.819 -187
v 6425 62.4429 -189
v 6425 61.9814 -191
v 6425 61.528 -193
v 6425 61.0556 -195
v 6425 60.5051 -197
v 6425 59.8858 -199
v 6425 59.2351 -201
v 6425 58.7426 -203
v 6425 58.394 -205
v 6425 58.4238 -207
v 6425 58.4496 -209
v 6425 58.431 -211
v 6425 58.3854 -213
v 6425 58.2889 -215
v 6425 58.2367 -217
v 6425 58.3456 -219
v 6425 58.472 -221
v 6425 58.6685 -223
v 6425 58.9633 -225
f 26 25 24
f 27 25 26
f 28 25 27
f 28 29 25
f 28 31 29
f 29 31 30
f 1 6 5
f 1 2 6
f 3 2 1
f 6 2 9
f 2 3 4
f 9 2 8
f 8 2 7
f 2 4 23
f 2 23 22
f 2 22 11
f 11 10 2
f 2 10 7
f 11 12 10
f 11 13 12
f 13 15 12
f 13 11 16
f 16 11 18
f 19 18 11
f 15 13 14
f 13 16 14
f 19 20 18
f 21 20 19
f 16 18 17
f 34 33 32
f 35 33 34
f 36 33 35
f 36 37 33
f 39 37 36
f 37 39 38
f 144 142 146
f 146 142 145
f 145 142 141
f 145 141 41
f 145 41 43
f 42 43 41
f 42 41 40
f 42 40 114
f 42 114 118
f 143 74 139
f 140 143 139
f 140 144 143
f 140 142 144
f 143 75 74
f 74 75 73
f 74 73 72
f 41 141 44
f 45 41 44
f 40 41 45
f 97 74 96
f 74 97 139
f 96 74 72
f 114 40 45
f 114 45 112
f 44 141 46
f 141 135 46
f 142 135 141
f 137 139 97
f 138 139 137
f 138 140 139
f 138 136 140
f 140 136 142
f 142 136 135
f 46 45 44
f 96 95 97
f 95 137 97
f 46 47 45
f 47 112 45
f 113 112 47
f 96 94 95
f 135 48 46
f 49 46 48
f 47 46 49
f 92 137 95
f 92 95 93
f 93 95 94
f 113 49 111
f 47 49 113
f 135 131 50
f 135 50 48
f 137 91 133
f 92 91 137
f 136 132 135
f 135 132 131
f 134 132 136
f 134 136 138
f 134 138 133
f 133 138 137
f 49 48 51
f 51 48 50
f 92 90 91
f 90 92 93
f 111 49 110
f 110 49 51
f 50 155 154
f 131 155 50
f 50 53 51
f 53 50 54
f 88 133 91
f 88 91 90
f 51 53 52
f 110 51 103
f 103 51 52
f 88 90 89
f 131 147 155
f 57 52 56
f 55 52 53
f 109 103 52
f 103 109 108
f 103 108 107
f 103 107 106
f 89 87 88
f 105 103 104
f 104 103 102
f 88 87 86
f 133 88 86
f 131 148 147
f 132 128 131
f 130 128 132
f 129 133 86
f 130 133 129
f 130 134 133
f 130 132 134
f 131 128 127
f 131 150 148
f 150 131 149
f 127 149 131
f 127 153 149
f 153 127 152
f 85 84 87
f 87 84 86
f 115 100 105
f 115 105 104
f 129 86 84
f 152 127 151
f 115 116 100
f 60 59 58
f 151 127 59
f 59 61 58
f 100 116 62
f 59 63 61
f 61 63 62
f 100 62 63
f 82 83 85
f 85 83 84
f 64 63 59
f 65 63 64
f 63 65 101
f 63 101 100
f 129 84 83
f 59 127 64
f 128 121 119
f 124 121 128
f 124 128 130
f 124 130 123
f 123 130 129
f 123 129 83
f 128 119 127
f 64 127 119
f 81 83 82
f 67 65 64
f 65 67 101
f 101 67 99
f 80 83 81
f 66 64 119
f 67 64 66
f 80 123 83
f 67 66 69
f 67 69 68
f 99 67 98
f 98 67 68
f 81 77 80
f 76 77 81
f 69 66 119
f 77 123 80
f 120 69 119
f 121 120 119
f 125 123 77
f 125 124 123
f 126 124 125
f 126 121 124
f 122 121 126
f 121 122 120
f 98 68 117
f 117 68 70
f 69 70 68
f 78 77 76
f 69 71 70
f 120 71 69
f 78 79 77
f 125 77 79
f 175 174 177
f 177 174 176
f 179 158 178
f 178 158 156
f 166 165 164
f 167 165 166
f 170 165 167
f 171 165 170
f 174 173 172
f 175 173 174
f 158 157 156
f 159 157 158
f 162 161 160
f 163 161 162
f 162 168 163
f 169 168 162
f 183 182 188
f 188 182 187
f 187 182 186
f 186 182 184
f 182 181 180
f 183 181 182
f 182 185 184
f 180 185 182
f 191 190 189
f 192 190 191
f 207 206 205
f 208 206 207
f 203 202 201
f 204 202 203
f 195 194 193
f 196 194 195
f 199 198 197
f 200 198 199
f 211 210 209
f 212 210 211
f 227 226 225
f 228 226 227
f 223 222 221
f 224 222 223
f 215 214 213
f 216 214 215
f 219 218 217
f 220 218 219
f 231 230 229
f 232 230 231
f 247 246 245
f 248 246 247
f 243 242 241
f 244 242 243
f 235 234 233
f 236 234 235
f 239 238 237
f 240 238 239
f 269 268 267
f 270 268 269
f 403 405 402
f 404 403 402
f 265 264 263
f 264 265 266
f 423 425 424
f 407 406 405
f 425 426 424
f 402 405 406
f 421 422 419
f 422 423 419
f 423 424 419
f 273 272 271
f 271 278 273
f 276 275 274
f 275 276 277
f 260 259 258
f 260 261 259
f 413 412 411
f 262 261 260
f 414 412 413
f 412 416 411
f 411 416 415
f 337 336 335
f 401 399 398
f 399 401 390
f 354 401 398
f 399 390 379
f 390 388 379
f 388 384 379
f 385 384 388
f 385 383 384
f 384 383 382
f 386 384 382
f 371 370 369
f 372 371 369
f 373 371 372
f 374 373 372
f 375 373 374
f 375 374 376
f 301 300 299
f 299 300 292
f 299 292 298
f 298 292 297
f 352 351 350
f 353 351 352
f 316 320 319
f 320 316 318
f 318 316 317
f 317 316 315
f 315 316 313
f 315 313 314
f 314 313 312
f 312 313 311
f 312 311 309
f 309 311 308
f 310 309 308
f 323 322 321
f 324 322 323
f 325 322 324
f 325 326 322
f 279 278 271
f 416 410 417
f 412 410 416
f 304 303 301
f 301 303 302
f 301 302 300
f 327 328 326
f 327 329 328
f 409 412 414
f 412 409 410
f 327 330 329
f 420 421 419
f 327 326 325
f 393 399 379
f 393 398 399
f 420 419 418
f 384 386 387
f 384 387 389
f 384 389 379
f 354 398 396
f 393 394 398
f 410 409 408
f 410 408 417
f 292 305 297
f 393 379 400
f 379 389 381
f 381 380 379
f 379 380 378
f 379 378 377
f 393 400 392
f 394 393 392
f 354 396 391
f 349 354 391
f 349 347 354
f 359 360 361
f 357 360 359
f 358 356 357
f 355 360 357
f 363 366 362
f 364 363 362
f 357 356 355
f 293 291 292
f 294 291 293
f 362 366 365
f 253 257 256
f 254 253 252
f 253 254 255
f 251 250 249
f 397 395 396
f 396 395 391
f 367 365 366
f 365 367 368
f 292 290 305
f 292 291 290
f 307 305 290
f 349 348 347
f 294 295 291
f 296 295 294
f 307 290 306
f 333 332 331
f 332 333 334
f 332 334 345
f 343 338 342
f 338 339 342
f 340 341 339
f 340 339 338
f 345 334 344
f 346 345 344
f 289 286 288
f 288 286 287
f 287 286 285
f 285 286 284
f 285 284 283
f 283 284 281
f 283 281 282
f 282 281 280
f 429 428 427
f 430 428 429
f 445 444 443
f 446 444 445
f 441 440 439
f 442 440 441
f 433 432 431
f 434 432 433
f 437 436 435
f 438 436 437
f 467 466 465
f 468 466 467
f 601 603 600
f 602 601 600
f 463 462 461
f 462 463 464
f 621 623 622
f 605 604 603
f 623 624 622
f 600 603 604
f 619 620 617
f 620 621 617
f 621 622 617
f 471 470 469
f 469 476 471
f 474 473 472
f 473 474 475
f 458 457 456
f 458 459 457
f 611 610 609
f 460 459 458
f 612 610 611
f 610 614 609
f 609 614 613
f 535 534 533
f 599 597 596
f 597 599 588
f 552 599 596
f 597 588 577
f 588 586 577
f 586 582 577
f 583 582 586
f 583 581 582
f 582 581 580
f 584 582 580
f 569 568 567
f 570 569 567
f 571 569 570
f 572 571 570
f 573 571 572
f 573 572 574
f 499 498 497
f 497 498 490
f 497 490 496
f 496 490 495
f 550 549 548
f 551 549 550
f 514 518 517
f 518 514 516
f 516 514 515
f 515 514 513
f 513 514 511
f 513 511 512
f 512 511 510
f 510 511 509
f 510 509 507
f 507 509 506
f 508 507 506
f 521 520 519
f 522 520 521
f 523 520 522
f 523 524 520
f 477 476 469
f 614 608 615
f 610 608 614
f 502 501 499
f 499 501 500
f 499 500 498
f 525 526 524
f 525 527 526
f 607 610 612
f 610 607 608
f 525 528 527
f 618 619 617
f 525 524 523
f 591 597 577
f 591 596 597
f 618 617 616
f 582 584 585
f 582 585 587
f 582 587 577
f 552 596 594
f 591 592 596
f 608 607 606
f 608 606 615
f 490 503 495
f 591 577 598
f 577 587 579
f 579 578 577
f 577 578 576
f 577 576 575
f 591 598 590
f 592 591 590
f 552 594 589
f 547 552 589
f 547 545 552
f 557 558 559
f 555 558 557
f 556 554 555
f 553 558 555
f 561 564 560
f 562 561 560
f 555 554 553
f 491 489 490
f 492 489 491
f 560 564 563
f 451 455 454
f 452 451 450
f 451 452 453
f 449 448 447
f 595 593 594
f 594 593 589
f 565 563 564
f 563 565 566
f 490 488 503
f 490 489 488
f 505 503 488
f 547 546 545
f 492 493 489
f 494 493 492
f 505 488 504
f 531 530 529
f 530 531 532
f 530 532 543
f 541 536 540
f 536 537 540
f 538 539 537
f 538 537 536
f 543 532 542
f 544 543 542
f 487 484 486
f 486 484 485
f 485 484 483
f 483 484 482
f 483 482 481
f 481 482 479
f 481 479 480
f 480 479 478
f 645 644 643
f 646 644 645
f 779 781 778
f 780 779 778
f 641 640 639
f 640 641 642
f 799 801 800
f 783 782 781
f 801 802 800
f 778 781 782
f 797 798 795
f 798 799 795
f 799 800 795
f 649 648 647
f 647 654 649
f 652 651 650
f 651 652 653
f 636 635 634
f 636 637 635
f 789 788 787
f 638 637 636
f 790 788 789
f 788 792 787
f 787 792 791
f 713 712 711
f 777 775 774
f 775 777 766
f 730 777 774
f 775 766 755
f 766 764 755
f 764 760 755
f 761 760 764
f 761 759 760
f 760 759 758
f 762 760 758
f 747 746 745
f 748 747 745
f 749 747 748
f 750 749 748
f 751 749 750
f 751 750 752
f 677 676 675
f 675 676 668
f 675 668 674
f 674 668 673
f 728 727 726
f 729 727 728
f 692 696 695
f 696 692 694
f 694 692 693
f 693 692 691
f 691 692 689
f 691 689 690
f 690 689 688
f 688 689 687
f 688 687 685
f 685 687 684
f 686 685 684
f 699 698 697
f 700 698 699
f 701 698 700
f 701 702 698
f 655 654 647
f 792 786 793
f 788 786 792
f 680 679 677
f 677 679 678
f 677 678 676
f 703 704 702
f 703 705 704
f 785 788 790
f 788 785 786
f 703 706 705
f 796 797 795
f 703 702 701
f 769 775 755
f 769 774 775
f 796 795 794
f 760 762 763
f 760 763 765
f 760 765 755
f 730 774 772
f 769 770 774
f 786 785 784
f 786 784 793
f 668 681 673
f 769 755 776
f 755 765 757
f 757 756 755
f 755 756 754
f 755 754 753
f 769 776 768
f 770 769 768
f 730 772 767
f 725 730 767
f 725 723 730
f 735 736 737
f 733 736 735
f 734 732 733
f 731 736 733
f 739 742 738
f 740 739 738
f 733 732 731
f 669 667 668
f 670 667 669
f 738 742 741
f 629 633 632
f 630 629 628
f 629 630 631
f 627 626 625
f 773 771 772
f 772 771 767
f 743 741 742
f 741 743 744
f 668 666 681
f 668 667 666
f 683 681 666
f 725 724 723
f 670 671 667
f 672 671 670
f 683 666 682
f 709 708 707
f 708 709 710
f 708 710 721
f 719 714 718
f 714 715 718
f 716 717 715
f 716 715 714
f 721 710 720
f 722 721 720
f 665 662 664
f 664 662 663
f 663 662 661
f 661 662 660
f 661 660 659
f 659 660 657
f 659 657 658
f 658 657 656
f 823 822 821
f 824 822 823
f 957 959 956
f 958 957 956
f 819 818 817
f 818 819 820
f 977 979 978
f 961 960 959
f 979 980 978
f 956 959 960
f 975 976 973
f 976 977 973
f 977 978 973
f 827 826 825
f 825 832 827
f 830 829 828
f 829 830 831
f 814 813 812
f 814 815 813
f 967 966 965
f 816 815 814
f 968 966 967
f 966 970 965
f 965 970 969
f 891 890 889
f 955 953 952
f 953 955 944
f 908 955 952
f 953 944 933
f 944 942 933
f 942 938 933
f 939 938 942
f 939 937 938
f 938 937 936
f 940 938 936
f 925 924 923
f 926 925 923
f 927 925 926
f 928 927 926
f 929 927 928
f 929 928 930
f 855 854 853
f 853 854 846
f 853 846 852
f 852 846 851
f 906 905 904
f 907 905 906
f 870 874 873
f 874 870 872
f 872 870 871
f 871 870 869
f 869 870 867
f 869 867 868
f 868 867 866
f 866 867 865
f 866 865 863
f 863 865 862
f 864 863 862
f 877 876 875
f 878 876 877
f 879 876 878
f 879 880 876
f 833 832 825
f 970 964 971
f 966 964 970
f 858 857 855
f 855 857 856
f 855 856 854
f 881 882 880
f 881 883 882
f 963 966 968
f 966 963 964
f 881 884 883
f 974 975 973
f 881 880 879
f 947 953 933
f 947 952 953
f 974 973 972
f 938 940 941
f 938 941 943
f 938 943 933
f 908 952 950
f 947 948 952
f 964 963 962
f 964 962 971
f 846 859 851
f 947 933 954
f 933 943 935
f 935 934 933
f 933 934 932
f 933 932 931
f 947 954 946
f 948 947 946
f 908 950 945
f 903 908 945
f 903 901 908
f 913 914 915
f 911 914 913
f 912 910 911
f 909 914 911
f 917 920 916
f 918 917 916
f 911 910 909
f 847 845 846
f 848 845 847
f 916 920 919
f 807 811 810
f 808 807 806
f 807 808 809
f 805 804 803
f 951 949 950
f 950 949 945
f 921 919 920
f 919 921 922
f 846 844 859
f 846 845 844
f 861 859 844
f 903 902 901
f 848 849 845
f 850 849 848
f 861 844 860
f 887 886 885
f 886 887 888
f 886 888 899
f 897 892 896
f 892 893 896
f 894 895 893
f 894 893 892
f 899 888 898
f 900 899 898
f 843 840 842
f 842 840 841
f 841 840 839
f 839 840 838
f 839 838 837
f 837 838 835
f 837 835 836
f 836 835 834
f 1014 982 981
f 981 1013 1014
f 1046 1014 1013
f 1013 1045 1046
f 1078 1046 1045
f 1045 1077 1078
f 1110 1078 1077
f 1077 1109 1110
f 1142 1110 1109
f 1109 1141 1142
f 1174 1142 1141
f 1141 1173 1174
f 1206 1174 1173
f 1173 1205 1206
f 1238 1206 1205
f 1205 1237 1238
f 1270 1238 1237
f 1237 1269 1270
f 1302 1270 1269
f 1269 1301 1302
f 1334 1302 1301
f 1301 1333 1334
f 1366 1334 1333
f 1333 1365 1366
f 1398 1366 1365
f 1365 1397 1398
f 1430 1398 1397
f 1397 1429 1430
f 1462 1430 1429
f 1429 1461 1462
f 1494 1462 1461
f 1461 1493 1494
f 1526 1494 1493
f 1493 1525 1526
f 1558 1526 1525
f 1525 1557 1558
f 1590 1558 1557
f 1557 1589 1590
f 1622 1590 1589
f 1589 1621 1622
f 1654 1622 1621
f 1621 1653 1654
f 1686 1654 1653
f 1653 1685 1686
f 1718 1686 1685
f 1685 1717 1718
f 1750 1718 1717
f 1717 1749 1750
f 1782 1750 1749
f 1749 1781 1782
f 1814 1782 1781
f 1781 1813 1814
f 1846 1814 1813
f 1813 1845 1846
f 1878 1846 1845
f 1845 1877 1878
f 1910 1878 1877
f 1877 1909 1910
f 1942 1910 1909
f 1909 1941 1942
f 1974 1942 1941
f 1941 1973 1974
f 1015 983 982
f 982 1014 1015
f 1047 1015 1014
f 1014 1046 1047
f 1079 1047 1046
f 1046 1078 1079
f 1111 1079 1078
f 1078 1110 1111
f 1143 1111 1110
f 1110 1142 1143
f 1175 1143 1142
f 1142 1174 1175
f 1207 1175 1174
f 1174 1206 1207
f 1239 1207 1206
f 1206 1238 1239
f 1271 1239 1238
f 1238 1270 1271
f 1303 1271 1270
f 1270 1302 1303
f 1335 1303 1302
f 1302 1334 1335
f 1367 1335 1334
f 1334 1366 1367
f 1399 1367 1366
f 1366 1398 1399
f 1431 1399 1398
f 1398 1430 1431
f 1463 1431 1430
f 1430 1462 1463
f 1495 1463 1462
f 1462 1494 1495
f 1527 1495 1494
f 1494 1526 1527
f 1559 1527 1526
f 1526 1558 1559
f 1591 1559 1558
f 1558 1590 1591
f 1623 1591 1590
f 1590 1622 1623
f 1655 1623 1622
f 1622 1654 1655
f 1687 1655 1654
f 1654 1686 1687
f 1719 1687 1686
f 1686 1718 1719
f 1751 1719 1718
f 1718 1750 1751
f 1783 1751 1750
f 1750 1782 1783
f 1815 1783 1782
f 1782 1814 1815
f 1847 1815 1814
f 1814 1846 1847
f 1879 1847 1846
f 1846 1878 1879
f 1911 1879 1878
f 1878 1910 1911
f 1943 1911 1910
f 1910 1942 1943
f 1975 1943 1942
f 1942 1974 1975
f 1016 984 983
f 983 1015 1016
f 1048 1016 1015
f 1015 1047 1048
f 1080 1048 1047
f 1047 1079 1080
f 1112 1080 1079
f 1079 1111 1112
f 1144 1112 1111
f 1111 1143 1144
f 1176 1144 1143
f 1143 1175 1176
f 1208 1176 1175
f 1175 1207 1208
f 1240 1208 1207
f 1207 1239 1240
f 1272 1240 1239
f 1239 1271 1272
f 1304 1272 1271
f 1271 1303 1304
f 1336 1304 1303
f 1303 1335 1336
f 1368 1336 1335
f 1335 1367 1368
f 1400 1368 1367
f 1367 1399 1400
f 1432 1400 1399
f 1399 1431 1432
f 1464 1432 1431
f 1431 1463 1464
f 1496 1464 1463
f 1463 1495 1496
f 1528 1496 1495
f 1495 1527 1528
f 1560 1528 1527
f 1527 1559 1560
f 1592 1560 1559
f 1559 1591 1592
f 1624 1592 1591
f 1591 1623 1624
f 1656 1624 1623
f 1623 1655 1656
f 1688 1656 1655
f 1655 1687 1688
f 1720 1688 1687
f 1687 1719 1720
f 1752 1720 1719
f 1719 1751 1752
f 1784 1752 1751
f 1751 1783 1784
f 1816 1784 1783
f 1783 1815 1816
f 1848 1816 1815
f 1815 1847 1848
f 1880 1848 1847
f 1847 1879 1880
f 1912 1880 1879
f 1879 1911 1912
f 1944 1912 1911
f 1911 1943 1944
f 1976 1944 1943
f 1943 1975 1976
f 1017 985 984
f 984 1016 1017
f 1049 1017 1016
f 1016 1048 1049
f 1081 1049 1048
f 1048 1080 1081
f 1113 1081 1080
f 1080 1112 1113
f 1145 1113 1112
f 1112 1144 1145
f 1177 1145 1144
f 1144 1176 1177
f 1209 1177 1176
f 1176 1208 1209
f 1241 1209 1208
f 1208 1240 1241
f 1273 1241 1240
f 1240 1272 1273
f 1305 1273 1272
f 1272 1304 1305
f 1337 1305 1304
f 1304 1336 1337
f 1369 1337 1336
f 1336 1368 1369
f 1401 1369 1368
f 1368 1400 1401
f 1433 1401 1400
f 1400 1432 1433
f 1465 1433 1432
f 1432 1464 1465
f 1497 1465 1464
f 1464 1496 1497
f 1529 1497 1496
f 1496 1528 1529
f 1561 1529 1528
f 1528 1560 1561
f 1593 1561 1560
f 1560 1592 1593
f 1625 1593 1592
f 1592 1624 1625
f 1657 1625 1624
f 1624 1656 1657
f 1689 1657 1656
f 1656 1688 1689
f 1721 1689 1688
f 1688 1720 1721
f 1753 1721 1720
f 1720 1752 1753
f 1785 1753 1752
f 1752 1784 1785
f 1817 1785 1784
f 1784 1816 1817
f 1849 1817 1816
f 1816 1848 1849
f 1881 1849 1848
f 1848 1880 1881
f 1913 1881 1880
f 1880 1912 1913
f 1945 1913 1912
f 1912 1944 1945
f 1977 1945 1944
f 1944 1976 1977
f 1018 986 985
f 985 1017 1018
f 1050 1018 1017
f 1017 1049 1050
f 1082 1050 1049
f 1049 1081 1082
f 1114 1082 1081
f 1081 1113 1114
f 1146 1114 1113
f 1113 1145 1146
f 1178 1146 1145
f 1145 1177 1178
f 1210 1178 1177
f 1177 1209 1210
f 1242 1210 1209
f 1209 1241 1242
f 1274 1242 1241
f 1241 1273 1274
f 1306 1274 1273
f 1273 1305 1306
f 1338 1306 1305
f 1305 1337 1338
f 1370 1338 1337
f 1337 1369 1370
f 1402 1370 1369
f 1369 1401 1402
f 1434 1402 1401
f 1401 1433 1434
f 1466 1434 1433
f 1433 1465 1466
f 1498 1466 1465
f 1465 1497 1498
f 1530 1498 1497
f 1497 1529 1530
f 1562 1530 1529
f 1529 1561 1562
f 1594 1562 1561
f 1561 1593 1594
f 1626 1594 1593
f 1593 1625 1626
f 1658 1626 1625
f 1625 1657 1658
f 1690 1658 1657
f 1657 1689 1690
f 1722 1690 1689
f 1689 1721 1722
f 1754 1722 1721
f 1721 1753 1754
f 1786 1754 1753
f 1753 1785 1786
f 1818 1786 1785
f 1785 1817 1818
f 1850 1818 1817
f 1817 1849 1850
f 1882 1850 1849
f 1849 1881 1882
f 1914 1882 1881
f 1881 1913 1914
f 1946 1914 1913
f 1913 1945 1946
f 1978 1946 1945
f 1945 1977 1978
f 1019 987 986
f 986 1018 1019
f 1051 1019 1018
f 1018 1050 1051
f 1083 1051 1050
f 1050 1082 1083
f 1115 1083 1082
f 1082 1114 1115
f 1147 1115 1114
f 1114 1146 1147
f 1179 1147 1146
f 1146 1178 1179
f 1211 1179 1178
f 1178 1210 1211
f 1243 1211 1210
f 1210 1242 1243
f 1275 1243 1242
f 1242 1274 1275
f 1307 1275 1274
f 1274 1306 1307
f 1339 1307 1306
f 1306 1338 1339
f 1371 1339 1338
f 1338 1370 1371
f 1403 1371 1370
f 1370 1402 1403
f 1435 1403 1402
f 1402 1434 1435
f 1467 1435 1434
f 1434 1466 1467
f 1499 1467 1466
f 1466 1498 1499
f 1531 1499 1498
f 1498 1530 1531
f 1563 1531 1530
f 1530 1562 1563
f 1595 1563 1562
f 1562 1594 1595
f 1627 1595 1594
f 1594 1626 1627
f 1659 1627 1626
f 1626 1658 1659
f 1691 1659 1658
f 1658 1690 1691
f 1723 1691 1690
f 1690 1722 1723
f 1755 1723 1722
f 1722 1754 1755
f 1787 1755 1754
f 1754 1786 1787
f 1819 1787 1786
f 1786 1818 1819
f 1851 1819 1818
f 1818 1850 1851
f 1883 1851 1850
f 1850 1882 1883
f 1915 1883 1882
f 1882 1914 1915
f 1947 1915 1914
f 1914 1946 1947
f 1979 1947 1946
f 1946 1978 1979
f 1020 988 987
f 987 1019 1020
f 1052 1020 1019
f 1019 1051 1052
f 1084 1052 1051
f 1051 1083 1084
f 1116 1084 1083
f 1083 1115 1116
f 1148 1116 1115
f 1115 1147 1148
f 1180 1148 1147
f 1147 1179 1180
f 1212 1180 1179
f 1179 1211 1212
f 1244 1212 1211
f 1211 1243 1244
f 1276 1244 1243
f 1243 1275 1276
f 1308 1276 1275
f 1275 1307 1308
f 1340 1308 1307
f 1307 1339 1340
f 1372 1340 1339
f 1339 1371 1372
f 1404 1372 1371
f 1371 1403 1404
f 1436 1404 1403
f 1403 1435 1436
f 1468 1436 1435
f 1435 1467 1468
f 1500 1468 1467
f 1467 1499 1500
f 1532 1500 1499
f 1499 1531 1532
f 1564 1532 1531
f 1531 1563 1564
f 1596 1564 1563
f 1563 1595 1596
f 1628 1596 1595
f 1595 1627 1628
f 1660 1628 1627
f 1627 1659 1660
f 1692 1660 1659
f 1659 1691 1692
f 1724 1692 1691
f 1691 1723 1724
f 1756 1724 1723
f 1723 1755 1756
f 1788 1756 1755
f 1755 1787 1788
f 1820 1788 1787
f 1787 1819 1820
f 1852 1820 1819
f 1819 1851 1852
f 1884 1852 1851
f 1851 1883 1884
f 1916 1884 1883
f 1883 1915 1916
f 1948 1916 1915
f 1915 1947 1948
f 1980 1948 1947
f 1947 1979 1980
f 1021 989 988
f 988 1020 1021
f 1053 1021 1020
f 1020 1052 1053
f 1085 1053 1052
f 1052 1084 1085
f 1117 1085 1084
f 1084 1116 1117
f 1149 1117 1116
f 1116 1148 1149
f 1181 1149 1148
f 1148 1180 1181
f 1213 1181 1180
f 1180 1212 1213
f 1245 1213 1212
f 1212 1244 1245
f 1277 1245 1244
f 1244 1276 1277
f 1309 1277 1276
f 1276 1308 1309
f 1341 1309 1308
f 1308 1340 1341
f 1373 1341 1340
f 1340 1372 1373
f 1405 1373 1372
f 1372 1404 1405
f 1437 1405 1404
f 1404 1436 1437
f 1469 1437 1436
f 1436 1468 1469
f 1501 1469 1468
f 1468 1500 1501
f 1533 1501 1500
f 1500 1532 1533
f 1565 1533 1532
f 1532 1564 1565
f 1597 1565 1564
f 1564 1596 1597
f 1629 1597 1596
f 1596 1628 1629
f 1661 1629 1628
f 1628 1660 1661
f 1693 1661 1660
f 1660 1692 1693
f 1725 1693 1692
f 1692 1724 1725
f 1757 1725 1724
f 1724 1756 1757
f 1789 1757 1756
f 1756 1788 1789
f 1821 1789 1788
f 1788 1820 1821
f 1853 1821 1820
f 1820 1852 1853
f 1885 1853 1852
f 1852 1884 1885
f 1917 1885 1884
f 1884 1916 1917
f 1949 1917 1916
f 1916 1948 1949
f 1981 1949 1948
f 1948 1980 1981
f 1022 990 989
f 989 1021 1022
f 1054 1022 1021
f 1021 1053 1054
f 1086 1054 1053
f 1053 1085 1086
f 1118 1086 1085
f 1085 1117 1118
f 1150 1118 1117
f 1117 1149 1150
f 1182 1150 1149
f 1149 1181 1182
f 1214 1182 1181
f 1181 1213 1214
f 1246 1214 1213
f 1213 1245 1246
f 1278 1246 1245
f 1245 1277 1278
f 1310 1278 1277
f 1277 1309 1310
f 1342 1310 1309
f 1309 1341 1342
f 1374 1342 1341
f 1341 1373 1374
f 1406 1374 1373
f 1373 1405 1406
f 1438 1406 1405
f 1405 1437 1438
f 1470 1438 1437
f 1437 1469 1470
f 1502 1470 1469
f 1469 1501 1502
f 1534 1502 1501
f 1501 1533 1534
f 1566 1534 1533
f 1533 1565 1566
f 1598 1566 1565
f 1565 1597 1598
f 1630 1598 1597
f 1597 1629 1630
f 1662 1630 1629
f 1629 1661 1662
f 1694 1662 1661
f 1661 1693 1694
f 1726 1694 1693
f 1693 1725 1726
f 1758 1726 1725
f 1725 1757 1758
f 1790 1758 1757
f 1757 1789 1790
f 1822 1790 1789
f 1789 1821 1822
f 1854 1822 1821
f 1821 1853 1854
f 1886 1854 1853
f 1853 1885 1886
f 1918 1886 1885
f 1885 1917 1918
f 1950 1918 1917
f 1917 1949 1950
f 1982 1950 1949
f 1949 1981 1982
f 1023 991 990
f 990 1022 1023
f 1055 1023 1022
f 1022 1054 1055
f 1087 1055 1054
f 1054 1086 1087
f 1119 1087 1086
f 1086 1118 1119
f 1151 1119 1118
f 1118 1150 1151
f 1183 1151 1150
f 1150 1182 1183
f 1215 1183 1182
f 1182 1214 1215
f 1247 1215 1214
f 1214 1246 1247
f 1279 1247 1246
f 1246 1278 1279
f 1311 1279 1278
f 1278 1310 1311
f 1343 1311 1310
f 1310 1342 1343
f 1375 1343 1342
f 1342 1374 1375
f 1407 1375 1374
f 1374 1406 1407
f 1439 1407 1406
f 1406 1438 1439
f 1471 1439 1438
f 1438 1470 1471
f 1503 1471 1470
f 1470 1502 1503
f 1535 1503 1502
f 1502 1534 1535
f 1567 1535 1534
f 1534 1566 1567
f 1599 1567 1566
f 1566 1598 1599
f 1631 1599 1598
f 1598 1630 1631
f 1663 1631 1630
f 1630 1662 1663
f 1695 1663 1662
f 1662 1694 1695
f 1727 1695 1694
f 1694 1726 1727
f 1759 1727 1726
f 1726 1758 1759
f 1791 1759 1758
f 1758 1790 1791
f 1823 1791 1790
f 1790 1822 1823
f 1855 1823 1822
f 1822 1854 1855
f 1887 1855 1854
f 1854 1886 1887
f 1919 1887 1886
f 1886 1918 1919
f 1951 1919 1918
f 1918 1950 1951
f 1983 1951 1950
f 1950 1982 1983
f 1024 992 991
f 991 1023 1024
f 1056 1024 1023
f 1023 1055 1056
f 1088 1056 1055
f 1055 1087 1088
f 1120 1088 1087
f 1087 1119 1120
f 1152 1120 1119
f 1119 1151 1152
f 1184 1152 1151
f 1151 1183 1184
f 1216 1184 1183
f 1183 1215 1216
f 1248 1216 1215
f 1215 1247 1248
f 1280 1248 1247
f 1247 1279 1280
f 1312 1280 1279
f 1279 1311 1312
f 1344 1312 1311
f 1311 1343 1344
f 1376 1344 1343
f 1343 1375 1376
f 1408 1376 1375
f 1375 1407 1408
f 1440 1408 1407
f 1407 1439 1440
f 1472 1440 1439
f 1439 1471 1472
f 1504 1472 1471
f 1471 1503 1504
f 1536 1504 1503
f 1503 1535 1536
f 1568 1536 1535
f 1535 1567 1568
f 1600 1568 1567
f 1567 1599 1600
f 1632 1600 1599
f 1599 1631 1632
f 1664 1632 1631
f 1631 1663 1664
f 1696 1664 1663
f 1663 1695 1696
f 1728 1696 1695
f 1695 1727 1728
f 1760 1728 1727
f 1727 1759 1760
f 1792 1760 1759
f 1759 1791 1792
f 1824 1792 1791
f 1791 1823 1824
f 1856 1824 1823
f 1823 1855 1856
f 1888 1856 1855
f 1855 1887 1888
f 1920 1888 1887
f 1887 1919 1920
f 1952 1920 1919
f 1919 1951 1952
f 1984 1952 1951
f 1951 1983 1984
f 1025 993 992
f 992 1024 1025
f 1057 1025 1024
f 1024 1056 1057
f 1089 1057 1056
f 1056 1088 1089
f 1121 1089 1088
f 1088 1120 1121
f 1153 1121 1120
f 1120 1152 1153
f 1185 1153 1152
f 1152 1184 1185
f 1217 1185 1184
f 1184 1216 1217
f 1249 1217 1216
f 1216 1248 1249
f 1281 1249 1248
f 1248 1280 1281
f 1313 1281 1280
f 1280 1312 1313
f 1345 1313 1312
f 1312 1344 1345
f 1377 1345 1344
f 1344 1376 1377
f 1409 1377 1376
f 1376 1408 1409
f 1441 1409 1408
f 1408 1440 1441
f 1473 1441 1440
f 1440 1472 1473
f 1505 1473 1472
f 1472 1504 1505
f 1537 1505 1504
f 1504 1536 1537
f 1569 1537 1536
f 1536 1568 1569
f 1601 1569 1568
f 1568 1600 1601
f 1633 1601 1600
f 1600 1632 1633
f 1665 1633 1632
f 1632 1664 1665
f 1697 1665 1664
f 1664 1696 1697
f 1729 1697 1696
f 1696 1728 1729
f 1761 1729 1728
f 1728 1760 1761
f 1793 1761 1760
f 1760 1792 1793
f 1825 1793 1792
f 1792 1824 1825
f 1857 1825 1824
f 1824 1856 1857
f 1889 1857 1856
f 1856 1888 1889
f 1921 1889 1888
f 1888 1920 1921
f 1953 1921 1920
f 1920 1952 1953
f 1985 1953 1952
f 1952 1984 1985
f 1026 994 993
f 993 1025 1026
f 1058 1026 1025
f 1025 1057 1058
f 1090 1058 1057
f 1057 1089 1090
f 1122 1090 1089
f 1089 1121 1122
f 1154 1122 1121
f 1121 1153 1154
f 1186 1154 1153
f 1153 1185 1186
f 1218 1186 1185
f 1185 1217 1218
f 1250 1218 1217
f 1217 1249 1250
f 1282 1250 1249
f 1249 1281 1282
f 1314 1282 1281
f 1281 1313 1314
f 1346 1314 1313
f 1313 1345 1346
f 1378 1346 1345
f 1345 1377 1378
f 1410 1378 1377
f 1377 1409 1410
f 1442 1410 1409
f 1409 1441 1442
f 1474 1442 1441
f 1441 1473 1474
f 1506 1474 1473
f 1473 1505 1506
f 1538 1506 1505
f 1505 1537 1538
f 1570 1538 1537
f 1537 1569 1570
f 1602 1570 1569
f 1569 1601 1602
f 1634 1602 1601
f 1601 1633 1634
f 1666 1634 1633
f 1633 1665 1666
f 1698 1666 1665
f 1665 1697 1698
f 1730 1698 1697
f 1697 1729 1730
f 1762 1730 1729
f 1729 1761 1762
f 1794 1762 1761
f 1761 1793 1794
f 1826 1794 1793
f 1793 1825 1826
f 1858 1826 1825
f 1825 1857 1858
f 1890 1858 1857
f 1857 1889 1890
f 1922 1890 1889
f 1889 1921 1922
f 1954 1922 1921
f 1921 1953 1954
f 1986 1954 1953
f 1953 1985 1986
f 1027 995 994
f 994 1026 1027
f 1059 1027 1026
f 1026 1058 1059
f 1091 1059 1058
f 1058 1090 1091
f 1123 1091 1090
f 1090 1122 1123
f 1155 1123 1122
f 1122 1154 1155
f 1187 1155 1154
f 1154 1186 1187
f 1219 1187 1186
f 1186 1218 1219
f 1251 1219 1218
f 1218 1250 1251
f 1283 1251 1250
f 1250 1282 1283
f 1315 1283 1282
f 1282 1314 1315
f 1347 1315 1314
f 1314 1346 1347
f 1379 1347 1346
f 1346 1378 1379
f 1411 1379 1378
f 1378 1410 1411
f 1443 1411 1410
f 1410 1442 1443
f 1475 1443 1442
f 1442 1474 1475
f 1507 1475 1474
f 1474 1506 1507
f 1539 1507 1506
f 1506 1538 1539
f 1571 1539 1538
f 1538 1570 1571
f 1603 1571 1570
f 1570 1602 1603
f 1635 1603 1602
f 1602 1634 1635
f 1667 1635 1634
f 1634 1666 1667
f 1699 1667 1666
f 1666 1698 1699
f 1731 1699 1698
f 1698 1730 1731
f 1763 1731 1730
f 1730 1762 1763
f 1795 1763 1762
f 1762 1794 1795
f 1827 1795 1794
f 1794 1826 1827
f 1859 1827 1826
f 1826 1858 1859
f 1891 1859 1858
f 1858 1890 1891
f 1923 1891 1890
f 1890 1922 1923
f 1955 1923 1922
f 1922 1954 1955
f 1987 1955 1954
f 1954 1986 1987
f 1028 996 995
f 995 1027 1028
f 1060 1028 1027
f 1027 1059 1060
f 1092 1060 1059
f 1059 1091 1092
f 1124 1092 1091
f 1091 1123 1124
f 1156 1124 1123
f 1123 1155 1156
f 1188 1156 1155
f 1155 1187 1188
f 1220 1188 1187
f 1187 1219 1220
f 1252 1220 1219
f 1219 1251 1252
f 1284 1252 1251
f 1251 1283 1284
f 1316 1284 1283
f 1283 1315 1316
f 1348 1316 1315
f 1315 1347 1348
f 1380 1348 1347
f 1347 1379 1380
f 1412 1380 1379
f 1379 1411 1412
f 1444 1412 1411
f 1411 1443 1444
f 1476 1444 1443
f 1443 1475 1476
f 1508 1476 1475
f 1475 1507 1508
f 1540 1508 1507
f 1507 1539 1540
f 1572 1540 1539
f 1539 1571 1572
f 1604 1572 1571
f 1571 1603 1604
f 1636 1604 1603
f 1603 1635 1636
f 1668 1636 1635
f 1635 1667 1668
f 1700 1668 1667
f 1667 1699 1700
f 1732 1700 1699
f 1699 1731 1732
f 1764 1732 1731
f 1731 1763 1764
f 1796 1764 1763
f 1763 1795 1796
f 1828 1796 1795
f 1795 1827 1828
f 1860 1828 1827
f 1827 1859 1860
f 1892 1860 1859
f 1859 1891 1892
f 1924 1892 1891
f 1891 1923 1924
f 1956 1924 1923
f 1923 1955 1956
f 1988 1956 1955
f 1955 1987 1988
f 1029 997 996
f 996 1028 1029
f 1061 1029 1028
f 1028 1060 1061
f 1093 1061 1060
f 1060 1092 1093
f 1125 1093 1092
f 1092 1124 1125
f 1157 1125 1124
f 1124 1156 1157
f 1189 1157 1156
f 1156 1188 1189
f 1221 1189 1188
f 1188 1220 1221
f 1253 1221 1220
f 1220 1252 1253
f 1285 1253 1252
f 1252 1284 1285
f 1317 1285 1284
f 1284 1316 1317
f 1349 1317 1316
f 1316 1348 1349
f 1381 1349 1348
f 1348 1380 1381
f 1413 1381 1380
f 1380 1412 1413
f 1445 1413 1412
f 1412 1444 1445
f 1477 1445 1444
f 1444 1476 1477
f 1509 1477 1476
f 1476 1508 1509
f 1541 1509 1508
f 1508 1540 1541
f 1573 1541 1540
f 1540 1572 1573
f 1605 1573 1572
f 1572 1604 1605
f 1637 1605 1604
f 1604 1636 1637
f 1669 1637 1636
f 1636 1668 1669
f 1701 1669 1668
f 1668 1700 1701
f 1733 1701 1700
f 1700 1732 1733
f 1765 1733 1732
f 1732 1764 1765
f 1797 1765 1764
f 1764 1796 1797
f 1829 1797 1796
f 1796 1828 1829
f 1861 1829 1828
f 1828 1860 1861
f 1893 1861 1860
f 1860 1892 1893
f 1925 1893 1892
f 1892 1924 1925
f 1957 1925 1924
f 1924 1956 1957
f 1989 1957 1956
f 1956 1988 1989
f 1030 998 997
f 997 1029 1030
f 1062 1030 1029
f 1029 1061 1062
f 1094 1062 1061
f 1061 1093 1094
f 1126 1094 1093
f 1093 1125 1126
f 1158 1126 1125
f 1125 1157 1158
f 1190 1158 1157
f 1157 1189 1190
f 1222 1190 1189
f 1189 1221 1222
f 1254 1222 1221
f 1221 1253 1254
f 1286 1254 1253
f 1253 1285 1286
f 1318 1286 1285
f 1285 1317 1318
f 1350 1318 1317
f 1317 1349 1350
f 1382 1350 1349
f 1349 1381 1382
f 1414 1382 1381
f 1381 1413 1414
f 1446 1414 1413
f 1413 1445 1446
f 1478 1446 1445
f 1445 1477 1478
f 1510 1478 1477
f 1477 1509 1510
f 1542 1510 1509
f 1509 1541 1542
f 1574 1542 1541
f 1541 1573 1574
f 1606 1574 1573
f 1573 1605 1606
f 1638 1606 1605
f 1605 1637 1638
f 1670 1638 1637
f 1637 1669 1670
f 1702 1670 1669
f 1669 1701 1702
f 1734 1702 1701
f 1701 1733 1734
f 1766 1734 1733
f 1733 1765 1766
f 1798 1766 1765
f 1765 1797 1798
f 1830 1798 1797
f 1797 1829 1830
f 1862 1830 1829
f 1829 1861 1862
f 1894 1862 1861
f 1861 1893 1894
f 1926 1894 1893
f 1893 1925 1926
f 1958 1926 1925
f 1925 1957 1958
f 1990 1958 1957
f 1957 1989 1990
f 1031 999 998
f 998 1030 1031
f 1063 1031 1030
f 1030 1062 1063
f 1095 1063 1062
f 1062 1094 1095
f 1127 1095 1094
f 1094 1126 1127
f 1159 1127 1126
f 1126 1158 1159
f 1191 1159 1158
f 1158 1190 1191
f 1223 1191 1190
f 1190 1222 1223
f 1255 1223 1222
f 1222 1254 1255
f 1287 1255 1254
f 1254 1286 1287
f 1319 1287 1286
f 1286 1318 1319
f 1351 1319 1318
f 1318 1350 1351
f 1383 1351 1350
f 1350 1382 1383
f 1415 1383 1382
f 1382 1414 1415
f 1447 1415 1414
f 1414 1446 1447
f 1479 1447 1446
f 1446 1478 1479
f 1511 1479 1478
f 1478 1510 1511
f 1543 1511 1510
f 1510 1542 1543
f 1575 1543 1542
f 1542 1574 1575
f 1607 1575 1574
f 1574 1606 1607
f 1639 1607 1606
f 1606 1638 1639
f 1671 1639 1638
f 1638 1670 1671
f 1703 1671 1670
f 1670 1702 1703
f 1735 1703 1702
f 1702 1734 1735
f 1767 1735 1734
f 1734 1766 1767
f 1799 1767 1766
f 1766 1798 1799
f 1831 1799 1798
f 1798 1830 1831
f 1863 1831 1830
f 1830 1862 1863
f 1895 1863 1862
f 1862 1894 1895
f 1927 1895 1894
f 1894 1926 1927
f 1959 1927 1926
f 1926 1958 1959
f 1991 1959 1958
f 1958 1990 1991
f 1032 1000 999
f 999 1031 1032
f 1064 1032 1031
f 1031 1063 1064
f 1096 1064 1063
f 1063 1095 1096
f 1128 1096 1095
f 1095 1127 1128
f 1160 1128 1127
f 1127 1159 1160
f 1192 1160 1159
f 1159 1191 1192
f 1224 1192 1191
f 1191 1223 1224
f 1256 1224 1223
f 1223 1255 1256
f 1288 1256 1255
f 1255 1287 1288
f 1320 1288 1287
f 1287 1319 1320
f 1352 1320 1319
f 1319 1351 1352
f 1384 1352 1351
f 1351 1383 1384
f 1416 1384 1383
f 1383 1415 1416
f 1448 1416 1415
f 1415 1447 1448
f 1480 1448 1447
f 1447 1479 1480
f 1512 1480 1479
f 1479 1511 1512
f 1544 1512 1511
f 1511 1543 1544
f 1576 1544 1543
f 1543 1575 1576
f 1608 1576 1575
f 1575 1607 1608
f 1640 1608 1607
f 1607 1639 1640
f 1672 1640 1639
f 1639 1671 1672
f 1704 1672 1671
f 1671 1703 1704
f 1736 1704 1703
f 1703 1735 1736
f 1768 1736 1735
f 1735 1767 1768
f 1800 1768 1767
f 1767 1799 1800
f 1832 1800 1799
f 1799 1831 1832
f 1864 1832 1831
f 1831 1863 1864
f 1896 1864 1863
f 1863 1895 1896
f 1928 1896 1895
f 1895 1927 1928
f 1960 1928 1927
f 1927 1959 1960
f 1992 1960 1959
f 1959 1991 1992
f 1033 1001 1000
f 1000 1032 1033
f 1065 1033 1032
f 1032 1064 1065
f 1097 1065 1064
f 1064 1096 1097
f 1129 1097 1096
f 1096 1128 1129
f 1161 1129 1128
f 1128 1160 1161
f 1193 1161 1160
f 1160 1192 1193
f 1225 1193 1192
f 1192 1224 1225
f 1257 1225 1224
f 1224 1256 1257
f 1289 1257 1256
f 1256 1288 1289
f 1321 1289 1288
f 1288 1320 1321
f 1353 1321 1320
f 1320 1352 1353
f 1385 1353 1352
f 1352 1384 1385
f 1417 1385 1384
f 1384 1416 1417
f 1449 1417 1416
f 1416 1448 1449
f 1481 1449 1448
f 1448 1480 1481
f 1513 1481 1480
f 1480 1512 1513
f 1545 1513 1512
f 1512 1544 1545
f 1577 1545 1544
f 1544 1576 1577
f 1609 1577 1576
f 1576 1608 1609
f 1641 1609 1608
f 1608 1640 1641
f 1673 1641 1640
f 1640 1672 1673
f 1705 1673 1672
f 1672 1704 1705
f 1737 1705 1704
f 1704 1736 1737
f 1769 1737 1736
f 1736 1768 1769
f 1801 1769 1768
f 1768 1800 1801
f 1833 1801 1800
f 1800 1832 1833
f 1865 1833 1832
f 1832 1864 1865
f 1897 1865 1864
f 1864 1896 1897
f 1929 1897 1896
f 1896 1928 1929
f 1961 1929 1928
f 1928 1960 1961
f 1993 1961 1960
f 1960 1992 1993
f 1034 1002 1001
f 1001 1033 1034
f 1066 1034 1033
f 1033 1065 1066
f 1098 1066 1065
f 1065 1097 1098
f 1130 1098 1097
f 1097 1129 1130
f 1162 1130 1129
f 1129 1161 1162
f 1194 1162 1161
f 1161 1193 1194
f 1226 1194 1193
f 1193 1225 1226
f 1258 1226 1225
f 1225 1257 1258
f 1290 1258 1257
f 1257 1289 1290
f 1322 1290 1289
f 1289 1321 1322
f 1354 1322 1321
f 1321 1353 1354
f 1386 1354 1353
f 1353 1385 1386
f 1418 1386 1385
f 1385 1417 1418
f 1450 1418 1417
f 1417 1449 1450
f 1482 1450 1449
f 1449 1481 1482
f 1514 1482 1481
f 1481 1513 1514
f 1546 1514 1513
f 1513 1545 1546
f 1578 1546 1545
f 1545 1577 1578
f 1610 1578 1577
f 1577 1609 1610
f 1642 1610 1609
f 1609 1641 1642
f 1674 1642 1641
f 1641 1673 1674
f 1706 1674 1673
f 1673 1705 1706
f 1738 1706 1705
f 1705 1737 1738
f 1770 1738 1737
f 1737 1769 1770
f 1802 1770 1769
f 1769 1801 1802
f 1834 1802 1801
f 1801 1833 1834
f 1866 1834 1833
f 1833 1865 1866
f 1898 1866 1865
f 1865 1897 1898
f 1930 1898 1897
f 1897 1929 1930
f 1962 1930 1929
f 1929 1961 1962
f 1994 1962 1961
f 1961 1993 1994
f 1035 1003 1002
f 1002 1034 1035
f 1067 1035 1034
f 1034 1066 1067
f 1099 1067 1066
f 1066 1098 1099
f 1131 1099 1098
f 1098 1130 1131
f 1163 1131 1130
f 1130 1162 1163
f 1195 1163 1162
f 1162 1194 1195
f 1227 1195 1194
f 1194 1226 1227
f 1259 1227 1226
f 1226 1258 1259
f 1291 1259 1258
f 1258 1290 1291
f 1323 1291 1290
f 1290 1322 1323
f 1355 1323 1322
f 1322 1354 1355
f 1387 1355 1354
f 1354 1386 1387
f 1419 1387 1386
f 1386 1418 1419
f 1451 1419 1418
f 1418 1450 1451
f 1483 1451 1450
f 1450 1482 1483
f 1515 1483 1482
f 1482 1514 1515
f 1547 1515 1514
f 1514 1546 1547
f 1579 1547 1546
f 1546 1578 1579
f 1611 1579 1578
f 1578 1610 1611
f 1643 1611 1610
f 1610 1642 1643
f 1675 1643 1642
f 1642 1674 1675
f 1707 1675 1674
f 1674 1706 1707
f 1739 1707 1706
f 1706 1738 1739
f 1771 1739 1738
f 1738 1770 1771
f 1803 1771 1770
f 1770 1802 1803
f 1835 1803 1802
f 1802 1834 1835
f 1867 1835 1834
f 1834 1866 1867
f 1899 1867 1866
f 1866 1898 1899
f 1931 1899 1898
f 1898 1930 1931
f 1963 1931 1930
f 1930 1962 1963
f 1995 1963 1962
f 1962 1994 1995
f 1036 1004 1003
f 1003 1035 1036
f 1068 1036 1035
f 1035 1067 1068
f 1100 1068 1067
f 1067 1099 1100
f 1132 1100 1099
f 1099 1131 1132
f 1164 1132 1131
f 1131 1163 1164
f 1196 1164 1163
f 1163 1195 1196
f 1228 1196 1195
f 1195 1227 1228
f 1260 1228 1227
f 1227 1259 1260
f 1292 1260 1259
f 1259 1291 1292
f 1324 1292 1291
f 1291 1323 1324
f 1356 1324 1323
f 1323 1355 1356
f 1388 1356 1355
f 1355 1387 1388
f 1420 1388 1387
f 1387 1419 1420
f 1452 1420 1419
f 1419 1451 1452
f 1484 1452 1451
f 1451 1483 1484
f 1516 1484 1483
f 1483 1515 1516
f 1548 1516 1515
f 1515 1547 1548
f 1580 1548 1547
f 1547 1579 1580
f 1612 1580 1579
f 1579 1611 1612
f 1644 1612 1611
f 1611 1643 1644
f 1676 1644 1643
f 1643 1675 1676
f 1708 1676 1675
f 1675 1707 1708
f 1740 1708 1707
f 1707 1739 1740
f 1772 1740 1739
f 1739 1771 1772
f 1804 1772 1771
f 1771 1803 1804
f 1836 1804 1803
f 1803 1835 1836
f 1868 1836 1835
f 1835 1867 1868
f 1900 1868 1867
f 1867 1899 1900
f 1932 1900 1899
f 1899 1931 1932
f 1964 1932 1931
f 1931 1963 1964
f 1996 1964 1963
f 1963 1995 1996
f 1037 1005 1004
f 1004 1036 1037
f 1069 1037 1036
f 1036 1068 1069
f 1101 1069 1068
f 1068 1100 1101
f 1133 1101 1100
f 1100 1132 1133
f 1165 1133 1132
f 1132 1164 1165
f 1197 1165 1164
f 1164 1196 1197
f 1229 1197 1196
f 1196 1228 1229
f 1261 1229 1228
f 1228 1260 1261
f 1293 1261 1260
f 1260 1292 1293
f 1325 1293 1292
f 1292 1324 1325
f 1357 1325 1324
f 1324 1356 1357
f 1389 1357 1356
f 1356 1388 1389
f 1421 1389 1388
f 1388 1420 1421
f 1453 1421 1420
f 1420 1452 1453
f 1485 1453 1452
f 1452 1484 1485
f 1517 1485 1484
f 1484 1516 1517
f 1549 1517 1516
f 1516 1548 1549
f 1581 1549 1548
f 1548 1580 1581
f 1613 1581 1580
f 1580 1612 1613
f 1645 1613 1612
f 1612 1644 1645
f 1677 1645 1644
f 1644 1676 1677
f 1709 1677 1676
f 1676 1708 1709
f 1741 1709 1708
f 1708 1740 1741
f 1773 1741 1740
f 1740 1772 1773
f 1805 1773 1772
f 1772 1804 1805
f 1837 1805 1804
f 1804 1836 1837
f 1869 1837 1836
f 1836 1868 1869
f 1901 1869 1868
f 1868 1900 1901
f 1933 1901 1900
f 1900 1932 1933
f 1965 1933 1932
f 1932 1964 1965
f 1997 1965 1964
f 1964 1996 1997
f 1038 1006 1005
f 1005 1037 1038
f 1070 1038 1037
f 1037 1069 1070
f 1102 1070 1069
f 1069 1101 1102
f 1134 1102 1101
f 1101 1133 1134
f 1166 1134 1133
f 1133 1165 1166
f 1198 1166 1165
f 1165 1197 1198
f 1230 1198 1197
f 1197 1229 1230
f 1262 1230 1229
f 1229 1261 1262
f 1294 1262 1261
f 1261 1293 1294
f 1326 1294 1293
f 1293 1325 1326
f 1358 1326 1325
f 1325 1357 1358
f 1390 1358 1357
f 1357 1389 1390
f 1422 1390 1389
f 1389 1421 1422
f 1454 1422 1421
f 1421 1453 1454
f 1486 1454 1453
f 1453 1485 1486
f 1518 1486 1485
f 1485 1517 1518
f 1550 1518 1517
f 1517 1549 1550
f 1582 1550 1549
f 1549 1581 1582
f 1614 1582 1581
f 1581 1613 1614
f 1646 1614 1613
f 1613 1645 1646
f 1678 1646 1645
f 1645 1677 1678
f 1710 1678 1677
f 1677 1709 1710
f 1742 1710 1709
f 1709 1741 1742
f 1774 1742 1741
f 1741 1773 1774
f 1806 1774 1773
f 1773 1805 1806
f 1838 1806 1805
f 1805 1837 1838
f 1870 1838 1837
f 1837 1869 1870
f 1902 1870 1869
f 1869 1901 1902
f 1934 1902 1901
f 1901 1933 1934
f 1966 1934 1933
f 1933 1965 1966
f 1998 1966 1965
f 1965 1997 1998
f 1039 1007 1006
f 1006 1038 1039
f 1071 1039 1038
f 1038 1070 1071
f 1103 1071 1070
f 1070 1102 1103
f 1135 1103 1102
f 1102 1134 1135
f 1167 1135 1134
f 1134 1166 1167
f 1199 1167 1166
f 1166 1198 1199
f 1231 1199 1198
f 1198 1230 1231
f 1263 1231 1230
f 1230 1262 1263
f 1295 1263 1262
f 1262 1294 1295
f 1327 1295 1294
f 1294 1326 1327
f 1359 1327 1326
f 1326 1358 1359
f 1391 1359 1358
f 1358 1390 1391
f 1423 1391 1390
f 1390 1422 1423
f 1455 1423 1422
f 1422 1454 1455
f 1487 1455 1454
f 1454 1486 1487
f 1519 1487 1486
f 1486 1518 1519
f 1551 1519 1518
f 1518 1550 1551
f 1583 1551 1550
f 1550 1582 1583
f 1615 1583 1582
f 1582 1614 1615
f 1647 1615 1614
f 1614 1646 1647
f 1679 1647 1646
f 1646 1678 1679
f 1711 1679 1678
f 1678 1710 1711
f 1743 1711 1710
f 1710 1742 1743
f 1775 1743 1742
f 1742 1774 1775
f 1807 1775 1774
f 1774 1806 1807
f 1839 1807 1806
f 1806 1838 1839
f 1871 1839 1838
f 1838 1870 1871
f 1903 1871 1870
f 1870 1902 1903
f 1935 1903 1902
f 1902 1934 1935
f 1967 1935 1934
f 1934 1966 1967
f 1999 1967 1966
f 1966 1998 1999
f 1040 1008 1007
f 1007 1039 1040
f 1072 1040 1039
f 1039 1071 1072
f 1104 1072 1071
f 1071 1103 1104
f 1136 1104 1103
f 1103 1135 1136
f 1168 1136 1135
f 1135 1167 1168
f 1200 1168 1167
f 1167 1199 1200
f 1232 1200 1199
f 1199 1231 1232
f 1264 1232 1231
f 1231 1263 1264
f 1296 1264 1263
f 1263 1295 1296
f 1328 1296 1295
f 1295 1327 1328
f 1360 1328 1327
f 1327 1359 1360
f 1392 1360 1359
f 1359 1391 1392
f 1424 1392 1391
f 1391 1423 1424
f 1456 1424 1423
f 1423 1455 1456
f 1488 1456 1455
f 1455 1487 1488
f 1520 1488 1487
f 1487 1519 1520
f 1552 1520 1519
f 1519 1551 1552
f 1584 1552 1551
f 1551 1583 1584
f 1616 1584 1583
f 1583 1615 1616
f 1648 1616 1615
f 1615 1647 1648
f 1680 1648 1647
f 1647 1679 1680
f 1712 1680 1679
f 1679 1711 1712
f 1744 1712 1711
f 1711 1743 1744
f 1776 1744 1743
f 1743 1775 1776
f 1808 1776 1775
f 1775 1807 1808
f 1840 1808 1807
f 1807 1839 1840
f 1872 1840 1839
f 1839 1871 1872
f 1904 1872 1871
f 1871 1903 1904
f 1936 1904 1903
f 1903 1935 1936
f 1968 1936 1935
f 1935 1967 1968
f 2000 1968 1967
f 1967 1999 2000
f 1041 1009 1008
f 1008 1040 1041
f 1073 1041 1040
f 1040 1072 1073
f 1105 1073 1072
f 1072 1104 1105
f 1137 1105 1104
f 1104 1136 1137
f 1169 1137 1136
f 1136 1168 1169
f 1201 1169 1168
f 1168 1200 1201
f 1233 1201 1200
f 1200 1232 1233
f 1265 1233 1232
f 1232 1264 1265
f 1297 1265 1264
f 1264 1296 1297
f 1329 1297 1296
f 1296 1328 1329
f 1361 1329 1328
f 1328 1360 1361
f 1393 1361 1360
f 1360 1392 1393
f 1425 1393 1392
f 1392 1424 1425
f 1457 1425 1424
f 1424 1456 1457
f 1489 1457 1456
f 1456 1488 1489
f 1521 1489 1488
f 1488 1520 1521
f 1553 1521 1520
f 1520 1552 1553
f 1585 1553 1552
f 1552 1584 1585
f 1617 1585 1584
f 1584 1616 1617
f 1649 1617 1616
f 1616 1648 1649
f 1681 1649 1648
f 1648 1680 1681
f 1713 1681 1680
f 1680 1712 1713
f 1745 1713 1712
f 1712 1744 1745
f 1777 1745 1744
f 1744 1776 1777
f 1809 1777 1776
f 1776 1808 1809
f 1841 1809 1808
f 1808 1840 1841
f 1873 1841 1840
f 1840 1872 1873
f 1905 1873 1872
f 1872 1904 1905
f 1937 1905 1904
f 1904 1936 1937
f 1969 1937 1936
f 1936 1968 1969
f 2001 1969 1968
f 1968 2000 2001
f 1042 1010 1009
f 1009 1041 1042
f 1074 1042 1041
f 1041 1073 1074
f 1106 1074 1073
f 1073 1105 1106
f 1138 1106 1105
f 1105 1137 1138
f 1170 1138 1137
f 1137 1169 1170
f 1202 1170 1169
f 1169 1201 1202
f 1234 1202 1201
f 1201 1233 1234
f 1266 1234 1233
f 1233 1265 1266
f 1298 1266 1265
f 1265 1297 1298
f 1330 1298 1297
f 1297 1329 1330
f 1362 1330 1329
f 1329 1361 1362
f 1394 1362 1361
f 1361 1393 1394
f 1426 1394 1393
f 1393 1425 1426
f 1458 1426 1425
f 1425 1457 1458
f 1490 1458 1457
f 1457 1489 1490
f 1522 1490 1489
f 1489 1521 1522
f 1554 1522 1521
f 1521 1553 1554
f 1586 1554 1553
f 1553 1585 1586
f 1618 1586 1585
f 1585 1617 1618
f 1650 1618 1617
f 1617 1649 1650
f 1682 1650 1649
f 1649 1681 1682
f 1714 1682 1681
f 1681 1713 1714
f 1746 1714 1713
f 1713 1745 1746
f 1778 1746 1745
f 1745 1777 1778
f 1810 1778 1777
f 1777 1809 1810
f 1842 1810 1809
f 1809 1841 1842
f 1874 1842 1841
f 1841 1873 1874
f 1906 1874 1873
f 1873 1905 1906
f 1938 1906 1905
f 1905 1937 1938
f 1970 1938 1937
f 1937 1969 1970
f 2002 1970 1969
f 1969 2001 2002
f 1043 1011 1010
f 1010 1042 1043
f 1075 1043 1042
f 1042 1074 1075
f 1107 1075 1074
f 1074 1106 1107
f 1139 1107 1106
f 1106 1138 1139
f 1171 1139 1138
f 1138 1170 1171
f 1203 1171 1170
f 1170 1202 1203
f 1235 1203 1202
f 1202 1234 1235
f 1267 1235 1234
f 1234 1266 1267
f 1299 1267 1266
f 1266 1298 1299
f 1331 1299 1298
f 1298 1330 1331
f 1363 1331 1330
f 1330 1362 1363
f 1395 1363 1362
f 1362 1394 1395
f 1427 1395 1394
f 1394 1426 1427
f 1459 1427 1426
f 1426 1458 1459
f 1491 1459 1458
f 1458 1490 1491
f 1523 1491 1490
f 1490 1522 1523
f 1555 1523 1522
f 1522 1554 1555
f 1587 1555 1554
f 1554 1586 1587
f 1619 1587 1586
f 1586 1618 1619
f 1651 1619 1618
f 1618 1650 1651
f 1683 1651 1650
f 1650 1682 1683
f 1715 1683 1682
f 1682 1714 1715
f 1747 1715 1714
f 1714 1746 1747
f 1779 1747 1746
f 1746 1778 1779
f 1811 1779 1778
f 1778 1810 1811
f 1843 1811 1810
f 1810 1842 1843
f 1875 1843 1842
f 1842 1874 1875
f 1907 1875 1874
f 1874 1906 1907
f 1939 1907 1906
f 1906 1938 1939
f 1971 1939 1938
f 1938 1970 1971
f 2003 1971 1970
f 1970 2002 2003
f 1044 1012 1011
f 1011 1043 1044
f 1076 1044 1043
f 1043 1075 1076
f 1108 1076 1075
f 1075 1107 1108
f 1140 1108 1107
f 1107 1139 1140
f 1172 1140 1139
f 1139 1171 1172
f 1204 1172 1171
f 1171 1203 1204
f 1236 1204 1203
f 1203 1235 1236
f 1268 1236 1235
f 1235 1267 1268
f 1300 1268 1267
f 1267 1299 1300
f 1332 1300 1299
f 1299 1331 1332
f 1364 1332 1331
f 1331 1363 1364
f 1396 1364 1363
f 1363 1395 1396
f 1428 1396 1395
f 1395 1427 1428
f 1460 1428 1427
f 1427 1459 1460
f 1492 1460 1459
f 1459 1491 1492
f 1524 1492 1491
f 1491 1523 1524
f 1556 1524 1523
f 1523 1555 1556
f 1588 1556 1555
f 1555 1587 1588
f 1620 1588 1587
f 1587 1619 1620
f 1652 1620 1619
f 1619 1651 1652
f 1684 1652 1651
f 1651 1683 1684
f 1716 1684 1683
f 1683 1715 1716
f 1748 1716 1715
f 1715 1747 1748
f 1780 1748 1747
f 1747 1779 1780
f 1812 1780 1779
f 1779 1811 1812
f 1844 1812 1811
f 1811 1843 1844
f 1876 1844 1843
f 1843 1875 1876
f 1908 1876 1875
f 1875 1907 1908
f 1940 1908 1907
f 1907 1939 1940
f 1972 1940 1939
f 1939 1971 1972
f 2004 1972 1971
f 1971 2003 2004
