v 4308.75 49.1641 -2565.04
v 4308.67 47.8921 -2565.87
v 4309.25 49.4719 -2565.59
v 4309.3 47.9724 -2566.1
v 4308.05 47.6231 -2564.96
v 4308.15 49.1843 -2564.55
v 4308.36 47.4131 -2563.75
v 4308.53 48.868 -2563.88
v 4309.09 47.2751 -2563.51
v 4309.08 48.8914 -2563.42
v 4309.85 47.3682 -2563.7
v 4309.64 48.8377 -2563.9
v 4309.87 47.8202 -2565.74
v 4310.31 47.5851 -2564.79
v 4309.84 49.225 -2565.15
v 4310.1 49.1258 -2564.41
v 4309.13 52.2189 -2564.03
v 4308.66 52.2041 -2564.21
v 4309.18 50.8492 -2564.71
v 4308.62 50.8032 -2564.54
v 4308.6 52.1334 -2563.78
v 4308.61 51.9625 -2563.4
v 4308.26 50.7756 -2564.14
v 4308.45 50.5849 -2563.57
v 4309.53 50.5718 -2563.78
v 4309.07 50.5524 -2563.3
v 4309.45 52.0424 -2563.55
v 4309.08 52.0309 -2563.37
v 4309.95 50.7644 -2564.01
v 4309.88 52.2641 -2563.64
v 4309.75 50.8378 -2564.52
v 4309.63 52.2613 -2564.12
v 4309.13 53.5472 -2563.97
v 4309.09 54.1398 -2563.57
v 4308.83 53.4294 -2563.79
v 4309.02 53.83 -2563.32
v 4308.69 53.3743 -2563.45
v 4309.07 53.2646 -2563.18
v 4309.07 53.8617 -2563.15
v 4309.41 53.2926 -2562.99
v 4309.23 53.877 -2563.1
v 4309.07 53.8617 -2563.15
v 4309.39 54.1567 -2563.19
v 4309.34 54.1121 -2563.54
v 4309.47 53.4082 -2563.39
v 4309.35 53.4074 -2563.68
v 4309.25 49.4719 -2565.59
v 4309.3 47.9724 -2566.1
v 4309.18 50.8492 -2564.71
v 4309.13 52.2189 -2564.03
v 4309.13 53.5472 -2563.97
v 4309.1 54.1711 -2563.23
v 4309.1 54.1711 -2563.23
v 4309.09 54.1398 -2563.57
v 4310.67 48.6683 -2561.34
v 4310.54 47.1697 -2561.11
v 4310.09 48.6181 -2561.89
v 4310.37 47.0659 -2561.76
v 4311.41 47.4374 -2560.43
v 4311.03 48.9798 -2560.73
v 4312.59 47.8064 -2560.66
v 4311.8 48.9943 -2561.03
v 4312.94 47.732 -2561.36
v 4312.25 49.1829 -2561.56
v 4312.8 47.647 -2562.13
v 4311.91 48.8476 -2562.13
v 4310.81 47.0497 -2562.29
v 4311.79 47.2625 -2562.66
v 4310.65 48.5595 -2562.43
v 4311.37 48.8047 -2562.64
v 4310.13 51.773 -2562.08
v 4309.94 51.7223 -2561.62
v 4310.2 50.251 -2561.97
v 4310.31 50.3452 -2561.4
v 4310.35 51.8757 -2561.53
v 4310.76 51.9097 -2561.5
v 4310.64 50.5513 -2561.03
v 4311.25 50.6439 -2561.17
v 4311.18 50.4255 -2562.24
v 4311.56 50.6841 -2561.77
v 4310.67 51.8203 -2562.36
v 4310.8 51.9363 -2561.98
v 4310.92 50.4381 -2562.7
v 4310.53 51.9292 -2562.82
v 4310.43 50.2755 -2562.53
v 4310.09 51.7212 -2562.58
v 4309.56 52.9607 -2562.25
v 4309.62 53.6723 -2562.28
v 4309.74 52.9747 -2561.94
v 4309.98 53.5302 -2562.16
v 4310.04 53.1016 -2561.77
v 4310.37 53.0991 -2562.13
v 4310.12 53.6365 -2562.21
v 4310.56 53.1856 -2562.46
v 4310.17 53.6584 -2562.37
v 4310.12 53.6365 -2562.21
v 4309.97 53.8406 -2562.57
v 4309.69 53.6392 -2562.52
v 4310.16 53.0871 -2562.55
v 4309.9 52.9576 -2562.44
v 4310.09 48.6181 -2561.89
v 4310.37 47.0659 -2561.76
v 4310.2 50.251 -2561.97
v 4310.13 51.773 -2562.08
v 4309.56 52.9607 -2562.25
v 4309.9 53.8609 -2562.28
v 4309.9 53.8609 -2562.28
v 4309.62 53.6723 -2562.28
v 4308.25 49.1109 -2560.4
v 4307.85 47.8487 -2559.65
v 4307.52 49.4201 -2560.22
v 4307.2 47.9257 -2559.81
v 4308.87 47.5754 -2560.05
v 4309.01 49.1312 -2560.46
v 4309.3 47.3497 -2561.21
v 4309.08 48.8042 -2561.22
v 4308.83 47.2026 -2561.82
v 4308.89 48.8178 -2561.91
v 4308.1 47.2909 -2562.09
v 4308.15 48.7643 -2561.83
v 4306.93 47.7647 -2560.43
v 4307.1 47.5153 -2561.46
v 4307.28 49.1632 -2560.92
v 4307.48 49.0538 -2561.67
v 4308.5 52.1512 -2561.48
v 4308.79 52.1425 -2561.07
v 4308.08 50.7884 -2560.93
v 4308.63 50.7457 -2560.75
v 4309.08 52.0677 -2561.39
v 4309.29 51.8926 -2561.71
v 4309.16 50.717 -2560.88
v 4309.32 50.5185 -2561.45
v 4308.31 50.4979 -2561.89
v 4308.96 50.4776 -2562.02
v 4308.5 51.9666 -2562.06
v 4308.91 51.9565 -2562
v 4307.83 50.6893 -2561.94
v 4308.1 52.1854 -2562.23
v 4307.71 50.7698 -2561.41
v 4308.04 52.1901 -2561.69
v 4308.53 53.4787 -2561.55
v 4308.79 54.0672 -2561.87
v 4308.88 53.3616 -2561.54
v 4308.99 53.7554 -2562.03
v 4309.19 53.3042 -2561.72
v 4309.02 53.1881 -2562.17
v 4309.04 53.7848 -2562.2
v 4308.85 53.211 -2562.52
v 4308.94 53.7982 -2562.33
v 4309.04 53.7848 -2562.2
v 4308.75 54.0774 -2562.35
v 4308.6 54.037 -2562.03
v 4308.58 53.3304 -2562.22
v 4308.51 53.3337 -2561.92
v 4307.52 49.4201 -2560.22
v 4307.2 47.9257 -2559.81
v 4308.08 50.7884 -2560.93
v 4308.5 52.1512 -2561.48
v 4308.53 53.4787 -2561.55
v 4308.97 54.0948 -2562.15
v 4308.97 54.0948 -2562.15
v 4308.79 54.0672 -2561.87
v 4278 52.9259 -2531
v 4278 52.4676 -2533
v 4278 51.805 -2535
v 4278 51.0968 -2537
v 4278 50.9982 -2539
v 4278 50.6104 -2541
v 4278 50.6185 -2543
v 4278 50.5692 -2545
v 4278 50.4406 -2547
v 4278 50.6569 -2549
v 4278 50.5218 -2551
v 4278 50.2568 -2553
v 4278 50.0581 -2555
v 4278 50.017 -2557
v 4278 49.9071 -2559
v 4278 50.1477 -2561
v 4278 50.2051 -2563
v 4278 50.0688 -2565
v 4278 49.776 -2567
v 4278 49.5579 -2569
v 4278 49.2687 -2571
v 4278 49.2847 -2573
v 4278 49.4465 -2575
v 4278 49.6858 -2577
v 4278 49.7269 -2579
v 4278 49.9124 -2581
v 4278 50.2234 -2583
v 4278 50.5538 -2585
v 4278 50.8042 -2587
v 4278 51.0116 -2589
v 4278 50.9004 -2591
v 4278 50.8296 -2593
v 4280 52.0935 -2531
v 4280 51.6361 -2533
v 4280 51.0461 -2535
v 4280 50.7454 -2537
v 4280 50.4967 -2539
v 4280 50.3319 -2541
v 4280 50.3997 -2543
v 4280 50.2972 -2545
v 4280 50.5474 -2547
v 4280 50.4874 -2549
v 4280 50.5857 -2551
v 4280 50.4731 -2553
v 4280 50.3299 -2555
v 4280 50.1176 -2557
v 4280 50.1538 -2559
v 4280 50.1414 -2561
v 4280 50.2935 -2563
v 4280 50.1939 -2565
v 4280 50.0756 -2567
v 4280 49.8531 -2569
v 4280 49.3952 -2571
v 4280 49.485 -2573
v 4280 49.3634 -2575
v 4280 49.4451 -2577
v 4280 49.693 -2579
v 4280 49.8316 -2581
v 4280 50.2489 -2583
v 4280 50.5423 -2585
v 4280 50.9477 -2587
v 4280 50.9812 -2589
v 4280 51.0122 -2591
v 4280 50.9581 -2593
v 4282 51.4825 -2531
v 4282 50.808 -2533
v 4282 50.741 -2535
v 4282 50.3018 -2537
v 4282 50.0623 -2539
v 4282 50.0287 -2541
v 4282 50.0292 -2543
v 4282 50.2779 -2545
v 4282 50.1409 -2547
v 4282 50.3677 -2549
v 4282 50.4093 -2551
v 4282 50.5785 -2553
v 4282 50.3656 -2555
v 4282 50.1714 -2557
v 4282 50.2152 -2559
v 4282 50.3012 -2561
v 4282 50.2903 -2563
v 4282 50.4043 -2565
v 4282 50.2001 -2567
v 4282 49.8062 -2569
v 4282 49.6298 -2571
v 4282 49.4422 -2573
v 4282 49.3812 -2575
v 4282 49.4095 -2577
v 4282 49.6492 -2579
v 4282 49.8618 -2581
v 4282 50.2362 -2583
v 4282 50.566 -2585
v 4282 50.8827 -2587
v 4282 51.0714 -2589
v 4282 51.1079 -2591
v 4282 51.3137 -2593
v 4284 51.4279 -2531
v 4284 50.901 -2533
v 4284 50.7683 -2535
v 4284 50.1816 -2537
v 4284 49.7735 -2539
v 4284 49.68 -2541
v 4284 49.8672 -2543
v 4284 49.7329 -2545
v 4284 49.8787 -2547
v 4284 49.8765 -2549
v 4284 50.1283 -2551
v 4284 50.1613 -2553
v 4284 50.1208 -2555
v 4284 50.089 -2557
v 4284 50.0511 -2559
v 4284 50.0509 -2561
v 4284 50.1825 -2563
v 4284 50.1604 -2565
v 4284 50.1076 -2567
v 4284 50.1115 -2569
v 4284 49.6907 -2571
v 4284 49.5049 -2573
v 4284 49.2962 -2575
v 4284 49.4596 -2577
v 4284 49.7504 -2579
v 4284 50.1768 -2581
v 4284 50.151 -2583
v 4284 50.389 -2585
v 4284 50.8022 -2587
v 4284 50.9846 -2589
v 4284 51.0798 -2591
v 4284 51.3895 -2593
v 4286 51.1683 -2531
v 4286 50.918 -2533
v 4286 50.382 -2535
v 4286 49.9595 -2537
v 4286 49.7102 -2539
v 4286 49.5972 -2541
v 4286 49.3905 -2543
v 4286 49.328 -2545
v 4286 49.2232 -2547
v 4286 49.37 -2549
v 4286 49.5451 -2551
v 4286 49.7702 -2553
v 4286 49.7766 -2555
v 4286 49.7839 -2557
v 4286 49.9793 -2559
v 4286 50.0597 -2561
v 4286 50.0384 -2563
v 4286 49.9353 -2565
v 4286 50.004 -2567
v 4286 49.9038 -2569
v 4286 49.7358 -2571
v 4286 49.7151 -2573
v 4286 49.3971 -2575
v 4286 49.6955 -2577
v 4286 50.0146 -2579
v 4286 50.3641 -2581
v 4286 50.6226 -2583
v 4286 50.7381 -2585
v 4286 50.5382 -2587
v 4286 50.942 -2589
v 4286 50.9311 -2591
v 4286 51.1849 -2593
v 4288 51.2614 -2531
v 4288 50.6766 -2533
v 4288 50.1134 -2535
v 4288 49.5532 -2537
v 4288 49.6987 -2539
v 4288 49.4002 -2541
v 4288 49.1967 -2543
v 4288 49.0966 -2545
v 4288 49.2106 -2547
v 4288 49.2674 -2549
v 4288 49.2749 -2551
v 4288 49.4311 -2553
v 4288 49.6473 -2555
v 4288 49.7366 -2557
v 4288 49.6322 -2559
v 4288 49.6612 -2561
v 4288 49.5095 -2563
v 4288 49.6418 -2565
v 4288 49.8525 -2567
v 4288 49.8627 -2569
v 4288 49.6791 -2571
v 4288 49.651 -2573
v 4288 49.3716 -2575
v 4288 50.0035 -2577
v 4288 50.2435 -2579
v 4288 50.5765 -2581
v 4288 50.8022 -2583
v 4288 50.9794 -2585
v 4288 50.6723 -2587
v 4288 50.8944 -2589
v 4288 50.9861 -2591
v 4288 50.8861 -2593
v 4290 50.9287 -2531
v 4290 50.4435 -2533
v 4290 49.7793 -2535
v 4290 49.6708 -2537
v 4290 49.6042 -2539
v 4290 49.3175 -2541
v 4290 49.0358 -2543
v 4290 49.1409 -2545
v 4290 49.1401 -2547
v 4290 49.2459 -2549
v 4290 49.2975 -2551
v 4290 49.4479 -2553
v 4290 49.6756 -2555
v 4290 49.8926 -2557
v 4290 49.6644 -2559
v 4290 49.5643 -2561
v 4290 49.4287 -2563
v 4290 49.2398 -2565
v 4290 49.8188 -2567
v 4290 49.5889 -2569
v 4290 49.6171 -2571
v 4290 49.4196 -2573
v 4290 49.6458 -2575
v 4290 50.0097 -2577
v 4290 50.2998 -2579
v 4290 50.7427 -2581
v 4290 50.8406 -2583
v 4290 51.1159 -2585
v 4290 50.7787 -2587
v 4290 51.0109 -2589
v 4290 51.2355 -2591
v 4290 51.1961 -2593
v 4292 50.5916 -2531
v 4292 50.07 -2533
v 4292 49.8055 -2535
v 4292 49.6222 -2537
v 4292 49.4354 -2539
v 4292 49.2095 -2541
v 4292 48.9472 -2543
v 4292 48.9704 -2545
v 4292 49.1908 -2547
v 4292 49.2332 -2549
v 4292 49.1467 -2551
v 4292 49.2105 -2553
v 4292 49.4138 -2555
v 4292 49.4593 -2557
v 4292 49.4602 -2559
v 4292 49.4582 -2561
v 4292 49.3109 -2563
v 4292 49.3435 -2565
v 4292 49.2147 -2567
v 4292 49.4246 -2569
v 4292 49.3987 -2571
v 4292 49.5722 -2573
v 4292 49.603 -2575
v 4292 49.861 -2577
v 4292 50.1709 -2579
v 4292 50.7657 -2581
v 4292 50.7103 -2583
v 4292 51.0335 -2585
v 4292 50.8327 -2587
v 4292 50.9702 -2589
v 4292 51.0014 -2591
v 4292 51.5528 -2593
v 4294 50.5669 -2531
v 4294 50.1926 -2533
v 4294 49.7924 -2535
v 4294 49.6127 -2537
v 4294 49.3504 -2539
v 4294 49.041 -2541
v 4294 48.9135 -2543
v 4294 48.9683 -2545
v 4294 49.0329 -2547
v 4294 49.0489 -2549
v 4294 49.102 -2551
v 4294 49.1736 -2553
v 4294 49.208 -2555
v 4294 49.2248 -2557
v 4294 49.2964 -2559
v 4294 49.0739 -2561
v 4294 49.1011 -2563
v 4294 49.0665 -2565
v 4294 49.3039 -2567
v 4294 49.3579 -2569
v 4294 49.6311 -2571
v 4294 49.7795 -2573
v 4294 49.8471 -2575
v 4294 50.0246 -2577
v 4294 50.0318 -2579
v 4294 50.5511 -2581
v 4294 50.4377 -2583
v 4294 50.9018 -2585
v 4294 51.087 -2587
v 4294 50.9964 -2589
v 4294 51.1693 -2591
v 4294 51.3485 -2593
v 4296 50.5725 -2531
v 4296 50.1221 -2533
v 4296 49.7404 -2535
v 4296 49.4141 -2537
v 4296 49.1587 -2539
v 4296 48.939 -2541
v 4296 48.95 -2543
v 4296 48.9343 -2545
v 4296 48.9153 -2547
v 4296 48.9242 -2549
v 4296 49.0766 -2551
v 4296 49.1693 -2553
v 4296 48.9142 -2555
v 4296 48.8562 -2557
v 4296 48.8234 -2559
v 4296 48.8689 -2561
v 4296 48.8162 -2563
v 4296 49.0137 -2565
v 4296 49.0603 -2567
v 4296 49.5385 -2569
v 4296 49.4126 -2571
v 4296 49.5887 -2573
v 4296 49.6574 -2575
v 4296 49.9496 -2577
v 4296 50.1172 -2579
v 4296 50.8597 -2581
v 4296 50.9091 -2583
v 4296 51.1529 -2585
v 4296 50.9889 -2587
v 4296 51.1244 -2589
v 4296 51.3377 -2591
v 4296 51.6612 -2593
v 4298 50.2245 -2531
v 4298 50.0732 -2533
v 4298 49.667 -2535
v 4298 49.3408 -2537
v 4298 49.0686 -2539
v 4298 48.9182 -2541
v 4298 48.8786 -2543
v 4298 48.8381 -2545
v 4298 48.8277 -2547
v 4298 48.8051 -2549
v 4298 48.9971 -2551
v 4298 48.9951 -2553
v 4298 48.7246 -2555
v 4298 48.764 -2557
v 4298 48.7203 -2559
v 4298 48.6291 -2561
v 4298 48.6695 -2563
v 4298 48.8526 -2565
v 4298 49.0715 -2567
v 4298 49.5426 -2569
v 4298 49.5353 -2571
v 4298 49.5572 -2573
v 4298 49.5861 -2575
v 4298 50.128 -2577
v 4298 50.661 -2579
v 4298 50.9716 -2581
v 4298 51.398 -2583
v 4298 51.3328 -2585
v 4298 51.1633 -2587
v 4298 51.255 -2589
v 4298 51.4758 -2591
v 4298 51.8773 -2593
v 4300 49.8099 -2531
v 4300 49.9236 -2533
v 4300 49.596 -2535
v 4300 49.2574 -2537
v 4300 49.002 -2539
v 4300 48.832 -2541
v 4300 48.7358 -2543
v 4300 48.6899 -2545
v 4300 48.6941 -2547
v 4300 48.6961 -2549
v 4300 48.7599 -2551
v 4300 48.8346 -2553
v 4300 48.6522 -2555
v 4300 48.6071 -2557
v 4300 48.5749 -2559
v 4300 48.6474 -2561
v 4300 48.6492 -2563
v 4300 48.9179 -2565
v 4300 49.1656 -2567
v 4300 49.1967 -2569
v 4300 49.1562 -2571
v 4300 49.3695 -2573
v 4300 49.3961 -2575
v 4300 50.0313 -2577
v 4300 50.6625 -2579
v 4300 51.4195 -2581
v 4300 51.5568 -2583
v 4300 51.5474 -2585
v 4300 51.158 -2587
v 4300 51.4992 -2589
v 4300 51.6262 -2591
v 4300 51.9683 -2593
v 4302 49.3996 -2531
v 4302 49.5252 -2533
v 4302 49.5781 -2535
v 4302 49.2378 -2537
v 4302 48.9666 -2539
v 4302 48.7613 -2541
v 4302 48.6238 -2543
v 4302 48.55 -2545
v 4302 48.5171 -2547
v 4302 48.5289 -2549
v 4302 48.5566 -2551
v 4302 48.5959 -2553
v 4302 48.6646 -2555
v 4302 48.6417 -2557
v 4302 48.7395 -2559
v 4302 48.7728 -2561
v 4302 48.8557 -2563
v 4302 49.0252 -2565
v 4302 48.9564 -2567
v 4302 48.8369 -2569
v 4302 49.0666 -2571
v 4302 49.2223 -2573
v 4302 49.643 -2575
v 4302 50.2165 -2577
v 4302 50.8386 -2579
v 4302 51.1636 -2581
v 4302 51.4878 -2583
v 4302 51.4483 -2585
v 4302 51.5566 -2587
v 4302 52.0392 -2589
v 4302 52.1792 -2591
v 4302 52.5122 -2593
v 4304 48.9169 -2531
v 4304 49.0485 -2533
v 4304 49.1553 -2535
v 4304 49.2148 -2537
v 4304 49.0203 -2539
v 4304 48.7952 -2541
v 4304 48.6219 -2543
v 4304 48.496 -2545
v 4304 48.4179 -2547
v 4304 48.3817 -2549
v 4304 48.3795 -2551
v 4304 48.4058 -2553
v 4304 48.4593 -2555
v 4304 48.5289 -2557
v 4304 48.6038 -2559
v 4304 48.6878 -2561
v 4304 48.6818 -2563
v 4304 48.7299 -2565
v 4304 48.6738 -2567
v 4304 48.7088 -2569
v 4304 48.7631 -2571
v 4304 49.2441 -2573
v 4304 49.3975 -2575
v 4304 49.9561 -2577
v 4304 50.5153 -2579
v 4304 51.0795 -2581
v 4304 51.2011 -2583
v 4304 51.5189 -2585
v 4304 52.1635 -2587
v 4304 52.7357 -2589
v 4304 52.9948 -2591
v 4304 53.3518 -2593
v 4306 48.3975 -2531
v 4306 48.5301 -2533
v 4306 48.65 -2535
v 4306 48.7403 -2537
v 4306 48.8027 -2539
v 4306 48.8401 -2541
v 4306 48.6678 -2543
v 4306 48.5053 -2545
v 4306 48.3817 -2547
v 4306 48.2933 -2549
v 4306 48.242 -2551
v 4306 48.2263 -2553
v 4306 48.2305 -2555
v 4306 48.2591 -2557
v 4306 48.2905 -2559
v 4306 48.341 -2561
v 4306 48.4422 -2563
v 4306 48.4345 -2565
v 4306 48.4565 -2567
v 4306 48.5979 -2569
v 4306 48.6793 -2571
v 4306 49.1898 -2573
v 4306 49.3508 -2575
v 4306 49.8141 -2577
v 4306 50.2944 -2579
v 4306 50.9094 -2581
v 4306 51.3545 -2583
v 4306 52.21 -2585
v 4306 52.8077 -2587
v 4306 53.2235 -2589
v 4306 53.5455 -2591
v 4306 54.1136 -2593
v 4308 47.8732 -2531
v 4308 48.003 -2533
v 4308 48.135 -2535
v 4308 48.2572 -2537
v 4308 48.3679 -2539
v 4308 48.4666 -2541
v 4308 48.5534 -2543
v 4308 48.5295 -2545
v 4308 48.3636 -2547
v 4308 48.232 -2549
v 4308 48.133 -2551
v 4308 48.0644 -2553
v 4308 48.0303 -2555
v 4308 48.0237 -2557
v 4308 48.0448 -2559
v 4308 48.1 -2561
v 4308 48.1261 -2563
v 4308 48.2114 -2565
v 4308 48.2059 -2567
v 4308 48.4776 -2569
v 4308 48.592 -2571
v 4308 49.1515 -2573
v 4308 49.2971 -2575
v 4308 49.683 -2577
v 4308 50.213 -2579
v 4308 50.7939 -2581
v 4308 51.4224 -2583
v 4308 52.3125 -2585
v 4308 52.9275 -2587
v 4308 53.541 -2589
v 4308 53.7088 -2591
v 4308 54.1571 -2593
v 4310 47.3723 -2531
v 4310 47.4966 -2533
v 4310 47.6397 -2535
v 4310 47.7938 -2537
v 4310 47.9535 -2539
v 4310 48.1146 -2541
v 4310 48.2736 -2543
v 4310 48.4281 -2545
v 4310 48.3496 -2547
v 4310 48.177 -2549
v 4310 48.0391 -2551
v 4310 47.9353 -2553
v 4310 47.8639 -2555
v 4310 47.8304 -2557
v 4310 47.8473 -2559
v 4310 47.8857 -2561
v 4310 47.932 -2563
v 4310 48.047 -2565
v 4310 48.1544 -2567
v 4310 48.2873 -2569
v 4310 48.6927 -2571
v 4310 49.2238 -2573
v 4310 49.2871 -2575
v 4310 49.9063 -2577
v 4310 50.5256 -2579
v 4310 51.1262 -2581
v 4310 51.5974 -2583
v 4310 52.3011 -2585
v 4310 53.1126 -2587
v 4310 53.7082 -2589
v 4310 53.7465 -2591
v 4310 54.0735 -2593
v 4312 46.9193 -2531
v 4312 47.0362 -2533
v 4312 47.1895 -2535
v 4312 47.3747 -2537
v 4312 47.5823 -2539
v 4312 47.8042 -2541
v 4312 48.0334 -2543
v 4312 48.264 -2545
v 4312 48.3325 -2547
v 4312 48.1246 -2549
v 4312 47.9541 -2551
v 4312 47.8229 -2553
v 4312 47.7313 -2555
v 4312 47.6782 -2557
v 4312 47.6698 -2559
v 4312 47.7155 -2561
v 4312 47.7797 -2563
v 4312 47.9487 -2565
v 4312 48.0464 -2567
v 4312 48.2178 -2569
v 4312 48.6261 -2571
v 4312 49.2128 -2573
v 4312 49.3651 -2575
v 4312 50.0679 -2577
v 4312 50.6327 -2579
v 4312 51.1553 -2581
v 4312 51.5147 -2583
v 4312 52.3438 -2585
v 4312 52.5782 -2587
v 4312 53.6068 -2589
v 4312 53.6929 -2591
v 4312 53.5746 -2593
v 4314 46.5344 -2531
v 4314 46.6432 -2533
v 4314 46.8061 -2535
v 4314 47.0206 -2537
v 4314 47.2735 -2539
v 4314 47.5526 -2541
v 4314 47.8473 -2543
v 4314 48.1482 -2545
v 4314 48.3069 -2547
v 4314 48.0724 -2549
v 4314 47.8784 -2551
v 4314 47.7292 -2553
v 4314 47.6271 -2555
v 4314 47.5726 -2557
v 4314 47.5645 -2559
v 4314 47.6076 -2561
v 4314 47.723 -2563
v 4314 47.8891 -2565
v 4314 48.0797 -2567
v 4314 48.2921 -2569
v 4314 48.7047 -2571
v 4314 49.1738 -2573
v 4314 49.6171 -2575
v 4314 50.1303 -2577
v 4314 50.9375 -2579
v 4314 51.2768 -2581
v 4314 51.8264 -2583
v 4314 52.5645 -2585
v 4314 53.2538 -2587
v 4314 53.6277 -2589
v 4314 54.1957 -2591
v 4314 54.1845 -2593
v 4316 46.2547 -2531
v 4316 46.3352 -2533
v 4316 46.5064 -2535
v 4316 46.7481 -2537
v 4316 47.0423 -2539
v 4316 47.3732 -2541
v 4316 47.7265 -2543
v 4316 48.0897 -2545
v 4316 48.2688 -2547
v 4316 48.0186 -2549
v 4316 47.8125 -2551
v 4316 47.6568 -2553
v 4316 47.5555 -2555
v 4316 47.5107 -2557
v 4316 47.5221 -2559
v 4316 47.5875 -2561
v 4316 47.7202 -2563
v 4316 47.9213 -2565
v 4316 48.1674 -2567
v 4316 48.4749 -2569
v 4316 48.9109 -2571
v 4316 49.4152 -2573
v 4316 49.7659 -2575
v 4316 50.3669 -2577
v 4316 50.936 -2579
v 4316 51.2255 -2581
v 4316 52.0352 -2583
v 4316 52.9033 -2585
v 4316 53.7566 -2587
v 4316 54.2078 -2589
v 4316 54.1236 -2591
v 4316 54.3165 -2593
v 4318 46.1259 -2531
v 4318 46.1572 -2533
v 4318 46.3161 -2535
v 4318 46.5695 -2537
v 4318 46.9001 -2539
v 4318 47.2759 -2541
v 4318 47.6793 -2543
v 4318 48.0949 -2545
v 4318 48.2159 -2547
v 4318 47.9625 -2549
v 4318 47.7573 -2551
v 4318 47.6079 -2553
v 4318 47.52 -2555
v 4318 47.4965 -2557
v 4318 47.5381 -2559
v 4318 47.643 -2561
v 4318 47.8082 -2563
v 4318 48.055 -2565
v 4318 48.3531 -2567
v 4318 48.7571 -2569
v 4318 49.2479 -2571
v 4318 49.7619 -2573
v 4318 50.0358 -2575
v 4318 50.6483 -2577
v 4318 51.3228 -2579
v 4318 51.5204 -2581
v 4318 52.3405 -2583
v 4318 53.2152 -2585
v 4318 54.2648 -2587
v 4318 54.1753 -2589
v 4318 54.2637 -2591
v 4318 54.3466 -2593
v 4320 46.0998 -2531
v 4320 46.1151 -2533
v 4320 46.3063 -2535
v 4320 46.5335 -2537
v 4320 46.864 -2539
v 4320 47.2669 -2541
v 4320 47.7109 -2543
v 4320 48.1676 -2545
v 4320 48.1479 -2547
v 4320 47.9048 -2549
v 4320 47.714 -2551
v 4320 47.5844 -2553
v 4320 47.5226 -2555
v 4320 47.5324 -2557
v 4320 47.6147 -2559
v 4320 47.7677 -2561
v 4320 47.9865 -2563
v 4320 48.2707 -2565
v 4320 48.6229 -2567
v 4320 49.058 -2569
v 4320 49.55 -2571
v 4320 50.0497 -2573
v 4320 50.4019 -2575
v 4320 51.0797 -2577
v 4320 51.6508 -2579
v 4320 52.1834 -2581
v 4320 52.399 -2583
v 4320 53.4233 -2585
v 4320 54.1015 -2587
v 4320 53.9378 -2589
v 4320 53.9318 -2591
v 4320 54.152 -2593
v 4322 46.2574 -2531
v 4322 46.2603 -2533
v 4322 46.4187 -2535
v 4322 46.6595 -2537
v 4322 46.9771 -2539
v 4322 47.371 -2541
v 4322 47.8228 -2543
v 4322 48.3089 -2545
v 4322 48.0662 -2547
v 4322 47.8471 -2549
v 4322 47.6843 -2551
v 4322 47.5878 -2553
v 4322 47.5646 -2555
v 4322 47.6189 -2557
v 4322 47.7514 -2559
v 4322 47.96 -2561
v 4322 48.2392 -2563
v 4322 48.58 -2565
v 4322 48.9819 -2567
v 4322 49.4394 -2569
v 4322 49.9349 -2571
v 4322 50.3956 -2573
v 4322 50.7679 -2575
v 4322 51.3589 -2577
v 4322 52.1087 -2579
v 4322 52.8986 -2581
v 4322 52.8286 -2583
v 4322 53.078 -2585
v 4322 53.2695 -2587
v 4322 53.5443 -2589
v 4322 53.6527 -2591
v 4322 53.2167 -2593
v 4324 46.622 -2531
v 4324 46.422 -2533
v 4324 46.5693 -2535
v 4324 46.8547 -2537
v 4324 47.2048 -2539
v 4324 47.5932 -2541
v 4324 48.0346 -2543
v 4324 48.2051 -2545
v 4324 47.9743 -2547
v 4324 47.792 -2549
v 4324 47.6701 -2551
v 4324 47.619 -2553
v 4324 47.6458 -2555
v 4324 47.7545 -2557
v 4324 47.9454 -2559
v 4324 48.2155 -2561
v 4324 48.5582 -2563
v 4324 48.9632 -2565
v 4324 49.4182 -2567
v 4324 49.9099 -2569
v 4324 50.3927 -2571
v 4324 50.8538 -2573
v 4324 51.2232 -2575
v 4324 51.885 -2577
v 4324 52.5905 -2579
v 4324 53.4672 -2581
v 4324 53.4941 -2583
v 4324 53.0155 -2585
v 4324 52.4999 -2587
v 4324 52.7852 -2589
v 4324 52.8245 -2591
v 4324 52.574 -2593
v 4326 47.2929 -2531
v 4326 46.928 -2533
v 4326 47.0103 -2535
v 4326 47.1736 -2537
v 4326 47.5996 -2539
v 4326 47.9299 -2541
v 4326 48.3344 -2543
v 4326 48.0863 -2545
v 4326 47.8806 -2547
v 4326 47.7437 -2549
v 4326 47.6739 -2551
v 4326 47.6786 -2553
v 4326 47.7648 -2555
v 4326 47.9357 -2557
v 4326 48.1909 -2559
v 4326 48.526 -2561
v 4326 48.9333 -2563
v 4326 49.4006 -2565
v 4326 49.9109 -2567
v 4326 50.4171 -2569
v 4326 50.9291 -2571
v 4326 51.4045 -2573
v 4326 51.7509 -2575
v 4326 52.3377 -2577
v 4326 53.0227 -2579
v 4326 53.6799 -2581
v 4326 53.5018 -2583
v 4326 53.362 -2585
v 4326 52.6731 -2587
v 4326 52.1566 -2589
v 4326 52.2206 -2591
v 4326 52.2554 -2593
v 4328 47.8948 -2531
v 4328 47.387 -2533
v 4328 47.5282 -2535
v 4328 47.6271 -2537
v 4328 48.0322 -2539
v 4328 48.3317 -2541
v 4328 48.2912 -2543
v 4328 48.0122 -2545
v 4328 47.8237 -2547
v 4328 47.7128 -2549
v 4328 47.6985 -2551
v 4328 47.7669 -2553
v 4328 47.919 -2555
v 4328 48.157 -2557
v 4328 48.4793 -2559
v 4328 48.8803 -2561
v 4328 49.3503 -2563
v 4328 49.8754 -2565
v 4328 50.4363 -2567
v 4328 50.9637 -2569
v 4328 51.4707 -2571
v 4328 51.7832 -2573
v 4328 52.0039 -2575
v 4328 52.5365 -2577
v 4328 53.1874 -2579
v 4328 53.6834 -2581
v 4328 53.3444 -2583
v 4328 53.0944 -2585
v 4328 52.5591 -2587
v 4328 52.2233 -2589
v 4328 52.1511 -2591
v 4328 52.3704 -2593
v 4330 48.1949 -2531
v 4330 47.9971 -2533
v 4330 47.875 -2535
v 4330 48.0912 -2537
v 4330 48.6716 -2539
v 4330 48.5132 -2541
v 4330 48.2689 -2543
v 4330 48.0435 -2545
v 4330 47.8559 -2547
v 4330 47.7511 -2549
v 4330 47.7522 -2551
v 4330 47.8834 -2553
v 4330 48.1042 -2555
v 4330 48.4105 -2557
v 4330 48.7993 -2559
v 4330 49.2633 -2561
v 4330 49.7911 -2563
v 4330 50.3668 -2565
v 4330 50.9686 -2567
v 4330 51.472 -2569
v 4330 51.5628 -2571
v 4330 51.785 -2573
v 4330 52.005 -2575
v 4330 52.4029 -2577
v 4330 52.6082 -2579
v 4330 52.9917 -2581
v 4330 52.9186 -2583
v 4330 52.6945 -2585
v 4330 52.3369 -2587
v 4330 52.1575 -2589
v 4330 52.3739 -2591
v 4330 52.133 -2593
v 4332 48.9136 -2531
v 4332 48.7142 -2533
v 4332 48.9259 -2535
v 4332 48.8841 -2537
v 4332 48.6532 -2539
v 4332 48.4371 -2541
v 4332 48.3868 -2543
v 4332 48.1766 -2545
v 4332 47.958 -2547
v 4332 47.8794 -2549
v 4332 47.8782 -2551
v 4332 48.0299 -2553
v 4332 48.315 -2555
v 4332 48.6861 -2557
v 4332 49.1362 -2559
v 4332 49.6563 -2561
v 4332 50.2332 -2563
v 4332 50.8489 -2565
v 4332 51.4798 -2567
v 4332 51.5504 -2569
v 4332 51.6187 -2571
v 4332 51.8116 -2573
v 4332 51.9276 -2575
v 4332 51.9128 -2577
v 4332 51.9826 -2579
v 4332 52.4058 -2581
v 4332 52.3807 -2583
v 4332 52.2495 -2585
v 4332 52.2965 -2587
v 4332 52.4321 -2589
v 4332 52.8252 -2591
v 4332 52.8128 -2593
v 4334 49.4371 -2531
v 4334 49.2533 -2533
v 4334 49.1735 -2535
v 4334 48.7426 -2537
v 4334 48.8022 -2539
v 4334 48.4444 -2541
v 4334 48.3958 -2543
v 4334 48.1939 -2545
v 4334 48.1752 -2547
v 4334 48.0646 -2549
v 4334 48.0578 -2551
v 4334 48.2241 -2553
v 4334 48.5501 -2555
v 4334 48.9778 -2557
v 4334 49.4794 -2559
v 4334 50.0443 -2561
v 4334 50.6579 -2563
v 4334 51.3004 -2565
v 4334 51.7315 -2567
v 4334 51.705 -2569
v 4334 51.7647 -2571
v 4334 51.7323 -2573
v 4334 51.4513 -2575
v 4334 51.3699 -2577
v 4334 51.4349 -2579
v 4334 51.7197 -2581
v 4334 51.681 -2583
v 4334 51.6618 -2585
v 4334 51.7177 -2587
v 4334 52.4172 -2589
v 4334 52.7227 -2591
v 4334 53.0054 -2593
v 4336 49.1542 -2531
v 4336 49.0006 -2533
v 4336 48.9072 -2535
v 4336 48.6781 -2537
v 4336 48.7592 -2539
v 4336 48.1862 -2541
v 4336 48.4579 -2543
v 4336 48.2822 -2545
v 4336 48.34 -2547
v 4336 48.3091 -2549
v 4336 48.2847 -2551
v 4336 48.5516 -2553
v 4336 48.892 -2555
v 4336 49.3496 -2557
v 4336 49.8967 -2559
v 4336 50.4997 -2561
v 4336 51.1428 -2563
v 4336 51.8052 -2565
v 4336 51.8671 -2567
v 4336 51.8351 -2569
v 4336 51.6236 -2571
v 4336 51.2192 -2573
v 4336 50.9213 -2575
v 4336 50.7798 -2577
v 4336 50.8346 -2579
v 4336 50.9521 -2581
v 4336 51.0845 -2583
v 4336 51.0069 -2585
v 4336 51.344 -2587
v 4336 51.9892 -2589
v 4336 52.6569 -2591
v 4336 53.0204 -2593
v 4338 48.3604 -2531
v 4338 48.5069 -2533
v 4338 48.424 -2535
v 4338 48.4034 -2537
v 4338 48.8848 -2539
v 4338 48.5904 -2541
v 4338 48.4235 -2543
v 4338 48.2907 -2545
v 4338 48.393 -2547
v 4338 48.3736 -2549
v 4338 48.6765 -2551
v 4338 48.9919 -2553
v 4338 49.3564 -2555
v 4338 49.8154 -2557
v 4338 50.3919 -2559
v 4338 51.0264 -2561
v 4338 51.6929 -2563
v 4338 52.0652 -2565
v 4338 51.9688 -2567
v 4338 51.5734 -2569
v 4338 51.075 -2571
v 4338 50.6527 -2573
v 4338 50.3129 -2575
v 4338 50.155 -2577
v 4338 50.126 -2579
v 4338 50.311 -2581
v 4338 50.4781 -2583
v 4338 50.6457 -2585
v 4338 50.5403 -2587
v 4338 50.8393 -2589
v 4338 51.3969 -2591
v 4338 51.9876 -2593
v 4340 48.9041 -2531
v 4340 48.9978 -2533
v 4340 48.8089 -2535
v 4340 49.1061 -2537
v 4340 49.3849 -2539
v 4340 49.1914 -2541
v 4340 49.0528 -2543
v 4340 48.9346 -2545
v 4340 48.8645 -2547
v 4340 49.1524 -2549
v 4340 49.3286 -2551
v 4340 49.5971 -2553
v 4340 49.9178 -2555
v 4340 50.366 -2557
v 4340 50.9443 -2559
v 4340 51.6005 -2561
v 4340 52.2732 -2563
v 4340 52.1614 -2565
v 4340 51.5912 -2567
v 4340 51.0082 -2569
v 4340 50.4958 -2571
v 4340 50.0549 -2573
v 4340 49.6863 -2575
v 4340 49.4705 -2577
v 4340 49.4278 -2579
v 4340 49.6638 -2581
v 4340 49.8086 -2583
v 4340 49.8612 -2585
v 4340 49.9532 -2587
v 4340 50.4458 -2589
v 4340 50.9687 -2591
v 4340 51.1664 -2593
f 6 2 5
f 7 6 5
f 6 1 2
f 6 8 23
f 23 1 6
f 6 7 8
f 23 22 21
f 21 18 23
f 23 18 20
f 23 24 22
f 23 8 24
f 20 1 23
f 7 10 8
f 10 7 9
f 10 24 8
f 26 24 10
f 26 22 24
f 4 2 3
f 3 2 1
f 20 18 19
f 19 3 20
f 20 3 1
f 37 21 22
f 37 35 21
f 21 35 18
f 19 18 17
f 33 18 35
f 18 33 17
f 26 28 22
f 40 38 22
f 37 22 38
f 40 22 28
f 38 36 37
f 35 37 36
f 35 34 33
f 35 36 34
f 52 34 36
f 52 36 39
f 36 38 39
f 10 12 26
f 26 12 25
f 27 26 25
f 26 27 28
f 49 31 47
f 50 31 49
f 43 54 53
f 15 48 47
f 47 31 15
f 11 10 9
f 11 12 10
f 40 28 27
f 50 32 31
f 51 32 50
f 46 32 51
f 51 44 46
f 48 15 13
f 41 38 40
f 38 41 42
f 42 41 53
f 53 41 43
f 43 44 54
f 54 44 51
f 40 43 41
f 46 44 45
f 45 44 43
f 45 30 46
f 46 30 32
f 43 40 45
f 30 40 27
f 30 27 25
f 45 40 30
f 30 25 29
f 25 12 29
f 31 32 30
f 29 12 16
f 16 12 11
f 31 30 29
f 29 15 31
f 15 14 13
f 15 29 16
f 14 15 16
f 16 11 14
f 60 56 59
f 61 60 59
f 60 55 56
f 60 62 77
f 77 55 60
f 60 61 62
f 77 76 75
f 75 72 77
f 77 72 74
f 77 78 76
f 77 62 78
f 74 55 77
f 61 64 62
f 64 61 63
f 64 78 62
f 80 78 64
f 80 76 78
f 58 56 57
f 57 56 55
f 74 72 73
f 73 57 74
f 74 57 55
f 91 75 76
f 91 89 75
f 75 89 72
f 73 72 71
f 87 72 89
f 72 87 71
f 80 82 76
f 94 92 76
f 91 76 92
f 94 76 82
f 92 90 91
f 89 91 90
f 89 88 87
f 89 90 88
f 106 88 90
f 106 90 93
f 90 92 93
f 64 66 80
f 80 66 79
f 81 80 79
f 80 81 82
f 103 85 101
f 104 85 103
f 97 108 107
f 69 102 101
f 101 85 69
f 65 64 63
f 65 66 64
f 94 82 81
f 104 86 85
f 105 86 104
f 100 86 105
f 105 98 100
f 102 69 67
f 95 92 94
f 92 95 96
f 96 95 107
f 107 95 97
f 97 98 108
f 108 98 105
f 94 97 95
f 100 98 99
f 99 98 97
f 99 84 100
f 100 84 86
f 97 94 99
f 84 94 81
f 84 81 79
f 99 94 84
f 84 79 83
f 79 66 83
f 85 86 84
f 83 66 70
f 70 66 65
f 85 84 83
f 83 69 85
f 69 68 67
f 69 83 70
f 68 69 70
f 70 65 68
f 114 110 113
f 115 114 113
f 114 109 110
f 114 116 131
f 131 109 114
f 114 115 116
f 131 130 129
f 129 126 131
f 131 126 128
f 131 132 130
f 131 116 132
f 128 109 131
f 115 118 116
f 118 115 117
f 118 132 116
f 134 132 118
f 134 130 132
f 112 110 111
f 111 110 109
f 128 126 127
f 127 111 128
f 128 111 109
f 145 129 130
f 145 143 129
f 129 143 126
f 127 126 125
f 141 126 143
f 126 141 125
f 134 136 130
f 148 146 130
f 145 130 146
f 148 130 136
f 146 144 145
f 143 145 144
f 143 142 141
f 143 144 142
f 160 142 144
f 160 144 147
f 144 146 147
f 118 120 134
f 134 120 133
f 135 134 133
f 134 135 136
f 157 139 155
f 158 139 157
f 151 162 161
f 123 156 155
f 155 139 123
f 119 118 117
f 119 120 118
f 148 136 135
f 158 140 139
f 159 140 158
f 154 140 159
f 159 152 154
f 156 123 121
f 149 146 148
f 146 149 150
f 150 149 161
f 161 149 151
f 151 152 162
f 162 152 159
f 148 151 149
f 154 152 153
f 153 152 151
f 153 138 154
f 154 138 140
f 151 148 153
f 138 148 135
f 138 135 133
f 153 148 138
f 138 133 137
f 133 120 137
f 139 140 138
f 137 120 124
f 124 120 119
f 139 138 137
f 137 123 139
f 123 122 121
f 123 137 124
f 122 123 124
f 124 119 122
f 196 164 163
f 163 195 196
f 228 196 195
f 195 227 228
f 260 228 227
f 227 259 260
f 292 260 259
f 259 291 292
f 324 292 291
f 291 323 324
f 356 324 323
f 323 355 356
f 388 356 355
f 355 387 388
f 420 388 387
f 387 419 420
f 452 420 419
f 419 451 452
f 484 452 451
f 451 483 484
f 516 484 483
f 483 515 516
f 548 516 515
f 515 547 548
f 580 548 547
f 547 579 580
f 612 580 579
f 579 611 612
f 644 612 611
f 611 643 644
f 676 644 643
f 643 675 676
f 708 676 675
f 675 707 708
f 740 708 707
f 707 739 740
f 772 740 739
f 739 771 772
f 804 772 771
f 771 803 804
f 836 804 803
f 803 835 836
f 868 836 835
f 835 867 868
f 900 868 867
f 867 899 900
f 932 900 899
f 899 931 932
f 964 932 931
f 931 963 964
f 996 964 963
f 963 995 996
f 1028 996 995
f 995 1027 1028
f 1060 1028 1027
f 1027 1059 1060
f 1092 1060 1059
f 1059 1091 1092
f 1124 1092 1091
f 1091 1123 1124
f 1156 1124 1123
f 1123 1155 1156
f 197 165 164
f 164 196 197
f 229 197 196
f 196 228 229
f 261 229 228
f 228 260 261
f 293 261 260
f 260 292 293
f 325 293 292
f 292 324 325
f 357 325 324
f 324 356 357
f 389 357 356
f 356 388 389
f 421 389 388
f 388 420 421
f 453 421 420
f 420 452 453
f 485 453 452
f 452 484 485
f 517 485 484
f 484 516 517
f 549 517 516
f 516 548 549
f 581 549 548
f 548 580 581
f 613 581 580
f 580 612 613
f 645 613 612
f 612 644 645
f 677 645 644
f 644 676 677
f 709 677 676
f 676 708 709
f 741 709 708
f 708 740 741
f 773 741 740
f 740 772 773
f 805 773 772
f 772 804 805
f 837 805 804
f 804 836 837
f 869 837 836
f 836 868 869
f 901 869 868
f 868 900 901
f 933 901 900
f 900 932 933
f 965 933 932
f 932 964 965
f 997 965 964
f 964 996 997
f 1029 997 996
f 996 1028 1029
f 1061 1029 1028
f 1028 1060 1061
f 1093 1061 1060
f 1060 1092 1093
f 1125 1093 1092
f 1092 1124 1125
f 1157 1125 1124
f 1124 1156 1157
f 198 166 165
f 165 197 198
f 230 198 197
f 197 229 230
f 262 230 229
f 229 261 262
f 294 262 261
f 261 293 294
f 326 294 293
f 293 325 326
f 358 326 325
f 325 357 358
f 390 358 357
f 357 389 390
f 422 390 389
f 389 421 422
f 454 422 421
f 421 453 454
f 486 454 453
f 453 485 486
f 518 486 485
f 485 517 518
f 550 518 517
f 517 549 550
f 582 550 549
f 549 581 582
f 614 582 581
f 581 613 614
f 646 614 613
f 613 645 646
f 678 646 645
f 645 677 678
f 710 678 677
f 677 709 710
f 742 710 709
f 709 741 742
f 774 742 741
f 741 773 774
f 806 774 773
f 773 805 806
f 838 806 805
f 805 837 838
f 870 838 837
f 837 869 870
f 902 870 869
f 869 901 902
f 934 902 901
f 901 933 934
f 966 934 933
f 933 965 966
f 998 966 965
f 965 997 998
f 1030 998 997
f 997 1029 1030
f 1062 1030 1029
f 1029 1061 1062
f 1094 1062 1061
f 1061 1093 1094
f 1126 1094 1093
f 1093 1125 1126
f 1158 1126 1125
f 1125 1157 1158
f 199 167 166
f 166 198 199
f 231 199 198
f 198 230 231
f 263 231 230
f 230 262 263
f 295 263 262
f 262 294 295
f 327 295 294
f 294 326 327
f 359 327 326
f 326 358 359
f 391 359 358
f 358 390 391
f 423 391 390
f 390 422 423
f 455 423 422
f 422 454 455
f 487 455 454
f 454 486 487
f 519 487 486
f 486 518 519
f 551 519 518
f 518 550 551
f 583 551 550
f 550 582 583
f 615 583 582
f 582 614 615
f 647 615 614
f 614 646 647
f 679 647 646
f 646 678 679
f 711 679 678
f 678 710 711
f 743 711 710
f 710 742 743
f 775 743 742
f 742 774 775
f 807 775 774
f 774 806 807
f 839 807 806
f 806 838 839
f 871 839 838
f 838 870 871
f 903 871 870
f 870 902 903
f 935 903 902
f 902 934 935
f 967 935 934
f 934 966 967
f 999 967 966
f 966 998 999
f 1031 999 998
f 998 1030 1031
f 1063 1031 1030
f 1030 1062 1063
f 1095 1063 1062
f 1062 1094 1095
f 1127 1095 1094
f 1094 1126 1127
f 1159 1127 1126
f 1126 1158 1159
f 200 168 167
f 167 199 200
f 232 200 199
f 199 231 232
f 264 232 231
f 231 263 264
f 296 264 263
f 263 295 296
f 328 296 295
f 295 327 328
f 360 328 327
f 327 359 360
f 392 360 359
f 359 391 392
f 424 392 391
f 391 423 424
f 456 424 423
f 423 455 456
f 488 456 455
f 455 487 488
f 520 488 487
f 487 519 520
f 552 520 519
f 519 551 552
f 584 552 551
f 551 583 584
f 616 584 583
f 583 615 616
f 648 616 615
f 615 647 648
f 680 648 647
f 647 679 680
f 712 680 679
f 679 711 712
f 744 712 711
f 711 743 744
f 776 744 743
f 743 775 776
f 808 776 775
f 775 807 808
f 840 808 807
f 807 839 840
f 872 840 839
f 839 871 872
f 904 872 871
f 871 903 904
f 936 904 903
f 903 935 936
f 968 936 935
f 935 967 968
f 1000 968 967
f 967 999 1000
f 1032 1000 999
f 999 1031 1032
f 1064 1032 1031
f 1031 1063 1064
f 1096 1064 1063
f 1063 1095 1096
f 1128 1096 1095
f 1095 1127 1128
f 1160 1128 1127
f 1127 1159 1160
f 201 169 168
f 168 200 201
f 233 201 200
f 200 232 233
f 265 233 232
f 232 264 265
f 297 265 264
f 264 296 297
f 329 297 296
f 296 328 329
f 361 329 328
f 328 360 361
f 393 361 360
f 360 392 393
f 425 393 392
f 392 424 425
f 457 425 424
f 424 456 457
f 489 457 456
f 456 488 489
f 521 489 488
f 488 520 521
f 553 521 520
f 520 552 553
f 585 553 552
f 552 584 585
f 617 585 584
f 584 616 617
f 649 617 616
f 616 648 649
f 681 649 648
f 648 680 681
f 713 681 680
f 680 712 713
f 745 713 712
f 712 744 745
f 777 745 744
f 744 776 777
f 809 777 776
f 776 808 809
f 841 809 808
f 808 840 841
f 873 841 840
f 840 872 873
f 905 873 872
f 872 904 905
f 937 905 904
f 904 936 937
f 969 937 936
f 936 968 969
f 1001 969 968
f 968 1000 1001
f 1033 1001 1000
f 1000 1032 1033
f 1065 1033 1032
f 1032 1064 1065
f 1097 1065 1064
f 1064 1096 1097
f 1129 1097 1096
f 1096 1128 1129
f 1161 1129 1128
f 1128 1160 1161
f 202 170 169
f 169 201 202
f 234 202 201
f 201 233 234
f 266 234 233
f 233 265 266
f 298 266 265
f 265 297 298
f 330 298 297
f 297 329 330
f 362 330 329
f 329 361 362
f 394 362 361
f 361 393 394
f 426 394 393
f 393 425 426
f 458 426 425
f 425 457 458
f 490 458 457
f 457 489 490
f 522 490 489
f 489 521 522
f 554 522 521
f 521 553 554
f 586 554 553
f 553 585 586
f 618 586 585
f 585 617 618
f 650 618 617
f 617 649 650
f 682 650 649
f 649 681 682
f 714 682 681
f 681 713 714
f 746 714 713
f 713 745 746
f 778 746 745
f 745 777 778
f 810 778 777
f 777 809 810
f 842 810 809
f 809 841 842
f 874 842 841
f 841 873 874
f 906 874 873
f 873 905 906
f 938 906 905
f 905 937 938
f 970 938 937
f 937 969 970
f 1002 970 969
f 969 1001 1002
f 1034 1002 1001
f 1001 1033 1034
f 1066 1034 1033
f 1033 1065 1066
f 1098 1066 1065
f 1065 1097 1098
f 1130 1098 1097
f 1097 1129 1130
f 1162 1130 1129
f 1129 1161 1162
f 203 171 170
f 170 202 203
f 235 203 202
f 202 234 235
f 267 235 234
f 234 266 267
f 299 267 266
f 266 298 299
f 331 299 298
f 298 330 331
f 363 331 330
f 330 362 363
f 395 363 362
f 362 394 395
f 427 395 394
f 394 426 427
f 459 427 426
f 426 458 459
f 491 459 458
f 458 490 491
f 523 491 490
f 490 522 523
f 555 523 522
f 522 554 555
f 587 555 554
f 554 586 587
f 619 587 586
f 586 618 619
f 651 619 618
f 618 650 651
f 683 651 650
f 650 682 683
f 715 683 682
f 682 714 715
f 747 715 714
f 714 746 747
f 779 747 746
f 746 778 779
f 811 779 778
f 778 810 811
f 843 811 810
f 810 842 843
f 875 843 842
f 842 874 875
f 907 875 874
f 874 906 907
f 939 907 906
f 906 938 939
f 971 939 938
f 938 970 971
f 1003 971 970
f 970 1002 1003
f 1035 1003 1002
f 1002 1034 1035
f 1067 1035 1034
f 1034 1066 1067
f 1099 1067 1066
f 1066 1098 1099
f 1131 1099 1098
f 1098 1130 1131
f 1163 1131 1130
f 1130 1162 1163
f 204 172 171
f 171 203 204
f 236 204 203
f 203 235 236
f 268 236 235
f 235 267 268
f 300 268 267
f 267 299 300
f 332 300 299
f 299 331 332
f 364 332 331
f 331 363 364
f 396 364 363
f 363 395 396
f 428 396 395
f 395 427 428
f 460 428 427
f 427 459 460
f 492 460 459
f 459 491 492
f 524 492 491
f 491 523 524
f 556 524 523
f 523 555 556
f 588 556 555
f 555 587 588
f 620 588 587
f 587 619 620
f 652 620 619
f 619 651 652
f 684 652 651
f 651 683 684
f 716 684 683
f 683 715 716
f 748 716 715
f 715 747 748
f 780 748 747
f 747 779 780
f 812 780 779
f 779 811 812
f 844 812 811
f 811 843 844
f 876 844 843
f 843 875 876
f 908 876 875
f 875 907 908
f 940 908 907
f 907 939 940
f 972 940 939
f 939 971 972
f 1004 972 971
f 971 1003 1004
f 1036 1004 1003
f 1003 1035 1036
f 1068 1036 1035
f 1035 1067 1068
f 1100 1068 1067
f 1067 1099 1100
f 1132 1100 1099
f 1099 1131 1132
f 1164 1132 1131
f 1131 1163 1164
f 205 173 172
f 172 204 205
f 237 205 204
f 204 236 237
f 269 237 236
f 236 268 269
f 301 269 268
f 268 300 301
f 333 301 300
f 300 332 333
f 365 333 332
f 332 364 365
f 397 365 364
f 364 396 397
f 429 397 396
f 396 428 429
f 461 429 428
f 428 460 461
f 493 461 460
f 460 492 493
f 525 493 492
f 492 524 525
f 557 525 524
f 524 556 557
f 589 557 556
f 556 588 589
f 621 589 588
f 588 620 621
f 653 621 620
f 620 652 653
f 685 653 652
f 652 684 685
f 717 685 684
f 684 716 717
f 749 717 716
f 716 748 749
f 781 749 748
f 748 780 781
f 813 781 780
f 780 812 813
f 845 813 812
f 812 844 845
f 877 845 844
f 844 876 877
f 909 877 876
f 876 908 909
f 941 909 908
f 908 940 941
f 973 941 940
f 940 972 973
f 1005 973 972
f 972 1004 1005
f 1037 1005 1004
f 1004 1036 1037
f 1069 1037 1036
f 1036 1068 1069
f 1101 1069 1068
f 1068 1100 1101
f 1133 1101 1100
f 1100 1132 1133
f 1165 1133 1132
f 1132 1164 1165
f 206 174 173
f 173 205 206
f 238 206 205
f 205 237 238
f 270 238 237
f 237 269 270
f 302 270 269
f 269 301 302
f 334 302 301
f 301 333 334
f 366 334 333
f 333 365 366
f 398 366 365
f 365 397 398
f 430 398 397
f 397 429 430
f 462 430 429
f 429 461 462
f 494 462 461
f 461 493 494
f 526 494 493
f 493 525 526
f 558 526 525
f 525 557 558
f 590 558 557
f 557 589 590
f 622 590 589
f 589 621 622
f 654 622 621
f 621 653 654
f 686 654 653
f 653 685 686
f 718 686 685
f 685 717 718
f 750 718 717
f 717 749 750
f 782 750 749
f 749 781 782
f 814 782 781
f 781 813 814
f 846 814 813
f 813 845 846
f 878 846 845
f 845 877 878
f 910 878 877
f 877 909 910
f 942 910 909
f 909 941 942
f 974 942 941
f 941 973 974
f 1006 974 973
f 973 1005 1006
f 1038 1006 1005
f 1005 1037 1038
f 1070 1038 1037
f 1037 1069 1070
f 1102 1070 1069
f 1069 1101 1102
f 1134 1102 1101
f 1101 1133 1134
f 1166 1134 1133
f 1133 1165 1166
f 207 175 174
f 174 206 207
f 239 207 206
f 206 238 239
f 271 239 238
f 238 270 271
f 303 271 270
f 270 302 303
f 335 303 302
f 302 334 335
f 367 335 334
f 334 366 367
f 399 367 366
f 366 398 399
f 431 399 398
f 398 430 431
f 463 431 430
f 430 462 463
f 495 463 462
f 462 494 495
f 527 495 494
f 494 526 527
f 559 527 526
f 526 558 559
f 591 559 558
f 558 590 591
f 623 591 590
f 590 622 623
f 655 623 622
f 622 654 655
f 687 655 654
f 654 686 687
f 719 687 686
f 686 718 719
f 751 719 718
f 718 750 751
f 783 751 750
f 750 782 783
f 815 783 782
f 782 814 815
f 847 815 814
f 814 846 847
f 879 847 846
f 846 878 879
f 911 879 878
f 878 910 911
f 943 911 910
f 910 942 943
f 975 943 942
f 942 974 975
f 1007 975 974
f 974 1006 1007
f 1039 1007 1006
f 1006 1038 1039
f 1071 1039 1038
f 1038 1070 1071
f 1103 1071 1070
f 1070 1102 1103
f 1135 1103 1102
f 1102 1134 1135
f 1167 1135 1134
f 1134 1166 1167
f 208 176 175
f 175 207 208
f 240 208 207
f 207 239 240
f 272 240 239
f 239 271 272
f 304 272 271
f 271 303 304
f 336 304 303
f 303 335 336
f 368 336 335
f 335 367 368
f 400 368 367
f 367 399 400
f 432 400 399
f 399 431 432
f 464 432 431
f 431 463 464
f 496 464 463
f 463 495 496
f 528 496 495
f 495 527 528
f 560 528 527
f 527 559 560
f 592 560 559
f 559 591 592
f 624 592 591
f 591 623 624
f 656 624 623
f 623 655 656
f 688 656 655
f 655 687 688
f 720 688 687
f 687 719 720
f 752 720 719
f 719 751 752
f 784 752 751
f 751 783 784
f 816 784 783
f 783 815 816
f 848 816 815
f 815 847 848
f 880 848 847
f 847 879 880
f 912 880 879
f 879 911 912
f 944 912 911
f 911 943 944
f 976 944 943
f 943 975 976
f 1008 976 975
f 975 1007 1008
f 1040 1008 1007
f 1007 1039 1040
f 1072 1040 1039
f 1039 1071 1072
f 1104 1072 1071
f 1071 1103 1104
f 1136 1104 1103
f 1103 1135 1136
f 1168 1136 1135
f 1135 1167 1168
f 209 177 176
f 176 208 209
f 241 209 208
f 208 240 241
f 273 241 240
f 240 272 273
f 305 273 272
f 272 304 305
f 337 305 304
f 304 336 337
f 369 337 336
f 336 368 369
f 401 369 368
f 368 400 401
f 433 401 400
f 400 432 433
f 465 433 432
f 432 464 465
f 497 465 464
f 464 496 497
f 529 497 496
f 496 528 529
f 561 529 528
f 528 560 561
f 593 561 560
f 560 592 593
f 625 593 592
f 592 624 625
f 657 625 624
f 624 656 657
f 689 657 656
f 656 688 689
f 721 689 688
f 688 720 721
f 753 721 720
f 720 752 753
f 785 753 752
f 752 784 785
f 817 785 784
f 784 816 817
f 849 817 816
f 816 848 849
f 881 849 848
f 848 880 881
f 913 881 880
f 880 912 913
f 945 913 912
f 912 944 945
f 977 945 944
f 944 976 977
f 1009 977 976
f 976 1008 1009
f 1041 1009 1008
f 1008 1040 1041
f 1073 1041 1040
f 1040 1072 1073
f 1105 1073 1072
f 1072 1104 1105
f 1137 1105 1104
f 1104 1136 1137
f 1169 1137 1136
f 1136 1168 1169
f 210 178 177
f 177 209 210
f 242 210 209
f 209 241 242
f 274 242 241
f 241 273 274
f 306 274 273
f 273 305 306
f 338 306 305
f 305 337 338
f 370 338 337
f 337 369 370
f 402 370 369
f 369 401 402
f 434 402 401
f 401 433 434
f 466 434 433
f 433 465 466
f 498 466 465
f 465 497 498
f 530 498 497
f 497 529 530
f 562 530 529
f 529 561 562
f 594 562 561
f 561 593 594
f 626 594 593
f 593 625 626
f 658 626 625
f 625 657 658
f 690 658 657
f 657 689 690
f 722 690 689
f 689 721 722
f 754 722 721
f 721 753 754
f 786 754 753
f 753 785 786
f 818 786 785
f 785 817 818
f 850 818 817
f 817 849 850
f 882 850 849
f 849 881 882
f 914 882 881
f 881 913 914
f 946 914 913
f 913 945 946
f 978 946 945
f 945 977 978
f 1010 978 977
f 977 1009 1010
f 1042 1010 1009
f 1009 1041 1042
f 1074 1042 1041
f 1041 1073 1074
f 1106 1074 1073
f 1073 1105 1106
f 1138 1106 1105
f 1105 1137 1138
f 1170 1138 1137
f 1137 1169 1170
f 211 179 178
f 178 210 211
f 243 211 210
f 210 242 243
f 275 243 242
f 242 274 275
f 307 275 274
f 274 306 307
f 339 307 306
f 306 338 339
f 371 339 338
f 338 370 371
f 403 371 370
f 370 402 403
f 435 403 402
f 402 434 435
f 467 435 434
f 434 466 467
f 499 467 466
f 466 498 499
f 531 499 498
f 498 530 531
f 563 531 530
f 530 562 563
f 595 563 562
f 562 594 595
f 627 595 594
f 594 626 627
f 659 627 626
f 626 658 659
f 691 659 658
f 658 690 691
f 723 691 690
f 690 722 723
f 755 723 722
f 722 754 755
f 787 755 754
f 754 786 787
f 819 787 786
f 786 818 819
f 851 819 818
f 818 850 851
f 883 851 850
f 850 882 883
f 915 883 882
f 882 914 915
f 947 915 914
f 914 946 947
f 979 947 946
f 946 978 979
f 1011 979 978
f 978 1010 1011
f 1043 1011 1010
f 1010 1042 1043
f 1075 1043 1042
f 1042 1074 1075
f 1107 1075 1074
f 1074 1106 1107
f 1139 1107 1106
f 1106 1138 1139
f 1171 1139 1138
f 1138 1170 1171
f 212 180 179
f 179 211 212
f 244 212 211
f 211 243 244
f 276 244 243
f 243 275 276
f 308 276 275
f 275 307 308
f 340 308 307
f 307 339 340
f 372 340 339
f 339 371 372
f 404 372 371
f 371 403 404
f 436 404 403
f 403 435 436
f 468 436 435
f 435 467 468
f 500 468 467
f 467 499 500
f 532 500 499
f 499 531 532
f 564 532 531
f 531 563 564
f 596 564 563
f 563 595 596
f 628 596 595
f 595 627 628
f 660 628 627
f 627 659 660
f 692 660 659
f 659 691 692
f 724 692 691
f 691 723 724
f 756 724 723
f 723 755 756
f 788 756 755
f 755 787 788
f 820 788 787
f 787 819 820
f 852 820 819
f 819 851 852
f 884 852 851
f 851 883 884
f 916 884 883
f 883 915 916
f 948 916 915
f 915 947 948
f 980 948 947
f 947 979 980
f 1012 980 979
f 979 1011 1012
f 1044 1012 1011
f 1011 1043 1044
f 1076 1044 1043
f 1043 1075 1076
f 1108 1076 1075
f 1075 1107 1108
f 1140 1108 1107
f 1107 1139 1140
f 1172 1140 1139
f 1139 1171 1172
f 213 181 180
f 180 212 213
f 245 213 212
f 212 244 245
f 277 245 244
f 244 276 277
f 309 277 276
f 276 308 309
f 341 309 308
f 308 340 341
f 373 341 340
f 340 372 373
f 405 373 372
f 372 404 405
f 437 405 404
f 404 436 437
f 469 437 436
f 436 468 469
f 501 469 468
f 468 500 501
f 533 501 500
f 500 532 533
f 565 533 532
f 532 564 565
f 597 565 564
f 564 596 597
f 629 597 596
f 596 628 629
f 661 629 628
f 628 660 661
f 693 661 660
f 660 692 693
f 725 693 692
f 692 724 725
f 757 725 724
f 724 756 757
f 789 757 756
f 756 788 789
f 821 789 788
f 788 820 821
f 853 821 820
f 820 852 853
f 885 853 852
f 852 884 885
f 917 885 884
f 884 916 917
f 949 917 916
f 916 948 949
f 981 949 948
f 948 980 981
f 1013 981 980
f 980 1012 1013
f 1045 1013 1012
f 1012 1044 1045
f 1077 1045 1044
f 1044 1076 1077
f 1109 1077 1076
f 1076 1108 1109
f 1141 1109 1108
f 1108 1140 1141
f 1173 1141 1140
f 1140 1172 1173
f 214 182 181
f 181 213 214
f 246 214 213
f 213 245 246
f 278 246 245
f 245 277 278
f 310 278 277
f 277 309 310
f 342 310 309
f 309 341 342
f 374 342 341
f 341 373 374
f 406 374 373
f 373 405 406
f 438 406 405
f 405 437 438
f 470 438 437
f 437 469 470
f 502 470 469
f 469 501 502
f 534 502 501
f 501 533 534
f 566 534 533
f 533 565 566
f 598 566 565
f 565 597 598
f 630 598 597
f 597 629 630
f 662 630 629
f 629 661 662
f 694 662 661
f 661 693 694
f 726 694 693
f 693 725 726
f 758 726 725
f 725 757 758
f 790 758 757
f 757 789 790
f 822 790 789
f 789 821 822
f 854 822 821
f 821 853 854
f 886 854 853
f 853 885 886
f 918 886 885
f 885 917 918
f 950 918 917
f 917 949 950
f 982 950 949
f 949 981 982
f 1014 982 981
f 981 1013 1014
f 1046 1014 1013
f 1013 1045 1046
f 1078 1046 1045
f 1045 1077 1078
f 1110 1078 1077
f 1077 1109 1110
f 1142 1110 1109
f 1109 1141 1142
f 1174 1142 1141
f 1141 1173 1174
f 215 183 182
f 182 214 215
f 247 215 214
f 214 246 247
f 279 247 246
f 246 278 279
f 311 279 278
f 278 310 311
f 343 311 310
f 310 342 343
f 375 343 342
f 342 374 375
f 407 375 374
f 374 406 407
f 439 407 406
f 406 438 439
f 471 439 438
f 438 470 471
f 503 471 470
f 470 502 503
f 535 503 502
f 502 534 535
f 567 535 534
f 534 566 567
f 599 567 566
f 566 598 599
f 631 599 598
f 598 630 631
f 663 631 630
f 630 662 663
f 695 663 662
f 662 694 695
f 727 695 694
f 694 726 727
f 759 727 726
f 726 758 759
f 791 759 758
f 758 790 791
f 823 791 790
f 790 822 823
f 855 823 822
f 822 854 855
f 887 855 854
f 854 886 887
f 919 887 886
f 886 918 919
f 951 919 918
f 918 950 951
f 983 951 950
f 950 982 983
f 1015 983 982
f 982 1014 1015
f 1047 1015 1014
f 1014 1046 1047
f 1079 1047 1046
f 1046 1078 1079
f 1111 1079 1078
f 1078 1110 1111
f 1143 1111 1110
f 1110 1142 1143
f 1175 1143 1142
f 1142 1174 1175
f 216 184 183
f 183 215 216
f 248 216 215
f 215 247 248
f 280 248 247
f 247 279 280
f 312 280 279
f 279 311 312
f 344 312 311
f 311 343 344
f 376 344 343
f 343 375 376
f 408 376 375
f 375 407 408
f 440 408 407
f 407 439 440
f 472 440 439
f 439 471 472
f 504 472 471
f 471 503 504
f 536 504 503
f 503 535 536
f 568 536 535
f 535 567 568
f 600 568 567
f 567 599 600
f 632 600 599
f 599 631 632
f 664 632 631
f 631 663 664
f 696 664 663
f 663 695 696
f 728 696 695
f 695 727 728
f 760 728 727
f 727 759 760
f 792 760 759
f 759 791 792
f 824 792 791
f 791 823 824
f 856 824 823
f 823 855 856
f 888 856 855
f 855 887 888
f 920 888 887
f 887 919 920
f 952 920 919
f 919 951 952
f 984 952 951
f 951 983 984
f 1016 984 983
f 983 1015 1016
f 1048 1016 1015
f 1015 1047 1048
f 1080 1048 1047
f 1047 1079 1080
f 1112 1080 1079
f 1079 1111 1112
f 1144 1112 1111
f 1111 1143 1144
f 1176 1144 1143
f 1143 1175 1176
f 217 185 184
f 184 216 217
f 249 217 216
f 216 248 249
f 281 249 248
f 248 280 281
f 313 281 280
f 280 312 313
f 345 313 312
f 312 344 345
f 377 345 344
f 344 376 377
f 409 377 376
f 376 408 409
f 441 409 408
f 408 440 441
f 473 441 440
f 440 472 473
f 505 473 472
f 472 504 505
f 537 505 504
f 504 536 537
f 569 537 536
f 536 568 569
f 601 569 568
f 568 600 601
f 633 601 600
f 600 632 633
f 665 633 632
f 632 664 665
f 697 665 664
f 664 696 697
f 729 697 696
f 696 728 729
f 761 729 728
f 728 760 761
f 793 761 760
f 760 792 793
f 825 793 792
f 792 824 825
f 857 825 824
f 824 856 857
f 889 857 856
f 856 888 889
f 921 889 888
f 888 920 921
f 953 921 920
f 920 952 953
f 985 953 952
f 952 984 985
f 1017 985 984
f 984 1016 1017
f 1049 1017 1016
f 1016 1048 1049
f 1081 1049 1048
f 1048 1080 1081
f 1113 1081 1080
f 1080 1112 1113
f 1145 1113 1112
f 1112 1144 1145
f 1177 1145 1144
f 1144 1176 1177
f 218 186 185
f 185 217 218
f 250 218 217
f 217 249 250
f 282 250 249
f 249 281 282
f 314 282 281
f 281 313 314
f 346 314 313
f 313 345 346
f 378 346 345
f 345 377 378
f 410 378 377
f 377 409 410
f 442 410 409
f 409 441 442
f 474 442 441
f 441 473 474
f 506 474 473
f 473 505 506
f 538 506 505
f 505 537 538
f 570 538 537
f 537 569 570
f 602 570 569
f 569 601 602
f 634 602 601
f 601 633 634
f 666 634 633
f 633 665 666
f 698 666 665
f 665 697 698
f 730 698 697
f 697 729 730
f 762 730 729
f 729 761 762
f 794 762 761
f 761 793 794
f 826 794 793
f 793 825 826
f 858 826 825
f 825 857 858
f 890 858 857
f 857 889 890
f 922 890 889
f 889 921 922
f 954 922 921
f 921 953 954
f 986 954 953
f 953 985 986
f 1018 986 985
f 985 1017 1018
f 1050 1018 1017
f 1017 1049 1050
f 1082 1050 1049
f 1049 1081 1082
f 1114 1082 1081
f 1081 1113 1114
f 1146 1114 1113
f 1113 1145 1146
f 1178 1146 1145
f 1145 1177 1178
f 219 187 186
f 186 218 219
f 251 219 218
f 218 250 251
f 283 251 250
f 250 282 283
f 315 283 282
f 282 314 315
f 347 315 314
f 314 346 347
f 379 347 346
f 346 378 379
f 411 379 378
f 378 410 411
f 443 411 410
f 410 442 443
f 475 443 442
f 442 474 475
f 507 475 474
f 474 506 507
f 539 507 506
f 506 538 539
f 571 539 538
f 538 570 571
f 603 571 570
f 570 602 603
f 635 603 602
f 602 634 635
f 667 635 634
f 634 666 667
f 699 667 666
f 666 698 699
f 731 699 698
f 698 730 731
f 763 731 730
f 730 762 763
f 795 763 762
f 762 794 795
f 827 795 794
f 794 826 827
f 859 827 826
f 826 858 859
f 891 859 858
f 858 890 891
f 923 891 890
f 890 922 923
f 955 923 922
f 922 954 955
f 987 955 954
f 954 986 987
f 1019 987 986
f 986 1018 1019
f 1051 1019 1018
f 1018 1050 1051
f 1083 1051 1050
f 1050 1082 1083
f 1115 1083 1082
f 1082 1114 1115
f 1147 1115 1114
f 1114 1146 1147
f 1179 1147 1146
f 1146 1178 1179
f 220 188 187
f 187 219 220
f 252 220 219
f 219 251 252
f 284 252 251
f 251 283 284
f 316 284 283
f 283 315 316
f 348 316 315
f 315 347 348
f 380 348 347
f 347 379 380
f 412 380 379
f 379 411 412
f 444 412 411
f 411 443 444
f 476 444 443
f 443 475 476
f 508 476 475
f 475 507 508
f 540 508 507
f 507 539 540
f 572 540 539
f 539 571 572
f 604 572 571
f 571 603 604
f 636 604 603
f 603 635 636
f 668 636 635
f 635 667 668
f 700 668 667
f 667 699 700
f 732 700 699
f 699 731 732
f 764 732 731
f 731 763 764
f 796 764 763
f 763 795 796
f 828 796 795
f 795 827 828
f 860 828 827
f 827 859 860
f 892 860 859
f 859 891 892
f 924 892 891
f 891 923 924
f 956 924 923
f 923 955 956
f 988 956 955
f 955 987 988
f 1020 988 987
f 987 1019 1020
f 1052 1020 1019
f 1019 1051 1052
f 1084 1052 1051
f 1051 1083 1084
f 1116 1084 1083
f 1083 1115 1116
f 1148 1116 1115
f 1115 1147 1148
f 1180 1148 1147
f 1147 1179 1180
f 221 189 188
f 188 220 221
f 253 221 220
f 220 252 253
f 285 253 252
f 252 284 285
f 317 285 284
f 284 316 317
f 349 317 316
f 316 348 349
f 381 349 348
f 348 380 381
f 413 381 380
f 380 412 413
f 445 413 412
f 412 444 445
f 477 445 444
f 444 476 477
f 509 477 476
f 476 508 509
f 541 509 508
f 508 540 541
f 573 541 540
f 540 572 573
f 605 573 572
f 572 604 605
f 637 605 604
f 604 636 637
f 669 637 636
f 636 668 669
f 701 669 668
f 668 700 701
f 733 701 700
f 700 732 733
f 765 733 732
f 732 764 765
f 797 765 764
f 764 796 797
f 829 797 796
f 796 828 829
f 861 829 828
f 828 860 861
f 893 861 860
f 860 892 893
f 925 893 892
f 892 924 925
f 957 925 924
f 924 956 957
f 989 957 956
f 956 988 989
f 1021 989 988
f 988 1020 1021
f 1053 1021 1020
f 1020 1052 1053
f 1085 1053 1052
f 1052 1084 1085
f 1117 1085 1084
f 1084 1116 1117
f 1149 1117 1116
f 1116 1148 1149
f 1181 1149 1148
f 1148 1180 1181
f 222 190 189
f 189 221 222
f 254 222 221
f 221 253 254
f 286 254 253
f 253 285 286
f 318 286 285
f 285 317 318
f 350 318 317
f 317 349 350
f 382 350 349
f 349 381 382
f 414 382 381
f 381 413 414
f 446 414 413
f 413 445 446
f 478 446 445
f 445 477 478
f 510 478 477
f 477 509 510
f 542 510 509
f 509 541 542
f 574 542 541
f 541 573 574
f 606 574 573
f 573 605 606
f 638 606 605
f 605 637 638
f 670 638 637
f 637 669 670
f 702 670 669
f 669 701 702
f 734 702 701
f 701 733 734
f 766 734 733
f 733 765 766
f 798 766 765
f 765 797 798
f 830 798 797
f 797 829 830
f 862 830 829
f 829 861 862
f 894 862 861
f 861 893 894
f 926 894 893
f 893 925 926
f 958 926 925
f 925 957 958
f 990 958 957
f 957 989 990
f 1022 990 989
f 989 1021 1022
f 1054 1022 1021
f 1021 1053 1054
f 1086 1054 1053
f 1053 1085 1086
f 1118 1086 1085
f 1085 1117 1118
f 1150 1118 1117
f 1117 1149 1150
f 1182 1150 1149
f 1149 1181 1182
f 223 191 190
f 190 222 223
f 255 223 222
f 222 254 255
f 287 255 254
f 254 286 287
f 319 287 286
f 286 318 319
f 351 319 318
f 318 350 351
f 383 351 350
f 350 382 383
f 415 383 382
f 382 414 415
f 447 415 414
f 414 446 447
f 479 447 446
f 446 478 479
f 511 479 478
f 478 510 511
f 543 511 510
f 510 542 543
f 575 543 542
f 542 574 575
f 607 575 574
f 574 606 607
f 639 607 606
f 606 638 639
f 671 639 638
f 638 670 671
f 703 671 670
f 670 702 703
f 735 703 702
f 702 734 735
f 767 735 734
f 734 766 767
f 799 767 766
f 766 798 799
f 831 799 798
f 798 830 831
f 863 831 830
f 830 862 863
f 895 863 862
f 862 894 895
f 927 895 894
f 894 926 927
f 959 927 926
f 926 958 959
f 991 959 958
f 958 990 991
f 1023 991 990
f 990 1022 1023
f 1055 1023 1022
f 1022 1054 1055
f 1087 1055 1054
f 1054 1086 1087
f 1119 1087 1086
f 1086 1118 1119
f 1151 1119 1118
f 1118 1150 1151
f 1183 1151 1150
f 1150 1182 1183
f 224 192 191
f 191 223 224
f 256 224 223
f 223 255 256
f 288 256 255
f 255 287 288
f 320 288 287
f 287 319 320
f 352 320 319
f 319 351 352
f 384 352 351
f 351 383 384
f 416 384 383
f 383 415 416
f 448 416 415
f 415 447 448
f 480 448 447
f 447 479 480
f 512 480 479
f 479 511 512
f 544 512 511
f 511 543 544
f 576 544 543
f 543 575 576
f 608 576 575
f 575 607 608
f 640 608 607
f 607 639 640
f 672 640 639
f 639 671 672
f 704 672 671
f 671 703 704
f 736 704 703
f 703 735 736
f 768 736 735
f 735 767 768
f 800 768 767
f 767 799 800
f 832 800 799
f 799 831 832
f 864 832 831
f 831 863 864
f 896 864 863
f 863 895 896
f 928 896 895
f 895 927 928
f 960 928 927
f 927 959 960
f 992 960 959
f 959 991 992
f 1024 992 991
f 991 1023 1024
f 1056 1024 1023
f 1023 1055 1056
f 1088 1056 1055
f 1055 1087 1088
f 1120 1088 1087
f 1087 1119 1120
f 1152 1120 1119
f 1119 1151 1152
f 1184 1152 1151
f 1151 1183 1184
f 225 193 192
f 192 224 225
f 257 225 224
f 224 256 257
f 289 257 256
f 256 288 289
f 321 289 288
f 288 320 321
f 353 321 320
f 320 352 353
f 385 353 352
f 352 384 385
f 417 385 384
f 384 416 417
f 449 417 416
f 416 448 449
f 481 449 448
f 448 480 481
f 513 481 480
f 480 512 513
f 545 513 512
f 512 544 545
f 577 545 544
f 544 576 577
f 609 577 576
f 576 608 609
f 641 609 608
f 608 640 641
f 673 641 640
f 640 672 673
f 705 673 672
f 672 704 705
f 737 705 704
f 704 736 737
f 769 737 736
f 736 768 769
f 801 769 768
f 768 800 801
f 833 801 800
f 800 832 833
f 865 833 832
f 832 864 865
f 897 865 864
f 864 896 897
f 929 897 896
f 896 928 929
f 961 929 928
f 928 960 961
f 993 961 960
f 960 992 993
f 1025 993 992
f 992 1024 1025
f 1057 1025 1024
f 1024 1056 1057
f 1089 1057 1056
f 1056 1088 1089
f 1121 1089 1088
f 1088 1120 1121
f 1153 1121 1120
f 1120 1152 1153
f 1185 1153 1152
f 1152 1184 1185
f 226 194 193
f 193 225 226
f 258 226 225
f 225 257 258
f 290 258 257
f 257 289 290
f 322 290 289
f 289 321 322
f 354 322 321
f 321 353 354
f 386 354 353
f 353 385 386
f 418 386 385
f 385 417 418
f 450 418 417
f 417 449 450
f 482 450 449
f 449 481 482
f 514 482 481
f 481 513 514
f 546 514 513
f 513 545 546
f 578 546 545
f 545 577 578
f 610 578 577
f 577 609 610
f 642 610 609
f 609 641 642
f 674 642 641
f 641 673 674
f 706 674 673
f 673 705 706
f 738 706 705
f 705 737 738
f 770 738 737
f 737 769 770
f 802 770 769
f 769 801 802
f 834 802 801
f 801 833 834
f 866 834 833
f 833 865 866
f 898 866 865
f 865 897 898
f 930 898 897
f 897 929 930
f 962 930 929
f 929 961 962
f 994 962 961
f 961 993 994
f 1026 994 993
f 993 1025 1026
f 1058 1026 1025
f 1025 1057 1058
f 1090 1058 1057
f 1057 1089 1090
f 1122 1090 1089
f 1089 1121 1122
f 1154 1122 1121
f 1121 1153 1154
f 1186 1154 1153
f 1153 1185 1186
