v 5070.91 14.9495 4123.61
v 5070.91 15.7112 4123.61
v 5070.91 14.9794 4123.72
v 5070.91 14.9363 4124.11
v 5070.91 14.9794 4123.86
v 5070.91 15.7112 4124.11
v 5070.91 15.7112 4123.61
v 5070.91 14.9495 4123.61
v 5071.65 15.7112 4123.61
v 5072.09 14.7445 4123.61
v 5071.22 14.5074 4123.61
v 5071.27 14.3346 4123.61
v 5071.49 14.016 4123.61
v 5072.33 14.4879 4123.61
v 5078.91 11.7112 4123.61
v 5078.91 13.978 4123.61
v 5076.69 14.4945 4123.61
v 5073.1 13.0769 4123.61
v 5070.91 11.7112 4123.61
v 5078.53 14.9909 4123.61
v 5073.15 14.7167 4123.61
v 5073.29 14.0282 4123.61
v 5073.33 14.779 4123.61
v 5075.29 15.0454 4123.61
v 5074.91 14.9953 4123.61
v 5075.54 14.5085 4123.61
v 5077.17 15.7112 4123.61
v 5077.06 14.9941 4123.61
v 5077.68 15.7112 4123.61
v 5077.86 15.4998 4123.61
v 5078.32 15.1551 4123.61
v 5073.77 14.9528 4123.61
v 5072.86 14.1869 4123.61
v 5073 13.1307 4123.61
v 5071.29 13.6219 4123.61
v 5071.11 13.416 4123.61
v 5071.19 13.1207 4123.61
v 5071.23 12.8191 4123.61
v 5074.15 14.9987 4123.61
v 5074.53 15.0841 4123.61
v 5076.06 14.2674 4123.61
v 5070.91 12.2991 4123.61
v 5070.91 11.7112 4123.61
v 5070.91 12.2991 4123.61
v 5070.91 11.7112 4124.11
v 5070.91 12.3174 4123.72
v 5070.91 12.3174 4123.86
v 5070.91 12.2205 4124.11
v 5076.43 15.2631 4124.11
v 5076.81 15.2095 4124.11
v 5076.05 15.1524 4124.11
v 5072.02 12.2371 4122.59
v 5072.06 11.5214 4122.72
v 5072.5 11.9068 4122.4
v 5072.52 11.5075 4122.49
v 5071.75 12.2102 4122.73
v 5071.79 11.5294 4122.86
v 5071.49 12.1404 4122.88
v 5071.53 11.5373 4122.99
v 5071.3 12.3216 4122.94
v 5071.34 11.5428 4123.09
v 5070.94 12.5283 4123.09
v 5070.99 11.5534 4123.27
v 5070.67 12.3232 4123.27
v 5070.71 11.5619 4123.41
v 5070.52 12.2781 4123.36
v 5070.55 11.5665 4123.49
v 5070.14 11.9776 4123.61
v 5070.16 11.5783 4123.69
v 5070.18 11.5964 4123.8
v 5070.16 11.5783 4123.69
v 5070.16 11.9957 4123.72
v 5070.14 11.9776 4123.61
v 5070.25 11.62 4123.92
v 5070.22 12.0193 4123.84
v 5070.4 11.6597 4124.12
v 5070.38 12.059 4124.04
v 5076.06 14.2674 4123.61
v 5075.78 15.026 4123.65
v 5075.54 14.5085 4123.61
v 5075.53 14.9518 4123.7
v 5077.06 14.9941 4123.61
v 5077.17 15.7112 4123.61
v 5076.81 15.109 4123.7
v 5076.69 14.4945 4123.61
v 5076.3 14.9182 4123.7
v 5076.05 14.9963 4123.7
v 5076.46 14.9805 4123.7
v 5075.29 15.0454 4123.61
v 5078.91 13.978 4123.61
v 5078.91 11.7112 4123.61
v 5078.91 13.9108 4123.72
v 5078.91 13.9828 4124.11
v 5078.91 13.9223 4123.86
v 5078.91 11.7112 4124.11
v 5073.33 14.8987 4124.11
v 5073.52 14.8601 4124.11
v 5073.33 14.7932 4124.11
v 5070.91 12.2205 4124.11
v 5073.1 13.0769 4124.11
v 5070.91 11.7112 4124.11
v 5073.03 13.1173 4124.11
v 5071.27 12.7722 4124.11
v 5078.91 11.7112 4124.11
v 5070.91 15.7112 4124.11
v 5071.65 15.7112 4124.11
v 5070.91 14.9363 4124.11
v 5071.68 14.9887 4124.11
v 5071.14 14.5251 4124.11
v 5071.87 14.3434 4124.11
v 5071.2 14.3307 4124.11
v 5071.2 14.016 4124.11
v 5077.67 15.7112 4124.11
v 5077.78 15.4242 4124.11
v 5077.17 15.7112 4124.11
v 5072.43 13.9253 4124.11
v 5071.12 13.8037 4124.11
v 5071.12 13.416 4124.11
v 5071.23 13.1311 4124.11
v 5073.25 14.6378 4124.11
v 5073.43 14.1374 4124.11
v 5073.77 15.0351 4124.11
v 5074.15 15.0811 4124.11
v 5078.24 15.1711 4124.11
v 5078.91 13.9828 4124.11
v 5075.67 14.9568 4124.11
v 5075.29 15.0771 4124.11
v 5074.91 15.1658 4124.11
v 5074.53 15.1259 4124.11
v 5078.5 14.962 4124.11
v 5071.72 12.2343 4123.32
v 5071.75 11.619 4123.43
v 5071.37 12.2366 4123.49
v 5071.41 11.6294 4123.61
v 5071.97 12.3318 4123.17
v 5072.01 11.6114 4123.3
v 5072.28 12.3638 4123
v 5072.33 11.6018 4123.14
v 5072.59 11.9481 4122.63
v 5072.62 11.5488 4122.71
v 5072.79 11.9864 4122.81
v 5072.82 11.5871 4122.89
v 5072.79 11.9864 4122.81
v 5072.82 11.5871 4122.89
v 5072.53 11.9245 4122.5
v 5072.55 11.5252 4122.59
v 5072.5 11.9068 4122.4
v 5072.52 11.5075 4122.49
v 5070.73 12.2778 4123.82
v 5070.76 11.6487 4123.94
v 5070.38 12.059 4124.04
v 5070.4 11.6597 4124.12
v 5070.9 12.3285 4123.72
v 5070.94 11.6435 4123.85
v 5071.18 12.3203 4123.58
v 5071.22 11.6351 4123.71
v 5072.43 13.9253 4124.11
v 5072.69 14.1504 4124.1
v 5073.03 13.1173 4124.11
v 5071.87 14.3434 4124.11
v 5072.44 14.3255 4124.04
v 5072.29 14.5085 4124.04
v 5071.68 14.9887 4124.11
v 5072.12 14.6687 4124.04
v 5071.94 15.1529 4124.04
v 5071.65 15.7112 4124.11
v 5071.65 15.7112 4124.11
v 5070.91 15.7112 4124.11
v 5071.65 15.7112 4123.86
v 5070.91 15.7112 4123.61
v 5071.65 15.7112 4123.61
v 5077.68 15.7112 4123.61
v 5077.66 15.7112 4123.7
v 5077.17 15.7112 4123.61
v 5077.17 15.7112 4123.86
v 5077.71 15.7112 4123.86
v 5077.69 15.7112 4124
v 5077.17 15.7112 4124.11
v 5077.67 15.7112 4124.11
v 5071.12 13.8037 4124.11
v 5071.12 13.416 4124.11
v 5071.12 13.416 4123.86
v 5071.23 13.1311 4124.11
v 5071.18 12.8643 4123.86
v 5071.27 12.7722 4124.11
v 5070.91 12.2205 4124.11
v 5070.91 12.3174 4123.86
v 5071.27 12.7722 4124.11
v 5071.18 12.8643 4123.86
v 5070.91 12.3174 4123.72
v 5071.23 12.8191 4123.61
v 5070.91 12.2991 4123.61
v 5071.19 13.1207 4123.61
v 5071.23 12.8191 4123.61
v 5071.11 13.416 4123.61
v 5071.11 13.416 4123.61
v 5071.34 14.016 4123.86
v 5071.11 13.416 4123.61
v 5071.29 13.6219 4123.61
v 5071.34 14.016 4123.86
v 5071.49 14.016 4123.61
v 5071.49 14.016 4123.61
v 5071.27 14.3346 4123.61
v 5071.34 14.016 4123.86
v 5071.22 14.5074 4123.61
v 5071.18 14.5661 4123.86
v 5071.27 14.3346 4123.61
v 5071.34 14.016 4123.86
v 5070.91 14.9495 4123.61
v 5070.91 14.9794 4123.72
v 5070.91 14.9794 4123.86
v 5070.91 14.9363 4124.11
v 5071.14 14.5251 4124.11
v 5071.2 14.3307 4124.11
v 5071.2 14.016 4124.11
v 5071.2 14.016 4124.11
v 5072.33 14.4879 4123.61
v 5072.86 14.1869 4123.61
v 5072.29 14.6495 4123.86
v 5072.91 14.1869 4123.86
v 5073.28 14.9328 4123.86
v 5073.77 15.0111 4123.86
v 5073.31 14.9287 4123.97
v 5073.52 14.8601 4124.11
v 5073.33 14.779 4123.61
v 5073.77 14.9528 4123.61
v 5073.32 14.7946 4123.67
v 5072.91 14.1869 4123.86
v 5072.29 14.5085 4124.04
v 5072.44 14.3255 4124.04
v 5072.69 14.1504 4124.1
v 5073.25 14.6378 4124.11
v 5073.1 14.7167 4123.86
v 5073.33 14.7932 4124.11
v 5073.28 14.7932 4123.86
v 5073.43 14.1374 4124.11
v 5073.24 14.2796 4123.86
v 5073.25 14.6378 4124.11
v 5073.1 14.7167 4123.86
v 5073.1 13.0769 4124.11
v 5073.1 13.3284 4123.86
v 5073.03 13.1173 4124.11
v 5073.1 13.3284 4123.86
v 5073.05 13.4561 4123.86
v 5073 13.1307 4123.61
v 5073.1 13.0769 4123.61
v 5073.1 13.0769 4123.61
v 5073.29 14.0282 4123.61
v 5073.15 14.7167 4123.61
v 5073.33 14.779 4123.61
v 5073.32 14.7946 4123.67
v 5073.15 14.7167 4123.61
v 5071.65 15.7112 4123.61
v 5072.09 14.7445 4123.61
v 5071.65 15.7112 4123.86
v 5072.25 14.6885 4123.76
v 5072 15.1643 4123.86
v 5073.1 13.0769 4124.11
v 5075.29 14.9256 4123.86
v 5075.53 14.9518 4123.7
v 5076.05 15.3168 4123.86
v 5075.78 15.026 4123.65
v 5076.05 14.9963 4123.7
v 5076.81 15.109 4123.7
v 5076.81 15.2097 4123.86
v 5076.46 14.9805 4123.7
v 5076.3 14.9182 4123.7
v 5075.29 15.0454 4123.61
v 5077.17 15.7112 4123.61
v 5077.17 15.7112 4123.86
v 5078.91 13.9223 4123.86
v 5078.91 13.9828 4124.11
v 5078.47 14.9329 4123.86
v 5078.5 14.962 4124.11
v 5078.53 14.9909 4123.61
v 5078.91 13.9108 4123.72
v 5078.91 13.978 4123.61
v 5072.12 14.6687 4124.04
v 5071.94 15.1529 4124.04
v 5071.65 15.7112 4124.11
v 5073.32 14.7946 4123.67
v 5073.28 14.9328 4123.86
v 5073.28 14.7932 4123.86
v 5073.33 14.8987 4124.11
v 5073.33 14.7932 4124.11
v 5073.31 14.9287 4123.97
v 5073.33 14.8987 4124.11
v 5074.53 15.103 4123.86
v 5074.91 15.1658 4124.11
v 5075.29 15.0771 4124.11
v 5075.67 14.9568 4124.11
v 5075.67 14.9568 4124.11
v 5076.05 15.1524 4124.11
v 5076.43 15.2631 4124.11
v 5076.81 15.2095 4124.11
v 5077.17 15.7112 4124.11
v 5074.91 14.9953 4123.61
v 5074.53 15.0841 4123.61
v 5074.15 14.9987 4123.61
v 5073.77 15.0351 4124.11
v 5074.15 15.0811 4124.11
v 5074.53 15.1259 4124.11
v 5078.32 15.1551 4123.61
v 5077.81 15.4572 4123.86
v 5077.86 15.4998 4123.61
v 5077.68 15.7112 4123.61
v 5077.66 15.7112 4123.7
v 5077.71 15.7112 4123.86
v 5077.69 15.7112 4124
v 5077.78 15.4242 4124.11
v 5077.67 15.7112 4124.11
v 5078.24 15.1711 4124.11
v 5071.37 12.2366 4123.49
v 5071.61 12.1853 4123.1
v 5071.72 12.2343 4123.32
v 5071.97 12.3318 4123.17
v 5072.09 12.2345 4122.84
v 5072.28 12.3638 4123
v 5072.79 11.9864 4122.81
v 5072.28 12.3638 4123
v 5072.59 11.9481 4122.63
v 5072.09 12.2345 4122.84
v 5072.53 11.9245 4122.5
v 5072.02 12.2371 4122.59
v 5072.5 11.9068 4122.4
v 5071.75 12.2102 4122.73
v 5072.02 12.2371 4122.59
v 5071.49 12.1404 4122.88
v 5071.06 12.4218 4123.34
v 5071.3 12.3216 4122.94
v 5070.94 12.5283 4123.09
v 5070.94 12.5283 4123.09
v 5070.67 12.3232 4123.27
v 5070.52 12.2781 4123.36
v 5070.58 12.2784 4123.61
v 5070.16 11.9957 4123.72
v 5070.14 11.9776 4123.61
v 5070.22 12.0193 4123.84
v 5070.38 12.059 4124.04
v 5070.73 12.2778 4123.82
v 5070.9 12.3285 4123.72
v 5071.18 12.3203 4123.58
v 5075.64 11.7014 4124
v 5075.59 11.6601 4123.52
v 5076.54 12.0456 4123.83
v 5076.48 12.0294 4123.47
v 5077.31 12.2184 4123.83
v 5077.23 12.0294 4123.45
v 5078.29 11.6879 4123.49
v 5078.27 11.6974 4123.81
v 5076.08 11.5907 4123.25
v 5076.63 11.669 4123.12
v 5077.18 11.5546 4123.1
v 5077.85 11.6339 4123.25
v 5073.35 11.6016 4124.06
v 5073.27 11.6059 4124.28
v 5072.57 12.0626 4124.04
v 5072.69 11.8046 4124.23
v 5071.96 11.8508 4124.33
v 5072.11 12.102 4124.07
v 5071.33 11.7599 4124.09
v 5071.52 11.6019 4124.49
v 5073.05 11.6013 4124.41
v 5072.69 11.6036 4124.45
v 5072.04 11.6021 4124.56
v 5071.23 11.6066 4124.09
v 5078.17 15.0736 4123.84
v 5078.15 15.5758 4123.84
v 5078.13 15.5703 4123.84
v 5078.15 15.0681 4123.84
v 5078.12 15.5676 4123.86
v 5078.14 15.0654 4123.86
v 5078.13 15.5703 4123.88
v 5078.15 15.0681 4123.88
v 5078.13 15.5703 4123.88
v 5078.15 15.5758 4123.88
v 5078.17 15.0736 4123.88
v 5078.15 15.0681 4123.88
v 5078.16 15.5785 4123.86
v 5078.18 15.0763 4123.86
v 5078.15 15.5758 4123.84
v 5078.17 15.0736 4123.84
v 5078.15 15.5758 4123.84
v 5078.16 15.5785 4123.86
v 5078.13 15.5703 4123.84
v 5078.15 15.5758 4123.88
v 5078.12 15.5676 4123.86
v 5078.13 15.5703 4123.88
v 5076.21 14.9846 4123.84
v 5076.22 14.9783 4123.84
v 5076.6 15.4229 4123.84
v 5076.59 15.4414 4123.84
v 5076.59 15.4506 4123.86
v 5076.2 14.9878 4123.86
v 5076.59 15.4414 4123.88
v 5076.21 14.9846 4123.88
v 5076.6 15.4229 4123.88
v 5076.22 14.9783 4123.88
v 5076.21 14.9846 4123.88
v 5076.59 15.4414 4123.88
v 5076.61 15.4137 4123.86
v 5076.23 14.9751 4123.86
v 5076.22 14.9783 4123.84
v 5076.6 15.4229 4123.84
v 5077.1 15.5007 4123.84
v 5077.09 15.5192 4123.84
v 5077.09 15.5285 4123.86
v 5077.09 15.5192 4123.88
v 5077.09 15.5192 4123.88
v 5077.1 15.5007 4123.88
v 5077.1 15.4915 4123.86
v 5077.1 15.5007 4123.84
v 5075.19 15.7312 4123.84
v 5075.18 15.7149 4123.84
v 5075.49 15.2244 4123.84
v 5075.51 15.2263 4123.84
v 5075.52 15.2273 4123.86
v 5075.2 15.7394 4123.86
v 5075.51 15.2263 4123.88
v 5075.19 15.7312 4123.88
v 5075.49 15.2244 4123.88
v 5075.18 15.7149 4123.88
v 5075.19 15.7312 4123.88
v 5075.51 15.2263 4123.88
v 5075.48 15.2235 4123.86
v 5075.17 15.7068 4123.86
v 5075.18 15.7149 4123.84
v 5075.49 15.2244 4123.84
v 5075.42 14.7267 4123.84
v 5075.44 14.7286 4123.84
v 5075.45 14.7295 4123.86
v 5075.44 14.7286 4123.88
v 5075.44 14.7286 4123.88
v 5075.42 14.7267 4123.88
v 5075.41 14.7257 4123.86
v 5075.42 14.7267 4123.84
v 5075.18 15.7149 4123.84
v 5075.19 15.7312 4123.84
v 5075.17 15.7068 4123.86
v 5075.19 15.7312 4123.88
v 5075.18 15.7149 4123.88
v 5075.2 15.7394 4123.86
v 5074.07 14.9402 4123.71
v 5074.13 15.439 4123.71
v 5074.11 15.4368 4123.71
v 5074.05 14.9379 4123.71
v 5074.1 15.4356 4123.72
v 5074.04 14.9368 4123.72
v 5074.11 15.4368 4123.74
v 5074.05 14.9379 4123.74
v 5074.11 15.4368 4123.74
v 5074.13 15.439 4123.74
v 5074.07 14.9402 4123.74
v 5074.05 14.9379 4123.74
v 5074.14 15.4401 4123.72
v 5074.08 14.9413 4123.72
v 5074.13 15.439 4123.71
v 5074.07 14.9402 4123.71
v 5074.13 15.439 4123.71
v 5074.14 15.4401 4123.72
v 5074.11 15.4368 4123.71
v 5074.11 15.4368 4123.74
v 5074.1 15.4356 4123.72
v 5074.13 15.439 4123.74
v 5073.21 14.7003 4123.84
v 5073.2 14.6848 4123.84
v 5072.63 14.7409 4123.76
v 5072.62 14.7573 4123.76
v 5072.62 14.7573 4123.74
v 5073.22 14.6997 4123.82
v 5072.62 14.7408 4123.73
v 5073.21 14.6837 4123.81
v 5072.63 14.7244 4123.73
v 5073.2 14.6682 4123.81
v 5073.21 14.6837 4123.81
v 5072.62 14.7408 4123.73
v 5072.63 14.7245 4123.75
v 5073.2 14.6687 4123.83
v 5073.2 14.6848 4123.84
v 5072.63 14.7409 4123.76
v 5072.2 14.4912 4123.87
v 5072.2 14.5076 4123.86
v 5072.19 14.5075 4123.84
v 5072.2 14.491 4123.83
v 5072.2 14.491 4123.83
v 5072.21 14.4746 4123.83
v 5072.21 14.4747 4123.85
v 5072.2 14.4912 4123.87
v 5072.38 13.9458 4123.82
v 5072.39 13.8982 4123.82
v 5074.3 14.5077 4123.82
v 5074.28 14.5553 4123.82
v 5072.4 13.8744 4123.86
v 5074.31 14.4838 4123.86
v 5072.39 13.8982 4123.9
v 5074.3 14.5077 4123.9
v 5072.39 13.8982 4123.9
v 5072.38 13.9458 4123.9
v 5074.28 14.5553 4123.9
v 5074.3 14.5077 4123.9
v 5072.37 13.9696 4123.86
v 5074.28 14.5791 4123.86
v 5072.38 13.9458 4123.82
v 5074.28 14.5553 4123.82
v 5073.4 13.7743 4123.67
v 5073.38 13.7603 4123.66
v 5072.85 13.7856 4123.89
v 5072.85 13.7997 4123.91
v 5073.4 13.7923 4123.66
v 5072.84 13.8178 4123.9
v 5072.84 13.8217 4123.88
v 5073.39 13.7963 4123.64
v 5072.84 13.8077 4123.87
v 5073.37 13.7824 4123.64
v 5073.39 13.7963 4123.64
v 5072.84 13.8217 4123.88
v 5072.85 13.7896 4123.87
v 5073.37 13.7644 4123.65
v 5073.38 13.7603 4123.66
v 5072.85 13.7856 4123.89
v 5069.43 12.1207 4118.53
v 5069.43 11.9472 4118.16
v 5069.43 12.0035 4117.87
v 5069.43 11.8131 4117.88
v 5069.43 14.8124 4119.81
v 5069.43 15.2667 4120.45
v 5069.43 14.2766 4121.47
v 5069.43 15.1859 4121.1
v 5069.69 15.8131 4115.35
v 5069.59 15.3791 4115.84
v 5069.59 15.4505 4115.3
v 5069.43 11.8131 4114.71
v 5069.43 12.135 4117.3
v 5069.43 12.5538 4117.06
v 5069.43 12.864 4116.61
v 5069.43 13.1255 4116.61
v 5069.43 14.4618 4114.71
v 5069.43 13.9335 4116.39
v 5069.48 14.4093 4116.23
v 5069.5 14.6968 4116.05
v 5069.43 11.8131 4107.54
v 5069.43 12.7122 4107.36
v 5069.43 12.6383 4107.68
v 5069.43 11.8131 4109.71
v 5069.43 13.0241 4108.52
v 5069.43 12.7804 4109.66
v 5069.43 11.8131 4120.49
v 5069.43 12.6636 4118.76
v 5069.43 12.8581 4119
v 5069.43 13.0106 4119.15
v 5069.43 13.628 4121.75
v 5069.43 13.3039 4121.95
v 5069.43 12.9833 4122.23
v 5069.43 12.617 4122.37
v 5069.43 11.8131 4122.71
v 5069.43 12.3589 4122.71
v 5069.43 13.4846 4119.55
v 5069.43 14.0666 4121.64
v 5069.43 14.2292 4119.64
v 5069.43 14.6551 4119.74
v 5069.43 13.3826 4111.26
v 5069.43 13.2896 4110.8
v 5069.43 13.554 4111.07
v 5069.43 13.65 4110.84
v 5069.43 12.2868 4106.82
v 5069.43 11.9448 4106.71
v 5069.43 11.8131 4106.71
v 5069.43 12.4906 4107.13
v 5069.43 12.6717 4107.28
v 5069.93 12.3589 4106.71
v 5069.55 12.2959 4106.71
v 5069.93 11.8131 4106.71
v 5069.43 11.9448 4106.71
v 5069.43 11.8131 4106.71
v 5069.43 12.7981 4110.3
v 5069.43 11.8131 4111.65
v 5069.43 13.2903 4111.42
v 5069.43 13.1357 4111.6
v 5069.43 12.8707 4111.69
v 5069.43 12.5514 4111.7
v 5069.43 12.2 4111.79
v 5069.43 11.8131 4112.15
v 5069.43 14.4948 4113.75
v 5069.43 14.1484 4112.92
v 5069.43 13.9249 4112.25
v 5069.43 13.6221 4112.01
v 5069.43 12.5692 4111.79
v 5069.43 12.8895 4111.79
v 5069.43 13.5374 4111.93
v 5069.43 13.4077 4111.85
v 5069.43 13.1743 4111.76
v 5069.64 14.585 4112.78
v 5069.7 15.2495 4113
v 5069.43 14.1484 4112.92
v 5069.43 14.4618 4114.71
v 5069.43 14.4948 4113.75
v 5069.67 15.8131 4114.58
v 5069.71 15.8131 4113.74
v 5069.43 13.9249 4112.25
v 5069.75 15.8131 4115
v 5069.59 15.4505 4115.3
v 5069.69 15.8131 4115.35
v 5069.51 13.4581 4107.88
v 5069.66 13.6223 4108.67
v 5069.43 13.0241 4108.52
v 5069.43 12.6383 4107.68
v 5069.43 12.7122 4107.36
v 5069.43 12.7981 4110.3
v 5069.66 14.2808 4109.88
v 5069.58 13.7438 4110.6
v 5069.68 14.2422 4109.18
v 5069.43 12.7804 4109.66
v 5069.43 13.2896 4110.8
v 5069.43 13.65 4110.84
v 5069.43 13.4077 4111.85
v 5069.43 13.1743 4111.76
v 5069.49 13.345 4111.62
v 5069.49 13.1396 4111.69
v 5069.43 13.2903 4111.42
v 5069.43 13.1357 4111.6
v 5069.49 12.8734 4111.74
v 5069.43 12.8707 4111.69
v 5069.43 12.8895 4111.79
v 5069.49 12.8734 4111.74
v 5069.49 12.5384 4111.74
v 5069.43 12.5514 4111.7
v 5069.49 12.5384 4111.74
v 5069.43 12.5692 4111.79
v 5069.43 12.2 4111.79
v 5069.43 12.2 4111.79
v 5069.93 11.8131 4106.71
v 5069.93 11.8131 4109.25
v 5069.93 12.3589 4106.71
v 5069.93 12.42 4106.81
v 5069.93 12.6282 4107.34
v 5069.93 13.1734 4107.88
v 5069.93 13.5471 4108.38
v 5069.93 13.6062 4108.66
v 5069.93 13.3171 4111.48
v 5069.93 13.7041 4110.65
v 5069.93 14.2593 4109.98
v 5069.93 14.2218 4109.14
v 5069.93 11.8131 4117.82
v 5069.93 12.0339 4117.51
v 5069.93 11.8131 4114.71
v 5069.93 12.1578 4117.17
v 5069.93 11.8131 4122.71
v 5069.43 12.3589 4122.71
v 5069.93 12.1845 4122.71
v 5069.82 12.3589 4122.71
v 5069.43 11.8131 4122.71
v 5069.93 13.6985 4121.92
v 5069.93 12.983 4121.6
v 5069.93 13.2785 4122.14
v 5069.93 12.7188 4122.13
v 5069.93 12.4258 4122.3
v 5069.93 12.7573 4120.3
v 5069.93 15.8131 4113.75
v 5069.93 15.1933 4113.93
v 5069.93 15.8131 4114.71
v 5069.93 12.9071 4112.59
v 5069.93 11.8131 4111.46
v 5069.93 13.2523 4111.95
v 5069.93 11.8131 4120.23
v 5069.93 11.8131 4122.71
v 5069.93 12.1845 4122.71
v 5069.93 13.4376 4119.7
v 5069.93 13.366 4119.42
v 5069.93 12.8797 4118.93
v 5069.93 12.994 4116.5
v 5069.93 13.6279 4113.55
v 5069.93 13.917 4116.31
v 5069.93 14.6358 4115.97
v 5069.93 14.7076 4113.69
v 5069.93 14.9361 4115.93
v 5069.93 15.3036 4115.71
v 5069.93 15.6373 4115.58
v 5069.93 15.8131 4115.41
v 5069.93 11.8131 4118.16
v 5069.93 12.1071 4118.48
v 5069.93 12.3243 4118.57
v 5069.93 13.3171 4111.48
v 5069.93 13.2523 4111.95
v 5069.76 13.5838 4112.03
v 5069.8 15.1936 4113.01
v 5069.76 14.5638 4112.78
v 5069.93 14.7076 4113.69
v 5069.93 13.6279 4113.55
v 5069.93 12.9071 4112.59
v 5069.93 15.8131 4113.75
v 5069.83 15.5576 4113.43
v 5069.93 15.1933 4113.93
v 5069.93 13.6985 4121.92
v 5069.73 14.2738 4121.39
v 5069.93 12.983 4121.6
v 5069.93 12.7573 4120.3
v 5069.93 13.4376 4119.7
v 5069.71 14.7703 4119.73
v 5069.65 15.2574 4120.38
v 5069.64 15.1779 4121.05
v 5069.84 13.9422 4119.47
v 5069.93 13.366 4119.42
v 5069.93 15.8131 4114.71
v 5069.67 15.8131 4114.58
v 5069.93 15.8131 4113.75
v 5069.71 15.8131 4113.74
v 5069.75 15.8131 4115
v 5069.93 15.8131 4115.41
v 5069.69 15.8131 4115.35
v 5069.78 12.696 4107.31
v 5069.72 13.1128 4107.6
v 5069.43 12.7122 4107.36
v 5069.51 13.4581 4107.88
v 5069.76 13.3848 4107.83
v 5069.93 13.6062 4108.66
v 5069.51 13.4581 4107.88
v 5069.93 13.5471 4108.38
v 5069.76 13.3848 4107.83
v 5069.66 13.6223 4108.67
v 5069.68 14.2422 4109.18
v 5069.66 13.6223 4108.67
v 5069.93 14.2218 4109.14
v 5069.93 13.6062 4108.66
v 5069.93 14.2593 4109.98
v 5069.66 14.2808 4109.88
v 5069.93 14.2218 4109.14
v 5069.68 14.2422 4109.18
v 5069.66 14.2808 4109.88
v 5069.93 14.2593 4109.98
v 5069.58 13.7438 4110.6
v 5069.93 13.7041 4110.65
v 5069.43 13.65 4110.84
v 5069.5 14.6968 4116.05
v 5069.78 14.2102 4116.34
v 5069.48 14.4093 4116.23
v 5069.58 13.8977 4116.54
v 5069.78 13.921 4116.52
v 5069.93 14.6358 4115.97
v 5069.58 13.0483 4116.77
v 5069.76 13.1406 4116.72
v 5069.6 12.706 4116.94
v 5069.93 12.1578 4117.17
v 5069.43 12.5538 4117.06
v 5069.43 12.135 4117.3
v 5069.82 12.0392 4117.72
v 5069.93 12.0339 4117.51
v 5069.43 12.0035 4117.87
v 5069.76 12.0101 4117.84
v 5069.43 12.1207 4118.53
v 5069.75 12.1121 4118.5
v 5069.74 12.0714 4118.21
v 5069.71 14.7703 4119.73
v 5069.65 15.2574 4120.38
v 5069.43 14.8124 4119.81
v 5069.43 15.2667 4120.45
v 5069.65 15.2574 4120.38
v 5069.64 15.1779 4121.05
v 5069.43 15.2667 4120.45
v 5069.43 15.1859 4121.1
v 5069.43 14.2766 4121.47
v 5069.43 15.1859 4121.1
v 5069.73 14.2738 4121.39
v 5069.64 15.1779 4121.05
v 5069.93 13.6985 4121.92
v 5069.61 13.6712 4121.94
v 5069.53 13.8575 4121.77
v 5069.43 14.0666 4121.64
v 5069.58 13.376 4122.12
v 5069.8 12.9399 4122.23
v 5069.43 12.9833 4122.23
v 5069.43 12.617 4122.37
v 5069.72 12.6477 4122.35
v 5069.93 13.2785 4122.14
v 5069.82 12.3589 4122.71
v 5069.43 12.3589 4122.71
v 5069.76 13.5838 4112.03
v 5069.76 14.5638 4112.78
v 5069.43 13.6221 4112.01
v 5069.43 13.9249 4112.25
v 5069.64 14.585 4112.78
v 5069.7 15.2495 4113
v 5069.64 14.585 4112.78
v 5069.8 15.1936 4113.01
v 5069.76 14.5638 4112.78
v 5069.93 15.8131 4113.75
v 5069.71 15.8131 4113.74
v 5069.83 15.5576 4113.43
v 5069.7 15.2495 4113
v 5069.8 15.1936 4113.01
v 5069.43 12.1207 4118.53
v 5069.75 12.1121 4118.5
v 5069.8 12.8138 4118.79
v 5069.93 12.3243 4118.57
v 5069.84 13.9422 4119.47
v 5069.76 13.3295 4119.24
v 5069.93 13.366 4119.42
v 5069.8 12.8138 4118.79
v 5069.93 12.8797 4118.93
v 5069.93 12.3243 4118.57
v 5069.78 14.2102 4116.34
v 5069.93 14.6358 4115.97
v 5069.93 13.917 4116.31
v 5069.93 12.1578 4117.17
v 5069.76 13.1406 4116.72
v 5069.93 12.994 4116.5
v 5069.78 13.921 4116.52
v 5069.8 12.9399 4122.23
v 5069.93 13.2785 4122.14
v 5069.93 12.7188 4122.13
v 5069.72 12.6477 4122.35
v 5069.93 12.4258 4122.3
v 5069.82 12.3589 4122.71
v 5069.93 12.1845 4122.71
v 5069.93 13.5471 4108.38
v 5069.76 13.3848 4107.83
v 5069.93 13.1734 4107.88
v 5069.72 13.1128 4107.6
v 5069.93 12.3589 4106.71
v 5069.93 12.42 4106.81
v 5069.74 12.5589 4107.06
v 5069.93 12.6282 4107.34
v 5069.78 12.696 4107.31
v 5069.48 14.4093 4116.23
v 5069.58 13.8977 4116.54
v 5069.43 13.9335 4116.39
v 5069.58 13.0483 4116.77
v 5069.43 13.1255 4116.61
v 5069.6 12.706 4116.94
v 5069.43 12.864 4116.61
v 5069.43 12.5538 4117.06
v 5069.86 15.469 4115.72
v 5069.69 15.8131 4115.35
v 5069.93 15.6373 4115.58
v 5069.93 15.8131 4115.41
v 5069.59 15.3791 4115.84
v 5069.85 15.262 4115.9
v 5069.93 14.9361 4115.93
v 5069.86 15.469 4115.72
v 5069.93 15.6373 4115.58
v 5069.93 15.3036 4115.71
v 5069.85 15.262 4115.9
v 5069.93 14.9361 4115.93
v 5069.93 12.1071 4118.48
v 5069.93 12.0339 4117.51
v 5069.93 11.8131 4117.82
v 5069.82 12.0392 4117.72
v 5069.76 12.0101 4117.84
v 5069.93 11.8131 4118.16
v 5069.75 12.1121 4118.5
v 5069.74 12.0714 4118.21
v 5069.93 11.8131 4118.16
v 5069.83 11.8131 4117.99
v 5069.52 14.3065 4119.59
v 5069.43 14.6551 4119.74
v 5069.55 13.9487 4119.49
v 5069.84 13.9422 4119.47
v 5069.76 13.3295 4119.24
v 5069.57 13.3972 4119.3
v 5069.55 12.9052 4118.85
v 5069.43 12.6636 4118.76
v 5069.52 14.3065 4119.59
v 5069.43 14.6551 4119.74
v 5069.43 14.2292 4119.64
v 5069.43 12.8581 4119
v 5069.55 12.9052 4118.85
v 5069.43 13.0106 4119.15
v 5069.57 13.3972 4119.3
v 5069.43 13.4846 4119.55
v 5069.43 12.6636 4118.76
v 5069.55 13.9487 4119.49
v 5069.52 14.3065 4119.59
v 5069.43 14.2292 4119.64
v 5069.53 13.8575 4121.77
v 5069.43 13.628 4121.75
v 5069.43 14.0666 4121.64
v 5069.61 13.6712 4121.94
v 5069.43 13.3039 4121.95
v 5069.58 13.376 4122.12
v 5069.43 12.9833 4122.23
v 5069.76 13.5838 4112.03
v 5069.69 13.3743 4111.61
v 5069.93 13.3171 4111.48
v 5069.93 13.3171 4111.48
v 5069.59 13.3615 4111.43
v 5069.53 13.468 4111.26
v 5069.43 13.554 4111.07
v 5069.43 13.4077 4111.85
v 5069.43 13.2903 4111.42
v 5069.43 13.3826 4111.26
v 5069.49 13.345 4111.62
v 5069.43 13.2903 4111.42
v 5069.74 12.5589 4107.06
v 5069.54 12.4304 4106.83
v 5069.93 12.3589 4106.71
v 5069.55 12.2959 4106.71
v 5069.43 12.4906 4107.13
v 5069.55 12.2959 4106.71
v 5069.43 12.2868 4106.82
v 5069.43 11.9448 4106.71
v 5069.43 12.4906 4107.13
v 5069.54 12.4304 4106.83
v 5069.43 13.5374 4111.93
v 5069.43 13.4077 4111.85
v 5069.43 12.6717 4107.28
v 5070.2 11.8131 4116.82
v 5070.2 12.0425 4117.16
v 5069.93 11.8131 4117.06
v 5070.2 11.8131 4117.63
v 5070.2 12.0425 4117.54
v 5070.49 11.8131 4117.47
v 5070.37 12.013 4117.49
v 5070.2 12.0425 4117.31
v 5069.95 11.8131 4117.54
v 5070.44 11.8131 4117.16
v 5070.51 11.8871 4112.53
v 5070.38 12.0181 4112.72
v 5070.31 11.8871 4112.56
v 5070.25 11.8871 4112.91
v 5070.28 12.0181 4112.83
v 5070.44 11.8871 4112.93
v 5070.38 12.0013 4112.86
v 5070.16 11.8871 4112.79
v 5070.52 11.8871 4112.77
v 5070.43 11.8131 4112.89
v 5070.28 11.8131 4112.88
v 5070.21 11.8131 4112.78
v 5070.32 11.8131 4112.59
v 5070.49 11.8131 4112.57
v 5070.49 11.8131 4112.76
v 5070.15 11.9535 4111
v 5070.25 11.9535 4111.03
v 5070.16 11.9535 4111.16
v 5070.24 11.9535 4111.11
v 5070.02 11.8225 4111.11
v 5070.01 11.8225 4110.81
v 5070.13 11.8225 4110.79
v 5070.4 11.8225 4110.88
v 5070.36 11.8225 4111.14
v 5070.24 11.8225 4111.25
v 5070.1 11.8225 4111.27
v 5069.93 11.8131 4110.24
v 5070.14 11.8131 4111.06
v 5069.93 11.9694 4110.91
v 5069.93 11.8131 4114.76
v 5069.93 11.9115 4114.01
v 5070.2 11.8131 4114.25
v 5070.15 11.8131 4112.95
v 5069.93 12.0061 4113.34
v 5069.93 12.093 4112.27
v 5070.35 11.8131 4112.2
v 5069.93 11.9358 4111.38
v 5070.24 11.8131 4111.48
v 5070.45 11.847 4112.42
v 5070.31 11.915 4112.38
v 5070.44 11.8506 4112.31
v 5070.26 11.858 4112.47
v 5070.23 11.8558 4112.36
v 5070.27 11.8529 4112.28
v 5070.37 11.8562 4112.47
v 5070.28 11.8131 4112.45
v 5070.25 11.8114 4112.36
v 5070.29 11.809 4112.3
v 5070.42 11.8072 4112.33
v 5070.43 11.8032 4112.41
v 5070.37 11.8117 4112.46
v 5069.93 11.8131 4118.38
v 5070.14 11.8131 4118.85
v 5069.93 11.912 4118.76
v 5069.93 11.8131 4120.99
v 5069.93 11.8754 4120.55
v 5070.2 11.8131 4120.69
v 5070.22 11.8131 4120.38
v 5069.93 11.9902 4119.55
v 5070.15 11.8131 4119.94
v 5070.35 11.8131 4119.51
v 5069.93 11.8907 4119.04
v 5070.24 11.8131 4119.09
v 5069.43 11.8131 4116.16
v 5069.43 11.912 4116.55
v 5069.22 11.8131 4116.63
v 5069.43 11.8131 4118.77
v 5069.17 11.8131 4118.48
v 5069.43 11.9352 4117.95
v 5069.15 11.8131 4118.16
v 5069.22 11.8131 4117.73
v 5069.43 11.9902 4117.33
v 5069.02 11.8131 4117.29
v 5069.43 11.8907 4116.82
v 5069.13 11.8131 4116.88
v 5069.22 11.8131 4110.37
v 5069.43 11.8131 4109.7
v 5069.43 11.8907 4110.63
v 5069.43 11.8131 4113.38
v 5069.17 11.8131 4112.96
v 5069.43 11.8754 4112.76
v 5069.15 11.8131 4112.51
v 5069.43 11.9902 4111.35
v 5069.22 11.8131 4111.9
v 5069.02 11.8131 4111.29
v 5069.13 11.8131 4110.71
v 5069.06 11.8871 4111.65
v 5069.13 12.0181 4111.88
v 5068.96 11.8871 4111.83
v 5069.2 11.8871 4112.09
v 5069.15 12.0181 4112.02
v 5069.33 11.8871 4111.95
v 5069.24 12.0013 4111.96
v 5069.05 11.8871 4112.09
v 5069.25 11.8871 4111.79
v 5069.29 11.8131 4111.94
v 5069.19 11.8131 4112.05
v 5069.07 11.8131 4112.05
v 5068.99 11.8131 4111.84
v 5069.08 11.8131 4111.69
v 5069.23 11.8131 4111.81
v 5069.22 11.8581 4111.59
v 5069.08 11.9179 4111.56
v 5069.21 11.8627 4111.49
v 5069.03 11.8566 4111.64
v 5069 11.8542 4111.53
v 5069.05 11.8555 4111.46
v 5069.14 11.8613 4111.65
v 5069.05 11.8131 4111.63
v 5069.03 11.8112 4111.54
v 5069.07 11.8123 4111.48
v 5069.2 11.8181 4111.5
v 5069.2 11.8128 4111.59
v 5069.14 11.8169 4111.63
v 5069.95 12.216 4117.93
v 5069.73 12.3009 4118
v 5069.76 12.2009 4117.91
v 5070.45 11.8131 4118.2
v 5070.39 11.9161 4118.2
v 5070.44 12.0346 4118.12
v 5070.32 12.0786 4118.23
v 5070.45 12.0291 4117.8
v 5070.45 11.9332 4117.99
v 5070.42 12.0421 4117.95
v 5070.42 12.0421 4117.95
v 5070.44 12.0346 4118.12
v 5070.45 11.8131 4118.2
v 5069.65 12.3285 4118.26
v 5069.79 12.2769 4118.24
v 5069.68 12.2814 4118.32
v 5070.32 12.0786 4118.23
v 5070.13 12.0562 4118.25
v 5070.11 12.1567 4118.2
v 5069.68 12.2814 4118.32
v 5069.79 12.2769 4118.24
v 5069.81 12.2258 4118.3
v 5069.94 12.2203 4118.21
v 5069.88 12.1031 4118.29
v 5070.35 11.8503 4117.64
v 5070.42 12.0395 4117.64
v 5070.24 12.1083 4117.65
v 5070.11 12.1571 4117.8
v 5070.06 12.0862 4117.74
v 5069.6 12.3309 4118.06
v 5070.29 12.0012 4111.47
v 5070.1 12.0153 4111.55
v 5070.22 11.9403 4111.39
v 5070.07 11.9205 4111.51
v 5070.73 11.9035 4111.55
v 5070.75 11.8131 4111.82
v 5070.68 11.8858 4111.81
v 5070.7 11.9722 4111.31
v 5070.67 11.9846 4111.5
v 5070.69 11.9957 4111.7
v 5070.61 12.007 4111.83
v 5070.03 12.0362 4111.86
v 5070.15 12.0296 4111.84
v 5070.04 11.9761 4111.94
v 5070.18 11.9951 4111.92
v 5070.57 12.0097 4111.84
v 5070.46 11.9374 4111.86
v 5070.42 12.0142 4111.8
v 5070.28 12.0219 4111.81
v 5070.25 11.9065 4111.91
v 5070.67 11.8222 4111.13
v 5070.7 11.9722 4111.31
v 5070.68 11.9621 4111.12
v 5070.53 11.9699 4111.12
v 5070.42 11.9862 4111.31
v 5070.4 11.9047 4111.24
v 5070 12.0264 4111.67
v 5069.99 11.9899 4111.58
v 5070.04 11.8234 4111.95
v 5069.98 11.8284 4111.59
v 5070.04 11.9761 4111.94
v 5070.03 12.0362 4111.86
v 5070 12.0264 4111.67
v 5069.99 11.9899 4111.58
v 5069.6 12.3309 4118.06
v 5069.52 12.1615 4118.02
v 5069.76 12.2009 4117.91
v 5070.17 11.9191 4117.65
v 5070.06 12.0862 4117.74
v 5070.24 12.1083 4117.65
v 5070.35 11.8503 4117.64
v 5070.42 12.0395 4117.64
v 5070.45 11.8131 4118.2
v 5069.6 12.1334 4118.32
v 5070.39 11.9161 4118.2
v 5069.68 12.2814 4118.32
v 5069.81 12.2258 4118.3
v 5069.88 12.1031 4118.29
v 5070.13 12.0562 4118.25
v 5070.32 12.0786 4118.23
v 5069.68 12.2814 4118.32
v 5069.6 12.1334 4118.32
v 5069.65 12.3285 4118.26
v 5069.52 12.1615 4118.02
v 5069.6 12.3309 4118.06
v 5070.53 11.9699 4111.12
v 5070.4 11.9047 4111.24
v 5070.52 11.8246 4111.14
v 5069.98 11.8284 4111.59
v 5070.22 11.9403 4111.39
v 5070.07 11.9205 4111.51
v 5069.99 11.9899 4111.58
v 5070.67 11.8222 4111.13
v 5070.68 11.9621 4111.12
v 5070.75 11.8131 4111.82
v 5070.04 11.8234 4111.95
v 5070.68 11.8858 4111.81
v 5070.04 11.9761 4111.94
v 5070.18 11.9951 4111.92
v 5070.25 11.9065 4111.91
v 5070.46 11.9374 4111.86
v 5070.57 12.0097 4111.84
v 5070.61 12.007 4111.83
v 5070.45 11.8131 4118.2
v 5070.35 11.8503 4117.64
v 5069.6 12.1334 4118.32
v 5070.17 11.9191 4117.65
v 5069.52 12.1615 4118.02
v 5069.65 12.3285 4118.26
v 5069.6 12.3309 4118.06
v 5069.79 12.2769 4118.24
v 5069.73 12.3009 4118
v 5069.95 12.216 4117.93
v 5069.94 12.2203 4118.21
v 5070.11 12.1567 4118.2
v 5070.11 12.1571 4117.8
v 5070.42 12.0395 4117.64
v 5070.45 12.0291 4117.8
v 5070.24 12.1083 4117.65
v 5070.42 12.0421 4117.95
v 5070.32 12.0786 4118.23
v 5070.44 12.0346 4118.12
v 5070.04 11.8234 4111.95
v 5070.75 11.8131 4111.82
v 5069.98 11.8284 4111.59
v 5070.67 11.8222 4111.13
v 5070.52 11.8246 4111.14
v 5070.03 12.0362 4111.86
v 5070 12.0264 4111.67
v 5070.15 12.0296 4111.84
v 5070.68 11.9621 4111.12
v 5070.7 11.9722 4111.31
v 5070.53 11.9699 4111.12
v 5070.42 11.9862 4111.31
v 5070.67 11.9846 4111.5
v 5070.29 12.0012 4111.47
v 5070.69 11.9957 4111.7
v 5070.61 12.007 4111.83
v 5070.57 12.0097 4111.84
v 5070.42 12.0142 4111.8
v 5070.28 12.0219 4111.81
v 5070.1 12.0153 4111.55
v 5060 12.1585 4132
v 5060 12.0389 4130
v 5060 12.0188 4128
v 5060 11.9007 4126
v 5060 11.8145 4124
v 5060 12.0113 4122
v 5060 12.0841 4120
v 5060 12.1478 4118
v 5060 12.1426 4116
v 5060 12.1728 4114
v 5060 12.046 4112
v 5060 12.1507 4110
v 5060 12.0471 4108
v 5060 12.0639 4106
v 5060 12.1051 4104
v 5062 12.1165 4132
v 5062 12.144 4130
v 5062 11.9876 4128
v 5062 11.9839 4126
v 5062 11.8579 4124
v 5062 12.0609 4122
v 5062 12.0234 4120
v 5062 12.0688 4118
v 5062 12.1421 4116
v 5062 12.7222 4114
v 5062 12.6964 4112
v 5062 12.1597 4110
v 5062 12.2706 4108
v 5062 12.0871 4106
v 5062 12.1122 4104
v 5064 12.1418 4132
v 5064 12.1443 4130
v 5064 12.0369 4128
v 5064 12.1012 4126
v 5064 12.0368 4124
v 5064 12.0934 4122
v 5064 12.1104 4120
v 5064 12.1718 4118
v 5064 12.1458 4116
v 5064 12.1688 4114
v 5064 12.5326 4112
v 5064 12.3173 4110
v 5064 12.1522 4108
v 5064 12.1754 4106
v 5064 12.1797 4104
v 5066 12.1223 4132
v 5066 12.1335 4130
v 5066 12.099 4128
v 5066 12.0435 4126
v 5066 12.1642 4124
v 5066 12.0694 4122
v 5066 12.0768 4120
v 5066 12.0791 4118
v 5066 12.0997 4116
v 5066 12.1065 4114
v 5066 12.1058 4112
v 5066 12.1208 4110
v 5066 12.1099 4108
v 5066 12.6277 4106
v 5066 12.0274 4104
v 5068 12.0269 4132
v 5068 12.0728 4130
v 5068 12.0388 4128
v 5068 12.0163 4126
v 5068 12.1087 4124
v 5068 12.0928 4122
v 5068 12.0187 4120
v 5068 11.9856 4118
v 5068 12.0521 4116
v 5068 12.0111 4114
v 5068 12.0326 4112
v 5068 12.1385 4110
v 5068 12.0139 4108
v 5068 11.9905 4106
v 5068 11.8942 4104
v 5070 12.0286 4132
v 5070 11.8926 4130
v 5070 12.0358 4128
v 5070 11.9589 4126
v 5070 12.0057 4124
v 5070 12.0543 4122
v 5070 12.0565 4120
v 5070 11.9139 4118
v 5070 11.9789 4116
v 5070 11.892 4114
v 5070 11.9162 4112
v 5070 11.8864 4110
v 5070 12.0288 4108
v 5070 11.9803 4106
v 5070 11.9618 4104
v 5072 11.9797 4132
v 5072 11.9746 4130
v 5072 11.9067 4128
v 5072 11.9461 4126
v 5072 12.0479 4124
v 5072 11.92 4122
v 5072 11.8626 4120
v 5072 11.8541 4118
v 5072 11.8044 4116
v 5072 11.6871 4114
v 5072 11.8756 4112
v 5072 11.8639 4110
v 5072 11.8641 4108
v 5072 11.7162 4106
v 5072 11.8396 4104
v 5074 11.9283 4132
v 5074 11.9668 4130
v 5074 11.9984 4128
v 5074 11.9394 4126
v 5074 11.8348 4124
v 5074 11.9427 4122
v 5074 11.7938 4120
v 5074 11.7684 4118
v 5074 11.6991 4116
v 5074 11.6932 4114
v 5074 11.7608 4112
v 5074 11.7584 4110
v 5074 11.7022 4108
v 5074 11.6812 4106
v 5074 11.9061 4104
v 5076 12.0757 4132
v 5076 12.0679 4130
v 5076 11.9746 4128
v 5076 11.9385 4126
v 5076 11.7964 4124
v 5076 11.8926 4122
v 5076 11.8268 4120
v 5076 11.8873 4118
v 5076 11.7002 4116
v 5076 11.7113 4114
v 5076 11.7592 4112
v 5076 11.7978 4110
v 5076 11.8262 4108
v 5076 11.8014 4106
v 5076 11.8108 4104
v 5078 12.0541 4132
v 5078 11.9725 4130
v 5078 11.9785 4128
v 5078 11.9856 4126
v 5078 11.961 4124
v 5078 12.0346 4122
v 5078 11.9591 4120
v 5078 11.8706 4118
v 5078 11.7227 4116
v 5078 11.8661 4114
v 5078 11.9376 4112
v 5078 11.9425 4110
v 5078 11.9422 4108
v 5078 11.9296 4106
v 5078 11.8586 4104
v 5080 12.0046 4132
v 5080 12.0112 4130
v 5080 11.9842 4128
v 5080 11.9543 4126
v 5080 12.0532 4124
v 5080 11.9935 4122
v 5080 12.0446 4120
v 5080 12.0209 4118
v 5080 11.8836 4116
v 5080 11.9888 4114
v 5080 11.9365 4112
v 5080 12.0411 4110
v 5080 12.0332 4108
v 5080 11.9903 4106
v 5080 11.8509 4104
v 5082 11.9815 4132
v 5082 11.9305 4130
v 5082 11.9586 4128
v 5082 11.9703 4126
v 5082 11.9842 4124
v 5082 12.0799 4122
v 5082 12.1333 4120
v 5082 12.0982 4118
v 5082 12.0003 4116
v 5082 12.0778 4114
v 5082 11.9806 4112
v 5082 12.0866 4110
v 5082 12.0761 4108
v 5082 11.8958 4106
v 5082 11.9099 4104
v 5084 11.9445 4132
v 5084 11.8447 4130
v 5084 11.7378 4128
v 5084 11.8913 4126
v 5084 12.0979 4124
v 5084 12.7346 4122
v 5084 12.1508 4120
v 5084 12.1391 4118
v 5084 12.0685 4116
v 5084 12.091 4114
v 5084 11.9856 4112
v 5084 11.9924 4110
v 5084 11.9145 4108
v 5084 11.865 4106
v 5084 11.9758 4104
v 5086 12.0124 4132
v 5086 11.8791 4130
v 5086 11.9355 4128
v 5086 11.934 4126
v 5086 12.0878 4124
v 5086 12.1131 4122
v 5086 12.4888 4120
v 5086 12.1434 4118
v 5086 12.1033 4116
v 5086 12.0679 4114
v 5086 12.0209 4112
v 5086 12.0719 4110
v 5086 12.034 4108
v 5086 11.8824 4106
v 5086 11.8134 4104
v 5088 12.0315 4132
v 5088 11.9416 4130
v 5088 11.8825 4128
v 5088 11.8422 4126
v 5088 12.1047 4124
v 5088 12.0838 4122
v 5088 12.0934 4120
v 5088 12.0916 4118
v 5088 12.1511 4116
v 5088 12.0424 4114
v 5088 12.0462 4112
v 5088 11.9805 4110
v 5088 11.9246 4108
v 5088 11.8306 4106
v 5088 11.6791 4104
f 336 334 337
f 73 71 72
f 68 67 69
f 67 68 66
f 338 335 336
f 334 336 335
f 72 71 70
f 72 70 75
f 75 70 74
f 339 335 338
f 75 74 77
f 77 74 76
f 340 335 339
f 151 150 149
f 151 152 150
f 335 333 334
f 66 65 67
f 65 66 64
f 335 341 329
f 341 335 340
f 335 329 333
f 333 329 332
f 64 63 65
f 63 64 62
f 149 154 153
f 149 150 154
f 342 329 341
f 153 156 155
f 153 154 156
f 206 213 212
f 206 212 211
f 206 211 210
f 206 210 209
f 206 209 205
f 38 34 19
f 18 19 34
f 15 19 18
f 38 19 42
f 188 187 186
f 189 187 188
f 189 190 187
f 191 190 189
f 191 192 190
f 45 44 43
f 45 46 44
f 45 47 46
f 47 45 48
f 100 101 104
f 101 100 99
f 102 99 100
f 103 99 102
f 109 108 107
f 107 108 106
f 107 106 105
f 10 11 8
f 10 8 9
f 9 8 7
f 169 168 167
f 169 170 168
f 171 170 169
f 3 2 1
f 3 6 2
f 6 3 5
f 6 5 4
f 60 63 62
f 331 329 330
f 60 61 63
f 314 330 329
f 342 314 329
f 197 196 182
f 182 195 193
f 200 199 198
f 35 37 36
f 180 197 182
f 182 181 180
f 182 183 181
f 184 183 182
f 193 184 182
f 197 180 216
f 118 116 117
f 117 116 112
f 119 116 118
f 206 214 213
f 111 110 109
f 109 110 108
f 207 206 205
f 208 206 207
f 214 206 208
f 313 314 342
f 156 133 155
f 184 193 194
f 184 185 183
f 34 38 37
f 35 34 37
f 208 215 214
f 112 110 111
f 112 116 110
f 133 156 134
f 10 12 11
f 361 366 362
f 103 102 119
f 119 102 116
f 204 203 202
f 10 13 12
f 200 201 199
f 34 35 13
f 58 61 60
f 330 314 328
f 361 359 360
f 361 362 359
f 58 59 61
f 315 314 313
f 133 132 131
f 133 134 132
f 34 13 33
f 33 13 14
f 14 13 10
f 328 314 326
f 58 57 59
f 57 58 56
f 359 362 365
f 317 326 314
f 316 317 314
f 316 314 315
f 280 257 255
f 255 254 253
f 255 256 254
f 257 256 255
f 279 257 280
f 165 166 163
f 165 163 164
f 164 163 160
f 131 136 135
f 131 132 136
f 326 317 327
f 56 53 57
f 53 56 52
f 164 160 162
f 162 160 161
f 161 160 157
f 279 219 257
f 278 219 279
f 358 360 359
f 365 358 359
f 318 317 316
f 135 138 137
f 135 136 138
f 257 219 256
f 54 53 52
f 323 324 322
f 325 324 323
f 365 364 358
f 54 55 53
f 256 217 254
f 321 322 320
f 323 322 321
f 360 358 357
f 229 219 278
f 469 483 482
f 484 483 469
f 482 481 467
f 468 482 467
f 468 469 482
f 471 484 469
f 476 473 485
f 473 486 485
f 256 219 217
f 488 487 477
f 480 488 477
f 473 477 486
f 477 487 486
f 321 320 319
f 138 143 137
f 229 228 219
f 230 228 229
f 220 218 219
f 219 218 217
f 143 138 144
f 504 503 501
f 502 504 501
f 230 231 228
f 502 501 498
f 491 490 489
f 492 491 489
f 499 502 498
f 499 498 497
f 496 495 493
f 494 493 490
f 491 494 490
f 500 499 497
f 494 496 493
f 161 157 158
f 159 158 157
f 145 148 147
f 145 146 148
f 139 146 145
f 139 140 146
f 358 356 357
f 357 356 355
f 141 140 139
f 141 142 140
f 472 471 469
f 470 472 469
f 470 469 465
f 468 467 465
f 469 468 465
f 476 475 473
f 467 466 465
f 480 477 479
f 473 474 477
f 475 474 473
f 477 478 479
f 474 478 477
f 364 363 358
f 358 363 356
f 242 228 231
f 516 515 513
f 510 509 511
f 509 512 511
f 218 244 245
f 513 514 517
f 515 514 513
f 510 508 509
f 520 517 519
f 517 518 519
f 514 518 517
f 508 507 505
f 508 505 509
f 507 506 505
f 220 244 218
f 228 242 244
f 243 245 244
f 243 246 245
f 244 242 243
f 243 242 258
f 248 239 249
f 237 239 248
f 239 237 238
f 235 252 233
f 235 233 234
f 234 233 232
f 100 126 121
f 22 26 18
f 18 26 41
f 15 18 41
f 241 248 247
f 237 248 241
f 237 241 236
f 236 241 240
f 125 126 100
f 104 125 100
f 23 22 21
f 252 251 250
f 235 251 252
f 238 237 236
f 121 98 120
f 221 222 227
f 223 222 221
f 283 282 281
f 282 283 286
f 286 283 285
f 32 22 23
f 39 22 32
f 25 22 39
f 26 22 25
f 286 285 284
f 287 224 223
f 224 222 223
f 227 226 225
f 222 226 227
f 121 97 98
f 98 97 96
f 127 121 126
f 128 121 127
f 129 121 128
f 121 129 123
f 121 123 122
f 121 122 97
f 222 224 300
f 222 299 226
f 299 222 288
f 222 300 301
f 222 301 288
f 448 447 446
f 448 450 447
f 454 453 451
f 446 445 443
f 447 445 446
f 450 449 447
f 458 457 456
f 453 456 452
f 453 452 451
f 445 444 443
f 461 463 460
f 457 455 456
f 463 462 460
f 456 455 452
f 461 460 459
f 464 460 462
f 288 298 299
f 288 301 302
f 25 39 40
f 259 297 298
f 259 298 288
f 288 302 289
f 289 259 288
f 259 289 290
f 259 268 297
f 26 25 24
f 425 426 427
f 422 426 425
f 439 438 437
f 439 441 438
f 415 414 413
f 428 425 427
f 421 422 425
f 423 422 421
f 441 440 438
f 416 415 413
f 420 419 417
f 418 420 417
f 418 417 413
f 417 416 413
f 424 423 421
f 442 438 440
f 259 290 291
f 292 261 259
f 268 259 260
f 261 260 259
f 89 81 80
f 436 435 425
f 425 435 434
f 430 429 415
f 428 436 425
f 421 434 433
f 421 425 434
f 416 430 415
f 416 417 430
f 417 431 430
f 432 431 417
f 419 432 417
f 424 421 433
f 261 262 260
f 81 79 80
f 80 79 78
f 345 344 343
f 346 344 345
f 346 351 344
f 261 292 293
f 125 51 126
f 263 262 261
f 79 87 78
f 261 293 294
f 261 294 295
f 261 295 265
f 261 267 263
f 266 267 261
f 266 261 265
f 87 86 78
f 51 50 49
f 50 51 125
f 41 17 15
f 78 86 85
f 352 351 346
f 394 396 393
f 394 393 389
f 391 390 389
f 392 391 389
f 396 395 393
f 393 392 389
f 399 398 397
f 400 399 397
f 404 401 403
f 401 402 403
f 398 402 401
f 397 398 401
f 86 88 85
f 266 265 264
f 88 84 85
f 347 346 345
f 348 346 347
f 348 352 346
f 392 393 406
f 393 407 406
f 408 407 393
f 395 408 393
f 392 406 391
f 400 397 409
f 406 405 391
f 397 410 409
f 397 401 410
f 404 412 401
f 401 411 410
f 412 411 401
f 353 352 348
f 17 16 15
f 17 20 16
f 20 17 31
f 31 17 28
f 85 84 82
f 265 269 264
f 270 269 265
f 265 295 270
f 270 295 296
f 84 83 82
f 50 114 115
f 50 124 114
f 50 125 124
f 31 28 30
f 30 28 29
f 29 28 27
f 115 114 113
f 174 173 172
f 175 173 174
f 175 176 173
f 175 177 176
f 178 177 175
f 177 178 179
f 354 353 348
f 347 349 348
f 354 348 349
f 350 349 347
f 307 304 306
f 304 307 308
f 309 311 310
f 306 304 305
f 304 308 309
f 309 310 304
f 304 310 312
f 304 273 303
f 304 303 305
f 304 312 274
f 304 274 273
f 371 369 370
f 372 371 370
f 372 374 371
f 374 373 371
f 385 387 384
f 387 386 384
f 388 386 387
f 377 376 375
f 378 377 375
f 369 368 367
f 370 369 367
f 385 384 383
f 382 381 380
f 381 379 380
f 380 379 376
f 377 380 376
f 124 125 130
f 303 273 275
f 274 272 273
f 273 272 271
f 273 271 276
f 276 275 273
f 277 275 276
f 92 91 90
f 92 95 91
f 94 95 92
f 95 94 93
f 1063 1064 1079
f 1065 1064 1063
f 1125 1124 1123
f 1153 1152 1151
f 1153 1155 1152
f 1152 1155 1154
f 1079 1080 1063
f 1067 1063 1066
f 1068 1063 1067
f 1068 1065 1063
f 1162 1163 1160
f 1162 1160 1161
f 1161 1160 1159
f 1081 1080 1079
f 1164 1166 1165
f 1164 1165 1163
f 1065 1068 1069
f 1125 1128 1124
f 1125 1129 1128
f 1125 1130 1129
f 1125 1131 1130
f 1114 1122 1121
f 1164 1163 1162
f 1114 1121 1116
f 1164 1167 1166
f 1164 1168 1167
f 1076 1075 1074
f 1116 1115 1114
f 1084 1083 1082
f 1117 1115 1116
f 920 929 923
f 929 915 923
f 915 916 923
f 923 916 921
f 923 921 920
f 929 928 915
f 917 916 915
f 928 917 915
f 924 929 920
f 910 909 908
f 910 911 909
f 914 911 910
f 928 927 917
f 1075 1077 1078
f 1075 1076 1077
f 1040 1037 1039
f 1041 1037 1040
f 1037 1041 1053
f 1053 1036 1037
f 1038 1037 1036
f 965 964 953
f 965 953 959
f 953 954 959
f 955 954 953
f 964 955 953
f 1034 1033 1032
f 1103 1102 1101
f 1134 1133 1132
f 1054 1036 1053
f 1144 1148 1146
f 1144 1146 1147
f 1147 1146 1145
f 914 912 911
f 906 912 914
f 905 906 914
f 918 924 920
f 958 954 955
f 964 963 955
f 963 958 955
f 1033 1034 1035
f 1149 1150 1148
f 925 924 918
f 1098 1100 1099
f 963 962 958
f 1061 1059 1083
f 1061 1083 1084
f 1164 1169 1168
f 1149 1148 1143
f 1143 1148 1144
f 931 938 937
f 936 931 937
f 1117 1118 1115
f 1103 1106 1102
f 1103 1107 1106
f 1103 1108 1107
f 916 919 921
f 920 921 919
f 920 919 918
f 919 916 917
f 912 909 911
f 956 965 959
f 959 954 956
f 960 965 956
f 933 939 938
f 938 931 933
f 1134 1135 1133
f 1098 1099 1096
f 977 976 975
f 975 976 973
f 975 973 974
f 927 922 917
f 927 926 922
f 950 949 947
f 950 951 949
f 952 951 950
f 1047 1046 1045
f 957 956 954
f 954 958 957
f 919 917 922
f 962 957 958
f 962 961 957
f 1170 1169 1164
f 1061 1060 1059
f 961 960 957
f 957 960 956
f 919 922 918
f 926 925 918
f 1170 1158 1169
f 1073 1077 1071
f 1078 1077 1073
f 1124 1128 1127
f 926 918 922
f 932 931 930
f 933 931 932
f 930 931 936
f 977 967 976
f 933 932 939
f 952 942 951
f 1057 1056 1055
f 1097 1098 1096
f 932 940 939
f 974 970 972
f 972 970 971
f 1117 1119 1118
f 1062 1060 1061
f 907 906 905
f 971 970 969
f 946 945 944
f 948 945 946
f 948 946 947
f 907 912 906
f 913 912 907
f 909 912 913
f 909 913 908
f 1124 1127 1126
f 1073 1071 1072
f 1134 1136 1135
f 1095 1096 1094
f 1097 1096 1095
f 932 930 935
f 932 935 934
f 932 934 940
f 970 974 973
f 947 949 948
f 1158 1157 1156
f 1170 1157 1158
f 1072 1071 1070
f 930 936 935
f 968 967 966
f 976 967 968
f 951 942 943
f 943 942 941
f 1047 1051 1046
f 1046 1051 1052
f 1143 1141 1142
f 1143 1144 1141
f 1029 1056 1057
f 1060 1086 1085
f 1086 1060 1062
f 1120 1119 1117
f 1029 1057 1031
f 1089 1088 1087
f 1090 1088 1089
f 1091 1088 1090
f 1088 1091 1092
f 1139 1141 1140
f 1142 1141 1139
f 1031 1030 1029
f 1052 1051 1050
f 1050 1051 1049
f 809 808 807
f 809 807 810
f 809 810 811
f 812 811 810
f 813 811 812
f 802 801 800
f 802 800 806
f 802 806 804
f 802 804 805
f 805 804 803
f 716 719 715
f 717 716 715
f 716 717 718
f 708 707 709
f 707 708 703
f 707 703 704
f 705 704 703
f 706 704 705
f 660 659 658
f 660 678 677
f 660 677 676
f 660 676 659
f 676 675 659
f 659 675 673
f 659 673 674
f 674 673 671
f 671 673 672
f 672 670 671
f 671 670 661
f 645 644 643
f 644 645 646
f 646 645 670
f 670 645 661
f 645 662 661
f 662 663 661
f 639 663 662
f 632 639 662
f 639 632 638
f 637 638 632
f 637 632 636
f 636 632 635
f 635 632 634
f 634 632 633
f 633 632 631
f 638 640 639
f 638 641 640
f 642 641 638
f 840 839 838
f 840 838 841
f 842 840 841
f 651 647 648
f 649 648 647
f 648 649 650
f 697 702 701
f 697 701 698
f 698 694 697
f 697 694 696
f 696 694 695
f 695 694 693
f 816 815 814
f 816 817 815
f 821 817 816
f 821 822 817
f 821 820 822
f 820 821 819
f 820 819 818
f 796 795 794
f 796 798 795
f 795 798 797
f 798 799 797
f 793 791 792
f 793 843 791
f 848 791 843
f 787 786 785
f 832 833 834
f 833 832 831
f 733 837 836
f 733 738 837
f 733 734 738
f 739 742 740
f 741 742 739
f 743 742 741
f 742 743 744
f 744 746 742
f 746 744 745
f 726 725 724
f 730 729 728
f 729 730 731
f 732 731 730
f 732 886 731
f 882 881 880
f 884 881 883
f 731 884 883
f 885 884 731
f 731 886 885
f 727 725 726
f 723 721 722
f 722 721 720
f 768 769 773
f 764 768 773
f 765 768 764
f 762 765 764
f 680 664 679
f 681 664 680
f 669 664 681
f 664 669 657
f 668 657 669
f 657 668 667
f 654 653 652
f 655 653 654
f 653 655 657
f 657 655 656
f 657 656 666
f 657 666 665
f 657 665 664
f 684 683 682
f 684 689 683
f 688 689 684
f 688 684 686
f 688 686 687
f 687 686 685
f 691 687 685
f 687 691 692
f 692 691 690
f 895 893 894
f 894 893 892
f 846 845 844
f 845 846 847
f 852 845 847
f 851 852 850
f 851 850 849
f 572 571 570
f 572 573 571
f 574 573 572
f 1102 1106 1105
f 835 831 832
f 836 831 835
f 733 836 835
f 856 855 752
f 858 855 856
f 858 856 857
f 852 847 850
f 787 788 786
f 789 788 787
f 748 745 744
f 772 775 774
f 1050 1049 1048
f 1102 1105 1104
f 859 857 792
f 859 792 860
f 860 792 790
f 792 791 790
f 783 782 781
f 784 782 783
f 769 770 772
f 770 769 768
f 1044 1043 1042
f 1139 1138 1137
f 1139 1140 1138
f 734 735 737
f 737 735 736
f 737 736 740
f 735 734 733
f 710 892 712
f 712 711 710
f 748 744 747
f 748 747 751
f 779 780 777
f 779 777 778
f 778 777 776
f 740 736 739
f 712 714 711
f 714 712 713
f 859 858 857
f 1058 1030 1031
f 1095 1094 1093
f 887 880 881
f 902 778 776
f 903 902 776
f 751 747 750
f 750 747 749
f 601 602 600
f 601 600 595
f 595 600 597
f 893 896 892
f 904 892 896
f 892 904 712
f 699 694 698
f 699 700 694
f 766 765 762
f 762 767 766
f 760 767 762
f 762 761 760
f 761 762 763
f 771 775 772
f 772 770 771
f 754 753 752
f 854 754 752
f 854 752 853
f 853 752 855
f 596 597 598
f 593 596 598
f 594 596 593
f 594 593 592
f 887 881 890
f 890 881 891
f 881 884 891
f 531 530 529
f 1111 1110 1109
f 604 612 611
f 612 609 611
f 597 596 595
f 608 609 612
f 610 609 608
f 605 604 603
f 605 612 604
f 758 757 756
f 754 755 753
f 1112 1110 1111
f 1111 1113 1112
f 599 594 592
f 758 759 757
f 877 878 876
f 877 876 874
f 874 876 873
f 826 829 828
f 829 830 828
f 885 888 884
f 531 540 530
f 540 531 537
f 825 824 823
f 825 827 824
f 824 827 826
f 610 608 613
f 614 610 613
f 827 829 826
f 877 879 878
f 866 867 865
f 868 867 866
f 868 870 867
f 870 868 872
f 872 871 870
f 898 901 897
f 899 898 897
f 869 864 865
f 866 865 864
f 901 898 900
f 885 886 889
f 885 889 888
f 875 874 873
f 863 862 861
f 607 606 603
f 603 606 605
f 540 537 539
f 617 616 615
f 616 617 618
f 619 618 617
f 618 619 620
f 620 621 618
f 621 620 622
f 621 622 626
f 621 626 625
f 625 626 629
f 627 630 628
f 628 624 627
f 623 624 628
f 616 624 623
f 616 618 624
f 539 537 538
f 992 991 990
f 990 1000 992
f 992 1000 999
f 992 999 997
f 980 979 978
f 980 988 979
f 980 989 988
f 988 989 987
f 988 987 986
f 986 987 985
f 986 985 983
f 984 983 985
f 984 982 983
f 983 982 981
f 562 563 564
f 563 562 561
f 576 561 562
f 576 577 561
f 576 578 577
f 576 579 578
f 576 580 579
f 576 581 580
f 582 581 576
f 586 581 582
f 586 587 581
f 586 588 587
f 589 588 586
f 590 588 589
f 591 588 590
f 576 562 575
f 576 575 544
f 544 575 546
f 546 545 544
f 544 545 543
f 544 543 541
f 543 542 541
f 569 541 542
f 568 541 569
f 541 568 565
f 566 541 565
f 541 566 567
f 1006 1005 1004
f 1006 1007 1005
f 1009 1007 1006
f 1006 1015 1009
f 1010 1015 1006
f 1004 1010 1006
f 1011 1010 1004
f 1009 1002 1007
f 1015 1001 1009
f 1001 1002 1009
f 1002 1005 1007
f 1015 1014 1001
f 1028 1027 1016
f 997 999 998
f 997 998 996
f 997 996 995
f 995 996 994
f 995 994 993
f 538 537 536
f 586 582 585
f 585 582 584
f 584 582 583
f 583 582 537
f 537 582 532
f 536 537 532
f 536 532 535
f 535 532 534
f 534 532 533
f 533 532 523
f 523 522 521
f 523 532 524
f 524 522 523
f 547 522 524
f 547 521 522
f 547 548 521
f 549 548 547
f 547 550 549
f 547 551 550
f 550 551 557
f 558 557 551
f 556 547 555
f 556 554 547
f 547 554 553
f 547 553 552
f 547 552 551
f 527 557 558
f 557 527 559
f 527 560 559
f 527 525 560
f 527 526 525
f 528 526 527
f 1028 1016 1022
f 1016 1017 1022
f 1018 1017 1016
f 1027 1018 1016
f 1021 1017 1018
f 1027 1026 1018
f 1026 1021 1018
f 1005 1008 1004
f 1012 1011 1004
f 1012 1004 1008
f 1026 1025 1021
f 1005 1003 1008
f 1005 1002 1003
f 1019 1028 1022
f 1023 1028 1019
f 1022 1017 1019
f 1003 1002 1001
f 1020 1019 1017
f 1017 1021 1020
f 1014 1013 1003
f 1014 1003 1001
f 1013 1012 1008
f 1025 1020 1021
f 1025 1024 1020
f 1024 1023 1020
f 1020 1023 1019
f 1013 1008 1003
f 1187 1172 1171
f 1171 1186 1187
f 1202 1187 1186
f 1186 1201 1202
f 1217 1202 1201
f 1201 1216 1217
f 1232 1217 1216
f 1216 1231 1232
f 1247 1232 1231
f 1231 1246 1247
f 1262 1247 1246
f 1246 1261 1262
f 1277 1262 1261
f 1261 1276 1277
f 1292 1277 1276
f 1276 1291 1292
f 1307 1292 1291
f 1291 1306 1307
f 1322 1307 1306
f 1306 1321 1322
f 1337 1322 1321
f 1321 1336 1337
f 1352 1337 1336
f 1336 1351 1352
f 1367 1352 1351
f 1351 1366 1367
f 1382 1367 1366
f 1366 1381 1382
f 1188 1173 1172
f 1172 1187 1188
f 1203 1188 1187
f 1187 1202 1203
f 1218 1203 1202
f 1202 1217 1218
f 1233 1218 1217
f 1217 1232 1233
f 1248 1233 1232
f 1232 1247 1248
f 1263 1248 1247
f 1247 1262 1263
f 1278 1263 1262
f 1262 1277 1278
f 1293 1278 1277
f 1277 1292 1293
f 1308 1293 1292
f 1292 1307 1308
f 1323 1308 1307
f 1307 1322 1323
f 1338 1323 1322
f 1322 1337 1338
f 1353 1338 1337
f 1337 1352 1353
f 1368 1353 1352
f 1352 1367 1368
f 1383 1368 1367
f 1367 1382 1383
f 1189 1174 1173
f 1173 1188 1189
f 1204 1189 1188
f 1188 1203 1204
f 1219 1204 1203
f 1203 1218 1219
f 1234 1219 1218
f 1218 1233 1234
f 1249 1234 1233
f 1233 1248 1249
f 1264 1249 1248
f 1248 1263 1264
f 1279 1264 1263
f 1263 1278 1279
f 1294 1279 1278
f 1278 1293 1294
f 1309 1294 1293
f 1293 1308 1309
f 1324 1309 1308
f 1308 1323 1324
f 1339 1324 1323
f 1323 1338 1339
f 1354 1339 1338
f 1338 1353 1354
f 1369 1354 1353
f 1353 1368 1369
f 1384 1369 1368
f 1368 1383 1384
f 1190 1175 1174
f 1174 1189 1190
f 1205 1190 1189
f 1189 1204 1205
f 1220 1205 1204
f 1204 1219 1220
f 1235 1220 1219
f 1219 1234 1235
f 1250 1235 1234
f 1234 1249 1250
f 1265 1250 1249
f 1249 1264 1265
f 1280 1265 1264
f 1264 1279 1280
f 1295 1280 1279
f 1279 1294 1295
f 1310 1295 1294
f 1294 1309 1310
f 1325 1310 1309
f 1309 1324 1325
f 1340 1325 1324
f 1324 1339 1340
f 1355 1340 1339
f 1339 1354 1355
f 1370 1355 1354
f 1354 1369 1370
f 1385 1370 1369
f 1369 1384 1385
f 1191 1176 1175
f 1175 1190 1191
f 1206 1191 1190
f 1190 1205 1206
f 1221 1206 1205
f 1205 1220 1221
f 1236 1221 1220
f 1220 1235 1236
f 1251 1236 1235
f 1235 1250 1251
f 1266 1251 1250
f 1250 1265 1266
f 1281 1266 1265
f 1265 1280 1281
f 1296 1281 1280
f 1280 1295 1296
f 1311 1296 1295
f 1295 1310 1311
f 1326 1311 1310
f 1310 1325 1326
f 1341 1326 1325
f 1325 1340 1341
f 1356 1341 1340
f 1340 1355 1356
f 1371 1356 1355
f 1355 1370 1371
f 1386 1371 1370
f 1370 1385 1386
f 1192 1177 1176
f 1176 1191 1192
f 1207 1192 1191
f 1191 1206 1207
f 1222 1207 1206
f 1206 1221 1222
f 1237 1222 1221
f 1221 1236 1237
f 1252 1237 1236
f 1236 1251 1252
f 1267 1252 1251
f 1251 1266 1267
f 1282 1267 1266
f 1266 1281 1282
f 1297 1282 1281
f 1281 1296 1297
f 1312 1297 1296
f 1296 1311 1312
f 1327 1312 1311
f 1311 1326 1327
f 1342 1327 1326
f 1326 1341 1342
f 1357 1342 1341
f 1341 1356 1357
f 1372 1357 1356
f 1356 1371 1372
f 1387 1372 1371
f 1371 1386 1387
f 1193 1178 1177
f 1177 1192 1193
f 1208 1193 1192
f 1192 1207 1208
f 1223 1208 1207
f 1207 1222 1223
f 1238 1223 1222
f 1222 1237 1238
f 1253 1238 1237
f 1237 1252 1253
f 1268 1253 1252
f 1252 1267 1268
f 1283 1268 1267
f 1267 1282 1283
f 1298 1283 1282
f 1282 1297 1298
f 1313 1298 1297
f 1297 1312 1313
f 1328 1313 1312
f 1312 1327 1328
f 1343 1328 1327
f 1327 1342 1343
f 1358 1343 1342
f 1342 1357 1358
f 1373 1358 1357
f 1357 1372 1373
f 1388 1373 1372
f 1372 1387 1388
f 1194 1179 1178
f 1178 1193 1194
f 1209 1194 1193
f 1193 1208 1209
f 1224 1209 1208
f 1208 1223 1224
f 1239 1224 1223
f 1223 1238 1239
f 1254 1239 1238
f 1238 1253 1254
f 1269 1254 1253
f 1253 1268 1269
f 1284 1269 1268
f 1268 1283 1284
f 1299 1284 1283
f 1283 1298 1299
f 1314 1299 1298
f 1298 1313 1314
f 1329 1314 1313
f 1313 1328 1329
f 1344 1329 1328
f 1328 1343 1344
f 1359 1344 1343
f 1343 1358 1359
f 1374 1359 1358
f 1358 1373 1374
f 1389 1374 1373
f 1373 1388 1389
f 1195 1180 1179
f 1179 1194 1195
f 1210 1195 1194
f 1194 1209 1210
f 1225 1210 1209
f 1209 1224 1225
f 1240 1225 1224
f 1224 1239 1240
f 1255 1240 1239
f 1239 1254 1255
f 1270 1255 1254
f 1254 1269 1270
f 1285 1270 1269
f 1269 1284 1285
f 1300 1285 1284
f 1284 1299 1300
f 1315 1300 1299
f 1299 1314 1315
f 1330 1315 1314
f 1314 1329 1330
f 1345 1330 1329
f 1329 1344 1345
f 1360 1345 1344
f 1344 1359 1360
f 1375 1360 1359
f 1359 1374 1375
f 1390 1375 1374
f 1374 1389 1390
f 1196 1181 1180
f 1180 1195 1196
f 1211 1196 1195
f 1195 1210 1211
f 1226 1211 1210
f 1210 1225 1226
f 1241 1226 1225
f 1225 1240 1241
f 1256 1241 1240
f 1240 1255 1256
f 1271 1256 1255
f 1255 1270 1271
f 1286 1271 1270
f 1270 1285 1286
f 1301 1286 1285
f 1285 1300 1301
f 1316 1301 1300
f 1300 1315 1316
f 1331 1316 1315
f 1315 1330 1331
f 1346 1331 1330
f 1330 1345 1346
f 1361 1346 1345
f 1345 1360 1361
f 1376 1361 1360
f 1360 1375 1376
f 1391 1376 1375
f 1375 1390 1391
f 1197 1182 1181
f 1181 1196 1197
f 1212 1197 1196
f 1196 1211 1212
f 1227 1212 1211
f 1211 1226 1227
f 1242 1227 1226
f 1226 1241 1242
f 1257 1242 1241
f 1241 1256 1257
f 1272 1257 1256
f 1256 1271 1272
f 1287 1272 1271
f 1271 1286 1287
f 1302 1287 1286
f 1286 1301 1302
f 1317 1302 1301
f 1301 1316 1317
f 1332 1317 1316
f 1316 1331 1332
f 1347 1332 1331
f 1331 1346 1347
f 1362 1347 1346
f 1346 1361 1362
f 1377 1362 1361
f 1361 1376 1377
f 1392 1377 1376
f 1376 1391 1392
f 1198 1183 1182
f 1182 1197 1198
f 1213 1198 1197
f 1197 1212 1213
f 1228 1213 1212
f 1212 1227 1228
f 1243 1228 1227
f 1227 1242 1243
f 1258 1243 1242
f 1242 1257 1258
f 1273 1258 1257
f 1257 1272 1273
f 1288 1273 1272
f 1272 1287 1288
f 1303 1288 1287
f 1287 1302 1303
f 1318 1303 1302
f 1302 1317 1318
f 1333 1318 1317
f 1317 1332 1333
f 1348 1333 1332
f 1332 1347 1348
f 1363 1348 1347
f 1347 1362 1363
f 1378 1363 1362
f 1362 1377 1378
f 1393 1378 1377
f 1377 1392 1393
f 1199 1184 1183
f 1183 1198 1199
f 1214 1199 1198
f 1198 1213 1214
f 1229 1214 1213
f 1213 1228 1229
f 1244 1229 1228
f 1228 1243 1244
f 1259 1244 1243
f 1243 1258 1259
f 1274 1259 1258
f 1258 1273 1274
f 1289 1274 1273
f 1273 1288 1289
f 1304 1289 1288
f 1288 1303 1304
f 1319 1304 1303
f 1303 1318 1319
f 1334 1319 1318
f 1318 1333 1334
f 1349 1334 1333
f 1333 1348 1349
f 1364 1349 1348
f 1348 1363 1364
f 1379 1364 1363
f 1363 1378 1379
f 1394 1379 1378
f 1378 1393 1394
f 1200 1185 1184
f 1184 1199 1200
f 1215 1200 1199
f 1199 1214 1215
f 1230 1215 1214
f 1214 1229 1230
f 1245 1230 1229
f 1229 1244 1245
f 1260 1245 1244
f 1244 1259 1260
f 1275 1260 1259
f 1259 1274 1275
f 1290 1275 1274
f 1274 1289 1290
f 1305 1290 1289
f 1289 1304 1305
f 1320 1305 1304
f 1304 1319 1320
f 1335 1320 1319
f 1319 1334 1335
f 1350 1335 1334
f 1334 1349 1350
f 1365 1350 1349
f 1349 1364 1365
f 1380 1365 1364
f 1364 1379 1380
f 1395 1380 1379
f 1379 1394 1395
