v -4973.21 76.5844 672.505
v -4973.2 76.5844 672.584
v -4972.61 77.1718 672.269
v -4972.67 77.167 672.364
v -4972.07 78.2339 672.061
v -4972.03 78.2299 671.998
v -4973.15 77.4676 672.377
v -4971.63 79.3966 671.729
v -4971.67 79.3454 671.799
v -4973.34 79.3385 672.192
v -4972.8 79.1249 672.083
v -4972.2 79.1378 671.964
v -4973.5 79.5509 672.208
v -4972.95 80.2132 670.39
v -4969.75 79.5509 671.33
v -4971.05 80.2132 669.945
v -4976.14 79.5509 669.4
v -4974.29 80.2132 668.967
v -4968.64 79.5509 667.644
v -4968.67 79.3966 667.653
v -4969.75 79.5509 671.33
v -4969.78 79.3966 671.303
v -4972.67 80.913 669.456
v -4972.39 82.036 668.522
v -4971.72 80.913 669.234
v -4971.44 80.913 668.3
v -4972.1 80.913 667.589
v -4973.05 80.913 667.811
v -4973.34 80.913 668.745
v -4975.02 79.5509 665.714
v -4976.14 79.5509 669.4
v -4975 79.3966 665.741
v -4976.1 79.3966 669.392
v -4973.5 79.5509 672.208
v -4973.49 79.3966 672.173
v -4973.49 79.3966 672.173
v -4973.5 79.5509 672.208
v -4971.64 79.3966 671.719
v -4971.27 79.5509 664.836
v -4971.28 79.3966 664.872
v -4975.02 79.5509 665.714
v -4973.72 80.2132 667.1
v -4968.64 79.5509 667.644
v -4970.49 80.2132 668.078
v -4971.27 79.5509 664.836
v -4971.82 80.2132 666.655
v -4976.58 76.5844 669.505
v -4976.35 77.4001 669.45
v -4973.63 76.5844 672.625
v -4973.56 77.4001 672.418
v -4969.44 76.5844 671.667
v -4969.6 77.4001 671.49
v -4968.19 76.5844 667.539
v -4968.42 77.4001 667.594
v -4971.14 76.5844 664.394
v -4971.21 77.4001 664.626
v -4975.34 76.5844 665.378
v -4975.17 77.4001 665.554
v -4968.33 76.5844 667.572
v -4968.78 79.4248 667.679
v -4969.53 76.5844 671.562
v -4969.68 77.8343 671.409
v -4969.85 79.4248 671.22
v -4971.18 76.5844 664.532
v -4971.32 79.4248 664.982
v -4975.24 76.5844 665.482
v -4974.92 79.4248 665.825
v -4976.44 76.5844 669.473
v -4975.99 79.4248 669.366
v -4973.59 76.5844 672.513
v -4973.56 77.4001 672.382
v -4973.44 79.4036 672.137
v -4973.44 79.4036 672.137
v -4971.64 79.3966 671.719
v -4972.39 80.5745 668.522
v -4969.85 79.4248 671.22
v -4968.78 79.4248 667.679
v -4971.32 79.4248 664.982
v -4974.92 79.4248 665.825
v -4975.99 79.4248 669.366
v -4969.89 76.5844 671.739
v -4970.48 77.2463 671.755
v -4971.16 78.1939 671.73
v -4972.03 78.2299 671.988
v -4973.56 77.4001 672.418
v -4972.61 77.1718 672.259
v -4973.21 76.5844 672.494
v -4973.63 76.5844 672.625
v -4970.56 77.2463 671.736
v -4969.98 76.5844 671.727
v -4971.21 78.1939 671.738
v -4971.64 79.3966 671.719
v -4969.98 76.5844 671.727
v -4970.56 77.2463 671.736
v -4971.21 78.1939 671.738
v -4972.03 78.2299 671.988
v -4971.64 79.3966 671.719
v -4973.21 76.5844 672.494
v -4972.61 77.1718 672.259
v -4969.44 75.5844 671.667
v -4968.19 75.5844 667.539
v -4971.14 75.5844 664.394
v -4975.34 75.5844 665.378
v -4976.58 75.5844 669.505
v -4973.63 75.5844 672.625
v -4969.53 75.5844 671.562
v -4968.33 75.5844 667.572
v -4971.18 75.5844 664.532
v -4975.24 75.5844 665.482
v -4976.44 75.5844 669.473
v -4973.59 75.5844 672.513
v -4969.98 75.5844 671.727
v -4969.89 75.5844 671.739
v -4973.21 76.5844 672.494
v -4973.21 75.5844 672.494
v -4969.98 76.5844 671.727
v -4969.98 75.5844 671.727
v -4973.21 75.5844 672.494
v -4978.22 75.5844 669.889
v -4978.18 75.5844 669.849
v -4976.12 79.4847 669.396
v -4976.1 79.4654 669.362
v -4978.17 75.5844 669.907
v -4976.09 79.4654 669.42
v -4978.14 75.5844 669.869
v -4976.07 79.4489 669.385
v -4978.22 75.5844 669.889
v -4976.12 79.4847 669.396
v -4978.17 75.5844 669.907
v -4976.09 79.4654 669.42
v -4978.18 75.5844 669.849
v -4978.14 75.5844 669.869
v -4976.1 79.4654 669.362
v -4976.07 79.4489 669.385
v -4974.12 75.5844 674.26
v -4974.13 75.5844 674.205
v -4973.49 79.4847 672.19
v -4973.52 79.4654 672.159
v -4974.08 75.5844 674.222
v -4973.46 79.4654 672.177
v -4974.1 75.5844 674.177
v -4973.48 79.4489 672.144
v -4974.12 75.5844 674.26
v -4973.49 79.4847 672.19
v -4974.08 75.5844 674.222
v -4973.46 79.4654 672.177
v -4974.13 75.5844 674.205
v -4974.1 75.5844 674.177
v -4973.52 79.4654 672.159
v -4973.48 79.4489 672.144
v -4968.28 75.5844 672.894
v -4968.34 75.5844 672.879
v -4969.76 79.4847 671.317
v -4969.8 79.4654 671.32
v -4968.3 75.5844 672.838
v -4969.76 79.4654 671.279
v -4968.34 75.5844 672.83
v -4969.8 79.4489 671.282
v -4968.28 75.5844 672.894
v -4969.76 79.4847 671.317
v -4968.3 75.5844 672.838
v -4969.76 79.4654 671.279
v -4968.34 75.5844 672.879
v -4968.34 75.5844 672.83
v -4969.8 79.4654 671.32
v -4969.8 79.4489 671.282
v -4966.55 75.5844 667.156
v -4966.59 75.5844 667.196
v -4968.65 79.4847 667.649
v -4968.67 79.4654 667.683
v -4966.6 75.5844 667.138
v -4968.68 79.4654 667.625
v -4966.63 75.5844 667.176
v -4968.7 79.4489 667.66
v -4966.55 75.5844 667.156
v -4968.65 79.4847 667.649
v -4966.6 75.5844 667.138
v -4968.68 79.4654 667.625
v -4966.59 75.5844 667.196
v -4966.63 75.5844 667.176
v -4968.67 79.4654 667.683
v -4968.7 79.4489 667.66
v -4970.65 75.5844 662.784
v -4970.64 75.5844 662.839
v -4971.28 79.4847 664.854
v -4971.25 79.4654 664.885
v -4970.69 75.5844 662.822
v -4971.31 79.4654 664.868
v -4970.68 75.5844 662.868
v -4971.29 79.4489 664.9
v -4970.65 75.5844 662.784
v -4971.28 79.4847 664.854
v -4970.69 75.5844 662.822
v -4971.31 79.4654 664.868
v -4970.64 75.5844 662.839
v -4970.68 75.5844 662.868
v -4971.25 79.4654 664.885
v -4971.29 79.4489 664.9
v -4976.49 75.5844 664.151
v -4976.43 75.5844 664.166
v -4975.01 79.4847 665.728
v -4974.97 79.4654 665.724
v -4976.48 75.5844 664.207
v -4975.01 79.4654 665.765
v -4976.43 75.5844 664.214
v -4974.98 79.4489 665.763
v -4976.49 75.5844 664.151
v -4975.01 79.4847 665.728
v -4976.48 75.5844 664.207
v -4975.01 79.4654 665.765
v -4976.43 75.5844 664.166
v -4976.43 75.5844 664.214
v -4974.97 79.4654 665.724
v -4974.98 79.4489 665.763
v -4976.58 76.5844 669.505
v -4973.63 76.5844 672.625
v -4976.58 79.5844 669.505
v -4973.63 79.5844 672.625
v -4975.34 76.5844 665.378
v -4976.58 76.5844 669.505
v -4975.34 79.5844 665.378
v -4976.58 79.5844 669.505
v -4973.63 76.5844 672.625
v -4972.67 76.5844 672.367
v -4973.63 79.5844 672.625
v -4972.67 79.5844 672.367
v -4970.58 76.5844 671.866
v -4969.44 76.5844 671.667
v -4970.58 79.5844 671.866
v -4969.44 79.5844 671.667
v -4969.44 76.5844 671.667
v -4968.19 76.5844 667.539
v -4969.44 79.5844 671.667
v -4968.19 79.5844 667.539
v -4968.19 76.5844 667.539
v -4971.14 76.5844 664.394
v -4968.19 79.5844 667.539
v -4971.14 79.5844 664.394
v -4971.14 76.5844 664.394
v -4975.34 76.5844 665.378
v -4971.14 79.5844 664.394
v -4975.34 79.5844 665.378
v -4969.42 76.5844 667.999
v -4970.58 76.5844 671.866
v -4969.42 79.5844 667.999
v -4970.58 79.5844 671.866
v -4974.41 76.5844 666.49
v -4971.48 76.5844 665.804
v -4974.41 79.5844 666.49
v -4971.48 79.5844 665.804
v -4971.48 76.5844 665.804
v -4969.42 76.5844 667.999
v -4971.48 79.5844 665.804
v -4969.42 79.5844 667.999
v -4975.28 76.5844 669.371
v -4974.41 76.5844 666.49
v -4975.28 79.5844 669.371
v -4974.41 79.5844 666.49
v -4972.67 76.5844 672.367
v -4975.28 76.5844 669.371
v -4972.67 79.5844 672.367
v -4975.28 79.5844 669.371
v -4973.54 76.6179 669.462
v -4973.54 76.5259 669.462
v -4973.16 76.5259 669.79
v -4973.16 76.6179 669.79
v -4973.61 76.7099 669.541
v -4973.54 76.6179 669.462
v -4973.16 76.6179 669.79
v -4973.23 76.7099 669.869
v -4973.61 76.8018 669.541
v -4973.61 76.7099 669.541
v -4973.23 76.7099 669.869
v -4973.23 76.8018 669.869
v -4973.54 76.8938 669.462
v -4973.61 76.8018 669.541
v -4973.23 76.8018 669.869
v -4973.16 76.8938 669.79
v -4973.16 76.9858 669.79
v -4973.54 76.9858 669.462
v -4973.54 76.8938 669.462
v -4973.16 76.8938 669.79
v -4973.54 76.9858 669.462
v -4973.16 76.9858 669.79
v -4973.56 76.9858 670.237
v -4973.93 76.9858 669.909
v -4973.56 76.8938 670.238
v -4973.93 76.8938 669.91
v -4973.93 76.9858 669.909
v -4973.56 76.9858 670.237
v -4973.49 76.8018 670.159
v -4973.86 76.8018 669.831
v -4973.93 76.8938 669.91
v -4973.56 76.8938 670.238
v -4973.49 76.7099 670.159
v -4973.86 76.7099 669.831
v -4973.86 76.8018 669.831
v -4973.49 76.8018 670.159
v -4973.56 76.6179 670.238
v -4973.93 76.6179 669.91
v -4973.86 76.7099 669.831
v -4973.49 76.7099 670.159
v -4973.56 76.5259 670.238
v -4973.93 76.5259 669.91
v -4973.93 76.6179 669.91
v -4973.56 76.6179 670.238
v -4973.93 76.5259 669.91
v -4973.56 76.5259 670.238
v -4973.16 76.5259 669.79
v -4973.54 76.5259 669.462
v -4973.81 76.79 669.776
v -4973.81 76.8718 669.776
v -4973.93 76.9858 669.909
v -4973.93 76.8938 669.91
v -4973.86 76.8018 669.831
v -4973.86 76.7099 669.831
v -4973.54 76.9858 669.462
v -4973.66 76.8718 669.596
v -4973.16 76.9858 669.79
v -4973.28 76.8718 669.924
v -4973.44 76.8718 670.104
v -4973.56 76.9858 670.237
v -4973.23 76.7099 669.869
v -4973.28 76.79 669.924
v -4973.16 76.8938 669.79
v -4973.23 76.8018 669.869
v -4973.66 76.8718 669.596
v -4973.62 76.858 669.626
v -4973.66 76.79 669.596
v -4973.66 76.79 669.596
v -4973.62 76.858 669.626
v -4973.78 76.858 669.805
v -4973.81 76.79 669.776
v -4973.81 76.79 669.776
v -4973.78 76.858 669.805
v -4973.81 76.8718 669.776
v -4973.81 76.8718 669.776
v -4973.78 76.858 669.805
v -4973.62 76.858 669.626
v -4973.66 76.8718 669.596
v -4973.44 76.8718 670.104
v -4973.47 76.858 670.074
v -4973.44 76.79 670.104
v -4973.44 76.79 670.104
v -4973.47 76.858 670.074
v -4973.32 76.858 669.894
v -4973.28 76.79 669.924
v -4973.28 76.79 669.924
v -4973.32 76.858 669.894
v -4973.28 76.8718 669.924
v -4973.28 76.8718 669.924
v -4973.32 76.858 669.894
v -4973.47 76.858 670.074
v -4973.44 76.8718 670.104
v -4973.61 76.7099 669.541
v -4973.61 76.8018 669.541
v -4973.54 76.8938 669.462
v -4973.66 76.79 669.596
v -4973.93 76.5259 669.91
v -4973.54 76.5259 669.462
v -4973.54 76.6179 669.462
v -4973.81 76.79 669.776
v -4973.86 76.7099 669.831
v -4973.93 76.6179 669.91
v -4973.44 76.79 670.104
v -4973.49 76.7099 670.159
v -4973.49 76.8018 670.159
v -4973.56 76.8938 670.238
v -4973.16 76.5259 669.79
v -4973.56 76.5259 670.238
v -4973.56 76.6179 670.238
v -4973.49 76.7099 670.159
v -4973.44 76.79 670.104
v -4973.16 76.6179 669.79
v -4974.42 77.499 670.323
v -4975.07 77.499 669.754
v -4975.07 77.0682 669.754
v -4974.42 77.0682 670.323
v -4974.71 77.499 670.646
v -4975.35 77.499 670.078
v -4975.07 77.499 669.754
v -4974.42 77.499 670.323
v -4975.23 77.4032 670.185
v -4975.35 77.499 670.078
v -4974.71 77.499 670.646
v -4974.83 77.4032 670.54
v -4974.83 77.2923 670.54
v -4974.83 77.4032 670.54
v -4974.71 77.499 670.646
v -4974.71 77.0682 670.646
v -4974.42 77.0682 670.323
v -4975.07 77.0682 669.754
v -4975.35 77.0682 670.078
v -4974.71 77.0682 670.646
v -4975.29 77.4478 670.003
v -4975.35 77.499 670.078
v -4975.35 77.0682 670.078
v -4975.29 77.3848 670.003
v -4975.14 77.3848 669.83
v -4975.07 77.0682 669.754
v -4974.49 77.3848 670.398
v -4974.42 77.0682 670.323
v -4974.71 77.0682 670.646
v -4974.64 77.3848 670.571
v -4974.64 77.4478 670.571
v -4974.71 77.499 670.646
v -4975.35 77.499 670.078
v -4975.29 77.4478 670.003
v -4975.14 77.4478 669.83
v -4975.07 77.499 669.754
v -4975.07 77.499 669.754
v -4975.14 77.4478 669.83
v -4974.42 77.499 670.323
v -4974.49 77.4478 670.398
v -4975.35 77.499 670.078
v -4975.23 77.4032 670.185
v -4975.23 77.2923 670.185
v -4975.35 77.0682 670.078
v -4975.35 77.0682 670.078
v -4975.23 77.2923 670.185
v -4974.83 77.2923 670.54
v -4974.71 77.0682 670.646
v -4974.83 77.4032 670.54
v -4974.8 77.3795 670.504
v -4975.2 77.3795 670.15
v -4975.23 77.4032 670.185
v -4975.23 77.4032 670.185
v -4975.2 77.3795 670.15
v -4975.23 77.2923 670.185
v -4975.23 77.2923 670.185
v -4975.2 77.3795 670.15
v -4974.8 77.3795 670.504
v -4974.83 77.2923 670.54
v -4974.83 77.2923 670.54
v -4974.8 77.3795 670.504
v -4974.83 77.4032 670.54
v -4975.14 77.3848 669.83
v -4975.1 77.4332 669.861
v -4975.25 77.4332 670.034
v -4975.29 77.3848 670.003
v -4975.29 77.3848 670.003
v -4975.25 77.4332 670.034
v -4975.29 77.4478 670.003
v -4975.29 77.4478 670.003
v -4975.25 77.4332 670.034
v -4975.1 77.4332 669.861
v -4975.14 77.4478 669.83
v -4975.14 77.4478 669.83
v -4975.1 77.4332 669.861
v -4975.14 77.3848 669.83
v -4974.64 77.3848 670.571
v -4974.68 77.4332 670.54
v -4974.52 77.4332 670.367
v -4974.49 77.3848 670.398
v -4974.49 77.3848 670.398
v -4974.52 77.4332 670.367
v -4974.49 77.4478 670.398
v -4974.49 77.4478 670.398
v -4974.52 77.4332 670.367
v -4974.68 77.4332 670.54
v -4974.64 77.4478 670.571
v -4974.64 77.4478 670.571
v -4974.68 77.4332 670.54
v -4974.64 77.3848 670.571
v -4974.42 76.6158 670.323
v -4974.42 77.0467 670.323
v -4975.07 77.0467 669.754
v -4975.07 76.6158 669.754
v -4974.42 77.0467 670.323
v -4974.71 77.0467 670.646
v -4975.35 77.0467 670.078
v -4975.07 77.0467 669.754
v -4974.71 77.0467 670.646
v -4974.71 76.6158 670.646
v -4975.35 76.6158 670.078
v -4975.35 77.0467 670.078
v -4974.71 76.6158 670.646
v -4974.42 76.6158 670.323
v -4975.07 76.6158 669.754
v -4975.35 76.6158 670.078
v -4975.07 76.6158 669.754
v -4975.07 77.0467 669.754
v -4975.35 77.0467 670.078
v -4975.35 76.6158 670.078
v -4974.71 76.6158 670.646
v -4974.71 77.0467 670.646
v -4974.42 77.0467 670.323
v -4974.42 76.6158 670.323
v -4973.44 76.6158 669.205
v -4973.44 77.499 669.205
v -4974.09 77.499 668.637
v -4974.09 76.6158 668.637
v -4973.44 77.499 669.205
v -4973.51 77.499 669.286
v -4974.16 77.499 668.718
v -4974.09 77.499 668.637
v -4973.51 77.499 669.286
v -4973.51 76.6158 669.286
v -4974.16 76.6158 668.718
v -4974.16 77.499 668.718
v -4973.51 76.6158 669.286
v -4973.44 76.6158 669.205
v -4974.09 76.6158 668.637
v -4974.16 76.6158 668.718
v -4974.09 76.6158 668.637
v -4974.09 77.499 668.637
v -4974.16 77.499 668.718
v -4974.16 76.6158 668.718
v -4973.51 76.6158 669.286
v -4973.51 77.499 669.286
v -4973.44 77.499 669.205
v -4973.44 76.6158 669.205
v -4973.51 76.8205 669.249
v -4973.51 77.3067 669.249
v -4974.13 77.3067 668.711
v -4974.13 76.8205 668.711
v -4973.51 77.3067 669.249
v -4974.71 77.3067 670.614
v -4975.32 77.3067 670.076
v -4974.13 77.3067 668.711
v -4974.71 77.3067 670.614
v -4974.71 76.8205 670.614
v -4975.32 76.8205 670.076
v -4975.32 77.3067 670.076
v -4974.71 76.8205 670.614
v -4973.51 76.8205 669.249
v -4974.13 76.8205 668.711
v -4975.32 76.8205 670.076
v -4974.13 76.8205 668.711
v -4974.13 77.3067 668.711
v -4975.32 77.3067 670.076
v -4975.32 76.8205 670.076
v -4974.71 76.8205 670.614
v -4974.71 77.3067 670.614
v -4973.51 77.3067 669.249
v -4973.51 76.8205 669.249
v -4974.12 77.499 669.982
v -4974.77 77.499 669.414
v -4974.77 77.0682 669.414
v -4974.12 77.0682 669.982
v -4974.41 77.499 670.306
v -4975.06 77.499 669.738
v -4974.77 77.499 669.414
v -4974.12 77.499 669.982
v -4974.41 77.0682 670.306
v -4975.06 77.0682 669.738
v -4975.06 77.499 669.738
v -4974.41 77.499 670.306
v -4974.12 77.0682 669.982
v -4974.77 77.0682 669.414
v -4975.06 77.0682 669.738
v -4974.41 77.0682 670.306
v -4974.99 77.4478 669.663
v -4975.06 77.499 669.738
v -4975.06 77.0682 669.738
v -4974.99 77.3848 669.663
v -4974.84 77.3848 669.49
v -4974.99 77.3848 669.663
v -4975.06 77.0682 669.738
v -4974.77 77.0682 669.414
v -4974.19 77.3848 670.058
v -4974.12 77.0682 669.982
v -4974.41 77.0682 670.306
v -4974.34 77.3848 670.231
v -4974.34 77.4478 670.231
v -4974.34 77.3848 670.231
v -4974.41 77.0682 670.306
v -4974.41 77.499 670.306
v -4974.84 77.4478 669.49
v -4974.77 77.499 669.414
v -4974.77 77.499 669.414
v -4974.84 77.4478 669.49
v -4974.12 77.499 669.982
v -4974.19 77.4478 670.058
v -4974.19 77.4478 670.058
v -4974.12 77.499 669.982
v -4974.84 77.3848 669.49
v -4974.8 77.4332 669.521
v -4974.96 77.4332 669.694
v -4974.99 77.3848 669.663
v -4974.99 77.3848 669.663
v -4974.96 77.4332 669.694
v -4974.99 77.4478 669.663
v -4974.99 77.4478 669.663
v -4974.96 77.4332 669.694
v -4974.8 77.4332 669.521
v -4974.84 77.4478 669.49
v -4974.84 77.4478 669.49
v -4974.8 77.4332 669.521
v -4974.84 77.3848 669.49
v -4974.34 77.3848 670.231
v -4974.38 77.4332 670.2
v -4974.23 77.4332 670.027
v -4974.19 77.3848 670.058
v -4974.19 77.3848 670.058
v -4974.23 77.4332 670.027
v -4974.19 77.4478 670.058
v -4974.19 77.4478 670.058
v -4974.23 77.4332 670.027
v -4974.38 77.4332 670.2
v -4974.34 77.4478 670.231
v -4974.34 77.4478 670.231
v -4974.38 77.4332 670.2
v -4974.34 77.3848 670.231
v -4974.12 76.6158 669.982
v -4974.12 77.0467 669.982
v -4974.77 77.0467 669.414
v -4974.77 76.6158 669.414
v -4974.12 77.0467 669.982
v -4974.41 77.0467 670.306
v -4975.06 77.0467 669.738
v -4974.77 77.0467 669.414
v -4974.41 77.0467 670.306
v -4974.41 76.6158 670.306
v -4975.06 76.6158 669.738
v -4975.06 77.0467 669.738
v -4974.41 76.6158 670.306
v -4974.12 76.6158 669.982
v -4974.77 76.6158 669.414
v -4975.06 76.6158 669.738
v -4974.77 76.6158 669.414
v -4974.77 77.0467 669.414
v -4975.06 77.0467 669.738
v -4975.06 76.6158 669.738
v -4974.41 76.6158 670.306
v -4974.41 77.0467 670.306
v -4974.12 77.0467 669.982
v -4974.12 76.6158 669.982
v -4973.83 76.6158 669.642
v -4973.83 77.0467 669.642
v -4974.47 77.0467 669.074
v -4974.47 76.6158 669.074
v -4973.83 77.0467 669.642
v -4974.11 77.0467 669.966
v -4974.76 77.0467 669.398
v -4974.47 77.0467 669.074
v -4974.11 77.0467 669.966
v -4974.11 76.6158 669.966
v -4974.76 76.6158 669.398
v -4974.76 77.0467 669.398
v -4974.11 76.6158 669.966
v -4973.83 76.6158 669.642
v -4974.47 76.6158 669.074
v -4974.76 76.6158 669.398
v -4974.47 76.6158 669.074
v -4974.47 77.0467 669.074
v -4974.76 77.0467 669.398
v -4974.76 76.6158 669.398
v -4974.11 76.6158 669.966
v -4974.11 77.0467 669.966
v -4973.83 77.0467 669.642
v -4973.83 76.6158 669.642
v -4973.83 77.499 669.642
v -4974.47 77.499 669.074
v -4974.47 77.0682 669.074
v -4973.83 77.0682 669.642
v -4974.11 77.499 669.966
v -4974.76 77.499 669.398
v -4974.47 77.499 669.074
v -4973.83 77.499 669.642
v -4974.11 77.0682 669.966
v -4974.76 77.0682 669.398
v -4974.76 77.499 669.398
v -4974.11 77.499 669.966
v -4973.83 77.0682 669.642
v -4974.47 77.0682 669.074
v -4974.76 77.0682 669.398
v -4974.11 77.0682 669.966
v -4974.69 77.4478 669.323
v -4974.76 77.499 669.398
v -4974.76 77.0682 669.398
v -4974.69 77.3848 669.323
v -4974.54 77.3848 669.15
v -4974.47 77.0682 669.074
v -4973.89 77.3848 669.718
v -4973.83 77.0682 669.642
v -4974.11 77.0682 669.966
v -4974.04 77.3848 669.891
v -4974.04 77.4478 669.891
v -4974.11 77.499 669.966
v -4974.76 77.499 669.398
v -4974.69 77.4478 669.323
v -4974.54 77.4478 669.15
v -4974.47 77.499 669.074
v -4974.47 77.0682 669.074
v -4974.54 77.3848 669.15
v -4973.83 77.499 669.642
v -4973.89 77.4478 669.718
v -4974.04 77.4478 669.891
v -4974.11 77.499 669.966
v -4973.83 77.0682 669.642
v -4973.89 77.3848 669.718
v -4974.54 77.3848 669.15
v -4974.5 77.4332 669.181
v -4974.66 77.4332 669.354
v -4974.69 77.3848 669.323
v -4974.69 77.3848 669.323
v -4974.66 77.4332 669.354
v -4974.69 77.4478 669.323
v -4974.69 77.4478 669.323
v -4974.66 77.4332 669.354
v -4974.5 77.4332 669.181
v -4974.54 77.4478 669.15
v -4974.54 77.4478 669.15
v -4974.5 77.4332 669.181
v -4974.54 77.3848 669.15
v -4974.04 77.3848 669.891
v -4974.08 77.4332 669.86
v -4973.93 77.4332 669.687
v -4973.89 77.3848 669.718
v -4973.89 77.3848 669.718
v -4973.93 77.4332 669.687
v -4973.89 77.4478 669.718
v -4973.89 77.4478 669.718
v -4973.93 77.4332 669.687
v -4974.08 77.4332 669.86
v -4974.04 77.4478 669.891
v -4974.04 77.4478 669.891
v -4974.08 77.4332 669.86
v -4974.04 77.3848 669.891
v -4973.53 76.6158 669.302
v -4973.53 77.0467 669.302
v -4974.18 77.0467 668.734
v -4974.18 76.6158 668.734
v -4973.53 77.0467 669.302
v -4973.81 77.0467 669.626
v -4974.46 77.0467 669.058
v -4974.18 77.0467 668.734
v -4973.81 77.0467 669.626
v -4973.81 76.6158 669.626
v -4974.46 76.6158 669.058
v -4974.46 77.0467 669.058
v -4973.81 76.6158 669.626
v -4973.53 76.6158 669.302
v -4974.18 76.6158 668.734
v -4974.46 76.6158 669.058
v -4974.18 76.6158 668.734
v -4974.18 77.0467 668.734
v -4974.46 77.0467 669.058
v -4974.46 76.6158 669.058
v -4973.81 76.6158 669.626
v -4973.81 77.0467 669.626
v -4973.53 77.0467 669.302
v -4973.53 76.6158 669.302
v -4973.53 77.499 669.302
v -4974.18 77.499 668.734
v -4974.18 77.0682 668.734
v -4973.53 77.0682 669.302
v -4973.81 77.499 669.626
v -4974.46 77.499 669.058
v -4974.18 77.499 668.734
v -4973.53 77.499 669.302
v -4973.81 77.0682 669.626
v -4974.46 77.0682 669.058
v -4974.46 77.499 669.058
v -4973.81 77.499 669.626
v -4973.53 77.0682 669.302
v -4974.18 77.0682 668.734
v -4974.46 77.0682 669.058
v -4973.81 77.0682 669.626
v -4974.39 77.4478 668.983
v -4974.46 77.499 669.058
v -4974.46 77.0682 669.058
v -4974.39 77.3848 668.983
v -4974.24 77.3848 668.81
v -4974.39 77.3848 668.983
v -4974.46 77.0682 669.058
v -4974.18 77.0682 668.734
v -4973.59 77.3848 669.378
v -4973.53 77.0682 669.302
v -4973.81 77.0682 669.626
v -4973.75 77.3848 669.551
v -4973.75 77.4478 669.551
v -4973.75 77.3848 669.551
v -4973.81 77.0682 669.626
v -4973.81 77.499 669.626
v -4974.46 77.499 669.058
v -4974.39 77.4478 668.983
v -4974.24 77.4478 668.81
v -4974.18 77.499 668.734
v -4974.18 77.0682 668.734
v -4974.18 77.499 668.734
v -4974.24 77.4478 668.81
v -4974.24 77.3848 668.81
v -4973.53 77.499 669.302
v -4973.59 77.4478 669.378
v -4973.53 77.0682 669.302
v -4973.59 77.3848 669.378
v -4974.24 77.3848 668.81
v -4974.21 77.4332 668.841
v -4974.36 77.4332 669.014
v -4974.39 77.3848 668.983
v -4974.39 77.3848 668.983
v -4974.36 77.4332 669.014
v -4974.39 77.4478 668.983
v -4974.39 77.4478 668.983
v -4974.36 77.4332 669.014
v -4974.21 77.4332 668.841
v -4974.24 77.4478 668.81
v -4974.24 77.4478 668.81
v -4974.21 77.4332 668.841
v -4974.24 77.3848 668.81
v -4973.75 77.3848 669.551
v -4973.78 77.4332 669.52
v -4973.63 77.4332 669.347
v -4973.59 77.3848 669.378
v -4973.59 77.3848 669.378
v -4973.63 77.4332 669.347
v -4973.59 77.4478 669.378
v -4973.59 77.4478 669.378
v -4973.63 77.4332 669.347
v -4973.78 77.4332 669.52
v -4973.75 77.4478 669.551
v -4973.75 77.4478 669.551
v -4973.78 77.4332 669.52
v -4973.75 77.3848 669.551
v -4975.18 75.7875 674.36
v -4975.18 77.2875 674.36
v -4976.68 77.2875 674.36
v -4976.68 75.7875 674.36
v -4975.18 77.2875 674.36
v -4975.18 77.2875 674.96
v -4976.68 77.2875 674.96
v -4976.68 77.2875 674.36
v -4975.18 77.2875 674.96
v -4975.18 77.3932 675.041
v -4976.68 77.3932 675.041
v -4976.68 77.2875 674.96
v -4975.18 77.3932 675.041
v -4975.18 77.3932 676.678
v -4976.68 77.3932 676.678
v -4976.68 77.3932 675.041
v -4975.18 77.3932 676.678
v -4975.18 77.2875 676.76
v -4976.68 77.2875 676.76
v -4976.68 77.3932 676.678
v -4975.18 77.2875 676.76
v -4975.18 77.2875 677.36
v -4976.68 77.2875 677.36
v -4976.68 77.2875 676.76
v -4975.18 77.2875 677.36
v -4975.18 75.7875 677.36
v -4976.68 75.7875 677.36
v -4976.68 77.2875 677.36
v -4975.18 75.7875 677.36
v -4975.18 75.7875 676.76
v -4976.68 75.7875 676.76
v -4976.68 75.7875 677.36
v -4975.18 75.7875 676.76
v -4975.18 75.8932 676.678
v -4976.68 75.8932 676.678
v -4976.68 75.7875 676.76
v -4975.18 75.8932 676.678
v -4975.18 75.8932 675.041
v -4976.68 75.8932 675.041
v -4976.68 75.8932 676.678
v -4975.18 75.8932 675.041
v -4975.18 75.7875 674.96
v -4976.68 75.7875 674.96
v -4976.68 75.8932 675.041
v -4975.18 75.7875 674.96
v -4975.18 75.7875 674.36
v -4976.68 75.7875 674.36
v -4976.68 75.7875 674.96
v -4976.68 75.7875 676.76
v -4976.68 77.2875 676.76
v -4976.68 77.2875 677.36
v -4976.68 75.7875 677.36
v -4976.68 75.8932 676.678
v -4976.68 77.3932 676.678
v -4976.68 75.8932 675.041
v -4976.68 77.3932 675.041
v -4976.68 75.7875 674.96
v -4976.68 77.2875 674.96
v -4976.68 75.7875 674.36
v -4976.68 77.2875 674.36
v -4975.18 75.7875 677.36
v -4975.18 77.2875 677.36
v -4975.18 77.2875 676.76
v -4975.18 75.7875 676.76
v -4975.18 77.3932 676.678
v -4975.18 75.8932 676.678
v -4975.18 77.3932 675.041
v -4975.18 75.8932 675.041
v -4975.18 77.2875 674.96
v -4975.18 75.7875 674.96
v -4975.18 77.2875 674.36
v -4975.18 75.7875 674.36
v -4974.17 76.3719 670.485
v -4974.17 77.3499 670.485
v -4974.4 77.3499 670.285
v -4974.4 76.3719 670.285
v -4974.27 77.5838 670.599
v -4974.37 77.5838 670.713
v -4974.6 77.5838 670.513
v -4974.5 77.5838 670.399
v -4974.6 77.5838 670.513
v -4974.37 77.5838 670.713
v -4974.37 76.3719 670.713
v -4974.6 76.3719 670.513
v -4974.6 76.3719 670.513
v -4974.37 76.3719 670.713
v -4974.17 76.3719 670.485
v -4974.4 76.3719 670.285
v -4974.5 77.5838 670.399
v -4974.6 77.5838 670.513
v -4974.6 76.3719 670.513
v -4974.4 76.3719 670.285
v -4974.4 77.3499 670.285
v -4974.27 77.5838 670.599
v -4974.17 77.3499 670.485
v -4974.17 76.3719 670.485
v -4974.37 76.3719 670.713
v -4974.37 77.5838 670.713
v -4974.27 77.5838 670.599
v -4974.5 77.5838 670.399
v -4974.4 77.3499 670.285
v -4974.17 77.3499 670.485
v -5004 74.8539 702
v -5004 74.8907 700
v -5004 75.1156 698
v -5004 75.3036 696
v -5004 75.7242 694
v -5004 75.8795 692
v -5004 76.2119 690
v -5004 76.4754 688
v -5004 76.7402 686
v -5004 76.9973 684
v -5004 77.2817 682
v -5004 77.6149 680
v -5004 78.3974 678
v -5004 78.8343 676
v -5004 79.6094 674
v -5004 80.4833 672
v -5004 81.1222 670
v -5004 82.2177 668
v -5004 82.5041 666
v -5004 83.7367 664
v -5004 85.4435 662
v -5004 86.0071 660
v -5004 85.7868 658
v -5004 85.6415 656
v -5004 85.0774 654
v -5004 82.8926 652
v -5004 79.0987 650
v -5004 79.0676 648
v -5004 78.9298 646
v -5004 79.0415 644
v -5004 78.9253 642
v -5004 79.0476 640
v -5002 74.4025 702
v -5002 74.5076 700
v -5002 74.8272 698
v -5002 74.9969 696
v -5002 75.4663 694
v -5002 75.6049 692
v -5002 75.8915 690
v -5002 76.0712 688
v -5002 76.4185 686
v -5002 76.6296 684
v -5002 77.0365 682
v -5002 77.3733 680
v -5002 78.2487 678
v -5002 79.177 676
v -5002 79.8093 674
v -5002 80.1998 672
v -5002 80.4349 670
v -5002 81.5053 668
v -5002 82.4267 666
v -5002 83.0503 664
v -5002 83.4244 662
v -5002 83.3461 660
v -5002 83.4828 658
v -5002 83.9842 656
v -5002 83.4378 654
v -5002 81.2457 652
v -5002 79.174 650
v -5002 79.0534 648
v -5002 78.8565 646
v -5002 79.0706 644
v -5002 78.9548 642
v -5002 78.9398 640
v -5000 74.4672 702
v -5000 74.2453 700
v -5000 74.5405 698
v -5000 74.7848 696
v -5000 74.9946 694
v -5000 75.4351 692
v -5000 75.6207 690
v -5000 75.7611 688
v -5000 76.1124 686
v -5000 76.3678 684
v -5000 76.665 682
v -5000 77.0945 680
v -5000 77.7029 678
v -5000 78.285 676
v -5000 79.5119 674
v -5000 79.2449 672
v -5000 79.8759 670
v -5000 80.5981 668
v -5000 81.2518 666
v -5000 82.2051 664
v -5000 81.5954 662
v -5000 81.4738 660
v -5000 81.9863 658
v -5000 83.3036 656
v -5000 83.6421 654
v -5000 81.2942 652
v -5000 79.1104 650
v -5000 79.0524 648
v -5000 78.9572 646
v -5000 79.052 644
v -5000 79.059 642
v -5000 79.0215 640
v -4998 74.8674 702
v -4998 74.7279 700
v -4998 74.4572 698
v -4998 74.6003 696
v -4998 74.7718 694
v -4998 75.0265 692
v -4998 75.2714 690
v -4998 75.5735 688
v -4998 75.7572 686
v -4998 76.1812 684
v -4998 76.3987 682
v -4998 76.7962 680
v -4998 77.193 678
v -4998 77.938 676
v -4998 78.2678 674
v -4998 78.3395 672
v -4998 78.7057 670
v -4998 79.4203 668
v -4998 80.1093 666
v -4998 81.0268 664
v -4998 80.4033 662
v -4998 80.4321 660
v -4998 81.3658 658
v -4998 82.8193 656
v -4998 83.1813 654
v -4998 81.3682 652
v -4998 79.0375 650
v -4998 79.0161 648
v -4998 79.0657 646
v -4998 79.1303 644
v -4998 79.0862 642
v -4998 79.1624 640
v -4996 75.2395 702
v -4996 75.0131 700
v -4996 74.7706 698
v -4996 74.6626 696
v -4996 74.5495 694
v -4996 74.8968 692
v -4996 75.0322 690
v -4996 75.2519 688
v -4996 75.569 686
v -4996 75.8519 684
v -4996 76.2566 682
v -4996 76.7927 680
v -4996 77.0891 678
v -4996 77.4415 676
v -4996 77.5395 674
v -4996 77.7441 672
v -4996 77.9868 670
v -4996 78.3189 668
v -4996 79.3312 666
v -4996 79.6874 664
v -4996 79.9254 662
v -4996 79.6241 660
v -4996 79.6584 658
v -4996 80.8785 656
v -4996 81.4506 654
v -4996 79.1231 652
v -4996 79.2206 650
v -4996 79.2017 648
v -4996 79.1469 646
v -4996 79.1612 644
v -4996 79.2146 642
v -4996 79.1311 640
v -4994 75.3468 702
v -4994 75.1857 700
v -4994 75.2268 698
v -4994 74.9677 696
v -4994 74.4442 694
v -4994 74.5445 692
v -4994 74.9192 690
v -4994 74.9661 688
v -4994 75.4478 686
v -4994 75.686 684
v -4994 76.155 682
v -4994 76.4616 680
v -4994 76.7642 678
v -4994 77.1444 676
v -4994 77.3935 674
v -4994 77.6549 672
v -4994 77.7867 670
v -4994 77.9045 668
v -4994 78.0777 666
v -4994 77.9703 664
v -4994 78.8367 662
v -4994 78.5615 660
v -4994 78.6786 658
v -4994 78.7946 656
v -4994 78.9368 654
v -4994 78.9567 652
v -4994 78.9932 650
v -4994 79.0907 648
v -4994 79.1758 646
v -4994 79.2004 644
v -4994 79.3081 642
v -4994 79.2173 640
v -4992 75.4666 702
v -4992 75.4313 700
v -4992 75.2791 698
v -4992 75.2087 696
v -4992 74.8271 694
v -4992 74.4639 692
v -4992 74.537 690
v -4992 74.8419 688
v -4992 75.2195 686
v -4992 75.4609 684
v -4992 76.0225 682
v -4992 76.3781 680
v -4992 76.6959 678
v -4992 77.01 676
v -4992 77.2669 674
v -4992 77.3654 672
v -4992 77.6383 670
v -4992 77.727 668
v -4992 78.0032 666
v -4992 78.0143 664
v -4992 78.2533 662
v -4992 78.3531 660
v -4992 78.6655 658
v -4992 78.763 656
v -4992 78.9556 654
v -4992 78.9572 652
v -4992 78.9886 650
v -4992 79.0703 648
v -4992 79.0818 646
v -4992 78.9886 644
v -4992 79.1018 642
v -4992 78.995 640
v -4990 75.6669 702
v -4990 75.5014 700
v -4990 75.397 698
v -4990 75.2747 696
v -4990 75.0617 694
v -4990 74.6614 692
v -4990 74.3301 690
v -4990 74.6048 688
v -4990 74.8904 686
v -4990 75.3387 684
v -4990 75.7406 682
v -4990 76.1363 680
v -4990 76.4856 678
v -4990 76.8997 676
v -4990 77.0711 674
v -4990 77.2916 672
v -4990 77.5277 670
v -4990 77.649 668
v -4990 77.8615 666
v -4990 78.0704 664
v -4990 78.1688 662
v -4990 78.3995 660
v -4990 78.594 658
v -4990 78.6189 656
v -4990 78.8336 654
v -4990 78.742 652
v -4990 78.8134 650
v -4990 78.9392 648
v -4990 78.8854 646
v -4990 78.9584 644
v -4990 78.9598 642
v -4990 78.8464 640
v -4988 75.7167 702
v -4988 75.6537 700
v -4988 75.5044 698
v -4988 75.3223 696
v -4988 75.1888 694
v -4988 74.8498 692
v -4988 74.3163 690
v -4988 74.4527 688
v -4988 74.8629 686
v -4988 75.0968 684
v -4988 75.4896 682
v -4988 75.9046 680
v -4988 76.3566 678
v -4988 76.6803 676
v -4988 76.929 674
v -4988 77.2124 672
v -4988 77.3978 670
v -4988 77.6702 668
v -4988 77.6651 666
v -4988 77.9469 664
v -4988 78.2186 662
v -4988 78.3573 660
v -4988 78.4413 658
v -4988 78.5767 656
v -4988 78.6505 654
v -4988 78.5594 652
v -4988 78.6147 650
v -4988 78.7391 648
v -4988 78.6658 646
v -4988 78.879 644
v -4988 78.8192 642
v -4988 78.7314 640
v -4986 75.9153 702
v -4986 75.723 700
v -4986 75.6676 698
v -4986 75.4389 696
v -4986 75.1325 694
v -4986 74.83 692
v -4986 74.5351 690
v -4986 74.3304 688
v -4986 74.7437 686
v -4986 74.9465 684
v -4986 75.3987 682
v -4986 75.7702 680
v -4986 76.2712 678
v -4986 76.478 676
v -4986 76.8435 674
v -4986 77.089 672
v -4986 77.3181 670
v -4986 77.43 668
v -4986 77.6594 666
v -4986 77.7296 664
v -4986 77.9143 662
v -4986 78.1288 660
v -4986 78.2962 658
v -4986 78.5407 656
v -4986 78.5585 654
v -4986 78.4975 652
v -4986 78.506 650
v -4986 78.524 648
v -4986 78.5971 646
v -4986 78.6355 644
v -4986 78.6839 642
v -4986 78.6494 640
v -4984 75.9846 702
v -4984 75.7757 700
v -4984 75.6917 698
v -4984 75.4703 696
v -4984 75.2414 694
v -4984 75.0624 692
v -4984 74.5566 690
v -4984 74.1657 688
v -4984 74.7812 686
v -4984 75.0547 684
v -4984 75.3882 682
v -4984 75.7041 680
v -4984 76.0804 678
v -4984 76.4018 676
v -4984 76.7755 674
v -4984 77.0505 672
v -4984 77.2197 670
v -4984 77.2992 668
v -4984 77.4711 666
v -4984 77.5378 664
v -4984 77.8552 662
v -4984 78.1033 660
v -4984 78.3579 658
v -4984 78.4421 656
v -4984 78.4398 654
v -4984 78.4674 652
v -4984 78.4534 650
v -4984 78.4321 648
v -4984 78.5045 646
v -4984 78.3946 644
v -4984 78.4771 642
v -4984 78.6031 640
v -4982 76.0375 702
v -4982 75.8493 700
v -4982 75.5951 698
v -4982 75.355 696
v -4982 75.1891 694
v -4982 74.9078 692
v -4982 74.7701 690
v -4982 74.3712 688
v -4982 74.6566 686
v -4982 74.9101 684
v -4982 75.2009 682
v -4982 75.652 680
v -4982 75.9201 678
v -4982 76.3708 676
v -4982 76.5145 674
v -4982 76.7887 672
v -4982 76.9076 670
v -4982 77.0269 668
v -4982 77.161 666
v -4982 77.439 664
v -4982 77.714 662
v -4982 77.8628 660
v -4982 78.0445 658
v -4982 78.2113 656
v -4982 78.4023 654
v -4982 78.4217 652
v -4982 78.3688 650
v -4982 78.3214 648
v -4982 78.3654 646
v -4982 78.3064 644
v -4982 78.3646 642
v -4982 78.4455 640
v -4980 76.1315 702
v -4980 75.8502 700
v -4980 75.5596 698
v -4980 75.274 696
v -4980 75.1314 694
v -4980 74.9364 692
v -4980 74.7322 690
v -4980 74.4346 688
v -4980 74.5537 686
v -4980 74.7691 684
v -4980 75.0696 682
v -4980 75.4279 680
v -4980 75.7501 678
v -4980 76.1765 676
v -4980 76.5141 674
v -4980 76.6322 672
v -4980 76.8235 670
v -4980 76.9682 668
v -4980 76.9956 666
v -4980 77.3302 664
v -4980 77.4588 662
v -4980 77.7514 660
v -4980 78.0487 658
v -4980 78.1342 656
v -4980 78.2856 654
v -4980 78.3153 652
v -4980 78.2302 650
v -4980 78.1149 648
v -4980 78.099 646
v -4980 78.2107 644
v -4980 78.178 642
v -4980 78.3177 640
v -4978 76.0234 702
v -4978 75.7835 700
v -4978 75.5497 698
v -4978 75.2831 696
v -4978 75.1324 694
v -4978 74.9768 692
v -4978 74.7588 690
v -4978 74.5091 688
v -4978 74.2524 686
v -4978 74.6258 684
v -4978 74.9283 682
v -4978 75.1986 680
v -4978 75.6357 678
v -4978 75.9381 676
v -4978 76.2698 674
v -4978 76.6301 672
v -4978 76.827 670
v -4978 76.926 668
v -4978 76.9422 666
v -4978 77.2198 664
v -4978 77.4827 662
v -4978 77.6785 660
v -4978 77.888 658
v -4978 78.1972 656
v -4978 78.1452 654
v -4978 78.2019 652
v -4978 78.0651 650
v -4978 77.9811 648
v -4978 78.0247 646
v -4978 77.9136 644
v -4978 78.0618 642
v -4978 78.1184 640
v -4976 75.9165 702
v -4976 75.8217 700
v -4976 75.621 698
v -4976 75.3861 696
v -4976 75.264 694
v -4976 74.9573 692
v -4976 74.7413 690
v -4976 74.3672 688
v -4976 74.192 686
v -4976 74.4251 684
v -4976 74.6715 682
v -4976 74.9552 680
v -4976 75.3519 678
v -4976 75.7666 676
v -4976 76.2139 674
v -4976 76.5805 672
v -4976 76.7298 670
v -4976 76.8571 668
v -4976 77.0402 666
v -4976 77.2424 664
v -4976 77.4042 662
v -4976 77.6661 660
v -4976 77.6555 658
v -4976 77.8434 656
v -4976 77.9837 654
v -4976 78.017 652
v -4976 77.9903 650
v -4976 77.877 648
v -4976 77.9301 646
v -4976 77.8515 644
v -4976 77.7372 642
v -4976 77.8777 640
v -4974 75.8858 702
v -4974 75.7983 700
v -4974 75.7744 698
v -4974 75.4887 696
v -4974 75.3375 694
v -4974 75.0603 692
v -4974 74.7956 690
v -4974 74.607 688
v -4974 74.2309 686
v -4974 74.3995 684
v -4974 74.7235 682
v -4974 75.0274 680
v -4974 75.2229 678
v -4974 75.534 676
v -4974 75.932 674
v -4974 76.2776 672
v -4974 76.5583 670
v -4974 76.7762 668
v -4974 76.9238 666
v -4974 77.1735 664
v -4974 77.3332 662
v -4974 77.3256 660
v -4974 77.5323 658
v -4974 77.7001 656
v -4974 77.8402 654
v -4974 77.7767 652
v -4974 77.7577 650
v -4974 77.858 648
v -4974 77.7718 646
v -4974 77.7164 644
v -4974 77.725 642
v -4974 77.6753 640
v -4972 75.6978 702
v -4972 75.6951 700
v -4972 75.6273 698
v -4972 75.5877 696
v -4972 75.4541 694
v -4972 75.2088 692
v -4972 74.8842 690
v -4972 74.5238 688
v -4972 74.1519 686
v -4972 74.4534 684
v -4972 74.7457 682
v -4972 74.9205 680
v -4972 75.1798 678
v -4972 75.4617 676
v -4972 75.7858 674
v -4972 76.1205 672
v -4972 76.3076 670
v -4972 76.6169 668
v -4972 76.6617 666
v -4972 76.9737 664
v -4972 77.0263 662
v -4972 77.1676 660
v -4972 77.2866 658
v -4972 77.4322 656
v -4972 77.4332 654
v -4972 77.4852 652
v -4972 77.6094 650
v -4972 77.6063 648
v -4972 77.5951 646
v -4972 77.5071 644
v -4972 77.6309 642
v -4972 77.5003 640
v -4970 75.6894 702
v -4970 75.6219 700
v -4970 75.6051 698
v -4970 75.6437 696
v -4970 75.341 694
v -4970 75.0722 692
v -4970 74.784 690
v -4970 74.5776 688
v -4970 74.2748 686
v -4970 74.3821 684
v -4970 74.7883 682
v -4970 74.97 680
v -4970 75.1143 678
v -4970 75.4424 676
v -4970 75.5528 674
v -4970 75.8608 672
v -4970 76.095 670
v -4970 76.3316 668
v -4970 76.4615 666
v -4970 76.7862 664
v -4970 76.7979 662
v -4970 76.8873 660
v -4970 76.9312 658
v -4970 77.1842 656
v -4970 77.117 654
v -4970 77.2867 652
v -4970 77.3142 650
v -4970 77.3552 648
v -4970 77.4352 646
v -4970 77.3961 644
v -4970 77.4459 642
v -4970 77.3893 640
v -4968 75.6152 702
v -4968 75.5208 700
v -4968 75.5027 698
v -4968 75.4903 696
v -4968 75.3075 694
v -4968 74.8646 692
v -4968 74.6336 690
v -4968 74.5216 688
v -4968 74.199 686
v -4968 74.4892 684
v -4968 74.817 682
v -4968 74.9459 680
v -4968 75.0521 678
v -4968 75.2129 676
v -4968 75.519 674
v -4968 75.6106 672
v -4968 75.8015 670
v -4968 75.9594 668
v -4968 76.2293 666
v -4968 76.5809 664
v -4968 76.6241 662
v -4968 76.6499 660
v -4968 76.7555 658
v -4968 76.9072 656
v -4968 76.9331 654
v -4968 77.0475 652
v -4968 77.0416 650
v -4968 77.1148 648
v -4968 77.1452 646
v -4968 77.3882 644
v -4968 77.3121 642
v -4968 77.2411 640
v -4966 75.4238 702
v -4966 75.3055 700
v -4966 75.2276 698
v -4966 75.272 696
v -4966 75.057 694
v -4966 74.833 692
v -4966 74.6694 690
v -4966 74.3456 688
v -4966 74.205 686
v -4966 74.2784 684
v -4966 74.5836 682
v -4966 74.7933 680
v -4966 75.148 678
v -4966 75.1502 676
v -4966 75.3774 674
v -4966 75.568 672
v -4966 75.5935 670
v -4966 75.7357 668
v -4966 76.0772 666
v -4966 76.2871 664
v -4966 76.3007 662
v -4966 76.4679 660
v -4966 76.481 658
v -4966 76.545 656
v -4966 76.5974 654
v -4966 76.6824 652
v -4966 76.8477 650
v -4966 76.7928 648
v -4966 77.0178 646
v -4966 77.0772 644
v -4966 76.8927 642
v -4966 76.8279 640
v -4964 75.1739 702
v -4964 75.344 700
v -4964 75.3045 698
v -4964 75.1336 696
v -4964 74.8766 694
v -4964 74.7698 692
v -4964 74.4373 690
v -4964 74.4186 688
v -4964 74.3324 686
v -4964 74.3892 684
v -4964 74.6719 682
v -4964 74.793 680
v -4964 74.9265 678
v -4964 75.0862 676
v -4964 75.2948 674
v -4964 75.3674 672
v -4964 75.4895 670
v -4964 75.6213 668
v -4964 75.767 666
v -4964 76.0117 664
v -4964 76.2662 662
v -4964 76.3328 660
v -4964 76.3559 658
v -4964 76.4571 656
v -4964 76.4582 654
v -4964 76.4974 652
v -4964 76.6069 650
v -4964 76.5722 648
v -4964 76.7378 646
v -4964 76.699 644
v -4964 76.7262 642
v -4964 76.6154 640
v -4962 75.0476 702
v -4962 75.1065 700
v -4962 75.123 698
v -4962 74.8638 696
v -4962 74.7508 694
v -4962 74.6722 692
v -4962 74.5614 690
v -4962 74.4849 688
v -4962 74.1701 686
v -4962 74.3008 684
v -4962 74.5146 682
v -4962 74.7385 680
v -4962 74.95 678
v -4962 75.226 676
v -4962 75.3982 674
v -4962 75.3486 672
v -4962 75.4169 670
v -4962 75.4528 668
v -4962 75.5346 666
v -4962 75.8405 664
v -4962 75.9744 662
v -4962 76.1476 660
v -4962 76.0986 658
v -4962 76.1404 656
v -4962 76.0796 654
v -4962 76.3027 652
v -4962 76.2892 650
v -4962 76.4462 648
v -4962 76.6571 646
v -4962 76.4777 644
v -4962 76.477 642
v -4962 76.3197 640
v -4960 74.9152 702
v -4960 74.9836 700
v -4960 75.0131 698
v -4960 74.8456 696
v -4960 74.6094 694
v -4960 74.5852 692
v -4960 74.4861 690
v -4960 74.4748 688
v -4960 74.2448 686
v -4960 74.4476 684
v -4960 74.5159 682
v -4960 74.7038 680
v -4960 74.9495 678
v -4960 75.1991 676
v -4960 75.2064 674
v -4960 75.3604 672
v -4960 75.3386 670
v -4960 75.3763 668
v -4960 75.4118 666
v -4960 75.6917 664
v -4960 75.6771 662
v -4960 75.7954 660
v -4960 75.7836 658
v -4960 75.8501 656
v -4960 75.858 654
v -4960 75.8618 652
v -4960 76.0231 650
v -4960 76.1306 648
v -4960 76.345 646
v -4960 76.1259 644
v -4960 76.1661 642
v -4960 76.0046 640
v -4958 74.7894 702
v -4958 74.8118 700
v -4958 74.8408 698
v -4958 74.8079 696
v -4958 74.4735 694
v -4958 74.4719 692
v -4958 74.3392 690
v -4958 74.3838 688
v -4958 74.2974 686
v -4958 74.4455 684
v -4958 74.5622 682
v -4958 74.8183 680
v -4958 74.9171 678
v -4958 75.1432 676
v -4958 75.2815 674
v -4958 75.2851 672
v -4958 75.2468 670
v -4958 75.2768 668
v -4958 75.3022 666
v -4958 75.4451 664
v -4958 75.4616 662
v -4958 75.4393 660
v -4958 75.4716 658
v -4958 75.6224 656
v -4958 75.592 654
v -4958 75.5545 652
v -4958 75.6672 650
v -4958 75.8435 648
v -4958 75.9709 646
v -4958 75.8058 644
v -4958 75.8924 642
v -4958 75.7322 640
v -4956 74.7627 702
v -4956 74.7782 700
v -4956 74.6895 698
v -4956 74.5909 696
v -4956 74.4735 694
v -4956 74.3918 692
v -4956 74.3289 690
v -4956 74.2361 688
v -4956 74.417 686
v -4956 74.5841 684
v -4956 74.6823 682
v -4956 74.8277 680
v -4956 75.0136 678
v -4956 75.0814 676
v -4956 75.1925 674
v -4956 75.1547 672
v -4956 75.2043 670
v -4956 75.0483 668
v -4956 75.1266 666
v -4956 75.0358 664
v -4956 75.1681 662
v -4956 75.2418 660
v -4956 75.2583 658
v -4956 75.3105 656
v -4956 75.2647 654
v -4956 75.3583 652
v -4956 75.5308 650
v -4956 75.5018 648
v -4956 75.5794 646
v -4956 75.5331 644
v -4956 75.455 642
v -4956 75.3263 640
v -4954 74.5943 702
v -4954 74.591 700
v -4954 74.6655 698
v -4954 74.4657 696
v -4954 74.3499 694
v -4954 74.2474 692
v -4954 74.1899 690
v -4954 74.3552 688
v -4954 74.4603 686
v -4954 74.4566 684
v -4954 74.6409 682
v -4954 74.7703 680
v -4954 74.9362 678
v -4954 74.8938 676
v -4954 75.0293 674
v -4954 75.0767 672
v -4954 74.9526 670
v -4954 74.877 668
v -4954 75.0005 666
v -4954 74.8542 664
v -4954 75.0081 662
v -4954 75.1074 660
v -4954 75.1902 658
v -4954 75.0649 656
v -4954 75.0318 654
v -4954 75.0808 652
v -4954 75.0827 650
v -4954 75.196 648
v -4954 75.1758 646
v -4954 75.1145 644
v -4954 75.0737 642
v -4954 74.8427 640
v -4952 74.3674 702
v -4952 74.3844 700
v -4952 74.3503 698
v -4952 74.4076 696
v -4952 74.338 694
v -4952 74.3642 692
v -4952 74.3542 690
v -4952 74.3092 688
v -4952 74.4319 686
v -4952 74.3568 684
v -4952 74.5591 682
v -4952 74.649 680
v -4952 74.8203 678
v -4952 74.8714 676
v -4952 74.9407 674
v -4952 74.7994 672
v -4952 74.7346 670
v -4952 74.6541 668
v -4952 74.675 666
v -4952 74.5828 664
v -4952 74.654 662
v -4952 74.7863 660
v -4952 74.856 658
v -4952 74.736 656
v -4952 74.8634 654
v -4952 74.7956 652
v -4952 74.7647 650
v -4952 74.7515 648
v -4952 74.9507 646
v -4952 74.7766 644
v -4952 74.6161 642
v -4952 74.5471 640
v -4950 74.3709 702
v -4950 74.4183 700
v -4950 74.4511 698
v -4950 74.5466 696
v -4950 74.4915 694
v -4950 74.4862 692
v -4950 74.488 690
v -4950 74.4091 688
v -4950 74.4129 686
v -4950 74.4701 684
v -4950 74.4733 682
v -4950 74.5371 680
v -4950 74.6674 678
v -4950 74.5935 676
v -4950 74.7382 674
v -4950 74.6999 672
v -4950 74.5407 670
v -4950 74.392 668
v -4950 74.315 666
v -4950 74.212 664
v -4950 74.3809 662
v -4950 74.4772 660
v -4950 74.4741 658
v -4950 74.4936 656
v -4950 74.3773 654
v -4950 74.3718 652
v -4950 74.3094 650
v -4950 74.3274 648
v -4950 74.4485 646
v -4950 74.3767 644
v -4950 74.3868 642
v -4950 74.3465 640
v -4948 74.4431 702
v -4948 74.4461 700
v -4948 74.4654 698
v -4948 74.6066 696
v -4948 74.5896 694
v -4948 74.6264 692
v -4948 74.6424 690
v -4948 74.5594 688
v -4948 74.5617 686
v -4948 74.438 684
v -4948 74.5328 682
v -4948 74.4582 680
v -4948 74.5226 678
v -4948 74.5515 676
v -4948 74.6116 674
v -4948 74.4274 672
v -4948 74.2384 670
v -4948 74.061 668
v -4948 73.9171 666
v -4948 73.9463 664
v -4948 74.0213 662
v -4948 74.1153 660
v -4948 74.226 658
v -4948 74.3396 656
v -4948 74.1524 654
v -4948 74.3423 652
v -4948 74.3288 650
v -4948 74.5696 648
v -4948 74.5954 646
v -4948 74.7124 644
v -4948 74.7416 642
v -4948 74.8115 640
v -4946 74.6501 702
v -4946 74.5559 700
v -4946 74.6405 698
v -4946 74.6261 696
v -4946 74.75 694
v -4946 74.7895 692
v -4946 74.7605 690
v -4946 74.8161 688
v -4946 74.7384 686
v -4946 74.4877 684
v -4946 74.3949 682
v -4946 74.3765 680
v -4946 74.4277 678
v -4946 74.3828 676
v -4946 74.356 674
v -4946 74.2027 672
v -4946 74.2555 670
v -4946 74.1354 668
v -4946 73.9684 666
v -4946 74.1184 664
v -4946 74.2556 662
v -4946 74.4343 660
v -4946 74.3484 658
v -4946 74.545 656
v -4946 74.5444 654
v -4946 74.7217 652
v -4946 74.7097 650
v -4946 74.8061 648
v -4946 75.0055 646
v -4946 75.1289 644
v -4946 75.164 642
v -4946 75.0906 640
v -4944 74.9148 702
v -4944 74.756 700
v -4944 74.6946 698
v -4944 74.5789 696
v -4944 74.7014 694
v -4944 74.7436 692
v -4944 74.9071 690
v -4944 74.781 688
v -4944 74.7545 686
v -4944 74.6569 684
v -4944 74.6451 682
v -4944 74.5317 680
v -4944 74.3738 678
v -4944 74.3148 676
v -4944 74.363 674
v -4944 74.4037 672
v -4944 74.2604 670
v -4944 74.3271 668
v -4944 74.2541 666
v -4944 74.5047 664
v -4944 74.5535 662
v -4944 74.6117 660
v -4944 74.759 658
v -4944 74.9643 656
v -4944 74.9034 654
v -4944 74.9047 652
v -4944 74.9997 650
v -4944 75.0859 648
v -4944 75.1844 646
v -4944 75.3063 644
v -4944 75.4833 642
v -4944 75.4673 640
v -4942 75.0895 702
v -4942 75.0327 700
v -4942 74.9243 698
v -4942 74.8909 696
v -4942 74.8946 694
v -4942 74.7788 692
v -4942 74.8306 690
v -4942 74.904 688
v -4942 74.8723 686
v -4942 74.7224 684
v -4942 74.565 682
v -4942 74.4602 680
v -4942 74.3887 678
v -4942 74.4089 676
v -4942 74.4718 674
v -4942 74.5906 672
v -4942 74.5884 670
v -4942 74.635 668
v -4942 74.6137 666
v -4942 74.7978 664
v -4942 74.8568 662
v -4942 74.998 660
v -4942 75.1126 658
v -4942 75.3329 656
v -4942 75.3172 654
v -4942 75.4712 652
v -4942 75.4741 650
v -4942 75.4016 648
v -4942 75.504 646
v -4942 75.66 644
v -4942 75.7411 642
v -4942 75.732 640
f 55 54 53
f 54 52 53
f 53 52 51
f 100 53 51
f 100 101 53
f 101 102 53
f 53 102 55
f 108 107 64
f 59 106 61
f 107 106 59
f 64 107 59
f 56 54 55
f 20 22 54
f 56 20 54
f 59 65 64
f 54 22 52
f 20 39 19
f 60 65 59
f 21 20 19
f 61 60 59
f 44 16 43
f 44 43 46
f 46 43 45
f 43 16 15
f 40 20 56
f 40 39 20
f 22 20 21
f 76 75 77
f 77 75 78
f 62 60 61
f 63 60 62
f 57 56 55
f 102 103 55
f 55 103 57
f 82 51 52
f 82 81 51
f 113 51 81
f 113 100 51
f 64 67 66
f 65 67 64
f 66 108 64
f 109 108 66
f 89 62 61
f 61 90 89
f 61 112 90
f 106 112 61
f 58 56 57
f 58 40 56
f 52 22 83
f 52 83 82
f 91 63 62
f 89 91 62
f 46 26 44
f 44 25 16
f 26 25 44
f 40 30 39
f 46 45 42
f 42 45 41
f 22 21 38
f 38 21 37
f 15 14 13
f 16 14 15
f 32 40 58
f 32 30 40
f 22 38 83
f 78 75 79
f 74 75 76
f 63 91 92
f 82 93 81
f 117 81 116
f 117 113 81
f 93 82 94
f 82 83 94
f 94 83 95
f 27 26 46
f 42 27 46
f 27 24 26
f 26 24 25
f 16 23 14
f 25 23 16
f 28 24 27
f 28 27 42
f 25 24 23
f 95 83 38
f 29 24 28
f 23 24 29
f 75 74 73
f 79 75 80
f 80 75 73
f 9 6 8
f 38 37 36
f 36 84 38
f 72 97 96
f 5 6 9
f 12 5 9
f 4 3 6
f 4 6 5
f 72 96 71
f 71 96 99
f 36 85 84
f 85 86 84
f 29 28 18
f 18 28 42
f 23 29 14
f 12 11 5
f 11 7 5
f 7 4 5
f 42 41 18
f 14 29 18
f 14 18 17
f 14 17 13
f 3 2 1
f 4 2 3
f 71 99 70
f 99 98 70
f 85 87 86
f 7 2 4
f 11 10 7
f 105 115 114
f 105 114 49
f 88 87 85
f 118 111 70
f 118 70 98
f 67 69 66
f 72 71 69
f 33 31 32
f 32 31 30
f 48 32 58
f 33 32 48
f 18 41 17
f 69 71 70
f 35 33 50
f 35 34 33
f 33 34 31
f 66 69 68
f 48 58 47
f 47 58 57
f 68 109 66
f 110 109 68
f 69 70 68
f 50 48 49
f 50 33 48
f 111 110 68
f 111 68 70
f 104 105 49
f 104 49 47
f 49 48 47
f 57 104 47
f 103 104 57
f 177 176 175
f 169 168 167
f 169 170 168
f 181 180 179
f 178 176 177
f 173 172 171
f 181 182 180
f 172 173 174
f 197 196 195
f 185 184 183
f 185 186 184
f 161 160 159
f 162 160 161
f 157 156 155
f 193 192 191
f 153 152 151
f 197 198 196
f 189 188 187
f 188 189 190
f 165 164 163
f 156 157 158
f 165 166 164
f 194 192 193
f 153 154 152
f 213 212 211
f 213 214 212
f 201 202 200
f 146 144 145
f 141 140 139
f 140 141 142
f 204 205 206
f 149 150 148
f 201 200 199
f 209 208 207
f 210 208 209
f 145 144 143
f 137 136 135
f 137 138 136
f 205 204 203
f 149 148 147
f 133 134 132
f 124 125 126
f 133 132 131
f 121 122 120
f 125 124 123
f 130 128 129
f 121 120 119
f 129 128 127
f 215 216 217
f 217 216 218
f 219 220 221
f 221 220 222
f 223 224 225
f 225 224 226
f 227 228 229
f 229 228 230
f 231 232 233
f 233 232 234
f 235 236 237
f 237 236 238
f 239 240 241
f 241 240 242
f 243 244 245
f 245 244 246
f 247 248 249
f 249 248 250
f 251 252 253
f 253 252 254
f 255 256 257
f 257 256 258
f 259 260 261
f 261 260 262
f 323 324 369
f 320 324 323
f 319 320 323
f 321 320 319
f 322 321 319
f 321 322 365
f 322 368 365
f 368 367 365
f 367 366 365
f 350 349 348
f 309 308 307
f 310 309 307
f 305 304 303
f 306 305 303
f 301 300 299
f 302 301 299
f 343 342 341
f 270 269 267
f 269 268 267
f 274 273 271
f 273 272 271
f 278 277 275
f 277 276 275
f 282 281 279
f 281 280 279
f 286 285 283
f 285 284 283
f 290 289 287
f 289 288 287
f 294 293 291
f 293 292 291
f 298 297 295
f 297 296 295
f 324 373 369
f 373 372 369
f 372 371 369
f 371 370 369
f 374 323 369
f 326 325 323
f 325 319 323
f 347 346 344
f 346 345 344
f 265 264 263
f 266 265 263
f 354 353 351
f 353 352 351
f 329 328 327
f 336 335 334
f 333 332 330
f 332 331 330
f 340 339 337
f 339 338 337
f 357 356 355
f 317 357 355
f 361 360 359
f 355 361 359
f 316 315 311
f 315 314 311
f 314 313 311
f 313 312 311
f 312 313 317
f 318 312 317
f 318 317 355
f 358 318 355
f 358 355 359
f 362 358 359
f 363 362 359
f 364 363 359
f 563 562 561
f 564 563 561
f 816 815 814
f 677 676 675
f 678 677 675
f 677 678 679
f 680 677 679
f 809 808 807
f 422 421 419
f 667 666 665
f 668 667 665
f 663 662 661
f 664 663 661
f 659 658 657
f 660 659 657
f 655 654 653
f 656 655 653
f 567 566 565
f 568 567 565
f 759 758 757
f 760 759 757
f 755 754 753
f 756 755 753
f 751 750 749
f 752 751 749
f 747 746 745
f 748 747 745
f 568 565 573
f 565 574 573
f 688 692 691
f 687 688 691
f 689 688 687
f 690 689 687
f 576 575 562
f 575 561 562
f 492 491 489
f 491 490 489
f 496 495 493
f 495 494 493
f 500 499 497
f 551 550 549
f 552 551 549
f 547 546 545
f 548 547 545
f 543 542 541
f 544 543 541
f 539 538 537
f 540 539 537
f 499 498 497
f 504 503 501
f 511 510 509
f 512 511 509
f 503 502 501
f 651 650 649
f 652 651 649
f 643 642 641
f 644 643 641
f 639 638 637
f 640 639 637
f 635 634 633
f 636 635 633
f 631 630 629
f 632 631 629
f 627 626 625
f 628 627 625
f 488 487 485
f 619 618 617
f 620 619 617
f 615 614 613
f 616 615 613
f 487 486 485
f 604 603 602
f 735 734 733
f 736 735 733
f 731 730 729
f 732 731 729
f 727 726 725
f 728 727 725
f 723 722 721
f 724 723 721
f 716 715 714
f 717 716 714
f 709 708 707
f 710 709 707
f 413 414 402
f 414 401 402
f 611 610 609
f 612 611 609
f 607 606 605
f 464 463 462
f 393 392 391
f 394 393 391
f 389 388 387
f 390 389 387
f 385 384 383
f 386 385 383
f 381 380 379
f 382 381 379
f 377 376 375
f 378 377 375
f 812 811 810
f 813 812 810
f 805 804 803
f 806 805 803
f 457 456 455
f 597 596 595
f 743 742 741
f 744 743 741
f 467 466 465
f 468 467 465
f 460 459 458
f 461 460 458
f 453 452 451
f 454 453 451
f 403 404 405
f 406 403 405
f 406 405 413
f 405 414 413
f 713 712 711
f 775 774 773
f 776 775 773
f 776 773 785
f 773 786 785
f 785 786 787
f 771 770 769
f 772 771 769
f 786 788 787
f 720 719 718
f 593 592 591
f 594 593 591
f 403 402 401
f 404 403 401
f 601 600 598
f 479 478 477
f 480 479 477
f 475 474 473
f 600 599 598
f 476 475 473
f 471 470 469
f 472 471 469
f 608 607 605
f 523 522 521
f 528 527 525
f 527 526 525
f 524 523 521
f 536 535 533
f 535 534 533
f 519 518 517
f 520 519 517
f 515 514 513
f 516 515 513
f 425 424 423
f 433 432 430
f 426 425 423
f 421 420 419
f 432 431 430
f 436 435 434
f 417 416 415
f 418 417 415
f 429 428 427
f 792 791 789
f 791 790 789
f 795 794 793
f 695 694 693
f 696 695 693
f 706 705 704
f 440 439 437
f 439 438 437
f 447 446 444
f 446 445 444
f 587 586 584
f 586 585 584
f 802 801 800
f 703 702 700
f 702 701 700
f 699 698 697
f 443 442 441
f 579 578 577
f 580 579 577
f 450 449 448
f 799 798 796
f 583 582 581
f 798 797 796
f 590 589 588
f 532 531 529
f 531 530 529
f 779 778 777
f 784 783 781
f 783 782 781
f 397 396 395
f 398 397 395
f 397 398 399
f 400 397 399
f 399 412 400
f 412 411 400
f 739 738 737
f 740 739 737
f 508 507 505
f 507 506 505
f 556 555 553
f 555 554 553
f 569 553 554
f 570 569 554
f 624 623 621
f 483 482 481
f 484 483 481
f 623 622 621
f 648 647 645
f 647 646 645
f 674 671 673
f 671 672 673
f 672 671 669
f 671 670 669
f 409 408 407
f 410 409 407
f 686 683 685
f 683 684 685
f 684 683 681
f 683 682 681
f 764 763 761
f 763 762 761
f 572 571 560
f 557 572 560
f 560 559 557
f 559 558 557
f 768 767 765
f 767 766 765
f 780 779 777
f 847 846 845
f 848 847 845
f 843 842 841
f 844 843 841
f 839 838 837
f 840 839 837
f 835 834 833
f 836 835 833
f 831 830 829
f 832 831 829
f 827 826 825
f 828 827 825
f 879 878 877
f 880 879 877
f 881 879 880
f 882 881 880
f 883 881 882
f 884 883 882
f 885 883 884
f 886 885 884
f 887 885 886
f 888 887 886
f 823 822 821
f 824 823 821
f 819 818 817
f 820 819 817
f 863 862 861
f 864 863 861
f 859 858 857
f 860 859 857
f 855 854 853
f 856 855 853
f 851 850 849
f 852 851 849
f 868 867 865
f 867 866 865
f 865 866 869
f 866 870 869
f 869 870 871
f 870 872 871
f 871 872 873
f 872 874 873
f 873 874 875
f 874 876 875
f 891 890 889
f 892 891 889
f 917 916 915
f 918 917 915
f 903 902 901
f 904 903 901
f 899 898 897
f 900 899 897
f 895 894 893
f 896 895 893
f 912 911 910
f 913 912 910
f 914 913 910
f 907 906 905
f 908 907 905
f 909 908 905
f 952 920 919
f 919 951 952
f 984 952 951
f 951 983 984
f 1016 984 983
f 983 1015 1016
f 1048 1016 1015
f 1015 1047 1048
f 1080 1048 1047
f 1047 1079 1080
f 1112 1080 1079
f 1079 1111 1112
f 1144 1112 1111
f 1111 1143 1144
f 1176 1144 1143
f 1143 1175 1176
f 1208 1176 1175
f 1175 1207 1208
f 1240 1208 1207
f 1207 1239 1240
f 1272 1240 1239
f 1239 1271 1272
f 1304 1272 1271
f 1271 1303 1304
f 1336 1304 1303
f 1303 1335 1336
f 1368 1336 1335
f 1335 1367 1368
f 1400 1368 1367
f 1367 1399 1400
f 1432 1400 1399
f 1399 1431 1432
f 1464 1432 1431
f 1431 1463 1464
f 1496 1464 1463
f 1463 1495 1496
f 1528 1496 1495
f 1495 1527 1528
f 1560 1528 1527
f 1527 1559 1560
f 1592 1560 1559
f 1559 1591 1592
f 1624 1592 1591
f 1591 1623 1624
f 1656 1624 1623
f 1623 1655 1656
f 1688 1656 1655
f 1655 1687 1688
f 1720 1688 1687
f 1687 1719 1720
f 1752 1720 1719
f 1719 1751 1752
f 1784 1752 1751
f 1751 1783 1784
f 1816 1784 1783
f 1783 1815 1816
f 1848 1816 1815
f 1815 1847 1848
f 1880 1848 1847
f 1847 1879 1880
f 1912 1880 1879
f 1879 1911 1912
f 953 921 920
f 920 952 953
f 985 953 952
f 952 984 985
f 1017 985 984
f 984 1016 1017
f 1049 1017 1016
f 1016 1048 1049
f 1081 1049 1048
f 1048 1080 1081
f 1113 1081 1080
f 1080 1112 1113
f 1145 1113 1112
f 1112 1144 1145
f 1177 1145 1144
f 1144 1176 1177
f 1209 1177 1176
f 1176 1208 1209
f 1241 1209 1208
f 1208 1240 1241
f 1273 1241 1240
f 1240 1272 1273
f 1305 1273 1272
f 1272 1304 1305
f 1337 1305 1304
f 1304 1336 1337
f 1369 1337 1336
f 1336 1368 1369
f 1401 1369 1368
f 1368 1400 1401
f 1433 1401 1400
f 1400 1432 1433
f 1465 1433 1432
f 1432 1464 1465
f 1497 1465 1464
f 1464 1496 1497
f 1529 1497 1496
f 1496 1528 1529
f 1561 1529 1528
f 1528 1560 1561
f 1593 1561 1560
f 1560 1592 1593
f 1625 1593 1592
f 1592 1624 1625
f 1657 1625 1624
f 1624 1656 1657
f 1689 1657 1656
f 1656 1688 1689
f 1721 1689 1688
f 1688 1720 1721
f 1753 1721 1720
f 1720 1752 1753
f 1785 1753 1752
f 1752 1784 1785
f 1817 1785 1784
f 1784 1816 1817
f 1849 1817 1816
f 1816 1848 1849
f 1881 1849 1848
f 1848 1880 1881
f 1913 1881 1880
f 1880 1912 1913
f 954 922 921
f 921 953 954
f 986 954 953
f 953 985 986
f 1018 986 985
f 985 1017 1018
f 1050 1018 1017
f 1017 1049 1050
f 1082 1050 1049
f 1049 1081 1082
f 1114 1082 1081
f 1081 1113 1114
f 1146 1114 1113
f 1113 1145 1146
f 1178 1146 1145
f 1145 1177 1178
f 1210 1178 1177
f 1177 1209 1210
f 1242 1210 1209
f 1209 1241 1242
f 1274 1242 1241
f 1241 1273 1274
f 1306 1274 1273
f 1273 1305 1306
f 1338 1306 1305
f 1305 1337 1338
f 1370 1338 1337
f 1337 1369 1370
f 1402 1370 1369
f 1369 1401 1402
f 1434 1402 1401
f 1401 1433 1434
f 1466 1434 1433
f 1433 1465 1466
f 1498 1466 1465
f 1465 1497 1498
f 1530 1498 1497
f 1497 1529 1530
f 1562 1530 1529
f 1529 1561 1562
f 1594 1562 1561
f 1561 1593 1594
f 1626 1594 1593
f 1593 1625 1626
f 1658 1626 1625
f 1625 1657 1658
f 1690 1658 1657
f 1657 1689 1690
f 1722 1690 1689
f 1689 1721 1722
f 1754 1722 1721
f 1721 1753 1754
f 1786 1754 1753
f 1753 1785 1786
f 1818 1786 1785
f 1785 1817 1818
f 1850 1818 1817
f 1817 1849 1850
f 1882 1850 1849
f 1849 1881 1882
f 1914 1882 1881
f 1881 1913 1914
f 955 923 922
f 922 954 955
f 987 955 954
f 954 986 987
f 1019 987 986
f 986 1018 1019
f 1051 1019 1018
f 1018 1050 1051
f 1083 1051 1050
f 1050 1082 1083
f 1115 1083 1082
f 1082 1114 1115
f 1147 1115 1114
f 1114 1146 1147
f 1179 1147 1146
f 1146 1178 1179
f 1211 1179 1178
f 1178 1210 1211
f 1243 1211 1210
f 1210 1242 1243
f 1275 1243 1242
f 1242 1274 1275
f 1307 1275 1274
f 1274 1306 1307
f 1339 1307 1306
f 1306 1338 1339
f 1371 1339 1338
f 1338 1370 1371
f 1403 1371 1370
f 1370 1402 1403
f 1435 1403 1402
f 1402 1434 1435
f 1467 1435 1434
f 1434 1466 1467
f 1499 1467 1466
f 1466 1498 1499
f 1531 1499 1498
f 1498 1530 1531
f 1563 1531 1530
f 1530 1562 1563
f 1595 1563 1562
f 1562 1594 1595
f 1627 1595 1594
f 1594 1626 1627
f 1659 1627 1626
f 1626 1658 1659
f 1691 1659 1658
f 1658 1690 1691
f 1723 1691 1690
f 1690 1722 1723
f 1755 1723 1722
f 1722 1754 1755
f 1787 1755 1754
f 1754 1786 1787
f 1819 1787 1786
f 1786 1818 1819
f 1851 1819 1818
f 1818 1850 1851
f 1883 1851 1850
f 1850 1882 1883
f 1915 1883 1882
f 1882 1914 1915
f 956 924 923
f 923 955 956
f 988 956 955
f 955 987 988
f 1020 988 987
f 987 1019 1020
f 1052 1020 1019
f 1019 1051 1052
f 1084 1052 1051
f 1051 1083 1084
f 1116 1084 1083
f 1083 1115 1116
f 1148 1116 1115
f 1115 1147 1148
f 1180 1148 1147
f 1147 1179 1180
f 1212 1180 1179
f 1179 1211 1212
f 1244 1212 1211
f 1211 1243 1244
f 1276 1244 1243
f 1243 1275 1276
f 1308 1276 1275
f 1275 1307 1308
f 1340 1308 1307
f 1307 1339 1340
f 1372 1340 1339
f 1339 1371 1372
f 1404 1372 1371
f 1371 1403 1404
f 1436 1404 1403
f 1403 1435 1436
f 1468 1436 1435
f 1435 1467 1468
f 1500 1468 1467
f 1467 1499 1500
f 1532 1500 1499
f 1499 1531 1532
f 1564 1532 1531
f 1531 1563 1564
f 1596 1564 1563
f 1563 1595 1596
f 1628 1596 1595
f 1595 1627 1628
f 1660 1628 1627
f 1627 1659 1660
f 1692 1660 1659
f 1659 1691 1692
f 1724 1692 1691
f 1691 1723 1724
f 1756 1724 1723
f 1723 1755 1756
f 1788 1756 1755
f 1755 1787 1788
f 1820 1788 1787
f 1787 1819 1820
f 1852 1820 1819
f 1819 1851 1852
f 1884 1852 1851
f 1851 1883 1884
f 1916 1884 1883
f 1883 1915 1916
f 957 925 924
f 924 956 957
f 989 957 956
f 956 988 989
f 1021 989 988
f 988 1020 1021
f 1053 1021 1020
f 1020 1052 1053
f 1085 1053 1052
f 1052 1084 1085
f 1117 1085 1084
f 1084 1116 1117
f 1149 1117 1116
f 1116 1148 1149
f 1181 1149 1148
f 1148 1180 1181
f 1213 1181 1180
f 1180 1212 1213
f 1245 1213 1212
f 1212 1244 1245
f 1277 1245 1244
f 1244 1276 1277
f 1309 1277 1276
f 1276 1308 1309
f 1341 1309 1308
f 1308 1340 1341
f 1373 1341 1340
f 1340 1372 1373
f 1405 1373 1372
f 1372 1404 1405
f 1437 1405 1404
f 1404 1436 1437
f 1469 1437 1436
f 1436 1468 1469
f 1501 1469 1468
f 1468 1500 1501
f 1533 1501 1500
f 1500 1532 1533
f 1565 1533 1532
f 1532 1564 1565
f 1597 1565 1564
f 1564 1596 1597
f 1629 1597 1596
f 1596 1628 1629
f 1661 1629 1628
f 1628 1660 1661
f 1693 1661 1660
f 1660 1692 1693
f 1725 1693 1692
f 1692 1724 1725
f 1757 1725 1724
f 1724 1756 1757
f 1789 1757 1756
f 1756 1788 1789
f 1821 1789 1788
f 1788 1820 1821
f 1853 1821 1820
f 1820 1852 1853
f 1885 1853 1852
f 1852 1884 1885
f 1917 1885 1884
f 1884 1916 1917
f 958 926 925
f 925 957 958
f 990 958 957
f 957 989 990
f 1022 990 989
f 989 1021 1022
f 1054 1022 1021
f 1021 1053 1054
f 1086 1054 1053
f 1053 1085 1086
f 1118 1086 1085
f 1085 1117 1118
f 1150 1118 1117
f 1117 1149 1150
f 1182 1150 1149
f 1149 1181 1182
f 1214 1182 1181
f 1181 1213 1214
f 1246 1214 1213
f 1213 1245 1246
f 1278 1246 1245
f 1245 1277 1278
f 1310 1278 1277
f 1277 1309 1310
f 1342 1310 1309
f 1309 1341 1342
f 1374 1342 1341
f 1341 1373 1374
f 1406 1374 1373
f 1373 1405 1406
f 1438 1406 1405
f 1405 1437 1438
f 1470 1438 1437
f 1437 1469 1470
f 1502 1470 1469
f 1469 1501 1502
f 1534 1502 1501
f 1501 1533 1534
f 1566 1534 1533
f 1533 1565 1566
f 1598 1566 1565
f 1565 1597 1598
f 1630 1598 1597
f 1597 1629 1630
f 1662 1630 1629
f 1629 1661 1662
f 1694 1662 1661
f 1661 1693 1694
f 1726 1694 1693
f 1693 1725 1726
f 1758 1726 1725
f 1725 1757 1758
f 1790 1758 1757
f 1757 1789 1790
f 1822 1790 1789
f 1789 1821 1822
f 1854 1822 1821
f 1821 1853 1854
f 1886 1854 1853
f 1853 1885 1886
f 1918 1886 1885
f 1885 1917 1918
f 959 927 926
f 926 958 959
f 991 959 958
f 958 990 991
f 1023 991 990
f 990 1022 1023
f 1055 1023 1022
f 1022 1054 1055
f 1087 1055 1054
f 1054 1086 1087
f 1119 1087 1086
f 1086 1118 1119
f 1151 1119 1118
f 1118 1150 1151
f 1183 1151 1150
f 1150 1182 1183
f 1215 1183 1182
f 1182 1214 1215
f 1247 1215 1214
f 1214 1246 1247
f 1279 1247 1246
f 1246 1278 1279
f 1311 1279 1278
f 1278 1310 1311
f 1343 1311 1310
f 1310 1342 1343
f 1375 1343 1342
f 1342 1374 1375
f 1407 1375 1374
f 1374 1406 1407
f 1439 1407 1406
f 1406 1438 1439
f 1471 1439 1438
f 1438 1470 1471
f 1503 1471 1470
f 1470 1502 1503
f 1535 1503 1502
f 1502 1534 1535
f 1567 1535 1534
f 1534 1566 1567
f 1599 1567 1566
f 1566 1598 1599
f 1631 1599 1598
f 1598 1630 1631
f 1663 1631 1630
f 1630 1662 1663
f 1695 1663 1662
f 1662 1694 1695
f 1727 1695 1694
f 1694 1726 1727
f 1759 1727 1726
f 1726 1758 1759
f 1791 1759 1758
f 1758 1790 1791
f 1823 1791 1790
f 1790 1822 1823
f 1855 1823 1822
f 1822 1854 1855
f 1887 1855 1854
f 1854 1886 1887
f 1919 1887 1886
f 1886 1918 1919
f 960 928 927
f 927 959 960
f 992 960 959
f 959 991 992
f 1024 992 991
f 991 1023 1024
f 1056 1024 1023
f 1023 1055 1056
f 1088 1056 1055
f 1055 1087 1088
f 1120 1088 1087
f 1087 1119 1120
f 1152 1120 1119
f 1119 1151 1152
f 1184 1152 1151
f 1151 1183 1184
f 1216 1184 1183
f 1183 1215 1216
f 1248 1216 1215
f 1215 1247 1248
f 1280 1248 1247
f 1247 1279 1280
f 1312 1280 1279
f 1279 1311 1312
f 1344 1312 1311
f 1311 1343 1344
f 1376 1344 1343
f 1343 1375 1376
f 1408 1376 1375
f 1375 1407 1408
f 1440 1408 1407
f 1407 1439 1440
f 1472 1440 1439
f 1439 1471 1472
f 1504 1472 1471
f 1471 1503 1504
f 1536 1504 1503
f 1503 1535 1536
f 1568 1536 1535
f 1535 1567 1568
f 1600 1568 1567
f 1567 1599 1600
f 1632 1600 1599
f 1599 1631 1632
f 1664 1632 1631
f 1631 1663 1664
f 1696 1664 1663
f 1663 1695 1696
f 1728 1696 1695
f 1695 1727 1728
f 1760 1728 1727
f 1727 1759 1760
f 1792 1760 1759
f 1759 1791 1792
f 1824 1792 1791
f 1791 1823 1824
f 1856 1824 1823
f 1823 1855 1856
f 1888 1856 1855
f 1855 1887 1888
f 1920 1888 1887
f 1887 1919 1920
f 961 929 928
f 928 960 961
f 993 961 960
f 960 992 993
f 1025 993 992
f 992 1024 1025
f 1057 1025 1024
f 1024 1056 1057
f 1089 1057 1056
f 1056 1088 1089
f 1121 1089 1088
f 1088 1120 1121
f 1153 1121 1120
f 1120 1152 1153
f 1185 1153 1152
f 1152 1184 1185
f 1217 1185 1184
f 1184 1216 1217
f 1249 1217 1216
f 1216 1248 1249
f 1281 1249 1248
f 1248 1280 1281
f 1313 1281 1280
f 1280 1312 1313
f 1345 1313 1312
f 1312 1344 1345
f 1377 1345 1344
f 1344 1376 1377
f 1409 1377 1376
f 1376 1408 1409
f 1441 1409 1408
f 1408 1440 1441
f 1473 1441 1440
f 1440 1472 1473
f 1505 1473 1472
f 1472 1504 1505
f 1537 1505 1504
f 1504 1536 1537
f 1569 1537 1536
f 1536 1568 1569
f 1601 1569 1568
f 1568 1600 1601
f 1633 1601 1600
f 1600 1632 1633
f 1665 1633 1632
f 1632 1664 1665
f 1697 1665 1664
f 1664 1696 1697
f 1729 1697 1696
f 1696 1728 1729
f 1761 1729 1728
f 1728 1760 1761
f 1793 1761 1760
f 1760 1792 1793
f 1825 1793 1792
f 1792 1824 1825
f 1857 1825 1824
f 1824 1856 1857
f 1889 1857 1856
f 1856 1888 1889
f 1921 1889 1888
f 1888 1920 1921
f 962 930 929
f 929 961 962
f 994 962 961
f 961 993 994
f 1026 994 993
f 993 1025 1026
f 1058 1026 1025
f 1025 1057 1058
f 1090 1058 1057
f 1057 1089 1090
f 1122 1090 1089
f 1089 1121 1122
f 1154 1122 1121
f 1121 1153 1154
f 1186 1154 1153
f 1153 1185 1186
f 1218 1186 1185
f 1185 1217 1218
f 1250 1218 1217
f 1217 1249 1250
f 1282 1250 1249
f 1249 1281 1282
f 1314 1282 1281
f 1281 1313 1314
f 1346 1314 1313
f 1313 1345 1346
f 1378 1346 1345
f 1345 1377 1378
f 1410 1378 1377
f 1377 1409 1410
f 1442 1410 1409
f 1409 1441 1442
f 1474 1442 1441
f 1441 1473 1474
f 1506 1474 1473
f 1473 1505 1506
f 1538 1506 1505
f 1505 1537 1538
f 1570 1538 1537
f 1537 1569 1570
f 1602 1570 1569
f 1569 1601 1602
f 1634 1602 1601
f 1601 1633 1634
f 1666 1634 1633
f 1633 1665 1666
f 1698 1666 1665
f 1665 1697 1698
f 1730 1698 1697
f 1697 1729 1730
f 1762 1730 1729
f 1729 1761 1762
f 1794 1762 1761
f 1761 1793 1794
f 1826 1794 1793
f 1793 1825 1826
f 1858 1826 1825
f 1825 1857 1858
f 1890 1858 1857
f 1857 1889 1890
f 1922 1890 1889
f 1889 1921 1922
f 963 931 930
f 930 962 963
f 995 963 962
f 962 994 995
f 1027 995 994
f 994 1026 1027
f 1059 1027 1026
f 1026 1058 1059
f 1091 1059 1058
f 1058 1090 1091
f 1123 1091 1090
f 1090 1122 1123
f 1155 1123 1122
f 1122 1154 1155
f 1187 1155 1154
f 1154 1186 1187
f 1219 1187 1186
f 1186 1218 1219
f 1251 1219 1218
f 1218 1250 1251
f 1283 1251 1250
f 1250 1282 1283
f 1315 1283 1282
f 1282 1314 1315
f 1347 1315 1314
f 1314 1346 1347
f 1379 1347 1346
f 1346 1378 1379
f 1411 1379 1378
f 1378 1410 1411
f 1443 1411 1410
f 1410 1442 1443
f 1475 1443 1442
f 1442 1474 1475
f 1507 1475 1474
f 1474 1506 1507
f 1539 1507 1506
f 1506 1538 1539
f 1571 1539 1538
f 1538 1570 1571
f 1603 1571 1570
f 1570 1602 1603
f 1635 1603 1602
f 1602 1634 1635
f 1667 1635 1634
f 1634 1666 1667
f 1699 1667 1666
f 1666 1698 1699
f 1731 1699 1698
f 1698 1730 1731
f 1763 1731 1730
f 1730 1762 1763
f 1795 1763 1762
f 1762 1794 1795
f 1827 1795 1794
f 1794 1826 1827
f 1859 1827 1826
f 1826 1858 1859
f 1891 1859 1858
f 1858 1890 1891
f 1923 1891 1890
f 1890 1922 1923
f 964 932 931
f 931 963 964
f 996 964 963
f 963 995 996
f 1028 996 995
f 995 1027 1028
f 1060 1028 1027
f 1027 1059 1060
f 1092 1060 1059
f 1059 1091 1092
f 1124 1092 1091
f 1091 1123 1124
f 1156 1124 1123
f 1123 1155 1156
f 1188 1156 1155
f 1155 1187 1188
f 1220 1188 1187
f 1187 1219 1220
f 1252 1220 1219
f 1219 1251 1252
f 1284 1252 1251
f 1251 1283 1284
f 1316 1284 1283
f 1283 1315 1316
f 1348 1316 1315
f 1315 1347 1348
f 1380 1348 1347
f 1347 1379 1380
f 1412 1380 1379
f 1379 1411 1412
f 1444 1412 1411
f 1411 1443 1444
f 1476 1444 1443
f 1443 1475 1476
f 1508 1476 1475
f 1475 1507 1508
f 1540 1508 1507
f 1507 1539 1540
f 1572 1540 1539
f 1539 1571 1572
f 1604 1572 1571
f 1571 1603 1604
f 1636 1604 1603
f 1603 1635 1636
f 1668 1636 1635
f 1635 1667 1668
f 1700 1668 1667
f 1667 1699 1700
f 1732 1700 1699
f 1699 1731 1732
f 1764 1732 1731
f 1731 1763 1764
f 1796 1764 1763
f 1763 1795 1796
f 1828 1796 1795
f 1795 1827 1828
f 1860 1828 1827
f 1827 1859 1860
f 1892 1860 1859
f 1859 1891 1892
f 1924 1892 1891
f 1891 1923 1924
f 965 933 932
f 932 964 965
f 997 965 964
f 964 996 997
f 1029 997 996
f 996 1028 1029
f 1061 1029 1028
f 1028 1060 1061
f 1093 1061 1060
f 1060 1092 1093
f 1125 1093 1092
f 1092 1124 1125
f 1157 1125 1124
f 1124 1156 1157
f 1189 1157 1156
f 1156 1188 1189
f 1221 1189 1188
f 1188 1220 1221
f 1253 1221 1220
f 1220 1252 1253
f 1285 1253 1252
f 1252 1284 1285
f 1317 1285 1284
f 1284 1316 1317
f 1349 1317 1316
f 1316 1348 1349
f 1381 1349 1348
f 1348 1380 1381
f 1413 1381 1380
f 1380 1412 1413
f 1445 1413 1412
f 1412 1444 1445
f 1477 1445 1444
f 1444 1476 1477
f 1509 1477 1476
f 1476 1508 1509
f 1541 1509 1508
f 1508 1540 1541
f 1573 1541 1540
f 1540 1572 1573
f 1605 1573 1572
f 1572 1604 1605
f 1637 1605 1604
f 1604 1636 1637
f 1669 1637 1636
f 1636 1668 1669
f 1701 1669 1668
f 1668 1700 1701
f 1733 1701 1700
f 1700 1732 1733
f 1765 1733 1732
f 1732 1764 1765
f 1797 1765 1764
f 1764 1796 1797
f 1829 1797 1796
f 1796 1828 1829
f 1861 1829 1828
f 1828 1860 1861
f 1893 1861 1860
f 1860 1892 1893
f 1925 1893 1892
f 1892 1924 1925
f 966 934 933
f 933 965 966
f 998 966 965
f 965 997 998
f 1030 998 997
f 997 1029 1030
f 1062 1030 1029
f 1029 1061 1062
f 1094 1062 1061
f 1061 1093 1094
f 1126 1094 1093
f 1093 1125 1126
f 1158 1126 1125
f 1125 1157 1158
f 1190 1158 1157
f 1157 1189 1190
f 1222 1190 1189
f 1189 1221 1222
f 1254 1222 1221
f 1221 1253 1254
f 1286 1254 1253
f 1253 1285 1286
f 1318 1286 1285
f 1285 1317 1318
f 1350 1318 1317
f 1317 1349 1350
f 1382 1350 1349
f 1349 1381 1382
f 1414 1382 1381
f 1381 1413 1414
f 1446 1414 1413
f 1413 1445 1446
f 1478 1446 1445
f 1445 1477 1478
f 1510 1478 1477
f 1477 1509 1510
f 1542 1510 1509
f 1509 1541 1542
f 1574 1542 1541
f 1541 1573 1574
f 1606 1574 1573
f 1573 1605 1606
f 1638 1606 1605
f 1605 1637 1638
f 1670 1638 1637
f 1637 1669 1670
f 1702 1670 1669
f 1669 1701 1702
f 1734 1702 1701
f 1701 1733 1734
f 1766 1734 1733
f 1733 1765 1766
f 1798 1766 1765
f 1765 1797 1798
f 1830 1798 1797
f 1797 1829 1830
f 1862 1830 1829
f 1829 1861 1862
f 1894 1862 1861
f 1861 1893 1894
f 1926 1894 1893
f 1893 1925 1926
f 967 935 934
f 934 966 967
f 999 967 966
f 966 998 999
f 1031 999 998
f 998 1030 1031
f 1063 1031 1030
f 1030 1062 1063
f 1095 1063 1062
f 1062 1094 1095
f 1127 1095 1094
f 1094 1126 1127
f 1159 1127 1126
f 1126 1158 1159
f 1191 1159 1158
f 1158 1190 1191
f 1223 1191 1190
f 1190 1222 1223
f 1255 1223 1222
f 1222 1254 1255
f 1287 1255 1254
f 1254 1286 1287
f 1319 1287 1286
f 1286 1318 1319
f 1351 1319 1318
f 1318 1350 1351
f 1383 1351 1350
f 1350 1382 1383
f 1415 1383 1382
f 1382 1414 1415
f 1447 1415 1414
f 1414 1446 1447
f 1479 1447 1446
f 1446 1478 1479
f 1511 1479 1478
f 1478 1510 1511
f 1543 1511 1510
f 1510 1542 1543
f 1575 1543 1542
f 1542 1574 1575
f 1607 1575 1574
f 1574 1606 1607
f 1639 1607 1606
f 1606 1638 1639
f 1671 1639 1638
f 1638 1670 1671
f 1703 1671 1670
f 1670 1702 1703
f 1735 1703 1702
f 1702 1734 1735
f 1767 1735 1734
f 1734 1766 1767
f 1799 1767 1766
f 1766 1798 1799
f 1831 1799 1798
f 1798 1830 1831
f 1863 1831 1830
f 1830 1862 1863
f 1895 1863 1862
f 1862 1894 1895
f 1927 1895 1894
f 1894 1926 1927
f 968 936 935
f 935 967 968
f 1000 968 967
f 967 999 1000
f 1032 1000 999
f 999 1031 1032
f 1064 1032 1031
f 1031 1063 1064
f 1096 1064 1063
f 1063 1095 1096
f 1128 1096 1095
f 1095 1127 1128
f 1160 1128 1127
f 1127 1159 1160
f 1192 1160 1159
f 1159 1191 1192
f 1224 1192 1191
f 1191 1223 1224
f 1256 1224 1223
f 1223 1255 1256
f 1288 1256 1255
f 1255 1287 1288
f 1320 1288 1287
f 1287 1319 1320
f 1352 1320 1319
f 1319 1351 1352
f 1384 1352 1351
f 1351 1383 1384
f 1416 1384 1383
f 1383 1415 1416
f 1448 1416 1415
f 1415 1447 1448
f 1480 1448 1447
f 1447 1479 1480
f 1512 1480 1479
f 1479 1511 1512
f 1544 1512 1511
f 1511 1543 1544
f 1576 1544 1543
f 1543 1575 1576
f 1608 1576 1575
f 1575 1607 1608
f 1640 1608 1607
f 1607 1639 1640
f 1672 1640 1639
f 1639 1671 1672
f 1704 1672 1671
f 1671 1703 1704
f 1736 1704 1703
f 1703 1735 1736
f 1768 1736 1735
f 1735 1767 1768
f 1800 1768 1767
f 1767 1799 1800
f 1832 1800 1799
f 1799 1831 1832
f 1864 1832 1831
f 1831 1863 1864
f 1896 1864 1863
f 1863 1895 1896
f 1928 1896 1895
f 1895 1927 1928
f 969 937 936
f 936 968 969
f 1001 969 968
f 968 1000 1001
f 1033 1001 1000
f 1000 1032 1033
f 1065 1033 1032
f 1032 1064 1065
f 1097 1065 1064
f 1064 1096 1097
f 1129 1097 1096
f 1096 1128 1129
f 1161 1129 1128
f 1128 1160 1161
f 1193 1161 1160
f 1160 1192 1193
f 1225 1193 1192
f 1192 1224 1225
f 1257 1225 1224
f 1224 1256 1257
f 1289 1257 1256
f 1256 1288 1289
f 1321 1289 1288
f 1288 1320 1321
f 1353 1321 1320
f 1320 1352 1353
f 1385 1353 1352
f 1352 1384 1385
f 1417 1385 1384
f 1384 1416 1417
f 1449 1417 1416
f 1416 1448 1449
f 1481 1449 1448
f 1448 1480 1481
f 1513 1481 1480
f 1480 1512 1513
f 1545 1513 1512
f 1512 1544 1545
f 1577 1545 1544
f 1544 1576 1577
f 1609 1577 1576
f 1576 1608 1609
f 1641 1609 1608
f 1608 1640 1641
f 1673 1641 1640
f 1640 1672 1673
f 1705 1673 1672
f 1672 1704 1705
f 1737 1705 1704
f 1704 1736 1737
f 1769 1737 1736
f 1736 1768 1769
f 1801 1769 1768
f 1768 1800 1801
f 1833 1801 1800
f 1800 1832 1833
f 1865 1833 1832
f 1832 1864 1865
f 1897 1865 1864
f 1864 1896 1897
f 1929 1897 1896
f 1896 1928 1929
f 970 938 937
f 937 969 970
f 1002 970 969
f 969 1001 1002
f 1034 1002 1001
f 1001 1033 1034
f 1066 1034 1033
f 1033 1065 1066
f 1098 1066 1065
f 1065 1097 1098
f 1130 1098 1097
f 1097 1129 1130
f 1162 1130 1129
f 1129 1161 1162
f 1194 1162 1161
f 1161 1193 1194
f 1226 1194 1193
f 1193 1225 1226
f 1258 1226 1225
f 1225 1257 1258
f 1290 1258 1257
f 1257 1289 1290
f 1322 1290 1289
f 1289 1321 1322
f 1354 1322 1321
f 1321 1353 1354
f 1386 1354 1353
f 1353 1385 1386
f 1418 1386 1385
f 1385 1417 1418
f 1450 1418 1417
f 1417 1449 1450
f 1482 1450 1449
f 1449 1481 1482
f 1514 1482 1481
f 1481 1513 1514
f 1546 1514 1513
f 1513 1545 1546
f 1578 1546 1545
f 1545 1577 1578
f 1610 1578 1577
f 1577 1609 1610
f 1642 1610 1609
f 1609 1641 1642
f 1674 1642 1641
f 1641 1673 1674
f 1706 1674 1673
f 1673 1705 1706
f 1738 1706 1705
f 1705 1737 1738
f 1770 1738 1737
f 1737 1769 1770
f 1802 1770 1769
f 1769 1801 1802
f 1834 1802 1801
f 1801 1833 1834
f 1866 1834 1833
f 1833 1865 1866
f 1898 1866 1865
f 1865 1897 1898
f 1930 1898 1897
f 1897 1929 1930
f 971 939 938
f 938 970 971
f 1003 971 970
f 970 1002 1003
f 1035 1003 1002
f 1002 1034 1035
f 1067 1035 1034
f 1034 1066 1067
f 1099 1067 1066
f 1066 1098 1099
f 1131 1099 1098
f 1098 1130 1131
f 1163 1131 1130
f 1130 1162 1163
f 1195 1163 1162
f 1162 1194 1195
f 1227 1195 1194
f 1194 1226 1227
f 1259 1227 1226
f 1226 1258 1259
f 1291 1259 1258
f 1258 1290 1291
f 1323 1291 1290
f 1290 1322 1323
f 1355 1323 1322
f 1322 1354 1355
f 1387 1355 1354
f 1354 1386 1387
f 1419 1387 1386
f 1386 1418 1419
f 1451 1419 1418
f 1418 1450 1451
f 1483 1451 1450
f 1450 1482 1483
f 1515 1483 1482
f 1482 1514 1515
f 1547 1515 1514
f 1514 1546 1547
f 1579 1547 1546
f 1546 1578 1579
f 1611 1579 1578
f 1578 1610 1611
f 1643 1611 1610
f 1610 1642 1643
f 1675 1643 1642
f 1642 1674 1675
f 1707 1675 1674
f 1674 1706 1707
f 1739 1707 1706
f 1706 1738 1739
f 1771 1739 1738
f 1738 1770 1771
f 1803 1771 1770
f 1770 1802 1803
f 1835 1803 1802
f 1802 1834 1835
f 1867 1835 1834
f 1834 1866 1867
f 1899 1867 1866
f 1866 1898 1899
f 1931 1899 1898
f 1898 1930 1931
f 972 940 939
f 939 971 972
f 1004 972 971
f 971 1003 1004
f 1036 1004 1003
f 1003 1035 1036
f 1068 1036 1035
f 1035 1067 1068
f 1100 1068 1067
f 1067 1099 1100
f 1132 1100 1099
f 1099 1131 1132
f 1164 1132 1131
f 1131 1163 1164
f 1196 1164 1163
f 1163 1195 1196
f 1228 1196 1195
f 1195 1227 1228
f 1260 1228 1227
f 1227 1259 1260
f 1292 1260 1259
f 1259 1291 1292
f 1324 1292 1291
f 1291 1323 1324
f 1356 1324 1323
f 1323 1355 1356
f 1388 1356 1355
f 1355 1387 1388
f 1420 1388 1387
f 1387 1419 1420
f 1452 1420 1419
f 1419 1451 1452
f 1484 1452 1451
f 1451 1483 1484
f 1516 1484 1483
f 1483 1515 1516
f 1548 1516 1515
f 1515 1547 1548
f 1580 1548 1547
f 1547 1579 1580
f 1612 1580 1579
f 1579 1611 1612
f 1644 1612 1611
f 1611 1643 1644
f 1676 1644 1643
f 1643 1675 1676
f 1708 1676 1675
f 1675 1707 1708
f 1740 1708 1707
f 1707 1739 1740
f 1772 1740 1739
f 1739 1771 1772
f 1804 1772 1771
f 1771 1803 1804
f 1836 1804 1803
f 1803 1835 1836
f 1868 1836 1835
f 1835 1867 1868
f 1900 1868 1867
f 1867 1899 1900
f 1932 1900 1899
f 1899 1931 1932
f 973 941 940
f 940 972 973
f 1005 973 972
f 972 1004 1005
f 1037 1005 1004
f 1004 1036 1037
f 1069 1037 1036
f 1036 1068 1069
f 1101 1069 1068
f 1068 1100 1101
f 1133 1101 1100
f 1100 1132 1133
f 1165 1133 1132
f 1132 1164 1165
f 1197 1165 1164
f 1164 1196 1197
f 1229 1197 1196
f 1196 1228 1229
f 1261 1229 1228
f 1228 1260 1261
f 1293 1261 1260
f 1260 1292 1293
f 1325 1293 1292
f 1292 1324 1325
f 1357 1325 1324
f 1324 1356 1357
f 1389 1357 1356
f 1356 1388 1389
f 1421 1389 1388
f 1388 1420 1421
f 1453 1421 1420
f 1420 1452 1453
f 1485 1453 1452
f 1452 1484 1485
f 1517 1485 1484
f 1484 1516 1517
f 1549 1517 1516
f 1516 1548 1549
f 1581 1549 1548
f 1548 1580 1581
f 1613 1581 1580
f 1580 1612 1613
f 1645 1613 1612
f 1612 1644 1645
f 1677 1645 1644
f 1644 1676 1677
f 1709 1677 1676
f 1676 1708 1709
f 1741 1709 1708
f 1708 1740 1741
f 1773 1741 1740
f 1740 1772 1773
f 1805 1773 1772
f 1772 1804 1805
f 1837 1805 1804
f 1804 1836 1837
f 1869 1837 1836
f 1836 1868 1869
f 1901 1869 1868
f 1868 1900 1901
f 1933 1901 1900
f 1900 1932 1933
f 974 942 941
f 941 973 974
f 1006 974 973
f 973 1005 1006
f 1038 1006 1005
f 1005 1037 1038
f 1070 1038 1037
f 1037 1069 1070
f 1102 1070 1069
f 1069 1101 1102
f 1134 1102 1101
f 1101 1133 1134
f 1166 1134 1133
f 1133 1165 1166
f 1198 1166 1165
f 1165 1197 1198
f 1230 1198 1197
f 1197 1229 1230
f 1262 1230 1229
f 1229 1261 1262
f 1294 1262 1261
f 1261 1293 1294
f 1326 1294 1293
f 1293 1325 1326
f 1358 1326 1325
f 1325 1357 1358
f 1390 1358 1357
f 1357 1389 1390
f 1422 1390 1389
f 1389 1421 1422
f 1454 1422 1421
f 1421 1453 1454
f 1486 1454 1453
f 1453 1485 1486
f 1518 1486 1485
f 1485 1517 1518
f 1550 1518 1517
f 1517 1549 1550
f 1582 1550 1549
f 1549 1581 1582
f 1614 1582 1581
f 1581 1613 1614
f 1646 1614 1613
f 1613 1645 1646
f 1678 1646 1645
f 1645 1677 1678
f 1710 1678 1677
f 1677 1709 1710
f 1742 1710 1709
f 1709 1741 1742
f 1774 1742 1741
f 1741 1773 1774
f 1806 1774 1773
f 1773 1805 1806
f 1838 1806 1805
f 1805 1837 1838
f 1870 1838 1837
f 1837 1869 1870
f 1902 1870 1869
f 1869 1901 1902
f 1934 1902 1901
f 1901 1933 1934
f 975 943 942
f 942 974 975
f 1007 975 974
f 974 1006 1007
f 1039 1007 1006
f 1006 1038 1039
f 1071 1039 1038
f 1038 1070 1071
f 1103 1071 1070
f 1070 1102 1103
f 1135 1103 1102
f 1102 1134 1135
f 1167 1135 1134
f 1134 1166 1167
f 1199 1167 1166
f 1166 1198 1199
f 1231 1199 1198
f 1198 1230 1231
f 1263 1231 1230
f 1230 1262 1263
f 1295 1263 1262
f 1262 1294 1295
f 1327 1295 1294
f 1294 1326 1327
f 1359 1327 1326
f 1326 1358 1359
f 1391 1359 1358
f 1358 1390 1391
f 1423 1391 1390
f 1390 1422 1423
f 1455 1423 1422
f 1422 1454 1455
f 1487 1455 1454
f 1454 1486 1487
f 1519 1487 1486
f 1486 1518 1519
f 1551 1519 1518
f 1518 1550 1551
f 1583 1551 1550
f 1550 1582 1583
f 1615 1583 1582
f 1582 1614 1615
f 1647 1615 1614
f 1614 1646 1647
f 1679 1647 1646
f 1646 1678 1679
f 1711 1679 1678
f 1678 1710 1711
f 1743 1711 1710
f 1710 1742 1743
f 1775 1743 1742
f 1742 1774 1775
f 1807 1775 1774
f 1774 1806 1807
f 1839 1807 1806
f 1806 1838 1839
f 1871 1839 1838
f 1838 1870 1871
f 1903 1871 1870
f 1870 1902 1903
f 1935 1903 1902
f 1902 1934 1935
f 976 944 943
f 943 975 976
f 1008 976 975
f 975 1007 1008
f 1040 1008 1007
f 1007 1039 1040
f 1072 1040 1039
f 1039 1071 1072
f 1104 1072 1071
f 1071 1103 1104
f 1136 1104 1103
f 1103 1135 1136
f 1168 1136 1135
f 1135 1167 1168
f 1200 1168 1167
f 1167 1199 1200
f 1232 1200 1199
f 1199 1231 1232
f 1264 1232 1231
f 1231 1263 1264
f 1296 1264 1263
f 1263 1295 1296
f 1328 1296 1295
f 1295 1327 1328
f 1360 1328 1327
f 1327 1359 1360
f 1392 1360 1359
f 1359 1391 1392
f 1424 1392 1391
f 1391 1423 1424
f 1456 1424 1423
f 1423 1455 1456
f 1488 1456 1455
f 1455 1487 1488
f 1520 1488 1487
f 1487 1519 1520
f 1552 1520 1519
f 1519 1551 1552
f 1584 1552 1551
f 1551 1583 1584
f 1616 1584 1583
f 1583 1615 1616
f 1648 1616 1615
f 1615 1647 1648
f 1680 1648 1647
f 1647 1679 1680
f 1712 1680 1679
f 1679 1711 1712
f 1744 1712 1711
f 1711 1743 1744
f 1776 1744 1743
f 1743 1775 1776
f 1808 1776 1775
f 1775 1807 1808
f 1840 1808 1807
f 1807 1839 1840
f 1872 1840 1839
f 1839 1871 1872
f 1904 1872 1871
f 1871 1903 1904
f 1936 1904 1903
f 1903 1935 1936
f 977 945 944
f 944 976 977
f 1009 977 976
f 976 1008 1009
f 1041 1009 1008
f 1008 1040 1041
f 1073 1041 1040
f 1040 1072 1073
f 1105 1073 1072
f 1072 1104 1105
f 1137 1105 1104
f 1104 1136 1137
f 1169 1137 1136
f 1136 1168 1169
f 1201 1169 1168
f 1168 1200 1201
f 1233 1201 1200
f 1200 1232 1233
f 1265 1233 1232
f 1232 1264 1265
f 1297 1265 1264
f 1264 1296 1297
f 1329 1297 1296
f 1296 1328 1329
f 1361 1329 1328
f 1328 1360 1361
f 1393 1361 1360
f 1360 1392 1393
f 1425 1393 1392
f 1392 1424 1425
f 1457 1425 1424
f 1424 1456 1457
f 1489 1457 1456
f 1456 1488 1489
f 1521 1489 1488
f 1488 1520 1521
f 1553 1521 1520
f 1520 1552 1553
f 1585 1553 1552
f 1552 1584 1585
f 1617 1585 1584
f 1584 1616 1617
f 1649 1617 1616
f 1616 1648 1649
f 1681 1649 1648
f 1648 1680 1681
f 1713 1681 1680
f 1680 1712 1713
f 1745 1713 1712
f 1712 1744 1745
f 1777 1745 1744
f 1744 1776 1777
f 1809 1777 1776
f 1776 1808 1809
f 1841 1809 1808
f 1808 1840 1841
f 1873 1841 1840
f 1840 1872 1873
f 1905 1873 1872
f 1872 1904 1905
f 1937 1905 1904
f 1904 1936 1937
f 978 946 945
f 945 977 978
f 1010 978 977
f 977 1009 1010
f 1042 1010 1009
f 1009 1041 1042
f 1074 1042 1041
f 1041 1073 1074
f 1106 1074 1073
f 1073 1105 1106
f 1138 1106 1105
f 1105 1137 1138
f 1170 1138 1137
f 1137 1169 1170
f 1202 1170 1169
f 1169 1201 1202
f 1234 1202 1201
f 1201 1233 1234
f 1266 1234 1233
f 1233 1265 1266
f 1298 1266 1265
f 1265 1297 1298
f 1330 1298 1297
f 1297 1329 1330
f 1362 1330 1329
f 1329 1361 1362
f 1394 1362 1361
f 1361 1393 1394
f 1426 1394 1393
f 1393 1425 1426
f 1458 1426 1425
f 1425 1457 1458
f 1490 1458 1457
f 1457 1489 1490
f 1522 1490 1489
f 1489 1521 1522
f 1554 1522 1521
f 1521 1553 1554
f 1586 1554 1553
f 1553 1585 1586
f 1618 1586 1585
f 1585 1617 1618
f 1650 1618 1617
f 1617 1649 1650
f 1682 1650 1649
f 1649 1681 1682
f 1714 1682 1681
f 1681 1713 1714
f 1746 1714 1713
f 1713 1745 1746
f 1778 1746 1745
f 1745 1777 1778
f 1810 1778 1777
f 1777 1809 1810
f 1842 1810 1809
f 1809 1841 1842
f 1874 1842 1841
f 1841 1873 1874
f 1906 1874 1873
f 1873 1905 1906
f 1938 1906 1905
f 1905 1937 1938
f 979 947 946
f 946 978 979
f 1011 979 978
f 978 1010 1011
f 1043 1011 1010
f 1010 1042 1043
f 1075 1043 1042
f 1042 1074 1075
f 1107 1075 1074
f 1074 1106 1107
f 1139 1107 1106
f 1106 1138 1139
f 1171 1139 1138
f 1138 1170 1171
f 1203 1171 1170
f 1170 1202 1203
f 1235 1203 1202
f 1202 1234 1235
f 1267 1235 1234
f 1234 1266 1267
f 1299 1267 1266
f 1266 1298 1299
f 1331 1299 1298
f 1298 1330 1331
f 1363 1331 1330
f 1330 1362 1363
f 1395 1363 1362
f 1362 1394 1395
f 1427 1395 1394
f 1394 1426 1427
f 1459 1427 1426
f 1426 1458 1459
f 1491 1459 1458
f 1458 1490 1491
f 1523 1491 1490
f 1490 1522 1523
f 1555 1523 1522
f 1522 1554 1555
f 1587 1555 1554
f 1554 1586 1587
f 1619 1587 1586
f 1586 1618 1619
f 1651 1619 1618
f 1618 1650 1651
f 1683 1651 1650
f 1650 1682 1683
f 1715 1683 1682
f 1682 1714 1715
f 1747 1715 1714
f 1714 1746 1747
f 1779 1747 1746
f 1746 1778 1779
f 1811 1779 1778
f 1778 1810 1811
f 1843 1811 1810
f 1810 1842 1843
f 1875 1843 1842
f 1842 1874 1875
f 1907 1875 1874
f 1874 1906 1907
f 1939 1907 1906
f 1906 1938 1939
f 980 948 947
f 947 979 980
f 1012 980 979
f 979 1011 1012
f 1044 1012 1011
f 1011 1043 1044
f 1076 1044 1043
f 1043 1075 1076
f 1108 1076 1075
f 1075 1107 1108
f 1140 1108 1107
f 1107 1139 1140
f 1172 1140 1139
f 1139 1171 1172
f 1204 1172 1171
f 1171 1203 1204
f 1236 1204 1203
f 1203 1235 1236
f 1268 1236 1235
f 1235 1267 1268
f 1300 1268 1267
f 1267 1299 1300
f 1332 1300 1299
f 1299 1331 1332
f 1364 1332 1331
f 1331 1363 1364
f 1396 1364 1363
f 1363 1395 1396
f 1428 1396 1395
f 1395 1427 1428
f 1460 1428 1427
f 1427 1459 1460
f 1492 1460 1459
f 1459 1491 1492
f 1524 1492 1491
f 1491 1523 1524
f 1556 1524 1523
f 1523 1555 1556
f 1588 1556 1555
f 1555 1587 1588
f 1620 1588 1587
f 1587 1619 1620
f 1652 1620 1619
f 1619 1651 1652
f 1684 1652 1651
f 1651 1683 1684
f 1716 1684 1683
f 1683 1715 1716
f 1748 1716 1715
f 1715 1747 1748
f 1780 1748 1747
f 1747 1779 1780
f 1812 1780 1779
f 1779 1811 1812
f 1844 1812 1811
f 1811 1843 1844
f 1876 1844 1843
f 1843 1875 1876
f 1908 1876 1875
f 1875 1907 1908
f 1940 1908 1907
f 1907 1939 1940
f 981 949 948
f 948 980 981
f 1013 981 980
f 980 1012 1013
f 1045 1013 1012
f 1012 1044 1045
f 1077 1045 1044
f 1044 1076 1077
f 1109 1077 1076
f 1076 1108 1109
f 1141 1109 1108
f 1108 1140 1141
f 1173 1141 1140
f 1140 1172 1173
f 1205 1173 1172
f 1172 1204 1205
f 1237 1205 1204
f 1204 1236 1237
f 1269 1237 1236
f 1236 1268 1269
f 1301 1269 1268
f 1268 1300 1301
f 1333 1301 1300
f 1300 1332 1333
f 1365 1333 1332
f 1332 1364 1365
f 1397 1365 1364
f 1364 1396 1397
f 1429 1397 1396
f 1396 1428 1429
f 1461 1429 1428
f 1428 1460 1461
f 1493 1461 1460
f 1460 1492 1493
f 1525 1493 1492
f 1492 1524 1525
f 1557 1525 1524
f 1524 1556 1557
f 1589 1557 1556
f 1556 1588 1589
f 1621 1589 1588
f 1588 1620 1621
f 1653 1621 1620
f 1620 1652 1653
f 1685 1653 1652
f 1652 1684 1685
f 1717 1685 1684
f 1684 1716 1717
f 1749 1717 1716
f 1716 1748 1749
f 1781 1749 1748
f 1748 1780 1781
f 1813 1781 1780
f 1780 1812 1813
f 1845 1813 1812
f 1812 1844 1845
f 1877 1845 1844
f 1844 1876 1877
f 1909 1877 1876
f 1876 1908 1909
f 1941 1909 1908
f 1908 1940 1941
f 982 950 949
f 949 981 982
f 1014 982 981
f 981 1013 1014
f 1046 1014 1013
f 1013 1045 1046
f 1078 1046 1045
f 1045 1077 1078
f 1110 1078 1077
f 1077 1109 1110
f 1142 1110 1109
f 1109 1141 1142
f 1174 1142 1141
f 1141 1173 1174
f 1206 1174 1173
f 1173 1205 1206
f 1238 1206 1205
f 1205 1237 1238
f 1270 1238 1237
f 1237 1269 1270
f 1302 1270 1269
f 1269 1301 1302
f 1334 1302 1301
f 1301 1333 1334
f 1366 1334 1333
f 1333 1365 1366
f 1398 1366 1365
f 1365 1397 1398
f 1430 1398 1397
f 1397 1429 1430
f 1462 1430 1429
f 1429 1461 1462
f 1494 1462 1461
f 1461 1493 1494
f 1526 1494 1493
f 1493 1525 1526
f 1558 1526 1525
f 1525 1557 1558
f 1590 1558 1557
f 1557 1589 1590
f 1622 1590 1589
f 1589 1621 1622
f 1654 1622 1621
f 1621 1653 1654
f 1686 1654 1653
f 1653 1685 1686
f 1718 1686 1685
f 1685 1717 1718
f 1750 1718 1717
f 1717 1749 1750
f 1782 1750 1749
f 1749 1781 1782
f 1814 1782 1781
f 1781 1813 1814
f 1846 1814 1813
f 1813 1845 1846
f 1878 1846 1845
f 1845 1877 1878
f 1910 1878 1877
f 1877 1909 1910
f 1942 1910 1909
f 1909 1941 1942
