v 955.327 76.5521 -6898.2
v 955.633 76.4367 -6899.45
v 951.813 73.9592 -6898.91
v 952.082 73.8576 -6900.01
v 955.63 75.8323 -6897.17
v 952.08 73.3255 -6898
v 956.123 75.0853 -6897.08
v 952.514 72.6677 -6897.92
v 956.123 75.0853 -6897.08
v 952.514 72.6677 -6897.92
v 956.77 74.3655 -6897.94
v 953.083 72.034 -6898.68
v 956.923 74.4809 -6899.22
v 953.218 72.1356 -6899.8
v 953.256 72.7797 -6900.24
v 953.543 72.7182 -6900.15
v 955.716 73.9579 -6900.06
v 955.792 74.2603 -6900.16
v 956.373 75.4588 -6899.85
v 952.082 73.8576 -6900.01
v 953.218 72.1356 -6899.8
v 951.813 73.9592 -6898.91
v 953.083 72.034 -6898.68
v 952.08 73.3255 -6898
v 952.514 72.6677 -6897.92
v 956.923 74.4809 -6899.22
v 956.373 75.4588 -6899.85
v 956.77 74.3655 -6897.94
v 955.633 76.4367 -6899.45
v 955.327 76.5521 -6898.2
v 956.123 75.0853 -6897.08
v 955.63 75.8323 -6897.17
v 955.083 75.3347 -6900.28
v 952.728 73.5787 -6900.34
v 952.779 73.8771 -6900.29
v 954.767 75.396 -6900.24
v 956.201 76.6284 -6896.93
v 957.064 76.7127 -6897.47
v 956.596 75.9855 -6896.69
v 957.281 76.3596 -6897.34
v 956.021 76.9869 -6897.28
v 956.913 77.0526 -6897.92
v 955.926 77.2473 -6897.74
v 955.974 77.3843 -6898.52
v 956.939 77.1278 -6898.34
v 957.293 77.2284 -6897.88
v 957.317 77.2976 -6898.27
v 957.488 77.1156 -6897.95
v 957.506 77.1674 -6898.24
v 957.432 76.9153 -6897.47
v 957.592 76.8815 -6897.64
v 957.632 76.5901 -6897.35
v 957.741 76.6384 -6897.55
v 957.912 76.677 -6898.17
v 957.591 74.7237 -6897.44
v 957.827 75.6667 -6897.75
v 957.82 74.5867 -6898.18
v 957.953 75.5915 -6898.16
v 957.342 74.9841 -6897.04
v 957.53 76.0065 -6897.39
v 957.05 75.3426 -6896.78
v 957.861 76.2649 -6897.39
v 957.913 76.3952 -6897.58
v 958.135 75.9519 -6897.73
v 958.117 76.1611 -6897.83
v 958.251 75.8826 -6898.1
v 958.204 76.1093 -6898.11
v 956.203 77.2473 -6899.26
v 957.065 77.0526 -6898.75
v 956.452 76.9869 -6899.66
v 957.363 76.7127 -6899.11
v 956.745 76.6284 -6899.92
v 957.199 75.9855 -6900.01
v 957.612 76.3596 -6899.16
v 957.707 76.9153 -6898.98
v 957.937 76.5901 -6899.03
v 957.797 76.8815 -6898.77
v 957.969 76.6384 -6898.8
v 957.433 77.2284 -6898.65
v 957.593 77.1156 -6898.52
v 957.594 75.3426 -6899.77
v 957.828 76.0065 -6899.03
v 957.774 74.9841 -6899.42
v 957.98 75.6667 -6898.59
v 957.869 74.7237 -6898.96
v 958.276 75.9519 -6898.5
v 958.222 76.1611 -6898.41
v 958.136 76.2649 -6898.91
v 958.118 76.3952 -6898.71
v 954.659 76.5827 -6897.76
v 954.852 76.5553 -6897.55
v 954.559 76.5137 -6897.6
v 954.741 76.4747 -6897.41
v 954.291 76.284 -6897.74
v 954.26 76.3766 -6897.92
v 954.378 76.369 -6897.76
v 954.361 76.4317 -6897.88
v 955.271 75.1124 -6896.69
v 954.8 75.8762 -6897
v 956.596 75.9855 -6896.69
v 956.201 76.6284 -6896.93
v 954.905 76.0151 -6897.02
v 954.983 76.2578 -6897.16
v 956.021 76.9869 -6897.28
v 954.966 76.445 -6897.34
v 954.516 76.5299 -6897.85
v 955.926 77.2473 -6897.74
v 954.559 76.7146 -6898.78
v 955.974 77.3843 -6898.52
v 955.271 75.1124 -6896.69
v 955.022 74.9423 -6896.73
v 954.8 75.8762 -6897
v 954.657 75.7707 -6897.02
v 954.565 75.6885 -6897.02
v 954.494 75.8266 -6897.15
v 954.601 75.8671 -6897.1
v 954.559 76.7146 -6898.78
v 954.516 76.5299 -6897.85
v 954.31 76.5445 -6898.82
v 954.565 75.6885 -6897.02
v 955.022 74.9423 -6896.73
v 952.086 73.6826 -6897.88
v 952.431 73.1204 -6897.67
v 954.26 76.3766 -6897.92
v 951.845 74.2237 -6898.58
v 954.31 76.5445 -6898.82
v 951.888 74.3435 -6899.26
v 954.739 76.1077 -6897.07
v 954.81 76.3196 -6897.21
v 954.555 75.9199 -6897.05
v 954.474 76.1359 -6897.41
v 954.329 75.8279 -6897.15
v 954.077 76.022 -6897.53
v 954.146 75.8669 -6897.33
v 954.332 76.4217 -6897.7
v 954.148 76.2339 -6897.68
v 954.291 76.284 -6897.74
v 954.193 76.1833 -6897.73
v 954.123 75.969 -6897.59
v 952.61 74.6683 -6898.07
v 951.939 73.9838 -6898.2
v 954.494 75.8266 -6897.15
v 954.373 75.7772 -6897.2
v 954.192 75.8139 -6897.39
v 952.679 74.5133 -6897.87
v 954.601 75.8671 -6897.1
v 954.494 75.8266 -6897.15
v 954.555 75.9199 -6897.05
v 954.329 75.8279 -6897.15
v 954.373 75.7772 -6897.2
v 954.378 76.369 -6897.76
v 954.332 76.4217 -6897.7
v 954.291 76.284 -6897.74
v 954.148 76.2339 -6897.68
v 954.193 76.1833 -6897.73
v 954.123 75.969 -6897.59
v 954.077 76.022 -6897.53
v 954.146 75.8669 -6897.33
v 954.192 75.8139 -6897.39
v 954.657 75.7707 -6897.02
v 954.601 75.8671 -6897.1
v 954.555 75.9199 -6897.05
v 954.378 76.369 -6897.76
v 954.361 76.4317 -6897.88
v 954.332 76.4217 -6897.7
v 954.146 75.8669 -6897.33
v 954.192 75.8139 -6897.39
v 953.094 74.9168 -6897.7
v 952.679 74.5133 -6897.87
v 952.919 74.8609 -6897.69
v 954.146 75.8669 -6897.33
v 953.094 74.9168 -6897.7
v 954.077 76.022 -6897.53
v 953.026 75.0719 -6897.9
v 953.094 74.9168 -6897.7
v 952.919 74.8609 -6897.69
v 953.026 75.0719 -6897.9
v 952.85 75.016 -6897.89
v 952.919 74.8609 -6897.69
v 952.679 74.5133 -6897.87
v 952.85 75.016 -6897.89
v 952.61 74.6683 -6898.07
v 954.361 76.4317 -6897.88
v 954.657 75.7707 -6897.02
v 955.989 74.3843 -6896.83
v 956.252 74.3374 -6896.93
v 956.007 74.1865 -6896.84
v 956.243 74.1475 -6896.95
v 955.661 74.0581 -6896.93
v 955.551 74.1948 -6896.84
v 955.736 74.1472 -6896.9
v 955.659 74.2479 -6896.83
v 956.674 73.5102 -6898.39
v 956.381 73.6924 -6897.51
v 957.82 74.5867 -6898.18
v 957.591 74.7237 -6897.44
v 956.478 73.8158 -6897.43
v 956.51 74.0397 -6897.25
v 957.342 74.9841 -6897.04
v 956.434 74.2201 -6897.07
v 955.817 74.3461 -6896.81
v 957.05 75.3426 -6896.78
v 955.271 75.1124 -6896.69
v 956.596 75.9855 -6896.69
v 956.674 73.5102 -6898.39
v 956.424 73.3401 -6898.44
v 956.381 73.6924 -6897.51
v 956.241 73.5868 -6897.54
v 956.154 73.5067 -6897.57
v 956.062 73.6006 -6897.42
v 956.176 73.6454 -6897.43
v 955.271 75.1124 -6896.69
v 955.817 74.3461 -6896.81
v 955.022 74.9423 -6896.73
v 956.154 73.5067 -6897.57
v 956.424 73.3401 -6898.44
v 953.302 72.017 -6898.32
v 953.502 71.8973 -6898.97
v 955.551 74.1948 -6896.84
v 952.828 72.5582 -6897.74
v 955.022 74.9423 -6896.73
v 952.431 73.1204 -6897.67
v 956.362 73.7804 -6897.27
v 956.379 73.9924 -6897.12
v 956.199 73.5926 -6897.36
v 955.964 73.8784 -6897.14
v 955.952 73.5006 -6897.35
v 955.579 73.6947 -6897.07
v 955.715 73.5396 -6897.24
v 955.76 74.0945 -6896.83
v 955.596 73.9067 -6896.92
v 955.661 74.0581 -6896.93
v 955.574 73.9573 -6896.98
v 955.556 73.7476 -6897.14
v 953.82 72.7842 -6897.66
v 953.078 72.257 -6897.99
v 956.062 73.6006 -6897.42
v 955.929 73.5513 -6897.41
v 955.692 73.5926 -6897.31
v 953.956 72.6291 -6897.83
v 956.176 73.6454 -6897.43
v 956.062 73.6006 -6897.42
v 956.199 73.5926 -6897.36
v 955.952 73.5006 -6897.35
v 955.929 73.5513 -6897.41
v 955.736 74.1472 -6896.9
v 955.76 74.0945 -6896.83
v 955.661 74.0581 -6896.93
v 955.596 73.9067 -6896.92
v 955.574 73.9573 -6896.98
v 955.556 73.7476 -6897.14
v 955.579 73.6947 -6897.07
v 955.715 73.5396 -6897.24
v 955.692 73.5926 -6897.31
v 956.241 73.5868 -6897.54
v 956.176 73.6454 -6897.43
v 956.199 73.5926 -6897.36
v 955.736 74.1472 -6896.9
v 955.659 74.2479 -6896.83
v 955.76 74.0945 -6896.83
v 955.715 73.5396 -6897.24
v 955.692 73.5926 -6897.31
v 954.48 72.8612 -6897.62
v 953.956 72.6291 -6897.83
v 954.357 72.7255 -6897.59
v 955.715 73.5396 -6897.24
v 954.48 72.8612 -6897.62
v 955.579 73.6947 -6897.07
v 954.344 73.0163 -6897.45
v 954.48 72.8612 -6897.62
v 954.357 72.7255 -6897.59
v 954.344 73.0163 -6897.45
v 954.221 72.8806 -6897.42
v 954.357 72.7255 -6897.59
v 953.956 72.6291 -6897.83
v 954.221 72.8806 -6897.42
v 953.82 72.7842 -6897.66
v 955.659 74.2479 -6896.83
v 956.241 73.5868 -6897.54
v 952.732 73.5738 -6900.34
v 952.767 73.5738 -6900.53
v 953.256 72.7797 -6900.24
v 953.044 73.1768 -6900.56
v 953.291 72.7797 -6900.44
v 953.291 72.7797 -6900.44
v 953.579 72.7182 -6900.35
v 953.256 72.7797 -6900.24
v 953.543 72.7182 -6900.15
v 953.543 72.7182 -6900.15
v 953.579 72.7182 -6900.35
v 955.716 73.9579 -6900.06
v 955.751 73.9579 -6900.26
v 955.827 74.2603 -6900.35
v 955.792 74.2603 -6900.16
v 955.751 73.9579 -6900.26
v 955.716 73.9579 -6900.06
v 955.751 73.9579 -6900.26
v 956.169 74.1962 -6900.24
v 955.827 74.2603 -6900.35
v 955.713 74.9423 -6900.53
v 955.494 74.7975 -6900.53
v 956.835 73.82 -6899.36
v 956.926 74.0407 -6899.52
v 956.776 73.7804 -6899.55
v 956.847 73.9924 -6899.69
v 956.443 73.6006 -6899.52
v 956.475 73.5081 -6899.34
v 956.546 73.6454 -6899.47
v 956.567 73.5853 -6899.34
v 955.962 75.1124 -6900.48
v 956.423 74.342 -6900.17
v 957.199 75.9855 -6900.01
v 957.594 75.3426 -6899.77
v 956.579 74.3811 -6900.1
v 956.793 74.3366 -6899.91
v 957.774 74.9841 -6899.42
v 956.913 74.2201 -6899.71
v 956.717 73.6949 -6899.32
v 957.869 74.7237 -6898.96
v 956.674 73.5102 -6898.39
v 957.82 74.5867 -6898.18
v 955.962 75.1124 -6900.48
v 955.713 74.9423 -6900.53
v 956.423 74.342 -6900.17
v 956.275 74.2486 -6900.21
v 956.169 74.1962 -6900.24
v 956.24 74.0581 -6900.11
v 956.323 74.1472 -6900.12
v 956.674 73.5102 -6898.39
v 956.717 73.6949 -6899.32
v 956.424 73.3401 -6898.44
v 953.579 72.7182 -6900.35
v 953.291 72.7797 -6900.44
v 953.303 72.5582 -6900.35
v 952.958 73.1204 -6900.56
v 953.044 73.1768 -6900.56
v 956.475 73.5081 -6899.34
v 953.544 72.017 -6899.65
v 956.424 73.3401 -6898.44
v 953.502 71.8973 -6898.97
v 956.596 74.1865 -6900.08
v 956.779 74.1475 -6899.89
v 956.37 74.0945 -6900.18
v 956.45 73.8784 -6899.81
v 956.186 73.9067 -6900.15
v 956.183 73.5396 -6899.81
v 956.114 73.6947 -6900.01
v 956.592 73.5926 -6899.52
v 956.366 73.5006 -6899.62
v 956.443 73.6006 -6899.52
v 956.322 73.5513 -6899.57
v 956.137 73.5926 -6899.75
v 954.329 72.6291 -6899.88
v 953.45 72.257 -6900.03
v 956.24 74.0581 -6900.11
v 956.141 73.9573 -6900.1
v 956.068 73.7476 -6899.96
v 954.26 72.7842 -6900.08
v 953.45 72.257 -6900.03
v 956.323 74.1472 -6900.12
v 956.24 74.0581 -6900.11
v 956.37 74.0945 -6900.18
v 956.186 73.9067 -6900.15
v 956.141 73.9573 -6900.1
v 956.546 73.6454 -6899.47
v 956.592 73.5926 -6899.52
v 956.443 73.6006 -6899.52
v 956.366 73.5006 -6899.62
v 956.322 73.5513 -6899.57
v 956.137 73.5926 -6899.75
v 956.183 73.5396 -6899.81
v 956.114 73.6947 -6900.01
v 956.068 73.7476 -6899.96
v 956.275 74.2486 -6900.21
v 956.323 74.1472 -6900.12
v 956.37 74.0945 -6900.18
v 956.546 73.6454 -6899.47
v 956.567 73.5853 -6899.34
v 956.592 73.5926 -6899.52
v 956.114 73.6947 -6900.01
v 954.82 73.0226 -6900.09
v 956.183 73.5396 -6899.81
v 954.889 72.8675 -6899.88
v 954.82 73.0226 -6900.09
v 954.714 72.8869 -6900.15
v 954.889 72.8675 -6899.88
v 954.783 72.7318 -6899.95
v 954.714 72.8869 -6900.15
v 954.26 72.7842 -6900.08
v 954.783 72.7318 -6899.95
v 954.329 72.6291 -6899.88
v 956.567 73.5853 -6899.34
v 956.275 74.2486 -6900.21
v 952.781 73.8742 -6900.29
v 952.816 73.8742 -6900.48
v 952.732 73.5738 -6900.34
v 952.767 73.5738 -6900.53
v 954.803 75.396 -6900.43
v 952.816 73.8742 -6900.48
v 954.767 75.396 -6900.24
v 952.781 73.8742 -6900.29
v 955.118 75.3347 -6900.48
v 954.803 75.396 -6900.43
v 955.083 75.3347 -6900.28
v 954.767 75.396 -6900.24
v 955.083 75.3347 -6900.28
v 955.792 74.2603 -6900.16
v 955.118 75.3347 -6900.48
v 955.494 74.7975 -6900.53
v 955.827 74.2603 -6900.35
v 954.803 75.396 -6900.43
v 955.118 75.3347 -6900.48
v 955.184 75.6885 -6900.42
v 955.713 74.9423 -6900.53
v 955.494 74.7975 -6900.53
v 955.012 76.5827 -6899.69
v 954.973 76.5137 -6899.88
v 955.266 76.5553 -6899.82
v 955.209 76.4747 -6899.99
v 954.672 76.284 -6899.84
v 954.749 76.369 -6899.79
v 954.582 76.3766 -6899.69
v 954.689 76.4317 -6899.68
v 955.962 75.1124 -6900.48
v 957.199 75.9855 -6900.01
v 955.411 75.8762 -6900.35
v 956.745 76.6284 -6899.92
v 955.501 76.0151 -6900.3
v 955.525 76.2578 -6900.14
v 956.452 76.9869 -6899.66
v 955.445 76.445 -6899.98
v 954.846 76.5299 -6899.66
v 956.203 77.2473 -6899.26
v 954.559 76.7146 -6898.78
v 955.974 77.3843 -6898.52
v 955.962 75.1124 -6900.48
v 955.411 75.8762 -6900.35
v 955.713 74.9423 -6900.53
v 955.27 75.7707 -6900.39
v 955.184 75.6885 -6900.42
v 955.073 75.8266 -6900.32
v 955.188 75.8671 -6900.33
v 954.559 76.7146 -6898.78
v 954.31 76.5445 -6898.82
v 954.846 76.5299 -6899.66
v 952.816 73.8742 -6900.48
v 952.562 73.6826 -6900.49
v 952.767 73.5738 -6900.53
v 952.958 73.1204 -6900.56
v 953.044 73.1768 -6900.56
v 954.582 76.3766 -6899.69
v 954.31 76.5445 -6898.82
v 952.088 74.2237 -6899.91
v 951.888 74.3435 -6899.26
v 955.328 76.1077 -6900.31
v 955.345 76.3196 -6900.15
v 955.165 75.9199 -6900.4
v 954.961 76.1359 -6900.08
v 954.918 75.8279 -6900.38
v 954.681 75.8669 -6900.27
v 954.545 76.022 -6900.11
v 954.726 76.4217 -6899.86
v 954.562 76.2339 -6899.95
v 954.672 76.284 -6899.84
v 954.585 76.1833 -6899.89
v 954.569 75.969 -6900.04
v 952.983 74.6683 -6900.12
v 952.311 73.9838 -6900.24
v 955.073 75.8266 -6900.32
v 954.94 75.7772 -6900.32
v 954.705 75.8139 -6900.2
v 953.119 74.5133 -6900.29
v 955.188 75.8671 -6900.33
v 955.165 75.9199 -6900.4
v 955.073 75.8266 -6900.32
v 954.918 75.8279 -6900.38
v 954.94 75.7772 -6900.32
v 954.749 76.369 -6899.79
v 954.672 76.284 -6899.84
v 954.726 76.4217 -6899.86
v 954.562 76.2339 -6899.95
v 954.585 76.1833 -6899.89
v 954.569 75.969 -6900.04
v 954.545 76.022 -6900.11
v 954.705 75.8139 -6900.2
v 954.681 75.8669 -6900.27
v 955.27 75.7707 -6900.39
v 955.165 75.9199 -6900.4
v 955.188 75.8671 -6900.33
v 954.749 76.369 -6899.79
v 954.726 76.4217 -6899.86
v 954.689 76.4317 -6899.68
v 954.681 75.8669 -6900.27
v 954.545 76.022 -6900.11
v 953.56 74.931 -6900.32
v 953.425 75.0861 -6900.15
v 953.56 74.931 -6900.32
v 953.425 75.0861 -6900.15
v 953.402 74.8751 -6900.39
v 953.266 75.0302 -6900.23
v 953.402 74.8751 -6900.39
v 953.266 75.0302 -6900.23
v 953.119 74.5133 -6900.29
v 952.983 74.6683 -6900.12
v 954.689 76.4317 -6899.68
v 955.27 75.7707 -6900.39
v 954.077 76.022 -6897.53
v 953.026 75.0719 -6897.9
v 954.123 75.969 -6897.59
v 952.61 74.6683 -6898.07
v 952.85 75.016 -6897.89
v 952.679 74.5133 -6897.87
v 952.61 74.6683 -6898.07
v 955.579 73.6947 -6897.07
v 954.344 73.0163 -6897.45
v 955.556 73.7476 -6897.14
v 953.82 72.7842 -6897.66
v 954.221 72.8806 -6897.42
v 953.956 72.6291 -6897.83
v 953.82 72.7842 -6897.66
v 956.183 73.5396 -6899.81
v 954.889 72.8675 -6899.88
v 956.137 73.5926 -6899.75
v 954.329 72.6291 -6899.88
v 954.783 72.7318 -6899.95
v 954.26 72.7842 -6900.08
v 953.45 72.257 -6900.03
v 954.329 72.6291 -6899.88
v 956.114 73.6947 -6900.01
v 956.068 73.7476 -6899.96
v 954.82 73.0226 -6900.09
v 954.26 72.7842 -6900.08
v 954.714 72.8869 -6900.15
v 954.545 76.022 -6900.11
v 954.569 75.969 -6900.04
v 953.425 75.0861 -6900.15
v 952.983 74.6683 -6900.12
v 953.266 75.0302 -6900.23
v 952.983 74.6683 -6900.12
v 953.119 74.5133 -6900.29
v 954.681 75.8669 -6900.27
v 953.56 74.931 -6900.32
v 954.705 75.8139 -6900.2
v 953.119 74.5133 -6900.29
v 953.402 74.8751 -6900.39
v 952.911 71.9237 -6899.08
v 952.171 72.7637 -6899.21
v 952.76 72.0145 -6898.58
v 952.1 72.851 -6898.09
v 952.4 72.4248 -6898.15
v 952.595 72.1871 -6898.32
v 952.499 72.851 -6900.29
v 952.761 72.4248 -6900.13
v 952.911 71.9237 -6899.08
v 952.943 72.0145 -6899.59
v 952.881 72.1871 -6899.89
v 951.688 73.7784 -6899.3
v 951.839 73.6876 -6899.79
v 952.499 72.851 -6900.29
v 952.199 73.2773 -6900.23
v 952.005 73.515 -6900.05
v 952.1 72.851 -6898.09
v 951.838 73.2773 -6898.25
v 951.688 73.7784 -6899.3
v 951.656 73.6876 -6898.78
v 951.718 73.515 -6898.48
v 951.042 71.9165 -6899.96
v 951.448 72.1685 -6899.88
v 950.987 71.9165 -6899.66
v 951.396 72.1685 -6899.59
v 950.987 71.9165 -6899.66
v 951.396 72.1685 -6899.59
v 951.067 71.7359 -6899.42
v 951.472 71.9985 -6899.37
v 951.236 71.4805 -6899.39
v 951.631 71.7579 -6899.34
v 951.394 71.3 -6899.58
v 951.78 71.5879 -6899.52
v 951.449 71.3 -6899.89
v 951.831 71.5879 -6899.81
v 951.369 71.4805 -6900.12
v 951.756 71.7579 -6900.03
v 951.2 71.7359 -6900.15
v 951.597 71.9985 -6900.06
v 951.236 71.4805 -6899.39
v 951.344 71.6944 -6899.75
v 951.067 71.7359 -6899.42
v 950.987 71.9165 -6899.66
v 952.092 72.2976 -6899.86
v 951.987 72.4181 -6899.74
v 951.95 72.4181 -6899.53
v 951.95 72.4181 -6899.53
v 952.004 72.2976 -6899.38
v 952.116 72.1273 -6899.36
v 952.222 72.0069 -6899.48
v 952.258 72.0069 -6899.69
v 952.205 72.1273 -6899.84
v 952.502 72.5738 -6899.57
v 952.536 72.5358 -6899.61
v 952.491 72.5738 -6899.51
v 952.508 72.5358 -6899.46
v 952.491 72.5738 -6899.51
v 952.543 72.4822 -6899.45
v 952.576 72.4443 -6899.49
v 952.588 72.4443 -6899.56
v 952.571 72.4822 -6899.6
v 951.449 71.3 -6899.89
v 951.394 71.3 -6899.58
v 951.2 71.7359 -6900.15
v 951.042 71.9165 -6899.96
v 951.369 71.4805 -6900.12
v 950.649 72.369 -6899.5
v 951.054 72.6316 -6899.45
v 950.818 72.1137 -6899.47
v 951.213 72.3911 -6899.42
v 950.818 72.1137 -6899.47
v 951.213 72.3911 -6899.42
v 950.976 71.9331 -6899.66
v 951.362 72.221 -6899.6
v 951.031 71.9331 -6899.96
v 951.414 72.221 -6899.88
v 950.951 72.1137 -6900.2
v 951.338 72.3911 -6900.1
v 950.782 72.369 -6900.23
v 951.179 72.6316 -6900.13
v 950.624 72.5496 -6900.04
v 951.031 72.8017 -6899.95
v 950.569 72.5496 -6899.73
v 950.979 72.8017 -6899.67
v 951.031 71.9331 -6899.96
v 950.927 72.3275 -6899.82
v 950.976 71.9331 -6899.66
v 950.818 72.1137 -6899.47
v 951.533 73.0512 -6899.61
v 951.586 72.9308 -6899.45
v 951.698 72.7604 -6899.43
v 951.698 72.7604 -6899.43
v 951.804 72.64 -6899.56
v 951.841 72.64 -6899.76
v 951.787 72.7604 -6899.92
v 951.675 72.9308 -6899.94
v 951.569 73.0512 -6899.81
v 952.09 73.169 -6899.53
v 952.073 73.2069 -6899.58
v 952.125 73.1154 -6899.53
v 952.159 73.0774 -6899.57
v 952.125 73.1154 -6899.53
v 952.17 73.0774 -6899.63
v 952.153 73.1154 -6899.68
v 952.118 73.169 -6899.69
v 952.085 73.2069 -6899.65
v 950.782 72.369 -6900.23
v 950.951 72.1137 -6900.2
v 950.569 72.5496 -6899.73
v 950.649 72.369 -6899.5
v 950.624 72.5496 -6900.04
v 951.232 71.4805 -6899.37
v 951.619 71.7579 -6899.28
v 951.064 71.7359 -6899.4
v 951.461 71.9985 -6899.31
v 951.064 71.7359 -6899.4
v 951.461 71.9985 -6899.31
v 950.906 71.9165 -6899.21
v 951.312 72.1685 -6899.13
v 950.851 71.9165 -6898.91
v 951.26 72.1685 -6898.84
v 950.931 71.7359 -6898.67
v 951.336 71.9985 -6898.62
v 951.099 71.4805 -6898.64
v 951.494 71.7579 -6898.59
v 951.257 71.3 -6898.83
v 951.643 71.5879 -6898.77
v 951.312 71.3 -6899.14
v 951.695 71.5879 -6899.06
v 950.851 71.9165 -6898.91
v 951.208 71.6944 -6899
v 950.906 71.9165 -6899.21
v 951.064 71.7359 -6899.4
v 952.122 72.0069 -6898.94
v 952.068 72.1273 -6899.09
v 951.956 72.2976 -6899.11
v 951.956 72.2976 -6899.11
v 951.851 72.4181 -6898.99
v 951.814 72.4181 -6898.78
v 951.867 72.2976 -6898.63
v 951.98 72.1273 -6898.61
v 952.085 72.0069 -6898.73
v 952.435 72.4822 -6898.85
v 952.451 72.4443 -6898.81
v 952.399 72.5358 -6898.86
v 952.366 72.5738 -6898.82
v 952.399 72.5358 -6898.86
v 952.354 72.5738 -6898.76
v 952.371 72.5358 -6898.71
v 952.407 72.4822 -6898.7
v 952.44 72.4443 -6898.74
v 951.099 71.4805 -6898.64
v 950.931 71.7359 -6898.67
v 951.312 71.3 -6899.14
v 951.232 71.4805 -6899.37
v 951.257 71.3 -6898.83
v 950.84 71.9331 -6898.91
v 951.225 72.221 -6898.85
v 950.895 71.9331 -6899.21
v 951.277 72.221 -6899.13
v 950.895 71.9331 -6899.21
v 951.277 72.221 -6899.13
v 950.814 72.1137 -6899.45
v 951.202 72.3911 -6899.35
v 950.646 72.369 -6899.48
v 951.043 72.6316 -6899.38
v 950.488 72.5496 -6899.29
v 950.894 72.8017 -6899.2
v 950.433 72.5496 -6898.98
v 950.842 72.8017 -6898.92
v 950.513 72.369 -6898.75
v 950.918 72.6316 -6898.7
v 950.682 72.1137 -6898.72
v 951.076 72.3911 -6898.67
v 950.646 72.369 -6899.48
v 950.79 72.3275 -6899.07
v 950.814 72.1137 -6899.45
v 950.895 71.9331 -6899.21
v 951.562 72.7604 -6898.68
v 951.667 72.64 -6898.81
v 951.704 72.64 -6899.01
v 951.704 72.64 -6899.01
v 951.651 72.7604 -6899.17
v 951.538 72.9308 -6899.19
v 951.433 73.0512 -6899.06
v 951.396 73.0512 -6898.86
v 951.45 72.9308 -6898.7
v 952.022 73.0774 -6898.82
v 951.989 73.1154 -6898.78
v 952.034 73.0774 -6898.88
v 952.017 73.1154 -6898.93
v 952.034 73.0774 -6898.88
v 951.981 73.169 -6898.94
v 951.948 73.2069 -6898.9
v 951.937 73.2069 -6898.83
v 951.953 73.169 -6898.78
v 950.433 72.5496 -6898.98
v 950.488 72.5496 -6899.29
v 950.682 72.1137 -6898.72
v 950.84 71.9331 -6898.91
v 950.513 72.369 -6898.75
v 951.625 72.4774 -6897.89
v 951.788 72.5916 -6897.96
v 951.671 72.3781 -6897.98
v 951.826 72.5089 -6898.03
v 951.671 72.3781 -6897.98
v 951.826 72.5089 -6898.03
v 951.659 72.3538 -6898.12
v 951.816 72.4886 -6898.14
v 951.596 72.4186 -6898.22
v 951.764 72.5426 -6898.23
v 951.52 72.5346 -6898.24
v 951.701 72.6392 -6898.24
v 951.474 72.6339 -6898.15
v 951.663 72.7219 -6898.17
v 951.486 72.6582 -6898.01
v 951.673 72.7422 -6898.06
v 951.549 72.5934 -6897.91
v 951.725 72.6882 -6897.97
v 951.596 72.4186 -6898.22
v 951.642 72.5504 -6898.08
v 951.659 72.3538 -6898.12
v 951.671 72.3781 -6897.98
v 951.945 72.7833 -6898.08
v 951.975 72.7374 -6898.07
v 951.993 72.6981 -6898.11
v 951.993 72.6981 -6898.11
v 951.988 72.6884 -6898.16
v 951.964 72.7141 -6898.2
v 951.933 72.76 -6898.21
v 951.915 72.7994 -6898.18
v 951.92 72.809 -6898.12
v 952.132 72.899 -6898.12
v 952.16 72.8565 -6898.12
v 952.176 72.8202 -6898.15
v 952.176 72.8202 -6898.15
v 952.172 72.8113 -6898.2
v 952.149 72.835 -6898.24
v 952.121 72.8775 -6898.24
v 952.104 72.9138 -6898.21
v 952.109 72.9227 -6898.16
v 951.474 72.6339 -6898.15
v 951.52 72.5346 -6898.24
v 951.549 72.5934 -6897.91
v 951.625 72.4774 -6897.89
v 951.486 72.6582 -6898.01
v 958.068 76.3892 -6899.75
v 957.757 76.2753 -6899.58
v 958.054 76.5077 -6899.68
v 957.748 76.3513 -6899.53
v 958.054 76.5077 -6899.68
v 957.748 76.3513 -6899.53
v 957.978 76.6237 -6899.69
v 957.699 76.4256 -6899.54
v 957.883 76.6691 -6899.78
v 957.639 76.4547 -6899.6
v 957.826 76.6175 -6899.9
v 957.602 76.4216 -6899.67
v 957.84 76.4989 -6899.97
v 957.611 76.3456 -6899.72
v 957.917 76.3829 -6899.96
v 957.66 76.2713 -6899.71
v 958.011 76.3375 -6899.87
v 957.721 76.2422 -6899.65
v 957.883 76.6691 -6899.78
v 957.876 76.4576 -6899.77
v 957.978 76.6237 -6899.69
v 958.054 76.5077 -6899.68
v 957.743 76.1826 -6899.49
v 957.757 76.2753 -6899.58
v 957.68 76.1254 -6899.62
v 957.721 76.2422 -6899.65
v 957.728 76.3138 -6899.41
v 957.748 76.3513 -6899.53
v 957.643 76.4422 -6899.43
v 957.699 76.4256 -6899.54
v 957.728 76.3138 -6899.41
v 957.748 76.3513 -6899.53
v 957.539 76.4925 -6899.53
v 957.639 76.4547 -6899.6
v 957.475 76.4353 -6899.66
v 957.602 76.4216 -6899.67
v 957.491 76.304 -6899.74
v 957.611 76.3456 -6899.72
v 957.576 76.1757 -6899.72
v 957.66 76.2713 -6899.71
v 957.565 76.0736 -6899.35
v 957.743 76.1826 -6899.49
v 957.5 76.0145 -6899.49
v 957.68 76.1254 -6899.62
v 957.55 76.2093 -6899.27
v 957.728 76.3138 -6899.41
v 957.462 76.3421 -6899.28
v 957.643 76.4422 -6899.43
v 957.55 76.2093 -6899.27
v 957.728 76.3138 -6899.41
v 957.354 76.3941 -6899.39
v 957.539 76.4925 -6899.53
v 957.288 76.3349 -6899.52
v 957.475 76.4353 -6899.66
v 957.304 76.1992 -6899.61
v 957.491 76.304 -6899.74
v 957.392 76.0665 -6899.59
v 957.576 76.1757 -6899.72
v 957.826 76.6175 -6899.9
v 957.84 76.4989 -6899.97
v 958.011 76.3375 -6899.87
v 958.068 76.3892 -6899.75
v 957.917 76.3829 -6899.96
v 952.614 71.5623 -6899.9
v 952.718 71.727 -6899.82
v 952.524 71.6536 -6899.96
v 952.643 71.803 -6899.87
v 952.524 71.6536 -6899.96
v 952.643 71.803 -6899.87
v 952.414 71.7246 -6899.91
v 952.551 71.8622 -6899.83
v 952.347 71.7338 -6899.79
v 952.495 71.8699 -6899.73
v 952.364 71.6758 -6899.66
v 952.509 71.8216 -6899.62
v 952.454 71.5845 -6899.6
v 952.584 71.7456 -6899.58
v 952.564 71.5135 -6899.65
v 952.676 71.6864 -6899.62
v 952.631 71.5043 -6899.77
v 952.732 71.6787 -6899.72
v 952.347 71.7338 -6899.79
v 952.539 71.6824 -6899.76
v 952.414 71.7246 -6899.91
v 952.524 71.6536 -6899.96
v 952.821 71.9189 -6899.65
v 952.814 71.9419 -6899.7
v 952.779 71.9781 -6899.73
v 952.779 71.9781 -6899.73
v 952.735 72.0062 -6899.71
v 952.708 72.0098 -6899.66
v 952.715 71.9869 -6899.61
v 952.751 71.9507 -6899.59
v 952.794 71.9226 -6899.61
v 952.951 72.091 -6899.59
v 952.944 72.1123 -6899.64
v 952.911 72.1457 -6899.66
v 952.911 72.1457 -6899.66
v 952.871 72.1717 -6899.64
v 952.847 72.1751 -6899.6
v 952.853 72.1538 -6899.55
v 952.886 72.1204 -6899.53
v 952.926 72.0944 -6899.55
v 952.454 71.5845 -6899.6
v 952.364 71.6758 -6899.66
v 952.631 71.5043 -6899.77
v 952.614 71.5623 -6899.9
v 952.564 71.5135 -6899.65
v 951.27 73.5666 -6900.02
v 951.463 73.6011 -6899.95
v 951.238 73.5229 -6899.89
v 951.437 73.5647 -6899.84
v 951.238 73.5229 -6899.89
v 951.437 73.5647 -6899.84
v 951.254 73.4031 -6899.82
v 951.45 73.4649 -6899.78
v 951.307 73.2773 -6899.85
v 951.494 73.3602 -6899.81
v 951.367 73.2193 -6899.96
v 951.544 73.3119 -6899.9
v 951.399 73.263 -6900.09
v 951.57 73.3483 -6900.01
v 951.383 73.3828 -6900.16
v 951.557 73.448 -6900.07
v 951.33 73.5086 -6900.13
v 951.513 73.5527 -6900.04
v 951.307 73.2773 -6899.85
v 951.394 73.4184 -6899.97
v 951.254 73.4031 -6899.82
v 951.238 73.5229 -6899.89
v 951.734 73.5788 -6899.9
v 951.71 73.6018 -6899.86
v 951.698 73.5845 -6899.81
v 951.698 73.5845 -6899.81
v 951.704 73.537 -6899.78
v 951.725 73.4872 -6899.79
v 951.749 73.4643 -6899.83
v 951.761 73.4816 -6899.89
v 951.755 73.529 -6899.91
v 951.934 73.6433 -6899.82
v 951.912 73.6645 -6899.78
v 951.901 73.6485 -6899.74
v 951.901 73.6485 -6899.74
v 951.906 73.6047 -6899.71
v 951.926 73.5586 -6899.72
v 951.948 73.5374 -6899.76
v 951.959 73.5534 -6899.81
v 951.954 73.5973 -6899.84
v 951.399 73.263 -6900.09
v 951.367 73.2193 -6899.96
v 951.33 73.5086 -6900.13
v 951.27 73.5666 -6900.02
v 951.383 73.3828 -6900.16
v 956.778 77.7382 -6897.71
v 956.674 77.389 -6897.79
v 956.885 77.6805 -6897.64
v 956.742 77.3521 -6897.75
v 956.885 77.6805 -6897.64
v 956.742 77.3521 -6897.75
v 956.901 77.6223 -6897.52
v 956.753 77.3148 -6897.67
v 956.818 77.5978 -6897.41
v 956.699 77.2991 -6897.6
v 956.683 77.6212 -6897.38
v 956.613 77.3141 -6897.58
v 956.576 77.6789 -6897.45
v 956.544 77.3511 -6897.63
v 956.56 77.7371 -6897.58
v 956.534 77.3883 -6897.71
v 956.643 77.7616 -6897.68
v 956.587 77.4041 -6897.78
v 956.818 77.5978 -6897.41
v 956.706 77.591 -6897.59
v 956.901 77.6223 -6897.52
v 956.885 77.6805 -6897.64
v 956.673 77.3303 -6897.91
v 956.674 77.389 -6897.79
v 956.524 77.3562 -6897.88
v 956.587 77.4041 -6897.78
v 956.792 77.2664 -6897.83
v 956.742 77.3521 -6897.75
v 956.81 77.202 -6897.69
v 956.753 77.3148 -6897.67
v 956.792 77.2664 -6897.83
v 956.742 77.3521 -6897.75
v 956.717 77.1749 -6897.57
v 956.699 77.2991 -6897.6
v 956.568 77.2008 -6897.54
v 956.613 77.3141 -6897.58
v 956.45 77.2647 -6897.62
v 956.544 77.3511 -6897.63
v 956.431 77.3291 -6897.76
v 956.534 77.3883 -6897.71
v 956.616 77.1087 -6898.01
v 956.673 77.3303 -6897.91
v 956.461 77.1355 -6897.98
v 956.524 77.3562 -6897.88
v 956.738 77.0426 -6897.93
v 956.792 77.2664 -6897.83
v 956.757 76.9761 -6897.79
v 956.81 77.202 -6897.69
v 956.738 77.0426 -6897.93
v 956.792 77.2664 -6897.83
v 956.661 76.948 -6897.66
v 956.717 77.1749 -6897.57
v 956.507 76.9748 -6897.63
v 956.568 77.2008 -6897.54
v 956.385 77.0408 -6897.71
v 956.45 77.2647 -6897.62
v 956.366 77.1074 -6897.85
v 956.431 77.3291 -6897.76
v 956.683 77.6212 -6897.38
v 956.576 77.6789 -6897.45
v 956.643 77.7616 -6897.68
v 956.778 77.7382 -6897.71
v 956.56 77.7371 -6897.58
v 958.232 75.4558 -6897.15
v 957.932 75.4312 -6897.38
v 958.3 75.5044 -6897.27
v 957.975 75.4624 -6897.45
v 958.3 75.5044 -6897.27
v 957.975 75.4624 -6897.45
v 958.359 75.4464 -6897.38
v 958.014 75.4252 -6897.52
v 958.377 75.3158 -6897.43
v 958.025 75.3415 -6897.55
v 958.341 75.1889 -6897.38
v 958.002 75.2602 -6897.52
v 958.273 75.1403 -6897.27
v 957.958 75.229 -6897.45
v 958.214 75.1983 -6897.15
v 957.92 75.2662 -6897.38
v 958.197 75.329 -6897.11
v 957.909 75.3499 -6897.35
v 958.377 75.3158 -6897.43
v 958.197 75.3303 -6897.31
v 958.359 75.4464 -6897.38
v 958.3 75.5044 -6897.27
v 957.824 75.4991 -6897.37
v 957.932 75.4312 -6897.38
v 957.784 75.3587 -6897.32
v 957.909 75.3499 -6897.35
v 957.898 75.5529 -6897.5
v 957.975 75.4624 -6897.45
v 957.965 75.4887 -6897.62
v 958.014 75.4252 -6897.52
v 957.898 75.5529 -6897.5
v 957.975 75.4624 -6897.45
v 957.984 75.344 -6897.67
v 958.025 75.3415 -6897.55
v 957.944 75.2037 -6897.62
v 958.002 75.2602 -6897.52
v 957.87 75.1498 -6897.5
v 957.958 75.229 -6897.45
v 957.803 75.214 -6897.37
v 957.92 75.2662 -6897.38
v 957.604 75.5196 -6897.49
v 957.824 75.4991 -6897.37
v 957.564 75.3744 -6897.44
v 957.784 75.3587 -6897.32
v 957.682 75.5752 -6897.62
v 957.898 75.5529 -6897.5
v 957.75 75.5089 -6897.75
v 957.965 75.4887 -6897.62
v 957.682 75.5752 -6897.62
v 957.898 75.5529 -6897.5
v 957.77 75.3593 -6897.8
v 957.984 75.344 -6897.67
v 957.729 75.2141 -6897.75
v 957.944 75.2037 -6897.62
v 957.652 75.1584 -6897.62
v 957.87 75.1498 -6897.5
v 957.583 75.2248 -6897.49
v 957.803 75.214 -6897.37
v 958.341 75.1889 -6897.38
v 958.273 75.1403 -6897.27
v 958.197 75.329 -6897.11
v 958.232 75.4558 -6897.15
v 958.214 75.1983 -6897.15
v 957.98 75.6667 -6898.59
v 958.276 75.9519 -6898.5
v 957.828 76.0065 -6899.03
v 958.136 76.2649 -6898.91
v 957.612 76.3596 -6899.16
v 957.937 76.5901 -6899.03
v 957.953 75.5915 -6898.16
v 958.251 75.8826 -6898.1
v 956.913 77.0526 -6897.92
v 957.293 77.2284 -6897.88
v 957.064 76.7127 -6897.47
v 957.432 76.9153 -6897.47
v 957.281 76.3596 -6897.34
v 957.632 76.5901 -6897.35
v 956.939 77.1278 -6898.34
v 957.317 77.2976 -6898.27
v 957.53 76.0065 -6897.39
v 957.861 76.2649 -6897.39
v 957.827 75.6667 -6897.75
v 958.135 75.9519 -6897.73
v 957.953 75.5915 -6898.16
v 958.251 75.8826 -6898.1
v 957.281 76.3596 -6897.34
v 957.632 76.5901 -6897.35
v 957.363 76.7127 -6899.11
v 957.707 76.9153 -6898.98
v 957.065 77.0526 -6898.75
v 957.433 77.2284 -6898.65
v 956.939 77.1278 -6898.34
v 957.317 77.2976 -6898.27
v 957.612 76.3596 -6899.16
v 957.937 76.5901 -6899.03
v 953.303 72.5582 -6900.35
v 952.761 72.4248 -6900.13
v 953.45 72.257 -6900.03
v 952.881 72.1871 -6899.89
v 953.544 72.017 -6899.65
v 952.943 72.0145 -6899.59
v 952.958 73.1204 -6900.56
v 952.499 72.851 -6900.29
v 953.502 71.8973 -6898.97
v 952.911 71.9237 -6899.08
v 952.086 73.6826 -6897.88
v 951.838 73.2773 -6898.25
v 951.939 73.9838 -6898.2
v 951.718 73.515 -6898.48
v 951.845 74.2237 -6898.58
v 951.656 73.6876 -6898.78
v 952.431 73.1204 -6897.67
v 952.1 72.851 -6898.09
v 951.888 74.3435 -6899.26
v 951.688 73.7784 -6899.3
v 953.302 72.017 -6898.32
v 952.76 72.0145 -6898.58
v 953.078 72.257 -6897.99
v 952.595 72.1871 -6898.32
v 952.828 72.5582 -6897.74
v 952.4 72.4248 -6898.15
v 953.502 71.8973 -6898.97
v 952.911 71.9237 -6899.08
v 952.431 73.1204 -6897.67
v 952.1 72.851 -6898.09
v 952.088 74.2237 -6899.91
v 951.839 73.6876 -6899.79
v 952.311 73.9838 -6900.24
v 952.005 73.515 -6900.05
v 952.562 73.6826 -6900.49
v 952.199 73.2773 -6900.23
v 951.888 74.3435 -6899.26
v 951.688 73.7784 -6899.3
v 952.958 73.1204 -6900.56
v 952.499 72.851 -6900.29
v 927 77.0768 -6867
v 927 76.955 -6869
v 927 76.8033 -6871
v 927 76.6674 -6873
v 927 76.4905 -6875
v 927 76.1953 -6877
v 927 75.7501 -6879
v 927 75.4467 -6881
v 927 75.1142 -6883
v 927 74.8313 -6885
v 927 74.5187 -6887
v 927 74.4526 -6889
v 927 74.2574 -6891
v 927 74.7908 -6893
v 927 75.0042 -6895
v 927 75.2254 -6897
v 927 75.3514 -6899
v 927 75.4137 -6901
v 927 75.6024 -6903
v 927 75.7699 -6905
v 927 75.9941 -6907
v 927 76.1582 -6909
v 927 76.4304 -6911
v 927 76.6375 -6913
v 927 76.7476 -6915
v 927 76.767 -6917
v 927 76.8405 -6919
v 927 77.0407 -6921
v 927 77.484 -6923
v 927 77.7695 -6925
v 927 77.9067 -6927
v 927 77.9594 -6929
v 929 77.0601 -6867
v 929 76.7524 -6869
v 929 76.5315 -6871
v 929 76.4276 -6873
v 929 76.3206 -6875
v 929 76.1378 -6877
v 929 75.6549 -6879
v 929 75.4668 -6881
v 929 75.1122 -6883
v 929 74.6484 -6885
v 929 74.4416 -6887
v 929 74.3804 -6889
v 929 74.4001 -6891
v 929 74.839 -6893
v 929 75.1077 -6895
v 929 75.4035 -6897
v 929 75.4043 -6899
v 929 75.352 -6901
v 929 75.5686 -6903
v 929 75.6208 -6905
v 929 75.8895 -6907
v 929 76.0967 -6909
v 929 76.2786 -6911
v 929 76.4922 -6913
v 929 76.541 -6915
v 929 76.755 -6917
v 929 76.7537 -6919
v 929 76.8406 -6921
v 929 77.2629 -6923
v 929 77.5556 -6925
v 929 77.5693 -6927
v 929 77.791 -6929
v 931 76.6737 -6867
v 931 76.6024 -6869
v 931 76.5261 -6871
v 931 76.3571 -6873
v 931 76.1947 -6875
v 931 75.9626 -6877
v 931 75.6503 -6879
v 931 75.3631 -6881
v 931 74.9245 -6883
v 931 74.7892 -6885
v 931 74.5712 -6887
v 931 74.4213 -6889
v 931 74.4892 -6891
v 931 74.8316 -6893
v 931 75.1318 -6895
v 931 75.3148 -6897
v 931 75.3598 -6899
v 931 75.2843 -6901
v 931 75.4998 -6903
v 931 75.5271 -6905
v 931 75.6211 -6907
v 931 75.9518 -6909
v 931 76.2136 -6911
v 931 76.2446 -6913
v 931 76.453 -6915
v 931 76.5847 -6917
v 931 76.7339 -6919
v 931 76.7983 -6921
v 931 77.0929 -6923
v 931 77.3047 -6925
v 931 77.2394 -6927
v 931 77.4855 -6929
v 933 76.5039 -6867
v 933 76.3814 -6869
v 933 76.2654 -6871
v 933 76.0831 -6873
v 933 75.9559 -6875
v 933 75.8376 -6877
v 933 75.7397 -6879
v 933 75.3449 -6881
v 933 75.0629 -6883
v 933 74.7195 -6885
v 933 74.4627 -6887
v 933 74.3263 -6889
v 933 74.4599 -6891
v 933 74.8189 -6893
v 933 75.1269 -6895
v 933 75.1735 -6897
v 933 75.3652 -6899
v 933 75.2447 -6901
v 933 75.3544 -6903
v 933 75.4105 -6905
v 933 75.6303 -6907
v 933 75.725 -6909
v 933 76.1095 -6911
v 933 76.1111 -6913
v 933 76.2428 -6915
v 933 76.3365 -6917
v 933 76.5794 -6919
v 933 76.6514 -6921
v 933 76.8758 -6923
v 933 77.0052 -6925
v 933 77.1935 -6927
v 933 77.2444 -6929
v 935 76.4271 -6867
v 935 76.3643 -6869
v 935 76.0361 -6871
v 935 75.8929 -6873
v 935 75.8215 -6875
v 935 75.7449 -6877
v 935 75.6178 -6879
v 935 75.2589 -6881
v 935 75.0833 -6883
v 935 74.7555 -6885
v 935 74.5623 -6887
v 935 74.1627 -6889
v 935 74.5334 -6891
v 935 74.8521 -6893
v 935 75.0501 -6895
v 935 75.1716 -6897
v 935 75.3581 -6899
v 935 75.2455 -6901
v 935 75.3945 -6903
v 935 75.3746 -6905
v 935 75.4144 -6907
v 935 75.6179 -6909
v 935 75.8576 -6911
v 935 76.0936 -6913
v 935 76.2043 -6915
v 935 76.3328 -6917
v 935 76.3816 -6919
v 935 76.4533 -6921
v 935 76.6646 -6923
v 935 76.7737 -6925
v 935 76.9114 -6927
v 935 77.0181 -6929
v 937 76.4559 -6867
v 937 76.1731 -6869
v 937 75.955 -6871
v 937 75.7811 -6873
v 937 75.5956 -6875
v 937 75.5054 -6877
v 937 75.4287 -6879
v 937 75.3043 -6881
v 937 74.9926 -6883
v 937 74.6958 -6885
v 937 74.5078 -6887
v 937 74.1217 -6889
v 937 74.4998 -6891
v 937 74.8223 -6893
v 937 74.9316 -6895
v 937 75.0299 -6897
v 937 75.2587 -6899
v 937 75.2292 -6901
v 937 75.3298 -6903
v 937 75.3339 -6905
v 937 75.3112 -6907
v 937 75.5877 -6909
v 937 75.6485 -6911
v 937 75.9373 -6913
v 937 76.1485 -6915
v 937 76.3366 -6917
v 937 76.2763 -6919
v 937 76.3893 -6921
v 937 76.506 -6923
v 937 76.509 -6925
v 937 76.6881 -6927
v 937 77.0449 -6929
v 939 76.3362 -6867
v 939 76.0306 -6869
v 939 75.8046 -6871
v 939 75.6712 -6873
v 939 75.5159 -6875
v 939 75.2476 -6877
v 939 75.203 -6879
v 939 75.155 -6881
v 939 74.9758 -6883
v 939 74.7004 -6885
v 939 74.3794 -6887
v 939 74.2743 -6889
v 939 74.4965 -6891
v 939 74.5902 -6893
v 939 74.8174 -6895
v 939 74.9954 -6897
v 939 75.0505 -6899
v 939 75.0394 -6901
v 939 75.1964 -6903
v 939 75.218 -6905
v 939 75.3902 -6907
v 939 75.4876 -6909
v 939 75.7843 -6911
v 939 76.0043 -6913
v 939 76.2326 -6915
v 939 76.1901 -6917
v 939 76.2452 -6919
v 939 76.2436 -6921
v 939 76.3607 -6923
v 939 76.4525 -6925
v 939 76.5882 -6927
v 939 76.7495 -6929
v 941 76.0916 -6867
v 941 76.0084 -6869
v 941 75.7037 -6871
v 941 75.4598 -6873
v 941 75.2028 -6875
v 941 75.24 -6877
v 941 75.095 -6879
v 941 74.9799 -6881
v 941 74.8037 -6883
v 941 74.585 -6885
v 941 74.3335 -6887
v 941 74.2321 -6889
v 941 74.3512 -6891
v 941 74.65 -6893
v 941 74.7639 -6895
v 941 74.8315 -6897
v 941 74.7606 -6899
v 941 74.8581 -6901
v 941 75.0179 -6903
v 941 75.0379 -6905
v 941 75.1254 -6907
v 941 75.2541 -6909
v 941 75.6225 -6911
v 941 75.7947 -6913
v 941 75.9658 -6915
v 941 76.227 -6917
v 941 76.2037 -6919
v 941 76.0718 -6921
v 941 76.2686 -6923
v 941 76.2485 -6925
v 941 76.5511 -6927
v 941 76.6779 -6929
v 943 76.0081 -6867
v 943 75.9634 -6869
v 943 75.5159 -6871
v 943 75.3444 -6873
v 943 75.1054 -6875
v 943 75.0342 -6877
v 943 74.9636 -6879
v 943 74.9348 -6881
v 943 74.6643 -6883
v 943 74.5303 -6885
v 943 74.2748 -6887
v 943 74.2047 -6889
v 943 74.1751 -6891
v 943 74.5099 -6893
v 943 74.5938 -6895
v 943 74.5673 -6897
v 943 74.5485 -6899
v 943 74.7475 -6901
v 943 74.6917 -6903
v 943 74.8567 -6905
v 943 75.0669 -6907
v 943 75.2825 -6909
v 943 75.4129 -6911
v 943 75.5552 -6913
v 943 75.8279 -6915
v 943 75.9226 -6917
v 943 76.0598 -6919
v 943 75.9343 -6921
v 943 76.0059 -6923
v 943 76.1405 -6925
v 943 76.3015 -6927
v 943 76.5445 -6929
v 945 75.8485 -6867
v 945 75.7982 -6869
v 945 75.3741 -6871
v 945 75.2558 -6873
v 945 75.0117 -6875
v 945 74.9471 -6877
v 945 74.7877 -6879
v 945 74.8787 -6881
v 945 74.6532 -6883
v 945 74.5112 -6885
v 945 74.3778 -6887
v 945 74.098 -6889
v 945 74.1781 -6891
v 945 74.4002 -6893
v 945 74.4431 -6895
v 945 74.4917 -6897
v 945 74.3954 -6899
v 945 74.3505 -6901
v 945 74.5662 -6903
v 945 74.6533 -6905
v 945 74.8687 -6907
v 945 74.9161 -6909
v 945 75.213 -6911
v 945 75.4013 -6913
v 945 75.6161 -6915
v 945 75.7368 -6917
v 945 75.8248 -6919
v 945 75.7493 -6921
v 945 75.8862 -6923
v 945 75.938 -6925
v 945 76.1196 -6927
v 945 76.3385 -6929
v 947 75.8571 -6867
v 947 75.537 -6869
v 947 75.3171 -6871
v 947 75.0825 -6873
v 947 74.942 -6875
v 947 74.8565 -6877
v 947 74.8795 -6879
v 947 74.7144 -6881
v 947 74.7213 -6883
v 947 74.4826 -6885
v 947 74.3547 -6887
v 947 74.1044 -6889
v 947 74.2609 -6891
v 947 74.1978 -6893
v 947 74.3521 -6895
v 947 74.296 -6897
v 947 74.3224 -6899
v 947 74.3298 -6901
v 947 74.4248 -6903
v 947 74.5 -6905
v 947 74.6723 -6907
v 947 74.8529 -6909
v 947 74.9092 -6911
v 947 75.2488 -6913
v 947 75.3942 -6915
v 947 75.5716 -6917
v 947 75.5286 -6919
v 947 75.5532 -6921
v 947 75.6984 -6923
v 947 75.7886 -6925
v 947 76.065 -6927
v 947 76.2927 -6929
v 949 75.5701 -6867
v 949 75.4401 -6869
v 949 75.2114 -6871
v 949 74.8913 -6873
v 949 74.7186 -6875
v 949 74.6483 -6877
v 949 74.74 -6879
v 949 74.7295 -6881
v 949 74.5599 -6883
v 949 74.5555 -6885
v 949 74.2488 -6887
v 949 74.3017 -6889
v 949 74.2353 -6891
v 949 74.2195 -6893
v 949 74.4054 -6895
v 949 74.4821 -6897
v 949 74.4327 -6899
v 949 74.4449 -6901
v 949 74.252 -6903
v 949 74.4659 -6905
v 949 74.417 -6907
v 949 74.6975 -6909
v 949 74.7621 -6911
v 949 74.9673 -6913
v 949 75.205 -6915
v 949 75.2663 -6917
v 949 75.3864 -6919
v 949 75.4178 -6921
v 949 75.4106 -6923
v 949 75.6618 -6925
v 949 75.7793 -6927
v 949 76.1333 -6929
v 951 75.5377 -6867
v 951 75.166 -6869
v 951 74.9389 -6871
v 951 74.9254 -6873
v 951 74.7281 -6875
v 951 74.6172 -6877
v 951 74.6354 -6879
v 951 74.6813 -6881
v 951 74.5772 -6883
v 951 74.4732 -6885
v 951 74.3826 -6887
v 951 74.3466 -6889
v 951 74.2923 -6891
v 951 74.3091 -6893
v 951 74.277 -6895
v 951 74.4068 -6897
v 951 74.2975 -6899
v 951 74.3185 -6901
v 951 74.3104 -6903
v 951 74.3051 -6905
v 951 74.3289 -6907
v 951 74.4338 -6909
v 951 74.6452 -6911
v 951 74.9312 -6913
v 951 75.1052 -6915
v 951 75.0602 -6917
v 951 75.2427 -6919
v 951 75.35 -6921
v 951 75.3846 -6923
v 951 75.4088 -6925
v 951 75.7185 -6927
v 951 76.0626 -6929
v 953 75.2446 -6867
v 953 75.0314 -6869
v 953 74.8424 -6871
v 953 74.6608 -6873
v 953 74.5173 -6875
v 953 74.4948 -6877
v 953 74.4973 -6879
v 953 74.4239 -6881
v 953 74.5457 -6883
v 953 74.469 -6885
v 953 74.4756 -6887
v 953 74.255 -6889
v 953 74.3939 -6891
v 953 74.4779 -6893
v 953 74.5171 -6895
v 953 74.4479 -6897
v 953 74.5081 -6899
v 953 74.3973 -6901
v 953 74.4931 -6903
v 953 74.4213 -6905
v 953 74.4077 -6907
v 953 74.3761 -6909
v 953 74.6463 -6911
v 953 74.6732 -6913
v 953 74.7855 -6915
v 953 74.9383 -6917
v 953 75.0398 -6919
v 953 75.0914 -6921
v 953 75.0704 -6923
v 953 75.333 -6925
v 953 75.5321 -6927
v 953 75.9711 -6929
v 955 74.927 -6867
v 955 74.9348 -6869
v 955 74.6243 -6871
v 955 74.6114 -6873
v 955 74.4555 -6875
v 955 74.4293 -6877
v 955 74.3562 -6879
v 955 74.218 -6881
v 955 74.4725 -6883
v 955 74.4867 -6885
v 955 74.4592 -6887
v 955 74.536 -6889
v 955 74.3604 -6891
v 955 74.4037 -6893
v 955 74.5115 -6895
v 955 74.6506 -6897
v 955 74.6855 -6899
v 955 74.6542 -6901
v 955 74.746 -6903
v 955 74.6491 -6905
v 955 74.554 -6907
v 955 74.6387 -6909
v 955 74.4773 -6911
v 955 74.4912 -6913
v 955 74.5745 -6915
v 955 74.6409 -6917
v 955 74.6153 -6919
v 955 74.8985 -6921
v 955 74.9356 -6923
v 955 75.1436 -6925
v 955 75.361 -6927
v 955 75.801 -6929
v 957 74.6764 -6867
v 957 74.6593 -6869
v 957 74.6846 -6871
v 957 74.539 -6873
v 957 74.3495 -6875
v 957 74.2518 -6877
v 957 74.2491 -6879
v 957 74.4282 -6881
v 957 74.3815 -6883
v 957 74.5373 -6885
v 957 74.5837 -6887
v 957 74.5202 -6889
v 957 74.3085 -6891
v 957 74.3179 -6893
v 957 74.4714 -6895
v 957 74.6542 -6897
v 957 74.672 -6899
v 957 74.8735 -6901
v 957 74.8199 -6903
v 957 74.7655 -6905
v 957 74.6495 -6907
v 957 74.8273 -6909
v 957 74.6641 -6911
v 957 74.6838 -6913
v 957 74.3982 -6915
v 957 74.3456 -6917
v 957 74.3038 -6919
v 957 74.7263 -6921
v 957 74.7592 -6923
v 957 74.9435 -6925
v 957 75.1007 -6927
v 957 75.5537 -6929
v 959 74.5875 -6867
v 959 74.5281 -6869
v 959 74.4188 -6871
v 959 74.4709 -6873
v 959 74.4087 -6875
v 959 74.4205 -6877
v 959 74.1698 -6879
v 959 74.2329 -6881
v 959 74.4516 -6883
v 959 74.5246 -6885
v 959 74.5551 -6887
v 959 74.5115 -6889
v 959 74.4215 -6891
v 959 74.3073 -6893
v 959 74.4604 -6895
v 959 74.5821 -6897
v 959 74.6925 -6899
v 959 74.9299 -6901
v 959 74.8562 -6903
v 959 74.7242 -6905
v 959 74.6792 -6907
v 959 74.8681 -6909
v 959 74.6938 -6911
v 959 74.7614 -6913
v 959 74.6536 -6915
v 959 74.4428 -6917
v 959 74.0995 -6919
v 959 74.3493 -6921
v 959 74.6204 -6923
v 959 74.7054 -6925
v 959 74.8982 -6927
v 959 75.1535 -6929
v 961 74.2644 -6867
v 961 74.2604 -6869
v 961 74.1797 -6871
v 961 74.1524 -6873
v 961 74.3031 -6875
v 961 74.1694 -6877
v 961 74.2336 -6879
v 961 74.2233 -6881
v 961 74.4055 -6883
v 961 74.4802 -6885
v 961 74.5169 -6887
v 961 74.2846 -6889
v 961 74.3365 -6891
v 961 74.3985 -6893
v 961 74.3585 -6895
v 961 74.6018 -6897
v 961 74.6521 -6899
v 961 74.7534 -6901
v 961 74.8542 -6903
v 961 74.8804 -6905
v 961 74.9248 -6907
v 961 74.9693 -6909
v 961 74.8584 -6911
v 961 74.827 -6913
v 961 74.7501 -6915
v 961 74.604 -6917
v 961 74.4684 -6919
v 961 74.2897 -6921
v 961 74.4363 -6923
v 961 74.6195 -6925
v 961 74.8535 -6927
v 961 75.0443 -6929
v 963 74.1495 -6867
v 963 74.1794 -6869
v 963 74.4149 -6871
v 963 74.35 -6873
v 963 74.4262 -6875
v 963 74.5141 -6877
v 963 74.6255 -6879
v 963 74.4174 -6881
v 963 74.4758 -6883
v 963 74.3949 -6885
v 963 74.3799 -6887
v 963 74.3408 -6889
v 963 74.403 -6891
v 963 74.323 -6893
v 963 74.4004 -6895
v 963 74.4838 -6897
v 963 74.7292 -6899
v 963 74.7171 -6901
v 963 74.8408 -6903
v 963 74.8944 -6905
v 963 74.9178 -6907
v 963 74.9956 -6909
v 963 75.1992 -6911
v 963 75.0285 -6913
v 963 74.9643 -6915
v 963 74.8947 -6917
v 963 74.7991 -6919
v 963 74.6047 -6921
v 963 74.3205 -6923
v 963 74.3926 -6925
v 963 74.5273 -6927
v 963 74.82 -6929
v 965 74.357 -6867
v 965 74.5273 -6869
v 965 74.4337 -6871
v 965 74.4882 -6873
v 965 74.6085 -6875
v 965 74.6914 -6877
v 965 74.5987 -6879
v 965 74.7149 -6881
v 965 74.5106 -6883
v 965 74.3497 -6885
v 965 74.1864 -6887
v 965 74.2772 -6889
v 965 74.2475 -6891
v 965 74.5087 -6893
v 965 74.5537 -6895
v 965 74.6165 -6897
v 965 74.7335 -6899
v 965 74.9756 -6901
v 965 74.8717 -6903
v 965 74.9849 -6905
v 965 75.0894 -6907
v 965 75.221 -6909
v 965 75.283 -6911
v 965 75.2063 -6913
v 965 75.1603 -6915
v 965 75.0096 -6917
v 965 74.9548 -6919
v 965 74.8821 -6921
v 965 74.6288 -6923
v 965 74.4387 -6925
v 965 74.3907 -6927
v 965 74.5406 -6929
v 967 74.6774 -6867
v 967 74.6068 -6869
v 967 74.7197 -6871
v 967 74.6732 -6873
v 967 74.6894 -6875
v 967 74.7453 -6877
v 967 74.7219 -6879
v 967 74.7619 -6881
v 967 74.5657 -6883
v 967 74.3749 -6885
v 967 74.0859 -6887
v 967 74.1368 -6889
v 967 74.4896 -6891
v 967 74.5496 -6893
v 967 74.769 -6895
v 967 74.8712 -6897
v 967 74.975 -6899
v 967 74.8998 -6901
v 967 75.0661 -6903
v 967 75.1417 -6905
v 967 75.2299 -6907
v 967 75.4043 -6909
v 967 75.5659 -6911
v 967 75.3934 -6913
v 967 75.3027 -6915
v 967 75.178 -6917
v 967 75.1287 -6919
v 967 74.9703 -6921
v 967 74.8451 -6923
v 967 74.6846 -6925
v 967 74.42 -6927
v 967 74.4389 -6929
v 969 74.9654 -6867
v 969 74.7983 -6869
v 969 74.8988 -6871
v 969 74.8078 -6873
v 969 74.916 -6875
v 969 74.73 -6877
v 969 74.7998 -6879
v 969 74.6209 -6881
v 969 74.4924 -6883
v 969 74.1556 -6885
v 969 74.1938 -6887
v 969 74.101 -6889
v 969 74.5533 -6891
v 969 74.649 -6893
v 969 74.8192 -6895
v 969 74.8918 -6897
v 969 75.2019 -6899
v 969 75.1622 -6901
v 969 75.3272 -6903
v 969 75.2067 -6905
v 969 75.3524 -6907
v 969 75.4568 -6909
v 969 75.659 -6911
v 969 75.4812 -6913
v 969 75.563 -6915
v 969 75.3668 -6917
v 969 75.2152 -6919
v 969 75.1826 -6921
v 969 75.2326 -6923
v 969 75.0554 -6925
v 969 74.7957 -6927
v 969 74.3652 -6929
v 971 75.1468 -6867
v 971 75.1453 -6869
v 971 75.2073 -6871
v 971 74.9437 -6873
v 971 74.9457 -6875
v 971 74.8729 -6877
v 971 74.8209 -6879
v 971 74.5679 -6881
v 971 74.471 -6883
v 971 74.3356 -6885
v 971 74.2236 -6887
v 971 74.1842 -6889
v 971 74.6548 -6891
v 971 74.809 -6893
v 971 74.986 -6895
v 971 75.1324 -6897
v 971 75.2752 -6899
v 971 75.2399 -6901
v 971 75.355 -6903
v 971 75.4445 -6905
v 971 75.5557 -6907
v 971 75.5015 -6909
v 971 75.7662 -6911
v 971 75.8041 -6913
v 971 75.5648 -6915
v 971 75.5068 -6917
v 971 75.4835 -6919
v 971 75.3907 -6921
v 971 75.3071 -6923
v 971 75.2536 -6925
v 971 74.9529 -6927
v 971 74.6968 -6929
v 973 75.4744 -6867
v 973 75.3554 -6869
v 973 75.2952 -6871
v 973 75.1325 -6873
v 973 75.0226 -6875
v 973 74.9653 -6877
v 973 74.7154 -6879
v 973 74.6603 -6881
v 973 74.6126 -6883
v 973 74.5028 -6885
v 973 74.3832 -6887
v 973 74.1437 -6889
v 973 74.4874 -6891
v 973 74.8601 -6893
v 973 75.0886 -6895
v 973 75.1967 -6897
v 973 75.3871 -6899
v 973 75.5281 -6901
v 973 75.4507 -6903
v 973 75.5151 -6905
v 973 75.5826 -6907
v 973 75.6857 -6909
v 973 75.8906 -6911
v 973 75.8827 -6913
v 973 75.8487 -6915
v 973 75.6872 -6917
v 973 75.64 -6919
v 973 75.5155 -6921
v 973 75.6292 -6923
v 973 75.4419 -6925
v 973 75.2448 -6927
v 973 75.0636 -6929
v 975 75.6065 -6867
v 975 75.4737 -6869
v 975 75.4219 -6871
v 975 75.2867 -6873
v 975 75.1258 -6875
v 975 75.033 -6877
v 975 74.9138 -6879
v 975 74.8196 -6881
v 975 74.7549 -6883
v 975 74.5567 -6885
v 975 74.4311 -6887
v 975 74.1554 -6889
v 975 74.5352 -6891
v 975 74.839 -6893
v 975 75.0661 -6895
v 975 75.1756 -6897
v 975 75.4246 -6899
v 975 75.3678 -6901
v 975 75.5055 -6903
v 975 75.5717 -6905
v 975 75.6969 -6907
v 975 75.9676 -6909
v 975 75.911 -6911
v 975 75.9752 -6913
v 975 75.9213 -6915
v 975 75.8228 -6917
v 975 75.7234 -6919
v 975 75.7822 -6921
v 975 75.7873 -6923
v 975 75.6628 -6925
v 975 75.4831 -6927
v 975 75.1667 -6929
v 977 75.6997 -6867
v 977 75.6793 -6869
v 977 75.4285 -6871
v 977 75.3905 -6873
v 977 75.1993 -6875
v 977 75.1493 -6877
v 977 75.0081 -6879
v 977 75.0511 -6881
v 977 74.9437 -6883
v 977 74.6988 -6885
v 977 74.4346 -6887
v 977 74.3083 -6889
v 977 74.4557 -6891
v 977 74.7441 -6893
v 977 75.0942 -6895
v 977 75.2479 -6897
v 977 75.2589 -6899
v 977 75.431 -6901
v 977 75.528 -6903
v 977 75.6548 -6905
v 977 75.7312 -6907
v 977 76.0406 -6909
v 977 75.9423 -6911
v 977 76.0824 -6913
v 977 75.9505 -6915
v 977 75.9168 -6917
v 977 75.8675 -6919
v 977 75.8149 -6921
v 977 75.9091 -6923
v 977 75.8224 -6925
v 977 75.6418 -6927
v 977 75.2589 -6929
v 979 76.0186 -6867
v 979 76.0086 -6869
v 979 75.6558 -6871
v 979 75.5866 -6873
v 979 75.4515 -6875
v 979 75.343 -6877
v 979 75.1594 -6879
v 979 75.1717 -6881
v 979 75.06 -6883
v 979 74.8281 -6885
v 979 74.5465 -6887
v 979 74.4143 -6889
v 979 74.3455 -6891
v 979 74.6929 -6893
v 979 74.9714 -6895
v 979 75.2832 -6897
v 979 75.263 -6899
v 979 75.4906 -6901
v 979 75.4956 -6903
v 979 75.6003 -6905
v 979 75.7683 -6907
v 979 76.1227 -6909
v 979 76.0637 -6911
v 979 76.0742 -6913
v 979 76.0673 -6915
v 979 76.0938 -6917
v 979 75.8806 -6919
v 979 75.925 -6921
v 979 75.8971 -6923
v 979 75.8112 -6925
v 979 75.6824 -6927
v 979 75.3258 -6929
v 981 76.121 -6867
v 981 76.1133 -6869
v 981 75.8965 -6871
v 981 75.7136 -6873
v 981 75.5317 -6875
v 981 75.5597 -6877
v 981 75.4661 -6879
v 981 75.3432 -6881
v 981 75.0927 -6883
v 981 74.9145 -6885
v 981 74.7613 -6887
v 981 74.488 -6889
v 981 74.2857 -6891
v 981 74.6617 -6893
v 981 75.0467 -6895
v 981 75.2093 -6897
v 981 75.3146 -6899
v 981 75.5211 -6901
v 981 75.6354 -6903
v 981 75.5886 -6905
v 981 75.7799 -6907
v 981 76.0343 -6909
v 981 76.1663 -6911
v 981 76.1299 -6913
v 981 76.1256 -6915
v 981 75.9969 -6917
v 981 75.9425 -6919
v 981 76.0563 -6921
v 981 76.1076 -6923
v 981 75.8708 -6925
v 981 75.6542 -6927
v 981 75.4892 -6929
v 983 76.4206 -6867
v 983 76.2434 -6869
v 983 76.2058 -6871
v 983 75.8896 -6873
v 983 75.7878 -6875
v 983 75.6678 -6877
v 983 75.6288 -6879
v 983 75.4583 -6881
v 983 75.3198 -6883
v 983 75.0428 -6885
v 983 74.793 -6887
v 983 74.5895 -6889
v 983 74.5526 -6891
v 983 74.6679 -6893
v 983 74.9928 -6895
v 983 75.1689 -6897
v 983 75.4336 -6899
v 983 75.3765 -6901
v 983 75.5684 -6903
v 983 75.7257 -6905
v 983 75.8568 -6907
v 983 75.9379 -6909
v 983 76.2779 -6911
v 983 76.1624 -6913
v 983 76.1826 -6915
v 983 76.1027 -6917
v 983 76.1777 -6919
v 983 75.9952 -6921
v 983 76.146 -6923
v 983 76.0468 -6925
v 983 75.8688 -6927
v 983 75.4346 -6929
v 985 76.4826 -6867
v 985 76.3975 -6869
v 985 76.4004 -6871
v 985 76.1325 -6873
v 985 76.0832 -6875
v 985 75.942 -6877
v 985 75.8517 -6879
v 985 75.6168 -6881
v 985 75.4396 -6883
v 985 75.1529 -6885
v 985 74.8829 -6887
v 985 74.8107 -6889
v 985 74.5092 -6891
v 985 74.6562 -6893
v 985 74.9559 -6895
v 985 75.1536 -6897
v 985 75.3976 -6899
v 985 75.4493 -6901
v 985 75.5274 -6903
v 985 75.6767 -6905
v 985 75.8166 -6907
v 985 76.0749 -6909
v 985 76.2285 -6911
v 985 76.2549 -6913
v 985 76.2469 -6915
v 985 76.2482 -6917
v 985 76.2203 -6919
v 985 76.0992 -6921
v 985 76.253 -6923
v 985 76.1134 -6925
v 985 75.9312 -6927
v 985 75.6277 -6929
v 987 76.6463 -6867
v 987 76.5903 -6869
v 987 76.3877 -6871
v 987 76.3689 -6873
v 987 76.3023 -6875
v 987 76.2663 -6877
v 987 75.9714 -6879
v 987 75.8315 -6881
v 987 75.4369 -6883
v 987 75.1936 -6885
v 987 74.9796 -6887
v 987 74.9476 -6889
v 987 74.5757 -6891
v 987 74.4633 -6893
v 987 74.7908 -6895
v 987 75.0274 -6897
v 987 75.2679 -6899
v 987 75.3407 -6901
v 987 75.4481 -6903
v 987 75.5898 -6905
v 987 75.7908 -6907
v 987 76.0904 -6909
v 987 76.1614 -6911
v 987 76.3521 -6913
v 987 76.2923 -6915
v 987 76.2514 -6917
v 987 76.227 -6919
v 987 76.2831 -6921
v 987 76.204 -6923
v 987 76.1387 -6925
v 987 75.9153 -6927
v 987 75.6853 -6929
v 989 76.6587 -6867
v 989 76.6678 -6869
v 989 76.6743 -6871
v 989 76.6617 -6873
v 989 76.6152 -6875
v 989 76.4133 -6877
v 989 76.2018 -6879
v 989 75.9192 -6881
v 989 75.5546 -6883
v 989 75.3785 -6885
v 989 75.1049 -6887
v 989 74.9163 -6889
v 989 74.6518 -6891
v 989 74.5505 -6893
v 989 74.7296 -6895
v 989 74.9618 -6897
v 989 75.0908 -6899
v 989 75.2194 -6901
v 989 75.5205 -6903
v 989 75.5563 -6905
v 989 75.7767 -6907
v 989 76.0229 -6909
v 989 76.1642 -6911
v 989 76.1687 -6913
v 989 76.1417 -6915
v 989 76.1794 -6917
v 989 76.1182 -6919
v 989 76.1858 -6921
v 989 76.1985 -6923
v 989 76.2012 -6925
v 989 76.0863 -6927
v 989 75.7914 -6929
f 11 10 9
f 10 11 12
f 13 12 11
f 31 30 28
f 28 30 29
f 28 29 27
f 28 27 26
f 12 13 14
f 14 13 17
f 13 18 17
f 13 19 18
f 22 23 21
f 24 23 22
f 25 23 24
f 22 21 20
f 15 34 14
f 14 16 15
f 14 17 16
f 14 34 4
f 18 19 33
f 6 7 8
f 7 6 5
f 32 30 31
f 19 2 33
f 3 5 6
f 5 3 1
f 35 4 34
f 33 2 36
f 35 36 4
f 4 36 2
f 4 2 3
f 3 2 1
f 57 56 55
f 56 57 58
f 58 57 84
f 84 57 85
f 84 85 83
f 56 59 55
f 60 61 59
f 60 59 56
f 84 83 82
f 82 83 81
f 66 65 64
f 67 65 66
f 87 67 66
f 87 66 86
f 73 82 81
f 60 39 61
f 64 63 62
f 64 65 63
f 88 87 86
f 67 54 65
f 87 54 67
f 63 65 54
f 87 89 54
f 88 89 87
f 40 39 60
f 82 73 74
f 63 52 62
f 76 89 88
f 63 54 53
f 63 53 52
f 78 54 89
f 78 89 76
f 74 73 71
f 71 73 72
f 38 39 40
f 48 51 54
f 53 54 51
f 48 54 49
f 49 54 80
f 77 80 54
f 77 54 78
f 53 51 52
f 52 51 50
f 77 78 76
f 77 76 75
f 39 38 37
f 50 51 48
f 79 77 75
f 79 80 77
f 50 48 46
f 71 72 70
f 71 70 69
f 42 41 38
f 38 41 37
f 48 47 46
f 48 49 47
f 47 80 79
f 49 80 47
f 69 70 68
f 44 69 68
f 69 44 45
f 45 44 42
f 42 44 43
f 42 43 41
f 216 217 218
f 217 216 215
f 195 194 193
f 318 321 320
f 339 340 338
f 339 338 337
f 307 309 331
f 331 309 330
f 331 330 329
f 207 206 205
f 208 206 207
f 209 206 208
f 237 217 215
f 208 211 209
f 209 211 210
f 338 350 337
f 308 307 306
f 308 309 307
f 348 318 392
f 379 378 377
f 225 279 194
f 257 256 255
f 304 302 318
f 348 304 318
f 319 321 318
f 302 319 318
f 194 223 225
f 223 194 197
f 196 197 194
f 196 194 195
f 223 226 225
f 226 227 225
f 348 344 304
f 348 349 344
f 243 242 241
f 244 242 243
f 367 366 365
f 367 368 366
f 198 223 197
f 196 198 197
f 303 319 302
f 304 303 302
f 344 349 346
f 369 368 367
f 368 369 371
f 224 226 223
f 224 223 198
f 229 227 226
f 245 242 244
f 253 245 244
f 305 303 304
f 304 344 305
f 238 217 237
f 338 351 350
f 239 217 238
f 338 352 351
f 253 254 245
f 371 369 370
f 303 316 319
f 199 198 196
f 224 198 200
f 200 198 199
f 317 316 303
f 305 317 303
f 305 342 317
f 305 344 342
f 347 344 346
f 523 522 521
f 382 381 380
f 383 381 382
f 188 224 200
f 188 226 224
f 229 226 228
f 268 267 266
f 263 262 261
f 240 217 239
f 524 522 523
f 338 353 352
f 263 264 262
f 276 275 274
f 272 271 270
f 273 271 272
f 265 264 263
f 525 522 524
f 387 385 386
f 390 389 388
f 391 389 390
f 187 226 188
f 230 226 187
f 230 231 226
f 226 231 228
f 342 344 341
f 347 345 344
f 344 345 343
f 341 344 343
f 269 267 268
f 317 315 316
f 342 315 317
f 200 199 186
f 188 200 186
f 386 385 384
f 236 217 240
f 354 353 338
f 188 186 187
f 342 341 315
f 531 530 529
f 516 515 514
f 249 250 252
f 252 250 251
f 372 364 363
f 372 373 364
f 531 532 530
f 357 297 356
f 357 332 297
f 220 235 234
f 220 234 233
f 520 236 519
f 277 275 276
f 517 515 516
f 186 199 202
f 316 315 313
f 518 515 517
f 531 533 532
f 358 332 357
f 528 527 526
f 187 186 185
f 186 202 185
f 315 341 314
f 313 315 314
f 187 185 201
f 230 187 201
f 248 249 247
f 250 249 248
f 363 361 362
f 364 361 363
f 311 341 343
f 341 311 314
f 230 201 278
f 343 393 311
f 248 247 246
f 362 361 360
f 376 375 374
f 260 259 258
f 220 233 232
f 356 297 355
f 355 297 298
f 326 328 327
f 220 232 219
f 191 190 189
f 236 235 220
f 334 332 358
f 334 358 359
f 325 328 326
f 191 192 190
f 185 202 201
f 313 314 311
f 313 311 312
f 312 311 310
f 324 323 322
f 325 323 324
f 201 204 203
f 202 204 201
f 214 192 213
f 214 213 212
f 326 323 325
f 190 192 214
f 221 220 219
f 299 300 298
f 299 298 297
f 291 290 289
f 292 290 291
f 295 294 293
f 296 294 295
f 287 288 286
f 334 333 332
f 287 286 285
f 335 333 334
f 221 222 220
f 408 407 406
f 409 407 408
f 409 410 407
f 301 300 299
f 336 333 335
f 284 283 282
f 282 281 280
f 282 283 281
f 414 412 413
f 415 412 414
f 426 425 424
f 438 437 436
f 438 439 437
f 440 439 438
f 448 449 447
f 448 450 449
f 427 425 426
f 121 122 123
f 101 99 100
f 100 99 98
f 122 121 120
f 112 111 110
f 113 111 112
f 114 111 113
f 396 395 394
f 396 397 395
f 448 447 446
f 404 403 402
f 413 412 411
f 405 403 404
f 472 447 468
f 447 472 446
f 142 122 120
f 143 122 142
f 144 122 143
f 145 122 144
f 141 122 145
f 401 399 400
f 446 472 471
f 400 399 398
f 446 471 411
f 429 430 427
f 429 427 428
f 428 427 426
f 104 103 101
f 101 103 102
f 101 102 99
f 411 471 470
f 411 470 469
f 411 469 413
f 442 439 440
f 442 440 441
f 113 116 114
f 114 116 115
f 162 161 160
f 130 184 99
f 489 488 487
f 506 457 426
f 128 99 102
f 99 128 130
f 426 455 428
f 455 426 457
f 103 128 102
f 455 429 428
f 475 474 473
f 148 147 146
f 540 468 539
f 468 453 467
f 513 141 512
f 141 140 125
f 544 542 543
f 545 542 544
f 503 502 501
f 504 502 503
f 168 169 167
f 170 169 168
f 181 180 179
f 182 180 181
f 475 476 474
f 477 476 475
f 149 147 148
f 150 147 149
f 486 476 477
f 486 477 485
f 158 150 149
f 158 159 150
f 128 131 130
f 131 132 130
f 458 455 457
f 459 458 457
f 168 167 166
f 173 172 171
f 174 172 173
f 177 176 175
f 543 542 541
f 499 498 497
f 495 494 493
f 496 494 495
f 134 132 131
f 456 455 458
f 456 429 455
f 129 128 103
f 129 131 128
f 460 458 459
f 431 430 429
f 429 456 431
f 129 103 105
f 105 103 104
f 178 176 177
f 500 498 499
f 430 418 433
f 431 418 430
f 91 104 107
f 105 104 91
f 467 453 466
f 536 537 535
f 536 538 537
f 510 508 509
f 511 508 510
f 125 140 139
f 93 131 129
f 93 129 105
f 134 131 133
f 461 458 460
f 456 419 431
f 458 419 456
f 509 508 507
f 125 139 138
f 125 138 137
f 125 137 124
f 126 125 124
f 126 127 125
f 453 454 452
f 453 452 451
f 464 453 451
f 465 453 464
f 466 453 465
f 536 535 534
f 93 105 91
f 431 419 418
f 463 458 461
f 462 458 463
f 417 458 462
f 417 419 458
f 92 131 93
f 131 136 133
f 135 136 131
f 135 131 92
f 157 155 156
f 482 484 483
f 419 417 418
f 481 484 482
f 93 91 92
f 154 155 157
f 433 418 416
f 418 417 416
f 91 107 90
f 92 91 90
f 90 107 106
f 107 109 106
f 433 432 435
f 433 416 432
f 481 482 479
f 155 154 153
f 480 479 478
f 481 479 480
f 422 421 420
f 153 154 152
f 153 152 151
f 96 95 94
f 492 491 490
f 96 97 95
f 423 421 422
f 165 164 163
f 417 462 432
f 416 417 432
f 135 92 106
f 92 90 106
f 106 109 108
f 435 432 434
f 432 462 505
f 135 106 183
f 445 444 443
f 423 444 445
f 119 118 117
f 119 97 118
f 95 97 119
f 422 444 423
f 547 555 554
f 548 547 546
f 555 547 556
f 551 547 548
f 556 547 553
f 550 547 551
f 553 547 552
f 547 550 549
f 563 547 562
f 566 547 563
f 565 547 566
f 547 565 564
f 558 547 557
f 561 547 558
f 560 547 561
f 547 560 559
f 1027 1070 1067
f 1067 1066 1027
f 1020 1019 1018
f 1021 1019 1020
f 1022 1021 1020
f 1027 1066 1026
f 1018 1017 1016
f 1019 1017 1018
f 1027 1068 1070
f 1024 1023 1022
f 1023 1021 1022
f 1028 1027 1026
f 1016 1015 1014
f 1017 1015 1016
f 1027 1069 1068
f 1025 1023 1024
f 1008 1025 1024
f 1028 1029 1027
f 1029 1069 1027
f 1014 1013 1012
f 1015 1013 1014
f 1065 1062 1063
f 1060 1063 1062
f 1063 1060 1061
f 1042 1045 1044
f 1045 1046 1044
f 1045 1042 1043
f 1047 1046 1045
f 1058 1061 1060
f 1061 1058 1059
f 1040 1043 1042
f 1009 1025 1008
f 1010 1009 1008
f 1043 1040 1041
f 1011 1009 1010
f 1033 1046 1047
f 871 870 869
f 872 870 871
f 855 872 871
f 874 898 897
f 874 897 899
f 1051 1064 1065
f 1062 1065 1064
f 1046 1033 1032
f 1041 1036 1037
f 1036 1041 1040
f 869 868 867
f 870 868 869
f 874 899 895
f 1054 1059 1058
f 1059 1054 1055
f 1031 1032 1033
f 856 872 855
f 857 856 855
f 876 898 874
f 1037 1038 1039
f 1038 1037 1036
f 872 885 870
f 877 885 872
f 856 877 872
f 870 884 868
f 885 884 870
f 1032 1031 1030
f 1035 1030 1031
f 1030 1035 1034
f 1064 1051 1050
f 1049 1050 1051
f 878 877 856
f 858 878 856
f 858 856 857
f 896 874 895
f 867 866 865
f 868 866 867
f 1056 1055 1054
f 1055 1056 1057
f 896 873 874
f 875 874 873
f 875 876 874
f 861 860 859
f 884 883 868
f 868 883 866
f 878 886 877
f 877 894 885
f 886 894 877
f 1053 1048 1049
f 1050 1049 1048
f 885 893 884
f 894 893 885
f 1048 1053 1052
f 862 860 861
f 879 878 858
f 862 880 860
f 887 886 878
f 879 887 878
f 865 864 863
f 866 864 865
f 884 892 883
f 893 892 884
f 881 880 862
f 888 887 879
f 881 889 880
f 866 882 864
f 883 882 866
f 863 862 861
f 883 891 882
f 892 891 883
f 864 881 862
f 864 862 863
f 882 881 864
f 890 889 881
f 882 890 881
f 891 890 882
f 671 670 669
f 672 670 671
f 673 672 671
f 676 699 701
f 676 701 697
f 579 578 577
f 580 578 579
f 581 580 579
f 608 586 607
f 586 611 607
f 674 672 673
f 657 674 673
f 676 700 699
f 577 576 575
f 578 576 577
f 608 585 586
f 582 580 581
f 580 595 578
f 596 595 580
f 582 596 580
f 578 594 576
f 595 594 578
f 672 686 670
f 687 686 672
f 674 687 672
f 679 687 674
f 658 679 674
f 658 674 657
f 680 679 658
f 680 689 679
f 696 679 689
f 679 696 687
f 695 687 696
f 687 695 686
f 597 596 582
f 597 605 596
f 604 596 605
f 596 604 595
f 603 595 604
f 595 603 594
f 575 574 573
f 576 574 575
f 583 582 581
f 587 586 585
f 586 609 611
f 669 668 667
f 670 668 669
f 659 658 657
f 698 676 697
f 678 700 676
f 686 685 670
f 670 685 668
f 576 593 574
f 594 593 576
f 660 680 658
f 660 658 659
f 584 582 583
f 584 597 582
f 689 680 688
f 681 680 660
f 681 688 680
f 601 594 603
f 594 601 593
f 686 694 685
f 694 686 695
f 589 606 597
f 605 597 606
f 589 597 584
f 688 681 690
f 606 589 599
f 698 675 676
f 677 676 675
f 677 678 676
f 587 588 586
f 588 610 586
f 586 610 609
f 683 692 682
f 692 683 691
f 693 685 694
f 602 593 601
f 590 599 589
f 599 590 598
f 593 602 592
f 598 591 600
f 691 684 693
f 685 693 684
f 591 598 590
f 684 691 683
f 568 589 584
f 590 589 568
f 664 682 662
f 683 682 664
f 593 592 574
f 685 684 668
f 663 662 661
f 664 662 663
f 668 666 667
f 668 684 666
f 567 584 583
f 568 584 567
f 574 572 573
f 574 592 572
f 667 666 665
f 573 572 571
f 834 833 832
f 833 834 835
f 848 835 834
f 832 837 836
f 837 832 833
f 830 817 816
f 815 816 817
f 816 815 814
f 835 848 849
f 819 814 815
f 814 819 818
f 755 754 753
f 753 752 751
f 754 752 753
f 767 766 765
f 767 768 766
f 749 748 747
f 750 748 749
f 768 790 766
f 792 809 808
f 793 809 792
f 794 793 792
f 811 853 852
f 813 853 811
f 808 807 806
f 809 807 808
f 811 852 854
f 754 772 752
f 750 770 748
f 771 770 750
f 756 773 754
f 756 754 755
f 773 772 754
f 684 683 666
f 591 590 570
f 666 683 664
f 570 590 568
f 795 793 794
f 817 830 831
f 840 839 838
f 839 840 841
f 846 849 848
f 821 822 823
f 822 821 820
f 829 830 828
f 831 830 829
f 849 846 847
f 747 764 763
f 748 764 747
f 766 790 789
f 757 756 755
f 788 765 766
f 806 805 804
f 807 805 806
f 811 854 851
f 798 797 796
f 812 813 811
f 773 781 772
f 771 779 770
f 780 779 771
f 774 773 756
f 782 781 773
f 774 782 773
f 783 782 774
f 758 756 757
f 758 774 756
f 748 769 764
f 770 769 748
f 799 797 798
f 666 664 665
f 665 664 663
f 570 568 569
f 569 568 567
f 775 783 774
f 775 774 758
f 770 778 769
f 779 778 770
f 784 783 775
f 811 850 810
f 851 850 811
f 812 811 810
f 788 766 787
f 766 789 791
f 766 791 787
f 620 619 618
f 618 617 616
f 619 617 618
f 632 631 630
f 632 633 631
f 708 707 706
f 704 703 702
f 705 703 704
f 722 723 721
f 723 745 721
f 622 621 620
f 621 619 620
f 653 630 631
f 702 719 718
f 703 719 702
f 721 745 744
f 778 786 769
f 776 784 775
f 785 784 776
f 776 775 760
f 760 775 758
f 769 777 764
f 769 786 777
f 703 724 719
f 725 724 703
f 705 725 703
f 709 707 708
f 709 727 707
f 726 725 705
f 621 638 619
f 619 637 617
f 638 637 619
f 623 621 622
f 623 639 621
f 639 638 621
f 805 803 804
f 829 826 827
f 826 829 828
f 800 799 798
f 801 799 800
f 825 820 821
f 764 777 762
f 764 762 763
f 759 758 757
f 760 758 759
f 777 785 776
f 786 785 777
f 762 776 760
f 777 776 762
f 763 762 761
f 804 803 802
f 844 847 846
f 847 844 845
f 820 825 824
f 843 838 839
f 838 843 842
f 802 801 800
f 803 801 802
f 827 824 825
f 824 827 826
f 638 647 637
f 647 638 646
f 639 646 638
f 725 734 724
f 734 725 733
f 726 733 725
f 728 727 709
f 728 737 727
f 733 726 735
f 646 639 648
f 640 648 639
f 640 639 623
f 762 760 761
f 761 760 759
f 842 845 844
f 845 842 843
f 614 613 612
f 615 613 614
f 633 655 631
f 624 623 622
f 653 631 652
f 710 709 708
f 718 717 716
f 719 717 718
f 722 721 720
f 721 744 746
f 711 728 709
f 711 709 710
f 719 732 717
f 724 732 719
f 625 640 623
f 625 623 624
f 615 635 613
f 636 635 615
f 648 640 649
f 641 649 640
f 641 640 625
f 729 728 711
f 737 728 736
f 729 736 728
f 741 724 734
f 724 741 732
f 636 643 635
f 643 636 645
f 736 729 738
f 649 641 650
f 743 721 742
f 743 720 721
f 721 746 742
f 631 655 654
f 631 654 656
f 631 656 652
f 650 642 651
f 642 650 641
f 730 738 729
f 738 730 739
f 740 732 741
f 644 635 643
f 731 739 730
f 732 740 731
f 739 731 740
f 635 644 634
f 651 634 644
f 634 651 642
f 732 731 717
f 713 729 711
f 730 729 713
f 627 641 625
f 642 641 627
f 635 634 613
f 712 711 710
f 713 711 712
f 613 634 629
f 613 629 612
f 717 731 715
f 717 715 716
f 626 625 624
f 627 625 626
f 612 629 628
f 716 715 714
f 731 730 715
f 715 730 713
f 629 642 627
f 634 642 629
f 628 627 626
f 629 627 628
f 714 713 712
f 715 713 714
f 937 936 928
f 929 937 928
f 938 937 929
f 930 938 929
f 939 938 930
f 991 996 995
f 996 991 992
f 993 992 991
f 936 935 927
f 928 936 927
f 995 998 997
f 998 995 996
f 912 911 910
f 911 909 910
f 911 927 909
f 928 927 911
f 913 928 911
f 913 911 912
f 922 939 930
f 931 939 922
f 929 928 913
f 915 929 913
f 930 929 915
f 927 935 926
f 935 934 926
f 910 909 908
f 941 919 940
f 941 918 919
f 914 913 912
f 915 913 914
f 927 926 909
f 923 931 922
f 932 931 923
f 985 990 989
f 992 993 994
f 919 944 940
f 909 926 907
f 909 907 908
f 917 930 915
f 922 930 917
f 926 934 925
f 933 932 924
f 924 932 923
f 926 925 907
f 997 1000 999
f 1000 997 998
f 908 907 906
f 920 919 918
f 901 922 917
f 923 922 901
f 916 915 914
f 917 915 916
f 975 974 973
f 978 973 974
f 973 978 977
f 907 925 905
f 924 923 903
f 980 977 978
f 977 980 979
f 903 923 901
f 907 905 906
f 919 942 944
f 920 921 919
f 921 943 919
f 919 943 942
f 990 985 986
f 987 986 985
f 974 975 976
f 967 972 971
f 999 1002 1001
f 1002 999 1000
f 906 905 904
f 900 917 916
f 901 917 900
f 982 979 980
f 979 982 981
f 952 950 951
f 953 952 951
f 954 952 953
f 955 954 953
f 956 954 955
f 903 901 902
f 986 987 988
f 1001 988 987
f 902 901 900
f 972 967 968
f 948 946 947
f 951 950 949
f 988 1001 1002
f 957 956 955
f 958 956 957
f 969 968 967
f 947 946 945
f 946 962 945
f 968 969 970
f 982 983 981
f 959 958 957
f 960 958 959
f 984 983 982
f 965 966 964
f 965 964 963
f 964 1003 963
f 962 960 961
f 945 962 961
f 970 983 984
f 983 970 969
f 961 960 959
f 966 1006 964
f 1004 1003 964
f 964 1007 1004
f 964 1005 1007
f 964 1006 1005
f 1111 1108 1107
f 1112 1108 1111
f 1124 1130 1129
f 1124 1129 1123
f 1108 1105 1107
f 1125 1124 1123
f 1126 1124 1125
f 1128 1126 1125
f 1128 1125 1127
f 1105 1104 1103
f 1106 1104 1105
f 1108 1106 1105
f 1071 1078 1077
f 1091 1090 1089
f 1092 1090 1091
f 1072 1078 1071
f 1073 1072 1071
f 1089 1088 1087
f 1089 1090 1088
f 1073 1074 1072
f 1104 1109 1103
f 1131 1128 1127
f 1104 1110 1109
f 1132 1128 1131
f 1087 1094 1093
f 1088 1094 1087
f 1075 1074 1073
f 1076 1074 1075
f 1114 1120 1119
f 1141 1138 1137
f 1142 1138 1141
f 1083 1082 1081
f 1084 1082 1083
f 1095 1102 1101
f 1096 1102 1095
f 1114 1119 1113
f 1097 1096 1095
f 1097 1098 1096
f 1081 1082 1080
f 1081 1080 1079
f 1138 1136 1135
f 1138 1135 1137
f 1115 1114 1113
f 1116 1114 1115
f 1080 1086 1079
f 1099 1098 1097
f 1100 1098 1099
f 1136 1134 1135
f 1118 1116 1115
f 1079 1086 1085
f 1134 1140 1139
f 1134 1139 1133
f 1135 1134 1133
f 1118 1115 1117
f 1121 1118 1117
f 1122 1118 1121
f 1176 1144 1143
f 1143 1175 1176
f 1208 1176 1175
f 1175 1207 1208
f 1240 1208 1207
f 1207 1239 1240
f 1272 1240 1239
f 1239 1271 1272
f 1304 1272 1271
f 1271 1303 1304
f 1336 1304 1303
f 1303 1335 1336
f 1368 1336 1335
f 1335 1367 1368
f 1400 1368 1367
f 1367 1399 1400
f 1432 1400 1399
f 1399 1431 1432
f 1464 1432 1431
f 1431 1463 1464
f 1496 1464 1463
f 1463 1495 1496
f 1528 1496 1495
f 1495 1527 1528
f 1560 1528 1527
f 1527 1559 1560
f 1592 1560 1559
f 1559 1591 1592
f 1624 1592 1591
f 1591 1623 1624
f 1656 1624 1623
f 1623 1655 1656
f 1688 1656 1655
f 1655 1687 1688
f 1720 1688 1687
f 1687 1719 1720
f 1752 1720 1719
f 1719 1751 1752
f 1784 1752 1751
f 1751 1783 1784
f 1816 1784 1783
f 1783 1815 1816
f 1848 1816 1815
f 1815 1847 1848
f 1880 1848 1847
f 1847 1879 1880
f 1912 1880 1879
f 1879 1911 1912
f 1944 1912 1911
f 1911 1943 1944
f 1976 1944 1943
f 1943 1975 1976
f 2008 1976 1975
f 1975 2007 2008
f 2040 2008 2007
f 2007 2039 2040
f 2072 2040 2039
f 2039 2071 2072
f 2104 2072 2071
f 2071 2103 2104
f 2136 2104 2103
f 2103 2135 2136
f 1177 1145 1144
f 1144 1176 1177
f 1209 1177 1176
f 1176 1208 1209
f 1241 1209 1208
f 1208 1240 1241
f 1273 1241 1240
f 1240 1272 1273
f 1305 1273 1272
f 1272 1304 1305
f 1337 1305 1304
f 1304 1336 1337
f 1369 1337 1336
f 1336 1368 1369
f 1401 1369 1368
f 1368 1400 1401
f 1433 1401 1400
f 1400 1432 1433
f 1465 1433 1432
f 1432 1464 1465
f 1497 1465 1464
f 1464 1496 1497
f 1529 1497 1496
f 1496 1528 1529
f 1561 1529 1528
f 1528 1560 1561
f 1593 1561 1560
f 1560 1592 1593
f 1625 1593 1592
f 1592 1624 1625
f 1657 1625 1624
f 1624 1656 1657
f 1689 1657 1656
f 1656 1688 1689
f 1721 1689 1688
f 1688 1720 1721
f 1753 1721 1720
f 1720 1752 1753
f 1785 1753 1752
f 1752 1784 1785
f 1817 1785 1784
f 1784 1816 1817
f 1849 1817 1816
f 1816 1848 1849
f 1881 1849 1848
f 1848 1880 1881
f 1913 1881 1880
f 1880 1912 1913
f 1945 1913 1912
f 1912 1944 1945
f 1977 1945 1944
f 1944 1976 1977
f 2009 1977 1976
f 1976 2008 2009
f 2041 2009 2008
f 2008 2040 2041
f 2073 2041 2040
f 2040 2072 2073
f 2105 2073 2072
f 2072 2104 2105
f 2137 2105 2104
f 2104 2136 2137
f 1178 1146 1145
f 1145 1177 1178
f 1210 1178 1177
f 1177 1209 1210
f 1242 1210 1209
f 1209 1241 1242
f 1274 1242 1241
f 1241 1273 1274
f 1306 1274 1273
f 1273 1305 1306
f 1338 1306 1305
f 1305 1337 1338
f 1370 1338 1337
f 1337 1369 1370
f 1402 1370 1369
f 1369 1401 1402
f 1434 1402 1401
f 1401 1433 1434
f 1466 1434 1433
f 1433 1465 1466
f 1498 1466 1465
f 1465 1497 1498
f 1530 1498 1497
f 1497 1529 1530
f 1562 1530 1529
f 1529 1561 1562
f 1594 1562 1561
f 1561 1593 1594
f 1626 1594 1593
f 1593 1625 1626
f 1658 1626 1625
f 1625 1657 1658
f 1690 1658 1657
f 1657 1689 1690
f 1722 1690 1689
f 1689 1721 1722
f 1754 1722 1721
f 1721 1753 1754
f 1786 1754 1753
f 1753 1785 1786
f 1818 1786 1785
f 1785 1817 1818
f 1850 1818 1817
f 1817 1849 1850
f 1882 1850 1849
f 1849 1881 1882
f 1914 1882 1881
f 1881 1913 1914
f 1946 1914 1913
f 1913 1945 1946
f 1978 1946 1945
f 1945 1977 1978
f 2010 1978 1977
f 1977 2009 2010
f 2042 2010 2009
f 2009 2041 2042
f 2074 2042 2041
f 2041 2073 2074
f 2106 2074 2073
f 2073 2105 2106
f 2138 2106 2105
f 2105 2137 2138
f 1179 1147 1146
f 1146 1178 1179
f 1211 1179 1178
f 1178 1210 1211
f 1243 1211 1210
f 1210 1242 1243
f 1275 1243 1242
f 1242 1274 1275
f 1307 1275 1274
f 1274 1306 1307
f 1339 1307 1306
f 1306 1338 1339
f 1371 1339 1338
f 1338 1370 1371
f 1403 1371 1370
f 1370 1402 1403
f 1435 1403 1402
f 1402 1434 1435
f 1467 1435 1434
f 1434 1466 1467
f 1499 1467 1466
f 1466 1498 1499
f 1531 1499 1498
f 1498 1530 1531
f 1563 1531 1530
f 1530 1562 1563
f 1595 1563 1562
f 1562 1594 1595
f 1627 1595 1594
f 1594 1626 1627
f 1659 1627 1626
f 1626 1658 1659
f 1691 1659 1658
f 1658 1690 1691
f 1723 1691 1690
f 1690 1722 1723
f 1755 1723 1722
f 1722 1754 1755
f 1787 1755 1754
f 1754 1786 1787
f 1819 1787 1786
f 1786 1818 1819
f 1851 1819 1818
f 1818 1850 1851
f 1883 1851 1850
f 1850 1882 1883
f 1915 1883 1882
f 1882 1914 1915
f 1947 1915 1914
f 1914 1946 1947
f 1979 1947 1946
f 1946 1978 1979
f 2011 1979 1978
f 1978 2010 2011
f 2043 2011 2010
f 2010 2042 2043
f 2075 2043 2042
f 2042 2074 2075
f 2107 2075 2074
f 2074 2106 2107
f 2139 2107 2106
f 2106 2138 2139
f 1180 1148 1147
f 1147 1179 1180
f 1212 1180 1179
f 1179 1211 1212
f 1244 1212 1211
f 1211 1243 1244
f 1276 1244 1243
f 1243 1275 1276
f 1308 1276 1275
f 1275 1307 1308
f 1340 1308 1307
f 1307 1339 1340
f 1372 1340 1339
f 1339 1371 1372
f 1404 1372 1371
f 1371 1403 1404
f 1436 1404 1403
f 1403 1435 1436
f 1468 1436 1435
f 1435 1467 1468
f 1500 1468 1467
f 1467 1499 1500
f 1532 1500 1499
f 1499 1531 1532
f 1564 1532 1531
f 1531 1563 1564
f 1596 1564 1563
f 1563 1595 1596
f 1628 1596 1595
f 1595 1627 1628
f 1660 1628 1627
f 1627 1659 1660
f 1692 1660 1659
f 1659 1691 1692
f 1724 1692 1691
f 1691 1723 1724
f 1756 1724 1723
f 1723 1755 1756
f 1788 1756 1755
f 1755 1787 1788
f 1820 1788 1787
f 1787 1819 1820
f 1852 1820 1819
f 1819 1851 1852
f 1884 1852 1851
f 1851 1883 1884
f 1916 1884 1883
f 1883 1915 1916
f 1948 1916 1915
f 1915 1947 1948
f 1980 1948 1947
f 1947 1979 1980
f 2012 1980 1979
f 1979 2011 2012
f 2044 2012 2011
f 2011 2043 2044
f 2076 2044 2043
f 2043 2075 2076
f 2108 2076 2075
f 2075 2107 2108
f 2140 2108 2107
f 2107 2139 2140
f 1181 1149 1148
f 1148 1180 1181
f 1213 1181 1180
f 1180 1212 1213
f 1245 1213 1212
f 1212 1244 1245
f 1277 1245 1244
f 1244 1276 1277
f 1309 1277 1276
f 1276 1308 1309
f 1341 1309 1308
f 1308 1340 1341
f 1373 1341 1340
f 1340 1372 1373
f 1405 1373 1372
f 1372 1404 1405
f 1437 1405 1404
f 1404 1436 1437
f 1469 1437 1436
f 1436 1468 1469
f 1501 1469 1468
f 1468 1500 1501
f 1533 1501 1500
f 1500 1532 1533
f 1565 1533 1532
f 1532 1564 1565
f 1597 1565 1564
f 1564 1596 1597
f 1629 1597 1596
f 1596 1628 1629
f 1661 1629 1628
f 1628 1660 1661
f 1693 1661 1660
f 1660 1692 1693
f 1725 1693 1692
f 1692 1724 1725
f 1757 1725 1724
f 1724 1756 1757
f 1789 1757 1756
f 1756 1788 1789
f 1821 1789 1788
f 1788 1820 1821
f 1853 1821 1820
f 1820 1852 1853
f 1885 1853 1852
f 1852 1884 1885
f 1917 1885 1884
f 1884 1916 1917
f 1949 1917 1916
f 1916 1948 1949
f 1981 1949 1948
f 1948 1980 1981
f 2013 1981 1980
f 1980 2012 2013
f 2045 2013 2012
f 2012 2044 2045
f 2077 2045 2044
f 2044 2076 2077
f 2109 2077 2076
f 2076 2108 2109
f 2141 2109 2108
f 2108 2140 2141
f 1182 1150 1149
f 1149 1181 1182
f 1214 1182 1181
f 1181 1213 1214
f 1246 1214 1213
f 1213 1245 1246
f 1278 1246 1245
f 1245 1277 1278
f 1310 1278 1277
f 1277 1309 1310
f 1342 1310 1309
f 1309 1341 1342
f 1374 1342 1341
f 1341 1373 1374
f 1406 1374 1373
f 1373 1405 1406
f 1438 1406 1405
f 1405 1437 1438
f 1470 1438 1437
f 1437 1469 1470
f 1502 1470 1469
f 1469 1501 1502
f 1534 1502 1501
f 1501 1533 1534
f 1566 1534 1533
f 1533 1565 1566
f 1598 1566 1565
f 1565 1597 1598
f 1630 1598 1597
f 1597 1629 1630
f 1662 1630 1629
f 1629 1661 1662
f 1694 1662 1661
f 1661 1693 1694
f 1726 1694 1693
f 1693 1725 1726
f 1758 1726 1725
f 1725 1757 1758
f 1790 1758 1757
f 1757 1789 1790
f 1822 1790 1789
f 1789 1821 1822
f 1854 1822 1821
f 1821 1853 1854
f 1886 1854 1853
f 1853 1885 1886
f 1918 1886 1885
f 1885 1917 1918
f 1950 1918 1917
f 1917 1949 1950
f 1982 1950 1949
f 1949 1981 1982
f 2014 1982 1981
f 1981 2013 2014
f 2046 2014 2013
f 2013 2045 2046
f 2078 2046 2045
f 2045 2077 2078
f 2110 2078 2077
f 2077 2109 2110
f 2142 2110 2109
f 2109 2141 2142
f 1183 1151 1150
f 1150 1182 1183
f 1215 1183 1182
f 1182 1214 1215
f 1247 1215 1214
f 1214 1246 1247
f 1279 1247 1246
f 1246 1278 1279
f 1311 1279 1278
f 1278 1310 1311
f 1343 1311 1310
f 1310 1342 1343
f 1375 1343 1342
f 1342 1374 1375
f 1407 1375 1374
f 1374 1406 1407
f 1439 1407 1406
f 1406 1438 1439
f 1471 1439 1438
f 1438 1470 1471
f 1503 1471 1470
f 1470 1502 1503
f 1535 1503 1502
f 1502 1534 1535
f 1567 1535 1534
f 1534 1566 1567
f 1599 1567 1566
f 1566 1598 1599
f 1631 1599 1598
f 1598 1630 1631
f 1663 1631 1630
f 1630 1662 1663
f 1695 1663 1662
f 1662 1694 1695
f 1727 1695 1694
f 1694 1726 1727
f 1759 1727 1726
f 1726 1758 1759
f 1791 1759 1758
f 1758 1790 1791
f 1823 1791 1790
f 1790 1822 1823
f 1855 1823 1822
f 1822 1854 1855
f 1887 1855 1854
f 1854 1886 1887
f 1919 1887 1886
f 1886 1918 1919
f 1951 1919 1918
f 1918 1950 1951
f 1983 1951 1950
f 1950 1982 1983
f 2015 1983 1982
f 1982 2014 2015
f 2047 2015 2014
f 2014 2046 2047
f 2079 2047 2046
f 2046 2078 2079
f 2111 2079 2078
f 2078 2110 2111
f 2143 2111 2110
f 2110 2142 2143
f 1184 1152 1151
f 1151 1183 1184
f 1216 1184 1183
f 1183 1215 1216
f 1248 1216 1215
f 1215 1247 1248
f 1280 1248 1247
f 1247 1279 1280
f 1312 1280 1279
f 1279 1311 1312
f 1344 1312 1311
f 1311 1343 1344
f 1376 1344 1343
f 1343 1375 1376
f 1408 1376 1375
f 1375 1407 1408
f 1440 1408 1407
f 1407 1439 1440
f 1472 1440 1439
f 1439 1471 1472
f 1504 1472 1471
f 1471 1503 1504
f 1536 1504 1503
f 1503 1535 1536
f 1568 1536 1535
f 1535 1567 1568
f 1600 1568 1567
f 1567 1599 1600
f 1632 1600 1599
f 1599 1631 1632
f 1664 1632 1631
f 1631 1663 1664
f 1696 1664 1663
f 1663 1695 1696
f 1728 1696 1695
f 1695 1727 1728
f 1760 1728 1727
f 1727 1759 1760
f 1792 1760 1759
f 1759 1791 1792
f 1824 1792 1791
f 1791 1823 1824
f 1856 1824 1823
f 1823 1855 1856
f 1888 1856 1855
f 1855 1887 1888
f 1920 1888 1887
f 1887 1919 1920
f 1952 1920 1919
f 1919 1951 1952
f 1984 1952 1951
f 1951 1983 1984
f 2016 1984 1983
f 1983 2015 2016
f 2048 2016 2015
f 2015 2047 2048
f 2080 2048 2047
f 2047 2079 2080
f 2112 2080 2079
f 2079 2111 2112
f 2144 2112 2111
f 2111 2143 2144
f 1185 1153 1152
f 1152 1184 1185
f 1217 1185 1184
f 1184 1216 1217
f 1249 1217 1216
f 1216 1248 1249
f 1281 1249 1248
f 1248 1280 1281
f 1313 1281 1280
f 1280 1312 1313
f 1345 1313 1312
f 1312 1344 1345
f 1377 1345 1344
f 1344 1376 1377
f 1409 1377 1376
f 1376 1408 1409
f 1441 1409 1408
f 1408 1440 1441
f 1473 1441 1440
f 1440 1472 1473
f 1505 1473 1472
f 1472 1504 1505
f 1537 1505 1504
f 1504 1536 1537
f 1569 1537 1536
f 1536 1568 1569
f 1601 1569 1568
f 1568 1600 1601
f 1633 1601 1600
f 1600 1632 1633
f 1665 1633 1632
f 1632 1664 1665
f 1697 1665 1664
f 1664 1696 1697
f 1729 1697 1696
f 1696 1728 1729
f 1761 1729 1728
f 1728 1760 1761
f 1793 1761 1760
f 1760 1792 1793
f 1825 1793 1792
f 1792 1824 1825
f 1857 1825 1824
f 1824 1856 1857
f 1889 1857 1856
f 1856 1888 1889
f 1921 1889 1888
f 1888 1920 1921
f 1953 1921 1920
f 1920 1952 1953
f 1985 1953 1952
f 1952 1984 1985
f 2017 1985 1984
f 1984 2016 2017
f 2049 2017 2016
f 2016 2048 2049
f 2081 2049 2048
f 2048 2080 2081
f 2113 2081 2080
f 2080 2112 2113
f 2145 2113 2112
f 2112 2144 2145
f 1186 1154 1153
f 1153 1185 1186
f 1218 1186 1185
f 1185 1217 1218
f 1250 1218 1217
f 1217 1249 1250
f 1282 1250 1249
f 1249 1281 1282
f 1314 1282 1281
f 1281 1313 1314
f 1346 1314 1313
f 1313 1345 1346
f 1378 1346 1345
f 1345 1377 1378
f 1410 1378 1377
f 1377 1409 1410
f 1442 1410 1409
f 1409 1441 1442
f 1474 1442 1441
f 1441 1473 1474
f 1506 1474 1473
f 1473 1505 1506
f 1538 1506 1505
f 1505 1537 1538
f 1570 1538 1537
f 1537 1569 1570
f 1602 1570 1569
f 1569 1601 1602
f 1634 1602 1601
f 1601 1633 1634
f 1666 1634 1633
f 1633 1665 1666
f 1698 1666 1665
f 1665 1697 1698
f 1730 1698 1697
f 1697 1729 1730
f 1762 1730 1729
f 1729 1761 1762
f 1794 1762 1761
f 1761 1793 1794
f 1826 1794 1793
f 1793 1825 1826
f 1858 1826 1825
f 1825 1857 1858
f 1890 1858 1857
f 1857 1889 1890
f 1922 1890 1889
f 1889 1921 1922
f 1954 1922 1921
f 1921 1953 1954
f 1986 1954 1953
f 1953 1985 1986
f 2018 1986 1985
f 1985 2017 2018
f 2050 2018 2017
f 2017 2049 2050
f 2082 2050 2049
f 2049 2081 2082
f 2114 2082 2081
f 2081 2113 2114
f 2146 2114 2113
f 2113 2145 2146
f 1187 1155 1154
f 1154 1186 1187
f 1219 1187 1186
f 1186 1218 1219
f 1251 1219 1218
f 1218 1250 1251
f 1283 1251 1250
f 1250 1282 1283
f 1315 1283 1282
f 1282 1314 1315
f 1347 1315 1314
f 1314 1346 1347
f 1379 1347 1346
f 1346 1378 1379
f 1411 1379 1378
f 1378 1410 1411
f 1443 1411 1410
f 1410 1442 1443
f 1475 1443 1442
f 1442 1474 1475
f 1507 1475 1474
f 1474 1506 1507
f 1539 1507 1506
f 1506 1538 1539
f 1571 1539 1538
f 1538 1570 1571
f 1603 1571 1570
f 1570 1602 1603
f 1635 1603 1602
f 1602 1634 1635
f 1667 1635 1634
f 1634 1666 1667
f 1699 1667 1666
f 1666 1698 1699
f 1731 1699 1698
f 1698 1730 1731
f 1763 1731 1730
f 1730 1762 1763
f 1795 1763 1762
f 1762 1794 1795
f 1827 1795 1794
f 1794 1826 1827
f 1859 1827 1826
f 1826 1858 1859
f 1891 1859 1858
f 1858 1890 1891
f 1923 1891 1890
f 1890 1922 1923
f 1955 1923 1922
f 1922 1954 1955
f 1987 1955 1954
f 1954 1986 1987
f 2019 1987 1986
f 1986 2018 2019
f 2051 2019 2018
f 2018 2050 2051
f 2083 2051 2050
f 2050 2082 2083
f 2115 2083 2082
f 2082 2114 2115
f 2147 2115 2114
f 2114 2146 2147
f 1188 1156 1155
f 1155 1187 1188
f 1220 1188 1187
f 1187 1219 1220
f 1252 1220 1219
f 1219 1251 1252
f 1284 1252 1251
f 1251 1283 1284
f 1316 1284 1283
f 1283 1315 1316
f 1348 1316 1315
f 1315 1347 1348
f 1380 1348 1347
f 1347 1379 1380
f 1412 1380 1379
f 1379 1411 1412
f 1444 1412 1411
f 1411 1443 1444
f 1476 1444 1443
f 1443 1475 1476
f 1508 1476 1475
f 1475 1507 1508
f 1540 1508 1507
f 1507 1539 1540
f 1572 1540 1539
f 1539 1571 1572
f 1604 1572 1571
f 1571 1603 1604
f 1636 1604 1603
f 1603 1635 1636
f 1668 1636 1635
f 1635 1667 1668
f 1700 1668 1667
f 1667 1699 1700
f 1732 1700 1699
f 1699 1731 1732
f 1764 1732 1731
f 1731 1763 1764
f 1796 1764 1763
f 1763 1795 1796
f 1828 1796 1795
f 1795 1827 1828
f 1860 1828 1827
f 1827 1859 1860
f 1892 1860 1859
f 1859 1891 1892
f 1924 1892 1891
f 1891 1923 1924
f 1956 1924 1923
f 1923 1955 1956
f 1988 1956 1955
f 1955 1987 1988
f 2020 1988 1987
f 1987 2019 2020
f 2052 2020 2019
f 2019 2051 2052
f 2084 2052 2051
f 2051 2083 2084
f 2116 2084 2083
f 2083 2115 2116
f 2148 2116 2115
f 2115 2147 2148
f 1189 1157 1156
f 1156 1188 1189
f 1221 1189 1188
f 1188 1220 1221
f 1253 1221 1220
f 1220 1252 1253
f 1285 1253 1252
f 1252 1284 1285
f 1317 1285 1284
f 1284 1316 1317
f 1349 1317 1316
f 1316 1348 1349
f 1381 1349 1348
f 1348 1380 1381
f 1413 1381 1380
f 1380 1412 1413
f 1445 1413 1412
f 1412 1444 1445
f 1477 1445 1444
f 1444 1476 1477
f 1509 1477 1476
f 1476 1508 1509
f 1541 1509 1508
f 1508 1540 1541
f 1573 1541 1540
f 1540 1572 1573
f 1605 1573 1572
f 1572 1604 1605
f 1637 1605 1604
f 1604 1636 1637
f 1669 1637 1636
f 1636 1668 1669
f 1701 1669 1668
f 1668 1700 1701
f 1733 1701 1700
f 1700 1732 1733
f 1765 1733 1732
f 1732 1764 1765
f 1797 1765 1764
f 1764 1796 1797
f 1829 1797 1796
f 1796 1828 1829
f 1861 1829 1828
f 1828 1860 1861
f 1893 1861 1860
f 1860 1892 1893
f 1925 1893 1892
f 1892 1924 1925
f 1957 1925 1924
f 1924 1956 1957
f 1989 1957 1956
f 1956 1988 1989
f 2021 1989 1988
f 1988 2020 2021
f 2053 2021 2020
f 2020 2052 2053
f 2085 2053 2052
f 2052 2084 2085
f 2117 2085 2084
f 2084 2116 2117
f 2149 2117 2116
f 2116 2148 2149
f 1190 1158 1157
f 1157 1189 1190
f 1222 1190 1189
f 1189 1221 1222
f 1254 1222 1221
f 1221 1253 1254
f 1286 1254 1253
f 1253 1285 1286
f 1318 1286 1285
f 1285 1317 1318
f 1350 1318 1317
f 1317 1349 1350
f 1382 1350 1349
f 1349 1381 1382
f 1414 1382 1381
f 1381 1413 1414
f 1446 1414 1413
f 1413 1445 1446
f 1478 1446 1445
f 1445 1477 1478
f 1510 1478 1477
f 1477 1509 1510
f 1542 1510 1509
f 1509 1541 1542
f 1574 1542 1541
f 1541 1573 1574
f 1606 1574 1573
f 1573 1605 1606
f 1638 1606 1605
f 1605 1637 1638
f 1670 1638 1637
f 1637 1669 1670
f 1702 1670 1669
f 1669 1701 1702
f 1734 1702 1701
f 1701 1733 1734
f 1766 1734 1733
f 1733 1765 1766
f 1798 1766 1765
f 1765 1797 1798
f 1830 1798 1797
f 1797 1829 1830
f 1862 1830 1829
f 1829 1861 1862
f 1894 1862 1861
f 1861 1893 1894
f 1926 1894 1893
f 1893 1925 1926
f 1958 1926 1925
f 1925 1957 1958
f 1990 1958 1957
f 1957 1989 1990
f 2022 1990 1989
f 1989 2021 2022
f 2054 2022 2021
f 2021 2053 2054
f 2086 2054 2053
f 2053 2085 2086
f 2118 2086 2085
f 2085 2117 2118
f 2150 2118 2117
f 2117 2149 2150
f 1191 1159 1158
f 1158 1190 1191
f 1223 1191 1190
f 1190 1222 1223
f 1255 1223 1222
f 1222 1254 1255
f 1287 1255 1254
f 1254 1286 1287
f 1319 1287 1286
f 1286 1318 1319
f 1351 1319 1318
f 1318 1350 1351
f 1383 1351 1350
f 1350 1382 1383
f 1415 1383 1382
f 1382 1414 1415
f 1447 1415 1414
f 1414 1446 1447
f 1479 1447 1446
f 1446 1478 1479
f 1511 1479 1478
f 1478 1510 1511
f 1543 1511 1510
f 1510 1542 1543
f 1575 1543 1542
f 1542 1574 1575
f 1607 1575 1574
f 1574 1606 1607
f 1639 1607 1606
f 1606 1638 1639
f 1671 1639 1638
f 1638 1670 1671
f 1703 1671 1670
f 1670 1702 1703
f 1735 1703 1702
f 1702 1734 1735
f 1767 1735 1734
f 1734 1766 1767
f 1799 1767 1766
f 1766 1798 1799
f 1831 1799 1798
f 1798 1830 1831
f 1863 1831 1830
f 1830 1862 1863
f 1895 1863 1862
f 1862 1894 1895
f 1927 1895 1894
f 1894 1926 1927
f 1959 1927 1926
f 1926 1958 1959
f 1991 1959 1958
f 1958 1990 1991
f 2023 1991 1990
f 1990 2022 2023
f 2055 2023 2022
f 2022 2054 2055
f 2087 2055 2054
f 2054 2086 2087
f 2119 2087 2086
f 2086 2118 2119
f 2151 2119 2118
f 2118 2150 2151
f 1192 1160 1159
f 1159 1191 1192
f 1224 1192 1191
f 1191 1223 1224
f 1256 1224 1223
f 1223 1255 1256
f 1288 1256 1255
f 1255 1287 1288
f 1320 1288 1287
f 1287 1319 1320
f 1352 1320 1319
f 1319 1351 1352
f 1384 1352 1351
f 1351 1383 1384
f 1416 1384 1383
f 1383 1415 1416
f 1448 1416 1415
f 1415 1447 1448
f 1480 1448 1447
f 1447 1479 1480
f 1512 1480 1479
f 1479 1511 1512
f 1544 1512 1511
f 1511 1543 1544
f 1576 1544 1543
f 1543 1575 1576
f 1608 1576 1575
f 1575 1607 1608
f 1640 1608 1607
f 1607 1639 1640
f 1672 1640 1639
f 1639 1671 1672
f 1704 1672 1671
f 1671 1703 1704
f 1736 1704 1703
f 1703 1735 1736
f 1768 1736 1735
f 1735 1767 1768
f 1800 1768 1767
f 1767 1799 1800
f 1832 1800 1799
f 1799 1831 1832
f 1864 1832 1831
f 1831 1863 1864
f 1896 1864 1863
f 1863 1895 1896
f 1928 1896 1895
f 1895 1927 1928
f 1960 1928 1927
f 1927 1959 1960
f 1992 1960 1959
f 1959 1991 1992
f 2024 1992 1991
f 1991 2023 2024
f 2056 2024 2023
f 2023 2055 2056
f 2088 2056 2055
f 2055 2087 2088
f 2120 2088 2087
f 2087 2119 2120
f 2152 2120 2119
f 2119 2151 2152
f 1193 1161 1160
f 1160 1192 1193
f 1225 1193 1192
f 1192 1224 1225
f 1257 1225 1224
f 1224 1256 1257
f 1289 1257 1256
f 1256 1288 1289
f 1321 1289 1288
f 1288 1320 1321
f 1353 1321 1320
f 1320 1352 1353
f 1385 1353 1352
f 1352 1384 1385
f 1417 1385 1384
f 1384 1416 1417
f 1449 1417 1416
f 1416 1448 1449
f 1481 1449 1448
f 1448 1480 1481
f 1513 1481 1480
f 1480 1512 1513
f 1545 1513 1512
f 1512 1544 1545
f 1577 1545 1544
f 1544 1576 1577
f 1609 1577 1576
f 1576 1608 1609
f 1641 1609 1608
f 1608 1640 1641
f 1673 1641 1640
f 1640 1672 1673
f 1705 1673 1672
f 1672 1704 1705
f 1737 1705 1704
f 1704 1736 1737
f 1769 1737 1736
f 1736 1768 1769
f 1801 1769 1768
f 1768 1800 1801
f 1833 1801 1800
f 1800 1832 1833
f 1865 1833 1832
f 1832 1864 1865
f 1897 1865 1864
f 1864 1896 1897
f 1929 1897 1896
f 1896 1928 1929
f 1961 1929 1928
f 1928 1960 1961
f 1993 1961 1960
f 1960 1992 1993
f 2025 1993 1992
f 1992 2024 2025
f 2057 2025 2024
f 2024 2056 2057
f 2089 2057 2056
f 2056 2088 2089
f 2121 2089 2088
f 2088 2120 2121
f 2153 2121 2120
f 2120 2152 2153
f 1194 1162 1161
f 1161 1193 1194
f 1226 1194 1193
f 1193 1225 1226
f 1258 1226 1225
f 1225 1257 1258
f 1290 1258 1257
f 1257 1289 1290
f 1322 1290 1289
f 1289 1321 1322
f 1354 1322 1321
f 1321 1353 1354
f 1386 1354 1353
f 1353 1385 1386
f 1418 1386 1385
f 1385 1417 1418
f 1450 1418 1417
f 1417 1449 1450
f 1482 1450 1449
f 1449 1481 1482
f 1514 1482 1481
f 1481 1513 1514
f 1546 1514 1513
f 1513 1545 1546
f 1578 1546 1545
f 1545 1577 1578
f 1610 1578 1577
f 1577 1609 1610
f 1642 1610 1609
f 1609 1641 1642
f 1674 1642 1641
f 1641 1673 1674
f 1706 1674 1673
f 1673 1705 1706
f 1738 1706 1705
f 1705 1737 1738
f 1770 1738 1737
f 1737 1769 1770
f 1802 1770 1769
f 1769 1801 1802
f 1834 1802 1801
f 1801 1833 1834
f 1866 1834 1833
f 1833 1865 1866
f 1898 1866 1865
f 1865 1897 1898
f 1930 1898 1897
f 1897 1929 1930
f 1962 1930 1929
f 1929 1961 1962
f 1994 1962 1961
f 1961 1993 1994
f 2026 1994 1993
f 1993 2025 2026
f 2058 2026 2025
f 2025 2057 2058
f 2090 2058 2057
f 2057 2089 2090
f 2122 2090 2089
f 2089 2121 2122
f 2154 2122 2121
f 2121 2153 2154
f 1195 1163 1162
f 1162 1194 1195
f 1227 1195 1194
f 1194 1226 1227
f 1259 1227 1226
f 1226 1258 1259
f 1291 1259 1258
f 1258 1290 1291
f 1323 1291 1290
f 1290 1322 1323
f 1355 1323 1322
f 1322 1354 1355
f 1387 1355 1354
f 1354 1386 1387
f 1419 1387 1386
f 1386 1418 1419
f 1451 1419 1418
f 1418 1450 1451
f 1483 1451 1450
f 1450 1482 1483
f 1515 1483 1482
f 1482 1514 1515
f 1547 1515 1514
f 1514 1546 1547
f 1579 1547 1546
f 1546 1578 1579
f 1611 1579 1578
f 1578 1610 1611
f 1643 1611 1610
f 1610 1642 1643
f 1675 1643 1642
f 1642 1674 1675
f 1707 1675 1674
f 1674 1706 1707
f 1739 1707 1706
f 1706 1738 1739
f 1771 1739 1738
f 1738 1770 1771
f 1803 1771 1770
f 1770 1802 1803
f 1835 1803 1802
f 1802 1834 1835
f 1867 1835 1834
f 1834 1866 1867
f 1899 1867 1866
f 1866 1898 1899
f 1931 1899 1898
f 1898 1930 1931
f 1963 1931 1930
f 1930 1962 1963
f 1995 1963 1962
f 1962 1994 1995
f 2027 1995 1994
f 1994 2026 2027
f 2059 2027 2026
f 2026 2058 2059
f 2091 2059 2058
f 2058 2090 2091
f 2123 2091 2090
f 2090 2122 2123
f 2155 2123 2122
f 2122 2154 2155
f 1196 1164 1163
f 1163 1195 1196
f 1228 1196 1195
f 1195 1227 1228
f 1260 1228 1227
f 1227 1259 1260
f 1292 1260 1259
f 1259 1291 1292
f 1324 1292 1291
f 1291 1323 1324
f 1356 1324 1323
f 1323 1355 1356
f 1388 1356 1355
f 1355 1387 1388
f 1420 1388 1387
f 1387 1419 1420
f 1452 1420 1419
f 1419 1451 1452
f 1484 1452 1451
f 1451 1483 1484
f 1516 1484 1483
f 1483 1515 1516
f 1548 1516 1515
f 1515 1547 1548
f 1580 1548 1547
f 1547 1579 1580
f 1612 1580 1579
f 1579 1611 1612
f 1644 1612 1611
f 1611 1643 1644
f 1676 1644 1643
f 1643 1675 1676
f 1708 1676 1675
f 1675 1707 1708
f 1740 1708 1707
f 1707 1739 1740
f 1772 1740 1739
f 1739 1771 1772
f 1804 1772 1771
f 1771 1803 1804
f 1836 1804 1803
f 1803 1835 1836
f 1868 1836 1835
f 1835 1867 1868
f 1900 1868 1867
f 1867 1899 1900
f 1932 1900 1899
f 1899 1931 1932
f 1964 1932 1931
f 1931 1963 1964
f 1996 1964 1963
f 1963 1995 1996
f 2028 1996 1995
f 1995 2027 2028
f 2060 2028 2027
f 2027 2059 2060
f 2092 2060 2059
f 2059 2091 2092
f 2124 2092 2091
f 2091 2123 2124
f 2156 2124 2123
f 2123 2155 2156
f 1197 1165 1164
f 1164 1196 1197
f 1229 1197 1196
f 1196 1228 1229
f 1261 1229 1228
f 1228 1260 1261
f 1293 1261 1260
f 1260 1292 1293
f 1325 1293 1292
f 1292 1324 1325
f 1357 1325 1324
f 1324 1356 1357
f 1389 1357 1356
f 1356 1388 1389
f 1421 1389 1388
f 1388 1420 1421
f 1453 1421 1420
f 1420 1452 1453
f 1485 1453 1452
f 1452 1484 1485
f 1517 1485 1484
f 1484 1516 1517
f 1549 1517 1516
f 1516 1548 1549
f 1581 1549 1548
f 1548 1580 1581
f 1613 1581 1580
f 1580 1612 1613
f 1645 1613 1612
f 1612 1644 1645
f 1677 1645 1644
f 1644 1676 1677
f 1709 1677 1676
f 1676 1708 1709
f 1741 1709 1708
f 1708 1740 1741
f 1773 1741 1740
f 1740 1772 1773
f 1805 1773 1772
f 1772 1804 1805
f 1837 1805 1804
f 1804 1836 1837
f 1869 1837 1836
f 1836 1868 1869
f 1901 1869 1868
f 1868 1900 1901
f 1933 1901 1900
f 1900 1932 1933
f 1965 1933 1932
f 1932 1964 1965
f 1997 1965 1964
f 1964 1996 1997
f 2029 1997 1996
f 1996 2028 2029
f 2061 2029 2028
f 2028 2060 2061
f 2093 2061 2060
f 2060 2092 2093
f 2125 2093 2092
f 2092 2124 2125
f 2157 2125 2124
f 2124 2156 2157
f 1198 1166 1165
f 1165 1197 1198
f 1230 1198 1197
f 1197 1229 1230
f 1262 1230 1229
f 1229 1261 1262
f 1294 1262 1261
f 1261 1293 1294
f 1326 1294 1293
f 1293 1325 1326
f 1358 1326 1325
f 1325 1357 1358
f 1390 1358 1357
f 1357 1389 1390
f 1422 1390 1389
f 1389 1421 1422
f 1454 1422 1421
f 1421 1453 1454
f 1486 1454 1453
f 1453 1485 1486
f 1518 1486 1485
f 1485 1517 1518
f 1550 1518 1517
f 1517 1549 1550
f 1582 1550 1549
f 1549 1581 1582
f 1614 1582 1581
f 1581 1613 1614
f 1646 1614 1613
f 1613 1645 1646
f 1678 1646 1645
f 1645 1677 1678
f 1710 1678 1677
f 1677 1709 1710
f 1742 1710 1709
f 1709 1741 1742
f 1774 1742 1741
f 1741 1773 1774
f 1806 1774 1773
f 1773 1805 1806
f 1838 1806 1805
f 1805 1837 1838
f 1870 1838 1837
f 1837 1869 1870
f 1902 1870 1869
f 1869 1901 1902
f 1934 1902 1901
f 1901 1933 1934
f 1966 1934 1933
f 1933 1965 1966
f 1998 1966 1965
f 1965 1997 1998
f 2030 1998 1997
f 1997 2029 2030
f 2062 2030 2029
f 2029 2061 2062
f 2094 2062 2061
f 2061 2093 2094
f 2126 2094 2093
f 2093 2125 2126
f 2158 2126 2125
f 2125 2157 2158
f 1199 1167 1166
f 1166 1198 1199
f 1231 1199 1198
f 1198 1230 1231
f 1263 1231 1230
f 1230 1262 1263
f 1295 1263 1262
f 1262 1294 1295
f 1327 1295 1294
f 1294 1326 1327
f 1359 1327 1326
f 1326 1358 1359
f 1391 1359 1358
f 1358 1390 1391
f 1423 1391 1390
f 1390 1422 1423
f 1455 1423 1422
f 1422 1454 1455
f 1487 1455 1454
f 1454 1486 1487
f 1519 1487 1486
f 1486 1518 1519
f 1551 1519 1518
f 1518 1550 1551
f 1583 1551 1550
f 1550 1582 1583
f 1615 1583 1582
f 1582 1614 1615
f 1647 1615 1614
f 1614 1646 1647
f 1679 1647 1646
f 1646 1678 1679
f 1711 1679 1678
f 1678 1710 1711
f 1743 1711 1710
f 1710 1742 1743
f 1775 1743 1742
f 1742 1774 1775
f 1807 1775 1774
f 1774 1806 1807
f 1839 1807 1806
f 1806 1838 1839
f 1871 1839 1838
f 1838 1870 1871
f 1903 1871 1870
f 1870 1902 1903
f 1935 1903 1902
f 1902 1934 1935
f 1967 1935 1934
f 1934 1966 1967
f 1999 1967 1966
f 1966 1998 1999
f 2031 1999 1998
f 1998 2030 2031
f 2063 2031 2030
f 2030 2062 2063
f 2095 2063 2062
f 2062 2094 2095
f 2127 2095 2094
f 2094 2126 2127
f 2159 2127 2126
f 2126 2158 2159
f 1200 1168 1167
f 1167 1199 1200
f 1232 1200 1199
f 1199 1231 1232
f 1264 1232 1231
f 1231 1263 1264
f 1296 1264 1263
f 1263 1295 1296
f 1328 1296 1295
f 1295 1327 1328
f 1360 1328 1327
f 1327 1359 1360
f 1392 1360 1359
f 1359 1391 1392
f 1424 1392 1391
f 1391 1423 1424
f 1456 1424 1423
f 1423 1455 1456
f 1488 1456 1455
f 1455 1487 1488
f 1520 1488 1487
f 1487 1519 1520
f 1552 1520 1519
f 1519 1551 1552
f 1584 1552 1551
f 1551 1583 1584
f 1616 1584 1583
f 1583 1615 1616
f 1648 1616 1615
f 1615 1647 1648
f 1680 1648 1647
f 1647 1679 1680
f 1712 1680 1679
f 1679 1711 1712
f 1744 1712 1711
f 1711 1743 1744
f 1776 1744 1743
f 1743 1775 1776
f 1808 1776 1775
f 1775 1807 1808
f 1840 1808 1807
f 1807 1839 1840
f 1872 1840 1839
f 1839 1871 1872
f 1904 1872 1871
f 1871 1903 1904
f 1936 1904 1903
f 1903 1935 1936
f 1968 1936 1935
f 1935 1967 1968
f 2000 1968 1967
f 1967 1999 2000
f 2032 2000 1999
f 1999 2031 2032
f 2064 2032 2031
f 2031 2063 2064
f 2096 2064 2063
f 2063 2095 2096
f 2128 2096 2095
f 2095 2127 2128
f 2160 2128 2127
f 2127 2159 2160
f 1201 1169 1168
f 1168 1200 1201
f 1233 1201 1200
f 1200 1232 1233
f 1265 1233 1232
f 1232 1264 1265
f 1297 1265 1264
f 1264 1296 1297
f 1329 1297 1296
f 1296 1328 1329
f 1361 1329 1328
f 1328 1360 1361
f 1393 1361 1360
f 1360 1392 1393
f 1425 1393 1392
f 1392 1424 1425
f 1457 1425 1424
f 1424 1456 1457
f 1489 1457 1456
f 1456 1488 1489
f 1521 1489 1488
f 1488 1520 1521
f 1553 1521 1520
f 1520 1552 1553
f 1585 1553 1552
f 1552 1584 1585
f 1617 1585 1584
f 1584 1616 1617
f 1649 1617 1616
f 1616 1648 1649
f 1681 1649 1648
f 1648 1680 1681
f 1713 1681 1680
f 1680 1712 1713
f 1745 1713 1712
f 1712 1744 1745
f 1777 1745 1744
f 1744 1776 1777
f 1809 1777 1776
f 1776 1808 1809
f 1841 1809 1808
f 1808 1840 1841
f 1873 1841 1840
f 1840 1872 1873
f 1905 1873 1872
f 1872 1904 1905
f 1937 1905 1904
f 1904 1936 1937
f 1969 1937 1936
f 1936 1968 1969
f 2001 1969 1968
f 1968 2000 2001
f 2033 2001 2000
f 2000 2032 2033
f 2065 2033 2032
f 2032 2064 2065
f 2097 2065 2064
f 2064 2096 2097
f 2129 2097 2096
f 2096 2128 2129
f 2161 2129 2128
f 2128 2160 2161
f 1202 1170 1169
f 1169 1201 1202
f 1234 1202 1201
f 1201 1233 1234
f 1266 1234 1233
f 1233 1265 1266
f 1298 1266 1265
f 1265 1297 1298
f 1330 1298 1297
f 1297 1329 1330
f 1362 1330 1329
f 1329 1361 1362
f 1394 1362 1361
f 1361 1393 1394
f 1426 1394 1393
f 1393 1425 1426
f 1458 1426 1425
f 1425 1457 1458
f 1490 1458 1457
f 1457 1489 1490
f 1522 1490 1489
f 1489 1521 1522
f 1554 1522 1521
f 1521 1553 1554
f 1586 1554 1553
f 1553 1585 1586
f 1618 1586 1585
f 1585 1617 1618
f 1650 1618 1617
f 1617 1649 1650
f 1682 1650 1649
f 1649 1681 1682
f 1714 1682 1681
f 1681 1713 1714
f 1746 1714 1713
f 1713 1745 1746
f 1778 1746 1745
f 1745 1777 1778
f 1810 1778 1777
f 1777 1809 1810
f 1842 1810 1809
f 1809 1841 1842
f 1874 1842 1841
f 1841 1873 1874
f 1906 1874 1873
f 1873 1905 1906
f 1938 1906 1905
f 1905 1937 1938
f 1970 1938 1937
f 1937 1969 1970
f 2002 1970 1969
f 1969 2001 2002
f 2034 2002 2001
f 2001 2033 2034
f 2066 2034 2033
f 2033 2065 2066
f 2098 2066 2065
f 2065 2097 2098
f 2130 2098 2097
f 2097 2129 2130
f 2162 2130 2129
f 2129 2161 2162
f 1203 1171 1170
f 1170 1202 1203
f 1235 1203 1202
f 1202 1234 1235
f 1267 1235 1234
f 1234 1266 1267
f 1299 1267 1266
f 1266 1298 1299
f 1331 1299 1298
f 1298 1330 1331
f 1363 1331 1330
f 1330 1362 1363
f 1395 1363 1362
f 1362 1394 1395
f 1427 1395 1394
f 1394 1426 1427
f 1459 1427 1426
f 1426 1458 1459
f 1491 1459 1458
f 1458 1490 1491
f 1523 1491 1490
f 1490 1522 1523
f 1555 1523 1522
f 1522 1554 1555
f 1587 1555 1554
f 1554 1586 1587
f 1619 1587 1586
f 1586 1618 1619
f 1651 1619 1618
f 1618 1650 1651
f 1683 1651 1650
f 1650 1682 1683
f 1715 1683 1682
f 1682 1714 1715
f 1747 1715 1714
f 1714 1746 1747
f 1779 1747 1746
f 1746 1778 1779
f 1811 1779 1778
f 1778 1810 1811
f 1843 1811 1810
f 1810 1842 1843
f 1875 1843 1842
f 1842 1874 1875
f 1907 1875 1874
f 1874 1906 1907
f 1939 1907 1906
f 1906 1938 1939
f 1971 1939 1938
f 1938 1970 1971
f 2003 1971 1970
f 1970 2002 2003
f 2035 2003 2002
f 2002 2034 2035
f 2067 2035 2034
f 2034 2066 2067
f 2099 2067 2066
f 2066 2098 2099
f 2131 2099 2098
f 2098 2130 2131
f 2163 2131 2130
f 2130 2162 2163
f 1204 1172 1171
f 1171 1203 1204
f 1236 1204 1203
f 1203 1235 1236
f 1268 1236 1235
f 1235 1267 1268
f 1300 1268 1267
f 1267 1299 1300
f 1332 1300 1299
f 1299 1331 1332
f 1364 1332 1331
f 1331 1363 1364
f 1396 1364 1363
f 1363 1395 1396
f 1428 1396 1395
f 1395 1427 1428
f 1460 1428 1427
f 1427 1459 1460
f 1492 1460 1459
f 1459 1491 1492
f 1524 1492 1491
f 1491 1523 1524
f 1556 1524 1523
f 1523 1555 1556
f 1588 1556 1555
f 1555 1587 1588
f 1620 1588 1587
f 1587 1619 1620
f 1652 1620 1619
f 1619 1651 1652
f 1684 1652 1651
f 1651 1683 1684
f 1716 1684 1683
f 1683 1715 1716
f 1748 1716 1715
f 1715 1747 1748
f 1780 1748 1747
f 1747 1779 1780
f 1812 1780 1779
f 1779 1811 1812
f 1844 1812 1811
f 1811 1843 1844
f 1876 1844 1843
f 1843 1875 1876
f 1908 1876 1875
f 1875 1907 1908
f 1940 1908 1907
f 1907 1939 1940
f 1972 1940 1939
f 1939 1971 1972
f 2004 1972 1971
f 1971 2003 2004
f 2036 2004 2003
f 2003 2035 2036
f 2068 2036 2035
f 2035 2067 2068
f 2100 2068 2067
f 2067 2099 2100
f 2132 2100 2099
f 2099 2131 2132
f 2164 2132 2131
f 2131 2163 2164
f 1205 1173 1172
f 1172 1204 1205
f 1237 1205 1204
f 1204 1236 1237
f 1269 1237 1236
f 1236 1268 1269
f 1301 1269 1268
f 1268 1300 1301
f 1333 1301 1300
f 1300 1332 1333
f 1365 1333 1332
f 1332 1364 1365
f 1397 1365 1364
f 1364 1396 1397
f 1429 1397 1396
f 1396 1428 1429
f 1461 1429 1428
f 1428 1460 1461
f 1493 1461 1460
f 1460 1492 1493
f 1525 1493 1492
f 1492 1524 1525
f 1557 1525 1524
f 1524 1556 1557
f 1589 1557 1556
f 1556 1588 1589
f 1621 1589 1588
f 1588 1620 1621
f 1653 1621 1620
f 1620 1652 1653
f 1685 1653 1652
f 1652 1684 1685
f 1717 1685 1684
f 1684 1716 1717
f 1749 1717 1716
f 1716 1748 1749
f 1781 1749 1748
f 1748 1780 1781
f 1813 1781 1780
f 1780 1812 1813
f 1845 1813 1812
f 1812 1844 1845
f 1877 1845 1844
f 1844 1876 1877
f 1909 1877 1876
f 1876 1908 1909
f 1941 1909 1908
f 1908 1940 1941
f 1973 1941 1940
f 1940 1972 1973
f 2005 1973 1972
f 1972 2004 2005
f 2037 2005 2004
f 2004 2036 2037
f 2069 2037 2036
f 2036 2068 2069
f 2101 2069 2068
f 2068 2100 2101
f 2133 2101 2100
f 2100 2132 2133
f 2165 2133 2132
f 2132 2164 2165
f 1206 1174 1173
f 1173 1205 1206
f 1238 1206 1205
f 1205 1237 1238
f 1270 1238 1237
f 1237 1269 1270
f 1302 1270 1269
f 1269 1301 1302
f 1334 1302 1301
f 1301 1333 1334
f 1366 1334 1333
f 1333 1365 1366
f 1398 1366 1365
f 1365 1397 1398
f 1430 1398 1397
f 1397 1429 1430
f 1462 1430 1429
f 1429 1461 1462
f 1494 1462 1461
f 1461 1493 1494
f 1526 1494 1493
f 1493 1525 1526
f 1558 1526 1525
f 1525 1557 1558
f 1590 1558 1557
f 1557 1589 1590
f 1622 1590 1589
f 1589 1621 1622
f 1654 1622 1621
f 1621 1653 1654
f 1686 1654 1653
f 1653 1685 1686
f 1718 1686 1685
f 1685 1717 1718
f 1750 1718 1717
f 1717 1749 1750
f 1782 1750 1749
f 1749 1781 1782
f 1814 1782 1781
f 1781 1813 1814
f 1846 1814 1813
f 1813 1845 1846
f 1878 1846 1845
f 1845 1877 1878
f 1910 1878 1877
f 1877 1909 1910
f 1942 1910 1909
f 1909 1941 1942
f 1974 1942 1941
f 1941 1973 1974
f 2006 1974 1973
f 1973 2005 2006
f 2038 2006 2005
f 2005 2037 2038
f 2070 2038 2037
f 2037 2069 2070
f 2102 2070 2069
f 2069 2101 2102
f 2134 2102 2101
f 2101 2133 2134
f 2166 2134 2133
f 2133 2165 2166
