v -1005.61 -2.79177 5094.9
v -1004.13 3.77232 5094.3
v -1005.65 -2.78569 5094.86
v -1005.65 -2.78569 5094.86
v -1004.13 3.77232 5094.3
v -1005.65 -2.77935 5094.91
v -1005.65 -2.77935 5094.91
v -1004.13 3.77232 5094.3
v -1005.61 -2.79177 5094.9
v -1005.61 -2.79177 5094.9
v -1005.65 -2.78569 5094.86
v -1005.65 -2.77935 5094.91
v -1004.58 2.21687 5094.51
v -1006.18 -4.79827 5095.17
v -1004.54 2.21079 5094.54
v -1004.54 2.21079 5094.54
v -1006.18 -4.79827 5095.17
v -1004.59 2.22321 5094.56
v -1004.59 2.22321 5094.56
v -1006.18 -4.79827 5095.17
v -1004.58 2.21687 5094.51
v -1004.58 2.21687 5094.51
v -1004.54 2.21079 5094.54
v -1004.59 2.22321 5094.56
v -1005.77 -2.54 5094.84
v -1004.97 0.955588 5094.52
v -1005.78 -2.5224 5095.01
v -1004.98 0.973191 5094.7
v -1005.62 -2.5534 5095.08
v -1004.82 0.942196 5094.76
v -1005.51 -2.59015 5094.94
v -1004.71 0.905438 5094.63
v -1005.6 -2.58188 5094.79
v -1004.8 0.913714 5094.48
v -1005.77 -2.54 5094.84
v -1004.97 0.955588 5094.52
v -1005.77 -2.54 5094.84
v -1005.78 -2.5224 5095.01
v -1005.6 -2.58188 5094.79
v -1005.51 -2.59015 5094.94
v -1005.62 -2.5534 5095.08
v -1004.97 0.955588 5094.52
v -1004.8 0.913714 5094.48
v -1004.98 0.973191 5094.7
v -1004.82 0.942196 5094.76
v -1004.71 0.905438 5094.63
v -1006.89 -3.87284 5090.5
v -1006.09 -0.354953 5090.18
v -1006.36 -3.72756 5090.84
v -1005.61 -0.432787 5090.54
v -1005.77 -3.51647 5091.45
v -1004.71 1.13308 5091.03
v -1005.14 1.41945 5090.33
v -1010.67 -2.81298 5094.51
v -1009.86 -2.55348 5095.19
v -1010.08 -0.262684 5094.28
v -1009.54 -0.338883 5094.81
v -1009.12 2.89032 5094.28
v -1009.51 1.16578 5094.44
v -1008.67 2.61775 5094.73
v -1009.21 1.11761 5094.68
v -1009.06 -2.38768 5095.6
v -1008 2.26187 5095.18
v -1005.77 -3.51647 5091.45
v -1005.34 -3.20954 5092.36
v -1004.4 0.893921 5091.99
v -1005.27 -2.89935 5093.33
v -1004.42 0.798791 5093
v -1005.55 -2.6233 5094.26
v -1004.75 0.859163 5093.95
v -1005.55 -2.6233 5094.26
v -1006.16 -2.41471 5095.03
v -1005.36 1.06776 5094.71
v -1007.02 -2.29873 5095.54
v -1006.16 -2.41471 5095.03
v -1006.17 1.39941 5095.21
v -1005.36 1.06776 5094.71
v -1008.03 -2.28934 5095.74
v -1007.09 1.81412 5095.37
v -1007.99 1.5961 5095.49
v -1008 1.52288 5095.44
v -1007.03 1.26587 5095.67
v -1007.05 1.19839 5095.61
v -1006.07 0.935648 5095.49
v -1006.11 0.873926 5095.44
v -1005.22 0.64527 5094.97
v -1005.27 0.588602 5094.93
v -1004.59 0.429756 5094.18
v -1004.66 0.37684 5094.15
v -1004.26 0.3151 5093.2
v -1004.33 0.26418 5093.2
v -1004.26 0.315131 5092.17
v -1004.33 0.264211 5092.18
v -1004.59 0.429846 5091.2
v -1004.66 0.376928 5091.23
v -1005.22 0.645408 5090.41
v -1005.27 0.588738 5090.45
v -1006.07 0.935817 5089.89
v -1006.11 0.874092 5089.94
v -1007.03 1.26605 5089.71
v -1007.05 1.19857 5089.76
v -1007.99 1.59627 5089.89
v -1008 1.52304 5089.94
v -1008.84 1.88664 5090.41
v -1008.83 1.80836 5090.45
v -1009.47 2.10216 5091.2
v -1009.45 2.02013 5091.23
v -1009.8 2.21681 5092.17
v -1009.78 2.13279 5092.18
v -1009.8 2.21678 5093.21
v -1009.78 2.13276 5093.2
v -1009.47 2.10207 5094.18
v -1009.45 2.02004 5094.15
v -1008.84 1.88651 5094.97
v -1008.83 1.80823 5094.93
v -1007.99 1.5961 5095.49
v -1008 1.52288 5095.44
v -1008.03 1.57962 5095.56
v -1007.04 1.24009 5095.75
v -1006.05 0.900572 5095.56
v -1005.18 0.602014 5095.03
v -1004.53 0.380429 5094.22
v -1004.19 0.262543 5093.22
v -1004.19 0.262575 5092.16
v -1004.53 0.380521 5091.16
v -1005.18 0.602156 5090.34
v -1006.05 0.900746 5089.81
v -1007.04 1.24028 5089.63
v -1008.03 1.5798 5089.81
v -1008.9 1.87835 5090.34
v -1009.55 2.09994 5091.16
v -1009.89 2.21783 5092.16
v -1009.89 2.21779 5093.22
v -1009.55 2.09985 5094.22
v -1008.9 1.87821 5095.03
v -1008.03 1.57962 5095.56
v -1007.07 1.15669 5095.75
v -1008.06 1.49622 5095.56
v -1006.08 0.81717 5095.56
v -1005.21 0.518612 5095.03
v -1004.56 0.297028 5094.22
v -1004.22 0.179142 5093.22
v -1004.22 0.179174 5092.16
v -1004.56 0.29712 5091.16
v -1005.21 0.518754 5090.34
v -1006.08 0.817344 5089.81
v -1007.07 1.15688 5089.63
v -1008.06 1.4964 5089.81
v -1008.93 1.79495 5090.34
v -1009.57 2.01654 5091.16
v -1009.92 2.13442 5092.16
v -1009.92 2.13439 5093.22
v -1009.57 2.01645 5094.22
v -1008.93 1.79481 5095.03
v -1008.06 1.49622 5095.56
v -1007.08 1.13092 5095.67
v -1008.04 1.46115 5095.49
v -1006.11 0.800702 5095.49
v -1005.27 0.510324 5094.97
v -1004.64 0.29481 5094.18
v -1004.3 0.180153 5093.2
v -1004.3 0.180185 5092.17
v -1004.64 0.2949 5091.2
v -1005.27 0.510462 5090.41
v -1006.11 0.800871 5089.89
v -1007.08 1.1311 5089.71
v -1008.04 1.46132 5089.89
v -1008.89 1.7517 5090.41
v -1009.52 1.96721 5091.2
v -1009.85 2.08187 5092.17
v -1009.85 2.08184 5093.21
v -1009.51 1.96712 5094.18
v -1008.89 1.75156 5094.97
v -1008.04 1.46115 5095.49
v -1007.05 1.19839 5095.61
v -1008 1.52288 5095.44
v -1006.11 0.873926 5095.44
v -1005.27 0.588602 5094.93
v -1004.66 0.37684 5094.15
v -1004.33 0.26418 5093.2
v -1004.33 0.264211 5092.18
v -1004.66 0.376928 5091.23
v -1005.27 0.588738 5090.45
v -1006.11 0.874092 5089.94
v -1007.05 1.19857 5089.76
v -1008 1.52304 5089.94
v -1008.83 1.80836 5090.45
v -1009.45 2.02013 5091.23
v -1009.78 2.13279 5092.18
v -1009.78 2.13276 5093.2
v -1009.45 2.02004 5094.15
v -1008.83 1.80823 5094.93
v -1008 1.52288 5095.44
v -1008.35 0.0386535 5095.63
v -1008.35 -0.0386835 5095.58
v -1007.35 -0.173931 5095.8
v -1007.37 -0.247567 5095.75
v -1006.36 -0.41683 5095.62
v -1006.4 -0.486238 5095.57
v -1005.5 -0.660747 5095.1
v -1005.55 -0.725908 5095.06
v -1004.88 -0.876261 5094.31
v -1004.94 -0.93767 5094.29
v -1004.56 -1.03738 5093.34
v -1004.62 -1.09598 5093.33
v -1004.58 -1.12467 5092.31
v -1004.65 -1.18175 5092.32
v -1004.95 -1.1276 5091.34
v -1005.01 -1.18463 5091.37
v -1005.62 -1.04581 5090.55
v -1005.66 -1.10427 5090.6
v -1006.5 -0.889185 5090.04
v -1006.53 -0.95037 5090.1
v -1007.5 -0.676601 5089.87
v -1007.51 -0.741486 5089.93
v -1008.49 -0.433702 5090.05
v -1008.48 -0.502815 5090.11
v -1009.35 -0.189785 5090.57
v -1009.33 -0.263145 5090.62
v -1009.97 0.0257292 5091.36
v -1009.95 -0.0513827 5091.4
v -1010.29 0.186847 5092.33
v -1010.26 0.10693 5092.35
v -1010.27 0.274134 5093.36
v -1010.24 0.192698 5093.36
v -1009.9 0.277064 5094.33
v -1009.87 0.195577 5094.31
v -1009.23 0.195282 5095.12
v -1009.22 0.115219 5095.08
v -1008.35 0.0386535 5095.63
v -1008.35 -0.0386835 5095.58
v -1008.38 0.0252662 5095.71
v -1007.36 -0.193307 5095.89
v -1006.34 -0.443048 5095.7
v -1005.46 -0.693835 5095.16
v -1004.81 -0.91542 5094.35
v -1004.48 -1.08108 5093.35
v -1004.51 -1.17082 5092.29
v -1004.88 -1.17383 5091.3
v -1005.57 -1.08975 5090.49
v -1006.48 -0.928709 5089.97
v -1007.51 -0.710136 5089.79
v -1008.52 -0.460394 5089.98
v -1009.41 -0.209607 5090.51
v -1010.05 0.0119779 5091.33
v -1010.38 0.177634 5092.32
v -1010.36 0.26738 5093.38
v -1009.98 0.270392 5094.37
v -1009.29 0.186307 5095.18
v -1008.38 0.0252662 5095.71
v -1007.38 -0.278917 5095.89
v -1008.4 -0.0603445 5095.71
v -1006.36 -0.528659 5095.71
v -1005.48 -0.779446 5095.17
v -1004.83 -1.00103 5094.36
v -1004.5 -1.16669 5093.36
v -1004.53 -1.25643 5092.3
v -1004.9 -1.25945 5091.31
v -1005.59 -1.17536 5090.5
v -1006.5 -1.01432 5089.98
v -1007.52 -0.795747 5089.8
v -1008.54 -0.546005 5089.98
v -1009.42 -0.295218 5090.52
v -1010.07 -0.0736328 5091.33
v -1010.4 0.0920231 5092.33
v -1010.38 0.18177 5093.39
v -1010 0.184782 5094.38
v -1009.31 0.100696 5095.19
v -1008.4 -0.0603445 5095.71
v -1007.38 -0.312452 5095.81
v -1008.38 -0.0998675 5095.64
v -1006.4 -0.555351 5095.63
v -1005.54 -0.799268 5095.11
v -1004.91 -1.01478 5094.32
v -1004.59 -1.1759 5093.35
v -1004.61 -1.26319 5092.32
v -1004.98 -1.26612 5091.35
v -1005.65 -1.18434 5090.57
v -1006.53 -1.02771 5090.06
v -1007.53 -0.815122 5089.88
v -1008.52 -0.572223 5090.07
v -1009.38 -0.328306 5090.58
v -1010.01 -0.112792 5091.38
v -1010.33 0.0483257 5092.35
v -1010.3 0.135613 5093.38
v -1009.93 0.138543 5094.34
v -1009.27 0.0567613 5095.13
v -1008.38 -0.0998675 5095.64
v -1007.37 -0.247567 5095.75
v -1008.35 -0.0386835 5095.58
v -1006.4 -0.486238 5095.57
v -1005.55 -0.725908 5095.06
v -1004.94 -0.93767 5094.29
v -1004.62 -1.09598 5093.33
v -1004.65 -1.18175 5092.32
v -1005.01 -1.18463 5091.37
v -1005.66 -1.10427 5090.6
v -1006.53 -0.95037 5090.1
v -1007.51 -0.741486 5089.93
v -1008.48 -0.502815 5090.11
v -1009.33 -0.263145 5090.62
v -1009.95 -0.0513827 5091.4
v -1010.26 0.10693 5092.35
v -1010.24 0.192698 5093.36
v -1009.87 0.195577 5094.31
v -1009.22 0.115219 5095.08
v -1008.35 -0.0386835 5095.58
v -1008.78 -1.72304 5095.77
v -1008.77 -1.80384 5095.73
v -1007.75 -1.77994 5095.92
v -1007.76 -1.85975 5095.88
v -1006.75 -1.90729 5095.72
v -1006.77 -1.98488 5095.68
v -1005.88 -2.08972 5095.19
v -1005.92 -2.16414 5095.17
v -1005.25 -2.30523 5094.4
v -1005.3 -2.3759 5094.39
v -1004.94 -2.52784 5093.44
v -1005 -2.59463 5093.44
v -1004.98 -2.73068 5092.42
v -1005.04 -2.79394 5092.45
v -1005.37 -2.88929 5091.48
v -1005.42 -2.94979 5091.52
v -1006.07 -2.98455 5090.72
v -1006.11 -3.04339 5090.78
v -1006.98 -3.00496 5090.24
v -1007 -3.06344 5090.3
v -1008 -2.94806 5090.09
v -1008.01 -3.00753 5090.15
v -1009.01 -2.82071 5090.29
v -1009 -2.8824 5090.35
v -1009.88 -2.63828 5090.81
v -1009.85 -2.70315 5090.87
v -1010.51 -2.42276 5091.61
v -1010.47 -2.49139 5091.65
v -1010.82 -2.20016 5092.57
v -1010.77 -2.27266 5092.59
v -1010.78 -1.99732 5093.58
v -1010.73 -2.07335 5093.58
v -1010.38 -1.83871 5094.52
v -1010.35 -1.9175 5094.51
v -1009.69 -1.74345 5095.28
v -1009.66 -1.8239 5095.26
v -1008.78 -1.72304 5095.77
v -1008.77 -1.80384 5095.73
v -1008.8 -1.73159 5095.85
v -1007.75 -1.79009 5096.01
v -1006.72 -1.92102 5095.8
v -1005.82 -2.10859 5095.26
v -1005.18 -2.33018 5094.44
v -1004.86 -2.55905 5093.45
v -1004.9 -2.76761 5092.41
v -1005.31 -2.93069 5091.44
v -1006.02 -3.02863 5090.66
v -1006.96 -3.04961 5090.16
v -1008.01 -2.99111 5090.01
v -1009.04 -2.86018 5090.22
v -1009.94 -2.67261 5090.76
v -1010.58 -2.45102 5091.57
v -1010.9 -2.22215 5092.56
v -1010.86 -2.01359 5093.6
v -1010.46 -1.85051 5094.57
v -1009.74 -1.75257 5095.35
v -1008.8 -1.73159 5095.85
v -1007.76 -1.87618 5096.02
v -1008.81 -1.81767 5095.87
v -1006.73 -2.00711 5095.82
v -1005.83 -2.19468 5095.27
v -1005.19 -2.41627 5094.46
v -1004.87 -2.64514 5093.47
v -1004.91 -2.85369 5092.43
v -1005.31 -3.01677 5091.46
v -1006.03 -3.11471 5090.68
v -1006.97 -3.1357 5090.18
v -1008.02 -3.0772 5090.03
v -1009.05 -2.94626 5090.23
v -1009.95 -2.75869 5090.78
v -1010.59 -2.53711 5091.59
v -1010.91 -2.30823 5092.58
v -1010.87 -2.09968 5093.62
v -1010.46 -1.9366 5094.59
v -1009.75 -1.83866 5095.37
v -1008.81 -1.81767 5095.87
v -1007.77 -1.91923 5095.95
v -1008.79 -1.86233 5095.8
v -1006.76 -2.04658 5095.75
v -1005.89 -2.22901 5095.22
v -1005.26 -2.44452 5094.43
v -1004.95 -2.66712 5093.47
v -1004.99 -2.86997 5092.45
v -1005.39 -3.02858 5091.51
v -1006.08 -3.12384 5090.75
v -1006.99 -3.14425 5090.27
v -1008.02 -3.08735 5090.11
v -1009.02 -2.96 5090.31
v -1009.89 -2.77757 5090.84
v -1010.52 -2.56205 5091.63
v -1010.83 -2.33945 5092.6
v -1010.79 -2.13661 5093.61
v -1010.4 -1.978 5094.55
v -1009.7 -1.88274 5095.31
v -1008.79 -1.86233 5095.8
v -1007.76 -1.85975 5095.88
v -1008.77 -1.80384 5095.73
v -1006.77 -1.98488 5095.68
v -1005.92 -2.16414 5095.17
v -1005.3 -2.3759 5094.39
v -1005 -2.59463 5093.44
v -1005.04 -2.79394 5092.45
v -1005.42 -2.94979 5091.52
v -1006.11 -3.04339 5090.78
v -1007 -3.06344 5090.3
v -1008.01 -3.00753 5090.15
v -1009 -2.8824 5090.35
v -1009.85 -2.70315 5090.87
v -1010.47 -2.49139 5091.65
v -1010.77 -2.27266 5092.59
v -1010.73 -2.07335 5093.58
v -1010.35 -1.9175 5094.51
v -1009.66 -1.8239 5095.26
v -1008.77 -1.80384 5095.73
v -1005.46 -1.0848 5090.85
v -1005.85 -0.950465 5091.35
v -1005.48 -1.17367 5090.86
v -1005.87 -1.03933 5091.35
v -1005.85 -0.950465 5091.35
v -1006.65 -0.827299 5090.68
v -1005.87 -1.03933 5091.35
v -1006.67 -0.916163 5090.68
v -1006.65 -0.827299 5090.68
v -1008.94 -0.0437681 5093.56
v -1006.67 -0.916163 5090.68
v -1008.96 -0.132632 5093.56
v -1005.46 -1.0848 5090.85
v -1005.18 -1.11579 5091.22
v -1005.85 -0.950465 5091.35
v -1008.53 0.0346689 5095.44
v -1009.29 0.167651 5094.99
v -1008.47 -0.115691 5093.95
v -1006.65 -0.827299 5090.68
v -1008.94 -0.0437681 5093.56
v -1005.18 -1.11579 5091.22
v -1005.2 -1.20465 5091.22
v -1008.53 0.0346689 5095.44
v -1008.55 -0.0541949 5095.45
v -1005.48 -1.17367 5090.86
v -1005.87 -1.03933 5091.35
v -1005.2 -1.20465 5091.22
v -1008.55 -0.0541949 5095.45
v -1009.31 0.0787874 5095
v -1008.49 -0.204555 5093.95
v -1006.67 -0.916163 5090.68
v -1008.96 -0.132632 5093.56
v -1008.49 -0.204555 5093.95
v -1008.96 -0.132632 5093.56
v -1008.47 -0.115691 5093.95
v -1008.94 -0.0437681 5093.56
v -1009.31 0.0787874 5095
v -1008.49 -0.204555 5093.95
v -1009.29 0.167651 5094.99
v -1008.47 -0.115691 5093.95
v -1009.05 -2.46647 5092.02
v -1008.54 -2.54487 5092.44
v -1009.12 -2.44027 5092.11
v -1008.61 -2.51867 5092.54
v -1008.54 -2.54487 5092.44
v -1008.32 -1.61088 5092.36
v -1008.61 -2.51867 5092.54
v -1008.4 -1.58467 5092.45
v -1008.32 -1.61088 5092.36
v -1008.83 -1.53248 5091.93
v -1008.4 -1.58467 5092.45
v -1008.91 -1.50627 5092.03
v -1008.83 -1.53248 5091.93
v -1008.73 -1.08414 5091.89
v -1008.91 -1.50627 5092.03
v -1008.81 -1.05794 5091.99
v -1006.52 -3.10241 5094.19
v -1007.7 -2.92232 5093.21
v -1006.6 -3.0762 5094.29
v -1007.77 -2.89612 5093.31
v -1007.7 -2.92232 5093.21
v -1007.89 -3.77598 5093.29
v -1007.77 -2.89612 5093.31
v -1007.97 -3.74977 5093.39
v -1009.83 -0.914837 5090.97
v -1009.47 0.661522 5090.83
v -1009.91 -0.888631 5091.07
v -1009.55 0.687727 5090.92
v -1007.14 2.15476 5092.43
v -1007.61 2.22615 5092.04
v -1007.07 2.12856 5092.34
v -1007.53 2.19994 5091.95
v -1008.73 -1.08414 5091.89
v -1009.83 -0.914837 5090.97
v -1008.81 -1.05794 5091.99
v -1009.91 -0.888631 5091.07
v -1008.83 -1.53248 5091.93
v -1008.32 -1.61088 5092.36
v -1008.73 -1.08414 5091.89
v -1009.83 -0.914837 5090.97
v -1009.47 0.661522 5090.83
v -1007.94 0.426156 5092.11
v -1007.53 2.19994 5091.95
v -1007.07 2.12856 5092.34
v -1007.22 1.44122 5092.4
v -1006.59 1.74863 5092.82
v -1006.68 1.35713 5092.85
v -1005.9 1.64256 5093.4
v -1006.04 1.00445 5093.45
v -1004.81 0.814658 5094.49
v -1005.45 -1.9857 5094.74
v -1006.24 -1.86438 5094.08
v -1006.52 -3.10241 5094.19
v -1007.7 -2.92232 5093.21
v -1007.89 -3.77598 5093.29
v -1009.3 -3.55998 5092.11
v -1009.05 -2.46647 5092.02
v -1008.54 -2.54487 5092.44
v -1009.47 0.661522 5090.83
v -1007.94 0.426156 5092.11
v -1009.55 0.687727 5090.92
v -1008.02 0.452362 5092.2
v -1006.04 1.00445 5093.45
v -1004.81 0.814658 5094.49
v -1006.12 1.03066 5093.55
v -1004.88 0.840863 5094.58
v -1008.02 0.452362 5092.2
v -1007.94 0.426156 5092.11
v -1007.61 2.22615 5092.04
v -1007.53 2.19994 5091.95
v -1006.12 1.03066 5093.55
v -1005.97 1.66877 5093.49
v -1006.04 1.00445 5093.45
v -1005.9 1.64256 5093.4
v -1007.89 -3.77598 5093.29
v -1009.3 -3.55998 5092.11
v -1007.97 -3.74977 5093.39
v -1009.37 -3.53378 5092.21
v -1009.12 -2.44027 5092.11
v -1008.61 -2.51867 5092.54
v -1009.37 -3.53378 5092.21
v -1007.97 -3.74977 5093.39
v -1007.77 -2.89612 5093.31
v -1006.6 -3.0762 5094.29
v -1006.32 -1.83818 5094.18
v -1005.53 -1.95949 5094.84
v -1004.88 0.840863 5094.58
v -1006.12 1.03066 5093.55
v -1005.97 1.66877 5093.49
v -1006.66 1.77484 5092.92
v -1006.75 1.38333 5092.95
v -1007.14 2.15476 5092.43
v -1007.3 1.46742 5092.49
v -1007.61 2.22615 5092.04
v -1008.02 0.452362 5092.2
v -1009.55 0.687727 5090.92
v -1009.91 -0.888631 5091.07
v -1008.81 -1.05794 5091.99
v -1008.91 -1.50627 5092.03
v -1008.4 -1.58467 5092.45
v -1009.12 -2.44027 5092.11
v -1009.37 -3.53378 5092.21
v -1009.05 -2.46647 5092.02
v -1009.3 -3.55998 5092.11
v -1006.6 -3.0762 5094.29
v -1006.32 -1.83818 5094.18
v -1006.52 -3.10241 5094.19
v -1006.24 -1.86438 5094.08
v -1005.45 -1.9857 5094.74
v -1006.24 -1.86438 5094.08
v -1005.53 -1.95949 5094.84
v -1006.32 -1.83818 5094.18
v -1006.59 1.74863 5092.82
v -1005.9 1.64256 5093.4
v -1006.66 1.77484 5092.92
v -1005.97 1.66877 5093.49
v -1007.14 2.15476 5092.43
v -1007.07 2.12856 5092.34
v -1007.3 1.46742 5092.49
v -1007.22 1.44122 5092.4
v -1007.22 1.44122 5092.4
v -1006.68 1.35713 5092.85
v -1007.3 1.46742 5092.49
v -1006.75 1.38333 5092.95
v -1006.59 1.74863 5092.82
v -1006.66 1.77484 5092.92
v -1006.68 1.35713 5092.85
v -1006.75 1.38333 5092.95
v -1008.1 -1.8973 5092.69
v -1007.42 1.07373 5092.43
v -1008.34 -1.81501 5093
v -1007.66 1.15602 5092.73
v -1007.42 1.07373 5092.43
v -1006.68 0.958731 5093.05
v -1007.66 1.15602 5092.73
v -1006.92 1.04102 5093.35
v -1006.68 0.958731 5093.05
v -1007.36 -2.0123 5093.32
v -1006.92 1.04102 5093.35
v -1007.6 -1.93001 5093.62
v -1007.36 -2.0123 5093.32
v -1008.1 -1.8973 5092.69
v -1007.6 -1.93001 5093.62
v -1008.34 -1.81501 5093
v -1008.34 -1.81501 5093
v -1007.66 1.15602 5092.73
v -1007.6 -1.93001 5093.62
v -1006.92 1.04102 5093.35
v -1007.91 -0.909376 5090.57
v -1007.78 -0.336564 5090.52
v -1008.82 -0.596686 5091.72
v -1008.69 -0.0238745 5091.67
v -1006.64 -0.512188 5091.47
v -1006.77 -1.085 5091.53
v -1007.08 -0.36149 5092.03
v -1007.21 -0.934301 5092.08
v -1005.48 -1.11056 5094.51
v -1005 -1.27255 5093.92
v -1008.82 -0.596686 5091.72
v -1007.21 -0.934301 5092.08
v -1007.91 -0.909376 5090.57
v -1006.77 -1.085 5091.53
v -1006.77 -1.085 5091.53
v -1006.64 -0.512188 5091.47
v -1007.91 -0.909376 5090.57
v -1007.78 -0.336564 5090.52
v -1005.35 -0.537749 5094.46
v -1008.69 -0.0238745 5091.67
v -1004.87 -0.699741 5093.87
v -1007.08 -0.36149 5092.03
v -1007.78 -0.336564 5090.52
v -1006.64 -0.512188 5091.47
v -1007.21 -0.934301 5092.08
v -1005 -1.27255 5093.92
v -1007.08 -0.36149 5092.03
v -1004.87 -0.699741 5093.87
v -1010.08 -0.262684 5094.28
v -1009.54 -0.338883 5094.81
v -1009.6 -0.319166 5094.89
v -1009.54 -0.338883 5094.81
v -1009.21 1.11761 5094.68
v -1009.6 -0.319166 5094.89
v -1009.26 1.13733 5094.75
v -1009.21 1.11761 5094.68
v -1009.51 1.16578 5094.44
v -1009.26 1.13733 5094.75
v -1006.89 -3.87284 5090.5
v -1006.24 -3.75258 5090.77
v -1006.09 -0.354953 5090.18
v -1005.54 -0.454718 5090.46
v -1005.49 -3.47594 5091.53
v -1004.46 1.00742 5091.13
v -1005.14 1.41945 5090.33
v -1005.14 1.41945 5090.33
v -1004.46 1.00742 5091.13
v -1004.71 1.13308 5091.03
v -1009.12 2.89032 5094.28
v -1008.67 2.61775 5094.73
v -1008.7 2.62126 5094.89
v -1004.4 0.893921 5091.99
v -1004.15 0.759301 5092.12
v -1004.42 0.798791 5093
v -1004.17 0.660608 5093.17
v -1008 2.26187 5095.18
v -1007.88 2.17849 5095.43
v -1007.09 1.81412 5095.37
v -1006.93 1.71397 5095.63
v -1006.17 1.39941 5095.21
v -1005.98 1.28372 5095.46
v -1004.75 0.859163 5093.95
v -1004.51 0.723241 5094.15
v -1005.36 1.06776 5094.71
v -1005.14 0.939646 5094.95
v -1010.67 -2.81298 5094.51
v -1009.87 -2.50635 5095.35
v -1009.86 -2.55348 5095.19
v -1006.89 -3.87284 5090.5
v -1006.36 -3.72756 5090.84
v -1006.24 -3.75258 5090.77
v -1009.06 -2.38768 5095.6
v -1008.9 -2.30487 5095.83
v -1008.03 -2.28934 5095.74
v -1007.83 -2.20285 5095.98
v -1007.02 -2.29873 5095.54
v -1006.78 -2.21259 5095.78
v -1005.77 -3.51647 5091.45
v -1005.49 -3.47594 5091.53
v -1005.34 -3.20954 5092.36
v -1005.04 -3.15751 5092.47
v -1005.27 -2.89935 5093.33
v -1004.97 -2.8357 5093.49
v -1006.16 -2.41471 5095.03
v -1005.89 -2.33292 5095.24
v -1005.55 -2.6233 5094.26
v -1005.26 -2.54932 5094.45
v -1009.87 -2.50635 5095.35
v -1008.7 2.62126 5094.89
v -1008.9 -2.30487 5095.83
v -1007.88 2.17849 5095.43
v -1010.08 -0.262684 5094.28
v -1009.6 -0.319166 5094.89
v -1010.67 -2.81298 5094.51
v -1009.51 1.16578 5094.44
v -1009.12 2.89032 5094.28
v -1009.26 1.13733 5094.75
v -1008.7 2.62126 5094.89
v -1005.04 -3.15751 5092.47
v -1004.15 0.759301 5092.12
v -1004.97 -2.8357 5093.49
v -1004.17 0.660608 5093.17
v -1004.97 -2.8357 5093.49
v -1005.26 -2.54932 5094.45
v -1004.51 0.723241 5094.15
v -1005.89 -2.33292 5095.24
v -1005.14 0.939646 5094.95
v -1006.78 -2.21259 5095.78
v -1005.98 1.28372 5095.46
v -1007.83 -2.20285 5095.98
v -1006.93 1.71397 5095.63
v -1005.54 -0.454718 5090.46
v -1005.14 1.41945 5090.33
v -1005.61 -0.432787 5090.54
v -1006.09 -0.354953 5090.18
v -1005.54 -0.454718 5090.46
v -1005.61 -0.432787 5090.54
v -1043 5.41747 5124
v -1043 5.39996 5122
v -1043 5.38083 5120
v -1043 5.36006 5118
v -1043 5.33765 5116
v -1043 5.31359 5114
v -1043 5.28784 5112
v -1043 5.26042 5110
v -1043 5.23131 5108
v -1043 5.20048 5106
v -1043 5.16794 5104
v -1043 5.13367 5102
v -1043 5.09765 5100
v -1043 5.05988 5098
v -1043 5.02034 5096
v -1043 4.97889 5094
v -1043 4.93461 5092
v -1043 4.88724 5090
v -1043 4.83697 5088
v -1043 4.784 5086
v -1043 4.72577 5084
v -1043 4.66385 5082
v -1043 4.59078 5080
v -1043 4.51886 5078
v -1043 4.44508 5076
v -1043 4.36082 5074
v -1043 4.28537 5072
v -1043 4.21025 5070
v -1043 4.13492 5068
v -1043 4.03606 5066
v -1043 3.93837 5064
v -1043 3.86405 5062
v -1041 5.27203 5124
v -1041 5.25433 5122
v -1041 5.235 5120
v -1041 5.21405 5118
v -1041 5.19145 5116
v -1041 5.1672 5114
v -1041 5.14127 5112
v -1041 5.11368 5110
v -1041 5.08439 5108
v -1041 5.05339 5106
v -1041 5.02068 5104
v -1041 4.98619 5102
v -1041 4.94926 5100
v -1041 4.90942 5098
v -1041 4.86744 5096
v -1041 4.82167 5094
v -1041 4.77269 5092
v -1041 4.71828 5090
v -1041 4.667 5088
v -1041 4.61369 5086
v -1041 4.54675 5084
v -1041 4.46961 5082
v -1041 4.39702 5080
v -1041 4.31675 5078
v -1041 4.24568 5076
v -1041 4.15676 5074
v -1041 4.08351 5072
v -1041 4.01541 5070
v -1041 3.89405 5068
v -1041 3.79038 5066
v -1041 3.7013 5064
v -1041 3.62889 5062
v -1039 5.12483 5124
v -1039 5.10694 5122
v -1039 5.08742 5120
v -1039 5.06628 5118
v -1039 5.04349 5116
v -1039 5.01906 5114
v -1039 4.99294 5112
v -1039 4.96479 5110
v -1039 4.9342 5108
v -1039 4.90154 5106
v -1039 4.86657 5104
v -1039 4.82909 5102
v -1039 4.78754 5100
v -1039 4.74437 5098
v -1039 4.69939 5096
v -1039 4.64651 5094
v -1039 4.59088 5092
v -1039 4.52887 5090
v -1039 4.48527 5088
v -1039 4.41814 5086
v -1039 4.33541 5084
v -1039 4.25756 5082
v -1039 4.18414 5080
v -1039 4.09168 5078
v -1039 4.03088 5076
v -1039 3.98118 5074
v -1039 3.87961 5072
v -1039 3.72353 5070
v -1039 3.59281 5068
v -1039 3.52402 5066
v -1039 3.45551 5064
v -1039 3.35986 5062
v -1037 4.97573 5124
v -1037 4.95733 5122
v -1037 4.93713 5120
v -1037 4.91496 5118
v -1037 4.89038 5116
v -1037 4.86404 5114
v -1037 4.83588 5112
v -1037 4.80334 5110
v -1037 4.77087 5108
v -1037 4.73509 5106
v -1037 4.69788 5104
v -1037 4.65565 5102
v -1037 4.61442 5100
v -1037 4.56736 5098
v -1037 4.51405 5096
v -1037 4.44555 5094
v -1037 4.3946 5092
v -1037 4.3305 5090
v -1037 4.29179 5088
v -1037 4.21152 5086
v -1037 4.13001 5084
v -1037 4.01691 5082
v -1037 3.94627 5080
v -1037 3.88356 5078
v -1037 3.83866 5076
v -1037 3.73903 5074
v -1037 3.60378 5072
v -1037 3.44802 5070
v -1037 3.29186 5068
v -1037 3.23409 5066
v -1037 3.22381 5064
v -1037 3.13143 5062
v -1035 4.81617 5124
v -1035 4.79619 5122
v -1035 4.77545 5120
v -1035 4.75166 5118
v -1035 4.72235 5116
v -1035 4.69763 5114
v -1035 4.66139 5112
v -1035 4.62756 5110
v -1035 4.58961 5108
v -1035 4.55026 5106
v -1035 4.51562 5104
v -1035 4.46464 5102
v -1035 4.4184 5100
v -1035 4.35922 5098
v -1035 4.30614 5096
v -1035 4.25525 5094
v -1035 4.19824 5092
v -1035 4.14734 5090
v -1035 4.07758 5088
v -1035 3.98049 5086
v -1035 3.87695 5084
v -1035 3.76557 5082
v -1035 3.71798 5080
v -1035 3.72004 5078
v -1035 3.57796 5076
v -1035 3.46888 5074
v -1035 3.30651 5072
v -1035 3.16767 5070
v -1035 3.0251 5068
v -1035 2.98013 5066
v -1035 3.00844 5064
v -1035 2.72106 5062
v -1033 4.64298 5124
v -1033 4.61963 5122
v -1033 4.59861 5120
v -1033 4.5696 5118
v -1033 4.54598 5116
v -1033 4.51293 5114
v -1033 4.47002 5112
v -1033 4.42525 5110
v -1033 4.38854 5108
v -1033 4.3488 5106
v -1033 4.31866 5104
v -1033 4.26385 5102
v -1033 4.21356 5100
v -1033 4.14608 5098
v -1033 4.11715 5096
v -1033 4.03019 5094
v -1033 3.98224 5092
v -1033 3.89823 5090
v -1033 3.82081 5088
v -1033 3.72397 5086
v -1033 3.65164 5084
v -1033 3.59844 5082
v -1033 3.56773 5080
v -1033 3.43612 5078
v -1033 3.30008 5076
v -1033 3.15204 5074
v -1033 3.00666 5072
v -1033 2.86844 5070
v -1033 2.76934 5068
v -1033 2.72142 5066
v -1033 2.66366 5064
v -1033 2.49998 5062
v -1031 4.45839 5124
v -1031 4.42748 5122
v -1031 4.40501 5120
v -1031 4.3843 5118
v -1031 4.34865 5116
v -1031 4.30127 5114
v -1031 4.25967 5112
v -1031 4.20674 5110
v -1031 4.16994 5108
v -1031 4.12955 5106
v -1031 4.08926 5104
v -1031 4.05234 5102
v -1031 3.99591 5100
v -1031 3.94582 5098
v -1031 3.86919 5096
v -1031 3.77856 5094
v -1031 3.6686 5092
v -1031 3.58223 5090
v -1031 3.5447 5088
v -1031 3.47426 5086
v -1031 3.42966 5084
v -1031 3.38071 5082
v -1031 3.27274 5080
v -1031 3.12186 5078
v -1031 2.97697 5076
v -1031 2.86769 5074
v -1031 2.7586 5072
v -1031 2.5499 5070
v -1031 2.51283 5068
v -1031 2.49515 5066
v -1031 2.33315 5064
v -1031 2.14487 5062
v -1029 4.25726 5124
v -1029 4.22765 5122
v -1029 4.19643 5120
v -1029 4.16845 5118
v -1029 4.1459 5116
v -1029 4.08267 5114
v -1029 4.03211 5112
v -1029 3.98287 5110
v -1029 3.94278 5108
v -1029 3.90128 5106
v -1029 3.8802 5104
v -1029 3.83015 5102
v -1029 3.77067 5100
v -1029 3.6382 5098
v -1029 3.58658 5096
v -1029 3.46969 5094
v -1029 3.39202 5092
v -1029 3.31425 5090
v -1029 3.27559 5088
v -1029 3.17307 5086
v -1029 3.18858 5084
v -1029 2.99174 5082
v -1029 2.86415 5080
v -1029 2.77143 5078
v -1029 2.69983 5076
v -1029 2.59861 5074
v -1029 2.48295 5072
v -1029 2.41652 5070
v -1029 2.29917 5068
v -1029 2.16994 5066
v -1029 1.99664 5064
v -1029 1.7856 5062
v -1027 4.04281 5124
v -1027 4.00012 5122
v -1027 3.94963 5120
v -1027 3.92056 5118
v -1027 3.89223 5116
v -1027 3.89632 5114
v -1027 3.7746 5112
v -1027 3.73854 5110
v -1027 3.72293 5108
v -1027 3.64875 5106
v -1027 3.59685 5104
v -1027 3.58678 5102
v -1027 3.47447 5100
v -1027 3.35288 5098
v -1027 3.28612 5096
v -1027 3.19031 5094
v -1027 3.02402 5092
v -1027 2.95938 5090
v -1027 2.9297 5088
v -1027 2.86927 5086
v -1027 2.79319 5084
v -1027 2.59638 5082
v -1027 2.46634 5080
v -1027 2.42554 5078
v -1027 2.34542 5076
v -1027 2.30771 5074
v -1027 2.23893 5072
v -1027 2.2505 5070
v -1027 1.93881 5068
v -1027 1.75539 5066
v -1027 1.74811 5064
v -1027 1.45224 5062
v -1025 3.79542 5124
v -1025 3.72211 5122
v -1025 3.68559 5120
v -1025 3.66169 5118
v -1025 3.63786 5116
v -1025 3.62613 5114
v -1025 3.61531 5112
v -1025 3.53652 5110
v -1025 3.51714 5108
v -1025 3.43469 5106
v -1025 3.37234 5104
v -1025 3.27998 5102
v -1025 3.28155 5100
v -1025 3.16345 5098
v -1025 3.05115 5096
v -1025 2.84208 5094
v -1025 2.82793 5092
v -1025 2.77655 5090
v -1025 2.80652 5088
v -1025 2.59313 5086
v -1025 2.37952 5084
v -1025 2.22457 5082
v -1025 2.10263 5080
v -1025 2.0885 5078
v -1025 2.22065 5076
v -1025 2.15803 5074
v -1025 1.96815 5072
v -1025 1.84041 5070
v -1025 1.6692 5068
v -1025 1.55559 5066
v -1025 1.44792 5064
v -1025 1.31903 5062
v -1023 3.49647 5124
v -1023 3.43097 5122
v -1023 3.37377 5120
v -1023 3.30719 5118
v -1023 3.32551 5116
v -1023 3.29501 5114
v -1023 3.32715 5112
v -1023 3.24426 5110
v -1023 3.13265 5108
v -1023 3.0853 5106
v -1023 2.91196 5104
v -1023 2.87561 5102
v -1023 2.81095 5100
v -1023 2.87585 5098
v -1023 2.84826 5096
v -1023 2.54608 5094
v -1023 2.4893 5092
v -1023 2.56828 5090
v -1023 2.48203 5088
v -1023 2.23738 5086
v -1023 1.93938 5084
v -1023 1.72658 5082
v -1023 1.72587 5080
v -1023 1.76742 5078
v -1023 1.91155 5076
v -1023 1.73526 5074
v -1023 1.53075 5072
v -1023 1.40978 5070
v -1023 1.40441 5068
v -1023 0.964974 5066
v -1023 1.00077 5064
v -1023 0.762594 5062
v -1021 3.21375 5124
v -1021 3.13336 5122
v -1021 2.99993 5120
v -1021 2.93711 5118
v -1021 2.97031 5116
v -1021 2.96384 5114
v -1021 3.01623 5112
v -1021 2.97746 5110
v -1021 2.90111 5108
v -1021 2.72917 5106
v -1021 2.63675 5104
v -1021 2.4594 5102
v -1021 2.41155 5100
v -1021 2.43608 5098
v -1021 2.49483 5096
v -1021 2.3408 5094
v -1021 2.33246 5092
v -1021 2.16998 5090
v -1021 2.16754 5088
v -1021 1.92334 5086
v -1021 1.68812 5084
v -1021 1.39666 5082
v -1021 1.41819 5080
v -1021 1.44273 5078
v -1021 1.60592 5076
v -1021 1.39341 5074
v -1021 1.24896 5072
v -1021 1.26803 5070
v -1021 1.13174 5068
v -1021 0.835046 5066
v -1021 0.419944 5064
v -1021 0.255487 5062
v -1019 2.88317 5124
v -1019 2.70487 5122
v -1019 2.61281 5120
v -1019 2.6548 5118
v -1019 2.63273 5116
v -1019 2.59767 5114
v -1019 2.69407 5112
v -1019 2.70354 5110
v -1019 2.63035 5108
v -1019 2.46026 5106
v -1019 2.25247 5104
v -1019 2.01483 5102
v -1019 1.92028 5100
v -1019 1.92215 5098
v -1019 2.00295 5096
v -1019 2.06569 5094
v -1019 2.06726 5092
v -1019 1.90715 5090
v -1019 1.88822 5088
v -1019 1.61686 5086
v -1019 1.28827 5084
v -1019 0.968188 5082
v -1019 0.788739 5080
v -1019 1.0807 5078
v -1019 1.41516 5076
v -1019 1.01578 5074
v -1019 0.87151 5072
v -1019 0.870069 5070
v -1019 0.744684 5068
v -1019 0.334237 5066
v -1019 -0.0305971 5064
v -1019 -0.338025 5062
v -1017 2.52997 5124
v -1017 2.40642 5122
v -1017 2.31697 5120
v -1017 2.30517 5118
v -1017 2.38658 5116
v -1017 2.40752 5114
v -1017 2.40422 5112
v -1017 2.23592 5110
v -1017 2.29201 5108
v -1017 2.13582 5106
v -1017 2.04101 5104
v -1017 1.58976 5102
v -1017 1.6025 5100
v -1017 1.59196 5098
v -1017 1.67906 5096
v -1017 1.80203 5094
v -1017 1.72741 5092
v -1017 1.37004 5090
v -1017 1.45465 5088
v -1017 1.16639 5086
v -1017 0.92327 5084
v -1017 0.55229 5082
v -1017 0.540045 5080
v -1017 0.725554 5078
v -1017 0.898369 5076
v -1017 0.717803 5074
v -1017 0.43115 5072
v -1017 0.135067 5070
v -1017 0.0554497 5068
v -1017 0.34352 5066
v -1017 -0.322174 5064
v -1017 -0.80534 5062
v -1015 2.29599 5124
v -1015 2.11848 5122
v -1015 2.04365 5120
v -1015 1.96695 5118
v -1015 2.03641 5116
v -1015 2.20521 5114
v -1015 2.02338 5112
v -1015 1.79853 5110
v -1015 1.80246 5108
v -1015 1.80058 5106
v -1015 1.89299 5104
v -1015 1.4128 5102
v -1015 1.31872 5100
v -1015 1.33221 5098
v -1015 1.45336 5096
v -1015 1.55036 5094
v -1015 1.36058 5092
v -1015 0.90735 5090
v -1015 0.794935 5088
v -1015 1.00749 5086
v -1015 0.280416 5084
v -1015 0.0212995 5082
v -1015 -0.0458173 5080
v -1015 0.125419 5078
v -1015 0.481845 5076
v -1015 0.0809267 5074
v -1015 -0.318144 5072
v -1015 -0.39677 5070
v -1015 -0.606268 5068
v -1015 -0.399202 5066
v -1015 -0.586957 5064
v -1015 -1.10841 5062
v -1013 2.10404 5124
v -1013 1.89535 5122
v -1013 1.76233 5120
v -1013 1.62882 5118
v -1013 1.79957 5116
v -1013 1.71358 5114
v -1013 1.77609 5112
v -1013 1.58402 5110
v -1013 1.40763 5108
v -1013 1.35366 5106
v -1013 1.3226 5104
v -1013 1.30071 5102
v -1013 1.237 5100
v -1013 1.20785 5098
v -1013 1.28151 5096
v -1013 0.970205 5094
v -1013 0.957811 5092
v -1013 0.708 5090
v -1013 0.697337 5088
v -1013 0.451358 5086
v -1013 0.0419133 5084
v -1013 -0.567849 5082
v -1013 -0.585857 5080
v -1013 -0.317909 5078
v -1013 -0.0632113 5076
v -1013 -0.201212 5074
v -1013 -0.84852 5072
v -1013 -1.22947 5070
v -1013 -1.64816 5068
v -1013 -1.1138 5066
v -1013 -0.788915 5064
v -1013 -0.78851 5062
v -1011 1.78775 5124
v -1011 1.71124 5122
v -1011 1.39854 5120
v -1011 1.26566 5118
v -1011 1.26404 5116
v -1011 1.15813 5114
v -1011 1.24189 5112
v -1011 1.35735 5110
v -1011 1.03063 5108
v -1011 0.814845 5106
v -1011 0.69941 5104
v -1011 0.543212 5102
v -1011 0.583022 5100
v -1011 0.689941 5098
v -1011 0.693868 5096
v -1011 0.461345 5094
v -1011 0.49571 5092
v -1011 0.425015 5090
v -1011 0.266281 5088
v -1011 -0.0910774 5086
v -1011 -0.745328 5084
v -1011 -0.899052 5082
v -1011 -1.18033 5080
v -1011 -0.987838 5078
v -1011 -0.591799 5076
v -1011 -0.701125 5074
v -1011 -1.1651 5072
v -1011 -1.78202 5070
v -1011 -1.74299 5068
v -1011 -2.004 5066
v -1011 -1.46348 5064
v -1011 -1.31229 5062
v -1009 1.24527 5124
v -1009 1.37519 5122
v -1009 1.23353 5120
v -1009 0.968079 5118
v -1009 0.73369 5116
v -1009 0.462223 5114
v -1009 0.48147 5112
v -1009 0.545309 5110
v -1009 0.695717 5108
v -1009 0.377245 5106
v -1009 0.00916648 5104
v -1009 -0.488433 5102
v -1009 -0.213116 5100
v -1009 -0.323809 5098
v -1009 -0.180371 5096
v -1009 -0.0502192 5094
v -1009 -0.0902381 5092
v -1009 -0.125659 5090
v -1009 -0.210959 5088
v -1009 -0.680317 5086
v -1009 -1.26179 5084
v -1009 -1.7723 5082
v -1009 -1.9465 5080
v -1009 -1.80209 5078
v -1009 -1.35937 5076
v -1009 -0.609216 5074
v -1009 -1.26154 5072
v -1009 -1.71241 5070
v -1009 -2.15983 5068
v -1009 -2.29033 5066
v -1009 -2.01642 5064
v -1009 -1.75025 5062
v -1007 0.720112 5124
v -1007 0.77804 5122
v -1007 0.94682 5120
v -1007 0.391594 5118
v -1007 0.109057 5116
v -1007 -0.144733 5114
v -1007 -0.340265 5112
v -1007 -0.317469 5110
v -1007 0.444964 5108
v -1007 -0.215449 5106
v -1007 -0.799257 5104
v -1007 -1.18674 5102
v -1007 -1.16203 5100
v -1007 -1.0594 5098
v -1007 -0.947082 5096
v -1007 -0.773123 5094
v -1007 -0.737691 5092
v -1007 -0.844375 5090
v -1007 -0.859763 5088
v -1007 -1.17463 5086
v -1007 -1.83546 5084
v -1007 -2.35183 5082
v -1007 -2.3012 5080
v -1007 -2.37987 5078
v -1007 -1.73754 5076
v -1007 -0.943096 5074
v -1007 -1.20219 5072
v -1007 -2.09753 5070
v -1007 -2.29533 5068
v -1007 -2.44836 5066
v -1007 -2.49049 5064
v -1007 -2.20739 5062
v -1005 0.194713 5124
v -1005 0.16219 5122
v -1005 0.593778 5120
v -1005 0.164863 5118
v -1005 -0.138019 5116
v -1005 -0.517508 5114
v -1005 -0.823044 5112
v -1005 -0.776388 5110
v -1005 -0.108273 5108
v -1005 -0.824634 5106
v -1005 -1.34871 5104
v -1005 -1.52988 5102
v -1005 -1.75245 5100
v -1005 -1.76785 5098
v -1005 -1.63638 5096
v -1005 -1.63607 5094
v -1005 -1.33083 5092
v -1005 -1.00669 5090
v -1005 -0.864932 5088
v -1005 -1.70369 5086
v -1005 -2.29382 5084
v -1005 -2.72059 5082
v -1005 -2.82037 5080
v -1005 -2.44989 5078
v -1005 -1.85798 5076
v -1005 -1.44267 5074
v -1005 -1.34666 5072
v -1005 -2.2545 5070
v -1005 -2.63024 5068
v -1005 -2.32268 5066
v -1005 -2.23914 5064
v -1005 -1.86178 5062
v -1003 0.00535578 5124
v -1003 -0.0681823 5122
v -1003 -0.252512 5120
v -1003 -0.121399 5118
v -1003 -0.380217 5116
v -1003 -0.921896 5114
v -1003 -1.0512 5112
v -1003 -0.921507 5110
v -1003 -0.555717 5108
v -1003 -1.46009 5106
v -1003 -1.57153 5104
v -1003 -1.89635 5102
v -1003 -2.00305 5100
v -1003 -1.97683 5098
v -1003 -1.78137 5096
v -1003 -1.82196 5094
v -1003 -1.69957 5092
v -1003 -1.4138 5090
v -1003 -1.30076 5088
v -1003 -1.64956 5086
v -1003 -2.25922 5084
v -1003 -3.06054 5082
v -1003 -2.87957 5080
v -1003 -2.56964 5078
v -1003 -2.09318 5076
v -1003 -1.56228 5074
v -1003 -1.7462 5072
v -1003 -1.98969 5070
v -1003 -2.14739 5068
v -1003 -2.17013 5066
v -1003 -1.87224 5064
v -1003 -1.5666 5062
v -1001 -0.536575 5124
v -1001 -0.844525 5122
v -1001 -0.678988 5120
v -1001 -0.741708 5118
v -1001 -0.74318 5116
v -1001 -0.978275 5114
v -1001 -1.28458 5112
v -1001 -1.33361 5110
v -1001 -1.27152 5108
v -1001 -1.54726 5106
v -1001 -1.64397 5104
v -1001 -1.55771 5102
v -1001 -1.49814 5100
v -1001 -1.51384 5098
v -1001 -1.55068 5096
v -1001 -2.01445 5094
v -1001 -1.89906 5092
v -1001 -1.90883 5090
v -1001 -1.5533 5088
v -1001 -1.63308 5086
v -1001 -2.42452 5084
v -1001 -2.97835 5082
v -1001 -2.87435 5080
v -1001 -2.52058 5078
v -1001 -1.67131 5076
v -1001 -1.6391 5074
v -1001 -1.84705 5072
v -1001 -2.09085 5070
v -1001 -2.11192 5068
v -1001 -1.94514 5066
v -1001 -1.8737 5064
v -1001 -1.20071 5062
v -999 -0.560547 5124
v -999 -0.988979 5122
v -999 -1.38293 5120
v -999 -1.60965 5118
v -999 -1.28662 5116
v -999 -1.38536 5114
v -999 -1.43031 5112
v -999 -1.84445 5110
v -999 -1.95558 5108
v -999 -1.85663 5106
v -999 -1.6907 5104
v -999 -1.45883 5102
v -999 -1.45987 5100
v -999 -1.42958 5098
v -999 -1.38698 5096
v -999 -1.91656 5094
v -999 -1.95501 5092
v -999 -1.94914 5090
v -999 -1.84205 5088
v -999 -2.18519 5086
v -999 -2.50985 5084
v -999 -2.96859 5082
v -999 -2.49502 5080
v -999 -2.27761 5078
v -999 -1.8079 5076
v -999 -1.77346 5074
v -999 -2.17711 5072
v -999 -2.23415 5070
v -999 -2.08202 5068
v -999 -1.88029 5066
v -999 -1.63025 5064
v -999 -1.35958 5062
v -997 -1.16876 5124
v -997 -1.12358 5122
v -997 -1.24846 5120
v -997 -1.75685 5118
v -997 -1.93445 5116
v -997 -2.03232 5114
v -997 -2.42956 5112
v -997 -2.39881 5110
v -997 -2.57261 5108
v -997 -2.43903 5106
v -997 -2.08953 5104
v -997 -1.62958 5102
v -997 -1.76191 5100
v -997 -1.92736 5098
v -997 -1.777 5096
v -997 -2.0887 5094
v -997 -1.80562 5092
v -997 -2.28415 5090
v -997 -2.39011 5088
v -997 -2.4329 5086
v -997 -2.54981 5084
v -997 -2.37128 5082
v -997 -2.22978 5080
v -997 -1.87888 5078
v -997 -1.72062 5076
v -997 -1.81562 5074
v -997 -2.12609 5072
v -997 -2.05693 5070
v -997 -2.00851 5068
v -997 -1.76113 5066
v -997 -1.51209 5064
v -997 -1.2389 5062
v -995 -1.79627 5124
v -995 -1.48119 5122
v -995 -1.15374 5120
v -995 -1.62351 5118
v -995 -2.14481 5116
v -995 -2.78109 5114
v -995 -2.85037 5112
v -995 -2.96509 5110
v -995 -3.0654 5108
v -995 -2.74904 5106
v -995 -2.5075 5104
v -995 -2.2195 5102
v -995 -2.10405 5100
v -995 -2.02411 5098
v -995 -2.20188 5096
v -995 -2.16329 5094
v -995 -2.14512 5092
v -995 -2.29976 5090
v -995 -2.32136 5088
v -995 -2.52902 5086
v -995 -2.39143 5084
v -995 -2.29462 5082
v -995 -1.97713 5080
v -995 -1.6358 5078
v -995 -1.45113 5076
v -995 -1.64909 5074
v -995 -1.72988 5072
v -995 -1.88269 5070
v -995 -1.77299 5068
v -995 -1.70413 5066
v -995 -1.55053 5064
v -995 -1.22151 5062
v -993 -1.90492 5124
v -993 -1.72329 5122
v -993 -1.68332 5120
v -993 -1.51489 5118
v -993 -2.14536 5116
v -993 -3.06149 5114
v -993 -3.18238 5112
v -993 -3.24461 5110
v -993 -3.36824 5108
v -993 -3.14377 5106
v -993 -2.68575 5104
v -993 -2.38887 5102
v -993 -2.25269 5100
v -993 -1.89978 5098
v -993 -2.12179 5096
v -993 -1.97088 5094
v -993 -2.25117 5092
v -993 -2.23995 5090
v -993 -2.54119 5088
v -993 -2.45162 5086
v -993 -2.24799 5084
v -993 -1.81921 5082
v -993 -1.73274 5080
v -993 -1.57982 5078
v -993 -1.37023 5076
v -993 -1.55447 5074
v -993 -1.63724 5072
v -993 -1.49825 5070
v -993 -1.50989 5068
v -993 -1.45019 5066
v -993 -1.37638 5064
v -993 -1.26948 5062
v -991 -1.90295 5124
v -991 -2.02141 5122
v -991 -2.21083 5120
v -991 -2.38968 5118
v -991 -1.71014 5116
v -991 -2.42343 5114
v -991 -2.75926 5112
v -991 -2.91552 5110
v -991 -2.99201 5108
v -991 -3.13883 5106
v -991 -2.54743 5104
v -991 -2.23029 5102
v -991 -2.01381 5100
v -991 -2.07363 5098
v -991 -1.79359 5096
v -991 -1.91832 5094
v -991 -2.02026 5092
v -991 -2.19028 5090
v -991 -2.11419 5088
v -991 -2.03759 5086
v -991 -1.71854 5084
v -991 -1.734 5082
v -991 -1.71995 5080
v -991 -1.55453 5078
v -991 -1.37255 5076
v -991 -1.45685 5074
v -991 -1.39624 5072
v -991 -1.27904 5070
v -991 -1.35548 5068
v -991 -1.49497 5066
v -991 -1.46819 5064
v -991 -1.3583 5062
v -989 -1.78462 5124
v -989 -2.00815 5122
v -989 -2.43236 5120
v -989 -2.75507 5118
v -989 -2.05367 5116
v -989 -1.84505 5114
v -989 -2.08396 5112
v -989 -2.33168 5110
v -989 -2.43184 5108
v -989 -2.60967 5106
v -989 -2.35927 5104
v -989 -2.11225 5102
v -989 -1.78463 5100
v -989 -1.71896 5098
v -989 -1.78592 5096
v -989 -1.95503 5094
v -989 -1.96739 5092
v -989 -1.94827 5090
v -989 -1.79808 5088
v -989 -1.75983 5086
v -989 -1.67126 5084
v -989 -1.88544 5082
v -989 -1.84442 5080
v -989 -1.65558 5078
v -989 -1.33721 5076
v -989 -1.35276 5074
v -989 -1.45352 5072
v -989 -1.33456 5070
v -989 -1.39804 5068
v -989 -1.51944 5066
v -989 -1.50024 5064
v -989 -1.49296 5062
v -987 -1.35039 5124
v -987 -1.88687 5122
v -987 -2.24095 5120
v -987 -2.5258 5118
v -987 -2.28567 5116
v -987 -1.95511 5114
v -987 -1.60973 5112
v -987 -1.94343 5110
v -987 -1.98 5108
v -987 -2.00292 5106
v -987 -1.86539 5104
v -987 -1.93406 5102
v -987 -1.5896 5100
v -987 -1.76173 5098
v -987 -1.74613 5096
v -987 -1.68817 5094
v -987 -1.61876 5092
v -987 -1.7852 5090
v -987 -1.53729 5088
v -987 -1.66391 5086
v -987 -1.77574 5084
v -987 -1.79298 5082
v -987 -1.84228 5080
v -987 -1.67288 5078
v -987 -1.49434 5076
v -987 -1.58002 5074
v -987 -1.70941 5072
v -987 -1.55909 5070
v -987 -1.47447 5068
v -987 -1.53128 5066
v -987 -1.71973 5064
v -987 -1.57307 5062
v -985 -1.25331 5124
v -985 -1.6817 5122
v -985 -1.86893 5120
v -985 -2.12143 5118
v -985 -2.36425 5116
v -985 -2.16866 5114
v -985 -1.7642 5112
v -985 -1.57805 5110
v -985 -1.53183 5108
v -985 -1.59358 5106
v -985 -1.48421 5104
v -985 -1.63204 5102
v -985 -1.74062 5100
v -985 -1.75091 5098
v -985 -1.90805 5096
v -985 -1.74528 5094
v -985 -1.47623 5092
v -985 -1.61328 5090
v -985 -1.59964 5088
v -985 -1.86885 5086
v -985 -2.02612 5084
v -985 -2.20391 5082
v -985 -1.99632 5080
v -985 -1.94789 5078
v -985 -1.77644 5076
v -985 -1.7066 5074
v -985 -1.95917 5072
v -985 -1.66356 5070
v -985 -1.98785 5068
v -985 -1.89432 5066
v -985 -1.84922 5064
v -985 -2.08718 5062
v -983 -1.40768 5124
v -983 -1.37184 5122
v -983 -1.64118 5120
v -983 -1.99675 5118
v -983 -1.95287 5116
v -983 -2.02771 5114
v -983 -1.92151 5112
v -983 -1.73774 5110
v -983 -1.56685 5108
v -983 -1.57112 5106
v -983 -1.43519 5104
v -983 -1.62315 5102
v -983 -1.66243 5100
v -983 -1.759 5098
v -983 -1.76626 5096
v -983 -1.73152 5094
v -983 -1.56865 5092
v -983 -1.67369 5090
v -983 -1.79319 5088
v -983 -2.26704 5086
v -983 -2.31833 5084
v -983 -2.28346 5082
v -983 -2.10791 5080
v -983 -2.15237 5078
v -983 -1.86405 5076
v -983 -1.95306 5074
v -983 -2.00481 5072
v -983 -2.0925 5070
v -983 -2.15202 5068
v -983 -2.04421 5066
v -983 -2.02842 5064
v -983 -2.03292 5062
v -981 -1.2278 5124
v -981 -1.1614 5122
v -981 -1.17731 5120
v -981 -1.41348 5118
v -981 -1.69737 5116
v -981 -1.8704 5114
v -981 -1.89304 5112
v -981 -1.77428 5110
v -981 -1.80222 5108
v -981 -1.5303 5106
v -981 -1.4412 5104
v -981 -1.59036 5102
v -981 -1.71733 5100
v -981 -1.85713 5098
v -981 -2.21031 5096
v -981 -2.26729 5094
v -981 -1.8385 5092
v -981 -1.86999 5090
v -981 -1.91542 5088
v -981 -2.32875 5086
v -981 -2.32295 5084
v -981 -2.28696 5082
v -981 -2.13935 5080
v -981 -1.92225 5078
v -981 -1.94321 5076
v -981 -2.06973 5074
v -981 -2.10849 5072
v -981 -2.25759 5070
v -981 -2.46127 5068
v -981 -2.29881 5066
v -981 -2.15193 5064
v -981 -2.01956 5062
f 373 393 374
f 392 393 373
f 372 392 373
f 354 322 353
f 322 354 324
f 355 324 354
f 354 374 355
f 373 374 354
f 353 373 354
f 372 373 353
f 240 208 239
f 208 240 210
f 241 210 240
f 127 96 126
f 94 126 96
f 126 94 125
f 125 145 126
f 144 145 125
f 144 164 145
f 145 165 146
f 164 165 145
f 126 146 127
f 145 146 126
f 240 260 241
f 259 260 240
f 239 259 240
f 258 259 239
f 259 279 260
f 278 279 259
f 258 278 259
f 96 127 98
f 96 95 94
f 95 96 97
f 98 97 96
f 392 412 393
f 411 412 392
f 391 392 372
f 391 411 392
f 324 323 322
f 323 324 325
f 324 355 326
f 326 325 324
f 210 241 212
f 163 164 144
f 163 183 164
f 164 184 165
f 183 184 164
f 212 211 210
f 209 210 211
f 210 209 208
f 277 278 258
f 278 298 279
f 297 298 278
f 277 297 278
f 410 411 391
f 325 326 327
f 182 183 163
f 211 212 213
f 296 297 277
f 97 98 99
f 53 50 52
f 374 394 375
f 393 394 374
f 356 326 355
f 355 375 356
f 374 375 355
f 146 166 147
f 165 166 146
f 146 147 127
f 242 212 241
f 241 261 242
f 260 261 241
f 260 280 261
f 279 280 260
f 127 147 128
f 128 98 127
f 371 391 372
f 353 320 352
f 320 353 322
f 352 372 353
f 371 372 352
f 257 277 258
f 238 258 239
f 257 258 238
f 239 206 238
f 206 239 208
f 92 125 94
f 125 92 124
f 124 144 125
f 143 144 124
f 143 163 144
f 49 48 47
f 49 50 48
f 51 50 49
f 52 50 51
f 424 423 422
f 425 423 424
f 436 435 434
f 448 447 446
f 393 413 394
f 412 413 393
f 326 356 328
f 328 327 326
f 165 185 166
f 184 185 165
f 98 128 100
f 212 242 214
f 214 213 212
f 279 299 280
f 298 299 279
f 100 99 98
f 390 391 371
f 390 410 391
f 322 321 320
f 321 322 323
f 276 277 257
f 276 296 277
f 207 208 209
f 208 207 206
f 94 93 92
f 93 94 95
f 162 163 143
f 162 182 163
f 436 437 435
f 444 443 442
f 445 443 444
f 449 447 448
f 327 328 329
f 213 214 215
f 99 100 101
f 409 410 390
f 295 296 276
f 181 182 162
f 66 52 65
f 65 52 64
f 375 395 376
f 394 395 375
f 357 328 356
f 356 376 357
f 375 376 356
f 147 167 148
f 166 167 147
f 128 148 129
f 147 148 128
f 129 100 128
f 243 214 242
f 242 262 243
f 261 262 242
f 261 281 262
f 280 281 261
f 370 390 371
f 352 318 351
f 318 352 320
f 351 371 352
f 370 371 351
f 256 276 257
f 237 257 238
f 256 257 237
f 238 204 237
f 204 238 206
f 90 124 92
f 124 90 123
f 123 143 124
f 142 143 123
f 142 162 143
f 394 414 395
f 413 414 394
f 328 357 330
f 330 329 328
f 166 186 167
f 185 186 166
f 100 129 102
f 102 101 100
f 214 243 216
f 216 215 214
f 280 300 281
f 299 300 280
f 92 91 90
f 91 92 93
f 389 390 370
f 389 409 390
f 320 319 318
f 319 320 321
f 275 276 256
f 275 295 276
f 205 206 207
f 206 205 204
f 161 162 142
f 161 181 162
f 329 330 331
f 215 216 217
f 101 102 103
f 408 409 389
f 294 295 275
f 180 181 161
f 68 66 67
f 67 66 65
f 428 427 426
f 429 427 428
f 432 431 430
f 433 431 432
f 436 439 437
f 440 439 436
f 451 447 449
f 451 452 447
f 453 452 451
f 441 439 440
f 612 611 610
f 613 611 612
f 616 615 614
f 617 615 616
f 622 621 620
f 623 621 622
f 626 625 624
f 627 625 626
f 631 632 629
f 633 632 631
f 376 396 377
f 395 396 376
f 358 330 357
f 357 377 358
f 376 377 357
f 148 168 149
f 167 168 148
f 129 149 130
f 148 149 129
f 130 102 129
f 244 216 243
f 243 263 244
f 262 263 243
f 262 282 263
f 281 282 262
f 369 389 370
f 351 316 350
f 316 351 318
f 350 370 351
f 369 370 350
f 255 275 256
f 236 256 237
f 255 256 236
f 237 202 236
f 202 237 204
f 88 123 90
f 123 88 122
f 122 142 123
f 141 142 122
f 141 161 142
f 395 415 396
f 414 415 395
f 330 358 332
f 332 331 330
f 102 130 104
f 104 103 102
f 216 244 218
f 218 217 216
f 281 301 282
f 300 301 281
f 167 187 168
f 186 187 167
f 160 161 141
f 160 180 161
f 388 389 369
f 388 408 389
f 318 317 316
f 317 318 319
f 274 275 255
f 274 294 275
f 203 204 205
f 204 203 202
f 90 89 88
f 89 90 91
f 331 332 333
f 217 218 219
f 103 104 105
f 407 408 388
f 293 294 274
f 179 180 160
f 70 68 69
f 69 68 67
f 620 619 618
f 620 621 619
f 630 629 628
f 631 629 630
f 636 635 634
f 637 635 636
f 377 397 378
f 396 397 377
f 359 332 358
f 358 378 359
f 377 378 358
f 149 169 150
f 168 169 149
f 130 150 131
f 149 150 130
f 131 104 130
f 245 218 244
f 263 283 264
f 282 283 263
f 244 264 245
f 263 264 244
f 368 388 369
f 350 314 349
f 314 350 316
f 349 369 350
f 368 369 349
f 236 200 235
f 200 236 202
f 254 274 255
f 235 255 236
f 254 255 235
f 86 122 88
f 122 86 121
f 121 141 122
f 140 141 121
f 140 160 141
f 168 188 169
f 187 188 168
f 396 416 397
f 415 416 396
f 332 359 334
f 334 333 332
f 104 131 106
f 106 105 104
f 220 219 218
f 218 245 220
f 282 302 283
f 301 302 282
f 387 407 388
f 387 388 368
f 316 315 314
f 315 316 317
f 273 293 274
f 273 274 254
f 201 202 203
f 202 201 200
f 159 160 140
f 159 179 160
f 88 87 86
f 87 88 89
f 333 334 335
f 105 106 107
f 219 220 221
f 406 407 387
f 292 293 273
f 178 179 159
f 72 70 71
f 73 70 72
f 499 506 508
f 499 503 506
f 506 503 505
f 581 579 580
f 584 583 582
f 509 508 507
f 510 508 509
f 499 508 510
f 500 499 498
f 500 503 499
f 499 510 513
f 499 513 515
f 499 515 519
f 519 515 518
f 464 463 462
f 465 463 464
f 468 467 466
f 469 467 468
f 472 471 470
f 585 583 584
f 588 587 586
f 589 587 588
f 505 503 504
f 503 500 502
f 502 500 501
f 512 510 511
f 513 510 512
f 518 515 517
f 517 515 516
f 515 513 514
f 473 471 472
f 476 475 474
f 477 475 476
f 480 479 478
f 481 479 480
f 484 483 482
f 485 483 484
f 488 487 486
f 489 487 488
f 492 491 490
f 493 491 492
f 496 495 494
f 497 495 496
f 568 567 566
f 569 567 568
f 572 571 570
f 573 571 572
f 576 575 574
f 577 575 576
f 580 579 578
f 522 521 520
f 523 521 522
f 526 525 524
f 527 525 526
f 530 529 528
f 531 529 530
f 534 533 532
f 535 533 534
f 538 537 536
f 539 537 538
f 564 563 562
f 565 563 564
f 44 43 42
f 45 43 44
f 46 43 45
f 39 38 37
f 40 38 39
f 33 32 31
f 34 32 33
f 35 34 33
f 36 34 35
f 3 2 1
f 12 11 10
f 6 5 4
f 9 8 7
f 592 591 590
f 593 591 592
f 596 595 594
f 597 595 596
f 600 599 598
f 601 599 600
f 604 603 602
f 605 603 604
f 41 38 40
f 31 30 29
f 32 30 31
f 542 541 540
f 543 541 542
f 544 541 543
f 544 561 541
f 546 561 544
f 549 561 546
f 549 546 548
f 548 546 547
f 546 544 545
f 551 549 550
f 552 549 551
f 552 561 549
f 556 561 554
f 556 554 555
f 555 554 553
f 558 556 557
f 559 556 558
f 556 559 561
f 561 559 560
f 554 561 552
f 27 26 25
f 28 26 27
f 24 23 22
f 15 14 13
f 21 20 19
f 18 17 16
f 29 28 27
f 30 28 29
f 608 607 606
f 609 607 608
f 76 77 75
f 76 75 74
f 416 417 397
f 336 335 334
f 335 336 337
f 221 222 223
f 222 221 220
f 302 303 283
f 108 107 106
f 107 108 109
f 188 189 169
f 386 406 387
f 405 406 386
f 313 314 315
f 272 292 273
f 291 292 272
f 199 200 201
f 158 178 159
f 177 178 158
f 85 86 87
f 397 417 398
f 397 398 378
f 360 334 359
f 334 360 336
f 169 189 170
f 169 170 150
f 246 220 245
f 220 246 222
f 283 303 284
f 283 284 264
f 106 132 108
f 132 106 131
f 86 85 84
f 84 121 86
f 367 387 368
f 386 387 367
f 314 313 312
f 312 349 314
f 198 235 200
f 253 273 254
f 272 273 253
f 200 199 198
f 139 159 140
f 158 159 139
f 378 398 379
f 359 379 360
f 378 379 359
f 264 284 265
f 245 265 246
f 264 265 245
f 131 151 132
f 150 151 131
f 150 170 151
f 120 140 121
f 139 140 120
f 121 84 120
f 349 312 348
f 348 368 349
f 367 368 348
f 235 198 234
f 234 254 235
f 253 254 234
f 79 76 74
f 79 74 78
f 417 418 398
f 338 337 336
f 337 338 339
f 110 109 108
f 109 110 111
f 189 190 170
f 223 224 225
f 224 223 222
f 303 304 284
f 403 405 384
f 384 405 386
f 311 312 313
f 197 198 199
f 270 291 272
f 289 291 270
f 156 177 158
f 175 177 156
f 83 84 85
f 398 418 399
f 398 399 379
f 361 336 360
f 336 361 338
f 108 133 110
f 133 108 132
f 170 190 171
f 170 171 151
f 247 222 246
f 222 247 224
f 284 304 285
f 284 285 265
f 384 386 365
f 365 386 367
f 312 311 310
f 310 348 312
f 270 272 251
f 251 272 253
f 198 197 196
f 196 234 198
f 137 158 139
f 156 158 137
f 84 83 82
f 82 120 84
f 379 399 380
f 360 380 361
f 379 380 360
f 132 152 133
f 151 152 132
f 151 171 152
f 265 285 266
f 246 266 247
f 265 266 246
f 119 139 120
f 137 139 119
f 120 82 119
f 365 367 347
f 347 367 348
f 348 310 347
f 251 253 233
f 233 253 234
f 234 196 233
f 437 439 438
f 451 449 450
f 456 455 454
f 457 455 456
f 460 459 458
f 461 459 460
f 63 79 78
f 63 78 62
f 418 419 399
f 340 339 338
f 339 340 341
f 112 111 110
f 111 112 113
f 190 191 171
f 225 226 227
f 226 225 224
f 304 305 285
f 404 403 385
f 385 403 384
f 309 310 311
f 195 196 197
f 271 289 270
f 290 289 271
f 157 175 156
f 176 175 157
f 81 82 83
f 399 419 400
f 399 400 380
f 362 338 361
f 338 362 340
f 110 134 112
f 134 110 133
f 171 191 172
f 171 172 152
f 248 224 247
f 224 248 226
f 285 305 286
f 285 286 266
f 138 156 137
f 157 156 138
f 385 384 366
f 366 384 365
f 310 309 308
f 308 347 310
f 196 195 194
f 194 233 196
f 252 270 251
f 271 270 252
f 82 81 80
f 80 119 82
f 380 400 381
f 361 381 362
f 380 381 361
f 266 286 267
f 247 267 248
f 266 267 247
f 133 153 134
f 152 153 133
f 152 172 153
f 119 80 118
f 118 137 119
f 138 137 118
f 366 365 346
f 346 365 347
f 347 308 346
f 233 194 232
f 232 251 233
f 252 251 232
f 57 62 55
f 57 63 62
f 61 63 57
f 60 63 61
f 419 420 400
f 342 341 340
f 341 342 343
f 114 113 112
f 113 114 115
f 191 192 172
f 227 228 229
f 228 227 226
f 305 306 286
f 401 421 402
f 420 421 401
f 343 344 345
f 115 116 117
f 173 193 174
f 192 193 173
f 229 230 231
f 287 307 288
f 306 307 287
f 56 55 54
f 57 55 56
f 400 420 401
f 400 401 381
f 363 340 362
f 340 363 342
f 112 135 114
f 135 112 134
f 154 174 155
f 173 174 154
f 172 192 173
f 172 173 153
f 249 226 248
f 226 249 228
f 286 306 287
f 286 287 267
f 382 402 383
f 401 402 382
f 344 343 342
f 342 364 344
f 116 115 114
f 114 136 116
f 230 229 228
f 228 250 230
f 268 288 269
f 287 288 268
f 60 61 59
f 60 59 58
f 381 401 382
f 362 382 363
f 381 382 362
f 153 154 134
f 153 173 154
f 267 287 268
f 248 268 249
f 267 268 248
f 363 383 364
f 382 383 363
f 364 342 363
f 136 114 135
f 135 155 136
f 154 155 135
f 134 154 135
f 250 228 249
f 249 269 250
f 268 269 249
f 651 652 649
f 651 649 650
f 650 649 648
f 680 679 678
f 680 687 679
f 688 687 680
f 651 653 652
f 654 653 651
f 726 725 724
f 723 722 721
f 657 656 655
f 653 709 708
f 653 708 652
f 661 662 656
f 661 656 657
f 688 689 687
f 690 689 688
f 709 711 710
f 709 710 708
f 663 664 662
f 663 662 661
f 690 691 689
f 692 691 690
f 711 714 713
f 711 713 712
f 671 672 664
f 671 664 663
f 692 695 691
f 696 695 692
f 713 716 715
f 714 716 713
f 671 673 672
f 672 673 674
f 694 695 696
f 693 695 694
f 670 673 669
f 674 673 670
f 693 694 686
f 693 686 685
f 715 718 717
f 716 718 715
f 668 669 667
f 670 669 668
f 685 686 684
f 685 684 683
f 717 720 719
f 718 720 717
f 666 667 665
f 668 667 666
f 683 684 682
f 683 682 681
f 719 700 699
f 720 700 719
f 660 665 659
f 666 665 660
f 681 682 676
f 681 676 677
f 640 639 638
f 677 676 675
f 703 702 701
f 697 702 703
f 699 698 697
f 700 698 699
f 647 646 645
f 643 642 641
f 644 642 643
f 660 659 658
f 705 706 707
f 706 705 704
f 707 702 697
f 707 706 702
f 760 728 727
f 727 759 760
f 792 760 759
f 759 791 792
f 824 792 791
f 791 823 824
f 856 824 823
f 823 855 856
f 888 856 855
f 855 887 888
f 920 888 887
f 887 919 920
f 952 920 919
f 919 951 952
f 984 952 951
f 951 983 984
f 1016 984 983
f 983 1015 1016
f 1048 1016 1015
f 1015 1047 1048
f 1080 1048 1047
f 1047 1079 1080
f 1112 1080 1079
f 1079 1111 1112
f 1144 1112 1111
f 1111 1143 1144
f 1176 1144 1143
f 1143 1175 1176
f 1208 1176 1175
f 1175 1207 1208
f 1240 1208 1207
f 1207 1239 1240
f 1272 1240 1239
f 1239 1271 1272
f 1304 1272 1271
f 1271 1303 1304
f 1336 1304 1303
f 1303 1335 1336
f 1368 1336 1335
f 1335 1367 1368
f 1400 1368 1367
f 1367 1399 1400
f 1432 1400 1399
f 1399 1431 1432
f 1464 1432 1431
f 1431 1463 1464
f 1496 1464 1463
f 1463 1495 1496
f 1528 1496 1495
f 1495 1527 1528
f 1560 1528 1527
f 1527 1559 1560
f 1592 1560 1559
f 1559 1591 1592
f 1624 1592 1591
f 1591 1623 1624
f 1656 1624 1623
f 1623 1655 1656
f 1688 1656 1655
f 1655 1687 1688
f 1720 1688 1687
f 1687 1719 1720
f 761 729 728
f 728 760 761
f 793 761 760
f 760 792 793
f 825 793 792
f 792 824 825
f 857 825 824
f 824 856 857
f 889 857 856
f 856 888 889
f 921 889 888
f 888 920 921
f 953 921 920
f 920 952 953
f 985 953 952
f 952 984 985
f 1017 985 984
f 984 1016 1017
f 1049 1017 1016
f 1016 1048 1049
f 1081 1049 1048
f 1048 1080 1081
f 1113 1081 1080
f 1080 1112 1113
f 1145 1113 1112
f 1112 1144 1145
f 1177 1145 1144
f 1144 1176 1177
f 1209 1177 1176
f 1176 1208 1209
f 1241 1209 1208
f 1208 1240 1241
f 1273 1241 1240
f 1240 1272 1273
f 1305 1273 1272
f 1272 1304 1305
f 1337 1305 1304
f 1304 1336 1337
f 1369 1337 1336
f 1336 1368 1369
f 1401 1369 1368
f 1368 1400 1401
f 1433 1401 1400
f 1400 1432 1433
f 1465 1433 1432
f 1432 1464 1465
f 1497 1465 1464
f 1464 1496 1497
f 1529 1497 1496
f 1496 1528 1529
f 1561 1529 1528
f 1528 1560 1561
f 1593 1561 1560
f 1560 1592 1593
f 1625 1593 1592
f 1592 1624 1625
f 1657 1625 1624
f 1624 1656 1657
f 1689 1657 1656
f 1656 1688 1689
f 1721 1689 1688
f 1688 1720 1721
f 762 730 729
f 729 761 762
f 794 762 761
f 761 793 794
f 826 794 793
f 793 825 826
f 858 826 825
f 825 857 858
f 890 858 857
f 857 889 890
f 922 890 889
f 889 921 922
f 954 922 921
f 921 953 954
f 986 954 953
f 953 985 986
f 1018 986 985
f 985 1017 1018
f 1050 1018 1017
f 1017 1049 1050
f 1082 1050 1049
f 1049 1081 1082
f 1114 1082 1081
f 1081 1113 1114
f 1146 1114 1113
f 1113 1145 1146
f 1178 1146 1145
f 1145 1177 1178
f 1210 1178 1177
f 1177 1209 1210
f 1242 1210 1209
f 1209 1241 1242
f 1274 1242 1241
f 1241 1273 1274
f 1306 1274 1273
f 1273 1305 1306
f 1338 1306 1305
f 1305 1337 1338
f 1370 1338 1337
f 1337 1369 1370
f 1402 1370 1369
f 1369 1401 1402
f 1434 1402 1401
f 1401 1433 1434
f 1466 1434 1433
f 1433 1465 1466
f 1498 1466 1465
f 1465 1497 1498
f 1530 1498 1497
f 1497 1529 1530
f 1562 1530 1529
f 1529 1561 1562
f 1594 1562 1561
f 1561 1593 1594
f 1626 1594 1593
f 1593 1625 1626
f 1658 1626 1625
f 1625 1657 1658
f 1690 1658 1657
f 1657 1689 1690
f 1722 1690 1689
f 1689 1721 1722
f 763 731 730
f 730 762 763
f 795 763 762
f 762 794 795
f 827 795 794
f 794 826 827
f 859 827 826
f 826 858 859
f 891 859 858
f 858 890 891
f 923 891 890
f 890 922 923
f 955 923 922
f 922 954 955
f 987 955 954
f 954 986 987
f 1019 987 986
f 986 1018 1019
f 1051 1019 1018
f 1018 1050 1051
f 1083 1051 1050
f 1050 1082 1083
f 1115 1083 1082
f 1082 1114 1115
f 1147 1115 1114
f 1114 1146 1147
f 1179 1147 1146
f 1146 1178 1179
f 1211 1179 1178
f 1178 1210 1211
f 1243 1211 1210
f 1210 1242 1243
f 1275 1243 1242
f 1242 1274 1275
f 1307 1275 1274
f 1274 1306 1307
f 1339 1307 1306
f 1306 1338 1339
f 1371 1339 1338
f 1338 1370 1371
f 1403 1371 1370
f 1370 1402 1403
f 1435 1403 1402
f 1402 1434 1435
f 1467 1435 1434
f 1434 1466 1467
f 1499 1467 1466
f 1466 1498 1499
f 1531 1499 1498
f 1498 1530 1531
f 1563 1531 1530
f 1530 1562 1563
f 1595 1563 1562
f 1562 1594 1595
f 1627 1595 1594
f 1594 1626 1627
f 1659 1627 1626
f 1626 1658 1659
f 1691 1659 1658
f 1658 1690 1691
f 1723 1691 1690
f 1690 1722 1723
f 764 732 731
f 731 763 764
f 796 764 763
f 763 795 796
f 828 796 795
f 795 827 828
f 860 828 827
f 827 859 860
f 892 860 859
f 859 891 892
f 924 892 891
f 891 923 924
f 956 924 923
f 923 955 956
f 988 956 955
f 955 987 988
f 1020 988 987
f 987 1019 1020
f 1052 1020 1019
f 1019 1051 1052
f 1084 1052 1051
f 1051 1083 1084
f 1116 1084 1083
f 1083 1115 1116
f 1148 1116 1115
f 1115 1147 1148
f 1180 1148 1147
f 1147 1179 1180
f 1212 1180 1179
f 1179 1211 1212
f 1244 1212 1211
f 1211 1243 1244
f 1276 1244 1243
f 1243 1275 1276
f 1308 1276 1275
f 1275 1307 1308
f 1340 1308 1307
f 1307 1339 1340
f 1372 1340 1339
f 1339 1371 1372
f 1404 1372 1371
f 1371 1403 1404
f 1436 1404 1403
f 1403 1435 1436
f 1468 1436 1435
f 1435 1467 1468
f 1500 1468 1467
f 1467 1499 1500
f 1532 1500 1499
f 1499 1531 1532
f 1564 1532 1531
f 1531 1563 1564
f 1596 1564 1563
f 1563 1595 1596
f 1628 1596 1595
f 1595 1627 1628
f 1660 1628 1627
f 1627 1659 1660
f 1692 1660 1659
f 1659 1691 1692
f 1724 1692 1691
f 1691 1723 1724
f 765 733 732
f 732 764 765
f 797 765 764
f 764 796 797
f 829 797 796
f 796 828 829
f 861 829 828
f 828 860 861
f 893 861 860
f 860 892 893
f 925 893 892
f 892 924 925
f 957 925 924
f 924 956 957
f 989 957 956
f 956 988 989
f 1021 989 988
f 988 1020 1021
f 1053 1021 1020
f 1020 1052 1053
f 1085 1053 1052
f 1052 1084 1085
f 1117 1085 1084
f 1084 1116 1117
f 1149 1117 1116
f 1116 1148 1149
f 1181 1149 1148
f 1148 1180 1181
f 1213 1181 1180
f 1180 1212 1213
f 1245 1213 1212
f 1212 1244 1245
f 1277 1245 1244
f 1244 1276 1277
f 1309 1277 1276
f 1276 1308 1309
f 1341 1309 1308
f 1308 1340 1341
f 1373 1341 1340
f 1340 1372 1373
f 1405 1373 1372
f 1372 1404 1405
f 1437 1405 1404
f 1404 1436 1437
f 1469 1437 1436
f 1436 1468 1469
f 1501 1469 1468
f 1468 1500 1501
f 1533 1501 1500
f 1500 1532 1533
f 1565 1533 1532
f 1532 1564 1565
f 1597 1565 1564
f 1564 1596 1597
f 1629 1597 1596
f 1596 1628 1629
f 1661 1629 1628
f 1628 1660 1661
f 1693 1661 1660
f 1660 1692 1693
f 1725 1693 1692
f 1692 1724 1725
f 766 734 733
f 733 765 766
f 798 766 765
f 765 797 798
f 830 798 797
f 797 829 830
f 862 830 829
f 829 861 862
f 894 862 861
f 861 893 894
f 926 894 893
f 893 925 926
f 958 926 925
f 925 957 958
f 990 958 957
f 957 989 990
f 1022 990 989
f 989 1021 1022
f 1054 1022 1021
f 1021 1053 1054
f 1086 1054 1053
f 1053 1085 1086
f 1118 1086 1085
f 1085 1117 1118
f 1150 1118 1117
f 1117 1149 1150
f 1182 1150 1149
f 1149 1181 1182
f 1214 1182 1181
f 1181 1213 1214
f 1246 1214 1213
f 1213 1245 1246
f 1278 1246 1245
f 1245 1277 1278
f 1310 1278 1277
f 1277 1309 1310
f 1342 1310 1309
f 1309 1341 1342
f 1374 1342 1341
f 1341 1373 1374
f 1406 1374 1373
f 1373 1405 1406
f 1438 1406 1405
f 1405 1437 1438
f 1470 1438 1437
f 1437 1469 1470
f 1502 1470 1469
f 1469 1501 1502
f 1534 1502 1501
f 1501 1533 1534
f 1566 1534 1533
f 1533 1565 1566
f 1598 1566 1565
f 1565 1597 1598
f 1630 1598 1597
f 1597 1629 1630
f 1662 1630 1629
f 1629 1661 1662
f 1694 1662 1661
f 1661 1693 1694
f 1726 1694 1693
f 1693 1725 1726
f 767 735 734
f 734 766 767
f 799 767 766
f 766 798 799
f 831 799 798
f 798 830 831
f 863 831 830
f 830 862 863
f 895 863 862
f 862 894 895
f 927 895 894
f 894 926 927
f 959 927 926
f 926 958 959
f 991 959 958
f 958 990 991
f 1023 991 990
f 990 1022 1023
f 1055 1023 1022
f 1022 1054 1055
f 1087 1055 1054
f 1054 1086 1087
f 1119 1087 1086
f 1086 1118 1119
f 1151 1119 1118
f 1118 1150 1151
f 1183 1151 1150
f 1150 1182 1183
f 1215 1183 1182
f 1182 1214 1215
f 1247 1215 1214
f 1214 1246 1247
f 1279 1247 1246
f 1246 1278 1279
f 1311 1279 1278
f 1278 1310 1311
f 1343 1311 1310
f 1310 1342 1343
f 1375 1343 1342
f 1342 1374 1375
f 1407 1375 1374
f 1374 1406 1407
f 1439 1407 1406
f 1406 1438 1439
f 1471 1439 1438
f 1438 1470 1471
f 1503 1471 1470
f 1470 1502 1503
f 1535 1503 1502
f 1502 1534 1535
f 1567 1535 1534
f 1534 1566 1567
f 1599 1567 1566
f 1566 1598 1599
f 1631 1599 1598
f 1598 1630 1631
f 1663 1631 1630
f 1630 1662 1663
f 1695 1663 1662
f 1662 1694 1695
f 1727 1695 1694
f 1694 1726 1727
f 768 736 735
f 735 767 768
f 800 768 767
f 767 799 800
f 832 800 799
f 799 831 832
f 864 832 831
f 831 863 864
f 896 864 863
f 863 895 896
f 928 896 895
f 895 927 928
f 960 928 927
f 927 959 960
f 992 960 959
f 959 991 992
f 1024 992 991
f 991 1023 1024
f 1056 1024 1023
f 1023 1055 1056
f 1088 1056 1055
f 1055 1087 1088
f 1120 1088 1087
f 1087 1119 1120
f 1152 1120 1119
f 1119 1151 1152
f 1184 1152 1151
f 1151 1183 1184
f 1216 1184 1183
f 1183 1215 1216
f 1248 1216 1215
f 1215 1247 1248
f 1280 1248 1247
f 1247 1279 1280
f 1312 1280 1279
f 1279 1311 1312
f 1344 1312 1311
f 1311 1343 1344
f 1376 1344 1343
f 1343 1375 1376
f 1408 1376 1375
f 1375 1407 1408
f 1440 1408 1407
f 1407 1439 1440
f 1472 1440 1439
f 1439 1471 1472
f 1504 1472 1471
f 1471 1503 1504
f 1536 1504 1503
f 1503 1535 1536
f 1568 1536 1535
f 1535 1567 1568
f 1600 1568 1567
f 1567 1599 1600
f 1632 1600 1599
f 1599 1631 1632
f 1664 1632 1631
f 1631 1663 1664
f 1696 1664 1663
f 1663 1695 1696
f 1728 1696 1695
f 1695 1727 1728
f 769 737 736
f 736 768 769
f 801 769 768
f 768 800 801
f 833 801 800
f 800 832 833
f 865 833 832
f 832 864 865
f 897 865 864
f 864 896 897
f 929 897 896
f 896 928 929
f 961 929 928
f 928 960 961
f 993 961 960
f 960 992 993
f 1025 993 992
f 992 1024 1025
f 1057 1025 1024
f 1024 1056 1057
f 1089 1057 1056
f 1056 1088 1089
f 1121 1089 1088
f 1088 1120 1121
f 1153 1121 1120
f 1120 1152 1153
f 1185 1153 1152
f 1152 1184 1185
f 1217 1185 1184
f 1184 1216 1217
f 1249 1217 1216
f 1216 1248 1249
f 1281 1249 1248
f 1248 1280 1281
f 1313 1281 1280
f 1280 1312 1313
f 1345 1313 1312
f 1312 1344 1345
f 1377 1345 1344
f 1344 1376 1377
f 1409 1377 1376
f 1376 1408 1409
f 1441 1409 1408
f 1408 1440 1441
f 1473 1441 1440
f 1440 1472 1473
f 1505 1473 1472
f 1472 1504 1505
f 1537 1505 1504
f 1504 1536 1537
f 1569 1537 1536
f 1536 1568 1569
f 1601 1569 1568
f 1568 1600 1601
f 1633 1601 1600
f 1600 1632 1633
f 1665 1633 1632
f 1632 1664 1665
f 1697 1665 1664
f 1664 1696 1697
f 1729 1697 1696
f 1696 1728 1729
f 770 738 737
f 737 769 770
f 802 770 769
f 769 801 802
f 834 802 801
f 801 833 834
f 866 834 833
f 833 865 866
f 898 866 865
f 865 897 898
f 930 898 897
f 897 929 930
f 962 930 929
f 929 961 962
f 994 962 961
f 961 993 994
f 1026 994 993
f 993 1025 1026
f 1058 1026 1025
f 1025 1057 1058
f 1090 1058 1057
f 1057 1089 1090
f 1122 1090 1089
f 1089 1121 1122
f 1154 1122 1121
f 1121 1153 1154
f 1186 1154 1153
f 1153 1185 1186
f 1218 1186 1185
f 1185 1217 1218
f 1250 1218 1217
f 1217 1249 1250
f 1282 1250 1249
f 1249 1281 1282
f 1314 1282 1281
f 1281 1313 1314
f 1346 1314 1313
f 1313 1345 1346
f 1378 1346 1345
f 1345 1377 1378
f 1410 1378 1377
f 1377 1409 1410
f 1442 1410 1409
f 1409 1441 1442
f 1474 1442 1441
f 1441 1473 1474
f 1506 1474 1473
f 1473 1505 1506
f 1538 1506 1505
f 1505 1537 1538
f 1570 1538 1537
f 1537 1569 1570
f 1602 1570 1569
f 1569 1601 1602
f 1634 1602 1601
f 1601 1633 1634
f 1666 1634 1633
f 1633 1665 1666
f 1698 1666 1665
f 1665 1697 1698
f 1730 1698 1697
f 1697 1729 1730
f 771 739 738
f 738 770 771
f 803 771 770
f 770 802 803
f 835 803 802
f 802 834 835
f 867 835 834
f 834 866 867
f 899 867 866
f 866 898 899
f 931 899 898
f 898 930 931
f 963 931 930
f 930 962 963
f 995 963 962
f 962 994 995
f 1027 995 994
f 994 1026 1027
f 1059 1027 1026
f 1026 1058 1059
f 1091 1059 1058
f 1058 1090 1091
f 1123 1091 1090
f 1090 1122 1123
f 1155 1123 1122
f 1122 1154 1155
f 1187 1155 1154
f 1154 1186 1187
f 1219 1187 1186
f 1186 1218 1219
f 1251 1219 1218
f 1218 1250 1251
f 1283 1251 1250
f 1250 1282 1283
f 1315 1283 1282
f 1282 1314 1315
f 1347 1315 1314
f 1314 1346 1347
f 1379 1347 1346
f 1346 1378 1379
f 1411 1379 1378
f 1378 1410 1411
f 1443 1411 1410
f 1410 1442 1443
f 1475 1443 1442
f 1442 1474 1475
f 1507 1475 1474
f 1474 1506 1507
f 1539 1507 1506
f 1506 1538 1539
f 1571 1539 1538
f 1538 1570 1571
f 1603 1571 1570
f 1570 1602 1603
f 1635 1603 1602
f 1602 1634 1635
f 1667 1635 1634
f 1634 1666 1667
f 1699 1667 1666
f 1666 1698 1699
f 1731 1699 1698
f 1698 1730 1731
f 772 740 739
f 739 771 772
f 804 772 771
f 771 803 804
f 836 804 803
f 803 835 836
f 868 836 835
f 835 867 868
f 900 868 867
f 867 899 900
f 932 900 899
f 899 931 932
f 964 932 931
f 931 963 964
f 996 964 963
f 963 995 996
f 1028 996 995
f 995 1027 1028
f 1060 1028 1027
f 1027 1059 1060
f 1092 1060 1059
f 1059 1091 1092
f 1124 1092 1091
f 1091 1123 1124
f 1156 1124 1123
f 1123 1155 1156
f 1188 1156 1155
f 1155 1187 1188
f 1220 1188 1187
f 1187 1219 1220
f 1252 1220 1219
f 1219 1251 1252
f 1284 1252 1251
f 1251 1283 1284
f 1316 1284 1283
f 1283 1315 1316
f 1348 1316 1315
f 1315 1347 1348
f 1380 1348 1347
f 1347 1379 1380
f 1412 1380 1379
f 1379 1411 1412
f 1444 1412 1411
f 1411 1443 1444
f 1476 1444 1443
f 1443 1475 1476
f 1508 1476 1475
f 1475 1507 1508
f 1540 1508 1507
f 1507 1539 1540
f 1572 1540 1539
f 1539 1571 1572
f 1604 1572 1571
f 1571 1603 1604
f 1636 1604 1603
f 1603 1635 1636
f 1668 1636 1635
f 1635 1667 1668
f 1700 1668 1667
f 1667 1699 1700
f 1732 1700 1699
f 1699 1731 1732
f 773 741 740
f 740 772 773
f 805 773 772
f 772 804 805
f 837 805 804
f 804 836 837
f 869 837 836
f 836 868 869
f 901 869 868
f 868 900 901
f 933 901 900
f 900 932 933
f 965 933 932
f 932 964 965
f 997 965 964
f 964 996 997
f 1029 997 996
f 996 1028 1029
f 1061 1029 1028
f 1028 1060 1061
f 1093 1061 1060
f 1060 1092 1093
f 1125 1093 1092
f 1092 1124 1125
f 1157 1125 1124
f 1124 1156 1157
f 1189 1157 1156
f 1156 1188 1189
f 1221 1189 1188
f 1188 1220 1221
f 1253 1221 1220
f 1220 1252 1253
f 1285 1253 1252
f 1252 1284 1285
f 1317 1285 1284
f 1284 1316 1317
f 1349 1317 1316
f 1316 1348 1349
f 1381 1349 1348
f 1348 1380 1381
f 1413 1381 1380
f 1380 1412 1413
f 1445 1413 1412
f 1412 1444 1445
f 1477 1445 1444
f 1444 1476 1477
f 1509 1477 1476
f 1476 1508 1509
f 1541 1509 1508
f 1508 1540 1541
f 1573 1541 1540
f 1540 1572 1573
f 1605 1573 1572
f 1572 1604 1605
f 1637 1605 1604
f 1604 1636 1637
f 1669 1637 1636
f 1636 1668 1669
f 1701 1669 1668
f 1668 1700 1701
f 1733 1701 1700
f 1700 1732 1733
f 774 742 741
f 741 773 774
f 806 774 773
f 773 805 806
f 838 806 805
f 805 837 838
f 870 838 837
f 837 869 870
f 902 870 869
f 869 901 902
f 934 902 901
f 901 933 934
f 966 934 933
f 933 965 966
f 998 966 965
f 965 997 998
f 1030 998 997
f 997 1029 1030
f 1062 1030 1029
f 1029 1061 1062
f 1094 1062 1061
f 1061 1093 1094
f 1126 1094 1093
f 1093 1125 1126
f 1158 1126 1125
f 1125 1157 1158
f 1190 1158 1157
f 1157 1189 1190
f 1222 1190 1189
f 1189 1221 1222
f 1254 1222 1221
f 1221 1253 1254
f 1286 1254 1253
f 1253 1285 1286
f 1318 1286 1285
f 1285 1317 1318
f 1350 1318 1317
f 1317 1349 1350
f 1382 1350 1349
f 1349 1381 1382
f 1414 1382 1381
f 1381 1413 1414
f 1446 1414 1413
f 1413 1445 1446
f 1478 1446 1445
f 1445 1477 1478
f 1510 1478 1477
f 1477 1509 1510
f 1542 1510 1509
f 1509 1541 1542
f 1574 1542 1541
f 1541 1573 1574
f 1606 1574 1573
f 1573 1605 1606
f 1638 1606 1605
f 1605 1637 1638
f 1670 1638 1637
f 1637 1669 1670
f 1702 1670 1669
f 1669 1701 1702
f 1734 1702 1701
f 1701 1733 1734
f 775 743 742
f 742 774 775
f 807 775 774
f 774 806 807
f 839 807 806
f 806 838 839
f 871 839 838
f 838 870 871
f 903 871 870
f 870 902 903
f 935 903 902
f 902 934 935
f 967 935 934
f 934 966 967
f 999 967 966
f 966 998 999
f 1031 999 998
f 998 1030 1031
f 1063 1031 1030
f 1030 1062 1063
f 1095 1063 1062
f 1062 1094 1095
f 1127 1095 1094
f 1094 1126 1127
f 1159 1127 1126
f 1126 1158 1159
f 1191 1159 1158
f 1158 1190 1191
f 1223 1191 1190
f 1190 1222 1223
f 1255 1223 1222
f 1222 1254 1255
f 1287 1255 1254
f 1254 1286 1287
f 1319 1287 1286
f 1286 1318 1319
f 1351 1319 1318
f 1318 1350 1351
f 1383 1351 1350
f 1350 1382 1383
f 1415 1383 1382
f 1382 1414 1415
f 1447 1415 1414
f 1414 1446 1447
f 1479 1447 1446
f 1446 1478 1479
f 1511 1479 1478
f 1478 1510 1511
f 1543 1511 1510
f 1510 1542 1543
f 1575 1543 1542
f 1542 1574 1575
f 1607 1575 1574
f 1574 1606 1607
f 1639 1607 1606
f 1606 1638 1639
f 1671 1639 1638
f 1638 1670 1671
f 1703 1671 1670
f 1670 1702 1703
f 1735 1703 1702
f 1702 1734 1735
f 776 744 743
f 743 775 776
f 808 776 775
f 775 807 808
f 840 808 807
f 807 839 840
f 872 840 839
f 839 871 872
f 904 872 871
f 871 903 904
f 936 904 903
f 903 935 936
f 968 936 935
f 935 967 968
f 1000 968 967
f 967 999 1000
f 1032 1000 999
f 999 1031 1032
f 1064 1032 1031
f 1031 1063 1064
f 1096 1064 1063
f 1063 1095 1096
f 1128 1096 1095
f 1095 1127 1128
f 1160 1128 1127
f 1127 1159 1160
f 1192 1160 1159
f 1159 1191 1192
f 1224 1192 1191
f 1191 1223 1224
f 1256 1224 1223
f 1223 1255 1256
f 1288 1256 1255
f 1255 1287 1288
f 1320 1288 1287
f 1287 1319 1320
f 1352 1320 1319
f 1319 1351 1352
f 1384 1352 1351
f 1351 1383 1384
f 1416 1384 1383
f 1383 1415 1416
f 1448 1416 1415
f 1415 1447 1448
f 1480 1448 1447
f 1447 1479 1480
f 1512 1480 1479
f 1479 1511 1512
f 1544 1512 1511
f 1511 1543 1544
f 1576 1544 1543
f 1543 1575 1576
f 1608 1576 1575
f 1575 1607 1608
f 1640 1608 1607
f 1607 1639 1640
f 1672 1640 1639
f 1639 1671 1672
f 1704 1672 1671
f 1671 1703 1704
f 1736 1704 1703
f 1703 1735 1736
f 777 745 744
f 744 776 777
f 809 777 776
f 776 808 809
f 841 809 808
f 808 840 841
f 873 841 840
f 840 872 873
f 905 873 872
f 872 904 905
f 937 905 904
f 904 936 937
f 969 937 936
f 936 968 969
f 1001 969 968
f 968 1000 1001
f 1033 1001 1000
f 1000 1032 1033
f 1065 1033 1032
f 1032 1064 1065
f 1097 1065 1064
f 1064 1096 1097
f 1129 1097 1096
f 1096 1128 1129
f 1161 1129 1128
f 1128 1160 1161
f 1193 1161 1160
f 1160 1192 1193
f 1225 1193 1192
f 1192 1224 1225
f 1257 1225 1224
f 1224 1256 1257
f 1289 1257 1256
f 1256 1288 1289
f 1321 1289 1288
f 1288 1320 1321
f 1353 1321 1320
f 1320 1352 1353
f 1385 1353 1352
f 1352 1384 1385
f 1417 1385 1384
f 1384 1416 1417
f 1449 1417 1416
f 1416 1448 1449
f 1481 1449 1448
f 1448 1480 1481
f 1513 1481 1480
f 1480 1512 1513
f 1545 1513 1512
f 1512 1544 1545
f 1577 1545 1544
f 1544 1576 1577
f 1609 1577 1576
f 1576 1608 1609
f 1641 1609 1608
f 1608 1640 1641
f 1673 1641 1640
f 1640 1672 1673
f 1705 1673 1672
f 1672 1704 1705
f 1737 1705 1704
f 1704 1736 1737
f 778 746 745
f 745 777 778
f 810 778 777
f 777 809 810
f 842 810 809
f 809 841 842
f 874 842 841
f 841 873 874
f 906 874 873
f 873 905 906
f 938 906 905
f 905 937 938
f 970 938 937
f 937 969 970
f 1002 970 969
f 969 1001 1002
f 1034 1002 1001
f 1001 1033 1034
f 1066 1034 1033
f 1033 1065 1066
f 1098 1066 1065
f 1065 1097 1098
f 1130 1098 1097
f 1097 1129 1130
f 1162 1130 1129
f 1129 1161 1162
f 1194 1162 1161
f 1161 1193 1194
f 1226 1194 1193
f 1193 1225 1226
f 1258 1226 1225
f 1225 1257 1258
f 1290 1258 1257
f 1257 1289 1290
f 1322 1290 1289
f 1289 1321 1322
f 1354 1322 1321
f 1321 1353 1354
f 1386 1354 1353
f 1353 1385 1386
f 1418 1386 1385
f 1385 1417 1418
f 1450 1418 1417
f 1417 1449 1450
f 1482 1450 1449
f 1449 1481 1482
f 1514 1482 1481
f 1481 1513 1514
f 1546 1514 1513
f 1513 1545 1546
f 1578 1546 1545
f 1545 1577 1578
f 1610 1578 1577
f 1577 1609 1610
f 1642 1610 1609
f 1609 1641 1642
f 1674 1642 1641
f 1641 1673 1674
f 1706 1674 1673
f 1673 1705 1706
f 1738 1706 1705
f 1705 1737 1738
f 779 747 746
f 746 778 779
f 811 779 778
f 778 810 811
f 843 811 810
f 810 842 843
f 875 843 842
f 842 874 875
f 907 875 874
f 874 906 907
f 939 907 906
f 906 938 939
f 971 939 938
f 938 970 971
f 1003 971 970
f 970 1002 1003
f 1035 1003 1002
f 1002 1034 1035
f 1067 1035 1034
f 1034 1066 1067
f 1099 1067 1066
f 1066 1098 1099
f 1131 1099 1098
f 1098 1130 1131
f 1163 1131 1130
f 1130 1162 1163
f 1195 1163 1162
f 1162 1194 1195
f 1227 1195 1194
f 1194 1226 1227
f 1259 1227 1226
f 1226 1258 1259
f 1291 1259 1258
f 1258 1290 1291
f 1323 1291 1290
f 1290 1322 1323
f 1355 1323 1322
f 1322 1354 1355
f 1387 1355 1354
f 1354 1386 1387
f 1419 1387 1386
f 1386 1418 1419
f 1451 1419 1418
f 1418 1450 1451
f 1483 1451 1450
f 1450 1482 1483
f 1515 1483 1482
f 1482 1514 1515
f 1547 1515 1514
f 1514 1546 1547
f 1579 1547 1546
f 1546 1578 1579
f 1611 1579 1578
f 1578 1610 1611
f 1643 1611 1610
f 1610 1642 1643
f 1675 1643 1642
f 1642 1674 1675
f 1707 1675 1674
f 1674 1706 1707
f 1739 1707 1706
f 1706 1738 1739
f 780 748 747
f 747 779 780
f 812 780 779
f 779 811 812
f 844 812 811
f 811 843 844
f 876 844 843
f 843 875 876
f 908 876 875
f 875 907 908
f 940 908 907
f 907 939 940
f 972 940 939
f 939 971 972
f 1004 972 971
f 971 1003 1004
f 1036 1004 1003
f 1003 1035 1036
f 1068 1036 1035
f 1035 1067 1068
f 1100 1068 1067
f 1067 1099 1100
f 1132 1100 1099
f 1099 1131 1132
f 1164 1132 1131
f 1131 1163 1164
f 1196 1164 1163
f 1163 1195 1196
f 1228 1196 1195
f 1195 1227 1228
f 1260 1228 1227
f 1227 1259 1260
f 1292 1260 1259
f 1259 1291 1292
f 1324 1292 1291
f 1291 1323 1324
f 1356 1324 1323
f 1323 1355 1356
f 1388 1356 1355
f 1355 1387 1388
f 1420 1388 1387
f 1387 1419 1420
f 1452 1420 1419
f 1419 1451 1452
f 1484 1452 1451
f 1451 1483 1484
f 1516 1484 1483
f 1483 1515 1516
f 1548 1516 1515
f 1515 1547 1548
f 1580 1548 1547
f 1547 1579 1580
f 1612 1580 1579
f 1579 1611 1612
f 1644 1612 1611
f 1611 1643 1644
f 1676 1644 1643
f 1643 1675 1676
f 1708 1676 1675
f 1675 1707 1708
f 1740 1708 1707
f 1707 1739 1740
f 781 749 748
f 748 780 781
f 813 781 780
f 780 812 813
f 845 813 812
f 812 844 845
f 877 845 844
f 844 876 877
f 909 877 876
f 876 908 909
f 941 909 908
f 908 940 941
f 973 941 940
f 940 972 973
f 1005 973 972
f 972 1004 1005
f 1037 1005 1004
f 1004 1036 1037
f 1069 1037 1036
f 1036 1068 1069
f 1101 1069 1068
f 1068 1100 1101
f 1133 1101 1100
f 1100 1132 1133
f 1165 1133 1132
f 1132 1164 1165
f 1197 1165 1164
f 1164 1196 1197
f 1229 1197 1196
f 1196 1228 1229
f 1261 1229 1228
f 1228 1260 1261
f 1293 1261 1260
f 1260 1292 1293
f 1325 1293 1292
f 1292 1324 1325
f 1357 1325 1324
f 1324 1356 1357
f 1389 1357 1356
f 1356 1388 1389
f 1421 1389 1388
f 1388 1420 1421
f 1453 1421 1420
f 1420 1452 1453
f 1485 1453 1452
f 1452 1484 1485
f 1517 1485 1484
f 1484 1516 1517
f 1549 1517 1516
f 1516 1548 1549
f 1581 1549 1548
f 1548 1580 1581
f 1613 1581 1580
f 1580 1612 1613
f 1645 1613 1612
f 1612 1644 1645
f 1677 1645 1644
f 1644 1676 1677
f 1709 1677 1676
f 1676 1708 1709
f 1741 1709 1708
f 1708 1740 1741
f 782 750 749
f 749 781 782
f 814 782 781
f 781 813 814
f 846 814 813
f 813 845 846
f 878 846 845
f 845 877 878
f 910 878 877
f 877 909 910
f 942 910 909
f 909 941 942
f 974 942 941
f 941 973 974
f 1006 974 973
f 973 1005 1006
f 1038 1006 1005
f 1005 1037 1038
f 1070 1038 1037
f 1037 1069 1070
f 1102 1070 1069
f 1069 1101 1102
f 1134 1102 1101
f 1101 1133 1134
f 1166 1134 1133
f 1133 1165 1166
f 1198 1166 1165
f 1165 1197 1198
f 1230 1198 1197
f 1197 1229 1230
f 1262 1230 1229
f 1229 1261 1262
f 1294 1262 1261
f 1261 1293 1294
f 1326 1294 1293
f 1293 1325 1326
f 1358 1326 1325
f 1325 1357 1358
f 1390 1358 1357
f 1357 1389 1390
f 1422 1390 1389
f 1389 1421 1422
f 1454 1422 1421
f 1421 1453 1454
f 1486 1454 1453
f 1453 1485 1486
f 1518 1486 1485
f 1485 1517 1518
f 1550 1518 1517
f 1517 1549 1550
f 1582 1550 1549
f 1549 1581 1582
f 1614 1582 1581
f 1581 1613 1614
f 1646 1614 1613
f 1613 1645 1646
f 1678 1646 1645
f 1645 1677 1678
f 1710 1678 1677
f 1677 1709 1710
f 1742 1710 1709
f 1709 1741 1742
f 783 751 750
f 750 782 783
f 815 783 782
f 782 814 815
f 847 815 814
f 814 846 847
f 879 847 846
f 846 878 879
f 911 879 878
f 878 910 911
f 943 911 910
f 910 942 943
f 975 943 942
f 942 974 975
f 1007 975 974
f 974 1006 1007
f 1039 1007 1006
f 1006 1038 1039
f 1071 1039 1038
f 1038 1070 1071
f 1103 1071 1070
f 1070 1102 1103
f 1135 1103 1102
f 1102 1134 1135
f 1167 1135 1134
f 1134 1166 1167
f 1199 1167 1166
f 1166 1198 1199
f 1231 1199 1198
f 1198 1230 1231
f 1263 1231 1230
f 1230 1262 1263
f 1295 1263 1262
f 1262 1294 1295
f 1327 1295 1294
f 1294 1326 1327
f 1359 1327 1326
f 1326 1358 1359
f 1391 1359 1358
f 1358 1390 1391
f 1423 1391 1390
f 1390 1422 1423
f 1455 1423 1422
f 1422 1454 1455
f 1487 1455 1454
f 1454 1486 1487
f 1519 1487 1486
f 1486 1518 1519
f 1551 1519 1518
f 1518 1550 1551
f 1583 1551 1550
f 1550 1582 1583
f 1615 1583 1582
f 1582 1614 1615
f 1647 1615 1614
f 1614 1646 1647
f 1679 1647 1646
f 1646 1678 1679
f 1711 1679 1678
f 1678 1710 1711
f 1743 1711 1710
f 1710 1742 1743
f 784 752 751
f 751 783 784
f 816 784 783
f 783 815 816
f 848 816 815
f 815 847 848
f 880 848 847
f 847 879 880
f 912 880 879
f 879 911 912
f 944 912 911
f 911 943 944
f 976 944 943
f 943 975 976
f 1008 976 975
f 975 1007 1008
f 1040 1008 1007
f 1007 1039 1040
f 1072 1040 1039
f 1039 1071 1072
f 1104 1072 1071
f 1071 1103 1104
f 1136 1104 1103
f 1103 1135 1136
f 1168 1136 1135
f 1135 1167 1168
f 1200 1168 1167
f 1167 1199 1200
f 1232 1200 1199
f 1199 1231 1232
f 1264 1232 1231
f 1231 1263 1264
f 1296 1264 1263
f 1263 1295 1296
f 1328 1296 1295
f 1295 1327 1328
f 1360 1328 1327
f 1327 1359 1360
f 1392 1360 1359
f 1359 1391 1392
f 1424 1392 1391
f 1391 1423 1424
f 1456 1424 1423
f 1423 1455 1456
f 1488 1456 1455
f 1455 1487 1488
f 1520 1488 1487
f 1487 1519 1520
f 1552 1520 1519
f 1519 1551 1552
f 1584 1552 1551
f 1551 1583 1584
f 1616 1584 1583
f 1583 1615 1616
f 1648 1616 1615
f 1615 1647 1648
f 1680 1648 1647
f 1647 1679 1680
f 1712 1680 1679
f 1679 1711 1712
f 1744 1712 1711
f 1711 1743 1744
f 785 753 752
f 752 784 785
f 817 785 784
f 784 816 817
f 849 817 816
f 816 848 849
f 881 849 848
f 848 880 881
f 913 881 880
f 880 912 913
f 945 913 912
f 912 944 945
f 977 945 944
f 944 976 977
f 1009 977 976
f 976 1008 1009
f 1041 1009 1008
f 1008 1040 1041
f 1073 1041 1040
f 1040 1072 1073
f 1105 1073 1072
f 1072 1104 1105
f 1137 1105 1104
f 1104 1136 1137
f 1169 1137 1136
f 1136 1168 1169
f 1201 1169 1168
f 1168 1200 1201
f 1233 1201 1200
f 1200 1232 1233
f 1265 1233 1232
f 1232 1264 1265
f 1297 1265 1264
f 1264 1296 1297
f 1329 1297 1296
f 1296 1328 1329
f 1361 1329 1328
f 1328 1360 1361
f 1393 1361 1360
f 1360 1392 1393
f 1425 1393 1392
f 1392 1424 1425
f 1457 1425 1424
f 1424 1456 1457
f 1489 1457 1456
f 1456 1488 1489
f 1521 1489 1488
f 1488 1520 1521
f 1553 1521 1520
f 1520 1552 1553
f 1585 1553 1552
f 1552 1584 1585
f 1617 1585 1584
f 1584 1616 1617
f 1649 1617 1616
f 1616 1648 1649
f 1681 1649 1648
f 1648 1680 1681
f 1713 1681 1680
f 1680 1712 1713
f 1745 1713 1712
f 1712 1744 1745
f 786 754 753
f 753 785 786
f 818 786 785
f 785 817 818
f 850 818 817
f 817 849 850
f 882 850 849
f 849 881 882
f 914 882 881
f 881 913 914
f 946 914 913
f 913 945 946
f 978 946 945
f 945 977 978
f 1010 978 977
f 977 1009 1010
f 1042 1010 1009
f 1009 1041 1042
f 1074 1042 1041
f 1041 1073 1074
f 1106 1074 1073
f 1073 1105 1106
f 1138 1106 1105
f 1105 1137 1138
f 1170 1138 1137
f 1137 1169 1170
f 1202 1170 1169
f 1169 1201 1202
f 1234 1202 1201
f 1201 1233 1234
f 1266 1234 1233
f 1233 1265 1266
f 1298 1266 1265
f 1265 1297 1298
f 1330 1298 1297
f 1297 1329 1330
f 1362 1330 1329
f 1329 1361 1362
f 1394 1362 1361
f 1361 1393 1394
f 1426 1394 1393
f 1393 1425 1426
f 1458 1426 1425
f 1425 1457 1458
f 1490 1458 1457
f 1457 1489 1490
f 1522 1490 1489
f 1489 1521 1522
f 1554 1522 1521
f 1521 1553 1554
f 1586 1554 1553
f 1553 1585 1586
f 1618 1586 1585
f 1585 1617 1618
f 1650 1618 1617
f 1617 1649 1650
f 1682 1650 1649
f 1649 1681 1682
f 1714 1682 1681
f 1681 1713 1714
f 1746 1714 1713
f 1713 1745 1746
f 787 755 754
f 754 786 787
f 819 787 786
f 786 818 819
f 851 819 818
f 818 850 851
f 883 851 850
f 850 882 883
f 915 883 882
f 882 914 915
f 947 915 914
f 914 946 947
f 979 947 946
f 946 978 979
f 1011 979 978
f 978 1010 1011
f 1043 1011 1010
f 1010 1042 1043
f 1075 1043 1042
f 1042 1074 1075
f 1107 1075 1074
f 1074 1106 1107
f 1139 1107 1106
f 1106 1138 1139
f 1171 1139 1138
f 1138 1170 1171
f 1203 1171 1170
f 1170 1202 1203
f 1235 1203 1202
f 1202 1234 1235
f 1267 1235 1234
f 1234 1266 1267
f 1299 1267 1266
f 1266 1298 1299
f 1331 1299 1298
f 1298 1330 1331
f 1363 1331 1330
f 1330 1362 1363
f 1395 1363 1362
f 1362 1394 1395
f 1427 1395 1394
f 1394 1426 1427
f 1459 1427 1426
f 1426 1458 1459
f 1491 1459 1458
f 1458 1490 1491
f 1523 1491 1490
f 1490 1522 1523
f 1555 1523 1522
f 1522 1554 1555
f 1587 1555 1554
f 1554 1586 1587
f 1619 1587 1586
f 1586 1618 1619
f 1651 1619 1618
f 1618 1650 1651
f 1683 1651 1650
f 1650 1682 1683
f 1715 1683 1682
f 1682 1714 1715
f 1747 1715 1714
f 1714 1746 1747
f 788 756 755
f 755 787 788
f 820 788 787
f 787 819 820
f 852 820 819
f 819 851 852
f 884 852 851
f 851 883 884
f 916 884 883
f 883 915 916
f 948 916 915
f 915 947 948
f 980 948 947
f 947 979 980
f 1012 980 979
f 979 1011 1012
f 1044 1012 1011
f 1011 1043 1044
f 1076 1044 1043
f 1043 1075 1076
f 1108 1076 1075
f 1075 1107 1108
f 1140 1108 1107
f 1107 1139 1140
f 1172 1140 1139
f 1139 1171 1172
f 1204 1172 1171
f 1171 1203 1204
f 1236 1204 1203
f 1203 1235 1236
f 1268 1236 1235
f 1235 1267 1268
f 1300 1268 1267
f 1267 1299 1300
f 1332 1300 1299
f 1299 1331 1332
f 1364 1332 1331
f 1331 1363 1364
f 1396 1364 1363
f 1363 1395 1396
f 1428 1396 1395
f 1395 1427 1428
f 1460 1428 1427
f 1427 1459 1460
f 1492 1460 1459
f 1459 1491 1492
f 1524 1492 1491
f 1491 1523 1524
f 1556 1524 1523
f 1523 1555 1556
f 1588 1556 1555
f 1555 1587 1588
f 1620 1588 1587
f 1587 1619 1620
f 1652 1620 1619
f 1619 1651 1652
f 1684 1652 1651
f 1651 1683 1684
f 1716 1684 1683
f 1683 1715 1716
f 1748 1716 1715
f 1715 1747 1748
f 789 757 756
f 756 788 789
f 821 789 788
f 788 820 821
f 853 821 820
f 820 852 853
f 885 853 852
f 852 884 885
f 917 885 884
f 884 916 917
f 949 917 916
f 916 948 949
f 981 949 948
f 948 980 981
f 1013 981 980
f 980 1012 1013
f 1045 1013 1012
f 1012 1044 1045
f 1077 1045 1044
f 1044 1076 1077
f 1109 1077 1076
f 1076 1108 1109
f 1141 1109 1108
f 1108 1140 1141
f 1173 1141 1140
f 1140 1172 1173
f 1205 1173 1172
f 1172 1204 1205
f 1237 1205 1204
f 1204 1236 1237
f 1269 1237 1236
f 1236 1268 1269
f 1301 1269 1268
f 1268 1300 1301
f 1333 1301 1300
f 1300 1332 1333
f 1365 1333 1332
f 1332 1364 1365
f 1397 1365 1364
f 1364 1396 1397
f 1429 1397 1396
f 1396 1428 1429
f 1461 1429 1428
f 1428 1460 1461
f 1493 1461 1460
f 1460 1492 1493
f 1525 1493 1492
f 1492 1524 1525
f 1557 1525 1524
f 1524 1556 1557
f 1589 1557 1556
f 1556 1588 1589
f 1621 1589 1588
f 1588 1620 1621
f 1653 1621 1620
f 1620 1652 1653
f 1685 1653 1652
f 1652 1684 1685
f 1717 1685 1684
f 1684 1716 1717
f 1749 1717 1716
f 1716 1748 1749
f 790 758 757
f 757 789 790
f 822 790 789
f 789 821 822
f 854 822 821
f 821 853 854
f 886 854 853
f 853 885 886
f 918 886 885
f 885 917 918
f 950 918 917
f 917 949 950
f 982 950 949
f 949 981 982
f 1014 982 981
f 981 1013 1014
f 1046 1014 1013
f 1013 1045 1046
f 1078 1046 1045
f 1045 1077 1078
f 1110 1078 1077
f 1077 1109 1110
f 1142 1110 1109
f 1109 1141 1142
f 1174 1142 1141
f 1141 1173 1174
f 1206 1174 1173
f 1173 1205 1206
f 1238 1206 1205
f 1205 1237 1238
f 1270 1238 1237
f 1237 1269 1270
f 1302 1270 1269
f 1269 1301 1302
f 1334 1302 1301
f 1301 1333 1334
f 1366 1334 1333
f 1333 1365 1366
f 1398 1366 1365
f 1365 1397 1398
f 1430 1398 1397
f 1397 1429 1430
f 1462 1430 1429
f 1429 1461 1462
f 1494 1462 1461
f 1461 1493 1494
f 1526 1494 1493
f 1493 1525 1526
f 1558 1526 1525
f 1525 1557 1558
f 1590 1558 1557
f 1557 1589 1590
f 1622 1590 1589
f 1589 1621 1622
f 1654 1622 1621
f 1621 1653 1654
f 1686 1654 1653
f 1653 1685 1686
f 1718 1686 1685
f 1685 1717 1718
f 1750 1718 1717
f 1717 1749 1750
