v -982.146 77.3022 317.267
v -982.146 77.1889 317.751
v -982.53 77.3096 317.321
v -982.646 77.2437 317.564
v -982.231 77.1203 318.032
v -982.502 77.1122 318.03
v -982.397 77.0389 318.295
v -982.146 76.9366 318.783
v -982.146 76.4654 318.783
v -982.297 76.9099 318.783
v -982.646 76.4654 318.783
v -982.484 76.9252 318.783
v -982.646 76.8803 318.783
v -982.189 77.0677 318.043
v -982.146 77.0458 317.966
v -982.211 77.5094 315.922
v -982.286 77.5348 316.207
v -982.646 77.5353 315.961
v -982.537 77.5446 316.207
v -982.575 77.5632 316.469
v -982.338 77.5371 316.67
v -982.532 77.5431 316.672
v -982.571 77.3722 317.166
v -982.246 77.4121 317.032
v -982.472 77.4716 316.922
v -982.146 77.4616 315.771
v -982.146 77.4259 315.861
v -982.248 77.017 318.356
v -982.146 76.9853 318.351
v -982.448 76.9584 318.551
v -982.288 76.941 318.569
v -982.146 76.9487 318.602
v -982.146 76.9448 318.547
v -982.245 77.4707 316.745
v -982.237 77.4564 316.285
v -982.146 77.4244 316.783
v -982.146 77.4003 316.353
v -982.146 76.9366 314.783
v -982.146 76.4654 314.783
v -982.146 76.9223 314.938
v -982.146 77.1871 315.394
v -982.146 77.3484 315.508
v -982.243 77.1994 315.239
v -982.646 77.4617 315.779
v -982.536 77.3671 315.55
v -982.505 77.1764 315.268
v -982.384 77.0188 314.991
v -982.646 77.229 315.547
v -982.297 76.9099 314.783
v -982.646 76.4654 314.783
v -982.484 76.9252 314.783
v -982.646 76.8803 314.783
v -982.646 76.9723 314.942
v -982.646 77.0344 315.269
v -982.646 77.4263 316.202
v -982.646 76.9951 318.433
v -982.646 76.9751 318.208
v -982.646 77.2608 317.115
v -982.646 77.4436 316.562
v -982.646 77.0106 317.931
v -982.646 77.2301 317.377
v -982.646 77.3761 316.875
v -982.828 76.5103 316.971
v -982.953 76.5701 316.947
v -982.84 76.5149 316.894
v -982.995 76.5088 317.004
v -983.021 76.5064 316.927
v -982.98 76.5077 316.872
v -982.901 76.5135 317.01
v -982.976 76.4654 316.994
v -982.997 76.4635 316.932
v -982.964 76.4645 316.888
v -982.851 76.4703 316.906
v -982.849 76.465 316.968
v -982.9 76.4692 316.999
v -981.938 76.4654 315.555
v -982.146 76.543 315.619
v -982.146 76.4654 314.958
v -982.146 76.4654 317.578
v -982.146 76.5276 317.14
v -981.925 76.4654 317.121
v -982.146 76.6425 316.133
v -981.972 76.4654 316.528
v -981.815 76.4654 316.094
v -982.871 76.4654 316.219
v -982.646 76.4654 315.622
v -982.646 76.543 316.283
v -982.646 76.4654 318.242
v -982.885 76.4654 317.785
v -982.646 76.5276 317.804
v -982.646 76.6425 316.797
v -982.834 76.4654 317.192
v -983.004 76.4654 316.758
v -991.372 76.5998 310.623
v -991.385 76.6546 310.09
v -990.923 76.5852 310.444
v -991.116 76.6263 310.107
v -991.665 76.5312 310.649
v -991.764 76.5231 310.397
v -991.971 76.517 310.593
v -992.331 76.4083 311.007
v -992.331 75.9371 311.007
v -992.387 76.3817 310.867
v -992.516 75.9371 310.543
v -992.456 76.3969 310.693
v -992.516 76.352 310.543
v -991.659 76.4787 310.692
v -991.573 76.4567 310.704
v -989.699 76.6755 309.883
v -989.991 76.5545 309.919
v -989.897 76.7014 309.494
v -990.085 76.5643 309.686
v -990.342 76.6922 309.749
v -990.514 76.6999 309.864
v -990.441 76.6939 310.043
v -990.988 76.6306 310.012
v -990.742 76.6463 310.263
v -990.724 76.7058 310.012
v -989.534 76.6277 309.888
v -989.618 76.592 309.921
v -991.972 76.4887 310.753
v -991.93 76.4571 310.847
v -992.227 76.505 310.64
v -992.185 76.4876 310.796
v -992.163 76.4953 310.94
v -992.112 76.4914 310.919
v -990.475 76.6275 310.157
v -990.065 76.468 310.002
v -990.474 76.4936 310.264
v -990.075 76.3569 310.104
v -988.617 76.4083 309.52
v -988.617 75.9371 309.52
v -988.761 76.3614 309.578
v -989.184 76.3263 309.747
v -989.291 76.5825 309.79
v -989.076 76.4335 309.6
v -989.728 76.6958 309.426
v -989.474 76.6012 309.443
v -989.201 76.4106 309.367
v -988.899 76.3699 309.377
v -989.513 76.4631 309.34
v -988.673 76.3817 309.38
v -988.803 75.9371 309.056
v -988.743 76.3969 309.206
v -988.803 76.352 309.056
v -988.951 76.2642 309.115
v -989.254 76.301 309.237
v -990.12 76.3829 309.583
v -992.191 76.4668 310.413
v -991.983 76.4468 310.329
v -990.968 76.4949 309.923
v -990.455 76.6003 309.717
v -991.725 76.4215 310.226
v -991.211 76.5468 310.02
v -990.745 76.6102 309.834
v -987.379 77.5603 311.306
v -987.647 77.9192 311.306
v -987.991 77.1052 311.306
v -988.258 77.4641 311.306
v -987.647 77.9192 311.306
v -987.706 77.8965 311.357
v -988.258 77.4641 311.306
v -988.217 77.5161 311.357
v -987.706 77.8965 311.357
v -987.742 77.945 311.357
v -988.217 77.5161 311.357
v -988.253 77.5646 311.357
v -987.742 77.945 311.357
v -987.817 77.9382 311.408
v -988.253 77.5646 311.357
v -988.225 77.6339 311.408
v -987.817 77.9382 311.408
v -988.043 78.2426 311.408
v -988.225 77.6339 311.408
v -988.452 77.9383 311.408
v -988.503 77.9003 311.357
v -988.452 77.9383 311.408
v -987.992 78.2807 311.357
v -988.043 78.2426 311.408
v -987.992 78.2807 311.357
v -988.068 78.3822 311.357
v -988.503 77.9003 311.357
v -988.579 78.0018 311.357
v -988.068 78.3822 311.357
v -988.217 78.3685 311.456
v -988.579 78.0018 311.357
v -988.523 78.1403 311.456
v -988.217 78.3685 311.456
v -988.217 78.3685 311.759
v -988.523 78.1403 311.456
v -988.523 78.1403 311.759
v -988.579 78.0018 311.862
v -988.523 78.1403 311.759
v -988.068 78.3822 311.862
v -988.217 78.3685 311.759
v -988.068 78.3822 311.862
v -987.992 78.2807 311.862
v -988.579 78.0018 311.862
v -988.503 77.9003 311.862
v -987.992 78.2807 311.862
v -988.043 78.2426 311.811
v -988.503 77.9003 311.862
v -988.452 77.9383 311.811
v -988.043 78.2426 311.811
v -987.817 77.9382 311.811
v -988.452 77.9383 311.811
v -988.225 77.6339 311.811
v -988.253 77.5646 311.862
v -988.225 77.6339 311.811
v -987.742 77.945 311.862
v -987.817 77.9382 311.811
v -987.742 77.945 311.862
v -987.706 77.8965 311.862
v -988.253 77.5646 311.862
v -988.217 77.5161 311.862
v -988.258 77.4641 311.912
v -988.217 77.5161 311.862
v -987.647 77.9192 311.912
v -987.706 77.8965 311.862
v -987.647 77.9192 311.912
v -987.379 77.5603 311.912
v -988.258 77.4641 311.912
v -987.991 77.1052 311.912
v -987.991 77.1052 311.306
v -988.258 77.4641 311.306
v -987.991 77.1052 311.912
v -988.258 77.4641 311.912
v -988.258 77.4641 311.306
v -988.217 77.5161 311.357
v -988.258 77.4641 311.912
v -988.217 77.5161 311.862
v -988.217 77.5161 311.357
v -988.253 77.5646 311.357
v -988.217 77.5161 311.862
v -988.253 77.5646 311.862
v -988.253 77.5646 311.357
v -988.225 77.6339 311.408
v -988.253 77.5646 311.862
v -988.225 77.6339 311.811
v -988.225 77.6339 311.408
v -988.452 77.9383 311.408
v -988.225 77.6339 311.811
v -988.452 77.9383 311.811
v -988.503 77.9003 311.862
v -988.452 77.9383 311.811
v -988.503 77.9003 311.357
v -988.452 77.9383 311.408
v -988.503 77.9003 311.357
v -988.579 78.0018 311.357
v -988.503 77.9003 311.862
v -988.579 78.0018 311.862
v -988.579 78.0018 311.357
v -988.523 78.1403 311.456
v -988.579 78.0018 311.862
v -988.523 78.1403 311.759
v -987.379 77.5603 311.912
v -987.647 77.9192 311.912
v -987.379 77.5603 311.306
v -987.647 77.9192 311.306
v -987.647 77.9192 311.912
v -987.706 77.8965 311.862
v -987.647 77.9192 311.306
v -987.706 77.8965 311.357
v -987.706 77.8965 311.862
v -987.742 77.945 311.862
v -987.706 77.8965 311.357
v -987.742 77.945 311.357
v -987.742 77.945 311.862
v -987.817 77.9382 311.811
v -987.742 77.945 311.357
v -987.817 77.9382 311.408
v -987.817 77.9382 311.811
v -988.043 78.2426 311.811
v -987.817 77.9382 311.408
v -988.043 78.2426 311.408
v -987.992 78.2807 311.357
v -988.043 78.2426 311.408
v -987.992 78.2807 311.862
v -988.043 78.2426 311.811
v -987.992 78.2807 311.862
v -988.068 78.3822 311.862
v -987.992 78.2807 311.357
v -988.068 78.3822 311.357
v -988.068 78.3822 311.862
v -988.217 78.3685 311.759
v -988.068 78.3822 311.357
v -988.217 78.3685 311.456
v -987.377 77.974 311.16
v -987.377 77.974 312.105
v -988.362 77.241 312.105
v -988.362 77.241 311.16
v -984.886 74.4382 311.246
v -987.275 77.6466 311.246
v -988.077 77.0494 311.246
v -985.688 73.841 311.246
v -987.275 77.6466 312.015
v -984.886 74.4382 312.015
v -985.688 73.841 312.015
v -988.077 77.0494 312.015
v -985.688 73.841 311.246
v -988.077 77.0494 311.246
v -988.077 77.0494 312.015
v -985.688 73.841 312.015
v -984.886 74.4382 312.015
v -987.275 77.6466 312.015
v -987.275 77.6466 311.246
v -984.886 74.4382 311.246
v -987.275 77.6466 311.246
v -987.22 77.763 311.16
v -988.205 77.03 311.16
v -988.077 77.0494 311.246
v -988.077 77.0494 311.246
v -988.205 77.03 311.16
v -988.205 77.03 312.105
v -988.077 77.0494 312.015
v -988.077 77.0494 312.015
v -988.205 77.03 312.105
v -987.22 77.763 312.105
v -987.275 77.6466 312.015
v -987.275 77.6466 312.015
v -987.22 77.763 312.105
v -987.22 77.763 311.16
v -987.275 77.6466 311.246
v -987.22 77.763 311.16
v -987.377 77.974 311.16
v -988.362 77.241 311.16
v -988.205 77.03 311.16
v -988.205 77.03 311.16
v -988.362 77.241 311.16
v -988.362 77.241 312.105
v -988.205 77.03 312.105
v -988.205 77.03 312.105
v -988.362 77.241 312.105
v -987.377 77.974 312.105
v -987.22 77.763 312.105
v -987.22 77.763 312.105
v -987.377 77.974 312.105
v -987.377 77.974 311.16
v -987.22 77.763 311.16
v -989.564 74.4625 319.46
v -990.096 74.7821 319.46
v -989.564 74.4625 320.46
v -991.532 75.6447 320.46
v -992.136 76.0074 319.46
v -992.563 76.2637 320.407
v -992.984 76.5165 319.545
v -992.908 76.4709 320.369
v -993.243 76.672 320.339
v -993.243 76.672 319.556
v -993.177 76.7819 320.306
v -992.882 76.5323 320.323
v -993.243 76.672 320.339
v -992.908 76.4709 320.369
v -989.51 75.5966 319.589
v -990.363 76.1089 319.46
v -989.546 75.5367 319.46
v -992.984 76.5165 319.545
v -993.036 76.609 319.46
v -993.243 76.672 319.556
v -993.212 76.7238 319.46
v -992.765 76.4561 319.46
v -992.136 76.0074 319.46
v -992.563 76.2637 320.407
v -992.586 76.3379 320.407
v -991.532 75.6447 320.46
v -992.378 76.4469 320.46
v -989.049 75.3198 319.549
v -989.1 75.2339 319.46
v -993.177 76.7819 320.306
v -993.243 76.672 320.339
v -993.057 76.9811 320.011
v -992.395 76.7338 320.46
v -992.378 76.4469 320.46
v -992.586 76.3379 320.407
v -989.92 75.0732 319.506
v -989.391 74.7499 319.506
v -989.864 75.0984 319.46
v -989.341 74.8336 319.46
v -990.342 75.461 319.46
v -990.329 75.4001 319.506
v -990.881 75.6091 319.46
v -990.403 75.3954 319.46
v -990.329 75.4001 319.506
v -990.881 75.6091 319.46
v -989.92 74.968 319.46
v -989.92 75.0732 319.506
v -989.391 74.7499 319.506
v -989.471 74.617 319.46
v -992.136 76.0074 319.46
v -990.096 74.7821 319.46
v -990.881 75.6091 319.46
v -990.403 75.3954 319.46
v -989.92 74.968 319.46
v -989.564 74.4625 319.46
v -989.471 74.617 319.46
v -991.496 76.2482 319.46
v -990.881 75.6091 319.46
v -990.697 76.3095 319.46
v -990.363 76.1089 319.46
v -990.342 75.461 319.46
v -989.546 75.5367 319.46
v -989.864 75.0984 319.46
v -989.341 74.8336 319.46
v -989.1 75.2339 319.46
v -991.496 76.2482 319.46
v -991.812 76.163 319.46
v -990.881 75.6091 319.46
v -992.136 76.0074 319.46
v -992.765 76.4561 319.46
v -992.252 76.3631 319.46
v -989.375 75.5156 320.182
v -989.51 75.5966 319.589
v -989.049 75.3198 319.549
v -990.027 75.9071 320.332
v -990.363 76.1089 319.46
v -990.515 76.2002 320.258
v -990.697 76.3095 319.46
v -991.046 76.5192 319.626
v -991.246 76.6393 320.46
v -991.628 76.8684 319.777
v -991.849 77.0011 320.02
v -992.271 77.2545 320.46
v -992.289 77.2658 320.303
v -992.271 77.2545 320.46
v -991.246 76.6393 320.46
v -992.395 76.7338 320.46
v -990.624 76.0167 320.46
v -989.564 74.4625 320.46
v -990.121 75.8115 320.46
v -989.936 75.6922 320.46
v -989.498 75.2169 320.46
v -990.624 76.0167 320.46
v -991.246 76.6393 320.46
v -990.515 76.2002 320.258
v -990.121 75.8115 320.46
v -990.027 75.9071 320.332
v -989.936 75.6922 320.46
v -989.375 75.5156 320.182
v -989.498 75.2169 320.46
v -993.057 76.9811 320.011
v -993.212 76.7238 319.46
v -992.496 76.8246 319.889
v -993.036 76.609 319.46
v -992.765 76.4561 319.46
v -990.697 76.3095 319.46
v -991.046 76.5192 319.626
v -991.818 76.5733 319.722
v -991.628 76.8684 319.777
v -991.496 76.2482 319.46
v -991.812 76.163 319.46
v -991.849 77.0011 320.02
v -992.252 76.3631 319.46
v -992.289 77.2658 320.303
v -993.212 76.7238 319.46
v -993.057 76.9811 320.011
v -993.243 76.672 319.556
v -993.243 76.672 320.339
v -993.115 76.8843 320.284
v -993.177 76.7819 320.306
v -993.057 76.9811 320.011
v -992.882 76.5323 320.323
v -993.115 76.8843 320.284
v -992.659 76.9076 320.187
v -992.787 76.7952 320.321
v -993.177 76.7819 320.306
v -992.787 76.7952 320.321
v -993.115 76.8843 320.284
v -992.501 76.9472 320.376
v -992.501 76.9472 320.376
v -992.477 77.056 320.244
v -993.057 76.9811 320.011
v -992.271 77.2545 320.46
v -992.271 77.2545 320.46
v -992.289 77.2658 320.303
v -988.802 75.7545 320.053
v -989.03 75.918 319.96
v -988.845 75.6345 319.434
v -989.082 75.8924 319.78
v -988.992 75.4481 319.994
v -989.03 75.918 319.96
v -988.802 75.7545 320.053
v -989.082 75.8924 319.78
v -988.977 75.4387 319.676
v -988.845 75.6345 319.434
v -988.977 75.4387 319.676
v -989.082 75.8924 319.78
v -988.992 75.4481 319.994
v -989.03 75.918 319.96
v -989.022 75.4192 319.523
v -989.141 75.5586 319.206
v -988.93 75.518 319.008
v -989.359 75.7755 318.98
v -988.93 75.518 319.008
v -989.762 75.5247 318.861
v -989.388 74.7311 318.775
v -989.359 75.7755 318.98
v -989.713 75.2655 318.82
v -989.388 74.7311 318.775
v -989.713 75.2655 318.82
v -989.496 75.1122 319.004
v -989.141 75.5586 319.206
v -989.359 75.349 319.094
v -989.359 75.7755 318.98
v -989.762 75.5247 318.861
v -989.022 75.4192 319.523
v -989.071 75.3273 319.425
v -989.141 75.5586 319.206
v -989.359 75.349 319.094
v -989.428 74.6856 318.976
v -989.496 75.1122 319.004
v -989.388 74.7311 318.775
v -989.564 74.4625 320.46
v -989.498 75.2169 320.46
v -989.363 74.7969 320.751
v -989.125 75.1929 320.957
v -988.923 75.5295 320.799
v -988.924 75.5284 320.399
v -989.375 75.5156 320.182
v -988.803 75.7285 320.285
v -989.049 75.3198 319.549
v -987.396 76.1704 322.415
v -987.578 76.0527 322.29
v -988.949 79.6997 321.352
v -989.131 79.5821 321.227
v -988.085 79.6997 320.088
v -988.578 79.5821 320.418
v -988.024 79.5821 319.609
v -988.765 79.6804 321.018
v -988.572 79.666 320.688
v -988.353 79.6997 320.48
v -985.801 79.6116 316.833
v -985.334 79.6101 316.152
v -985.145 79.4798 315.999
v -988.949 79.6997 321.352
v -989.131 79.5821 321.227
v -988.816 79.6997 321.157
v -986.818 79.6997 318.237
v -987.04 79.6997 318.561
v -986.917 79.5821 317.99
v -987.719 79.6638 319.433
v -987.369 79.663 318.92
v -988.374 79.4997 319.847
v -988.765 79.4644 320.301
v -988.389 79.3765 319.834
v -988.765 79.6804 321.018
v -988.724 79.6701 321.051
v -988.816 79.6997 321.157
v -987.719 79.6638 319.433
v -987.608 79.6138 319.472
v -988.085 79.6997 320.088
v -985.171 79.6145 315.818
v -985.254 79.3237 315.787
v -985.282 79.5821 315.6
v -985.046 79.6588 315.511
v -985.171 79.6145 315.818
v -985.282 79.5821 315.6
v -984.432 79.6997 314.749
v -984.767 79.6997 315.238
v -984.614 79.5821 314.624
v -985.282 79.5821 315.6
v -985.046 79.6588 315.511
v -988.765 79.4644 320.301
v -989.313 79.4644 321.103
v -987.76 75.9351 322.165
v -986.298 79.4644 316.695
v -985.714 79.4644 315.841
v -986.055 79.5865 316.717
v -985.539 79.5993 316.034
v -985.044 78.2984 315.964
v -985.263 78.8694 315.745
v -984.888 78.4786 316.051
v -985.083 78.9488 315.891
v -985.044 78.2984 315.964
v -984.888 78.4786 316.051
v -985.336 78.8498 315.87
v -985.128 78.9462 315.959
v -985.493 79.1895 315.778
v -985.322 79.3698 315.862
v -985.714 79.4644 315.841
v -985.621 79.429 315.826
v -985.41 79.2139 315.633
v -985.145 79.4798 315.999
v -984.911 78.989 316.12
v -984.666 78.5465 316.18
v -984.666 78.5465 316.18
v -984.888 78.4786 316.051
v -984.837 78.9797 316.021
v -984.837 78.9797 316.021
v -985.047 79.4195 315.912
v -985.116 79.6303 315.814
v -985.334 79.6101 316.152
v -985.322 79.3698 315.862
v -985.145 79.4798 315.999
v -984.959 79.6303 315.585
v -985.171 79.6145 315.818
v -984.959 79.6303 315.585
v -985.116 79.6303 315.814
v -986.055 79.5865 316.717
v -985.539 79.5993 316.034
v -985.801 79.6116 316.833
v -985.334 79.6101 316.152
v -985.539 79.5993 316.034
v -985.621 79.429 315.826
v -985.714 79.4644 315.841
v -986.588 79.511 318.079
v -986.742 79.4553 317.889
v -986.275 79.0794 318.029
v -986.511 79.0919 317.857
v -986.109 78.7066 318.138
v -986.305 78.7142 317.913
v -985.759 78.1979 318.108
v -985.968 78.1624 317.94
v -985.441 77.5146 318.287
v -985.626 77.4177 318.144
v -985.635 78.6138 317.533
v -985.942 78.8418 317.262
v -985.727 78.953 317.347
v -985.783 79.2809 317.119
v -986.029 79.1915 317.092
v -985.801 79.6116 316.833
v -986.093 79.4613 316.896
v -985.601 78.1644 317.908
v -985.441 77.5146 318.287
v -985.816 78.0578 317.818
v -985.626 77.4177 318.144
v -986.213 78.1284 317.833
v -985.8 77.2482 318.061
v -985.988 77.9527 317.67
v -985.8 77.2482 318.061
v -986.1 78.7322 317.098
v -986.262 79.147 316.943
v -986.549 78.7234 317.761
v -986.828 79.1059 317.808
v -986.298 79.4644 316.695
v -987.06 79.4644 317.809
v -986.917 79.5821 317.99
v -986.818 79.6997 318.237
v -986.055 79.5865 316.717
v -987.505 79.4644 318.459
v -987.89 79.5019 319.146
v -987.934 79.3989 319.148
v -988.225 79.4869 319.587
v -988.242 79.4095 319.588
v -988.457 79.6398 320.689
v -988.572 79.666 320.688
v -988.353 79.6997 320.48
v -987.246 79.6342 318.923
v -987.369 79.663 318.92
v -987.04 79.6997 318.561
v -984.767 79.6997 315.238
v -985.336 78.8498 315.87
v -986.1 78.7322 317.098
v -985.988 77.9527 317.67
v -985.044 78.2984 315.964
v -985.8 77.2482 318.061
v -985.714 79.4644 315.841
v -986.298 79.4644 316.695
v -986.262 79.147 316.943
v -985.493 79.1895 315.778
v -983.243 75.9351 315.563
v -986.213 78.1284 317.833
v -988.389 79.3765 319.834
v -988.242 79.4095 319.588
v -987.934 79.3989 319.148
v -987.505 79.4644 318.459
v -986.549 78.7234 317.761
v -986.828 79.1059 317.808
v -987.06 79.4644 317.809
v -984.796 79.4644 314.5
v -985.263 78.8694 315.745
v -985.41 79.2139 315.633
v -985.46 79.4644 315.47
v -985.047 79.4195 315.912
v -985.116 79.6303 315.814
v -984.959 79.6303 315.585
v -985.601 78.1644 317.908
v -985.635 78.6138 317.533
v -984.666 78.5465 316.18
v -984.911 78.989 316.12
v -985.727 78.953 317.347
v -985.783 79.2809 317.119
v -985.441 77.5146 318.287
v -983.869 76.1704 317.259
v -987.396 76.1704 322.415
v -982.878 76.1704 315.812
v -984.432 79.6997 314.749
v -984.767 79.6997 315.238
v -984.837 78.9797 316.021
v -987.04 79.6997 318.561
v -986.818 79.6997 318.237
v -986.588 79.511 318.079
v -987.608 79.6138 319.472
v -985.759 78.1979 318.108
v -987.246 79.6342 318.923
v -986.275 79.0794 318.029
v -986.109 78.7066 318.138
v -988.353 79.6997 320.48
v -988.085 79.6997 320.088
v -988.816 79.6997 321.157
v -988.949 79.6997 321.352
v -988.724 79.6701 321.051
v -988.457 79.6398 320.689
v -984.432 79.6997 314.749
v -984.614 79.5821 314.624
v -982.878 76.1704 315.812
v -983.061 76.0527 315.687
v -987.76 75.9351 322.165
v -989.313 79.4644 321.103
v -987.06 79.4644 317.809
v -987.505 79.4644 318.459
v -988.374 79.4997 319.847
v -987.89 79.5019 319.146
v -988.225 79.4869 319.587
v -988.765 79.4644 320.301
v -989.313 79.4644 321.103
v -984.796 79.4644 314.5
v -985.46 79.4644 315.47
v -985.46 79.4644 315.47
v -984.796 79.4644 314.5
v -983.243 75.9351 315.563
v -985.496 75.8756 318.491
v -985.606 75.8602 318.375
v -985.447 75.8735 318.393
v -985.662 75.7836 318.433
v -985.622 75.7669 318.329
v -985.545 75.7904 318.289
v -985.59 75.8388 318.493
v -985.622 75.7555 318.444
v -985.59 75.7421 318.36
v -985.527 75.761 318.328
v -985.448 75.828 318.412
v -985.494 75.8242 318.487
v -985.563 75.8 318.492
v -985.658 75.8249 318.45
v -985.785 75.9736 318.636
v -985.835 75.775 318.542
v -985.805 75.8908 318.883
v -985.85 75.984 318.765
v -985.632 75.952 318.834
v -985.748 76.0097 318.765
v -985.912 75.8201 318.805
v -985.6 75.9136 318.659
v -985.622 75.869 318.821
v -985.761 75.8197 318.861
v -985.848 75.7626 318.798
v -985.785 75.7263 318.586
v -985.643 75.7665 318.512
v -985.596 75.8381 318.68
v -985.185 76.3092 319.475
v -985.116 76.3195 319.391
v -985.084 76.4302 319.504
v -984.985 76.411 319.536
v -985.07 76.3985 319.61
v -984.978 76.3898 319.449
v -985.156 76.3516 319.561
v -985.061 76.35 319.599
v -984.993 76.36 319.539
v -984.987 76.3429 319.469
v -985.098 76.2862 319.423
v -985.147 76.2806 319.495
v -985.13 76.3121 319.56
v -984.787 75.8358 317.491
v -984.257 75.9351 317.046
v -984.811 76.0035 317.79
v -986.331 75.9351 320.078
v -986.29 75.8094 319.6
v -986.009 75.99 319.555
v -986.052 75.8005 319.223
v -985.256 76.0913 318.359
v -985.659 75.8325 318.755
v -985.458 75.7404 318.154
v -985.05 75.7899 317.723
v -984.475 76.2697 318.476
v -984.806 76.2388 318.565
v -984.253 76.1704 317.82
v -986.327 76.1704 320.852
v -986.004 76.2253 320.329
v -985.896 76.2961 320.64
v -985.631 76.305 320.283
v -985.252 76.3267 319.133
v -985.337 76.273 319.747
v -984.851 76.3651 319.341
v -984.596 76.3156 318.805
v -989.43 73.123 315.529
v -989.43 73.2468 315.529
v -989.63 73.123 315.529
v -989.63 73.2468 315.529
v -989.479 73.2999 315.578
v -989.479 73.2999 315.681
v -989.582 73.2999 315.578
v -989.582 73.2999 315.681
v -989.43 73.2468 315.729
v -989.43 73.123 315.729
v -989.63 73.2468 315.729
v -989.63 73.123 315.729
v -989.43 73.123 315.729
v -989.43 73.123 315.529
v -989.63 73.123 315.729
v -989.63 73.123 315.529
v -989.63 73.123 315.529
v -989.63 73.2468 315.529
v -989.63 73.123 315.729
v -989.63 73.2468 315.729
v -989.43 73.123 315.729
v -989.43 73.2468 315.729
v -989.43 73.123 315.529
v -989.43 73.2468 315.529
v -989.731 73.2514 315.429
v -989.63 73.2468 315.529
v -989.33 73.2514 315.429
v -989.43 73.2468 315.529
v -989.731 73.2514 315.83
v -989.63 73.2468 315.729
v -989.731 73.2514 315.429
v -989.63 73.2468 315.529
v -989.33 73.2514 315.83
v -989.43 73.2468 315.729
v -989.731 73.2514 315.83
v -989.63 73.2468 315.729
v -989.33 73.2514 315.429
v -989.43 73.2468 315.529
v -989.33 73.2514 315.83
v -989.43 73.2468 315.729
v -989.33 73.2514 315.429
v -989.466 73.315 315.565
v -989.731 73.2514 315.429
v -989.594 73.315 315.565
v -989.731 73.2514 315.429
v -989.594 73.315 315.565
v -989.731 73.2514 315.83
v -989.594 73.315 315.693
v -989.731 73.2514 315.83
v -989.594 73.315 315.693
v -989.33 73.2514 315.83
v -989.466 73.315 315.693
v -989.33 73.2514 315.83
v -989.466 73.315 315.693
v -989.33 73.2514 315.429
v -989.466 73.315 315.565
v -989.466 73.315 315.565
v -989.479 73.2999 315.578
v -989.594 73.315 315.565
v -989.582 73.2999 315.578
v -989.594 73.315 315.565
v -989.582 73.2999 315.578
v -989.594 73.315 315.693
v -989.582 73.2999 315.681
v -989.594 73.315 315.693
v -989.582 73.2999 315.681
v -989.466 73.315 315.693
v -989.479 73.2999 315.681
v -989.466 73.315 315.693
v -989.479 73.2999 315.681
v -989.466 73.315 315.565
v -989.479 73.2999 315.578
v -1021 76.3816 347
v -1021 76.3266 345
v -1021 76.3437 343
v -1021 76.2505 341
v -1021 76.3826 339
v -1021 76.4613 337
v -1021 76.477 335
v -1021 76.2278 333
v -1021 76.2839 331
v -1021 76.1675 329
v -1021 76.1912 327
v -1021 76.2978 325
v -1021 76.2596 323
v -1021 76.1626 321
v -1021 76.153 319
v -1021 75.9974 317
v -1021 75.9249 315
v -1021 75.9131 313
v -1021 76.1324 311
v -1021 76.1237 309
v -1021 76.3072 307
v -1021 76.3046 305
v -1021 76.2916 303
v -1021 76.3177 301
v -1021 76.3231 299
v -1021 76.3967 297
v -1021 76.6167 295
v -1021 76.6481 293
v -1021 76.6604 291
v -1021 76.6711 289
v -1021 76.6757 287
v -1021 76.7793 285
v -1019 76.4136 347
v -1019 76.3323 345
v -1019 76.3877 343
v -1019 76.2369 341
v -1019 76.3448 339
v -1019 76.435 337
v -1019 76.2841 335
v -1019 76.343 333
v -1019 76.223 331
v -1019 76.1122 329
v -1019 76.072 327
v -1019 76.075 325
v -1019 76.2105 323
v -1019 75.9871 321
v -1019 76.0071 319
v -1019 75.9856 317
v -1019 75.7423 315
v -1019 75.8581 313
v -1019 76.1676 311
v -1019 76.1079 309
v -1019 76.3174 307
v -1019 76.4684 305
v -1019 76.3967 303
v -1019 76.3359 301
v -1019 76.2305 299
v -1019 76.3881 297
v -1019 76.3534 295
v -1019 76.577 293
v -1019 76.4456 291
v -1019 76.5325 289
v -1019 76.6921 287
v -1019 76.5682 285
v -1017 76.4357 347
v -1017 76.3348 345
v -1017 76.2922 343
v -1017 76.1683 341
v -1017 76.2079 339
v -1017 76.3109 337
v -1017 76.3066 335
v -1017 76.1704 333
v -1017 76.1376 331
v -1017 76.1432 329
v -1017 75.9837 327
v -1017 75.9985 325
v -1017 75.9693 323
v -1017 75.8877 321
v -1017 75.9409 319
v -1017 75.8226 317
v -1017 75.7875 315
v -1017 75.7933 313
v -1017 75.9451 311
v -1017 75.9836 309
v -1017 76.2746 307
v -1017 76.3065 305
v -1017 76.3587 303
v -1017 76.4542 301
v -1017 76.3187 299
v -1017 76.4161 297
v -1017 76.3744 295
v -1017 76.2969 293
v -1017 76.2712 291
v -1017 76.4015 289
v -1017 76.5038 287
v -1017 76.6149 285
v -1015 76.2914 347
v -1015 76.2031 345
v -1015 76.1031 343
v -1015 76.1462 341
v -1015 76.0827 339
v -1015 76.2214 337
v -1015 76.1405 335
v -1015 76.0073 333
v -1015 75.8985 331
v -1015 75.9653 329
v -1015 75.7577 327
v -1015 75.783 325
v -1015 75.7876 323
v -1015 75.8128 321
v -1015 75.7917 319
v -1015 75.6703 317
v -1015 75.6689 315
v -1015 75.666 313
v -1015 75.8279 311
v -1015 75.9892 309
v -1015 76.0589 307
v -1015 76.2339 305
v -1015 76.3263 303
v -1015 76.2744 301
v -1015 76.2265 299
v -1015 76.2365 297
v -1015 76.1917 295
v -1015 76.1942 293
v -1015 76.187 291
v -1015 76.2425 289
v -1015 76.4127 287
v -1015 76.5142 285
v -1013 76.1549 347
v -1013 76.0233 345
v -1013 75.9213 343
v -1013 75.9843 341
v -1013 75.9446 339
v -1013 75.9617 337
v -1013 75.9501 335
v -1013 75.9307 333
v -1013 75.7803 331
v -1013 75.5872 329
v -1013 75.5471 327
v -1013 75.6093 325
v -1013 75.5965 323
v -1013 75.5311 321
v -1013 75.7272 319
v -1013 75.5593 317
v -1013 75.6076 315
v -1013 75.5434 313
v -1013 75.645 311
v -1013 75.8556 309
v -1013 75.9131 307
v -1013 76.1109 305
v -1013 76.1161 303
v -1013 76.0934 301
v -1013 76.0335 299
v -1013 76.0509 297
v -1013 75.9993 295
v -1013 76.1385 293
v -1013 76.1764 291
v -1013 76.2476 289
v -1013 76.3499 287
v -1013 76.4586 285
v -1011 75.7837 347
v -1011 75.7437 345
v -1011 75.5875 343
v -1011 75.5971 341
v -1011 75.7085 339
v -1011 75.7918 337
v -1011 75.7793 335
v -1011 75.6846 333
v -1011 75.6184 331
v -1011 75.4476 329
v -1011 75.3865 327
v -1011 75.3436 325
v -1011 75.3929 323
v -1011 75.3034 321
v -1011 75.3594 319
v -1011 75.3102 317
v -1011 75.3454 315
v -1011 75.3623 313
v -1011 75.4691 311
v -1011 75.6254 309
v -1011 75.8262 307
v -1011 75.8011 305
v -1011 75.8146 303
v -1011 75.8539 301
v -1011 75.9042 299
v -1011 75.8475 297
v -1011 75.8747 295
v -1011 75.991 293
v -1011 76.1432 291
v -1011 76.2692 289
v -1011 76.3254 287
v -1011 76.5182 285
v -1009 75.6435 347
v -1009 75.451 345
v -1009 75.5012 343
v -1009 75.5247 341
v -1009 75.5987 339
v -1009 75.6875 337
v -1009 75.5959 335
v -1009 75.4052 333
v -1009 75.4111 331
v -1009 75.2981 329
v -1009 75.2826 327
v -1009 75.1497 325
v -1009 75.2024 323
v -1009 75.2283 321
v -1009 75.243 319
v -1009 75.2902 317
v -1009 75.2893 315
v -1009 75.247 313
v -1009 75.3472 311
v -1009 75.3459 309
v -1009 75.4999 307
v -1009 75.6636 305
v -1009 75.6978 303
v -1009 75.6449 301
v -1009 75.6975 299
v -1009 75.5503 297
v -1009 75.7663 295
v -1009 75.9455 293
v -1009 76.0649 291
v -1009 76.1198 289
v -1009 76.2861 287
v -1009 76.3247 285
v -1007 75.3412 347
v -1007 75.2474 345
v -1007 75.3295 343
v -1007 75.3071 341
v -1007 75.2447 339
v -1007 75.4081 337
v -1007 75.3818 335
v -1007 75.3398 333
v -1007 75.2951 331
v -1007 75.0841 329
v -1007 74.985 327
v -1007 74.9581 325
v -1007 75.0741 323
v -1007 75.0585 321
v -1007 75.0209 319
v -1007 75.076 317
v -1007 74.8947 315
v -1007 74.8868 313
v -1007 75.1013 311
v -1007 75.157 309
v -1007 75.3493 307
v -1007 75.43 305
v -1007 75.3441 303
v -1007 75.2772 301
v -1007 75.4905 299
v -1007 75.4636 297
v -1007 75.6088 295
v -1007 75.7268 293
v -1007 76.0071 291
v -1007 75.9684 289
v -1007 76.2206 287
v -1007 76.3339 285
v -1005 75.1117 347
v -1005 75.0487 345
v -1005 75.0774 343
v -1005 74.9174 341
v -1005 75.1363 339
v -1005 75.1562 337
v -1005 75.1243 335
v -1005 75.0359 333
v -1005 74.8043 331
v -1005 74.8348 329
v -1005 74.775 327
v -1005 74.7242 325
v -1005 74.7075 323
v -1005 74.716 321
v -1005 74.8331 319
v -1005 74.6285 317
v -1005 74.5975 315
v -1005 74.5869 313
v -1005 74.6829 311
v -1005 74.9169 309
v -1005 74.9471 307
v -1005 75.0144 305
v -1005 75.0456 303
v -1005 74.991 301
v -1005 75.2028 299
v -1005 75.1679 297
v -1005 75.3358 295
v -1005 75.4732 293
v -1005 75.7047 291
v -1005 75.7016 289
v -1005 76.0154 287
v -1005 76.0865 285
v -1003 74.7836 347
v -1003 74.7623 345
v -1003 74.7967 343
v -1003 74.6682 341
v -1003 74.8416 339
v -1003 74.7612 337
v -1003 74.7621 335
v -1003 74.6093 333
v -1003 74.5577 331
v -1003 74.3862 329
v -1003 74.3976 327
v -1003 74.3485 325
v -1003 74.3154 323
v -1003 74.3489 321
v -1003 74.4447 319
v -1003 74.1714 317
v -1003 74.1403 315
v -1003 74.1461 313
v -1003 74.3002 311
v -1003 74.4943 309
v -1003 74.5502 307
v -1003 74.5573 305
v -1003 74.605 303
v -1003 74.6912 301
v -1003 74.8654 299
v -1003 74.9146 297
v -1003 75.096 295
v -1003 75.2088 293
v -1003 75.305 291
v -1003 75.4509 289
v -1003 75.7403 287
v -1003 75.8172 285
v -1001 74.5772 347
v -1001 74.5221 345
v -1001 74.3275 343
v -1001 74.2132 341
v -1001 74.4248 339
v -1001 74.5445 337
v -1001 74.5701 335
v -1001 74.5085 333
v -1001 74.4385 331
v -1001 74.3323 329
v -1001 74.4393 327
v -1001 74.5537 325
v -1001 74.6364 323
v -1001 74.5359 321
v -1001 74.5922 319
v -1001 74.3758 317
v -1001 74.2632 315
v -1001 74.2783 313
v -1001 74.3879 311
v -1001 74.5033 309
v -1001 74.4023 307
v -1001 74.3302 305
v -1001 74.1967 303
v -1001 74.4199 301
v -1001 74.685 299
v -1001 74.6812 297
v -1001 74.6389 295
v -1001 74.7635 293
v -1001 74.9614 291
v -1001 75.2309 289
v -1001 75.3112 287
v -1001 75.5655 285
v -999 74.4075 347
v -999 74.406 345
v -999 74.5201 343
v -999 74.5587 341
v -999 74.7054 339
v -999 74.8363 337
v -999 74.9971 335
v -999 74.9975 333
v -999 74.9428 331
v -999 74.809 329
v -999 74.8837 327
v -999 74.9251 325
v -999 74.924 323
v -999 74.8588 321
v -999 74.8396 319
v -999 74.7327 317
v -999 74.7588 315
v -999 74.7573 313
v -999 74.8185 311
v -999 74.829 309
v -999 74.7201 307
v -999 74.7355 305
v -999 74.6372 303
v -999 74.4835 301
v -999 74.3502 299
v -999 74.2177 297
v -999 74.4168 295
v -999 74.5961 293
v -999 74.5923 291
v -999 74.8546 289
v -999 74.9321 287
v -999 75.1418 285
v -997 74.6703 347
v -997 74.7642 345
v -997 74.8229 343
v -997 75.0326 341
v -997 74.9481 339
v -997 75.1941 337
v -997 75.2933 335
v -997 75.3431 333
v -997 75.2291 331
v -997 75.0466 329
v -997 75.1597 327
v -997 75.1816 325
v -997 75.2254 323
v -997 75.3245 321
v -997 75.1182 319
v -997 75.0292 317
v -997 75.0259 315
v -997 75.2118 313
v -997 75.239 311
v -997 75.2062 309
v -997 75.2603 307
v -997 75.0888 305
v -997 74.9263 303
v -997 74.9846 301
v -997 74.8152 299
v -997 74.787 297
v -997 74.6421 295
v -997 74.4627 293
v -997 74.2507 291
v -997 74.6536 289
v -997 74.8182 287
v -997 74.9974 285
v -995 75.0572 347
v -995 75.0922 345
v -995 75.1733 343
v -995 75.3969 341
v -995 75.4165 339
v -995 75.4862 337
v -995 75.5409 335
v -995 75.4593 333
v -995 75.4389 331
v -995 75.4154 329
v -995 75.3873 327
v -995 75.4043 325
v -995 75.4657 323
v -995 75.4782 321
v -995 75.328 319
v -995 75.475 317
v -995 75.4485 315
v -995 75.5114 313
v -995 75.5161 311
v -995 75.6498 309
v -995 75.5025 307
v -995 75.4778 305
v -995 75.3506 303
v -995 75.3549 301
v -995 75.0485 299
v -995 75.0439 297
v -995 74.9005 295
v -995 74.8507 293
v -995 74.7051 291
v -995 74.695 289
v -995 74.6031 287
v -995 74.6678 285
v -993 75.3726 347
v -993 75.3221 345
v -993 75.4906 343
v -993 75.5187 341
v -993 75.8109 339
v -993 75.7293 337
v -993 75.7122 335
v -993 75.6135 333
v -993 75.7285 331
v -993 75.5696 329
v -993 75.6918 327
v -993 75.5846 325
v -993 75.6846 323
v -993 75.6278 321
v -993 75.7555 319
v -993 75.6782 317
v -993 75.8104 315
v -993 75.8423 313
v -993 75.7403 311
v -993 75.7681 309
v -993 75.8291 307
v -993 75.7462 305
v -993 75.7114 303
v -993 75.5051 301
v -993 75.2433 299
v -993 75.2062 297
v -993 75.0862 295
v -993 75.0571 293
v -993 74.9238 291
v -993 74.9483 289
v -993 74.787 287
v -993 74.7301 285
v -991 75.531 347
v -991 75.5558 345
v -991 75.6943 343
v -991 75.7938 341
v -991 75.8121 339
v -991 75.9137 337
v -991 75.9112 335
v -991 75.9851 333
v -991 75.8703 331
v -991 75.7661 329
v -991 75.7773 327
v -991 75.9363 325
v -991 75.8364 323
v -991 75.8579 321
v -991 76.0351 319
v -991 76.0828 317
v -991 75.9843 315
v -991 75.9975 313
v -991 75.9603 311
v -991 75.9801 309
v -991 75.91 307
v -991 75.7836 305
v -991 75.7178 303
v -991 75.7394 301
v -991 75.5327 299
v -991 75.2984 297
v -991 75.1002 295
v -991 75.1705 293
v -991 75.0542 291
v -991 74.9533 289
v -991 75.1115 287
v -991 75.0092 285
v -989 75.8098 347
v -989 75.7697 345
v -989 75.7892 343
v -989 75.9993 341
v -989 76.0075 339
v -989 76.1071 337
v -989 76.1272 335
v -989 76.1447 333
v -989 76.177 331
v -989 76.2681 329
v -989 76.1204 327
v -989 76.0675 325
v -989 76.0295 323
v -989 76.0488 321
v -989 76.1663 319
v -989 76.1963 317
v -989 76.1867 315
v -989 76.0731 313
v -989 76.0288 311
v -989 75.9415 309
v -989 75.8353 307
v -989 75.9532 305
v -989 75.8717 303
v -989 75.7665 301
v -989 75.5175 299
v -989 75.3053 297
v -989 75.2622 295
v -989 75.1591 293
v -989 75.1359 291
v -989 75.0474 289
v -989 75.135 287
v -989 75.0079 285
v -987 75.9442 347
v -987 75.9609 345
v -987 75.8988 343
v -987 75.9388 341
v -987 76.1324 339
v -987 76.1589 337
v -987 76.3311 335
v -987 76.3539 333
v -987 76.437 331
v -987 76.5148 329
v -987 76.2569 327
v -987 76.196 325
v -987 76.2758 323
v -987 76.248 321
v -987 76.3389 319
v -987 76.277 317
v -987 76.2248 315
v -987 76.068 313
v -987 76.0799 311
v -987 75.9232 309
v -987 75.9362 307
v -987 75.897 305
v -987 75.8708 303
v -987 75.699 301
v -987 75.5272 299
v -987 75.4819 297
v -987 75.3138 295
v -987 75.2381 293
v -987 75.1176 291
v -987 75.1714 289
v -987 75.1621 287
v -987 75.1202 285
v -985 76.2199 347
v -985 76.1141 345
v -985 76.0855 343
v -985 76.0448 341
v -985 76.2011 339
v -985 76.3812 337
v -985 76.4812 335
v -985 76.5246 333
v -985 76.6671 331
v -985 76.5877 329
v -985 76.4168 327
v -985 76.3529 325
v -985 76.344 323
v -985 76.3334 321
v -985 76.3704 319
v -985 76.3698 317
v -985 76.3452 315
v -985 76.1683 313
v -985 76.1185 311
v -985 75.9971 309
v -985 75.9395 307
v -985 75.8643 305
v -985 75.786 303
v -985 75.7672 301
v -985 75.5775 299
v -985 75.5144 297
v -985 75.3654 295
v -985 75.2779 293
v -985 75.3079 291
v -985 75.1914 289
v -985 75.2342 287
v -985 75.2526 285
v -983 76.384 347
v -983 76.3322 345
v -983 76.22 343
v -983 76.351 341
v -983 76.3415 339
v -983 76.4344 337
v -983 76.6302 335
v -983 76.6421 333
v -983 76.6248 331
v -983 76.6263 329
v -983 76.4251 327
v -983 76.4305 325
v -983 76.3387 323
v -983 76.4516 321
v -983 76.3795 319
v -983 76.3908 317
v -983 76.4057 315
v -983 76.4054 313
v -983 76.1737 311
v -983 76.1618 309
v -983 75.9296 307
v -983 75.869 305
v -983 75.8083 303
v -983 75.8625 301
v -983 75.6893 299
v -983 75.6524 297
v -983 75.4793 295
v -983 75.3433 293
v -983 75.3246 291
v -983 75.4494 289
v -983 75.3482 287
v -983 75.3364 285
v -981 76.4029 347
v -981 76.3454 345
v -981 76.3519 343
v -981 76.4973 341
v -981 76.563 339
v -981 76.5795 337
v -981 76.76 335
v -981 76.6837 333
v -981 76.5414 331
v -981 76.5823 329
v -981 76.4295 327
v -981 76.314 325
v -981 76.2373 323
v -981 76.3888 321
v -981 76.4183 319
v -981 76.595 317
v -981 76.5788 315
v -981 76.4668 313
v -981 76.3278 311
v -981 76.2288 309
v -981 76.1083 307
v -981 76.0492 305
v -981 75.99 303
v -981 76.019 301
v -981 75.8532 299
v -981 75.7659 297
v -981 75.6967 295
v -981 75.6879 293
v -981 75.5933 291
v -981 75.4942 289
v -981 75.4302 287
v -981 75.5739 285
v -979 76.5696 347
v -979 76.6122 345
v -979 76.5833 343
v -979 76.6145 341
v -979 76.8108 339
v -979 76.8172 337
v -979 76.741 335
v -979 76.7187 333
v -979 76.5135 331
v -979 76.4805 329
v -979 76.4834 327
v -979 76.3336 325
v -979 76.4227 323
v -979 76.4601 321
v -979 76.5089 319
v -979 76.5481 317
v -979 76.6476 315
v -979 76.4608 313
v -979 76.3422 311
v -979 76.1623 309
v -979 76.1667 307
v -979 75.9808 305
v -979 76.022 303
v -979 76.0984 301
v -979 75.9513 299
v -979 75.9183 297
v -979 75.8753 295
v -979 75.709 293
v -979 75.7195 291
v -979 75.6078 289
v -979 75.5926 287
v -979 75.4239 285
v -977 76.6689 347
v -977 76.5284 345
v -977 76.6017 343
v -977 76.6203 341
v -977 76.8584 339
v -977 76.7308 337
v -977 76.6908 335
v -977 76.665 333
v -977 76.5164 331
v -977 76.315 329
v -977 76.449 327
v -977 76.3667 325
v -977 76.4124 323
v -977 76.3839 321
v -977 76.6043 319
v -977 76.4933 317
v -977 76.5538 315
v -977 76.5542 313
v -977 76.39 311
v -977 76.0929 309
v -977 76.1151 307
v -977 76.1617 305
v -977 76.0717 303
v -977 76.2365 301
v -977 76.0852 299
v -977 76.0366 297
v -977 75.8343 295
v -977 75.7641 293
v -977 75.8009 291
v -977 75.7122 289
v -977 75.6535 287
v -977 75.5464 285
v -975 76.6232 347
v -975 76.5722 345
v -975 76.5748 343
v -975 76.8189 341
v -975 76.7142 339
v -975 76.7803 337
v -975 76.6862 335
v -975 76.5535 333
v -975 76.5515 331
v -975 76.3528 329
v -975 76.3798 327
v -975 76.3682 325
v -975 76.3656 323
v -975 76.3711 321
v -975 76.4929 319
v -975 76.5562 317
v -975 76.51 315
v -975 76.4377 313
v -975 76.2601 311
v -975 76.042 309
v -975 76.1035 307
v -975 76.0931 305
v -975 76.1845 303
v -975 76.127 301
v -975 76.1867 299
v -975 75.9714 297
v -975 75.8763 295
v -975 75.8347 293
v -975 75.688 291
v -975 75.8549 289
v -975 75.6704 287
v -975 75.5956 285
v -973 76.6165 347
v -973 76.6214 345
v -973 76.6115 343
v -973 76.7241 341
v -973 76.6517 339
v -973 76.7746 337
v -973 76.6375 335
v -973 76.5358 333
v -973 76.3494 331
v -973 76.5122 329
v -973 76.3848 327
v -973 76.3969 325
v -973 76.3536 323
v -973 76.356 321
v -973 76.3077 319
v -973 76.5045 317
v -973 76.3811 315
v -973 76.3159 313
v -973 76.286 311
v -973 75.9833 309
v -973 75.9646 307
v -973 76.0378 305
v -973 76.0807 303
v -973 76.2076 301
v -973 76.0052 299
v -973 75.7782 297
v -973 75.7506 295
v -973 75.6574 293
v -973 75.7798 291
v -973 75.6654 289
v -973 75.7449 287
v -973 75.5953 285
v -971 76.6908 347
v -971 76.5055 345
v -971 76.5685 343
v -971 76.6883 341
v -971 76.6682 339
v -971 76.6974 337
v -971 76.519 335
v -971 76.5667 333
v -971 76.4786 331
v -971 76.4814 329
v -971 76.4523 327
v -971 76.389 325
v -971 76.3786 323
v -971 76.3214 321
v -971 76.2177 319
v -971 76.3137 317
v -971 76.4055 315
v -971 76.2767 313
v -971 76.135 311
v -971 75.8955 309
v -971 75.9591 307
v -971 75.8897 305
v -971 75.8652 303
v -971 75.9134 301
v -971 75.7651 299
v -971 75.6618 297
v -971 75.621 295
v -971 75.456 293
v -971 75.4968 291
v -971 75.596 289
v -971 75.5497 287
v -971 75.5948 285
v -969 76.6847 347
v -969 76.6171 345
v -969 76.5693 343
v -969 76.6265 341
v -969 76.6082 339
v -969 76.5264 337
v -969 76.586 335
v -969 76.4506 333
v -969 76.3914 331
v -969 76.3233 329
v -969 76.4327 327
v -969 76.353 325
v -969 76.1604 323
v -969 76.2083 321
v -969 76.2737 319
v -969 76.2644 317
v -969 76.2617 315
v -969 76.3074 313
v -969 76.067 311
v -969 75.9268 309
v -969 75.889 307
v -969 75.7031 305
v -969 75.6186 303
v -969 75.793 301
v -969 75.6631 299
v -969 75.4297 297
v -969 75.3576 295
v -969 75.3935 293
v -969 75.2668 291
v -969 75.5009 289
v -969 75.5237 287
v -969 75.5781 285
v -967 76.6021 347
v -967 76.5004 345
v -967 76.4947 343
v -967 76.5123 341
v -967 76.5928 339
v -967 76.5751 337
v -967 76.4543 335
v -967 76.4514 333
v -967 76.3789 331
v -967 76.32 329
v -967 76.41 327
v -967 76.2787 325
v -967 76.2728 323
v -967 76.138 321
v -967 76.1902 319
v -967 76.0786 317
v -967 76.1964 315
v -967 76.1346 313
v -967 75.9862 311
v -967 76.0695 309
v -967 75.8194 307
v -967 75.8084 305
v -967 75.6681 303
v -967 75.5886 301
v -967 75.3961 299
v -967 75.3607 297
v -967 75.229 295
v -967 75.3046 293
v -967 75.215 291
v -967 75.3788 289
v -967 75.3558 287
v -967 75.4752 285
v -965 76.5808 347
v -965 76.4821 345
v -965 76.4474 343
v -965 76.4209 341
v -965 76.3623 339
v -965 76.4329 337
v -965 76.383 335
v -965 76.3112 333
v -965 76.3486 331
v -965 76.4436 329
v -965 76.2471 327
v -965 76.2288 325
v -965 76.0977 323
v -965 76.1177 321
v -965 75.93 319
v -965 75.9374 317
v -965 75.922 315
v -965 75.9399 313
v -965 75.8534 311
v -965 75.9153 309
v -965 75.7454 307
v -965 75.7181 305
v -965 75.5724 303
v -965 75.5058 301
v -965 75.3259 299
v -965 75.2828 297
v -965 75.153 295
v -965 75.0872 293
v -965 75.2423 291
v -965 75.2922 289
v -965 75.2663 287
v -965 75.2816 285
v -963 76.5389 347
v -963 76.4283 345
v -963 76.3521 343
v -963 76.3314 341
v -963 76.2632 339
v -963 76.3732 337
v -963 76.2598 335
v -963 76.1839 333
v -963 76.2118 331
v -963 76.2806 329
v -963 76.1325 327
v -963 76.0389 325
v -963 75.9668 323
v -963 75.8239 321
v -963 75.7483 319
v -963 75.696 317
v -963 75.6346 315
v -963 75.6725 313
v -963 75.6412 311
v -963 75.7063 309
v -963 75.7168 307
v -963 75.636 305
v -963 75.5815 303
v -963 75.3403 301
v -963 75.1776 299
v -963 75.1562 297
v -963 75.08 295
v -963 75.0742 293
v -963 75.0358 291
v -963 75.1639 289
v -963 75.2018 287
v -963 75.0683 285
v -961 76.5075 347
v -961 76.4677 345
v -961 76.3618 343
v -961 76.4538 341
v -961 76.25 339
v -961 76.0918 337
v -961 76.148 335
v -961 76.0609 333
v -961 76.1284 331
v -961 75.9857 329
v -961 75.9718 327
v -961 75.8871 325
v -961 75.798 323
v -961 75.6997 321
v -961 75.5982 319
v -961 75.4386 317
v -961 75.3571 315
v -961 75.368 313
v -961 75.3271 311
v -961 75.3675 309
v -961 75.497 307
v -961 75.46 305
v -961 75.3932 303
v -961 75.1832 301
v -961 75.0891 299
v -961 74.9386 297
v -961 74.8638 295
v -961 74.8223 293
v -961 74.9684 291
v -961 75.1014 289
v -961 74.8931 287
v -961 74.9575 285
v -959 76.4384 347
v -959 76.2257 345
v -959 76.2542 343
v -959 76.3181 341
v -959 76.1513 339
v -959 76.0782 337
v -959 76.017 335
v -959 75.8686 333
v -959 75.7912 331
v -959 75.6565 329
v -959 75.6677 327
v -959 75.8022 325
v -959 75.6736 323
v -959 75.5531 321
v -959 75.3436 319
v -959 75.1801 317
v -959 75.0671 315
v -959 75.0882 313
v -959 75.1052 311
v -959 75.2547 309
v -959 75.3418 307
v -959 75.2959 305
v -959 75.0921 303
v -959 74.9972 301
v -959 74.94 299
v -959 74.8261 297
v -959 74.573 295
v -959 74.6506 293
v -959 74.7619 291
v -959 74.7781 289
v -959 74.6667 287
v -959 74.779 285
f 9 10 11
f 10 9 8
f 9 32 8
f 10 8 32
f 9 33 32
f 10 32 31
f 33 31 32
f 9 29 33
f 29 9 15
f 14 29 15
f 28 29 14
f 28 33 29
f 33 28 31
f 14 15 2
f 5 14 2
f 1 23 3
f 3 2 1
f 4 2 3
f 2 4 5
f 50 49 39
f 40 39 38
f 47 38 49
f 39 49 38
f 40 41 39
f 40 43 41
f 43 42 41
f 47 40 38
f 43 40 47
f 27 26 16
f 26 27 42
f 45 26 42
f 43 45 42
f 26 44 16
f 44 26 45
f 27 16 17
f 42 37 41
f 42 27 37
f 35 37 27
f 27 17 35
f 24 23 1
f 9 39 41
f 37 9 41
f 36 9 37
f 37 34 36
f 34 1 36
f 34 24 1
f 34 37 35
f 9 36 1
f 15 9 1
f 15 1 2
f 5 28 14
f 16 44 18
f 18 17 16
f 28 5 7
f 4 6 5
f 7 5 6
f 21 35 17
f 35 21 34
f 43 46 45
f 43 47 46
f 21 24 34
f 22 24 21
f 22 25 24
f 24 25 23
f 7 31 28
f 19 17 18
f 20 17 19
f 17 20 22
f 17 22 21
f 10 31 30
f 31 7 30
f 10 12 11
f 12 10 30
f 50 51 49
f 49 51 47
f 51 53 47
f 54 46 47
f 53 54 47
f 56 30 7
f 6 57 7
f 57 56 7
f 13 12 30
f 13 30 56
f 62 23 25
f 62 25 22
f 13 11 12
f 52 51 50
f 51 52 53
f 4 60 6
f 60 57 6
f 54 45 46
f 58 3 23
f 3 58 61
f 61 4 3
f 62 22 59
f 59 22 20
f 48 44 45
f 48 45 54
f 55 20 19
f 18 55 19
f 58 23 62
f 20 55 59
f 57 11 56
f 56 11 13
f 61 60 4
f 60 11 57
f 60 61 11
f 11 61 58
f 58 50 11
f 53 50 54
f 50 53 52
f 54 50 48
f 48 50 55
f 58 55 50
f 44 55 18
f 48 55 44
f 55 58 59
f 59 58 62
f 75 74 63
f 75 63 69
f 63 64 69
f 65 64 63
f 74 65 63
f 68 64 65
f 74 73 65
f 73 68 65
f 73 72 68
f 66 75 69
f 70 75 66
f 69 64 66
f 67 66 64
f 64 68 67
f 72 67 68
f 72 71 67
f 71 70 67
f 67 70 66
f 84 82 83
f 84 77 82
f 76 77 84
f 81 80 79
f 81 82 80
f 83 82 81
f 78 77 76
f 87 86 85
f 91 89 90
f 90 89 88
f 87 85 93
f 87 93 91
f 91 93 92
f 91 92 89
f 96 116 97
f 117 116 96
f 127 117 96
f 127 96 129
f 102 129 96
f 129 102 130
f 130 102 132
f 134 130 132
f 133 134 132
f 133 132 131
f 130 127 129
f 127 130 128
f 120 110 128
f 128 130 120
f 135 120 130
f 135 130 134
f 136 135 134
f 133 136 134
f 136 133 140
f 120 109 110
f 103 125 124
f 126 124 125
f 102 103 104
f 103 102 101
f 102 125 101
f 103 101 125
f 102 126 125
f 102 122 126
f 121 126 122
f 121 122 107
f 108 96 94
f 108 102 96
f 122 102 108
f 107 122 108
f 107 108 94
f 98 107 94
f 94 95 98
f 126 121 124
f 96 95 94
f 97 95 96
f 140 133 131
f 132 142 131
f 140 131 142
f 137 119 138
f 143 142 132
f 136 138 135
f 119 137 109
f 138 119 135
f 119 120 135
f 120 119 109
f 98 121 107
f 111 110 109
f 109 137 111
f 95 99 98
f 121 98 100
f 100 98 99
f 128 115 127
f 115 128 110
f 136 139 138
f 136 140 139
f 115 117 127
f 117 118 116
f 115 118 117
f 100 124 121
f 115 110 113
f 113 110 112
f 112 110 111
f 103 124 123
f 124 100 123
f 103 105 104
f 142 144 140
f 143 144 142
f 105 103 123
f 115 113 114
f 115 114 118
f 147 139 140
f 146 147 140
f 144 146 140
f 149 123 100
f 150 149 100
f 99 150 100
f 106 105 123
f 106 123 149
f 155 118 114
f 155 116 118
f 144 145 146
f 145 144 143
f 106 104 105
f 95 153 99
f 153 150 99
f 147 138 139
f 154 95 97
f 97 151 154
f 151 97 116
f 152 114 113
f 155 114 152
f 141 137 138
f 141 138 147
f 111 148 112
f 148 113 112
f 151 116 155
f 113 148 152
f 143 141 147
f 148 141 143
f 137 148 111
f 104 148 143
f 104 151 148
f 141 148 137
f 104 154 151
f 154 153 95
f 143 146 145
f 146 143 147
f 153 154 104
f 153 104 150
f 150 104 149
f 149 104 106
f 152 151 155
f 148 151 152
f 291 290 288
f 290 289 288
f 162 161 160
f 217 218 219
f 218 217 216
f 223 221 222
f 222 221 220
f 259 257 258
f 258 257 256
f 263 261 262
f 262 261 260
f 158 157 156
f 159 157 158
f 283 281 282
f 282 281 280
f 287 285 286
f 214 213 212
f 215 213 214
f 210 209 208
f 209 210 211
f 202 201 200
f 198 197 196
f 199 197 198
f 194 193 192
f 193 194 195
f 186 185 184
f 182 181 180
f 183 181 182
f 178 177 176
f 177 178 179
f 170 169 168
f 166 165 164
f 167 165 166
f 286 285 284
f 163 161 162
f 271 269 270
f 266 265 264
f 267 265 266
f 270 269 268
f 277 278 279
f 278 277 276
f 171 169 170
f 175 173 174
f 174 173 172
f 274 273 272
f 275 273 274
f 203 201 202
f 207 205 206
f 206 205 204
f 190 189 188
f 191 189 190
f 187 185 186
f 255 253 254
f 254 253 252
f 238 237 236
f 243 241 242
f 242 241 240
f 245 246 247
f 246 245 244
f 239 237 238
f 231 229 230
f 230 229 228
f 234 233 232
f 235 233 234
f 250 249 248
f 251 249 250
f 226 225 224
f 227 225 226
f 294 293 292
f 295 294 292
f 298 297 296
f 299 298 296
f 306 305 304
f 307 306 304
f 302 301 300
f 303 302 300
f 310 309 308
f 318 317 316
f 319 318 316
f 322 321 320
f 323 322 320
f 326 325 324
f 327 326 324
f 335 334 332
f 338 337 336
f 339 338 336
f 334 333 332
f 311 310 308
f 314 313 312
f 315 314 312
f 330 329 328
f 331 330 328
f 477 476 475
f 481 480 479
f 478 476 477
f 488 486 487
f 484 483 482
f 487 486 485
f 490 491 492
f 491 490 489
f 495 494 493
f 493 494 496
f 504 502 503
f 503 502 501
f 508 506 507
f 507 506 505
f 413 412 411
f 412 414 411
f 366 425 426
f 415 414 412
f 415 416 414
f 417 416 415
f 418 416 417
f 398 397 396
f 399 397 398
f 399 400 397
f 401 400 399
f 426 425 424
f 447 446 445
f 365 425 366
f 365 427 425
f 448 446 447
f 448 447 451
f 470 474 442
f 470 473 474
f 473 470 469
f 451 447 442
f 453 451 442
f 368 356 367
f 367 356 354
f 356 355 354
f 449 447 445
f 419 423 422
f 423 419 421
f 421 419 420
f 420 419 418
f 418 419 416
f 434 433 432
f 435 434 432
f 436 434 435
f 437 436 435
f 438 436 437
f 438 437 439
f 372 472 468
f 508 510 506
f 506 510 509
f 404 403 401
f 401 402 400
f 401 403 402
f 428 429 427
f 428 430 429
f 499 502 504
f 502 499 500
f 428 431 430
f 495 497 494
f 428 427 365
f 463 469 470
f 463 470 442
f 447 449 450
f 447 450 452
f 447 452 442
f 463 464 469
f 372 468 466
f 500 499 498
f 510 511 509
f 407 406 405
f 463 442 471
f 442 452 444
f 444 443 442
f 442 443 441
f 442 441 440
f 463 471 462
f 464 463 462
f 374 373 372
f 374 372 461
f 372 466 461
f 379 380 381
f 377 380 379
f 378 376 377
f 375 380 377
f 383 386 382
f 384 383 382
f 377 376 375
f 392 390 391
f 382 386 385
f 393 390 392
f 456 455 454
f 455 456 457
f 371 370 369
f 460 459 458
f 467 465 466
f 466 465 461
f 387 385 386
f 385 387 388
f 391 390 389
f 407 408 406
f 410 406 408
f 364 365 366
f 393 394 390
f 395 394 393
f 410 408 409
f 352 351 350
f 351 353 364
f 351 352 353
f 362 357 361
f 357 358 361
f 359 360 358
f 359 358 357
f 365 364 363
f 364 353 363
f 342 341 340
f 349 346 348
f 348 346 347
f 343 341 342
f 343 344 341
f 347 346 345
f 345 346 344
f 345 344 343
f 517 519 518
f 519 520 518
f 515 516 513
f 516 517 513
f 517 518 513
f 514 515 513
f 514 513 512
f 756 752 753
f 756 757 752
f 757 758 752
f 752 758 754
f 753 752 751
f 754 751 752
f 761 756 753
f 761 753 755
f 751 755 753
f 758 759 754
f 754 759 750
f 751 754 750
f 751 750 749
f 751 749 755
f 749 761 755
f 760 761 749
f 759 760 750
f 750 760 749
f 587 586 585
f 525 529 530
f 536 535 534
f 528 535 536
f 529 525 526
f 527 526 525
f 527 525 540
f 541 538 539
f 539 538 537
f 524 522 523
f 523 522 521
f 678 676 682
f 675 674 673
f 675 673 688
f 687 675 688
f 687 688 678
f 686 687 678
f 686 678 685
f 685 678 683
f 678 682 683
f 684 683 682
f 700 684 699
f 701 699 684
f 702 701 684
f 697 702 684
f 698 697 684
f 684 692 698
f 684 682 692
f 682 693 692
f 693 696 692
f 696 695 692
f 695 694 692
f 695 691 694
f 691 689 694
f 691 690 689
f 572 571 588
f 589 572 588
f 572 589 552
f 589 551 552
f 590 551 589
f 612 610 611
f 611 610 609
f 610 608 609
f 609 608 607
f 608 606 607
f 607 606 605
f 605 606 636
f 605 636 637
f 624 623 622
f 624 625 623
f 614 612 613
f 613 612 611
f 600 599 598
f 600 601 599
f 597 596 595
f 615 624 622
f 624 615 616
f 617 616 615
f 619 616 617
f 619 617 618
f 619 618 621
f 621 618 620
f 620 638 621
f 592 602 591
f 593 592 591
f 678 677 676
f 678 679 677
f 679 680 677
f 679 681 680
f 679 533 681
f 533 531 681
f 533 532 531
f 582 576 578
f 583 576 582
f 574 583 584
f 574 576 583
f 646 645 644
f 645 546 644
f 546 645 545
f 547 546 545
f 559 558 557
f 558 559 561
f 594 650 554
f 554 555 594
f 647 649 648
f 648 549 647
f 549 648 548
f 550 549 548
f 705 704 703
f 706 704 705
f 528 526 535
f 529 526 528
f 556 555 554
f 553 552 551
f 527 540 539
f 541 539 540
f 561 559 560
f 604 602 603
f 603 602 592
f 567 568 566
f 636 606 635
f 606 633 635
f 606 608 633
f 619 621 631
f 616 619 630
f 630 619 631
f 580 578 577
f 578 576 577
f 718 552 553
f 716 560 559
f 717 560 716
f 535 526 715
f 711 715 526
f 711 526 527
f 712 711 527
f 539 712 527
f 712 539 710
f 710 539 709
f 708 707 524
f 524 707 522
f 706 719 704
f 720 719 706
f 608 610 632
f 610 612 626
f 610 626 632
f 612 627 626
f 612 614 627
f 631 621 634
f 628 616 630
f 624 616 628
f 625 624 629
f 621 638 634
f 608 632 633
f 629 624 628
f 567 566 565
f 572 581 570
f 571 572 570
f 718 581 552
f 572 552 581
f 575 574 573
f 576 574 575
f 571 570 569
f 577 576 575
f 711 712 713
f 641 642 640
f 641 640 639
f 715 711 714
f 544 543 542
f 544 542 643
f 643 542 642
f 643 642 641
f 580 577 579
f 564 563 562
f 562 662 564
f 564 662 661
f 663 661 662
f 664 661 663
f 665 661 664
f 665 666 661
f 665 667 666
f 668 667 665
f 658 657 656
f 658 656 659
f 658 659 651
f 652 658 651
f 653 652 651
f 653 651 654
f 655 653 654
f 660 655 654
f 564 655 660
f 655 564 661
f 671 672 669
f 670 671 669
f 654 670 669
f 654 669 660
f 737 743 739
f 743 748 739
f 739 748 742
f 739 738 737
f 739 740 738
f 742 740 739
f 744 743 737
f 748 734 742
f 734 735 742
f 742 735 740
f 735 738 740
f 748 747 734
f 733 721 727
f 721 722 727
f 733 732 721
f 723 722 721
f 732 723 721
f 726 722 723
f 732 731 723
f 731 726 723
f 745 737 741
f 745 744 737
f 738 741 737
f 731 730 726
f 738 735 736
f 738 736 741
f 724 733 727
f 728 733 724
f 727 722 724
f 736 735 734
f 725 724 722
f 722 726 725
f 747 736 734
f 747 746 736
f 746 745 741
f 730 725 726
f 730 729 725
f 729 728 725
f 725 728 724
f 746 741 736
f 782 780 781
f 782 774 780
f 783 774 782
f 783 773 774
f 779 777 778
f 779 780 777
f 781 780 779
f 778 777 776
f 775 774 773
f 764 763 762
f 769 768 767
f 767 768 766
f 767 766 765
f 762 772 764
f 764 772 771
f 764 771 769
f 769 771 770
f 769 770 768
f 838 837 836
f 839 837 838
f 834 833 832
f 835 833 834
f 826 825 824
f 822 821 820
f 821 822 823
f 818 817 816
f 810 809 808
f 809 810 811
f 786 785 784
f 787 785 786
f 817 818 819
f 806 805 804
f 807 805 806
f 798 797 796
f 799 797 798
f 794 793 792
f 795 793 794
f 854 853 852
f 855 853 854
f 850 849 848
f 851 849 850
f 842 841 840
f 827 825 826
f 843 841 842
f 790 789 788
f 791 789 790
f 846 845 844
f 847 845 846
f 830 829 828
f 831 829 830
f 814 813 812
f 813 814 815
f 802 801 800
f 803 801 802
f 889 857 856
f 856 888 889
f 921 889 888
f 888 920 921
f 953 921 920
f 920 952 953
f 985 953 952
f 952 984 985
f 1017 985 984
f 984 1016 1017
f 1049 1017 1016
f 1016 1048 1049
f 1081 1049 1048
f 1048 1080 1081
f 1113 1081 1080
f 1080 1112 1113
f 1145 1113 1112
f 1112 1144 1145
f 1177 1145 1144
f 1144 1176 1177
f 1209 1177 1176
f 1176 1208 1209
f 1241 1209 1208
f 1208 1240 1241
f 1273 1241 1240
f 1240 1272 1273
f 1305 1273 1272
f 1272 1304 1305
f 1337 1305 1304
f 1304 1336 1337
f 1369 1337 1336
f 1336 1368 1369
f 1401 1369 1368
f 1368 1400 1401
f 1433 1401 1400
f 1400 1432 1433
f 1465 1433 1432
f 1432 1464 1465
f 1497 1465 1464
f 1464 1496 1497
f 1529 1497 1496
f 1496 1528 1529
f 1561 1529 1528
f 1528 1560 1561
f 1593 1561 1560
f 1560 1592 1593
f 1625 1593 1592
f 1592 1624 1625
f 1657 1625 1624
f 1624 1656 1657
f 1689 1657 1656
f 1656 1688 1689
f 1721 1689 1688
f 1688 1720 1721
f 1753 1721 1720
f 1720 1752 1753
f 1785 1753 1752
f 1752 1784 1785
f 1817 1785 1784
f 1784 1816 1817
f 1849 1817 1816
f 1816 1848 1849
f 890 858 857
f 857 889 890
f 922 890 889
f 889 921 922
f 954 922 921
f 921 953 954
f 986 954 953
f 953 985 986
f 1018 986 985
f 985 1017 1018
f 1050 1018 1017
f 1017 1049 1050
f 1082 1050 1049
f 1049 1081 1082
f 1114 1082 1081
f 1081 1113 1114
f 1146 1114 1113
f 1113 1145 1146
f 1178 1146 1145
f 1145 1177 1178
f 1210 1178 1177
f 1177 1209 1210
f 1242 1210 1209
f 1209 1241 1242
f 1274 1242 1241
f 1241 1273 1274
f 1306 1274 1273
f 1273 1305 1306
f 1338 1306 1305
f 1305 1337 1338
f 1370 1338 1337
f 1337 1369 1370
f 1402 1370 1369
f 1369 1401 1402
f 1434 1402 1401
f 1401 1433 1434
f 1466 1434 1433
f 1433 1465 1466
f 1498 1466 1465
f 1465 1497 1498
f 1530 1498 1497
f 1497 1529 1530
f 1562 1530 1529
f 1529 1561 1562
f 1594 1562 1561
f 1561 1593 1594
f 1626 1594 1593
f 1593 1625 1626
f 1658 1626 1625
f 1625 1657 1658
f 1690 1658 1657
f 1657 1689 1690
f 1722 1690 1689
f 1689 1721 1722
f 1754 1722 1721
f 1721 1753 1754
f 1786 1754 1753
f 1753 1785 1786
f 1818 1786 1785
f 1785 1817 1818
f 1850 1818 1817
f 1817 1849 1850
f 891 859 858
f 858 890 891
f 923 891 890
f 890 922 923
f 955 923 922
f 922 954 955
f 987 955 954
f 954 986 987
f 1019 987 986
f 986 1018 1019
f 1051 1019 1018
f 1018 1050 1051
f 1083 1051 1050
f 1050 1082 1083
f 1115 1083 1082
f 1082 1114 1115
f 1147 1115 1114
f 1114 1146 1147
f 1179 1147 1146
f 1146 1178 1179
f 1211 1179 1178
f 1178 1210 1211
f 1243 1211 1210
f 1210 1242 1243
f 1275 1243 1242
f 1242 1274 1275
f 1307 1275 1274
f 1274 1306 1307
f 1339 1307 1306
f 1306 1338 1339
f 1371 1339 1338
f 1338 1370 1371
f 1403 1371 1370
f 1370 1402 1403
f 1435 1403 1402
f 1402 1434 1435
f 1467 1435 1434
f 1434 1466 1467
f 1499 1467 1466
f 1466 1498 1499
f 1531 1499 1498
f 1498 1530 1531
f 1563 1531 1530
f 1530 1562 1563
f 1595 1563 1562
f 1562 1594 1595
f 1627 1595 1594
f 1594 1626 1627
f 1659 1627 1626
f 1626 1658 1659
f 1691 1659 1658
f 1658 1690 1691
f 1723 1691 1690
f 1690 1722 1723
f 1755 1723 1722
f 1722 1754 1755
f 1787 1755 1754
f 1754 1786 1787
f 1819 1787 1786
f 1786 1818 1819
f 1851 1819 1818
f 1818 1850 1851
f 892 860 859
f 859 891 892
f 924 892 891
f 891 923 924
f 956 924 923
f 923 955 956
f 988 956 955
f 955 987 988
f 1020 988 987
f 987 1019 1020
f 1052 1020 1019
f 1019 1051 1052
f 1084 1052 1051
f 1051 1083 1084
f 1116 1084 1083
f 1083 1115 1116
f 1148 1116 1115
f 1115 1147 1148
f 1180 1148 1147
f 1147 1179 1180
f 1212 1180 1179
f 1179 1211 1212
f 1244 1212 1211
f 1211 1243 1244
f 1276 1244 1243
f 1243 1275 1276
f 1308 1276 1275
f 1275 1307 1308
f 1340 1308 1307
f 1307 1339 1340
f 1372 1340 1339
f 1339 1371 1372
f 1404 1372 1371
f 1371 1403 1404
f 1436 1404 1403
f 1403 1435 1436
f 1468 1436 1435
f 1435 1467 1468
f 1500 1468 1467
f 1467 1499 1500
f 1532 1500 1499
f 1499 1531 1532
f 1564 1532 1531
f 1531 1563 1564
f 1596 1564 1563
f 1563 1595 1596
f 1628 1596 1595
f 1595 1627 1628
f 1660 1628 1627
f 1627 1659 1660
f 1692 1660 1659
f 1659 1691 1692
f 1724 1692 1691
f 1691 1723 1724
f 1756 1724 1723
f 1723 1755 1756
f 1788 1756 1755
f 1755 1787 1788
f 1820 1788 1787
f 1787 1819 1820
f 1852 1820 1819
f 1819 1851 1852
f 893 861 860
f 860 892 893
f 925 893 892
f 892 924 925
f 957 925 924
f 924 956 957
f 989 957 956
f 956 988 989
f 1021 989 988
f 988 1020 1021
f 1053 1021 1020
f 1020 1052 1053
f 1085 1053 1052
f 1052 1084 1085
f 1117 1085 1084
f 1084 1116 1117
f 1149 1117 1116
f 1116 1148 1149
f 1181 1149 1148
f 1148 1180 1181
f 1213 1181 1180
f 1180 1212 1213
f 1245 1213 1212
f 1212 1244 1245
f 1277 1245 1244
f 1244 1276 1277
f 1309 1277 1276
f 1276 1308 1309
f 1341 1309 1308
f 1308 1340 1341
f 1373 1341 1340
f 1340 1372 1373
f 1405 1373 1372
f 1372 1404 1405
f 1437 1405 1404
f 1404 1436 1437
f 1469 1437 1436
f 1436 1468 1469
f 1501 1469 1468
f 1468 1500 1501
f 1533 1501 1500
f 1500 1532 1533
f 1565 1533 1532
f 1532 1564 1565
f 1597 1565 1564
f 1564 1596 1597
f 1629 1597 1596
f 1596 1628 1629
f 1661 1629 1628
f 1628 1660 1661
f 1693 1661 1660
f 1660 1692 1693
f 1725 1693 1692
f 1692 1724 1725
f 1757 1725 1724
f 1724 1756 1757
f 1789 1757 1756
f 1756 1788 1789
f 1821 1789 1788
f 1788 1820 1821
f 1853 1821 1820
f 1820 1852 1853
f 894 862 861
f 861 893 894
f 926 894 893
f 893 925 926
f 958 926 925
f 925 957 958
f 990 958 957
f 957 989 990
f 1022 990 989
f 989 1021 1022
f 1054 1022 1021
f 1021 1053 1054
f 1086 1054 1053
f 1053 1085 1086
f 1118 1086 1085
f 1085 1117 1118
f 1150 1118 1117
f 1117 1149 1150
f 1182 1150 1149
f 1149 1181 1182
f 1214 1182 1181
f 1181 1213 1214
f 1246 1214 1213
f 1213 1245 1246
f 1278 1246 1245
f 1245 1277 1278
f 1310 1278 1277
f 1277 1309 1310
f 1342 1310 1309
f 1309 1341 1342
f 1374 1342 1341
f 1341 1373 1374
f 1406 1374 1373
f 1373 1405 1406
f 1438 1406 1405
f 1405 1437 1438
f 1470 1438 1437
f 1437 1469 1470
f 1502 1470 1469
f 1469 1501 1502
f 1534 1502 1501
f 1501 1533 1534
f 1566 1534 1533
f 1533 1565 1566
f 1598 1566 1565
f 1565 1597 1598
f 1630 1598 1597
f 1597 1629 1630
f 1662 1630 1629
f 1629 1661 1662
f 1694 1662 1661
f 1661 1693 1694
f 1726 1694 1693
f 1693 1725 1726
f 1758 1726 1725
f 1725 1757 1758
f 1790 1758 1757
f 1757 1789 1790
f 1822 1790 1789
f 1789 1821 1822
f 1854 1822 1821
f 1821 1853 1854
f 895 863 862
f 862 894 895
f 927 895 894
f 894 926 927
f 959 927 926
f 926 958 959
f 991 959 958
f 958 990 991
f 1023 991 990
f 990 1022 1023
f 1055 1023 1022
f 1022 1054 1055
f 1087 1055 1054
f 1054 1086 1087
f 1119 1087 1086
f 1086 1118 1119
f 1151 1119 1118
f 1118 1150 1151
f 1183 1151 1150
f 1150 1182 1183
f 1215 1183 1182
f 1182 1214 1215
f 1247 1215 1214
f 1214 1246 1247
f 1279 1247 1246
f 1246 1278 1279
f 1311 1279 1278
f 1278 1310 1311
f 1343 1311 1310
f 1310 1342 1343
f 1375 1343 1342
f 1342 1374 1375
f 1407 1375 1374
f 1374 1406 1407
f 1439 1407 1406
f 1406 1438 1439
f 1471 1439 1438
f 1438 1470 1471
f 1503 1471 1470
f 1470 1502 1503
f 1535 1503 1502
f 1502 1534 1535
f 1567 1535 1534
f 1534 1566 1567
f 1599 1567 1566
f 1566 1598 1599
f 1631 1599 1598
f 1598 1630 1631
f 1663 1631 1630
f 1630 1662 1663
f 1695 1663 1662
f 1662 1694 1695
f 1727 1695 1694
f 1694 1726 1727
f 1759 1727 1726
f 1726 1758 1759
f 1791 1759 1758
f 1758 1790 1791
f 1823 1791 1790
f 1790 1822 1823
f 1855 1823 1822
f 1822 1854 1855
f 896 864 863
f 863 895 896
f 928 896 895
f 895 927 928
f 960 928 927
f 927 959 960
f 992 960 959
f 959 991 992
f 1024 992 991
f 991 1023 1024
f 1056 1024 1023
f 1023 1055 1056
f 1088 1056 1055
f 1055 1087 1088
f 1120 1088 1087
f 1087 1119 1120
f 1152 1120 1119
f 1119 1151 1152
f 1184 1152 1151
f 1151 1183 1184
f 1216 1184 1183
f 1183 1215 1216
f 1248 1216 1215
f 1215 1247 1248
f 1280 1248 1247
f 1247 1279 1280
f 1312 1280 1279
f 1279 1311 1312
f 1344 1312 1311
f 1311 1343 1344
f 1376 1344 1343
f 1343 1375 1376
f 1408 1376 1375
f 1375 1407 1408
f 1440 1408 1407
f 1407 1439 1440
f 1472 1440 1439
f 1439 1471 1472
f 1504 1472 1471
f 1471 1503 1504
f 1536 1504 1503
f 1503 1535 1536
f 1568 1536 1535
f 1535 1567 1568
f 1600 1568 1567
f 1567 1599 1600
f 1632 1600 1599
f 1599 1631 1632
f 1664 1632 1631
f 1631 1663 1664
f 1696 1664 1663
f 1663 1695 1696
f 1728 1696 1695
f 1695 1727 1728
f 1760 1728 1727
f 1727 1759 1760
f 1792 1760 1759
f 1759 1791 1792
f 1824 1792 1791
f 1791 1823 1824
f 1856 1824 1823
f 1823 1855 1856
f 897 865 864
f 864 896 897
f 929 897 896
f 896 928 929
f 961 929 928
f 928 960 961
f 993 961 960
f 960 992 993
f 1025 993 992
f 992 1024 1025
f 1057 1025 1024
f 1024 1056 1057
f 1089 1057 1056
f 1056 1088 1089
f 1121 1089 1088
f 1088 1120 1121
f 1153 1121 1120
f 1120 1152 1153
f 1185 1153 1152
f 1152 1184 1185
f 1217 1185 1184
f 1184 1216 1217
f 1249 1217 1216
f 1216 1248 1249
f 1281 1249 1248
f 1248 1280 1281
f 1313 1281 1280
f 1280 1312 1313
f 1345 1313 1312
f 1312 1344 1345
f 1377 1345 1344
f 1344 1376 1377
f 1409 1377 1376
f 1376 1408 1409
f 1441 1409 1408
f 1408 1440 1441
f 1473 1441 1440
f 1440 1472 1473
f 1505 1473 1472
f 1472 1504 1505
f 1537 1505 1504
f 1504 1536 1537
f 1569 1537 1536
f 1536 1568 1569
f 1601 1569 1568
f 1568 1600 1601
f 1633 1601 1600
f 1600 1632 1633
f 1665 1633 1632
f 1632 1664 1665
f 1697 1665 1664
f 1664 1696 1697
f 1729 1697 1696
f 1696 1728 1729
f 1761 1729 1728
f 1728 1760 1761
f 1793 1761 1760
f 1760 1792 1793
f 1825 1793 1792
f 1792 1824 1825
f 1857 1825 1824
f 1824 1856 1857
f 898 866 865
f 865 897 898
f 930 898 897
f 897 929 930
f 962 930 929
f 929 961 962
f 994 962 961
f 961 993 994
f 1026 994 993
f 993 1025 1026
f 1058 1026 1025
f 1025 1057 1058
f 1090 1058 1057
f 1057 1089 1090
f 1122 1090 1089
f 1089 1121 1122
f 1154 1122 1121
f 1121 1153 1154
f 1186 1154 1153
f 1153 1185 1186
f 1218 1186 1185
f 1185 1217 1218
f 1250 1218 1217
f 1217 1249 1250
f 1282 1250 1249
f 1249 1281 1282
f 1314 1282 1281
f 1281 1313 1314
f 1346 1314 1313
f 1313 1345 1346
f 1378 1346 1345
f 1345 1377 1378
f 1410 1378 1377
f 1377 1409 1410
f 1442 1410 1409
f 1409 1441 1442
f 1474 1442 1441
f 1441 1473 1474
f 1506 1474 1473
f 1473 1505 1506
f 1538 1506 1505
f 1505 1537 1538
f 1570 1538 1537
f 1537 1569 1570
f 1602 1570 1569
f 1569 1601 1602
f 1634 1602 1601
f 1601 1633 1634
f 1666 1634 1633
f 1633 1665 1666
f 1698 1666 1665
f 1665 1697 1698
f 1730 1698 1697
f 1697 1729 1730
f 1762 1730 1729
f 1729 1761 1762
f 1794 1762 1761
f 1761 1793 1794
f 1826 1794 1793
f 1793 1825 1826
f 1858 1826 1825
f 1825 1857 1858
f 899 867 866
f 866 898 899
f 931 899 898
f 898 930 931
f 963 931 930
f 930 962 963
f 995 963 962
f 962 994 995
f 1027 995 994
f 994 1026 1027
f 1059 1027 1026
f 1026 1058 1059
f 1091 1059 1058
f 1058 1090 1091
f 1123 1091 1090
f 1090 1122 1123
f 1155 1123 1122
f 1122 1154 1155
f 1187 1155 1154
f 1154 1186 1187
f 1219 1187 1186
f 1186 1218 1219
f 1251 1219 1218
f 1218 1250 1251
f 1283 1251 1250
f 1250 1282 1283
f 1315 1283 1282
f 1282 1314 1315
f 1347 1315 1314
f 1314 1346 1347
f 1379 1347 1346
f 1346 1378 1379
f 1411 1379 1378
f 1378 1410 1411
f 1443 1411 1410
f 1410 1442 1443
f 1475 1443 1442
f 1442 1474 1475
f 1507 1475 1474
f 1474 1506 1507
f 1539 1507 1506
f 1506 1538 1539
f 1571 1539 1538
f 1538 1570 1571
f 1603 1571 1570
f 1570 1602 1603
f 1635 1603 1602
f 1602 1634 1635
f 1667 1635 1634
f 1634 1666 1667
f 1699 1667 1666
f 1666 1698 1699
f 1731 1699 1698
f 1698 1730 1731
f 1763 1731 1730
f 1730 1762 1763
f 1795 1763 1762
f 1762 1794 1795
f 1827 1795 1794
f 1794 1826 1827
f 1859 1827 1826
f 1826 1858 1859
f 900 868 867
f 867 899 900
f 932 900 899
f 899 931 932
f 964 932 931
f 931 963 964
f 996 964 963
f 963 995 996
f 1028 996 995
f 995 1027 1028
f 1060 1028 1027
f 1027 1059 1060
f 1092 1060 1059
f 1059 1091 1092
f 1124 1092 1091
f 1091 1123 1124
f 1156 1124 1123
f 1123 1155 1156
f 1188 1156 1155
f 1155 1187 1188
f 1220 1188 1187
f 1187 1219 1220
f 1252 1220 1219
f 1219 1251 1252
f 1284 1252 1251
f 1251 1283 1284
f 1316 1284 1283
f 1283 1315 1316
f 1348 1316 1315
f 1315 1347 1348
f 1380 1348 1347
f 1347 1379 1380
f 1412 1380 1379
f 1379 1411 1412
f 1444 1412 1411
f 1411 1443 1444
f 1476 1444 1443
f 1443 1475 1476
f 1508 1476 1475
f 1475 1507 1508
f 1540 1508 1507
f 1507 1539 1540
f 1572 1540 1539
f 1539 1571 1572
f 1604 1572 1571
f 1571 1603 1604
f 1636 1604 1603
f 1603 1635 1636
f 1668 1636 1635
f 1635 1667 1668
f 1700 1668 1667
f 1667 1699 1700
f 1732 1700 1699
f 1699 1731 1732
f 1764 1732 1731
f 1731 1763 1764
f 1796 1764 1763
f 1763 1795 1796
f 1828 1796 1795
f 1795 1827 1828
f 1860 1828 1827
f 1827 1859 1860
f 901 869 868
f 868 900 901
f 933 901 900
f 900 932 933
f 965 933 932
f 932 964 965
f 997 965 964
f 964 996 997
f 1029 997 996
f 996 1028 1029
f 1061 1029 1028
f 1028 1060 1061
f 1093 1061 1060
f 1060 1092 1093
f 1125 1093 1092
f 1092 1124 1125
f 1157 1125 1124
f 1124 1156 1157
f 1189 1157 1156
f 1156 1188 1189
f 1221 1189 1188
f 1188 1220 1221
f 1253 1221 1220
f 1220 1252 1253
f 1285 1253 1252
f 1252 1284 1285
f 1317 1285 1284
f 1284 1316 1317
f 1349 1317 1316
f 1316 1348 1349
f 1381 1349 1348
f 1348 1380 1381
f 1413 1381 1380
f 1380 1412 1413
f 1445 1413 1412
f 1412 1444 1445
f 1477 1445 1444
f 1444 1476 1477
f 1509 1477 1476
f 1476 1508 1509
f 1541 1509 1508
f 1508 1540 1541
f 1573 1541 1540
f 1540 1572 1573
f 1605 1573 1572
f 1572 1604 1605
f 1637 1605 1604
f 1604 1636 1637
f 1669 1637 1636
f 1636 1668 1669
f 1701 1669 1668
f 1668 1700 1701
f 1733 1701 1700
f 1700 1732 1733
f 1765 1733 1732
f 1732 1764 1765
f 1797 1765 1764
f 1764 1796 1797
f 1829 1797 1796
f 1796 1828 1829
f 1861 1829 1828
f 1828 1860 1861
f 902 870 869
f 869 901 902
f 934 902 901
f 901 933 934
f 966 934 933
f 933 965 966
f 998 966 965
f 965 997 998
f 1030 998 997
f 997 1029 1030
f 1062 1030 1029
f 1029 1061 1062
f 1094 1062 1061
f 1061 1093 1094
f 1126 1094 1093
f 1093 1125 1126
f 1158 1126 1125
f 1125 1157 1158
f 1190 1158 1157
f 1157 1189 1190
f 1222 1190 1189
f 1189 1221 1222
f 1254 1222 1221
f 1221 1253 1254
f 1286 1254 1253
f 1253 1285 1286
f 1318 1286 1285
f 1285 1317 1318
f 1350 1318 1317
f 1317 1349 1350
f 1382 1350 1349
f 1349 1381 1382
f 1414 1382 1381
f 1381 1413 1414
f 1446 1414 1413
f 1413 1445 1446
f 1478 1446 1445
f 1445 1477 1478
f 1510 1478 1477
f 1477 1509 1510
f 1542 1510 1509
f 1509 1541 1542
f 1574 1542 1541
f 1541 1573 1574
f 1606 1574 1573
f 1573 1605 1606
f 1638 1606 1605
f 1605 1637 1638
f 1670 1638 1637
f 1637 1669 1670
f 1702 1670 1669
f 1669 1701 1702
f 1734 1702 1701
f 1701 1733 1734
f 1766 1734 1733
f 1733 1765 1766
f 1798 1766 1765
f 1765 1797 1798
f 1830 1798 1797
f 1797 1829 1830
f 1862 1830 1829
f 1829 1861 1862
f 903 871 870
f 870 902 903
f 935 903 902
f 902 934 935
f 967 935 934
f 934 966 967
f 999 967 966
f 966 998 999
f 1031 999 998
f 998 1030 1031
f 1063 1031 1030
f 1030 1062 1063
f 1095 1063 1062
f 1062 1094 1095
f 1127 1095 1094
f 1094 1126 1127
f 1159 1127 1126
f 1126 1158 1159
f 1191 1159 1158
f 1158 1190 1191
f 1223 1191 1190
f 1190 1222 1223
f 1255 1223 1222
f 1222 1254 1255
f 1287 1255 1254
f 1254 1286 1287
f 1319 1287 1286
f 1286 1318 1319
f 1351 1319 1318
f 1318 1350 1351
f 1383 1351 1350
f 1350 1382 1383
f 1415 1383 1382
f 1382 1414 1415
f 1447 1415 1414
f 1414 1446 1447
f 1479 1447 1446
f 1446 1478 1479
f 1511 1479 1478
f 1478 1510 1511
f 1543 1511 1510
f 1510 1542 1543
f 1575 1543 1542
f 1542 1574 1575
f 1607 1575 1574
f 1574 1606 1607
f 1639 1607 1606
f 1606 1638 1639
f 1671 1639 1638
f 1638 1670 1671
f 1703 1671 1670
f 1670 1702 1703
f 1735 1703 1702
f 1702 1734 1735
f 1767 1735 1734
f 1734 1766 1767
f 1799 1767 1766
f 1766 1798 1799
f 1831 1799 1798
f 1798 1830 1831
f 1863 1831 1830
f 1830 1862 1863
f 904 872 871
f 871 903 904
f 936 904 903
f 903 935 936
f 968 936 935
f 935 967 968
f 1000 968 967
f 967 999 1000
f 1032 1000 999
f 999 1031 1032
f 1064 1032 1031
f 1031 1063 1064
f 1096 1064 1063
f 1063 1095 1096
f 1128 1096 1095
f 1095 1127 1128
f 1160 1128 1127
f 1127 1159 1160
f 1192 1160 1159
f 1159 1191 1192
f 1224 1192 1191
f 1191 1223 1224
f 1256 1224 1223
f 1223 1255 1256
f 1288 1256 1255
f 1255 1287 1288
f 1320 1288 1287
f 1287 1319 1320
f 1352 1320 1319
f 1319 1351 1352
f 1384 1352 1351
f 1351 1383 1384
f 1416 1384 1383
f 1383 1415 1416
f 1448 1416 1415
f 1415 1447 1448
f 1480 1448 1447
f 1447 1479 1480
f 1512 1480 1479
f 1479 1511 1512
f 1544 1512 1511
f 1511 1543 1544
f 1576 1544 1543
f 1543 1575 1576
f 1608 1576 1575
f 1575 1607 1608
f 1640 1608 1607
f 1607 1639 1640
f 1672 1640 1639
f 1639 1671 1672
f 1704 1672 1671
f 1671 1703 1704
f 1736 1704 1703
f 1703 1735 1736
f 1768 1736 1735
f 1735 1767 1768
f 1800 1768 1767
f 1767 1799 1800
f 1832 1800 1799
f 1799 1831 1832
f 1864 1832 1831
f 1831 1863 1864
f 905 873 872
f 872 904 905
f 937 905 904
f 904 936 937
f 969 937 936
f 936 968 969
f 1001 969 968
f 968 1000 1001
f 1033 1001 1000
f 1000 1032 1033
f 1065 1033 1032
f 1032 1064 1065
f 1097 1065 1064
f 1064 1096 1097
f 1129 1097 1096
f 1096 1128 1129
f 1161 1129 1128
f 1128 1160 1161
f 1193 1161 1160
f 1160 1192 1193
f 1225 1193 1192
f 1192 1224 1225
f 1257 1225 1224
f 1224 1256 1257
f 1289 1257 1256
f 1256 1288 1289
f 1321 1289 1288
f 1288 1320 1321
f 1353 1321 1320
f 1320 1352 1353
f 1385 1353 1352
f 1352 1384 1385
f 1417 1385 1384
f 1384 1416 1417
f 1449 1417 1416
f 1416 1448 1449
f 1481 1449 1448
f 1448 1480 1481
f 1513 1481 1480
f 1480 1512 1513
f 1545 1513 1512
f 1512 1544 1545
f 1577 1545 1544
f 1544 1576 1577
f 1609 1577 1576
f 1576 1608 1609
f 1641 1609 1608
f 1608 1640 1641
f 1673 1641 1640
f 1640 1672 1673
f 1705 1673 1672
f 1672 1704 1705
f 1737 1705 1704
f 1704 1736 1737
f 1769 1737 1736
f 1736 1768 1769
f 1801 1769 1768
f 1768 1800 1801
f 1833 1801 1800
f 1800 1832 1833
f 1865 1833 1832
f 1832 1864 1865
f 906 874 873
f 873 905 906
f 938 906 905
f 905 937 938
f 970 938 937
f 937 969 970
f 1002 970 969
f 969 1001 1002
f 1034 1002 1001
f 1001 1033 1034
f 1066 1034 1033
f 1033 1065 1066
f 1098 1066 1065
f 1065 1097 1098
f 1130 1098 1097
f 1097 1129 1130
f 1162 1130 1129
f 1129 1161 1162
f 1194 1162 1161
f 1161 1193 1194
f 1226 1194 1193
f 1193 1225 1226
f 1258 1226 1225
f 1225 1257 1258
f 1290 1258 1257
f 1257 1289 1290
f 1322 1290 1289
f 1289 1321 1322
f 1354 1322 1321
f 1321 1353 1354
f 1386 1354 1353
f 1353 1385 1386
f 1418 1386 1385
f 1385 1417 1418
f 1450 1418 1417
f 1417 1449 1450
f 1482 1450 1449
f 1449 1481 1482
f 1514 1482 1481
f 1481 1513 1514
f 1546 1514 1513
f 1513 1545 1546
f 1578 1546 1545
f 1545 1577 1578
f 1610 1578 1577
f 1577 1609 1610
f 1642 1610 1609
f 1609 1641 1642
f 1674 1642 1641
f 1641 1673 1674
f 1706 1674 1673
f 1673 1705 1706
f 1738 1706 1705
f 1705 1737 1738
f 1770 1738 1737
f 1737 1769 1770
f 1802 1770 1769
f 1769 1801 1802
f 1834 1802 1801
f 1801 1833 1834
f 1866 1834 1833
f 1833 1865 1866
f 907 875 874
f 874 906 907
f 939 907 906
f 906 938 939
f 971 939 938
f 938 970 971
f 1003 971 970
f 970 1002 1003
f 1035 1003 1002
f 1002 1034 1035
f 1067 1035 1034
f 1034 1066 1067
f 1099 1067 1066
f 1066 1098 1099
f 1131 1099 1098
f 1098 1130 1131
f 1163 1131 1130
f 1130 1162 1163
f 1195 1163 1162
f 1162 1194 1195
f 1227 1195 1194
f 1194 1226 1227
f 1259 1227 1226
f 1226 1258 1259
f 1291 1259 1258
f 1258 1290 1291
f 1323 1291 1290
f 1290 1322 1323
f 1355 1323 1322
f 1322 1354 1355
f 1387 1355 1354
f 1354 1386 1387
f 1419 1387 1386
f 1386 1418 1419
f 1451 1419 1418
f 1418 1450 1451
f 1483 1451 1450
f 1450 1482 1483
f 1515 1483 1482
f 1482 1514 1515
f 1547 1515 1514
f 1514 1546 1547
f 1579 1547 1546
f 1546 1578 1579
f 1611 1579 1578
f 1578 1610 1611
f 1643 1611 1610
f 1610 1642 1643
f 1675 1643 1642
f 1642 1674 1675
f 1707 1675 1674
f 1674 1706 1707
f 1739 1707 1706
f 1706 1738 1739
f 1771 1739 1738
f 1738 1770 1771
f 1803 1771 1770
f 1770 1802 1803
f 1835 1803 1802
f 1802 1834 1835
f 1867 1835 1834
f 1834 1866 1867
f 908 876 875
f 875 907 908
f 940 908 907
f 907 939 940
f 972 940 939
f 939 971 972
f 1004 972 971
f 971 1003 1004
f 1036 1004 1003
f 1003 1035 1036
f 1068 1036 1035
f 1035 1067 1068
f 1100 1068 1067
f 1067 1099 1100
f 1132 1100 1099
f 1099 1131 1132
f 1164 1132 1131
f 1131 1163 1164
f 1196 1164 1163
f 1163 1195 1196
f 1228 1196 1195
f 1195 1227 1228
f 1260 1228 1227
f 1227 1259 1260
f 1292 1260 1259
f 1259 1291 1292
f 1324 1292 1291
f 1291 1323 1324
f 1356 1324 1323
f 1323 1355 1356
f 1388 1356 1355
f 1355 1387 1388
f 1420 1388 1387
f 1387 1419 1420
f 1452 1420 1419
f 1419 1451 1452
f 1484 1452 1451
f 1451 1483 1484
f 1516 1484 1483
f 1483 1515 1516
f 1548 1516 1515
f 1515 1547 1548
f 1580 1548 1547
f 1547 1579 1580
f 1612 1580 1579
f 1579 1611 1612
f 1644 1612 1611
f 1611 1643 1644
f 1676 1644 1643
f 1643 1675 1676
f 1708 1676 1675
f 1675 1707 1708
f 1740 1708 1707
f 1707 1739 1740
f 1772 1740 1739
f 1739 1771 1772
f 1804 1772 1771
f 1771 1803 1804
f 1836 1804 1803
f 1803 1835 1836
f 1868 1836 1835
f 1835 1867 1868
f 909 877 876
f 876 908 909
f 941 909 908
f 908 940 941
f 973 941 940
f 940 972 973
f 1005 973 972
f 972 1004 1005
f 1037 1005 1004
f 1004 1036 1037
f 1069 1037 1036
f 1036 1068 1069
f 1101 1069 1068
f 1068 1100 1101
f 1133 1101 1100
f 1100 1132 1133
f 1165 1133 1132
f 1132 1164 1165
f 1197 1165 1164
f 1164 1196 1197
f 1229 1197 1196
f 1196 1228 1229
f 1261 1229 1228
f 1228 1260 1261
f 1293 1261 1260
f 1260 1292 1293
f 1325 1293 1292
f 1292 1324 1325
f 1357 1325 1324
f 1324 1356 1357
f 1389 1357 1356
f 1356 1388 1389
f 1421 1389 1388
f 1388 1420 1421
f 1453 1421 1420
f 1420 1452 1453
f 1485 1453 1452
f 1452 1484 1485
f 1517 1485 1484
f 1484 1516 1517
f 1549 1517 1516
f 1516 1548 1549
f 1581 1549 1548
f 1548 1580 1581
f 1613 1581 1580
f 1580 1612 1613
f 1645 1613 1612
f 1612 1644 1645
f 1677 1645 1644
f 1644 1676 1677
f 1709 1677 1676
f 1676 1708 1709
f 1741 1709 1708
f 1708 1740 1741
f 1773 1741 1740
f 1740 1772 1773
f 1805 1773 1772
f 1772 1804 1805
f 1837 1805 1804
f 1804 1836 1837
f 1869 1837 1836
f 1836 1868 1869
f 910 878 877
f 877 909 910
f 942 910 909
f 909 941 942
f 974 942 941
f 941 973 974
f 1006 974 973
f 973 1005 1006
f 1038 1006 1005
f 1005 1037 1038
f 1070 1038 1037
f 1037 1069 1070
f 1102 1070 1069
f 1069 1101 1102
f 1134 1102 1101
f 1101 1133 1134
f 1166 1134 1133
f 1133 1165 1166
f 1198 1166 1165
f 1165 1197 1198
f 1230 1198 1197
f 1197 1229 1230
f 1262 1230 1229
f 1229 1261 1262
f 1294 1262 1261
f 1261 1293 1294
f 1326 1294 1293
f 1293 1325 1326
f 1358 1326 1325
f 1325 1357 1358
f 1390 1358 1357
f 1357 1389 1390
f 1422 1390 1389
f 1389 1421 1422
f 1454 1422 1421
f 1421 1453 1454
f 1486 1454 1453
f 1453 1485 1486
f 1518 1486 1485
f 1485 1517 1518
f 1550 1518 1517
f 1517 1549 1550
f 1582 1550 1549
f 1549 1581 1582
f 1614 1582 1581
f 1581 1613 1614
f 1646 1614 1613
f 1613 1645 1646
f 1678 1646 1645
f 1645 1677 1678
f 1710 1678 1677
f 1677 1709 1710
f 1742 1710 1709
f 1709 1741 1742
f 1774 1742 1741
f 1741 1773 1774
f 1806 1774 1773
f 1773 1805 1806
f 1838 1806 1805
f 1805 1837 1838
f 1870 1838 1837
f 1837 1869 1870
f 911 879 878
f 878 910 911
f 943 911 910
f 910 942 943
f 975 943 942
f 942 974 975
f 1007 975 974
f 974 1006 1007
f 1039 1007 1006
f 1006 1038 1039
f 1071 1039 1038
f 1038 1070 1071
f 1103 1071 1070
f 1070 1102 1103
f 1135 1103 1102
f 1102 1134 1135
f 1167 1135 1134
f 1134 1166 1167
f 1199 1167 1166
f 1166 1198 1199
f 1231 1199 1198
f 1198 1230 1231
f 1263 1231 1230
f 1230 1262 1263
f 1295 1263 1262
f 1262 1294 1295
f 1327 1295 1294
f 1294 1326 1327
f 1359 1327 1326
f 1326 1358 1359
f 1391 1359 1358
f 1358 1390 1391
f 1423 1391 1390
f 1390 1422 1423
f 1455 1423 1422
f 1422 1454 1455
f 1487 1455 1454
f 1454 1486 1487
f 1519 1487 1486
f 1486 1518 1519
f 1551 1519 1518
f 1518 1550 1551
f 1583 1551 1550
f 1550 1582 1583
f 1615 1583 1582
f 1582 1614 1615
f 1647 1615 1614
f 1614 1646 1647
f 1679 1647 1646
f 1646 1678 1679
f 1711 1679 1678
f 1678 1710 1711
f 1743 1711 1710
f 1710 1742 1743
f 1775 1743 1742
f 1742 1774 1775
f 1807 1775 1774
f 1774 1806 1807
f 1839 1807 1806
f 1806 1838 1839
f 1871 1839 1838
f 1838 1870 1871
f 912 880 879
f 879 911 912
f 944 912 911
f 911 943 944
f 976 944 943
f 943 975 976
f 1008 976 975
f 975 1007 1008
f 1040 1008 1007
f 1007 1039 1040
f 1072 1040 1039
f 1039 1071 1072
f 1104 1072 1071
f 1071 1103 1104
f 1136 1104 1103
f 1103 1135 1136
f 1168 1136 1135
f 1135 1167 1168
f 1200 1168 1167
f 1167 1199 1200
f 1232 1200 1199
f 1199 1231 1232
f 1264 1232 1231
f 1231 1263 1264
f 1296 1264 1263
f 1263 1295 1296
f 1328 1296 1295
f 1295 1327 1328
f 1360 1328 1327
f 1327 1359 1360
f 1392 1360 1359
f 1359 1391 1392
f 1424 1392 1391
f 1391 1423 1424
f 1456 1424 1423
f 1423 1455 1456
f 1488 1456 1455
f 1455 1487 1488
f 1520 1488 1487
f 1487 1519 1520
f 1552 1520 1519
f 1519 1551 1552
f 1584 1552 1551
f 1551 1583 1584
f 1616 1584 1583
f 1583 1615 1616
f 1648 1616 1615
f 1615 1647 1648
f 1680 1648 1647
f 1647 1679 1680
f 1712 1680 1679
f 1679 1711 1712
f 1744 1712 1711
f 1711 1743 1744
f 1776 1744 1743
f 1743 1775 1776
f 1808 1776 1775
f 1775 1807 1808
f 1840 1808 1807
f 1807 1839 1840
f 1872 1840 1839
f 1839 1871 1872
f 913 881 880
f 880 912 913
f 945 913 912
f 912 944 945
f 977 945 944
f 944 976 977
f 1009 977 976
f 976 1008 1009
f 1041 1009 1008
f 1008 1040 1041
f 1073 1041 1040
f 1040 1072 1073
f 1105 1073 1072
f 1072 1104 1105
f 1137 1105 1104
f 1104 1136 1137
f 1169 1137 1136
f 1136 1168 1169
f 1201 1169 1168
f 1168 1200 1201
f 1233 1201 1200
f 1200 1232 1233
f 1265 1233 1232
f 1232 1264 1265
f 1297 1265 1264
f 1264 1296 1297
f 1329 1297 1296
f 1296 1328 1329
f 1361 1329 1328
f 1328 1360 1361
f 1393 1361 1360
f 1360 1392 1393
f 1425 1393 1392
f 1392 1424 1425
f 1457 1425 1424
f 1424 1456 1457
f 1489 1457 1456
f 1456 1488 1489
f 1521 1489 1488
f 1488 1520 1521
f 1553 1521 1520
f 1520 1552 1553
f 1585 1553 1552
f 1552 1584 1585
f 1617 1585 1584
f 1584 1616 1617
f 1649 1617 1616
f 1616 1648 1649
f 1681 1649 1648
f 1648 1680 1681
f 1713 1681 1680
f 1680 1712 1713
f 1745 1713 1712
f 1712 1744 1745
f 1777 1745 1744
f 1744 1776 1777
f 1809 1777 1776
f 1776 1808 1809
f 1841 1809 1808
f 1808 1840 1841
f 1873 1841 1840
f 1840 1872 1873
f 914 882 881
f 881 913 914
f 946 914 913
f 913 945 946
f 978 946 945
f 945 977 978
f 1010 978 977
f 977 1009 1010
f 1042 1010 1009
f 1009 1041 1042
f 1074 1042 1041
f 1041 1073 1074
f 1106 1074 1073
f 1073 1105 1106
f 1138 1106 1105
f 1105 1137 1138
f 1170 1138 1137
f 1137 1169 1170
f 1202 1170 1169
f 1169 1201 1202
f 1234 1202 1201
f 1201 1233 1234
f 1266 1234 1233
f 1233 1265 1266
f 1298 1266 1265
f 1265 1297 1298
f 1330 1298 1297
f 1297 1329 1330
f 1362 1330 1329
f 1329 1361 1362
f 1394 1362 1361
f 1361 1393 1394
f 1426 1394 1393
f 1393 1425 1426
f 1458 1426 1425
f 1425 1457 1458
f 1490 1458 1457
f 1457 1489 1490
f 1522 1490 1489
f 1489 1521 1522
f 1554 1522 1521
f 1521 1553 1554
f 1586 1554 1553
f 1553 1585 1586
f 1618 1586 1585
f 1585 1617 1618
f 1650 1618 1617
f 1617 1649 1650
f 1682 1650 1649
f 1649 1681 1682
f 1714 1682 1681
f 1681 1713 1714
f 1746 1714 1713
f 1713 1745 1746
f 1778 1746 1745
f 1745 1777 1778
f 1810 1778 1777
f 1777 1809 1810
f 1842 1810 1809
f 1809 1841 1842
f 1874 1842 1841
f 1841 1873 1874
f 915 883 882
f 882 914 915
f 947 915 914
f 914 946 947
f 979 947 946
f 946 978 979
f 1011 979 978
f 978 1010 1011
f 1043 1011 1010
f 1010 1042 1043
f 1075 1043 1042
f 1042 1074 1075
f 1107 1075 1074
f 1074 1106 1107
f 1139 1107 1106
f 1106 1138 1139
f 1171 1139 1138
f 1138 1170 1171
f 1203 1171 1170
f 1170 1202 1203
f 1235 1203 1202
f 1202 1234 1235
f 1267 1235 1234
f 1234 1266 1267
f 1299 1267 1266
f 1266 1298 1299
f 1331 1299 1298
f 1298 1330 1331
f 1363 1331 1330
f 1330 1362 1363
f 1395 1363 1362
f 1362 1394 1395
f 1427 1395 1394
f 1394 1426 1427
f 1459 1427 1426
f 1426 1458 1459
f 1491 1459 1458
f 1458 1490 1491
f 1523 1491 1490
f 1490 1522 1523
f 1555 1523 1522
f 1522 1554 1555
f 1587 1555 1554
f 1554 1586 1587
f 1619 1587 1586
f 1586 1618 1619
f 1651 1619 1618
f 1618 1650 1651
f 1683 1651 1650
f 1650 1682 1683
f 1715 1683 1682
f 1682 1714 1715
f 1747 1715 1714
f 1714 1746 1747
f 1779 1747 1746
f 1746 1778 1779
f 1811 1779 1778
f 1778 1810 1811
f 1843 1811 1810
f 1810 1842 1843
f 1875 1843 1842
f 1842 1874 1875
f 916 884 883
f 883 915 916
f 948 916 915
f 915 947 948
f 980 948 947
f 947 979 980
f 1012 980 979
f 979 1011 1012
f 1044 1012 1011
f 1011 1043 1044
f 1076 1044 1043
f 1043 1075 1076
f 1108 1076 1075
f 1075 1107 1108
f 1140 1108 1107
f 1107 1139 1140
f 1172 1140 1139
f 1139 1171 1172
f 1204 1172 1171
f 1171 1203 1204
f 1236 1204 1203
f 1203 1235 1236
f 1268 1236 1235
f 1235 1267 1268
f 1300 1268 1267
f 1267 1299 1300
f 1332 1300 1299
f 1299 1331 1332
f 1364 1332 1331
f 1331 1363 1364
f 1396 1364 1363
f 1363 1395 1396
f 1428 1396 1395
f 1395 1427 1428
f 1460 1428 1427
f 1427 1459 1460
f 1492 1460 1459
f 1459 1491 1492
f 1524 1492 1491
f 1491 1523 1524
f 1556 1524 1523
f 1523 1555 1556
f 1588 1556 1555
f 1555 1587 1588
f 1620 1588 1587
f 1587 1619 1620
f 1652 1620 1619
f 1619 1651 1652
f 1684 1652 1651
f 1651 1683 1684
f 1716 1684 1683
f 1683 1715 1716
f 1748 1716 1715
f 1715 1747 1748
f 1780 1748 1747
f 1747 1779 1780
f 1812 1780 1779
f 1779 1811 1812
f 1844 1812 1811
f 1811 1843 1844
f 1876 1844 1843
f 1843 1875 1876
f 917 885 884
f 884 916 917
f 949 917 916
f 916 948 949
f 981 949 948
f 948 980 981
f 1013 981 980
f 980 1012 1013
f 1045 1013 1012
f 1012 1044 1045
f 1077 1045 1044
f 1044 1076 1077
f 1109 1077 1076
f 1076 1108 1109
f 1141 1109 1108
f 1108 1140 1141
f 1173 1141 1140
f 1140 1172 1173
f 1205 1173 1172
f 1172 1204 1205
f 1237 1205 1204
f 1204 1236 1237
f 1269 1237 1236
f 1236 1268 1269
f 1301 1269 1268
f 1268 1300 1301
f 1333 1301 1300
f 1300 1332 1333
f 1365 1333 1332
f 1332 1364 1365
f 1397 1365 1364
f 1364 1396 1397
f 1429 1397 1396
f 1396 1428 1429
f 1461 1429 1428
f 1428 1460 1461
f 1493 1461 1460
f 1460 1492 1493
f 1525 1493 1492
f 1492 1524 1525
f 1557 1525 1524
f 1524 1556 1557
f 1589 1557 1556
f 1556 1588 1589
f 1621 1589 1588
f 1588 1620 1621
f 1653 1621 1620
f 1620 1652 1653
f 1685 1653 1652
f 1652 1684 1685
f 1717 1685 1684
f 1684 1716 1717
f 1749 1717 1716
f 1716 1748 1749
f 1781 1749 1748
f 1748 1780 1781
f 1813 1781 1780
f 1780 1812 1813
f 1845 1813 1812
f 1812 1844 1845
f 1877 1845 1844
f 1844 1876 1877
f 918 886 885
f 885 917 918
f 950 918 917
f 917 949 950
f 982 950 949
f 949 981 982
f 1014 982 981
f 981 1013 1014
f 1046 1014 1013
f 1013 1045 1046
f 1078 1046 1045
f 1045 1077 1078
f 1110 1078 1077
f 1077 1109 1110
f 1142 1110 1109
f 1109 1141 1142
f 1174 1142 1141
f 1141 1173 1174
f 1206 1174 1173
f 1173 1205 1206
f 1238 1206 1205
f 1205 1237 1238
f 1270 1238 1237
f 1237 1269 1270
f 1302 1270 1269
f 1269 1301 1302
f 1334 1302 1301
f 1301 1333 1334
f 1366 1334 1333
f 1333 1365 1366
f 1398 1366 1365
f 1365 1397 1398
f 1430 1398 1397
f 1397 1429 1430
f 1462 1430 1429
f 1429 1461 1462
f 1494 1462 1461
f 1461 1493 1494
f 1526 1494 1493
f 1493 1525 1526
f 1558 1526 1525
f 1525 1557 1558
f 1590 1558 1557
f 1557 1589 1590
f 1622 1590 1589
f 1589 1621 1622
f 1654 1622 1621
f 1621 1653 1654
f 1686 1654 1653
f 1653 1685 1686
f 1718 1686 1685
f 1685 1717 1718
f 1750 1718 1717
f 1717 1749 1750
f 1782 1750 1749
f 1749 1781 1782
f 1814 1782 1781
f 1781 1813 1814
f 1846 1814 1813
f 1813 1845 1846
f 1878 1846 1845
f 1845 1877 1878
f 919 887 886
f 886 918 919
f 951 919 918
f 918 950 951
f 983 951 950
f 950 982 983
f 1015 983 982
f 982 1014 1015
f 1047 1015 1014
f 1014 1046 1047
f 1079 1047 1046
f 1046 1078 1079
f 1111 1079 1078
f 1078 1110 1111
f 1143 1111 1110
f 1110 1142 1143
f 1175 1143 1142
f 1142 1174 1175
f 1207 1175 1174
f 1174 1206 1207
f 1239 1207 1206
f 1206 1238 1239
f 1271 1239 1238
f 1238 1270 1271
f 1303 1271 1270
f 1270 1302 1303
f 1335 1303 1302
f 1302 1334 1335
f 1367 1335 1334
f 1334 1366 1367
f 1399 1367 1366
f 1366 1398 1399
f 1431 1399 1398
f 1398 1430 1431
f 1463 1431 1430
f 1430 1462 1463
f 1495 1463 1462
f 1462 1494 1495
f 1527 1495 1494
f 1494 1526 1527
f 1559 1527 1526
f 1526 1558 1559
f 1591 1559 1558
f 1558 1590 1591
f 1623 1591 1590
f 1590 1622 1623
f 1655 1623 1622
f 1622 1654 1655
f 1687 1655 1654
f 1654 1686 1687
f 1719 1687 1686
f 1686 1718 1719
f 1751 1719 1718
f 1718 1750 1751
f 1783 1751 1750
f 1750 1782 1783
f 1815 1783 1782
f 1782 1814 1815
f 1847 1815 1814
f 1814 1846 1847
f 1879 1847 1846
f 1846 1878 1879
