v -1773.08 33.1552 489.544
v -1771.11 36.3469 489.24
v -1772.43 32.7844 489.544
v -1770.68 36.1012 489.24
v -1772.43 32.7844 489.544
v -1770.68 36.1012 489.24
v -1771.98 32.5222 489.016
v -1770.38 35.9275 488.891
v -1771.98 32.5222 489.016
v -1770.38 35.9275 488.891
v -1771.98 32.5222 488.27
v -1770.38 35.9275 488.396
v -1771.98 32.5222 488.27
v -1770.38 35.9275 488.396
v -1772.43 32.7844 487.743
v -1770.68 36.1012 488.046
v -1772.43 32.7844 487.743
v -1770.68 36.1012 488.046
v -1773.08 33.1552 487.743
v -1771.11 36.3469 488.046
v -1773.08 33.1552 487.743
v -1771.11 36.3469 488.046
v -1773.54 33.4174 488.27
v -1771.41 36.5207 488.396
v -1773.54 33.4174 488.27
v -1771.41 36.5207 488.396
v -1773.54 33.4174 489.016
v -1771.41 36.5207 488.891
v -1773.54 33.4174 489.016
v -1771.41 36.5207 488.891
v -1773.08 33.1552 489.544
v -1771.11 36.3469 489.24
v -1771.41 36.5207 488.891
v -1771.41 36.5207 488.396
v -1771.11 36.3469 489.24
v -1770.68 36.1012 489.24
v -1770.38 35.9275 488.891
v -1770.38 35.9275 488.396
v -1770.68 36.1012 488.046
v -1771.11 36.3469 488.046
v -1773.69 33.3581 488.229
v -1774.87 31.297 488.229
v -1773.18 33.0671 487.643
v -1774.36 31.006 487.643
v -1773.18 33.0671 487.643
v -1774.36 31.006 487.643
v -1772.46 32.6555 487.643
v -1773.64 30.5944 487.643
v -1772.46 32.6555 487.643
v -1773.64 30.5944 487.643
v -1771.95 32.3645 488.229
v -1773.13 30.3034 488.229
v -1771.95 32.3645 488.229
v -1773.13 30.3034 488.229
v -1771.95 32.3645 489.057
v -1773.13 30.3034 489.057
v -1771.95 32.3645 489.057
v -1773.13 30.3034 489.057
v -1772.46 32.6555 489.643
v -1773.64 30.5944 489.643
v -1772.46 32.6555 489.643
v -1773.64 30.5944 489.643
v -1773.18 33.0671 489.643
v -1774.36 31.006 489.643
v -1773.18 33.0671 489.643
v -1774.36 31.006 489.643
v -1773.69 33.3581 489.057
v -1774.87 31.297 489.057
v -1773.69 33.3581 489.057
v -1774.87 31.297 489.057
v -1773.69 33.3581 488.229
v -1774.87 31.297 488.229
v -1773.18 33.0671 487.643
v -1773.08 33.1552 487.743
v -1773.69 33.3581 488.229
v -1773.54 33.4174 488.27
v -1772.46 32.6555 487.643
v -1772.43 32.7844 487.743
v -1773.18 33.0671 487.643
v -1773.08 33.1552 487.743
v -1771.95 32.3645 488.229
v -1771.98 32.5222 488.27
v -1772.46 32.6555 487.643
v -1772.43 32.7844 487.743
v -1771.95 32.3645 489.057
v -1771.98 32.5222 489.016
v -1772.46 32.6555 489.643
v -1772.43 32.7844 489.544
v -1773.18 33.0671 489.643
v -1773.08 33.1552 489.544
v -1772.46 32.6555 489.643
v -1772.43 32.7844 489.544
v -1773.69 33.3581 489.057
v -1773.54 33.4174 489.016
v -1773.18 33.0671 489.643
v -1773.08 33.1552 489.544
v -1776.34 32.9722 487.846
v -1776.4 33.1233 488.133
v -1776.72 33.1233 488.007
v -1776.69 32.9722 487.804
v -1777.04 33.1233 488.113
v -1777.05 32.9722 487.879
v -1776.56 33.1497 488.288
v -1776.67 33.1845 488.219
v -1776.78 33.156 488.239
v -1776.57 33.1845 488.359
v -1776.69 33.2185 488.342
v -1776.85 33.1848 488.321
v -1776.59 33.1518 488.483
v -1776.7 33.1845 488.49
v -1776.77 33.1473 488.42
v -1776.41 33.1233 488.677
v -1776.69 33.1581 488.726
v -1777.01 33.1233 488.51
v -1776.25 32.9722 488.759
v -1776.69 32.9722 488.88
v -1777.22 32.9722 488.646
v -1776.25 32.9722 488.759
v -1776.34 32.9722 487.846
v -1776.69 32.9722 487.804
v -1777.23 32.9722 488.342
v -1777.08 33.1233 488.338
v -1776.3 33.1493 488.338
v -1776.15 32.9722 488.342
v -1776.15 32.9722 488.342
v -1777.22 32.9722 488.646
v -1777.05 32.9722 487.879
v -1776.69 32.9722 488.88
v -1777.23 32.9722 488.342
v -1777.22 32.9722 488.646
v -1777.05 32.9722 487.879
v -1777.23 32.9722 488.342
v -1776.62 33.2467 488.143
v -1776.79 33.2245 488.226
v -1776.8 33.1868 488.227
v -1776.61 33.1929 488.131
v -1776.79 33.1637 488.248
v -1776.59 33.1524 488.161
v -1776.77 33.1643 488.273
v -1776.57 33.1554 488.215
v -1776.78 33.2 488.302
v -1776.58 33.1998 488.249
v -1776.78 33.2306 488.291
v -1776.56 33.2531 488.229
v -1776.77 33.2409 488.252
v -1776.61 33.2635 488.193
v -1776.79 33.2245 488.226
v -1776.62 33.2467 488.143
v -1776.99 33.2285 488.298
v -1776.99 33.1848 488.291
v -1776.97 33.1561 488.305
v -1776.97 33.1543 488.361
v -1776.94 33.191 488.378
v -1776.96 33.2331 488.373
v -1776.96 33.2503 488.33
v -1776.99 33.2285 488.298
v -1776.61 33.1929 488.131
v -1776.62 33.198 488.202
v -1776.62 33.2467 488.143
v -1776.59 33.1524 488.161
v -1776.57 33.1554 488.215
v -1776.58 33.1998 488.249
v -1776.56 33.2531 488.229
v -1776.61 33.2635 488.193
v -1776.99 33.2285 488.298
v -1776.98 33.1981 488.341
v -1776.99 33.1848 488.291
v -1776.97 33.1561 488.305
v -1776.97 33.1543 488.361
v -1776.94 33.191 488.378
v -1776.96 33.2331 488.373
v -1776.96 33.2503 488.33
v -1776.69 33.2396 488.639
v -1776.78 33.2774 488.469
v -1776.75 33.2901 488.441
v -1776.64 33.2548 488.623
v -1776.73 33.2703 488.425
v -1776.6 33.2236 488.602
v -1776.72 33.2376 488.425
v -1776.61 33.1724 488.582
v -1776.76 33.2142 488.42
v -1776.65 33.1382 488.583
v -1776.79 33.2161 488.444
v -1776.69 33.1396 488.628
v -1776.78 33.2408 488.477
v -1776.71 33.1933 488.624
v -1776.78 33.2774 488.469
v -1776.69 33.2396 488.639
v -1776.89 33.3332 488.301
v -1776.85 33.3471 488.282
v -1776.82 33.3301 488.272
v -1776.83 33.2826 488.242
v -1776.85 33.2477 488.268
v -1776.89 33.2564 488.279
v -1776.9 33.2898 488.31
v -1776.89 33.3332 488.301
v -1776.64 33.2548 488.623
v -1776.67 33.2028 488.58
v -1776.69 33.2396 488.639
v -1776.6 33.2236 488.602
v -1776.61 33.1724 488.582
v -1776.65 33.1382 488.583
v -1776.69 33.1396 488.628
v -1776.71 33.1933 488.624
v -1776.89 33.3332 488.301
v -1776.87 33.3013 488.264
v -1776.85 33.3471 488.282
v -1776.82 33.3301 488.272
v -1776.83 33.2826 488.242
v -1776.85 33.2477 488.268
v -1776.89 33.2564 488.279
v -1776.9 33.2898 488.31
v -1776.79 33.4581 488.483
v -1776.68 33.3238 488.397
v -1776.69 33.2864 488.409
v -1776.82 33.4219 488.515
v -1776.72 33.2693 488.399
v -1776.86 33.3955 488.506
v -1776.74 33.2748 488.378
v -1776.89 33.3914 488.457
v -1776.72 33.2901 488.337
v -1776.88 33.4168 488.408
v -1776.71 33.3191 488.336
v -1776.86 33.4702 488.408
v -1776.7 33.3426 488.369
v -1776.8 33.4623 488.432
v -1776.68 33.3238 488.397
v -1776.79 33.4581 488.483
v -1776.54 33.1988 488.307
v -1776.55 33.1653 488.33
v -1776.59 33.1495 488.331
v -1776.61 33.136 488.28
v -1776.62 33.1746 488.253
v -1776.58 33.1988 488.24
v -1776.56 33.2212 488.272
v -1776.54 33.1988 488.307
v -1776.82 33.4219 488.515
v -1776.83 33.4063 488.442
v -1776.79 33.4581 488.483
v -1776.86 33.3955 488.506
v -1776.89 33.3914 488.457
v -1776.88 33.4168 488.408
v -1776.86 33.4702 488.408
v -1776.8 33.4623 488.432
v -1776.54 33.1988 488.307
v -1776.57 33.166 488.28
v -1776.55 33.1653 488.33
v -1776.59 33.1495 488.331
v -1776.61 33.136 488.28
v -1776.62 33.1746 488.253
v -1776.58 33.1988 488.24
v -1776.56 33.2212 488.272
v -1776.41 33.2289 488.498
v -1776.49 33.2199 488.321
v -1776.46 33.2241 488.291
v -1776.36 33.2383 488.481
v -1776.44 33.2004 488.282
v -1776.32 33.2018 488.47
v -1776.43 33.1688 488.291
v -1776.32 33.1472 488.464
v -1776.47 33.1455 488.291
v -1776.37 33.1154 488.473
v -1776.5 33.1542 488.312
v -1776.41 33.1297 488.515
v -1776.49 33.1871 488.338
v -1776.43 33.1805 488.495
v -1776.49 33.2199 488.321
v -1776.41 33.2289 488.498
v -1776.59 33.2294 488.139
v -1776.55 33.2372 488.119
v -1776.52 33.2176 488.115
v -1776.53 33.1638 488.099
v -1776.55 33.1374 488.132
v -1776.6 33.1497 488.139
v -1776.61 33.1902 488.158
v -1776.59 33.2294 488.139
v -1776.36 33.2383 488.481
v -1776.39 33.1723 488.443
v -1776.41 33.2289 488.498
v -1776.32 33.2018 488.47
v -1776.32 33.1472 488.464
v -1776.37 33.1154 488.473
v -1776.41 33.1297 488.515
v -1776.43 33.1805 488.495
v -1776.59 33.2294 488.139
v -1776.57 33.1883 488.113
v -1776.55 33.2372 488.119
v -1776.52 33.2176 488.115
v -1776.53 33.1638 488.099
v -1776.55 33.1374 488.132
v -1776.6 33.1497 488.139
v -1776.61 33.1902 488.158
v -1776.59 33.2328 488.592
v -1776.53 33.2713 488.413
v -1776.49 33.2786 488.41
v -1776.54 33.2397 488.615
v -1776.47 33.255 488.413
v -1776.5 33.2018 488.626
v -1776.47 33.222 488.414
v -1776.5 33.1508 488.605
v -1776.5 33.2042 488.382
v -1776.54 33.1234 488.574
v -1776.53 33.2106 488.385
v -1776.6 33.1325 488.583
v -1776.55 33.2366 488.413
v -1776.6 33.1888 488.565
v -1776.53 33.2713 488.413
v -1776.59 33.2328 488.592
v -1776.49 33.3323 488.215
v -1776.45 33.3397 488.227
v -1776.43 33.318 488.24
v -1776.42 33.2701 488.212
v -1776.45 33.2401 488.214
v -1776.49 33.2556 488.193
v -1776.51 33.2916 488.211
v -1776.49 33.3323 488.215
v -1776.54 33.2397 488.615
v -1776.55 33.19 488.573
v -1776.59 33.2328 488.592
v -1776.5 33.2018 488.626
v -1776.5 33.1508 488.605
v -1776.54 33.1234 488.574
v -1776.6 33.1325 488.583
v -1776.6 33.1888 488.565
v -1776.49 33.3323 488.215
v -1776.46 33.2957 488.2
v -1776.45 33.3397 488.227
v -1776.43 33.318 488.24
v -1776.42 33.2701 488.212
v -1776.45 33.2401 488.214
v -1776.49 33.2556 488.193
v -1776.51 33.2916 488.211
v -1776.99 33.3192 485.707
v -1775.37 36.5639 485.6
v -1776.24 32.9574 485.707
v -1774.7 36.2409 485.6
v -1776.24 32.9574 485.707
v -1774.7 36.2409 485.6
v -1775.71 32.7017 485.119
v -1774.23 36.0125 485.075
v -1775.71 32.7017 485.119
v -1774.23 36.0125 485.075
v -1775.71 32.7017 484.287
v -1774.23 36.0125 484.332
v -1775.71 32.7017 484.287
v -1774.23 36.0125 484.332
v -1776.24 32.9574 483.699
v -1774.7 36.2409 483.807
v -1776.24 32.9574 483.699
v -1774.7 36.2409 483.807
v -1776.99 33.3192 483.699
v -1775.37 36.5639 483.807
v -1776.99 33.3192 483.699
v -1775.37 36.5639 483.807
v -1777.52 33.575 484.287
v -1775.84 36.7923 484.332
v -1777.52 33.575 484.287
v -1775.84 36.7923 484.332
v -1777.52 33.575 485.119
v -1775.84 36.7923 485.075
v -1777.52 33.575 485.119
v -1775.84 36.7923 485.075
v -1776.99 33.3192 485.707
v -1775.37 36.5639 485.6
v -1777.67 33.5104 484.242
v -1778.7 31.3719 484.242
v -1777.08 33.2265 483.589
v -1778.12 31.0879 483.589
v -1777.08 33.2265 483.589
v -1778.12 31.0879 483.589
v -1776.25 32.825 483.589
v -1777.29 30.6864 483.589
v -1776.25 32.825 483.589
v -1777.29 30.6864 483.589
v -1775.66 32.5411 484.242
v -1776.7 30.4025 484.242
v -1775.66 32.5411 484.242
v -1776.7 30.4025 484.242
v -1775.66 32.5411 485.165
v -1776.7 30.4025 485.165
v -1775.66 32.5411 485.165
v -1776.7 30.4025 485.165
v -1776.25 32.825 485.818
v -1777.29 30.6864 485.818
v -1776.25 32.825 485.818
v -1777.29 30.6864 485.818
v -1777.08 33.2265 485.818
v -1778.12 31.0879 485.818
v -1777.08 33.2265 485.818
v -1778.12 31.0879 485.818
v -1777.67 33.5104 485.165
v -1778.7 31.3719 485.165
v -1777.67 33.5104 485.165
v -1778.7 31.3719 485.165
v -1777.67 33.5104 484.242
v -1778.7 31.3719 484.242
v -1777.08 33.2265 483.589
v -1776.99 33.3192 483.699
v -1777.67 33.5104 484.242
v -1777.52 33.575 484.287
v -1776.25 32.825 483.589
v -1776.24 32.9574 483.699
v -1777.08 33.2265 483.589
v -1776.99 33.3192 483.699
v -1775.66 32.5411 484.242
v -1775.71 32.7017 484.287
v -1776.25 32.825 483.589
v -1776.24 32.9574 483.699
v -1775.66 32.5411 485.165
v -1775.71 32.7017 485.119
v -1776.25 32.825 485.818
v -1776.24 32.9574 485.707
v -1777.08 33.2265 485.818
v -1776.99 33.3192 485.707
v -1776.25 32.825 485.818
v -1776.24 32.9574 485.707
v -1777.67 33.5104 485.165
v -1777.52 33.575 485.119
v -1777.08 33.2265 485.818
v -1776.99 33.3192 485.707
v -1775.18 36.8899 484.846
v -1775.18 36.8899 484.561
v -1775 36.8021 485.048
v -1774.75 36.6781 485.048
v -1774.56 36.5903 484.846
v -1774.56 36.5903 484.561
v -1774.75 36.6781 484.359
v -1775 36.8021 484.359
v -1775.84 36.7923 485.075
v -1775.18 36.8899 484.846
v -1775.37 36.5639 485.6
v -1775 36.8021 485.048
v -1775.37 36.5639 485.6
v -1775 36.8021 485.048
v -1774.7 36.2409 485.6
v -1774.75 36.6781 485.048
v -1774.7 36.2409 485.6
v -1774.75 36.6781 485.048
v -1774.23 36.0125 485.075
v -1774.56 36.5903 484.846
v -1774.23 36.0125 485.075
v -1774.56 36.5903 484.846
v -1774.23 36.0125 484.332
v -1774.56 36.5903 484.561
v -1774.23 36.0125 484.332
v -1774.56 36.5903 484.561
v -1774.7 36.2409 483.807
v -1774.75 36.6781 484.359
v -1774.7 36.2409 483.807
v -1774.75 36.6781 484.359
v -1775.37 36.5639 483.807
v -1775 36.8021 484.359
v -1775.37 36.5639 483.807
v -1775 36.8021 484.359
v -1775.84 36.7923 484.332
v -1775.18 36.8899 484.561
v -1775.84 36.7923 484.332
v -1775.18 36.8899 484.561
v -1775.84 36.7923 485.075
v -1775.18 36.8899 484.846
v -1776.54 31.4898 488.143
v -1776.54 31.6136 488.143
v -1776.74 31.4898 488.143
v -1776.74 31.6136 488.143
v -1776.59 31.6666 488.192
v -1776.59 31.6666 488.294
v -1776.69 31.6666 488.192
v -1776.69 31.6666 488.294
v -1776.54 31.6136 488.343
v -1776.54 31.4898 488.343
v -1776.74 31.6136 488.343
v -1776.74 31.4898 488.343
v -1776.54 31.4898 488.343
v -1776.54 31.4898 488.143
v -1776.74 31.4898 488.343
v -1776.74 31.4898 488.143
v -1776.74 31.4898 488.143
v -1776.74 31.6136 488.143
v -1776.74 31.4898 488.343
v -1776.74 31.6136 488.343
v -1776.54 31.4898 488.343
v -1776.54 31.6136 488.343
v -1776.54 31.4898 488.143
v -1776.54 31.6136 488.143
v -1776.84 31.6182 488.043
v -1776.74 31.6136 488.143
v -1776.44 31.6182 488.043
v -1776.54 31.6136 488.143
v -1776.84 31.6182 488.443
v -1776.74 31.6136 488.343
v -1776.84 31.6182 488.043
v -1776.74 31.6136 488.143
v -1776.44 31.6182 488.443
v -1776.54 31.6136 488.343
v -1776.84 31.6182 488.443
v -1776.74 31.6136 488.343
v -1776.44 31.6182 488.043
v -1776.54 31.6136 488.143
v -1776.44 31.6182 488.443
v -1776.54 31.6136 488.343
v -1776.44 31.6182 488.043
v -1776.57 31.6818 488.179
v -1776.84 31.6182 488.043
v -1776.7 31.6818 488.179
v -1776.84 31.6182 488.043
v -1776.7 31.6818 488.179
v -1776.84 31.6182 488.443
v -1776.7 31.6818 488.307
v -1776.84 31.6182 488.443
v -1776.7 31.6818 488.307
v -1776.44 31.6182 488.443
v -1776.57 31.6818 488.307
v -1776.44 31.6182 488.443
v -1776.57 31.6818 488.307
v -1776.44 31.6182 488.043
v -1776.57 31.6818 488.179
v -1776.57 31.6818 488.179
v -1776.59 31.6666 488.192
v -1776.7 31.6818 488.179
v -1776.69 31.6666 488.192
v -1776.7 31.6818 488.179
v -1776.69 31.6666 488.192
v -1776.7 31.6818 488.307
v -1776.69 31.6666 488.294
v -1776.7 31.6818 488.307
v -1776.69 31.6666 488.294
v -1776.57 31.6818 488.307
v -1776.59 31.6666 488.294
v -1776.57 31.6818 488.307
v -1776.59 31.6666 488.294
v -1776.57 31.6818 488.179
v -1776.59 31.6666 488.192
v -1776.29 33.4412 490.649
v -1778.93 37.0492 490.776
v -1777.12 32.8491 490.649
v -1779.67 36.5182 490.776
v -1777.12 32.8491 490.649
v -1779.67 36.5182 490.776
v -1777.7 32.4304 491.37
v -1780.2 36.1426 491.422
v -1775.7 33.8598 491.37
v -1778.4 37.4247 491.422
v -1776.29 33.4412 490.649
v -1778.93 37.0492 490.776
v -1777.74 32.2501 491.314
v -1776.36 30.3171 491.314
v -1777.09 32.7148 490.514
v -1775.71 30.7818 490.514
v -1777.09 32.7148 490.514
v -1775.71 30.7818 490.514
v -1776.17 33.372 490.514
v -1774.79 31.439 490.514
v -1776.17 33.372 490.514
v -1774.79 31.439 490.514
v -1775.52 33.8367 491.314
v -1774.14 31.9037 491.314
v -1777.09 32.7148 490.514
v -1777.12 32.8491 490.649
v -1777.74 32.2501 491.314
v -1777.7 32.4304 491.37
v -1776.17 33.372 490.514
v -1776.29 33.4412 490.649
v -1777.09 32.7148 490.514
v -1777.12 32.8491 490.649
v -1775.52 33.8367 491.314
v -1775.7 33.8598 491.37
v -1776.17 33.372 490.514
v -1776.29 33.4412 490.649
v -1777.7 32.4304 491.37
v -1780.2 36.1426 491.422
v -1777.7 32.4304 492.389
v -1780.2 36.1426 492.336
v -1777.7 32.4304 492.389
v -1780.2 36.1426 492.336
v -1777.12 32.8491 493.109
v -1779.67 36.5182 492.982
v -1777.12 32.8491 493.109
v -1779.67 36.5182 492.982
v -1776.29 33.4412 493.109
v -1778.93 37.0492 492.982
v -1776.29 33.4412 493.109
v -1778.93 37.0492 492.982
v -1775.7 33.8598 492.389
v -1778.4 37.4247 492.336
v -1775.7 33.8598 492.389
v -1778.4 37.4247 492.336
v -1775.7 33.8598 491.37
v -1778.4 37.4247 491.422
v -1779.12 37.4433 491.661
v -1779.12 37.4433 492.098
v -1779.38 37.2637 491.351
v -1779.73 37.0096 491.351
v -1779.98 36.83 491.661
v -1779.98 36.83 492.098
v -1779.73 37.0096 492.407
v -1779.38 37.2637 492.407
v -1775.52 33.8367 492.445
v -1774.14 31.9037 492.445
v -1776.17 33.372 493.245
v -1774.79 31.439 493.245
v -1776.17 33.372 493.245
v -1774.79 31.439 493.245
v -1777.09 32.7148 493.245
v -1775.71 30.7818 493.245
v -1777.09 32.7148 493.245
v -1775.71 30.7818 493.245
v -1777.74 32.2501 492.445
v -1776.36 30.3171 492.445
v -1777.74 32.2501 492.445
v -1776.36 30.3171 492.445
v -1777.74 32.2501 491.314
v -1776.36 30.3171 491.314
v -1775.52 33.8367 491.314
v -1774.14 31.9037 491.314
v -1775.52 33.8367 492.445
v -1774.14 31.9037 492.445
v -1776.17 33.372 493.245
v -1776.29 33.4412 493.109
v -1775.52 33.8367 492.445
v -1775.7 33.8598 492.389
v -1777.09 32.7148 493.245
v -1777.12 32.8491 493.109
v -1776.17 33.372 493.245
v -1776.29 33.4412 493.109
v -1777.74 32.2501 492.445
v -1777.7 32.4304 492.389
v -1777.09 32.7148 493.245
v -1777.12 32.8491 493.109
v -1777.74 32.2501 491.314
v -1777.7 32.4304 491.37
v -1775.52 33.8367 491.314
v -1775.7 33.8598 491.37
v -1778.4 37.4247 491.422
v -1779.12 37.4433 491.661
v -1778.93 37.0492 490.776
v -1779.38 37.2637 491.351
v -1778.93 37.0492 490.776
v -1779.38 37.2637 491.351
v -1779.67 36.5182 490.776
v -1779.73 37.0096 491.351
v -1779.67 36.5182 490.776
v -1779.73 37.0096 491.351
v -1780.2 36.1426 491.422
v -1779.98 36.83 491.661
v -1780.2 36.1426 491.422
v -1779.98 36.83 491.661
v -1780.2 36.1426 492.336
v -1779.98 36.83 492.098
v -1780.2 36.1426 492.336
v -1779.98 36.83 492.098
v -1779.67 36.5182 492.982
v -1779.73 37.0096 492.407
v -1779.67 36.5182 492.982
v -1779.73 37.0096 492.407
v -1778.93 37.0492 492.982
v -1779.38 37.2637 492.407
v -1778.93 37.0492 492.982
v -1779.38 37.2637 492.407
v -1778.4 37.4247 492.336
v -1779.12 37.4433 492.098
v -1778.4 37.4247 492.336
v -1779.12 37.4433 492.098
v -1778.4 37.4247 491.422
v -1779.12 37.4433 491.661
v -1807 28.0657 519
v -1807 27.1667 517
v -1807 27.5891 515
v -1807 27.6674 513
v -1807 27.5734 511
v -1807 27.4064 509
v -1807 27.866 507
v -1807 28.6463 505
v -1807 29.5102 503
v -1807 28.9808 501
v -1807 29.5677 499
v -1807 29.6235 497
v -1807 29.2174 495
v -1807 28.9761 493
v -1807 28.0515 491
v -1807 28.0158 489
v -1807 28.4322 487
v -1807 28.6548 485
v -1807 29.1542 483
v -1807 29.5913 481
v -1807 29.5861 479
v -1807 29.6771 477
v -1807 30.0079 475
v -1807 31.3335 473
v -1807 32.9597 471
v -1807 34.0116 469
v -1807 34.3515 467
v -1807 34.3651 465
v -1807 34.3817 463
v -1807 34.401 461
v -1807 34.4226 459
v -1807 34.4462 457
v -1805 27.7104 519
v -1805 27.0929 517
v -1805 27.9145 515
v -1805 27.6349 513
v -1805 28.1305 511
v -1805 29.1247 509
v -1805 29.4039 507
v -1805 29.6653 505
v -1805 30.2745 503
v -1805 30.2008 501
v -1805 30.4205 499
v -1805 29.7594 497
v -1805 29.9426 495
v -1805 29.8295 493
v -1805 28.8955 491
v -1805 28.9884 489
v -1805 29.0037 487
v -1805 28.7928 485
v -1805 29.3543 483
v -1805 29.4321 481
v -1805 29.6713 479
v -1805 29.6392 477
v -1805 29.9801 475
v -1805 30.3602 473
v -1805 31.5904 471
v -1805 32.8624 469
v -1805 33.9507 467
v -1805 34.2002 465
v -1805 34.2145 463
v -1805 34.2315 461
v -1805 34.251 459
v -1805 34.2726 457
v -1803 28.0489 519
v -1803 27.9074 517
v -1803 28.1394 515
v -1803 28.7726 513
v -1803 29.2252 511
v -1803 30.156 509
v -1803 30.4006 507
v -1803 30.9633 505
v -1803 30.7645 503
v -1803 30.9757 501
v -1803 31.2498 499
v -1803 30.7941 497
v -1803 30.9776 495
v -1803 30.3439 493
v -1803 30.3845 491
v -1803 29.3042 489
v -1803 29.1276 487
v -1803 28.6154 485
v -1803 29.595 483
v -1803 29.988 481
v -1803 30.1269 479
v -1803 29.6064 477
v -1803 29.195 475
v -1803 30.1129 473
v -1803 30.0122 471
v -1803 31.459 469
v -1803 32.8574 467
v -1803 33.8343 465
v -1803 34.0507 463
v -1803 34.0652 461
v -1803 34.0822 459
v -1803 34.1015 457
v -1801 28.7087 519
v -1801 29.1017 517
v -1801 29.7138 515
v -1801 30.1666 513
v -1801 30.3985 511
v -1801 31.0335 509
v -1801 31.6786 507
v -1801 31.7613 505
v -1801 31.9512 503
v -1801 32.2049 501
v -1801 32.2633 499
v -1801 31.6608 497
v -1801 31.638 495
v -1801 31.5823 493
v -1801 30.7765 491
v -1801 30.4488 489
v -1801 30.179 487
v -1801 29.8465 485
v -1801 30.3577 483
v -1801 29.4351 481
v -1801 30.3658 479
v -1801 29.8439 477
v -1801 29.29 475
v -1801 28.8465 473
v -1801 28.5812 471
v -1801 29.6074 469
v -1801 31.3324 467
v -1801 32.9385 465
v -1801 33.7764 463
v -1801 33.9025 461
v -1801 33.9169 459
v -1801 33.9335 457
v -1799 29.6145 519
v -1799 29.3916 517
v -1799 30.2183 515
v -1799 30.9889 513
v -1799 31.6712 511
v -1799 31.9917 509
v -1799 32.0705 507
v -1799 32.3158 505
v -1799 32.6317 503
v -1799 32.7824 501
v -1799 32.8103 499
v -1799 32.4705 497
v -1799 32.4293 495
v -1799 32.1422 493
v -1799 31.335 491
v -1799 31.3115 489
v -1799 31.0071 487
v -1799 30.1578 485
v -1799 29.5296 483
v -1799 29.7416 481
v -1799 30.4556 479
v -1799 29.1074 477
v -1799 28.4112 475
v -1799 28.3719 473
v -1799 28.3481 471
v -1799 28.9514 469
v -1799 29.8676 467
v -1799 31.4581 465
v -1799 32.8624 463
v -1799 33.6697 461
v -1799 33.7553 459
v -1799 33.7691 457
v -1797 30.3346 519
v -1797 30.5721 517
v -1797 31.3711 515
v -1797 31.5264 513
v -1797 31.9422 511
v -1797 32.5325 509
v -1797 32.8424 507
v -1797 33.0591 505
v -1797 33.2672 503
v -1797 33.3196 501
v -1797 33.2456 499
v -1797 33.1815 497
v -1797 32.9759 495
v -1797 32.6884 493
v -1797 32.3237 491
v -1797 31.7759 489
v -1797 31.3876 487
v -1797 30.6343 485
v -1797 30.052 483
v -1797 29.3105 481
v -1797 29.7674 479
v -1797 28.3312 477
v -1797 28.0982 475
v -1797 28.7628 473
v -1797 27.3849 471
v -1797 27.5396 469
v -1797 28.7513 467
v -1797 29.9346 465
v -1797 31.5785 463
v -1797 32.9895 461
v -1797 33.5607 459
v -1797 33.6087 457
v -1795 30.9083 519
v -1795 30.978 517
v -1795 31.9607 515
v -1795 32.0542 513
v -1795 32.5978 511
v -1795 32.9582 509
v -1795 33.3337 507
v -1795 33.5848 505
v -1795 33.6601 503
v -1795 33.6862 501
v -1795 33.6229 499
v -1795 33.5166 497
v -1795 33.3835 495
v -1795 33.1815 493
v -1795 32.9895 491
v -1795 32.4099 489
v -1795 31.75 487
v -1795 31.1643 485
v -1795 30.4465 483
v -1795 29.5408 481
v -1795 28.8754 479
v -1795 28.5657 477
v -1795 27.9912 475
v -1795 28.8158 473
v -1795 27.6941 471
v -1795 27.1544 469
v -1795 27.4119 467
v -1795 29.3304 465
v -1795 30.5514 463
v -1795 31.6626 461
v -1795 32.9074 459
v -1795 33.4392 457
v -1793 31.5369 519
v -1793 31.6224 517
v -1793 32.4257 515
v -1793 32.7997 513
v -1793 33.1919 511
v -1793 33.5381 509
v -1793 33.7982 507
v -1793 33.9089 505
v -1793 33.9444 503
v -1793 33.9299 501
v -1793 33.8912 499
v -1793 33.8175 497
v -1793 33.702 495
v -1793 33.5208 493
v -1793 33.2503 491
v -1793 32.8657 489
v -1793 32.6252 487
v -1793 32.0703 485
v -1793 31.2726 483
v -1793 30.7942 481
v -1793 29.6722 479
v -1793 28.8107 477
v -1793 28.0638 475
v -1793 28.4819 473
v -1793 27.4036 471
v -1793 28.181 469
v -1793 27.3224 467
v -1793 28.3233 465
v -1793 28.907 463
v -1793 30.2484 461
v -1793 31.8558 459
v -1793 32.9054 457
v -1791 31.7771 519
v -1791 32.6467 517
v -1791 33.1238 515
v -1791 33.4743 513
v -1791 33.7444 511
v -1791 34.017 509
v -1791 34.12 507
v -1791 34.133 505
v -1791 34.102 503
v -1791 34.0423 501
v -1791 33.9657 499
v -1791 33.8822 497
v -1791 33.7843 495
v -1791 33.6651 493
v -1791 33.4769 491
v -1791 33.2854 489
v -1791 32.98 487
v -1791 32.5014 485
v -1791 32.018 483
v -1791 31.179 481
v -1791 30.3677 479
v -1791 29.755 477
v -1791 28.9892 475
v -1791 29.3712 473
v -1791 28.3313 471
v -1791 28.4865 469
v -1791 27.6093 467
v -1791 28.0733 465
v -1791 28.4893 463
v -1791 30.0468 461
v -1791 30.9101 459
v -1791 31.8612 457
v -1789 32.3172 519
v -1789 33.1514 517
v -1789 33.5918 515
v -1789 33.9503 513
v -1789 34.1936 511
v -1789 34.2746 509
v -1789 34.278 507
v -1789 34.205 505
v -1789 34.1115 503
v -1789 34.0061 501
v -1789 33.8983 499
v -1789 33.7989 497
v -1789 33.7089 495
v -1789 33.6275 493
v -1789 33.5451 491
v -1789 33.415 489
v -1789 33.2198 487
v -1789 32.875 485
v -1789 32.5032 483
v -1789 31.988 481
v -1789 31.2081 479
v -1789 30.361 477
v -1789 29.637 475
v -1789 29.5886 473
v -1789 28.8299 471
v -1789 28.9348 469
v -1789 28.4613 467
v -1789 28.782 465
v -1789 28.6034 463
v -1789 29.878 461
v -1789 30.2756 459
v -1789 30.8846 457
v -1787 32.458 519
v -1787 33.4377 517
v -1787 33.7789 515
v -1787 34.1121 513
v -1787 34.3217 511
v -1787 34.3263 509
v -1787 34.2473 507
v -1787 34.1438 505
v -1787 34.038 503
v -1787 33.9296 501
v -1787 33.8198 499
v -1787 33.7185 497
v -1787 33.6268 495
v -1787 33.5437 493
v -1787 33.4685 491
v -1787 33.4006 489
v -1787 33.3049 487
v -1787 33.1378 485
v -1787 32.8138 483
v -1787 32.39 481
v -1787 31.7765 479
v -1787 31.057 477
v -1787 30.5252 475
v -1787 30.6826 473
v -1787 30.1507 471
v -1787 29.471 469
v -1787 28.232 467
v -1787 28.4886 465
v -1787 29.0893 463
v -1787 29.1604 461
v -1787 29.1352 459
v -1787 30.1114 457
v -1785 32.9339 519
v -1785 33.7343 517
v -1785 33.9582 515
v -1785 34.2398 513
v -1785 34.3202 511
v -1785 34.2867 509
v -1785 34.1848 507
v -1785 34.0783 505
v -1785 33.9697 503
v -1785 33.8588 501
v -1785 33.747 499
v -1785 33.6438 497
v -1785 33.5502 495
v -1785 33.4653 493
v -1785 33.3884 491
v -1785 33.3188 489
v -1785 33.2558 487
v -1785 33.1738 485
v -1785 32.9668 483
v -1785 32.6128 481
v -1785 32.1156 479
v -1785 31.4272 477
v -1785 30.8312 475
v -1785 30.4798 473
v -1785 29.5762 471
v -1785 29.5977 469
v -1785 28.6879 467
v -1785 29.5729 465
v -1785 29.8509 463
v -1785 29.7547 461
v -1785 29.6663 459
v -1785 29.962 457
v -1783 32.9029 519
v -1783 33.7888 517
v -1783 34.0428 515
v -1783 34.2146 513
v -1783 34.2825 511
v -1783 34.2372 509
v -1783 34.1287 507
v -1783 34.0189 505
v -1783 33.9075 503
v -1783 33.7941 501
v -1783 33.6801 499
v -1783 33.5749 497
v -1783 33.4793 495
v -1783 33.3925 493
v -1783 33.3137 491
v -1783 33.2423 489
v -1783 33.1776 487
v -1783 33.1187 485
v -1783 33.0321 483
v -1783 32.7928 481
v -1783 32.4784 479
v -1783 31.8432 477
v -1783 31.2954 475
v -1783 30.7615 473
v -1783 30.3111 471
v -1783 29.7933 469
v -1783 28.3273 467
v -1783 28.9709 465
v -1783 28.8897 463
v -1783 28.7908 461
v -1783 29.0645 459
v -1783 29.181 457
v -1781 32.7741 519
v -1781 33.7264 517
v -1781 34.0396 515
v -1781 34.1983 513
v -1781 34.2471 511
v -1781 34.1911 509
v -1781 34.0789 507
v -1781 33.9658 505
v -1781 33.8514 503
v -1781 33.7355 501
v -1781 33.6192 499
v -1781 33.5118 497
v -1781 33.4141 495
v -1781 33.3253 493
v -1781 33.2446 491
v -1781 33.1713 489
v -1781 33.1046 487
v -1781 33.044 485
v -1781 32.9888 483
v -1781 32.8812 481
v -1781 32.6207 479
v -1781 32.2353 477
v -1781 31.6673 475
v -1781 31.1955 473
v -1781 30.5768 471
v -1781 30.0632 469
v -1781 28.703 467
v -1781 28.517 465
v -1781 27.4364 463
v -1781 27.8952 461
v -1781 28.3448 459
v -1781 28.1878 457
v -1779 32.8316 519
v -1779 33.4557 517
v -1779 33.8486 515
v -1779 34.0583 513
v -1779 34.2004 511
v -1779 34.1516 509
v -1779 34.0357 507
v -1779 33.9191 505
v -1779 33.8017 503
v -1779 33.683 501
v -1779 33.5644 499
v -1779 33.4548 497
v -1779 33.3549 495
v -1779 33.2639 493
v -1779 33.1811 491
v -1779 33.1057 489
v -1779 33.0371 487
v -1779 32.9745 485
v -1779 32.9174 483
v -1779 32.8651 481
v -1779 32.7342 479
v -1779 32.4413 477
v -1779 32.0988 475
v -1779 31.733 473
v -1779 31.0437 471
v -1779 29.8709 469
v -1779 28.6386 467
v -1779 28.3204 465
v -1779 27.7361 463
v -1779 27.8704 461
v -1779 28.67 459
v -1779 29.0147 457
v -1777 32.8214 519
v -1777 33.376 517
v -1777 33.8612 515
v -1777 33.9908 513
v -1777 34.123 511
v -1777 34.1154 509
v -1777 33.9989 507
v -1777 33.8789 505
v -1777 33.7583 503
v -1777 33.6368 501
v -1777 33.5158 499
v -1777 33.4038 497
v -1777 33.3016 495
v -1777 33.2083 493
v -1777 33.1233 491
v -1777 33.0457 489
v -1777 32.975 487
v -1777 32.9104 485
v -1777 32.8513 483
v -1777 32.7971 481
v -1777 32.7386 479
v -1777 32.5651 477
v -1777 32.2689 475
v -1777 31.9467 473
v -1777 31.343 471
v -1777 30.6097 469
v -1777 29.3333 467
v -1777 28.5219 465
v -1777 27.5266 463
v -1777 26.6445 461
v -1777 27.6156 459
v -1777 27.8075 457
v -1775 32.5905 519
v -1775 33.3325 517
v -1775 33.4687 515
v -1775 33.8412 513
v -1775 33.995 511
v -1775 34.0598 509
v -1775 33.9688 507
v -1775 33.8452 505
v -1775 33.7213 503
v -1775 33.597 501
v -1775 33.4734 499
v -1775 33.3589 497
v -1775 33.2543 495
v -1775 33.1586 493
v -1775 33.0713 491
v -1775 32.9914 489
v -1775 32.9185 487
v -1775 32.8517 485
v -1775 32.7904 483
v -1775 32.7341 481
v -1775 32.6822 479
v -1775 32.5879 477
v -1775 32.3691 475
v -1775 32.0723 473
v -1775 31.5647 471
v -1775 30.9652 469
v -1775 29.9475 467
v -1775 28.8737 465
v -1775 27.4473 463
v -1775 27.4474 461
v -1775 26.8636 459
v -1775 26.9801 457
v -1773 32.2223 519
v -1773 33.0164 517
v -1773 33.3157 515
v -1773 33.5007 513
v -1773 33.793 511
v -1773 33.961 509
v -1773 33.9439 507
v -1773 33.818 505
v -1773 33.6908 503
v -1773 33.5635 501
v -1773 33.4372 499
v -1773 33.3202 497
v -1773 33.213 495
v -1773 33.1149 493
v -1773 33.0251 491
v -1773 32.9429 489
v -1773 32.8675 487
v -1773 32.7984 485
v -1773 32.7349 483
v -1773 32.6764 481
v -1773 32.6223 479
v -1773 32.5623 477
v -1773 32.4127 475
v -1773 32.1393 473
v -1773 31.7587 471
v -1773 31.103 469
v -1773 29.9242 467
v -1773 28.9539 465
v -1773 28.4869 463
v -1773 27.7983 461
v -1773 27.1027 459
v -1773 26.4876 457
v -1771 31.7472 519
v -1771 32.011 517
v -1771 32.9007 515
v -1771 33.0953 513
v -1771 33.472 511
v -1771 33.7756 509
v -1771 33.866 507
v -1771 33.7974 505
v -1771 33.6668 503
v -1771 33.5364 501
v -1771 33.4074 499
v -1771 33.2877 497
v -1771 33.1779 495
v -1771 33.0772 493
v -1771 32.9848 491
v -1771 32.9001 489
v -1771 32.8223 487
v -1771 32.7507 485
v -1771 32.6848 483
v -1771 32.6239 481
v -1771 32.5675 479
v -1771 32.5137 477
v -1771 32.4003 475
v -1771 32.1593 473
v -1771 31.8766 471
v -1771 31.3405 469
v -1771 30.4635 467
v -1771 29.9915 465
v -1771 28.9086 463
v -1771 27.8346 461
v -1771 27.6803 459
v -1771 27.6967 457
v -1769 30.8147 519
v -1769 31.6537 517
v -1769 32.434 515
v -1769 32.7351 513
v -1769 33.2661 511
v -1769 33.4131 509
v -1769 33.6751 507
v -1769 33.7288 505
v -1769 33.6492 503
v -1769 33.5157 501
v -1769 33.3839 499
v -1769 33.2615 497
v -1769 33.149 495
v -1769 33.0456 493
v -1769 32.9505 491
v -1769 32.8631 489
v -1769 32.7827 487
v -1769 32.7085 485
v -1769 32.6401 483
v -1769 32.5768 481
v -1769 32.5179 479
v -1769 32.4626 477
v -1769 32.3576 475
v -1769 32.1829 473
v -1769 31.8905 471
v -1769 31.4409 469
v -1769 30.9152 467
v -1769 30.3365 465
v -1769 29.4769 463
v -1769 29.1057 461
v -1769 28.156 459
v -1769 27.942 457
v -1767 30.4922 519
v -1767 30.7455 517
v -1767 31.5146 515
v -1767 32.3613 513
v -1767 32.8288 511
v -1767 33.0675 509
v -1767 33.2853 507
v -1767 33.5062 505
v -1767 33.5591 503
v -1767 33.4988 501
v -1767 33.3668 499
v -1767 33.2415 497
v -1767 33.1262 495
v -1767 33.0199 493
v -1767 32.9221 491
v -1767 32.832 489
v -1767 32.7488 487
v -1767 32.672 485
v -1767 32.601 483
v -1767 32.535 481
v -1767 32.4736 479
v -1767 32.4127 477
v -1767 32.3013 475
v -1767 32.1463 473
v -1767 31.9589 471
v -1767 31.5942 469
v -1767 31.0624 467
v -1767 30.5021 465
v -1767 30.0337 463
v -1767 29.6855 461
v -1767 28.9108 459
v -1767 28.6433 457
v -1765 29.7776 519
v -1765 30.9025 517
v -1765 31.2813 515
v -1765 31.6189 513
v -1765 31.8114 511
v -1765 32.3824 509
v -1765 32.8505 507
v -1765 33.0954 505
v -1765 33.2463 503
v -1765 33.3531 501
v -1765 33.3219 499
v -1765 33.2271 497
v -1765 33.1095 495
v -1765 33.0004 493
v -1765 32.8997 491
v -1765 32.8067 489
v -1765 32.7207 487
v -1765 32.6411 485
v -1765 32.5673 483
v -1765 32.4986 481
v -1765 32.4344 479
v -1765 32.3521 477
v -1765 32.2372 475
v -1765 32.0682 473
v -1765 31.8437 471
v -1765 31.4915 469
v -1765 31.0973 467
v -1765 30.7647 465
v -1765 30.3543 463
v -1765 29.8516 461
v -1765 29.2933 459
v -1765 28.6699 457
v -1763 30.1855 519
v -1763 30.6813 517
v -1763 30.2589 515
v -1763 30.7202 513
v -1763 31.0845 511
v -1763 31.2346 509
v -1763 31.89 507
v -1763 32.2771 505
v -1763 32.7709 503
v -1763 32.9299 501
v -1763 33.0661 499
v -1763 33.1008 497
v -1763 33.0471 495
v -1763 32.9703 493
v -1763 32.8806 491
v -1763 32.7873 489
v -1763 32.6984 487
v -1763 32.6159 485
v -1763 32.5381 483
v -1763 32.4574 481
v -1763 32.3649 479
v -1763 32.2584 477
v -1763 32.1262 475
v -1763 31.9592 473
v -1763 31.7868 471
v -1763 31.4885 469
v -1763 31.0458 467
v -1763 30.5304 465
v -1763 30.2274 463
v -1763 29.4389 461
v -1763 29.6577 459
v -1763 28.8672 457
v -1761 30.7271 519
v -1761 30.2935 517
v -1761 29.5307 515
v -1761 29.7973 513
v -1761 30.2835 511
v -1761 30.5767 509
v -1761 30.5336 507
v -1761 31.3917 505
v -1761 31.6096 503
v -1761 32.176 501
v -1761 32.4946 499
v -1761 32.6927 497
v -1761 32.7625 495
v -1761 32.744 493
v -1761 32.7376 491
v -1761 32.6607 489
v -1761 32.5779 487
v -1761 32.5013 485
v -1761 32.417 483
v -1761 32.3223 481
v -1761 32.206 479
v -1761 32.0659 477
v -1761 31.9733 475
v -1761 31.8274 473
v -1761 31.5676 471
v -1761 31.191 469
v -1761 30.7894 467
v -1761 30.2272 465
v -1761 29.8342 463
v -1761 29.6244 461
v -1761 29.5123 459
v -1761 28.2725 457
v -1759 29.9436 519
v -1759 30.5455 517
v -1759 30.0475 515
v -1759 30.2595 513
v -1759 29.542 511
v -1759 29.4375 509
v -1759 30.0893 507
v -1759 30.2271 505
v -1759 30.1145 503
v -1759 31.0589 501
v -1759 31.7852 499
v -1759 32.0664 497
v -1759 32.3546 495
v -1759 32.3801 493
v -1759 32.4078 491
v -1759 32.2845 489
v -1759 32.2505 487
v -1759 32.1642 485
v -1759 32.0804 483
v -1759 31.9564 481
v -1759 31.8245 479
v -1759 31.6843 477
v -1759 31.597 475
v -1759 31.3714 473
v -1759 31.1056 471
v -1759 30.7384 469
v -1759 30.4363 467
v -1759 30.2358 465
v -1759 29.8529 463
v -1759 29.2789 461
v -1759 28.9003 459
v -1759 29.0041 457
v -1757 30.7622 519
v -1757 30.7799 517
v -1757 29.8657 515
v -1757 29.6912 513
v -1757 29.827 511
v -1757 28.5858 509
v -1757 29.1124 507
v -1757 29.5973 505
v -1757 29.447 503
v -1757 30.3229 501
v -1757 30.8795 499
v -1757 30.9193 497
v -1757 31.577 495
v -1757 31.9315 493
v -1757 31.8875 491
v -1757 31.8347 489
v -1757 31.7547 487
v -1757 31.4991 485
v -1757 31.3982 483
v -1757 31.2523 481
v -1757 31.1902 479
v -1757 31.1985 477
v -1757 31.0512 475
v -1757 30.7107 473
v -1757 30.709 471
v -1757 30.3441 469
v -1757 29.5701 467
v -1757 29.3901 465
v -1757 29.0418 463
v -1757 28.8138 461
v -1757 28.9144 459
v -1757 28.1083 457
v -1755 31.4158 519
v -1755 30.3062 517
v -1755 31.0049 515
v -1755 30.1839 513
v -1755 30.0086 511
v -1755 30.1843 509
v -1755 29.5772 507
v -1755 28.789 505
v -1755 29.2881 503
v -1755 29.7864 501
v -1755 30.0481 499
v -1755 30.8792 497
v -1755 30.9946 495
v -1755 31.0219 493
v -1755 31.4257 491
v -1755 31.2814 489
v -1755 31.0739 487
v -1755 31.0436 485
v -1755 30.532 483
v -1755 30.3137 481
v -1755 30.5969 479
v -1755 30.2603 477
v -1755 30.0579 475
v -1755 30.159 473
v -1755 29.9186 471
v -1755 29.4948 469
v -1755 28.599 467
v -1755 28.8092 465
v -1755 28.581 463
v -1755 28.4024 461
v -1755 28.7921 459
v -1755 28.1378 457
v -1753 32.335 519
v -1753 31.2651 517
v -1753 31.3084 515
v -1753 31.2668 513
v -1753 30.6949 511
v -1753 30.6073 509
v -1753 29.957 507
v -1753 29.1702 505
v -1753 29.465 503
v -1753 29.2112 501
v -1753 29.1558 499
v -1753 30.2829 497
v -1753 29.8422 495
v -1753 30.5797 493
v -1753 30.9104 491
v -1753 30.3788 489
v -1753 29.7878 487
v -1753 30.2517 485
v -1753 30.1999 483
v -1753 29.889 481
v -1753 30.0603 479
v -1753 29.3762 477
v -1753 29.1303 475
v -1753 29.2349 473
v -1753 28.7912 471
v -1753 28.6488 469
v -1753 28.0627 467
v -1753 27.613 465
v -1753 27.3909 463
v -1753 28.0883 461
v -1753 28.1745 459
v -1753 28.2121 457
v -1751 34.2 519
v -1751 33.1712 517
v -1751 32.4621 515
v -1751 31.9905 513
v -1751 31.0487 511
v -1751 30.5266 509
v -1751 29.8977 507
v -1751 29.4202 505
v -1751 29.7673 503
v -1751 29.0927 501
v -1751 29.1466 499
v -1751 30.5256 497
v -1751 29.8743 495
v -1751 29.2237 493
v -1751 29.5867 491
v -1751 29.2488 489
v -1751 29.2914 487
v -1751 29.6936 485
v -1751 29.4661 483
v -1751 29.1602 481
v -1751 29.1665 479
v -1751 28.5837 477
v -1751 28.5278 475
v -1751 28.3283 473
v -1751 27.5548 471
v -1751 26.9684 469
v -1751 27.1878 467
v -1751 26.8329 465
v -1751 27.3045 463
v -1751 28.1298 461
v -1751 27.5725 459
v -1751 28.0288 457
v -1749 35.1314 519
v -1749 34.2625 517
v -1749 33.4858 515
v -1749 32.6472 513
v -1749 31.7159 511
v -1749 31.294 509
v -1749 29.8969 507
v -1749 28.6674 505
v -1749 29.167 503
v -1749 28.9823 501
v -1749 29.1503 499
v -1749 29.8582 497
v -1749 29.0577 495
v -1749 28.4308 493
v -1749 29.3743 491
v -1749 28.3286 489
v -1749 28.1491 487
v -1749 29.1862 485
v -1749 29.3628 483
v -1749 29.5364 481
v -1749 28.3958 479
v -1749 28.7432 477
v -1749 28.081 475
v -1749 27.3901 473
v -1749 27.1929 471
v -1749 26.6184 469
v -1749 25.8988 467
v -1749 26.5951 465
v -1749 26.9028 463
v -1749 27.3602 461
v -1749 28.1518 459
v -1749 28.0815 457
v -1747 35.4116 519
v -1747 35.0659 517
v -1747 34.2891 515
v -1747 33.2123 513
v -1747 32.4518 511
v -1747 30.9772 509
v -1747 29.6134 507
v -1747 28.5834 505
v -1747 28.2098 503
v -1747 27.9588 501
v -1747 28.162 499
v -1747 28.7105 497
v -1747 28.623 495
v -1747 28.3458 493
v -1747 28.4781 491
v -1747 27.0716 489
v -1747 27.2899 487
v -1747 28.5905 485
v -1747 28.3742 483
v -1747 29.017 481
v -1747 28.2179 479
v -1747 28.5264 477
v -1747 27.3477 475
v -1747 26.9543 473
v -1747 25.9343 471
v -1747 25.7532 469
v -1747 25.7195 467
v -1747 26.5592 465
v -1747 26.6157 463
v -1747 27.14 461
v -1747 28.4101 459
v -1747 28.1763 457
v -1745 35.5096 519
v -1745 35.2985 517
v -1745 34.9253 515
v -1745 34.2489 513
v -1745 33.1929 511
v -1745 31.6811 509
v -1745 30.9048 507
v -1745 29.7476 505
v -1745 28.8594 503
v -1745 28.7218 501
v -1745 28.6393 499
v -1745 28.7401 497
v -1745 27.8717 495
v -1745 27.4814 493
v -1745 27.5343 491
v -1745 27.4608 489
v -1745 27.8067 487
v -1745 28.484 485
v -1745 28.4151 483
v -1745 28.9649 481
v -1745 28.2574 479
v -1745 28.1854 477
v -1745 27.1334 475
v -1745 27.2392 473
v -1745 26.2759 471
v -1745 25.9384 469
v -1745 25.93 467
v -1745 26.26 465
v -1745 26.851 463
v -1745 26.9322 461
v -1745 27.444 459
v -1745 28.2755 457
f 59 58 57
f 60 58 59
f 55 54 53
f 56 54 55
f 51 50 49
f 52 50 51
f 83 82 81
f 86 81 82
f 81 86 85
f 88 85 86
f 85 88 87
f 7 6 5
f 8 6 7
f 15 14 13
f 11 10 9
f 12 10 11
f 82 83 84
f 16 14 15
f 37 34 36
f 38 34 37
f 39 34 38
f 91 90 89
f 90 91 92
f 79 78 77
f 63 62 61
f 47 46 45
f 48 46 47
f 64 62 63
f 3 2 1
f 4 2 3
f 78 79 80
f 19 18 17
f 20 18 19
f 36 34 35
f 40 34 39
f 32 30 31
f 23 22 21
f 24 22 23
f 35 34 33
f 31 30 29
f 94 95 96
f 74 75 76
f 75 74 73
f 67 66 65
f 68 66 67
f 44 42 43
f 43 42 41
f 95 94 93
f 27 26 25
f 28 26 27
f 76 93 94
f 93 76 75
f 71 70 69
f 72 70 71
f 124 123 115
f 98 123 124
f 97 98 124
f 119 125 118
f 123 112 115
f 116 115 112
f 120 118 128
f 120 119 118
f 98 103 123
f 103 106 123
f 123 106 112
f 99 98 97
f 100 99 97
f 99 104 98
f 104 103 98
f 106 109 112
f 113 116 112
f 113 112 109
f 104 107 103
f 107 106 103
f 110 109 106
f 107 110 106
f 110 113 109
f 105 104 99
f 105 108 104
f 108 107 104
f 101 99 100
f 102 101 100
f 108 111 107
f 120 128 126
f 114 117 113
f 117 116 113
f 114 113 110
f 111 110 107
f 127 120 126
f 111 114 110
f 101 105 99
f 111 108 122
f 114 111 122
f 108 105 101
f 122 108 101
f 114 122 121
f 117 114 121
f 121 122 101
f 132 101 102
f 131 130 129
f 258 257 256
f 259 257 258
f 260 259 258
f 277 278 280
f 280 278 281
f 261 259 260
f 262 261 260
f 281 278 282
f 279 278 277
f 257 255 256
f 256 255 253
f 263 261 262
f 282 278 283
f 264 263 262
f 284 278 279
f 283 278 284
f 266 265 264
f 265 263 264
f 268 267 266
f 255 254 253
f 329 326 328
f 330 326 329
f 312 311 297
f 299 312 297
f 313 312 299
f 328 326 327
f 311 310 295
f 297 311 295
f 267 265 266
f 261 273 259
f 259 272 257
f 273 272 259
f 257 271 255
f 272 271 257
f 295 310 294
f 327 326 325
f 310 309 294
f 301 313 299
f 331 326 330
f 314 313 301
f 271 270 255
f 255 270 254
f 325 326 332
f 332 326 331
f 299 297 298
f 298 297 296
f 297 295 296
f 300 299 298
f 301 299 300
f 263 274 261
f 274 273 261
f 270 269 254
f 267 276 265
f 303 314 301
f 315 314 303
f 296 295 293
f 295 294 293
f 265 275 263
f 276 275 265
f 316 315 305
f 307 316 305
f 275 274 263
f 302 301 300
f 303 301 302
f 321 318 322
f 320 318 321
f 317 318 320
f 305 315 303
f 289 286 288
f 288 286 287
f 290 286 289
f 247 246 245
f 230 229 214
f 245 246 252
f 227 236 225
f 236 235 225
f 322 318 323
f 304 303 302
f 305 303 304
f 308 307 306
f 307 305 306
f 319 318 317
f 324 318 319
f 323 318 324
f 306 305 304
f 291 286 290
f 287 286 285
f 215 230 214
f 248 246 247
f 231 230 215
f 235 234 223
f 225 235 223
f 252 246 251
f 163 158 164
f 144 143 142
f 145 143 144
f 162 158 163
f 146 145 144
f 251 246 250
f 249 246 248
f 250 246 249
f 292 286 291
f 285 286 292
f 161 158 162
f 141 139 140
f 142 141 140
f 160 158 161
f 140 139 138
f 143 141 142
f 223 234 221
f 234 233 221
f 232 231 217
f 217 231 215
f 157 158 160
f 139 137 138
f 138 137 136
f 180 179 178
f 178 177 176
f 179 177 178
f 200 198 201
f 197 198 200
f 182 181 180
f 181 179 180
f 201 198 202
f 233 232 219
f 219 232 217
f 147 145 146
f 164 158 159
f 148 147 146
f 159 158 157
f 137 135 136
f 136 135 133
f 221 233 219
f 135 134 133
f 177 175 176
f 199 198 197
f 176 175 173
f 184 183 182
f 183 181 182
f 202 198 203
f 204 198 199
f 203 198 204
f 215 214 213
f 228 227 226
f 227 225 226
f 216 215 213
f 217 215 216
f 186 185 184
f 185 183 184
f 175 174 173
f 188 187 186
f 226 225 224
f 225 223 224
f 224 223 222
f 223 221 222
f 187 185 186
f 218 217 216
f 219 217 218
f 221 219 220
f 222 221 220
f 181 193 179
f 179 192 177
f 193 192 179
f 177 191 175
f 192 191 177
f 220 219 218
f 191 190 175
f 175 190 174
f 194 193 181
f 183 194 181
f 147 156 145
f 145 155 143
f 156 155 145
f 141 153 139
f 153 152 139
f 139 152 137
f 190 189 174
f 187 196 185
f 143 154 141
f 154 153 141
f 185 195 183
f 196 195 185
f 195 194 183
f 155 154 143
f 239 238 237
f 244 238 239
f 150 149 134
f 135 150 134
f 152 151 137
f 137 151 135
f 243 238 244
f 151 150 135
f 237 238 240
f 209 206 208
f 208 206 207
f 240 238 241
f 241 238 242
f 242 238 243
f 210 206 209
f 211 206 210
f 207 206 205
f 212 206 211
f 205 206 212
f 171 166 170
f 170 166 169
f 172 166 171
f 165 166 172
f 169 166 168
f 168 166 167
f 167 166 165
f 383 382 381
f 384 382 383
f 379 378 377
f 380 378 379
f 375 374 373
f 376 374 375
f 407 406 405
f 410 405 406
f 405 410 409
f 412 409 410
f 409 412 411
f 339 338 337
f 340 338 339
f 347 346 345
f 343 342 341
f 344 342 343
f 406 407 408
f 348 346 347
f 415 414 413
f 414 415 416
f 403 402 401
f 387 386 385
f 388 386 387
f 371 370 369
f 372 370 371
f 335 334 333
f 336 334 335
f 402 403 404
f 351 350 349
f 352 350 351
f 364 362 363
f 355 354 353
f 356 354 355
f 363 362 361
f 399 398 397
f 398 399 400
f 418 419 420
f 391 390 389
f 392 390 391
f 368 366 367
f 367 366 365
f 419 418 417
f 359 358 357
f 360 358 359
f 417 400 399
f 400 417 418
f 395 394 393
f 396 394 395
f 447 446 445
f 443 442 441
f 444 442 443
f 439 438 437
f 440 438 439
f 451 450 449
f 448 446 447
f 435 434 433
f 436 434 435
f 425 422 424
f 426 422 425
f 427 422 426
f 452 450 451
f 424 422 423
f 428 422 427
f 432 430 431
f 455 454 453
f 456 454 455
f 423 422 421
f 459 458 457
f 460 458 459
f 431 430 429
f 515 514 513
f 516 514 515
f 511 510 509
f 512 510 511
f 503 502 501
f 499 498 497
f 498 499 500
f 495 494 493
f 487 486 485
f 486 487 488
f 463 462 461
f 464 462 463
f 494 495 496
f 483 482 481
f 484 482 483
f 475 474 473
f 476 474 475
f 471 470 469
f 472 470 471
f 531 530 529
f 532 530 531
f 527 526 525
f 528 526 527
f 519 518 517
f 504 502 503
f 520 518 519
f 467 466 465
f 468 466 467
f 523 522 521
f 524 522 523
f 507 506 505
f 508 506 507
f 491 490 489
f 490 491 492
f 479 478 477
f 480 478 479
f 567 566 565
f 555 554 553
f 556 554 555
f 566 567 568
f 543 542 541
f 544 542 543
f 563 562 561
f 551 550 549
f 552 550 551
f 535 534 533
f 562 563 564
f 536 534 535
f 539 538 537
f 540 538 539
f 559 558 557
f 558 559 560
f 548 546 547
f 547 546 545
f 615 614 613
f 616 614 615
f 631 620 619
f 620 631 632
f 599 598 597
f 600 598 599
f 619 618 617
f 618 619 620
f 587 586 585
f 588 586 587
f 583 582 581
f 584 582 583
f 663 662 661
f 664 662 663
f 659 658 657
f 660 658 659
f 635 634 633
f 623 622 621
f 622 623 624
f 603 602 601
f 604 602 603
f 636 634 635
f 591 590 589
f 592 590 591
f 593 590 592
f 594 590 593
f 595 590 594
f 596 590 595
f 579 578 577
f 580 578 579
f 655 654 653
f 656 654 655
f 639 638 637
f 640 638 639
f 652 650 651
f 643 642 641
f 644 642 643
f 576 574 575
f 651 650 649
f 575 574 573
f 626 627 628
f 647 646 645
f 648 646 647
f 607 606 605
f 608 606 607
f 627 626 625
f 572 570 571
f 571 570 569
f 630 625 626
f 625 630 629
f 611 610 609
f 612 610 611
f 698 666 665
f 665 697 698
f 730 698 697
f 697 729 730
f 762 730 729
f 729 761 762
f 794 762 761
f 761 793 794
f 826 794 793
f 793 825 826
f 858 826 825
f 825 857 858
f 890 858 857
f 857 889 890
f 922 890 889
f 889 921 922
f 954 922 921
f 921 953 954
f 986 954 953
f 953 985 986
f 1018 986 985
f 985 1017 1018
f 1050 1018 1017
f 1017 1049 1050
f 1082 1050 1049
f 1049 1081 1082
f 1114 1082 1081
f 1081 1113 1114
f 1146 1114 1113
f 1113 1145 1146
f 1178 1146 1145
f 1145 1177 1178
f 1210 1178 1177
f 1177 1209 1210
f 1242 1210 1209
f 1209 1241 1242
f 1274 1242 1241
f 1241 1273 1274
f 1306 1274 1273
f 1273 1305 1306
f 1338 1306 1305
f 1305 1337 1338
f 1370 1338 1337
f 1337 1369 1370
f 1402 1370 1369
f 1369 1401 1402
f 1434 1402 1401
f 1401 1433 1434
f 1466 1434 1433
f 1433 1465 1466
f 1498 1466 1465
f 1465 1497 1498
f 1530 1498 1497
f 1497 1529 1530
f 1562 1530 1529
f 1529 1561 1562
f 1594 1562 1561
f 1561 1593 1594
f 1626 1594 1593
f 1593 1625 1626
f 1658 1626 1625
f 1625 1657 1658
f 699 667 666
f 666 698 699
f 731 699 698
f 698 730 731
f 763 731 730
f 730 762 763
f 795 763 762
f 762 794 795
f 827 795 794
f 794 826 827
f 859 827 826
f 826 858 859
f 891 859 858
f 858 890 891
f 923 891 890
f 890 922 923
f 955 923 922
f 922 954 955
f 987 955 954
f 954 986 987
f 1019 987 986
f 986 1018 1019
f 1051 1019 1018
f 1018 1050 1051
f 1083 1051 1050
f 1050 1082 1083
f 1115 1083 1082
f 1082 1114 1115
f 1147 1115 1114
f 1114 1146 1147
f 1179 1147 1146
f 1146 1178 1179
f 1211 1179 1178
f 1178 1210 1211
f 1243 1211 1210
f 1210 1242 1243
f 1275 1243 1242
f 1242 1274 1275
f 1307 1275 1274
f 1274 1306 1307
f 1339 1307 1306
f 1306 1338 1339
f 1371 1339 1338
f 1338 1370 1371
f 1403 1371 1370
f 1370 1402 1403
f 1435 1403 1402
f 1402 1434 1435
f 1467 1435 1434
f 1434 1466 1467
f 1499 1467 1466
f 1466 1498 1499
f 1531 1499 1498
f 1498 1530 1531
f 1563 1531 1530
f 1530 1562 1563
f 1595 1563 1562
f 1562 1594 1595
f 1627 1595 1594
f 1594 1626 1627
f 1659 1627 1626
f 1626 1658 1659
f 700 668 667
f 667 699 700
f 732 700 699
f 699 731 732
f 764 732 731
f 731 763 764
f 796 764 763
f 763 795 796
f 828 796 795
f 795 827 828
f 860 828 827
f 827 859 860
f 892 860 859
f 859 891 892
f 924 892 891
f 891 923 924
f 956 924 923
f 923 955 956
f 988 956 955
f 955 987 988
f 1020 988 987
f 987 1019 1020
f 1052 1020 1019
f 1019 1051 1052
f 1084 1052 1051
f 1051 1083 1084
f 1116 1084 1083
f 1083 1115 1116
f 1148 1116 1115
f 1115 1147 1148
f 1180 1148 1147
f 1147 1179 1180
f 1212 1180 1179
f 1179 1211 1212
f 1244 1212 1211
f 1211 1243 1244
f 1276 1244 1243
f 1243 1275 1276
f 1308 1276 1275
f 1275 1307 1308
f 1340 1308 1307
f 1307 1339 1340
f 1372 1340 1339
f 1339 1371 1372
f 1404 1372 1371
f 1371 1403 1404
f 1436 1404 1403
f 1403 1435 1436
f 1468 1436 1435
f 1435 1467 1468
f 1500 1468 1467
f 1467 1499 1500
f 1532 1500 1499
f 1499 1531 1532
f 1564 1532 1531
f 1531 1563 1564
f 1596 1564 1563
f 1563 1595 1596
f 1628 1596 1595
f 1595 1627 1628
f 1660 1628 1627
f 1627 1659 1660
f 701 669 668
f 668 700 701
f 733 701 700
f 700 732 733
f 765 733 732
f 732 764 765
f 797 765 764
f 764 796 797
f 829 797 796
f 796 828 829
f 861 829 828
f 828 860 861
f 893 861 860
f 860 892 893
f 925 893 892
f 892 924 925
f 957 925 924
f 924 956 957
f 989 957 956
f 956 988 989
f 1021 989 988
f 988 1020 1021
f 1053 1021 1020
f 1020 1052 1053
f 1085 1053 1052
f 1052 1084 1085
f 1117 1085 1084
f 1084 1116 1117
f 1149 1117 1116
f 1116 1148 1149
f 1181 1149 1148
f 1148 1180 1181
f 1213 1181 1180
f 1180 1212 1213
f 1245 1213 1212
f 1212 1244 1245
f 1277 1245 1244
f 1244 1276 1277
f 1309 1277 1276
f 1276 1308 1309
f 1341 1309 1308
f 1308 1340 1341
f 1373 1341 1340
f 1340 1372 1373
f 1405 1373 1372
f 1372 1404 1405
f 1437 1405 1404
f 1404 1436 1437
f 1469 1437 1436
f 1436 1468 1469
f 1501 1469 1468
f 1468 1500 1501
f 1533 1501 1500
f 1500 1532 1533
f 1565 1533 1532
f 1532 1564 1565
f 1597 1565 1564
f 1564 1596 1597
f 1629 1597 1596
f 1596 1628 1629
f 1661 1629 1628
f 1628 1660 1661
f 702 670 669
f 669 701 702
f 734 702 701
f 701 733 734
f 766 734 733
f 733 765 766
f 798 766 765
f 765 797 798
f 830 798 797
f 797 829 830
f 862 830 829
f 829 861 862
f 894 862 861
f 861 893 894
f 926 894 893
f 893 925 926
f 958 926 925
f 925 957 958
f 990 958 957
f 957 989 990
f 1022 990 989
f 989 1021 1022
f 1054 1022 1021
f 1021 1053 1054
f 1086 1054 1053
f 1053 1085 1086
f 1118 1086 1085
f 1085 1117 1118
f 1150 1118 1117
f 1117 1149 1150
f 1182 1150 1149
f 1149 1181 1182
f 1214 1182 1181
f 1181 1213 1214
f 1246 1214 1213
f 1213 1245 1246
f 1278 1246 1245
f 1245 1277 1278
f 1310 1278 1277
f 1277 1309 1310
f 1342 1310 1309
f 1309 1341 1342
f 1374 1342 1341
f 1341 1373 1374
f 1406 1374 1373
f 1373 1405 1406
f 1438 1406 1405
f 1405 1437 1438
f 1470 1438 1437
f 1437 1469 1470
f 1502 1470 1469
f 1469 1501 1502
f 1534 1502 1501
f 1501 1533 1534
f 1566 1534 1533
f 1533 1565 1566
f 1598 1566 1565
f 1565 1597 1598
f 1630 1598 1597
f 1597 1629 1630
f 1662 1630 1629
f 1629 1661 1662
f 703 671 670
f 670 702 703
f 735 703 702
f 702 734 735
f 767 735 734
f 734 766 767
f 799 767 766
f 766 798 799
f 831 799 798
f 798 830 831
f 863 831 830
f 830 862 863
f 895 863 862
f 862 894 895
f 927 895 894
f 894 926 927
f 959 927 926
f 926 958 959
f 991 959 958
f 958 990 991
f 1023 991 990
f 990 1022 1023
f 1055 1023 1022
f 1022 1054 1055
f 1087 1055 1054
f 1054 1086 1087
f 1119 1087 1086
f 1086 1118 1119
f 1151 1119 1118
f 1118 1150 1151
f 1183 1151 1150
f 1150 1182 1183
f 1215 1183 1182
f 1182 1214 1215
f 1247 1215 1214
f 1214 1246 1247
f 1279 1247 1246
f 1246 1278 1279
f 1311 1279 1278
f 1278 1310 1311
f 1343 1311 1310
f 1310 1342 1343
f 1375 1343 1342
f 1342 1374 1375
f 1407 1375 1374
f 1374 1406 1407
f 1439 1407 1406
f 1406 1438 1439
f 1471 1439 1438
f 1438 1470 1471
f 1503 1471 1470
f 1470 1502 1503
f 1535 1503 1502
f 1502 1534 1535
f 1567 1535 1534
f 1534 1566 1567
f 1599 1567 1566
f 1566 1598 1599
f 1631 1599 1598
f 1598 1630 1631
f 1663 1631 1630
f 1630 1662 1663
f 704 672 671
f 671 703 704
f 736 704 703
f 703 735 736
f 768 736 735
f 735 767 768
f 800 768 767
f 767 799 800
f 832 800 799
f 799 831 832
f 864 832 831
f 831 863 864
f 896 864 863
f 863 895 896
f 928 896 895
f 895 927 928
f 960 928 927
f 927 959 960
f 992 960 959
f 959 991 992
f 1024 992 991
f 991 1023 1024
f 1056 1024 1023
f 1023 1055 1056
f 1088 1056 1055
f 1055 1087 1088
f 1120 1088 1087
f 1087 1119 1120
f 1152 1120 1119
f 1119 1151 1152
f 1184 1152 1151
f 1151 1183 1184
f 1216 1184 1183
f 1183 1215 1216
f 1248 1216 1215
f 1215 1247 1248
f 1280 1248 1247
f 1247 1279 1280
f 1312 1280 1279
f 1279 1311 1312
f 1344 1312 1311
f 1311 1343 1344
f 1376 1344 1343
f 1343 1375 1376
f 1408 1376 1375
f 1375 1407 1408
f 1440 1408 1407
f 1407 1439 1440
f 1472 1440 1439
f 1439 1471 1472
f 1504 1472 1471
f 1471 1503 1504
f 1536 1504 1503
f 1503 1535 1536
f 1568 1536 1535
f 1535 1567 1568
f 1600 1568 1567
f 1567 1599 1600
f 1632 1600 1599
f 1599 1631 1632
f 1664 1632 1631
f 1631 1663 1664
f 705 673 672
f 672 704 705
f 737 705 704
f 704 736 737
f 769 737 736
f 736 768 769
f 801 769 768
f 768 800 801
f 833 801 800
f 800 832 833
f 865 833 832
f 832 864 865
f 897 865 864
f 864 896 897
f 929 897 896
f 896 928 929
f 961 929 928
f 928 960 961
f 993 961 960
f 960 992 993
f 1025 993 992
f 992 1024 1025
f 1057 1025 1024
f 1024 1056 1057
f 1089 1057 1056
f 1056 1088 1089
f 1121 1089 1088
f 1088 1120 1121
f 1153 1121 1120
f 1120 1152 1153
f 1185 1153 1152
f 1152 1184 1185
f 1217 1185 1184
f 1184 1216 1217
f 1249 1217 1216
f 1216 1248 1249
f 1281 1249 1248
f 1248 1280 1281
f 1313 1281 1280
f 1280 1312 1313
f 1345 1313 1312
f 1312 1344 1345
f 1377 1345 1344
f 1344 1376 1377
f 1409 1377 1376
f 1376 1408 1409
f 1441 1409 1408
f 1408 1440 1441
f 1473 1441 1440
f 1440 1472 1473
f 1505 1473 1472
f 1472 1504 1505
f 1537 1505 1504
f 1504 1536 1537
f 1569 1537 1536
f 1536 1568 1569
f 1601 1569 1568
f 1568 1600 1601
f 1633 1601 1600
f 1600 1632 1633
f 1665 1633 1632
f 1632 1664 1665
f 706 674 673
f 673 705 706
f 738 706 705
f 705 737 738
f 770 738 737
f 737 769 770
f 802 770 769
f 769 801 802
f 834 802 801
f 801 833 834
f 866 834 833
f 833 865 866
f 898 866 865
f 865 897 898
f 930 898 897
f 897 929 930
f 962 930 929
f 929 961 962
f 994 962 961
f 961 993 994
f 1026 994 993
f 993 1025 1026
f 1058 1026 1025
f 1025 1057 1058
f 1090 1058 1057
f 1057 1089 1090
f 1122 1090 1089
f 1089 1121 1122
f 1154 1122 1121
f 1121 1153 1154
f 1186 1154 1153
f 1153 1185 1186
f 1218 1186 1185
f 1185 1217 1218
f 1250 1218 1217
f 1217 1249 1250
f 1282 1250 1249
f 1249 1281 1282
f 1314 1282 1281
f 1281 1313 1314
f 1346 1314 1313
f 1313 1345 1346
f 1378 1346 1345
f 1345 1377 1378
f 1410 1378 1377
f 1377 1409 1410
f 1442 1410 1409
f 1409 1441 1442
f 1474 1442 1441
f 1441 1473 1474
f 1506 1474 1473
f 1473 1505 1506
f 1538 1506 1505
f 1505 1537 1538
f 1570 1538 1537
f 1537 1569 1570
f 1602 1570 1569
f 1569 1601 1602
f 1634 1602 1601
f 1601 1633 1634
f 1666 1634 1633
f 1633 1665 1666
f 707 675 674
f 674 706 707
f 739 707 706
f 706 738 739
f 771 739 738
f 738 770 771
f 803 771 770
f 770 802 803
f 835 803 802
f 802 834 835
f 867 835 834
f 834 866 867
f 899 867 866
f 866 898 899
f 931 899 898
f 898 930 931
f 963 931 930
f 930 962 963
f 995 963 962
f 962 994 995
f 1027 995 994
f 994 1026 1027
f 1059 1027 1026
f 1026 1058 1059
f 1091 1059 1058
f 1058 1090 1091
f 1123 1091 1090
f 1090 1122 1123
f 1155 1123 1122
f 1122 1154 1155
f 1187 1155 1154
f 1154 1186 1187
f 1219 1187 1186
f 1186 1218 1219
f 1251 1219 1218
f 1218 1250 1251
f 1283 1251 1250
f 1250 1282 1283
f 1315 1283 1282
f 1282 1314 1315
f 1347 1315 1314
f 1314 1346 1347
f 1379 1347 1346
f 1346 1378 1379
f 1411 1379 1378
f 1378 1410 1411
f 1443 1411 1410
f 1410 1442 1443
f 1475 1443 1442
f 1442 1474 1475
f 1507 1475 1474
f 1474 1506 1507
f 1539 1507 1506
f 1506 1538 1539
f 1571 1539 1538
f 1538 1570 1571
f 1603 1571 1570
f 1570 1602 1603
f 1635 1603 1602
f 1602 1634 1635
f 1667 1635 1634
f 1634 1666 1667
f 708 676 675
f 675 707 708
f 740 708 707
f 707 739 740
f 772 740 739
f 739 771 772
f 804 772 771
f 771 803 804
f 836 804 803
f 803 835 836
f 868 836 835
f 835 867 868
f 900 868 867
f 867 899 900
f 932 900 899
f 899 931 932
f 964 932 931
f 931 963 964
f 996 964 963
f 963 995 996
f 1028 996 995
f 995 1027 1028
f 1060 1028 1027
f 1027 1059 1060
f 1092 1060 1059
f 1059 1091 1092
f 1124 1092 1091
f 1091 1123 1124
f 1156 1124 1123
f 1123 1155 1156
f 1188 1156 1155
f 1155 1187 1188
f 1220 1188 1187
f 1187 1219 1220
f 1252 1220 1219
f 1219 1251 1252
f 1284 1252 1251
f 1251 1283 1284
f 1316 1284 1283
f 1283 1315 1316
f 1348 1316 1315
f 1315 1347 1348
f 1380 1348 1347
f 1347 1379 1380
f 1412 1380 1379
f 1379 1411 1412
f 1444 1412 1411
f 1411 1443 1444
f 1476 1444 1443
f 1443 1475 1476
f 1508 1476 1475
f 1475 1507 1508
f 1540 1508 1507
f 1507 1539 1540
f 1572 1540 1539
f 1539 1571 1572
f 1604 1572 1571
f 1571 1603 1604
f 1636 1604 1603
f 1603 1635 1636
f 1668 1636 1635
f 1635 1667 1668
f 709 677 676
f 676 708 709
f 741 709 708
f 708 740 741
f 773 741 740
f 740 772 773
f 805 773 772
f 772 804 805
f 837 805 804
f 804 836 837
f 869 837 836
f 836 868 869
f 901 869 868
f 868 900 901
f 933 901 900
f 900 932 933
f 965 933 932
f 932 964 965
f 997 965 964
f 964 996 997
f 1029 997 996
f 996 1028 1029
f 1061 1029 1028
f 1028 1060 1061
f 1093 1061 1060
f 1060 1092 1093
f 1125 1093 1092
f 1092 1124 1125
f 1157 1125 1124
f 1124 1156 1157
f 1189 1157 1156
f 1156 1188 1189
f 1221 1189 1188
f 1188 1220 1221
f 1253 1221 1220
f 1220 1252 1253
f 1285 1253 1252
f 1252 1284 1285
f 1317 1285 1284
f 1284 1316 1317
f 1349 1317 1316
f 1316 1348 1349
f 1381 1349 1348
f 1348 1380 1381
f 1413 1381 1380
f 1380 1412 1413
f 1445 1413 1412
f 1412 1444 1445
f 1477 1445 1444
f 1444 1476 1477
f 1509 1477 1476
f 1476 1508 1509
f 1541 1509 1508
f 1508 1540 1541
f 1573 1541 1540
f 1540 1572 1573
f 1605 1573 1572
f 1572 1604 1605
f 1637 1605 1604
f 1604 1636 1637
f 1669 1637 1636
f 1636 1668 1669
f 710 678 677
f 677 709 710
f 742 710 709
f 709 741 742
f 774 742 741
f 741 773 774
f 806 774 773
f 773 805 806
f 838 806 805
f 805 837 838
f 870 838 837
f 837 869 870
f 902 870 869
f 869 901 902
f 934 902 901
f 901 933 934
f 966 934 933
f 933 965 966
f 998 966 965
f 965 997 998
f 1030 998 997
f 997 1029 1030
f 1062 1030 1029
f 1029 1061 1062
f 1094 1062 1061
f 1061 1093 1094
f 1126 1094 1093
f 1093 1125 1126
f 1158 1126 1125
f 1125 1157 1158
f 1190 1158 1157
f 1157 1189 1190
f 1222 1190 1189
f 1189 1221 1222
f 1254 1222 1221
f 1221 1253 1254
f 1286 1254 1253
f 1253 1285 1286
f 1318 1286 1285
f 1285 1317 1318
f 1350 1318 1317
f 1317 1349 1350
f 1382 1350 1349
f 1349 1381 1382
f 1414 1382 1381
f 1381 1413 1414
f 1446 1414 1413
f 1413 1445 1446
f 1478 1446 1445
f 1445 1477 1478
f 1510 1478 1477
f 1477 1509 1510
f 1542 1510 1509
f 1509 1541 1542
f 1574 1542 1541
f 1541 1573 1574
f 1606 1574 1573
f 1573 1605 1606
f 1638 1606 1605
f 1605 1637 1638
f 1670 1638 1637
f 1637 1669 1670
f 711 679 678
f 678 710 711
f 743 711 710
f 710 742 743
f 775 743 742
f 742 774 775
f 807 775 774
f 774 806 807
f 839 807 806
f 806 838 839
f 871 839 838
f 838 870 871
f 903 871 870
f 870 902 903
f 935 903 902
f 902 934 935
f 967 935 934
f 934 966 967
f 999 967 966
f 966 998 999
f 1031 999 998
f 998 1030 1031
f 1063 1031 1030
f 1030 1062 1063
f 1095 1063 1062
f 1062 1094 1095
f 1127 1095 1094
f 1094 1126 1127
f 1159 1127 1126
f 1126 1158 1159
f 1191 1159 1158
f 1158 1190 1191
f 1223 1191 1190
f 1190 1222 1223
f 1255 1223 1222
f 1222 1254 1255
f 1287 1255 1254
f 1254 1286 1287
f 1319 1287 1286
f 1286 1318 1319
f 1351 1319 1318
f 1318 1350 1351
f 1383 1351 1350
f 1350 1382 1383
f 1415 1383 1382
f 1382 1414 1415
f 1447 1415 1414
f 1414 1446 1447
f 1479 1447 1446
f 1446 1478 1479
f 1511 1479 1478
f 1478 1510 1511
f 1543 1511 1510
f 1510 1542 1543
f 1575 1543 1542
f 1542 1574 1575
f 1607 1575 1574
f 1574 1606 1607
f 1639 1607 1606
f 1606 1638 1639
f 1671 1639 1638
f 1638 1670 1671
f 712 680 679
f 679 711 712
f 744 712 711
f 711 743 744
f 776 744 743
f 743 775 776
f 808 776 775
f 775 807 808
f 840 808 807
f 807 839 840
f 872 840 839
f 839 871 872
f 904 872 871
f 871 903 904
f 936 904 903
f 903 935 936
f 968 936 935
f 935 967 968
f 1000 968 967
f 967 999 1000
f 1032 1000 999
f 999 1031 1032
f 1064 1032 1031
f 1031 1063 1064
f 1096 1064 1063
f 1063 1095 1096
f 1128 1096 1095
f 1095 1127 1128
f 1160 1128 1127
f 1127 1159 1160
f 1192 1160 1159
f 1159 1191 1192
f 1224 1192 1191
f 1191 1223 1224
f 1256 1224 1223
f 1223 1255 1256
f 1288 1256 1255
f 1255 1287 1288
f 1320 1288 1287
f 1287 1319 1320
f 1352 1320 1319
f 1319 1351 1352
f 1384 1352 1351
f 1351 1383 1384
f 1416 1384 1383
f 1383 1415 1416
f 1448 1416 1415
f 1415 1447 1448
f 1480 1448 1447
f 1447 1479 1480
f 1512 1480 1479
f 1479 1511 1512
f 1544 1512 1511
f 1511 1543 1544
f 1576 1544 1543
f 1543 1575 1576
f 1608 1576 1575
f 1575 1607 1608
f 1640 1608 1607
f 1607 1639 1640
f 1672 1640 1639
f 1639 1671 1672
f 713 681 680
f 680 712 713
f 745 713 712
f 712 744 745
f 777 745 744
f 744 776 777
f 809 777 776
f 776 808 809
f 841 809 808
f 808 840 841
f 873 841 840
f 840 872 873
f 905 873 872
f 872 904 905
f 937 905 904
f 904 936 937
f 969 937 936
f 936 968 969
f 1001 969 968
f 968 1000 1001
f 1033 1001 1000
f 1000 1032 1033
f 1065 1033 1032
f 1032 1064 1065
f 1097 1065 1064
f 1064 1096 1097
f 1129 1097 1096
f 1096 1128 1129
f 1161 1129 1128
f 1128 1160 1161
f 1193 1161 1160
f 1160 1192 1193
f 1225 1193 1192
f 1192 1224 1225
f 1257 1225 1224
f 1224 1256 1257
f 1289 1257 1256
f 1256 1288 1289
f 1321 1289 1288
f 1288 1320 1321
f 1353 1321 1320
f 1320 1352 1353
f 1385 1353 1352
f 1352 1384 1385
f 1417 1385 1384
f 1384 1416 1417
f 1449 1417 1416
f 1416 1448 1449
f 1481 1449 1448
f 1448 1480 1481
f 1513 1481 1480
f 1480 1512 1513
f 1545 1513 1512
f 1512 1544 1545
f 1577 1545 1544
f 1544 1576 1577
f 1609 1577 1576
f 1576 1608 1609
f 1641 1609 1608
f 1608 1640 1641
f 1673 1641 1640
f 1640 1672 1673
f 714 682 681
f 681 713 714
f 746 714 713
f 713 745 746
f 778 746 745
f 745 777 778
f 810 778 777
f 777 809 810
f 842 810 809
f 809 841 842
f 874 842 841
f 841 873 874
f 906 874 873
f 873 905 906
f 938 906 905
f 905 937 938
f 970 938 937
f 937 969 970
f 1002 970 969
f 969 1001 1002
f 1034 1002 1001
f 1001 1033 1034
f 1066 1034 1033
f 1033 1065 1066
f 1098 1066 1065
f 1065 1097 1098
f 1130 1098 1097
f 1097 1129 1130
f 1162 1130 1129
f 1129 1161 1162
f 1194 1162 1161
f 1161 1193 1194
f 1226 1194 1193
f 1193 1225 1226
f 1258 1226 1225
f 1225 1257 1258
f 1290 1258 1257
f 1257 1289 1290
f 1322 1290 1289
f 1289 1321 1322
f 1354 1322 1321
f 1321 1353 1354
f 1386 1354 1353
f 1353 1385 1386
f 1418 1386 1385
f 1385 1417 1418
f 1450 1418 1417
f 1417 1449 1450
f 1482 1450 1449
f 1449 1481 1482
f 1514 1482 1481
f 1481 1513 1514
f 1546 1514 1513
f 1513 1545 1546
f 1578 1546 1545
f 1545 1577 1578
f 1610 1578 1577
f 1577 1609 1610
f 1642 1610 1609
f 1609 1641 1642
f 1674 1642 1641
f 1641 1673 1674
f 715 683 682
f 682 714 715
f 747 715 714
f 714 746 747
f 779 747 746
f 746 778 779
f 811 779 778
f 778 810 811
f 843 811 810
f 810 842 843
f 875 843 842
f 842 874 875
f 907 875 874
f 874 906 907
f 939 907 906
f 906 938 939
f 971 939 938
f 938 970 971
f 1003 971 970
f 970 1002 1003
f 1035 1003 1002
f 1002 1034 1035
f 1067 1035 1034
f 1034 1066 1067
f 1099 1067 1066
f 1066 1098 1099
f 1131 1099 1098
f 1098 1130 1131
f 1163 1131 1130
f 1130 1162 1163
f 1195 1163 1162
f 1162 1194 1195
f 1227 1195 1194
f 1194 1226 1227
f 1259 1227 1226
f 1226 1258 1259
f 1291 1259 1258
f 1258 1290 1291
f 1323 1291 1290
f 1290 1322 1323
f 1355 1323 1322
f 1322 1354 1355
f 1387 1355 1354
f 1354 1386 1387
f 1419 1387 1386
f 1386 1418 1419
f 1451 1419 1418
f 1418 1450 1451
f 1483 1451 1450
f 1450 1482 1483
f 1515 1483 1482
f 1482 1514 1515
f 1547 1515 1514
f 1514 1546 1547
f 1579 1547 1546
f 1546 1578 1579
f 1611 1579 1578
f 1578 1610 1611
f 1643 1611 1610
f 1610 1642 1643
f 1675 1643 1642
f 1642 1674 1675
f 716 684 683
f 683 715 716
f 748 716 715
f 715 747 748
f 780 748 747
f 747 779 780
f 812 780 779
f 779 811 812
f 844 812 811
f 811 843 844
f 876 844 843
f 843 875 876
f 908 876 875
f 875 907 908
f 940 908 907
f 907 939 940
f 972 940 939
f 939 971 972
f 1004 972 971
f 971 1003 1004
f 1036 1004 1003
f 1003 1035 1036
f 1068 1036 1035
f 1035 1067 1068
f 1100 1068 1067
f 1067 1099 1100
f 1132 1100 1099
f 1099 1131 1132
f 1164 1132 1131
f 1131 1163 1164
f 1196 1164 1163
f 1163 1195 1196
f 1228 1196 1195
f 1195 1227 1228
f 1260 1228 1227
f 1227 1259 1260
f 1292 1260 1259
f 1259 1291 1292
f 1324 1292 1291
f 1291 1323 1324
f 1356 1324 1323
f 1323 1355 1356
f 1388 1356 1355
f 1355 1387 1388
f 1420 1388 1387
f 1387 1419 1420
f 1452 1420 1419
f 1419 1451 1452
f 1484 1452 1451
f 1451 1483 1484
f 1516 1484 1483
f 1483 1515 1516
f 1548 1516 1515
f 1515 1547 1548
f 1580 1548 1547
f 1547 1579 1580
f 1612 1580 1579
f 1579 1611 1612
f 1644 1612 1611
f 1611 1643 1644
f 1676 1644 1643
f 1643 1675 1676
f 717 685 684
f 684 716 717
f 749 717 716
f 716 748 749
f 781 749 748
f 748 780 781
f 813 781 780
f 780 812 813
f 845 813 812
f 812 844 845
f 877 845 844
f 844 876 877
f 909 877 876
f 876 908 909
f 941 909 908
f 908 940 941
f 973 941 940
f 940 972 973
f 1005 973 972
f 972 1004 1005
f 1037 1005 1004
f 1004 1036 1037
f 1069 1037 1036
f 1036 1068 1069
f 1101 1069 1068
f 1068 1100 1101
f 1133 1101 1100
f 1100 1132 1133
f 1165 1133 1132
f 1132 1164 1165
f 1197 1165 1164
f 1164 1196 1197
f 1229 1197 1196
f 1196 1228 1229
f 1261 1229 1228
f 1228 1260 1261
f 1293 1261 1260
f 1260 1292 1293
f 1325 1293 1292
f 1292 1324 1325
f 1357 1325 1324
f 1324 1356 1357
f 1389 1357 1356
f 1356 1388 1389
f 1421 1389 1388
f 1388 1420 1421
f 1453 1421 1420
f 1420 1452 1453
f 1485 1453 1452
f 1452 1484 1485
f 1517 1485 1484
f 1484 1516 1517
f 1549 1517 1516
f 1516 1548 1549
f 1581 1549 1548
f 1548 1580 1581
f 1613 1581 1580
f 1580 1612 1613
f 1645 1613 1612
f 1612 1644 1645
f 1677 1645 1644
f 1644 1676 1677
f 718 686 685
f 685 717 718
f 750 718 717
f 717 749 750
f 782 750 749
f 749 781 782
f 814 782 781
f 781 813 814
f 846 814 813
f 813 845 846
f 878 846 845
f 845 877 878
f 910 878 877
f 877 909 910
f 942 910 909
f 909 941 942
f 974 942 941
f 941 973 974
f 1006 974 973
f 973 1005 1006
f 1038 1006 1005
f 1005 1037 1038
f 1070 1038 1037
f 1037 1069 1070
f 1102 1070 1069
f 1069 1101 1102
f 1134 1102 1101
f 1101 1133 1134
f 1166 1134 1133
f 1133 1165 1166
f 1198 1166 1165
f 1165 1197 1198
f 1230 1198 1197
f 1197 1229 1230
f 1262 1230 1229
f 1229 1261 1262
f 1294 1262 1261
f 1261 1293 1294
f 1326 1294 1293
f 1293 1325 1326
f 1358 1326 1325
f 1325 1357 1358
f 1390 1358 1357
f 1357 1389 1390
f 1422 1390 1389
f 1389 1421 1422
f 1454 1422 1421
f 1421 1453 1454
f 1486 1454 1453
f 1453 1485 1486
f 1518 1486 1485
f 1485 1517 1518
f 1550 1518 1517
f 1517 1549 1550
f 1582 1550 1549
f 1549 1581 1582
f 1614 1582 1581
f 1581 1613 1614
f 1646 1614 1613
f 1613 1645 1646
f 1678 1646 1645
f 1645 1677 1678
f 719 687 686
f 686 718 719
f 751 719 718
f 718 750 751
f 783 751 750
f 750 782 783
f 815 783 782
f 782 814 815
f 847 815 814
f 814 846 847
f 879 847 846
f 846 878 879
f 911 879 878
f 878 910 911
f 943 911 910
f 910 942 943
f 975 943 942
f 942 974 975
f 1007 975 974
f 974 1006 1007
f 1039 1007 1006
f 1006 1038 1039
f 1071 1039 1038
f 1038 1070 1071
f 1103 1071 1070
f 1070 1102 1103
f 1135 1103 1102
f 1102 1134 1135
f 1167 1135 1134
f 1134 1166 1167
f 1199 1167 1166
f 1166 1198 1199
f 1231 1199 1198
f 1198 1230 1231
f 1263 1231 1230
f 1230 1262 1263
f 1295 1263 1262
f 1262 1294 1295
f 1327 1295 1294
f 1294 1326 1327
f 1359 1327 1326
f 1326 1358 1359
f 1391 1359 1358
f 1358 1390 1391
f 1423 1391 1390
f 1390 1422 1423
f 1455 1423 1422
f 1422 1454 1455
f 1487 1455 1454
f 1454 1486 1487
f 1519 1487 1486
f 1486 1518 1519
f 1551 1519 1518
f 1518 1550 1551
f 1583 1551 1550
f 1550 1582 1583
f 1615 1583 1582
f 1582 1614 1615
f 1647 1615 1614
f 1614 1646 1647
f 1679 1647 1646
f 1646 1678 1679
f 720 688 687
f 687 719 720
f 752 720 719
f 719 751 752
f 784 752 751
f 751 783 784
f 816 784 783
f 783 815 816
f 848 816 815
f 815 847 848
f 880 848 847
f 847 879 880
f 912 880 879
f 879 911 912
f 944 912 911
f 911 943 944
f 976 944 943
f 943 975 976
f 1008 976 975
f 975 1007 1008
f 1040 1008 1007
f 1007 1039 1040
f 1072 1040 1039
f 1039 1071 1072
f 1104 1072 1071
f 1071 1103 1104
f 1136 1104 1103
f 1103 1135 1136
f 1168 1136 1135
f 1135 1167 1168
f 1200 1168 1167
f 1167 1199 1200
f 1232 1200 1199
f 1199 1231 1232
f 1264 1232 1231
f 1231 1263 1264
f 1296 1264 1263
f 1263 1295 1296
f 1328 1296 1295
f 1295 1327 1328
f 1360 1328 1327
f 1327 1359 1360
f 1392 1360 1359
f 1359 1391 1392
f 1424 1392 1391
f 1391 1423 1424
f 1456 1424 1423
f 1423 1455 1456
f 1488 1456 1455
f 1455 1487 1488
f 1520 1488 1487
f 1487 1519 1520
f 1552 1520 1519
f 1519 1551 1552
f 1584 1552 1551
f 1551 1583 1584
f 1616 1584 1583
f 1583 1615 1616
f 1648 1616 1615
f 1615 1647 1648
f 1680 1648 1647
f 1647 1679 1680
f 721 689 688
f 688 720 721
f 753 721 720
f 720 752 753
f 785 753 752
f 752 784 785
f 817 785 784
f 784 816 817
f 849 817 816
f 816 848 849
f 881 849 848
f 848 880 881
f 913 881 880
f 880 912 913
f 945 913 912
f 912 944 945
f 977 945 944
f 944 976 977
f 1009 977 976
f 976 1008 1009
f 1041 1009 1008
f 1008 1040 1041
f 1073 1041 1040
f 1040 1072 1073
f 1105 1073 1072
f 1072 1104 1105
f 1137 1105 1104
f 1104 1136 1137
f 1169 1137 1136
f 1136 1168 1169
f 1201 1169 1168
f 1168 1200 1201
f 1233 1201 1200
f 1200 1232 1233
f 1265 1233 1232
f 1232 1264 1265
f 1297 1265 1264
f 1264 1296 1297
f 1329 1297 1296
f 1296 1328 1329
f 1361 1329 1328
f 1328 1360 1361
f 1393 1361 1360
f 1360 1392 1393
f 1425 1393 1392
f 1392 1424 1425
f 1457 1425 1424
f 1424 1456 1457
f 1489 1457 1456
f 1456 1488 1489
f 1521 1489 1488
f 1488 1520 1521
f 1553 1521 1520
f 1520 1552 1553
f 1585 1553 1552
f 1552 1584 1585
f 1617 1585 1584
f 1584 1616 1617
f 1649 1617 1616
f 1616 1648 1649
f 1681 1649 1648
f 1648 1680 1681
f 722 690 689
f 689 721 722
f 754 722 721
f 721 753 754
f 786 754 753
f 753 785 786
f 818 786 785
f 785 817 818
f 850 818 817
f 817 849 850
f 882 850 849
f 849 881 882
f 914 882 881
f 881 913 914
f 946 914 913
f 913 945 946
f 978 946 945
f 945 977 978
f 1010 978 977
f 977 1009 1010
f 1042 1010 1009
f 1009 1041 1042
f 1074 1042 1041
f 1041 1073 1074
f 1106 1074 1073
f 1073 1105 1106
f 1138 1106 1105
f 1105 1137 1138
f 1170 1138 1137
f 1137 1169 1170
f 1202 1170 1169
f 1169 1201 1202
f 1234 1202 1201
f 1201 1233 1234
f 1266 1234 1233
f 1233 1265 1266
f 1298 1266 1265
f 1265 1297 1298
f 1330 1298 1297
f 1297 1329 1330
f 1362 1330 1329
f 1329 1361 1362
f 1394 1362 1361
f 1361 1393 1394
f 1426 1394 1393
f 1393 1425 1426
f 1458 1426 1425
f 1425 1457 1458
f 1490 1458 1457
f 1457 1489 1490
f 1522 1490 1489
f 1489 1521 1522
f 1554 1522 1521
f 1521 1553 1554
f 1586 1554 1553
f 1553 1585 1586
f 1618 1586 1585
f 1585 1617 1618
f 1650 1618 1617
f 1617 1649 1650
f 1682 1650 1649
f 1649 1681 1682
f 723 691 690
f 690 722 723
f 755 723 722
f 722 754 755
f 787 755 754
f 754 786 787
f 819 787 786
f 786 818 819
f 851 819 818
f 818 850 851
f 883 851 850
f 850 882 883
f 915 883 882
f 882 914 915
f 947 915 914
f 914 946 947
f 979 947 946
f 946 978 979
f 1011 979 978
f 978 1010 1011
f 1043 1011 1010
f 1010 1042 1043
f 1075 1043 1042
f 1042 1074 1075
f 1107 1075 1074
f 1074 1106 1107
f 1139 1107 1106
f 1106 1138 1139
f 1171 1139 1138
f 1138 1170 1171
f 1203 1171 1170
f 1170 1202 1203
f 1235 1203 1202
f 1202 1234 1235
f 1267 1235 1234
f 1234 1266 1267
f 1299 1267 1266
f 1266 1298 1299
f 1331 1299 1298
f 1298 1330 1331
f 1363 1331 1330
f 1330 1362 1363
f 1395 1363 1362
f 1362 1394 1395
f 1427 1395 1394
f 1394 1426 1427
f 1459 1427 1426
f 1426 1458 1459
f 1491 1459 1458
f 1458 1490 1491
f 1523 1491 1490
f 1490 1522 1523
f 1555 1523 1522
f 1522 1554 1555
f 1587 1555 1554
f 1554 1586 1587
f 1619 1587 1586
f 1586 1618 1619
f 1651 1619 1618
f 1618 1650 1651
f 1683 1651 1650
f 1650 1682 1683
f 724 692 691
f 691 723 724
f 756 724 723
f 723 755 756
f 788 756 755
f 755 787 788
f 820 788 787
f 787 819 820
f 852 820 819
f 819 851 852
f 884 852 851
f 851 883 884
f 916 884 883
f 883 915 916
f 948 916 915
f 915 947 948
f 980 948 947
f 947 979 980
f 1012 980 979
f 979 1011 1012
f 1044 1012 1011
f 1011 1043 1044
f 1076 1044 1043
f 1043 1075 1076
f 1108 1076 1075
f 1075 1107 1108
f 1140 1108 1107
f 1107 1139 1140
f 1172 1140 1139
f 1139 1171 1172
f 1204 1172 1171
f 1171 1203 1204
f 1236 1204 1203
f 1203 1235 1236
f 1268 1236 1235
f 1235 1267 1268
f 1300 1268 1267
f 1267 1299 1300
f 1332 1300 1299
f 1299 1331 1332
f 1364 1332 1331
f 1331 1363 1364
f 1396 1364 1363
f 1363 1395 1396
f 1428 1396 1395
f 1395 1427 1428
f 1460 1428 1427
f 1427 1459 1460
f 1492 1460 1459
f 1459 1491 1492
f 1524 1492 1491
f 1491 1523 1524
f 1556 1524 1523
f 1523 1555 1556
f 1588 1556 1555
f 1555 1587 1588
f 1620 1588 1587
f 1587 1619 1620
f 1652 1620 1619
f 1619 1651 1652
f 1684 1652 1651
f 1651 1683 1684
f 725 693 692
f 692 724 725
f 757 725 724
f 724 756 757
f 789 757 756
f 756 788 789
f 821 789 788
f 788 820 821
f 853 821 820
f 820 852 853
f 885 853 852
f 852 884 885
f 917 885 884
f 884 916 917
f 949 917 916
f 916 948 949
f 981 949 948
f 948 980 981
f 1013 981 980
f 980 1012 1013
f 1045 1013 1012
f 1012 1044 1045
f 1077 1045 1044
f 1044 1076 1077
f 1109 1077 1076
f 1076 1108 1109
f 1141 1109 1108
f 1108 1140 1141
f 1173 1141 1140
f 1140 1172 1173
f 1205 1173 1172
f 1172 1204 1205
f 1237 1205 1204
f 1204 1236 1237
f 1269 1237 1236
f 1236 1268 1269
f 1301 1269 1268
f 1268 1300 1301
f 1333 1301 1300
f 1300 1332 1333
f 1365 1333 1332
f 1332 1364 1365
f 1397 1365 1364
f 1364 1396 1397
f 1429 1397 1396
f 1396 1428 1429
f 1461 1429 1428
f 1428 1460 1461
f 1493 1461 1460
f 1460 1492 1493
f 1525 1493 1492
f 1492 1524 1525
f 1557 1525 1524
f 1524 1556 1557
f 1589 1557 1556
f 1556 1588 1589
f 1621 1589 1588
f 1588 1620 1621
f 1653 1621 1620
f 1620 1652 1653
f 1685 1653 1652
f 1652 1684 1685
f 726 694 693
f 693 725 726
f 758 726 725
f 725 757 758
f 790 758 757
f 757 789 790
f 822 790 789
f 789 821 822
f 854 822 821
f 821 853 854
f 886 854 853
f 853 885 886
f 918 886 885
f 885 917 918
f 950 918 917
f 917 949 950
f 982 950 949
f 949 981 982
f 1014 982 981
f 981 1013 1014
f 1046 1014 1013
f 1013 1045 1046
f 1078 1046 1045
f 1045 1077 1078
f 1110 1078 1077
f 1077 1109 1110
f 1142 1110 1109
f 1109 1141 1142
f 1174 1142 1141
f 1141 1173 1174
f 1206 1174 1173
f 1173 1205 1206
f 1238 1206 1205
f 1205 1237 1238
f 1270 1238 1237
f 1237 1269 1270
f 1302 1270 1269
f 1269 1301 1302
f 1334 1302 1301
f 1301 1333 1334
f 1366 1334 1333
f 1333 1365 1366
f 1398 1366 1365
f 1365 1397 1398
f 1430 1398 1397
f 1397 1429 1430
f 1462 1430 1429
f 1429 1461 1462
f 1494 1462 1461
f 1461 1493 1494
f 1526 1494 1493
f 1493 1525 1526
f 1558 1526 1525
f 1525 1557 1558
f 1590 1558 1557
f 1557 1589 1590
f 1622 1590 1589
f 1589 1621 1622
f 1654 1622 1621
f 1621 1653 1654
f 1686 1654 1653
f 1653 1685 1686
f 727 695 694
f 694 726 727
f 759 727 726
f 726 758 759
f 791 759 758
f 758 790 791
f 823 791 790
f 790 822 823
f 855 823 822
f 822 854 855
f 887 855 854
f 854 886 887
f 919 887 886
f 886 918 919
f 951 919 918
f 918 950 951
f 983 951 950
f 950 982 983
f 1015 983 982
f 982 1014 1015
f 1047 1015 1014
f 1014 1046 1047
f 1079 1047 1046
f 1046 1078 1079
f 1111 1079 1078
f 1078 1110 1111
f 1143 1111 1110
f 1110 1142 1143
f 1175 1143 1142
f 1142 1174 1175
f 1207 1175 1174
f 1174 1206 1207
f 1239 1207 1206
f 1206 1238 1239
f 1271 1239 1238
f 1238 1270 1271
f 1303 1271 1270
f 1270 1302 1303
f 1335 1303 1302
f 1302 1334 1335
f 1367 1335 1334
f 1334 1366 1367
f 1399 1367 1366
f 1366 1398 1399
f 1431 1399 1398
f 1398 1430 1431
f 1463 1431 1430
f 1430 1462 1463
f 1495 1463 1462
f 1462 1494 1495
f 1527 1495 1494
f 1494 1526 1527
f 1559 1527 1526
f 1526 1558 1559
f 1591 1559 1558
f 1558 1590 1591
f 1623 1591 1590
f 1590 1622 1623
f 1655 1623 1622
f 1622 1654 1655
f 1687 1655 1654
f 1654 1686 1687
f 728 696 695
f 695 727 728
f 760 728 727
f 727 759 760
f 792 760 759
f 759 791 792
f 824 792 791
f 791 823 824
f 856 824 823
f 823 855 856
f 888 856 855
f 855 887 888
f 920 888 887
f 887 919 920
f 952 920 919
f 919 951 952
f 984 952 951
f 951 983 984
f 1016 984 983
f 983 1015 1016
f 1048 1016 1015
f 1015 1047 1048
f 1080 1048 1047
f 1047 1079 1080
f 1112 1080 1079
f 1079 1111 1112
f 1144 1112 1111
f 1111 1143 1144
f 1176 1144 1143
f 1143 1175 1176
f 1208 1176 1175
f 1175 1207 1208
f 1240 1208 1207
f 1207 1239 1240
f 1272 1240 1239
f 1239 1271 1272
f 1304 1272 1271
f 1271 1303 1304
f 1336 1304 1303
f 1303 1335 1336
f 1368 1336 1335
f 1335 1367 1368
f 1400 1368 1367
f 1367 1399 1400
f 1432 1400 1399
f 1399 1431 1432
f 1464 1432 1431
f 1431 1463 1464
f 1496 1464 1463
f 1463 1495 1496
f 1528 1496 1495
f 1495 1527 1528
f 1560 1528 1527
f 1527 1559 1560
f 1592 1560 1559
f 1559 1591 1592
f 1624 1592 1591
f 1591 1623 1624
f 1656 1624 1623
f 1623 1655 1656
f 1688 1656 1655
f 1655 1687 1688
