v -1831.89 9.0631 -1437.9
v -1831.95 9.21418 -1437.62
v -1832.26 9.21418 -1437.74
v -1832.24 9.0631 -1437.94
v -1832.58 9.21418 -1437.64
v -1832.6 9.0631 -1437.87
v -1832.1 9.24052 -1437.46
v -1832.21 9.27537 -1437.53
v -1832.33 9.24686 -1437.51
v -1832.11 9.27537 -1437.39
v -1832.24 9.30936 -1437.41
v -1832.4 9.27568 -1437.43
v -1832.14 9.24267 -1437.27
v -1832.25 9.27537 -1437.26
v -1832.32 9.2382 -1437.33
v -1831.95 9.21418 -1437.07
v -1832.24 9.24898 -1437.02
v -1832.55 9.21418 -1437.24
v -1831.79 9.0631 -1436.99
v -1832.24 9.0631 -1436.87
v -1832.77 9.0631 -1437.1
v -1831.79 9.0631 -1436.99
v -1831.89 9.0631 -1437.9
v -1832.24 9.0631 -1437.94
v -1832.77 9.0631 -1437.41
v -1832.62 9.21418 -1437.41
v -1831.85 9.24018 -1437.41
v -1831.7 9.0631 -1437.41
v -1831.7 9.0631 -1437.41
v -1832.77 9.0631 -1437.1
v -1832.6 9.0631 -1437.87
v -1832.24 9.0631 -1436.87
v -1832.77 9.0631 -1437.41
v -1832.77 9.0631 -1437.1
v -1832.6 9.0631 -1437.87
v -1832.77 9.0631 -1437.41
v -1832.16 9.3376 -1437.61
v -1832.34 9.31542 -1437.52
v -1832.35 9.2777 -1437.52
v -1832.16 9.28376 -1437.62
v -1832.34 9.25457 -1437.5
v -1832.13 9.24326 -1437.59
v -1832.32 9.25519 -1437.48
v -1832.12 9.24627 -1437.53
v -1832.33 9.29085 -1437.45
v -1832.12 9.2907 -1437.5
v -1832.32 9.32144 -1437.46
v -1832.11 9.34393 -1437.52
v -1832.31 9.33181 -1437.5
v -1832.16 9.35434 -1437.56
v -1832.34 9.31542 -1437.52
v -1832.16 9.3376 -1437.61
v -1832.53 9.31932 -1437.45
v -1832.54 9.27567 -1437.46
v -1832.52 9.24696 -1437.44
v -1832.51 9.2452 -1437.39
v -1832.49 9.2819 -1437.37
v -1832.51 9.32396 -1437.38
v -1832.51 9.34116 -1437.42
v -1832.53 9.31932 -1437.45
v -1832.16 9.28376 -1437.62
v -1832.16 9.28882 -1437.55
v -1832.16 9.3376 -1437.61
v -1832.13 9.24326 -1437.59
v -1832.12 9.24627 -1437.53
v -1832.12 9.2907 -1437.5
v -1832.11 9.34393 -1437.52
v -1832.16 9.35434 -1437.56
v -1832.53 9.31932 -1437.45
v -1832.53 9.28893 -1437.41
v -1832.54 9.27567 -1437.46
v -1832.52 9.24696 -1437.44
v -1832.51 9.2452 -1437.39
v -1832.49 9.2819 -1437.37
v -1832.51 9.32396 -1437.38
v -1832.51 9.34116 -1437.42
v -1832.24 9.33045 -1437.11
v -1832.32 9.36826 -1437.28
v -1832.3 9.38092 -1437.31
v -1832.19 9.34563 -1437.13
v -1832.27 9.36114 -1437.32
v -1832.15 9.31445 -1437.15
v -1832.27 9.32848 -1437.32
v -1832.15 9.26329 -1437.17
v -1832.31 9.3051 -1437.33
v -1832.2 9.22911 -1437.17
v -1832.33 9.30702 -1437.31
v -1832.23 9.2305 -1437.12
v -1832.33 9.33165 -1437.27
v -1832.26 9.28417 -1437.12
v -1832.32 9.36826 -1437.28
v -1832.24 9.33045 -1437.11
v -1832.44 9.42403 -1437.45
v -1832.4 9.438 -1437.47
v -1832.37 9.421 -1437.48
v -1832.37 9.37348 -1437.51
v -1832.4 9.33858 -1437.48
v -1832.44 9.34731 -1437.47
v -1832.45 9.38065 -1437.44
v -1832.44 9.42403 -1437.45
v -1832.19 9.34563 -1437.13
v -1832.21 9.29366 -1437.17
v -1832.24 9.33045 -1437.11
v -1832.15 9.31445 -1437.15
v -1832.15 9.26329 -1437.17
v -1832.2 9.22911 -1437.17
v -1832.23 9.2305 -1437.12
v -1832.26 9.28417 -1437.12
v -1832.44 9.42403 -1437.45
v -1832.42 9.39213 -1437.48
v -1832.4 9.438 -1437.47
v -1832.37 9.421 -1437.48
v -1832.37 9.37348 -1437.51
v -1832.4 9.33858 -1437.48
v -1832.44 9.34731 -1437.47
v -1832.45 9.38065 -1437.44
v -1832.33 9.549 -1437.27
v -1832.23 9.41466 -1437.35
v -1832.23 9.37731 -1437.34
v -1832.36 9.51279 -1437.23
v -1832.26 9.36014 -1437.35
v -1832.41 9.48632 -1437.24
v -1832.29 9.36565 -1437.37
v -1832.44 9.48232 -1437.29
v -1832.27 9.38095 -1437.41
v -1832.42 9.50767 -1437.34
v -1832.25 9.40993 -1437.41
v -1832.4 9.5611 -1437.34
v -1832.24 9.43348 -1437.38
v -1832.35 9.55321 -1437.32
v -1832.23 9.41466 -1437.35
v -1832.33 9.549 -1437.27
v -1832.08 9.28969 -1437.44
v -1832.1 9.2562 -1437.42
v -1832.13 9.24032 -1437.42
v -1832.15 9.22683 -1437.47
v -1832.16 9.26552 -1437.5
v -1832.12 9.28969 -1437.51
v -1832.1 9.31211 -1437.48
v -1832.08 9.28969 -1437.44
v -1832.36 9.51279 -1437.23
v -1832.37 9.4972 -1437.31
v -1832.33 9.549 -1437.27
v -1832.41 9.48632 -1437.24
v -1832.44 9.48232 -1437.29
v -1832.42 9.50767 -1437.34
v -1832.4 9.5611 -1437.34
v -1832.35 9.55321 -1437.32
v -1832.08 9.28969 -1437.44
v -1832.11 9.25685 -1437.47
v -1832.1 9.2562 -1437.42
v -1832.13 9.24032 -1437.42
v -1832.15 9.22683 -1437.47
v -1832.16 9.26552 -1437.5
v -1832.12 9.28969 -1437.51
v -1832.1 9.31211 -1437.48
v -1831.96 9.31976 -1437.25
v -1832.03 9.31081 -1437.43
v -1832 9.31494 -1437.46
v -1831.9 9.32916 -1437.27
v -1831.98 9.29127 -1437.47
v -1831.86 9.29266 -1437.28
v -1831.98 9.25965 -1437.46
v -1831.87 9.23803 -1437.28
v -1832.02 9.2364 -1437.46
v -1831.91 9.20626 -1437.28
v -1832.04 9.2451 -1437.44
v -1831.95 9.22054 -1437.23
v -1832.04 9.27796 -1437.41
v -1831.98 9.27136 -1437.25
v -1832.03 9.31081 -1437.43
v -1831.96 9.31976 -1437.25
v -1832.14 9.32027 -1437.61
v -1832.1 9.32803 -1437.63
v -1832.07 9.3085 -1437.63
v -1832.07 9.25469 -1437.65
v -1832.1 9.22831 -1437.62
v -1832.14 9.24061 -1437.61
v -1832.15 9.28106 -1437.59
v -1832.14 9.32027 -1437.61
v -1831.9 9.32916 -1437.27
v -1831.94 9.26317 -1437.31
v -1831.96 9.31976 -1437.25
v -1831.86 9.29266 -1437.28
v -1831.87 9.23803 -1437.28
v -1831.91 9.20626 -1437.28
v -1831.95 9.22054 -1437.23
v -1831.98 9.27136 -1437.25
v -1832.14 9.32027 -1437.61
v -1832.12 9.27919 -1437.64
v -1832.1 9.32803 -1437.63
v -1832.07 9.3085 -1437.63
v -1832.07 9.25469 -1437.65
v -1832.1 9.22831 -1437.62
v -1832.14 9.24061 -1437.61
v -1832.15 9.28106 -1437.59
v -1832.14 9.32362 -1437.16
v -1832.08 9.36216 -1437.34
v -1832.04 9.36945 -1437.34
v -1832.09 9.33056 -1437.13
v -1832.01 9.3459 -1437.34
v -1832.05 9.29271 -1437.12
v -1832.02 9.31284 -1437.33
v -1832.05 9.24168 -1437.14
v -1832.04 9.29505 -1437.37
v -1832.08 9.21422 -1437.18
v -1832.08 9.30149 -1437.36
v -1832.14 9.22337 -1437.17
v -1832.09 9.32747 -1437.34
v -1832.15 9.27969 -1437.18
v -1832.08 9.36216 -1437.34
v -1832.14 9.32362 -1437.16
v -1832.04 9.42317 -1437.53
v -1832 9.4306 -1437.52
v -1831.97 9.40884 -1437.51
v -1831.96 9.36094 -1437.54
v -1832 9.33095 -1437.54
v -1832.04 9.34647 -1437.56
v -1832.06 9.3825 -1437.54
v -1832.04 9.42317 -1437.53
v -1832.09 9.33056 -1437.13
v -1832.09 9.28091 -1437.18
v -1832.14 9.32362 -1437.16
v -1832.05 9.29271 -1437.12
v -1832.05 9.24168 -1437.14
v -1832.08 9.21422 -1437.18
v -1832.14 9.22337 -1437.17
v -1832.15 9.27969 -1437.18
v -1832.04 9.42317 -1437.53
v -1832 9.38659 -1437.55
v -1832 9.4306 -1437.52
v -1831.97 9.40884 -1437.51
v -1831.96 9.36094 -1437.54
v -1832 9.33095 -1437.54
v -1832.04 9.34647 -1437.56
v -1832.06 9.3825 -1437.54
v -1832.2 4.8069 -1437.42
v -1832.2 7.80768 -1437.42
v -1832.2 8.69763 -1437.56
v -1832.24 8.70804 -1438.33
v -1832.25 4.8069 -1438.42
v -1832.28 8.83927 -1438.22
v -1832.2 8.90523 -1437.51
v -1833.19 9.00418 -1437.37
v -1832.5 6.52667 -1437.4
v -1833.19 6.00542 -1437.37
v -1832.65 5.98865 -1437.39
v -1833.02 5.34459 -1437.38
v -1832.59 5.39172 -1437.4
v -1832.63 4.8069 -1437.4
v -1832.99 4.8069 -1437.38
v -1833.2 4.8069 -1437.52
v -1833.25 4.8069 -1438.37
v -1833.21 5.34452 -1437.63
v -1833.25 8.79202 -1438.37
v -1833.19 6.00542 -1437.37
v -1833.19 9.00418 -1437.37
v -1833.21 5.34452 -1437.63
v -1833.19 6.00542 -1437.37
v -1833.02 5.34459 -1437.38
v -1832.2 8.69763 -1437.56
v -1832.25 8.78979 -1437.42
v -1832.2 8.90523 -1437.51
v -1832.26 8.90523 -1437.41
v -1832.31 8.47847 -1437.41
v -1832.2 7.80768 -1437.42
v -1832.5 8.24095 -1438.4
v -1832.25 4.8069 -1438.42
v -1832.24 8.70804 -1438.33
v -1833.2 4.8069 -1437.52
v -1832.99 4.8069 -1437.38
v -1833.25 8.79202 -1438.37
v -1833.25 4.8069 -1438.37
v -1833.04 8.94192 -1438.38
v -1832.81 8.71168 -1438.39
v -1832.74 8.40322 -1438.39
v -1832.44 9.00418 -1438.11
v -1832.53 9.09865 -1438.12
v -1832.39 8.9997 -1437.54
v -1832.74 9.09865 -1437.86
v -1832.39 8.9997 -1437.54
v -1832.73 8.92393 -1438.3
v -1832.5 8.24095 -1438.4
v -1832.24 8.70804 -1438.33
v -1832.44 9.00418 -1438.11
v -1832.73 8.92393 -1438.3
v -1832.74 8.40322 -1438.39
v -1832.81 8.71168 -1438.39
v -1832.28 8.83927 -1438.22
v -1832.54 5.4269 -1437.45
v -1832.53 4.8069 -1437.45
v -1832.59 5.39172 -1437.4
v -1832.63 4.8069 -1437.4
v -1832.65 5.98865 -1437.39
v -1832.61 5.94572 -1437.44
v -1832.5 6.52667 -1437.4
v -1832.56 6.0069 -1437.4
v -1832.61 5.94572 -1437.44
v -1832.5 6.52667 -1437.4
v -1832.45 5.37256 -1437.41
v -1832.54 5.4269 -1437.45
v -1832.53 4.8069 -1437.45
v -1832.38 4.8069 -1437.41
v -1832.2 4.8069 -1437.42
v -1832.45 5.37256 -1437.41
v -1832.56 6.0069 -1437.4
v -1832.2 7.80768 -1437.42
v -1832.38 4.8069 -1437.41
v -1832.31 8.47847 -1437.41
v -1832.25 8.78979 -1437.42
v -1832.26 8.90523 -1437.41
v -1833.1 9.03639 -1438.22
v -1833.06 9.09865 -1437.5
v -1832.74 9.09865 -1437.86
v -1833.1 9.03639 -1438.22
v -1832.53 9.09865 -1438.12
v -1831.18 4.91674 -1437.49
v -1831.18 7.91751 -1437.49
v -1831.19 8.80747 -1437.63
v -1831.25 8.81788 -1438.39
v -1831.26 4.91674 -1438.48
v -1831.29 8.94911 -1438.29
v -1831.18 9.01507 -1437.58
v -1832.17 9.11402 -1437.41
v -1831.48 6.6365 -1437.46
v -1832.17 6.11526 -1437.41
v -1831.63 6.09849 -1437.45
v -1832 5.45443 -1437.42
v -1831.57 5.50156 -1437.46
v -1831.61 4.91674 -1437.45
v -1831.97 4.91674 -1437.42
v -1832.18 4.91674 -1437.56
v -1832.25 4.91674 -1438.4
v -1832.19 5.45436 -1437.67
v -1832.25 8.90186 -1438.4
v -1832.17 6.11526 -1437.41
v -1832.17 9.11402 -1437.41
v -1832.19 5.45436 -1437.67
v -1832.17 6.11526 -1437.41
v -1832 5.45443 -1437.42
v -1831.19 8.80747 -1437.63
v -1831.23 8.89963 -1437.48
v -1831.18 9.01507 -1437.58
v -1831.24 9.01507 -1437.48
v -1831.29 8.58831 -1437.48
v -1831.18 7.91751 -1437.49
v -1831.51 8.35079 -1438.46
v -1831.26 4.91674 -1438.48
v -1831.25 8.81788 -1438.39
v -1832.18 4.91674 -1437.56
v -1831.97 4.91674 -1437.42
v -1832.25 8.90186 -1438.4
v -1832.25 4.91674 -1438.4
v -1832.05 9.05176 -1438.42
v -1831.82 8.82152 -1438.44
v -1831.74 8.51306 -1438.45
v -1831.44 9.11402 -1438.18
v -1831.53 9.20849 -1438.18
v -1831.37 9.10954 -1437.6
v -1831.73 9.20849 -1437.91
v -1831.37 9.10954 -1437.6
v -1831.74 9.03377 -1438.36
v -1831.51 8.35079 -1438.46
v -1831.25 8.81788 -1438.39
v -1831.44 9.11402 -1438.18
v -1831.74 9.03377 -1438.36
v -1831.74 8.51306 -1438.45
v -1831.82 8.82152 -1438.44
v -1831.29 8.94911 -1438.29
v -1831.52 5.53674 -1437.51
v -1831.51 4.91674 -1437.51
v -1831.57 5.50156 -1437.46
v -1831.61 4.91674 -1437.45
v -1831.63 6.09849 -1437.45
v -1831.59 6.05556 -1437.5
v -1831.48 6.6365 -1437.46
v -1831.54 6.11674 -1437.46
v -1831.59 6.05556 -1437.5
v -1831.48 6.6365 -1437.46
v -1831.42 5.48239 -1437.47
v -1831.52 5.53674 -1437.51
v -1831.51 4.91674 -1437.51
v -1831.36 4.91674 -1437.47
v -1831.18 4.91674 -1437.49
v -1831.42 5.48239 -1437.47
v -1831.54 6.11674 -1437.46
v -1831.18 7.91751 -1437.49
v -1831.36 4.91674 -1437.47
v -1831.29 8.58831 -1437.48
v -1831.23 8.89963 -1437.48
v -1831.24 9.01507 -1437.48
v -1832.1 9.14623 -1438.26
v -1832.05 9.20849 -1437.55
v -1831.73 9.20849 -1437.91
v -1832.1 9.14623 -1438.26
v -1831.53 9.20849 -1438.18
v -1833.19 4.95204 -1437.39
v -1833.19 7.95282 -1437.39
v -1833.18 8.84278 -1437.25
v -1833.12 8.85319 -1436.48
v -1833.11 4.95204 -1436.39
v -1833.08 8.98442 -1436.59
v -1833.18 9.05037 -1437.29
v -1832.2 9.14932 -1437.47
v -1832.89 6.67181 -1437.41
v -1832.2 6.15057 -1437.47
v -1832.74 6.1338 -1437.43
v -1832.37 5.48974 -1437.46
v -1832.8 5.53687 -1437.42
v -1832.76 4.95204 -1437.43
v -1832.4 4.95204 -1437.45
v -1832.18 4.95204 -1437.32
v -1832.12 4.95204 -1436.47
v -1832.17 5.48967 -1437.21
v -1832.12 8.93716 -1436.47
v -1832.2 6.15057 -1437.47
v -1832.2 9.14932 -1437.47
v -1832.17 5.48967 -1437.21
v -1832.2 6.15057 -1437.47
v -1832.37 5.48974 -1437.46
v -1833.18 8.84278 -1437.25
v -1833.14 8.93493 -1437.39
v -1833.18 9.05037 -1437.29
v -1833.13 9.05037 -1437.4
v -1833.08 8.62362 -1437.4
v -1833.19 7.95282 -1437.39
v -1832.86 8.3861 -1436.41
v -1833.11 4.95204 -1436.39
v -1833.12 8.85319 -1436.48
v -1832.18 4.95204 -1437.32
v -1832.4 4.95204 -1437.45
v -1832.12 8.93716 -1436.47
v -1832.12 4.95204 -1436.47
v -1832.32 9.08707 -1436.46
v -1832.55 8.85682 -1436.44
v -1832.62 8.54836 -1436.43
v -1832.93 9.14932 -1436.7
v -1832.84 9.24379 -1436.7
v -1832.99 9.14484 -1437.28
v -1832.64 9.24379 -1436.96
v -1832.99 9.14484 -1437.28
v -1832.63 9.06908 -1436.52
v -1832.86 8.3861 -1436.41
v -1833.12 8.85319 -1436.48
v -1832.93 9.14932 -1436.7
v -1832.63 9.06908 -1436.52
v -1832.62 8.54836 -1436.43
v -1832.55 8.85682 -1436.44
v -1833.08 8.98442 -1436.59
v -1832.85 5.57205 -1437.37
v -1832.85 4.95204 -1437.37
v -1832.8 5.53687 -1437.42
v -1832.76 4.95204 -1437.43
v -1832.74 6.1338 -1437.43
v -1832.78 6.09087 -1437.38
v -1832.89 6.67181 -1437.41
v -1832.83 6.15205 -1437.42
v -1832.78 6.09087 -1437.38
v -1832.89 6.67181 -1437.41
v -1832.94 5.5177 -1437.41
v -1832.85 5.57205 -1437.37
v -1832.85 4.95204 -1437.37
v -1833.01 4.95204 -1437.4
v -1833.19 4.95204 -1437.39
v -1832.94 5.5177 -1437.41
v -1832.83 6.15205 -1437.42
v -1833.19 7.95282 -1437.39
v -1833.01 4.95204 -1437.4
v -1833.08 8.62362 -1437.4
v -1833.14 8.93493 -1437.39
v -1833.13 9.05037 -1437.4
v -1832.27 9.18154 -1436.62
v -1832.32 9.24379 -1437.33
v -1832.64 9.24379 -1436.96
v -1832.27 9.18154 -1436.62
v -1832.84 9.24379 -1436.7
v -1832.12 4.88981 -1436.44
v -1832.12 7.89059 -1436.44
v -1831.98 8.78055 -1436.44
v -1831.21 8.79096 -1436.49
v -1831.12 4.88981 -1436.5
v -1831.31 8.92219 -1436.53
v -1832.02 8.98814 -1436.44
v -1832.18 9.0871 -1437.43
v -1832.13 6.60958 -1436.74
v -1832.18 6.08834 -1437.43
v -1832.14 6.07157 -1436.89
v -1832.16 5.42751 -1437.26
v -1832.14 5.47464 -1436.83
v -1832.14 4.88981 -1436.87
v -1832.16 4.88981 -1437.23
v -1832.02 4.88981 -1437.44
v -1831.18 4.88981 -1437.49
v -1831.92 5.42744 -1437.45
v -1831.18 8.87493 -1437.49
v -1832.18 6.08834 -1437.43
v -1832.18 9.0871 -1437.43
v -1831.92 5.42744 -1437.45
v -1832.18 6.08834 -1437.43
v -1832.16 5.42751 -1437.26
v -1831.98 8.78055 -1436.44
v -1832.12 8.87271 -1436.49
v -1832.02 8.98814 -1436.44
v -1832.12 8.98814 -1436.5
v -1832.12 8.56139 -1436.55
v -1832.12 7.89059 -1436.44
v -1831.13 8.32387 -1436.75
v -1831.12 4.88981 -1436.5
v -1831.21 8.79096 -1436.49
v -1832.02 4.88981 -1437.44
v -1832.16 4.88981 -1437.23
v -1831.18 8.87493 -1437.49
v -1831.18 4.88981 -1437.49
v -1831.16 9.02484 -1437.29
v -1831.15 8.79459 -1437.06
v -1831.15 8.48613 -1436.99
v -1831.42 9.0871 -1436.69
v -1831.42 9.18156 -1436.77
v -1832 9.08261 -1436.63
v -1831.68 9.18156 -1436.98
v -1832 9.08261 -1436.63
v -1831.23 9.00685 -1436.98
v -1831.13 8.32387 -1436.75
v -1831.21 8.79096 -1436.49
v -1831.42 9.0871 -1436.69
v -1831.23 9.00685 -1436.98
v -1831.15 8.48613 -1436.99
v -1831.15 8.79459 -1437.06
v -1831.31 8.92219 -1436.53
v -1832.09 5.50982 -1436.78
v -1832.09 4.88981 -1436.77
v -1832.14 5.47464 -1436.83
v -1832.14 4.88981 -1436.87
v -1832.14 6.07157 -1436.89
v -1832.09 6.02864 -1436.85
v -1832.13 6.60958 -1436.74
v -1832.14 6.08982 -1436.8
v -1832.09 6.02864 -1436.85
v -1832.13 6.60958 -1436.74
v -1832.13 5.45547 -1436.69
v -1832.09 5.50982 -1436.78
v -1832.09 4.88981 -1436.77
v -1832.13 4.88981 -1436.62
v -1832.12 4.88981 -1436.44
v -1832.13 5.45547 -1436.69
v -1832.14 6.08982 -1436.8
v -1832.12 7.89059 -1436.44
v -1832.13 4.88981 -1436.62
v -1832.12 8.56139 -1436.55
v -1832.12 8.87271 -1436.49
v -1832.12 8.98814 -1436.5
v -1831.32 9.11931 -1437.35
v -1832.04 9.18156 -1437.3
v -1831.68 9.18156 -1436.98
v -1831.32 9.11931 -1437.35
v -1831.42 9.18156 -1436.77
v -1828.69 7.70785 -1442.87
v -1828.69 8.32864 -1442.87
v -1827.69 7.70785 -1442.89
v -1827.69 10.0041 -1442.89
v -1828.69 10.7086 -1442.87
v -1827.74 11.2065 -1442.89
v -1828.6 11.6975 -1442.87
v -1827.78 11.609 -1442.89
v -1827.81 11.9996 -1442.88
v -1828.59 11.9996 -1442.87
v -1827.85 11.9996 -1443.01
v -1827.83 11.6179 -1442.95
v -1827.81 11.9996 -1442.88
v -1827.78 11.609 -1442.89
v -1828.58 8.24547 -1443.87
v -1828.71 9.24065 -1443.87
v -1828.71 8.24554 -1443.8
v -1828.6 11.6975 -1442.87
v -1828.69 11.7897 -1442.92
v -1828.59 11.9996 -1442.87
v -1828.69 11.9996 -1442.93
v -1828.69 11.4784 -1442.93
v -1828.69 10.7086 -1442.87
v -1827.74 11.2065 -1442.89
v -1827.74 11.2646 -1442.94
v -1827.69 10.0041 -1442.89
v -1827.69 11.1419 -1443.14
v -1828.62 7.70785 -1443.87
v -1828.71 7.70785 -1443.77
v -1827.85 11.9996 -1443.01
v -1827.81 11.9996 -1442.88
v -1828.14 11.9996 -1443.24
v -1827.7 11.3042 -1443.38
v -1827.69 11.1419 -1443.14
v -1827.74 11.2646 -1442.94
v -1828.65 8.32785 -1443.21
v -1828.65 7.70785 -1443.2
v -1828.7 8.29267 -1443.26
v -1828.7 7.70785 -1443.3
v -1828.7 8.8896 -1443.32
v -1828.65 8.84667 -1443.28
v -1828.69 9.42761 -1443.17
v -1828.7 8.90785 -1443.23
v -1828.65 8.84667 -1443.28
v -1828.69 9.42761 -1443.17
v -1828.69 8.2735 -1443.12
v -1828.65 8.32785 -1443.21
v -1828.65 7.70785 -1443.2
v -1828.69 7.70785 -1443.05
v -1828.69 10.7086 -1442.87
v -1828.69 8.32864 -1442.87
v -1828.69 9.42761 -1443.17
v -1828.7 8.90785 -1443.23
v -1828.69 8.2735 -1443.12
v -1828.69 7.70785 -1442.87
v -1828.69 7.70785 -1443.05
v -1828.7 10.2837 -1443.4
v -1828.69 9.42761 -1443.17
v -1828.71 9.63019 -1443.87
v -1828.71 9.24065 -1443.87
v -1828.7 8.8896 -1443.32
v -1828.71 8.24554 -1443.8
v -1828.7 8.29267 -1443.26
v -1828.7 7.70785 -1443.3
v -1828.71 7.70785 -1443.77
v -1828.7 10.2837 -1443.4
v -1828.69 10.5109 -1443.17
v -1828.69 9.42761 -1443.17
v -1828.69 10.7086 -1442.87
v -1828.69 11.4784 -1442.93
v -1828.69 10.9909 -1443.11
v -1827.99 8.08824 -1443.88
v -1828.58 8.24547 -1443.87
v -1828.62 7.70785 -1443.87
v -1827.84 8.84866 -1443.88
v -1828.71 9.24065 -1443.87
v -1827.91 9.41802 -1443.88
v -1828.71 9.63019 -1443.87
v -1828.54 10.0376 -1443.87
v -1827.71 10.2709 -1443.89
v -1828.39 10.7159 -1443.87
v -1828.15 10.9736 -1443.88
v -1827.71 11.4659 -1443.89
v -1827.86 11.4878 -1443.88
v -1827.71 11.4659 -1443.89
v -1827.71 10.2709 -1443.89
v -1827.7 11.3042 -1443.38
v -1827.7 9.41719 -1443.67
v -1827.69 7.70785 -1442.89
v -1827.71 8.88045 -1443.76
v -1827.71 8.66038 -1443.75
v -1827.7 8.03992 -1443.57
v -1827.7 9.41719 -1443.67
v -1827.71 10.2709 -1443.89
v -1827.91 9.41802 -1443.88
v -1827.71 8.88045 -1443.76
v -1827.84 8.84866 -1443.88
v -1827.71 8.66038 -1443.75
v -1827.99 8.08824 -1443.88
v -1827.7 8.03992 -1443.57
v -1828.14 11.9996 -1443.24
v -1828.69 11.9996 -1442.93
v -1828.27 11.4381 -1443.39
v -1828.69 11.7897 -1442.92
v -1828.69 11.4784 -1442.93
v -1828.71 9.63019 -1443.87
v -1828.54 10.0376 -1443.87
v -1828.44 10.7274 -1443.52
v -1828.39 10.7159 -1443.87
v -1828.7 10.2837 -1443.4
v -1828.69 10.5109 -1443.17
v -1828.15 10.9736 -1443.88
v -1828.69 10.9909 -1443.11
v -1827.86 11.4878 -1443.88
v -1828.69 11.9996 -1442.93
v -1828.14 11.9996 -1443.24
v -1828.59 11.9996 -1442.87
v -1827.81 11.9996 -1442.88
v -1827.87 11.9996 -1443.13
v -1827.85 11.9996 -1443.01
v -1828.14 11.9996 -1443.24
v -1827.83 11.6179 -1442.95
v -1827.87 11.9996 -1443.13
v -1827.97 11.6202 -1443.38
v -1827.83 11.672 -1443.22
v -1827.85 11.9996 -1443.01
v -1827.83 11.672 -1443.22
v -1827.87 11.9996 -1443.13
v -1827.78 11.5056 -1443.5
v -1827.78 11.5056 -1443.5
v -1827.92 11.5406 -1443.61
v -1828.14 11.9996 -1443.24
v -1827.71 11.4659 -1443.89
v -1827.71 11.4659 -1443.89
v -1827.86 11.4878 -1443.88
v -1828.12 7.71963 -1444.38
v -1828.22 7.99955 -1444.4
v -1828.74 7.69473 -1444.24
v -1828.4 8.03085 -1444.35
v -1828.18 7.72515 -1444.02
v -1828.22 7.99955 -1444.4
v -1828.12 7.71963 -1444.38
v -1828.4 8.03085 -1444.35
v -1828.49 7.70785 -1444.01
v -1828.74 7.69473 -1444.24
v -1828.49 7.70785 -1444.01
v -1828.4 8.03085 -1444.35
v -1828.18 7.72515 -1444.02
v -1828.22 7.99955 -1444.4
v -1828.65 7.73583 -1443.97
v -1828.96 7.90993 -1444.02
v -1829.16 7.70785 -1444.09
v -1829.19 8.20814 -1444.09
v -1829.16 7.70785 -1444.09
v -1829.3 8.42467 -1443.66
v -1829.38 7.69523 -1443.18
v -1829.19 8.20814 -1444.09
v -1829.34 8.24914 -1443.47
v -1829.38 7.69523 -1443.18
v -1829.34 8.24914 -1443.47
v -1829.16 7.98426 -1443.45
v -1828.96 7.90993 -1444.02
v -1829.07 7.98855 -1443.73
v -1829.19 8.20814 -1444.09
v -1829.3 8.42467 -1443.66
v -1828.65 7.73583 -1443.97
v -1828.74 7.73048 -1443.86
v -1828.96 7.90993 -1444.02
v -1829.07 7.98855 -1443.73
v -1829.18 7.70615 -1443.12
v -1829.16 7.98426 -1443.45
v -1829.38 7.69523 -1443.18
v -1827.69 7.70785 -1442.89
v -1827.7 8.03992 -1443.57
v -1827.41 7.70785 -1443.28
v -1827.21 7.70785 -1443.75
v -1827.37 7.70785 -1444.14
v -1827.77 7.70785 -1444.13
v -1827.99 8.08824 -1443.88
v -1827.89 7.70785 -1444.36
v -1828.62 7.70785 -1443.87
v -1828.81 8.36145 -1432.17
v -1828.81 11.3622 -1432.17
v -1828.8 12.2522 -1432.03
v -1828.74 12.2626 -1431.27
v -1828.74 8.36145 -1431.17
v -1828.7 12.3938 -1431.37
v -1828.8 12.4598 -1432.08
v -1827.81 12.5587 -1432.24
v -1828.5 10.0812 -1432.19
v -1827.81 9.55998 -1432.24
v -1828.35 9.5432 -1432.2
v -1827.98 8.89914 -1432.23
v -1828.42 8.94628 -1432.2
v -1828.37 8.36145 -1432.2
v -1828.01 8.36145 -1432.23
v -1827.8 8.36145 -1432.09
v -1827.74 8.36145 -1431.24
v -1827.79 8.89907 -1431.98
v -1827.74 12.3466 -1431.24
v -1827.81 9.55998 -1432.24
v -1827.81 12.5587 -1432.24
v -1827.79 8.89907 -1431.98
v -1827.81 9.55998 -1432.24
v -1827.98 8.89914 -1432.23
v -1828.8 12.2522 -1432.03
v -1828.75 12.3443 -1432.18
v -1828.8 12.4598 -1432.08
v -1828.75 12.4598 -1432.18
v -1828.69 12.033 -1432.18
v -1828.81 11.3622 -1432.17
v -1828.48 11.7955 -1431.19
v -1828.74 8.36145 -1431.17
v -1828.74 12.2626 -1431.27
v -1827.8 8.36145 -1432.09
v -1828.01 8.36145 -1432.23
v -1827.74 12.3466 -1431.24
v -1827.74 8.36145 -1431.24
v -1827.94 12.4965 -1431.23
v -1828.17 12.2662 -1431.21
v -1828.25 11.9578 -1431.21
v -1828.55 12.5587 -1431.48
v -1828.46 12.6532 -1431.48
v -1828.61 12.5542 -1432.06
v -1828.26 12.6532 -1431.74
v -1828.61 12.5542 -1432.06
v -1828.25 12.4785 -1431.3
v -1828.48 11.7955 -1431.19
v -1828.74 12.2626 -1431.27
v -1828.55 12.5587 -1431.48
v -1828.25 12.4785 -1431.3
v -1828.25 11.9578 -1431.21
v -1828.17 12.2662 -1431.21
v -1828.7 12.3938 -1431.37
v -1828.46 8.98145 -1432.15
v -1828.47 8.36145 -1432.15
v -1828.42 8.94628 -1432.2
v -1828.37 8.36145 -1432.2
v -1828.35 9.5432 -1432.2
v -1828.39 9.50027 -1432.15
v -1828.5 10.0812 -1432.19
v -1828.44 9.56145 -1432.2
v -1828.39 9.50027 -1432.15
v -1828.5 10.0812 -1432.19
v -1828.56 8.92711 -1432.19
v -1828.46 8.98145 -1432.15
v -1828.47 8.36145 -1432.15
v -1828.63 8.36145 -1432.18
v -1828.81 8.36145 -1432.17
v -1828.56 8.92711 -1432.19
v -1828.44 9.56145 -1432.2
v -1828.81 11.3622 -1432.17
v -1828.63 8.36145 -1432.18
v -1828.69 12.033 -1432.18
v -1828.75 12.3443 -1432.18
v -1828.75 12.4598 -1432.18
v -1827.89 12.5909 -1431.39
v -1827.94 12.6532 -1432.1
v -1828.26 12.6532 -1431.74
v -1827.89 12.5909 -1431.39
v -1828.46 12.6532 -1431.48
v -1835.57 8.06388 -1430.16
v -1835.57 11.0647 -1430.16
v -1835.57 11.9546 -1430.29
v -1835.61 11.965 -1431.06
v -1835.61 8.06388 -1431.15
v -1835.65 12.0963 -1430.96
v -1835.57 12.1622 -1430.25
v -1836.57 12.2612 -1430.11
v -1835.87 9.78365 -1430.14
v -1836.57 9.26241 -1430.11
v -1836.02 9.24563 -1430.14
v -1836.39 8.60157 -1430.12
v -1835.96 8.64871 -1430.14
v -1836 8.06388 -1430.14
v -1836.36 8.06388 -1430.12
v -1836.57 8.06388 -1430.26
v -1836.61 8.06388 -1431.11
v -1836.58 8.6015 -1430.37
v -1836.61 12.049 -1431.11
v -1836.57 9.26241 -1430.11
v -1836.57 12.2612 -1430.11
v -1836.58 8.6015 -1430.37
v -1836.57 9.26241 -1430.11
v -1836.39 8.60157 -1430.12
v -1835.57 11.9546 -1430.29
v -1835.62 12.0468 -1430.15
v -1835.57 12.1622 -1430.25
v -1835.63 12.1622 -1430.15
v -1835.68 11.7355 -1430.15
v -1835.57 11.0647 -1430.16
v -1835.86 11.4979 -1431.14
v -1835.61 8.06388 -1431.15
v -1835.61 11.965 -1431.06
v -1836.57 8.06388 -1430.26
v -1836.36 8.06388 -1430.12
v -1836.61 12.049 -1431.11
v -1836.61 8.06388 -1431.11
v -1836.4 12.1989 -1431.12
v -1836.17 11.9687 -1431.13
v -1836.1 11.6602 -1431.13
v -1835.8 12.2612 -1430.85
v -1835.89 12.3556 -1430.86
v -1835.76 12.2567 -1430.28
v -1836.11 12.3556 -1430.6
v -1835.76 12.2567 -1430.28
v -1836.1 12.1809 -1431.05
v -1835.86 11.4979 -1431.14
v -1835.61 11.965 -1431.06
v -1835.8 12.2612 -1430.85
v -1836.1 12.1809 -1431.05
v -1836.1 11.6602 -1431.13
v -1836.17 11.9687 -1431.13
v -1835.65 12.0963 -1430.96
v -1835.91 8.68389 -1430.19
v -1835.9 8.06388 -1430.19
v -1835.96 8.64871 -1430.14
v -1836 8.06388 -1430.14
v -1836.02 9.24563 -1430.14
v -1835.98 9.20271 -1430.18
v -1835.87 9.78365 -1430.14
v -1835.93 9.26388 -1430.14
v -1835.98 9.20271 -1430.18
v -1835.87 9.78365 -1430.14
v -1835.82 8.62954 -1430.14
v -1835.91 8.68389 -1430.19
v -1835.9 8.06388 -1430.19
v -1835.75 8.06388 -1430.15
v -1835.57 8.06388 -1430.16
v -1835.82 8.62954 -1430.14
v -1835.93 9.26388 -1430.14
v -1835.57 11.0647 -1430.16
v -1835.75 8.06388 -1430.15
v -1835.68 11.7355 -1430.15
v -1835.62 12.0468 -1430.15
v -1835.63 12.1622 -1430.15
v -1836.46 12.2934 -1430.96
v -1836.43 12.3556 -1430.25
v -1836.11 12.3556 -1430.6
v -1836.46 12.2934 -1430.96
v -1835.89 12.3556 -1430.86
v -1835.93 7.31787 -1443.94
v -1835.93 7.93867 -1443.94
v -1836.92 7.31787 -1443.88
v -1836.92 9.61413 -1443.88
v -1835.93 10.3187 -1443.94
v -1836.87 10.8166 -1443.88
v -1836.01 11.3076 -1443.93
v -1836.83 11.219 -1443.88
v -1836.8 11.6096 -1443.88
v -1836.02 11.6096 -1443.93
v -1836.76 11.6096 -1443.76
v -1836.78 11.228 -1443.82
v -1836.8 11.6096 -1443.88
v -1836.83 11.219 -1443.88
v -1835.99 7.8555 -1442.93
v -1835.87 8.85068 -1442.94
v -1835.87 7.85557 -1443.01
v -1836.01 11.3076 -1443.93
v -1835.92 11.3997 -1443.88
v -1836.02 11.6096 -1443.93
v -1835.92 11.6096 -1443.88
v -1835.92 11.0884 -1443.88
v -1835.93 10.3187 -1443.94
v -1836.87 10.8166 -1443.88
v -1836.87 10.8746 -1443.83
v -1836.92 9.61413 -1443.88
v -1836.91 10.7519 -1443.62
v -1835.95 7.31787 -1442.93
v -1835.87 7.31787 -1443.04
v -1836.76 11.6096 -1443.76
v -1836.8 11.6096 -1443.88
v -1836.45 11.6096 -1443.54
v -1836.89 10.9142 -1443.39
v -1836.91 10.7519 -1443.62
v -1836.87 10.8746 -1443.83
v -1835.95 7.93788 -1443.59
v -1835.95 7.31787 -1443.6
v -1835.9 7.9027 -1443.55
v -1835.9 7.31787 -1443.5
v -1835.9 8.49963 -1443.48
v -1835.95 8.4567 -1443.52
v -1835.91 9.03764 -1443.63
v -1835.9 8.51788 -1443.57
v -1835.95 8.4567 -1443.52
v -1835.91 9.03764 -1443.63
v -1835.91 7.88353 -1443.69
v -1835.95 7.93788 -1443.59
v -1835.95 7.31787 -1443.6
v -1835.92 7.31787 -1443.76
v -1835.93 10.3187 -1443.94
v -1835.93 7.93867 -1443.94
v -1835.91 9.03764 -1443.63
v -1835.9 8.51788 -1443.57
v -1835.91 7.88353 -1443.69
v -1835.93 7.31787 -1443.94
v -1835.92 7.31787 -1443.76
v -1835.89 9.89371 -1443.4
v -1835.91 9.03764 -1443.63
v -1835.87 9.24021 -1442.94
v -1835.87 8.85068 -1442.94
v -1835.9 8.49963 -1443.48
v -1835.87 7.85557 -1443.01
v -1835.9 7.9027 -1443.55
v -1835.9 7.31787 -1443.5
v -1835.87 7.31787 -1443.04
v -1835.89 9.89371 -1443.4
v -1835.91 10.1209 -1443.64
v -1835.91 9.03764 -1443.63
v -1835.93 10.3187 -1443.94
v -1835.92 11.0884 -1443.88
v -1835.91 10.6009 -1443.69
v -1836.59 7.69827 -1442.89
v -1835.99 7.8555 -1442.93
v -1835.95 7.31787 -1442.93
v -1836.74 8.45869 -1442.89
v -1835.87 8.85068 -1442.94
v -1836.66 9.02805 -1442.89
v -1835.87 9.24021 -1442.94
v -1836.03 9.64764 -1442.93
v -1836.86 9.88094 -1442.88
v -1836.18 10.3259 -1442.92
v -1836.42 10.5837 -1442.9
v -1836.86 11.0759 -1442.88
v -1836.71 11.0978 -1442.89
v -1836.86 11.0759 -1442.88
v -1836.86 9.88094 -1442.88
v -1836.89 10.9142 -1443.39
v -1836.88 9.02722 -1443.09
v -1836.92 7.31787 -1443.88
v -1836.87 8.49047 -1443.01
v -1836.87 8.27041 -1443.01
v -1836.88 7.64995 -1443.2
v -1836.88 9.02722 -1443.09
v -1836.86 9.88094 -1442.88
v -1836.66 9.02805 -1442.89
v -1836.87 8.49047 -1443.01
v -1836.74 8.45869 -1442.89
v -1836.87 8.27041 -1443.01
v -1836.59 7.69827 -1442.89
v -1836.88 7.64995 -1443.2
v -1836.45 11.6096 -1443.54
v -1835.92 11.6096 -1443.88
v -1836.32 11.0481 -1443.4
v -1835.92 11.3997 -1443.88
v -1835.92 11.0884 -1443.88
v -1835.87 9.24021 -1442.94
v -1836.03 9.64764 -1442.93
v -1836.15 10.3374 -1443.27
v -1836.18 10.3259 -1442.92
v -1835.89 9.89371 -1443.4
v -1835.91 10.1209 -1443.64
v -1836.42 10.5837 -1442.9
v -1835.91 10.6009 -1443.69
v -1836.71 11.0978 -1442.89
v -1835.92 11.6096 -1443.88
v -1836.45 11.6096 -1443.54
v -1836.02 11.6096 -1443.93
v -1836.8 11.6096 -1443.88
v -1836.73 11.6096 -1443.64
v -1836.76 11.6096 -1443.76
v -1836.45 11.6096 -1443.54
v -1836.78 11.228 -1443.82
v -1836.73 11.6096 -1443.64
v -1836.62 11.2302 -1443.39
v -1836.76 11.282 -1443.54
v -1836.76 11.6096 -1443.76
v -1836.76 11.282 -1443.54
v -1836.73 11.6096 -1443.64
v -1836.8 11.1156 -1443.26
v -1836.8 11.1156 -1443.26
v -1836.66 11.1506 -1443.17
v -1836.45 11.6096 -1443.54
v -1836.86 11.0759 -1442.88
v -1836.86 11.0759 -1442.88
v -1836.71 11.0978 -1442.89
v -1836.43 7.32966 -1442.4
v -1836.33 7.60958 -1442.39
v -1835.82 7.30476 -1442.57
v -1836.16 7.64088 -1442.45
v -1836.39 7.33517 -1442.77
v -1836.33 7.60958 -1442.39
v -1836.43 7.32966 -1442.4
v -1836.16 7.64088 -1442.45
v -1836.07 7.31787 -1442.79
v -1835.82 7.30476 -1442.57
v -1836.07 7.31787 -1442.79
v -1836.16 7.64088 -1442.45
v -1836.39 7.33517 -1442.77
v -1836.33 7.60958 -1442.39
v -1835.92 7.34586 -1442.84
v -1835.6 7.51996 -1442.8
v -1835.4 7.31787 -1442.73
v -1835.37 7.81817 -1442.74
v -1835.4 7.31787 -1442.73
v -1835.28 8.03469 -1443.17
v -1835.22 7.30526 -1443.66
v -1835.37 7.81817 -1442.74
v -1835.25 7.85917 -1443.36
v -1835.22 7.30526 -1443.66
v -1835.25 7.85917 -1443.36
v -1835.43 7.59429 -1443.37
v -1835.6 7.51996 -1442.8
v -1835.51 7.59858 -1443.09
v -1835.37 7.81817 -1442.74
v -1835.28 8.03469 -1443.17
v -1835.92 7.34586 -1442.84
v -1835.83 7.34051 -1442.95
v -1835.6 7.51996 -1442.8
v -1835.51 7.59858 -1443.09
v -1835.43 7.31618 -1443.7
v -1835.43 7.59429 -1443.37
v -1835.22 7.30526 -1443.66
v -1836.92 7.31787 -1443.88
v -1836.88 7.64995 -1443.2
v -1837.19 7.31787 -1443.47
v -1837.37 7.31787 -1442.99
v -1837.19 7.31787 -1442.61
v -1836.79 7.31787 -1442.64
v -1836.59 7.69827 -1442.89
v -1836.66 7.31787 -1442.41
v -1835.95 7.31787 -1442.93
v -1864 8.3134 -1406
v -1864 8.00062 -1408
v -1864 7.89212 -1410
v -1864 7.78327 -1412
v -1864 7.67407 -1414
v -1864 7.56452 -1416
v -1864 7.45465 -1418
v -1864 7.34445 -1420
v -1864 7.23396 -1422
v -1864 7.12317 -1424
v -1864 7.0121 -1426
v -1864 6.90076 -1428
v -1864 6.78916 -1430
v -1864 6.67731 -1432
v -1864 6.56522 -1434
v -1864 6.45291 -1436
v -1864 6.34037 -1438
v -1864 6.22764 -1440
v -1864 6.11471 -1442
v -1864 6.00161 -1444
v -1864 5.88832 -1446
v -1864 5.77489 -1448
v -1864 5.66131 -1450
v -1864 5.54759 -1452
v -1864 5.43375 -1454
v -1864 5.31979 -1456
v -1864 5.20574 -1458
v -1864 5.09159 -1460
v -1864 4.97721 -1462
v -1864 4.85765 -1464
v -1864 4.72702 -1466
v -1864 4.58599 -1468
v -1862 8.20563 -1406
v -1862 8.09734 -1408
v -1862 7.98867 -1410
v -1862 7.87965 -1412
v -1862 7.77029 -1414
v -1862 7.66058 -1416
v -1862 7.55055 -1418
v -1862 7.44019 -1420
v -1862 7.32954 -1422
v -1862 7.21859 -1424
v -1862 7.10736 -1426
v -1862 6.99586 -1428
v -1862 6.8841 -1430
v -1862 6.77209 -1432
v -1862 6.65984 -1434
v -1862 6.54737 -1436
v -1862 6.43468 -1438
v -1862 6.32179 -1440
v -1862 6.2087 -1442
v -1862 6.09543 -1444
v -1862 5.98199 -1446
v -1862 5.8684 -1448
v -1862 5.75466 -1450
v -1862 5.64078 -1452
v -1862 5.52678 -1454
v -1862 5.41266 -1456
v -1862 5.29845 -1458
v -1862 5.18414 -1460
v -1862 5.06976 -1462
v -1862 4.95463 -1464
v -1862 4.83155 -1466
v -1862 4.69458 -1468
v -1860 8.30239 -1406
v -1860 8.19394 -1408
v -1860 8.08511 -1410
v -1860 7.97593 -1412
v -1860 7.8664 -1414
v -1860 7.75652 -1416
v -1860 7.64633 -1418
v -1860 7.53582 -1420
v -1860 7.425 -1422
v -1860 7.31389 -1424
v -1860 7.20251 -1426
v -1860 7.09084 -1428
v -1860 6.97893 -1430
v -1860 6.86676 -1432
v -1860 6.75435 -1434
v -1860 6.64172 -1436
v -1860 6.52888 -1438
v -1860 6.41583 -1440
v -1860 6.30258 -1442
v -1860 6.18916 -1444
v -1860 6.07557 -1446
v -1860 5.96182 -1448
v -1860 5.84792 -1450
v -1860 5.73388 -1452
v -1860 5.61973 -1454
v -1860 5.50545 -1456
v -1860 5.39108 -1458
v -1860 5.27661 -1460
v -1860 5.16207 -1462
v -1860 5.04745 -1464
v -1860 4.93099 -1466
v -1860 4.80388 -1468
v -1858 8.39903 -1406
v -1858 8.29041 -1408
v -1858 8.18142 -1410
v -1858 8.07207 -1412
v -1858 7.96238 -1414
v -1858 7.85235 -1416
v -1858 7.742 -1418
v -1858 7.63132 -1420
v -1858 7.52035 -1422
v -1858 7.40908 -1424
v -1858 7.29754 -1426
v -1858 7.18571 -1428
v -1858 7.07364 -1430
v -1858 6.96132 -1432
v -1858 6.84876 -1434
v -1858 6.73597 -1436
v -1858 6.62297 -1438
v -1858 6.50977 -1440
v -1858 6.39636 -1442
v -1858 6.28279 -1444
v -1858 6.16904 -1446
v -1858 6.05513 -1448
v -1858 5.94108 -1450
v -1858 5.82689 -1452
v -1858 5.71258 -1454
v -1858 5.59814 -1456
v -1858 5.48362 -1458
v -1858 5.36899 -1460
v -1858 5.25429 -1462
v -1858 5.13952 -1464
v -1858 5.0247 -1466
v -1858 4.90613 -1468
v -1856 8.49553 -1406
v -1856 8.38674 -1408
v -1856 8.27759 -1410
v -1856 8.16808 -1412
v -1856 8.05823 -1414
v -1856 7.94803 -1416
v -1856 7.83752 -1418
v -1856 7.72668 -1420
v -1856 7.61555 -1422
v -1856 7.50413 -1424
v -1856 7.39243 -1426
v -1856 7.28045 -1428
v -1856 7.16822 -1430
v -1856 7.05574 -1432
v -1856 6.94302 -1434
v -1856 6.83009 -1436
v -1856 6.71693 -1438
v -1856 6.60357 -1440
v -1856 6.49001 -1442
v -1856 6.37629 -1444
v -1856 6.26238 -1446
v -1856 6.14832 -1448
v -1856 6.03412 -1450
v -1856 5.91977 -1452
v -1856 5.8053 -1454
v -1856 5.69072 -1456
v -1856 5.57604 -1458
v -1856 5.46125 -1460
v -1856 5.3464 -1462
v -1856 5.23147 -1464
v -1856 5.11649 -1466
v -1856 5.00147 -1468
v -1854 8.59186 -1406
v -1854 8.48292 -1408
v -1854 8.3736 -1410
v -1854 8.26393 -1412
v -1854 8.15392 -1414
v -1854 8.04356 -1416
v -1854 7.93289 -1418
v -1854 7.8219 -1420
v -1854 7.71061 -1422
v -1854 7.59903 -1424
v -1854 7.48717 -1426
v -1854 7.37504 -1428
v -1854 7.26265 -1430
v -1854 7.15002 -1432
v -1854 7.03715 -1434
v -1854 6.92406 -1436
v -1854 6.81074 -1438
v -1854 6.69724 -1440
v -1854 6.58353 -1442
v -1854 6.46965 -1444
v -1854 6.35559 -1446
v -1854 6.24138 -1448
v -1854 6.12702 -1450
v -1854 6.01252 -1452
v -1854 5.8979 -1454
v -1854 5.78317 -1456
v -1854 5.66833 -1458
v -1854 5.5534 -1460
v -1854 5.43839 -1462
v -1854 5.32331 -1464
v -1854 5.20817 -1466
v -1854 5.09299 -1468
v -1852 8.68804 -1406
v -1852 8.57893 -1408
v -1852 8.46945 -1410
v -1852 8.35962 -1412
v -1852 8.24944 -1414
v -1852 8.13893 -1416
v -1852 8.0281 -1418
v -1852 7.91695 -1420
v -1852 7.80551 -1422
v -1852 7.69377 -1424
v -1852 7.58175 -1426
v -1852 7.46947 -1428
v -1852 7.35693 -1430
v -1852 7.24415 -1432
v -1852 7.13112 -1434
v -1852 7.01788 -1436
v -1852 6.90441 -1438
v -1852 6.79075 -1440
v -1852 6.67689 -1442
v -1852 6.56286 -1444
v -1852 6.44865 -1446
v -1852 6.33429 -1448
v -1852 6.21979 -1450
v -1852 6.10514 -1452
v -1852 5.99037 -1454
v -1852 5.87548 -1456
v -1852 5.76049 -1458
v -1852 5.64541 -1460
v -1852 5.53025 -1462
v -1852 5.41501 -1464
v -1852 5.29973 -1466
v -1852 5.18439 -1468
v -1850 8.78403 -1406
v -1850 8.67476 -1408
v -1850 8.56512 -1410
v -1850 8.45513 -1412
v -1850 8.34479 -1414
v -1850 8.23412 -1416
v -1850 8.12313 -1418
v -1850 8.01183 -1420
v -1850 7.90023 -1422
v -1850 7.78833 -1424
v -1850 7.67617 -1426
v -1850 7.56373 -1428
v -1850 7.45104 -1430
v -1850 7.3381 -1432
v -1850 7.22493 -1434
v -1850 7.11153 -1436
v -1850 6.99792 -1438
v -1850 6.88411 -1440
v -1850 6.7701 -1442
v -1850 6.65592 -1444
v -1850 6.54156 -1446
v -1850 6.42705 -1448
v -1850 6.31239 -1450
v -1850 6.19759 -1452
v -1850 6.08268 -1454
v -1850 5.96764 -1456
v -1850 5.8525 -1458
v -1850 5.73727 -1460
v -1850 5.62196 -1462
v -1850 5.50658 -1464
v -1850 5.39114 -1466
v -1850 5.27565 -1468
v -1848 8.87984 -1406
v -1848 8.77041 -1408
v -1848 8.6606 -1410
v -1848 8.55045 -1412
v -1848 8.43996 -1414
v -1848 8.32913 -1416
v -1848 8.21799 -1418
v -1848 8.10653 -1420
v -1848 7.99477 -1422
v -1848 7.88272 -1424
v -1848 7.77041 -1426
v -1848 7.65781 -1428
v -1848 7.54497 -1430
v -1848 7.43188 -1432
v -1848 7.31856 -1434
v -1848 7.20501 -1436
v -1848 7.09125 -1438
v -1848 6.97729 -1440
v -1848 6.86313 -1442
v -1848 6.74881 -1444
v -1848 6.6343 -1446
v -1848 6.51964 -1448
v -1848 6.40484 -1450
v -1848 6.28989 -1452
v -1848 6.17483 -1454
v -1848 6.05964 -1456
v -1848 5.94436 -1458
v -1848 5.82898 -1460
v -1848 5.71352 -1462
v -1848 5.59799 -1464
v -1848 5.4824 -1466
v -1848 5.36677 -1468
v -1846 8.97545 -1406
v -1846 8.86585 -1408
v -1846 8.75589 -1410
v -1846 8.64557 -1412
v -1846 8.53492 -1414
v -1846 8.42394 -1416
v -1846 8.31264 -1418
v -1846 8.20102 -1420
v -1846 8.08911 -1422
v -1846 7.97691 -1424
v -1846 7.86444 -1426
v -1846 7.7517 -1428
v -1846 7.63871 -1430
v -1846 7.52547 -1432
v -1846 7.41199 -1434
v -1846 7.2983 -1436
v -1846 7.18439 -1438
v -1846 7.07028 -1440
v -1846 6.95598 -1442
v -1846 6.8415 -1444
v -1846 6.72685 -1446
v -1846 6.61205 -1448
v -1846 6.4971 -1450
v -1846 6.38201 -1452
v -1846 6.2668 -1454
v -1846 6.15147 -1456
v -1846 6.03604 -1458
v -1846 5.92051 -1460
v -1846 5.80491 -1462
v -1846 5.68923 -1464
v -1846 5.5735 -1466
v -1846 5.45772 -1468
v -1844 9.07084 -1406
v -1844 8.96108 -1408
v -1844 8.85095 -1410
v -1844 8.74048 -1412
v -1844 8.62968 -1414
v -1844 8.51853 -1416
v -1844 8.40708 -1418
v -1844 8.29531 -1420
v -1844 8.18325 -1422
v -1844 8.07089 -1424
v -1844 7.95827 -1426
v -1844 7.84538 -1428
v -1844 7.73224 -1430
v -1844 7.61885 -1432
v -1844 7.50523 -1434
v -1844 7.39139 -1436
v -1844 7.27733 -1438
v -1844 7.16308 -1440
v -1844 7.04863 -1442
v -1844 6.93401 -1444
v -1844 6.81921 -1446
v -1844 6.70426 -1448
v -1844 6.58917 -1450
v -1844 6.47393 -1452
v -1844 6.35858 -1454
v -1844 6.24311 -1456
v -1844 6.12753 -1458
v -1844 6.01186 -1460
v -1844 5.89612 -1462
v -1844 5.78029 -1464
v -1844 5.66442 -1466
v -1844 5.54849 -1468
v -1842 9.166 -1406
v -1842 9.05608 -1408
v -1842 8.9458 -1410
v -1842 8.83517 -1412
v -1842 8.7242 -1414
v -1842 8.61291 -1416
v -1842 8.5013 -1418
v -1842 8.38937 -1420
v -1842 8.27716 -1422
v -1842 8.16466 -1424
v -1842 8.05188 -1426
v -1842 7.93884 -1428
v -1842 7.82555 -1430
v -1842 7.71202 -1432
v -1842 7.59825 -1434
v -1842 7.48426 -1436
v -1842 7.37006 -1438
v -1842 7.25566 -1440
v -1842 7.14107 -1442
v -1842 7.0263 -1444
v -1842 6.91137 -1446
v -1842 6.79627 -1448
v -1842 6.68104 -1450
v -1842 6.56566 -1452
v -1842 6.45016 -1454
v -1842 6.33455 -1456
v -1842 6.21883 -1458
v -1842 6.10302 -1460
v -1842 5.98713 -1462
v -1842 5.87117 -1464
v -1842 5.75515 -1466
v -1842 5.63908 -1468
v -1840 9.26093 -1406
v -1840 9.15085 -1408
v -1840 9.04041 -1410
v -1840 8.92963 -1412
v -1840 8.8185 -1414
v -1840 8.70705 -1416
v -1840 8.59529 -1418
v -1840 8.48321 -1420
v -1840 8.37085 -1422
v -1840 8.25819 -1424
v -1840 8.14527 -1426
v -1840 8.03208 -1428
v -1840 7.91864 -1430
v -1840 7.80496 -1432
v -1840 7.69105 -1434
v -1840 7.57692 -1436
v -1840 7.46257 -1438
v -1840 7.34803 -1440
v -1840 7.23329 -1442
v -1840 7.11839 -1444
v -1840 7.0033 -1446
v -1840 6.88807 -1448
v -1840 6.7727 -1450
v -1840 6.65718 -1452
v -1840 6.54154 -1454
v -1840 6.42578 -1456
v -1840 6.30993 -1458
v -1840 6.19398 -1460
v -1840 6.07795 -1462
v -1840 5.96184 -1464
v -1840 5.84569 -1466
v -1840 5.72948 -1468
v -1838 9.35561 -1406
v -1838 9.24537 -1408
v -1838 9.13477 -1410
v -1838 9.02383 -1412
v -1838 8.91255 -1414
v -1838 8.80094 -1416
v -1838 8.68903 -1418
v -1838 8.5768 -1420
v -1838 8.46428 -1422
v -1838 8.35148 -1424
v -1838 8.23841 -1426
v -1838 8.12507 -1428
v -1838 8.01149 -1430
v -1838 7.89767 -1432
v -1838 7.7836 -1434
v -1838 7.66933 -1436
v -1838 7.55484 -1438
v -1838 7.44016 -1440
v -1838 7.32528 -1442
v -1838 7.21023 -1444
v -1838 7.09501 -1446
v -1838 6.97964 -1448
v -1838 6.86412 -1450
v -1838 6.74847 -1452
v -1838 6.63269 -1454
v -1838 6.51679 -1456
v -1838 6.4008 -1458
v -1838 6.28471 -1460
v -1838 6.16854 -1462
v -1838 6.0523 -1464
v -1838 5.936 -1466
v -1838 5.81966 -1468
v -1836 9.45003 -1406
v -1836 9.33963 -1408
v -1836 9.22887 -1410
v -1836 9.11777 -1412
v -1836 9.00634 -1414
v -1836 8.89458 -1416
v -1836 8.78251 -1418
v -1836 8.67013 -1420
v -1836 8.55747 -1422
v -1836 8.44452 -1424
v -1836 8.3313 -1426
v -1836 8.21781 -1428
v -1836 8.10408 -1430
v -1836 7.99012 -1432
v -1836 7.87591 -1434
v -1836 7.7615 -1436
v -1836 7.64686 -1438
v -1836 7.53204 -1440
v -1836 7.41702 -1442
v -1836 7.30184 -1444
v -1836 7.18648 -1446
v -1836 7.07097 -1448
v -1836 6.95531 -1450
v -1836 6.83952 -1452
v -1836 6.7236 -1454
v -1836 6.60757 -1456
v -1836 6.49144 -1458
v -1836 6.37521 -1460
v -1836 6.25891 -1462
v -1836 6.14253 -1464
v -1836 6.0261 -1466
v -1836 5.90962 -1468
v -1834 9.54418 -1406
v -1834 9.43362 -1408
v -1834 9.3227 -1410
v -1834 9.21145 -1412
v -1834 9.09986 -1414
v -1834 8.98795 -1416
v -1834 8.87573 -1418
v -1834 8.7632 -1420
v -1834 8.65038 -1422
v -1834 8.53728 -1424
v -1834 8.42392 -1426
v -1834 8.31029 -1428
v -1834 8.19642 -1430
v -1834 8.08231 -1432
v -1834 7.96796 -1434
v -1834 7.8534 -1436
v -1834 7.73863 -1438
v -1834 7.62367 -1440
v -1834 7.50851 -1442
v -1834 7.39319 -1444
v -1834 7.27769 -1446
v -1834 7.16204 -1448
v -1834 7.04625 -1450
v -1834 6.93032 -1452
v -1834 6.81427 -1454
v -1834 6.6981 -1456
v -1834 6.58184 -1458
v -1834 6.46548 -1460
v -1834 6.34904 -1462
v -1834 6.23253 -1464
v -1834 6.11596 -1466
v -1834 5.99934 -1468
v -1832 9.63805 -1406
v -1832 9.52733 -1408
v -1832 9.41625 -1410
v -1832 9.30484 -1412
v -1832 9.1931 -1414
v -1832 9.08103 -1416
v -1832 8.96866 -1418
v -1832 8.85599 -1420
v -1832 8.74302 -1422
v -1832 8.62978 -1424
v -1832 8.51627 -1426
v -1832 8.40249 -1428
v -1832 8.28848 -1430
v -1832 8.17422 -1432
v -1832 8.05974 -1434
v -1832 7.94504 -1436
v -1832 7.83013 -1438
v -1832 7.71503 -1440
v -1832 7.59973 -1442
v -1832 7.48427 -1444
v -1832 7.36864 -1446
v -1832 7.25286 -1448
v -1832 7.13693 -1450
v -1832 7.02086 -1452
v -1832 6.90468 -1454
v -1832 6.78838 -1456
v -1832 6.67198 -1458
v -1832 6.55549 -1460
v -1832 6.43892 -1462
v -1832 6.32227 -1464
v -1832 6.20557 -1466
v -1832 6.08882 -1468
v -1830 9.73162 -1406
v -1830 9.62075 -1408
v -1830 9.50952 -1410
v -1830 9.39795 -1412
v -1830 9.28606 -1414
v -1830 9.17384 -1416
v -1830 9.06132 -1418
v -1830 8.94849 -1420
v -1830 8.83538 -1422
v -1830 8.72199 -1424
v -1830 8.60833 -1426
v -1830 8.49442 -1428
v -1830 8.38026 -1430
v -1830 8.26586 -1432
v -1830 8.15124 -1434
v -1830 8.0364 -1436
v -1830 7.92135 -1438
v -1830 7.80611 -1440
v -1830 7.69068 -1442
v -1830 7.57508 -1444
v -1830 7.45932 -1446
v -1830 7.3434 -1448
v -1830 7.22734 -1450
v -1830 7.11114 -1452
v -1830 6.99483 -1454
v -1830 6.8784 -1456
v -1830 6.76187 -1458
v -1830 6.64524 -1460
v -1830 6.52854 -1462
v -1830 6.41176 -1464
v -1830 6.29493 -1466
v -1830 6.17805 -1468
v -1828 9.82489 -1406
v -1828 9.71386 -1408
v -1828 9.60247 -1410
v -1828 9.49075 -1412
v -1828 9.37871 -1414
v -1828 9.26633 -1416
v -1828 9.15366 -1418
v -1828 9.04069 -1420
v -1828 8.92743 -1422
v -1828 8.81389 -1424
v -1828 8.7001 -1426
v -1828 8.58604 -1428
v -1828 8.47174 -1430
v -1828 8.3572 -1432
v -1828 8.24244 -1434
v -1828 8.12746 -1436
v -1828 8.01228 -1438
v -1828 7.8969 -1440
v -1828 7.78134 -1442
v -1828 7.66561 -1444
v -1828 7.5497 -1446
v -1828 7.43366 -1448
v -1828 7.31747 -1450
v -1828 7.20114 -1452
v -1828 7.08469 -1454
v -1828 6.96813 -1456
v -1828 6.85147 -1458
v -1828 6.73472 -1460
v -1828 6.61789 -1462
v -1828 6.50098 -1464
v -1828 6.38402 -1466
v -1828 6.26701 -1468
v -1826 9.91785 -1406
v -1826 9.80666 -1408
v -1826 9.69511 -1410
v -1826 9.58324 -1412
v -1826 9.47104 -1414
v -1826 9.35852 -1416
v -1826 9.2457 -1418
v -1826 9.13257 -1420
v -1826 9.01917 -1422
v -1826 8.90549 -1424
v -1826 8.79155 -1426
v -1826 8.67735 -1428
v -1826 8.56291 -1430
v -1826 8.44823 -1432
v -1826 8.33333 -1434
v -1826 8.21822 -1436
v -1826 8.1029 -1438
v -1826 7.98739 -1440
v -1826 7.87169 -1442
v -1826 7.75583 -1444
v -1826 7.63979 -1446
v -1826 7.52362 -1448
v -1826 7.4073 -1450
v -1826 7.29084 -1452
v -1826 7.17426 -1454
v -1826 7.05757 -1456
v -1826 6.94079 -1458
v -1826 6.8239 -1460
v -1826 6.70695 -1462
v -1826 6.58991 -1464
v -1826 6.47283 -1466
v -1826 6.35569 -1468
v -1824 10.0105 -1406
v -1824 9.89913 -1408
v -1824 9.78743 -1410
v -1824 9.6754 -1412
v -1824 9.56305 -1414
v -1824 9.45038 -1416
v -1824 9.33741 -1418
v -1824 9.22414 -1420
v -1824 9.11059 -1422
v -1824 8.99677 -1424
v -1824 8.88268 -1426
v -1824 8.76834 -1428
v -1824 8.65376 -1430
v -1824 8.53895 -1432
v -1824 8.42391 -1434
v -1824 8.30866 -1436
v -1824 8.19321 -1438
v -1824 8.07757 -1440
v -1824 7.96174 -1442
v -1824 7.84574 -1444
v -1824 7.72958 -1446
v -1824 7.61327 -1448
v -1824 7.49682 -1450
v -1824 7.38023 -1452
v -1824 7.26353 -1454
v -1824 7.14672 -1456
v -1824 7.0298 -1458
v -1824 6.91279 -1460
v -1824 6.79571 -1462
v -1824 6.67855 -1464
v -1824 6.56134 -1466
v -1824 6.44408 -1468
v -1822 10.1028 -1406
v -1822 9.99126 -1408
v -1822 9.87941 -1410
v -1822 9.76723 -1412
v -1822 9.65473 -1414
v -1822 9.5419 -1416
v -1822 9.42879 -1418
v -1822 9.31537 -1420
v -1822 9.20168 -1422
v -1822 9.08771 -1424
v -1822 8.97349 -1426
v -1822 8.85901 -1428
v -1822 8.74429 -1430
v -1822 8.62934 -1432
v -1822 8.51416 -1434
v -1822 8.39878 -1436
v -1822 8.28319 -1438
v -1822 8.16742 -1440
v -1822 8.05146 -1442
v -1822 7.93533 -1444
v -1822 7.81904 -1446
v -1822 7.70261 -1448
v -1822 7.58603 -1450
v -1822 7.46932 -1452
v -1822 7.35249 -1454
v -1822 7.23555 -1456
v -1822 7.11851 -1458
v -1822 7.00138 -1460
v -1822 6.88417 -1462
v -1822 6.76689 -1464
v -1822 6.64956 -1466
v -1822 6.53218 -1468
v -1820 10.1947 -1406
v -1820 10.0831 -1408
v -1820 9.97105 -1410
v -1820 9.85871 -1412
v -1820 9.74606 -1414
v -1820 9.63309 -1416
v -1820 9.51983 -1418
v -1820 9.40627 -1420
v -1820 9.29243 -1422
v -1820 9.17832 -1424
v -1820 9.06396 -1426
v -1820 8.94934 -1428
v -1820 8.83448 -1430
v -1820 8.7194 -1432
v -1820 8.60409 -1434
v -1820 8.48857 -1436
v -1820 8.37285 -1438
v -1820 8.25695 -1440
v -1820 8.14086 -1442
v -1820 8.0246 -1444
v -1820 7.90818 -1446
v -1820 7.79162 -1448
v -1820 7.67492 -1450
v -1820 7.55808 -1452
v -1820 7.44113 -1454
v -1820 7.32406 -1456
v -1820 7.2069 -1458
v -1820 7.08965 -1460
v -1820 6.97232 -1462
v -1820 6.85492 -1464
v -1820 6.73747 -1466
v -1820 6.61996 -1468
v -1818 10.2863 -1406
v -1818 10.1745 -1408
v -1818 10.0623 -1410
v -1818 9.94984 -1412
v -1818 9.83704 -1414
v -1818 9.72392 -1416
v -1818 9.61051 -1418
v -1818 9.4968 -1420
v -1818 9.38282 -1422
v -1818 9.26857 -1424
v -1818 9.15407 -1426
v -1818 9.03931 -1428
v -1818 8.92432 -1430
v -1818 8.8091 -1432
v -1818 8.69366 -1434
v -1818 8.57801 -1436
v -1818 8.46216 -1438
v -1818 8.34612 -1440
v -1818 8.2299 -1442
v -1818 8.11352 -1444
v -1818 7.99698 -1446
v -1818 7.88029 -1448
v -1818 7.76346 -1450
v -1818 7.6465 -1452
v -1818 7.52943 -1454
v -1818 7.41224 -1456
v -1818 7.29496 -1458
v -1818 7.17759 -1460
v -1818 7.06014 -1462
v -1818 6.94262 -1464
v -1818 6.82505 -1466
v -1818 6.70743 -1468
v -1816 10.3775 -1406
v -1816 10.2655 -1408
v -1816 10.1532 -1410
v -1816 10.0406 -1412
v -1816 9.92764 -1414
v -1816 9.81438 -1416
v -1816 9.70082 -1418
v -1816 9.58697 -1420
v -1816 9.47285 -1422
v -1816 9.35846 -1424
v -1816 9.24382 -1426
v -1816 9.12892 -1428
v -1816 9.01379 -1430
v -1816 8.89844 -1432
v -1816 8.78287 -1434
v -1816 8.66709 -1436
v -1816 8.55111 -1438
v -1816 8.43494 -1440
v -1816 8.3186 -1442
v -1816 8.20209 -1444
v -1816 8.08542 -1446
v -1816 7.96861 -1448
v -1816 7.85166 -1450
v -1816 7.73458 -1452
v -1816 7.61739 -1454
v -1816 7.50008 -1456
v -1816 7.38268 -1458
v -1816 7.26518 -1460
v -1816 7.14762 -1462
v -1816 7.02998 -1464
v -1816 6.91229 -1466
v -1816 6.79455 -1468
v -1814 10.4684 -1406
v -1814 10.3562 -1408
v -1814 10.2438 -1410
v -1814 10.131 -1412
v -1814 10.0179 -1414
v -1814 9.90446 -1416
v -1814 9.79076 -1418
v -1814 9.67677 -1420
v -1814 9.56251 -1422
v -1814 9.44798 -1424
v -1814 9.3332 -1426
v -1814 9.21816 -1428
v -1814 9.1029 -1430
v -1814 8.98742 -1432
v -1814 8.87171 -1434
v -1814 8.7558 -1436
v -1814 8.63969 -1438
v -1814 8.5234 -1440
v -1814 8.40693 -1442
v -1814 8.2903 -1444
v -1814 8.1735 -1446
v -1814 8.05657 -1448
v -1814 7.9395 -1450
v -1814 7.8223 -1452
v -1814 7.70499 -1454
v -1814 7.58756 -1456
v -1814 7.47004 -1458
v -1814 7.35243 -1460
v -1814 7.23475 -1462
v -1814 7.117 -1464
v -1814 6.99919 -1466
v -1814 6.88134 -1468
v -1812 10.5588 -1406
v -1812 10.4465 -1408
v -1812 10.3339 -1410
v -1812 10.221 -1412
v -1812 10.1077 -1414
v -1812 9.99416 -1416
v -1812 9.88032 -1418
v -1812 9.76618 -1420
v -1812 9.65178 -1422
v -1812 9.53711 -1424
v -1812 9.42219 -1426
v -1812 9.30703 -1428
v -1812 9.19163 -1430
v -1812 9.07601 -1432
v -1812 8.96018 -1434
v -1812 8.84414 -1436
v -1812 8.7279 -1438
v -1812 8.61149 -1440
v -1812 8.49489 -1442
v -1812 8.37814 -1444
v -1812 8.26122 -1446
v -1812 8.14417 -1448
v -1812 8.02698 -1450
v -1812 7.90966 -1452
v -1812 7.79223 -1454
v -1812 7.67468 -1456
v -1812 7.55705 -1458
v -1812 7.43932 -1460
v -1812 7.32153 -1462
v -1812 7.20366 -1464
v -1812 7.08574 -1466
v -1812 6.96778 -1468
v -1810 10.6489 -1406
v -1810 10.5364 -1408
v -1810 10.4237 -1410
v -1810 10.3106 -1412
v -1810 10.1972 -1414
v -1810 10.0835 -1416
v -1810 9.96947 -1418
v -1810 9.8552 -1420
v -1810 9.74066 -1422
v -1810 9.62585 -1424
v -1810 9.51079 -1426
v -1810 9.39549 -1428
v -1810 9.27997 -1430
v -1810 9.16422 -1432
v -1810 9.04825 -1434
v -1810 8.93209 -1436
v -1810 8.81572 -1438
v -1810 8.69918 -1440
v -1810 8.58246 -1442
v -1810 8.46559 -1444
v -1810 8.34855 -1446
v -1810 8.23138 -1448
v -1810 8.11407 -1450
v -1810 7.99663 -1452
v -1810 7.87908 -1454
v -1810 7.76143 -1456
v -1810 7.64368 -1458
v -1810 7.52584 -1460
v -1810 7.40793 -1462
v -1810 7.28995 -1464
v -1810 7.17193 -1466
v -1810 7.05385 -1468
v -1808 10.7385 -1406
v -1808 10.6259 -1408
v -1808 10.513 -1410
v -1808 10.3998 -1412
v -1808 10.2862 -1414
v -1808 10.1724 -1416
v -1808 10.0582 -1418
v -1808 9.94381 -1420
v -1808 9.82913 -1422
v -1808 9.71418 -1424
v -1808 9.59899 -1426
v -1808 9.48356 -1428
v -1808 9.3679 -1430
v -1808 9.25202 -1432
v -1808 9.13592 -1434
v -1808 9.01963 -1436
v -1808 8.90315 -1438
v -1808 8.78648 -1440
v -1808 8.66964 -1442
v -1808 8.55265 -1444
v -1808 8.43549 -1446
v -1808 8.3182 -1448
v -1808 8.20077 -1450
v -1808 8.08322 -1452
v -1808 7.96556 -1454
v -1808 7.84779 -1456
v -1808 7.72993 -1458
v -1808 7.61198 -1460
v -1808 7.49396 -1462
v -1808 7.37587 -1464
v -1808 7.25773 -1466
v -1808 7.13955 -1468
v -1806 10.8277 -1406
v -1806 10.715 -1408
v -1806 10.6019 -1410
v -1806 10.4885 -1412
v -1806 10.3748 -1414
v -1806 10.2608 -1416
v -1806 10.1466 -1418
v -1806 10.032 -1420
v -1806 9.91718 -1422
v -1806 9.8021 -1424
v -1806 9.68678 -1426
v -1806 9.57121 -1428
v -1806 9.45542 -1430
v -1806 9.33941 -1432
v -1806 9.22319 -1434
v -1806 9.10678 -1436
v -1806 8.99016 -1438
v -1806 8.87338 -1440
v -1806 8.75642 -1442
v -1806 8.6393 -1444
v -1806 8.52203 -1446
v -1806 8.40462 -1448
v -1806 8.28708 -1450
v -1806 8.16941 -1452
v -1806 8.05164 -1454
v -1806 7.93375 -1456
v -1806 7.81578 -1458
v -1806 7.69772 -1460
v -1806 7.5796 -1462
v -1806 7.4614 -1464
v -1806 7.34315 -1466
v -1806 7.22486 -1468
v -1804 10.9165 -1406
v -1804 10.8036 -1408
v -1804 10.6904 -1410
v -1804 10.5769 -1412
v -1804 10.463 -1414
v -1804 10.3489 -1416
v -1804 10.2345 -1418
v -1804 10.1198 -1420
v -1804 10.0048 -1422
v -1804 9.8896 -1424
v -1804 9.77414 -1426
v -1804 9.65844 -1428
v -1804 9.54252 -1430
v -1804 9.42639 -1432
v -1804 9.31004 -1434
v -1804 9.1935 -1436
v -1804 9.07676 -1438
v -1804 8.95986 -1440
v -1804 8.84278 -1442
v -1804 8.72554 -1444
v -1804 8.60815 -1446
v -1804 8.49063 -1448
v -1804 8.37298 -1450
v -1804 8.25519 -1452
v -1804 8.13731 -1454
v -1804 8.01932 -1456
v -1804 7.90124 -1458
v -1804 7.78307 -1460
v -1804 7.66483 -1462
v -1804 7.54653 -1464
v -1804 7.42818 -1466
v -1804 7.30978 -1468
v -1802 11.0049 -1406
v -1802 10.8918 -1408
v -1802 10.7785 -1410
v -1802 10.6648 -1412
v -1802 10.5508 -1414
v -1802 10.4365 -1416
v -1802 10.3219 -1418
v -1802 10.2071 -1420
v -1802 10.092 -1422
v -1802 9.97666 -1424
v -1802 9.86107 -1426
v -1802 9.74524 -1428
v -1802 9.6292 -1430
v -1802 9.51293 -1432
v -1802 9.39646 -1434
v -1802 9.2798 -1436
v -1802 9.16294 -1438
v -1802 9.04591 -1440
v -1802 8.92871 -1442
v -1802 8.81136 -1444
v -1802 8.69386 -1446
v -1802 8.57622 -1448
v -1802 8.45846 -1450
v -1802 8.34056 -1452
v -1802 8.22257 -1454
v -1802 8.10447 -1456
v -1802 7.98628 -1458
v -1802 7.86801 -1460
v -1802 7.74967 -1462
v -1802 7.63126 -1464
v -1802 7.51281 -1466
v -1802 7.39431 -1468
f 28 27 19
f 2 27 28
f 1 2 28
f 23 29 22
f 27 16 19
f 20 19 16
f 24 22 32
f 24 23 22
f 2 7 27
f 7 10 27
f 27 10 16
f 3 2 1
f 4 3 1
f 3 8 2
f 8 7 2
f 10 13 16
f 17 20 16
f 17 16 13
f 8 11 7
f 11 10 7
f 14 13 10
f 11 14 10
f 14 17 13
f 9 8 3
f 9 12 8
f 12 11 8
f 5 3 4
f 6 5 4
f 12 15 11
f 24 32 30
f 18 21 17
f 21 20 17
f 18 17 14
f 15 14 11
f 31 24 30
f 15 18 14
f 5 9 3
f 15 12 26
f 18 15 26
f 12 9 5
f 26 12 5
f 18 26 25
f 21 18 25
f 25 26 5
f 36 5 6
f 35 34 33
f 162 161 160
f 163 161 162
f 164 163 162
f 181 182 184
f 184 182 185
f 165 163 164
f 166 165 164
f 185 182 186
f 183 182 181
f 161 159 160
f 160 159 157
f 167 165 166
f 186 182 187
f 168 167 166
f 188 182 183
f 187 182 188
f 170 169 168
f 169 167 168
f 172 171 170
f 159 158 157
f 233 230 232
f 234 230 233
f 216 215 201
f 203 216 201
f 217 216 203
f 232 230 231
f 215 214 199
f 201 215 199
f 171 169 170
f 165 177 163
f 163 176 161
f 177 176 163
f 161 175 159
f 176 175 161
f 199 214 198
f 231 230 229
f 214 213 198
f 205 217 203
f 235 230 234
f 218 217 205
f 175 174 159
f 159 174 158
f 229 230 236
f 236 230 235
f 203 201 202
f 202 201 200
f 201 199 200
f 204 203 202
f 205 203 204
f 167 178 165
f 178 177 165
f 174 173 158
f 171 180 169
f 207 218 205
f 219 218 207
f 200 199 197
f 199 198 197
f 169 179 167
f 180 179 169
f 220 219 209
f 211 220 209
f 179 178 167
f 206 205 204
f 207 205 206
f 225 222 226
f 224 222 225
f 221 222 224
f 209 219 207
f 193 190 192
f 192 190 191
f 194 190 193
f 151 150 149
f 134 133 118
f 149 150 156
f 131 140 129
f 140 139 129
f 226 222 227
f 208 207 206
f 209 207 208
f 212 211 210
f 211 209 210
f 223 222 221
f 228 222 223
f 227 222 228
f 210 209 208
f 195 190 194
f 191 190 189
f 119 134 118
f 152 150 151
f 135 134 119
f 139 138 127
f 129 139 127
f 156 150 155
f 67 62 68
f 48 47 46
f 49 47 48
f 66 62 67
f 50 49 48
f 155 150 154
f 153 150 152
f 154 150 153
f 196 190 195
f 189 190 196
f 65 62 66
f 45 43 44
f 46 45 44
f 64 62 65
f 44 43 42
f 47 45 46
f 127 138 125
f 138 137 125
f 136 135 121
f 121 135 119
f 61 62 64
f 43 41 42
f 42 41 40
f 84 83 82
f 82 81 80
f 83 81 82
f 104 102 105
f 101 102 104
f 86 85 84
f 85 83 84
f 105 102 106
f 137 136 123
f 123 136 121
f 51 49 50
f 68 62 63
f 52 51 50
f 63 62 61
f 41 39 40
f 40 39 37
f 125 137 123
f 39 38 37
f 81 79 80
f 103 102 101
f 80 79 77
f 88 87 86
f 87 85 86
f 106 102 107
f 108 102 103
f 107 102 108
f 119 118 117
f 132 131 130
f 131 129 130
f 120 119 117
f 121 119 120
f 90 89 88
f 89 87 88
f 79 78 77
f 92 91 90
f 130 129 128
f 129 127 128
f 128 127 126
f 127 125 126
f 91 89 90
f 122 121 120
f 123 121 122
f 125 123 124
f 126 125 124
f 85 97 83
f 83 96 81
f 97 96 83
f 81 95 79
f 96 95 81
f 124 123 122
f 95 94 79
f 79 94 78
f 98 97 85
f 87 98 85
f 51 60 49
f 49 59 47
f 60 59 49
f 45 57 43
f 57 56 43
f 43 56 41
f 94 93 78
f 91 100 89
f 47 58 45
f 58 57 45
f 89 99 87
f 100 99 89
f 99 98 87
f 59 58 47
f 143 142 141
f 148 142 143
f 54 53 38
f 39 54 38
f 56 55 41
f 41 55 39
f 147 142 148
f 55 54 39
f 141 142 144
f 113 110 112
f 112 110 111
f 144 142 145
f 145 142 146
f 146 142 147
f 114 110 113
f 115 110 114
f 111 110 109
f 116 110 115
f 109 110 116
f 75 70 74
f 74 70 73
f 76 70 75
f 69 70 76
f 73 70 72
f 72 70 71
f 71 70 69
f 254 255 253
f 256 255 254
f 257 255 256
f 257 312 255
f 313 312 257
f 254 253 252
f 248 247 246
f 311 313 244
f 260 259 258
f 270 260 258
f 271 260 270
f 246 247 245
f 267 268 273
f 267 273 276
f 276 273 275
f 246 245 244
f 275 273 274
f 307 244 245
f 274 273 272
f 315 274 272
f 309 244 307
f 310 244 309
f 311 244 310
f 312 313 314
f 313 279 314
f 279 313 311
f 315 282 274
f 280 278 315
f 315 278 282
f 251 250 248
f 248 250 249
f 248 249 247
f 282 275 274
f 287 288 286
f 280 279 278
f 286 316 285
f 286 285 283
f 283 287 286
f 292 295 294
f 294 295 296
f 293 291 292
f 299 298 297
f 290 295 292
f 298 301 297
f 292 291 290
f 297 301 300
f 245 306 304
f 306 305 304
f 302 300 301
f 300 302 303
f 307 245 304
f 278 243 277
f 278 279 243
f 285 284 283
f 269 268 267
f 308 304 305
f 285 289 284
f 242 277 243
f 264 263 281
f 266 261 265
f 261 262 265
f 263 264 262
f 263 262 261
f 243 239 242
f 242 239 240
f 239 238 237
f 240 239 237
f 241 240 237
f 334 335 333
f 336 335 334
f 337 335 336
f 337 392 335
f 393 392 337
f 334 333 332
f 328 327 326
f 391 393 324
f 340 339 338
f 350 340 338
f 351 340 350
f 326 327 325
f 347 348 353
f 347 353 356
f 356 353 355
f 326 325 324
f 355 353 354
f 387 324 325
f 354 353 352
f 395 354 352
f 389 324 387
f 390 324 389
f 391 324 390
f 392 393 394
f 393 359 394
f 359 393 391
f 395 362 354
f 360 358 395
f 395 358 362
f 331 330 328
f 328 330 329
f 328 329 327
f 362 355 354
f 367 368 366
f 360 359 358
f 366 396 365
f 366 365 363
f 363 367 366
f 372 375 374
f 374 375 376
f 373 371 372
f 379 378 377
f 370 375 372
f 378 381 377
f 372 371 370
f 377 381 380
f 325 386 384
f 386 385 384
f 382 380 381
f 380 382 383
f 387 325 384
f 358 323 357
f 358 359 323
f 365 364 363
f 349 348 347
f 388 384 385
f 365 369 364
f 322 357 323
f 344 343 361
f 346 341 345
f 341 342 345
f 343 344 342
f 343 342 341
f 323 319 322
f 322 319 320
f 319 318 317
f 320 319 317
f 321 320 317
f 414 415 413
f 416 415 414
f 417 415 416
f 417 472 415
f 473 472 417
f 414 413 412
f 408 407 406
f 471 473 404
f 420 419 418
f 430 420 418
f 431 420 430
f 406 407 405
f 427 428 433
f 427 433 436
f 436 433 435
f 406 405 404
f 435 433 434
f 467 404 405
f 434 433 432
f 475 434 432
f 469 404 467
f 470 404 469
f 471 404 470
f 472 473 474
f 473 439 474
f 439 473 471
f 475 442 434
f 440 438 475
f 475 438 442
f 411 410 408
f 408 410 409
f 408 409 407
f 442 435 434
f 447 448 446
f 440 439 438
f 446 476 445
f 446 445 443
f 443 447 446
f 452 455 454
f 454 455 456
f 453 451 452
f 459 458 457
f 450 455 452
f 458 461 457
f 452 451 450
f 457 461 460
f 405 466 464
f 466 465 464
f 462 460 461
f 460 462 463
f 467 405 464
f 438 403 437
f 438 439 403
f 445 444 443
f 429 428 427
f 468 464 465
f 445 449 444
f 402 437 403
f 424 423 441
f 426 421 425
f 421 422 425
f 423 424 422
f 423 422 421
f 403 399 402
f 402 399 400
f 399 398 397
f 400 399 397
f 401 400 397
f 494 495 493
f 496 495 494
f 497 495 496
f 497 552 495
f 553 552 497
f 494 493 492
f 488 487 486
f 551 553 484
f 500 499 498
f 510 500 498
f 511 500 510
f 486 487 485
f 507 508 513
f 507 513 516
f 516 513 515
f 486 485 484
f 515 513 514
f 547 484 485
f 514 513 512
f 555 514 512
f 549 484 547
f 550 484 549
f 551 484 550
f 552 553 554
f 553 519 554
f 519 553 551
f 555 522 514
f 520 518 555
f 555 518 522
f 491 490 488
f 488 490 489
f 488 489 487
f 522 515 514
f 527 528 526
f 520 519 518
f 526 556 525
f 526 525 523
f 523 527 526
f 532 535 534
f 534 535 536
f 533 531 532
f 539 538 537
f 530 535 532
f 538 541 537
f 532 531 530
f 537 541 540
f 485 546 544
f 546 545 544
f 542 540 541
f 540 542 543
f 547 485 544
f 518 483 517
f 518 519 483
f 525 524 523
f 509 508 507
f 548 544 545
f 525 529 524
f 482 517 483
f 504 503 521
f 506 501 505
f 501 502 505
f 503 504 502
f 503 502 501
f 483 479 482
f 482 479 480
f 479 478 477
f 480 479 477
f 481 480 477
f 694 693 692
f 698 697 696
f 695 693 694
f 705 703 704
f 701 700 699
f 704 703 702
f 707 708 709
f 708 707 706
f 712 711 710
f 710 711 713
f 721 719 720
f 720 719 718
f 725 723 724
f 724 723 722
f 630 629 628
f 629 631 628
f 583 642 643
f 632 631 629
f 632 633 631
f 634 633 632
f 635 633 634
f 615 614 613
f 616 614 615
f 616 617 614
f 618 617 616
f 643 642 641
f 664 663 662
f 582 642 583
f 582 644 642
f 665 663 664
f 665 664 668
f 687 691 659
f 687 690 691
f 690 687 686
f 668 664 659
f 670 668 659
f 585 573 584
f 584 573 571
f 573 572 571
f 666 664 662
f 636 640 639
f 640 636 638
f 638 636 637
f 637 636 635
f 635 636 633
f 651 650 649
f 652 651 649
f 653 651 652
f 654 653 652
f 655 653 654
f 655 654 656
f 589 689 685
f 725 727 723
f 723 727 726
f 621 620 618
f 618 619 617
f 618 620 619
f 645 646 644
f 645 647 646
f 716 719 721
f 719 716 717
f 645 648 647
f 712 714 711
f 645 644 582
f 680 686 687
f 680 687 659
f 664 666 667
f 664 667 669
f 664 669 659
f 680 681 686
f 589 685 683
f 717 716 715
f 727 728 726
f 624 623 622
f 680 659 688
f 659 669 661
f 661 660 659
f 659 660 658
f 659 658 657
f 680 688 679
f 681 680 679
f 591 590 589
f 591 589 678
f 589 683 678
f 596 597 598
f 594 597 596
f 595 593 594
f 592 597 594
f 600 603 599
f 601 600 599
f 594 593 592
f 609 607 608
f 599 603 602
f 610 607 609
f 673 672 671
f 672 673 674
f 588 587 586
f 677 676 675
f 684 682 683
f 683 682 678
f 604 602 603
f 602 604 605
f 608 607 606
f 624 625 623
f 627 623 625
f 581 582 583
f 610 611 607
f 612 611 610
f 627 625 626
f 569 568 567
f 568 570 581
f 568 569 570
f 579 574 578
f 574 575 578
f 576 577 575
f 576 575 574
f 582 581 580
f 581 570 580
f 559 558 557
f 566 563 565
f 565 563 564
f 560 558 559
f 560 561 558
f 564 563 562
f 562 563 561
f 562 561 560
f 734 736 735
f 736 737 735
f 732 733 730
f 733 734 730
f 734 735 730
f 731 732 730
f 731 730 729
f 755 756 754
f 757 756 755
f 758 756 757
f 758 813 756
f 814 813 758
f 755 754 753
f 749 748 747
f 812 814 745
f 761 760 759
f 771 761 759
f 772 761 771
f 747 748 746
f 768 769 774
f 768 774 777
f 777 774 776
f 747 746 745
f 776 774 775
f 808 745 746
f 775 774 773
f 816 775 773
f 810 745 808
f 811 745 810
f 812 745 811
f 813 814 815
f 814 780 815
f 780 814 812
f 816 783 775
f 781 779 816
f 816 779 783
f 752 751 749
f 749 751 750
f 749 750 748
f 783 776 775
f 788 789 787
f 781 780 779
f 787 817 786
f 787 786 784
f 784 788 787
f 793 796 795
f 795 796 797
f 794 792 793
f 800 799 798
f 791 796 793
f 799 802 798
f 793 792 791
f 798 802 801
f 746 807 805
f 807 806 805
f 803 801 802
f 801 803 804
f 808 746 805
f 779 744 778
f 779 780 744
f 786 785 784
f 770 769 768
f 809 805 806
f 786 790 785
f 743 778 744
f 765 764 782
f 767 762 766
f 762 763 766
f 764 765 763
f 764 763 762
f 744 740 743
f 743 740 741
f 740 739 738
f 741 740 738
f 742 741 738
f 835 836 834
f 837 836 835
f 838 836 837
f 838 893 836
f 894 893 838
f 835 834 833
f 829 828 827
f 892 894 825
f 841 840 839
f 851 841 839
f 852 841 851
f 827 828 826
f 848 849 854
f 848 854 857
f 857 854 856
f 827 826 825
f 856 854 855
f 888 825 826
f 855 854 853
f 896 855 853
f 890 825 888
f 891 825 890
f 892 825 891
f 893 894 895
f 894 860 895
f 860 894 892
f 896 863 855
f 861 859 896
f 896 859 863
f 832 831 829
f 829 831 830
f 829 830 828
f 863 856 855
f 868 869 867
f 861 860 859
f 867 897 866
f 867 866 864
f 864 868 867
f 873 876 875
f 875 876 877
f 874 872 873
f 880 879 878
f 871 876 873
f 879 882 878
f 873 872 871
f 878 882 881
f 826 887 885
f 887 886 885
f 883 881 882
f 881 883 884
f 888 826 885
f 859 824 858
f 859 860 824
f 866 865 864
f 850 849 848
f 889 885 886
f 866 870 865
f 823 858 824
f 845 844 862
f 847 842 846
f 842 843 846
f 844 845 843
f 844 843 842
f 824 820 823
f 823 820 821
f 820 819 818
f 821 820 818
f 822 821 818
f 1035 1034 1033
f 1039 1038 1037
f 1036 1034 1035
f 1046 1044 1045
f 1042 1041 1040
f 1045 1044 1043
f 1048 1049 1050
f 1049 1048 1047
f 1053 1052 1051
f 1051 1052 1054
f 1062 1060 1061
f 1061 1060 1059
f 1066 1064 1065
f 1065 1064 1063
f 971 970 969
f 970 972 969
f 924 983 984
f 973 972 970
f 973 974 972
f 975 974 973
f 976 974 975
f 956 955 954
f 957 955 956
f 957 958 955
f 959 958 957
f 984 983 982
f 1005 1004 1003
f 923 983 924
f 923 985 983
f 1006 1004 1005
f 1006 1005 1009
f 1028 1032 1000
f 1028 1031 1032
f 1031 1028 1027
f 1009 1005 1000
f 1011 1009 1000
f 926 914 925
f 925 914 912
f 914 913 912
f 1007 1005 1003
f 977 981 980
f 981 977 979
f 979 977 978
f 978 977 976
f 976 977 974
f 992 991 990
f 993 992 990
f 994 992 993
f 995 994 993
f 996 994 995
f 996 995 997
f 930 1030 1026
f 1066 1068 1064
f 1064 1068 1067
f 962 961 959
f 959 960 958
f 959 961 960
f 986 987 985
f 986 988 987
f 1057 1060 1062
f 1060 1057 1058
f 986 989 988
f 1053 1055 1052
f 986 985 923
f 1021 1027 1028
f 1021 1028 1000
f 1005 1007 1008
f 1005 1008 1010
f 1005 1010 1000
f 1021 1022 1027
f 930 1026 1024
f 1058 1057 1056
f 1068 1069 1067
f 965 964 963
f 1021 1000 1029
f 1000 1010 1002
f 1002 1001 1000
f 1000 1001 999
f 1000 999 998
f 1021 1029 1020
f 1022 1021 1020
f 932 931 930
f 932 930 1019
f 930 1024 1019
f 937 938 939
f 935 938 937
f 936 934 935
f 933 938 935
f 941 944 940
f 942 941 940
f 935 934 933
f 950 948 949
f 940 944 943
f 951 948 950
f 1014 1013 1012
f 1013 1014 1015
f 929 928 927
f 1018 1017 1016
f 1025 1023 1024
f 1024 1023 1019
f 945 943 944
f 943 945 946
f 949 948 947
f 965 966 964
f 968 964 966
f 922 923 924
f 951 952 948
f 953 952 951
f 968 966 967
f 910 909 908
f 909 911 922
f 909 910 911
f 920 915 919
f 915 916 919
f 917 918 916
f 917 916 915
f 923 922 921
f 922 911 921
f 900 899 898
f 907 904 906
f 906 904 905
f 901 899 900
f 901 902 899
f 905 904 903
f 903 904 902
f 903 902 901
f 1075 1077 1076
f 1077 1078 1076
f 1073 1074 1071
f 1074 1075 1071
f 1075 1076 1071
f 1072 1073 1071
f 1072 1071 1070
f 1112 1080 1079
f 1079 1111 1112
f 1144 1112 1111
f 1111 1143 1144
f 1176 1144 1143
f 1143 1175 1176
f 1208 1176 1175
f 1175 1207 1208
f 1240 1208 1207
f 1207 1239 1240
f 1272 1240 1239
f 1239 1271 1272
f 1304 1272 1271
f 1271 1303 1304
f 1336 1304 1303
f 1303 1335 1336
f 1368 1336 1335
f 1335 1367 1368
f 1400 1368 1367
f 1367 1399 1400
f 1432 1400 1399
f 1399 1431 1432
f 1464 1432 1431
f 1431 1463 1464
f 1496 1464 1463
f 1463 1495 1496
f 1528 1496 1495
f 1495 1527 1528
f 1560 1528 1527
f 1527 1559 1560
f 1592 1560 1559
f 1559 1591 1592
f 1624 1592 1591
f 1591 1623 1624
f 1656 1624 1623
f 1623 1655 1656
f 1688 1656 1655
f 1655 1687 1688
f 1720 1688 1687
f 1687 1719 1720
f 1752 1720 1719
f 1719 1751 1752
f 1784 1752 1751
f 1751 1783 1784
f 1816 1784 1783
f 1783 1815 1816
f 1848 1816 1815
f 1815 1847 1848
f 1880 1848 1847
f 1847 1879 1880
f 1912 1880 1879
f 1879 1911 1912
f 1944 1912 1911
f 1911 1943 1944
f 1976 1944 1943
f 1943 1975 1976
f 2008 1976 1975
f 1975 2007 2008
f 2040 2008 2007
f 2007 2039 2040
f 2072 2040 2039
f 2039 2071 2072
f 1113 1081 1080
f 1080 1112 1113
f 1145 1113 1112
f 1112 1144 1145
f 1177 1145 1144
f 1144 1176 1177
f 1209 1177 1176
f 1176 1208 1209
f 1241 1209 1208
f 1208 1240 1241
f 1273 1241 1240
f 1240 1272 1273
f 1305 1273 1272
f 1272 1304 1305
f 1337 1305 1304
f 1304 1336 1337
f 1369 1337 1336
f 1336 1368 1369
f 1401 1369 1368
f 1368 1400 1401
f 1433 1401 1400
f 1400 1432 1433
f 1465 1433 1432
f 1432 1464 1465
f 1497 1465 1464
f 1464 1496 1497
f 1529 1497 1496
f 1496 1528 1529
f 1561 1529 1528
f 1528 1560 1561
f 1593 1561 1560
f 1560 1592 1593
f 1625 1593 1592
f 1592 1624 1625
f 1657 1625 1624
f 1624 1656 1657
f 1689 1657 1656
f 1656 1688 1689
f 1721 1689 1688
f 1688 1720 1721
f 1753 1721 1720
f 1720 1752 1753
f 1785 1753 1752
f 1752 1784 1785
f 1817 1785 1784
f 1784 1816 1817
f 1849 1817 1816
f 1816 1848 1849
f 1881 1849 1848
f 1848 1880 1881
f 1913 1881 1880
f 1880 1912 1913
f 1945 1913 1912
f 1912 1944 1945
f 1977 1945 1944
f 1944 1976 1977
f 2009 1977 1976
f 1976 2008 2009
f 2041 2009 2008
f 2008 2040 2041
f 2073 2041 2040
f 2040 2072 2073
f 1114 1082 1081
f 1081 1113 1114
f 1146 1114 1113
f 1113 1145 1146
f 1178 1146 1145
f 1145 1177 1178
f 1210 1178 1177
f 1177 1209 1210
f 1242 1210 1209
f 1209 1241 1242
f 1274 1242 1241
f 1241 1273 1274
f 1306 1274 1273
f 1273 1305 1306
f 1338 1306 1305
f 1305 1337 1338
f 1370 1338 1337
f 1337 1369 1370
f 1402 1370 1369
f 1369 1401 1402
f 1434 1402 1401
f 1401 1433 1434
f 1466 1434 1433
f 1433 1465 1466
f 1498 1466 1465
f 1465 1497 1498
f 1530 1498 1497
f 1497 1529 1530
f 1562 1530 1529
f 1529 1561 1562
f 1594 1562 1561
f 1561 1593 1594
f 1626 1594 1593
f 1593 1625 1626
f 1658 1626 1625
f 1625 1657 1658
f 1690 1658 1657
f 1657 1689 1690
f 1722 1690 1689
f 1689 1721 1722
f 1754 1722 1721
f 1721 1753 1754
f 1786 1754 1753
f 1753 1785 1786
f 1818 1786 1785
f 1785 1817 1818
f 1850 1818 1817
f 1817 1849 1850
f 1882 1850 1849
f 1849 1881 1882
f 1914 1882 1881
f 1881 1913 1914
f 1946 1914 1913
f 1913 1945 1946
f 1978 1946 1945
f 1945 1977 1978
f 2010 1978 1977
f 1977 2009 2010
f 2042 2010 2009
f 2009 2041 2042
f 2074 2042 2041
f 2041 2073 2074
f 1115 1083 1082
f 1082 1114 1115
f 1147 1115 1114
f 1114 1146 1147
f 1179 1147 1146
f 1146 1178 1179
f 1211 1179 1178
f 1178 1210 1211
f 1243 1211 1210
f 1210 1242 1243
f 1275 1243 1242
f 1242 1274 1275
f 1307 1275 1274
f 1274 1306 1307
f 1339 1307 1306
f 1306 1338 1339
f 1371 1339 1338
f 1338 1370 1371
f 1403 1371 1370
f 1370 1402 1403
f 1435 1403 1402
f 1402 1434 1435
f 1467 1435 1434
f 1434 1466 1467
f 1499 1467 1466
f 1466 1498 1499
f 1531 1499 1498
f 1498 1530 1531
f 1563 1531 1530
f 1530 1562 1563
f 1595 1563 1562
f 1562 1594 1595
f 1627 1595 1594
f 1594 1626 1627
f 1659 1627 1626
f 1626 1658 1659
f 1691 1659 1658
f 1658 1690 1691
f 1723 1691 1690
f 1690 1722 1723
f 1755 1723 1722
f 1722 1754 1755
f 1787 1755 1754
f 1754 1786 1787
f 1819 1787 1786
f 1786 1818 1819
f 1851 1819 1818
f 1818 1850 1851
f 1883 1851 1850
f 1850 1882 1883
f 1915 1883 1882
f 1882 1914 1915
f 1947 1915 1914
f 1914 1946 1947
f 1979 1947 1946
f 1946 1978 1979
f 2011 1979 1978
f 1978 2010 2011
f 2043 2011 2010
f 2010 2042 2043
f 2075 2043 2042
f 2042 2074 2075
f 1116 1084 1083
f 1083 1115 1116
f 1148 1116 1115
f 1115 1147 1148
f 1180 1148 1147
f 1147 1179 1180
f 1212 1180 1179
f 1179 1211 1212
f 1244 1212 1211
f 1211 1243 1244
f 1276 1244 1243
f 1243 1275 1276
f 1308 1276 1275
f 1275 1307 1308
f 1340 1308 1307
f 1307 1339 1340
f 1372 1340 1339
f 1339 1371 1372
f 1404 1372 1371
f 1371 1403 1404
f 1436 1404 1403
f 1403 1435 1436
f 1468 1436 1435
f 1435 1467 1468
f 1500 1468 1467
f 1467 1499 1500
f 1532 1500 1499
f 1499 1531 1532
f 1564 1532 1531
f 1531 1563 1564
f 1596 1564 1563
f 1563 1595 1596
f 1628 1596 1595
f 1595 1627 1628
f 1660 1628 1627
f 1627 1659 1660
f 1692 1660 1659
f 1659 1691 1692
f 1724 1692 1691
f 1691 1723 1724
f 1756 1724 1723
f 1723 1755 1756
f 1788 1756 1755
f 1755 1787 1788
f 1820 1788 1787
f 1787 1819 1820
f 1852 1820 1819
f 1819 1851 1852
f 1884 1852 1851
f 1851 1883 1884
f 1916 1884 1883
f 1883 1915 1916
f 1948 1916 1915
f 1915 1947 1948
f 1980 1948 1947
f 1947 1979 1980
f 2012 1980 1979
f 1979 2011 2012
f 2044 2012 2011
f 2011 2043 2044
f 2076 2044 2043
f 2043 2075 2076
f 1117 1085 1084
f 1084 1116 1117
f 1149 1117 1116
f 1116 1148 1149
f 1181 1149 1148
f 1148 1180 1181
f 1213 1181 1180
f 1180 1212 1213
f 1245 1213 1212
f 1212 1244 1245
f 1277 1245 1244
f 1244 1276 1277
f 1309 1277 1276
f 1276 1308 1309
f 1341 1309 1308
f 1308 1340 1341
f 1373 1341 1340
f 1340 1372 1373
f 1405 1373 1372
f 1372 1404 1405
f 1437 1405 1404
f 1404 1436 1437
f 1469 1437 1436
f 1436 1468 1469
f 1501 1469 1468
f 1468 1500 1501
f 1533 1501 1500
f 1500 1532 1533
f 1565 1533 1532
f 1532 1564 1565
f 1597 1565 1564
f 1564 1596 1597
f 1629 1597 1596
f 1596 1628 1629
f 1661 1629 1628
f 1628 1660 1661
f 1693 1661 1660
f 1660 1692 1693
f 1725 1693 1692
f 1692 1724 1725
f 1757 1725 1724
f 1724 1756 1757
f 1789 1757 1756
f 1756 1788 1789
f 1821 1789 1788
f 1788 1820 1821
f 1853 1821 1820
f 1820 1852 1853
f 1885 1853 1852
f 1852 1884 1885
f 1917 1885 1884
f 1884 1916 1917
f 1949 1917 1916
f 1916 1948 1949
f 1981 1949 1948
f 1948 1980 1981
f 2013 1981 1980
f 1980 2012 2013
f 2045 2013 2012
f 2012 2044 2045
f 2077 2045 2044
f 2044 2076 2077
f 1118 1086 1085
f 1085 1117 1118
f 1150 1118 1117
f 1117 1149 1150
f 1182 1150 1149
f 1149 1181 1182
f 1214 1182 1181
f 1181 1213 1214
f 1246 1214 1213
f 1213 1245 1246
f 1278 1246 1245
f 1245 1277 1278
f 1310 1278 1277
f 1277 1309 1310
f 1342 1310 1309
f 1309 1341 1342
f 1374 1342 1341
f 1341 1373 1374
f 1406 1374 1373
f 1373 1405 1406
f 1438 1406 1405
f 1405 1437 1438
f 1470 1438 1437
f 1437 1469 1470
f 1502 1470 1469
f 1469 1501 1502
f 1534 1502 1501
f 1501 1533 1534
f 1566 1534 1533
f 1533 1565 1566
f 1598 1566 1565
f 1565 1597 1598
f 1630 1598 1597
f 1597 1629 1630
f 1662 1630 1629
f 1629 1661 1662
f 1694 1662 1661
f 1661 1693 1694
f 1726 1694 1693
f 1693 1725 1726
f 1758 1726 1725
f 1725 1757 1758
f 1790 1758 1757
f 1757 1789 1790
f 1822 1790 1789
f 1789 1821 1822
f 1854 1822 1821
f 1821 1853 1854
f 1886 1854 1853
f 1853 1885 1886
f 1918 1886 1885
f 1885 1917 1918
f 1950 1918 1917
f 1917 1949 1950
f 1982 1950 1949
f 1949 1981 1982
f 2014 1982 1981
f 1981 2013 2014
f 2046 2014 2013
f 2013 2045 2046
f 2078 2046 2045
f 2045 2077 2078
f 1119 1087 1086
f 1086 1118 1119
f 1151 1119 1118
f 1118 1150 1151
f 1183 1151 1150
f 1150 1182 1183
f 1215 1183 1182
f 1182 1214 1215
f 1247 1215 1214
f 1214 1246 1247
f 1279 1247 1246
f 1246 1278 1279
f 1311 1279 1278
f 1278 1310 1311
f 1343 1311 1310
f 1310 1342 1343
f 1375 1343 1342
f 1342 1374 1375
f 1407 1375 1374
f 1374 1406 1407
f 1439 1407 1406
f 1406 1438 1439
f 1471 1439 1438
f 1438 1470 1471
f 1503 1471 1470
f 1470 1502 1503
f 1535 1503 1502
f 1502 1534 1535
f 1567 1535 1534
f 1534 1566 1567
f 1599 1567 1566
f 1566 1598 1599
f 1631 1599 1598
f 1598 1630 1631
f 1663 1631 1630
f 1630 1662 1663
f 1695 1663 1662
f 1662 1694 1695
f 1727 1695 1694
f 1694 1726 1727
f 1759 1727 1726
f 1726 1758 1759
f 1791 1759 1758
f 1758 1790 1791
f 1823 1791 1790
f 1790 1822 1823
f 1855 1823 1822
f 1822 1854 1855
f 1887 1855 1854
f 1854 1886 1887
f 1919 1887 1886
f 1886 1918 1919
f 1951 1919 1918
f 1918 1950 1951
f 1983 1951 1950
f 1950 1982 1983
f 2015 1983 1982
f 1982 2014 2015
f 2047 2015 2014
f 2014 2046 2047
f 2079 2047 2046
f 2046 2078 2079
f 1120 1088 1087
f 1087 1119 1120
f 1152 1120 1119
f 1119 1151 1152
f 1184 1152 1151
f 1151 1183 1184
f 1216 1184 1183
f 1183 1215 1216
f 1248 1216 1215
f 1215 1247 1248
f 1280 1248 1247
f 1247 1279 1280
f 1312 1280 1279
f 1279 1311 1312
f 1344 1312 1311
f 1311 1343 1344
f 1376 1344 1343
f 1343 1375 1376
f 1408 1376 1375
f 1375 1407 1408
f 1440 1408 1407
f 1407 1439 1440
f 1472 1440 1439
f 1439 1471 1472
f 1504 1472 1471
f 1471 1503 1504
f 1536 1504 1503
f 1503 1535 1536
f 1568 1536 1535
f 1535 1567 1568
f 1600 1568 1567
f 1567 1599 1600
f 1632 1600 1599
f 1599 1631 1632
f 1664 1632 1631
f 1631 1663 1664
f 1696 1664 1663
f 1663 1695 1696
f 1728 1696 1695
f 1695 1727 1728
f 1760 1728 1727
f 1727 1759 1760
f 1792 1760 1759
f 1759 1791 1792
f 1824 1792 1791
f 1791 1823 1824
f 1856 1824 1823
f 1823 1855 1856
f 1888 1856 1855
f 1855 1887 1888
f 1920 1888 1887
f 1887 1919 1920
f 1952 1920 1919
f 1919 1951 1952
f 1984 1952 1951
f 1951 1983 1984
f 2016 1984 1983
f 1983 2015 2016
f 2048 2016 2015
f 2015 2047 2048
f 2080 2048 2047
f 2047 2079 2080
f 1121 1089 1088
f 1088 1120 1121
f 1153 1121 1120
f 1120 1152 1153
f 1185 1153 1152
f 1152 1184 1185
f 1217 1185 1184
f 1184 1216 1217
f 1249 1217 1216
f 1216 1248 1249
f 1281 1249 1248
f 1248 1280 1281
f 1313 1281 1280
f 1280 1312 1313
f 1345 1313 1312
f 1312 1344 1345
f 1377 1345 1344
f 1344 1376 1377
f 1409 1377 1376
f 1376 1408 1409
f 1441 1409 1408
f 1408 1440 1441
f 1473 1441 1440
f 1440 1472 1473
f 1505 1473 1472
f 1472 1504 1505
f 1537 1505 1504
f 1504 1536 1537
f 1569 1537 1536
f 1536 1568 1569
f 1601 1569 1568
f 1568 1600 1601
f 1633 1601 1600
f 1600 1632 1633
f 1665 1633 1632
f 1632 1664 1665
f 1697 1665 1664
f 1664 1696 1697
f 1729 1697 1696
f 1696 1728 1729
f 1761 1729 1728
f 1728 1760 1761
f 1793 1761 1760
f 1760 1792 1793
f 1825 1793 1792
f 1792 1824 1825
f 1857 1825 1824
f 1824 1856 1857
f 1889 1857 1856
f 1856 1888 1889
f 1921 1889 1888
f 1888 1920 1921
f 1953 1921 1920
f 1920 1952 1953
f 1985 1953 1952
f 1952 1984 1985
f 2017 1985 1984
f 1984 2016 2017
f 2049 2017 2016
f 2016 2048 2049
f 2081 2049 2048
f 2048 2080 2081
f 1122 1090 1089
f 1089 1121 1122
f 1154 1122 1121
f 1121 1153 1154
f 1186 1154 1153
f 1153 1185 1186
f 1218 1186 1185
f 1185 1217 1218
f 1250 1218 1217
f 1217 1249 1250
f 1282 1250 1249
f 1249 1281 1282
f 1314 1282 1281
f 1281 1313 1314
f 1346 1314 1313
f 1313 1345 1346
f 1378 1346 1345
f 1345 1377 1378
f 1410 1378 1377
f 1377 1409 1410
f 1442 1410 1409
f 1409 1441 1442
f 1474 1442 1441
f 1441 1473 1474
f 1506 1474 1473
f 1473 1505 1506
f 1538 1506 1505
f 1505 1537 1538
f 1570 1538 1537
f 1537 1569 1570
f 1602 1570 1569
f 1569 1601 1602
f 1634 1602 1601
f 1601 1633 1634
f 1666 1634 1633
f 1633 1665 1666
f 1698 1666 1665
f 1665 1697 1698
f 1730 1698 1697
f 1697 1729 1730
f 1762 1730 1729
f 1729 1761 1762
f 1794 1762 1761
f 1761 1793 1794
f 1826 1794 1793
f 1793 1825 1826
f 1858 1826 1825
f 1825 1857 1858
f 1890 1858 1857
f 1857 1889 1890
f 1922 1890 1889
f 1889 1921 1922
f 1954 1922 1921
f 1921 1953 1954
f 1986 1954 1953
f 1953 1985 1986
f 2018 1986 1985
f 1985 2017 2018
f 2050 2018 2017
f 2017 2049 2050
f 2082 2050 2049
f 2049 2081 2082
f 1123 1091 1090
f 1090 1122 1123
f 1155 1123 1122
f 1122 1154 1155
f 1187 1155 1154
f 1154 1186 1187
f 1219 1187 1186
f 1186 1218 1219
f 1251 1219 1218
f 1218 1250 1251
f 1283 1251 1250
f 1250 1282 1283
f 1315 1283 1282
f 1282 1314 1315
f 1347 1315 1314
f 1314 1346 1347
f 1379 1347 1346
f 1346 1378 1379
f 1411 1379 1378
f 1378 1410 1411
f 1443 1411 1410
f 1410 1442 1443
f 1475 1443 1442
f 1442 1474 1475
f 1507 1475 1474
f 1474 1506 1507
f 1539 1507 1506
f 1506 1538 1539
f 1571 1539 1538
f 1538 1570 1571
f 1603 1571 1570
f 1570 1602 1603
f 1635 1603 1602
f 1602 1634 1635
f 1667 1635 1634
f 1634 1666 1667
f 1699 1667 1666
f 1666 1698 1699
f 1731 1699 1698
f 1698 1730 1731
f 1763 1731 1730
f 1730 1762 1763
f 1795 1763 1762
f 1762 1794 1795
f 1827 1795 1794
f 1794 1826 1827
f 1859 1827 1826
f 1826 1858 1859
f 1891 1859 1858
f 1858 1890 1891
f 1923 1891 1890
f 1890 1922 1923
f 1955 1923 1922
f 1922 1954 1955
f 1987 1955 1954
f 1954 1986 1987
f 2019 1987 1986
f 1986 2018 2019
f 2051 2019 2018
f 2018 2050 2051
f 2083 2051 2050
f 2050 2082 2083
f 1124 1092 1091
f 1091 1123 1124
f 1156 1124 1123
f 1123 1155 1156
f 1188 1156 1155
f 1155 1187 1188
f 1220 1188 1187
f 1187 1219 1220
f 1252 1220 1219
f 1219 1251 1252
f 1284 1252 1251
f 1251 1283 1284
f 1316 1284 1283
f 1283 1315 1316
f 1348 1316 1315
f 1315 1347 1348
f 1380 1348 1347
f 1347 1379 1380
f 1412 1380 1379
f 1379 1411 1412
f 1444 1412 1411
f 1411 1443 1444
f 1476 1444 1443
f 1443 1475 1476
f 1508 1476 1475
f 1475 1507 1508
f 1540 1508 1507
f 1507 1539 1540
f 1572 1540 1539
f 1539 1571 1572
f 1604 1572 1571
f 1571 1603 1604
f 1636 1604 1603
f 1603 1635 1636
f 1668 1636 1635
f 1635 1667 1668
f 1700 1668 1667
f 1667 1699 1700
f 1732 1700 1699
f 1699 1731 1732
f 1764 1732 1731
f 1731 1763 1764
f 1796 1764 1763
f 1763 1795 1796
f 1828 1796 1795
f 1795 1827 1828
f 1860 1828 1827
f 1827 1859 1860
f 1892 1860 1859
f 1859 1891 1892
f 1924 1892 1891
f 1891 1923 1924
f 1956 1924 1923
f 1923 1955 1956
f 1988 1956 1955
f 1955 1987 1988
f 2020 1988 1987
f 1987 2019 2020
f 2052 2020 2019
f 2019 2051 2052
f 2084 2052 2051
f 2051 2083 2084
f 1125 1093 1092
f 1092 1124 1125
f 1157 1125 1124
f 1124 1156 1157
f 1189 1157 1156
f 1156 1188 1189
f 1221 1189 1188
f 1188 1220 1221
f 1253 1221 1220
f 1220 1252 1253
f 1285 1253 1252
f 1252 1284 1285
f 1317 1285 1284
f 1284 1316 1317
f 1349 1317 1316
f 1316 1348 1349
f 1381 1349 1348
f 1348 1380 1381
f 1413 1381 1380
f 1380 1412 1413
f 1445 1413 1412
f 1412 1444 1445
f 1477 1445 1444
f 1444 1476 1477
f 1509 1477 1476
f 1476 1508 1509
f 1541 1509 1508
f 1508 1540 1541
f 1573 1541 1540
f 1540 1572 1573
f 1605 1573 1572
f 1572 1604 1605
f 1637 1605 1604
f 1604 1636 1637
f 1669 1637 1636
f 1636 1668 1669
f 1701 1669 1668
f 1668 1700 1701
f 1733 1701 1700
f 1700 1732 1733
f 1765 1733 1732
f 1732 1764 1765
f 1797 1765 1764
f 1764 1796 1797
f 1829 1797 1796
f 1796 1828 1829
f 1861 1829 1828
f 1828 1860 1861
f 1893 1861 1860
f 1860 1892 1893
f 1925 1893 1892
f 1892 1924 1925
f 1957 1925 1924
f 1924 1956 1957
f 1989 1957 1956
f 1956 1988 1989
f 2021 1989 1988
f 1988 2020 2021
f 2053 2021 2020
f 2020 2052 2053
f 2085 2053 2052
f 2052 2084 2085
f 1126 1094 1093
f 1093 1125 1126
f 1158 1126 1125
f 1125 1157 1158
f 1190 1158 1157
f 1157 1189 1190
f 1222 1190 1189
f 1189 1221 1222
f 1254 1222 1221
f 1221 1253 1254
f 1286 1254 1253
f 1253 1285 1286
f 1318 1286 1285
f 1285 1317 1318
f 1350 1318 1317
f 1317 1349 1350
f 1382 1350 1349
f 1349 1381 1382
f 1414 1382 1381
f 1381 1413 1414
f 1446 1414 1413
f 1413 1445 1446
f 1478 1446 1445
f 1445 1477 1478
f 1510 1478 1477
f 1477 1509 1510
f 1542 1510 1509
f 1509 1541 1542
f 1574 1542 1541
f 1541 1573 1574
f 1606 1574 1573
f 1573 1605 1606
f 1638 1606 1605
f 1605 1637 1638
f 1670 1638 1637
f 1637 1669 1670
f 1702 1670 1669
f 1669 1701 1702
f 1734 1702 1701
f 1701 1733 1734
f 1766 1734 1733
f 1733 1765 1766
f 1798 1766 1765
f 1765 1797 1798
f 1830 1798 1797
f 1797 1829 1830
f 1862 1830 1829
f 1829 1861 1862
f 1894 1862 1861
f 1861 1893 1894
f 1926 1894 1893
f 1893 1925 1926
f 1958 1926 1925
f 1925 1957 1958
f 1990 1958 1957
f 1957 1989 1990
f 2022 1990 1989
f 1989 2021 2022
f 2054 2022 2021
f 2021 2053 2054
f 2086 2054 2053
f 2053 2085 2086
f 1127 1095 1094
f 1094 1126 1127
f 1159 1127 1126
f 1126 1158 1159
f 1191 1159 1158
f 1158 1190 1191
f 1223 1191 1190
f 1190 1222 1223
f 1255 1223 1222
f 1222 1254 1255
f 1287 1255 1254
f 1254 1286 1287
f 1319 1287 1286
f 1286 1318 1319
f 1351 1319 1318
f 1318 1350 1351
f 1383 1351 1350
f 1350 1382 1383
f 1415 1383 1382
f 1382 1414 1415
f 1447 1415 1414
f 1414 1446 1447
f 1479 1447 1446
f 1446 1478 1479
f 1511 1479 1478
f 1478 1510 1511
f 1543 1511 1510
f 1510 1542 1543
f 1575 1543 1542
f 1542 1574 1575
f 1607 1575 1574
f 1574 1606 1607
f 1639 1607 1606
f 1606 1638 1639
f 1671 1639 1638
f 1638 1670 1671
f 1703 1671 1670
f 1670 1702 1703
f 1735 1703 1702
f 1702 1734 1735
f 1767 1735 1734
f 1734 1766 1767
f 1799 1767 1766
f 1766 1798 1799
f 1831 1799 1798
f 1798 1830 1831
f 1863 1831 1830
f 1830 1862 1863
f 1895 1863 1862
f 1862 1894 1895
f 1927 1895 1894
f 1894 1926 1927
f 1959 1927 1926
f 1926 1958 1959
f 1991 1959 1958
f 1958 1990 1991
f 2023 1991 1990
f 1990 2022 2023
f 2055 2023 2022
f 2022 2054 2055
f 2087 2055 2054
f 2054 2086 2087
f 1128 1096 1095
f 1095 1127 1128
f 1160 1128 1127
f 1127 1159 1160
f 1192 1160 1159
f 1159 1191 1192
f 1224 1192 1191
f 1191 1223 1224
f 1256 1224 1223
f 1223 1255 1256
f 1288 1256 1255
f 1255 1287 1288
f 1320 1288 1287
f 1287 1319 1320
f 1352 1320 1319
f 1319 1351 1352
f 1384 1352 1351
f 1351 1383 1384
f 1416 1384 1383
f 1383 1415 1416
f 1448 1416 1415
f 1415 1447 1448
f 1480 1448 1447
f 1447 1479 1480
f 1512 1480 1479
f 1479 1511 1512
f 1544 1512 1511
f 1511 1543 1544
f 1576 1544 1543
f 1543 1575 1576
f 1608 1576 1575
f 1575 1607 1608
f 1640 1608 1607
f 1607 1639 1640
f 1672 1640 1639
f 1639 1671 1672
f 1704 1672 1671
f 1671 1703 1704
f 1736 1704 1703
f 1703 1735 1736
f 1768 1736 1735
f 1735 1767 1768
f 1800 1768 1767
f 1767 1799 1800
f 1832 1800 1799
f 1799 1831 1832
f 1864 1832 1831
f 1831 1863 1864
f 1896 1864 1863
f 1863 1895 1896
f 1928 1896 1895
f 1895 1927 1928
f 1960 1928 1927
f 1927 1959 1960
f 1992 1960 1959
f 1959 1991 1992
f 2024 1992 1991
f 1991 2023 2024
f 2056 2024 2023
f 2023 2055 2056
f 2088 2056 2055
f 2055 2087 2088
f 1129 1097 1096
f 1096 1128 1129
f 1161 1129 1128
f 1128 1160 1161
f 1193 1161 1160
f 1160 1192 1193
f 1225 1193 1192
f 1192 1224 1225
f 1257 1225 1224
f 1224 1256 1257
f 1289 1257 1256
f 1256 1288 1289
f 1321 1289 1288
f 1288 1320 1321
f 1353 1321 1320
f 1320 1352 1353
f 1385 1353 1352
f 1352 1384 1385
f 1417 1385 1384
f 1384 1416 1417
f 1449 1417 1416
f 1416 1448 1449
f 1481 1449 1448
f 1448 1480 1481
f 1513 1481 1480
f 1480 1512 1513
f 1545 1513 1512
f 1512 1544 1545
f 1577 1545 1544
f 1544 1576 1577
f 1609 1577 1576
f 1576 1608 1609
f 1641 1609 1608
f 1608 1640 1641
f 1673 1641 1640
f 1640 1672 1673
f 1705 1673 1672
f 1672 1704 1705
f 1737 1705 1704
f 1704 1736 1737
f 1769 1737 1736
f 1736 1768 1769
f 1801 1769 1768
f 1768 1800 1801
f 1833 1801 1800
f 1800 1832 1833
f 1865 1833 1832
f 1832 1864 1865
f 1897 1865 1864
f 1864 1896 1897
f 1929 1897 1896
f 1896 1928 1929
f 1961 1929 1928
f 1928 1960 1961
f 1993 1961 1960
f 1960 1992 1993
f 2025 1993 1992
f 1992 2024 2025
f 2057 2025 2024
f 2024 2056 2057
f 2089 2057 2056
f 2056 2088 2089
f 1130 1098 1097
f 1097 1129 1130
f 1162 1130 1129
f 1129 1161 1162
f 1194 1162 1161
f 1161 1193 1194
f 1226 1194 1193
f 1193 1225 1226
f 1258 1226 1225
f 1225 1257 1258
f 1290 1258 1257
f 1257 1289 1290
f 1322 1290 1289
f 1289 1321 1322
f 1354 1322 1321
f 1321 1353 1354
f 1386 1354 1353
f 1353 1385 1386
f 1418 1386 1385
f 1385 1417 1418
f 1450 1418 1417
f 1417 1449 1450
f 1482 1450 1449
f 1449 1481 1482
f 1514 1482 1481
f 1481 1513 1514
f 1546 1514 1513
f 1513 1545 1546
f 1578 1546 1545
f 1545 1577 1578
f 1610 1578 1577
f 1577 1609 1610
f 1642 1610 1609
f 1609 1641 1642
f 1674 1642 1641
f 1641 1673 1674
f 1706 1674 1673
f 1673 1705 1706
f 1738 1706 1705
f 1705 1737 1738
f 1770 1738 1737
f 1737 1769 1770
f 1802 1770 1769
f 1769 1801 1802
f 1834 1802 1801
f 1801 1833 1834
f 1866 1834 1833
f 1833 1865 1866
f 1898 1866 1865
f 1865 1897 1898
f 1930 1898 1897
f 1897 1929 1930
f 1962 1930 1929
f 1929 1961 1962
f 1994 1962 1961
f 1961 1993 1994
f 2026 1994 1993
f 1993 2025 2026
f 2058 2026 2025
f 2025 2057 2058
f 2090 2058 2057
f 2057 2089 2090
f 1131 1099 1098
f 1098 1130 1131
f 1163 1131 1130
f 1130 1162 1163
f 1195 1163 1162
f 1162 1194 1195
f 1227 1195 1194
f 1194 1226 1227
f 1259 1227 1226
f 1226 1258 1259
f 1291 1259 1258
f 1258 1290 1291
f 1323 1291 1290
f 1290 1322 1323
f 1355 1323 1322
f 1322 1354 1355
f 1387 1355 1354
f 1354 1386 1387
f 1419 1387 1386
f 1386 1418 1419
f 1451 1419 1418
f 1418 1450 1451
f 1483 1451 1450
f 1450 1482 1483
f 1515 1483 1482
f 1482 1514 1515
f 1547 1515 1514
f 1514 1546 1547
f 1579 1547 1546
f 1546 1578 1579
f 1611 1579 1578
f 1578 1610 1611
f 1643 1611 1610
f 1610 1642 1643
f 1675 1643 1642
f 1642 1674 1675
f 1707 1675 1674
f 1674 1706 1707
f 1739 1707 1706
f 1706 1738 1739
f 1771 1739 1738
f 1738 1770 1771
f 1803 1771 1770
f 1770 1802 1803
f 1835 1803 1802
f 1802 1834 1835
f 1867 1835 1834
f 1834 1866 1867
f 1899 1867 1866
f 1866 1898 1899
f 1931 1899 1898
f 1898 1930 1931
f 1963 1931 1930
f 1930 1962 1963
f 1995 1963 1962
f 1962 1994 1995
f 2027 1995 1994
f 1994 2026 2027
f 2059 2027 2026
f 2026 2058 2059
f 2091 2059 2058
f 2058 2090 2091
f 1132 1100 1099
f 1099 1131 1132
f 1164 1132 1131
f 1131 1163 1164
f 1196 1164 1163
f 1163 1195 1196
f 1228 1196 1195
f 1195 1227 1228
f 1260 1228 1227
f 1227 1259 1260
f 1292 1260 1259
f 1259 1291 1292
f 1324 1292 1291
f 1291 1323 1324
f 1356 1324 1323
f 1323 1355 1356
f 1388 1356 1355
f 1355 1387 1388
f 1420 1388 1387
f 1387 1419 1420
f 1452 1420 1419
f 1419 1451 1452
f 1484 1452 1451
f 1451 1483 1484
f 1516 1484 1483
f 1483 1515 1516
f 1548 1516 1515
f 1515 1547 1548
f 1580 1548 1547
f 1547 1579 1580
f 1612 1580 1579
f 1579 1611 1612
f 1644 1612 1611
f 1611 1643 1644
f 1676 1644 1643
f 1643 1675 1676
f 1708 1676 1675
f 1675 1707 1708
f 1740 1708 1707
f 1707 1739 1740
f 1772 1740 1739
f 1739 1771 1772
f 1804 1772 1771
f 1771 1803 1804
f 1836 1804 1803
f 1803 1835 1836
f 1868 1836 1835
f 1835 1867 1868
f 1900 1868 1867
f 1867 1899 1900
f 1932 1900 1899
f 1899 1931 1932
f 1964 1932 1931
f 1931 1963 1964
f 1996 1964 1963
f 1963 1995 1996
f 2028 1996 1995
f 1995 2027 2028
f 2060 2028 2027
f 2027 2059 2060
f 2092 2060 2059
f 2059 2091 2092
f 1133 1101 1100
f 1100 1132 1133
f 1165 1133 1132
f 1132 1164 1165
f 1197 1165 1164
f 1164 1196 1197
f 1229 1197 1196
f 1196 1228 1229
f 1261 1229 1228
f 1228 1260 1261
f 1293 1261 1260
f 1260 1292 1293
f 1325 1293 1292
f 1292 1324 1325
f 1357 1325 1324
f 1324 1356 1357
f 1389 1357 1356
f 1356 1388 1389
f 1421 1389 1388
f 1388 1420 1421
f 1453 1421 1420
f 1420 1452 1453
f 1485 1453 1452
f 1452 1484 1485
f 1517 1485 1484
f 1484 1516 1517
f 1549 1517 1516
f 1516 1548 1549
f 1581 1549 1548
f 1548 1580 1581
f 1613 1581 1580
f 1580 1612 1613
f 1645 1613 1612
f 1612 1644 1645
f 1677 1645 1644
f 1644 1676 1677
f 1709 1677 1676
f 1676 1708 1709
f 1741 1709 1708
f 1708 1740 1741
f 1773 1741 1740
f 1740 1772 1773
f 1805 1773 1772
f 1772 1804 1805
f 1837 1805 1804
f 1804 1836 1837
f 1869 1837 1836
f 1836 1868 1869
f 1901 1869 1868
f 1868 1900 1901
f 1933 1901 1900
f 1900 1932 1933
f 1965 1933 1932
f 1932 1964 1965
f 1997 1965 1964
f 1964 1996 1997
f 2029 1997 1996
f 1996 2028 2029
f 2061 2029 2028
f 2028 2060 2061
f 2093 2061 2060
f 2060 2092 2093
f 1134 1102 1101
f 1101 1133 1134
f 1166 1134 1133
f 1133 1165 1166
f 1198 1166 1165
f 1165 1197 1198
f 1230 1198 1197
f 1197 1229 1230
f 1262 1230 1229
f 1229 1261 1262
f 1294 1262 1261
f 1261 1293 1294
f 1326 1294 1293
f 1293 1325 1326
f 1358 1326 1325
f 1325 1357 1358
f 1390 1358 1357
f 1357 1389 1390
f 1422 1390 1389
f 1389 1421 1422
f 1454 1422 1421
f 1421 1453 1454
f 1486 1454 1453
f 1453 1485 1486
f 1518 1486 1485
f 1485 1517 1518
f 1550 1518 1517
f 1517 1549 1550
f 1582 1550 1549
f 1549 1581 1582
f 1614 1582 1581
f 1581 1613 1614
f 1646 1614 1613
f 1613 1645 1646
f 1678 1646 1645
f 1645 1677 1678
f 1710 1678 1677
f 1677 1709 1710
f 1742 1710 1709
f 1709 1741 1742
f 1774 1742 1741
f 1741 1773 1774
f 1806 1774 1773
f 1773 1805 1806
f 1838 1806 1805
f 1805 1837 1838
f 1870 1838 1837
f 1837 1869 1870
f 1902 1870 1869
f 1869 1901 1902
f 1934 1902 1901
f 1901 1933 1934
f 1966 1934 1933
f 1933 1965 1966
f 1998 1966 1965
f 1965 1997 1998
f 2030 1998 1997
f 1997 2029 2030
f 2062 2030 2029
f 2029 2061 2062
f 2094 2062 2061
f 2061 2093 2094
f 1135 1103 1102
f 1102 1134 1135
f 1167 1135 1134
f 1134 1166 1167
f 1199 1167 1166
f 1166 1198 1199
f 1231 1199 1198
f 1198 1230 1231
f 1263 1231 1230
f 1230 1262 1263
f 1295 1263 1262
f 1262 1294 1295
f 1327 1295 1294
f 1294 1326 1327
f 1359 1327 1326
f 1326 1358 1359
f 1391 1359 1358
f 1358 1390 1391
f 1423 1391 1390
f 1390 1422 1423
f 1455 1423 1422
f 1422 1454 1455
f 1487 1455 1454
f 1454 1486 1487
f 1519 1487 1486
f 1486 1518 1519
f 1551 1519 1518
f 1518 1550 1551
f 1583 1551 1550
f 1550 1582 1583
f 1615 1583 1582
f 1582 1614 1615
f 1647 1615 1614
f 1614 1646 1647
f 1679 1647 1646
f 1646 1678 1679
f 1711 1679 1678
f 1678 1710 1711
f 1743 1711 1710
f 1710 1742 1743
f 1775 1743 1742
f 1742 1774 1775
f 1807 1775 1774
f 1774 1806 1807
f 1839 1807 1806
f 1806 1838 1839
f 1871 1839 1838
f 1838 1870 1871
f 1903 1871 1870
f 1870 1902 1903
f 1935 1903 1902
f 1902 1934 1935
f 1967 1935 1934
f 1934 1966 1967
f 1999 1967 1966
f 1966 1998 1999
f 2031 1999 1998
f 1998 2030 2031
f 2063 2031 2030
f 2030 2062 2063
f 2095 2063 2062
f 2062 2094 2095
f 1136 1104 1103
f 1103 1135 1136
f 1168 1136 1135
f 1135 1167 1168
f 1200 1168 1167
f 1167 1199 1200
f 1232 1200 1199
f 1199 1231 1232
f 1264 1232 1231
f 1231 1263 1264
f 1296 1264 1263
f 1263 1295 1296
f 1328 1296 1295
f 1295 1327 1328
f 1360 1328 1327
f 1327 1359 1360
f 1392 1360 1359
f 1359 1391 1392
f 1424 1392 1391
f 1391 1423 1424
f 1456 1424 1423
f 1423 1455 1456
f 1488 1456 1455
f 1455 1487 1488
f 1520 1488 1487
f 1487 1519 1520
f 1552 1520 1519
f 1519 1551 1552
f 1584 1552 1551
f 1551 1583 1584
f 1616 1584 1583
f 1583 1615 1616
f 1648 1616 1615
f 1615 1647 1648
f 1680 1648 1647
f 1647 1679 1680
f 1712 1680 1679
f 1679 1711 1712
f 1744 1712 1711
f 1711 1743 1744
f 1776 1744 1743
f 1743 1775 1776
f 1808 1776 1775
f 1775 1807 1808
f 1840 1808 1807
f 1807 1839 1840
f 1872 1840 1839
f 1839 1871 1872
f 1904 1872 1871
f 1871 1903 1904
f 1936 1904 1903
f 1903 1935 1936
f 1968 1936 1935
f 1935 1967 1968
f 2000 1968 1967
f 1967 1999 2000
f 2032 2000 1999
f 1999 2031 2032
f 2064 2032 2031
f 2031 2063 2064
f 2096 2064 2063
f 2063 2095 2096
f 1137 1105 1104
f 1104 1136 1137
f 1169 1137 1136
f 1136 1168 1169
f 1201 1169 1168
f 1168 1200 1201
f 1233 1201 1200
f 1200 1232 1233
f 1265 1233 1232
f 1232 1264 1265
f 1297 1265 1264
f 1264 1296 1297
f 1329 1297 1296
f 1296 1328 1329
f 1361 1329 1328
f 1328 1360 1361
f 1393 1361 1360
f 1360 1392 1393
f 1425 1393 1392
f 1392 1424 1425
f 1457 1425 1424
f 1424 1456 1457
f 1489 1457 1456
f 1456 1488 1489
f 1521 1489 1488
f 1488 1520 1521
f 1553 1521 1520
f 1520 1552 1553
f 1585 1553 1552
f 1552 1584 1585
f 1617 1585 1584
f 1584 1616 1617
f 1649 1617 1616
f 1616 1648 1649
f 1681 1649 1648
f 1648 1680 1681
f 1713 1681 1680
f 1680 1712 1713
f 1745 1713 1712
f 1712 1744 1745
f 1777 1745 1744
f 1744 1776 1777
f 1809 1777 1776
f 1776 1808 1809
f 1841 1809 1808
f 1808 1840 1841
f 1873 1841 1840
f 1840 1872 1873
f 1905 1873 1872
f 1872 1904 1905
f 1937 1905 1904
f 1904 1936 1937
f 1969 1937 1936
f 1936 1968 1969
f 2001 1969 1968
f 1968 2000 2001
f 2033 2001 2000
f 2000 2032 2033
f 2065 2033 2032
f 2032 2064 2065
f 2097 2065 2064
f 2064 2096 2097
f 1138 1106 1105
f 1105 1137 1138
f 1170 1138 1137
f 1137 1169 1170
f 1202 1170 1169
f 1169 1201 1202
f 1234 1202 1201
f 1201 1233 1234
f 1266 1234 1233
f 1233 1265 1266
f 1298 1266 1265
f 1265 1297 1298
f 1330 1298 1297
f 1297 1329 1330
f 1362 1330 1329
f 1329 1361 1362
f 1394 1362 1361
f 1361 1393 1394
f 1426 1394 1393
f 1393 1425 1426
f 1458 1426 1425
f 1425 1457 1458
f 1490 1458 1457
f 1457 1489 1490
f 1522 1490 1489
f 1489 1521 1522
f 1554 1522 1521
f 1521 1553 1554
f 1586 1554 1553
f 1553 1585 1586
f 1618 1586 1585
f 1585 1617 1618
f 1650 1618 1617
f 1617 1649 1650
f 1682 1650 1649
f 1649 1681 1682
f 1714 1682 1681
f 1681 1713 1714
f 1746 1714 1713
f 1713 1745 1746
f 1778 1746 1745
f 1745 1777 1778
f 1810 1778 1777
f 1777 1809 1810
f 1842 1810 1809
f 1809 1841 1842
f 1874 1842 1841
f 1841 1873 1874
f 1906 1874 1873
f 1873 1905 1906
f 1938 1906 1905
f 1905 1937 1938
f 1970 1938 1937
f 1937 1969 1970
f 2002 1970 1969
f 1969 2001 2002
f 2034 2002 2001
f 2001 2033 2034
f 2066 2034 2033
f 2033 2065 2066
f 2098 2066 2065
f 2065 2097 2098
f 1139 1107 1106
f 1106 1138 1139
f 1171 1139 1138
f 1138 1170 1171
f 1203 1171 1170
f 1170 1202 1203
f 1235 1203 1202
f 1202 1234 1235
f 1267 1235 1234
f 1234 1266 1267
f 1299 1267 1266
f 1266 1298 1299
f 1331 1299 1298
f 1298 1330 1331
f 1363 1331 1330
f 1330 1362 1363
f 1395 1363 1362
f 1362 1394 1395
f 1427 1395 1394
f 1394 1426 1427
f 1459 1427 1426
f 1426 1458 1459
f 1491 1459 1458
f 1458 1490 1491
f 1523 1491 1490
f 1490 1522 1523
f 1555 1523 1522
f 1522 1554 1555
f 1587 1555 1554
f 1554 1586 1587
f 1619 1587 1586
f 1586 1618 1619
f 1651 1619 1618
f 1618 1650 1651
f 1683 1651 1650
f 1650 1682 1683
f 1715 1683 1682
f 1682 1714 1715
f 1747 1715 1714
f 1714 1746 1747
f 1779 1747 1746
f 1746 1778 1779
f 1811 1779 1778
f 1778 1810 1811
f 1843 1811 1810
f 1810 1842 1843
f 1875 1843 1842
f 1842 1874 1875
f 1907 1875 1874
f 1874 1906 1907
f 1939 1907 1906
f 1906 1938 1939
f 1971 1939 1938
f 1938 1970 1971
f 2003 1971 1970
f 1970 2002 2003
f 2035 2003 2002
f 2002 2034 2035
f 2067 2035 2034
f 2034 2066 2067
f 2099 2067 2066
f 2066 2098 2099
f 1140 1108 1107
f 1107 1139 1140
f 1172 1140 1139
f 1139 1171 1172
f 1204 1172 1171
f 1171 1203 1204
f 1236 1204 1203
f 1203 1235 1236
f 1268 1236 1235
f 1235 1267 1268
f 1300 1268 1267
f 1267 1299 1300
f 1332 1300 1299
f 1299 1331 1332
f 1364 1332 1331
f 1331 1363 1364
f 1396 1364 1363
f 1363 1395 1396
f 1428 1396 1395
f 1395 1427 1428
f 1460 1428 1427
f 1427 1459 1460
f 1492 1460 1459
f 1459 1491 1492
f 1524 1492 1491
f 1491 1523 1524
f 1556 1524 1523
f 1523 1555 1556
f 1588 1556 1555
f 1555 1587 1588
f 1620 1588 1587
f 1587 1619 1620
f 1652 1620 1619
f 1619 1651 1652
f 1684 1652 1651
f 1651 1683 1684
f 1716 1684 1683
f 1683 1715 1716
f 1748 1716 1715
f 1715 1747 1748
f 1780 1748 1747
f 1747 1779 1780
f 1812 1780 1779
f 1779 1811 1812
f 1844 1812 1811
f 1811 1843 1844
f 1876 1844 1843
f 1843 1875 1876
f 1908 1876 1875
f 1875 1907 1908
f 1940 1908 1907
f 1907 1939 1940
f 1972 1940 1939
f 1939 1971 1972
f 2004 1972 1971
f 1971 2003 2004
f 2036 2004 2003
f 2003 2035 2036
f 2068 2036 2035
f 2035 2067 2068
f 2100 2068 2067
f 2067 2099 2100
f 1141 1109 1108
f 1108 1140 1141
f 1173 1141 1140
f 1140 1172 1173
f 1205 1173 1172
f 1172 1204 1205
f 1237 1205 1204
f 1204 1236 1237
f 1269 1237 1236
f 1236 1268 1269
f 1301 1269 1268
f 1268 1300 1301
f 1333 1301 1300
f 1300 1332 1333
f 1365 1333 1332
f 1332 1364 1365
f 1397 1365 1364
f 1364 1396 1397
f 1429 1397 1396
f 1396 1428 1429
f 1461 1429 1428
f 1428 1460 1461
f 1493 1461 1460
f 1460 1492 1493
f 1525 1493 1492
f 1492 1524 1525
f 1557 1525 1524
f 1524 1556 1557
f 1589 1557 1556
f 1556 1588 1589
f 1621 1589 1588
f 1588 1620 1621
f 1653 1621 1620
f 1620 1652 1653
f 1685 1653 1652
f 1652 1684 1685
f 1717 1685 1684
f 1684 1716 1717
f 1749 1717 1716
f 1716 1748 1749
f 1781 1749 1748
f 1748 1780 1781
f 1813 1781 1780
f 1780 1812 1813
f 1845 1813 1812
f 1812 1844 1845
f 1877 1845 1844
f 1844 1876 1877
f 1909 1877 1876
f 1876 1908 1909
f 1941 1909 1908
f 1908 1940 1941
f 1973 1941 1940
f 1940 1972 1973
f 2005 1973 1972
f 1972 2004 2005
f 2037 2005 2004
f 2004 2036 2037
f 2069 2037 2036
f 2036 2068 2069
f 2101 2069 2068
f 2068 2100 2101
f 1142 1110 1109
f 1109 1141 1142
f 1174 1142 1141
f 1141 1173 1174
f 1206 1174 1173
f 1173 1205 1206
f 1238 1206 1205
f 1205 1237 1238
f 1270 1238 1237
f 1237 1269 1270
f 1302 1270 1269
f 1269 1301 1302
f 1334 1302 1301
f 1301 1333 1334
f 1366 1334 1333
f 1333 1365 1366
f 1398 1366 1365
f 1365 1397 1398
f 1430 1398 1397
f 1397 1429 1430
f 1462 1430 1429
f 1429 1461 1462
f 1494 1462 1461
f 1461 1493 1494
f 1526 1494 1493
f 1493 1525 1526
f 1558 1526 1525
f 1525 1557 1558
f 1590 1558 1557
f 1557 1589 1590
f 1622 1590 1589
f 1589 1621 1622
f 1654 1622 1621
f 1621 1653 1654
f 1686 1654 1653
f 1653 1685 1686
f 1718 1686 1685
f 1685 1717 1718
f 1750 1718 1717
f 1717 1749 1750
f 1782 1750 1749
f 1749 1781 1782
f 1814 1782 1781
f 1781 1813 1814
f 1846 1814 1813
f 1813 1845 1846
f 1878 1846 1845
f 1845 1877 1878
f 1910 1878 1877
f 1877 1909 1910
f 1942 1910 1909
f 1909 1941 1942
f 1974 1942 1941
f 1941 1973 1974
f 2006 1974 1973
f 1973 2005 2006
f 2038 2006 2005
f 2005 2037 2038
f 2070 2038 2037
f 2037 2069 2070
f 2102 2070 2069
f 2069 2101 2102
