v 3779.9 74.9732 4473.06
v 3779.84 83.3376 4473.16
v 3779.63 74.9732 4473.06
v 3779.69 83.3376 4473.16
v 3779.49 74.9732 4473.29
v 3779.61 83.3376 4473.29
v 3779.62 74.9732 4473.53
v 3779.68 83.3376 4473.43
v 3779.62 74.9732 4473.53
v 3779.68 83.3376 4473.43
v 3779.9 74.9732 4473.53
v 3779.84 83.3376 4473.43
v 3780.03 74.9732 4473.3
v 3779.92 83.3376 4473.29
v 3780.27 72.4777 4472.79
v 3780.27 74.656 4472.79
v 3779.26 72.4777 4472.78
v 3779.26 74.656 4472.78
v 3780.27 74.656 4472.79
v 3780.27 74.656 4473.81
v 3779.26 74.656 4472.78
v 3779.25 74.656 4473.8
v 3780.27 74.656 4473.81
v 3780.27 72.4777 4473.81
v 3779.25 74.656 4473.8
v 3779.25 72.4777 4473.8
v 3779.26 72.4777 4472.78
v 3779.26 74.656 4472.78
v 3779.25 72.4777 4473.8
v 3779.25 74.656 4473.8
v 3780.27 72.4777 4473.81
v 3780.27 74.656 4473.81
v 3780.27 72.4777 4472.79
v 3780.27 74.656 4472.79
v 3779.4 83.9959 4472.93
v 3779.4 83.5553 4472.93
v 3780.13 83.9959 4472.93
v 3780.13 83.5552 4472.93
v 3779.4 83.5553 4472.93
v 3779.39 83.5553 4473.66
v 3780.13 83.5552 4472.93
v 3780.12 83.5553 4473.66
v 3779.39 83.9959 4473.66
v 3780.12 83.9959 4473.66
v 3779.39 83.5553 4473.66
v 3780.12 83.5553 4473.66
v 3780.13 83.9959 4472.93
v 3780.13 83.5552 4472.93
v 3780.12 83.9959 4473.66
v 3780.12 83.5553 4473.66
v 3779.39 83.9959 4473.66
v 3779.39 83.5553 4473.66
v 3779.4 83.9959 4472.93
v 3779.4 83.5553 4472.93
v 3781.88 74.4514 4477.57
v 3784.17 74.4514 4477.59
v 3781.88 72.2374 4477.57
v 3784.17 72.2374 4477.59
v 3779.92 74.4514 4476.41
v 3779.92 72.2374 4476.41
v 3778.79 74.4514 4474.43
v 3778.79 72.2374 4474.43
v 3778.81 74.4514 4472.14
v 3778.81 72.2374 4472.14
v 3787.33 74.4514 4472.21
v 3786.2 74.4514 4470.23
v 3787.33 72.2374 4472.21
v 3786.2 72.2374 4470.23
v 3787.31 74.4514 4474.5
v 3787.31 72.2374 4474.5
v 3786.15 74.4514 4476.46
v 3787.31 74.4514 4474.5
v 3786.15 72.2374 4476.46
v 3787.31 72.2374 4474.5
v 3779.97 74.4514 4470.18
v 3778.81 74.4514 4472.14
v 3779.97 72.2374 4470.18
v 3778.81 72.2374 4472.14
v 3781.95 74.4514 4469.05
v 3781.95 72.2374 4469.05
v 3784.24 74.4514 4469.07
v 3784.24 72.2374 4469.07
v 3784.24 74.4514 4469.07
v 3786.2 74.4514 4470.23
v 3781.95 74.4514 4469.05
v 3779.97 74.4514 4470.18
v 3778.81 74.4514 4472.14
v 3778.79 74.4514 4474.43
v 3779.92 74.4514 4476.41
v 3781.88 74.4514 4477.57
v 3784.17 74.4514 4477.59
v 3786.15 74.4514 4476.46
v 3787.31 74.4514 4474.5
v 3787.33 74.4514 4472.21
v 3781.25 74.9732 4475.93
v 3781.31 83.3376 4476.03
v 3781.11 74.9732 4476.16
v 3781.23 83.3376 4476.16
v 3781.25 74.9732 4476.4
v 3781.31 83.3376 4476.3
v 3781.52 74.9732 4476.4
v 3781.46 83.3376 4476.3
v 3781.52 74.9732 4476.4
v 3781.46 83.3376 4476.3
v 3781.66 74.9732 4476.17
v 3781.54 83.3376 4476.17
v 3781.53 74.9732 4475.93
v 3781.47 83.3376 4476.03
v 3781.21 72.4777 4475.47
v 3781.21 74.656 4475.47
v 3780.69 72.4777 4476.34
v 3780.69 74.656 4476.34
v 3781.21 74.656 4475.47
v 3782.08 74.656 4475.98
v 3780.69 74.656 4476.34
v 3781.57 74.656 4476.86
v 3782.08 74.656 4475.98
v 3782.08 72.4777 4475.98
v 3781.57 74.656 4476.86
v 3781.57 72.4777 4476.86
v 3780.69 72.4777 4476.34
v 3780.69 74.656 4476.34
v 3781.57 72.4777 4476.86
v 3781.57 74.656 4476.86
v 3782.08 72.4777 4475.98
v 3782.08 74.656 4475.98
v 3781.21 72.4777 4475.47
v 3781.21 74.656 4475.47
v 3780.89 83.9959 4476.29
v 3780.89 83.5553 4476.29
v 3781.26 83.9959 4475.66
v 3781.26 83.5552 4475.66
v 3780.89 83.5553 4476.29
v 3781.52 83.5553 4476.66
v 3781.26 83.5552 4475.66
v 3781.89 83.5553 4476.03
v 3781.52 83.9959 4476.66
v 3781.89 83.9959 4476.03
v 3781.52 83.5553 4476.66
v 3781.89 83.5553 4476.03
v 3781.26 83.9959 4475.66
v 3781.26 83.5552 4475.66
v 3781.89 83.9959 4476.03
v 3781.89 83.5553 4476.03
v 3781.52 83.9959 4476.66
v 3781.52 83.5553 4476.66
v 3780.89 83.9959 4476.29
v 3780.89 83.5553 4476.29
v 3784.41 74.9732 4476.19
v 3784.53 83.3376 4476.19
v 3784.55 74.9732 4476.43
v 3784.61 83.3376 4476.32
v 3784.82 74.9732 4476.43
v 3784.76 83.3376 4476.33
v 3784.96 74.9732 4476.19
v 3784.84 83.3376 4476.19
v 3784.96 74.9732 4476.19
v 3784.84 83.3376 4476.19
v 3784.83 74.9732 4475.96
v 3784.77 83.3376 4476.06
v 3784.55 74.9732 4475.95
v 3784.61 83.3376 4476.06
v 3784 72.4777 4476
v 3784 74.656 4476
v 3784.5 72.4777 4476.88
v 3784.5 74.656 4476.88
v 3784 74.656 4476
v 3784.88 74.656 4475.5
v 3784.5 74.656 4476.88
v 3785.38 74.656 4476.38
v 3784.88 74.656 4475.5
v 3784.88 72.4777 4475.5
v 3785.38 74.656 4476.38
v 3785.38 72.4777 4476.38
v 3784.5 72.4777 4476.88
v 3784.5 74.656 4476.88
v 3785.38 72.4777 4476.38
v 3785.38 74.656 4476.38
v 3784.88 72.4777 4475.5
v 3784.88 74.656 4475.5
v 3784 72.4777 4476
v 3784 74.656 4476
v 3784.55 83.9959 4476.69
v 3784.55 83.5553 4476.69
v 3784.19 83.9959 4476.05
v 3784.19 83.5552 4476.05
v 3784.55 83.5553 4476.69
v 3785.19 83.5553 4476.33
v 3784.19 83.5552 4476.05
v 3784.82 83.5553 4475.69
v 3785.19 83.9959 4476.33
v 3784.82 83.9959 4475.69
v 3785.19 83.5553 4476.33
v 3784.82 83.5553 4475.69
v 3784.19 83.9959 4476.05
v 3784.19 83.5552 4476.05
v 3784.82 83.9959 4475.69
v 3784.82 83.5553 4475.69
v 3785.19 83.9959 4476.33
v 3785.19 83.5553 4476.33
v 3784.55 83.9959 4476.69
v 3784.55 83.5553 4476.69
v 3786.22 74.9732 4473.58
v 3786.28 83.3376 4473.48
v 3786.49 74.9732 4473.59
v 3786.44 83.3376 4473.48
v 3786.63 74.9732 4473.35
v 3786.51 83.3376 4473.35
v 3786.5 74.9732 4473.11
v 3786.44 83.3376 4473.21
v 3786.5 74.9732 4473.11
v 3786.44 83.3376 4473.21
v 3786.23 74.9732 4473.11
v 3786.28 83.3376 4473.21
v 3786.09 74.9732 4473.35
v 3786.2 83.3376 4473.35
v 3785.85 72.4777 4473.85
v 3785.85 74.656 4473.85
v 3786.86 72.4777 4473.86
v 3786.86 74.656 4473.86
v 3785.85 74.656 4473.85
v 3785.86 74.656 4472.84
v 3786.86 74.656 4473.86
v 3786.87 74.656 4472.84
v 3785.86 74.656 4472.84
v 3785.86 72.4777 4472.84
v 3786.87 74.656 4472.84
v 3786.87 72.4777 4472.84
v 3786.86 72.4777 4473.86
v 3786.86 74.656 4473.86
v 3786.87 72.4777 4472.84
v 3786.87 74.656 4472.84
v 3785.86 72.4777 4472.84
v 3785.86 74.656 4472.84
v 3785.85 72.4777 4473.85
v 3785.85 74.656 4473.85
v 3786.72 83.9959 4473.72
v 3786.72 83.5553 4473.72
v 3785.99 83.9959 4473.71
v 3785.99 83.5552 4473.71
v 3786.72 83.5553 4473.72
v 3786.73 83.5553 4472.99
v 3785.99 83.5552 4473.71
v 3786 83.5553 4472.98
v 3786.73 83.9959 4472.99
v 3786 83.9959 4472.98
v 3786.73 83.5553 4472.99
v 3786 83.5553 4472.98
v 3785.99 83.9959 4473.71
v 3785.99 83.5552 4473.71
v 3786 83.9959 4472.98
v 3786 83.5553 4472.98
v 3786.73 83.9959 4472.99
v 3786.73 83.5553 4472.99
v 3786.72 83.9959 4473.72
v 3786.72 83.5553 4473.72
v 3784.87 74.9732 4470.71
v 3784.81 83.3376 4470.61
v 3785.01 74.9732 4470.48
v 3784.89 83.3376 4470.48
v 3784.87 74.9732 4470.24
v 3784.81 83.3376 4470.34
v 3784.6 74.9732 4470.24
v 3784.66 83.3376 4470.34
v 3784.6 74.9732 4470.24
v 3784.66 83.3376 4470.34
v 3784.46 74.9732 4470.48
v 3784.58 83.3376 4470.48
v 3784.6 74.9732 4470.71
v 3784.66 83.3376 4470.61
v 3784.91 72.4777 4471.17
v 3784.91 74.656 4471.17
v 3785.43 72.4777 4470.3
v 3785.43 74.656 4470.3
v 3784.91 74.656 4471.17
v 3784.04 74.656 4470.66
v 3785.43 74.656 4470.3
v 3784.55 74.656 4469.78
v 3784.04 74.656 4470.66
v 3784.04 72.4777 4470.66
v 3784.55 74.656 4469.78
v 3784.55 72.4777 4469.78
v 3785.43 72.4777 4470.3
v 3785.43 74.656 4470.3
v 3784.55 72.4777 4469.78
v 3784.55 74.656 4469.78
v 3784.04 72.4777 4470.66
v 3784.04 74.656 4470.66
v 3784.91 72.4777 4471.17
v 3784.91 74.656 4471.17
v 3785.23 83.9959 4470.35
v 3785.23 83.5553 4470.35
v 3784.86 83.9959 4470.98
v 3784.86 83.5552 4470.98
v 3785.23 83.5553 4470.35
v 3784.6 83.5553 4469.98
v 3784.86 83.5552 4470.98
v 3784.23 83.5553 4470.61
v 3784.6 83.9959 4469.98
v 3784.23 83.9959 4470.61
v 3784.6 83.5553 4469.98
v 3784.23 83.5553 4470.61
v 3784.86 83.9959 4470.98
v 3784.86 83.5552 4470.98
v 3784.23 83.9959 4470.61
v 3784.23 83.5553 4470.61
v 3784.6 83.9959 4469.98
v 3784.6 83.5553 4469.98
v 3785.23 83.9959 4470.35
v 3785.23 83.5553 4470.35
v 3781.71 74.9732 4470.45
v 3781.59 83.3376 4470.45
v 3781.57 74.9732 4470.22
v 3781.51 83.3376 4470.32
v 3781.3 74.9732 4470.21
v 3781.36 83.3376 4470.32
v 3781.16 74.9732 4470.45
v 3781.28 83.3376 4470.45
v 3781.16 74.9732 4470.45
v 3781.28 83.3376 4470.45
v 3781.3 74.9732 4470.69
v 3781.36 83.3376 4470.58
v 3781.57 74.9732 4470.69
v 3781.51 83.3376 4470.58
v 3782.13 72.4777 4470.64
v 3782.13 74.656 4470.64
v 3781.63 72.4777 4469.76
v 3781.63 74.656 4469.76
v 3782.13 74.656 4470.64
v 3781.24 74.656 4471.14
v 3781.63 74.656 4469.76
v 3780.74 74.656 4470.26
v 3781.24 74.656 4471.14
v 3781.24 72.4777 4471.14
v 3780.74 74.656 4470.26
v 3780.74 72.4777 4470.26
v 3781.63 72.4777 4469.76
v 3781.63 74.656 4469.76
v 3780.74 72.4777 4470.26
v 3780.74 74.656 4470.26
v 3781.24 72.4777 4471.14
v 3781.24 74.656 4471.14
v 3782.13 72.4777 4470.64
v 3782.13 74.656 4470.64
v 3781.57 83.9959 4469.95
v 3781.57 83.5553 4469.95
v 3781.93 83.9959 4470.59
v 3781.93 83.5552 4470.59
v 3781.57 83.5553 4469.95
v 3780.94 83.5553 4470.31
v 3781.93 83.5552 4470.59
v 3781.3 83.5553 4470.95
v 3780.94 83.9959 4470.31
v 3781.3 83.9959 4470.95
v 3780.94 83.5553 4470.31
v 3781.3 83.5553 4470.95
v 3781.93 83.9959 4470.59
v 3781.93 83.5552 4470.59
v 3781.3 83.9959 4470.95
v 3781.3 83.5553 4470.95
v 3780.94 83.9959 4470.31
v 3780.94 83.5553 4470.31
v 3781.57 83.9959 4469.95
v 3781.57 83.5553 4469.95
v 3780.24 83.7043 4470.46
v 3779.19 83.7043 4472.25
v 3779.17 83.7043 4474.33
v 3785.88 83.7043 4476.19
v 3786.93 83.7043 4474.39
v 3786.95 83.7043 4472.31
v 3781.99 83.7043 4477.19
v 3784.07 83.7043 4477.21
v 3784.13 83.7043 4469.45
v 3785.93 83.7043 4470.5
v 3780.2 83.7043 4476.14
v 3782.05 83.7043 4469.43
v 3784.11 84.9879 4477.36
v 3783.91 85.7224 4476.61
v 3785.98 84.9879 4476.29
v 3785.45 85.7224 4475.75
v 3787.08 84.9879 4474.43
v 3786.34 85.7224 4474.23
v 3787.1 84.9879 4472.27
v 3786.35 85.7224 4472.47
v 3786.03 84.9879 4470.4
v 3785.49 85.7224 4470.94
v 3784.17 84.9879 4469.3
v 3783.97 85.7224 4470.04
v 3782.02 84.9879 4469.29
v 3782.21 85.7224 4470.03
v 3780.14 84.9879 4470.35
v 3780.68 85.7224 4470.9
v 3779.04 84.9879 4472.21
v 3779.78 85.7224 4472.41
v 3779.03 84.9879 4474.37
v 3779.77 85.7224 4474.17
v 3780.09 84.9879 4476.24
v 3780.64 85.7224 4475.71
v 3781.95 84.9879 4477.34
v 3782.15 85.7224 4476.6
v 3783.66 86.2861 4475.65
v 3784.75 86.2861 4475.04
v 3785.38 86.2861 4473.96
v 3785.39 86.2861 4472.72
v 3784.78 86.2861 4471.63
v 3783.7 86.2861 4471
v 3782.46 86.2861 4470.99
v 3781.37 86.2861 4471.61
v 3780.74 86.2861 4472.68
v 3780.73 86.2861 4473.92
v 3781.35 86.2861 4475.01
v 3782.42 86.2861 4475.64
v 3783.37 86.6404 4474.53
v 3783.93 86.6404 4474.21
v 3784.26 86.6404 4473.65
v 3784.27 86.6404 4473.01
v 3783.95 86.6404 4472.45
v 3783.39 86.6404 4472.12
v 3782.75 86.6404 4472.12
v 3782.19 86.6404 4472.43
v 3781.86 86.6404 4472.99
v 3781.86 86.6404 4473.63
v 3782.17 86.6404 4474.19
v 3782.73 86.6404 4474.52
v 3783.06 86.7612 4473.32
v 3779.61 83.5774 4473.02
v 3779.69 83.3376 4473.16
v 3779.92 83.5774 4473.02
v 3779.84 83.3376 4473.16
v 3779.45 83.5774 4473.29
v 3779.61 83.3376 4473.29
v 3779.6 83.5774 4473.56
v 3779.68 83.3376 4473.43
v 3779.92 83.5774 4473.57
v 3779.84 83.3376 4473.43
v 3779.6 83.5774 4473.56
v 3779.68 83.3376 4473.43
v 3780.08 83.5774 4473.3
v 3779.92 83.3376 4473.29
v 3779.97 74.8969 4472.94
v 3779.9 74.9732 4473.06
v 3779.56 74.8969 4472.94
v 3779.63 74.9732 4473.06
v 3779.35 74.8969 4473.29
v 3779.49 74.9732 4473.29
v 3779.55 74.8969 4473.65
v 3779.62 74.9732 4473.53
v 3779.55 74.8969 4473.65
v 3779.62 74.9732 4473.53
v 3779.96 74.8969 4473.65
v 3779.9 74.9732 4473.53
v 3780.17 74.8969 4473.3
v 3780.03 74.9732 4473.3
v 3780 74.6416 4472.89
v 3779.97 74.7816 4472.94
v 3779.53 74.6416 4472.89
v 3779.56 74.7816 4472.94
v 3779.54 74.8201 4472.91
v 3779.56 74.7816 4472.94
v 3779.99 74.8201 4472.91
v 3779.97 74.7816 4472.94
v 3779.29 74.6416 4473.29
v 3779.35 74.7816 4473.29
v 3779.32 74.8201 4473.29
v 3779.35 74.7816 4473.29
v 3779.52 74.6416 4473.7
v 3779.56 74.7816 4473.65
v 3779.54 74.8201 4473.68
v 3779.56 74.7816 4473.65
v 3779.52 74.6416 4473.7
v 3779.56 74.7816 4473.65
v 3779.99 74.6416 4473.7
v 3779.96 74.7816 4473.65
v 3779.98 74.8201 4473.68
v 3779.96 74.7816 4473.65
v 3779.54 74.8201 4473.68
v 3779.56 74.7816 4473.65
v 3780.23 74.6416 4473.3
v 3780.17 74.7816 4473.3
v 3780.21 74.8201 4473.3
v 3780.17 74.7816 4473.3
v 3781.07 83.5774 4476.16
v 3781.23 83.3376 4476.16
v 3781.23 83.5774 4475.89
v 3781.31 83.3376 4476.03
v 3781.23 83.5774 4476.44
v 3781.31 83.3376 4476.3
v 3781.54 83.5774 4476.44
v 3781.46 83.3376 4476.3
v 3781.7 83.5774 4476.17
v 3781.54 83.3376 4476.17
v 3781.54 83.5774 4476.44
v 3781.46 83.3376 4476.3
v 3781.55 83.5774 4475.89
v 3781.47 83.3376 4476.03
v 3781.19 74.8969 4475.81
v 3781.25 74.9732 4475.93
v 3780.98 74.8969 4476.16
v 3781.11 74.9732 4476.16
v 3781.18 74.8969 4476.52
v 3781.25 74.9732 4476.4
v 3781.59 74.8969 4476.52
v 3781.52 74.9732 4476.4
v 3781.59 74.8969 4476.52
v 3781.52 74.9732 4476.4
v 3781.8 74.8969 4476.17
v 3781.66 74.9732 4476.17
v 3781.6 74.8969 4475.81
v 3781.53 74.9732 4475.93
v 3781.16 74.6416 4475.76
v 3781.19 74.7816 4475.81
v 3780.92 74.6416 4476.16
v 3780.98 74.7816 4476.16
v 3780.94 74.8201 4476.16
v 3780.98 74.7816 4476.16
v 3781.17 74.8201 4475.78
v 3781.19 74.7816 4475.81
v 3781.15 74.6416 4476.57
v 3781.18 74.7816 4476.52
v 3781.16 74.8201 4476.55
v 3781.18 74.7816 4476.52
v 3781.62 74.6416 4476.57
v 3781.59 74.7816 4476.52
v 3781.61 74.8201 4476.55
v 3781.59 74.7816 4476.52
v 3781.62 74.6416 4476.57
v 3781.59 74.7816 4476.52
v 3781.86 74.6416 4476.17
v 3781.8 74.7816 4476.17
v 3781.83 74.8201 4476.17
v 3781.8 74.7816 4476.17
v 3781.61 74.8201 4476.55
v 3781.59 74.7816 4476.52
v 3781.63 74.6416 4475.76
v 3781.59 74.7816 4475.81
v 3781.61 74.8201 4475.78
v 3781.59 74.7816 4475.81
v 3784.53 83.5774 4476.46
v 3784.61 83.3376 4476.32
v 3784.37 83.5774 4476.19
v 3784.53 83.3376 4476.19
v 3784.84 83.5774 4476.46
v 3784.76 83.3376 4476.33
v 3785 83.5774 4476.19
v 3784.84 83.3376 4476.19
v 3784.85 83.5774 4475.92
v 3784.77 83.3376 4476.06
v 3785 83.5774 4476.19
v 3784.84 83.3376 4476.19
v 3784.53 83.5774 4475.92
v 3784.61 83.3376 4476.06
v 3784.28 74.8969 4476.19
v 3784.41 74.9732 4476.19
v 3784.48 74.8969 4476.55
v 3784.55 74.9732 4476.43
v 3784.89 74.8969 4476.55
v 3784.82 74.9732 4476.43
v 3785.1 74.8969 4476.19
v 3784.96 74.9732 4476.19
v 3785.1 74.8969 4476.19
v 3784.96 74.9732 4476.19
v 3784.9 74.8969 4475.84
v 3784.83 74.9732 4475.96
v 3784.48 74.8969 4475.83
v 3784.55 74.9732 4475.95
v 3784.22 74.6416 4476.19
v 3784.28 74.7816 4476.19
v 3784.45 74.6416 4476.6
v 3784.48 74.7816 4476.54
v 3784.46 74.8201 4476.58
v 3784.48 74.7816 4476.54
v 3784.24 74.8201 4476.19
v 3784.28 74.7816 4476.19
v 3784.92 74.6416 4476.6
v 3784.89 74.7816 4476.55
v 3784.91 74.8201 4476.58
v 3784.89 74.7816 4476.55
v 3785.16 74.6416 4476.2
v 3785.09 74.7816 4476.19
v 3785.13 74.8201 4476.19
v 3785.09 74.7816 4476.19
v 3785.16 74.6416 4476.2
v 3785.09 74.7816 4476.19
v 3784.93 74.6416 4475.79
v 3784.89 74.7816 4475.84
v 3784.91 74.8201 4475.81
v 3784.89 74.7816 4475.84
v 3785.13 74.8201 4476.19
v 3785.09 74.7816 4476.19
v 3784.46 74.6416 4475.78
v 3784.49 74.7816 4475.84
v 3784.47 74.8201 4475.8
v 3784.49 74.7816 4475.84
v 3786.51 83.5774 4473.62
v 3786.44 83.3376 4473.48
v 3786.2 83.5774 4473.62
v 3786.28 83.3376 4473.48
v 3786.67 83.5774 4473.35
v 3786.51 83.3376 4473.35
v 3786.52 83.5774 4473.08
v 3786.44 83.3376 4473.21
v 3786.2 83.5774 4473.07
v 3786.28 83.3376 4473.21
v 3786.52 83.5774 4473.08
v 3786.44 83.3376 4473.21
v 3786.05 83.5774 4473.35
v 3786.2 83.3376 4473.35
v 3786.15 74.8969 4473.7
v 3786.22 74.9732 4473.58
v 3786.56 74.8969 4473.71
v 3786.49 74.9732 4473.59
v 3786.77 74.8969 4473.35
v 3786.63 74.9732 4473.35
v 3786.57 74.8969 4472.99
v 3786.5 74.9732 4473.11
v 3786.57 74.8969 4472.99
v 3786.5 74.9732 4473.11
v 3786.16 74.8969 4472.99
v 3786.23 74.9732 4473.11
v 3785.95 74.8969 4473.34
v 3786.09 74.9732 4473.35
v 3786.12 74.6416 4473.75
v 3786.15 74.7816 4473.7
v 3786.59 74.6416 4473.76
v 3786.56 74.7816 4473.7
v 3786.58 74.8201 4473.74
v 3786.56 74.7816 4473.7
v 3786.13 74.8201 4473.73
v 3786.15 74.7816 4473.7
v 3786.83 74.6416 4473.35
v 3786.77 74.7816 4473.35
v 3786.81 74.8201 4473.35
v 3786.77 74.7816 4473.35
v 3786.6 74.6416 4472.94
v 3786.57 74.7816 4473
v 3786.59 74.8201 4472.96
v 3786.57 74.7816 4473
v 3786.6 74.6416 4472.94
v 3786.57 74.7816 4473
v 3786.13 74.6416 4472.94
v 3786.16 74.7816 4472.99
v 3786.14 74.8201 4472.96
v 3786.16 74.7816 4472.99
v 3786.59 74.8201 4472.96
v 3786.57 74.7816 4473
v 3785.89 74.6416 4473.34
v 3785.95 74.7816 4473.34
v 3785.91 74.8201 4473.34
v 3785.95 74.7816 4473.34
v 3785.05 83.5774 4470.48
v 3784.89 83.3376 4470.48
v 3784.89 83.5774 4470.75
v 3784.81 83.3376 4470.61
v 3784.89 83.5774 4470.21
v 3784.81 83.3376 4470.34
v 3784.58 83.5774 4470.2
v 3784.66 83.3376 4470.34
v 3784.42 83.5774 4470.47
v 3784.58 83.3376 4470.48
v 3784.58 83.5774 4470.2
v 3784.66 83.3376 4470.34
v 3784.57 83.5774 4470.75
v 3784.66 83.3376 4470.61
v 3784.94 74.8969 4470.83
v 3784.87 74.9732 4470.71
v 3785.14 74.8969 4470.48
v 3785.01 74.9732 4470.48
v 3784.94 74.8969 4470.12
v 3784.87 74.9732 4470.24
v 3784.53 74.8969 4470.12
v 3784.6 74.9732 4470.24
v 3784.53 74.8969 4470.12
v 3784.6 74.9732 4470.24
v 3784.32 74.8969 4470.47
v 3784.46 74.9732 4470.48
v 3784.53 74.8969 4470.83
v 3784.6 74.9732 4470.71
v 3784.97 74.6416 4470.89
v 3784.93 74.7816 4470.83
v 3785.2 74.6416 4470.48
v 3785.14 74.7816 4470.48
v 3785.18 74.8201 4470.48
v 3785.14 74.7816 4470.48
v 3784.95 74.8201 4470.87
v 3784.93 74.7816 4470.83
v 3784.97 74.6416 4470.07
v 3784.94 74.7816 4470.13
v 3784.96 74.8201 4470.09
v 3784.94 74.7816 4470.13
v 3784.5 74.6416 4470.07
v 3784.53 74.7816 4470.12
v 3784.51 74.8201 4470.09
v 3784.53 74.7816 4470.12
v 3784.5 74.6416 4470.07
v 3784.53 74.7816 4470.12
v 3784.26 74.6416 4470.47
v 3784.33 74.7816 4470.47
v 3784.29 74.8201 4470.47
v 3784.33 74.7816 4470.47
v 3784.51 74.8201 4470.09
v 3784.53 74.7816 4470.12
v 3784.5 74.6416 4470.88
v 3784.53 74.7816 4470.83
v 3784.51 74.8201 4470.86
v 3784.53 74.7816 4470.83
v 3781.59 83.5774 4470.18
v 3781.51 83.3376 4470.32
v 3781.75 83.5774 4470.45
v 3781.59 83.3376 4470.45
v 3781.28 83.5774 4470.18
v 3781.36 83.3376 4470.32
v 3781.12 83.5774 4470.45
v 3781.28 83.3376 4470.45
v 3781.28 83.5774 4470.72
v 3781.36 83.3376 4470.58
v 3781.12 83.5774 4470.45
v 3781.28 83.3376 4470.45
v 3781.59 83.5774 4470.72
v 3781.51 83.3376 4470.58
v 3781.85 74.8969 4470.45
v 3781.71 74.9732 4470.45
v 3781.64 74.8969 4470.1
v 3781.57 74.9732 4470.22
v 3781.23 74.8969 4470.09
v 3781.3 74.9732 4470.21
v 3781.02 74.8969 4470.45
v 3781.16 74.9732 4470.45
v 3781.02 74.8969 4470.45
v 3781.16 74.9732 4470.45
v 3781.23 74.8969 4470.8
v 3781.3 74.9732 4470.69
v 3781.64 74.8969 4470.81
v 3781.57 74.9732 4470.69
v 3781.9 74.6416 4470.45
v 3781.84 74.7816 4470.45
v 3781.67 74.6416 4470.05
v 3781.64 74.7816 4470.1
v 3781.66 74.8201 4470.07
v 3781.64 74.7816 4470.1
v 3781.88 74.8201 4470.45
v 3781.84 74.7816 4470.45
v 3781.2 74.6416 4470.04
v 3781.23 74.7816 4470.1
v 3781.22 74.8201 4470.06
v 3781.23 74.7816 4470.1
v 3780.97 74.6416 4470.45
v 3781.03 74.7816 4470.45
v 3780.99 74.8201 4470.45
v 3781.03 74.7816 4470.45
v 3780.97 74.6416 4470.45
v 3781.03 74.7816 4470.45
v 3781.2 74.6416 4470.85
v 3781.23 74.7816 4470.8
v 3781.21 74.8201 4470.83
v 3781.23 74.7816 4470.8
v 3780.99 74.8201 4470.45
v 3781.03 74.7816 4470.45
v 3781.67 74.6416 4470.86
v 3781.64 74.7816 4470.81
v 3781.65 74.8201 4470.84
v 3781.64 74.7816 4470.81
v 3781.88 84.9879 4477.57
v 3781.95 84.9879 4477.34
v 3784.17 84.9879 4477.59
v 3784.11 84.9879 4477.36
v 3786.15 84.9879 4476.46
v 3785.98 84.9879 4476.29
v 3787.31 84.9879 4474.5
v 3787.08 84.9879 4474.43
v 3787.33 84.9879 4472.21
v 3787.1 84.9879 4472.27
v 3786.2 84.9879 4470.23
v 3786.03 84.9879 4470.4
v 3784.24 84.9879 4469.07
v 3784.17 84.9879 4469.3
v 3781.95 84.9879 4469.05
v 3782.02 84.9879 4469.29
v 3779.97 84.9879 4470.18
v 3780.14 84.9879 4470.35
v 3778.81 84.9879 4472.14
v 3779.04 84.9879 4472.21
v 3778.81 84.9879 4472.14
v 3779.04 84.9879 4472.21
v 3778.79 84.9879 4474.43
v 3779.03 84.9879 4474.37
v 3779.92 84.9879 4476.41
v 3780.09 84.9879 4476.24
v 3781.95 84.6818 4477.34
v 3784.11 84.6818 4477.36
v 3781.95 83.8478 4477.34
v 3784.11 83.8478 4477.36
v 3780.09 84.6818 4476.24
v 3780.09 83.8478 4476.24
v 3779.03 84.6818 4474.37
v 3779.03 83.8478 4474.37
v 3779.04 84.6818 4472.21
v 3779.04 83.8478 4472.21
v 3787.1 83.8478 4472.27
v 3787.1 84.6818 4472.27
v 3786.03 83.8478 4470.4
v 3786.03 84.6818 4470.4
v 3787.08 84.6818 4474.43
v 3787.08 83.8478 4474.43
v 3785.98 84.6818 4476.29
v 3787.08 84.6818 4474.43
v 3785.98 83.8478 4476.29
v 3787.08 83.8478 4474.43
v 3780.14 84.6818 4470.35
v 3779.04 84.6818 4472.21
v 3780.14 83.8478 4470.35
v 3779.04 83.8478 4472.21
v 3782.02 84.6818 4469.29
v 3782.02 83.8478 4469.29
v 3784.17 84.6818 4469.3
v 3784.17 83.8478 4469.3
v 3781.95 83.8478 4477.34
v 3784.11 83.8478 4477.36
v 3781.99 83.7043 4477.19
v 3784.07 83.7043 4477.21
v 3780.09 83.8478 4476.24
v 3780.2 83.7043 4476.14
v 3779.03 83.8478 4474.37
v 3779.17 83.7043 4474.33
v 3779.04 83.8478 4472.21
v 3779.19 83.7043 4472.25
v 3787.1 83.8478 4472.27
v 3786.03 83.8478 4470.4
v 3786.95 83.7043 4472.31
v 3785.93 83.7043 4470.5
v 3787.08 83.8478 4474.43
v 3786.93 83.7043 4474.39
v 3785.98 83.8478 4476.29
v 3785.88 83.7043 4476.19
v 3780.14 83.8478 4470.35
v 3780.24 83.7043 4470.46
v 3782.02 83.8478 4469.29
v 3782.05 83.7043 4469.43
v 3784.17 83.8478 4469.3
v 3784.13 83.7043 4469.45
v 3781.88 84.9879 4477.57
v 3784.17 84.9879 4477.59
v 3781.95 84.6818 4477.34
v 3784.11 84.6818 4477.36
v 3786.15 84.9879 4476.46
v 3785.98 84.6818 4476.29
v 3787.31 84.9879 4474.5
v 3787.08 84.6818 4474.43
v 3787.33 84.9879 4472.21
v 3787.1 84.6818 4472.27
v 3786.2 84.9879 4470.23
v 3786.03 84.6818 4470.4
v 3784.24 84.9879 4469.07
v 3784.17 84.6818 4469.3
v 3781.95 84.9879 4469.05
v 3782.02 84.6818 4469.29
v 3779.97 84.9879 4470.18
v 3780.14 84.6818 4470.35
v 3778.81 84.9879 4472.14
v 3779.04 84.6818 4472.21
v 3778.81 84.9879 4472.14
v 3778.79 84.9879 4474.43
v 3779.04 84.6818 4472.21
v 3779.03 84.6818 4474.37
v 3779.92 84.9879 4476.41
v 3780.09 84.6818 4476.24
v 3781.57 74.4514 4476.86
v 3782.08 74.4514 4475.98
v 3781.57 77.4514 4476.86
v 3782.08 77.4514 4475.98
v 3784 74.4514 4476
v 3784.5 74.4514 4476.88
v 3784 77.4514 4476
v 3784.5 77.4514 4476.88
v 3785.38 74.4514 4476.38
v 3784.88 74.4514 4475.5
v 3785.38 77.4514 4476.38
v 3784.88 77.4514 4475.5
v 3785.85 74.4514 4473.85
v 3786.86 74.4514 4473.86
v 3785.85 77.4514 4473.85
v 3786.86 77.4514 4473.86
v 3782.13 74.4514 4470.64
v 3781.63 74.4514 4469.76
v 3782.13 77.4514 4470.64
v 3781.63 77.4514 4469.76
v 3784.55 74.4514 4469.78
v 3784.04 74.4514 4470.66
v 3784.55 77.4514 4469.78
v 3784.04 77.4514 4470.66
v 3779.25 74.4514 4473.8
v 3780.26 74.4514 4473.81
v 3779.25 77.4514 4473.8
v 3780.26 77.4514 4473.81
v 3781.21 74.4514 4475.47
v 3780.69 74.4514 4476.34
v 3781.21 77.4514 4475.47
v 3780.69 77.4514 4476.34
v 3784.91 74.4514 4471.17
v 3785.43 74.4514 4470.3
v 3784.91 77.4514 4471.17
v 3785.43 77.4514 4470.3
v 3786.87 74.4514 4472.84
v 3785.86 74.4514 4472.84
v 3786.87 77.4514 4472.84
v 3785.86 77.4514 4472.84
v 3780.27 74.4514 4472.79
v 3779.26 74.4514 4472.78
v 3780.27 77.4514 4472.79
v 3779.26 77.4514 4472.78
v 3780.74 74.4514 4470.26
v 3781.24 74.4514 4471.14
v 3780.74 77.4514 4470.26
v 3781.24 77.4514 4471.14
v 3782.08 74.4514 4475.98
v 3781.21 74.4514 4475.47
v 3782.08 77.4514 4475.98
v 3781.21 77.4514 4475.47
v 3780.26 74.4514 4473.81
v 3780.27 74.4514 4472.79
v 3780.26 77.4514 4473.81
v 3780.27 77.4514 4472.79
v 3784.88 74.4514 4475.5
v 3784 74.4514 4476
v 3784.88 77.4514 4475.5
v 3784 77.4514 4476
v 3785.86 74.4514 4472.84
v 3785.85 74.4514 4473.85
v 3785.86 77.4514 4472.84
v 3785.85 77.4514 4473.85
v 3784.04 74.4514 4470.66
v 3784.91 74.4514 4471.17
v 3784.04 77.4514 4470.66
v 3784.91 77.4514 4471.17
v 3781.24 74.4514 4471.14
v 3782.13 74.4514 4470.64
v 3781.24 77.4514 4471.14
v 3782.13 77.4514 4470.64
v 3784.5 74.4514 4476.88
v 3785.38 74.4514 4476.38
v 3784.5 77.4514 4476.88
v 3785.38 77.4514 4476.38
v 3786.86 74.4514 4473.86
v 3786.87 74.4514 4472.84
v 3786.86 77.4514 4473.86
v 3786.87 77.4514 4472.84
v 3780.69 74.4514 4476.34
v 3781.57 74.4514 4476.86
v 3780.69 77.4514 4476.34
v 3781.57 77.4514 4476.86
v 3779.26 74.4514 4472.78
v 3779.25 74.4514 4473.8
v 3779.26 77.4514 4472.78
v 3779.25 77.4514 4473.8
v 3781.63 74.4514 4469.76
v 3780.74 74.4514 4470.26
v 3781.63 77.4514 4469.76
v 3780.74 77.4514 4470.26
v 3785.43 74.4514 4470.3
v 3784.55 74.4514 4469.78
v 3785.43 77.4514 4470.3
v 3784.55 77.4514 4469.78
v 3751 74.1486 4505
v 3751 74.0585 4503
v 3751 74.0402 4501
v 3751 74.0825 4499
v 3751 74.1042 4497
v 3751 74.0674 4495
v 3751 73.9917 4493
v 3751 73.9193 4491
v 3751 73.906 4489
v 3751 73.9006 4487
v 3751 73.8442 4485
v 3751 73.7376 4483
v 3751 73.6319 4481
v 3751 73.5613 4479
v 3751 73.5575 4477
v 3751 73.6279 4475
v 3751 73.7221 4473
v 3751 73.8131 4471
v 3751 73.8886 4469
v 3751 73.8848 4467
v 3751 73.8276 4465
v 3751 73.7764 4463
v 3751 73.7286 4461
v 3751 73.8084 4459
v 3751 74.0161 4457
v 3751 74.2378 4455
v 3751 74.491 4453
v 3751 74.6292 4451
v 3751 74.5981 4449
v 3751 74.5113 4447
v 3751 74.5201 4445
v 3751 74.5932 4443
v 3753 74.1196 4505
v 3753 74.0595 4503
v 3753 74.0073 4501
v 3753 73.9786 4499
v 3753 73.9616 4497
v 3753 73.9353 4495
v 3753 73.9191 4493
v 3753 73.9216 4491
v 3753 73.9319 4489
v 3753 73.8869 4487
v 3753 73.7763 4485
v 3753 73.6392 4483
v 3753 73.5527 4481
v 3753 73.5741 4479
v 3753 73.691 4477
v 3753 73.858 4475
v 3753 73.9923 4473
v 3753 74.0626 4471
v 3753 74.0863 4469
v 3753 74.0265 4467
v 3753 73.9319 4465
v 3753 73.8788 4463
v 3753 73.837 4461
v 3753 73.8905 4459
v 3753 74.0354 4457
v 3753 74.1873 4455
v 3753 74.401 4453
v 3753 74.5695 4451
v 3753 74.6246 4449
v 3753 74.6038 4447
v 3753 74.5983 4445
v 3753 74.6194 4443
v 3755 74.1919 4505
v 3755 74.1897 4503
v 3755 74.1078 4501
v 3755 73.9902 4499
v 3755 73.9123 4497
v 3755 73.8733 4495
v 3755 73.9059 4493
v 3755 73.9864 4491
v 3755 74.0262 4489
v 3755 73.9551 4487
v 3755 73.8135 4485
v 3755 73.6718 4483
v 3755 73.6209 4481
v 3755 73.6946 4479
v 3755 73.8419 4477
v 3755 74.0075 4475
v 3755 74.1273 4473
v 3755 74.1945 4471
v 3755 74.2197 4469
v 3755 74.1653 4467
v 3755 74.0737 4465
v 3755 74.0259 4463
v 3755 74.0004 4461
v 3755 74.0272 4459
v 3755 74.0928 4457
v 3755 74.1483 4455
v 3755 74.2784 4453
v 3755 74.4445 4451
v 3755 74.581 4449
v 3755 74.6412 4447
v 3755 74.6369 4445
v 3755 74.6222 4443
v 3757 74.2839 4505
v 3757 74.3551 4503
v 3757 74.2768 4501
v 3757 74.1047 4499
v 3757 73.9726 4497
v 3757 73.8924 4495
v 3757 73.9256 4493
v 3757 74.0404 4491
v 3757 74.1038 4489
v 3757 74.0509 4487
v 3757 73.9424 4485
v 3757 73.8489 4483
v 3757 73.846 4481
v 3757 73.9097 4479
v 3757 73.9802 4477
v 3757 74.0433 4475
v 3757 74.0989 4473
v 3757 74.1776 4471
v 3757 74.2445 4469
v 3757 74.2391 4467
v 3757 74.1775 4465
v 3757 74.1397 4463
v 3757 74.15 4461
v 3757 74.1841 4459
v 3757 74.206 4457
v 3757 74.1801 4455
v 3757 74.2 4453
v 3757 74.3044 4451
v 3757 74.4561 4449
v 3757 74.5645 4447
v 3757 74.5717 4445
v 3757 74.5482 4443
v 3759 74.2678 4505
v 3759 74.3946 4503
v 3759 74.3563 4501
v 3759 74.197 4499
v 3759 74.0496 4497
v 3759 73.9228 4495
v 3759 73.9086 4493
v 3759 73.9971 4491
v 3759 74.068 4489
v 3759 74.0722 4487
v 3759 74.0501 4485
v 3759 74.0399 4483
v 3759 74.0795 4481
v 3759 74.1054 4479
v 3759 74.0807 4477
v 3759 74.0405 4475
v 3759 74.04 4473
v 3759 74.1252 4471
v 3759 74.2123 4469
v 3759 74.2291 4467
v 3759 74.1784 4465
v 3759 74.147 4463
v 3759 74.2041 4461
v 3759 74.289 4459
v 3759 74.3342 4457
v 3759 74.2824 4455
v 3759 74.217 4453
v 3759 74.226 4451
v 3759 74.3131 4449
v 3759 74.4078 4447
v 3759 74.4197 4445
v 3759 74.4003 4443
v 3761 74.2426 4505
v 3761 74.3732 4503
v 3761 74.3448 4501
v 3761 74.1985 4499
v 3761 74.0549 4497
v 3761 73.9018 4495
v 3761 73.8384 4493
v 3761 73.876 4491
v 3761 73.9283 4489
v 3761 73.9706 4487
v 3761 74.0276 4485
v 3761 74.1034 4483
v 3761 74.1857 4481
v 3761 74.1898 4479
v 3761 74.1184 4477
v 3761 74.0401 4475
v 3761 74.0333 4473
v 3761 74.1164 4471
v 3761 74.1733 4469
v 3761 74.1646 4467
v 3761 74.1139 4465
v 3761 74.111 4463
v 3761 74.2066 4461
v 3761 74.3345 4459
v 3761 74.4215 4457
v 3761 74.3984 4455
v 3761 74.3035 4453
v 3761 74.237 4451
v 3761 74.2443 4449
v 3761 74.313 4447
v 3761 74.3345 4445
v 3761 74.3005 4443
v 3763 74.2264 4505
v 3763 74.3383 4503
v 3763 74.2985 4501
v 3763 74.1522 4499
v 3763 74.0224 4497
v 3763 73.8916 4495
v 3763 73.8328 4493
v 3763 73.8509 4491
v 3763 73.8736 4489
v 3763 73.9013 4487
v 3763 73.9765 4485
v 3763 74.0951 4483
v 3763 74.2094 4481
v 3763 74.2155 4479
v 3763 74.1457 4477
v 3763 74.0845 4475
v 3763 74.1094 4473
v 3763 74.191 4471
v 3763 74.2013 4469
v 3763 74.1564 4467
v 3763 74.1141 4465
v 3763 74.1488 4463
v 3763 74.2315 4461
v 3763 74.3295 4459
v 3763 74.4105 4457
v 3763 74.4337 4455
v 3763 74.3618 4453
v 3763 74.2723 4451
v 3763 74.2372 4449
v 3763 74.2992 4447
v 3763 74.3535 4445
v 3763 74.3204 4443
v 3765 74.1728 4505
v 3765 74.2777 4503
v 3765 74.239 4501
v 3765 74.1002 4499
v 3765 73.9938 4497
v 3765 73.9285 4495
v 3765 73.9314 4493
v 3765 73.9748 4491
v 3765 73.9742 4489
v 3765 73.9498 4487
v 3765 73.9844 4485
v 3765 74.0926 4483
v 3765 74.2194 4481
v 3765 74.2425 4479
v 3765 74.2025 4477
v 3765 74.1857 4475
v 3765 74.2546 4473
v 3765 74.3377 4471
v 3765 74.312 4469
v 3765 74.2419 4467
v 3765 74.2134 4465
v 3765 74.2711 4463
v 3765 74.2863 4461
v 3765 74.2855 4459
v 3765 74.3068 4457
v 3765 74.3654 4455
v 3765 74.3435 4453
v 3765 74.2752 4451
v 3765 74.2381 4449
v 3765 74.3083 4447
v 3765 74.4143 4445
v 3765 74.4199 4443
v 3767 74.068 4505
v 3767 74.2027 4503
v 3767 74.202 4501
v 3767 74.0919 4499
v 3767 74.0066 4497
v 3767 73.9994 4495
v 3767 74.0657 4493
v 3767 74.1486 4491
v 3767 74.1441 4489
v 3767 74.0836 4487
v 3767 74.0797 4485
v 3767 74.1659 4483
v 3767 74.2944 4481
v 3767 74.3234 4479
v 3767 74.2902 4477
v 3767 74.2852 4475
v 3767 74.3689 4473
v 3767 74.4557 4471
v 3767 74.4241 4469
v 3767 74.3533 4467
v 3767 74.3351 4465
v 3767 74.3903 4463
v 3767 74.3355 4461
v 3767 74.2415 4459
v 3767 74.1974 4457
v 3767 74.2602 4455
v 3767 74.2607 4453
v 3767 74.2049 4451
v 3767 74.1703 4449
v 3767 74.2452 4447
v 3767 74.3989 4445
v 3767 74.4697 4443
v 3769 73.966 4505
v 3769 74.1203 4503
v 3769 74.1827 4501
v 3769 74.1468 4499
v 3769 74.101 4497
v 3769 74.1139 4495
v 3769 74.1715 4493
v 3769 74.2277 4491
v 3769 74.2147 4489
v 3769 74.184 4487
v 3769 74.22 4485
v 3769 74.3313 4483
v 3769 74.455 4481
v 3769 74.4707 4479
v 3769 74.4248 4477
v 3769 74.4014 4475
v 3769 74.4581 4473
v 3769 74.5198 4471
v 3769 74.4744 4469
v 3769 74.3915 4467
v 3769 74.3519 4465
v 3769 74.3736 4463
v 3769 74.2933 4461
v 3769 74.1748 4459
v 3769 74.1003 4457
v 3769 74.1252 4455
v 3769 74.0981 4453
v 3769 74.0291 4451
v 3769 73.9879 4449
v 3769 74.0488 4447
v 3769 74.2281 4445
v 3769 74.3862 4443
v 3771 73.8922 4505
v 3771 73.9959 4503
v 3771 74.0941 4501
v 3771 74.1538 4499
v 3771 74.181 4497
v 3771 74.2206 4495
v 3771 74.2367 4493
v 3771 74.214 4491
v 3771 74.171 4489
v 3771 74.1892 4487
v 3771 74.2909 4485
v 3771 74.4364 4483
v 3771 74.5357 4481
v 3771 74.5447 4479
v 3771 74.5232 4477
v 3771 74.5136 4475
v 3771 74.5397 4473
v 3771 74.5488 4471
v 3771 74.4796 4469
v 3771 74.3797 4467
v 3771 74.3047 4465
v 3771 74.276 4463
v 3771 74.1998 4461
v 3771 74.1003 4459
v 3771 74.0169 4457
v 3771 73.9796 4455
v 3771 73.9211 4453
v 3771 73.8615 4451
v 3771 73.8389 4449
v 3771 73.8802 4447
v 3771 74.0385 4445
v 3771 74.2417 4443
v 3773 73.82 4505
v 3773 73.8284 4503
v 3773 73.9186 4501
v 3773 74.0488 4499
v 3773 74.152 4497
v 3773 74.236 4495
v 3773 74.2296 4493
v 3773 74.1397 4491
v 3773 74.0642 4489
v 3773 74.1078 4487
v 3773 74.2401 4485
v 3773 74.3873 4483
v 3773 74.4477 4481
v 3773 74.4606 4479
v 3773 74.4874 4477
v 3773 74.515 4475
v 3773 74.5206 4473
v 3773 74.4876 4471
v 3773 74.428 4469
v 3773 74.3494 4467
v 3773 74.2637 4465
v 3773 74.1907 4463
v 3773 74.1388 4461
v 3773 74.0843 4459
v 3773 74.0107 4457
v 3773 73.9148 4455
v 3773 73.8373 4453
v 3773 73.8081 4451
v 3773 73.8233 4449
v 3773 73.8503 4447
v 3773 73.9331 4445
v 3773 74.0819 4443
v 3775 73.7304 4505
v 3775 73.6578 4503
v 3775 73.7172 4501
v 3775 73.8708 4499
v 3775 74.0202 4497
v 3775 74.1573 4495
v 3775 74.174 4493
v 3775 74.0722 4491
v 3775 73.9797 4489
v 3775 74.007 4487
v 3775 74.1108 4485
v 3775 74.2181 4483
v 3775 74.2412 4481
v 3775 74.2617 4479
v 3775 74.3268 4477
v 3775 74.3866 4475
v 3775 74.3855 4473
v 3775 74.3458 4471
v 3775 74.3393 4469
v 3775 74.3265 4467
v 3775 74.2693 4465
v 3775 74.1754 4463
v 3775 74.1446 4461
v 3775 74.1247 4459
v 3775 74.0633 4457
v 3775 73.9351 4455
v 3775 73.8565 4453
v 3775 73.8606 4451
v 3775 73.9123 4449
v 3775 73.9367 4447
v 3775 73.9324 4445
v 3775 73.9671 4443
v 3777 73.6299 4505
v 3777 73.5409 4503
v 3777 73.569 4501
v 3777 73.6907 4499
v 3777 73.8404 4497
v 3777 74.0345 4495
v 3777 74.1322 4493
v 3777 74.0965 4491
v 3777 74.0123 4489
v 3777 73.9773 4487
v 3777 73.9947 4485
v 3777 74.0363 4483
v 3777 74.0494 4481
v 3777 74.0905 4479
v 3777 74.168 4477
v 3777 74.2248 4475
v 3777 74.2133 4473
v 3777 74.1956 4471
v 3777 74.2639 4469
v 3777 74.3435 4467
v 3777 74.3528 4465
v 3777 74.2628 4463
v 3777 74.2045 4461
v 3777 74.1507 4459
v 3777 74.068 4457
v 3777 73.9469 4455
v 3777 73.9027 4453
v 3777 73.9434 4451
v 3777 74.0166 4449
v 3777 74.0421 4447
v 3777 73.9903 4445
v 3777 73.9378 4443
v 3779 73.6116 4505
v 3779 73.5285 4503
v 3779 73.5013 4501
v 3779 73.5463 4499
v 3779 73.6761 4497
v 3779 73.9141 4495
v 3779 74.0947 4493
v 3779 74.1391 4491
v 3779 74.0703 4489
v 3779 73.959 4487
v 3779 73.8868 4485
v 3779 73.8862 4483
v 3779 73.9328 4481
v 3779 74.0403 4479
v 3779 74.1476 4477
v 3779 74.1817 4475
v 3779 74.1295 4473
v 3779 74.1063 4471
v 3779 74.2103 4469
v 3779 74.3603 4467
v 3779 74.4405 4465
v 3779 74.3598 4463
v 3779 74.2374 4461
v 3779 74.1059 4459
v 3779 73.9828 4457
v 3779 73.8957 4455
v 3779 73.9301 4453
v 3779 74.0265 4451
v 3779 74.1067 4449
v 3779 74.1086 4447
v 3779 74.0307 4445
v 3779 73.9395 4443
v 3781 73.7159 4505
v 3781 73.6631 4503
v 3781 73.5939 4501
v 3781 73.5634 4499
v 3781 73.654 4497
v 3781 73.8623 4495
v 3781 74.0362 4493
v 3781 74.0954 4491
v 3781 74.0348 4489
v 3781 73.893 4487
v 3781 73.8045 4485
v 3781 73.8336 4483
v 3781 73.9483 4481
v 3781 74.1297 4479
v 3781 74.2617 4477
v 3781 74.2571 4475
v 3781 74.1499 4473
v 3781 74.0878 4471
v 3781 74.1498 4469
v 3781 74.2897 4467
v 3781 74.3938 4465
v 3781 74.3296 4463
v 3781 74.1781 4461
v 3781 74.0148 4459
v 3781 73.8908 4457
v 3781 73.8511 4455
v 3781 73.9453 4453
v 3781 74.0562 4451
v 3781 74.0973 4449
v 3781 74.053 4447
v 3781 73.9927 4445
v 3781 73.6603 4443
v 3783 73.8834 4505
v 3783 73.8732 4503
v 3783 73.7964 4501
v 3783 73.7264 4499
v 3783 73.774 4497
v 3783 73.8909 4495
v 3783 73.9705 4493
v 3783 73.9717 4491
v 3783 73.9079 4489
v 3783 73.79 4487
v 3783 73.7589 4485
v 3783 73.8696 4483
v 3783 74.0541 4481
v 3783 74.2815 4479
v 3783 74.4179 4477
v 3783 74.3723 4475
v 3783 74.2185 4473
v 3783 74.1064 4471
v 3783 74.0798 4469
v 3783 74.1471 4467
v 3783 74.2262 4465
v 3783 74.182 4463
v 3783 74.0626 4461
v 3783 73.944 4459
v 3783 73.8712 4457
v 3783 73.8729 4455
v 3783 73.9752 4453
v 3783 74.0431 4451
v 3783 74.0088 4449
v 3783 73.9137 4447
v 3783 73.8982 4445
v 3783 73.9896 4443
v 3785 73.9664 4505
v 3785 73.9965 4503
v 3785 73.9559 4501
v 3785 73.901 4499
v 3785 73.9219 4497
v 3785 73.9527 4495
v 3785 73.9309 4493
v 3785 73.8588 4491
v 3785 73.7843 4489
v 3785 73.7065 4487
v 3785 73.7402 4485
v 3785 73.9137 4483
v 3785 74.1266 4481
v 3785 74.3474 4479
v 3785 74.4636 4477
v 3785 74.3977 4475
v 3785 74.2371 4473
v 3785 74.1147 4471
v 3785 74.0454 4469
v 3785 74.0602 4467
v 3785 74.1035 4465
v 3785 74.0703 4463
v 3785 74.0095 4461
v 3785 73.9672 4459
v 3785 73.9556 4457
v 3785 73.9691 4455
v 3785 74.0279 4453
v 3785 74.0279 4451
v 3785 73.9339 4449
v 3785 73.8194 4447
v 3785 73.5507 4445
v 3785 73.9892 4443
v 3787 73.9362 4505
v 3787 74.033 4503
v 3787 74.0699 4501
v 3787 74.0504 4499
v 3787 74.0273 4497
v 3787 73.979 4495
v 3787 73.8849 4493
v 3787 73.7688 4491
v 3787 73.6831 4489
v 3787 73.6293 4487
v 3787 73.7095 4485
v 3787 73.9297 4483
v 3787 74.1602 4481
v 3787 74.3432 4479
v 3787 74.4214 4477
v 3787 74.3622 4475
v 3787 74.2557 4473
v 3787 74.1999 4471
v 3787 74.1587 4469
v 3787 74.1444 4467
v 3787 74.1347 4465
v 3787 74.0846 4463
v 3787 74.0197 4461
v 3787 73.9778 4459
v 3787 73.9656 4457
v 3787 73.9638 4455
v 3787 73.9599 4453
v 3787 73.91 4451
v 3787 73.8173 4449
v 3787 73.6522 4447
v 3787 73.9638 4445
v 3787 74.0033 4443
v 3789 73.8951 4505
v 3789 74.026 4503
v 3789 74.1052 4501
v 3789 74.0934 4499
v 3789 74.0265 4497
v 3789 73.958 4495
v 3789 73.8775 4493
v 3789 73.7874 4491
v 3789 73.6993 4489
v 3789 73.6339 4487
v 3789 73.7115 4485
v 3789 73.9378 4483
v 3789 74.1724 4481
v 3789 74.3083 4479
v 3789 74.3441 4477
v 3789 74.305 4475
v 3789 74.2798 4473
v 3789 74.3244 4471
v 3789 74.3414 4469
v 3789 74.3074 4467
v 3789 74.237 4465
v 3789 74.1577 4463
v 3789 74.0585 4461
v 3789 73.9807 4459
v 3789 73.9394 4457
v 3789 73.9139 4455
v 3789 73.8572 4453
v 3789 73.79 4451
v 3789 73.7461 4449
v 3789 73.7074 4447
v 3789 73.9778 4445
v 3789 74.0703 4443
v 3791 73.9156 4505
v 3791 74.0225 4503
v 3791 74.0782 4501
v 3791 74.035 4499
v 3791 73.9431 4497
v 3791 73.9189 4495
v 3791 73.9274 4493
v 3791 73.9182 4491
v 3791 73.8372 4489
v 3791 73.7333 4487
v 3791 73.7656 4485
v 3791 73.9593 4483
v 3791 74.184 4481
v 3791 74.2803 4479
v 3791 74.2805 4477
v 3791 74.2579 4475
v 3791 74.3001 4473
v 3791 74.427 4471
v 3791 74.4891 4469
v 3791 74.435 4467
v 3791 74.3115 4465
v 3791 74.2107 4463
v 3791 74.096 4461
v 3791 74.0051 4459
v 3791 73.9528 4457
v 3791 73.9115 4455
v 3791 73.8225 4453
v 3791 73.7585 4451
v 3791 73.5391 4449
v 3791 73.9692 4447
v 3791 75.1749 4445
v 3791 74.7593 4443
v 3793 74.0355 4505
v 3793 74.085 4503
v 3793 74.0766 4501
v 3793 73.9877 4499
v 3793 73.8948 4497
v 3793 73.9217 4495
v 3793 74.0055 4493
v 3793 74.0587 4491
v 3793 73.9877 4489
v 3793 73.8578 4487
v 3793 73.8519 4485
v 3793 74.0121 4483
v 3793 74.2242 4481
v 3793 74.3047 4479
v 3793 74.2875 4477
v 3793 74.2625 4475
v 3793 74.3199 4473
v 3793 74.4591 4471
v 3793 74.5066 4469
v 3793 74.4165 4467
v 3793 74.2582 4465
v 3793 74.1615 4463
v 3793 74.0964 4461
v 3793 74.0702 4459
v 3793 74.0667 4457
v 3793 74.03 4455
v 3793 73.9224 4453
v 3793 73.6403 4451
v 3793 73.9693 4449
v 3793 74.3377 4447
v 3793 76.35 4445
v 3793 77.6182 4443
v 3795 74.2164 4505
v 3795 74.1822 4503
v 3795 74.0815 4501
v 3795 73.9362 4499
v 3795 73.8453 4497
v 3795 73.898 4495
v 3795 74.0378 4493
v 3795 74.1637 4491
v 3795 74.1446 4489
v 3795 74.019 4487
v 3795 73.9607 4485
v 3795 74.0377 4483
v 3795 74.2008 4481
v 3795 74.3031 4479
v 3795 74.3375 4477
v 3795 74.357 4475
v 3795 74.4214 4473
v 3795 74.5112 4471
v 3795 74.4803 4469
v 3795 74.3192 4467
v 3795 74.1204 4465
v 3795 74.0358 4463
v 3795 74.0481 4461
v 3795 74.1101 4459
v 3795 74.1584 4457
v 3795 74.112 4455
v 3795 73.9214 4453
v 3795 73.8048 4451
v 3795 73.9757 4449
v 3795 75.7768 4447
v 3795 76.9684 4445
v 3795 78.0108 4443
v 3797 74.2983 4505
v 3797 74.2277 4503
v 3797 74.0889 4501
v 3797 73.9243 4499
v 3797 73.8267 4497
v 3797 73.8544 4495
v 3797 74.0028 4493
v 3797 74.1864 4491
v 3797 74.2466 4489
v 3797 74.1687 4487
v 3797 74.0817 4485
v 3797 74.0702 4483
v 3797 74.1688 4481
v 3797 74.2937 4479
v 3797 74.3882 4477
v 3797 74.4562 4475
v 3797 74.5187 4473
v 3797 74.5567 4471
v 3797 74.478 4469
v 3797 74.2915 4467
v 3797 74.0855 4465
v 3797 74.0048 4463
v 3797 74.0508 4461
v 3797 74.1371 4459
v 3797 74.1773 4457
v 3797 74.0966 4455
v 3797 73.6526 4453
v 3797 73.9786 4451
v 3797 73.674 4449
v 3797 73.5965 4447
v 3797 73.9625 4445
v 3797 75.9944 4443
v 3799 74.2269 4505
v 3799 74.2037 4503
v 3799 74.1204 4501
v 3799 73.9963 4499
v 3799 73.8851 4497
v 3799 73.8373 4495
v 3799 73.9279 4493
v 3799 74.1157 4491
v 3799 74.2446 4489
v 3799 74.2503 4487
v 3799 74.1937 4485
v 3799 74.149 4483
v 3799 74.2036 4481
v 3799 74.3232 4479
v 3799 74.4245 4477
v 3799 74.4888 4475
v 3799 74.5243 4473
v 3799 74.541 4471
v 3799 74.4916 4469
v 3799 74.3645 4467
v 3799 74.2058 4465
v 3799 74.1216 4463
v 3799 74.1457 4461
v 3799 74.1864 4459
v 3799 74.1662 4457
v 3799 73.896 4455
v 3799 73.9233 4453
v 3799 74.1705 4451
v 3799 73.7188 4449
v 3799 73.901 4447
v 3799 73.6824 4445
v 3799 73.9755 4443
v 3801 74.0924 4505
v 3801 74.1564 4503
v 3801 74.1711 4501
v 3801 74.1119 4499
v 3801 73.9885 4497
v 3801 73.8649 4495
v 3801 73.8765 4493
v 3801 74.0258 4491
v 3801 74.1812 4489
v 3801 74.262 4487
v 3801 74.2751 4485
v 3801 74.2644 4483
v 3801 74.3156 4481
v 3801 74.3979 4479
v 3801 74.4373 4477
v 3801 74.4356 4475
v 3801 74.426 4473
v 3801 74.4582 4471
v 3801 74.49 4469
v 3801 74.4656 4467
v 3801 74.3776 4465
v 3801 74.2906 4463
v 3801 74.2802 4461
v 3801 74.2686 4459
v 3801 74.1971 4457
v 3801 73.6938 4455
v 3801 73.9943 4453
v 3801 75.5121 4451
v 3801 75.7203 4449
v 3801 73.9961 4447
v 3801 73.7466 4445
v 3801 74.011 4443
v 3803 74.0399 4505
v 3803 74.1528 4503
v 3803 74.2274 4501
v 3803 74.2068 4499
v 3803 74.08 4497
v 3803 73.9406 4495
v 3803 73.9259 4493
v 3803 74.0446 4491
v 3803 74.1816 4489
v 3803 74.2814 4487
v 3803 74.3461 4485
v 3803 74.3949 4483
v 3803 74.4732 4481
v 3803 74.4964 4479
v 3803 74.4227 4477
v 3803 74.3135 4475
v 3803 74.2569 4473
v 3803 74.3359 4471
v 3803 74.464 4469
v 3803 74.5317 4467
v 3803 74.4921 4465
v 3803 74.3901 4463
v 3803 74.3329 4461
v 3803 74.2803 4459
v 3803 74.1208 4457
v 3803 73.9774 4455
v 3803 74.1315 4453
v 3803 76.2667 4451
v 3803 77.9398 4449
v 3803 78.0704 4447
v 3803 76.8566 4445
v 3803 74.0271 4443
v 3805 74.0544 4505
v 3805 74.1649 4503
v 3805 74.2503 4501
v 3805 74.2374 4499
v 3805 74.111 4497
v 3805 73.9989 4495
v 3805 74.0042 4493
v 3805 74.1144 4491
v 3805 74.2137 4489
v 3805 74.2816 4487
v 3805 74.3513 4485
v 3805 74.4377 4483
v 3805 74.5459 4481
v 3805 74.5337 4479
v 3805 74.3877 4477
v 3805 74.2166 4475
v 3805 74.1467 4473
v 3805 74.2758 4471
v 3805 74.4672 4469
v 3805 74.57 4467
v 3805 74.5274 4465
v 3805 74.39 4463
v 3805 74.268 4461
v 3805 74.175 4459
v 3805 73.7464 4457
v 3805 74.0016 4455
v 3805 75.5959 4453
v 3805 77.1713 4451
v 3805 78.2733 4449
v 3805 79.8078 4447
v 3805 78.9475 4445
v 3805 77.9259 4443
v 3807 74.0846 4505
v 3807 74.1551 4503
v 3807 74.2107 4501
v 3807 74.1789 4499
v 3807 74.0513 4497
v 3807 73.9772 4495
v 3807 74.0161 4493
v 3807 74.1267 4491
v 3807 74.1851 4489
v 3807 74.1927 4487
v 3807 74.2283 4485
v 3807 74.3205 4483
v 3807 74.4501 4481
v 3807 74.4566 4479
v 3807 74.3392 4477
v 3807 74.2069 4475
v 3807 74.1764 4473
v 3807 74.3292 4471
v 3807 74.5069 4469
v 3807 74.556 4467
v 3807 74.4512 4465
v 3807 74.2797 4463
v 3807 74.1264 4461
v 3807 74.0388 4459
v 3807 73.9207 4457
v 3807 74.4214 4455
v 3807 76.4987 4453
v 3807 78.0466 4451
v 3807 79.2072 4449
v 3807 80.6938 4447
v 3807 80.6511 4445
v 3807 79.4973 4443
v 3809 74.0652 4505
v 3809 74.1004 4503
v 3809 74.1268 4501
v 3809 74.0748 4499
v 3809 73.9394 4497
v 3809 73.8749 4495
v 3809 73.919 4493
v 3809 74.019 4491
v 3809 74.05 4489
v 3809 74.014 4487
v 3809 74.0181 4485
v 3809 74.1042 4483
v 3809 74.2444 4481
v 3809 74.3029 4479
v 3809 74.2785 4477
v 3809 74.2445 4475
v 3809 74.2763 4473
v 3809 74.4244 4471
v 3809 74.5414 4469
v 3809 74.4995 4467
v 3809 74.3195 4465
v 3809 74.1328 4463
v 3809 73.9976 4461
v 3809 73.9601 4459
v 3809 73.9969 4457
v 3809 75.7757 4455
v 3809 77.526 4453
v 3809 78.7074 4451
v 3809 80.1842 4449
v 3809 81.0278 4447
v 3809 81.003 4445
v 3809 80.2741 4443
v 3811 73.9511 4505
v 3811 74.0138 4503
v 3811 74.0667 4501
v 3811 74.0262 4499
v 3811 73.8732 4497
v 3811 73.7578 4495
v 3811 73.7466 4493
v 3811 73.8122 4491
v 3811 73.8466 4489
v 3811 73.8309 4487
v 3811 73.8454 4485
v 3811 73.9238 4483
v 3811 74.0478 4481
v 3811 74.1376 4479
v 3811 74.1945 4477
v 3811 74.2525 4475
v 3811 74.3368 4473
v 3811 74.4705 4471
v 3811 74.5475 4469
v 3811 74.4658 4467
v 3811 74.2667 4465
v 3811 74.0952 4463
v 3811 73.9961 4461
v 3811 73.7502 4459
v 3811 74.1473 4457
v 3811 76.6285 4455
v 3811 77.299 4453
v 3811 78.1341 4451
v 3811 79.2605 4449
v 3811 80.1669 4447
v 3811 80.3572 4445
v 3811 80.3971 4443
v 3813 73.8789 4505
v 3813 73.9884 4503
v 3813 74.0726 4501
v 3813 74.0401 4499
v 3813 73.8658 4497
v 3813 73.6855 4495
v 3813 73.6163 4493
v 3813 73.6647 4491
v 3813 73.7354 4489
v 3813 73.7796 4487
v 3813 73.8055 4485
v 3813 73.8292 4483
v 3813 73.8801 4481
v 3813 73.9578 4479
v 3813 74.0764 4477
v 3813 74.235 4475
v 3813 74.3864 4473
v 3813 74.5058 4471
v 3813 74.5551 4469
v 3813 74.4653 4467
v 3813 74.2874 4465
v 3813 74.1545 4463
v 3813 74.0761 4461
v 3813 73.7368 4459
v 3813 74.9372 4457
v 3813 75.7621 4455
v 3813 74.9307 4453
v 3813 76.1727 4451
v 3813 77.8413 4449
v 3813 78.8187 4447
v 3813 79.5499 4445
v 3813 80.3788 4443
f 93 84 92
f 94 84 93
f 73 72 71
f 74 72 73
f 67 65 70
f 70 65 69
f 370 369 368
f 231 230 229
f 232 230 231
f 92 84 91
f 58 71 56
f 73 71 58
f 68 66 67
f 67 66 65
f 223 222 221
f 224 222 223
f 220 218 219
f 219 218 217
f 255 254 253
f 256 254 255
f 243 242 241
f 239 238 237
f 240 238 239
f 227 226 225
f 228 226 227
f 374 368 372
f 370 368 374
f 207 206 205
f 208 206 207
f 209 208 207
f 247 246 245
f 248 246 247
f 244 242 243
f 205 204 203
f 206 204 205
f 210 208 209
f 213 212 211
f 214 212 213
f 204 216 203
f 203 216 215
f 215 214 213
f 216 214 215
f 177 176 175
f 178 176 177
f 174 172 173
f 173 172 171
f 170 168 169
f 251 250 249
f 252 250 251
f 201 200 199
f 202 200 201
f 193 192 191
f 194 192 193
f 189 188 187
f 190 188 189
f 236 234 235
f 235 234 233
f 159 158 157
f 155 154 153
f 156 154 155
f 153 152 151
f 154 152 153
f 160 158 159
f 161 160 159
f 162 160 161
f 165 164 163
f 166 164 165
f 185 184 183
f 186 184 185
f 181 180 179
f 197 196 195
f 198 196 197
f 169 168 167
f 182 180 181
f 152 150 151
f 151 150 149
f 149 162 161
f 150 162 149
f 85 84 83
f 86 84 85
f 87 84 86
f 88 84 87
f 89 84 88
f 90 84 89
f 91 84 90
f 57 56 55
f 58 56 57
f 82 81 68
f 68 81 66
f 373 372 371
f 374 372 373
f 285 284 283
f 286 284 285
f 277 276 275
f 278 276 277
f 274 272 273
f 273 272 271
f 309 308 307
f 310 308 309
f 297 296 295
f 293 292 291
f 294 292 293
f 290 288 289
f 289 288 287
f 259 258 257
f 260 258 259
f 261 260 259
f 305 304 303
f 306 304 305
f 298 296 297
f 257 270 269
f 258 270 257
f 262 260 261
f 263 262 261
f 264 262 263
f 270 268 269
f 269 268 267
f 267 266 265
f 268 266 267
f 301 300 299
f 302 300 301
f 281 280 279
f 282 280 281
f 60 55 59
f 57 55 60
f 80 79 82
f 82 79 81
f 376 373 375
f 375 373 371
f 127 126 125
f 119 118 117
f 120 118 119
f 128 126 127
f 115 114 113
f 116 114 115
f 143 142 141
f 144 142 143
f 139 138 137
f 140 138 139
f 136 134 135
f 123 122 121
f 124 122 123
f 105 104 103
f 106 104 105
f 107 106 105
f 147 146 145
f 148 146 147
f 135 134 133
f 101 100 99
f 102 100 101
f 108 106 107
f 95 108 107
f 96 108 95
f 100 98 99
f 99 98 97
f 97 96 95
f 98 96 97
f 131 130 129
f 132 130 131
f 111 110 109
f 112 110 111
f 344 342 343
f 331 330 329
f 327 326 325
f 328 326 327
f 343 342 341
f 359 358 357
f 360 358 359
f 351 350 349
f 352 350 351
f 347 346 345
f 348 346 347
f 367 365 375
f 375 365 376
f 311 324 323
f 312 324 311
f 313 312 311
f 323 322 321
f 324 322 323
f 314 312 313
f 62 59 61
f 60 59 62
f 335 334 333
f 77 75 80
f 80 75 79
f 315 314 313
f 316 314 315
f 332 330 331
f 339 338 337
f 340 338 339
f 355 354 353
f 356 354 355
f 336 334 335
f 363 362 361
f 364 362 363
f 322 320 321
f 321 320 319
f 317 316 315
f 318 316 317
f 33 32 31
f 25 24 23
f 26 24 25
f 34 32 33
f 21 20 19
f 22 20 21
f 49 48 47
f 50 48 49
f 45 44 43
f 46 44 45
f 42 40 41
f 17 16 15
f 18 16 17
f 13 12 11
f 14 12 13
f 1 14 13
f 41 40 39
f 37 36 35
f 38 36 37
f 11 10 9
f 12 10 11
f 2 14 1
f 3 2 1
f 4 2 3
f 8 6 7
f 7 6 5
f 5 4 3
f 6 4 5
f 53 52 51
f 54 52 53
f 367 366 365
f 29 28 27
f 30 28 29
f 78 76 77
f 77 76 75
f 64 61 63
f 62 61 64
f 381 380 379
f 381 382 380
f 383 382 381
f 379 378 377
f 378 379 380
f 382 383 384
f 385 384 383
f 382 402 380
f 384 403 382
f 402 382 403
f 380 402 401
f 380 401 378
f 385 386 384
f 384 404 403
f 386 404 384
f 403 414 402
f 414 403 415
f 404 415 403
f 377 400 399
f 377 378 400
f 387 386 385
f 404 386 405
f 405 416 404
f 404 416 415
f 402 414 413
f 402 413 401
f 386 387 388
f 388 405 386
f 378 412 400
f 412 378 401
f 415 425 414
f 415 416 425
f 388 406 405
f 406 417 405
f 416 405 417
f 401 424 412
f 424 401 413
f 417 425 416
f 414 425 413
f 406 418 417
f 417 418 425
f 424 413 425
f 390 406 388
f 406 390 407
f 418 407 419
f 407 418 406
f 419 425 418
f 419 420 425
f 421 425 420
f 412 423 411
f 412 424 423
f 424 425 423
f 422 423 425
f 422 425 421
f 400 411 398
f 400 412 411
f 389 388 387
f 389 390 388
f 399 398 397
f 398 399 400
f 408 419 407
f 408 420 419
f 422 411 423
f 410 422 421
f 411 422 410
f 420 409 421
f 409 420 408
f 410 398 411
f 392 407 390
f 392 408 407
f 410 421 409
f 398 410 396
f 397 398 396
f 391 390 389
f 390 391 392
f 396 410 409
f 394 408 392
f 408 394 409
f 397 396 395
f 396 409 394
f 393 392 391
f 393 394 392
f 394 395 396
f 395 394 393
f 768 767 766
f 768 769 767
f 770 769 768
f 847 848 846
f 847 846 845
f 845 846 844
f 833 830 832
f 831 830 833
f 831 826 830
f 803 799 802
f 798 799 803
f 807 805 806
f 806 805 804
f 849 848 847
f 770 771 769
f 828 826 831
f 772 771 770
f 766 765 764
f 766 767 765
f 845 844 843
f 843 844 841
f 849 850 848
f 630 625 624
f 631 625 630
f 634 631 630
f 612 632 636
f 610 632 612
f 610 626 632
f 636 632 637
f 632 633 637
f 632 626 633
f 819 832 817
f 833 832 819
f 828 827 826
f 800 799 798
f 806 804 791
f 772 773 771
f 800 801 799
f 791 804 789
f 851 850 849
f 612 611 610
f 613 611 612
f 614 613 612
f 612 636 614
f 626 627 633
f 635 631 634
f 624 623 622
f 625 623 624
f 608 626 610
f 608 628 626
f 626 628 627
f 598 601 600
f 601 598 599
f 594 599 598
f 829 827 828
f 610 609 608
f 611 609 610
f 628 629 627
f 615 613 614
f 599 594 595
f 596 595 594
f 640 639 638
f 616 644 642
f 642 644 643
f 644 645 643
f 595 596 597
f 618 617 616
f 616 642 618
f 641 639 640
f 604 603 602
f 603 604 605
f 619 617 618
f 606 597 596
f 597 606 607
f 609 621 608
f 628 648 629
f 648 649 629
f 623 647 622
f 608 621 620
f 620 628 608
f 607 602 603
f 620 648 628
f 622 647 646
f 602 607 606
f 620 619 618
f 621 619 620
f 642 643 649
f 646 641 640
f 647 641 646
f 618 648 620
f 618 642 648
f 648 642 649
f 584 583 582
f 578 575 574
f 579 575 578
f 556 580 558
f 556 576 580
f 580 576 581
f 588 589 587
f 586 588 587
f 560 588 586
f 559 557 558
f 558 557 556
f 560 586 562
f 562 561 560
f 576 577 581
f 585 583 584
f 574 569 568
f 575 569 574
f 554 576 556
f 576 570 577
f 554 570 576
f 542 545 544
f 548 547 546
f 547 548 549
f 557 555 556
f 556 555 554
f 570 571 577
f 563 561 562
f 545 542 543
f 538 543 542
f 590 585 584
f 562 586 592
f 592 586 593
f 586 587 593
f 543 538 539
f 562 592 564
f 564 563 562
f 591 585 590
f 546 551 550
f 551 546 547
f 565 563 564
f 540 539 538
f 539 540 541
f 555 553 554
f 572 573 571
f 570 572 571
f 569 567 568
f 554 553 552
f 552 570 554
f 541 550 551
f 552 572 570
f 568 567 566
f 774 773 772
f 764 763 762
f 764 765 763
f 843 841 842
f 842 841 840
f 851 852 850
f 550 541 540
f 552 565 564
f 553 565 552
f 818 817 816
f 819 817 818
f 791 789 790
f 774 775 773
f 829 838 827
f 800 814 801
f 815 814 800
f 790 789 788
f 853 852 851
f 592 593 573
f 566 591 590
f 567 591 566
f 564 572 552
f 564 592 572
f 572 592 573
f 839 838 829
f 680 679 678
f 681 679 680
f 686 681 680
f 688 682 689
f 682 683 689
f 682 684 683
f 666 682 688
f 664 682 666
f 664 684 682
f 666 688 668
f 666 665 664
f 667 665 666
f 668 667 666
f 684 685 683
f 687 681 686
f 678 703 702
f 679 703 678
f 684 704 685
f 676 684 664
f 676 704 684
f 650 655 654
f 655 650 651
f 652 651 650
f 664 677 676
f 665 677 664
f 704 705 685
f 669 667 668
f 651 652 653
f 662 653 652
f 690 687 686
f 692 688 693
f 688 689 693
f 668 688 692
f 653 662 663
f 668 692 670
f 670 669 668
f 691 687 690
f 654 657 656
f 657 654 655
f 671 669 670
f 658 663 662
f 663 658 659
f 677 675 676
f 704 698 705
f 698 699 705
f 703 697 702
f 674 704 676
f 676 675 674
f 659 660 661
f 674 698 704
f 702 697 696
f 660 659 658
f 674 673 672
f 675 673 674
f 700 701 699
f 696 695 694
f 697 695 696
f 672 700 698
f 672 698 674
f 698 700 699
f 762 787 786
f 762 763 787
f 842 840 865
f 865 840 864
f 776 775 774
f 776 777 775
f 839 836 838
f 837 836 839
f 821 816 820
f 818 816 821
f 815 812 814
f 813 812 815
f 790 788 793
f 793 788 792
f 855 854 853
f 853 854 852
f 528 527 526
f 529 527 528
f 534 529 528
f 530 531 537
f 530 532 531
f 504 532 530
f 504 530 506
f 506 530 536
f 536 530 537
f 506 505 504
f 507 505 506
f 508 507 506
f 506 536 508
f 532 533 531
f 535 529 534
f 522 519 518
f 523 519 522
f 524 520 525
f 500 520 524
f 500 524 502
f 490 495 494
f 495 490 491
f 492 491 490
f 502 501 500
f 503 501 502
f 520 521 525
f 509 507 508
f 486 489 488
f 491 492 493
f 510 535 534
f 508 536 516
f 536 537 517
f 516 536 517
f 489 486 487
f 496 509 508
f 508 516 496
f 511 535 510
f 494 485 484
f 485 494 495
f 497 509 496
f 482 487 486
f 487 482 483
f 501 499 500
f 514 515 521
f 520 514 521
f 519 513 518
f 498 520 500
f 500 499 498
f 483 484 485
f 498 514 520
f 518 513 512
f 484 483 482
f 498 497 496
f 499 497 498
f 516 517 515
f 512 511 510
f 513 511 512
f 496 514 498
f 496 516 514
f 514 516 515
f 734 759 758
f 735 759 734
f 736 735 734
f 738 740 739
f 720 740 738
f 732 740 720
f 732 760 740
f 740 741 739
f 740 760 741
f 720 738 722
f 722 721 720
f 721 733 720
f 720 733 732
f 760 761 741
f 737 735 736
f 758 753 752
f 759 753 758
f 821 820 823
f 837 834 836
f 835 834 837
f 730 760 732
f 730 754 760
f 760 754 761
f 708 707 706
f 707 708 709
f 718 709 708
f 733 731 732
f 732 731 730
f 754 755 761
f 723 721 722
f 823 820 822
f 793 792 795
f 778 777 776
f 778 779 777
f 786 787 785
f 813 808 812
f 810 808 813
f 795 792 794
f 865 864 863
f 857 856 855
f 855 856 854
f 709 718 719
f 714 719 718
f 786 785 784
f 863 864 861
f 742 737 736
f 744 738 745
f 722 738 744
f 738 739 745
f 719 714 715
f 724 723 722
f 722 744 724
f 743 737 742
f 706 711 710
f 711 706 707
f 725 723 724
f 716 715 714
f 715 716 717
f 731 729 730
f 754 756 755
f 756 757 755
f 753 751 752
f 730 729 728
f 728 754 730
f 713 710 711
f 728 756 754
f 752 751 750
f 710 713 712
f 727 725 726
f 726 725 724
f 744 745 749
f 746 743 742
f 747 743 746
f 724 748 726
f 724 744 748
f 748 744 749
f 478 473 472
f 479 473 478
f 454 479 478
f 480 474 481
f 480 481 461
f 460 480 461
f 452 480 460
f 450 480 452
f 450 474 480
f 452 460 440
f 440 453 452
f 453 451 452
f 452 451 450
f 474 475 481
f 455 479 454
f 472 471 470
f 473 471 472
f 474 476 475
f 448 474 450
f 448 476 474
f 438 429 428
f 429 438 439
f 434 439 438
f 451 449 450
f 450 449 448
f 476 477 475
f 441 453 440
f 439 434 435
f 436 435 434
f 456 455 454
f 460 461 459
f 458 460 459
f 440 460 458
f 435 436 437
f 440 458 442
f 442 441 440
f 457 455 456
f 428 427 426
f 427 428 429
f 443 441 442
f 430 433 432
f 433 430 431
f 447 445 446
f 464 465 469
f 467 463 466
f 468 464 469
f 444 468 446
f 446 445 444
f 431 426 427
f 444 464 468
f 466 463 462
f 426 431 430
f 445 443 444
f 444 443 442
f 458 459 465
f 462 457 456
f 463 457 462
f 442 464 444
f 442 458 464
f 823 822 825
f 835 824 834
f 825 824 835
f 464 458 465
f 810 809 808
f 859 856 857
f 780 779 778
f 780 781 779
f 795 794 797
f 797 794 796
f 863 861 862
f 784 785 783
f 825 822 824
f 811 809 810
f 856 859 858
f 784 783 782
f 862 861 860
f 866 867 868
f 868 867 869
f 870 871 872
f 872 871 873
f 874 875 876
f 876 875 877
f 878 879 880
f 880 879 881
f 882 883 884
f 884 883 885
f 886 887 888
f 888 887 889
f 890 891 892
f 892 891 893
f 894 895 896
f 896 895 897
f 898 899 900
f 900 899 901
f 902 903 904
f 904 903 905
f 906 907 908
f 908 907 909
f 910 911 912
f 912 911 913
f 914 915 916
f 916 915 917
f 918 919 920
f 920 919 921
f 922 923 924
f 924 923 925
f 926 927 928
f 928 927 929
f 930 931 932
f 932 931 933
f 934 935 936
f 936 935 937
f 938 939 940
f 940 939 941
f 942 943 944
f 944 943 945
f 946 947 948
f 948 947 949
f 950 951 952
f 952 951 953
f 954 955 956
f 956 955 957
f 958 959 960
f 960 959 961
f 995 963 962
f 962 994 995
f 1027 995 994
f 994 1026 1027
f 1059 1027 1026
f 1026 1058 1059
f 1091 1059 1058
f 1058 1090 1091
f 1123 1091 1090
f 1090 1122 1123
f 1155 1123 1122
f 1122 1154 1155
f 1187 1155 1154
f 1154 1186 1187
f 1219 1187 1186
f 1186 1218 1219
f 1251 1219 1218
f 1218 1250 1251
f 1283 1251 1250
f 1250 1282 1283
f 1315 1283 1282
f 1282 1314 1315
f 1347 1315 1314
f 1314 1346 1347
f 1379 1347 1346
f 1346 1378 1379
f 1411 1379 1378
f 1378 1410 1411
f 1443 1411 1410
f 1410 1442 1443
f 1475 1443 1442
f 1442 1474 1475
f 1507 1475 1474
f 1474 1506 1507
f 1539 1507 1506
f 1506 1538 1539
f 1571 1539 1538
f 1538 1570 1571
f 1603 1571 1570
f 1570 1602 1603
f 1635 1603 1602
f 1602 1634 1635
f 1667 1635 1634
f 1634 1666 1667
f 1699 1667 1666
f 1666 1698 1699
f 1731 1699 1698
f 1698 1730 1731
f 1763 1731 1730
f 1730 1762 1763
f 1795 1763 1762
f 1762 1794 1795
f 1827 1795 1794
f 1794 1826 1827
f 1859 1827 1826
f 1826 1858 1859
f 1891 1859 1858
f 1858 1890 1891
f 1923 1891 1890
f 1890 1922 1923
f 1955 1923 1922
f 1922 1954 1955
f 996 964 963
f 963 995 996
f 1028 996 995
f 995 1027 1028
f 1060 1028 1027
f 1027 1059 1060
f 1092 1060 1059
f 1059 1091 1092
f 1124 1092 1091
f 1091 1123 1124
f 1156 1124 1123
f 1123 1155 1156
f 1188 1156 1155
f 1155 1187 1188
f 1220 1188 1187
f 1187 1219 1220
f 1252 1220 1219
f 1219 1251 1252
f 1284 1252 1251
f 1251 1283 1284
f 1316 1284 1283
f 1283 1315 1316
f 1348 1316 1315
f 1315 1347 1348
f 1380 1348 1347
f 1347 1379 1380
f 1412 1380 1379
f 1379 1411 1412
f 1444 1412 1411
f 1411 1443 1444
f 1476 1444 1443
f 1443 1475 1476
f 1508 1476 1475
f 1475 1507 1508
f 1540 1508 1507
f 1507 1539 1540
f 1572 1540 1539
f 1539 1571 1572
f 1604 1572 1571
f 1571 1603 1604
f 1636 1604 1603
f 1603 1635 1636
f 1668 1636 1635
f 1635 1667 1668
f 1700 1668 1667
f 1667 1699 1700
f 1732 1700 1699
f 1699 1731 1732
f 1764 1732 1731
f 1731 1763 1764
f 1796 1764 1763
f 1763 1795 1796
f 1828 1796 1795
f 1795 1827 1828
f 1860 1828 1827
f 1827 1859 1860
f 1892 1860 1859
f 1859 1891 1892
f 1924 1892 1891
f 1891 1923 1924
f 1956 1924 1923
f 1923 1955 1956
f 997 965 964
f 964 996 997
f 1029 997 996
f 996 1028 1029
f 1061 1029 1028
f 1028 1060 1061
f 1093 1061 1060
f 1060 1092 1093
f 1125 1093 1092
f 1092 1124 1125
f 1157 1125 1124
f 1124 1156 1157
f 1189 1157 1156
f 1156 1188 1189
f 1221 1189 1188
f 1188 1220 1221
f 1253 1221 1220
f 1220 1252 1253
f 1285 1253 1252
f 1252 1284 1285
f 1317 1285 1284
f 1284 1316 1317
f 1349 1317 1316
f 1316 1348 1349
f 1381 1349 1348
f 1348 1380 1381
f 1413 1381 1380
f 1380 1412 1413
f 1445 1413 1412
f 1412 1444 1445
f 1477 1445 1444
f 1444 1476 1477
f 1509 1477 1476
f 1476 1508 1509
f 1541 1509 1508
f 1508 1540 1541
f 1573 1541 1540
f 1540 1572 1573
f 1605 1573 1572
f 1572 1604 1605
f 1637 1605 1604
f 1604 1636 1637
f 1669 1637 1636
f 1636 1668 1669
f 1701 1669 1668
f 1668 1700 1701
f 1733 1701 1700
f 1700 1732 1733
f 1765 1733 1732
f 1732 1764 1765
f 1797 1765 1764
f 1764 1796 1797
f 1829 1797 1796
f 1796 1828 1829
f 1861 1829 1828
f 1828 1860 1861
f 1893 1861 1860
f 1860 1892 1893
f 1925 1893 1892
f 1892 1924 1925
f 1957 1925 1924
f 1924 1956 1957
f 998 966 965
f 965 997 998
f 1030 998 997
f 997 1029 1030
f 1062 1030 1029
f 1029 1061 1062
f 1094 1062 1061
f 1061 1093 1094
f 1126 1094 1093
f 1093 1125 1126
f 1158 1126 1125
f 1125 1157 1158
f 1190 1158 1157
f 1157 1189 1190
f 1222 1190 1189
f 1189 1221 1222
f 1254 1222 1221
f 1221 1253 1254
f 1286 1254 1253
f 1253 1285 1286
f 1318 1286 1285
f 1285 1317 1318
f 1350 1318 1317
f 1317 1349 1350
f 1382 1350 1349
f 1349 1381 1382
f 1414 1382 1381
f 1381 1413 1414
f 1446 1414 1413
f 1413 1445 1446
f 1478 1446 1445
f 1445 1477 1478
f 1510 1478 1477
f 1477 1509 1510
f 1542 1510 1509
f 1509 1541 1542
f 1574 1542 1541
f 1541 1573 1574
f 1606 1574 1573
f 1573 1605 1606
f 1638 1606 1605
f 1605 1637 1638
f 1670 1638 1637
f 1637 1669 1670
f 1702 1670 1669
f 1669 1701 1702
f 1734 1702 1701
f 1701 1733 1734
f 1766 1734 1733
f 1733 1765 1766
f 1798 1766 1765
f 1765 1797 1798
f 1830 1798 1797
f 1797 1829 1830
f 1862 1830 1829
f 1829 1861 1862
f 1894 1862 1861
f 1861 1893 1894
f 1926 1894 1893
f 1893 1925 1926
f 1958 1926 1925
f 1925 1957 1958
f 999 967 966
f 966 998 999
f 1031 999 998
f 998 1030 1031
f 1063 1031 1030
f 1030 1062 1063
f 1095 1063 1062
f 1062 1094 1095
f 1127 1095 1094
f 1094 1126 1127
f 1159 1127 1126
f 1126 1158 1159
f 1191 1159 1158
f 1158 1190 1191
f 1223 1191 1190
f 1190 1222 1223
f 1255 1223 1222
f 1222 1254 1255
f 1287 1255 1254
f 1254 1286 1287
f 1319 1287 1286
f 1286 1318 1319
f 1351 1319 1318
f 1318 1350 1351
f 1383 1351 1350
f 1350 1382 1383
f 1415 1383 1382
f 1382 1414 1415
f 1447 1415 1414
f 1414 1446 1447
f 1479 1447 1446
f 1446 1478 1479
f 1511 1479 1478
f 1478 1510 1511
f 1543 1511 1510
f 1510 1542 1543
f 1575 1543 1542
f 1542 1574 1575
f 1607 1575 1574
f 1574 1606 1607
f 1639 1607 1606
f 1606 1638 1639
f 1671 1639 1638
f 1638 1670 1671
f 1703 1671 1670
f 1670 1702 1703
f 1735 1703 1702
f 1702 1734 1735
f 1767 1735 1734
f 1734 1766 1767
f 1799 1767 1766
f 1766 1798 1799
f 1831 1799 1798
f 1798 1830 1831
f 1863 1831 1830
f 1830 1862 1863
f 1895 1863 1862
f 1862 1894 1895
f 1927 1895 1894
f 1894 1926 1927
f 1959 1927 1926
f 1926 1958 1959
f 1000 968 967
f 967 999 1000
f 1032 1000 999
f 999 1031 1032
f 1064 1032 1031
f 1031 1063 1064
f 1096 1064 1063
f 1063 1095 1096
f 1128 1096 1095
f 1095 1127 1128
f 1160 1128 1127
f 1127 1159 1160
f 1192 1160 1159
f 1159 1191 1192
f 1224 1192 1191
f 1191 1223 1224
f 1256 1224 1223
f 1223 1255 1256
f 1288 1256 1255
f 1255 1287 1288
f 1320 1288 1287
f 1287 1319 1320
f 1352 1320 1319
f 1319 1351 1352
f 1384 1352 1351
f 1351 1383 1384
f 1416 1384 1383
f 1383 1415 1416
f 1448 1416 1415
f 1415 1447 1448
f 1480 1448 1447
f 1447 1479 1480
f 1512 1480 1479
f 1479 1511 1512
f 1544 1512 1511
f 1511 1543 1544
f 1576 1544 1543
f 1543 1575 1576
f 1608 1576 1575
f 1575 1607 1608
f 1640 1608 1607
f 1607 1639 1640
f 1672 1640 1639
f 1639 1671 1672
f 1704 1672 1671
f 1671 1703 1704
f 1736 1704 1703
f 1703 1735 1736
f 1768 1736 1735
f 1735 1767 1768
f 1800 1768 1767
f 1767 1799 1800
f 1832 1800 1799
f 1799 1831 1832
f 1864 1832 1831
f 1831 1863 1864
f 1896 1864 1863
f 1863 1895 1896
f 1928 1896 1895
f 1895 1927 1928
f 1960 1928 1927
f 1927 1959 1960
f 1001 969 968
f 968 1000 1001
f 1033 1001 1000
f 1000 1032 1033
f 1065 1033 1032
f 1032 1064 1065
f 1097 1065 1064
f 1064 1096 1097
f 1129 1097 1096
f 1096 1128 1129
f 1161 1129 1128
f 1128 1160 1161
f 1193 1161 1160
f 1160 1192 1193
f 1225 1193 1192
f 1192 1224 1225
f 1257 1225 1224
f 1224 1256 1257
f 1289 1257 1256
f 1256 1288 1289
f 1321 1289 1288
f 1288 1320 1321
f 1353 1321 1320
f 1320 1352 1353
f 1385 1353 1352
f 1352 1384 1385
f 1417 1385 1384
f 1384 1416 1417
f 1449 1417 1416
f 1416 1448 1449
f 1481 1449 1448
f 1448 1480 1481
f 1513 1481 1480
f 1480 1512 1513
f 1545 1513 1512
f 1512 1544 1545
f 1577 1545 1544
f 1544 1576 1577
f 1609 1577 1576
f 1576 1608 1609
f 1641 1609 1608
f 1608 1640 1641
f 1673 1641 1640
f 1640 1672 1673
f 1705 1673 1672
f 1672 1704 1705
f 1737 1705 1704
f 1704 1736 1737
f 1769 1737 1736
f 1736 1768 1769
f 1801 1769 1768
f 1768 1800 1801
f 1833 1801 1800
f 1800 1832 1833
f 1865 1833 1832
f 1832 1864 1865
f 1897 1865 1864
f 1864 1896 1897
f 1929 1897 1896
f 1896 1928 1929
f 1961 1929 1928
f 1928 1960 1961
f 1002 970 969
f 969 1001 1002
f 1034 1002 1001
f 1001 1033 1034
f 1066 1034 1033
f 1033 1065 1066
f 1098 1066 1065
f 1065 1097 1098
f 1130 1098 1097
f 1097 1129 1130
f 1162 1130 1129
f 1129 1161 1162
f 1194 1162 1161
f 1161 1193 1194
f 1226 1194 1193
f 1193 1225 1226
f 1258 1226 1225
f 1225 1257 1258
f 1290 1258 1257
f 1257 1289 1290
f 1322 1290 1289
f 1289 1321 1322
f 1354 1322 1321
f 1321 1353 1354
f 1386 1354 1353
f 1353 1385 1386
f 1418 1386 1385
f 1385 1417 1418
f 1450 1418 1417
f 1417 1449 1450
f 1482 1450 1449
f 1449 1481 1482
f 1514 1482 1481
f 1481 1513 1514
f 1546 1514 1513
f 1513 1545 1546
f 1578 1546 1545
f 1545 1577 1578
f 1610 1578 1577
f 1577 1609 1610
f 1642 1610 1609
f 1609 1641 1642
f 1674 1642 1641
f 1641 1673 1674
f 1706 1674 1673
f 1673 1705 1706
f 1738 1706 1705
f 1705 1737 1738
f 1770 1738 1737
f 1737 1769 1770
f 1802 1770 1769
f 1769 1801 1802
f 1834 1802 1801
f 1801 1833 1834
f 1866 1834 1833
f 1833 1865 1866
f 1898 1866 1865
f 1865 1897 1898
f 1930 1898 1897
f 1897 1929 1930
f 1962 1930 1929
f 1929 1961 1962
f 1003 971 970
f 970 1002 1003
f 1035 1003 1002
f 1002 1034 1035
f 1067 1035 1034
f 1034 1066 1067
f 1099 1067 1066
f 1066 1098 1099
f 1131 1099 1098
f 1098 1130 1131
f 1163 1131 1130
f 1130 1162 1163
f 1195 1163 1162
f 1162 1194 1195
f 1227 1195 1194
f 1194 1226 1227
f 1259 1227 1226
f 1226 1258 1259
f 1291 1259 1258
f 1258 1290 1291
f 1323 1291 1290
f 1290 1322 1323
f 1355 1323 1322
f 1322 1354 1355
f 1387 1355 1354
f 1354 1386 1387
f 1419 1387 1386
f 1386 1418 1419
f 1451 1419 1418
f 1418 1450 1451
f 1483 1451 1450
f 1450 1482 1483
f 1515 1483 1482
f 1482 1514 1515
f 1547 1515 1514
f 1514 1546 1547
f 1579 1547 1546
f 1546 1578 1579
f 1611 1579 1578
f 1578 1610 1611
f 1643 1611 1610
f 1610 1642 1643
f 1675 1643 1642
f 1642 1674 1675
f 1707 1675 1674
f 1674 1706 1707
f 1739 1707 1706
f 1706 1738 1739
f 1771 1739 1738
f 1738 1770 1771
f 1803 1771 1770
f 1770 1802 1803
f 1835 1803 1802
f 1802 1834 1835
f 1867 1835 1834
f 1834 1866 1867
f 1899 1867 1866
f 1866 1898 1899
f 1931 1899 1898
f 1898 1930 1931
f 1963 1931 1930
f 1930 1962 1963
f 1004 972 971
f 971 1003 1004
f 1036 1004 1003
f 1003 1035 1036
f 1068 1036 1035
f 1035 1067 1068
f 1100 1068 1067
f 1067 1099 1100
f 1132 1100 1099
f 1099 1131 1132
f 1164 1132 1131
f 1131 1163 1164
f 1196 1164 1163
f 1163 1195 1196
f 1228 1196 1195
f 1195 1227 1228
f 1260 1228 1227
f 1227 1259 1260
f 1292 1260 1259
f 1259 1291 1292
f 1324 1292 1291
f 1291 1323 1324
f 1356 1324 1323
f 1323 1355 1356
f 1388 1356 1355
f 1355 1387 1388
f 1420 1388 1387
f 1387 1419 1420
f 1452 1420 1419
f 1419 1451 1452
f 1484 1452 1451
f 1451 1483 1484
f 1516 1484 1483
f 1483 1515 1516
f 1548 1516 1515
f 1515 1547 1548
f 1580 1548 1547
f 1547 1579 1580
f 1612 1580 1579
f 1579 1611 1612
f 1644 1612 1611
f 1611 1643 1644
f 1676 1644 1643
f 1643 1675 1676
f 1708 1676 1675
f 1675 1707 1708
f 1740 1708 1707
f 1707 1739 1740
f 1772 1740 1739
f 1739 1771 1772
f 1804 1772 1771
f 1771 1803 1804
f 1836 1804 1803
f 1803 1835 1836
f 1868 1836 1835
f 1835 1867 1868
f 1900 1868 1867
f 1867 1899 1900
f 1932 1900 1899
f 1899 1931 1932
f 1964 1932 1931
f 1931 1963 1964
f 1005 973 972
f 972 1004 1005
f 1037 1005 1004
f 1004 1036 1037
f 1069 1037 1036
f 1036 1068 1069
f 1101 1069 1068
f 1068 1100 1101
f 1133 1101 1100
f 1100 1132 1133
f 1165 1133 1132
f 1132 1164 1165
f 1197 1165 1164
f 1164 1196 1197
f 1229 1197 1196
f 1196 1228 1229
f 1261 1229 1228
f 1228 1260 1261
f 1293 1261 1260
f 1260 1292 1293
f 1325 1293 1292
f 1292 1324 1325
f 1357 1325 1324
f 1324 1356 1357
f 1389 1357 1356
f 1356 1388 1389
f 1421 1389 1388
f 1388 1420 1421
f 1453 1421 1420
f 1420 1452 1453
f 1485 1453 1452
f 1452 1484 1485
f 1517 1485 1484
f 1484 1516 1517
f 1549 1517 1516
f 1516 1548 1549
f 1581 1549 1548
f 1548 1580 1581
f 1613 1581 1580
f 1580 1612 1613
f 1645 1613 1612
f 1612 1644 1645
f 1677 1645 1644
f 1644 1676 1677
f 1709 1677 1676
f 1676 1708 1709
f 1741 1709 1708
f 1708 1740 1741
f 1773 1741 1740
f 1740 1772 1773
f 1805 1773 1772
f 1772 1804 1805
f 1837 1805 1804
f 1804 1836 1837
f 1869 1837 1836
f 1836 1868 1869
f 1901 1869 1868
f 1868 1900 1901
f 1933 1901 1900
f 1900 1932 1933
f 1965 1933 1932
f 1932 1964 1965
f 1006 974 973
f 973 1005 1006
f 1038 1006 1005
f 1005 1037 1038
f 1070 1038 1037
f 1037 1069 1070
f 1102 1070 1069
f 1069 1101 1102
f 1134 1102 1101
f 1101 1133 1134
f 1166 1134 1133
f 1133 1165 1166
f 1198 1166 1165
f 1165 1197 1198
f 1230 1198 1197
f 1197 1229 1230
f 1262 1230 1229
f 1229 1261 1262
f 1294 1262 1261
f 1261 1293 1294
f 1326 1294 1293
f 1293 1325 1326
f 1358 1326 1325
f 1325 1357 1358
f 1390 1358 1357
f 1357 1389 1390
f 1422 1390 1389
f 1389 1421 1422
f 1454 1422 1421
f 1421 1453 1454
f 1486 1454 1453
f 1453 1485 1486
f 1518 1486 1485
f 1485 1517 1518
f 1550 1518 1517
f 1517 1549 1550
f 1582 1550 1549
f 1549 1581 1582
f 1614 1582 1581
f 1581 1613 1614
f 1646 1614 1613
f 1613 1645 1646
f 1678 1646 1645
f 1645 1677 1678
f 1710 1678 1677
f 1677 1709 1710
f 1742 1710 1709
f 1709 1741 1742
f 1774 1742 1741
f 1741 1773 1774
f 1806 1774 1773
f 1773 1805 1806
f 1838 1806 1805
f 1805 1837 1838
f 1870 1838 1837
f 1837 1869 1870
f 1902 1870 1869
f 1869 1901 1902
f 1934 1902 1901
f 1901 1933 1934
f 1966 1934 1933
f 1933 1965 1966
f 1007 975 974
f 974 1006 1007
f 1039 1007 1006
f 1006 1038 1039
f 1071 1039 1038
f 1038 1070 1071
f 1103 1071 1070
f 1070 1102 1103
f 1135 1103 1102
f 1102 1134 1135
f 1167 1135 1134
f 1134 1166 1167
f 1199 1167 1166
f 1166 1198 1199
f 1231 1199 1198
f 1198 1230 1231
f 1263 1231 1230
f 1230 1262 1263
f 1295 1263 1262
f 1262 1294 1295
f 1327 1295 1294
f 1294 1326 1327
f 1359 1327 1326
f 1326 1358 1359
f 1391 1359 1358
f 1358 1390 1391
f 1423 1391 1390
f 1390 1422 1423
f 1455 1423 1422
f 1422 1454 1455
f 1487 1455 1454
f 1454 1486 1487
f 1519 1487 1486
f 1486 1518 1519
f 1551 1519 1518
f 1518 1550 1551
f 1583 1551 1550
f 1550 1582 1583
f 1615 1583 1582
f 1582 1614 1615
f 1647 1615 1614
f 1614 1646 1647
f 1679 1647 1646
f 1646 1678 1679
f 1711 1679 1678
f 1678 1710 1711
f 1743 1711 1710
f 1710 1742 1743
f 1775 1743 1742
f 1742 1774 1775
f 1807 1775 1774
f 1774 1806 1807
f 1839 1807 1806
f 1806 1838 1839
f 1871 1839 1838
f 1838 1870 1871
f 1903 1871 1870
f 1870 1902 1903
f 1935 1903 1902
f 1902 1934 1935
f 1967 1935 1934
f 1934 1966 1967
f 1008 976 975
f 975 1007 1008
f 1040 1008 1007
f 1007 1039 1040
f 1072 1040 1039
f 1039 1071 1072
f 1104 1072 1071
f 1071 1103 1104
f 1136 1104 1103
f 1103 1135 1136
f 1168 1136 1135
f 1135 1167 1168
f 1200 1168 1167
f 1167 1199 1200
f 1232 1200 1199
f 1199 1231 1232
f 1264 1232 1231
f 1231 1263 1264
f 1296 1264 1263
f 1263 1295 1296
f 1328 1296 1295
f 1295 1327 1328
f 1360 1328 1327
f 1327 1359 1360
f 1392 1360 1359
f 1359 1391 1392
f 1424 1392 1391
f 1391 1423 1424
f 1456 1424 1423
f 1423 1455 1456
f 1488 1456 1455
f 1455 1487 1488
f 1520 1488 1487
f 1487 1519 1520
f 1552 1520 1519
f 1519 1551 1552
f 1584 1552 1551
f 1551 1583 1584
f 1616 1584 1583
f 1583 1615 1616
f 1648 1616 1615
f 1615 1647 1648
f 1680 1648 1647
f 1647 1679 1680
f 1712 1680 1679
f 1679 1711 1712
f 1744 1712 1711
f 1711 1743 1744
f 1776 1744 1743
f 1743 1775 1776
f 1808 1776 1775
f 1775 1807 1808
f 1840 1808 1807
f 1807 1839 1840
f 1872 1840 1839
f 1839 1871 1872
f 1904 1872 1871
f 1871 1903 1904
f 1936 1904 1903
f 1903 1935 1936
f 1968 1936 1935
f 1935 1967 1968
f 1009 977 976
f 976 1008 1009
f 1041 1009 1008
f 1008 1040 1041
f 1073 1041 1040
f 1040 1072 1073
f 1105 1073 1072
f 1072 1104 1105
f 1137 1105 1104
f 1104 1136 1137
f 1169 1137 1136
f 1136 1168 1169
f 1201 1169 1168
f 1168 1200 1201
f 1233 1201 1200
f 1200 1232 1233
f 1265 1233 1232
f 1232 1264 1265
f 1297 1265 1264
f 1264 1296 1297
f 1329 1297 1296
f 1296 1328 1329
f 1361 1329 1328
f 1328 1360 1361
f 1393 1361 1360
f 1360 1392 1393
f 1425 1393 1392
f 1392 1424 1425
f 1457 1425 1424
f 1424 1456 1457
f 1489 1457 1456
f 1456 1488 1489
f 1521 1489 1488
f 1488 1520 1521
f 1553 1521 1520
f 1520 1552 1553
f 1585 1553 1552
f 1552 1584 1585
f 1617 1585 1584
f 1584 1616 1617
f 1649 1617 1616
f 1616 1648 1649
f 1681 1649 1648
f 1648 1680 1681
f 1713 1681 1680
f 1680 1712 1713
f 1745 1713 1712
f 1712 1744 1745
f 1777 1745 1744
f 1744 1776 1777
f 1809 1777 1776
f 1776 1808 1809
f 1841 1809 1808
f 1808 1840 1841
f 1873 1841 1840
f 1840 1872 1873
f 1905 1873 1872
f 1872 1904 1905
f 1937 1905 1904
f 1904 1936 1937
f 1969 1937 1936
f 1936 1968 1969
f 1010 978 977
f 977 1009 1010
f 1042 1010 1009
f 1009 1041 1042
f 1074 1042 1041
f 1041 1073 1074
f 1106 1074 1073
f 1073 1105 1106
f 1138 1106 1105
f 1105 1137 1138
f 1170 1138 1137
f 1137 1169 1170
f 1202 1170 1169
f 1169 1201 1202
f 1234 1202 1201
f 1201 1233 1234
f 1266 1234 1233
f 1233 1265 1266
f 1298 1266 1265
f 1265 1297 1298
f 1330 1298 1297
f 1297 1329 1330
f 1362 1330 1329
f 1329 1361 1362
f 1394 1362 1361
f 1361 1393 1394
f 1426 1394 1393
f 1393 1425 1426
f 1458 1426 1425
f 1425 1457 1458
f 1490 1458 1457
f 1457 1489 1490
f 1522 1490 1489
f 1489 1521 1522
f 1554 1522 1521
f 1521 1553 1554
f 1586 1554 1553
f 1553 1585 1586
f 1618 1586 1585
f 1585 1617 1618
f 1650 1618 1617
f 1617 1649 1650
f 1682 1650 1649
f 1649 1681 1682
f 1714 1682 1681
f 1681 1713 1714
f 1746 1714 1713
f 1713 1745 1746
f 1778 1746 1745
f 1745 1777 1778
f 1810 1778 1777
f 1777 1809 1810
f 1842 1810 1809
f 1809 1841 1842
f 1874 1842 1841
f 1841 1873 1874
f 1906 1874 1873
f 1873 1905 1906
f 1938 1906 1905
f 1905 1937 1938
f 1970 1938 1937
f 1937 1969 1970
f 1011 979 978
f 978 1010 1011
f 1043 1011 1010
f 1010 1042 1043
f 1075 1043 1042
f 1042 1074 1075
f 1107 1075 1074
f 1074 1106 1107
f 1139 1107 1106
f 1106 1138 1139
f 1171 1139 1138
f 1138 1170 1171
f 1203 1171 1170
f 1170 1202 1203
f 1235 1203 1202
f 1202 1234 1235
f 1267 1235 1234
f 1234 1266 1267
f 1299 1267 1266
f 1266 1298 1299
f 1331 1299 1298
f 1298 1330 1331
f 1363 1331 1330
f 1330 1362 1363
f 1395 1363 1362
f 1362 1394 1395
f 1427 1395 1394
f 1394 1426 1427
f 1459 1427 1426
f 1426 1458 1459
f 1491 1459 1458
f 1458 1490 1491
f 1523 1491 1490
f 1490 1522 1523
f 1555 1523 1522
f 1522 1554 1555
f 1587 1555 1554
f 1554 1586 1587
f 1619 1587 1586
f 1586 1618 1619
f 1651 1619 1618
f 1618 1650 1651
f 1683 1651 1650
f 1650 1682 1683
f 1715 1683 1682
f 1682 1714 1715
f 1747 1715 1714
f 1714 1746 1747
f 1779 1747 1746
f 1746 1778 1779
f 1811 1779 1778
f 1778 1810 1811
f 1843 1811 1810
f 1810 1842 1843
f 1875 1843 1842
f 1842 1874 1875
f 1907 1875 1874
f 1874 1906 1907
f 1939 1907 1906
f 1906 1938 1939
f 1971 1939 1938
f 1938 1970 1971
f 1012 980 979
f 979 1011 1012
f 1044 1012 1011
f 1011 1043 1044
f 1076 1044 1043
f 1043 1075 1076
f 1108 1076 1075
f 1075 1107 1108
f 1140 1108 1107
f 1107 1139 1140
f 1172 1140 1139
f 1139 1171 1172
f 1204 1172 1171
f 1171 1203 1204
f 1236 1204 1203
f 1203 1235 1236
f 1268 1236 1235
f 1235 1267 1268
f 1300 1268 1267
f 1267 1299 1300
f 1332 1300 1299
f 1299 1331 1332
f 1364 1332 1331
f 1331 1363 1364
f 1396 1364 1363
f 1363 1395 1396
f 1428 1396 1395
f 1395 1427 1428
f 1460 1428 1427
f 1427 1459 1460
f 1492 1460 1459
f 1459 1491 1492
f 1524 1492 1491
f 1491 1523 1524
f 1556 1524 1523
f 1523 1555 1556
f 1588 1556 1555
f 1555 1587 1588
f 1620 1588 1587
f 1587 1619 1620
f 1652 1620 1619
f 1619 1651 1652
f 1684 1652 1651
f 1651 1683 1684
f 1716 1684 1683
f 1683 1715 1716
f 1748 1716 1715
f 1715 1747 1748
f 1780 1748 1747
f 1747 1779 1780
f 1812 1780 1779
f 1779 1811 1812
f 1844 1812 1811
f 1811 1843 1844
f 1876 1844 1843
f 1843 1875 1876
f 1908 1876 1875
f 1875 1907 1908
f 1940 1908 1907
f 1907 1939 1940
f 1972 1940 1939
f 1939 1971 1972
f 1013 981 980
f 980 1012 1013
f 1045 1013 1012
f 1012 1044 1045
f 1077 1045 1044
f 1044 1076 1077
f 1109 1077 1076
f 1076 1108 1109
f 1141 1109 1108
f 1108 1140 1141
f 1173 1141 1140
f 1140 1172 1173
f 1205 1173 1172
f 1172 1204 1205
f 1237 1205 1204
f 1204 1236 1237
f 1269 1237 1236
f 1236 1268 1269
f 1301 1269 1268
f 1268 1300 1301
f 1333 1301 1300
f 1300 1332 1333
f 1365 1333 1332
f 1332 1364 1365
f 1397 1365 1364
f 1364 1396 1397
f 1429 1397 1396
f 1396 1428 1429
f 1461 1429 1428
f 1428 1460 1461
f 1493 1461 1460
f 1460 1492 1493
f 1525 1493 1492
f 1492 1524 1525
f 1557 1525 1524
f 1524 1556 1557
f 1589 1557 1556
f 1556 1588 1589
f 1621 1589 1588
f 1588 1620 1621
f 1653 1621 1620
f 1620 1652 1653
f 1685 1653 1652
f 1652 1684 1685
f 1717 1685 1684
f 1684 1716 1717
f 1749 1717 1716
f 1716 1748 1749
f 1781 1749 1748
f 1748 1780 1781
f 1813 1781 1780
f 1780 1812 1813
f 1845 1813 1812
f 1812 1844 1845
f 1877 1845 1844
f 1844 1876 1877
f 1909 1877 1876
f 1876 1908 1909
f 1941 1909 1908
f 1908 1940 1941
f 1973 1941 1940
f 1940 1972 1973
f 1014 982 981
f 981 1013 1014
f 1046 1014 1013
f 1013 1045 1046
f 1078 1046 1045
f 1045 1077 1078
f 1110 1078 1077
f 1077 1109 1110
f 1142 1110 1109
f 1109 1141 1142
f 1174 1142 1141
f 1141 1173 1174
f 1206 1174 1173
f 1173 1205 1206
f 1238 1206 1205
f 1205 1237 1238
f 1270 1238 1237
f 1237 1269 1270
f 1302 1270 1269
f 1269 1301 1302
f 1334 1302 1301
f 1301 1333 1334
f 1366 1334 1333
f 1333 1365 1366
f 1398 1366 1365
f 1365 1397 1398
f 1430 1398 1397
f 1397 1429 1430
f 1462 1430 1429
f 1429 1461 1462
f 1494 1462 1461
f 1461 1493 1494
f 1526 1494 1493
f 1493 1525 1526
f 1558 1526 1525
f 1525 1557 1558
f 1590 1558 1557
f 1557 1589 1590
f 1622 1590 1589
f 1589 1621 1622
f 1654 1622 1621
f 1621 1653 1654
f 1686 1654 1653
f 1653 1685 1686
f 1718 1686 1685
f 1685 1717 1718
f 1750 1718 1717
f 1717 1749 1750
f 1782 1750 1749
f 1749 1781 1782
f 1814 1782 1781
f 1781 1813 1814
f 1846 1814 1813
f 1813 1845 1846
f 1878 1846 1845
f 1845 1877 1878
f 1910 1878 1877
f 1877 1909 1910
f 1942 1910 1909
f 1909 1941 1942
f 1974 1942 1941
f 1941 1973 1974
f 1015 983 982
f 982 1014 1015
f 1047 1015 1014
f 1014 1046 1047
f 1079 1047 1046
f 1046 1078 1079
f 1111 1079 1078
f 1078 1110 1111
f 1143 1111 1110
f 1110 1142 1143
f 1175 1143 1142
f 1142 1174 1175
f 1207 1175 1174
f 1174 1206 1207
f 1239 1207 1206
f 1206 1238 1239
f 1271 1239 1238
f 1238 1270 1271
f 1303 1271 1270
f 1270 1302 1303
f 1335 1303 1302
f 1302 1334 1335
f 1367 1335 1334
f 1334 1366 1367
f 1399 1367 1366
f 1366 1398 1399
f 1431 1399 1398
f 1398 1430 1431
f 1463 1431 1430
f 1430 1462 1463
f 1495 1463 1462
f 1462 1494 1495
f 1527 1495 1494
f 1494 1526 1527
f 1559 1527 1526
f 1526 1558 1559
f 1591 1559 1558
f 1558 1590 1591
f 1623 1591 1590
f 1590 1622 1623
f 1655 1623 1622
f 1622 1654 1655
f 1687 1655 1654
f 1654 1686 1687
f 1719 1687 1686
f 1686 1718 1719
f 1751 1719 1718
f 1718 1750 1751
f 1783 1751 1750
f 1750 1782 1783
f 1815 1783 1782
f 1782 1814 1815
f 1847 1815 1814
f 1814 1846 1847
f 1879 1847 1846
f 1846 1878 1879
f 1911 1879 1878
f 1878 1910 1911
f 1943 1911 1910
f 1910 1942 1943
f 1975 1943 1942
f 1942 1974 1975
f 1016 984 983
f 983 1015 1016
f 1048 1016 1015
f 1015 1047 1048
f 1080 1048 1047
f 1047 1079 1080
f 1112 1080 1079
f 1079 1111 1112
f 1144 1112 1111
f 1111 1143 1144
f 1176 1144 1143
f 1143 1175 1176
f 1208 1176 1175
f 1175 1207 1208
f 1240 1208 1207
f 1207 1239 1240
f 1272 1240 1239
f 1239 1271 1272
f 1304 1272 1271
f 1271 1303 1304
f 1336 1304 1303
f 1303 1335 1336
f 1368 1336 1335
f 1335 1367 1368
f 1400 1368 1367
f 1367 1399 1400
f 1432 1400 1399
f 1399 1431 1432
f 1464 1432 1431
f 1431 1463 1464
f 1496 1464 1463
f 1463 1495 1496
f 1528 1496 1495
f 1495 1527 1528
f 1560 1528 1527
f 1527 1559 1560
f 1592 1560 1559
f 1559 1591 1592
f 1624 1592 1591
f 1591 1623 1624
f 1656 1624 1623
f 1623 1655 1656
f 1688 1656 1655
f 1655 1687 1688
f 1720 1688 1687
f 1687 1719 1720
f 1752 1720 1719
f 1719 1751 1752
f 1784 1752 1751
f 1751 1783 1784
f 1816 1784 1783
f 1783 1815 1816
f 1848 1816 1815
f 1815 1847 1848
f 1880 1848 1847
f 1847 1879 1880
f 1912 1880 1879
f 1879 1911 1912
f 1944 1912 1911
f 1911 1943 1944
f 1976 1944 1943
f 1943 1975 1976
f 1017 985 984
f 984 1016 1017
f 1049 1017 1016
f 1016 1048 1049
f 1081 1049 1048
f 1048 1080 1081
f 1113 1081 1080
f 1080 1112 1113
f 1145 1113 1112
f 1112 1144 1145
f 1177 1145 1144
f 1144 1176 1177
f 1209 1177 1176
f 1176 1208 1209
f 1241 1209 1208
f 1208 1240 1241
f 1273 1241 1240
f 1240 1272 1273
f 1305 1273 1272
f 1272 1304 1305
f 1337 1305 1304
f 1304 1336 1337
f 1369 1337 1336
f 1336 1368 1369
f 1401 1369 1368
f 1368 1400 1401
f 1433 1401 1400
f 1400 1432 1433
f 1465 1433 1432
f 1432 1464 1465
f 1497 1465 1464
f 1464 1496 1497
f 1529 1497 1496
f 1496 1528 1529
f 1561 1529 1528
f 1528 1560 1561
f 1593 1561 1560
f 1560 1592 1593
f 1625 1593 1592
f 1592 1624 1625
f 1657 1625 1624
f 1624 1656 1657
f 1689 1657 1656
f 1656 1688 1689
f 1721 1689 1688
f 1688 1720 1721
f 1753 1721 1720
f 1720 1752 1753
f 1785 1753 1752
f 1752 1784 1785
f 1817 1785 1784
f 1784 1816 1817
f 1849 1817 1816
f 1816 1848 1849
f 1881 1849 1848
f 1848 1880 1881
f 1913 1881 1880
f 1880 1912 1913
f 1945 1913 1912
f 1912 1944 1945
f 1977 1945 1944
f 1944 1976 1977
f 1018 986 985
f 985 1017 1018
f 1050 1018 1017
f 1017 1049 1050
f 1082 1050 1049
f 1049 1081 1082
f 1114 1082 1081
f 1081 1113 1114
f 1146 1114 1113
f 1113 1145 1146
f 1178 1146 1145
f 1145 1177 1178
f 1210 1178 1177
f 1177 1209 1210
f 1242 1210 1209
f 1209 1241 1242
f 1274 1242 1241
f 1241 1273 1274
f 1306 1274 1273
f 1273 1305 1306
f 1338 1306 1305
f 1305 1337 1338
f 1370 1338 1337
f 1337 1369 1370
f 1402 1370 1369
f 1369 1401 1402
f 1434 1402 1401
f 1401 1433 1434
f 1466 1434 1433
f 1433 1465 1466
f 1498 1466 1465
f 1465 1497 1498
f 1530 1498 1497
f 1497 1529 1530
f 1562 1530 1529
f 1529 1561 1562
f 1594 1562 1561
f 1561 1593 1594
f 1626 1594 1593
f 1593 1625 1626
f 1658 1626 1625
f 1625 1657 1658
f 1690 1658 1657
f 1657 1689 1690
f 1722 1690 1689
f 1689 1721 1722
f 1754 1722 1721
f 1721 1753 1754
f 1786 1754 1753
f 1753 1785 1786
f 1818 1786 1785
f 1785 1817 1818
f 1850 1818 1817
f 1817 1849 1850
f 1882 1850 1849
f 1849 1881 1882
f 1914 1882 1881
f 1881 1913 1914
f 1946 1914 1913
f 1913 1945 1946
f 1978 1946 1945
f 1945 1977 1978
f 1019 987 986
f 986 1018 1019
f 1051 1019 1018
f 1018 1050 1051
f 1083 1051 1050
f 1050 1082 1083
f 1115 1083 1082
f 1082 1114 1115
f 1147 1115 1114
f 1114 1146 1147
f 1179 1147 1146
f 1146 1178 1179
f 1211 1179 1178
f 1178 1210 1211
f 1243 1211 1210
f 1210 1242 1243
f 1275 1243 1242
f 1242 1274 1275
f 1307 1275 1274
f 1274 1306 1307
f 1339 1307 1306
f 1306 1338 1339
f 1371 1339 1338
f 1338 1370 1371
f 1403 1371 1370
f 1370 1402 1403
f 1435 1403 1402
f 1402 1434 1435
f 1467 1435 1434
f 1434 1466 1467
f 1499 1467 1466
f 1466 1498 1499
f 1531 1499 1498
f 1498 1530 1531
f 1563 1531 1530
f 1530 1562 1563
f 1595 1563 1562
f 1562 1594 1595
f 1627 1595 1594
f 1594 1626 1627
f 1659 1627 1626
f 1626 1658 1659
f 1691 1659 1658
f 1658 1690 1691
f 1723 1691 1690
f 1690 1722 1723
f 1755 1723 1722
f 1722 1754 1755
f 1787 1755 1754
f 1754 1786 1787
f 1819 1787 1786
f 1786 1818 1819
f 1851 1819 1818
f 1818 1850 1851
f 1883 1851 1850
f 1850 1882 1883
f 1915 1883 1882
f 1882 1914 1915
f 1947 1915 1914
f 1914 1946 1947
f 1979 1947 1946
f 1946 1978 1979
f 1020 988 987
f 987 1019 1020
f 1052 1020 1019
f 1019 1051 1052
f 1084 1052 1051
f 1051 1083 1084
f 1116 1084 1083
f 1083 1115 1116
f 1148 1116 1115
f 1115 1147 1148
f 1180 1148 1147
f 1147 1179 1180
f 1212 1180 1179
f 1179 1211 1212
f 1244 1212 1211
f 1211 1243 1244
f 1276 1244 1243
f 1243 1275 1276
f 1308 1276 1275
f 1275 1307 1308
f 1340 1308 1307
f 1307 1339 1340
f 1372 1340 1339
f 1339 1371 1372
f 1404 1372 1371
f 1371 1403 1404
f 1436 1404 1403
f 1403 1435 1436
f 1468 1436 1435
f 1435 1467 1468
f 1500 1468 1467
f 1467 1499 1500
f 1532 1500 1499
f 1499 1531 1532
f 1564 1532 1531
f 1531 1563 1564
f 1596 1564 1563
f 1563 1595 1596
f 1628 1596 1595
f 1595 1627 1628
f 1660 1628 1627
f 1627 1659 1660
f 1692 1660 1659
f 1659 1691 1692
f 1724 1692 1691
f 1691 1723 1724
f 1756 1724 1723
f 1723 1755 1756
f 1788 1756 1755
f 1755 1787 1788
f 1820 1788 1787
f 1787 1819 1820
f 1852 1820 1819
f 1819 1851 1852
f 1884 1852 1851
f 1851 1883 1884
f 1916 1884 1883
f 1883 1915 1916
f 1948 1916 1915
f 1915 1947 1948
f 1980 1948 1947
f 1947 1979 1980
f 1021 989 988
f 988 1020 1021
f 1053 1021 1020
f 1020 1052 1053
f 1085 1053 1052
f 1052 1084 1085
f 1117 1085 1084
f 1084 1116 1117
f 1149 1117 1116
f 1116 1148 1149
f 1181 1149 1148
f 1148 1180 1181
f 1213 1181 1180
f 1180 1212 1213
f 1245 1213 1212
f 1212 1244 1245
f 1277 1245 1244
f 1244 1276 1277
f 1309 1277 1276
f 1276 1308 1309
f 1341 1309 1308
f 1308 1340 1341
f 1373 1341 1340
f 1340 1372 1373
f 1405 1373 1372
f 1372 1404 1405
f 1437 1405 1404
f 1404 1436 1437
f 1469 1437 1436
f 1436 1468 1469
f 1501 1469 1468
f 1468 1500 1501
f 1533 1501 1500
f 1500 1532 1533
f 1565 1533 1532
f 1532 1564 1565
f 1597 1565 1564
f 1564 1596 1597
f 1629 1597 1596
f 1596 1628 1629
f 1661 1629 1628
f 1628 1660 1661
f 1693 1661 1660
f 1660 1692 1693
f 1725 1693 1692
f 1692 1724 1725
f 1757 1725 1724
f 1724 1756 1757
f 1789 1757 1756
f 1756 1788 1789
f 1821 1789 1788
f 1788 1820 1821
f 1853 1821 1820
f 1820 1852 1853
f 1885 1853 1852
f 1852 1884 1885
f 1917 1885 1884
f 1884 1916 1917
f 1949 1917 1916
f 1916 1948 1949
f 1981 1949 1948
f 1948 1980 1981
f 1022 990 989
f 989 1021 1022
f 1054 1022 1021
f 1021 1053 1054
f 1086 1054 1053
f 1053 1085 1086
f 1118 1086 1085
f 1085 1117 1118
f 1150 1118 1117
f 1117 1149 1150
f 1182 1150 1149
f 1149 1181 1182
f 1214 1182 1181
f 1181 1213 1214
f 1246 1214 1213
f 1213 1245 1246
f 1278 1246 1245
f 1245 1277 1278
f 1310 1278 1277
f 1277 1309 1310
f 1342 1310 1309
f 1309 1341 1342
f 1374 1342 1341
f 1341 1373 1374
f 1406 1374 1373
f 1373 1405 1406
f 1438 1406 1405
f 1405 1437 1438
f 1470 1438 1437
f 1437 1469 1470
f 1502 1470 1469
f 1469 1501 1502
f 1534 1502 1501
f 1501 1533 1534
f 1566 1534 1533
f 1533 1565 1566
f 1598 1566 1565
f 1565 1597 1598
f 1630 1598 1597
f 1597 1629 1630
f 1662 1630 1629
f 1629 1661 1662
f 1694 1662 1661
f 1661 1693 1694
f 1726 1694 1693
f 1693 1725 1726
f 1758 1726 1725
f 1725 1757 1758
f 1790 1758 1757
f 1757 1789 1790
f 1822 1790 1789
f 1789 1821 1822
f 1854 1822 1821
f 1821 1853 1854
f 1886 1854 1853
f 1853 1885 1886
f 1918 1886 1885
f 1885 1917 1918
f 1950 1918 1917
f 1917 1949 1950
f 1982 1950 1949
f 1949 1981 1982
f 1023 991 990
f 990 1022 1023
f 1055 1023 1022
f 1022 1054 1055
f 1087 1055 1054
f 1054 1086 1087
f 1119 1087 1086
f 1086 1118 1119
f 1151 1119 1118
f 1118 1150 1151
f 1183 1151 1150
f 1150 1182 1183
f 1215 1183 1182
f 1182 1214 1215
f 1247 1215 1214
f 1214 1246 1247
f 1279 1247 1246
f 1246 1278 1279
f 1311 1279 1278
f 1278 1310 1311
f 1343 1311 1310
f 1310 1342 1343
f 1375 1343 1342
f 1342 1374 1375
f 1407 1375 1374
f 1374 1406 1407
f 1439 1407 1406
f 1406 1438 1439
f 1471 1439 1438
f 1438 1470 1471
f 1503 1471 1470
f 1470 1502 1503
f 1535 1503 1502
f 1502 1534 1535
f 1567 1535 1534
f 1534 1566 1567
f 1599 1567 1566
f 1566 1598 1599
f 1631 1599 1598
f 1598 1630 1631
f 1663 1631 1630
f 1630 1662 1663
f 1695 1663 1662
f 1662 1694 1695
f 1727 1695 1694
f 1694 1726 1727
f 1759 1727 1726
f 1726 1758 1759
f 1791 1759 1758
f 1758 1790 1791
f 1823 1791 1790
f 1790 1822 1823
f 1855 1823 1822
f 1822 1854 1855
f 1887 1855 1854
f 1854 1886 1887
f 1919 1887 1886
f 1886 1918 1919
f 1951 1919 1918
f 1918 1950 1951
f 1983 1951 1950
f 1950 1982 1983
f 1024 992 991
f 991 1023 1024
f 1056 1024 1023
f 1023 1055 1056
f 1088 1056 1055
f 1055 1087 1088
f 1120 1088 1087
f 1087 1119 1120
f 1152 1120 1119
f 1119 1151 1152
f 1184 1152 1151
f 1151 1183 1184
f 1216 1184 1183
f 1183 1215 1216
f 1248 1216 1215
f 1215 1247 1248
f 1280 1248 1247
f 1247 1279 1280
f 1312 1280 1279
f 1279 1311 1312
f 1344 1312 1311
f 1311 1343 1344
f 1376 1344 1343
f 1343 1375 1376
f 1408 1376 1375
f 1375 1407 1408
f 1440 1408 1407
f 1407 1439 1440
f 1472 1440 1439
f 1439 1471 1472
f 1504 1472 1471
f 1471 1503 1504
f 1536 1504 1503
f 1503 1535 1536
f 1568 1536 1535
f 1535 1567 1568
f 1600 1568 1567
f 1567 1599 1600
f 1632 1600 1599
f 1599 1631 1632
f 1664 1632 1631
f 1631 1663 1664
f 1696 1664 1663
f 1663 1695 1696
f 1728 1696 1695
f 1695 1727 1728
f 1760 1728 1727
f 1727 1759 1760
f 1792 1760 1759
f 1759 1791 1792
f 1824 1792 1791
f 1791 1823 1824
f 1856 1824 1823
f 1823 1855 1856
f 1888 1856 1855
f 1855 1887 1888
f 1920 1888 1887
f 1887 1919 1920
f 1952 1920 1919
f 1919 1951 1952
f 1984 1952 1951
f 1951 1983 1984
f 1025 993 992
f 992 1024 1025
f 1057 1025 1024
f 1024 1056 1057
f 1089 1057 1056
f 1056 1088 1089
f 1121 1089 1088
f 1088 1120 1121
f 1153 1121 1120
f 1120 1152 1153
f 1185 1153 1152
f 1152 1184 1185
f 1217 1185 1184
f 1184 1216 1217
f 1249 1217 1216
f 1216 1248 1249
f 1281 1249 1248
f 1248 1280 1281
f 1313 1281 1280
f 1280 1312 1313
f 1345 1313 1312
f 1312 1344 1345
f 1377 1345 1344
f 1344 1376 1377
f 1409 1377 1376
f 1376 1408 1409
f 1441 1409 1408
f 1408 1440 1441
f 1473 1441 1440
f 1440 1472 1473
f 1505 1473 1472
f 1472 1504 1505
f 1537 1505 1504
f 1504 1536 1537
f 1569 1537 1536
f 1536 1568 1569
f 1601 1569 1568
f 1568 1600 1601
f 1633 1601 1600
f 1600 1632 1633
f 1665 1633 1632
f 1632 1664 1665
f 1697 1665 1664
f 1664 1696 1697
f 1729 1697 1696
f 1696 1728 1729
f 1761 1729 1728
f 1728 1760 1761
f 1793 1761 1760
f 1760 1792 1793
f 1825 1793 1792
f 1792 1824 1825
f 1857 1825 1824
f 1824 1856 1857
f 1889 1857 1856
f 1856 1888 1889
f 1921 1889 1888
f 1888 1920 1921
f 1953 1921 1920
f 1920 1952 1953
f 1985 1953 1952
f 1952 1984 1985
