v -4593.86 51.2806 -5709.63
v -4594.17 51.2806 -5708.46
v -4595.24 51.2806 -5709.84
v -4595.39 51.2806 -5708.61
v -4593.09 51.2423 -5707.08
v -4594.32 51.2806 -5707.23
v -4592.98 51.2806 -5708.3
v -4595.55 51.2806 -5707.39
v -4596.62 51.2806 -5708.77
v -4596.78 51.2806 -5707.54
v -4594.48 51.2423 -5706
v -4595.7 51.2806 -5706.16
v -4597.41 38.7619 -5710.11
v -4598.19 38.9502 -5709.13
v -4599.51 34.4771 -5709.9
v -4597.96 38.8069 -5706.38
v -4599.75 34.4771 -5705.86
v -4598.27 38.8844 -5707.76
v -4597.03 38.6665 -5705.44
v -4597.05 38.0713 -5705.54
v -4595.65 38.5516 -5704.81
v -4595.8 37.6942 -5705.05
v -4597.03 38.6665 -5705.44
v -4597.05 38.0713 -5705.54
v -4594.2 38.0755 -5704.92
v -4594.12 38.6696 -5704.72
v -4593.01 38.4436 -5705.14
v -4593.08 37.7164 -5705.37
v -4591.97 38.6196 -5706.11
v -4592.25 38.7457 -5708.62
v -4592.68 38.8069 -5709.69
v -4589.69 34.4771 -5710.09
v -4593.17 38.8844 -5710.71
v -4594.2 38.9412 -5710.9
v -4592.71 34.4771 -5712.62
v -4595.59 38.9941 -5711.6
v -4595.22 37.8979 -5711.55
v -4596.44 37.9804 -5711.18
v -4596.56 39.0095 -5711.28
v -4597.28 40.4226 -5708.23
v -4597.03 40.1976 -5707.22
v -4596.51 40.1976 -5706.47
v -4595.85 40.2085 -5705.91
v -4595.85 40.2085 -5705.91
v -4594.88 39.9629 -5705.74
v -4593.82 39.9225 -5705.93
v -4593.12 39.9157 -5706.4
v -4592.75 40.1976 -5707.04
v -4591.67 38.6636 -5707.17
v -4592.64 40.1976 -5707.97
v -4592.78 40.1976 -5709.06
v -4593.11 40.3323 -5709.85
v -4593.94 40.3323 -5710.3
v -4594.8 40.1976 -5710.48
v -4595.74 40.1976 -5710.31
v -4596.63 40.4226 -5709.9
v -4597.29 40.23 -5709.37
v -4595.35 51.8834 -5706.11
v -4596.03 51.809 -5706.49
v -4595.08 50.3394 -5706.96
v -4595.64 50.3407 -5707.44
v -4596.48 51.7462 -5707.06
v -4594.03 51.2414 -5706.4
v -4594.56 51.7452 -5706.02
v -4594.36 50.3051 -5707.02
v -4593.09 51.5375 -5707.14
v -4593.41 51.2519 -5706.85
v -4593.88 50.2577 -5707.57
v -4593.14 51.5544 -5708.75
v -4592.95 51.667 -5708.04
v -4593.94 50.225 -5708.3
v -4594.23 51.6254 -5709.68
v -4593.56 51.555 -5709.33
v -4594.49 50.2263 -5708.77
v -4595.66 51.6057 -5709.57
v -4594.95 51.6539 -5709.77
v -4595.23 50.2214 -5708.74
v -4596.59 51.4906 -5708.49
v -4596.23 51.7252 -5709.12
v -4595.69 50.308 -5708.17
v -4596.48 51.7462 -5707.06
v -4596.68 51.4906 -5707.76
v -4595.64 50.3407 -5707.44
v -4596.65 51.306 -5707.99
v -4596.62 51.306 -5708.22
v -4596.68 34.4771 -5712.67
v -4599.51 34.4771 -5709.9
v -4592.71 34.4771 -5712.62
v -4589.99 34.4771 -5705.82
v -4589.69 34.4771 -5710.09
v -4592.59 34.4771 -5702.9
v -4599.75 34.4771 -5705.86
v -4596.82 34.4771 -5702.73
v -4595.08 50.3394 -5706.96
v -4595.64 50.3407 -5707.44
v -4594.36 50.3051 -5707.02
v -4593.94 50.225 -5708.3
v -4593.88 50.2577 -5707.57
v -4594.49 50.2263 -5708.77
v -4595.69 50.308 -5708.17
v -4595.23 50.2214 -5708.74
v -4597.05 40.331 -5709.13
v -4596.68 34.4771 -5712.67
v -4596.82 34.4771 -5702.73
v -4592.59 34.4771 -5702.9
v -4589.99 34.4771 -5705.82
v -4591.93 38.5374 -5708.98
v -4592.1 37.0829 -5709.17
v -4592.12 38.2606 -5708.03
v -4591.67 37.8734 -5709.91
v -4591.6 38.767 -5709.51
v -4592.53 37.0503 -5710
v -4592.64 38.4962 -5710.31
v -4592.01 38.7532 -5710.33
v -4593.47 38.1591 -5710.62
v -4592.53 39.1643 -5707.89
v -4592.18 39.451 -5708.8
v -4592.11 39.6201 -5709.35
v -4592.39 39.8333 -5710.2
v -4593.13 39.649 -5710.55
v -4593.9 39.0609 -5710.53
v -4592.51 39.9643 -5709.02
v -4592.94 40.1127 -5709.87
v -4593.37 40.0338 -5708.59
v -4593.8 40.0014 -5709.41
v -4592.12 38.2606 -5708.03
v -4592.1 37.0829 -5709.17
v -4592.53 39.1643 -5707.89
v -4593.47 38.1591 -5710.62
v -4593.9 39.0609 -5710.53
v -4592.53 37.0503 -5710
v -4593.37 40.0338 -5708.59
v -4593.8 40.0014 -5709.41
v -4596.82 34.4771 -5702.73
v -4597.05 40.331 -5709.13
v -4597.03 42.3075 -5709.32
v -4597.28 40.4226 -5708.23
v -4597.04 42.163 -5708.29
v -4596.47 42.4291 -5707.48
v -4597.03 40.1976 -5707.22
v -4595.97 42.6317 -5706.76
v -4596.51 40.1976 -5706.47
v -4595.85 40.2085 -5705.91
v -4595.45 42.5292 -5706.42
v -4592.81 42.1864 -5707.44
v -4592.75 40.1976 -5707.04
v -4593.1 41.84 -5706.76
v -4593.12 39.9157 -5706.4
v -4592.64 40.1976 -5707.97
v -4592.57 42.2371 -5708.29
v -4592.78 40.1976 -5709.06
v -4592.67 41.7518 -5709.2
v -4593.92 41.8087 -5710.51
v -4593.94 40.3323 -5710.3
v -4593.29 41.686 -5709.83
v -4593.11 40.3323 -5709.85
v -4594.57 42.047 -5710.77
v -4594.8 40.1976 -5710.48
v -4595.44 42.1163 -5710.58
v -4595.74 40.1976 -5710.31
v -4596.27 42.163 -5710.05
v -4596.63 40.4226 -5709.9
v -4596.48 44.6442 -5707.62
v -4596.17 44.7634 -5706.98
v -4596.47 42.4291 -5707.48
v -4596.17 44.7634 -5706.98
v -4595.97 42.6317 -5706.76
v -4595.7 44.5204 -5706.48
v -4595.45 42.5292 -5706.42
v -4595.09 44.2058 -5706.2
v -4594.57 41.8024 -5706.29
v -4594.26 44.1987 -5706.11
v -4593.74 41.685 -5706.51
v -4593.62 44.0518 -5706.39
v -4593.26 43.9305 -5707.01
v -4592.95 44.119 -5707.69
v -4592.57 42.2371 -5708.29
v -4592.99 44.0237 -5708.4
v -4593.36 43.586 -5709.01
v -4593.88 43.8323 -5709.83
v -4593.29 41.686 -5709.83
v -4594.47 43.9899 -5710.07
v -4595.09 43.9638 -5710.09
v -4595.33 43.9632 -5709.6
v -4595.81 44.2384 -5709.48
v -4596.27 44.4119 -5708.97
v -4596.27 42.163 -5710.05
v -4596.27 44.4119 -5708.97
v -4597.04 42.163 -5708.29
v -4596.48 44.6442 -5707.62
v -4595.85 40.2085 -5705.91
v -4594.88 39.9629 -5705.74
v -4593.82 39.9225 -5705.93
v -4598.83 50.05 -5705.81
v -4598.54 48.7647 -5705.93
v -4599.38 49.9842 -5707.81
v -4599 48.982 -5707.73
v -4597.75 50.2019 -5704.42
v -4597.71 48.8159 -5704.58
v -4596.23 49.0646 -5703.74
v -4596.22 49.9795 -5703.55
v -4594.47 50.0387 -5703.34
v -4594.54 49.1469 -5703.54
v -4594.47 50.0387 -5703.34
v -4592.59 49.6979 -5703.87
v -4594.54 49.1469 -5703.54
v -4592.85 49.2485 -5704.05
v -4591.53 49.0356 -5705.16
v -4591.44 49.6576 -5704.74
v -4590.59 49.6591 -5706.22
v -4591.03 48.8279 -5706.63
v -4590.31 49.436 -5708.17
v -4590.64 48.7003 -5708.26
v -4590.78 49.5318 -5709.87
v -4591.52 48.6123 -5709.57
v -4591.87 49.5429 -5711.26
v -4592.12 48.7269 -5710.93
v -4593.46 48.9474 -5712.02
v -4593.4 49.604 -5712.13
v -4595.15 49.7061 -5712.34
v -4595 48.9116 -5712.01
v -4596.66 49.0953 -5711.57
v -4596.85 49.8335 -5711.87
v -4598.23 49.9667 -5710.78
v -4597.87 48.986 -5710.63
v -4599.3 50.0372 -5708.88
v -4599 48.9149 -5709.03
v -4599.17 49.5182 -5708.05
v -4598.76 48.86 -5708.01
v -4598.44 50.6275 -5707.73
v -4598.22 50.9663 -5707.76
v -4597.85 50.7794 -5706.24
v -4597.78 51.0596 -5706.42
v -4596.93 50.7744 -5705.36
v -4595.82 50.6232 -5704.73
v -4594.38 50.7915 -5704.53
v -4594.38 50.7915 -5704.53
v -4593.25 50.4876 -5704.95
v -4592.32 50.4211 -5705.7
v -4591.78 50.6487 -5706.53
v -4591.52 50.288 -5708.1
v -4591.87 50.2624 -5709.34
v -4592.67 50.5698 -5710.49
v -4592.41 50.2031 -5710.62
v -4593.66 50.1173 -5711.3
v -4593.74 50.6007 -5711.22
v -4595.07 50.173 -5711.52
v -4595.06 50.689 -5711.38
v -4596.39 50.188 -5711.13
v -4596.16 50.8028 -5710.9
v -4597.49 50.4184 -5710.21
v -4597.12 51.0154 -5710.06
v -4598.3 50.5748 -5708.68
v -4598.01 51.0293 -5708.82
v -4597.79 50.6117 -5707.98
v -4596.91 51.4715 -5707.75
v -4596.55 51.5451 -5706.92
v -4596.12 51.5502 -5706.31
v -4595.42 51.325 -5705.9
v -4594.54 51.4751 -5705.81
v -4593.84 51.235 -5706.02
v -4593.2 51.2548 -5706.52
v -4592.86 51.2606 -5707.08
v -4592.7 51.1845 -5708.06
v -4592.93 51.2979 -5708.8
v -4593.42 51.2128 -5709.45
v -4594.13 51.2224 -5709.85
v -4594.93 51.3221 -5709.95
v -4595.7 51.3276 -5709.74
v -4596.27 51.548 -5709.21
v -4596.81 51.4715 -5708.55
v -4596.88 51.2691 -5707.96
v -4596.68 51.4906 -5707.76
v -4596.48 51.7462 -5707.06
v -4596.03 51.809 -5706.49
v -4595.35 51.8834 -5706.11
v -4594.56 51.7452 -5706.02
v -4594.03 51.2414 -5706.4
v -4594.56 51.7452 -5706.02
v -4594.54 51.4751 -5705.81
v -4593.41 51.2519 -5706.85
v -4593.09 51.5375 -5707.14
v -4592.95 51.667 -5708.04
v -4593.14 51.5544 -5708.75
v -4593.56 51.555 -5709.33
v -4594.23 51.6254 -5709.68
v -4594.95 51.6539 -5709.77
v -4595.66 51.6057 -5709.57
v -4596.23 51.7252 -5709.12
v -4596.85 51.2691 -5708.24
v -4596.65 51.306 -5707.99
v -4596.62 51.306 -5708.22
v -4598.29 50.4234 -5708
v -4596.59 51.4906 -5708.49
v -4597.74 50.5744 -5708.31
v -4598.25 50.3914 -5708.37
v -4599.11 49.5078 -5708.53
v -4598.67 48.8476 -5708.47
v -4596.48 44.6442 -5707.62
v -4596.97 45.6369 -5706.97
v -4596.17 44.7634 -5706.98
v -4596.53 45.6979 -5706.28
v -4595.76 46.123 -5705.6
v -4595.7 44.5204 -5706.48
v -4594.78 46.347 -5705.45
v -4595.09 44.2058 -5706.2
v -4595.09 44.2058 -5706.2
v -4594.78 46.347 -5705.45
v -4594.26 44.1987 -5706.11
v -4594.02 46.306 -5705.54
v -4593.23 46.1724 -5706.03
v -4593.62 44.0518 -5706.39
v -4592.61 46.3391 -5706.79
v -4593.26 43.9305 -5707.01
v -4592.95 44.119 -5707.69
v -4592.55 46.0825 -5707.59
v -4592.99 44.0237 -5708.4
v -4592.69 45.8686 -5708.47
v -4593.15 46.0372 -5709.22
v -4593.36 43.586 -5709.01
v -4593.88 43.8323 -5709.83
v -4594.19 46.0815 -5709.78
v -4594.47 43.9899 -5710.07
v -4594.79 45.9735 -5710.05
v -4595.47 46.0812 -5709.74
v -4595.09 43.9638 -5710.09
v -4595.33 43.9632 -5709.6
v -4596.35 45.9999 -5709.33
v -4595.81 44.2384 -5709.48
v -4597.02 46.2068 -5708.68
v -4596.27 44.4119 -5708.97
v -4597.07 45.886 -5707.75
v -4597.37 47.6973 -5706.39
v -4597.52 47.241 -5707.51
v -4596.64 47.6914 -5705.39
v -4595.54 47.5592 -5705.06
v -4594.45 47.7784 -5704.7
v -4593.66 47.8666 -5705.37
v -4594.45 47.7784 -5704.7
v -4592.82 47.9291 -5706.1
v -4592.02 47.7949 -5706.75
v -4591.95 47.7419 -5707.96
v -4592.29 47.5042 -5709.16
v -4593.03 47.26 -5710.1
v -4595.18 46.9567 -5710.57
v -4594.06 47.1634 -5710.66
v -4596.21 47.109 -5710.71
v -4596.95 47.111 -5709.95
v -4597.57 47.2928 -5708.94
v -4599 48.982 -5707.73
v -4598.54 48.7647 -5705.93
v -4597.71 48.8159 -5704.58
v -4596.23 49.0646 -5703.74
v -4594.54 49.1469 -5703.54
v -4594.54 49.1469 -5703.54
v -4592.85 49.2485 -5704.05
v -4591.53 49.0356 -5705.16
v -4591.03 48.8279 -5706.63
v -4590.64 48.7003 -5708.26
v -4591.52 48.6123 -5709.57
v -4592.12 48.7269 -5710.93
v -4593.46 48.9474 -5712.02
v -4595 48.9116 -5712.01
v -4596.66 49.0953 -5711.57
v -4597.87 48.986 -5710.63
v -4599 48.9149 -5709.03
v -4598.76 48.86 -5708.01
v -4598.67 48.8476 -5708.47
v -4595.16 38.606 -5705.01
v -4596.16 40.1523 -5702.98
v -4596.93 40.2493 -5707.13
v -4597.93 41.7956 -5705.1
v -4596.17 40.146 -5702.98
v -4595.17 38.5997 -5705.01
v -4597.93 41.7893 -5705.09
v -4596.94 40.243 -5707.13
v -4596.74 38.4364 -5705.07
v -4597.53 40.3317 -5703.7
v -4595.41 40.3086 -5706.87
v -4596.2 42.2039 -5705.49
v -4596.21 42.2049 -5705.49
v -4597.53 40.3327 -5703.7
v -4595.42 40.3096 -5706.87
v -4596.74 38.4374 -5705.08
v -4593.36 38.8509 -5710.86
v -4592.98 40.1909 -5711.33
v -4594.77 39.6127 -5709.84
v -4594.38 40.9527 -5710.31
v -4594.38 40.9534 -5710.3
v -4592.97 40.1916 -5711.32
v -4594.76 39.6134 -5709.84
v -4593.36 38.8516 -5710.86
v -4594.51 38.9372 -5711.09
v -4594.07 40.2026 -5711.83
v -4593.64 39.5519 -5709.52
v -4593.2 40.8172 -5710.26
v -4594.07 40.1998 -5711.83
v -4594.5 38.9344 -5711.09
v -4593.2 40.8144 -5710.26
v -4593.63 39.5491 -5709.52
v -4597.03 39.3696 -5710.12
v -4597.39 41.1394 -5711.41
v -4594.45 39.1943 -5711.08
v -4594.81 40.9641 -5712.37
v -4597.39 41.1341 -5711.42
v -4597.03 39.3642 -5710.12
v -4594.81 40.9588 -5712.38
v -4594.45 39.1889 -5711.08
v -4592.87 39.0585 -5705.96
v -4592.58 40.3925 -5705.27
v -4594.64 39.0824 -5705.25
v -4594.34 40.4164 -5704.57
v -4592.58 40.3896 -5705.27
v -4592.87 39.0556 -5705.95
v -4594.34 40.4134 -5704.56
v -4594.63 39.0794 -5705.25
v -4598.21 38.0117 -5708.91
v -4598.98 39.2055 -5709.47
v -4597.13 37.9769 -5710.47
v -4597.9 39.1707 -5711.03
v -4598.99 39.2017 -5709.48
v -4598.22 38.0079 -5708.92
v -4597.9 39.1669 -5711.03
v -4597.13 37.9731 -5710.47
v -4596.09 38.2885 -5704.86
v -4597 40.1595 -5703.13
v -4596.02 40.4667 -5707.18
v -4596.93 42.3377 -5705.46
v -4597.01 40.1575 -5703.14
v -4596.1 38.2865 -5704.86
v -4596.94 42.3357 -5705.46
v -4596.03 40.4647 -5707.19
v -4594.63 39.8401 -5706.23
v -4594.87 41.4329 -5704.06
v -4597.69 39.0029 -5705.95
v -4597.93 40.5957 -5703.78
v -4594.86 41.4252 -5704.06
v -4594.63 39.8324 -5706.23
v -4597.92 40.588 -5703.77
v -4597.69 38.9952 -5705.94
v -4596.45 39.9535 -5706.63
v -4594.8 39.4141 -5705.72
v -4596.38 41.4339 -5705.85
v -4594.74 40.8945 -5704.95
v -4594.74 40.8916 -5704.95
v -4594.81 39.4113 -5705.72
v -4596.39 41.431 -5705.85
v -4596.45 39.9506 -5706.62
v -4596.42 38.5618 -5705.22
v -4596.21 39.4965 -5703.78
v -4595.05 39.6982 -5706.16
v -4594.84 40.6329 -5704.72
v -4596.21 39.5003 -5703.78
v -4596.43 38.5655 -5705.22
v -4594.84 40.6367 -5704.72
v -4595.06 39.7019 -5706.16
v -4595.99 40.1653 -5706.86
v -4596.48 41.4672 -5706.02
v -4597.07 39.3259 -5706.17
v -4597.56 40.6278 -5705.34
v -4596.47 41.4658 -5706.02
v -4595.99 40.1639 -5706.85
v -4597.56 40.6263 -5705.34
v -4597.07 39.3244 -5706.17
v -4596.47 38.6072 -5705.23
v -4596.56 39.7132 -5706.44
v -4597.09 39.5145 -5704.35
v -4597.18 40.6205 -5705.56
v -4597.18 40.6222 -5705.56
v -4596.56 39.7149 -5706.44
v -4597.08 39.5161 -5704.35
v -4596.46 38.6088 -5705.23
v -4593.91 38.7207 -5711.16
v -4593.98 40.4101 -5712.08
v -4594.2 39.6917 -5709.35
v -4594.27 41.381 -5710.26
v -4593.98 40.4106 -5712.08
v -4593.9 38.7212 -5711.16
v -4594.27 41.3815 -5710.26
v -4594.19 39.6922 -5709.35
v -4593.07 39.1825 -5709.97
v -4592.73 40.5657 -5710.86
v -4595.04 39.2652 -5710.6
v -4594.7 40.6484 -5711.49
v -4592.73 40.5695 -5710.85
v -4593.07 39.1863 -5709.97
v -4594.7 40.6522 -5711.48
v -4595.04 39.269 -5710.6
v -4594.55 39.4022 -5710.22
v -4593.9 38.8516 -5710.94
v -4594.53 40.2315 -5710.84
v -4593.87 39.6809 -5711.56
v -4593.87 39.682 -5711.56
v -4593.9 38.8527 -5710.94
v -4594.52 40.2326 -5710.84
v -4594.55 39.4033 -5710.22
v -4597.12 38.8377 -5710.88
v -4597.62 41.4709 -5711.68
v -4594.24 39.5645 -5710.31
v -4594.74 42.1978 -5711.11
v -4597.62 41.4682 -5711.69
v -4597.11 38.835 -5710.89
v -4594.74 42.1951 -5711.12
v -4594.24 39.5618 -5710.32
v -4595.14 38.6196 -5711.85
v -4595.66 40.6456 -5713.11
v -4596.3 39.8596 -5709.36
v -4596.83 41.8856 -5710.61
v -4595.65 40.6492 -5713.1
v -4595.13 38.6233 -5711.85
v -4596.82 41.8893 -5710.61
v -4596.29 39.8633 -5709.36
v -4595.63 39.675 -5709.96
v -4596.75 38.9261 -5710.87
v -4596.1 41.0032 -5710.5
v -4597.22 40.2543 -5711.4
v -4597.22 40.2537 -5711.41
v -4596.75 38.9255 -5710.87
v -4596.09 41.0026 -5710.5
v -4595.62 39.6744 -5709.97
v -4592.81 38.7778 -5705.38
v -4592.42 40.6431 -5705.13
v -4594.79 39.2545 -5705.81
v -4594.39 41.1199 -5705.55
v -4592.42 40.6423 -5705.12
v -4592.81 38.777 -5705.38
v -4594.39 41.1191 -5705.55
v -4594.79 39.2537 -5705.8
v -4594.16 38.7653 -5704.67
v -4593.75 40.266 -5704.05
v -4593.38 39.3212 -5706.51
v -4592.97 40.8218 -5705.89
v -4593.76 40.2683 -5704.05
v -4594.16 38.7676 -5704.67
v -4592.98 40.8242 -5705.89
v -4593.38 39.3235 -5706.51
v -4593.83 39.2712 -5706.07
v -4593.06 38.8422 -5705.4
v -4593.49 40.2226 -5705.86
v -4592.71 39.7936 -5705.18
v -4592.71 39.7937 -5705.18
v -4593.06 38.8423 -5705.39
v -4593.49 40.2227 -5705.85
v -4593.84 39.2713 -5706.07
v -4598.54 37.6391 -5709.32
v -4599.23 39.4231 -5709.53
v -4596.72 38.243 -5710.11
v -4597.41 40.027 -5710.33
v -4599.23 39.4213 -5709.54
v -4598.54 37.6373 -5709.32
v -4597.41 40.0252 -5710.34
v -4596.73 38.2412 -5710.12
v -4597.81 37.5535 -5710.65
v -4598.66 38.9175 -5711.12
v -4597.52 38.3783 -5708.76
v -4598.38 39.7422 -5709.23
v -4598.65 38.9203 -5711.12
v -4597.8 37.5564 -5710.65
v -4598.37 39.745 -5709.23
v -4597.52 38.3811 -5708.77
v -4597.37 38.2717 -5709.37
v -4598.34 37.7126 -5709.45
v -4597.89 39.1632 -5709.47
v -4598.86 38.6041 -5709.55
v -4598.86 38.6038 -5709.55
v -4598.34 37.7123 -5709.45
v -4597.89 39.163 -5709.48
v -4597.37 38.2715 -5709.38
v -4595.73 39.4985 -5705.94
v -4595.81 40.6204 -5704.42
v -4595.86 39.5364 -5705.96
v -4595.81 40.6204 -5704.42
v -4595.78 39.414 -5705.84
v -4595.91 39.452 -5705.87
v -4595.91 39.452 -5705.87
v -4595.78 39.414 -5705.84
v -4595.86 39.5364 -5705.96
v -4595.73 39.4985 -5705.94
v -4595.91 39.452 -5705.87
v -4595.78 39.414 -5705.84
v -4595.73 39.4985 -5705.94
v -4596.17 39.8912 -5706.26
v -4596.71 41.3499 -5705.73
v -4596.27 39.8942 -5706.31
v -4596.71 41.3499 -5705.73
v -4596.22 39.8506 -5706.17
v -4596.32 39.8536 -5706.22
v -4596.32 39.8536 -5706.22
v -4596.22 39.8506 -5706.17
v -4596.27 39.8942 -5706.31
v -4596.17 39.8912 -5706.26
v -4596.32 39.8536 -5706.22
v -4596.22 39.8506 -5706.17
v -4596.17 39.8912 -5706.26
v -4595.92 38.9647 -5705.39
v -4596.28 39.334 -5704.32
v -4596 38.9829 -5705.42
v -4595.95 38.8989 -5705.36
v -4596.03 38.9171 -5705.38
v -4596.03 38.9171 -5705.38
v -4595.95 38.8989 -5705.36
v -4596 38.9829 -5705.42
v -4595.92 38.9647 -5705.39
v -4596.03 38.9171 -5705.38
v -4595.95 38.8989 -5705.36
v -4595.44 39.194 -5705.54
v -4595.01 39.7447 -5704.77
v -4595.5 39.2259 -5705.54
v -4595.46 39.1522 -5705.49
v -4595.52 39.1841 -5705.48
v -4595.46 39.1522 -5705.49
v -4595.44 39.194 -5705.54
v -4595.52 39.1841 -5705.48
v -4595.5 39.2259 -5705.54
v -4595.46 39.1522 -5705.49
v -4596.64 39.2182 -5705.72
v -4597.64 39.6457 -5704.5
v -4596.74 39.2227 -5705.78
v -4597.64 39.6457 -5704.5
v -4596.68 39.1264 -5705.67
v -4596.77 39.1309 -5705.73
v -4596.68 39.1264 -5705.67
v -4596.64 39.2182 -5705.72
v -4596.77 39.1309 -5705.73
v -4596.74 39.2227 -5705.78
v -4596.74 39.2227 -5705.78
v -4596.68 39.1264 -5705.67
v -4595.92 39.3062 -5705.72
v -4596.62 39.9895 -5704.16
v -4596.04 39.3244 -5705.77
v -4596.62 39.9895 -5704.16
v -4595.97 39.2061 -5705.66
v -4596.08 39.2243 -5705.7
v -4596.08 39.2243 -5705.7
v -4595.97 39.2061 -5705.66
v -4596.04 39.3244 -5705.77
v -4595.92 39.3062 -5705.72
v -4596.08 39.2243 -5705.7
v -4595.97 39.2061 -5705.66
v -4596.04 39.8461 -5706.45
v -4596.23 40.905 -5706.13
v -4596.1 39.8519 -5706.48
v -4596.23 40.905 -5706.13
v -4596.08 39.836 -5706.39
v -4596.14 39.8418 -5706.42
v -4596.14 39.8418 -5706.42
v -4596.08 39.836 -5706.39
v -4596.1 39.8519 -5706.48
v -4596.04 39.8461 -5706.45
v -4596.14 39.8418 -5706.42
v -4596.08 39.836 -5706.39
v -4593.91 39.2632 -5710.41
v -4593.22 40.3057 -5710.97
v -4593.92 39.3006 -5710.36
v -4593.86 39.2524 -5710.39
v -4593.87 39.2898 -5710.34
v -4593.87 39.2898 -5710.34
v -4593.86 39.2524 -5710.39
v -4593.92 39.3006 -5710.36
v -4593.91 39.2632 -5710.41
v -4593.87 39.2898 -5710.34
v -4593.86 39.2524 -5710.39
v -4594.04 39.3725 -5710.16
v -4593.89 40.4866 -5710.21
v -4594.07 39.3885 -5710.09
v -4593.89 40.4866 -5710.21
v -4593.98 39.3772 -5710.14
v -4594 39.3932 -5710.07
v -4594 39.3932 -5710.07
v -4593.98 39.3772 -5710.14
v -4594.07 39.3885 -5710.09
v -4594.04 39.3725 -5710.16
v -4594 39.3932 -5710.07
v -4593.98 39.3772 -5710.14
v -4594.11 39.1719 -5710.62
v -4594.08 39.7082 -5711.29
v -4594.12 39.2044 -5710.59
v -4594.08 39.7082 -5711.29
v -4594.06 39.1798 -5710.62
v -4594.07 39.2123 -5710.58
v -4594.06 39.1798 -5710.62
v -4594.11 39.1719 -5710.62
v -4594.07 39.2123 -5710.58
v -4594.12 39.2044 -5710.59
v -4594.12 39.2044 -5710.59
v -4594.06 39.1798 -5710.62
v -4595.84 39.2749 -5710.85
v -4596.02 40.5642 -5712.37
v -4595.76 39.3102 -5710.84
v -4595.81 39.2276 -5710.92
v -4595.73 39.2629 -5710.9
v -4595.73 39.2629 -5710.9
v -4595.81 39.2276 -5710.92
v -4595.76 39.3102 -5710.84
v -4595.84 39.2749 -5710.85
v -4595.73 39.2629 -5710.9
v -4595.81 39.2276 -5710.92
v -4596.01 39.3875 -5710.38
v -4596.44 40.8025 -5711.08
v -4595.92 39.4372 -5710.37
v -4596.44 40.8025 -5711.08
v -4595.98 39.3669 -5710.48
v -4595.89 39.4166 -5710.47
v -4595.89 39.4166 -5710.47
v -4595.98 39.3669 -5710.48
v -4595.92 39.4372 -5710.37
v -4596.01 39.3875 -5710.38
v -4595.89 39.4166 -5710.47
v -4595.98 39.3669 -5710.48
v -4596.21 39.3226 -5710.61
v -4596.88 40.2785 -5711.06
v -4596.15 39.3573 -5710.6
v -4596.88 40.2785 -5711.06
v -4596.19 39.3086 -5710.68
v -4596.13 39.3434 -5710.66
v -4596.19 39.3086 -5710.68
v -4596.21 39.3226 -5710.61
v -4596.13 39.3434 -5710.66
v -4596.15 39.3573 -5710.6
v -4596.15 39.3573 -5710.6
v -4596.19 39.3086 -5710.68
v -4593.68 39.0911 -5705.43
v -4593.52 40.126 -5704.54
v -4593.74 39.1151 -5705.44
v -4593.7 39.0667 -5705.38
v -4593.76 39.0908 -5705.39
v -4593.76 39.0908 -5705.39
v -4593.7 39.0667 -5705.38
v -4593.74 39.1151 -5705.44
v -4593.68 39.0911 -5705.43
v -4593.76 39.0908 -5705.39
v -4593.7 39.0667 -5705.38
v -4593.57 39.1151 -5705.76
v -4593.24 40.1436 -5705.45
v -4593.63 39.1492 -5705.77
v -4593.24 40.1436 -5705.45
v -4593.59 39.1123 -5705.69
v -4593.65 39.1464 -5705.7
v -4593.65 39.1464 -5705.7
v -4593.59 39.1123 -5705.69
v -4593.63 39.1492 -5705.77
v -4593.57 39.1151 -5705.76
v -4593.65 39.1464 -5705.7
v -4593.59 39.1123 -5705.69
v -4593.43 39.0925 -5705.6
v -4592.95 39.7783 -5705.41
v -4593.47 39.1155 -5705.62
v -4592.95 39.7783 -5705.41
v -4593.44 39.0906 -5705.56
v -4593.49 39.1136 -5705.57
v -4593.44 39.0906 -5705.56
v -4593.43 39.0925 -5705.6
v -4593.49 39.1136 -5705.57
v -4593.47 39.1155 -5705.62
v -4593.47 39.1155 -5705.62
v -4593.44 39.0906 -5705.56
v -4597.83 37.9843 -5709.79
v -4598.57 38.8534 -5710.56
v -4597.78 38.0115 -5709.82
v -4597.84 37.9526 -5709.85
v -4597.79 37.9798 -5709.87
v -4597.79 37.9798 -5709.87
v -4597.84 37.9526 -5709.85
v -4597.78 38.0115 -5709.82
v -4597.83 37.9843 -5709.79
v -4597.79 37.9798 -5709.87
v -4597.84 37.9526 -5709.85
v -4597.74 38.0585 -5709.46
v -4598.31 39.0097 -5709.67
v -4597.69 38.0959 -5709.49
v -4598.31 39.0097 -5709.67
v -4597.77 38.0446 -5709.53
v -4597.72 38.082 -5709.56
v -4597.72 38.082 -5709.56
v -4597.77 38.0446 -5709.53
v -4597.69 38.0959 -5709.49
v -4597.74 38.0585 -5709.46
v -4597.72 38.082 -5709.56
v -4597.77 38.0446 -5709.53
v -4597.95 38.0054 -5709.52
v -4598.53 38.635 -5709.49
v -4597.91 38.0316 -5709.53
v -4598.53 38.635 -5709.49
v -4597.96 37.9962 -5709.56
v -4597.92 38.0223 -5709.58
v -4597.96 37.9962 -5709.56
v -4597.95 38.0054 -5709.52
v -4597.92 38.0223 -5709.58
v -4597.91 38.0316 -5709.53
v -4597.91 38.0316 -5709.53
v -4597.96 37.9962 -5709.56
v -4594.51 51.2958 -5707.29
v -4596.95 51.3343 -5707.48
v -4594.4 51.2958 -5708.66
v -4596.84 51.3343 -5708.85
v -4594.22 51.2941 -5708.75
v -4593.03 51.2833 -5706.64
v -4595.6 51.2941 -5707.76
v -4594 51.2833 -5705.95
v -4599.4 44.9965 -5707.68
v -4599.25 49.5976 -5707.85
v -4599.29 44.9965 -5709.04
v -4599.17 49.5976 -5708.85
v -4598 50.6869 -5708.76
v -4599.17 49.5976 -5708.85
v -4598.08 50.6869 -5707.75
v -4599.25 49.5976 -5707.85
v -4596.95 51.3343 -5707.48
v -4598.08 50.6869 -5707.75
v -4596.84 51.3343 -5708.85
v -4598 50.6869 -5708.76
v -4598.08 50.6869 -5707.75
v -4599.25 49.5976 -5707.85
v -4598 50.6869 -5708.76
v -4599.18 49.5976 -5708.85
v -4599.26 35.2147 -5709.4
v -4599.29 44.9965 -5709.04
v -4599.43 35.2147 -5707.33
v -4599.4 44.9965 -5707.68
v -4599.29 44.9965 -5709.04
v -4599.18 49.5976 -5708.85
v -4599.4 44.9965 -5707.68
v -4599.25 49.5976 -5707.85
v -4599.42 35.2147 -5707.33
v -4599.4 44.9965 -5707.68
v -4599.26 35.2147 -5709.4
v -4599.29 44.9965 -5709.04
v -4591.34 45.8612 -5704.53
v -4591.57 49.6914 -5704.6
v -4592.55 45.8612 -5703.67
v -4592.54 49.6914 -5703.9
v -4591.57 49.6914 -5704.6
v -4592.43 50.6226 -5705.8
v -4592.54 49.6914 -5703.9
v -4593.4 50.6226 -5705.11
v -4593.03 51.2833 -5706.64
v -4592.43 50.6331 -5705.8
v -4594 51.2833 -5705.95
v -4593.4 50.6331 -5705.11
v -4592.43 50.6331 -5705.8
v -4591.57 49.6914 -5704.6
v -4593.4 50.6331 -5705.11
v -4592.54 49.6914 -5703.9
v -4592.75 34.8525 -5703.47
v -4592.55 45.8612 -5703.66
v -4591.09 34.8525 -5704.65
v -4591.34 45.8612 -5704.53
v -4592.55 45.8612 -5703.66
v -4592.54 49.6914 -5703.9
v -4591.34 45.8612 -5704.53
v -4591.57 49.6914 -5704.6
v -4591.09 34.8525 -5704.66
v -4591.34 45.8612 -5704.53
v -4592.75 34.8525 -5703.47
v -4592.55 45.8612 -5703.67
v -4627 34.9712 -5675
v -4627 35.2529 -5677
v -4627 35.4993 -5679
v -4627 35.7296 -5681
v -4627 35.9622 -5683
v -4627 36.2142 -5685
v -4627 35.9158 -5687
v -4627 35.5355 -5689
v -4627 35.1992 -5691
v -4627 34.9286 -5693
v -4627 34.7445 -5695
v -4627 34.6666 -5697
v -4627 34.7134 -5699
v -4627 34.8923 -5701
v -4627 35.1451 -5703
v -4627 35.437 -5705
v -4627 35.6779 -5707
v -4627 35.1765 -5709
v -4627 34.7887 -5711
v -4627 34.5207 -5713
v -4627 34.3743 -5715
v -4627 34.4133 -5717
v -4627 34.9389 -5719
v -4627 35.5604 -5721
v -4627 36.2627 -5723
v -4627 37.0256 -5725
v -4627 37.8249 -5727
v -4627 38.632 -5729
v -4627 39.4139 -5731
v -4627 40.1338 -5733
v -4627 40.7503 -5735
v -4627 41.2732 -5737
v -4625 33.3541 -5675
v -4625 33.6993 -5677
v -4625 34.0208 -5679
v -4625 34.3346 -5681
v -4625 34.6556 -5683
v -4625 34.9973 -5685
v -4625 35.1404 -5687
v -4625 34.7526 -5689
v -4625 34.4027 -5691
v -4625 34.1098 -5693
v -4625 33.8922 -5695
v -4625 33.767 -5697
v -4625 33.7503 -5699
v -4625 33.8519 -5701
v -4625 34.0401 -5703
v -4625 34.2869 -5705
v -4625 34.5714 -5707
v -4625 34.8765 -5709
v -4625 35.0727 -5711
v -4625 34.7837 -5713
v -4625 34.8844 -5715
v -4625 35.2568 -5717
v -4625 35.7259 -5719
v -4625 36.2834 -5721
v -4625 36.9183 -5723
v -4625 37.6152 -5725
v -4625 38.3553 -5727
v -4625 39.1165 -5729
v -4625 39.8727 -5731
v -4625 40.5949 -5733
v -4625 41.2476 -5735
v -4625 41.6924 -5737
v -4623 31.8002 -5675
v -4623 32.2067 -5677
v -4623 32.6029 -5679
v -4623 33.0007 -5681
v -4623 33.4111 -5683
v -4623 33.8438 -5685
v -4623 34.3068 -5687
v -4623 34.0835 -5689
v -4623 33.7243 -5691
v -4623 33.4115 -5693
v -4623 33.1602 -5695
v -4623 32.9845 -5697
v -4623 32.8977 -5699
v -4623 32.9111 -5701
v -4623 33.0191 -5703
v -4623 33.2019 -5705
v -4623 33.4417 -5707
v -4623 33.7233 -5709
v -4623 34.0683 -5711
v -4623 34.8585 -5713
v -4623 35.6612 -5715
v -4623 36.235 -5717
v -4623 36.6606 -5719
v -4623 37.1644 -5721
v -4623 37.7393 -5723
v -4623 38.3746 -5725
v -4623 39.0575 -5727
v -4623 39.7726 -5729
v -4623 40.5016 -5731
v -4623 41.2238 -5733
v -4623 41.7467 -5735
v -4623 42.1103 -5737
v -4621 30.3484 -5675
v -4621 30.8135 -5677
v -4621 31.2824 -5679
v -4621 31.7632 -5681
v -4621 32.2625 -5683
v -4621 32.7857 -5685
v -4621 33.3367 -5687
v -4621 33.5587 -5689
v -4621 33.1945 -5691
v -4621 32.8645 -5693
v -4621 32.5805 -5695
v -4621 32.3529 -5697
v -4621 32.1917 -5699
v -4621 32.1092 -5701
v -4621 32.1248 -5703
v -4621 32.2277 -5705
v -4621 32.4044 -5707
v -4621 32.8725 -5709
v -4621 33.6212 -5711
v -4621 34.4123 -5713
v -4621 35.2389 -5715
v -4621 36.095 -5717
v -4621 36.9747 -5719
v -4621 37.8725 -5721
v -4621 38.6878 -5723
v -4621 39.2687 -5725
v -4621 39.899 -5727
v -4621 40.5702 -5729
v -4621 41.2719 -5731
v -4621 41.8262 -5733
v -4621 42.2453 -5735
v -4621 42.6615 -5737
v -4619 29.8141 -5675
v -4619 29.8402 -5677
v -4619 30.0858 -5679
v -4619 30.6472 -5681
v -4619 31.2333 -5683
v -4619 31.8452 -5685
v -4619 32.4822 -5687
v -4619 33.1424 -5689
v -4619 32.8335 -5691
v -4619 32.4896 -5693
v -4619 32.1747 -5695
v -4619 31.8957 -5697
v -4619 31.6586 -5699
v -4619 31.4759 -5701
v -4619 31.3904 -5703
v -4619 31.4009 -5705
v -4619 31.9147 -5707
v -4619 32.5511 -5709
v -4619 33.2591 -5711
v -4619 34.0325 -5713
v -4619 34.865 -5715
v -4619 35.7507 -5717
v -4619 36.6818 -5719
v -4619 37.6502 -5721
v -4619 38.648 -5723
v -4619 39.667 -5725
v -4619 40.6998 -5727
v -4619 41.4782 -5729
v -4619 42.0027 -5731
v -4619 42.4109 -5733
v -4619 42.8517 -5735
v -4619 43.3149 -5737
v -4617 29.7562 -5675
v -4617 29.7854 -5677
v -4617 29.8083 -5679
v -4617 29.8252 -5681
v -4617 30.3366 -5683
v -4617 31.0341 -5685
v -4617 31.7542 -5687
v -4617 32.4905 -5689
v -4617 32.6517 -5691
v -4617 32.2976 -5693
v -4617 31.9549 -5695
v -4617 31.6265 -5697
v -4617 31.3145 -5699
v -4617 31.0309 -5701
v -4617 30.9729 -5703
v -4617 31.3434 -5705
v -4617 31.8098 -5707
v -4617 32.37 -5709
v -4617 33.0213 -5711
v -4617 33.7599 -5713
v -4617 34.5809 -5715
v -4617 35.4791 -5717
v -4617 36.4459 -5719
v -4617 37.4706 -5721
v -4617 38.5415 -5723
v -4617 39.6451 -5725
v -4617 40.7678 -5727
v -4617 41.776 -5729
v -4617 42.57 -5731
v -4617 43.0764 -5733
v -4617 43.5355 -5735
v -4617 44.0391 -5737
v -4615 29.696 -5675
v -4615 29.7287 -5677
v -4615 29.7555 -5679
v -4615 29.7765 -5681
v -4615 29.792 -5683
v -4615 30.3546 -5685
v -4615 31.154 -5687
v -4615 31.9626 -5689
v -4615 32.6501 -5691
v -4615 32.29 -5693
v -4615 31.9236 -5695
v -4615 31.5495 -5697
v -4615 31.1659 -5699
v -4615 31.09 -5701
v -4615 31.2562 -5703
v -4615 31.5198 -5705
v -4615 31.8864 -5707
v -4615 32.3595 -5709
v -4615 32.9407 -5711
v -4615 33.6297 -5713
v -4615 34.4235 -5715
v -4615 35.3183 -5717
v -4615 36.3052 -5719
v -4615 37.3714 -5721
v -4615 38.5018 -5723
v -4615 39.6783 -5725
v -4615 40.8134 -5727
v -4615 41.6871 -5729
v -4615 42.5456 -5731
v -4615 43.3654 -5733
v -4615 44.1388 -5735
v -4615 44.7067 -5737
v -4613 29.6339 -5675
v -4613 29.6703 -5677
v -4613 29.7011 -5679
v -4613 29.7266 -5681
v -4613 29.7469 -5683
v -4613 29.7996 -5685
v -4613 30.6734 -5687
v -4613 31.5501 -5689
v -4613 32.4125 -5691
v -4613 32.4589 -5693
v -4613 32.0738 -5695
v -4613 31.6595 -5697
v -4613 31.6878 -5699
v -4613 31.6845 -5701
v -4613 31.7454 -5703
v -4613 31.901 -5705
v -4613 32.1637 -5707
v -4613 32.5428 -5709
v -4613 33.0448 -5711
v -4613 33.6728 -5713
v -4613 34.4266 -5715
v -4613 35.3041 -5717
v -4613 36.2966 -5719
v -4613 37.39 -5721
v -4613 38.5661 -5723
v -4613 39.8025 -5725
v -4613 40.732 -5727
v -4613 41.6687 -5729
v -4613 42.5842 -5731
v -4613 43.4465 -5733
v -4613 44.2416 -5735
v -4613 44.8665 -5737
v -4611 29.5701 -5675
v -4611 29.6103 -5677
v -4611 29.6454 -5679
v -4611 29.6756 -5681
v -4611 29.701 -5683
v -4611 29.7218 -5685
v -4611 30.2956 -5687
v -4611 31.2353 -5689
v -4611 32.1509 -5691
v -4611 32.7872 -5693
v -4611 32.5481 -5695
v -4611 32.5917 -5697
v -4611 32.5667 -5699
v -4611 32.4794 -5701
v -4611 32.4418 -5703
v -4611 32.4933 -5705
v -4611 32.6533 -5707
v -4611 32.9366 -5709
v -4611 33.3549 -5711
v -4611 33.9151 -5713
v -4611 34.6198 -5715
v -4611 35.4692 -5717
v -4611 36.4552 -5719
v -4611 37.5628 -5721
v -4611 38.7714 -5723
v -4611 39.7902 -5725
v -4611 40.7668 -5727
v -4611 41.7553 -5729
v -4611 42.719 -5731
v -4611 43.6178 -5733
v -4611 44.4319 -5735
v -4611 45.0346 -5737
v -4609 29.5047 -5675
v -4609 29.549 -5677
v -4609 29.5885 -5679
v -4609 29.6236 -5681
v -4609 29.6541 -5683
v -4609 29.6805 -5685
v -4609 29.996 -5687
v -4609 30.9931 -5689
v -4609 31.9573 -5691
v -4609 33.1794 -5693
v -4609 33.6677 -5695
v -4609 33.69 -5697
v -4609 33.6202 -5699
v -4609 33.4618 -5701
v -4609 33.337 -5703
v -4609 33.2938 -5705
v -4609 33.3576 -5707
v -4609 33.5491 -5709
v -4609 33.8848 -5711
v -4609 34.3756 -5713
v -4609 35.0269 -5715
v -4609 35.8415 -5717
v -4609 36.8122 -5719
v -4609 37.9235 -5721
v -4609 38.983 -5723
v -4609 39.9402 -5725
v -4609 40.9528 -5727
v -4609 41.9816 -5729
v -4609 42.9836 -5731
v -4609 43.9119 -5733
v -4609 44.7416 -5735
v -4609 45.2094 -5737
v -4607 28.9625 -5675
v -4607 29.4865 -5677
v -4607 29.5306 -5679
v -4607 29.5706 -5681
v -4607 29.6065 -5683
v -4607 29.6386 -5685
v -4607 29.7426 -5687
v -4607 30.7904 -5689
v -4607 32.2609 -5691
v -4607 33.7133 -5693
v -4607 34.9095 -5695
v -4607 34.9216 -5697
v -4607 34.8208 -5699
v -4607 34.6078 -5701
v -4607 34.4124 -5703
v -4607 34.2893 -5705
v -4607 34.2701 -5707
v -4607 34.3804 -5709
v -4607 34.6412 -5711
v -4607 35.0673 -5713
v -4607 35.6667 -5715
v -4607 36.445 -5717
v -4607 37.396 -5719
v -4607 38.4461 -5721
v -4607 39.3163 -5723
v -4607 40.2886 -5725
v -4607 41.3252 -5727
v -4607 42.3826 -5729
v -4607 43.4125 -5731
v -4607 44.3624 -5733
v -4607 45.2031 -5735
v -4607 45.3894 -5737
v -4605 28.4506 -5675
v -4605 29.275 -5677
v -4605 29.4718 -5679
v -4605 29.5169 -5681
v -4605 29.5582 -5683
v -4605 29.5961 -5685
v -4605 29.6305 -5687
v -4605 31.1829 -5689
v -4605 32.745 -5691
v -4605 34.2388 -5693
v -4605 35.6253 -5695
v -4605 36.2456 -5697
v -4605 36.1299 -5699
v -4605 35.8825 -5701
v -4605 35.6377 -5703
v -4605 35.4562 -5705
v -4605 35.3738 -5707
v -4605 35.4208 -5709
v -4605 35.6221 -5711
v -4605 35.9953 -5713
v -4605 36.5512 -5715
v -4605 37.2979 -5717
v -4605 38.2301 -5719
v -4605 39.0232 -5721
v -4605 39.8895 -5723
v -4605 40.8678 -5725
v -4605 41.9177 -5727
v -4605 42.9923 -5729
v -4605 44.0394 -5731
v -4605 45.0019 -5733
v -4605 45.4458 -5735
v -4605 45.5731 -5737
v -4603 27.9543 -5675
v -4603 28.8007 -5677
v -4603 29.4124 -5679
v -4603 29.4625 -5681
v -4603 29.5093 -5683
v -4603 29.553 -5685
v -4603 29.9248 -5687
v -4603 31.5668 -5689
v -4603 33.174 -5691
v -4603 34.7056 -5693
v -4603 36.1201 -5695
v -4603 37.3764 -5697
v -4603 37.499 -5699
v -4603 37.2401 -5701
v -4603 36.9723 -5703
v -4603 36.7595 -5705
v -4603 36.6413 -5707
v -4603 36.6508 -5709
v -4603 36.8157 -5711
v -4603 37.1562 -5713
v -4603 37.6846 -5715
v -4603 38.4112 -5717
v -4603 39.1606 -5719
v -4603 39.8678 -5721
v -4603 40.7279 -5723
v -4603 41.7064 -5725
v -4603 42.7609 -5727
v -4603 43.8423 -5729
v -4603 44.8957 -5731
v -4603 45.4965 -5733
v -4603 45.6275 -5735
v -4603 45.7589 -5737
v -4601 27.4288 -5675
v -4601 28.2901 -5677
v -4601 29.2628 -5679
v -4601 29.4076 -5681
v -4601 29.4599 -5683
v -4601 29.5094 -5685
v -4601 30.1631 -5687
v -4601 31.7682 -5689
v -4601 33.0286 -5691
v -4601 34.3567 -5693
v -4601 35.7708 -5695
v -4601 37.2892 -5697
v -4601 38.8429 -5699
v -4601 38.6259 -5701
v -4601 38.3652 -5703
v -4601 38.1545 -5705
v -4601 38.0346 -5707
v -4601 38.0404 -5709
v -4601 38.2009 -5711
v -4601 38.5371 -5713
v -4601 39.062 -5715
v -4601 39.7738 -5717
v -4601 40.2934 -5719
v -4601 40.995 -5721
v -4601 41.8517 -5723
v -4601 42.828 -5725
v -4601 43.8808 -5727
v -4601 44.9598 -5729
v -4601 45.5391 -5731
v -4601 45.6738 -5733
v -4601 45.8097 -5735
v -4601 45.9455 -5737
v -4599 26.836 -5675
v -4599 27.7037 -5677
v -4599 28.6851 -5679
v -4599 29.3523 -5681
v -4599 29.4101 -5683
v -4599 29.4654 -5685
v -4599 29.7764 -5687
v -4599 30.9753 -5689
v -4599 32.2285 -5691
v -4599 33.5545 -5693
v -4599 34.9729 -5695
v -4599 36.5035 -5697
v -4599 38.1645 -5699
v -4599 39.9481 -5701
v -4599 39.7915 -5703
v -4599 39.6174 -5705
v -4599 39.5316 -5707
v -4599 39.5684 -5709
v -4599 39.7567 -5711
v -4599 40.1169 -5713
v -4599 40.6617 -5715
v -4599 41.1522 -5717
v -4599 41.6755 -5719
v -4599 42.3775 -5721
v -4599 43.231 -5723
v -4599 44.2005 -5725
v -4599 45.2428 -5727
v -4599 45.5715 -5729
v -4599 45.7099 -5731
v -4599 45.8503 -5733
v -4599 45.9912 -5735
v -4599 46.1314 -5737
v -4597 26.2048 -5675
v -4597 27.1359 -5677
v -4597 28.5617 -5679
v -4597 29.2968 -5681
v -4597 29.3599 -5683
v -4597 29.4209 -5685
v -4597 29.4798 -5687
v -4597 30.1315 -5689
v -4597 31.3581 -5691
v -4597 32.6594 -5693
v -4597 34.0572 -5695
v -4597 35.5743 -5697
v -4597 37.2318 -5699
v -4597 39.0253 -5701
v -4597 40.7991 -5703
v -4597 41.2575 -5705
v -4597 41.2142 -5707
v -4597 41.2829 -5709
v -4597 41.4916 -5711
v -4597 41.8605 -5713
v -4597 42.3355 -5715
v -4597 42.6406 -5717
v -4597 43.1345 -5719
v -4597 43.8004 -5721
v -4597 44.6129 -5723
v -4597 45.4549 -5725
v -4597 45.5921 -5727
v -4597 45.7338 -5729
v -4597 45.8784 -5731
v -4597 46.0245 -5733
v -4597 46.1705 -5735
v -4597 46.3151 -5737
v -4595 25.6818 -5675
v -4595 26.9619 -5677
v -4595 28.3872 -5679
v -4595 29.2413 -5681
v -4595 29.3096 -5683
v -4595 29.3761 -5685
v -4595 29.4409 -5687
v -4595 29.5039 -5689
v -4595 30.4501 -5691
v -4595 31.7058 -5693
v -4595 33.0598 -5695
v -4595 34.5383 -5697
v -4595 36.1676 -5699
v -4595 37.9486 -5701
v -4595 39.7277 -5703
v -4595 41.4355 -5705
v -4595 42.7453 -5707
v -4595 43.1099 -5709
v -4595 43.3306 -5711
v -4595 43.6926 -5713
v -4595 43.9123 -5715
v -4595 44.1706 -5717
v -4595 44.6057 -5719
v -4595 45.2034 -5721
v -4595 45.4608 -5723
v -4595 45.5995 -5725
v -4595 45.7439 -5727
v -4595 45.8924 -5729
v -4595 46.0433 -5731
v -4595 46.195 -5733
v -4595 46.3462 -5735
v -4595 46.4953 -5737
v -4593 25.444 -5675
v -4593 26.7048 -5677
v -4593 27.8782 -5679
v -4593 29.0034 -5681
v -4593 29.2591 -5683
v -4593 29.3311 -5685
v -4593 29.4017 -5687
v -4593 29.4706 -5689
v -4593 29.5593 -5691
v -4593 30.7533 -5693
v -4593 32.0442 -5695
v -4593 33.4629 -5697
v -4593 35.0414 -5699
v -4593 36.7878 -5701
v -4593 38.5537 -5703
v -4593 40.2707 -5705
v -4593 41.8992 -5707
v -4593 43.4076 -5709
v -4593 44.4165 -5711
v -4593 44.9586 -5713
v -4593 45.0999 -5715
v -4593 45.2054 -5717
v -4593 45.324 -5719
v -4593 45.4539 -5721
v -4593 45.5929 -5723
v -4593 45.7392 -5725
v -4593 45.8908 -5727
v -4593 46.0461 -5729
v -4593 46.2032 -5731
v -4593 46.3607 -5733
v -4593 46.517 -5735
v -4593 46.6706 -5737
v -4591 24.8938 -5675
v -4591 26.0939 -5677
v -4591 27.2513 -5679
v -4591 28.3674 -5681
v -4591 29.2087 -5683
v -4591 29.2859 -5685
v -4591 29.362 -5687
v -4591 29.4368 -5689
v -4591 29.5103 -5691
v -4591 29.8538 -5693
v -4591 31.0673 -5695
v -4591 32.4089 -5697
v -4591 33.9172 -5699
v -4591 35.6088 -5701
v -4591 37.3427 -5703
v -4591 39.053 -5705
v -4591 40.7005 -5707
v -4591 42.2522 -5709
v -4591 43.6826 -5711
v -4591 44.6715 -5713
v -4591 45.1934 -5715
v -4591 45.3072 -5717
v -4591 45.4342 -5719
v -4591 45.5722 -5721
v -4591 45.7191 -5723
v -4591 45.8728 -5725
v -4591 46.0316 -5727
v -4591 46.1936 -5729
v -4591 46.3569 -5731
v -4591 46.5201 -5733
v -4591 46.6815 -5735
v -4591 46.8397 -5737
v -4589 24.3446 -5675
v -4589 25.5526 -5677
v -4589 26.7139 -5679
v -4589 27.8269 -5681
v -4589 28.8947 -5683
v -4589 29.2406 -5685
v -4589 29.322 -5687
v -4589 29.4024 -5689
v -4589 29.4817 -5691
v -4589 29.5596 -5693
v -4589 30.1763 -5695
v -4589 31.4285 -5697
v -4589 32.8517 -5699
v -4589 34.4714 -5701
v -4589 36.1555 -5703
v -4589 37.8422 -5705
v -4589 39.4938 -5707
v -4589 41.0773 -5709
v -4589 42.5055 -5711
v -4589 43.4177 -5713
v -4589 44.2067 -5715
v -4589 44.8824 -5717
v -4589 45.4463 -5719
v -4589 45.6835 -5721
v -4589 45.8381 -5723
v -4589 45.9993 -5725
v -4589 46.1651 -5727
v -4589 46.3337 -5729
v -4589 46.5032 -5731
v -4589 46.6721 -5733
v -4589 46.7152 -5735
v -4589 46.8094 -5737
v -4587 23.8842 -5675
v -4587 25.1073 -5677
v -4587 26.28 -5679
v -4587 27.3969 -5681
v -4587 28.458 -5683
v -4587 29.1954 -5685
v -4587 29.2818 -5687
v -4587 29.3675 -5689
v -4587 29.4523 -5691
v -4587 29.536 -5693
v -4587 29.6183 -5695
v -4587 30.5639 -5697
v -4587 31.8916 -5699
v -4587 33.4263 -5701
v -4587 35.0452 -5703
v -4587 36.6917 -5705
v -4587 38.3311 -5707
v -4587 39.9318 -5709
v -4587 41.1978 -5711
v -4587 42.1768 -5713
v -4587 43.0542 -5715
v -4587 43.8367 -5717
v -4587 44.5222 -5719
v -4587 45.1068 -5721
v -4587 45.5889 -5723
v -4587 45.9699 -5725
v -4587 46.2536 -5727
v -4587 46.4476 -5729
v -4587 46.562 -5731
v -4587 46.6118 -5733
v -4587 46.6616 -5735
v -4587 46.7941 -5737
v -4585 23.5198 -5675
v -4585 24.7353 -5677
v -4585 25.9571 -5679
v -4585 27.0856 -5681
v -4585 28.1474 -5683
v -4585 29.1456 -5685
v -4585 29.2413 -5687
v -4585 29.332 -5689
v -4585 29.422 -5691
v -4585 29.5111 -5693
v -4585 29.599 -5695
v -4585 29.8466 -5697
v -4585 31.0732 -5699
v -4585 32.5142 -5701
v -4585 34.0557 -5703
v -4585 35.6469 -5705
v -4585 37.2578 -5707
v -4585 38.8586 -5709
v -4585 39.9528 -5711
v -4585 40.9852 -5713
v -4585 41.9403 -5715
v -4585 42.8214 -5717
v -4585 43.6231 -5719
v -4585 44.3369 -5721
v -4585 44.9564 -5723
v -4585 45.4771 -5725
v -4585 45.8836 -5727
v -4585 46.1715 -5729
v -4585 46.4275 -5731
v -4585 46.5439 -5733
v -4585 46.6325 -5735
v -4585 46.8042 -5737
v -4583 23.0534 -5675
v -4583 24.0232 -5677
v -4583 25.1746 -5679
v -4583 26.515 -5681
v -4583 27.9652 -5683
v -4583 28.9581 -5685
v -4583 29.2007 -5687
v -4583 29.296 -5689
v -4583 29.3909 -5691
v -4583 29.4851 -5693
v -4583 29.5782 -5695
v -4583 29.6699 -5697
v -4583 30.4213 -5699
v -4583 31.7645 -5701
v -4583 33.2199 -5703
v -4583 34.7434 -5705
v -4583 36.3101 -5707
v -4583 37.702 -5709
v -4583 38.805 -5711
v -4583 39.8733 -5713
v -4583 40.89 -5715
v -4583 41.8555 -5717
v -4583 42.7609 -5719
v -4583 43.5936 -5721
v -4583 44.3419 -5723
v -4583 44.9953 -5725
v -4583 45.1699 -5727
v -4583 45.3888 -5729
v -4583 45.6854 -5731
v -4583 46.0705 -5733
v -4583 46.4696 -5735
v -4583 46.7473 -5737
v -4581 22.3679 -5675
v -4581 23.2468 -5677
v -4581 24.3094 -5679
v -4581 25.5691 -5681
v -4581 27.0306 -5683
v -4581 28.6883 -5685
v -4581 29.1601 -5687
v -4581 29.2596 -5689
v -4581 29.3589 -5691
v -4581 29.4578 -5693
v -4581 29.5557 -5695
v -4581 29.6524 -5697
v -4581 29.9485 -5699
v -4581 31.1942 -5701
v -4581 32.5588 -5703
v -4581 34.0049 -5705
v -4581 35.5135 -5707
v -4581 36.6866 -5709
v -4581 37.779 -5711
v -4581 38.8631 -5713
v -4581 39.9212 -5715
v -4581 40.9518 -5717
v -4581 41.9428 -5719
v -4581 42.8777 -5721
v -4581 43.74 -5723
v -4581 44.3322 -5725
v -4581 44.4129 -5727
v -4581 44.5688 -5729
v -4581 44.8223 -5731
v -4581 45.196 -5733
v -4581 45.6103 -5735
v -4581 45.9021 -5737
v -4579 21.6448 -5675
v -4579 22.4263 -5677
v -4579 23.3919 -5679
v -4579 24.5604 -5681
v -4579 25.9425 -5683
v -4579 27.538 -5685
v -4579 29.1195 -5687
v -4579 29.2228 -5689
v -4579 29.3261 -5691
v -4579 29.4292 -5693
v -4579 29.5316 -5695
v -4579 29.6328 -5697
v -4579 29.7323 -5699
v -4579 30.8082 -5701
v -4579 32.081 -5703
v -4579 33.4431 -5705
v -4579 34.799 -5707
v -4579 35.8276 -5709
v -4579 36.8898 -5711
v -4579 37.9678 -5713
v -4579 39.0445 -5715
v -4579 40.1168 -5717
v -4579 41.1706 -5719
v -4579 42.186 -5721
v -4579 43.1419 -5723
v -4579 43.6263 -5725
v -4579 43.6476 -5727
v -4579 43.7508 -5729
v -4579 43.9678 -5731
v -4579 44.3325 -5733
v -4579 44.761 -5735
v -4579 45.0661 -5737
v -4577 20.9055 -5675
v -4577 21.5864 -5677
v -4577 22.4497 -5679
v -4577 23.5195 -5681
v -4577 24.8119 -5683
v -4577 26.3327 -5685
v -4577 28.0739 -5687
v -4577 29.1856 -5689
v -4577 29.2925 -5691
v -4577 29.3993 -5693
v -4577 29.5056 -5695
v -4577 29.6109 -5697
v -4577 29.7147 -5699
v -4577 30.5991 -5701
v -4577 31.7824 -5703
v -4577 33.0574 -5705
v -4577 34.1664 -5707
v -4577 35.1278 -5709
v -4577 36.1412 -5711
v -4577 37.1913 -5713
v -4577 38.262 -5715
v -4577 39.3502 -5717
v -4577 40.4406 -5719
v -4577 41.5105 -5721
v -4577 42.5353 -5723
v -4577 42.9321 -5725
v -4577 42.912 -5727
v -4577 42.9769 -5729
v -4577 43.1672 -5731
v -4577 43.5267 -5733
v -4577 43.969 -5735
v -4577 44.2868 -5737
v -4575 20.1752 -5675
v -4575 20.7553 -5677
v -4575 21.5146 -5679
v -4575 22.4817 -5681
v -4575 23.6776 -5683
v -4575 25.1134 -5685
v -4575 26.7871 -5687
v -4575 28.6802 -5689
v -4575 29.2581 -5691
v -4575 29.3682 -5693
v -4575 29.4779 -5695
v -4575 29.5868 -5697
v -4575 29.6942 -5699
v -4575 30.5467 -5701
v -4575 31.6463 -5703
v -4575 32.834 -5705
v -4575 33.696 -5707
v -4575 34.5784 -5709
v -4575 35.526 -5711
v -4575 36.5269 -5713
v -4575 37.5671 -5715
v -4575 38.6443 -5717
v -4575 39.7426 -5719
v -4575 40.8382 -5721
v -4575 41.9039 -5723
v -4575 42.2856 -5725
v -4575 42.2458 -5727
v -4575 42.2904 -5729
v -4575 42.4667 -5731
v -4575 42.8266 -5733
v -4575 43.2825 -5735
v -4575 43.613 -5737
v -4573 19.4818 -5675
v -4573 19.9651 -5677
v -4573 20.6228 -5679
v -4573 21.4873 -5681
v -4573 22.5838 -5683
v -4573 23.9283 -5685
v -4573 25.5241 -5687
v -4573 27.3582 -5689
v -4573 29.2229 -5691
v -4573 29.3357 -5693
v -4573 29.4483 -5695
v -4573 29.5602 -5697
v -4573 29.69 -5699
v -4573 30.6193 -5701
v -4573 31.6436 -5703
v -4573 32.646 -5705
v -4573 33.3644 -5707
v -4573 34.159 -5709
v -4573 35.0266 -5711
v -4573 35.9591 -5713
v -4573 36.9452 -5715
v -4573 37.9842 -5717
v -4573 39.0612 -5719
v -4573 40.152 -5721
v -4573 41.228 -5723
v -4573 41.7256 -5725
v -4573 41.691 -5727
v -4573 41.7362 -5729
v -4573 41.9134 -5731
v -4573 42.2805 -5733
v -4573 42.7505 -5735
v -4573 43.094 -5737
v -4571 18.856 -5675
v -4571 19.2502 -5677
v -4571 19.8132 -5679
v -4571 20.58 -5681
v -4571 21.5791 -5683
v -4571 22.8306 -5685
v -4571 24.3425 -5687
v -4571 26.1071 -5689
v -4571 28.0976 -5691
v -4571 29.3019 -5693
v -4571 29.4169 -5695
v -4571 29.5313 -5697
v -4571 29.8902 -5699
v -4571 30.7725 -5701
v -4571 31.7331 -5703
v -4571 32.5082 -5705
v -4571 33.1363 -5707
v -4571 33.8381 -5709
v -4571 34.6149 -5711
v -4571 35.4625 -5713
v -4571 36.373 -5715
v -4571 37.3483 -5717
v -4571 38.375 -5719
v -4571 39.4298 -5721
v -4571 40.4844 -5723
v -4571 41.2924 -5725
v -4571 41.2896 -5727
v -4571 41.3585 -5729
v -4571 41.5535 -5731
v -4571 41.9359 -5733
v -4571 42.421 -5735
v -4571 42.7784 -5737
v -4569 18.3306 -5675
v -4569 18.6474 -5677
v -4569 19.127 -5679
v -4569 19.8059 -5681
v -4569 20.715 -5683
v -4569 21.8774 -5685
v -4569 23.3049 -5687
v -4569 24.9942 -5689
v -4569 26.9236 -5691
v -4569 29.0485 -5693
v -4569 29.3836 -5695
v -4569 29.4998 -5697
v -4569 30.0975 -5699
v -4569 30.9499 -5701
v -4569 31.8609 -5703
v -4569 32.4225 -5705
v -4569 32.9652 -5707
v -4569 33.5734 -5709
v -4569 34.2526 -5711
v -4569 35.0027 -5713
v -4569 35.8193 -5715
v -4569 36.7075 -5717
v -4569 37.6563 -5719
v -4569 38.6447 -5721
v -4569 39.6459 -5723
v -4569 40.6273 -5725
v -4569 41.084 -5727
v -4569 41.2007 -5729
v -4569 41.4315 -5731
v -4569 41.8382 -5733
v -4569 42.3398 -5735
v -4569 42.7124 -5737
v -4567 17.9408 -5675
v -4567 18.196 -5677
v -4567 18.6079 -5679
v -4567 19.214 -5681
v -4567 20.0463 -5683
v -4567 21.1296 -5685
v -4567 22.4784 -5687
v -4567 24.0931 -5689
v -4567 25.9558 -5691
v -4567 28.0261 -5693
v -4567 29.3484 -5695
v -4567 29.4659 -5697
v -4567 29.7725 -5699
v -4567 31.0825 -5701
v -4567 31.8977 -5703
v -4567 32.3265 -5705
v -4567 32.7932 -5707
v -4567 33.3117 -5709
v -4567 33.8914 -5711
v -4567 34.536 -5713
v -4567 35.2447 -5715
v -4567 36.026 -5717
v -4567 36.8723 -5719
v -4567 37.7657 -5721
v -4567 38.6822 -5723
v -4567 39.5919 -5725
v -4567 40.4588 -5727
v -4567 41.241 -5729
v -4567 41.5887 -5731
v -4567 42.029 -5733
v -4567 42.5492 -5735
v -4567 42.9389 -5737
v -4565 17.6406 -5675
v -4565 17.8458 -5677
v -4565 18.202 -5679
v -4565 18.7465 -5681
v -4565 19.5118 -5683
v -4565 20.5238 -5685
v -4565 21.7987 -5687
v -4565 23.3394 -5689
v -4565 25.1317 -5691
v -4565 27.139 -5693
v -4565 29.3002 -5695
v -4565 29.4294 -5697
v -4565 29.5469 -5699
v -4565 30.824 -5701
v -4565 31.8906 -5703
v -4565 32.2735 -5705
v -4565 32.6747 -5707
v -4565 33.1111 -5709
v -4565 33.5953 -5711
v -4565 34.1342 -5713
v -4565 34.7309 -5715
v -4565 35.3971 -5717
v -4565 36.1289 -5719
v -4565 36.9119 -5721
v -4565 37.7261 -5723
v -4565 38.5451 -5725
v -4565 39.3364 -5727
v -4565 40.0614 -5729
v -4565 40.6747 -5731
v -4565 41.1243 -5733
v -4565 41.4823 -5735
v -4565 41.9456 -5737
f 3 2 1
f 1 2 7
f 2 6 7
f 7 6 5
f 5 6 11
f 4 2 3
f 4 6 2
f 9 4 3
f 6 12 11
f 8 12 6
f 8 6 4
f 9 8 4
f 10 12 8
f 10 8 9
f 90 87 88
f 87 90 93
f 93 90 91
f 91 90 89
f 32 35 33
f 110 114 111
f 31 32 33
f 110 111 107
f 114 110 113
f 32 31 30
f 32 30 106
f 88 87 86
f 35 103 37
f 37 34 35
f 35 34 33
f 113 110 112
f 110 108 112
f 110 107 108
f 119 111 114
f 120 119 114
f 120 114 113
f 111 117 107
f 118 117 111
f 119 118 111
f 119 122 118
f 122 119 123
f 120 123 119
f 115 120 113
f 115 113 112
f 131 127 133
f 34 53 33
f 53 52 33
f 33 52 31
f 131 133 130
f 131 130 129
f 118 122 117
f 107 117 109
f 109 108 107
f 121 120 115
f 123 120 121
f 52 51 31
f 31 51 30
f 30 49 106
f 106 49 29
f 105 106 29
f 123 124 122
f 123 121 125
f 125 124 123
f 109 117 116
f 128 127 126
f 117 122 116
f 51 50 30
f 30 50 49
f 132 127 128
f 133 127 132
f 116 122 124
f 37 36 34
f 36 54 34
f 53 34 54
f 50 48 49
f 49 48 29
f 74 73 72
f 74 71 73
f 69 73 71
f 71 70 69
f 103 38 37
f 38 36 37
f 71 68 70
f 66 70 68
f 55 54 36
f 39 55 36
f 39 36 38
f 72 76 74
f 28 105 29
f 29 27 28
f 48 47 29
f 29 47 27
f 103 15 13
f 38 103 13
f 77 76 75
f 77 74 76
f 68 67 66
f 99 98 97
f 99 101 98
f 55 39 56
f 13 39 38
f 68 65 67
f 98 95 96
f 98 101 95
f 13 56 39
f 63 67 65
f 27 47 26
f 47 46 26
f 75 79 77
f 95 101 100
f 80 77 79
f 26 28 27
f 28 26 25
f 105 28 25
f 96 95 94
f 65 64 63
f 65 60 64
f 13 57 56
f 57 102 56
f 46 45 26
f 80 79 78
f 83 80 82
f 84 82 80
f 85 84 80
f 78 85 80
f 58 64 60
f 60 59 58
f 60 61 59
f 14 40 13
f 15 14 13
f 40 57 13
f 62 59 61
f 83 82 81
f 104 105 25
f 40 102 57
f 25 21 22
f 26 21 25
f 22 104 25
f 26 45 21
f 21 45 44
f 41 40 18
f 18 40 14
f 43 42 19
f 21 44 23
f 14 15 18
f 42 41 16
f 16 41 18
f 19 42 16
f 104 22 24
f 22 23 24
f 23 22 21
f 87 93 92
f 18 15 17
f 18 17 16
f 20 19 16
f 17 134 20
f 16 17 20
f 156 154 155
f 155 152 156
f 156 152 151
f 178 177 152
f 152 179 178
f 181 179 152
f 152 150 151
f 179 181 180
f 181 153 180
f 155 154 153
f 151 150 149
f 157 182 153
f 180 153 182
f 153 158 157
f 153 154 158
f 177 176 145
f 176 177 178
f 150 145 149
f 183 182 157
f 159 183 157
f 157 160 159
f 158 160 157
f 149 145 146
f 176 175 145
f 147 146 145
f 145 175 147
f 146 147 148
f 159 184 183
f 161 159 160
f 161 185 159
f 159 185 184
f 175 174 147
f 173 148 147
f 147 174 173
f 162 161 160
f 193 148 173
f 185 161 186
f 174 172 173
f 136 188 187
f 136 161 162
f 171 193 173
f 173 172 171
f 136 162 135
f 193 171 192
f 190 188 136
f 170 171 172
f 169 192 171
f 170 169 171
f 190 136 189
f 137 136 135
f 138 136 137
f 170 168 169
f 192 169 191
f 144 141 143
f 169 168 167
f 139 163 138
f 164 163 139
f 168 166 167
f 140 138 137
f 140 139 138
f 142 139 140
f 139 142 141
f 167 166 165
f 143 141 142
f 244 214 216
f 244 242 214
f 242 212 214
f 214 217 216
f 217 214 215
f 212 215 214
f 219 216 218
f 219 244 216
f 218 216 217
f 242 241 212
f 241 210 212
f 215 212 213
f 210 213 212
f 213 210 211
f 220 245 219
f 219 221 220
f 221 219 218
f 245 244 219
f 246 243 244
f 246 244 245
f 244 243 242
f 266 265 243
f 246 266 243
f 243 265 242
f 242 264 241
f 265 264 242
f 247 246 245
f 247 245 220
f 268 246 248
f 248 246 247
f 268 267 246
f 267 266 246
f 241 264 240
f 241 240 210
f 210 240 209
f 211 210 208
f 208 210 209
f 223 247 220
f 223 220 222
f 222 220 221
f 265 284 264
f 266 284 265
f 285 284 266
f 286 285 266
f 286 266 267
f 250 248 247
f 250 247 249
f 249 247 223
f 264 284 283
f 269 248 250
f 269 268 248
f 283 263 264
f 264 263 240
f 268 286 267
f 209 240 239
f 239 240 262
f 240 263 262
f 283 282 263
f 287 286 268
f 282 262 263
f 288 268 269
f 288 287 268
f 209 207 208
f 281 262 282
f 239 205 209
f 209 205 207
f 238 205 239
f 262 238 239
f 225 223 222
f 224 249 223
f 223 225 224
f 270 269 250
f 270 250 252
f 252 250 249
f 251 249 224
f 252 249 251
f 281 278 262
f 262 261 238
f 262 278 261
f 270 288 269
f 289 288 270
f 279 261 278
f 237 238 261
f 261 279 280
f 237 261 280
f 271 289 270
f 271 270 252
f 271 294 289
f 238 237 205
f 207 205 206
f 206 205 204
f 205 237 204
f 271 252 254
f 254 252 251
f 254 251 253
f 253 251 226
f 226 251 224
f 277 276 260
f 225 226 224
f 227 226 225
f 260 276 259
f 260 259 235
f 236 260 235
f 292 294 290
f 290 294 271
f 290 271 295
f 295 271 254
f 292 290 291
f 273 291 256
f 291 290 272
f 256 291 272
f 272 290 295
f 276 275 258
f 276 258 259
f 274 273 256
f 236 235 202
f 272 295 255
f 256 272 255
f 234 235 259
f 234 259 258
f 256 255 231
f 233 256 231
f 257 256 233
f 257 274 256
f 274 258 275
f 258 274 257
f 233 258 257
f 233 234 258
f 295 254 253
f 255 295 293
f 293 295 296
f 296 295 253
f 203 202 200
f 202 235 201
f 200 202 201
f 230 231 255
f 230 255 293
f 296 253 226
f 293 296 228
f 228 296 297
f 296 226 297
f 235 234 201
f 298 297 227
f 227 297 226
f 228 230 293
f 229 297 298
f 233 231 232
f 232 231 230
f 196 230 228
f 232 230 196
f 228 297 229
f 197 228 229
f 234 233 232
f 234 232 198
f 201 234 198
f 198 232 194
f 232 196 194
f 228 197 196
f 195 196 197
f 201 198 200
f 200 198 199
f 196 195 194
f 199 194 195
f 194 199 198
f 361 346 362
f 346 361 344
f 360 344 361
f 344 360 343
f 359 343 360
f 343 359 342
f 358 342 359
f 362 345 363
f 345 362 346
f 342 318 343
f 319 343 318
f 344 343 319
f 322 344 319
f 346 344 322
f 341 316 342
f 318 342 316
f 342 358 341
f 358 357 341
f 363 347 364
f 347 363 345
f 346 322 324
f 346 324 345
f 318 320 319
f 322 319 321
f 321 319 320
f 320 318 317
f 318 316 317
f 323 322 321
f 317 316 315
f 313 316 341
f 316 313 315
f 341 357 340
f 341 340 313
f 324 322 323
f 326 324 323
f 315 313 314
f 324 325 345
f 326 325 324
f 345 325 347
f 313 340 311
f 311 314 313
f 356 340 357
f 327 325 326
f 311 312 314
f 364 348 365
f 348 364 347
f 340 356 338
f 338 311 340
f 329 328 327
f 328 325 327
f 328 347 325
f 348 347 328
f 311 338 310
f 310 312 311
f 331 328 329
f 309 312 310
f 330 348 328
f 328 331 330
f 338 356 339
f 339 310 338
f 349 348 330
f 349 365 348
f 299 330 331
f 308 309 310
f 309 308 307
f 339 356 355
f 310 339 308
f 365 349 366
f 303 306 305
f 306 303 304
f 349 330 332
f 330 299 332
f 305 336 303
f 336 305 337
f 301 300 299
f 332 299 300
f 302 304 303
f 304 302 301
f 337 354 336
f 334 368 349
f 368 366 349
f 349 332 334
f 302 300 301
f 300 334 332
f 303 335 302
f 336 335 303
f 336 354 353
f 353 335 336
f 334 300 333
f 302 333 300
f 333 302 335
f 333 351 334
f 334 351 350
f 350 367 334
f 367 368 334
f 353 352 335
f 351 335 352
f 335 351 333
f 391 390 389
f 391 392 390
f 387 386 385
f 388 386 387
f 399 398 397
f 400 398 399
f 395 394 393
f 396 394 395
f 407 406 405
f 408 406 407
f 404 402 403
f 403 402 401
f 411 410 409
f 412 410 411
f 415 414 413
f 416 414 415
f 419 418 417
f 420 418 419
f 424 422 423
f 423 422 421
f 379 378 377
f 380 378 379
f 383 382 381
f 383 384 382
f 371 370 369
f 372 370 371
f 375 374 373
f 376 374 375
f 483 482 481
f 484 482 483
f 487 486 485
f 479 478 477
f 495 494 493
f 491 492 490
f 480 478 479
f 475 474 473
f 476 474 475
f 488 486 487
f 496 494 495
f 491 490 489
f 511 510 509
f 512 510 511
f 507 506 505
f 508 506 507
f 503 502 501
f 504 502 503
f 500 498 499
f 499 498 497
f 520 518 519
f 515 514 513
f 519 518 517
f 515 516 514
f 531 530 529
f 532 530 531
f 536 534 535
f 523 522 521
f 524 522 523
f 527 526 525
f 535 534 533
f 528 526 527
f 539 540 538
f 543 542 541
f 539 538 537
f 544 542 543
f 552 550 551
f 551 550 549
f 547 546 545
f 548 546 547
f 435 434 433
f 439 438 437
f 440 438 439
f 559 558 557
f 560 558 559
f 555 554 553
f 451 450 449
f 452 450 451
f 456 454 455
f 568 566 567
f 563 562 561
f 443 442 441
f 443 444 442
f 556 554 555
f 447 446 445
f 448 446 447
f 427 426 425
f 428 426 427
f 432 430 431
f 463 462 461
f 567 566 565
f 563 564 562
f 455 454 453
f 471 470 469
f 472 470 471
f 436 434 435
f 431 430 429
f 467 466 465
f 467 468 466
f 464 462 463
f 459 458 457
f 460 458 459
f 652 653 662
f 654 653 652
f 656 655 653
f 661 653 654
f 680 679 678
f 680 678 685
f 675 676 686
f 677 676 675
f 659 658 657
f 659 660 658
f 683 682 681
f 684 682 683
f 663 664 674
f 665 664 663
f 668 667 666
f 673 664 665
f 671 670 669
f 671 672 670
f 687 688 697
f 696 688 689
f 691 690 688
f 689 688 687
f 694 693 692
f 694 695 693
f 708 699 700
f 706 705 704
f 703 702 701
f 706 707 705
f 698 699 709
f 700 699 698
f 715 714 713
f 715 713 720
f 718 717 716
f 719 717 718
f 710 711 721
f 712 711 710
f 745 746 756
f 747 746 745
f 750 749 748
f 750 748 755
f 733 734 744
f 735 734 733
f 738 737 736
f 743 734 735
f 753 752 751
f 754 752 753
f 741 742 740
f 741 740 739
f 722 723 732
f 724 723 722
f 729 730 728
f 729 728 727
f 731 723 724
f 726 725 723
f 764 763 762
f 761 760 758
f 766 758 759
f 764 765 763
f 759 758 757
f 757 758 767
f 776 775 774
f 773 772 771
f 778 769 770
f 776 777 775
f 770 769 768
f 768 769 779
f 785 784 783
f 785 783 790
f 788 787 786
f 789 787 788
f 782 781 780
f 780 781 791
f 640 641 651
f 642 641 640
f 648 649 647
f 648 647 646
f 650 641 642
f 606 607 615
f 608 607 606
f 613 612 611
f 614 612 613
f 581 572 580
f 577 578 576
f 571 570 569
f 645 644 643
f 610 609 607
f 610 607 608
f 577 576 575
f 579 570 571
f 574 573 572
f 594 585 593
f 590 591 589
f 584 583 582
f 590 589 588
f 592 583 584
f 587 586 585
f 628 629 639
f 630 629 628
f 636 637 635
f 636 635 634
f 638 629 630
f 633 632 631
f 595 596 605
f 597 596 595
f 602 603 601
f 602 601 600
f 599 598 596
f 604 596 597
f 624 623 622
f 625 623 624
f 616 617 627
f 618 617 616
f 621 619 626
f 621 620 619
f 798 797 796
f 794 793 792
f 795 793 794
f 799 797 798
f 854 853 852
f 846 845 844
f 845 846 847
f 855 853 854
f 850 849 848
f 849 850 851
f 830 829 828
f 842 841 840
f 843 841 842
f 838 837 836
f 839 837 838
f 834 833 832
f 835 833 834
f 831 829 830
f 810 809 808
f 811 809 810
f 806 805 804
f 805 806 807
f 814 813 812
f 815 813 814
f 826 825 824
f 827 825 826
f 818 817 816
f 802 801 800
f 803 801 802
f 822 821 820
f 817 818 819
f 821 822 823
f 889 857 856
f 856 888 889
f 921 889 888
f 888 920 921
f 953 921 920
f 920 952 953
f 985 953 952
f 952 984 985
f 1017 985 984
f 984 1016 1017
f 1049 1017 1016
f 1016 1048 1049
f 1081 1049 1048
f 1048 1080 1081
f 1113 1081 1080
f 1080 1112 1113
f 1145 1113 1112
f 1112 1144 1145
f 1177 1145 1144
f 1144 1176 1177
f 1209 1177 1176
f 1176 1208 1209
f 1241 1209 1208
f 1208 1240 1241
f 1273 1241 1240
f 1240 1272 1273
f 1305 1273 1272
f 1272 1304 1305
f 1337 1305 1304
f 1304 1336 1337
f 1369 1337 1336
f 1336 1368 1369
f 1401 1369 1368
f 1368 1400 1401
f 1433 1401 1400
f 1400 1432 1433
f 1465 1433 1432
f 1432 1464 1465
f 1497 1465 1464
f 1464 1496 1497
f 1529 1497 1496
f 1496 1528 1529
f 1561 1529 1528
f 1528 1560 1561
f 1593 1561 1560
f 1560 1592 1593
f 1625 1593 1592
f 1592 1624 1625
f 1657 1625 1624
f 1624 1656 1657
f 1689 1657 1656
f 1656 1688 1689
f 1721 1689 1688
f 1688 1720 1721
f 1753 1721 1720
f 1720 1752 1753
f 1785 1753 1752
f 1752 1784 1785
f 1817 1785 1784
f 1784 1816 1817
f 1849 1817 1816
f 1816 1848 1849
f 890 858 857
f 857 889 890
f 922 890 889
f 889 921 922
f 954 922 921
f 921 953 954
f 986 954 953
f 953 985 986
f 1018 986 985
f 985 1017 1018
f 1050 1018 1017
f 1017 1049 1050
f 1082 1050 1049
f 1049 1081 1082
f 1114 1082 1081
f 1081 1113 1114
f 1146 1114 1113
f 1113 1145 1146
f 1178 1146 1145
f 1145 1177 1178
f 1210 1178 1177
f 1177 1209 1210
f 1242 1210 1209
f 1209 1241 1242
f 1274 1242 1241
f 1241 1273 1274
f 1306 1274 1273
f 1273 1305 1306
f 1338 1306 1305
f 1305 1337 1338
f 1370 1338 1337
f 1337 1369 1370
f 1402 1370 1369
f 1369 1401 1402
f 1434 1402 1401
f 1401 1433 1434
f 1466 1434 1433
f 1433 1465 1466
f 1498 1466 1465
f 1465 1497 1498
f 1530 1498 1497
f 1497 1529 1530
f 1562 1530 1529
f 1529 1561 1562
f 1594 1562 1561
f 1561 1593 1594
f 1626 1594 1593
f 1593 1625 1626
f 1658 1626 1625
f 1625 1657 1658
f 1690 1658 1657
f 1657 1689 1690
f 1722 1690 1689
f 1689 1721 1722
f 1754 1722 1721
f 1721 1753 1754
f 1786 1754 1753
f 1753 1785 1786
f 1818 1786 1785
f 1785 1817 1818
f 1850 1818 1817
f 1817 1849 1850
f 891 859 858
f 858 890 891
f 923 891 890
f 890 922 923
f 955 923 922
f 922 954 955
f 987 955 954
f 954 986 987
f 1019 987 986
f 986 1018 1019
f 1051 1019 1018
f 1018 1050 1051
f 1083 1051 1050
f 1050 1082 1083
f 1115 1083 1082
f 1082 1114 1115
f 1147 1115 1114
f 1114 1146 1147
f 1179 1147 1146
f 1146 1178 1179
f 1211 1179 1178
f 1178 1210 1211
f 1243 1211 1210
f 1210 1242 1243
f 1275 1243 1242
f 1242 1274 1275
f 1307 1275 1274
f 1274 1306 1307
f 1339 1307 1306
f 1306 1338 1339
f 1371 1339 1338
f 1338 1370 1371
f 1403 1371 1370
f 1370 1402 1403
f 1435 1403 1402
f 1402 1434 1435
f 1467 1435 1434
f 1434 1466 1467
f 1499 1467 1466
f 1466 1498 1499
f 1531 1499 1498
f 1498 1530 1531
f 1563 1531 1530
f 1530 1562 1563
f 1595 1563 1562
f 1562 1594 1595
f 1627 1595 1594
f 1594 1626 1627
f 1659 1627 1626
f 1626 1658 1659
f 1691 1659 1658
f 1658 1690 1691
f 1723 1691 1690
f 1690 1722 1723
f 1755 1723 1722
f 1722 1754 1755
f 1787 1755 1754
f 1754 1786 1787
f 1819 1787 1786
f 1786 1818 1819
f 1851 1819 1818
f 1818 1850 1851
f 892 860 859
f 859 891 892
f 924 892 891
f 891 923 924
f 956 924 923
f 923 955 956
f 988 956 955
f 955 987 988
f 1020 988 987
f 987 1019 1020
f 1052 1020 1019
f 1019 1051 1052
f 1084 1052 1051
f 1051 1083 1084
f 1116 1084 1083
f 1083 1115 1116
f 1148 1116 1115
f 1115 1147 1148
f 1180 1148 1147
f 1147 1179 1180
f 1212 1180 1179
f 1179 1211 1212
f 1244 1212 1211
f 1211 1243 1244
f 1276 1244 1243
f 1243 1275 1276
f 1308 1276 1275
f 1275 1307 1308
f 1340 1308 1307
f 1307 1339 1340
f 1372 1340 1339
f 1339 1371 1372
f 1404 1372 1371
f 1371 1403 1404
f 1436 1404 1403
f 1403 1435 1436
f 1468 1436 1435
f 1435 1467 1468
f 1500 1468 1467
f 1467 1499 1500
f 1532 1500 1499
f 1499 1531 1532
f 1564 1532 1531
f 1531 1563 1564
f 1596 1564 1563
f 1563 1595 1596
f 1628 1596 1595
f 1595 1627 1628
f 1660 1628 1627
f 1627 1659 1660
f 1692 1660 1659
f 1659 1691 1692
f 1724 1692 1691
f 1691 1723 1724
f 1756 1724 1723
f 1723 1755 1756
f 1788 1756 1755
f 1755 1787 1788
f 1820 1788 1787
f 1787 1819 1820
f 1852 1820 1819
f 1819 1851 1852
f 893 861 860
f 860 892 893
f 925 893 892
f 892 924 925
f 957 925 924
f 924 956 957
f 989 957 956
f 956 988 989
f 1021 989 988
f 988 1020 1021
f 1053 1021 1020
f 1020 1052 1053
f 1085 1053 1052
f 1052 1084 1085
f 1117 1085 1084
f 1084 1116 1117
f 1149 1117 1116
f 1116 1148 1149
f 1181 1149 1148
f 1148 1180 1181
f 1213 1181 1180
f 1180 1212 1213
f 1245 1213 1212
f 1212 1244 1245
f 1277 1245 1244
f 1244 1276 1277
f 1309 1277 1276
f 1276 1308 1309
f 1341 1309 1308
f 1308 1340 1341
f 1373 1341 1340
f 1340 1372 1373
f 1405 1373 1372
f 1372 1404 1405
f 1437 1405 1404
f 1404 1436 1437
f 1469 1437 1436
f 1436 1468 1469
f 1501 1469 1468
f 1468 1500 1501
f 1533 1501 1500
f 1500 1532 1533
f 1565 1533 1532
f 1532 1564 1565
f 1597 1565 1564
f 1564 1596 1597
f 1629 1597 1596
f 1596 1628 1629
f 1661 1629 1628
f 1628 1660 1661
f 1693 1661 1660
f 1660 1692 1693
f 1725 1693 1692
f 1692 1724 1725
f 1757 1725 1724
f 1724 1756 1757
f 1789 1757 1756
f 1756 1788 1789
f 1821 1789 1788
f 1788 1820 1821
f 1853 1821 1820
f 1820 1852 1853
f 894 862 861
f 861 893 894
f 926 894 893
f 893 925 926
f 958 926 925
f 925 957 958
f 990 958 957
f 957 989 990
f 1022 990 989
f 989 1021 1022
f 1054 1022 1021
f 1021 1053 1054
f 1086 1054 1053
f 1053 1085 1086
f 1118 1086 1085
f 1085 1117 1118
f 1150 1118 1117
f 1117 1149 1150
f 1182 1150 1149
f 1149 1181 1182
f 1214 1182 1181
f 1181 1213 1214
f 1246 1214 1213
f 1213 1245 1246
f 1278 1246 1245
f 1245 1277 1278
f 1310 1278 1277
f 1277 1309 1310
f 1342 1310 1309
f 1309 1341 1342
f 1374 1342 1341
f 1341 1373 1374
f 1406 1374 1373
f 1373 1405 1406
f 1438 1406 1405
f 1405 1437 1438
f 1470 1438 1437
f 1437 1469 1470
f 1502 1470 1469
f 1469 1501 1502
f 1534 1502 1501
f 1501 1533 1534
f 1566 1534 1533
f 1533 1565 1566
f 1598 1566 1565
f 1565 1597 1598
f 1630 1598 1597
f 1597 1629 1630
f 1662 1630 1629
f 1629 1661 1662
f 1694 1662 1661
f 1661 1693 1694
f 1726 1694 1693
f 1693 1725 1726
f 1758 1726 1725
f 1725 1757 1758
f 1790 1758 1757
f 1757 1789 1790
f 1822 1790 1789
f 1789 1821 1822
f 1854 1822 1821
f 1821 1853 1854
f 895 863 862
f 862 894 895
f 927 895 894
f 894 926 927
f 959 927 926
f 926 958 959
f 991 959 958
f 958 990 991
f 1023 991 990
f 990 1022 1023
f 1055 1023 1022
f 1022 1054 1055
f 1087 1055 1054
f 1054 1086 1087
f 1119 1087 1086
f 1086 1118 1119
f 1151 1119 1118
f 1118 1150 1151
f 1183 1151 1150
f 1150 1182 1183
f 1215 1183 1182
f 1182 1214 1215
f 1247 1215 1214
f 1214 1246 1247
f 1279 1247 1246
f 1246 1278 1279
f 1311 1279 1278
f 1278 1310 1311
f 1343 1311 1310
f 1310 1342 1343
f 1375 1343 1342
f 1342 1374 1375
f 1407 1375 1374
f 1374 1406 1407
f 1439 1407 1406
f 1406 1438 1439
f 1471 1439 1438
f 1438 1470 1471
f 1503 1471 1470
f 1470 1502 1503
f 1535 1503 1502
f 1502 1534 1535
f 1567 1535 1534
f 1534 1566 1567
f 1599 1567 1566
f 1566 1598 1599
f 1631 1599 1598
f 1598 1630 1631
f 1663 1631 1630
f 1630 1662 1663
f 1695 1663 1662
f 1662 1694 1695
f 1727 1695 1694
f 1694 1726 1727
f 1759 1727 1726
f 1726 1758 1759
f 1791 1759 1758
f 1758 1790 1791
f 1823 1791 1790
f 1790 1822 1823
f 1855 1823 1822
f 1822 1854 1855
f 896 864 863
f 863 895 896
f 928 896 895
f 895 927 928
f 960 928 927
f 927 959 960
f 992 960 959
f 959 991 992
f 1024 992 991
f 991 1023 1024
f 1056 1024 1023
f 1023 1055 1056
f 1088 1056 1055
f 1055 1087 1088
f 1120 1088 1087
f 1087 1119 1120
f 1152 1120 1119
f 1119 1151 1152
f 1184 1152 1151
f 1151 1183 1184
f 1216 1184 1183
f 1183 1215 1216
f 1248 1216 1215
f 1215 1247 1248
f 1280 1248 1247
f 1247 1279 1280
f 1312 1280 1279
f 1279 1311 1312
f 1344 1312 1311
f 1311 1343 1344
f 1376 1344 1343
f 1343 1375 1376
f 1408 1376 1375
f 1375 1407 1408
f 1440 1408 1407
f 1407 1439 1440
f 1472 1440 1439
f 1439 1471 1472
f 1504 1472 1471
f 1471 1503 1504
f 1536 1504 1503
f 1503 1535 1536
f 1568 1536 1535
f 1535 1567 1568
f 1600 1568 1567
f 1567 1599 1600
f 1632 1600 1599
f 1599 1631 1632
f 1664 1632 1631
f 1631 1663 1664
f 1696 1664 1663
f 1663 1695 1696
f 1728 1696 1695
f 1695 1727 1728
f 1760 1728 1727
f 1727 1759 1760
f 1792 1760 1759
f 1759 1791 1792
f 1824 1792 1791
f 1791 1823 1824
f 1856 1824 1823
f 1823 1855 1856
f 897 865 864
f 864 896 897
f 929 897 896
f 896 928 929
f 961 929 928
f 928 960 961
f 993 961 960
f 960 992 993
f 1025 993 992
f 992 1024 1025
f 1057 1025 1024
f 1024 1056 1057
f 1089 1057 1056
f 1056 1088 1089
f 1121 1089 1088
f 1088 1120 1121
f 1153 1121 1120
f 1120 1152 1153
f 1185 1153 1152
f 1152 1184 1185
f 1217 1185 1184
f 1184 1216 1217
f 1249 1217 1216
f 1216 1248 1249
f 1281 1249 1248
f 1248 1280 1281
f 1313 1281 1280
f 1280 1312 1313
f 1345 1313 1312
f 1312 1344 1345
f 1377 1345 1344
f 1344 1376 1377
f 1409 1377 1376
f 1376 1408 1409
f 1441 1409 1408
f 1408 1440 1441
f 1473 1441 1440
f 1440 1472 1473
f 1505 1473 1472
f 1472 1504 1505
f 1537 1505 1504
f 1504 1536 1537
f 1569 1537 1536
f 1536 1568 1569
f 1601 1569 1568
f 1568 1600 1601
f 1633 1601 1600
f 1600 1632 1633
f 1665 1633 1632
f 1632 1664 1665
f 1697 1665 1664
f 1664 1696 1697
f 1729 1697 1696
f 1696 1728 1729
f 1761 1729 1728
f 1728 1760 1761
f 1793 1761 1760
f 1760 1792 1793
f 1825 1793 1792
f 1792 1824 1825
f 1857 1825 1824
f 1824 1856 1857
f 898 866 865
f 865 897 898
f 930 898 897
f 897 929 930
f 962 930 929
f 929 961 962
f 994 962 961
f 961 993 994
f 1026 994 993
f 993 1025 1026
f 1058 1026 1025
f 1025 1057 1058
f 1090 1058 1057
f 1057 1089 1090
f 1122 1090 1089
f 1089 1121 1122
f 1154 1122 1121
f 1121 1153 1154
f 1186 1154 1153
f 1153 1185 1186
f 1218 1186 1185
f 1185 1217 1218
f 1250 1218 1217
f 1217 1249 1250
f 1282 1250 1249
f 1249 1281 1282
f 1314 1282 1281
f 1281 1313 1314
f 1346 1314 1313
f 1313 1345 1346
f 1378 1346 1345
f 1345 1377 1378
f 1410 1378 1377
f 1377 1409 1410
f 1442 1410 1409
f 1409 1441 1442
f 1474 1442 1441
f 1441 1473 1474
f 1506 1474 1473
f 1473 1505 1506
f 1538 1506 1505
f 1505 1537 1538
f 1570 1538 1537
f 1537 1569 1570
f 1602 1570 1569
f 1569 1601 1602
f 1634 1602 1601
f 1601 1633 1634
f 1666 1634 1633
f 1633 1665 1666
f 1698 1666 1665
f 1665 1697 1698
f 1730 1698 1697
f 1697 1729 1730
f 1762 1730 1729
f 1729 1761 1762
f 1794 1762 1761
f 1761 1793 1794
f 1826 1794 1793
f 1793 1825 1826
f 1858 1826 1825
f 1825 1857 1858
f 899 867 866
f 866 898 899
f 931 899 898
f 898 930 931
f 963 931 930
f 930 962 963
f 995 963 962
f 962 994 995
f 1027 995 994
f 994 1026 1027
f 1059 1027 1026
f 1026 1058 1059
f 1091 1059 1058
f 1058 1090 1091
f 1123 1091 1090
f 1090 1122 1123
f 1155 1123 1122
f 1122 1154 1155
f 1187 1155 1154
f 1154 1186 1187
f 1219 1187 1186
f 1186 1218 1219
f 1251 1219 1218
f 1218 1250 1251
f 1283 1251 1250
f 1250 1282 1283
f 1315 1283 1282
f 1282 1314 1315
f 1347 1315 1314
f 1314 1346 1347
f 1379 1347 1346
f 1346 1378 1379
f 1411 1379 1378
f 1378 1410 1411
f 1443 1411 1410
f 1410 1442 1443
f 1475 1443 1442
f 1442 1474 1475
f 1507 1475 1474
f 1474 1506 1507
f 1539 1507 1506
f 1506 1538 1539
f 1571 1539 1538
f 1538 1570 1571
f 1603 1571 1570
f 1570 1602 1603
f 1635 1603 1602
f 1602 1634 1635
f 1667 1635 1634
f 1634 1666 1667
f 1699 1667 1666
f 1666 1698 1699
f 1731 1699 1698
f 1698 1730 1731
f 1763 1731 1730
f 1730 1762 1763
f 1795 1763 1762
f 1762 1794 1795
f 1827 1795 1794
f 1794 1826 1827
f 1859 1827 1826
f 1826 1858 1859
f 900 868 867
f 867 899 900
f 932 900 899
f 899 931 932
f 964 932 931
f 931 963 964
f 996 964 963
f 963 995 996
f 1028 996 995
f 995 1027 1028
f 1060 1028 1027
f 1027 1059 1060
f 1092 1060 1059
f 1059 1091 1092
f 1124 1092 1091
f 1091 1123 1124
f 1156 1124 1123
f 1123 1155 1156
f 1188 1156 1155
f 1155 1187 1188
f 1220 1188 1187
f 1187 1219 1220
f 1252 1220 1219
f 1219 1251 1252
f 1284 1252 1251
f 1251 1283 1284
f 1316 1284 1283
f 1283 1315 1316
f 1348 1316 1315
f 1315 1347 1348
f 1380 1348 1347
f 1347 1379 1380
f 1412 1380 1379
f 1379 1411 1412
f 1444 1412 1411
f 1411 1443 1444
f 1476 1444 1443
f 1443 1475 1476
f 1508 1476 1475
f 1475 1507 1508
f 1540 1508 1507
f 1507 1539 1540
f 1572 1540 1539
f 1539 1571 1572
f 1604 1572 1571
f 1571 1603 1604
f 1636 1604 1603
f 1603 1635 1636
f 1668 1636 1635
f 1635 1667 1668
f 1700 1668 1667
f 1667 1699 1700
f 1732 1700 1699
f 1699 1731 1732
f 1764 1732 1731
f 1731 1763 1764
f 1796 1764 1763
f 1763 1795 1796
f 1828 1796 1795
f 1795 1827 1828
f 1860 1828 1827
f 1827 1859 1860
f 901 869 868
f 868 900 901
f 933 901 900
f 900 932 933
f 965 933 932
f 932 964 965
f 997 965 964
f 964 996 997
f 1029 997 996
f 996 1028 1029
f 1061 1029 1028
f 1028 1060 1061
f 1093 1061 1060
f 1060 1092 1093
f 1125 1093 1092
f 1092 1124 1125
f 1157 1125 1124
f 1124 1156 1157
f 1189 1157 1156
f 1156 1188 1189
f 1221 1189 1188
f 1188 1220 1221
f 1253 1221 1220
f 1220 1252 1253
f 1285 1253 1252
f 1252 1284 1285
f 1317 1285 1284
f 1284 1316 1317
f 1349 1317 1316
f 1316 1348 1349
f 1381 1349 1348
f 1348 1380 1381
f 1413 1381 1380
f 1380 1412 1413
f 1445 1413 1412
f 1412 1444 1445
f 1477 1445 1444
f 1444 1476 1477
f 1509 1477 1476
f 1476 1508 1509
f 1541 1509 1508
f 1508 1540 1541
f 1573 1541 1540
f 1540 1572 1573
f 1605 1573 1572
f 1572 1604 1605
f 1637 1605 1604
f 1604 1636 1637
f 1669 1637 1636
f 1636 1668 1669
f 1701 1669 1668
f 1668 1700 1701
f 1733 1701 1700
f 1700 1732 1733
f 1765 1733 1732
f 1732 1764 1765
f 1797 1765 1764
f 1764 1796 1797
f 1829 1797 1796
f 1796 1828 1829
f 1861 1829 1828
f 1828 1860 1861
f 902 870 869
f 869 901 902
f 934 902 901
f 901 933 934
f 966 934 933
f 933 965 966
f 998 966 965
f 965 997 998
f 1030 998 997
f 997 1029 1030
f 1062 1030 1029
f 1029 1061 1062
f 1094 1062 1061
f 1061 1093 1094
f 1126 1094 1093
f 1093 1125 1126
f 1158 1126 1125
f 1125 1157 1158
f 1190 1158 1157
f 1157 1189 1190
f 1222 1190 1189
f 1189 1221 1222
f 1254 1222 1221
f 1221 1253 1254
f 1286 1254 1253
f 1253 1285 1286
f 1318 1286 1285
f 1285 1317 1318
f 1350 1318 1317
f 1317 1349 1350
f 1382 1350 1349
f 1349 1381 1382
f 1414 1382 1381
f 1381 1413 1414
f 1446 1414 1413
f 1413 1445 1446
f 1478 1446 1445
f 1445 1477 1478
f 1510 1478 1477
f 1477 1509 1510
f 1542 1510 1509
f 1509 1541 1542
f 1574 1542 1541
f 1541 1573 1574
f 1606 1574 1573
f 1573 1605 1606
f 1638 1606 1605
f 1605 1637 1638
f 1670 1638 1637
f 1637 1669 1670
f 1702 1670 1669
f 1669 1701 1702
f 1734 1702 1701
f 1701 1733 1734
f 1766 1734 1733
f 1733 1765 1766
f 1798 1766 1765
f 1765 1797 1798
f 1830 1798 1797
f 1797 1829 1830
f 1862 1830 1829
f 1829 1861 1862
f 903 871 870
f 870 902 903
f 935 903 902
f 902 934 935
f 967 935 934
f 934 966 967
f 999 967 966
f 966 998 999
f 1031 999 998
f 998 1030 1031
f 1063 1031 1030
f 1030 1062 1063
f 1095 1063 1062
f 1062 1094 1095
f 1127 1095 1094
f 1094 1126 1127
f 1159 1127 1126
f 1126 1158 1159
f 1191 1159 1158
f 1158 1190 1191
f 1223 1191 1190
f 1190 1222 1223
f 1255 1223 1222
f 1222 1254 1255
f 1287 1255 1254
f 1254 1286 1287
f 1319 1287 1286
f 1286 1318 1319
f 1351 1319 1318
f 1318 1350 1351
f 1383 1351 1350
f 1350 1382 1383
f 1415 1383 1382
f 1382 1414 1415
f 1447 1415 1414
f 1414 1446 1447
f 1479 1447 1446
f 1446 1478 1479
f 1511 1479 1478
f 1478 1510 1511
f 1543 1511 1510
f 1510 1542 1543
f 1575 1543 1542
f 1542 1574 1575
f 1607 1575 1574
f 1574 1606 1607
f 1639 1607 1606
f 1606 1638 1639
f 1671 1639 1638
f 1638 1670 1671
f 1703 1671 1670
f 1670 1702 1703
f 1735 1703 1702
f 1702 1734 1735
f 1767 1735 1734
f 1734 1766 1767
f 1799 1767 1766
f 1766 1798 1799
f 1831 1799 1798
f 1798 1830 1831
f 1863 1831 1830
f 1830 1862 1863
f 904 872 871
f 871 903 904
f 936 904 903
f 903 935 936
f 968 936 935
f 935 967 968
f 1000 968 967
f 967 999 1000
f 1032 1000 999
f 999 1031 1032
f 1064 1032 1031
f 1031 1063 1064
f 1096 1064 1063
f 1063 1095 1096
f 1128 1096 1095
f 1095 1127 1128
f 1160 1128 1127
f 1127 1159 1160
f 1192 1160 1159
f 1159 1191 1192
f 1224 1192 1191
f 1191 1223 1224
f 1256 1224 1223
f 1223 1255 1256
f 1288 1256 1255
f 1255 1287 1288
f 1320 1288 1287
f 1287 1319 1320
f 1352 1320 1319
f 1319 1351 1352
f 1384 1352 1351
f 1351 1383 1384
f 1416 1384 1383
f 1383 1415 1416
f 1448 1416 1415
f 1415 1447 1448
f 1480 1448 1447
f 1447 1479 1480
f 1512 1480 1479
f 1479 1511 1512
f 1544 1512 1511
f 1511 1543 1544
f 1576 1544 1543
f 1543 1575 1576
f 1608 1576 1575
f 1575 1607 1608
f 1640 1608 1607
f 1607 1639 1640
f 1672 1640 1639
f 1639 1671 1672
f 1704 1672 1671
f 1671 1703 1704
f 1736 1704 1703
f 1703 1735 1736
f 1768 1736 1735
f 1735 1767 1768
f 1800 1768 1767
f 1767 1799 1800
f 1832 1800 1799
f 1799 1831 1832
f 1864 1832 1831
f 1831 1863 1864
f 905 873 872
f 872 904 905
f 937 905 904
f 904 936 937
f 969 937 936
f 936 968 969
f 1001 969 968
f 968 1000 1001
f 1033 1001 1000
f 1000 1032 1033
f 1065 1033 1032
f 1032 1064 1065
f 1097 1065 1064
f 1064 1096 1097
f 1129 1097 1096
f 1096 1128 1129
f 1161 1129 1128
f 1128 1160 1161
f 1193 1161 1160
f 1160 1192 1193
f 1225 1193 1192
f 1192 1224 1225
f 1257 1225 1224
f 1224 1256 1257
f 1289 1257 1256
f 1256 1288 1289
f 1321 1289 1288
f 1288 1320 1321
f 1353 1321 1320
f 1320 1352 1353
f 1385 1353 1352
f 1352 1384 1385
f 1417 1385 1384
f 1384 1416 1417
f 1449 1417 1416
f 1416 1448 1449
f 1481 1449 1448
f 1448 1480 1481
f 1513 1481 1480
f 1480 1512 1513
f 1545 1513 1512
f 1512 1544 1545
f 1577 1545 1544
f 1544 1576 1577
f 1609 1577 1576
f 1576 1608 1609
f 1641 1609 1608
f 1608 1640 1641
f 1673 1641 1640
f 1640 1672 1673
f 1705 1673 1672
f 1672 1704 1705
f 1737 1705 1704
f 1704 1736 1737
f 1769 1737 1736
f 1736 1768 1769
f 1801 1769 1768
f 1768 1800 1801
f 1833 1801 1800
f 1800 1832 1833
f 1865 1833 1832
f 1832 1864 1865
f 906 874 873
f 873 905 906
f 938 906 905
f 905 937 938
f 970 938 937
f 937 969 970
f 1002 970 969
f 969 1001 1002
f 1034 1002 1001
f 1001 1033 1034
f 1066 1034 1033
f 1033 1065 1066
f 1098 1066 1065
f 1065 1097 1098
f 1130 1098 1097
f 1097 1129 1130
f 1162 1130 1129
f 1129 1161 1162
f 1194 1162 1161
f 1161 1193 1194
f 1226 1194 1193
f 1193 1225 1226
f 1258 1226 1225
f 1225 1257 1258
f 1290 1258 1257
f 1257 1289 1290
f 1322 1290 1289
f 1289 1321 1322
f 1354 1322 1321
f 1321 1353 1354
f 1386 1354 1353
f 1353 1385 1386
f 1418 1386 1385
f 1385 1417 1418
f 1450 1418 1417
f 1417 1449 1450
f 1482 1450 1449
f 1449 1481 1482
f 1514 1482 1481
f 1481 1513 1514
f 1546 1514 1513
f 1513 1545 1546
f 1578 1546 1545
f 1545 1577 1578
f 1610 1578 1577
f 1577 1609 1610
f 1642 1610 1609
f 1609 1641 1642
f 1674 1642 1641
f 1641 1673 1674
f 1706 1674 1673
f 1673 1705 1706
f 1738 1706 1705
f 1705 1737 1738
f 1770 1738 1737
f 1737 1769 1770
f 1802 1770 1769
f 1769 1801 1802
f 1834 1802 1801
f 1801 1833 1834
f 1866 1834 1833
f 1833 1865 1866
f 907 875 874
f 874 906 907
f 939 907 906
f 906 938 939
f 971 939 938
f 938 970 971
f 1003 971 970
f 970 1002 1003
f 1035 1003 1002
f 1002 1034 1035
f 1067 1035 1034
f 1034 1066 1067
f 1099 1067 1066
f 1066 1098 1099
f 1131 1099 1098
f 1098 1130 1131
f 1163 1131 1130
f 1130 1162 1163
f 1195 1163 1162
f 1162 1194 1195
f 1227 1195 1194
f 1194 1226 1227
f 1259 1227 1226
f 1226 1258 1259
f 1291 1259 1258
f 1258 1290 1291
f 1323 1291 1290
f 1290 1322 1323
f 1355 1323 1322
f 1322 1354 1355
f 1387 1355 1354
f 1354 1386 1387
f 1419 1387 1386
f 1386 1418 1419
f 1451 1419 1418
f 1418 1450 1451
f 1483 1451 1450
f 1450 1482 1483
f 1515 1483 1482
f 1482 1514 1515
f 1547 1515 1514
f 1514 1546 1547
f 1579 1547 1546
f 1546 1578 1579
f 1611 1579 1578
f 1578 1610 1611
f 1643 1611 1610
f 1610 1642 1643
f 1675 1643 1642
f 1642 1674 1675
f 1707 1675 1674
f 1674 1706 1707
f 1739 1707 1706
f 1706 1738 1739
f 1771 1739 1738
f 1738 1770 1771
f 1803 1771 1770
f 1770 1802 1803
f 1835 1803 1802
f 1802 1834 1835
f 1867 1835 1834
f 1834 1866 1867
f 908 876 875
f 875 907 908
f 940 908 907
f 907 939 940
f 972 940 939
f 939 971 972
f 1004 972 971
f 971 1003 1004
f 1036 1004 1003
f 1003 1035 1036
f 1068 1036 1035
f 1035 1067 1068
f 1100 1068 1067
f 1067 1099 1100
f 1132 1100 1099
f 1099 1131 1132
f 1164 1132 1131
f 1131 1163 1164
f 1196 1164 1163
f 1163 1195 1196
f 1228 1196 1195
f 1195 1227 1228
f 1260 1228 1227
f 1227 1259 1260
f 1292 1260 1259
f 1259 1291 1292
f 1324 1292 1291
f 1291 1323 1324
f 1356 1324 1323
f 1323 1355 1356
f 1388 1356 1355
f 1355 1387 1388
f 1420 1388 1387
f 1387 1419 1420
f 1452 1420 1419
f 1419 1451 1452
f 1484 1452 1451
f 1451 1483 1484
f 1516 1484 1483
f 1483 1515 1516
f 1548 1516 1515
f 1515 1547 1548
f 1580 1548 1547
f 1547 1579 1580
f 1612 1580 1579
f 1579 1611 1612
f 1644 1612 1611
f 1611 1643 1644
f 1676 1644 1643
f 1643 1675 1676
f 1708 1676 1675
f 1675 1707 1708
f 1740 1708 1707
f 1707 1739 1740
f 1772 1740 1739
f 1739 1771 1772
f 1804 1772 1771
f 1771 1803 1804
f 1836 1804 1803
f 1803 1835 1836
f 1868 1836 1835
f 1835 1867 1868
f 909 877 876
f 876 908 909
f 941 909 908
f 908 940 941
f 973 941 940
f 940 972 973
f 1005 973 972
f 972 1004 1005
f 1037 1005 1004
f 1004 1036 1037
f 1069 1037 1036
f 1036 1068 1069
f 1101 1069 1068
f 1068 1100 1101
f 1133 1101 1100
f 1100 1132 1133
f 1165 1133 1132
f 1132 1164 1165
f 1197 1165 1164
f 1164 1196 1197
f 1229 1197 1196
f 1196 1228 1229
f 1261 1229 1228
f 1228 1260 1261
f 1293 1261 1260
f 1260 1292 1293
f 1325 1293 1292
f 1292 1324 1325
f 1357 1325 1324
f 1324 1356 1357
f 1389 1357 1356
f 1356 1388 1389
f 1421 1389 1388
f 1388 1420 1421
f 1453 1421 1420
f 1420 1452 1453
f 1485 1453 1452
f 1452 1484 1485
f 1517 1485 1484
f 1484 1516 1517
f 1549 1517 1516
f 1516 1548 1549
f 1581 1549 1548
f 1548 1580 1581
f 1613 1581 1580
f 1580 1612 1613
f 1645 1613 1612
f 1612 1644 1645
f 1677 1645 1644
f 1644 1676 1677
f 1709 1677 1676
f 1676 1708 1709
f 1741 1709 1708
f 1708 1740 1741
f 1773 1741 1740
f 1740 1772 1773
f 1805 1773 1772
f 1772 1804 1805
f 1837 1805 1804
f 1804 1836 1837
f 1869 1837 1836
f 1836 1868 1869
f 910 878 877
f 877 909 910
f 942 910 909
f 909 941 942
f 974 942 941
f 941 973 974
f 1006 974 973
f 973 1005 1006
f 1038 1006 1005
f 1005 1037 1038
f 1070 1038 1037
f 1037 1069 1070
f 1102 1070 1069
f 1069 1101 1102
f 1134 1102 1101
f 1101 1133 1134
f 1166 1134 1133
f 1133 1165 1166
f 1198 1166 1165
f 1165 1197 1198
f 1230 1198 1197
f 1197 1229 1230
f 1262 1230 1229
f 1229 1261 1262
f 1294 1262 1261
f 1261 1293 1294
f 1326 1294 1293
f 1293 1325 1326
f 1358 1326 1325
f 1325 1357 1358
f 1390 1358 1357
f 1357 1389 1390
f 1422 1390 1389
f 1389 1421 1422
f 1454 1422 1421
f 1421 1453 1454
f 1486 1454 1453
f 1453 1485 1486
f 1518 1486 1485
f 1485 1517 1518
f 1550 1518 1517
f 1517 1549 1550
f 1582 1550 1549
f 1549 1581 1582
f 1614 1582 1581
f 1581 1613 1614
f 1646 1614 1613
f 1613 1645 1646
f 1678 1646 1645
f 1645 1677 1678
f 1710 1678 1677
f 1677 1709 1710
f 1742 1710 1709
f 1709 1741 1742
f 1774 1742 1741
f 1741 1773 1774
f 1806 1774 1773
f 1773 1805 1806
f 1838 1806 1805
f 1805 1837 1838
f 1870 1838 1837
f 1837 1869 1870
f 911 879 878
f 878 910 911
f 943 911 910
f 910 942 943
f 975 943 942
f 942 974 975
f 1007 975 974
f 974 1006 1007
f 1039 1007 1006
f 1006 1038 1039
f 1071 1039 1038
f 1038 1070 1071
f 1103 1071 1070
f 1070 1102 1103
f 1135 1103 1102
f 1102 1134 1135
f 1167 1135 1134
f 1134 1166 1167
f 1199 1167 1166
f 1166 1198 1199
f 1231 1199 1198
f 1198 1230 1231
f 1263 1231 1230
f 1230 1262 1263
f 1295 1263 1262
f 1262 1294 1295
f 1327 1295 1294
f 1294 1326 1327
f 1359 1327 1326
f 1326 1358 1359
f 1391 1359 1358
f 1358 1390 1391
f 1423 1391 1390
f 1390 1422 1423
f 1455 1423 1422
f 1422 1454 1455
f 1487 1455 1454
f 1454 1486 1487
f 1519 1487 1486
f 1486 1518 1519
f 1551 1519 1518
f 1518 1550 1551
f 1583 1551 1550
f 1550 1582 1583
f 1615 1583 1582
f 1582 1614 1615
f 1647 1615 1614
f 1614 1646 1647
f 1679 1647 1646
f 1646 1678 1679
f 1711 1679 1678
f 1678 1710 1711
f 1743 1711 1710
f 1710 1742 1743
f 1775 1743 1742
f 1742 1774 1775
f 1807 1775 1774
f 1774 1806 1807
f 1839 1807 1806
f 1806 1838 1839
f 1871 1839 1838
f 1838 1870 1871
f 912 880 879
f 879 911 912
f 944 912 911
f 911 943 944
f 976 944 943
f 943 975 976
f 1008 976 975
f 975 1007 1008
f 1040 1008 1007
f 1007 1039 1040
f 1072 1040 1039
f 1039 1071 1072
f 1104 1072 1071
f 1071 1103 1104
f 1136 1104 1103
f 1103 1135 1136
f 1168 1136 1135
f 1135 1167 1168
f 1200 1168 1167
f 1167 1199 1200
f 1232 1200 1199
f 1199 1231 1232
f 1264 1232 1231
f 1231 1263 1264
f 1296 1264 1263
f 1263 1295 1296
f 1328 1296 1295
f 1295 1327 1328
f 1360 1328 1327
f 1327 1359 1360
f 1392 1360 1359
f 1359 1391 1392
f 1424 1392 1391
f 1391 1423 1424
f 1456 1424 1423
f 1423 1455 1456
f 1488 1456 1455
f 1455 1487 1488
f 1520 1488 1487
f 1487 1519 1520
f 1552 1520 1519
f 1519 1551 1552
f 1584 1552 1551
f 1551 1583 1584
f 1616 1584 1583
f 1583 1615 1616
f 1648 1616 1615
f 1615 1647 1648
f 1680 1648 1647
f 1647 1679 1680
f 1712 1680 1679
f 1679 1711 1712
f 1744 1712 1711
f 1711 1743 1744
f 1776 1744 1743
f 1743 1775 1776
f 1808 1776 1775
f 1775 1807 1808
f 1840 1808 1807
f 1807 1839 1840
f 1872 1840 1839
f 1839 1871 1872
f 913 881 880
f 880 912 913
f 945 913 912
f 912 944 945
f 977 945 944
f 944 976 977
f 1009 977 976
f 976 1008 1009
f 1041 1009 1008
f 1008 1040 1041
f 1073 1041 1040
f 1040 1072 1073
f 1105 1073 1072
f 1072 1104 1105
f 1137 1105 1104
f 1104 1136 1137
f 1169 1137 1136
f 1136 1168 1169
f 1201 1169 1168
f 1168 1200 1201
f 1233 1201 1200
f 1200 1232 1233
f 1265 1233 1232
f 1232 1264 1265
f 1297 1265 1264
f 1264 1296 1297
f 1329 1297 1296
f 1296 1328 1329
f 1361 1329 1328
f 1328 1360 1361
f 1393 1361 1360
f 1360 1392 1393
f 1425 1393 1392
f 1392 1424 1425
f 1457 1425 1424
f 1424 1456 1457
f 1489 1457 1456
f 1456 1488 1489
f 1521 1489 1488
f 1488 1520 1521
f 1553 1521 1520
f 1520 1552 1553
f 1585 1553 1552
f 1552 1584 1585
f 1617 1585 1584
f 1584 1616 1617
f 1649 1617 1616
f 1616 1648 1649
f 1681 1649 1648
f 1648 1680 1681
f 1713 1681 1680
f 1680 1712 1713
f 1745 1713 1712
f 1712 1744 1745
f 1777 1745 1744
f 1744 1776 1777
f 1809 1777 1776
f 1776 1808 1809
f 1841 1809 1808
f 1808 1840 1841
f 1873 1841 1840
f 1840 1872 1873
f 914 882 881
f 881 913 914
f 946 914 913
f 913 945 946
f 978 946 945
f 945 977 978
f 1010 978 977
f 977 1009 1010
f 1042 1010 1009
f 1009 1041 1042
f 1074 1042 1041
f 1041 1073 1074
f 1106 1074 1073
f 1073 1105 1106
f 1138 1106 1105
f 1105 1137 1138
f 1170 1138 1137
f 1137 1169 1170
f 1202 1170 1169
f 1169 1201 1202
f 1234 1202 1201
f 1201 1233 1234
f 1266 1234 1233
f 1233 1265 1266
f 1298 1266 1265
f 1265 1297 1298
f 1330 1298 1297
f 1297 1329 1330
f 1362 1330 1329
f 1329 1361 1362
f 1394 1362 1361
f 1361 1393 1394
f 1426 1394 1393
f 1393 1425 1426
f 1458 1426 1425
f 1425 1457 1458
f 1490 1458 1457
f 1457 1489 1490
f 1522 1490 1489
f 1489 1521 1522
f 1554 1522 1521
f 1521 1553 1554
f 1586 1554 1553
f 1553 1585 1586
f 1618 1586 1585
f 1585 1617 1618
f 1650 1618 1617
f 1617 1649 1650
f 1682 1650 1649
f 1649 1681 1682
f 1714 1682 1681
f 1681 1713 1714
f 1746 1714 1713
f 1713 1745 1746
f 1778 1746 1745
f 1745 1777 1778
f 1810 1778 1777
f 1777 1809 1810
f 1842 1810 1809
f 1809 1841 1842
f 1874 1842 1841
f 1841 1873 1874
f 915 883 882
f 882 914 915
f 947 915 914
f 914 946 947
f 979 947 946
f 946 978 979
f 1011 979 978
f 978 1010 1011
f 1043 1011 1010
f 1010 1042 1043
f 1075 1043 1042
f 1042 1074 1075
f 1107 1075 1074
f 1074 1106 1107
f 1139 1107 1106
f 1106 1138 1139
f 1171 1139 1138
f 1138 1170 1171
f 1203 1171 1170
f 1170 1202 1203
f 1235 1203 1202
f 1202 1234 1235
f 1267 1235 1234
f 1234 1266 1267
f 1299 1267 1266
f 1266 1298 1299
f 1331 1299 1298
f 1298 1330 1331
f 1363 1331 1330
f 1330 1362 1363
f 1395 1363 1362
f 1362 1394 1395
f 1427 1395 1394
f 1394 1426 1427
f 1459 1427 1426
f 1426 1458 1459
f 1491 1459 1458
f 1458 1490 1491
f 1523 1491 1490
f 1490 1522 1523
f 1555 1523 1522
f 1522 1554 1555
f 1587 1555 1554
f 1554 1586 1587
f 1619 1587 1586
f 1586 1618 1619
f 1651 1619 1618
f 1618 1650 1651
f 1683 1651 1650
f 1650 1682 1683
f 1715 1683 1682
f 1682 1714 1715
f 1747 1715 1714
f 1714 1746 1747
f 1779 1747 1746
f 1746 1778 1779
f 1811 1779 1778
f 1778 1810 1811
f 1843 1811 1810
f 1810 1842 1843
f 1875 1843 1842
f 1842 1874 1875
f 916 884 883
f 883 915 916
f 948 916 915
f 915 947 948
f 980 948 947
f 947 979 980
f 1012 980 979
f 979 1011 1012
f 1044 1012 1011
f 1011 1043 1044
f 1076 1044 1043
f 1043 1075 1076
f 1108 1076 1075
f 1075 1107 1108
f 1140 1108 1107
f 1107 1139 1140
f 1172 1140 1139
f 1139 1171 1172
f 1204 1172 1171
f 1171 1203 1204
f 1236 1204 1203
f 1203 1235 1236
f 1268 1236 1235
f 1235 1267 1268
f 1300 1268 1267
f 1267 1299 1300
f 1332 1300 1299
f 1299 1331 1332
f 1364 1332 1331
f 1331 1363 1364
f 1396 1364 1363
f 1363 1395 1396
f 1428 1396 1395
f 1395 1427 1428
f 1460 1428 1427
f 1427 1459 1460
f 1492 1460 1459
f 1459 1491 1492
f 1524 1492 1491
f 1491 1523 1524
f 1556 1524 1523
f 1523 1555 1556
f 1588 1556 1555
f 1555 1587 1588
f 1620 1588 1587
f 1587 1619 1620
f 1652 1620 1619
f 1619 1651 1652
f 1684 1652 1651
f 1651 1683 1684
f 1716 1684 1683
f 1683 1715 1716
f 1748 1716 1715
f 1715 1747 1748
f 1780 1748 1747
f 1747 1779 1780
f 1812 1780 1779
f 1779 1811 1812
f 1844 1812 1811
f 1811 1843 1844
f 1876 1844 1843
f 1843 1875 1876
f 917 885 884
f 884 916 917
f 949 917 916
f 916 948 949
f 981 949 948
f 948 980 981
f 1013 981 980
f 980 1012 1013
f 1045 1013 1012
f 1012 1044 1045
f 1077 1045 1044
f 1044 1076 1077
f 1109 1077 1076
f 1076 1108 1109
f 1141 1109 1108
f 1108 1140 1141
f 1173 1141 1140
f 1140 1172 1173
f 1205 1173 1172
f 1172 1204 1205
f 1237 1205 1204
f 1204 1236 1237
f 1269 1237 1236
f 1236 1268 1269
f 1301 1269 1268
f 1268 1300 1301
f 1333 1301 1300
f 1300 1332 1333
f 1365 1333 1332
f 1332 1364 1365
f 1397 1365 1364
f 1364 1396 1397
f 1429 1397 1396
f 1396 1428 1429
f 1461 1429 1428
f 1428 1460 1461
f 1493 1461 1460
f 1460 1492 1493
f 1525 1493 1492
f 1492 1524 1525
f 1557 1525 1524
f 1524 1556 1557
f 1589 1557 1556
f 1556 1588 1589
f 1621 1589 1588
f 1588 1620 1621
f 1653 1621 1620
f 1620 1652 1653
f 1685 1653 1652
f 1652 1684 1685
f 1717 1685 1684
f 1684 1716 1717
f 1749 1717 1716
f 1716 1748 1749
f 1781 1749 1748
f 1748 1780 1781
f 1813 1781 1780
f 1780 1812 1813
f 1845 1813 1812
f 1812 1844 1845
f 1877 1845 1844
f 1844 1876 1877
f 918 886 885
f 885 917 918
f 950 918 917
f 917 949 950
f 982 950 949
f 949 981 982
f 1014 982 981
f 981 1013 1014
f 1046 1014 1013
f 1013 1045 1046
f 1078 1046 1045
f 1045 1077 1078
f 1110 1078 1077
f 1077 1109 1110
f 1142 1110 1109
f 1109 1141 1142
f 1174 1142 1141
f 1141 1173 1174
f 1206 1174 1173
f 1173 1205 1206
f 1238 1206 1205
f 1205 1237 1238
f 1270 1238 1237
f 1237 1269 1270
f 1302 1270 1269
f 1269 1301 1302
f 1334 1302 1301
f 1301 1333 1334
f 1366 1334 1333
f 1333 1365 1366
f 1398 1366 1365
f 1365 1397 1398
f 1430 1398 1397
f 1397 1429 1430
f 1462 1430 1429
f 1429 1461 1462
f 1494 1462 1461
f 1461 1493 1494
f 1526 1494 1493
f 1493 1525 1526
f 1558 1526 1525
f 1525 1557 1558
f 1590 1558 1557
f 1557 1589 1590
f 1622 1590 1589
f 1589 1621 1622
f 1654 1622 1621
f 1621 1653 1654
f 1686 1654 1653
f 1653 1685 1686
f 1718 1686 1685
f 1685 1717 1718
f 1750 1718 1717
f 1717 1749 1750
f 1782 1750 1749
f 1749 1781 1782
f 1814 1782 1781
f 1781 1813 1814
f 1846 1814 1813
f 1813 1845 1846
f 1878 1846 1845
f 1845 1877 1878
f 919 887 886
f 886 918 919
f 951 919 918
f 918 950 951
f 983 951 950
f 950 982 983
f 1015 983 982
f 982 1014 1015
f 1047 1015 1014
f 1014 1046 1047
f 1079 1047 1046
f 1046 1078 1079
f 1111 1079 1078
f 1078 1110 1111
f 1143 1111 1110
f 1110 1142 1143
f 1175 1143 1142
f 1142 1174 1175
f 1207 1175 1174
f 1174 1206 1207
f 1239 1207 1206
f 1206 1238 1239
f 1271 1239 1238
f 1238 1270 1271
f 1303 1271 1270
f 1270 1302 1303
f 1335 1303 1302
f 1302 1334 1335
f 1367 1335 1334
f 1334 1366 1367
f 1399 1367 1366
f 1366 1398 1399
f 1431 1399 1398
f 1398 1430 1431
f 1463 1431 1430
f 1430 1462 1463
f 1495 1463 1462
f 1462 1494 1495
f 1527 1495 1494
f 1494 1526 1527
f 1559 1527 1526
f 1526 1558 1559
f 1591 1559 1558
f 1558 1590 1591
f 1623 1591 1590
f 1590 1622 1623
f 1655 1623 1622
f 1622 1654 1655
f 1687 1655 1654
f 1654 1686 1687
f 1719 1687 1686
f 1686 1718 1719
f 1751 1719 1718
f 1718 1750 1751
f 1783 1751 1750
f 1750 1782 1783
f 1815 1783 1782
f 1782 1814 1815
f 1847 1815 1814
f 1814 1846 1847
f 1879 1847 1846
f 1846 1878 1879
