v -5511.21 22.9642 -1056.37
v -5512.08 22.5547 -1057.18
v -5512.14 20.8007 -1057.75
v -5511.28 20.5797 -1057.15
v -5512.14 20.8007 -1057.75
v -5512.88 20.3299 -1056.23
v -5513.78 20.0677 -1055.34
v -5514.89 19.8934 -1054.7
v -5516.13 19.8189 -1054.36
v -5517.42 19.8493 -1054.33
v -5518.54 19.9676 -1054.59
v -5518.78 19.6793 -1053.68
v -5517.54 19.547 -1053.39
v -5515.99 19.5106 -1053.43
v -5514.5 19.6 -1053.84
v -5513.17 19.8092 -1054.61
v -5512.09 20.1239 -1055.68
v -5511.28 20.5797 -1057.15
v -5518.54 19.9676 -1054.59
v -5517.34 22.6641 -1053.41
v -5515.99 24.45 -1052.85
v -5515.59 24.958 -1052.8
v -5515.28 25.0834 -1051.77
v -5515.84 24.3859 -1051.84
v -5517.45 22.4278 -1052.45
v -5518.78 19.6793 -1053.68
v -5512.75 24.6644 -1054.82
v -5512.08 22.5547 -1057.18
v -5511.21 22.9642 -1056.37
v -5511.94 24.8107 -1054.15
v -5513.01 24.9505 -1052.93
v -5514.33 25.0585 -1052.06
v -5515.28 25.0834 -1051.77
v -5515.59 24.958 -1052.8
v -5514.73 24.9422 -1053.06
v -5512.75 24.6644 -1054.82
v -5514.73 24.9422 -1053.06
v -5513.63 24.8772 -1053.78
v -5518.54 19.9676 -1054.59
v -5517.42 19.8493 -1054.33
v -5517.34 22.6641 -1053.41
v -5516.13 19.8189 -1054.36
v -5515.99 24.45 -1052.85
v -5514.89 19.8934 -1054.7
v -5514.73 24.9422 -1053.06
v -5515.59 24.958 -1052.8
v -5513.78 20.0677 -1055.34
v -5513.63 24.8772 -1053.78
v -5513.63 24.8772 -1053.78
v -5512.88 20.3299 -1056.23
v -5512.75 24.6644 -1054.82
v -5512.14 20.8007 -1057.75
v -5512.08 22.5547 -1057.18
v -5508.64 19.0617 -1070.58
v -5508.62 20.3553 -1069.4
v -5508.58 20.3463 -1069.39
v -5507.6 20.1251 -1069.35
v -5507.6 20.0944 -1069.38
v -5507.61 19.0953 -1070.29
v -5507.64 20.5936 -1069.31
v -5507.62 20.3686 -1069.33
v -5507.6 20.1251 -1069.35
v -5508.58 20.3463 -1069.39
v -5508.63 20.3991 -1069.39
v -5508.62 20.3553 -1069.4
v -5509.83 22.765 -1071.87
v -5509.01 23.2064 -1072.33
v -5508.63 23.0314 -1071.87
v -5507.99 22.3948 -1070.54
v -5507.9 22.1121 -1070.09
v -5508.85 21.7895 -1070.02
v -5508.91 21.9861 -1070.34
v -5509.46 22.5807 -1071.44
v -5510.32 23.5208 -1072.31
v -5510.56 23.75 -1072.44
v -5509.87 24.3035 -1073.04
v -5509.66 24.1248 -1072.92
v -5511.84 26.8686 -1073.68
v -5512.23 26.0785 -1072.92
v -5512.79 26.59 -1073.05
v -5513.26 26.9242 -1073.04
v -5513.08 27.8076 -1073.87
v -5512.6 27.5066 -1073.86
v -5511.24 28.4146 -1073.12
v -5511.12 29.6624 -1072.73
v -5511.64 28.665 -1072.1
v -5511.7 27.9097 -1072.33
v -5511.78 27.0371 -1072.54
v -5511.29 27.9146 -1073.24
v -5514.23 28.5204 -1072.87
v -5515.59 29.4101 -1072.53
v -5515.87 29.4823 -1072.4
v -5514.23 28.5204 -1072.87
v -5515.87 29.4823 -1072.4
v -5516.1 30.0159 -1073.3
v -5515.89 29.9716 -1073.4
v -5514.27 29.0332 -1073.79
v -5512.23 26.0785 -1072.92
v -5511.84 26.8686 -1073.68
v -5510.41 28.2903 -1072.51
v -5511.04 27.4066 -1071.94
v -5511.64 28.665 -1072.1
v -5511.12 29.6624 -1072.73
v -5507.61 19.0953 -1070.29
v -5507.73 19.2237 -1071.09
v -5508.34 19.4196 -1072.5
v -5509.29 19.5528 -1073.71
v -5510.53 19.6143 -1074.65
v -5511.96 19.5998 -1075.24
v -5513.5 19.5103 -1075.44
v -5515.03 19.3519 -1075.24
v -5515.13 19.3361 -1075.2
v -5514.86 19.1938 -1074.26
v -5514.76 19.2096 -1074.3
v -5513.49 19.3415 -1074.46
v -5512.21 19.4161 -1074.29
v -5511.01 19.4282 -1073.8
v -5509.98 19.377 -1073.02
v -5509.19 19.266 -1072.01
v -5508.68 19.1028 -1070.84
v -5508.64 19.0617 -1070.58
v -5508.64 19.0617 -1070.58
v -5508.68 19.1028 -1070.84
v -5508.91 21.9861 -1070.34
v -5508.85 21.7895 -1070.02
v -5508.63 20.3991 -1069.39
v -5508.62 20.3553 -1069.4
v -5509.19 19.266 -1072.01
v -5509.46 22.5807 -1071.44
v -5509.83 22.765 -1071.87
v -5509.98 19.377 -1073.02
v -5510.32 23.5208 -1072.31
v -5511.64 28.665 -1072.1
v -5511.04 27.4066 -1071.94
v -5510.56 23.75 -1072.44
v -5511.01 19.4282 -1073.8
v -5511.7 27.9097 -1072.33
v -5512.23 26.0785 -1072.92
v -5511.78 27.0371 -1072.54
v -5512.21 19.4161 -1074.29
v -5512.79 26.59 -1073.05
v -5513.49 19.3415 -1074.46
v -5514.23 28.5204 -1072.87
v -5513.26 26.9242 -1073.04
v -5515.59 29.4101 -1072.53
v -5514.23 28.5204 -1072.87
v -5514.76 19.2096 -1074.3
v -5515.34 22.4996 -1073.59
v -5516.26 22.8966 -1073.14
v -5516.33 23.7787 -1072.99
v -5515.87 29.4823 -1072.4
v -5515.59 29.4101 -1072.53
v -5514.86 19.1938 -1074.26
v -5514.86 19.1938 -1074.26
v -5515.13 19.3361 -1075.2
v -5515.61 22.6419 -1074.54
v -5515.34 22.4996 -1073.59
v -5515.87 29.4823 -1072.4
v -5516.33 23.7787 -1072.99
v -5516.39 22.951 -1073.04
v -5516.66 23.0991 -1074.02
v -5516.1 30.0159 -1073.3
v -5516.39 22.951 -1073.04
v -5516.33 23.7787 -1072.99
v -5516.26 22.8966 -1073.14
v -5516.66 23.0991 -1074.02
v -5516.26 22.8966 -1073.14
v -5521.15 39.3629 -1063.13
v -5521.32 39.3242 -1063.07
v -5521.24 39.4866 -1062.59
v -5520.15 39.5958 -1062.52
v -5520.27 39.3075 -1063.28
v -5529.43 48.0655 -1062.12
v -5528.91 47.384 -1061.6
v -5529.03 46.874 -1062.47
v -5530.07 48.2242 -1063.5
v -5530.01 48.8568 -1062.74
v -5522.7 43.13 -1060.77
v -5522.25 42.711 -1060.72
v -5520.81 41.085 -1061.13
v -5520.22 39.9986 -1062.17
v -5522.7 43.13 -1060.77
v -5520.22 39.9986 -1062.17
v -5520.15 39.5958 -1062.52
v -5521.24 39.4866 -1062.59
v -5521.3 39.8724 -1062.26
v -5521.3 39.8724 -1062.26
v -5521.93 40.979 -1061.55
v -5523.34 42.6368 -1061.44
v -5523.67 42.9602 -1061.5
v -5527.7 46.1284 -1062.15
v -5527.36 46.5913 -1061.29
v -5526.38 45.8313 -1060.84
v -5525.24 44.8677 -1060.47
v -5525.85 44.5337 -1061.35
v -5526.98 45.5374 -1061.78
v -5524.96 44.4338 -1062.15
v -5525.27 44.4985 -1061.76
v -5525.85 44.5337 -1061.35
v -5525.24 44.8677 -1060.47
v -5524.48 44.8253 -1061.01
v -5524.16 44.7551 -1061.43
v -5524.96 44.4338 -1062.15
v -5524.16 44.7551 -1061.43
v -5525.37 46.8064 -1069.33
v -5525.39 47.6725 -1068.21
v -5525.76 48.4381 -1066.91
v -5526.47 48.9677 -1065.64
v -5527.45 49.2252 -1064.47
v -5528.65 49.1929 -1063.48
v -5530.01 48.8568 -1062.74
v -5530.07 48.2242 -1063.5
v -5528.97 48.4886 -1064.1
v -5527.97 48.5154 -1064.92
v -5527.15 48.3009 -1065.9
v -5526.57 47.8598 -1066.96
v -5526.25 47.2219 -1068.04
v -5526.24 46.5299 -1068.93
v -5523.93 43.7698 -1065.32
v -5521.3 39.8724 -1062.26
v -5521.24 39.4866 -1062.59
v -5521.32 39.3242 -1063.07
v -5524.41 44.5057 -1065.69
v -5524.43 44.5095 -1065.91
v -5526.25 47.2219 -1068.04
v -5526.57 47.8598 -1066.96
v -5521.93 40.979 -1061.55
v -5526.24 46.5299 -1068.93
v -5524.66 44.4732 -1066.7
v -5524.71 44.4343 -1066.9
v -5523.34 42.6368 -1061.44
v -5527.15 48.3009 -1065.9
v -5524.96 44.4338 -1062.15
v -5523.67 42.9602 -1061.5
v -5527.97 48.5154 -1064.92
v -5525.27 44.4985 -1061.76
v -5525.85 44.5337 -1061.35
v -5528.97 48.4886 -1064.1
v -5526.98 45.5374 -1061.78
v -5530.07 48.2242 -1063.5
v -5529.03 46.874 -1062.47
v -5527.7 46.1284 -1062.15
v -5525.37 46.8064 -1069.33
v -5526.24 46.5299 -1068.93
v -5524.71 44.4343 -1066.9
v -5523.83 44.7013 -1067.29
v -5523.76 44.757 -1066.99
v -5523.83 44.7013 -1067.29
v -5524.71 44.4343 -1066.9
v -5524.66 44.4732 -1066.7
v -5523.49 44.7985 -1066.09
v -5523.76 44.757 -1066.99
v -5524.66 44.4732 -1066.7
v -5524.43 44.5095 -1065.91
v -5524.41 44.5057 -1065.69
v -5521.32 39.3242 -1063.07
v -5521.15 39.3629 -1063.13
v -5520.66 39.9715 -1063.64
v -5523.93 43.7698 -1065.32
v -5520.27 39.3075 -1063.28
v -5524.39 19.4164 -1058.47
v -5522.84 19.4164 -1058.67
v -5521.39 19.4164 -1059.27
v -5520.15 19.4164 -1060.22
v -5519.2 19.4164 -1061.47
v -5518.6 19.4164 -1062.91
v -5518.39 19.4164 -1064.47
v -5518.6 19.4164 -1066.02
v -5519.2 19.4164 -1067.47
v -5520.15 19.4164 -1068.71
v -5521.39 19.4164 -1069.66
v -5522.84 19.4164 -1070.26
v -5524.39 19.4164 -1070.47
v -5525.95 19.4164 -1070.26
v -5527.39 19.4164 -1069.66
v -5528.64 19.4164 -1068.71
v -5529.59 19.4164 -1067.47
v -5530.19 19.4164 -1066.02
v -5530.39 19.4164 -1064.47
v -5530.19 19.4164 -1062.91
v -5529.59 19.4164 -1061.47
v -5528.64 19.4164 -1060.22
v -5527.39 19.4164 -1059.27
v -5525.95 19.4164 -1058.67
v -5529.17 49.2818 -1063.19
v -5529.34 49.6326 -1064.47
v -5529.34 41.3946 -1064.47
v -5529.17 41.3946 -1063.19
v -5528.68 49.105 -1061.99
v -5529.17 49.2818 -1063.19
v -5528.68 41.3946 -1061.99
v -5528.13 49.0553 -1061.28
v -5527.89 41.3946 -1060.97
v -5527.89 49.4135 -1060.97
v -5526.87 50.7551 -1060.18
v -5526.87 41.3946 -1060.18
v -5525.67 41.3946 -1059.69
v -5525.67 52.8343 -1059.69
v -5525.81 52.8343 -1059.74
v -5525.96 51.8582 -1059.8
v -5524.39 52.8343 -1059.52
v -5524.39 41.3946 -1059.52
v -5523.43 49.5324 -1059.64
v -5524.26 50.8535 -1059.54
v -5524.38 52.8343 -1059.52
v -5524.39 52.8343 -1059.52
v -5524.39 41.3946 -1059.52
v -5523.11 41.3946 -1059.69
v -5523.11 48.5857 -1059.69
v -5521.92 41.3946 -1060.18
v -5521.92 47.0515 -1060.18
v -5522.58 47.1234 -1059.91
v -5520.89 41.3946 -1060.97
v -5520.89 44.68 -1060.97
v -5521.53 47.0761 -1060.48
v -5520.11 41.3946 -1061.99
v -5520.11 42.9285 -1061.99
v -5519.61 41.3946 -1063.19
v -5519.61 42.2536 -1063.19
v -5519.44 41.3946 -1064.47
v -5519.44 42.4481 -1064.47
v -5519.51 42.2347 -1063.97
v -5519.44 42.4481 -1064.47
v -5519.61 41.3946 -1065.75
v -5519.61 43.4883 -1065.75
v -5519.59 43.2134 -1065.58
v -5519.94 45.1633 -1066.53
v -5519.61 43.4883 -1065.75
v -5520.11 41.3946 -1066.94
v -5520.11 45.5298 -1066.94
v -5520.89 41.3946 -1067.96
v -5520.89 44.1983 -1067.96
v -5520.8 45.0853 -1067.84
v -5520.45 46.056 -1067.39
v -5521.92 41.3946 -1068.75
v -5521.92 48.615 -1068.75
v -5521.82 48.5056 -1068.67
v -5521.51 44.6791 -1068.44
v -5521.02 43.4231 -1068.06
v -5523.11 41.3946 -1069.25
v -5523.11 49.4593 -1069.25
v -5524.39 41.3946 -1069.41
v -5524.39 49.8986 -1069.41
v -5524.74 50.043 -1069.37
v -5525.67 41.3946 -1069.25
v -5525.67 52.2716 -1069.25
v -5525.6 51.3191 -1069.26
v -5525.7 52.6825 -1069.23
v -5526.87 41.3946 -1068.75
v -5526.87 51.8335 -1068.75
v -5526.87 51.8335 -1068.75
v -5527.89 41.3946 -1067.96
v -5527.89 50.8534 -1067.96
v -5527.89 50.8534 -1067.96
v -5528.68 41.3946 -1066.94
v -5528.68 51.6729 -1066.94
v -5528.07 51.885 -1067.73
v -5529.01 51.5306 -1066.14
v -5528.68 51.6729 -1066.94
v -5529.17 41.3946 -1065.75
v -5529.17 51.0614 -1065.75
v -5529.34 41.3946 -1064.47
v -5529.17 41.3946 -1065.75
v -5528.68 41.3946 -1066.94
v -5527.89 41.3946 -1067.96
v -5526.87 41.3946 -1068.75
v -5525.67 41.3946 -1069.25
v -5524.39 41.3946 -1069.41
v -5523.11 41.3946 -1069.25
v -5521.92 41.3946 -1068.75
v -5520.89 41.3946 -1067.96
v -5520.11 41.3946 -1066.94
v -5519.61 41.3946 -1065.75
v -5519.44 41.3946 -1064.47
v -5519.61 41.3946 -1063.19
v -5520.11 41.3946 -1061.99
v -5520.89 41.3946 -1060.97
v -5521.92 41.3946 -1060.18
v -5523.11 41.3946 -1059.69
v -5524.39 41.3946 -1059.52
v -5525.67 41.3946 -1059.69
v -5526.87 41.3946 -1060.18
v -5527.89 41.3946 -1060.97
v -5528.68 41.3946 -1061.99
v -5529.17 41.3946 -1063.19
v -5525.81 52.8343 -1059.74
v -5526.18 52.8343 -1058.83
v -5526.36 51.7711 -1058.91
v -5525.96 51.8582 -1059.8
v -5526.87 50.7551 -1060.18
v -5527.36 50.7064 -1059.32
v -5528.59 49.2331 -1060.27
v -5527.89 49.4135 -1060.97
v -5528.13 49.0553 -1061.28
v -5528.94 48.742 -1060.71
v -5529.17 51.0614 -1065.75
v -5530.13 50.8591 -1066
v -5529.93 51.4264 -1066.48
v -5529.01 51.5306 -1066.14
v -5529.34 49.6326 -1064.47
v -5530.33 49.3724 -1064.47
v -5529.17 49.2818 -1063.19
v -5530.13 49.0367 -1062.93
v -5528.68 49.105 -1061.99
v -5529.54 48.8024 -1061.5
v -5524.39 51.6716 -1058.53
v -5524.48 52.8343 -1058.54
v -5524.38 52.8343 -1059.52
v -5524.26 50.8535 -1059.54
v -5524.33 50.6704 -1058.53
v -5523.43 49.5324 -1059.64
v -5523.32 49.229 -1058.67
v -5523.11 48.5857 -1059.69
v -5522.58 47.1234 -1059.91
v -5522.28 46.5889 -1058.97
v -5522.85 47.9947 -1058.73
v -5522.28 46.5889 -1058.97
v -5522.58 47.1234 -1059.91
v -5521.92 47.0515 -1060.18
v -5521.53 47.0761 -1060.48
v -5521 46.5277 -1059.65
v -5521.42 46.5 -1059.32
v -5518.45 42.0213 -1064.47
v -5518.65 41.7867 -1062.93
v -5519.61 42.2536 -1063.19
v -5519.51 42.2347 -1063.97
v -5519.25 42.2485 -1061.5
v -5520.19 43.8269 -1060.27
v -5520.11 42.9285 -1061.99
v -5520.89 44.68 -1060.97
v -5521 46.5277 -1059.65
v -5521.53 47.0761 -1060.48
v -5519.44 42.4481 -1064.47
v -5519.59 43.2134 -1065.58
v -5518.96 43.8327 -1066.73
v -5518.65 43.138 -1066
v -5519.94 45.1633 -1066.53
v -5519.07 44.4503 -1067.02
v -5519.61 43.4883 -1065.75
v -5520.11 45.5298 -1066.94
v -5520.45 46.056 -1067.39
v -5519.72 45.4405 -1068.05
v -5519.25 44.7835 -1067.44
v -5519.72 45.4405 -1068.05
v -5520.45 46.056 -1067.39
v -5520.8 45.0853 -1067.84
v -5520.14 44.382 -1068.59
v -5520.89 44.1983 -1067.96
v -5521.02 43.4231 -1068.06
v -5520.42 42.5919 -1068.84
v -5520.19 43.8737 -1068.67
v -5520.42 42.5919 -1068.84
v -5521.02 43.4231 -1068.06
v -5521.51 44.6791 -1068.44
v -5521.01 43.9585 -1069.3
v -5521.42 48.1791 -1069.61
v -5521.82 48.5056 -1068.67
v -5521.92 48.615 -1068.75
v -5523.11 49.4593 -1069.25
v -5524.39 49.8986 -1069.41
v -5521.42 48.1791 -1069.61
v -5524.39 49.8986 -1069.41
v -5524.74 50.043 -1069.37
v -5524.74 50.043 -1069.37
v -5524.89 49.8132 -1070.34
v -5524.39 49.6055 -1070.41
v -5524.39 49.6055 -1070.41
v -5522.85 49.1568 -1070.2
v -5525.6 51.3191 -1069.26
v -5525.67 52.2716 -1069.25
v -5525.7 52.6825 -1069.23
v -5526.03 52.6679 -1070.16
v -5525.93 51.4189 -1070.2
v -5525.7 52.6825 -1069.23
v -5526.87 51.8335 -1068.75
v -5527.36 51.7538 -1069.61
v -5526.03 52.6679 -1070.16
v -5527.89 50.8534 -1067.96
v -5528.59 50.7198 -1068.67
v -5528.59 50.7198 -1068.67
v -5527.89 50.8534 -1067.96
v -5528.07 51.885 -1067.73
v -5528.82 51.8083 -1068.37
v -5528.07 51.885 -1067.73
v -5528.68 51.6729 -1066.94
v -5529.54 51.5838 -1067.44
v -5528.82 51.8083 -1068.37
v -5530.19 31.4164 -1062.91
v -5530.61 31.4141 -1062.8
v -5529.97 31.4141 -1061.25
v -5529.59 31.4164 -1061.47
v -5528.94 31.4141 -1059.92
v -5528.64 31.4164 -1060.22
v -5527.61 31.4141 -1058.89
v -5527.39 31.4164 -1059.27
v -5526.06 31.4141 -1058.25
v -5525.95 31.4164 -1058.67
v -5524.39 31.4141 -1058.03
v -5524.39 31.4164 -1058.47
v -5522.73 31.4141 -1058.25
v -5522.84 31.4164 -1058.67
v -5521.17 31.4141 -1058.89
v -5521.39 31.4164 -1059.27
v -5519.84 31.4141 -1059.92
v -5520.15 31.4164 -1060.22
v -5518.82 31.4141 -1061.25
v -5519.2 31.4164 -1061.47
v -5518.18 31.4141 -1062.8
v -5518.6 31.4164 -1062.91
v -5517.96 31.4141 -1064.47
v -5518.39 31.4164 -1064.47
v -5518.18 31.4141 -1066.13
v -5518.6 31.4164 -1066.02
v -5518.82 31.4141 -1067.68
v -5519.2 31.4164 -1067.47
v -5519.84 31.4141 -1069.02
v -5520.15 31.4164 -1068.71
v -5521.17 31.4141 -1070.04
v -5521.39 31.4164 -1069.66
v -5522.73 31.4141 -1070.68
v -5522.84 31.4164 -1070.26
v -5524.39 31.4141 -1070.9
v -5524.39 31.4164 -1070.47
v -5526.06 31.4141 -1070.68
v -5525.95 31.4164 -1070.26
v -5527.61 31.4141 -1070.04
v -5527.39 31.4164 -1069.66
v -5528.94 31.4141 -1069.02
v -5528.64 31.4164 -1068.71
v -5529.97 31.4141 -1067.68
v -5529.59 31.4164 -1067.47
v -5530.61 31.4141 -1066.13
v -5530.19 31.4164 -1066.02
v -5530.83 31.4141 -1064.47
v -5530.39 31.4164 -1064.47
v -5530.61 31.4141 -1062.8
v -5530.61 41.3969 -1062.8
v -5529.97 41.3969 -1061.25
v -5529.97 31.4141 -1061.25
v -5528.94 41.3969 -1059.92
v -5528.94 31.4141 -1059.92
v -5527.61 41.3969 -1058.89
v -5527.61 31.4141 -1058.89
v -5526.06 41.3969 -1058.25
v -5526.06 31.4141 -1058.25
v -5524.39 41.3969 -1058.03
v -5524.39 31.4141 -1058.03
v -5524.39 31.4141 -1058.03
v -5524.39 41.3969 -1058.03
v -5522.73 41.3969 -1058.25
v -5522.73 31.4141 -1058.25
v -5521.17 41.3969 -1058.89
v -5521.17 31.4141 -1058.89
v -5519.84 41.3969 -1059.92
v -5519.84 31.4141 -1059.92
v -5518.82 41.3969 -1061.25
v -5518.82 31.4141 -1061.25
v -5518.18 41.3969 -1062.8
v -5518.18 31.4141 -1062.8
v -5517.96 41.3969 -1064.47
v -5517.96 31.4141 -1064.47
v -5518.18 41.3969 -1066.13
v -5518.18 31.4141 -1066.13
v -5518.82 41.3969 -1067.68
v -5518.82 31.4141 -1067.68
v -5519.84 41.3969 -1069.02
v -5519.84 31.4141 -1069.02
v -5521.17 41.3969 -1070.04
v -5521.17 31.4141 -1070.04
v -5522.73 41.3969 -1070.68
v -5522.73 31.4141 -1070.68
v -5524.39 41.3969 -1070.9
v -5524.39 31.4141 -1070.9
v -5526.06 41.3969 -1070.68
v -5526.06 31.4141 -1070.68
v -5527.61 41.3969 -1070.04
v -5527.61 31.4141 -1070.04
v -5528.94 41.3969 -1069.02
v -5528.94 31.4141 -1069.02
v -5529.97 41.3969 -1067.68
v -5529.97 31.4141 -1067.68
v -5530.61 41.3969 -1066.13
v -5530.61 31.4141 -1066.13
v -5530.83 41.3969 -1064.47
v -5530.83 31.4141 -1064.47
v -5530.61 41.3969 -1062.8
v -5530.13 41.3946 -1062.93
v -5529.54 41.3946 -1061.5
v -5529.97 41.3969 -1061.25
v -5528.59 41.3946 -1060.27
v -5528.94 41.3969 -1059.92
v -5527.36 41.3946 -1059.32
v -5527.61 41.3969 -1058.89
v -5525.93 41.3946 -1058.73
v -5526.06 41.3969 -1058.25
v -5524.39 41.3946 -1058.53
v -5524.39 41.3969 -1058.03
v -5522.85 41.3946 -1058.73
v -5522.73 41.3969 -1058.25
v -5521.42 41.3946 -1059.32
v -5521.17 41.3969 -1058.89
v -5520.19 41.3946 -1060.27
v -5519.84 41.3969 -1059.92
v -5519.25 41.3946 -1061.5
v -5518.82 41.3969 -1061.25
v -5518.65 41.3946 -1062.93
v -5518.18 41.3969 -1062.8
v -5518.45 41.3946 -1064.47
v -5517.96 41.3969 -1064.47
v -5518.65 41.3946 -1066
v -5518.18 41.3969 -1066.13
v -5519.25 41.3946 -1067.44
v -5518.82 41.3969 -1067.68
v -5520.19 41.3946 -1068.67
v -5519.84 41.3969 -1069.02
v -5521.42 41.3946 -1069.61
v -5521.17 41.3969 -1070.04
v -5522.85 41.3946 -1070.2
v -5522.73 41.3969 -1070.68
v -5524.39 41.3946 -1070.41
v -5524.39 41.3969 -1070.9
v -5525.93 41.3946 -1070.2
v -5526.06 41.3969 -1070.68
v -5527.36 41.3946 -1069.61
v -5527.61 41.3969 -1070.04
v -5528.59 41.3946 -1068.67
v -5528.94 41.3969 -1069.02
v -5529.54 41.3946 -1067.44
v -5529.97 41.3969 -1067.68
v -5530.13 41.3946 -1066
v -5530.61 41.3969 -1066.13
v -5530.33 41.3946 -1064.47
v -5530.83 41.3969 -1064.47
v -5530.83 41.3969 -1064.47
v -5530.33 41.3946 -1064.47
v -5530.13 41.3946 -1062.93
v -5530.61 41.3969 -1062.8
v -5521.82 48.5056 -1068.67
v -5521.42 48.1791 -1069.61
v -5526.18 52.8343 -1058.83
v -5525.81 52.8343 -1059.74
v -5525.67 52.8343 -1059.69
v -5524.39 52.8343 -1059.52
v -5524.38 52.8343 -1059.52
v -5524.48 52.8343 -1058.54
v -5525.93 52.8343 -1058.73
v -5525.6 51.3191 -1069.26
v -5525.93 51.4189 -1070.2
v -5511.28 20.5797 -1057.15
v -5512.09 20.1239 -1055.68
v -5511.94 24.8107 -1054.15
v -5511.21 22.9642 -1056.37
v -5511.94 24.8107 -1054.15
v -5513.17 19.8092 -1054.61
v -5513.01 24.9505 -1052.93
v -5513.01 24.9505 -1052.93
v -5514.5 19.6 -1053.84
v -5514.33 25.0585 -1052.06
v -5515.28 25.0834 -1051.77
v -5515.99 19.5106 -1053.43
v -5515.84 24.3859 -1051.84
v -5517.45 22.4278 -1052.45
v -5517.54 19.547 -1053.39
v -5518.78 19.6793 -1053.68
v -5517.45 22.4278 -1052.45
v -5515.13 19.3361 -1075.2
v -5515.03 19.3519 -1075.24
v -5515.89 29.9716 -1073.4
v -5516.1 30.0159 -1073.3
v -5516.66 23.0991 -1074.02
v -5515.61 22.6419 -1074.54
v -5515.89 29.9716 -1073.4
v -5513.5 19.5103 -1075.44
v -5514.27 29.0332 -1073.79
v -5513.08 27.8076 -1073.87
v -5514.27 29.0332 -1073.79
v -5511.96 19.5998 -1075.24
v -5512.6 27.5066 -1073.86
v -5511.29 27.9146 -1073.24
v -5511.84 26.8686 -1073.68
v -5512.6 27.5066 -1073.86
v -5510.53 19.6143 -1074.65
v -5511.24 28.4146 -1073.12
v -5509.87 24.3035 -1073.04
v -5510.41 28.2903 -1072.51
v -5511.12 29.6624 -1072.73
v -5511.24 28.4146 -1073.12
v -5509.29 19.5528 -1073.71
v -5509.66 24.1248 -1072.92
v -5509.01 23.2064 -1072.33
v -5509.66 24.1248 -1072.92
v -5508.34 19.4196 -1072.5
v -5508.63 23.0314 -1071.87
v -5508.63 23.0314 -1071.87
v -5507.73 19.2237 -1071.09
v -5507.99 22.3948 -1070.54
v -5507.6 20.0944 -1069.38
v -5507.62 20.3686 -1069.33
v -5507.64 20.5936 -1069.31
v -5507.9 22.1121 -1070.09
v -5507.61 19.0953 -1070.29
v -5507.6 20.1251 -1069.35
v -5530.01 48.8568 -1062.74
v -5528.65 49.1929 -1063.48
v -5526.38 45.8313 -1060.84
v -5527.36 46.5913 -1061.29
v -5528.91 47.384 -1061.6
v -5529.43 48.0655 -1062.12
v -5520.27 39.3075 -1063.28
v -5520.15 39.5958 -1062.52
v -5520.22 39.9986 -1062.17
v -5525.39 47.6725 -1068.21
v -5525.37 46.8064 -1069.33
v -5523.83 44.7013 -1067.29
v -5523.76 44.757 -1066.99
v -5523.49 44.7985 -1066.09
v -5520.66 39.9715 -1063.64
v -5525.24 44.8677 -1060.47
v -5527.45 49.2252 -1064.47
v -5524.48 44.8253 -1061.01
v -5522.7 43.13 -1060.77
v -5524.16 44.7551 -1061.43
v -5526.47 48.9677 -1065.64
v -5522.25 42.711 -1060.72
v -5522.25 42.711 -1060.72
v -5525.76 48.4381 -1066.91
v -5520.81 41.085 -1061.13
v -5520.81 41.085 -1061.13
v -5524.39 19.4164 -1058.47
v -5524.39 31.4164 -1058.47
v -5522.84 31.4164 -1058.67
v -5522.84 19.4164 -1058.67
v -5521.39 31.4164 -1059.27
v -5521.39 19.4164 -1059.27
v -5520.15 31.4164 -1060.22
v -5520.15 19.4164 -1060.22
v -5519.2 31.4164 -1061.47
v -5519.2 19.4164 -1061.47
v -5518.6 31.4164 -1062.91
v -5518.6 19.4164 -1062.91
v -5518.39 31.4164 -1064.47
v -5518.39 19.4164 -1064.47
v -5518.6 31.4164 -1066.02
v -5518.6 19.4164 -1066.02
v -5519.2 31.4164 -1067.47
v -5519.2 19.4164 -1067.47
v -5520.15 31.4164 -1068.71
v -5520.15 19.4164 -1068.71
v -5521.39 31.4164 -1069.66
v -5521.39 19.4164 -1069.66
v -5522.84 31.4164 -1070.26
v -5522.84 19.4164 -1070.26
v -5524.39 31.4164 -1070.47
v -5524.39 19.4164 -1070.47
v -5525.95 31.4164 -1070.26
v -5525.95 19.4164 -1070.26
v -5527.39 31.4164 -1069.66
v -5527.39 19.4164 -1069.66
v -5528.64 31.4164 -1068.71
v -5528.64 19.4164 -1068.71
v -5529.59 31.4164 -1067.47
v -5529.59 19.4164 -1067.47
v -5530.19 31.4164 -1066.02
v -5530.19 19.4164 -1066.02
v -5530.39 31.4164 -1064.47
v -5530.39 19.4164 -1064.47
v -5530.19 31.4164 -1062.91
v -5530.19 19.4164 -1062.91
v -5529.59 31.4164 -1061.47
v -5529.59 19.4164 -1061.47
v -5528.64 31.4164 -1060.22
v -5528.64 19.4164 -1060.22
v -5527.39 31.4164 -1059.27
v -5527.39 19.4164 -1059.27
v -5525.95 31.4164 -1058.67
v -5525.95 19.4164 -1058.67
v -5524.39 31.4164 -1058.47
v -5524.39 19.4164 -1058.47
v -5529.54 48.8024 -1061.5
v -5529.54 41.3946 -1061.5
v -5530.13 41.3946 -1062.93
v -5530.13 49.0367 -1062.93
v -5528.59 49.2331 -1060.27
v -5528.59 41.3946 -1060.27
v -5528.94 48.742 -1060.71
v -5527.36 50.7064 -1059.32
v -5527.36 41.3946 -1059.32
v -5526.36 51.7711 -1058.91
v -5526.18 52.8343 -1058.83
v -5525.93 52.8343 -1058.73
v -5525.93 41.3946 -1058.73
v -5527.36 50.7064 -1059.32
v -5524.39 51.6716 -1058.53
v -5524.39 41.3946 -1058.53
v -5524.48 52.8343 -1058.54
v -5522.85 47.9947 -1058.73
v -5522.85 41.3946 -1058.73
v -5524.39 41.3946 -1058.53
v -5524.39 51.6716 -1058.53
v -5524.33 50.6704 -1058.53
v -5523.32 49.229 -1058.67
v -5521.42 46.5 -1059.32
v -5521.42 41.3946 -1059.32
v -5522.28 46.5889 -1058.97
v -5520.19 43.8269 -1060.27
v -5520.19 41.3946 -1060.27
v -5521 46.5277 -1059.65
v -5519.25 42.2485 -1061.5
v -5519.25 41.3946 -1061.5
v -5520.19 43.8269 -1060.27
v -5518.65 41.7867 -1062.93
v -5518.65 41.3946 -1062.93
v -5519.25 42.2485 -1061.5
v -5518.45 42.0213 -1064.47
v -5518.45 41.3946 -1064.47
v -5518.65 43.138 -1066
v -5518.65 41.3946 -1066
v -5518.45 42.0213 -1064.47
v -5519.25 44.7835 -1067.44
v -5519.25 41.3946 -1067.44
v -5518.65 43.138 -1066
v -5518.96 43.8327 -1066.73
v -5519.07 44.4503 -1067.02
v -5520.19 43.8737 -1068.67
v -5520.19 41.3946 -1068.67
v -5519.25 44.7835 -1067.44
v -5519.72 45.4405 -1068.05
v -5520.14 44.382 -1068.59
v -5521.42 48.1791 -1069.61
v -5521.42 41.3946 -1069.61
v -5520.19 43.8737 -1068.67
v -5520.42 42.5919 -1068.84
v -5521.01 43.9585 -1069.3
v -5522.85 49.1568 -1070.2
v -5522.85 41.3946 -1070.2
v -5521.42 48.1791 -1069.61
v -5524.39 49.6055 -1070.41
v -5524.39 41.3946 -1070.41
v -5522.85 49.1568 -1070.2
v -5525.93 51.4189 -1070.2
v -5525.93 41.3946 -1070.2
v -5524.89 49.8132 -1070.34
v -5527.36 51.7538 -1069.61
v -5527.36 41.3946 -1069.61
v -5526.03 52.6679 -1070.16
v -5528.59 50.7198 -1068.67
v -5528.59 41.3946 -1068.67
v -5529.54 51.5838 -1067.44
v -5529.54 41.3946 -1067.44
v -5528.82 51.8083 -1068.37
v -5530.13 50.8591 -1066
v -5530.13 41.3946 -1066
v -5529.93 51.4264 -1066.48
v -5530.33 49.3724 -1064.47
v -5530.33 41.3946 -1064.47
v -5530.13 49.0367 -1062.93
v -5530.33 49.3724 -1064.47
v -5524.11 44.6582 -1064.77
v -5524.1 44.6582 -1064.77
v -5524.1 42.8304 -1064.77
v -5524.11 42.8304 -1064.77
v -5524.09 44.6582 -1064.78
v -5524.09 42.8304 -1064.78
v -5524.1 44.6582 -1064.79
v -5524.1 42.8304 -1064.79
v -5524.11 44.6582 -1064.79
v -5524.11 42.8304 -1064.79
v -5524.12 44.6582 -1064.78
v -5524.12 42.8304 -1064.78
v -5524.11 42.8304 -1064.77
v -5524.1 42.8304 -1064.77
v -5524.12 42.8304 -1064.78
v -5524.1 42.8304 -1064.79
v -5524.11 42.8304 -1064.79
v -5524.09 42.8304 -1064.78
v -5524.11 44.6582 -1064.77
v -5524.12 44.6582 -1064.78
v -5524.1 44.6582 -1064.77
v -5524.1 44.6582 -1064.79
v -5524.09 44.6582 -1064.78
v -5524.11 44.6582 -1064.79
v -5524.1 44.6547 -1064.78
v -5524.15 44.6649 -1064.78
v -5524.17 44.6591 -1064.78
v -5524.18 44.69 -1064.78
v -5524.1 44.5559 -1064.78
v -5524.07 44.6287 -1064.78
v -5524.14 44.6287 -1064.78
v -5524.15 44.6649 -1064.77
v -5524.15 44.6649 -1064.78
v -5524.1 44.6547 -1064.78
v -5524.1 44.6547 -1064.77
v -5524.1 44.6547 -1064.77
v -5524.17 44.6591 -1064.77
v -5524.15 44.6649 -1064.77
v -5524.18 44.69 -1064.77
v -5524.07 44.6287 -1064.77
v -5524.1 44.5559 -1064.77
v -5524.14 44.6287 -1064.77
v -5524.22 44.7335 -1064.78
v -5524.22 44.7335 -1064.77
v -5524.26 44.6956 -1064.77
v -5524.26 44.6956 -1064.78
v -5524.21 44.683 -1064.77
v -5524.17 44.6591 -1064.77
v -5524.17 44.6591 -1064.78
v -5524.21 44.683 -1064.78
v -5524.21 44.683 -1064.77
v -5524.21 44.683 -1064.77
v -5524.22 44.7335 -1064.77
v -5524.18 44.69 -1064.77
v -5524.26 44.6956 -1064.77
v -5524.22 44.7335 -1064.77
v -5524.22 44.7335 -1064.78
v -5524.18 44.69 -1064.78
v -5524.18 44.69 -1064.77
v -5524.22 44.7335 -1064.78
v -5524.21 44.683 -1064.78
v -5524.26 44.6956 -1064.78
v -5524.14 44.6287 -1064.77
v -5524.14 44.6287 -1064.78
v -5524.1 44.5559 -1064.77
v -5524.1 44.5559 -1064.78
v -5524.26 44.6956 -1064.78
v -5524.26 44.6956 -1064.77
v -5524.04 44.6591 -1064.78
v -5524.06 44.6649 -1064.78
v -5524.02 44.69 -1064.78
v -5524.1 44.6547 -1064.78
v -5524.06 44.6649 -1064.78
v -5524.06 44.6649 -1064.77
v -5524.1 44.6547 -1064.77
v -5524.06 44.6649 -1064.77
v -5524.04 44.6591 -1064.77
v -5524.02 44.69 -1064.77
v -5523.95 44.6956 -1064.77
v -5523.99 44.7335 -1064.77
v -5523.99 44.7335 -1064.78
v -5523.95 44.6956 -1064.78
v -5524.04 44.6591 -1064.78
v -5524.04 44.6591 -1064.77
v -5523.99 44.683 -1064.77
v -5523.99 44.683 -1064.78
v -5523.99 44.683 -1064.77
v -5523.99 44.7335 -1064.77
v -5523.99 44.7335 -1064.77
v -5523.95 44.6956 -1064.77
v -5523.99 44.683 -1064.77
v -5524.02 44.69 -1064.78
v -5523.99 44.7335 -1064.78
v -5523.99 44.7335 -1064.77
v -5524.02 44.69 -1064.77
v -5523.99 44.7335 -1064.78
v -5523.99 44.683 -1064.78
v -5523.99 44.683 -1064.78
v -5523.95 44.6956 -1064.78
v -5523.99 44.7335 -1064.78
v -5524.07 44.6287 -1064.78
v -5524.07 44.6287 -1064.77
v -5524.1 44.5559 -1064.78
v -5524.1 44.5559 -1064.77
v -5523.95 44.6956 -1064.78
v -5523.95 44.6956 -1064.77
v -5524.11 44.6547 -1064.78
v -5524.11 44.6649 -1064.73
v -5524.11 44.6591 -1064.71
v -5524.11 44.69 -1064.7
v -5524.11 44.5559 -1064.78
v -5524.11 44.6287 -1064.81
v -5524.11 44.6287 -1064.74
v -5524.11 44.6547 -1064.78
v -5524.11 44.6591 -1064.71
v -5524.1 44.6649 -1064.73
v -5524.11 44.6649 -1064.73
v -5524.11 44.6547 -1064.78
v -5524.1 44.6547 -1064.78
v -5524.1 44.6547 -1064.78
v -5524.1 44.6591 -1064.71
v -5524.1 44.6649 -1064.73
v -5524.1 44.69 -1064.7
v -5524.1 44.6287 -1064.81
v -5524.1 44.5559 -1064.78
v -5524.1 44.6287 -1064.74
v -5524.11 44.7335 -1064.66
v -5524.1 44.7335 -1064.66
v -5524.1 44.6956 -1064.62
v -5524.11 44.6956 -1064.62
v -5524.1 44.683 -1064.67
v -5524.1 44.6591 -1064.71
v -5524.11 44.6591 -1064.71
v -5524.11 44.683 -1064.67
v -5524.1 44.683 -1064.67
v -5524.1 44.7335 -1064.66
v -5524.1 44.6956 -1064.62
v -5524.1 44.7335 -1064.66
v -5524.11 44.7335 -1064.66
v -5524.11 44.69 -1064.7
v -5524.1 44.69 -1064.7
v -5524.11 44.7335 -1064.66
v -5524.11 44.683 -1064.67
v -5524.11 44.6956 -1064.62
v -5524.1 44.6287 -1064.74
v -5524.11 44.6287 -1064.74
v -5524.1 44.5559 -1064.78
v -5524.11 44.5559 -1064.78
v -5524.11 44.6956 -1064.62
v -5524.1 44.6956 -1064.62
v -5524.11 44.6591 -1064.85
v -5524.11 44.6649 -1064.82
v -5524.11 44.69 -1064.86
v -5524.11 44.6547 -1064.78
v -5524.11 44.6649 -1064.82
v -5524.1 44.6649 -1064.82
v -5524.1 44.6547 -1064.78
v -5524.1 44.6547 -1064.78
v -5524.1 44.6649 -1064.82
v -5524.1 44.6591 -1064.85
v -5524.1 44.69 -1064.86
v -5524.1 44.6956 -1064.93
v -5524.1 44.7335 -1064.89
v -5524.11 44.7335 -1064.89
v -5524.11 44.6956 -1064.93
v -5524.11 44.6591 -1064.85
v -5524.1 44.6591 -1064.85
v -5524.1 44.683 -1064.89
v -5524.11 44.683 -1064.89
v -5524.1 44.683 -1064.89
v -5524.1 44.7335 -1064.89
v -5524.1 44.6956 -1064.93
v -5524.11 44.69 -1064.86
v -5524.11 44.7335 -1064.89
v -5524.1 44.7335 -1064.89
v -5524.1 44.69 -1064.86
v -5524.11 44.7335 -1064.89
v -5524.11 44.683 -1064.89
v -5524.11 44.6956 -1064.93
v -5524.11 44.6287 -1064.81
v -5524.1 44.6287 -1064.81
v -5524.11 44.5559 -1064.78
v -5524.1 44.5559 -1064.78
v -5524.11 44.6956 -1064.93
v -5524.1 44.6956 -1064.93
v -5524.21 44.718 -1064.75
v -5524.18 44.718 -1064.7
v -5524.16 44.6806 -1064.78
v -5524.13 44.6806 -1064.73
v -5524.13 44.718 -1064.68
v -5524.07 44.6806 -1064.73
v -5524.08 44.718 -1064.68
v -5524.03 44.718 -1064.7
v -5524.04 44.6806 -1064.78
v -5524 44.718 -1064.75
v -5524 44.718 -1064.81
v -5524.07 44.6806 -1064.83
v -5524.03 44.718 -1064.85
v -5524.08 44.718 -1064.88
v -5524.13 44.6806 -1064.83
v -5524.13 44.718 -1064.88
v -5524.18 44.718 -1064.85
v -5524.21 44.718 -1064.81
v -5524.17 44.772 -1064.66
v -5524.22 44.772 -1064.71
v -5524.1 44.772 -1064.65
v -5524.04 44.772 -1064.66
v -5523.99 44.772 -1064.71
v -5523.97 44.772 -1064.78
v -5523.99 44.772 -1064.84
v -5524.04 44.772 -1064.89
v -5524.1 44.772 -1064.91
v -5524.17 44.772 -1064.89
v -5524.22 44.772 -1064.84
v -5524.23 44.772 -1064.78
v -5524.2 44.8319 -1064.69
v -5524.23 44.8319 -1064.74
v -5524.14 44.8319 -1064.65
v -5524.07 44.8319 -1064.65
v -5524.01 44.8319 -1064.69
v -5523.98 44.8319 -1064.74
v -5523.98 44.8319 -1064.81
v -5524.01 44.8319 -1064.87
v -5524.07 44.8319 -1064.91
v -5524.14 44.8319 -1064.91
v -5524.2 44.8319 -1064.87
v -5524.23 44.8319 -1064.81
v -5524.19 44.8859 -1064.73
v -5524.16 44.8859 -1064.69
v -5524.1 44.8859 -1064.67
v -5524.05 44.8859 -1064.69
v -5524.01 44.8859 -1064.73
v -5524 44.8859 -1064.78
v -5524.01 44.8859 -1064.83
v -5524.05 44.8859 -1064.87
v -5524.1 44.8859 -1064.88
v -5524.16 44.8859 -1064.87
v -5524.19 44.8859 -1064.83
v -5524.21 44.8859 -1064.78
v -5524.16 44.9233 -1064.78
v -5524.13 44.9233 -1064.73
v -5524.07 44.9233 -1064.73
v -5524.04 44.9233 -1064.78
v -5524.07 44.9233 -1064.83
v -5524.13 44.9233 -1064.83
v -5524.1 44.6672 -1064.78
v -5524.1 44.9366 -1064.78
v -5549 16.6244 -1032
v -5549 16.7413 -1034
v -5549 16.8571 -1036
v -5549 16.9718 -1038
v -5549 17.0853 -1040
v -5549 17.1978 -1042
v -5549 17.3091 -1044
v -5549 17.4193 -1046
v -5549 17.5284 -1048
v -5549 17.6364 -1050
v -5549 17.8514 -1052
v -5549 18.1131 -1054
v -5549 18.3781 -1056
v -5549 18.6551 -1058
v -5549 18.9354 -1060
v -5549 19.1825 -1062
v -5549 19.3815 -1064
v -5549 19.5453 -1066
v -5549 19.7083 -1068
v -5549 19.8467 -1070
v -5549 19.9174 -1072
v -5549 19.9231 -1074
v -5549 19.886 -1076
v -5549 19.8343 -1078
v -5549 19.7761 -1080
v -5549 19.6824 -1082
v -5549 19.5411 -1084
v -5549 19.3928 -1086
v -5549 19.48 -1088
v -5549 19.5662 -1090
v -5549 19.6513 -1092
v -5549 19.7354 -1094
v -5547 16.6751 -1032
v -5547 16.7916 -1034
v -5547 16.907 -1036
v -5547 17.0213 -1038
v -5547 17.1345 -1040
v -5547 17.2466 -1042
v -5547 17.3576 -1044
v -5547 17.4897 -1046
v -5547 17.8099 -1048
v -5547 18.1279 -1050
v -5547 18.3818 -1052
v -5547 18.6231 -1054
v -5547 18.8701 -1056
v -5547 19.1379 -1058
v -5547 19.4064 -1060
v -5547 19.6414 -1062
v -5547 19.8247 -1064
v -5547 19.9621 -1066
v -5547 20.0807 -1068
v -5547 20.1531 -1070
v -5547 20.146 -1072
v -5547 20.0819 -1074
v -5547 19.9922 -1076
v -5547 19.8976 -1078
v -5547 19.7945 -1080
v -5547 19.6462 -1082
v -5547 19.4491 -1084
v -5547 19.4342 -1086
v -5547 19.5212 -1088
v -5547 19.607 -1090
v -5547 19.6918 -1092
v -5547 19.7756 -1094
v -5545 16.7252 -1032
v -5545 16.8413 -1034
v -5545 16.9563 -1036
v -5545 17.0703 -1038
v -5545 17.1831 -1040
v -5545 17.2948 -1042
v -5545 17.4934 -1044
v -5545 17.8754 -1046
v -5545 18.3069 -1048
v -5545 18.646 -1050
v -5545 18.8973 -1052
v -5545 19.1445 -1054
v -5545 19.3853 -1056
v -5545 19.6223 -1058
v -5545 19.8537 -1060
v -5545 20.0872 -1062
v -5545 20.2882 -1064
v -5545 20.4227 -1066
v -5545 20.4857 -1068
v -5545 20.4862 -1070
v -5545 20.4064 -1072
v -5545 20.2753 -1074
v -5545 20.1199 -1076
v -5545 19.9618 -1078
v -5545 19.7985 -1080
v -5545 19.5939 -1082
v -5545 19.3873 -1084
v -5545 19.475 -1086
v -5545 19.5616 -1088
v -5545 19.6472 -1090
v -5545 19.7317 -1092
v -5545 19.8152 -1094
v -5543 16.7745 -1032
v -5543 16.8903 -1034
v -5543 17.005 -1036
v -5543 17.1185 -1038
v -5543 17.2346 -1040
v -5543 17.431 -1042
v -5543 17.821 -1044
v -5543 18.3646 -1046
v -5543 18.8396 -1048
v -5543 19.1627 -1050
v -5543 19.4206 -1052
v -5543 19.7054 -1054
v -5543 19.9478 -1056
v -5543 20.1279 -1058
v -5543 20.2965 -1060
v -5543 20.5042 -1062
v -5543 20.701 -1064
v -5543 20.8187 -1066
v -5543 20.8275 -1068
v -5543 20.7827 -1070
v -5543 20.6623 -1072
v -5543 20.4785 -1074
v -5543 20.2531 -1076
v -5543 20.0268 -1078
v -5543 19.8023 -1080
v -5543 19.5442 -1082
v -5543 19.4277 -1084
v -5543 19.5151 -1086
v -5543 19.6015 -1088
v -5543 19.6867 -1090
v -5543 19.7709 -1092
v -5543 19.8541 -1094
v -5541 16.8232 -1032
v -5541 16.9386 -1034
v -5541 17.0529 -1036
v -5541 17.1786 -1038
v -5541 17.3901 -1040
v -5541 17.7044 -1042
v -5541 18.2732 -1044
v -5541 18.9251 -1046
v -5541 19.39 -1048
v -5541 19.6778 -1050
v -5541 19.9427 -1052
v -5541 20.2675 -1054
v -5541 20.5151 -1056
v -5541 20.6449 -1058
v -5541 20.755 -1060
v -5541 20.9025 -1062
v -5541 21.043 -1064
v -5541 21.1133 -1066
v -5541 21.0844 -1068
v -5541 21.0234 -1070
v -5541 20.8856 -1072
v -5541 20.6603 -1074
v -5541 20.3769 -1076
v -5541 20.0981 -1078
v -5541 19.821 -1080
v -5541 19.5084 -1082
v -5541 19.4675 -1084
v -5541 19.5546 -1086
v -5541 19.6407 -1088
v -5541 19.7256 -1090
v -5541 19.8095 -1092
v -5541 19.8924 -1094
v -5539 16.8713 -1032
v -5539 16.9863 -1034
v -5539 17.141 -1036
v -5539 17.3435 -1038
v -5539 17.6758 -1040
v -5539 18.1381 -1042
v -5539 18.8437 -1044
v -5539 19.5133 -1046
v -5539 19.9138 -1048
v -5539 20.1435 -1050
v -5539 20.4075 -1052
v -5539 20.7405 -1054
v -5539 20.9817 -1056
v -5539 21.0839 -1058
v -5539 21.1624 -1060
v -5539 21.2441 -1062
v -5539 21.3196 -1064
v -5539 21.3555 -1066
v -5539 21.3206 -1068
v -5539 21.2526 -1070
v -5539 21.0941 -1072
v -5539 20.8323 -1074
v -5539 20.5089 -1076
v -5539 20.189 -1078
v -5539 19.8609 -1080
v -5539 19.4889 -1082
v -5539 19.5067 -1084
v -5539 19.5935 -1086
v -5539 19.6792 -1088
v -5539 19.7639 -1090
v -5539 19.8475 -1092
v -5539 19.9301 -1094
v -5537 16.9187 -1032
v -5537 17.0926 -1034
v -5537 17.3735 -1036
v -5537 17.6515 -1038
v -5537 18.1655 -1040
v -5537 18.7954 -1042
v -5537 19.5445 -1044
v -5537 20.0671 -1046
v -5537 20.2877 -1048
v -5537 20.5224 -1050
v -5537 20.8167 -1052
v -5537 21.1512 -1054
v -5537 21.3615 -1056
v -5537 21.415 -1058
v -5537 21.4531 -1060
v -5537 21.4715 -1062
v -5537 21.5205 -1064
v -5537 21.5825 -1066
v -5537 21.5754 -1068
v -5537 21.5007 -1070
v -5537 21.3169 -1072
v -5537 21.0294 -1074
v -5537 20.6701 -1076
v -5537 20.2936 -1078
v -5537 19.908 -1080
v -5537 19.4865 -1082
v -5537 19.5452 -1084
v -5537 19.6317 -1086
v -5537 19.7171 -1088
v -5537 19.8015 -1090
v -5537 19.8848 -1092
v -5537 19.9671 -1094
v -5535 16.9654 -1032
v -5535 17.4151 -1034
v -5535 17.6804 -1036
v -5535 18.0974 -1038
v -5535 18.8115 -1040
v -5535 19.5638 -1042
v -5535 20.0772 -1044
v -5535 20.2873 -1046
v -5535 20.4957 -1048
v -5535 20.7597 -1050
v -5535 21.0865 -1052
v -5535 21.434 -1054
v -5535 21.6439 -1056
v -5535 21.6688 -1058
v -5535 21.6731 -1060
v -5535 21.6628 -1062
v -5535 21.742 -1064
v -5535 21.8737 -1066
v -5535 21.8901 -1068
v -5535 21.7678 -1070
v -5535 21.5231 -1072
v -5535 21.2061 -1074
v -5535 20.82 -1076
v -5535 20.3905 -1078
v -5535 19.9584 -1080
v -5535 19.5067 -1082
v -5535 19.5831 -1084
v -5535 19.6693 -1086
v -5535 19.7544 -1088
v -5535 19.8385 -1090
v -5535 19.9215 -1092
v -5535 20.0035 -1094
v -5533 17.2636 -1032
v -5533 17.7313 -1034
v -5533 18.0124 -1036
v -5533 18.5738 -1038
v -5533 19.44 -1040
v -5533 20.0632 -1042
v -5533 20.2124 -1044
v -5533 20.4024 -1046
v -5533 20.613 -1048
v -5533 20.8954 -1050
v -5533 21.227 -1052
v -5533 21.5733 -1054
v -5533 21.7931 -1056
v -5533 21.8141 -1058
v -5533 21.7868 -1060
v -5533 21.7538 -1062
v -5533 21.9005 -1064
v -5533 22.1191 -1066
v -5533 22.1408 -1068
v -5533 21.9637 -1070
v -5533 21.6592 -1072
v -5533 21.3189 -1074
v -5533 20.9279 -1076
v -5533 20.4797 -1078
v -5533 20.0259 -1080
v -5533 19.5528 -1082
v -5533 19.6203 -1084
v -5533 19.7062 -1086
v -5533 19.7911 -1088
v -5533 19.8748 -1090
v -5533 19.9576 -1092
v -5533 20.0392 -1094
v -5531 17.52 -1032
v -5531 18.038 -1034
v -5531 18.3559 -1036
v -5531 18.9843 -1038
v -5531 19.9519 -1040
v -5531 20.1678 -1042
v -5531 20.2758 -1044
v -5531 20.4556 -1046
v -5531 20.7 -1048
v -5531 21.0058 -1050
v -5531 21.3011 -1052
v -5531 21.5578 -1054
v -5531 21.733 -1056
v -5531 21.7835 -1058
v -5531 21.8256 -1060
v -5531 22.0878 -1062
v -5531 22.232 -1064
v -5531 22.3541 -1066
v -5531 22.3612 -1068
v -5531 22.1717 -1070
v -5531 21.8372 -1072
v -5531 21.463 -1074
v -5531 21.0616 -1076
v -5531 20.6085 -1078
v -5531 20.132 -1080
v -5531 19.6266 -1082
v -5531 19.657 -1084
v -5531 19.7425 -1086
v -5531 19.8271 -1088
v -5531 19.9106 -1090
v -5531 19.993 -1092
v -5531 20.0744 -1094
v -5529 17.6834 -1032
v -5529 18.2337 -1034
v -5529 18.7561 -1036
v -5529 19.4095 -1038
v -5529 20.0941 -1040
v -5529 20.2328 -1042
v -5529 20.2832 -1044
v -5529 20.4274 -1046
v -5529 20.6874 -1048
v -5529 20.9991 -1050
v -5529 21.2414 -1052
v -5529 21.3683 -1054
v -5529 21.4619 -1056
v -5529 21.5651 -1058
v -5529 22.1589 -1060
v -5529 22.4128 -1062
v -5529 22.4493 -1064
v -5529 22.4636 -1066
v -5529 22.4864 -1068
v -5529 22.3532 -1070
v -5529 22.0388 -1072
v -5529 21.6394 -1074
v -5529 21.2246 -1076
v -5529 20.7666 -1078
v -5529 20.2652 -1080
v -5529 19.7296 -1082
v -5529 19.6929 -1084
v -5529 19.7782 -1086
v -5529 19.8625 -1088
v -5529 19.9456 -1090
v -5529 20.0278 -1092
v -5529 20.1089 -1094
v -5527 17.7771 -1032
v -5527 18.4156 -1034
v -5527 19.1025 -1036
v -5527 19.8615 -1038
v -5527 20.1715 -1040
v -5527 20.2688 -1042
v -5527 20.2573 -1044
v -5527 20.3223 -1046
v -5527 20.5459 -1048
v -5527 20.8341 -1050
v -5527 21.0431 -1052
v -5527 21.0977 -1054
v -5527 21.1464 -1056
v -5527 21.6737 -1058
v -5527 22.2992 -1060
v -5527 22.5739 -1062
v -5527 22.5838 -1064
v -5527 22.5544 -1066
v -5527 22.5965 -1068
v -5527 22.5082 -1070
v -5527 22.2081 -1072
v -5527 21.7917 -1074
v -5527 21.3731 -1076
v -5527 20.9184 -1078
v -5527 20.4067 -1080
v -5527 19.8593 -1082
v -5527 19.7283 -1084
v -5527 19.8133 -1086
v -5527 19.8972 -1088
v -5527 19.9801 -1090
v -5527 20.0619 -1092
v -5527 20.1427 -1094
v -5525 17.8523 -1032
v -5525 18.5551 -1034
v -5525 19.3196 -1036
v -5525 20.0414 -1038
v -5525 20.2108 -1040
v -5525 20.2737 -1042
v -5525 20.2332 -1044
v -5525 20.1974 -1046
v -5525 20.3426 -1048
v -5525 20.5981 -1050
v -5525 20.8008 -1052
v -5525 20.875 -1054
v -5525 21.1161 -1056
v -5525 21.7429 -1058
v -5525 22.3335 -1060
v -5525 22.6169 -1062
v -5525 22.6718 -1064
v -5525 22.6712 -1066
v -5525 22.7062 -1068
v -5525 22.5974 -1070
v -5525 22.2795 -1072
v -5525 21.8645 -1074
v -5525 21.4649 -1076
v -5525 21.0314 -1078
v -5525 20.5401 -1080
v -5525 20.0098 -1082
v -5525 19.763 -1084
v -5525 19.8477 -1086
v -5525 19.9313 -1088
v -5525 20.0139 -1090
v -5525 20.0955 -1092
v -5525 20.176 -1094
v -5523 17.9196 -1032
v -5523 18.6021 -1034
v -5523 19.3528 -1036
v -5523 20.0636 -1038
v -5523 20.2333 -1040
v -5523 20.2837 -1042
v -5523 20.2297 -1044
v -5523 20.1352 -1046
v -5523 20.1988 -1048
v -5523 20.4366 -1050
v -5523 20.6501 -1052
v -5523 20.84 -1054
v -5523 21.2964 -1056
v -5523 21.8506 -1058
v -5523 22.3424 -1060
v -5523 22.5959 -1062
v -5523 22.682 -1064
v -5523 22.6829 -1066
v -5523 22.6654 -1068
v -5523 22.5751 -1070
v -5523 22.3267 -1072
v -5523 21.9636 -1074
v -5523 21.5583 -1076
v -5523 21.1305 -1078
v -5523 20.677 -1080
v -5523 20.1837 -1082
v -5523 19.7971 -1084
v -5523 19.8815 -1086
v -5523 19.9648 -1088
v -5523 20.0471 -1090
v -5523 20.1284 -1092
v -5523 20.2086 -1094
v -5521 17.9268 -1032
v -5521 18.5306 -1034
v -5521 19.2426 -1036
v -5521 20.055 -1038
v -5521 20.2411 -1040
v -5521 20.2919 -1042
v -5521 20.2382 -1044
v -5521 20.1546 -1046
v -5521 20.1621 -1048
v -5521 20.3579 -1050
v -5521 20.6663 -1052
v -5521 21.0288 -1054
v -5521 21.4587 -1056
v -5521 21.9154 -1058
v -5521 22.2491 -1060
v -5521 22.4641 -1062
v -5521 22.5769 -1064
v -5521 22.5672 -1066
v -5521 22.4892 -1068
v -5521 22.4599 -1070
v -5521 22.3466 -1072
v -5521 22.0828 -1074
v -5521 21.6869 -1076
v -5521 21.2703 -1078
v -5521 20.8572 -1080
v -5521 20.3995 -1082
v -5521 19.9002 -1084
v -5521 19.9146 -1086
v -5521 19.9977 -1088
v -5521 20.0797 -1090
v -5521 20.1607 -1092
v -5521 20.2406 -1094
v -5519 17.8579 -1032
v -5519 18.3999 -1034
v -5519 19.0929 -1036
v -5519 20.0267 -1038
v -5519 20.2271 -1040
v -5519 20.2882 -1042
v -5519 20.2781 -1044
v -5519 20.2902 -1046
v -5519 20.3774 -1048
v -5519 20.5693 -1050
v -5519 20.8251 -1052
v -5519 21.1344 -1054
v -5519 21.4973 -1056
v -5519 21.8235 -1058
v -5519 22.0214 -1060
v -5519 22.2114 -1062
v -5519 22.3546 -1064
v -5519 22.3523 -1066
v -5519 22.2438 -1068
v -5519 22.2649 -1070
v -5519 22.2679 -1072
v -5519 22.1198 -1074
v -5519 21.7923 -1076
v -5519 21.4375 -1078
v -5519 21.0858 -1080
v -5519 20.6637 -1082
v -5519 20.1751 -1084
v -5519 19.9472 -1086
v -5519 20.0299 -1088
v -5519 20.1117 -1090
v -5519 20.1923 -1092
v -5519 20.272 -1094
v -5517 17.7837 -1032
v -5517 18.2825 -1034
v -5517 18.9404 -1036
v -5517 19.8597 -1038
v -5517 20.1765 -1040
v -5517 20.2811 -1042
v -5517 20.3369 -1044
v -5517 20.4183 -1046
v -5517 20.5403 -1048
v -5517 20.7088 -1050
v -5517 20.8916 -1052
v -5517 21.1163 -1054
v -5517 21.382 -1056
v -5517 21.6049 -1058
v -5517 21.7236 -1060
v -5517 21.8728 -1062
v -5517 22.0191 -1064
v -5517 22.0466 -1066
v -5517 21.9598 -1068
v -5517 21.9966 -1070
v -5517 22.0501 -1072
v -5517 22.0088 -1074
v -5517 21.8226 -1076
v -5517 21.5794 -1078
v -5517 21.3007 -1080
v -5517 20.93 -1082
v -5517 20.4842 -1084
v -5517 19.996 -1086
v -5517 20.0616 -1088
v -5517 20.143 -1090
v -5517 20.2234 -1092
v -5517 20.3028 -1094
v -5515 17.7013 -1032
v -5515 18.1519 -1034
v -5515 18.7439 -1036
v -5515 19.4657 -1038
v -5515 20.0574 -1040
v -5515 20.2165 -1042
v -5515 20.3507 -1044
v -5515 20.488 -1046
v -5515 20.6208 -1048
v -5515 20.7619 -1050
v -5515 20.9071 -1052
v -5515 21.102 -1054
v -5515 21.3052 -1056
v -5515 21.4296 -1058
v -5515 21.4632 -1060
v -5515 21.5073 -1062
v -5515 21.5896 -1064
v -5515 21.7889 -1066
v -5515 21.9413 -1068
v -5515 21.9298 -1070
v -5515 21.7595 -1072
v -5515 21.8123 -1074
v -5515 21.7947 -1076
v -5515 21.6765 -1078
v -5515 21.4614 -1080
v -5515 21.1531 -1082
v -5515 20.7891 -1084
v -5515 20.3638 -1086
v -5515 20.0926 -1088
v -5515 20.1737 -1090
v -5515 20.2538 -1092
v -5515 20.3329 -1094
v -5513 17.6511 -1032
v -5513 18.0512 -1034
v -5513 18.569 -1036
v -5513 19.1236 -1038
v -5513 19.7129 -1040
v -5513 20.1356 -1042
v -5513 20.3673 -1044
v -5513 20.553 -1046
v -5513 20.6841 -1048
v -5513 20.802 -1050
v -5513 20.9356 -1052
v -5513 21.1177 -1054
v -5513 21.2573 -1056
v -5513 21.2844 -1058
v -5513 21.3259 -1060
v -5513 21.3798 -1062
v -5513 21.5328 -1064
v -5513 21.7894 -1066
v -5513 21.9888 -1068
v -5513 21.979 -1070
v -5513 21.7951 -1072
v -5513 21.5481 -1074
v -5513 21.64 -1076
v -5513 21.6544 -1078
v -5513 21.5306 -1080
v -5513 21.3081 -1082
v -5513 21.0475 -1084
v -5513 20.7219 -1086
v -5513 20.3409 -1088
v -5513 20.2038 -1090
v -5513 20.2836 -1092
v -5513 20.3625 -1094
v -5511 17.622 -1032
v -5511 17.9789 -1034
v -5511 18.4434 -1036
v -5511 18.9194 -1038
v -5511 19.4541 -1040
v -5511 20.072 -1042
v -5511 20.3765 -1044
v -5511 20.5946 -1046
v -5511 20.7221 -1048
v -5511 20.8204 -1050
v -5511 20.9399 -1052
v -5511 21.0935 -1054
v -5511 21.1722 -1056
v -5511 21.2698 -1058
v -5511 21.3151 -1060
v -5511 21.3423 -1062
v -5511 21.4807 -1064
v -5511 21.7479 -1066
v -5511 21.9627 -1068
v -5511 21.9478 -1070
v -5511 21.7593 -1072
v -5511 21.5269 -1074
v -5511 21.4011 -1076
v -5511 21.5088 -1078
v -5511 21.496 -1080
v -5511 21.3845 -1082
v -5511 21.2329 -1084
v -5511 21.0181 -1086
v -5511 20.734 -1088
v -5511 20.4148 -1090
v -5511 20.3129 -1092
v -5511 20.3914 -1094
v -5509 17.5874 -1032
v -5509 17.8814 -1034
v -5509 18.2873 -1036
v -5509 18.7353 -1038
v -5509 19.2734 -1040
v -5509 19.9962 -1042
v -5509 20.3395 -1044
v -5509 20.574 -1046
v -5509 20.6891 -1048
v -5509 20.7578 -1050
v -5509 20.8548 -1052
v -5509 20.975 -1054
v -5509 21.0934 -1056
v -5509 21.1478 -1058
v -5509 21.19 -1060
v -5509 21.2672 -1062
v -5509 21.4445 -1064
v -5509 21.6998 -1066
v -5509 21.8731 -1068
v -5509 21.844 -1070
v -5509 21.6787 -1072
v -5509 21.48 -1074
v -5509 21.3539 -1076
v -5509 21.375 -1078
v -5509 21.4169 -1080
v -5509 21.3828 -1082
v -5509 21.3081 -1084
v -5509 21.1904 -1086
v -5509 21.0224 -1088
v -5509 20.8101 -1090
v -5509 20.5749 -1092
v -5509 20.4197 -1094
v -5507 17.5707 -1032
v -5507 17.7898 -1034
v -5507 18.1221 -1036
v -5507 18.5361 -1038
v -5507 19.0513 -1040
v -5507 19.7073 -1042
v -5507 20.2058 -1044
v -5507 20.4547 -1046
v -5507 20.5726 -1048
v -5507 20.6312 -1050
v -5507 20.7215 -1052
v -5507 20.8466 -1054
v -5507 20.9602 -1056
v -5507 21.0012 -1058
v -5507 21.0584 -1060
v -5507 21.1906 -1062
v -5507 21.3805 -1064
v -5507 21.5763 -1066
v -5507 21.6805 -1068
v -5507 21.6493 -1070
v -5507 21.5436 -1072
v -5507 21.4069 -1074
v -5507 21.323 -1076
v -5507 21.3709 -1078
v -5507 21.4146 -1080
v -5507 21.3988 -1082
v -5507 21.3452 -1084
v -5507 21.2844 -1086
v -5507 21.2177 -1088
v -5507 21.1177 -1090
v -5507 20.9809 -1092
v -5507 20.7909 -1094
v -5505 17.5869 -1032
v -5505 17.7445 -1034
v -5505 18.0055 -1036
v -5505 18.368 -1038
v -5505 18.8114 -1040
v -5505 19.3397 -1042
v -5505 19.9397 -1044
v -5505 20.2329 -1046
v -5505 20.3848 -1048
v -5505 20.4734 -1050
v -5505 20.5798 -1052
v -5505 20.7284 -1054
v -5505 20.8389 -1056
v -5505 20.8954 -1058
v -5505 20.9671 -1060
v -5505 21.1025 -1062
v -5505 21.2449 -1064
v -5505 21.3528 -1066
v -5505 21.3981 -1068
v -5505 21.3765 -1070
v -5505 21.335 -1072
v -5505 21.2736 -1074
v -5505 21.2605 -1076
v -5505 21.3554 -1078
v -5505 21.3994 -1080
v -5505 21.4009 -1082
v -5505 21.3725 -1084
v -5505 21.3649 -1086
v -5505 21.3834 -1088
v -5505 21.3723 -1090
v -5505 21.309 -1092
v -5505 21.1737 -1094
v -5503 17.6228 -1032
v -5503 17.738 -1034
v -5503 17.9367 -1036
v -5503 18.2343 -1038
v -5503 18.5943 -1040
v -5503 19.0077 -1042
v -5503 19.4862 -1044
v -5503 19.9847 -1046
v -5503 20.1848 -1048
v -5503 20.3157 -1050
v -5503 20.4477 -1052
v -5503 20.6085 -1054
v -5503 20.7333 -1056
v -5503 20.8078 -1058
v -5503 20.8778 -1060
v -5503 20.9698 -1062
v -5503 21.0423 -1064
v -5503 21.085 -1066
v -5503 21.1029 -1068
v -5503 21.0899 -1070
v -5503 21.0885 -1072
v -5503 21.1056 -1074
v -5503 21.2035 -1076
v -5503 21.3134 -1078
v -5503 21.3664 -1080
v -5503 21.3837 -1082
v -5503 21.3819 -1084
v -5503 21.4171 -1086
v -5503 21.5012 -1088
v -5503 21.5687 -1090
v -5503 21.5893 -1092
v -5503 21.525 -1094
v -5501 17.6583 -1032
v -5501 17.7665 -1034
v -5501 17.893 -1036
v -5501 18.1194 -1038
v -5501 18.4173 -1040
v -5501 18.7685 -1042
v -5501 19.1788 -1044
v -5501 19.6188 -1046
v -5501 19.989 -1048
v -5501 20.1377 -1050
v -5501 20.2658 -1052
v -5501 20.4436 -1054
v -5501 20.6183 -1056
v -5501 20.745 -1058
v -5501 20.8195 -1060
v -5501 20.8624 -1062
v -5501 20.8751 -1064
v -5501 20.8857 -1066
v -5501 20.8954 -1068
v -5501 20.9118 -1070
v -5501 20.9701 -1072
v -5501 21.0632 -1074
v -5501 21.163 -1076
v -5501 21.2677 -1078
v -5501 21.3393 -1080
v -5501 21.4083 -1082
v -5501 21.5163 -1084
v -5501 21.6564 -1086
v -5501 21.8517 -1088
v -5501 22.0222 -1090
v -5501 22.1039 -1092
v -5501 22.0602 -1094
v -5499 17.6932 -1032
v -5499 17.801 -1034
v -5499 17.9078 -1036
v -5499 18.0695 -1038
v -5499 18.3314 -1040
v -5499 18.6384 -1042
v -5499 18.9951 -1044
v -5499 19.3765 -1046
v -5499 19.7091 -1048
v -5499 19.9264 -1050
v -5499 20.0737 -1052
v -5499 20.2608 -1054
v -5499 20.4778 -1056
v -5499 20.6689 -1058
v -5499 20.7935 -1060
v -5499 20.8799 -1062
v -5499 20.9079 -1064
v -5499 20.8795 -1066
v -5499 20.8683 -1068
v -5499 20.9272 -1070
v -5499 21.005 -1072
v -5499 21.07 -1074
v -5499 21.132 -1076
v -5499 21.2161 -1078
v -5499 21.3575 -1080
v -5499 21.5934 -1082
v -5499 21.8293 -1084
v -5499 22.1086 -1086
v -5499 22.4297 -1088
v -5499 22.6898 -1090
v -5499 22.7726 -1092
v -5499 22.6711 -1094
v -5497 17.7406 -1032
v -5497 17.8412 -1034
v -5497 17.9408 -1036
v -5497 18.0462 -1038
v -5497 18.2234 -1040
v -5497 18.4954 -1042
v -5497 18.7985 -1044
v -5497 19.1199 -1046
v -5497 19.4092 -1048
v -5497 19.6085 -1050
v -5497 19.7829 -1052
v -5497 20.0336 -1054
v -5497 20.2603 -1056
v -5497 20.4827 -1058
v -5497 20.6586 -1060
v -5497 20.82 -1062
v -5497 20.9273 -1064
v -5497 20.9406 -1066
v -5497 20.9083 -1068
v -5497 20.9603 -1070
v -5497 21.0395 -1072
v -5497 21.0873 -1074
v -5497 21.1192 -1076
v -5497 21.1854 -1078
v -5497 21.4055 -1080
v -5497 21.7662 -1082
v -5497 22.1669 -1084
v -5497 22.5995 -1086
v -5497 23.0349 -1088
v -5497 23.3272 -1090
v -5497 23.2892 -1092
v -5497 23.0825 -1094
v -5495 17.8127 -1032
v -5495 17.913 -1034
v -5495 18.0118 -1036
v -5495 18.1091 -1038
v -5495 18.2049 -1040
v -5495 18.3429 -1042
v -5495 18.5871 -1044
v -5495 18.8395 -1046
v -5495 19.0908 -1048
v -5495 19.2916 -1050
v -5495 19.4692 -1052
v -5495 19.7099 -1054
v -5495 19.9941 -1056
v -5495 20.2378 -1058
v -5495 20.4609 -1060
v -5495 20.6889 -1062
v -5495 20.8734 -1064
v -5495 20.9513 -1066
v -5495 20.9355 -1068
v -5495 20.9522 -1070
v -5495 21.032 -1072
v -5495 21.0876 -1074
v -5495 21.1183 -1076
v -5495 21.1722 -1078
v -5495 21.4271 -1080
v -5495 21.8947 -1082
v -5495 22.4483 -1084
v -5495 23.0221 -1086
v -5495 23.5154 -1088
v -5495 23.7098 -1090
v -5495 23.5504 -1092
v -5495 23.1247 -1094
v -5493 17.8844 -1032
v -5493 17.9843 -1034
v -5493 18.0828 -1036
v -5493 18.1797 -1038
v -5493 18.2752 -1040
v -5493 18.3693 -1042
v -5493 18.4619 -1044
v -5493 18.6355 -1046
v -5493 18.8397 -1048
v -5493 19.0013 -1050
v -5493 19.1566 -1052
v -5493 19.3768 -1054
v -5493 19.6491 -1056
v -5493 19.9438 -1058
v -5493 20.2144 -1060
v -5493 20.4927 -1062
v -5493 20.7444 -1064
v -5493 20.8991 -1066
v -5493 20.9305 -1068
v -5493 20.9385 -1070
v -5493 21.008 -1072
v -5493 21.0992 -1074
v -5493 21.1541 -1076
v -5493 21.2004 -1078
v -5493 21.4684 -1080
v -5493 22.0156 -1082
v -5493 22.7118 -1084
v -5493 23.3769 -1086
v -5493 23.7701 -1088
v -5493 23.701 -1090
v -5493 23.2685 -1092
v -5493 22.7395 -1094
v -5491 17.9557 -1032
v -5491 18.0552 -1034
v -5491 18.1533 -1036
v -5491 18.2499 -1038
v -5491 18.345 -1040
v -5491 18.4387 -1042
v -5491 18.531 -1044
v -5491 18.6219 -1046
v -5491 18.7113 -1048
v -5491 18.7994 -1050
v -5491 18.9014 -1052
v -5491 19.0934 -1054
v -5491 19.3398 -1056
v -5491 19.6198 -1058
v -5491 19.9096 -1060
v -5491 20.2242 -1062
v -5491 20.5276 -1064
v -5491 20.7573 -1066
v -5491 20.8583 -1068
v -5491 20.8995 -1070
v -5491 20.9867 -1072
v -5491 21.1303 -1074
v -5491 21.2288 -1076
v -5491 21.2933 -1078
v -5491 21.597 -1080
v -5491 22.2254 -1082
v -5491 23.0397 -1084
v -5491 23.423 -1086
v -5491 23.3709 -1088
v -5491 23.234 -1090
v -5491 22.7706 -1092
v -5491 22.1865 -1094
v -5489 18.0265 -1032
v -5489 18.1256 -1034
v -5489 18.2233 -1036
v -5489 18.3196 -1038
v -5489 18.4144 -1040
v -5489 18.5077 -1042
v -5489 18.5996 -1044
v -5489 18.6901 -1046
v -5489 18.7793 -1048
v -5489 18.867 -1050
v -5489 18.9533 -1052
v -5489 19.0383 -1054
v -5489 19.1219 -1056
v -5489 19.3118 -1058
v -5489 19.6047 -1060
v -5489 19.9222 -1062
v -5489 20.2479 -1064
v -5489 20.526 -1066
v -5489 20.7007 -1068
v -5489 20.8127 -1070
v -5489 20.9548 -1072
v -5489 21.1495 -1074
v -5489 21.2965 -1076
v -5489 21.4145 -1078
v -5489 21.7924 -1080
v -5489 22.4982 -1082
v -5489 22.6636 -1084
v -5489 22.6647 -1086
v -5489 22.5967 -1088
v -5489 22.4865 -1090
v -5489 22.2936 -1092
v -5489 21.7428 -1094
v -5487 18.0967 -1032
v -5487 18.1955 -1034
v -5487 18.2929 -1036
v -5487 18.3888 -1038
v -5487 18.4832 -1040
v -5487 18.5762 -1042
v -5487 18.6678 -1044
v -5487 18.7579 -1046
v -5487 18.8467 -1048
v -5487 18.9341 -1050
v -5487 19.0201 -1052
v -5487 19.1047 -1054
v -5487 19.188 -1056
v -5487 19.2699 -1058
v -5487 19.3505 -1060
v -5487 19.6117 -1062
v -5487 19.9404 -1064
v -5487 20.2518 -1066
v -5487 20.4954 -1068
v -5487 20.6923 -1070
v -5487 20.9021 -1072
v -5487 21.1275 -1074
v -5487 21.3104 -1076
v -5487 21.5112 -1078
v -5487 21.9027 -1080
v -5487 21.9155 -1082
v -5487 21.9142 -1084
v -5487 21.8913 -1086
v -5487 21.8528 -1088
v -5487 21.8023 -1090
v -5487 21.74 -1092
v -5487 21.5502 -1094
f 62 61 60
f 63 62 60
f 121 120 104
f 120 119 104
f 119 118 104
f 118 117 104
f 117 116 104
f 116 115 104
f 115 114 104
f 114 113 104
f 113 112 104
f 112 111 104
f 111 110 104
f 110 109 104
f 109 108 104
f 108 107 104
f 107 106 104
f 106 105 104
f 59 58 54
f 58 57 54
f 57 56 54
f 64 63 60
f 64 60 70
f 71 64 70
f 70 69 66
f 125 124 122
f 124 123 122
f 128 123 124
f 71 70 66
f 69 68 66
f 56 55 54
f 63 64 65
f 127 126 122
f 68 67 66
f 126 125 122
f 129 128 124
f 72 71 66
f 73 72 66
f 67 77 66
f 131 128 130
f 128 129 130
f 77 76 66
f 132 131 130
f 76 75 66
f 75 76 100
f 136 131 133
f 131 132 133
f 75 74 66
f 132 135 133
f 103 102 100
f 102 101 100
f 101 75 100
f 135 134 133
f 137 136 133
f 136 137 138
f 140 136 138
f 86 85 84
f 4 3 1
f 3 2 1
f 29 28 27
f 30 29 27
f 87 86 84
f 88 87 84
f 89 88 84
f 18 17 5
f 98 88 89
f 99 98 89
f 137 139 138
f 81 80 78
f 82 81 78
f 83 82 78
f 80 79 78
f 31 30 27
f 51 53 50
f 53 52 50
f 17 16 5
f 13 12 5
f 14 13 5
f 15 14 5
f 16 15 5
f 12 11 5
f 11 10 5
f 10 9 5
f 9 8 5
f 8 7 5
f 7 6 5
f 142 140 141
f 141 140 138
f 35 34 27
f 33 32 27
f 32 31 27
f 34 33 27
f 51 50 49
f 50 47 49
f 48 47 45
f 38 37 36
f 143 142 141
f 144 143 141
f 82 97 93
f 81 82 93
f 47 44 45
f 92 91 90
f 147 142 145
f 142 146 145
f 95 94 93
f 96 95 93
f 97 96 93
f 46 45 43
f 45 44 43
f 147 152 148
f 153 147 148
f 157 156 154
f 156 155 154
f 44 42 43
f 24 23 19
f 23 22 19
f 150 149 148
f 152 151 148
f 151 150 148
f 157 167 156
f 22 21 19
f 160 166 156
f 167 160 156
f 25 24 19
f 162 161 158
f 161 160 158
f 160 159 158
f 43 42 41
f 21 20 19
f 42 40 41
f 165 164 163
f 41 40 39
f 26 25 19
f 560 558 559
f 562 560 561
f 610 608 609
f 611 610 609
f 561 560 559
f 563 562 561
f 510 508 509
f 511 510 509
f 512 510 511
f 609 608 607
f 559 558 557
f 612 610 611
f 613 612 611
f 509 508 507
f 513 512 511
f 514 512 513
f 508 506 507
f 558 556 557
f 608 606 607
f 607 606 605
f 564 562 563
f 565 564 563
f 267 266 261
f 268 267 261
f 436 435 423
f 425 424 423
f 426 425 423
f 433 426 423
f 434 433 423
f 435 434 423
f 269 268 261
f 515 514 513
f 266 265 261
f 425 427 424
f 606 604 605
f 566 564 565
f 614 612 613
f 507 506 505
f 506 504 505
f 615 614 613
f 557 556 555
f 567 566 565
f 556 554 555
f 605 604 603
f 516 514 515
f 434 435 437
f 435 438 437
f 442 441 438
f 443 442 438
f 441 440 438
f 440 437 438
f 270 269 261
f 517 516 515
f 265 264 261
f 429 428 427
f 425 429 427
f 604 602 603
f 320 318 319
f 321 320 319
f 374 373 362
f 375 374 362
f 322 321 319
f 324 320 323
f 325 324 323
f 326 325 323
f 439 434 437
f 324 328 327
f 329 324 327
f 373 372 362
f 319 318 317
f 318 316 317
f 376 375 362
f 447 446 444
f 446 445 444
f 555 554 553
f 554 552 553
f 568 566 567
f 569 568 567
f 603 602 601
f 616 614 615
f 617 616 615
f 518 516 517
f 505 504 503
f 504 502 503
f 330 329 327
f 334 333 330
f 333 332 330
f 317 316 314
f 316 313 314
f 372 371 362
f 377 376 362
f 332 331 330
f 331 329 330
f 430 428 429
f 450 449 447
f 449 448 447
f 448 446 447
f 451 450 447
f 519 518 517
f 271 270 261
f 264 263 261
f 172 171 168
f 184 183 182
f 171 170 168
f 170 171 178
f 428 430 431
f 602 600 601
f 181 180 178
f 257 258 260
f 454 453 452
f 455 454 452
f 251 258 256
f 258 257 256
f 180 179 178
f 335 331 332
f 639 638 455
f 638 454 455
f 336 335 332
f 339 338 332
f 338 337 332
f 337 336 332
f 371 370 362
f 430 432 431
f 421 420 417
f 315 314 311
f 313 310 311
f 314 313 311
f 378 377 362
f 422 421 417
f 170 169 168
f 619 618 617
f 618 616 617
f 571 570 569
f 570 568 569
f 520 518 519
f 503 502 501
f 502 500 501
f 552 550 551
f 553 552 551
f 601 600 599
f 221 220 219
f 222 221 219
f 220 227 223
f 219 220 223
f 186 185 182
f 188 187 178
f 255 251 256
f 259 255 256
f 272 271 261
f 521 520 519
f 263 262 261
f 458 457 456
f 468 467 461
f 463 462 461
f 459 458 456
f 460 459 456
f 466 465 456
f 465 464 456
f 600 598 599
f 420 419 417
f 340 335 336
f 341 340 336
f 370 369 362
f 419 418 417
f 310 308 309
f 311 310 309
f 189 188 178
f 379 378 362
f 312 311 309
f 227 226 223
f 226 227 231
f 416 415 412
f 415 414 412
f 414 413 412
f 190 189 178
f 203 190 178
f 204 203 178
f 572 570 571
f 573 572 571
f 620 618 619
f 522 520 521
f 621 620 619
f 501 500 499
f 599 598 597
f 500 498 499
f 550 549 548
f 551 550 548
f 523 522 521
f 273 272 261
f 598 596 597
f 342 340 341
f 369 368 362
f 343 342 341
f 380 379 362
f 413 411 412
f 308 307 303
f 309 308 303
f 412 411 410
f 232 226 231
f 232 231 233
f 231 234 233
f 306 305 303
f 305 304 303
f 411 409 410
f 307 306 303
f 255 254 251
f 254 253 251
f 253 252 251
f 250 249 247
f 249 248 247
f 246 245 243
f 202 201 197
f 409 408 406
f 410 409 406
f 645 644 640
f 408 407 406
f 644 643 640
f 274 273 261
f 622 620 621
f 524 522 523
f 623 622 621
f 575 574 573
f 574 572 573
f 345 342 344
f 342 343 344
f 368 367 362
f 525 524 523
f 643 642 640
f 302 297 301
f 381 380 362
f 297 298 301
f 597 596 595
f 596 594 595
f 278 277 261
f 279 278 261
f 280 279 261
f 275 274 261
f 276 275 261
f 277 276 261
f 284 283 261
f 283 282 261
f 282 281 261
f 281 280 261
f 499 498 497
f 546 544 545
f 547 546 545
f 498 496 497
f 225 224 223
f 226 225 223
f 224 225 228
f 229 224 228
f 646 645 640
f 201 200 197
f 230 229 228
f 245 244 243
f 346 345 344
f 347 346 344
f 647 464 465
f 648 647 465
f 199 198 197
f 200 199 197
f 236 235 233
f 235 232 233
f 194 193 191
f 195 194 191
f 235 236 237
f 207 206 205
f 218 217 205
f 217 216 205
f 208 207 205
f 209 208 205
f 210 209 205
f 239 238 237
f 238 235 237
f 211 210 205
f 212 211 205
f 213 212 205
f 216 215 205
f 214 213 205
f 215 214 205
f 473 472 469
f 472 471 469
f 471 470 469
f 642 641 640
f 367 366 362
f 349 345 348
f 345 346 348
f 299 298 295
f 382 381 362
f 298 297 295
f 297 296 295
f 350 349 348
f 476 475 474
f 477 476 474
f 300 299 295
f 388 387 386
f 389 388 386
f 196 195 191
f 595 594 593
f 624 622 623
f 594 592 593
f 527 526 525
f 526 524 525
f 497 496 495
f 390 388 389
f 496 494 495
f 576 574 575
f 577 576 575
f 544 542 543
f 545 544 543
f 625 624 623
f 388 390 391
f 193 192 191
f 296 293 295
f 393 392 390
f 390 392 391
f 293 294 295
f 383 382 362
f 353 352 351
f 352 349 351
f 366 365 362
f 479 478 475
f 476 479 475
f 240 238 239
f 241 240 239
f 242 241 239
f 592 590 591
f 593 592 591
f 626 624 625
f 174 175 192
f 175 191 192
f 528 526 527
f 529 528 527
f 495 494 493
f 494 492 493
f 542 540 541
f 543 542 541
f 627 626 625
f 578 576 577
f 579 578 577
f 392 393 394
f 384 383 362
f 293 291 292
f 294 293 292
f 365 364 362
f 355 352 354
f 482 481 480
f 356 355 354
f 357 356 354
f 486 485 484
f 483 482 480
f 487 486 484
f 395 392 394
f 291 289 292
f 395 394 404
f 628 626 627
f 591 590 589
f 590 588 589
f 531 530 529
f 493 492 491
f 530 528 529
f 385 384 362
f 291 288 289
f 486 398 485
f 405 395 404
f 355 359 358
f 398 399 485
f 288 290 289
f 405 404 402
f 360 355 358
f 364 363 362
f 175 174 173
f 492 490 491
f 629 628 627
f 580 578 579
f 540 538 539
f 541 540 539
f 581 580 579
f 361 360 358
f 399 398 396
f 176 175 173
f 288 287 285
f 287 286 285
f 403 402 400
f 403 405 402
f 360 361 286
f 398 397 396
f 396 397 400
f 287 360 286
f 401 403 400
f 397 401 400
f 177 176 173
f 630 628 629
f 589 588 586
f 588 587 586
f 491 490 488
f 532 530 531
f 533 532 531
f 631 630 629
f 490 489 488
f 582 580 581
f 583 582 581
f 538 537 536
f 539 538 536
f 636 635 634
f 637 636 634
f 632 630 631
f 488 489 535
f 535 534 533
f 534 532 533
f 633 632 631
f 489 534 535
f 537 584 585
f 536 537 585
f 584 582 583
f 585 584 583
f 699 698 697
f 695 696 697
f 697 698 702
f 701 695 697
f 700 699 697
f 696 700 697
f 695 692 694
f 696 695 694
f 692 688 690
f 693 692 690
f 688 691 690
f 688 682 684
f 689 688 684
f 682 687 684
f 687 686 684
f 686 685 684
f 683 682 679
f 682 677 679
f 652 651 649
f 651 650 649
f 677 681 679
f 681 680 679
f 655 654 653
f 654 650 653
f 677 673 675
f 678 677 675
f 657 654 656
f 658 657 656
f 673 676 675
f 674 673 672
f 673 667 672
f 657 658 659
f 660 657 659
f 668 667 666
f 670 669 666
f 669 668 666
f 671 670 666
f 661 660 659
f 660 661 662
f 663 660 662
f 663 665 664
f 742 741 740
f 743 741 742
f 744 743 742
f 741 739 740
f 815 817 816
f 818 815 816
f 812 815 814
f 811 812 814
f 745 743 744
f 746 745 744
f 739 737 738
f 740 739 738
f 813 809 811
f 809 812 811
f 822 821 819
f 821 817 819
f 817 820 819
f 823 822 819
f 748 747 746
f 747 745 746
f 738 737 736
f 737 735 736
f 820 825 824
f 827 826 824
f 806 809 808
f 810 806 808
f 826 820 824
f 828 827 824
f 749 747 748
f 750 749 748
f 736 735 734
f 735 733 734
f 711 710 709
f 832 831 829
f 831 825 829
f 807 802 805
f 825 830 829
f 803 806 805
f 802 803 805
f 712 711 709
f 711 712 728
f 717 716 709
f 716 715 709
f 715 714 709
f 714 713 709
f 713 712 709
f 833 832 829
f 727 726 725
f 712 726 728
f 751 749 750
f 752 751 750
f 733 731 732
f 734 733 732
f 836 830 834
f 830 835 834
f 796 797 802
f 797 803 802
f 804 796 802
f 724 723 721
f 726 723 725
f 719 720 721
f 720 722 721
f 723 719 721
f 753 751 752
f 754 753 752
f 732 731 729
f 731 730 729
f 835 838 837
f 839 835 837
f 798 797 796
f 801 800 796
f 799 798 796
f 800 799 796
f 755 753 754
f 756 755 754
f 837 838 840
f 838 841 840
f 842 837 840
f 791 794 793
f 790 791 793
f 795 790 793
f 778 777 776
f 777 775 776
f 720 719 718
f 719 704 718
f 704 705 718
f 841 844 843
f 840 841 843
f 787 791 788
f 791 790 788
f 845 840 843
f 790 789 788
f 757 755 756
f 758 757 756
f 775 773 774
f 776 775 774
f 792 787 788
f 705 704 703
f 706 705 703
f 783 784 786
f 784 787 786
f 843 844 846
f 844 847 846
f 707 706 703
f 759 757 758
f 774 773 772
f 773 771 772
f 760 759 758
f 780 784 783
f 779 780 783
f 847 849 848
f 785 779 783
f 850 846 848
f 846 847 848
f 771 769 770
f 762 761 760
f 761 759 760
f 772 771 770
f 708 707 703
f 848 849 851
f 853 848 851
f 781 780 779
f 849 852 851
f 782 781 779
f 769 767 768
f 770 769 768
f 763 761 762
f 764 763 762
f 855 781 856
f 857 855 856
f 852 855 854
f 851 852 854
f 767 765 766
f 768 767 766
f 765 763 764
f 766 765 764
f 948 947 946
f 957 956 955
f 942 943 962
f 963 942 962
f 938 937 936
f 939 938 936
f 1079 1078 1066
f 1079 1066 1067
f 1066 1053 1067
f 1078 1065 1066
f 1065 1052 1066
f 1053 1066 1052
f 1079 1090 1078
f 1091 1090 1079
f 1080 1091 1079
f 1080 1079 1067
f 1090 1089 1078
f 1078 1089 1077
f 1078 1077 1065
f 954 928 953
f 951 950 949
f 952 951 949
f 945 935 944
f 1080 1067 1068
f 1067 1055 1068
f 1055 1067 1053
f 1052 1065 1050
f 1064 1050 1065
f 1077 1064 1065
f 955 926 928
f 942 941 940
f 943 942 940
f 944 935 934
f 1090 1100 1089
f 1091 1100 1090
f 926 927 928
f 931 952 949
f 930 931 949
f 933 934 935
f 1053 1052 1051
f 1052 1050 1051
f 1055 1053 1054
f 1054 1053 1051
f 1092 1091 1080
f 1081 1092 1080
f 1081 1080 1068
f 1089 1088 1077
f 1077 1076 1064
f 1077 1088 1076
f 1089 1100 1099
f 1092 1101 1091
f 1091 1101 1100
f 1089 1099 1088
f 1051 1050 1048
f 1050 1049 1048
f 1050 1064 1049
f 1056 1068 1055
f 1056 1055 1054
f 882 926 887
f 927 926 882
f 959 958 940
f 941 959 940
f 897 934 893
f 934 933 893
f 1081 1068 1069
f 1068 1056 1069
f 1063 1049 1064
f 1076 1063 1064
f 1100 1104 1099
f 1101 1104 1100
f 1048 1103 1051
f 1051 1103 1054
f 1093 1101 1092
f 1093 1092 1081
f 1088 1099 1087
f 1088 1087 1076
f 931 930 929
f 932 931 929
f 882 887 886
f 959 961 960
f 958 959 960
f 898 897 893
f 1082 1081 1069
f 1082 1093 1081
f 1076 1075 1063
f 1076 1087 1075
f 1087 1099 1098
f 1099 1104 1098
f 1102 1104 1101
f 1093 1102 1101
f 1057 1056 1054
f 1046 1103 1048
f 1048 1047 1046
f 1049 1047 1048
f 1054 1103 1057
f 1049 1063 1047
f 1058 1069 1056
f 1058 1056 1057
f 860 863 859
f 863 862 859
f 863 865 862
f 865 864 862
f 878 880 877
f 880 879 877
f 875 871 873
f 865 867 864
f 867 866 864
f 881 877 879
f 874 873 871
f 860 859 858
f 861 860 858
f 878 877 876
f 872 871 870
f 872 874 871
f 1038 1040 1039
f 1037 1038 1039
f 1038 1037 1023
f 1024 1038 1023
f 1025 1024 1023
f 1026 1025 1023
f 1025 1026 1041
f 1042 1025 1041
f 1021 1020 1019
f 1022 1021 1019
f 997 996 995
f 998 997 995
f 997 998 973
f 974 997 973
f 975 974 973
f 976 975 973
f 986 985 984
f 987 986 984
f 1005 1004 1002
f 1003 1005 1002
f 990 1003 1002
f 989 990 1002
f 990 989 988
f 991 990 988
f 1006 991 988
f 1007 1006 988
f 1027 1029 1028
f 1028 1018 1027
f 1027 1018 1017
f 1016 1017 1018
f 1017 1016 1015
f 981 1017 1015
f 982 981 977
f 983 982 977
f 978 983 977
f 979 978 977
f 978 979 980
f 980 992 978
f 980 993 992
f 994 992 993
f 1032 1031 1030
f 1033 1032 1030
f 1013 1033 1030
f 1012 1013 1030
f 1013 1012 1011
f 1014 1013 1011
f 1087 1098 1086
f 1098 1104 1097
f 1097 1104 1102
f 1069 1058 1070
f 1082 1069 1070
f 1094 1102 1093
f 1094 1093 1082
f 1045 1103 1046
f 1061 1047 1063
f 1075 1061 1063
f 1087 1086 1075
f 1057 1103 1045
f 884 883 882
f 884 882 888
f 888 882 886
f 891 890 889
f 892 891 889
f 923 922 920
f 921 923 920
f 895 894 893
f 894 899 893
f 899 898 893
f 964 969 968
f 970 964 968
f 972 971 970
f 966 965 964
f 965 966 967
f 1001 999 1000
f 967 1000 999
f 972 1000 967
f 971 1008 969
f 1009 1008 971
f 1008 1009 1010
f 1035 1008 1010
f 1035 1010 1034
f 1034 1036 1035
f 867 869 866
f 869 868 866
f 869 861 868
f 861 858 868
f 1047 1044 1046
f 1047 1061 1044
f 1059 1058 1057
f 1059 1070 1058
f 1086 1098 1085
f 1085 1098 1097
f 1095 1097 1102
f 1095 1102 1094
f 1045 1046 1044
f 1045 1059 1057
f 1083 1082 1070
f 1083 1094 1082
f 1075 1073 1061
f 1075 1086 1073
f 906 921 920
f 905 906 920
f 883 884 885
f 915 916 889
f 890 915 889
f 894 895 896
f 1095 1094 1083
f 1086 1085 1073
f 1085 1097 1096
f 1096 1097 1095
f 1043 1060 1045
f 1045 1044 1043
f 1060 1059 1045
f 1070 1059 1071
f 1083 1070 1071
f 1073 1062 1061
f 1062 1044 1061
f 884 918 885
f 906 905 904
f 907 906 904
f 896 908 894
f 1044 1062 1043
f 1060 1071 1059
f 885 918 917
f 911 910 909
f 915 914 913
f 916 915 913
f 1085 1096 1074
f 1084 1095 1083
f 1096 1095 1084
f 1073 1085 1074
f 1084 1083 1071
f 1073 1074 1062
f 1072 1043 1062
f 1043 1072 1060
f 1071 1060 1072
f 1074 1096 1084
f 919 917 918
f 912 909 910
f 924 907 904
f 925 924 904
f 1074 1072 1062
f 1084 1071 1072
f 902 901 900
f 903 902 900
f 1074 1084 1072
f 1138 1106 1105
f 1105 1137 1138
f 1170 1138 1137
f 1137 1169 1170
f 1202 1170 1169
f 1169 1201 1202
f 1234 1202 1201
f 1201 1233 1234
f 1266 1234 1233
f 1233 1265 1266
f 1298 1266 1265
f 1265 1297 1298
f 1330 1298 1297
f 1297 1329 1330
f 1362 1330 1329
f 1329 1361 1362
f 1394 1362 1361
f 1361 1393 1394
f 1426 1394 1393
f 1393 1425 1426
f 1458 1426 1425
f 1425 1457 1458
f 1490 1458 1457
f 1457 1489 1490
f 1522 1490 1489
f 1489 1521 1522
f 1554 1522 1521
f 1521 1553 1554
f 1586 1554 1553
f 1553 1585 1586
f 1618 1586 1585
f 1585 1617 1618
f 1650 1618 1617
f 1617 1649 1650
f 1682 1650 1649
f 1649 1681 1682
f 1714 1682 1681
f 1681 1713 1714
f 1746 1714 1713
f 1713 1745 1746
f 1778 1746 1745
f 1745 1777 1778
f 1810 1778 1777
f 1777 1809 1810
f 1842 1810 1809
f 1809 1841 1842
f 1874 1842 1841
f 1841 1873 1874
f 1906 1874 1873
f 1873 1905 1906
f 1938 1906 1905
f 1905 1937 1938
f 1970 1938 1937
f 1937 1969 1970
f 2002 1970 1969
f 1969 2001 2002
f 2034 2002 2001
f 2001 2033 2034
f 2066 2034 2033
f 2033 2065 2066
f 2098 2066 2065
f 2065 2097 2098
f 1139 1107 1106
f 1106 1138 1139
f 1171 1139 1138
f 1138 1170 1171
f 1203 1171 1170
f 1170 1202 1203
f 1235 1203 1202
f 1202 1234 1235
f 1267 1235 1234
f 1234 1266 1267
f 1299 1267 1266
f 1266 1298 1299
f 1331 1299 1298
f 1298 1330 1331
f 1363 1331 1330
f 1330 1362 1363
f 1395 1363 1362
f 1362 1394 1395
f 1427 1395 1394
f 1394 1426 1427
f 1459 1427 1426
f 1426 1458 1459
f 1491 1459 1458
f 1458 1490 1491
f 1523 1491 1490
f 1490 1522 1523
f 1555 1523 1522
f 1522 1554 1555
f 1587 1555 1554
f 1554 1586 1587
f 1619 1587 1586
f 1586 1618 1619
f 1651 1619 1618
f 1618 1650 1651
f 1683 1651 1650
f 1650 1682 1683
f 1715 1683 1682
f 1682 1714 1715
f 1747 1715 1714
f 1714 1746 1747
f 1779 1747 1746
f 1746 1778 1779
f 1811 1779 1778
f 1778 1810 1811
f 1843 1811 1810
f 1810 1842 1843
f 1875 1843 1842
f 1842 1874 1875
f 1907 1875 1874
f 1874 1906 1907
f 1939 1907 1906
f 1906 1938 1939
f 1971 1939 1938
f 1938 1970 1971
f 2003 1971 1970
f 1970 2002 2003
f 2035 2003 2002
f 2002 2034 2035
f 2067 2035 2034
f 2034 2066 2067
f 2099 2067 2066
f 2066 2098 2099
f 1140 1108 1107
f 1107 1139 1140
f 1172 1140 1139
f 1139 1171 1172
f 1204 1172 1171
f 1171 1203 1204
f 1236 1204 1203
f 1203 1235 1236
f 1268 1236 1235
f 1235 1267 1268
f 1300 1268 1267
f 1267 1299 1300
f 1332 1300 1299
f 1299 1331 1332
f 1364 1332 1331
f 1331 1363 1364
f 1396 1364 1363
f 1363 1395 1396
f 1428 1396 1395
f 1395 1427 1428
f 1460 1428 1427
f 1427 1459 1460
f 1492 1460 1459
f 1459 1491 1492
f 1524 1492 1491
f 1491 1523 1524
f 1556 1524 1523
f 1523 1555 1556
f 1588 1556 1555
f 1555 1587 1588
f 1620 1588 1587
f 1587 1619 1620
f 1652 1620 1619
f 1619 1651 1652
f 1684 1652 1651
f 1651 1683 1684
f 1716 1684 1683
f 1683 1715 1716
f 1748 1716 1715
f 1715 1747 1748
f 1780 1748 1747
f 1747 1779 1780
f 1812 1780 1779
f 1779 1811 1812
f 1844 1812 1811
f 1811 1843 1844
f 1876 1844 1843
f 1843 1875 1876
f 1908 1876 1875
f 1875 1907 1908
f 1940 1908 1907
f 1907 1939 1940
f 1972 1940 1939
f 1939 1971 1972
f 2004 1972 1971
f 1971 2003 2004
f 2036 2004 2003
f 2003 2035 2036
f 2068 2036 2035
f 2035 2067 2068
f 2100 2068 2067
f 2067 2099 2100
f 1141 1109 1108
f 1108 1140 1141
f 1173 1141 1140
f 1140 1172 1173
f 1205 1173 1172
f 1172 1204 1205
f 1237 1205 1204
f 1204 1236 1237
f 1269 1237 1236
f 1236 1268 1269
f 1301 1269 1268
f 1268 1300 1301
f 1333 1301 1300
f 1300 1332 1333
f 1365 1333 1332
f 1332 1364 1365
f 1397 1365 1364
f 1364 1396 1397
f 1429 1397 1396
f 1396 1428 1429
f 1461 1429 1428
f 1428 1460 1461
f 1493 1461 1460
f 1460 1492 1493
f 1525 1493 1492
f 1492 1524 1525
f 1557 1525 1524
f 1524 1556 1557
f 1589 1557 1556
f 1556 1588 1589
f 1621 1589 1588
f 1588 1620 1621
f 1653 1621 1620
f 1620 1652 1653
f 1685 1653 1652
f 1652 1684 1685
f 1717 1685 1684
f 1684 1716 1717
f 1749 1717 1716
f 1716 1748 1749
f 1781 1749 1748
f 1748 1780 1781
f 1813 1781 1780
f 1780 1812 1813
f 1845 1813 1812
f 1812 1844 1845
f 1877 1845 1844
f 1844 1876 1877
f 1909 1877 1876
f 1876 1908 1909
f 1941 1909 1908
f 1908 1940 1941
f 1973 1941 1940
f 1940 1972 1973
f 2005 1973 1972
f 1972 2004 2005
f 2037 2005 2004
f 2004 2036 2037
f 2069 2037 2036
f 2036 2068 2069
f 2101 2069 2068
f 2068 2100 2101
f 1142 1110 1109
f 1109 1141 1142
f 1174 1142 1141
f 1141 1173 1174
f 1206 1174 1173
f 1173 1205 1206
f 1238 1206 1205
f 1205 1237 1238
f 1270 1238 1237
f 1237 1269 1270
f 1302 1270 1269
f 1269 1301 1302
f 1334 1302 1301
f 1301 1333 1334
f 1366 1334 1333
f 1333 1365 1366
f 1398 1366 1365
f 1365 1397 1398
f 1430 1398 1397
f 1397 1429 1430
f 1462 1430 1429
f 1429 1461 1462
f 1494 1462 1461
f 1461 1493 1494
f 1526 1494 1493
f 1493 1525 1526
f 1558 1526 1525
f 1525 1557 1558
f 1590 1558 1557
f 1557 1589 1590
f 1622 1590 1589
f 1589 1621 1622
f 1654 1622 1621
f 1621 1653 1654
f 1686 1654 1653
f 1653 1685 1686
f 1718 1686 1685
f 1685 1717 1718
f 1750 1718 1717
f 1717 1749 1750
f 1782 1750 1749
f 1749 1781 1782
f 1814 1782 1781
f 1781 1813 1814
f 1846 1814 1813
f 1813 1845 1846
f 1878 1846 1845
f 1845 1877 1878
f 1910 1878 1877
f 1877 1909 1910
f 1942 1910 1909
f 1909 1941 1942
f 1974 1942 1941
f 1941 1973 1974
f 2006 1974 1973
f 1973 2005 2006
f 2038 2006 2005
f 2005 2037 2038
f 2070 2038 2037
f 2037 2069 2070
f 2102 2070 2069
f 2069 2101 2102
f 1143 1111 1110
f 1110 1142 1143
f 1175 1143 1142
f 1142 1174 1175
f 1207 1175 1174
f 1174 1206 1207
f 1239 1207 1206
f 1206 1238 1239
f 1271 1239 1238
f 1238 1270 1271
f 1303 1271 1270
f 1270 1302 1303
f 1335 1303 1302
f 1302 1334 1335
f 1367 1335 1334
f 1334 1366 1367
f 1399 1367 1366
f 1366 1398 1399
f 1431 1399 1398
f 1398 1430 1431
f 1463 1431 1430
f 1430 1462 1463
f 1495 1463 1462
f 1462 1494 1495
f 1527 1495 1494
f 1494 1526 1527
f 1559 1527 1526
f 1526 1558 1559
f 1591 1559 1558
f 1558 1590 1591
f 1623 1591 1590
f 1590 1622 1623
f 1655 1623 1622
f 1622 1654 1655
f 1687 1655 1654
f 1654 1686 1687
f 1719 1687 1686
f 1686 1718 1719
f 1751 1719 1718
f 1718 1750 1751
f 1783 1751 1750
f 1750 1782 1783
f 1815 1783 1782
f 1782 1814 1815
f 1847 1815 1814
f 1814 1846 1847
f 1879 1847 1846
f 1846 1878 1879
f 1911 1879 1878
f 1878 1910 1911
f 1943 1911 1910
f 1910 1942 1943
f 1975 1943 1942
f 1942 1974 1975
f 2007 1975 1974
f 1974 2006 2007
f 2039 2007 2006
f 2006 2038 2039
f 2071 2039 2038
f 2038 2070 2071
f 2103 2071 2070
f 2070 2102 2103
f 1144 1112 1111
f 1111 1143 1144
f 1176 1144 1143
f 1143 1175 1176
f 1208 1176 1175
f 1175 1207 1208
f 1240 1208 1207
f 1207 1239 1240
f 1272 1240 1239
f 1239 1271 1272
f 1304 1272 1271
f 1271 1303 1304
f 1336 1304 1303
f 1303 1335 1336
f 1368 1336 1335
f 1335 1367 1368
f 1400 1368 1367
f 1367 1399 1400
f 1432 1400 1399
f 1399 1431 1432
f 1464 1432 1431
f 1431 1463 1464
f 1496 1464 1463
f 1463 1495 1496
f 1528 1496 1495
f 1495 1527 1528
f 1560 1528 1527
f 1527 1559 1560
f 1592 1560 1559
f 1559 1591 1592
f 1624 1592 1591
f 1591 1623 1624
f 1656 1624 1623
f 1623 1655 1656
f 1688 1656 1655
f 1655 1687 1688
f 1720 1688 1687
f 1687 1719 1720
f 1752 1720 1719
f 1719 1751 1752
f 1784 1752 1751
f 1751 1783 1784
f 1816 1784 1783
f 1783 1815 1816
f 1848 1816 1815
f 1815 1847 1848
f 1880 1848 1847
f 1847 1879 1880
f 1912 1880 1879
f 1879 1911 1912
f 1944 1912 1911
f 1911 1943 1944
f 1976 1944 1943
f 1943 1975 1976
f 2008 1976 1975
f 1975 2007 2008
f 2040 2008 2007
f 2007 2039 2040
f 2072 2040 2039
f 2039 2071 2072
f 2104 2072 2071
f 2071 2103 2104
f 1145 1113 1112
f 1112 1144 1145
f 1177 1145 1144
f 1144 1176 1177
f 1209 1177 1176
f 1176 1208 1209
f 1241 1209 1208
f 1208 1240 1241
f 1273 1241 1240
f 1240 1272 1273
f 1305 1273 1272
f 1272 1304 1305
f 1337 1305 1304
f 1304 1336 1337
f 1369 1337 1336
f 1336 1368 1369
f 1401 1369 1368
f 1368 1400 1401
f 1433 1401 1400
f 1400 1432 1433
f 1465 1433 1432
f 1432 1464 1465
f 1497 1465 1464
f 1464 1496 1497
f 1529 1497 1496
f 1496 1528 1529
f 1561 1529 1528
f 1528 1560 1561
f 1593 1561 1560
f 1560 1592 1593
f 1625 1593 1592
f 1592 1624 1625
f 1657 1625 1624
f 1624 1656 1657
f 1689 1657 1656
f 1656 1688 1689
f 1721 1689 1688
f 1688 1720 1721
f 1753 1721 1720
f 1720 1752 1753
f 1785 1753 1752
f 1752 1784 1785
f 1817 1785 1784
f 1784 1816 1817
f 1849 1817 1816
f 1816 1848 1849
f 1881 1849 1848
f 1848 1880 1881
f 1913 1881 1880
f 1880 1912 1913
f 1945 1913 1912
f 1912 1944 1945
f 1977 1945 1944
f 1944 1976 1977
f 2009 1977 1976
f 1976 2008 2009
f 2041 2009 2008
f 2008 2040 2041
f 2073 2041 2040
f 2040 2072 2073
f 2105 2073 2072
f 2072 2104 2105
f 1146 1114 1113
f 1113 1145 1146
f 1178 1146 1145
f 1145 1177 1178
f 1210 1178 1177
f 1177 1209 1210
f 1242 1210 1209
f 1209 1241 1242
f 1274 1242 1241
f 1241 1273 1274
f 1306 1274 1273
f 1273 1305 1306
f 1338 1306 1305
f 1305 1337 1338
f 1370 1338 1337
f 1337 1369 1370
f 1402 1370 1369
f 1369 1401 1402
f 1434 1402 1401
f 1401 1433 1434
f 1466 1434 1433
f 1433 1465 1466
f 1498 1466 1465
f 1465 1497 1498
f 1530 1498 1497
f 1497 1529 1530
f 1562 1530 1529
f 1529 1561 1562
f 1594 1562 1561
f 1561 1593 1594
f 1626 1594 1593
f 1593 1625 1626
f 1658 1626 1625
f 1625 1657 1658
f 1690 1658 1657
f 1657 1689 1690
f 1722 1690 1689
f 1689 1721 1722
f 1754 1722 1721
f 1721 1753 1754
f 1786 1754 1753
f 1753 1785 1786
f 1818 1786 1785
f 1785 1817 1818
f 1850 1818 1817
f 1817 1849 1850
f 1882 1850 1849
f 1849 1881 1882
f 1914 1882 1881
f 1881 1913 1914
f 1946 1914 1913
f 1913 1945 1946
f 1978 1946 1945
f 1945 1977 1978
f 2010 1978 1977
f 1977 2009 2010
f 2042 2010 2009
f 2009 2041 2042
f 2074 2042 2041
f 2041 2073 2074
f 2106 2074 2073
f 2073 2105 2106
f 1147 1115 1114
f 1114 1146 1147
f 1179 1147 1146
f 1146 1178 1179
f 1211 1179 1178
f 1178 1210 1211
f 1243 1211 1210
f 1210 1242 1243
f 1275 1243 1242
f 1242 1274 1275
f 1307 1275 1274
f 1274 1306 1307
f 1339 1307 1306
f 1306 1338 1339
f 1371 1339 1338
f 1338 1370 1371
f 1403 1371 1370
f 1370 1402 1403
f 1435 1403 1402
f 1402 1434 1435
f 1467 1435 1434
f 1434 1466 1467
f 1499 1467 1466
f 1466 1498 1499
f 1531 1499 1498
f 1498 1530 1531
f 1563 1531 1530
f 1530 1562 1563
f 1595 1563 1562
f 1562 1594 1595
f 1627 1595 1594
f 1594 1626 1627
f 1659 1627 1626
f 1626 1658 1659
f 1691 1659 1658
f 1658 1690 1691
f 1723 1691 1690
f 1690 1722 1723
f 1755 1723 1722
f 1722 1754 1755
f 1787 1755 1754
f 1754 1786 1787
f 1819 1787 1786
f 1786 1818 1819
f 1851 1819 1818
f 1818 1850 1851
f 1883 1851 1850
f 1850 1882 1883
f 1915 1883 1882
f 1882 1914 1915
f 1947 1915 1914
f 1914 1946 1947
f 1979 1947 1946
f 1946 1978 1979
f 2011 1979 1978
f 1978 2010 2011
f 2043 2011 2010
f 2010 2042 2043
f 2075 2043 2042
f 2042 2074 2075
f 2107 2075 2074
f 2074 2106 2107
f 1148 1116 1115
f 1115 1147 1148
f 1180 1148 1147
f 1147 1179 1180
f 1212 1180 1179
f 1179 1211 1212
f 1244 1212 1211
f 1211 1243 1244
f 1276 1244 1243
f 1243 1275 1276
f 1308 1276 1275
f 1275 1307 1308
f 1340 1308 1307
f 1307 1339 1340
f 1372 1340 1339
f 1339 1371 1372
f 1404 1372 1371
f 1371 1403 1404
f 1436 1404 1403
f 1403 1435 1436
f 1468 1436 1435
f 1435 1467 1468
f 1500 1468 1467
f 1467 1499 1500
f 1532 1500 1499
f 1499 1531 1532
f 1564 1532 1531
f 1531 1563 1564
f 1596 1564 1563
f 1563 1595 1596
f 1628 1596 1595
f 1595 1627 1628
f 1660 1628 1627
f 1627 1659 1660
f 1692 1660 1659
f 1659 1691 1692
f 1724 1692 1691
f 1691 1723 1724
f 1756 1724 1723
f 1723 1755 1756
f 1788 1756 1755
f 1755 1787 1788
f 1820 1788 1787
f 1787 1819 1820
f 1852 1820 1819
f 1819 1851 1852
f 1884 1852 1851
f 1851 1883 1884
f 1916 1884 1883
f 1883 1915 1916
f 1948 1916 1915
f 1915 1947 1948
f 1980 1948 1947
f 1947 1979 1980
f 2012 1980 1979
f 1979 2011 2012
f 2044 2012 2011
f 2011 2043 2044
f 2076 2044 2043
f 2043 2075 2076
f 2108 2076 2075
f 2075 2107 2108
f 1149 1117 1116
f 1116 1148 1149
f 1181 1149 1148
f 1148 1180 1181
f 1213 1181 1180
f 1180 1212 1213
f 1245 1213 1212
f 1212 1244 1245
f 1277 1245 1244
f 1244 1276 1277
f 1309 1277 1276
f 1276 1308 1309
f 1341 1309 1308
f 1308 1340 1341
f 1373 1341 1340
f 1340 1372 1373
f 1405 1373 1372
f 1372 1404 1405
f 1437 1405 1404
f 1404 1436 1437
f 1469 1437 1436
f 1436 1468 1469
f 1501 1469 1468
f 1468 1500 1501
f 1533 1501 1500
f 1500 1532 1533
f 1565 1533 1532
f 1532 1564 1565
f 1597 1565 1564
f 1564 1596 1597
f 1629 1597 1596
f 1596 1628 1629
f 1661 1629 1628
f 1628 1660 1661
f 1693 1661 1660
f 1660 1692 1693
f 1725 1693 1692
f 1692 1724 1725
f 1757 1725 1724
f 1724 1756 1757
f 1789 1757 1756
f 1756 1788 1789
f 1821 1789 1788
f 1788 1820 1821
f 1853 1821 1820
f 1820 1852 1853
f 1885 1853 1852
f 1852 1884 1885
f 1917 1885 1884
f 1884 1916 1917
f 1949 1917 1916
f 1916 1948 1949
f 1981 1949 1948
f 1948 1980 1981
f 2013 1981 1980
f 1980 2012 2013
f 2045 2013 2012
f 2012 2044 2045
f 2077 2045 2044
f 2044 2076 2077
f 2109 2077 2076
f 2076 2108 2109
f 1150 1118 1117
f 1117 1149 1150
f 1182 1150 1149
f 1149 1181 1182
f 1214 1182 1181
f 1181 1213 1214
f 1246 1214 1213
f 1213 1245 1246
f 1278 1246 1245
f 1245 1277 1278
f 1310 1278 1277
f 1277 1309 1310
f 1342 1310 1309
f 1309 1341 1342
f 1374 1342 1341
f 1341 1373 1374
f 1406 1374 1373
f 1373 1405 1406
f 1438 1406 1405
f 1405 1437 1438
f 1470 1438 1437
f 1437 1469 1470
f 1502 1470 1469
f 1469 1501 1502
f 1534 1502 1501
f 1501 1533 1534
f 1566 1534 1533
f 1533 1565 1566
f 1598 1566 1565
f 1565 1597 1598
f 1630 1598 1597
f 1597 1629 1630
f 1662 1630 1629
f 1629 1661 1662
f 1694 1662 1661
f 1661 1693 1694
f 1726 1694 1693
f 1693 1725 1726
f 1758 1726 1725
f 1725 1757 1758
f 1790 1758 1757
f 1757 1789 1790
f 1822 1790 1789
f 1789 1821 1822
f 1854 1822 1821
f 1821 1853 1854
f 1886 1854 1853
f 1853 1885 1886
f 1918 1886 1885
f 1885 1917 1918
f 1950 1918 1917
f 1917 1949 1950
f 1982 1950 1949
f 1949 1981 1982
f 2014 1982 1981
f 1981 2013 2014
f 2046 2014 2013
f 2013 2045 2046
f 2078 2046 2045
f 2045 2077 2078
f 2110 2078 2077
f 2077 2109 2110
f 1151 1119 1118
f 1118 1150 1151
f 1183 1151 1150
f 1150 1182 1183
f 1215 1183 1182
f 1182 1214 1215
f 1247 1215 1214
f 1214 1246 1247
f 1279 1247 1246
f 1246 1278 1279
f 1311 1279 1278
f 1278 1310 1311
f 1343 1311 1310
f 1310 1342 1343
f 1375 1343 1342
f 1342 1374 1375
f 1407 1375 1374
f 1374 1406 1407
f 1439 1407 1406
f 1406 1438 1439
f 1471 1439 1438
f 1438 1470 1471
f 1503 1471 1470
f 1470 1502 1503
f 1535 1503 1502
f 1502 1534 1535
f 1567 1535 1534
f 1534 1566 1567
f 1599 1567 1566
f 1566 1598 1599
f 1631 1599 1598
f 1598 1630 1631
f 1663 1631 1630
f 1630 1662 1663
f 1695 1663 1662
f 1662 1694 1695
f 1727 1695 1694
f 1694 1726 1727
f 1759 1727 1726
f 1726 1758 1759
f 1791 1759 1758
f 1758 1790 1791
f 1823 1791 1790
f 1790 1822 1823
f 1855 1823 1822
f 1822 1854 1855
f 1887 1855 1854
f 1854 1886 1887
f 1919 1887 1886
f 1886 1918 1919
f 1951 1919 1918
f 1918 1950 1951
f 1983 1951 1950
f 1950 1982 1983
f 2015 1983 1982
f 1982 2014 2015
f 2047 2015 2014
f 2014 2046 2047
f 2079 2047 2046
f 2046 2078 2079
f 2111 2079 2078
f 2078 2110 2111
f 1152 1120 1119
f 1119 1151 1152
f 1184 1152 1151
f 1151 1183 1184
f 1216 1184 1183
f 1183 1215 1216
f 1248 1216 1215
f 1215 1247 1248
f 1280 1248 1247
f 1247 1279 1280
f 1312 1280 1279
f 1279 1311 1312
f 1344 1312 1311
f 1311 1343 1344
f 1376 1344 1343
f 1343 1375 1376
f 1408 1376 1375
f 1375 1407 1408
f 1440 1408 1407
f 1407 1439 1440
f 1472 1440 1439
f 1439 1471 1472
f 1504 1472 1471
f 1471 1503 1504
f 1536 1504 1503
f 1503 1535 1536
f 1568 1536 1535
f 1535 1567 1568
f 1600 1568 1567
f 1567 1599 1600
f 1632 1600 1599
f 1599 1631 1632
f 1664 1632 1631
f 1631 1663 1664
f 1696 1664 1663
f 1663 1695 1696
f 1728 1696 1695
f 1695 1727 1728
f 1760 1728 1727
f 1727 1759 1760
f 1792 1760 1759
f 1759 1791 1792
f 1824 1792 1791
f 1791 1823 1824
f 1856 1824 1823
f 1823 1855 1856
f 1888 1856 1855
f 1855 1887 1888
f 1920 1888 1887
f 1887 1919 1920
f 1952 1920 1919
f 1919 1951 1952
f 1984 1952 1951
f 1951 1983 1984
f 2016 1984 1983
f 1983 2015 2016
f 2048 2016 2015
f 2015 2047 2048
f 2080 2048 2047
f 2047 2079 2080
f 2112 2080 2079
f 2079 2111 2112
f 1153 1121 1120
f 1120 1152 1153
f 1185 1153 1152
f 1152 1184 1185
f 1217 1185 1184
f 1184 1216 1217
f 1249 1217 1216
f 1216 1248 1249
f 1281 1249 1248
f 1248 1280 1281
f 1313 1281 1280
f 1280 1312 1313
f 1345 1313 1312
f 1312 1344 1345
f 1377 1345 1344
f 1344 1376 1377
f 1409 1377 1376
f 1376 1408 1409
f 1441 1409 1408
f 1408 1440 1441
f 1473 1441 1440
f 1440 1472 1473
f 1505 1473 1472
f 1472 1504 1505
f 1537 1505 1504
f 1504 1536 1537
f 1569 1537 1536
f 1536 1568 1569
f 1601 1569 1568
f 1568 1600 1601
f 1633 1601 1600
f 1600 1632 1633
f 1665 1633 1632
f 1632 1664 1665
f 1697 1665 1664
f 1664 1696 1697
f 1729 1697 1696
f 1696 1728 1729
f 1761 1729 1728
f 1728 1760 1761
f 1793 1761 1760
f 1760 1792 1793
f 1825 1793 1792
f 1792 1824 1825
f 1857 1825 1824
f 1824 1856 1857
f 1889 1857 1856
f 1856 1888 1889
f 1921 1889 1888
f 1888 1920 1921
f 1953 1921 1920
f 1920 1952 1953
f 1985 1953 1952
f 1952 1984 1985
f 2017 1985 1984
f 1984 2016 2017
f 2049 2017 2016
f 2016 2048 2049
f 2081 2049 2048
f 2048 2080 2081
f 2113 2081 2080
f 2080 2112 2113
f 1154 1122 1121
f 1121 1153 1154
f 1186 1154 1153
f 1153 1185 1186
f 1218 1186 1185
f 1185 1217 1218
f 1250 1218 1217
f 1217 1249 1250
f 1282 1250 1249
f 1249 1281 1282
f 1314 1282 1281
f 1281 1313 1314
f 1346 1314 1313
f 1313 1345 1346
f 1378 1346 1345
f 1345 1377 1378
f 1410 1378 1377
f 1377 1409 1410
f 1442 1410 1409
f 1409 1441 1442
f 1474 1442 1441
f 1441 1473 1474
f 1506 1474 1473
f 1473 1505 1506
f 1538 1506 1505
f 1505 1537 1538
f 1570 1538 1537
f 1537 1569 1570
f 1602 1570 1569
f 1569 1601 1602
f 1634 1602 1601
f 1601 1633 1634
f 1666 1634 1633
f 1633 1665 1666
f 1698 1666 1665
f 1665 1697 1698
f 1730 1698 1697
f 1697 1729 1730
f 1762 1730 1729
f 1729 1761 1762
f 1794 1762 1761
f 1761 1793 1794
f 1826 1794 1793
f 1793 1825 1826
f 1858 1826 1825
f 1825 1857 1858
f 1890 1858 1857
f 1857 1889 1890
f 1922 1890 1889
f 1889 1921 1922
f 1954 1922 1921
f 1921 1953 1954
f 1986 1954 1953
f 1953 1985 1986
f 2018 1986 1985
f 1985 2017 2018
f 2050 2018 2017
f 2017 2049 2050
f 2082 2050 2049
f 2049 2081 2082
f 2114 2082 2081
f 2081 2113 2114
f 1155 1123 1122
f 1122 1154 1155
f 1187 1155 1154
f 1154 1186 1187
f 1219 1187 1186
f 1186 1218 1219
f 1251 1219 1218
f 1218 1250 1251
f 1283 1251 1250
f 1250 1282 1283
f 1315 1283 1282
f 1282 1314 1315
f 1347 1315 1314
f 1314 1346 1347
f 1379 1347 1346
f 1346 1378 1379
f 1411 1379 1378
f 1378 1410 1411
f 1443 1411 1410
f 1410 1442 1443
f 1475 1443 1442
f 1442 1474 1475
f 1507 1475 1474
f 1474 1506 1507
f 1539 1507 1506
f 1506 1538 1539
f 1571 1539 1538
f 1538 1570 1571
f 1603 1571 1570
f 1570 1602 1603
f 1635 1603 1602
f 1602 1634 1635
f 1667 1635 1634
f 1634 1666 1667
f 1699 1667 1666
f 1666 1698 1699
f 1731 1699 1698
f 1698 1730 1731
f 1763 1731 1730
f 1730 1762 1763
f 1795 1763 1762
f 1762 1794 1795
f 1827 1795 1794
f 1794 1826 1827
f 1859 1827 1826
f 1826 1858 1859
f 1891 1859 1858
f 1858 1890 1891
f 1923 1891 1890
f 1890 1922 1923
f 1955 1923 1922
f 1922 1954 1955
f 1987 1955 1954
f 1954 1986 1987
f 2019 1987 1986
f 1986 2018 2019
f 2051 2019 2018
f 2018 2050 2051
f 2083 2051 2050
f 2050 2082 2083
f 2115 2083 2082
f 2082 2114 2115
f 1156 1124 1123
f 1123 1155 1156
f 1188 1156 1155
f 1155 1187 1188
f 1220 1188 1187
f 1187 1219 1220
f 1252 1220 1219
f 1219 1251 1252
f 1284 1252 1251
f 1251 1283 1284
f 1316 1284 1283
f 1283 1315 1316
f 1348 1316 1315
f 1315 1347 1348
f 1380 1348 1347
f 1347 1379 1380
f 1412 1380 1379
f 1379 1411 1412
f 1444 1412 1411
f 1411 1443 1444
f 1476 1444 1443
f 1443 1475 1476
f 1508 1476 1475
f 1475 1507 1508
f 1540 1508 1507
f 1507 1539 1540
f 1572 1540 1539
f 1539 1571 1572
f 1604 1572 1571
f 1571 1603 1604
f 1636 1604 1603
f 1603 1635 1636
f 1668 1636 1635
f 1635 1667 1668
f 1700 1668 1667
f 1667 1699 1700
f 1732 1700 1699
f 1699 1731 1732
f 1764 1732 1731
f 1731 1763 1764
f 1796 1764 1763
f 1763 1795 1796
f 1828 1796 1795
f 1795 1827 1828
f 1860 1828 1827
f 1827 1859 1860
f 1892 1860 1859
f 1859 1891 1892
f 1924 1892 1891
f 1891 1923 1924
f 1956 1924 1923
f 1923 1955 1956
f 1988 1956 1955
f 1955 1987 1988
f 2020 1988 1987
f 1987 2019 2020
f 2052 2020 2019
f 2019 2051 2052
f 2084 2052 2051
f 2051 2083 2084
f 2116 2084 2083
f 2083 2115 2116
f 1157 1125 1124
f 1124 1156 1157
f 1189 1157 1156
f 1156 1188 1189
f 1221 1189 1188
f 1188 1220 1221
f 1253 1221 1220
f 1220 1252 1253
f 1285 1253 1252
f 1252 1284 1285
f 1317 1285 1284
f 1284 1316 1317
f 1349 1317 1316
f 1316 1348 1349
f 1381 1349 1348
f 1348 1380 1381
f 1413 1381 1380
f 1380 1412 1413
f 1445 1413 1412
f 1412 1444 1445
f 1477 1445 1444
f 1444 1476 1477
f 1509 1477 1476
f 1476 1508 1509
f 1541 1509 1508
f 1508 1540 1541
f 1573 1541 1540
f 1540 1572 1573
f 1605 1573 1572
f 1572 1604 1605
f 1637 1605 1604
f 1604 1636 1637
f 1669 1637 1636
f 1636 1668 1669
f 1701 1669 1668
f 1668 1700 1701
f 1733 1701 1700
f 1700 1732 1733
f 1765 1733 1732
f 1732 1764 1765
f 1797 1765 1764
f 1764 1796 1797
f 1829 1797 1796
f 1796 1828 1829
f 1861 1829 1828
f 1828 1860 1861
f 1893 1861 1860
f 1860 1892 1893
f 1925 1893 1892
f 1892 1924 1925
f 1957 1925 1924
f 1924 1956 1957
f 1989 1957 1956
f 1956 1988 1989
f 2021 1989 1988
f 1988 2020 2021
f 2053 2021 2020
f 2020 2052 2053
f 2085 2053 2052
f 2052 2084 2085
f 2117 2085 2084
f 2084 2116 2117
f 1158 1126 1125
f 1125 1157 1158
f 1190 1158 1157
f 1157 1189 1190
f 1222 1190 1189
f 1189 1221 1222
f 1254 1222 1221
f 1221 1253 1254
f 1286 1254 1253
f 1253 1285 1286
f 1318 1286 1285
f 1285 1317 1318
f 1350 1318 1317
f 1317 1349 1350
f 1382 1350 1349
f 1349 1381 1382
f 1414 1382 1381
f 1381 1413 1414
f 1446 1414 1413
f 1413 1445 1446
f 1478 1446 1445
f 1445 1477 1478
f 1510 1478 1477
f 1477 1509 1510
f 1542 1510 1509
f 1509 1541 1542
f 1574 1542 1541
f 1541 1573 1574
f 1606 1574 1573
f 1573 1605 1606
f 1638 1606 1605
f 1605 1637 1638
f 1670 1638 1637
f 1637 1669 1670
f 1702 1670 1669
f 1669 1701 1702
f 1734 1702 1701
f 1701 1733 1734
f 1766 1734 1733
f 1733 1765 1766
f 1798 1766 1765
f 1765 1797 1798
f 1830 1798 1797
f 1797 1829 1830
f 1862 1830 1829
f 1829 1861 1862
f 1894 1862 1861
f 1861 1893 1894
f 1926 1894 1893
f 1893 1925 1926
f 1958 1926 1925
f 1925 1957 1958
f 1990 1958 1957
f 1957 1989 1990
f 2022 1990 1989
f 1989 2021 2022
f 2054 2022 2021
f 2021 2053 2054
f 2086 2054 2053
f 2053 2085 2086
f 2118 2086 2085
f 2085 2117 2118
f 1159 1127 1126
f 1126 1158 1159
f 1191 1159 1158
f 1158 1190 1191
f 1223 1191 1190
f 1190 1222 1223
f 1255 1223 1222
f 1222 1254 1255
f 1287 1255 1254
f 1254 1286 1287
f 1319 1287 1286
f 1286 1318 1319
f 1351 1319 1318
f 1318 1350 1351
f 1383 1351 1350
f 1350 1382 1383
f 1415 1383 1382
f 1382 1414 1415
f 1447 1415 1414
f 1414 1446 1447
f 1479 1447 1446
f 1446 1478 1479
f 1511 1479 1478
f 1478 1510 1511
f 1543 1511 1510
f 1510 1542 1543
f 1575 1543 1542
f 1542 1574 1575
f 1607 1575 1574
f 1574 1606 1607
f 1639 1607 1606
f 1606 1638 1639
f 1671 1639 1638
f 1638 1670 1671
f 1703 1671 1670
f 1670 1702 1703
f 1735 1703 1702
f 1702 1734 1735
f 1767 1735 1734
f 1734 1766 1767
f 1799 1767 1766
f 1766 1798 1799
f 1831 1799 1798
f 1798 1830 1831
f 1863 1831 1830
f 1830 1862 1863
f 1895 1863 1862
f 1862 1894 1895
f 1927 1895 1894
f 1894 1926 1927
f 1959 1927 1926
f 1926 1958 1959
f 1991 1959 1958
f 1958 1990 1991
f 2023 1991 1990
f 1990 2022 2023
f 2055 2023 2022
f 2022 2054 2055
f 2087 2055 2054
f 2054 2086 2087
f 2119 2087 2086
f 2086 2118 2119
f 1160 1128 1127
f 1127 1159 1160
f 1192 1160 1159
f 1159 1191 1192
f 1224 1192 1191
f 1191 1223 1224
f 1256 1224 1223
f 1223 1255 1256
f 1288 1256 1255
f 1255 1287 1288
f 1320 1288 1287
f 1287 1319 1320
f 1352 1320 1319
f 1319 1351 1352
f 1384 1352 1351
f 1351 1383 1384
f 1416 1384 1383
f 1383 1415 1416
f 1448 1416 1415
f 1415 1447 1448
f 1480 1448 1447
f 1447 1479 1480
f 1512 1480 1479
f 1479 1511 1512
f 1544 1512 1511
f 1511 1543 1544
f 1576 1544 1543
f 1543 1575 1576
f 1608 1576 1575
f 1575 1607 1608
f 1640 1608 1607
f 1607 1639 1640
f 1672 1640 1639
f 1639 1671 1672
f 1704 1672 1671
f 1671 1703 1704
f 1736 1704 1703
f 1703 1735 1736
f 1768 1736 1735
f 1735 1767 1768
f 1800 1768 1767
f 1767 1799 1800
f 1832 1800 1799
f 1799 1831 1832
f 1864 1832 1831
f 1831 1863 1864
f 1896 1864 1863
f 1863 1895 1896
f 1928 1896 1895
f 1895 1927 1928
f 1960 1928 1927
f 1927 1959 1960
f 1992 1960 1959
f 1959 1991 1992
f 2024 1992 1991
f 1991 2023 2024
f 2056 2024 2023
f 2023 2055 2056
f 2088 2056 2055
f 2055 2087 2088
f 2120 2088 2087
f 2087 2119 2120
f 1161 1129 1128
f 1128 1160 1161
f 1193 1161 1160
f 1160 1192 1193
f 1225 1193 1192
f 1192 1224 1225
f 1257 1225 1224
f 1224 1256 1257
f 1289 1257 1256
f 1256 1288 1289
f 1321 1289 1288
f 1288 1320 1321
f 1353 1321 1320
f 1320 1352 1353
f 1385 1353 1352
f 1352 1384 1385
f 1417 1385 1384
f 1384 1416 1417
f 1449 1417 1416
f 1416 1448 1449
f 1481 1449 1448
f 1448 1480 1481
f 1513 1481 1480
f 1480 1512 1513
f 1545 1513 1512
f 1512 1544 1545
f 1577 1545 1544
f 1544 1576 1577
f 1609 1577 1576
f 1576 1608 1609
f 1641 1609 1608
f 1608 1640 1641
f 1673 1641 1640
f 1640 1672 1673
f 1705 1673 1672
f 1672 1704 1705
f 1737 1705 1704
f 1704 1736 1737
f 1769 1737 1736
f 1736 1768 1769
f 1801 1769 1768
f 1768 1800 1801
f 1833 1801 1800
f 1800 1832 1833
f 1865 1833 1832
f 1832 1864 1865
f 1897 1865 1864
f 1864 1896 1897
f 1929 1897 1896
f 1896 1928 1929
f 1961 1929 1928
f 1928 1960 1961
f 1993 1961 1960
f 1960 1992 1993
f 2025 1993 1992
f 1992 2024 2025
f 2057 2025 2024
f 2024 2056 2057
f 2089 2057 2056
f 2056 2088 2089
f 2121 2089 2088
f 2088 2120 2121
f 1162 1130 1129
f 1129 1161 1162
f 1194 1162 1161
f 1161 1193 1194
f 1226 1194 1193
f 1193 1225 1226
f 1258 1226 1225
f 1225 1257 1258
f 1290 1258 1257
f 1257 1289 1290
f 1322 1290 1289
f 1289 1321 1322
f 1354 1322 1321
f 1321 1353 1354
f 1386 1354 1353
f 1353 1385 1386
f 1418 1386 1385
f 1385 1417 1418
f 1450 1418 1417
f 1417 1449 1450
f 1482 1450 1449
f 1449 1481 1482
f 1514 1482 1481
f 1481 1513 1514
f 1546 1514 1513
f 1513 1545 1546
f 1578 1546 1545
f 1545 1577 1578
f 1610 1578 1577
f 1577 1609 1610
f 1642 1610 1609
f 1609 1641 1642
f 1674 1642 1641
f 1641 1673 1674
f 1706 1674 1673
f 1673 1705 1706
f 1738 1706 1705
f 1705 1737 1738
f 1770 1738 1737
f 1737 1769 1770
f 1802 1770 1769
f 1769 1801 1802
f 1834 1802 1801
f 1801 1833 1834
f 1866 1834 1833
f 1833 1865 1866
f 1898 1866 1865
f 1865 1897 1898
f 1930 1898 1897
f 1897 1929 1930
f 1962 1930 1929
f 1929 1961 1962
f 1994 1962 1961
f 1961 1993 1994
f 2026 1994 1993
f 1993 2025 2026
f 2058 2026 2025
f 2025 2057 2058
f 2090 2058 2057
f 2057 2089 2090
f 2122 2090 2089
f 2089 2121 2122
f 1163 1131 1130
f 1130 1162 1163
f 1195 1163 1162
f 1162 1194 1195
f 1227 1195 1194
f 1194 1226 1227
f 1259 1227 1226
f 1226 1258 1259
f 1291 1259 1258
f 1258 1290 1291
f 1323 1291 1290
f 1290 1322 1323
f 1355 1323 1322
f 1322 1354 1355
f 1387 1355 1354
f 1354 1386 1387
f 1419 1387 1386
f 1386 1418 1419
f 1451 1419 1418
f 1418 1450 1451
f 1483 1451 1450
f 1450 1482 1483
f 1515 1483 1482
f 1482 1514 1515
f 1547 1515 1514
f 1514 1546 1547
f 1579 1547 1546
f 1546 1578 1579
f 1611 1579 1578
f 1578 1610 1611
f 1643 1611 1610
f 1610 1642 1643
f 1675 1643 1642
f 1642 1674 1675
f 1707 1675 1674
f 1674 1706 1707
f 1739 1707 1706
f 1706 1738 1739
f 1771 1739 1738
f 1738 1770 1771
f 1803 1771 1770
f 1770 1802 1803
f 1835 1803 1802
f 1802 1834 1835
f 1867 1835 1834
f 1834 1866 1867
f 1899 1867 1866
f 1866 1898 1899
f 1931 1899 1898
f 1898 1930 1931
f 1963 1931 1930
f 1930 1962 1963
f 1995 1963 1962
f 1962 1994 1995
f 2027 1995 1994
f 1994 2026 2027
f 2059 2027 2026
f 2026 2058 2059
f 2091 2059 2058
f 2058 2090 2091
f 2123 2091 2090
f 2090 2122 2123
f 1164 1132 1131
f 1131 1163 1164
f 1196 1164 1163
f 1163 1195 1196
f 1228 1196 1195
f 1195 1227 1228
f 1260 1228 1227
f 1227 1259 1260
f 1292 1260 1259
f 1259 1291 1292
f 1324 1292 1291
f 1291 1323 1324
f 1356 1324 1323
f 1323 1355 1356
f 1388 1356 1355
f 1355 1387 1388
f 1420 1388 1387
f 1387 1419 1420
f 1452 1420 1419
f 1419 1451 1452
f 1484 1452 1451
f 1451 1483 1484
f 1516 1484 1483
f 1483 1515 1516
f 1548 1516 1515
f 1515 1547 1548
f 1580 1548 1547
f 1547 1579 1580
f 1612 1580 1579
f 1579 1611 1612
f 1644 1612 1611
f 1611 1643 1644
f 1676 1644 1643
f 1643 1675 1676
f 1708 1676 1675
f 1675 1707 1708
f 1740 1708 1707
f 1707 1739 1740
f 1772 1740 1739
f 1739 1771 1772
f 1804 1772 1771
f 1771 1803 1804
f 1836 1804 1803
f 1803 1835 1836
f 1868 1836 1835
f 1835 1867 1868
f 1900 1868 1867
f 1867 1899 1900
f 1932 1900 1899
f 1899 1931 1932
f 1964 1932 1931
f 1931 1963 1964
f 1996 1964 1963
f 1963 1995 1996
f 2028 1996 1995
f 1995 2027 2028
f 2060 2028 2027
f 2027 2059 2060
f 2092 2060 2059
f 2059 2091 2092
f 2124 2092 2091
f 2091 2123 2124
f 1165 1133 1132
f 1132 1164 1165
f 1197 1165 1164
f 1164 1196 1197
f 1229 1197 1196
f 1196 1228 1229
f 1261 1229 1228
f 1228 1260 1261
f 1293 1261 1260
f 1260 1292 1293
f 1325 1293 1292
f 1292 1324 1325
f 1357 1325 1324
f 1324 1356 1357
f 1389 1357 1356
f 1356 1388 1389
f 1421 1389 1388
f 1388 1420 1421
f 1453 1421 1420
f 1420 1452 1453
f 1485 1453 1452
f 1452 1484 1485
f 1517 1485 1484
f 1484 1516 1517
f 1549 1517 1516
f 1516 1548 1549
f 1581 1549 1548
f 1548 1580 1581
f 1613 1581 1580
f 1580 1612 1613
f 1645 1613 1612
f 1612 1644 1645
f 1677 1645 1644
f 1644 1676 1677
f 1709 1677 1676
f 1676 1708 1709
f 1741 1709 1708
f 1708 1740 1741
f 1773 1741 1740
f 1740 1772 1773
f 1805 1773 1772
f 1772 1804 1805
f 1837 1805 1804
f 1804 1836 1837
f 1869 1837 1836
f 1836 1868 1869
f 1901 1869 1868
f 1868 1900 1901
f 1933 1901 1900
f 1900 1932 1933
f 1965 1933 1932
f 1932 1964 1965
f 1997 1965 1964
f 1964 1996 1997
f 2029 1997 1996
f 1996 2028 2029
f 2061 2029 2028
f 2028 2060 2061
f 2093 2061 2060
f 2060 2092 2093
f 2125 2093 2092
f 2092 2124 2125
f 1166 1134 1133
f 1133 1165 1166
f 1198 1166 1165
f 1165 1197 1198
f 1230 1198 1197
f 1197 1229 1230
f 1262 1230 1229
f 1229 1261 1262
f 1294 1262 1261
f 1261 1293 1294
f 1326 1294 1293
f 1293 1325 1326
f 1358 1326 1325
f 1325 1357 1358
f 1390 1358 1357
f 1357 1389 1390
f 1422 1390 1389
f 1389 1421 1422
f 1454 1422 1421
f 1421 1453 1454
f 1486 1454 1453
f 1453 1485 1486
f 1518 1486 1485
f 1485 1517 1518
f 1550 1518 1517
f 1517 1549 1550
f 1582 1550 1549
f 1549 1581 1582
f 1614 1582 1581
f 1581 1613 1614
f 1646 1614 1613
f 1613 1645 1646
f 1678 1646 1645
f 1645 1677 1678
f 1710 1678 1677
f 1677 1709 1710
f 1742 1710 1709
f 1709 1741 1742
f 1774 1742 1741
f 1741 1773 1774
f 1806 1774 1773
f 1773 1805 1806
f 1838 1806 1805
f 1805 1837 1838
f 1870 1838 1837
f 1837 1869 1870
f 1902 1870 1869
f 1869 1901 1902
f 1934 1902 1901
f 1901 1933 1934
f 1966 1934 1933
f 1933 1965 1966
f 1998 1966 1965
f 1965 1997 1998
f 2030 1998 1997
f 1997 2029 2030
f 2062 2030 2029
f 2029 2061 2062
f 2094 2062 2061
f 2061 2093 2094
f 2126 2094 2093
f 2093 2125 2126
f 1167 1135 1134
f 1134 1166 1167
f 1199 1167 1166
f 1166 1198 1199
f 1231 1199 1198
f 1198 1230 1231
f 1263 1231 1230
f 1230 1262 1263
f 1295 1263 1262
f 1262 1294 1295
f 1327 1295 1294
f 1294 1326 1327
f 1359 1327 1326
f 1326 1358 1359
f 1391 1359 1358
f 1358 1390 1391
f 1423 1391 1390
f 1390 1422 1423
f 1455 1423 1422
f 1422 1454 1455
f 1487 1455 1454
f 1454 1486 1487
f 1519 1487 1486
f 1486 1518 1519
f 1551 1519 1518
f 1518 1550 1551
f 1583 1551 1550
f 1550 1582 1583
f 1615 1583 1582
f 1582 1614 1615
f 1647 1615 1614
f 1614 1646 1647
f 1679 1647 1646
f 1646 1678 1679
f 1711 1679 1678
f 1678 1710 1711
f 1743 1711 1710
f 1710 1742 1743
f 1775 1743 1742
f 1742 1774 1775
f 1807 1775 1774
f 1774 1806 1807
f 1839 1807 1806
f 1806 1838 1839
f 1871 1839 1838
f 1838 1870 1871
f 1903 1871 1870
f 1870 1902 1903
f 1935 1903 1902
f 1902 1934 1935
f 1967 1935 1934
f 1934 1966 1967
f 1999 1967 1966
f 1966 1998 1999
f 2031 1999 1998
f 1998 2030 2031
f 2063 2031 2030
f 2030 2062 2063
f 2095 2063 2062
f 2062 2094 2095
f 2127 2095 2094
f 2094 2126 2127
f 1168 1136 1135
f 1135 1167 1168
f 1200 1168 1167
f 1167 1199 1200
f 1232 1200 1199
f 1199 1231 1232
f 1264 1232 1231
f 1231 1263 1264
f 1296 1264 1263
f 1263 1295 1296
f 1328 1296 1295
f 1295 1327 1328
f 1360 1328 1327
f 1327 1359 1360
f 1392 1360 1359
f 1359 1391 1392
f 1424 1392 1391
f 1391 1423 1424
f 1456 1424 1423
f 1423 1455 1456
f 1488 1456 1455
f 1455 1487 1488
f 1520 1488 1487
f 1487 1519 1520
f 1552 1520 1519
f 1519 1551 1552
f 1584 1552 1551
f 1551 1583 1584
f 1616 1584 1583
f 1583 1615 1616
f 1648 1616 1615
f 1615 1647 1648
f 1680 1648 1647
f 1647 1679 1680
f 1712 1680 1679
f 1679 1711 1712
f 1744 1712 1711
f 1711 1743 1744
f 1776 1744 1743
f 1743 1775 1776
f 1808 1776 1775
f 1775 1807 1808
f 1840 1808 1807
f 1807 1839 1840
f 1872 1840 1839
f 1839 1871 1872
f 1904 1872 1871
f 1871 1903 1904
f 1936 1904 1903
f 1903 1935 1936
f 1968 1936 1935
f 1935 1967 1968
f 2000 1968 1967
f 1967 1999 2000
f 2032 2000 1999
f 1999 2031 2032
f 2064 2032 2031
f 2031 2063 2064
f 2096 2064 2063
f 2063 2095 2096
f 2128 2096 2095
f 2095 2127 2128
