v -4427.91 12.5514 5748.58
v -4427.42 12.4381 5748.58
v -4427.85 12.5588 5748.97
v -4427.61 12.4929 5749.08
v -4427.14 12.3695 5748.67
v -4427.14 12.3614 5748.94
v -4426.88 12.2881 5748.83
v -4427.42 12.4381 5748.58
v -4427.13 12.3169 5748.63
v -4427.21 12.2949 5748.58
v -4429.25 12.7585 5748.65
v -4428.97 12.784 5748.72
v -4429.21 12.7844 5749.08
v -4428.97 12.7937 5748.97
v -4428.71 12.8124 5749.01
v -4428.5 12.7863 5748.78
v -4428.5 12.7923 5748.97
v -4428.01 12.6214 5749.01
v -4428.14 12.6613 5748.68
v -4428.25 12.7208 5748.91
v -4429.25 12.7585 5748.65
v -4429.4 12.7108 5748.58
v -4429.31 12.6751 5748.58
v -4426.82 12.2661 5748.69
v -4426.82 12.2345 5748.58
v -4426.62 12.2076 5748.89
v -4426.6 12.1902 5748.73
v -4426.57 12.1979 5748.58
v -4426.63 12.1939 5748.58
v -4426.39 12.1744 5748.92
v -4426.39 12.1591 5748.73
v -4426.39 12.1857 5748.58
v -4428.43 12.7199 5748.68
v -4428.89 12.7056 5748.67
v -4428.97 12.784 5748.72
v -4428.39 12.6736 5748.58
v -4428.82 12.6495 5748.58
v -4429.78 12.4362 5748.58
v -4429.67 12.5976 5748.58
v -4429.94 12.4486 5748.68
v -4429.4 12.7109 5749.08
v -4429.67 12.5976 5748.58
v -4429.4 12.7108 5748.58
v -4429.62 12.6162 5748.97
v -4429.91 12.4256 5748.94
v -4430.18 12.2679 5748.82
v -4429.62 12.6162 5748.97
v -4429.4 12.7109 5749.08
v -4429.63 12.4781 5749.08
v -4430.23 12.2214 5749.08
v -4430.39 12.1744 5748.92
v -4428.61 12.6927 5749.08
v -4428.5 12.7923 5748.97
v -4428.3 12.6253 5749.08
v -4428.25 12.7208 5748.91
v -4428.97 12.7937 5748.97
v -4428.97 12.6754 5749.08
v -4429.21 12.7844 5749.08
v -4428.71 12.8124 5749.01
v -4428.01 12.6214 5749.01
v -4428.06 12.51 5749.08
v -4427.85 12.5588 5748.97
v -4427.61 12.4929 5749.08
v -4427.8 12.4793 5749.08
v -4427.24 12.2598 5749.08
v -4427.61 12.4929 5749.08
v -4426.74 12.2442 5749.08
v -4426.39 12.1294 5749.08
v -4430.39 12.1857 5748.58
v -4430.24 12.1715 5748.58
v -4430.39 12.1591 5748.73
v -4430.39 12.1294 5749.08
v -4429.91 12.2836 5749.08
v -4426.97 12.2243 5749.08
v -4429.67 12.5976 5748.58
v -4429.62 12.6162 5748.97
v -4429.62 11.7146 5748.38
v -4429.56 11.7921 5748.58
v -4430.22 11.7146 5748.58
v -4427.6 11.7146 5748.58
v -4428.03 11.7768 5748.58
v -4428.05 11.7146 5748.36
v -4429.04 11.8917 5748.58
v -4428.65 11.7146 5748.41
v -4429.08 11.7146 5748.25
v -4428.96 11.7146 5749.31
v -4429.55 11.7146 5749.08
v -4428.89 11.7921 5749.08
v -4426.93 11.7146 5749.08
v -4427.39 11.7146 5749.32
v -4427.37 11.7768 5749.08
v -4428.38 11.8917 5749.08
v -4427.98 11.7146 5749.27
v -4428.42 11.7146 5749.44
v -4428.2 11.7595 5749.27
v -4428.23 11.8193 5749.39
v -4428.28 11.7641 5749.28
v -4428.17 11.758 5749.43
v -4428.25 11.7556 5749.46
v -4428.3 11.7569 5749.42
v -4428.16 11.7627 5749.34
v -4428.18 11.7146 5749.41
v -4428.24 11.7126 5749.44
v -4428.29 11.7137 5749.4
v -4428.27 11.7195 5749.29
v -4428.21 11.7142 5749.29
v -4428.18 11.7183 5749.34
v -4430.39 12.1857 5748.58
v -4430.39 12.1591 5748.73
v -4430.39 11.7146 5748.58
v -4430.39 11.7146 5749.08
v -4430.39 12.1744 5748.92
v -4430.39 12.1294 5749.08
v -4430.39 12.1294 5749.08
v -4430.23 12.2214 5749.08
v -4430.39 11.7146 5749.08
v -4429.91 12.2836 5749.08
v -4429.63 12.4781 5749.08
v -4428.97 12.6754 5749.08
v -4429.4 12.7109 5749.08
v -4426.39 12.1294 5749.08
v -4426.39 11.7146 5749.08
v -4426.74 12.2442 5749.08
v -4426.97 12.2243 5749.08
v -4429.21 12.7844 5749.08
v -4428.06 12.51 5749.08
v -4428.61 12.6927 5749.08
v -4427.61 12.4929 5749.08
v -4427.24 12.2598 5749.08
v -4427.8 12.4793 5749.08
v -4428.3 12.6253 5749.08
v -4426.39 12.1857 5748.58
v -4426.39 11.7146 5748.58
v -4426.39 12.1591 5748.73
v -4426.39 11.7146 5749.08
v -4426.39 12.1744 5748.92
v -4426.39 12.1294 5749.08
v -4430.39 12.1857 5748.58
v -4430.39 11.7146 5748.58
v -4430.24 12.1715 5748.58
v -4426.39 11.7146 5748.58
v -4429.78 12.4362 5748.58
v -4429.67 12.5976 5748.58
v -4426.39 12.1857 5748.58
v -4426.57 12.1979 5748.58
v -4426.63 12.1939 5748.58
v -4426.82 12.2345 5748.58
v -4427.21 12.2949 5748.58
v -4427.42 12.4381 5748.58
v -4427.91 12.5514 5748.58
v -4428.39 12.6736 5748.58
v -4428.82 12.6495 5748.58
v -4429.31 12.6751 5748.58
v -4429.4 12.7108 5748.58
v -4434.89 15.179 5749.36
v -4434.89 15.9407 5749.36
v -4434.89 15.2089 5749.25
v -4434.89 15.1657 5748.86
v -4434.89 15.2089 5749.11
v -4434.89 15.9407 5748.86
v -4434.89 15.9407 5749.36
v -4434.89 15.179 5749.36
v -4435.63 15.9407 5749.36
v -4436.07 14.974 5749.36
v -4435.2 14.7368 5749.36
v -4435.25 14.5641 5749.36
v -4435.47 14.2455 5749.36
v -4436.31 14.7174 5749.36
v -4442.89 11.9407 5749.36
v -4442.89 14.2075 5749.36
v -4440.67 14.7239 5749.36
v -4437.08 13.3064 5749.36
v -4434.89 11.9407 5749.36
v -4442.51 15.2204 5749.36
v -4437.13 14.9461 5749.36
v -4437.27 14.2577 5749.36
v -4437.31 15.0085 5749.36
v -4439.27 15.2749 5749.36
v -4438.89 15.2248 5749.36
v -4439.52 14.738 5749.36
v -4441.15 15.9407 5749.36
v -4441.04 15.2236 5749.36
v -4441.66 15.9407 5749.36
v -4441.84 15.7293 5749.36
v -4442.3 15.3846 5749.36
v -4437.75 15.1822 5749.36
v -4436.84 14.4164 5749.36
v -4436.98 13.3602 5749.36
v -4435.27 13.8514 5749.36
v -4435.09 13.6455 5749.36
v -4435.17 13.3502 5749.36
v -4435.21 13.0485 5749.36
v -4438.13 15.2282 5749.36
v -4438.51 15.3136 5749.36
v -4440.04 14.4968 5749.36
v -4434.89 12.5286 5749.36
v -4434.89 11.9407 5749.36
v -4434.89 12.5286 5749.36
v -4434.89 11.9407 5748.86
v -4434.89 12.5469 5749.25
v -4434.89 12.5469 5749.11
v -4434.89 12.45 5748.86
v -4440.41 15.4925 5748.86
v -4440.79 15.439 5748.86
v -4440.03 15.3819 5748.86
v -4436 12.4666 5750.38
v -4436.04 11.7508 5750.25
v -4436.48 12.1363 5750.57
v -4436.5 11.7369 5750.48
v -4435.73 12.4397 5750.24
v -4435.77 11.7589 5750.11
v -4435.47 12.3699 5750.09
v -4435.5 11.7668 5749.98
v -4435.28 12.5511 5750.02
v -4435.32 11.7723 5749.88
v -4434.92 12.7577 5749.88
v -4434.97 11.7828 5749.7
v -4434.65 12.5526 5749.7
v -4434.69 11.7914 5749.56
v -4434.5 12.5076 5749.61
v -4434.53 11.796 5749.48
v -4434.12 12.2071 5749.36
v -4434.14 11.8078 5749.28
v -4434.16 11.8259 5749.17
v -4434.14 11.8078 5749.28
v -4434.14 12.2252 5749.25
v -4434.12 12.2071 5749.36
v -4434.23 11.8495 5749.05
v -4434.2 12.2488 5749.13
v -4434.38 11.8892 5748.85
v -4434.36 12.2885 5748.93
v -4440.04 14.4968 5749.36
v -4439.76 15.2555 5749.32
v -4439.52 14.738 5749.36
v -4439.51 15.1813 5749.27
v -4441.04 15.2236 5749.36
v -4441.15 15.9407 5749.36
v -4440.79 15.3385 5749.27
v -4440.67 14.7239 5749.36
v -4440.28 15.1476 5749.27
v -4440.03 15.2258 5749.27
v -4440.44 15.21 5749.27
v -4439.27 15.2749 5749.36
v -4442.89 14.2075 5749.36
v -4442.89 11.9407 5749.36
v -4442.89 14.1403 5749.25
v -4442.89 14.2123 5748.86
v -4442.89 14.1517 5749.11
v -4442.89 11.9407 5748.86
v -4437.31 15.1282 5748.86
v -4437.49 15.0896 5748.86
v -4437.31 15.0227 5748.86
v -4434.89 12.45 5748.86
v -4437.08 13.3064 5748.86
v -4434.89 11.9407 5748.86
v -4437.01 13.3468 5748.86
v -4435.25 13.0017 5748.86
v -4442.89 11.9407 5748.86
v -4434.89 15.9407 5748.86
v -4435.63 15.9407 5748.86
v -4434.89 15.1657 5748.86
v -4435.66 15.2182 5748.86
v -4435.12 14.7546 5748.86
v -4435.85 14.5729 5748.86
v -4435.17 14.5602 5748.86
v -4435.18 14.2455 5748.86
v -4441.65 15.9407 5748.86
v -4441.76 15.6537 5748.86
v -4441.15 15.9407 5748.86
v -4436.41 14.1548 5748.86
v -4435.1 14.0332 5748.86
v -4435.1 13.6455 5748.86
v -4435.21 13.3606 5748.86
v -4437.23 14.8673 5748.86
v -4437.41 14.3669 5748.86
v -4437.75 15.2646 5748.86
v -4438.13 15.3106 5748.86
v -4442.22 15.4005 5748.86
v -4442.89 14.2123 5748.86
v -4439.65 15.1863 5748.86
v -4439.27 15.3066 5748.86
v -4438.89 15.3953 5748.86
v -4438.51 15.3553 5748.86
v -4442.48 15.1915 5748.86
v -4435.7 12.4638 5749.65
v -4435.73 11.8485 5749.54
v -4435.35 12.4661 5749.48
v -4435.39 11.8589 5749.36
v -4435.95 12.5613 5749.8
v -4435.98 11.8409 5749.67
v -4436.26 12.5933 5749.97
v -4436.3 11.8313 5749.83
v -4436.57 12.1776 5750.34
v -4436.6 11.7783 5750.26
v -4436.77 12.2159 5750.16
v -4436.8 11.8166 5750.08
v -4436.77 12.2159 5750.16
v -4436.8 11.8166 5750.08
v -4436.51 12.154 5750.47
v -4436.53 11.7546 5750.38
v -4436.48 12.1363 5750.57
v -4436.5 11.7369 5750.48
v -4434.71 12.5072 5749.15
v -4434.74 11.8782 5749.03
v -4434.36 12.2885 5748.93
v -4434.38 11.8892 5748.85
v -4434.88 12.5579 5749.25
v -4434.92 11.873 5749.12
v -4435.16 12.5497 5749.39
v -4435.2 11.8646 5749.26
v -4436.41 14.1548 5748.86
v -4436.67 14.3798 5748.87
v -4437.01 13.3468 5748.86
v -4435.85 14.5729 5748.86
v -4436.42 14.555 5748.93
v -4436.27 14.738 5748.93
v -4435.66 15.2182 5748.86
v -4436.1 14.8982 5748.93
v -4435.92 15.3824 5748.93
v -4435.63 15.9407 5748.86
v -4435.63 15.9407 5748.86
v -4434.89 15.9407 5748.86
v -4435.63 15.9407 5749.11
v -4434.89 15.9407 5749.36
v -4435.63 15.9407 5749.36
v -4441.66 15.9407 5749.36
v -4441.64 15.9407 5749.27
v -4441.15 15.9407 5749.36
v -4441.15 15.9407 5749.11
v -4441.69 15.9407 5749.11
v -4441.67 15.9407 5748.97
v -4441.15 15.9407 5748.86
v -4441.65 15.9407 5748.86
v -4435.1 14.0332 5748.86
v -4435.1 13.6455 5748.86
v -4435.1 13.6455 5749.11
v -4435.21 13.3606 5748.86
v -4435.16 13.0938 5749.11
v -4435.25 13.0017 5748.86
v -4434.89 12.45 5748.86
v -4434.89 12.5469 5749.11
v -4435.25 13.0017 5748.86
v -4435.16 13.0938 5749.11
v -4434.89 12.5469 5749.25
v -4435.21 13.0485 5749.36
v -4434.89 12.5286 5749.36
v -4435.17 13.3502 5749.36
v -4435.21 13.0485 5749.36
v -4435.09 13.6455 5749.36
v -4435.09 13.6455 5749.36
v -4435.32 14.2455 5749.11
v -4435.09 13.6455 5749.36
v -4435.27 13.8514 5749.36
v -4435.32 14.2455 5749.11
v -4435.47 14.2455 5749.36
v -4435.47 14.2455 5749.36
v -4435.25 14.5641 5749.36
v -4435.32 14.2455 5749.11
v -4435.2 14.7368 5749.36
v -4435.16 14.7956 5749.11
v -4435.25 14.5641 5749.36
v -4435.32 14.2455 5749.11
v -4434.89 15.179 5749.36
v -4434.89 15.2089 5749.25
v -4434.89 15.2089 5749.11
v -4434.89 15.1657 5748.86
v -4435.12 14.7546 5748.86
v -4435.17 14.5602 5748.86
v -4435.18 14.2455 5748.86
v -4435.18 14.2455 5748.86
v -4436.31 14.7174 5749.36
v -4436.84 14.4164 5749.36
v -4436.27 14.879 5749.11
v -4436.89 14.4164 5749.11
v -4437.26 15.1623 5749.11
v -4437.75 15.2406 5749.11
v -4437.29 15.1582 5749
v -4437.49 15.0896 5748.86
v -4437.31 15.0085 5749.36
v -4437.75 15.1822 5749.36
v -4437.3 15.0241 5749.3
v -4436.89 14.4164 5749.11
v -4436.27 14.738 5748.93
v -4436.42 14.555 5748.93
v -4436.67 14.3798 5748.87
v -4437.23 14.8673 5748.86
v -4437.08 14.9461 5749.11
v -4437.31 15.0227 5748.86
v -4437.26 15.0227 5749.11
v -4437.41 14.3669 5748.86
v -4437.22 14.5091 5749.11
v -4437.23 14.8673 5748.86
v -4437.08 14.9461 5749.11
v -4437.08 13.3064 5748.86
v -4437.08 13.5579 5749.11
v -4437.01 13.3468 5748.86
v -4437.08 13.5579 5749.11
v -4437.03 13.6856 5749.11
v -4436.98 13.3602 5749.36
v -4437.08 13.3064 5749.36
v -4437.08 13.3064 5749.36
v -4437.27 14.2577 5749.36
v -4437.13 14.9461 5749.36
v -4437.31 15.0085 5749.36
v -4437.3 15.0241 5749.3
v -4437.13 14.9461 5749.36
v -4435.63 15.9407 5749.36
v -4436.07 14.974 5749.36
v -4435.63 15.9407 5749.11
v -4436.23 14.918 5749.21
v -4435.98 15.3938 5749.11
v -4437.08 13.3064 5748.86
v -4439.27 15.155 5749.11
v -4439.51 15.1813 5749.27
v -4440.03 15.5463 5749.11
v -4439.76 15.2555 5749.32
v -4440.03 15.2258 5749.27
v -4440.79 15.3385 5749.27
v -4440.79 15.4392 5749.11
v -4440.44 15.21 5749.27
v -4440.28 15.1476 5749.27
v -4439.27 15.2749 5749.36
v -4441.15 15.9407 5749.36
v -4441.15 15.9407 5749.11
v -4442.89 14.1517 5749.11
v -4442.89 14.2123 5748.86
v -4442.45 15.1624 5749.11
v -4442.48 15.1915 5748.86
v -4442.51 15.2204 5749.36
v -4442.89 14.1403 5749.25
v -4442.89 14.2075 5749.36
v -4436.1 14.8982 5748.93
v -4435.92 15.3824 5748.93
v -4435.63 15.9407 5748.86
v -4437.3 15.0241 5749.3
v -4437.26 15.1623 5749.11
v -4437.26 15.0227 5749.11
v -4437.31 15.1282 5748.86
v -4437.31 15.0227 5748.86
v -4437.29 15.1582 5749
v -4437.31 15.1282 5748.86
v -4438.51 15.3325 5749.11
v -4438.89 15.3953 5748.86
v -4439.27 15.3066 5748.86
v -4439.65 15.1863 5748.86
v -4439.65 15.1863 5748.86
v -4440.03 15.3819 5748.86
v -4440.41 15.4925 5748.86
v -4440.79 15.439 5748.86
v -4441.15 15.9407 5748.86
v -4438.89 15.2248 5749.36
v -4438.51 15.3136 5749.36
v -4438.13 15.2282 5749.36
v -4437.75 15.2646 5748.86
v -4438.13 15.3106 5748.86
v -4438.51 15.3553 5748.86
v -4442.3 15.3846 5749.36
v -4441.79 15.6867 5749.11
v -4441.84 15.7293 5749.36
v -4441.66 15.9407 5749.36
v -4441.64 15.9407 5749.27
v -4441.69 15.9407 5749.11
v -4441.67 15.9407 5748.97
v -4441.76 15.6537 5748.86
v -4441.65 15.9407 5748.86
v -4442.22 15.4005 5748.86
v -4435.35 12.4661 5749.48
v -4435.58 12.4148 5749.87
v -4435.7 12.4638 5749.65
v -4435.95 12.5613 5749.8
v -4436.07 12.464 5750.13
v -4436.26 12.5933 5749.97
v -4436.77 12.2159 5750.16
v -4436.26 12.5933 5749.97
v -4436.57 12.1776 5750.34
v -4436.07 12.464 5750.13
v -4436.51 12.154 5750.47
v -4436 12.4666 5750.38
v -4436.48 12.1363 5750.57
v -4435.73 12.4397 5750.24
v -4436 12.4666 5750.38
v -4435.47 12.3699 5750.09
v -4435.04 12.6513 5749.63
v -4435.28 12.5511 5750.02
v -4434.92 12.7577 5749.88
v -4434.92 12.7577 5749.88
v -4434.65 12.5526 5749.7
v -4434.5 12.5076 5749.61
v -4434.56 12.5079 5749.36
v -4434.14 12.2252 5749.25
v -4434.12 12.2071 5749.36
v -4434.2 12.2488 5749.13
v -4434.36 12.2885 5748.93
v -4434.71 12.5072 5749.15
v -4434.88 12.5579 5749.25
v -4435.16 12.5497 5749.39
v -4439.62 11.9309 5748.97
v -4439.57 11.8896 5749.45
v -4440.52 12.2751 5749.14
v -4440.46 12.2588 5749.5
v -4441.29 12.4479 5749.14
v -4441.21 12.2589 5749.52
v -4442.27 11.9174 5749.48
v -4442.25 11.9269 5749.16
v -4440.06 11.8202 5749.72
v -4440.61 11.8985 5749.85
v -4441.16 11.7841 5749.87
v -4441.83 11.8634 5749.72
v -4437.33 11.8311 5748.91
v -4437.24 11.8354 5748.69
v -4436.55 12.2921 5748.93
v -4436.66 12.0341 5748.74
v -4435.94 12.0802 5748.64
v -4436.09 12.3315 5748.9
v -4435.31 11.9894 5748.88
v -4435.5 11.8314 5748.48
v -4437.03 11.8308 5748.56
v -4436.67 11.8331 5748.52
v -4436.02 11.8316 5748.41
v -4435.21 11.8361 5748.88
v -4442.15 15.3031 5749.13
v -4442.13 15.8052 5749.13
v -4442.11 15.7998 5749.13
v -4442.13 15.2976 5749.13
v -4442.1 15.7971 5749.11
v -4442.12 15.2949 5749.11
v -4442.11 15.7998 5749.09
v -4442.13 15.2976 5749.09
v -4442.11 15.7998 5749.09
v -4442.13 15.8052 5749.09
v -4442.15 15.3031 5749.09
v -4442.13 15.2976 5749.09
v -4442.14 15.808 5749.11
v -4442.16 15.3058 5749.11
v -4442.13 15.8052 5749.13
v -4442.15 15.3031 5749.13
v -4442.13 15.8052 5749.13
v -4442.14 15.808 5749.11
v -4442.11 15.7998 5749.13
v -4442.13 15.8052 5749.09
v -4442.1 15.7971 5749.11
v -4442.11 15.7998 5749.09
v -4440.18 15.2141 5749.13
v -4440.2 15.2078 5749.13
v -4440.58 15.6524 5749.13
v -4440.57 15.6709 5749.13
v -4440.57 15.6801 5749.11
v -4440.18 15.2173 5749.11
v -4440.57 15.6709 5749.09
v -4440.18 15.2141 5749.09
v -4440.58 15.6524 5749.09
v -4440.2 15.2078 5749.09
v -4440.18 15.2141 5749.09
v -4440.57 15.6709 5749.09
v -4440.58 15.6431 5749.11
v -4440.21 15.2046 5749.11
v -4440.2 15.2078 5749.13
v -4440.58 15.6524 5749.13
v -4441.08 15.7302 5749.13
v -4441.07 15.7487 5749.13
v -4441.07 15.758 5749.11
v -4441.07 15.7487 5749.09
v -4441.07 15.7487 5749.09
v -4441.08 15.7302 5749.09
v -4441.08 15.721 5749.11
v -4441.08 15.7302 5749.13
v -4439.17 15.9607 5749.13
v -4439.16 15.9444 5749.13
v -4439.47 15.4539 5749.13
v -4439.49 15.4558 5749.13
v -4439.5 15.4568 5749.11
v -4439.17 15.9689 5749.11
v -4439.49 15.4558 5749.09
v -4439.17 15.9607 5749.09
v -4439.47 15.4539 5749.09
v -4439.16 15.9444 5749.09
v -4439.17 15.9607 5749.09
v -4439.49 15.4558 5749.09
v -4439.46 15.4529 5749.11
v -4439.15 15.9363 5749.11
v -4439.16 15.9444 5749.13
v -4439.47 15.4539 5749.13
v -4439.4 14.9562 5749.13
v -4439.42 14.9581 5749.13
v -4439.43 14.959 5749.11
v -4439.42 14.9581 5749.09
v -4439.42 14.9581 5749.09
v -4439.4 14.9562 5749.09
v -4439.39 14.9552 5749.11
v -4439.4 14.9562 5749.13
v -4439.16 15.9444 5749.13
v -4439.17 15.9607 5749.13
v -4439.15 15.9363 5749.11
v -4439.17 15.9607 5749.09
v -4439.16 15.9444 5749.09
v -4439.17 15.9689 5749.11
v -4438.05 15.1697 5749.26
v -4438.11 15.6685 5749.26
v -4438.09 15.6663 5749.26
v -4438.03 15.1674 5749.26
v -4438.08 15.6651 5749.25
v -4438.02 15.1663 5749.25
v -4438.09 15.6663 5749.23
v -4438.03 15.1674 5749.23
v -4438.09 15.6663 5749.23
v -4438.11 15.6685 5749.23
v -4438.05 15.1697 5749.23
v -4438.03 15.1674 5749.23
v -4438.12 15.6696 5749.25
v -4438.06 15.1708 5749.25
v -4438.11 15.6685 5749.26
v -4438.05 15.1697 5749.26
v -4438.11 15.6685 5749.26
v -4438.12 15.6696 5749.25
v -4438.09 15.6663 5749.26
v -4438.09 15.6663 5749.23
v -4438.08 15.6651 5749.25
v -4438.11 15.6685 5749.23
v -4437.19 14.9297 5749.13
v -4437.18 14.9142 5749.13
v -4436.61 14.9704 5749.21
v -4436.6 14.9868 5749.21
v -4436.6 14.9868 5749.23
v -4437.2 14.9292 5749.15
v -4436.6 14.9703 5749.24
v -4437.19 14.9132 5749.16
v -4436.61 14.9539 5749.24
v -4437.18 14.8977 5749.16
v -4437.19 14.9132 5749.16
v -4436.6 14.9703 5749.24
v -4436.61 14.9539 5749.22
v -4437.18 14.8982 5749.14
v -4437.18 14.9142 5749.13
v -4436.61 14.9704 5749.21
v -4436.18 14.7206 5749.1
v -4436.18 14.7371 5749.11
v -4436.17 14.737 5749.13
v -4436.18 14.7205 5749.14
v -4436.18 14.7205 5749.14
v -4436.18 14.7041 5749.13
v -4436.19 14.7042 5749.11
v -4436.18 14.7206 5749.1
v -4436.36 14.1753 5749.15
v -4436.37 14.1277 5749.15
v -4438.28 14.7371 5749.15
v -4438.26 14.7848 5749.15
v -4436.38 14.1039 5749.11
v -4438.29 14.7133 5749.11
v -4436.37 14.1277 5749.06
v -4438.28 14.7371 5749.06
v -4436.37 14.1277 5749.06
v -4436.36 14.1753 5749.06
v -4438.26 14.7848 5749.06
v -4438.28 14.7371 5749.06
v -4436.35 14.1991 5749.11
v -4438.26 14.8086 5749.11
v -4436.36 14.1753 5749.15
v -4438.26 14.7848 5749.15
v -4437.38 14.0038 5749.3
v -4437.36 13.9898 5749.31
v -4436.83 14.0151 5749.08
v -4436.83 14.0292 5749.06
v -4437.38 14.0218 5749.31
v -4436.82 14.0473 5749.07
v -4436.82 14.0512 5749.09
v -4437.37 14.0258 5749.33
v -4436.82 14.0371 5749.1
v -4437.35 14.0118 5749.33
v -4437.37 14.0258 5749.33
v -4436.82 14.0512 5749.09
v -4436.83 14.0191 5749.1
v -4437.35 13.9938 5749.32
v -4437.36 13.9898 5749.31
v -4436.83 14.0151 5749.08
v -4424.39 13.0795 5749.28
v -4424.39 12.9658 5748.83
v -4424.39 11.8756 5749.28
v -4424.39 12.4132 5748.41
v -4424.39 11.8756 5748.37
v -4424.46 12.4133 5748.28
v -4425 12.4604 5748.28
v -4424.49 11.8756 5748.28
v -4424.96 11.8756 5748.28
v -4425.39 12.6422 5748.28
v -4425.39 12.4964 5748.28
v -4425.14 12.4413 5748.28
v -4425.39 11.8756 5748.28
v -4425.21 11.8756 5748.28
v -4425.39 14.1718 5749.28
v -4425.39 11.8756 5749.28
v -4425.39 14.0839 5749.03
v -4425.39 13.8278 5748.79
v -4425.39 13.3077 5748.76
v -4425.39 12.7075 5748.46
v -4425.39 11.8756 5748.28
v -4425.39 12.4964 5748.28
v -4425.39 12.6422 5748.28
v -4425.15 14.0951 5749.28
v -4425.14 13.5509 5749.28
v -4425.39 14.1718 5749.28
v -4425.39 11.8756 5749.28
v -4425.1 12.4315 5749.28
v -4424.39 11.8756 5749.28
v -4424.67 13.4855 5749.28
v -4424.39 13.0795 5749.28
v -4424.83 13.4362 5749.28
v -4424.89 13.1549 5749.28
v -4425.03 13.0889 5749.28
v -4424.39 11.8756 5748.37
v -4424.39 12.4132 5748.41
v -4424.49 11.8756 5748.28
v -4424.46 12.4133 5748.28
v -4425.05 11.8756 5748.33
v -4424.96 11.8756 5748.28
v -4425.05 12.4956 5748.33
v -4425 12.4604 5748.28
v -4425.14 12.4413 5748.28
v -4425.21 11.8756 5748.28
v -4424.39 12.9658 5748.83
v -4424.95 13.4318 5748.9
v -4424.66 13.0925 5748.74
v -4425.39 14.1718 5749.28
v -4425.39 14.0839 5749.03
v -4425.22 14.1457 5749.2
v -4425.27 14.0839 5749.03
v -4425.15 14.0951 5749.28
v -4424.67 13.4855 5749.28
v -4424.39 13.0795 5749.28
v -4425.04 13.1387 5748.61
v -4424.46 12.4133 5748.28
v -4425 12.4604 5748.28
v -4425.05 12.4956 5748.33
v -4425.39 13.3077 5748.76
v -4425.39 14.0839 5749.03
v -4425.39 13.8278 5748.79
v -4425.27 14.0839 5749.03
v -4425.39 12.7075 5748.46
v -4425.14 12.4413 5748.28
v -4425.05 12.4956 5748.33
v -4425.39 12.6422 5748.28
v -4425.39 12.7075 5748.46
v -4424.39 12.9658 5748.83
v -4425.1 14.128 5749.15
v -4425.1 14.128 5749.15
v -4425.06 13.5331 5749.13
v -4425.1 14.128 5749.15
v -4424.95 13.4318 5748.9
v -4425.15 14.0951 5749.28
v -4425.14 13.5509 5749.28
v -4425.03 13.0889 5749.28
v -4425.14 13.5509 5749.28
v -4424.93 13.1219 5749.18
v -4424.94 13.4936 5749.18
v -4425.1 12.4315 5749.28
v -4424.89 13.1549 5749.28
v -4425.1 12.4315 5749.28
v -4424.93 13.1219 5749.18
v -4424.94 13.4936 5749.18
v -4424.83 13.4362 5749.28
v -4424.94 13.4936 5749.18
v -4425.06 13.5331 5749.13
v -4424.83 13.4362 5749.28
v -4425.14 13.5509 5749.28
v -4424.15 11.8756 5748.82
v -4424.39 12.1143 5749
v -4424.39 11.8756 5748.37
v -4425.31 11.8756 5749.28
v -4424.85 12.1718 5749.28
v -4425.04 11.8756 5749.61
v -4424.74 11.8756 5749.78
v -4424.39 12.2118 5749.28
v -4424.33 11.8756 5749.71
v -4423.91 11.8756 5749.45
v -4424.03 11.8756 5749.05
v -4424.12 11.9206 5749.59
v -4424.14 11.9252 5749.52
v -4423.98 11.9804 5749.5
v -4423.91 11.9166 5749.44
v -4423.91 11.919 5749.52
v -4423.98 11.9179 5749.42
v -4424.02 11.9237 5749.58
v -4423.93 11.8756 5749.53
v -4423.93 11.8737 5749.46
v -4423.99 11.8747 5749.44
v -4424.12 11.8806 5749.52
v -4424.1 11.8753 5749.58
v -4424.02 11.8794 5749.57
v -4424.32 11.9495 5749.59
v -4424.2 11.9495 5749.71
v -4424.4 12.0806 5749.74
v -4424.48 11.9495 5749.89
v -4424.63 11.9495 5749.79
v -4424.43 12.0806 5749.84
v -4424.53 12.0637 5749.8
v -4424.31 11.9495 5749.88
v -4424.54 11.9495 5749.68
v -4424.59 11.8756 5749.78
v -4424.47 11.8756 5749.86
v -4424.33 11.8756 5749.85
v -4424.24 11.8756 5749.71
v -4424.34 11.8756 5749.62
v -4424.51 11.8756 5749.69
v -4425.04 11.8756 5747.99
v -4424.91 11.9454 5748.35
v -4425.39 11.8756 5748.28
v -4424.62 11.8756 5748.28
v -4424.72 11.8756 5748.08
v -4424.9 11.8756 5748.05
v -4433.1 16.1618 5749.49
v -4433.23 16.1618 5749.52
v -4432.87 16.1618 5749.2
v -4433.17 16.1618 5748.65
v -4432.87 16.1618 5749.2
v -4433.23 16.1618 5748.74
v -4433.23 16.1618 5749.52
v -4432.98 16.1618 5749.47
v -4433.1 16.1618 5749.49
v -4432.91 11.8575 5747.96
v -4432 11.8701 5748.19
v -4432.62 12.4114 5748
v -4432 12.3704 5748.17
v -4432.42 12.5869 5748.05
v -4431.86 11.857 5748.62
v -4432.09 11.8701 5748.86
v -4431.73 11.8819 5749.24
v -4432.09 11.8874 5749.18
v -4431.73 11.8819 5749.24
v -4431.71 12.1618 5749.15
v -4431.86 11.857 5748.62
v -4431.76 12.1931 5748.96
v -4432.24 11.8927 5748.61
v -4432.13 11.8981 5748.71
v -4432 11.8701 5748.19
v -4432.13 11.8981 5748.71
v -4432.07 12.0722 5748.39
v -4432 11.8701 5748.19
v -4432 12.3704 5748.17
v -4432.91 11.8575 5747.96
v -4432.97 11.8684 5748.16
v -4433.23 11.8701 5748.65
v -4433.23 12.4909 5748.65
v -4433.23 11.8701 5749.65
v -4433.23 14.1663 5749.65
v -4433.23 14.8709 5748.65
v -4433.23 15.3688 5749.59
v -4433.23 15.8598 5748.73
v -4433.23 15.7712 5749.55
v -4433.23 16.1618 5749.52
v -4433.23 16.1618 5748.74
v -4433.23 14.8709 5748.65
v -4433.23 12.4909 5748.65
v -4432.93 13.5899 5748.65
v -4432.86 13.0701 5748.65
v -4432.98 12.4358 5748.65
v -4433.23 11.8701 5748.65
v -4433.05 11.8701 5748.65
v -4432.69 14.4459 5748.65
v -4432.23 13.7924 5748.65
v -4432.23 13.4029 5748.65
v -4432.78 13.0518 5748.65
v -4432.3 12.4078 5748.65
v -4432.84 12.4549 5748.65
v -4432.8 11.8701 5748.65
v -4432.33 11.8701 5748.65
v -4432.93 14.6731 5748.65
v -4433.17 15.6406 5748.65
v -4432.99 15.1531 5748.65
v -4432.23 12.2505 5749.37
v -4432.23 12.4077 5748.77
v -4432.23 11.8701 5748.73
v -4432.23 13.0109 5749.52
v -4432.23 13.4029 5748.65
v -4432.23 13.5803 5749.44
v -4432.23 13.7924 5748.65
v -4432.23 14.1999 5748.81
v -4432.23 14.4332 5749.65
v -4432.23 14.8781 5748.96
v -4432.23 15.1359 5749.21
v -4432.23 15.6282 5749.65
v -4432.23 15.65 5749.49
v -4432.23 15.6282 5749.65
v -4432.23 14.4332 5749.65
v -4432.74 15.4664 5749.65
v -4432.98 15.3041 5749.65
v -4433.23 14.1663 5749.65
v -4432.44 13.5794 5749.65
v -4433.23 11.8701 5749.65
v -4432.36 13.0427 5749.65
v -4432.37 12.8226 5749.65
v -4432.55 12.2022 5749.65
v -4433.1 16.1618 5749.49
v -4433.16 15.7802 5749.51
v -4433.23 16.1618 5749.52
v -4433.23 15.7712 5749.55
v -4432.23 12.4077 5748.77
v -4432.23 13.4029 5748.65
v -4432.3 12.4078 5748.65
v -4433.23 15.8598 5748.73
v -4433.18 15.9519 5748.65
v -4433.23 16.1618 5748.74
v -4433.17 16.1618 5748.65
v -4433.17 15.6406 5748.65
v -4433.23 14.8709 5748.65
v -4433.23 15.3688 5749.59
v -4433.18 15.4268 5749.59
v -4433.23 14.1663 5749.65
v -4432.98 15.3041 5749.65
v -4433.23 14.1663 5749.65
v -4433.18 15.4268 5749.59
v -4432.23 12.4077 5748.77
v -4432.3 12.4078 5748.65
v -4432.23 11.8701 5748.73
v -4432.33 11.8701 5748.65
v -4432.74 15.4664 5749.65
v -4432.89 12.4901 5748.69
v -4432.9 11.8701 5748.69
v -4432.84 12.4549 5748.65
v -4432.8 11.8701 5748.65
v -4432.78 13.0518 5748.65
v -4432.82 13.0089 5748.69
v -4432.93 13.5899 5748.65
v -4432.86 13.0701 5748.65
v -4432.82 13.0089 5748.69
v -4432.93 13.5899 5748.65
v -4432.98 12.4358 5748.65
v -4432.89 12.4901 5748.69
v -4432.9 11.8701 5748.69
v -4433.05 11.8701 5748.65
v -4432.44 13.5794 5749.65
v -4432.23 14.4332 5749.65
v -4432.23 13.5803 5749.44
v -4432.36 13.0427 5749.65
v -4432.23 13.0109 5749.52
v -4432.37 12.8226 5749.65
v -4432.23 12.2505 5749.37
v -4432.55 12.2022 5749.65
v -4432.87 16.1618 5749.2
v -4433.17 16.1618 5748.65
v -4432.72 15.6003 5749.07
v -4433.18 15.9519 5748.65
v -4433.17 15.6406 5748.65
v -4432.23 13.7924 5748.65
v -4432.23 14.1999 5748.81
v -4432.58 14.8897 5748.91
v -4432.23 14.8781 5748.96
v -4432.69 14.4459 5748.65
v -4432.93 14.6731 5748.65
v -4432.23 15.1359 5749.21
v -4432.99 15.1531 5748.65
v -4432.23 15.65 5749.49
v -4433.16 15.7802 5749.51
v -4432.98 16.1618 5749.47
v -4432.73 15.7824 5749.37
v -4432.89 15.8342 5749.51
v -4433.1 16.1618 5749.49
v -4432.89 15.8342 5749.51
v -4432.98 16.1618 5749.47
v -4432.61 15.6678 5749.56
v -4432.51 15.7028 5749.43
v -4432.87 16.1618 5749.2
v -4432.23 15.6282 5749.65
v -4432.09 11.8874 5749.18
v -4431.71 12.1618 5749.15
v -4431.73 11.8819 5749.24
v -4431.76 12.1931 5748.96
v -4432.09 11.8701 5748.86
v -4431.86 11.857 5748.62
v -4432.91 11.8575 5747.96
v -4432.62 12.4114 5748
v -4432.64 12.1465 5748.19
v -4432.07 12.0722 5748.39
v -4432.37 12.1508 5748.28
v -4432 12.3704 5748.17
v -4432.42 12.5869 5748.05
v -4432.13 11.8981 5748.71
v -4432.24 11.8927 5748.61
v -4432.97 11.8684 5748.16
v -4433.23 11.8701 5749.65
v -4432.55 12.2022 5749.65
v -4432.84 11.8701 5749.94
v -4432.38 11.8701 5750.14
v -4431.99 11.8701 5749.98
v -4431.99 11.8701 5749.58
v -4432.23 12.2505 5749.37
v -4431.75 11.8701 5749.47
v -4432.23 11.8701 5748.73
v -4465 11.9334 5782
v -4465 11.958 5780
v -4465 12.0486 5778
v -4465 12.0717 5776
v -4465 12.0168 5774
v -4465 12.1529 5772
v -4465 12.1089 5770
v -4465 12.0301 5768
v -4465 12.0394 5766
v -4465 11.8803 5764
v -4465 11.8469 5762
v -4465 12.0375 5760
v -4465 11.9994 5758
v -4465 11.9252 5756
v -4465 11.9502 5754
v -4465 11.9199 5752
v -4465 11.8547 5750
v -4465 11.9242 5748
v -4465 11.9875 5746
v -4465 12.128 5744
v -4465 12.1752 5742
v -4465 12.0771 5740
v -4465 12.0503 5738
v -4465 12.0021 5736
v -4465 11.8771 5734
v -4465 12.0006 5732
v -4465 12.0414 5730
v -4465 12.0923 5728
v -4465 12.1312 5726
v -4465 12.0862 5724
v -4465 12.0724 5722
v -4465 12.0424 5720
v -4463 11.9386 5782
v -4463 12.0352 5780
v -4463 12.0257 5778
v -4463 12.1036 5776
v -4463 12.0739 5774
v -4463 12.057 5772
v -4463 11.978 5770
v -4463 11.9392 5768
v -4463 11.9896 5766
v -4463 11.8376 5764
v -4463 11.9912 5762
v -4463 12.0002 5760
v -4463 12.0386 5758
v -4463 12.1052 5756
v -4463 12.0995 5754
v -4463 11.9728 5752
v -4463 12.0474 5750
v -4463 12.109 5748
v -4463 12.0021 5746
v -4463 12.1044 5744
v -4463 12.0167 5742
v -4463 11.9898 5740
v -4463 11.9038 5738
v -4463 11.9753 5736
v -4463 11.8552 5734
v -4463 11.896 5732
v -4463 12.0011 5730
v -4463 12.0402 5728
v -4463 12.1395 5726
v -4463 12.707 5724
v -4463 12.1091 5722
v -4463 11.9858 5720
v -4461 12.0089 5782
v -4461 12.0491 5780
v -4461 12.1239 5778
v -4461 12.1054 5776
v -4461 12.0672 5774
v -4461 11.9818 5772
v -4461 11.9667 5770
v -4461 11.8559 5768
v -4461 11.8753 5766
v -4461 11.9597 5764
v -4461 11.9351 5762
v -4461 12.0382 5760
v -4461 12.0502 5758
v -4461 12.0601 5756
v -4461 12.1605 5754
v -4461 12.0594 5752
v -4461 12.1313 5750
v -4461 12.1691 5748
v -4461 12.0371 5746
v -4461 12.0919 5744
v -4461 12.0052 5742
v -4461 11.9422 5740
v -4461 11.9349 5738
v -4461 11.8343 5736
v -4461 11.8818 5734
v -4461 11.9485 5732
v -4461 12.0534 5730
v -4461 12.0969 5728
v -4461 12.1323 5726
v -4461 12.1735 5724
v -4461 12.1542 5722
v -4461 12.0488 5720
v -4459 12.0288 5782
v -4459 12.0149 5780
v -4459 12.08 5778
v -4459 12.0668 5776
v -4459 12.1061 5774
v -4459 12.0871 5772
v -4459 11.982 5770
v -4459 11.9067 5768
v -4459 11.9279 5766
v -4459 11.9345 5764
v -4459 11.8692 5762
v -4459 12.0004 5760
v -4459 12.0231 5758
v -4459 12.1236 5756
v -4459 12.1637 5754
v -4459 12.3889 5752
v -4459 12.7156 5750
v -4459 12.1731 5748
v -4459 12.1278 5746
v -4459 12.096 5744
v -4459 12.0011 5742
v -4459 11.9672 5740
v -4459 11.9441 5738
v -4459 11.9272 5736
v -4459 11.9873 5734
v -4459 11.9671 5732
v -4459 12.0189 5730
v -4459 12.1546 5728
v -4459 12.0359 5726
v -4459 12.1151 5724
v -4459 12.7078 5722
v -4459 12.5936 5720
v -4457 11.9702 5782
v -4457 12.0329 5780
v -4457 12.1516 5778
v -4457 12.0924 5776
v -4457 12.0502 5774
v -4457 12.0329 5772
v -4457 11.9832 5770
v -4457 12.0467 5768
v -4457 11.8978 5766
v -4457 11.8644 5764
v -4457 11.8975 5762
v -4457 11.8894 5760
v -4457 12.0389 5758
v -4457 12.0683 5756
v -4457 12.1103 5754
v -4457 12.1192 5752
v -4457 12.1659 5750
v -4457 12.727 5748
v -4457 12.3759 5746
v -4457 12.1002 5744
v -4457 12.0316 5742
v -4457 12.0325 5740
v -4457 12.019 5738
v -4457 12.0343 5736
v -4457 12.0229 5734
v -4457 12.0375 5732
v -4457 11.9779 5730
v -4457 12.0286 5728
v -4457 12.0577 5726
v -4457 12.1089 5724
v -4457 12.06 5722
v -4457 12.1082 5720
v -4455 11.9156 5782
v -4455 12.0193 5780
v -4455 12.1109 5778
v -4455 12.1304 5776
v -4455 12.0669 5774
v -4455 12.1253 5772
v -4455 12.0007 5770
v -4455 11.9613 5768
v -4455 11.8458 5766
v -4455 11.9223 5764
v -4455 11.9457 5762
v -4455 11.9677 5760
v -4455 12.0156 5758
v -4455 11.8907 5756
v -4455 12.1092 5754
v -4455 12.0495 5752
v -4455 12.0908 5750
v -4455 12.085 5748
v -4455 12.0769 5746
v -4455 12.022 5744
v -4455 11.9803 5742
v -4455 12.0296 5740
v -4455 12.0051 5738
v -4455 12.0899 5736
v -4455 11.917 5734
v -4455 11.9652 5732
v -4455 11.9499 5730
v -4455 12.0505 5728
v -4455 12.0443 5726
v -4455 11.9924 5724
v -4455 12.0343 5722
v -4455 12.0668 5720
v -4453 11.9487 5782
v -4453 12.0256 5780
v -4453 12.1279 5778
v -4453 12.0717 5776
v -4453 12.1589 5774
v -4453 12.1194 5772
v -4453 11.9983 5770
v -4453 11.9546 5768
v -4453 11.9151 5766
v -4453 12.0122 5764
v -4453 11.9659 5762
v -4453 12.0063 5760
v -4453 11.929 5758
v -4453 11.9656 5756
v -4453 12.0376 5754
v -4453 11.9817 5752
v -4453 12.0076 5750
v -4453 12.0014 5748
v -4453 11.977 5746
v -4453 12.0485 5744
v -4453 11.8996 5742
v -4453 12.0188 5740
v -4453 12.1084 5738
v -4453 12.0682 5736
v -4453 12.0181 5734
v -4453 12.0053 5732
v -4453 11.9755 5730
v -4453 12.0352 5728
v -4453 12.0407 5726
v -4453 11.8552 5724
v -4453 12.0245 5722
v -4453 12.0321 5720
v -4451 11.8963 5782
v -4451 12.0666 5780
v -4451 12.1092 5778
v -4451 12.1642 5776
v -4451 12.2912 5774
v -4451 11.9989 5772
v -4451 12.0128 5770
v -4451 11.9144 5768
v -4451 11.9131 5766
v -4451 12.0402 5764
v -4451 12.0108 5762
v -4451 12.0862 5760
v -4451 12.1065 5758
v -4451 12.0076 5756
v -4451 11.9345 5754
v -4451 11.8374 5752
v -4451 11.8842 5750
v -4451 11.9218 5748
v -4451 11.8179 5746
v -4451 11.9162 5744
v -4451 11.8838 5742
v -4451 11.9687 5740
v -4451 11.9666 5738
v -4451 12.0017 5736
v -4451 12.1005 5734
v -4451 11.9987 5732
v -4451 12.0739 5730
v -4451 12.0427 5728
v -4451 12.0702 5726
v -4451 12.0393 5724
v -4451 11.9764 5722
v -4451 11.9396 5720
v -4449 12.0448 5782
v -4449 12.0963 5780
v -4449 12.0642 5778
v -4449 12.1351 5776
v -4449 12.1434 5774
v -4449 12.051 5772
v -4449 11.8893 5770
v -4449 11.928 5768
v -4449 11.8968 5766
v -4449 12.0135 5764
v -4449 12.1652 5762
v -4449 12.1774 5760
v -4449 12.0991 5758
v -4449 11.9883 5756
v -4449 11.8482 5754
v -4449 11.9384 5752
v -4449 11.9199 5750
v -4449 11.9425 5748
v -4449 11.9005 5746
v -4449 11.9701 5744
v -4449 11.9343 5742
v -4449 12.0011 5740
v -4449 12.0471 5738
v -4449 11.9886 5736
v -4449 12.1588 5734
v -4449 12.1122 5732
v -4449 12.6971 5730
v -4449 12.0963 5728
v -4449 12.0225 5726
v -4449 11.9964 5724
v -4449 11.9449 5722
v -4449 12.0042 5720
v -4447 12.0993 5782
v -4447 12.0963 5780
v -4447 12.107 5778
v -4447 12.1643 5776
v -4447 12.0607 5774
v -4447 11.981 5772
v -4447 11.9764 5770
v -4447 11.8645 5768
v -4447 11.9445 5766
v -4447 11.9436 5764
v -4447 12.1353 5762
v -4447 12.1675 5760
v -4447 12.1501 5758
v -4447 12.1439 5756
v -4447 11.8267 5754
v -4447 11.8757 5752
v -4447 11.7511 5750
v -4447 11.8344 5748
v -4447 11.8682 5746
v -4447 11.9481 5744
v -4447 11.9791 5742
v -4447 11.9383 5740
v -4447 12.0197 5738
v -4447 11.9422 5736
v -4447 12.1505 5734
v -4447 12.0906 5732
v -4447 12.1282 5730
v -4447 12.0708 5728
v -4447 12.1027 5726
v -4447 12.0629 5724
v -4447 11.9998 5722
v -4447 12.0703 5720
v -4445 12.0627 5782
v -4445 12.0865 5780
v -4445 12.0521 5778
v -4445 12.0049 5776
v -4445 12.0178 5774
v -4445 12.089 5772
v -4445 11.9943 5770
v -4445 11.8671 5768
v -4445 11.981 5766
v -4445 11.9572 5764
v -4445 12.0273 5762
v -4445 12.1185 5760
v -4445 12.1563 5758
v -4445 12.0237 5756
v -4445 11.9775 5754
v -4445 11.8649 5752
v -4445 11.834 5750
v -4445 11.9003 5748
v -4445 11.9768 5746
v -4445 12.1001 5744
v -4445 12.0033 5742
v -4445 11.9996 5740
v -4445 11.9838 5738
v -4445 12.0717 5736
v -4445 12.0591 5734
v -4445 12.0696 5732
v -4445 12.0988 5730
v -4445 12.0581 5728
v -4445 11.939 5726
v -4445 12.0713 5724
v -4445 12.0335 5722
v -4445 12.0526 5720
v -4443 12.1212 5782
v -4443 12.0128 5780
v -4443 12.0029 5778
v -4443 12.0218 5776
v -4443 12.0234 5774
v -4443 12.0881 5772
v -4443 11.9839 5770
v -4443 11.9454 5768
v -4443 11.7661 5766
v -4443 11.8438 5764
v -4443 11.9585 5762
v -4443 12.0536 5760
v -4443 12.0455 5758
v -4443 11.9973 5756
v -4443 12.078 5754
v -4443 11.9037 5752
v -4443 12.0393 5750
v -4443 11.9663 5748
v -4443 12.1332 5746
v -4443 12.1447 5744
v -4443 12.106 5742
v -4443 11.9176 5740
v -4443 11.9793 5738
v -4443 11.9434 5736
v -4443 11.9665 5734
v -4443 12.0925 5732
v -4443 12.0889 5730
v -4443 12.0585 5728
v -4443 11.8669 5726
v -4443 11.9606 5724
v -4443 11.9433 5722
v -4443 12.1104 5720
v -4441 11.9987 5782
v -4441 12.0103 5780
v -4441 11.8436 5778
v -4441 12.0021 5776
v -4441 12.0674 5774
v -4441 11.9857 5772
v -4441 12.029 5770
v -4441 11.9085 5768
v -4441 11.8309 5766
v -4441 11.8397 5764
v -4441 11.9294 5762
v -4441 12.0276 5760
v -4441 12.0186 5758
v -4441 12.0013 5756
v -4441 12.1177 5754
v -4441 12.0643 5752
v -4441 11.9582 5750
v -4441 12.0722 5748
v -4441 12.747 5746
v -4441 12.1529 5744
v -4441 12.0594 5742
v -4441 12.1056 5740
v -4441 11.9948 5738
v -4441 12.0027 5736
v -4441 12.0266 5734
v -4441 12.044 5732
v -4441 11.9501 5730
v -4441 11.897 5728
v -4441 11.7773 5726
v -4441 11.8944 5724
v -4441 11.9939 5722
v -4441 11.9182 5720
v -4439 12.0406 5782
v -4439 11.8891 5780
v -4439 11.9352 5778
v -4439 11.9309 5776
v -4439 12.0701 5774
v -4439 12.0085 5772
v -4439 11.9632 5770
v -4439 11.8301 5768
v -4439 11.8546 5766
v -4439 11.6284 5764
v -4439 11.8661 5762
v -4439 11.8304 5760
v -4439 11.9155 5758
v -4439 11.9066 5756
v -4439 11.9368 5754
v -4439 12.0415 5752
v -4439 12.0917 5750
v -4439 12.0937 5748
v -4439 12.7146 5746
v -4439 12.1324 5744
v -4439 12.0603 5742
v -4439 12.0123 5740
v -4439 12.0388 5738
v -4439 11.9983 5736
v -4439 11.991 5734
v -4439 11.9825 5732
v -4439 11.9691 5730
v -4439 11.8114 5728
v -4439 11.8638 5726
v -4439 11.8171 5724
v -4439 11.854 5722
v -4439 11.8546 5720
v -4437 11.9631 5782
v -4437 11.8663 5780
v -4437 11.902 5778
v -4437 12.0661 5776
v -4437 12.0026 5774
v -4437 11.9825 5772
v -4437 11.9626 5770
v -4437 11.8865 5768
v -4437 11.743 5766
v -4437 11.6824 5764
v -4437 11.7573 5762
v -4437 11.7928 5760
v -4437 11.7762 5758
v -4437 11.8803 5756
v -4437 11.9072 5754
v -4437 12.0196 5752
v -4437 12.0561 5750
v -4437 12.1522 5748
v -4437 12.0664 5746
v -4437 12.1431 5744
v -4437 12.1104 5742
v -4437 12.0677 5740
v -4437 12.082 5738
v -4437 12.0275 5736
v -4437 12.1549 5734
v -4437 12.0092 5732
v -4437 11.9825 5730
v -4437 11.8341 5728
v -4437 11.9319 5726
v -4437 11.8049 5724
v -4437 11.799 5722
v -4437 11.8048 5720
v -4435 11.9438 5782
v -4435 11.9242 5780
v -4435 11.97 5778
v -4435 11.9999 5776
v -4435 11.9996 5774
v -4435 11.9237 5772
v -4435 11.8535 5770
v -4435 11.8403 5768
v -4435 11.6963 5766
v -4435 11.6355 5764
v -4435 11.6438 5762
v -4435 11.7815 5760
v -4435 11.7712 5758
v -4435 11.9476 5756
v -4435 11.937 5754
v -4435 11.8727 5752
v -4435 11.9717 5750
v -4435 12.0824 5748
v -4435 12.1384 5746
v -4435 12.0961 5744
v -4435 12.1682 5742
v -4435 12.0916 5740
v -4435 12.1625 5738
v -4435 12.7081 5736
v -4435 12.1507 5734
v -4435 12.0835 5732
v -4435 11.9151 5730
v -4435 11.9071 5728
v -4435 11.8425 5726
v -4435 11.8054 5724
v -4435 11.8468 5722
v -4435 11.9495 5720
v -4433 11.9009 5782
v -4433 11.9393 5780
v -4433 12.0359 5778
v -4433 12.0815 5776
v -4433 12.166 5774
v -4433 12.0469 5772
v -4433 12.0626 5770
v -4433 11.9508 5768
v -4433 11.9105 5766
v -4433 11.8747 5764
v -4433 11.921 5762
v -4433 11.9188 5760
v -4433 11.9524 5758
v -4433 11.8478 5756
v -4433 11.8421 5754
v -4433 12.0243 5752
v -4433 12.0854 5750
v -4433 12.0365 5748
v -4433 12.0743 5746
v -4433 12.0057 5744
v -4433 11.9794 5742
v -4433 12.0997 5740
v -4433 12.0336 5738
v -4433 12.103 5736
v -4433 12.0735 5734
v -4433 12.1642 5732
v -4433 12.0724 5730
v -4433 12.0462 5728
v -4433 11.9817 5726
v -4433 11.9802 5724
v -4433 12.0262 5722
v -4433 11.9081 5720
v -4431 12.0343 5782
v -4431 12.0485 5780
v -4431 12.1336 5778
v -4431 12.1151 5776
v -4431 12.7332 5774
v -4431 12.1089 5772
v -4431 12.0015 5770
v -4431 11.9092 5768
v -4431 12.0248 5766
v -4431 11.9367 5764
v -4431 11.9419 5762
v -4431 12.052 5760
v -4431 12.0258 5758
v -4431 11.9382 5756
v -4431 11.9014 5754
v -4431 11.9624 5752
v -4431 11.9805 5750
v -4431 12.0559 5748
v -4431 11.9543 5746
v -4431 12.0409 5744
v -4431 12.0031 5742
v -4431 11.9643 5740
v -4431 12.1171 5738
v -4431 12.1829 5736
v -4431 12.1212 5734
v -4431 12.0702 5732
v -4431 11.9788 5730
v -4431 11.935 5728
v -4431 12.0477 5726
v -4431 12.0328 5724
v -4431 12.0298 5722
v -4431 12.0125 5720
v -4429 12.0598 5782
v -4429 12.1059 5780
v -4429 12.1579 5778
v -4429 12.7108 5776
v -4429 12.1446 5774
v -4429 12.117 5772
v -4429 12.0239 5770
v -4429 11.9652 5768
v -4429 11.9269 5766
v -4429 11.9591 5764
v -4429 12.0384 5762
v -4429 12.0522 5760
v -4429 12.0802 5758
v -4429 11.9763 5756
v -4429 11.9796 5754
v -4429 11.9754 5752
v -4429 12.0692 5750
v -4429 12.1295 5748
v -4429 12.0675 5746
v -4429 11.9951 5744
v -4429 11.9004 5742
v -4429 11.9501 5740
v -4429 12.0207 5738
v -4429 12.162 5736
v -4429 12.1516 5734
v -4429 12.0646 5732
v -4429 12.0113 5730
v -4429 11.9862 5728
v -4429 12.0878 5726
v -4429 11.9946 5724
v -4429 12.0859 5722
v -4429 12.0214 5720
v -4427 12.0865 5782
v -4427 12.1733 5780
v -4427 12.7151 5778
v -4427 12.7039 5776
v -4427 12.1148 5774
v -4427 12.0043 5772
v -4427 11.9916 5770
v -4427 11.8666 5768
v -4427 11.7927 5766
v -4427 11.8697 5764
v -4427 12.0504 5762
v -4427 12.0694 5760
v -4427 12.0282 5758
v -4427 12.0959 5756
v -4427 12.0461 5754
v -4427 12.0252 5752
v -4427 12.1111 5750
v -4427 12.36 5748
v -4427 12.066 5746
v -4427 12.0375 5744
v -4427 11.9773 5742
v -4427 11.9427 5740
v -4427 12.0487 5738
v -4427 12.0754 5736
v -4427 12.1376 5734
v -4427 12.0805 5732
v -4427 12.1369 5730
v -4427 12.0722 5728
v -4427 12.1398 5726
v -4427 12.0504 5724
v -4427 12.0054 5722
v -4427 11.9995 5720
v -4425 12.1155 5782
v -4425 12.1478 5780
v -4425 12.7617 5778
v -4425 12.7434 5776
v -4425 12.1796 5774
v -4425 12.0771 5772
v -4425 11.909 5770
v -4425 11.9322 5768
v -4425 11.9251 5766
v -4425 11.905 5764
v -4425 11.9804 5762
v -4425 11.9302 5760
v -4425 11.8673 5758
v -4425 11.9266 5756
v -4425 11.9026 5754
v -4425 12.0579 5752
v -4425 12.1716 5750
v -4425 12.7097 5748
v -4425 12.104 5746
v -4425 12.0028 5744
v -4425 11.8957 5742
v -4425 12.0679 5740
v -4425 12.0011 5738
v -4425 12.0895 5736
v -4425 12.7082 5734
v -4425 12.0821 5732
v -4425 12.0617 5730
v -4425 12.0884 5728
v -4425 12.1072 5726
v -4425 12.062 5724
v -4425 11.9697 5722
v -4425 11.9665 5720
v -4423 12.0064 5782
v -4423 12.0418 5780
v -4423 12.1043 5778
v -4423 12.0982 5776
v -4423 12.0986 5774
v -4423 12.1003 5772
v -4423 11.9768 5770
v -4423 11.9793 5768
v -4423 11.977 5766
v -4423 11.9309 5764
v -4423 12.0359 5762
v -4423 12.0115 5760
v -4423 11.9639 5758
v -4423 11.9283 5756
v -4423 11.8697 5754
v -4423 12.0497 5752
v -4423 12.0925 5750
v -4423 12.0914 5748
v -4423 12.0868 5746
v -4423 12.0112 5744
v -4423 12.0171 5742
v -4423 11.9903 5740
v -4423 12.1242 5738
v -4423 12.024 5736
v -4423 12.0883 5734
v -4423 12.0176 5732
v -4423 12.0402 5730
v -4423 12.0995 5728
v -4423 12.0681 5726
v -4423 12.1343 5724
v -4423 12.0914 5722
v -4423 11.9871 5720
v -4421 11.9531 5782
v -4421 12.0005 5780
v -4421 12.1175 5778
v -4421 12.0873 5776
v -4421 12.0691 5774
v -4421 12.1058 5772
v -4421 12.0157 5770
v -4421 12.0186 5768
v -4421 11.8988 5766
v -4421 12.0305 5764
v -4421 12.0271 5762
v -4421 12.0153 5760
v -4421 11.9694 5758
v -4421 11.8865 5756
v -4421 11.823 5754
v -4421 11.9679 5752
v -4421 12.0216 5750
v -4421 12.0357 5748
v -4421 12.0692 5746
v -4421 11.9834 5744
v -4421 11.9574 5742
v -4421 12.0121 5740
v -4421 12.0326 5738
v -4421 12.0515 5736
v -4421 12.0762 5734
v -4421 11.9766 5732
v -4421 12.0208 5730
v -4421 12.0715 5728
v -4421 12.1015 5726
v -4421 12.155 5724
v -4421 12.0681 5722
v -4421 12.0031 5720
v -4419 11.8819 5782
v -4419 11.9941 5780
v -4419 12.0348 5778
v -4419 12.0901 5776
v -4419 12.0821 5774
v -4419 12.113 5772
v -4419 11.9956 5770
v -4419 12.0177 5768
v -4419 12.0925 5766
v -4419 12.0151 5764
v -4419 12.1105 5762
v -4419 12.0181 5760
v -4419 11.9989 5758
v -4419 11.9832 5756
v -4419 11.8188 5754
v -4419 11.848 5752
v -4419 11.9183 5750
v -4419 11.9932 5748
v -4419 12.0057 5746
v -4419 11.8983 5744
v -4419 11.9409 5742
v -4419 11.9205 5740
v -4419 11.9278 5738
v -4419 11.9222 5736
v -4419 12.0468 5734
v -4419 11.9164 5732
v -4419 11.8854 5730
v -4419 11.9723 5728
v -4419 12.1273 5726
v -4419 12.1252 5724
v -4419 12.0918 5722
v -4419 12.0276 5720
v -4417 11.9343 5782
v -4417 11.8498 5780
v -4417 11.9352 5778
v -4417 12.0786 5776
v -4417 12.1081 5774
v -4417 12.1469 5772
v -4417 12.1473 5770
v -4417 12.0083 5768
v -4417 12.1752 5766
v -4417 12.1169 5764
v -4417 12.1554 5762
v -4417 12.7155 5760
v -4417 12.09 5758
v -4417 12.0683 5756
v -4417 11.9531 5754
v -4417 12.0688 5752
v -4417 12.1093 5750
v -4417 11.9866 5748
v -4417 12.0156 5746
v -4417 11.8538 5744
v -4417 11.8069 5742
v -4417 11.8675 5740
v -4417 11.9617 5738
v -4417 11.9903 5736
v -4417 11.9652 5734
v -4417 11.7508 5732
v -4417 11.9178 5730
v -4417 11.8211 5728
v -4417 12.1253 5726
v -4417 12.1253 5724
v -4417 12.097 5722
v -4417 12.1345 5720
v -4415 11.784 5782
v -4415 11.7867 5780
v -4415 11.932 5778
v -4415 12.0847 5776
v -4415 12.1306 5774
v -4415 12.5733 5772
v -4415 12.1134 5770
v -4415 12.089 5768
v -4415 12.1296 5766
v -4415 12.121 5764
v -4415 12.1429 5762
v -4415 12.1333 5760
v -4415 12.0675 5758
v -4415 12.0932 5756
v -4415 11.9557 5754
v -4415 11.9836 5752
v -4415 12.0235 5750
v -4415 12.0527 5748
v -4415 11.9668 5746
v -4415 11.7916 5744
v -4415 11.9106 5742
v -4415 11.8937 5740
v -4415 11.8754 5738
v -4415 11.9752 5736
v -4415 11.8692 5734
v -4415 11.8592 5732
v -4415 11.741 5730
v -4415 11.8381 5728
v -4415 12.0337 5726
v -4415 12.0245 5724
v -4415 12.1105 5722
v -4415 12.0247 5720
v -4413 11.9166 5782
v -4413 11.874 5780
v -4413 11.905 5778
v -4413 12.1419 5776
v -4413 12.0808 5774
v -4413 12.1401 5772
v -4413 12.0681 5770
v -4413 12.0408 5768
v -4413 12.0822 5766
v -4413 12.0769 5764
v -4413 12.0888 5762
v -4413 12.1108 5760
v -4413 12.016 5758
v -4413 12.0278 5756
v -4413 11.9565 5754
v -4413 12.0363 5752
v -4413 12.0683 5750
v -4413 12.0256 5748
v -4413 12.0247 5746
v -4413 11.9181 5744
v -4413 11.8883 5742
v -4413 11.8983 5740
v -4413 11.9079 5738
v -4413 12.0209 5736
v -4413 11.9204 5734
v -4413 11.9339 5732
v -4413 11.8582 5730
v -4413 11.9186 5728
v -4413 11.938 5726
v -4413 12.0573 5724
v -4413 12.0927 5722
v -4413 12.0195 5720
v -4411 12.0082 5782
v -4411 11.9666 5780
v -4411 12.0356 5778
v -4411 12.1726 5776
v -4411 12.0821 5774
v -4411 12.0803 5772
v -4411 11.9642 5770
v -4411 12.0125 5768
v -4411 11.9112 5766
v -4411 11.952 5764
v -4411 12.069 5762
v -4411 12.05 5760
v -4411 12.0263 5758
v -4411 11.9507 5756
v -4411 11.9189 5754
v -4411 12.0091 5752
v -4411 11.9733 5750
v -4411 11.9812 5748
v -4411 11.952 5746
v -4411 11.8875 5744
v -4411 11.9773 5742
v -4411 12.0478 5740
v -4411 11.9979 5738
v -4411 12.0927 5736
v -4411 11.953 5734
v -4411 12.0246 5732
v -4411 12.0526 5730
v -4411 11.9731 5728
v -4411 12.0266 5726
v -4411 12.1076 5724
v -4411 12.0973 5722
v -4411 11.9962 5720
v -4409 11.9756 5782
v -4409 12.1084 5780
v -4409 12.0093 5778
v -4409 12.1053 5776
v -4409 12.0921 5774
v -4409 12.0918 5772
v -4409 12.0024 5770
v -4409 12.022 5768
v -4409 11.9433 5766
v -4409 11.9826 5764
v -4409 12.0183 5762
v -4409 11.9813 5760
v -4409 11.9728 5758
v -4409 11.9229 5756
v -4409 11.8934 5754
v -4409 11.9154 5752
v -4409 12.0191 5750
v -4409 11.9365 5748
v -4409 12.0296 5746
v -4409 11.9526 5744
v -4409 11.9588 5742
v -4409 11.9645 5740
v -4409 12.0724 5738
v -4409 12.5529 5736
v -4409 12.0952 5734
v -4409 12.1123 5732
v -4409 11.9769 5730
v -4409 12.0288 5728
v -4409 12.1229 5726
v -4409 12.1653 5724
v -4409 12.0602 5722
v -4409 12.0067 5720
v -4407 12.162 5782
v -4407 12.1406 5780
v -4407 12.176 5778
v -4407 12.1658 5776
v -4407 12.1658 5774
v -4407 12.0986 5772
v -4407 11.9829 5770
v -4407 11.8915 5768
v -4407 11.8671 5766
v -4407 11.9221 5764
v -4407 11.9007 5762
v -4407 11.8596 5760
v -4407 11.8566 5758
v -4407 11.7624 5756
v -4407 11.6957 5754
v -4407 11.7538 5752
v -4407 11.8332 5750
v -4407 11.8724 5748
v -4407 12.0352 5746
v -4407 11.9626 5744
v -4407 12.0664 5742
v -4407 12.143 5740
v -4407 12.1614 5738
v -4407 12.7779 5736
v -4407 12.7336 5734
v -4407 12.6577 5732
v -4407 12.2434 5730
v -4407 12.1243 5728
v -4407 12.0965 5726
v -4407 12.1131 5724
v -4407 12.0259 5722
v -4407 12.0329 5720
v -4405 12.1351 5782
v -4405 12.653 5780
v -4405 12.3512 5778
v -4405 12.1542 5776
v -4405 12.1534 5774
v -4405 12.0239 5772
v -4405 11.9253 5770
v -4405 11.7879 5768
v -4405 11.7874 5766
v -4405 11.8021 5764
v -4405 11.8983 5762
v -4405 11.8868 5760
v -4405 11.8481 5758
v -4405 11.9342 5756
v -4405 11.6666 5754
v -4405 11.7789 5752
v -4405 11.8053 5750
v -4405 11.8431 5748
v -4405 11.9758 5746
v -4405 11.8967 5744
v -4405 12.0768 5742
v -4405 12.1323 5740
v -4405 12.1735 5738
v -4405 12.7394 5736
v -4405 12.7583 5734
v -4405 12.7535 5732
v -4405 12.628 5730
v -4405 12.1746 5728
v -4405 12.016 5726
v -4405 12.0433 5724
v -4405 12.0171 5722
v -4405 11.9529 5720
v -4403 12.1545 5782
v -4403 12.1647 5780
v -4403 12.096 5778
v -4403 12.1365 5776
v -4403 12.1132 5774
v -4403 12.0717 5772
v -4403 11.9886 5770
v -4403 11.8857 5768
v -4403 11.7054 5766
v -4403 11.8347 5764
v -4403 11.7981 5762
v -4403 11.9684 5760
v -4403 11.879 5758
v -4403 11.9702 5756
v -4403 11.8251 5754
v -4403 11.8752 5752
v -4403 11.7835 5750
v -4403 11.9011 5748
v -4403 11.8246 5746
v -4403 11.9259 5744
v -4403 12.0401 5742
v -4403 12.1034 5740
v -4403 12.6972 5738
v -4403 12.7031 5736
v -4403 12.188 5734
v -4403 12.7347 5732
v -4403 12.1095 5730
v -4403 12.089 5728
v -4403 12.0889 5726
v -4403 11.8814 5724
v -4403 11.9126 5722
v -4403 11.8527 5720
f 77 78 85
f 85 78 83
f 85 83 84
f 84 83 82
f 82 83 81
f 82 81 80
f 79 78 77
f 31 32 28
f 31 28 27
f 29 27 28
f 29 24 27
f 24 29 25
f 24 25 9
f 9 25 10
f 9 10 8
f 5 9 8
f 4 2 3
f 4 5 2
f 143 153 152
f 154 153 143
f 141 147 146
f 147 141 148
f 141 143 148
f 148 143 150
f 150 143 152
f 150 152 151
f 148 150 149
f 141 145 144
f 141 146 145
f 140 139 138
f 140 142 139
f 139 142 141
f 143 141 142
f 40 39 38
f 40 76 75
f 70 40 38
f 40 70 46
f 46 70 69
f 46 69 71
f 134 133 132
f 134 135 133
f 110 109 108
f 111 109 110
f 33 1 36
f 37 33 36
f 33 37 34
f 34 37 23
f 23 22 21
f 23 21 35
f 23 35 34
f 33 19 1
f 19 18 1
f 1 18 3
f 3 2 1
f 43 41 11
f 41 43 44
f 44 43 42
f 5 24 9
f 13 12 11
f 11 41 13
f 24 5 7
f 5 4 6
f 7 5 6
f 16 34 35
f 34 16 33
f 40 46 45
f 40 45 76
f 16 19 33
f 19 20 18
f 17 20 19
f 17 19 16
f 7 27 24
f 12 17 16
f 12 15 17
f 15 12 14
f 14 12 13
f 26 31 27
f 27 7 26
f 31 26 30
f 71 51 46
f 136 135 134
f 111 112 109
f 50 73 46
f 73 45 46
f 51 50 46
f 6 74 7
f 74 67 7
f 67 26 7
f 68 26 67
f 68 30 26
f 54 55 53
f 54 60 55
f 51 72 50
f 137 135 136
f 113 112 111
f 65 74 6
f 66 65 6
f 73 47 45
f 61 62 60
f 62 61 64
f 64 63 62
f 52 53 59
f 54 53 52
f 49 48 47
f 49 47 73
f 58 57 56
f 57 59 56
f 61 60 54
f 59 57 52
f 130 129 128
f 120 119 125
f 118 119 120
f 118 116 119
f 126 119 116
f 126 116 122
f 122 130 126
f 129 130 122
f 129 122 124
f 123 122 121
f 124 122 123
f 127 126 131
f 119 126 127
f 116 115 114
f 115 116 117
f 117 116 118
f 88 87 86
f 88 86 94
f 88 94 92
f 92 94 93
f 92 93 90
f 92 90 91
f 91 90 89
f 97 96 95
f 106 97 95
f 107 106 95
f 107 95 101
f 95 96 101
f 100 96 97
f 105 100 97
f 106 105 97
f 105 104 100
f 102 107 98
f 98 107 101
f 101 96 98
f 96 100 99
f 99 98 96
f 104 103 99
f 104 99 100
f 99 102 98
f 103 102 99
f 490 488 491
f 227 225 226
f 222 221 223
f 221 222 220
f 492 489 490
f 488 490 489
f 226 225 224
f 226 224 229
f 229 224 228
f 493 489 492
f 229 228 231
f 231 228 230
f 494 489 493
f 305 304 303
f 305 306 304
f 489 487 488
f 220 219 221
f 219 220 218
f 489 495 483
f 495 489 494
f 489 483 487
f 487 483 486
f 218 217 219
f 217 218 216
f 303 308 307
f 303 304 308
f 496 483 495
f 307 310 309
f 307 308 310
f 360 367 366
f 360 366 365
f 360 365 364
f 360 364 363
f 360 363 359
f 192 188 173
f 172 173 188
f 169 173 172
f 192 173 196
f 342 341 340
f 343 341 342
f 343 344 341
f 345 344 343
f 345 346 344
f 199 198 197
f 199 200 198
f 199 201 200
f 201 199 202
f 254 255 258
f 255 254 253
f 256 253 254
f 257 253 256
f 263 262 261
f 261 262 260
f 261 260 259
f 164 165 162
f 164 162 163
f 163 162 161
f 323 322 321
f 323 324 322
f 325 324 323
f 157 156 155
f 157 160 156
f 160 157 159
f 160 159 158
f 214 217 216
f 485 483 484
f 214 215 217
f 468 484 483
f 496 468 483
f 351 350 336
f 336 349 347
f 354 353 352
f 189 191 190
f 334 351 336
f 336 335 334
f 336 337 335
f 338 337 336
f 347 338 336
f 351 334 370
f 272 270 271
f 271 270 266
f 273 270 272
f 360 368 367
f 265 264 263
f 263 264 262
f 361 360 359
f 362 360 361
f 368 360 362
f 467 468 496
f 310 287 309
f 338 347 348
f 338 339 337
f 188 192 191
f 189 188 191
f 362 369 368
f 266 264 265
f 266 270 264
f 287 310 288
f 164 166 165
f 515 520 516
f 257 256 273
f 273 256 270
f 358 357 356
f 164 167 166
f 354 355 353
f 188 189 167
f 212 215 214
f 484 468 482
f 515 513 514
f 515 516 513
f 212 213 215
f 469 468 467
f 287 286 285
f 287 288 286
f 188 167 187
f 187 167 168
f 168 167 164
f 482 468 480
f 212 211 213
f 211 212 210
f 513 516 519
f 471 480 468
f 470 471 468
f 470 468 469
f 434 411 409
f 409 408 407
f 409 410 408
f 411 410 409
f 433 411 434
f 319 320 317
f 319 317 318
f 318 317 314
f 285 290 289
f 285 286 290
f 480 471 481
f 210 207 211
f 207 210 206
f 318 314 316
f 316 314 315
f 315 314 311
f 433 373 411
f 432 373 433
f 512 514 513
f 519 512 513
f 472 471 470
f 289 292 291
f 289 290 292
f 411 373 410
f 208 207 206
f 477 478 476
f 479 478 477
f 519 518 512
f 208 209 207
f 410 371 408
f 475 476 474
f 477 476 475
f 514 512 511
f 383 373 432
f 623 637 636
f 638 637 623
f 636 635 621
f 622 636 621
f 622 623 636
f 625 638 623
f 630 627 639
f 627 640 639
f 410 373 371
f 642 641 631
f 634 642 631
f 627 631 640
f 631 641 640
f 475 474 473
f 292 297 291
f 383 382 373
f 384 382 383
f 374 372 373
f 373 372 371
f 297 292 298
f 658 657 655
f 656 658 655
f 384 385 382
f 656 655 652
f 645 644 643
f 646 645 643
f 653 656 652
f 653 652 651
f 650 649 647
f 648 647 644
f 645 648 644
f 654 653 651
f 648 650 647
f 315 311 312
f 313 312 311
f 299 302 301
f 299 300 302
f 293 300 299
f 293 294 300
f 512 510 511
f 511 510 509
f 295 294 293
f 295 296 294
f 626 625 623
f 624 626 623
f 624 623 619
f 622 621 619
f 623 622 619
f 630 629 627
f 621 620 619
f 634 631 633
f 627 628 631
f 629 628 627
f 631 632 633
f 628 632 631
f 518 517 512
f 512 517 510
f 396 382 385
f 670 669 667
f 664 663 665
f 663 666 665
f 372 398 399
f 667 668 671
f 669 668 667
f 664 662 663
f 674 671 673
f 671 672 673
f 668 672 671
f 662 661 659
f 662 659 663
f 661 660 659
f 374 398 372
f 382 396 398
f 397 399 398
f 397 400 399
f 398 396 397
f 397 396 412
f 402 393 403
f 391 393 402
f 393 391 392
f 389 406 387
f 389 387 388
f 388 387 386
f 254 280 275
f 176 180 172
f 172 180 195
f 169 172 195
f 395 402 401
f 391 402 395
f 391 395 390
f 390 395 394
f 279 280 254
f 258 279 254
f 177 176 175
f 406 405 404
f 389 405 406
f 392 391 390
f 275 252 274
f 375 376 381
f 377 376 375
f 437 436 435
f 436 437 440
f 440 437 439
f 186 176 177
f 193 176 186
f 179 176 193
f 180 176 179
f 440 439 438
f 441 378 377
f 378 376 377
f 381 380 379
f 376 380 381
f 275 251 252
f 252 251 250
f 281 275 280
f 282 275 281
f 283 275 282
f 275 283 277
f 275 277 276
f 275 276 251
f 376 378 454
f 376 453 380
f 453 376 442
f 376 454 455
f 376 455 442
f 602 601 600
f 602 604 601
f 608 607 605
f 600 599 597
f 601 599 600
f 604 603 601
f 612 611 610
f 607 610 606
f 607 606 605
f 599 598 597
f 615 617 614
f 611 609 610
f 617 616 614
f 610 609 606
f 615 614 613
f 618 614 616
f 442 452 453
f 442 455 456
f 179 193 194
f 413 451 452
f 413 452 442
f 442 456 443
f 443 413 442
f 413 443 444
f 413 422 451
f 180 179 178
f 579 580 581
f 576 580 579
f 593 592 591
f 593 595 592
f 569 568 567
f 582 579 581
f 575 576 579
f 577 576 575
f 595 594 592
f 570 569 567
f 574 573 571
f 572 574 571
f 572 571 567
f 571 570 567
f 578 577 575
f 596 592 594
f 413 444 445
f 446 415 413
f 422 413 414
f 415 414 413
f 243 235 234
f 590 589 579
f 579 589 588
f 584 583 569
f 582 590 579
f 575 588 587
f 575 579 588
f 570 584 569
f 570 571 584
f 571 585 584
f 586 585 571
f 573 586 571
f 578 575 587
f 415 416 414
f 235 233 234
f 234 233 232
f 499 498 497
f 500 498 499
f 500 505 498
f 415 446 447
f 279 205 280
f 417 416 415
f 233 241 232
f 415 447 448
f 415 448 449
f 415 449 419
f 415 421 417
f 420 421 415
f 420 415 419
f 241 240 232
f 205 204 203
f 204 205 279
f 195 171 169
f 232 240 239
f 506 505 500
f 548 550 547
f 548 547 543
f 545 544 543
f 546 545 543
f 550 549 547
f 547 546 543
f 553 552 551
f 554 553 551
f 558 555 557
f 555 556 557
f 552 556 555
f 551 552 555
f 240 242 239
f 420 419 418
f 242 238 239
f 501 500 499
f 502 500 501
f 502 506 500
f 546 547 560
f 547 561 560
f 562 561 547
f 549 562 547
f 546 560 545
f 554 551 563
f 560 559 545
f 551 564 563
f 551 555 564
f 558 566 555
f 555 565 564
f 566 565 555
f 507 506 502
f 171 170 169
f 171 174 170
f 174 171 185
f 185 171 182
f 239 238 236
f 419 423 418
f 424 423 419
f 419 449 424
f 424 449 450
f 238 237 236
f 204 268 269
f 204 278 268
f 204 279 278
f 185 182 184
f 184 182 183
f 183 182 181
f 269 268 267
f 328 327 326
f 329 327 328
f 329 330 327
f 329 331 330
f 332 331 329
f 331 332 333
f 508 507 502
f 501 503 502
f 508 502 503
f 504 503 501
f 461 458 460
f 458 461 462
f 463 465 464
f 460 458 459
f 458 462 463
f 463 464 458
f 458 464 466
f 458 427 457
f 458 457 459
f 458 466 428
f 458 428 427
f 525 523 524
f 526 525 524
f 526 528 525
f 528 527 525
f 539 541 538
f 541 540 538
f 542 540 541
f 531 530 529
f 532 531 529
f 523 522 521
f 524 523 521
f 539 538 537
f 536 535 534
f 535 533 534
f 534 533 530
f 531 534 530
f 278 279 284
f 457 427 429
f 428 426 427
f 427 426 425
f 427 425 430
f 430 429 427
f 431 429 430
f 246 245 244
f 246 249 245
f 248 249 246
f 249 248 247
f 780 777 778
f 779 778 777
f 778 784 780
f 783 784 778
f 782 783 778
f 782 778 779
f 787 782 779
f 787 779 781
f 777 781 779
f 773 771 772
f 773 765 771
f 774 765 773
f 777 780 776
f 780 785 776
f 784 785 780
f 777 775 781
f 775 787 781
f 777 776 775
f 786 787 775
f 774 764 765
f 776 786 775
f 785 786 776
f 766 765 764
f 795 800 789
f 800 801 789
f 789 801 788
f 789 793 795
f 790 793 789
f 790 789 788
f 799 800 795
f 791 799 795
f 795 793 791
f 801 802 788
f 788 802 796
f 790 788 796
f 798 799 791
f 772 771 770
f 677 676 675
f 677 678 676
f 679 678 677
f 770 771 768
f 719 730 721
f 721 720 719
f 727 719 720
f 727 728 719
f 711 710 709
f 711 712 710
f 710 712 742
f 703 702 701
f 705 702 703
f 702 705 707
f 707 705 706
f 706 705 704
f 793 790 794
f 790 796 794
f 793 792 791
f 794 792 793
f 682 681 680
f 731 729 730
f 730 729 721
f 797 798 791
f 797 791 792
f 682 683 681
f 802 797 792
f 802 792 796
f 794 796 792
f 807 804 806
f 729 720 721
f 727 720 760
f 727 760 762
f 808 804 807
f 770 768 769
f 759 757 755
f 757 759 758
f 769 768 767
f 757 756 755
f 808 803 804
f 805 804 803
f 752 753 751
f 752 751 750
f 750 754 752
f 763 760 761
f 761 760 720
f 720 736 743
f 720 735 736
f 733 735 720
f 720 729 733
f 747 746 745
f 715 714 713
f 714 715 716
f 729 731 732
f 701 708 699
f 708 701 702
f 729 737 733
f 732 737 729
f 740 739 738
f 740 741 739
f 713 717 715
f 717 713 718
f 745 746 748
f 749 745 748
f 726 744 724
f 725 724 744
f 700 699 698
f 700 701 699
f 686 685 684
f 686 687 685
f 688 687 686
f 724 722 726
f 724 723 722
f 725 723 724
f 736 735 734
f 690 696 695
f 691 690 689
f 692 690 691
f 693 690 692
f 694 690 693
f 694 696 690
f 696 694 697
f 829 828 827
f 830 828 829
f 963 965 962
f 964 963 962
f 825 824 823
f 824 825 826
f 983 985 984
f 967 966 965
f 985 986 984
f 962 965 966
f 981 982 979
f 982 983 979
f 983 984 979
f 833 832 831
f 831 838 833
f 836 835 834
f 835 836 837
f 820 819 818
f 820 821 819
f 973 972 971
f 822 821 820
f 974 972 973
f 972 976 971
f 971 976 975
f 897 896 895
f 961 959 958
f 959 961 950
f 914 961 958
f 959 950 939
f 950 948 939
f 948 944 939
f 945 944 948
f 945 943 944
f 944 943 942
f 946 944 942
f 931 930 929
f 932 931 929
f 933 931 932
f 934 933 932
f 935 933 934
f 935 934 936
f 861 860 859
f 859 860 852
f 859 852 858
f 858 852 857
f 912 911 910
f 913 911 912
f 876 880 879
f 880 876 878
f 878 876 877
f 877 876 875
f 875 876 873
f 875 873 874
f 874 873 872
f 872 873 871
f 872 871 869
f 869 871 868
f 870 869 868
f 883 882 881
f 884 882 883
f 885 882 884
f 885 886 882
f 839 838 831
f 976 970 977
f 972 970 976
f 864 863 861
f 861 863 862
f 861 862 860
f 887 888 886
f 887 889 888
f 969 972 974
f 972 969 970
f 887 890 889
f 980 981 979
f 887 886 885
f 953 959 939
f 953 958 959
f 980 979 978
f 944 946 947
f 944 947 949
f 944 949 939
f 914 958 956
f 953 954 958
f 970 969 968
f 970 968 977
f 852 865 857
f 953 939 960
f 939 949 941
f 941 940 939
f 939 940 938
f 939 938 937
f 953 960 952
f 954 953 952
f 914 956 951
f 909 914 951
f 909 907 914
f 919 920 921
f 917 920 919
f 918 916 917
f 915 920 917
f 923 926 922
f 924 923 922
f 917 916 915
f 853 851 852
f 854 851 853
f 922 926 925
f 813 817 816
f 814 813 812
f 813 814 815
f 811 810 809
f 957 955 956
f 956 955 951
f 927 925 926
f 925 927 928
f 852 850 865
f 852 851 850
f 867 865 850
f 909 908 907
f 854 855 851
f 856 855 854
f 867 850 866
f 893 892 891
f 892 893 894
f 892 894 905
f 903 898 902
f 898 899 902
f 900 901 899
f 900 899 898
f 905 894 904
f 906 905 904
f 849 846 848
f 848 846 847
f 847 846 845
f 845 846 844
f 845 844 843
f 843 844 841
f 843 841 842
f 842 841 840
f 1020 988 987
f 987 1019 1020
f 1052 1020 1019
f 1019 1051 1052
f 1084 1052 1051
f 1051 1083 1084
f 1116 1084 1083
f 1083 1115 1116
f 1148 1116 1115
f 1115 1147 1148
f 1180 1148 1147
f 1147 1179 1180
f 1212 1180 1179
f 1179 1211 1212
f 1244 1212 1211
f 1211 1243 1244
f 1276 1244 1243
f 1243 1275 1276
f 1308 1276 1275
f 1275 1307 1308
f 1340 1308 1307
f 1307 1339 1340
f 1372 1340 1339
f 1339 1371 1372
f 1404 1372 1371
f 1371 1403 1404
f 1436 1404 1403
f 1403 1435 1436
f 1468 1436 1435
f 1435 1467 1468
f 1500 1468 1467
f 1467 1499 1500
f 1532 1500 1499
f 1499 1531 1532
f 1564 1532 1531
f 1531 1563 1564
f 1596 1564 1563
f 1563 1595 1596
f 1628 1596 1595
f 1595 1627 1628
f 1660 1628 1627
f 1627 1659 1660
f 1692 1660 1659
f 1659 1691 1692
f 1724 1692 1691
f 1691 1723 1724
f 1756 1724 1723
f 1723 1755 1756
f 1788 1756 1755
f 1755 1787 1788
f 1820 1788 1787
f 1787 1819 1820
f 1852 1820 1819
f 1819 1851 1852
f 1884 1852 1851
f 1851 1883 1884
f 1916 1884 1883
f 1883 1915 1916
f 1948 1916 1915
f 1915 1947 1948
f 1980 1948 1947
f 1947 1979 1980
f 1021 989 988
f 988 1020 1021
f 1053 1021 1020
f 1020 1052 1053
f 1085 1053 1052
f 1052 1084 1085
f 1117 1085 1084
f 1084 1116 1117
f 1149 1117 1116
f 1116 1148 1149
f 1181 1149 1148
f 1148 1180 1181
f 1213 1181 1180
f 1180 1212 1213
f 1245 1213 1212
f 1212 1244 1245
f 1277 1245 1244
f 1244 1276 1277
f 1309 1277 1276
f 1276 1308 1309
f 1341 1309 1308
f 1308 1340 1341
f 1373 1341 1340
f 1340 1372 1373
f 1405 1373 1372
f 1372 1404 1405
f 1437 1405 1404
f 1404 1436 1437
f 1469 1437 1436
f 1436 1468 1469
f 1501 1469 1468
f 1468 1500 1501
f 1533 1501 1500
f 1500 1532 1533
f 1565 1533 1532
f 1532 1564 1565
f 1597 1565 1564
f 1564 1596 1597
f 1629 1597 1596
f 1596 1628 1629
f 1661 1629 1628
f 1628 1660 1661
f 1693 1661 1660
f 1660 1692 1693
f 1725 1693 1692
f 1692 1724 1725
f 1757 1725 1724
f 1724 1756 1757
f 1789 1757 1756
f 1756 1788 1789
f 1821 1789 1788
f 1788 1820 1821
f 1853 1821 1820
f 1820 1852 1853
f 1885 1853 1852
f 1852 1884 1885
f 1917 1885 1884
f 1884 1916 1917
f 1949 1917 1916
f 1916 1948 1949
f 1981 1949 1948
f 1948 1980 1981
f 1022 990 989
f 989 1021 1022
f 1054 1022 1021
f 1021 1053 1054
f 1086 1054 1053
f 1053 1085 1086
f 1118 1086 1085
f 1085 1117 1118
f 1150 1118 1117
f 1117 1149 1150
f 1182 1150 1149
f 1149 1181 1182
f 1214 1182 1181
f 1181 1213 1214
f 1246 1214 1213
f 1213 1245 1246
f 1278 1246 1245
f 1245 1277 1278
f 1310 1278 1277
f 1277 1309 1310
f 1342 1310 1309
f 1309 1341 1342
f 1374 1342 1341
f 1341 1373 1374
f 1406 1374 1373
f 1373 1405 1406
f 1438 1406 1405
f 1405 1437 1438
f 1470 1438 1437
f 1437 1469 1470
f 1502 1470 1469
f 1469 1501 1502
f 1534 1502 1501
f 1501 1533 1534
f 1566 1534 1533
f 1533 1565 1566
f 1598 1566 1565
f 1565 1597 1598
f 1630 1598 1597
f 1597 1629 1630
f 1662 1630 1629
f 1629 1661 1662
f 1694 1662 1661
f 1661 1693 1694
f 1726 1694 1693
f 1693 1725 1726
f 1758 1726 1725
f 1725 1757 1758
f 1790 1758 1757
f 1757 1789 1790
f 1822 1790 1789
f 1789 1821 1822
f 1854 1822 1821
f 1821 1853 1854
f 1886 1854 1853
f 1853 1885 1886
f 1918 1886 1885
f 1885 1917 1918
f 1950 1918 1917
f 1917 1949 1950
f 1982 1950 1949
f 1949 1981 1982
f 1023 991 990
f 990 1022 1023
f 1055 1023 1022
f 1022 1054 1055
f 1087 1055 1054
f 1054 1086 1087
f 1119 1087 1086
f 1086 1118 1119
f 1151 1119 1118
f 1118 1150 1151
f 1183 1151 1150
f 1150 1182 1183
f 1215 1183 1182
f 1182 1214 1215
f 1247 1215 1214
f 1214 1246 1247
f 1279 1247 1246
f 1246 1278 1279
f 1311 1279 1278
f 1278 1310 1311
f 1343 1311 1310
f 1310 1342 1343
f 1375 1343 1342
f 1342 1374 1375
f 1407 1375 1374
f 1374 1406 1407
f 1439 1407 1406
f 1406 1438 1439
f 1471 1439 1438
f 1438 1470 1471
f 1503 1471 1470
f 1470 1502 1503
f 1535 1503 1502
f 1502 1534 1535
f 1567 1535 1534
f 1534 1566 1567
f 1599 1567 1566
f 1566 1598 1599
f 1631 1599 1598
f 1598 1630 1631
f 1663 1631 1630
f 1630 1662 1663
f 1695 1663 1662
f 1662 1694 1695
f 1727 1695 1694
f 1694 1726 1727
f 1759 1727 1726
f 1726 1758 1759
f 1791 1759 1758
f 1758 1790 1791
f 1823 1791 1790
f 1790 1822 1823
f 1855 1823 1822
f 1822 1854 1855
f 1887 1855 1854
f 1854 1886 1887
f 1919 1887 1886
f 1886 1918 1919
f 1951 1919 1918
f 1918 1950 1951
f 1983 1951 1950
f 1950 1982 1983
f 1024 992 991
f 991 1023 1024
f 1056 1024 1023
f 1023 1055 1056
f 1088 1056 1055
f 1055 1087 1088
f 1120 1088 1087
f 1087 1119 1120
f 1152 1120 1119
f 1119 1151 1152
f 1184 1152 1151
f 1151 1183 1184
f 1216 1184 1183
f 1183 1215 1216
f 1248 1216 1215
f 1215 1247 1248
f 1280 1248 1247
f 1247 1279 1280
f 1312 1280 1279
f 1279 1311 1312
f 1344 1312 1311
f 1311 1343 1344
f 1376 1344 1343
f 1343 1375 1376
f 1408 1376 1375
f 1375 1407 1408
f 1440 1408 1407
f 1407 1439 1440
f 1472 1440 1439
f 1439 1471 1472
f 1504 1472 1471
f 1471 1503 1504
f 1536 1504 1503
f 1503 1535 1536
f 1568 1536 1535
f 1535 1567 1568
f 1600 1568 1567
f 1567 1599 1600
f 1632 1600 1599
f 1599 1631 1632
f 1664 1632 1631
f 1631 1663 1664
f 1696 1664 1663
f 1663 1695 1696
f 1728 1696 1695
f 1695 1727 1728
f 1760 1728 1727
f 1727 1759 1760
f 1792 1760 1759
f 1759 1791 1792
f 1824 1792 1791
f 1791 1823 1824
f 1856 1824 1823
f 1823 1855 1856
f 1888 1856 1855
f 1855 1887 1888
f 1920 1888 1887
f 1887 1919 1920
f 1952 1920 1919
f 1919 1951 1952
f 1984 1952 1951
f 1951 1983 1984
f 1025 993 992
f 992 1024 1025
f 1057 1025 1024
f 1024 1056 1057
f 1089 1057 1056
f 1056 1088 1089
f 1121 1089 1088
f 1088 1120 1121
f 1153 1121 1120
f 1120 1152 1153
f 1185 1153 1152
f 1152 1184 1185
f 1217 1185 1184
f 1184 1216 1217
f 1249 1217 1216
f 1216 1248 1249
f 1281 1249 1248
f 1248 1280 1281
f 1313 1281 1280
f 1280 1312 1313
f 1345 1313 1312
f 1312 1344 1345
f 1377 1345 1344
f 1344 1376 1377
f 1409 1377 1376
f 1376 1408 1409
f 1441 1409 1408
f 1408 1440 1441
f 1473 1441 1440
f 1440 1472 1473
f 1505 1473 1472
f 1472 1504 1505
f 1537 1505 1504
f 1504 1536 1537
f 1569 1537 1536
f 1536 1568 1569
f 1601 1569 1568
f 1568 1600 1601
f 1633 1601 1600
f 1600 1632 1633
f 1665 1633 1632
f 1632 1664 1665
f 1697 1665 1664
f 1664 1696 1697
f 1729 1697 1696
f 1696 1728 1729
f 1761 1729 1728
f 1728 1760 1761
f 1793 1761 1760
f 1760 1792 1793
f 1825 1793 1792
f 1792 1824 1825
f 1857 1825 1824
f 1824 1856 1857
f 1889 1857 1856
f 1856 1888 1889
f 1921 1889 1888
f 1888 1920 1921
f 1953 1921 1920
f 1920 1952 1953
f 1985 1953 1952
f 1952 1984 1985
f 1026 994 993
f 993 1025 1026
f 1058 1026 1025
f 1025 1057 1058
f 1090 1058 1057
f 1057 1089 1090
f 1122 1090 1089
f 1089 1121 1122
f 1154 1122 1121
f 1121 1153 1154
f 1186 1154 1153
f 1153 1185 1186
f 1218 1186 1185
f 1185 1217 1218
f 1250 1218 1217
f 1217 1249 1250
f 1282 1250 1249
f 1249 1281 1282
f 1314 1282 1281
f 1281 1313 1314
f 1346 1314 1313
f 1313 1345 1346
f 1378 1346 1345
f 1345 1377 1378
f 1410 1378 1377
f 1377 1409 1410
f 1442 1410 1409
f 1409 1441 1442
f 1474 1442 1441
f 1441 1473 1474
f 1506 1474 1473
f 1473 1505 1506
f 1538 1506 1505
f 1505 1537 1538
f 1570 1538 1537
f 1537 1569 1570
f 1602 1570 1569
f 1569 1601 1602
f 1634 1602 1601
f 1601 1633 1634
f 1666 1634 1633
f 1633 1665 1666
f 1698 1666 1665
f 1665 1697 1698
f 1730 1698 1697
f 1697 1729 1730
f 1762 1730 1729
f 1729 1761 1762
f 1794 1762 1761
f 1761 1793 1794
f 1826 1794 1793
f 1793 1825 1826
f 1858 1826 1825
f 1825 1857 1858
f 1890 1858 1857
f 1857 1889 1890
f 1922 1890 1889
f 1889 1921 1922
f 1954 1922 1921
f 1921 1953 1954
f 1986 1954 1953
f 1953 1985 1986
f 1027 995 994
f 994 1026 1027
f 1059 1027 1026
f 1026 1058 1059
f 1091 1059 1058
f 1058 1090 1091
f 1123 1091 1090
f 1090 1122 1123
f 1155 1123 1122
f 1122 1154 1155
f 1187 1155 1154
f 1154 1186 1187
f 1219 1187 1186
f 1186 1218 1219
f 1251 1219 1218
f 1218 1250 1251
f 1283 1251 1250
f 1250 1282 1283
f 1315 1283 1282
f 1282 1314 1315
f 1347 1315 1314
f 1314 1346 1347
f 1379 1347 1346
f 1346 1378 1379
f 1411 1379 1378
f 1378 1410 1411
f 1443 1411 1410
f 1410 1442 1443
f 1475 1443 1442
f 1442 1474 1475
f 1507 1475 1474
f 1474 1506 1507
f 1539 1507 1506
f 1506 1538 1539
f 1571 1539 1538
f 1538 1570 1571
f 1603 1571 1570
f 1570 1602 1603
f 1635 1603 1602
f 1602 1634 1635
f 1667 1635 1634
f 1634 1666 1667
f 1699 1667 1666
f 1666 1698 1699
f 1731 1699 1698
f 1698 1730 1731
f 1763 1731 1730
f 1730 1762 1763
f 1795 1763 1762
f 1762 1794 1795
f 1827 1795 1794
f 1794 1826 1827
f 1859 1827 1826
f 1826 1858 1859
f 1891 1859 1858
f 1858 1890 1891
f 1923 1891 1890
f 1890 1922 1923
f 1955 1923 1922
f 1922 1954 1955
f 1987 1955 1954
f 1954 1986 1987
f 1028 996 995
f 995 1027 1028
f 1060 1028 1027
f 1027 1059 1060
f 1092 1060 1059
f 1059 1091 1092
f 1124 1092 1091
f 1091 1123 1124
f 1156 1124 1123
f 1123 1155 1156
f 1188 1156 1155
f 1155 1187 1188
f 1220 1188 1187
f 1187 1219 1220
f 1252 1220 1219
f 1219 1251 1252
f 1284 1252 1251
f 1251 1283 1284
f 1316 1284 1283
f 1283 1315 1316
f 1348 1316 1315
f 1315 1347 1348
f 1380 1348 1347
f 1347 1379 1380
f 1412 1380 1379
f 1379 1411 1412
f 1444 1412 1411
f 1411 1443 1444
f 1476 1444 1443
f 1443 1475 1476
f 1508 1476 1475
f 1475 1507 1508
f 1540 1508 1507
f 1507 1539 1540
f 1572 1540 1539
f 1539 1571 1572
f 1604 1572 1571
f 1571 1603 1604
f 1636 1604 1603
f 1603 1635 1636
f 1668 1636 1635
f 1635 1667 1668
f 1700 1668 1667
f 1667 1699 1700
f 1732 1700 1699
f 1699 1731 1732
f 1764 1732 1731
f 1731 1763 1764
f 1796 1764 1763
f 1763 1795 1796
f 1828 1796 1795
f 1795 1827 1828
f 1860 1828 1827
f 1827 1859 1860
f 1892 1860 1859
f 1859 1891 1892
f 1924 1892 1891
f 1891 1923 1924
f 1956 1924 1923
f 1923 1955 1956
f 1988 1956 1955
f 1955 1987 1988
f 1029 997 996
f 996 1028 1029
f 1061 1029 1028
f 1028 1060 1061
f 1093 1061 1060
f 1060 1092 1093
f 1125 1093 1092
f 1092 1124 1125
f 1157 1125 1124
f 1124 1156 1157
f 1189 1157 1156
f 1156 1188 1189
f 1221 1189 1188
f 1188 1220 1221
f 1253 1221 1220
f 1220 1252 1253
f 1285 1253 1252
f 1252 1284 1285
f 1317 1285 1284
f 1284 1316 1317
f 1349 1317 1316
f 1316 1348 1349
f 1381 1349 1348
f 1348 1380 1381
f 1413 1381 1380
f 1380 1412 1413
f 1445 1413 1412
f 1412 1444 1445
f 1477 1445 1444
f 1444 1476 1477
f 1509 1477 1476
f 1476 1508 1509
f 1541 1509 1508
f 1508 1540 1541
f 1573 1541 1540
f 1540 1572 1573
f 1605 1573 1572
f 1572 1604 1605
f 1637 1605 1604
f 1604 1636 1637
f 1669 1637 1636
f 1636 1668 1669
f 1701 1669 1668
f 1668 1700 1701
f 1733 1701 1700
f 1700 1732 1733
f 1765 1733 1732
f 1732 1764 1765
f 1797 1765 1764
f 1764 1796 1797
f 1829 1797 1796
f 1796 1828 1829
f 1861 1829 1828
f 1828 1860 1861
f 1893 1861 1860
f 1860 1892 1893
f 1925 1893 1892
f 1892 1924 1925
f 1957 1925 1924
f 1924 1956 1957
f 1989 1957 1956
f 1956 1988 1989
f 1030 998 997
f 997 1029 1030
f 1062 1030 1029
f 1029 1061 1062
f 1094 1062 1061
f 1061 1093 1094
f 1126 1094 1093
f 1093 1125 1126
f 1158 1126 1125
f 1125 1157 1158
f 1190 1158 1157
f 1157 1189 1190
f 1222 1190 1189
f 1189 1221 1222
f 1254 1222 1221
f 1221 1253 1254
f 1286 1254 1253
f 1253 1285 1286
f 1318 1286 1285
f 1285 1317 1318
f 1350 1318 1317
f 1317 1349 1350
f 1382 1350 1349
f 1349 1381 1382
f 1414 1382 1381
f 1381 1413 1414
f 1446 1414 1413
f 1413 1445 1446
f 1478 1446 1445
f 1445 1477 1478
f 1510 1478 1477
f 1477 1509 1510
f 1542 1510 1509
f 1509 1541 1542
f 1574 1542 1541
f 1541 1573 1574
f 1606 1574 1573
f 1573 1605 1606
f 1638 1606 1605
f 1605 1637 1638
f 1670 1638 1637
f 1637 1669 1670
f 1702 1670 1669
f 1669 1701 1702
f 1734 1702 1701
f 1701 1733 1734
f 1766 1734 1733
f 1733 1765 1766
f 1798 1766 1765
f 1765 1797 1798
f 1830 1798 1797
f 1797 1829 1830
f 1862 1830 1829
f 1829 1861 1862
f 1894 1862 1861
f 1861 1893 1894
f 1926 1894 1893
f 1893 1925 1926
f 1958 1926 1925
f 1925 1957 1958
f 1990 1958 1957
f 1957 1989 1990
f 1031 999 998
f 998 1030 1031
f 1063 1031 1030
f 1030 1062 1063
f 1095 1063 1062
f 1062 1094 1095
f 1127 1095 1094
f 1094 1126 1127
f 1159 1127 1126
f 1126 1158 1159
f 1191 1159 1158
f 1158 1190 1191
f 1223 1191 1190
f 1190 1222 1223
f 1255 1223 1222
f 1222 1254 1255
f 1287 1255 1254
f 1254 1286 1287
f 1319 1287 1286
f 1286 1318 1319
f 1351 1319 1318
f 1318 1350 1351
f 1383 1351 1350
f 1350 1382 1383
f 1415 1383 1382
f 1382 1414 1415
f 1447 1415 1414
f 1414 1446 1447
f 1479 1447 1446
f 1446 1478 1479
f 1511 1479 1478
f 1478 1510 1511
f 1543 1511 1510
f 1510 1542 1543
f 1575 1543 1542
f 1542 1574 1575
f 1607 1575 1574
f 1574 1606 1607
f 1639 1607 1606
f 1606 1638 1639
f 1671 1639 1638
f 1638 1670 1671
f 1703 1671 1670
f 1670 1702 1703
f 1735 1703 1702
f 1702 1734 1735
f 1767 1735 1734
f 1734 1766 1767
f 1799 1767 1766
f 1766 1798 1799
f 1831 1799 1798
f 1798 1830 1831
f 1863 1831 1830
f 1830 1862 1863
f 1895 1863 1862
f 1862 1894 1895
f 1927 1895 1894
f 1894 1926 1927
f 1959 1927 1926
f 1926 1958 1959
f 1991 1959 1958
f 1958 1990 1991
f 1032 1000 999
f 999 1031 1032
f 1064 1032 1031
f 1031 1063 1064
f 1096 1064 1063
f 1063 1095 1096
f 1128 1096 1095
f 1095 1127 1128
f 1160 1128 1127
f 1127 1159 1160
f 1192 1160 1159
f 1159 1191 1192
f 1224 1192 1191
f 1191 1223 1224
f 1256 1224 1223
f 1223 1255 1256
f 1288 1256 1255
f 1255 1287 1288
f 1320 1288 1287
f 1287 1319 1320
f 1352 1320 1319
f 1319 1351 1352
f 1384 1352 1351
f 1351 1383 1384
f 1416 1384 1383
f 1383 1415 1416
f 1448 1416 1415
f 1415 1447 1448
f 1480 1448 1447
f 1447 1479 1480
f 1512 1480 1479
f 1479 1511 1512
f 1544 1512 1511
f 1511 1543 1544
f 1576 1544 1543
f 1543 1575 1576
f 1608 1576 1575
f 1575 1607 1608
f 1640 1608 1607
f 1607 1639 1640
f 1672 1640 1639
f 1639 1671 1672
f 1704 1672 1671
f 1671 1703 1704
f 1736 1704 1703
f 1703 1735 1736
f 1768 1736 1735
f 1735 1767 1768
f 1800 1768 1767
f 1767 1799 1800
f 1832 1800 1799
f 1799 1831 1832
f 1864 1832 1831
f 1831 1863 1864
f 1896 1864 1863
f 1863 1895 1896
f 1928 1896 1895
f 1895 1927 1928
f 1960 1928 1927
f 1927 1959 1960
f 1992 1960 1959
f 1959 1991 1992
f 1033 1001 1000
f 1000 1032 1033
f 1065 1033 1032
f 1032 1064 1065
f 1097 1065 1064
f 1064 1096 1097
f 1129 1097 1096
f 1096 1128 1129
f 1161 1129 1128
f 1128 1160 1161
f 1193 1161 1160
f 1160 1192 1193
f 1225 1193 1192
f 1192 1224 1225
f 1257 1225 1224
f 1224 1256 1257
f 1289 1257 1256
f 1256 1288 1289
f 1321 1289 1288
f 1288 1320 1321
f 1353 1321 1320
f 1320 1352 1353
f 1385 1353 1352
f 1352 1384 1385
f 1417 1385 1384
f 1384 1416 1417
f 1449 1417 1416
f 1416 1448 1449
f 1481 1449 1448
f 1448 1480 1481
f 1513 1481 1480
f 1480 1512 1513
f 1545 1513 1512
f 1512 1544 1545
f 1577 1545 1544
f 1544 1576 1577
f 1609 1577 1576
f 1576 1608 1609
f 1641 1609 1608
f 1608 1640 1641
f 1673 1641 1640
f 1640 1672 1673
f 1705 1673 1672
f 1672 1704 1705
f 1737 1705 1704
f 1704 1736 1737
f 1769 1737 1736
f 1736 1768 1769
f 1801 1769 1768
f 1768 1800 1801
f 1833 1801 1800
f 1800 1832 1833
f 1865 1833 1832
f 1832 1864 1865
f 1897 1865 1864
f 1864 1896 1897
f 1929 1897 1896
f 1896 1928 1929
f 1961 1929 1928
f 1928 1960 1961
f 1993 1961 1960
f 1960 1992 1993
f 1034 1002 1001
f 1001 1033 1034
f 1066 1034 1033
f 1033 1065 1066
f 1098 1066 1065
f 1065 1097 1098
f 1130 1098 1097
f 1097 1129 1130
f 1162 1130 1129
f 1129 1161 1162
f 1194 1162 1161
f 1161 1193 1194
f 1226 1194 1193
f 1193 1225 1226
f 1258 1226 1225
f 1225 1257 1258
f 1290 1258 1257
f 1257 1289 1290
f 1322 1290 1289
f 1289 1321 1322
f 1354 1322 1321
f 1321 1353 1354
f 1386 1354 1353
f 1353 1385 1386
f 1418 1386 1385
f 1385 1417 1418
f 1450 1418 1417
f 1417 1449 1450
f 1482 1450 1449
f 1449 1481 1482
f 1514 1482 1481
f 1481 1513 1514
f 1546 1514 1513
f 1513 1545 1546
f 1578 1546 1545
f 1545 1577 1578
f 1610 1578 1577
f 1577 1609 1610
f 1642 1610 1609
f 1609 1641 1642
f 1674 1642 1641
f 1641 1673 1674
f 1706 1674 1673
f 1673 1705 1706
f 1738 1706 1705
f 1705 1737 1738
f 1770 1738 1737
f 1737 1769 1770
f 1802 1770 1769
f 1769 1801 1802
f 1834 1802 1801
f 1801 1833 1834
f 1866 1834 1833
f 1833 1865 1866
f 1898 1866 1865
f 1865 1897 1898
f 1930 1898 1897
f 1897 1929 1930
f 1962 1930 1929
f 1929 1961 1962
f 1994 1962 1961
f 1961 1993 1994
f 1035 1003 1002
f 1002 1034 1035
f 1067 1035 1034
f 1034 1066 1067
f 1099 1067 1066
f 1066 1098 1099
f 1131 1099 1098
f 1098 1130 1131
f 1163 1131 1130
f 1130 1162 1163
f 1195 1163 1162
f 1162 1194 1195
f 1227 1195 1194
f 1194 1226 1227
f 1259 1227 1226
f 1226 1258 1259
f 1291 1259 1258
f 1258 1290 1291
f 1323 1291 1290
f 1290 1322 1323
f 1355 1323 1322
f 1322 1354 1355
f 1387 1355 1354
f 1354 1386 1387
f 1419 1387 1386
f 1386 1418 1419
f 1451 1419 1418
f 1418 1450 1451
f 1483 1451 1450
f 1450 1482 1483
f 1515 1483 1482
f 1482 1514 1515
f 1547 1515 1514
f 1514 1546 1547
f 1579 1547 1546
f 1546 1578 1579
f 1611 1579 1578
f 1578 1610 1611
f 1643 1611 1610
f 1610 1642 1643
f 1675 1643 1642
f 1642 1674 1675
f 1707 1675 1674
f 1674 1706 1707
f 1739 1707 1706
f 1706 1738 1739
f 1771 1739 1738
f 1738 1770 1771
f 1803 1771 1770
f 1770 1802 1803
f 1835 1803 1802
f 1802 1834 1835
f 1867 1835 1834
f 1834 1866 1867
f 1899 1867 1866
f 1866 1898 1899
f 1931 1899 1898
f 1898 1930 1931
f 1963 1931 1930
f 1930 1962 1963
f 1995 1963 1962
f 1962 1994 1995
f 1036 1004 1003
f 1003 1035 1036
f 1068 1036 1035
f 1035 1067 1068
f 1100 1068 1067
f 1067 1099 1100
f 1132 1100 1099
f 1099 1131 1132
f 1164 1132 1131
f 1131 1163 1164
f 1196 1164 1163
f 1163 1195 1196
f 1228 1196 1195
f 1195 1227 1228
f 1260 1228 1227
f 1227 1259 1260
f 1292 1260 1259
f 1259 1291 1292
f 1324 1292 1291
f 1291 1323 1324
f 1356 1324 1323
f 1323 1355 1356
f 1388 1356 1355
f 1355 1387 1388
f 1420 1388 1387
f 1387 1419 1420
f 1452 1420 1419
f 1419 1451 1452
f 1484 1452 1451
f 1451 1483 1484
f 1516 1484 1483
f 1483 1515 1516
f 1548 1516 1515
f 1515 1547 1548
f 1580 1548 1547
f 1547 1579 1580
f 1612 1580 1579
f 1579 1611 1612
f 1644 1612 1611
f 1611 1643 1644
f 1676 1644 1643
f 1643 1675 1676
f 1708 1676 1675
f 1675 1707 1708
f 1740 1708 1707
f 1707 1739 1740
f 1772 1740 1739
f 1739 1771 1772
f 1804 1772 1771
f 1771 1803 1804
f 1836 1804 1803
f 1803 1835 1836
f 1868 1836 1835
f 1835 1867 1868
f 1900 1868 1867
f 1867 1899 1900
f 1932 1900 1899
f 1899 1931 1932
f 1964 1932 1931
f 1931 1963 1964
f 1996 1964 1963
f 1963 1995 1996
f 1037 1005 1004
f 1004 1036 1037
f 1069 1037 1036
f 1036 1068 1069
f 1101 1069 1068
f 1068 1100 1101
f 1133 1101 1100
f 1100 1132 1133
f 1165 1133 1132
f 1132 1164 1165
f 1197 1165 1164
f 1164 1196 1197
f 1229 1197 1196
f 1196 1228 1229
f 1261 1229 1228
f 1228 1260 1261
f 1293 1261 1260
f 1260 1292 1293
f 1325 1293 1292
f 1292 1324 1325
f 1357 1325 1324
f 1324 1356 1357
f 1389 1357 1356
f 1356 1388 1389
f 1421 1389 1388
f 1388 1420 1421
f 1453 1421 1420
f 1420 1452 1453
f 1485 1453 1452
f 1452 1484 1485
f 1517 1485 1484
f 1484 1516 1517
f 1549 1517 1516
f 1516 1548 1549
f 1581 1549 1548
f 1548 1580 1581
f 1613 1581 1580
f 1580 1612 1613
f 1645 1613 1612
f 1612 1644 1645
f 1677 1645 1644
f 1644 1676 1677
f 1709 1677 1676
f 1676 1708 1709
f 1741 1709 1708
f 1708 1740 1741
f 1773 1741 1740
f 1740 1772 1773
f 1805 1773 1772
f 1772 1804 1805
f 1837 1805 1804
f 1804 1836 1837
f 1869 1837 1836
f 1836 1868 1869
f 1901 1869 1868
f 1868 1900 1901
f 1933 1901 1900
f 1900 1932 1933
f 1965 1933 1932
f 1932 1964 1965
f 1997 1965 1964
f 1964 1996 1997
f 1038 1006 1005
f 1005 1037 1038
f 1070 1038 1037
f 1037 1069 1070
f 1102 1070 1069
f 1069 1101 1102
f 1134 1102 1101
f 1101 1133 1134
f 1166 1134 1133
f 1133 1165 1166
f 1198 1166 1165
f 1165 1197 1198
f 1230 1198 1197
f 1197 1229 1230
f 1262 1230 1229
f 1229 1261 1262
f 1294 1262 1261
f 1261 1293 1294
f 1326 1294 1293
f 1293 1325 1326
f 1358 1326 1325
f 1325 1357 1358
f 1390 1358 1357
f 1357 1389 1390
f 1422 1390 1389
f 1389 1421 1422
f 1454 1422 1421
f 1421 1453 1454
f 1486 1454 1453
f 1453 1485 1486
f 1518 1486 1485
f 1485 1517 1518
f 1550 1518 1517
f 1517 1549 1550
f 1582 1550 1549
f 1549 1581 1582
f 1614 1582 1581
f 1581 1613 1614
f 1646 1614 1613
f 1613 1645 1646
f 1678 1646 1645
f 1645 1677 1678
f 1710 1678 1677
f 1677 1709 1710
f 1742 1710 1709
f 1709 1741 1742
f 1774 1742 1741
f 1741 1773 1774
f 1806 1774 1773
f 1773 1805 1806
f 1838 1806 1805
f 1805 1837 1838
f 1870 1838 1837
f 1837 1869 1870
f 1902 1870 1869
f 1869 1901 1902
f 1934 1902 1901
f 1901 1933 1934
f 1966 1934 1933
f 1933 1965 1966
f 1998 1966 1965
f 1965 1997 1998
f 1039 1007 1006
f 1006 1038 1039
f 1071 1039 1038
f 1038 1070 1071
f 1103 1071 1070
f 1070 1102 1103
f 1135 1103 1102
f 1102 1134 1135
f 1167 1135 1134
f 1134 1166 1167
f 1199 1167 1166
f 1166 1198 1199
f 1231 1199 1198
f 1198 1230 1231
f 1263 1231 1230
f 1230 1262 1263
f 1295 1263 1262
f 1262 1294 1295
f 1327 1295 1294
f 1294 1326 1327
f 1359 1327 1326
f 1326 1358 1359
f 1391 1359 1358
f 1358 1390 1391
f 1423 1391 1390
f 1390 1422 1423
f 1455 1423 1422
f 1422 1454 1455
f 1487 1455 1454
f 1454 1486 1487
f 1519 1487 1486
f 1486 1518 1519
f 1551 1519 1518
f 1518 1550 1551
f 1583 1551 1550
f 1550 1582 1583
f 1615 1583 1582
f 1582 1614 1615
f 1647 1615 1614
f 1614 1646 1647
f 1679 1647 1646
f 1646 1678 1679
f 1711 1679 1678
f 1678 1710 1711
f 1743 1711 1710
f 1710 1742 1743
f 1775 1743 1742
f 1742 1774 1775
f 1807 1775 1774
f 1774 1806 1807
f 1839 1807 1806
f 1806 1838 1839
f 1871 1839 1838
f 1838 1870 1871
f 1903 1871 1870
f 1870 1902 1903
f 1935 1903 1902
f 1902 1934 1935
f 1967 1935 1934
f 1934 1966 1967
f 1999 1967 1966
f 1966 1998 1999
f 1040 1008 1007
f 1007 1039 1040
f 1072 1040 1039
f 1039 1071 1072
f 1104 1072 1071
f 1071 1103 1104
f 1136 1104 1103
f 1103 1135 1136
f 1168 1136 1135
f 1135 1167 1168
f 1200 1168 1167
f 1167 1199 1200
f 1232 1200 1199
f 1199 1231 1232
f 1264 1232 1231
f 1231 1263 1264
f 1296 1264 1263
f 1263 1295 1296
f 1328 1296 1295
f 1295 1327 1328
f 1360 1328 1327
f 1327 1359 1360
f 1392 1360 1359
f 1359 1391 1392
f 1424 1392 1391
f 1391 1423 1424
f 1456 1424 1423
f 1423 1455 1456
f 1488 1456 1455
f 1455 1487 1488
f 1520 1488 1487
f 1487 1519 1520
f 1552 1520 1519
f 1519 1551 1552
f 1584 1552 1551
f 1551 1583 1584
f 1616 1584 1583
f 1583 1615 1616
f 1648 1616 1615
f 1615 1647 1648
f 1680 1648 1647
f 1647 1679 1680
f 1712 1680 1679
f 1679 1711 1712
f 1744 1712 1711
f 1711 1743 1744
f 1776 1744 1743
f 1743 1775 1776
f 1808 1776 1775
f 1775 1807 1808
f 1840 1808 1807
f 1807 1839 1840
f 1872 1840 1839
f 1839 1871 1872
f 1904 1872 1871
f 1871 1903 1904
f 1936 1904 1903
f 1903 1935 1936
f 1968 1936 1935
f 1935 1967 1968
f 2000 1968 1967
f 1967 1999 2000
f 1041 1009 1008
f 1008 1040 1041
f 1073 1041 1040
f 1040 1072 1073
f 1105 1073 1072
f 1072 1104 1105
f 1137 1105 1104
f 1104 1136 1137
f 1169 1137 1136
f 1136 1168 1169
f 1201 1169 1168
f 1168 1200 1201
f 1233 1201 1200
f 1200 1232 1233
f 1265 1233 1232
f 1232 1264 1265
f 1297 1265 1264
f 1264 1296 1297
f 1329 1297 1296
f 1296 1328 1329
f 1361 1329 1328
f 1328 1360 1361
f 1393 1361 1360
f 1360 1392 1393
f 1425 1393 1392
f 1392 1424 1425
f 1457 1425 1424
f 1424 1456 1457
f 1489 1457 1456
f 1456 1488 1489
f 1521 1489 1488
f 1488 1520 1521
f 1553 1521 1520
f 1520 1552 1553
f 1585 1553 1552
f 1552 1584 1585
f 1617 1585 1584
f 1584 1616 1617
f 1649 1617 1616
f 1616 1648 1649
f 1681 1649 1648
f 1648 1680 1681
f 1713 1681 1680
f 1680 1712 1713
f 1745 1713 1712
f 1712 1744 1745
f 1777 1745 1744
f 1744 1776 1777
f 1809 1777 1776
f 1776 1808 1809
f 1841 1809 1808
f 1808 1840 1841
f 1873 1841 1840
f 1840 1872 1873
f 1905 1873 1872
f 1872 1904 1905
f 1937 1905 1904
f 1904 1936 1937
f 1969 1937 1936
f 1936 1968 1969
f 2001 1969 1968
f 1968 2000 2001
f 1042 1010 1009
f 1009 1041 1042
f 1074 1042 1041
f 1041 1073 1074
f 1106 1074 1073
f 1073 1105 1106
f 1138 1106 1105
f 1105 1137 1138
f 1170 1138 1137
f 1137 1169 1170
f 1202 1170 1169
f 1169 1201 1202
f 1234 1202 1201
f 1201 1233 1234
f 1266 1234 1233
f 1233 1265 1266
f 1298 1266 1265
f 1265 1297 1298
f 1330 1298 1297
f 1297 1329 1330
f 1362 1330 1329
f 1329 1361 1362
f 1394 1362 1361
f 1361 1393 1394
f 1426 1394 1393
f 1393 1425 1426
f 1458 1426 1425
f 1425 1457 1458
f 1490 1458 1457
f 1457 1489 1490
f 1522 1490 1489
f 1489 1521 1522
f 1554 1522 1521
f 1521 1553 1554
f 1586 1554 1553
f 1553 1585 1586
f 1618 1586 1585
f 1585 1617 1618
f 1650 1618 1617
f 1617 1649 1650
f 1682 1650 1649
f 1649 1681 1682
f 1714 1682 1681
f 1681 1713 1714
f 1746 1714 1713
f 1713 1745 1746
f 1778 1746 1745
f 1745 1777 1778
f 1810 1778 1777
f 1777 1809 1810
f 1842 1810 1809
f 1809 1841 1842
f 1874 1842 1841
f 1841 1873 1874
f 1906 1874 1873
f 1873 1905 1906
f 1938 1906 1905
f 1905 1937 1938
f 1970 1938 1937
f 1937 1969 1970
f 2002 1970 1969
f 1969 2001 2002
f 1043 1011 1010
f 1010 1042 1043
f 1075 1043 1042
f 1042 1074 1075
f 1107 1075 1074
f 1074 1106 1107
f 1139 1107 1106
f 1106 1138 1139
f 1171 1139 1138
f 1138 1170 1171
f 1203 1171 1170
f 1170 1202 1203
f 1235 1203 1202
f 1202 1234 1235
f 1267 1235 1234
f 1234 1266 1267
f 1299 1267 1266
f 1266 1298 1299
f 1331 1299 1298
f 1298 1330 1331
f 1363 1331 1330
f 1330 1362 1363
f 1395 1363 1362
f 1362 1394 1395
f 1427 1395 1394
f 1394 1426 1427
f 1459 1427 1426
f 1426 1458 1459
f 1491 1459 1458
f 1458 1490 1491
f 1523 1491 1490
f 1490 1522 1523
f 1555 1523 1522
f 1522 1554 1555
f 1587 1555 1554
f 1554 1586 1587
f 1619 1587 1586
f 1586 1618 1619
f 1651 1619 1618
f 1618 1650 1651
f 1683 1651 1650
f 1650 1682 1683
f 1715 1683 1682
f 1682 1714 1715
f 1747 1715 1714
f 1714 1746 1747
f 1779 1747 1746
f 1746 1778 1779
f 1811 1779 1778
f 1778 1810 1811
f 1843 1811 1810
f 1810 1842 1843
f 1875 1843 1842
f 1842 1874 1875
f 1907 1875 1874
f 1874 1906 1907
f 1939 1907 1906
f 1906 1938 1939
f 1971 1939 1938
f 1938 1970 1971
f 2003 1971 1970
f 1970 2002 2003
f 1044 1012 1011
f 1011 1043 1044
f 1076 1044 1043
f 1043 1075 1076
f 1108 1076 1075
f 1075 1107 1108
f 1140 1108 1107
f 1107 1139 1140
f 1172 1140 1139
f 1139 1171 1172
f 1204 1172 1171
f 1171 1203 1204
f 1236 1204 1203
f 1203 1235 1236
f 1268 1236 1235
f 1235 1267 1268
f 1300 1268 1267
f 1267 1299 1300
f 1332 1300 1299
f 1299 1331 1332
f 1364 1332 1331
f 1331 1363 1364
f 1396 1364 1363
f 1363 1395 1396
f 1428 1396 1395
f 1395 1427 1428
f 1460 1428 1427
f 1427 1459 1460
f 1492 1460 1459
f 1459 1491 1492
f 1524 1492 1491
f 1491 1523 1524
f 1556 1524 1523
f 1523 1555 1556
f 1588 1556 1555
f 1555 1587 1588
f 1620 1588 1587
f 1587 1619 1620
f 1652 1620 1619
f 1619 1651 1652
f 1684 1652 1651
f 1651 1683 1684
f 1716 1684 1683
f 1683 1715 1716
f 1748 1716 1715
f 1715 1747 1748
f 1780 1748 1747
f 1747 1779 1780
f 1812 1780 1779
f 1779 1811 1812
f 1844 1812 1811
f 1811 1843 1844
f 1876 1844 1843
f 1843 1875 1876
f 1908 1876 1875
f 1875 1907 1908
f 1940 1908 1907
f 1907 1939 1940
f 1972 1940 1939
f 1939 1971 1972
f 2004 1972 1971
f 1971 2003 2004
f 1045 1013 1012
f 1012 1044 1045
f 1077 1045 1044
f 1044 1076 1077
f 1109 1077 1076
f 1076 1108 1109
f 1141 1109 1108
f 1108 1140 1141
f 1173 1141 1140
f 1140 1172 1173
f 1205 1173 1172
f 1172 1204 1205
f 1237 1205 1204
f 1204 1236 1237
f 1269 1237 1236
f 1236 1268 1269
f 1301 1269 1268
f 1268 1300 1301
f 1333 1301 1300
f 1300 1332 1333
f 1365 1333 1332
f 1332 1364 1365
f 1397 1365 1364
f 1364 1396 1397
f 1429 1397 1396
f 1396 1428 1429
f 1461 1429 1428
f 1428 1460 1461
f 1493 1461 1460
f 1460 1492 1493
f 1525 1493 1492
f 1492 1524 1525
f 1557 1525 1524
f 1524 1556 1557
f 1589 1557 1556
f 1556 1588 1589
f 1621 1589 1588
f 1588 1620 1621
f 1653 1621 1620
f 1620 1652 1653
f 1685 1653 1652
f 1652 1684 1685
f 1717 1685 1684
f 1684 1716 1717
f 1749 1717 1716
f 1716 1748 1749
f 1781 1749 1748
f 1748 1780 1781
f 1813 1781 1780
f 1780 1812 1813
f 1845 1813 1812
f 1812 1844 1845
f 1877 1845 1844
f 1844 1876 1877
f 1909 1877 1876
f 1876 1908 1909
f 1941 1909 1908
f 1908 1940 1941
f 1973 1941 1940
f 1940 1972 1973
f 2005 1973 1972
f 1972 2004 2005
f 1046 1014 1013
f 1013 1045 1046
f 1078 1046 1045
f 1045 1077 1078
f 1110 1078 1077
f 1077 1109 1110
f 1142 1110 1109
f 1109 1141 1142
f 1174 1142 1141
f 1141 1173 1174
f 1206 1174 1173
f 1173 1205 1206
f 1238 1206 1205
f 1205 1237 1238
f 1270 1238 1237
f 1237 1269 1270
f 1302 1270 1269
f 1269 1301 1302
f 1334 1302 1301
f 1301 1333 1334
f 1366 1334 1333
f 1333 1365 1366
f 1398 1366 1365
f 1365 1397 1398
f 1430 1398 1397
f 1397 1429 1430
f 1462 1430 1429
f 1429 1461 1462
f 1494 1462 1461
f 1461 1493 1494
f 1526 1494 1493
f 1493 1525 1526
f 1558 1526 1525
f 1525 1557 1558
f 1590 1558 1557
f 1557 1589 1590
f 1622 1590 1589
f 1589 1621 1622
f 1654 1622 1621
f 1621 1653 1654
f 1686 1654 1653
f 1653 1685 1686
f 1718 1686 1685
f 1685 1717 1718
f 1750 1718 1717
f 1717 1749 1750
f 1782 1750 1749
f 1749 1781 1782
f 1814 1782 1781
f 1781 1813 1814
f 1846 1814 1813
f 1813 1845 1846
f 1878 1846 1845
f 1845 1877 1878
f 1910 1878 1877
f 1877 1909 1910
f 1942 1910 1909
f 1909 1941 1942
f 1974 1942 1941
f 1941 1973 1974
f 2006 1974 1973
f 1973 2005 2006
f 1047 1015 1014
f 1014 1046 1047
f 1079 1047 1046
f 1046 1078 1079
f 1111 1079 1078
f 1078 1110 1111
f 1143 1111 1110
f 1110 1142 1143
f 1175 1143 1142
f 1142 1174 1175
f 1207 1175 1174
f 1174 1206 1207
f 1239 1207 1206
f 1206 1238 1239
f 1271 1239 1238
f 1238 1270 1271
f 1303 1271 1270
f 1270 1302 1303
f 1335 1303 1302
f 1302 1334 1335
f 1367 1335 1334
f 1334 1366 1367
f 1399 1367 1366
f 1366 1398 1399
f 1431 1399 1398
f 1398 1430 1431
f 1463 1431 1430
f 1430 1462 1463
f 1495 1463 1462
f 1462 1494 1495
f 1527 1495 1494
f 1494 1526 1527
f 1559 1527 1526
f 1526 1558 1559
f 1591 1559 1558
f 1558 1590 1591
f 1623 1591 1590
f 1590 1622 1623
f 1655 1623 1622
f 1622 1654 1655
f 1687 1655 1654
f 1654 1686 1687
f 1719 1687 1686
f 1686 1718 1719
f 1751 1719 1718
f 1718 1750 1751
f 1783 1751 1750
f 1750 1782 1783
f 1815 1783 1782
f 1782 1814 1815
f 1847 1815 1814
f 1814 1846 1847
f 1879 1847 1846
f 1846 1878 1879
f 1911 1879 1878
f 1878 1910 1911
f 1943 1911 1910
f 1910 1942 1943
f 1975 1943 1942
f 1942 1974 1975
f 2007 1975 1974
f 1974 2006 2007
f 1048 1016 1015
f 1015 1047 1048
f 1080 1048 1047
f 1047 1079 1080
f 1112 1080 1079
f 1079 1111 1112
f 1144 1112 1111
f 1111 1143 1144
f 1176 1144 1143
f 1143 1175 1176
f 1208 1176 1175
f 1175 1207 1208
f 1240 1208 1207
f 1207 1239 1240
f 1272 1240 1239
f 1239 1271 1272
f 1304 1272 1271
f 1271 1303 1304
f 1336 1304 1303
f 1303 1335 1336
f 1368 1336 1335
f 1335 1367 1368
f 1400 1368 1367
f 1367 1399 1400
f 1432 1400 1399
f 1399 1431 1432
f 1464 1432 1431
f 1431 1463 1464
f 1496 1464 1463
f 1463 1495 1496
f 1528 1496 1495
f 1495 1527 1528
f 1560 1528 1527
f 1527 1559 1560
f 1592 1560 1559
f 1559 1591 1592
f 1624 1592 1591
f 1591 1623 1624
f 1656 1624 1623
f 1623 1655 1656
f 1688 1656 1655
f 1655 1687 1688
f 1720 1688 1687
f 1687 1719 1720
f 1752 1720 1719
f 1719 1751 1752
f 1784 1752 1751
f 1751 1783 1784
f 1816 1784 1783
f 1783 1815 1816
f 1848 1816 1815
f 1815 1847 1848
f 1880 1848 1847
f 1847 1879 1880
f 1912 1880 1879
f 1879 1911 1912
f 1944 1912 1911
f 1911 1943 1944
f 1976 1944 1943
f 1943 1975 1976
f 2008 1976 1975
f 1975 2007 2008
f 1049 1017 1016
f 1016 1048 1049
f 1081 1049 1048
f 1048 1080 1081
f 1113 1081 1080
f 1080 1112 1113
f 1145 1113 1112
f 1112 1144 1145
f 1177 1145 1144
f 1144 1176 1177
f 1209 1177 1176
f 1176 1208 1209
f 1241 1209 1208
f 1208 1240 1241
f 1273 1241 1240
f 1240 1272 1273
f 1305 1273 1272
f 1272 1304 1305
f 1337 1305 1304
f 1304 1336 1337
f 1369 1337 1336
f 1336 1368 1369
f 1401 1369 1368
f 1368 1400 1401
f 1433 1401 1400
f 1400 1432 1433
f 1465 1433 1432
f 1432 1464 1465
f 1497 1465 1464
f 1464 1496 1497
f 1529 1497 1496
f 1496 1528 1529
f 1561 1529 1528
f 1528 1560 1561
f 1593 1561 1560
f 1560 1592 1593
f 1625 1593 1592
f 1592 1624 1625
f 1657 1625 1624
f 1624 1656 1657
f 1689 1657 1656
f 1656 1688 1689
f 1721 1689 1688
f 1688 1720 1721
f 1753 1721 1720
f 1720 1752 1753
f 1785 1753 1752
f 1752 1784 1785
f 1817 1785 1784
f 1784 1816 1817
f 1849 1817 1816
f 1816 1848 1849
f 1881 1849 1848
f 1848 1880 1881
f 1913 1881 1880
f 1880 1912 1913
f 1945 1913 1912
f 1912 1944 1945
f 1977 1945 1944
f 1944 1976 1977
f 2009 1977 1976
f 1976 2008 2009
f 1050 1018 1017
f 1017 1049 1050
f 1082 1050 1049
f 1049 1081 1082
f 1114 1082 1081
f 1081 1113 1114
f 1146 1114 1113
f 1113 1145 1146
f 1178 1146 1145
f 1145 1177 1178
f 1210 1178 1177
f 1177 1209 1210
f 1242 1210 1209
f 1209 1241 1242
f 1274 1242 1241
f 1241 1273 1274
f 1306 1274 1273
f 1273 1305 1306
f 1338 1306 1305
f 1305 1337 1338
f 1370 1338 1337
f 1337 1369 1370
f 1402 1370 1369
f 1369 1401 1402
f 1434 1402 1401
f 1401 1433 1434
f 1466 1434 1433
f 1433 1465 1466
f 1498 1466 1465
f 1465 1497 1498
f 1530 1498 1497
f 1497 1529 1530
f 1562 1530 1529
f 1529 1561 1562
f 1594 1562 1561
f 1561 1593 1594
f 1626 1594 1593
f 1593 1625 1626
f 1658 1626 1625
f 1625 1657 1658
f 1690 1658 1657
f 1657 1689 1690
f 1722 1690 1689
f 1689 1721 1722
f 1754 1722 1721
f 1721 1753 1754
f 1786 1754 1753
f 1753 1785 1786
f 1818 1786 1785
f 1785 1817 1818
f 1850 1818 1817
f 1817 1849 1850
f 1882 1850 1849
f 1849 1881 1882
f 1914 1882 1881
f 1881 1913 1914
f 1946 1914 1913
f 1913 1945 1946
f 1978 1946 1945
f 1945 1977 1978
f 2010 1978 1977
f 1977 2009 2010
