v 3484.79 115.843 2881.35
v 3485.31 116.211 2881.23
v 3485.77 115.943 2881.13
v 3485.79 116.349 2881.12
v 3485.89 111.456 2880.08
v 3485.79 111.833 2880.1
v 3485.01 111.366 2880.27
v 3484.62 115.346 2880.36
v 3485.78 112.463 2880.1
v 3485.7 113.136 2880.12
v 3485.74 114.001 2880.11
v 3485.6 115.446 2880.14
v 3485.82 115.446 2881.12
v 3486.2 111.466 2881.03
v 3484.84 115.346 2881.34
v 3485.23 111.366 2881.25
v 3484.84 115.346 2881.34
v 3485.23 111.366 2881.25
v 3484.62 115.346 2880.36
v 3485.01 111.366 2880.27
v 3485.96 111.923 2880.15
v 3485.79 111.833 2880.1
v 3486.01 111.466 2880.19
v 3485.89 111.456 2880.08
v 3485.84 113.235 2880.24
v 3485.74 114.001 2880.11
v 3485.7 113.136 2880.12
v 3485.91 112.595 2880.22
v 3485.78 112.463 2880.1
v 3485.6 115.446 2880.14
v 3485.74 114.001 2880.11
v 3485.82 115.446 2881.12
v 3485.84 113.235 2880.24
v 3486.2 111.466 2881.03
v 3485.91 112.595 2880.22
v 3485.96 111.923 2880.15
v 3486.01 111.466 2880.19
v 3483.82 115.246 2881.31
v 3484.21 111.266 2881.22
v 3483.71 115.246 2880.82
v 3484.1 111.266 2880.73
v 3484.1 111.266 2880.73
v 3485.07 111.366 2880.52
v 3483.71 115.246 2880.82
v 3484.68 115.346 2880.6
v 3483.82 115.246 2881.31
v 3483.71 115.246 2880.82
v 3484.79 115.346 2881.09
v 3484.68 115.346 2880.6
v 3484.79 115.346 2881.09
v 3485.18 111.366 2881
v 3483.82 115.246 2881.31
v 3484.21 111.266 2881.22
v 3485.67 115.456 2880.02
v 3485.62 115.953 2880.03
v 3484.5 115.336 2880.28
v 3484.46 115.833 2880.29
v 3485.62 115.953 2880.03
v 3485.88 115.953 2881.2
v 3484.46 115.833 2880.29
v 3484.72 115.833 2881.47
v 3485.88 115.953 2881.2
v 3485.93 115.456 2881.19
v 3484.72 115.833 2881.47
v 3484.77 115.336 2881.45
v 3485.93 115.456 2881.19
v 3485.67 115.456 2880.02
v 3484.77 115.336 2881.45
v 3484.5 115.336 2880.28
v 3484.5 115.336 2880.28
v 3484.46 115.833 2880.29
v 3484.77 115.336 2881.45
v 3484.72 115.833 2881.47
v 3485.93 115.456 2881.19
v 3485.88 115.953 2881.2
v 3485.67 115.456 2880.02
v 3485.62 115.953 2880.03
v 3491.47 116.045 2879.08
v 3491.86 112.065 2878.99
v 3491.58 116.045 2879.57
v 3491.97 112.065 2879.48
v 3491.97 112.065 2879.48
v 3491 111.965 2879.7
v 3491.58 116.045 2879.57
v 3490.61 115.945 2879.78
v 3491.47 116.045 2879.08
v 3491.58 116.045 2879.57
v 3490.5 115.945 2879.3
v 3490.61 115.945 2879.78
v 3490.5 115.945 2879.3
v 3490.89 111.965 2879.21
v 3491.47 116.045 2879.08
v 3491.86 112.065 2878.99
v 3489.48 115.845 2879.27
v 3489.87 111.865 2879.18
v 3490.45 115.945 2879.05
v 3490.84 111.965 2878.96
v 3491.06 111.965 2879.94
v 3490.67 115.945 2880.03
v 3490.84 111.965 2878.96
v 3490.45 115.945 2879.05
v 3490.15 112.565 2880.14
v 3490.67 115.945 2880.03
v 3491.06 111.965 2879.94
v 3490.29 111.886 2880.11
v 3489.98 112.983 2880.18
v 3489.7 115.845 2880.25
v 3489.98 112.983 2880.18
v 3490.15 112.565 2880.14
v 3490.21 111.88 2879.98
v 3490.29 111.886 2880.11
v 3490.06 111.865 2880.04
v 3490.04 112.024 2880.01
v 3490.21 111.88 2879.98
v 3489.98 112.983 2880.18
v 3489.7 115.845 2880.25
v 3489.98 112.983 2880.18
v 3489.48 115.845 2879.27
v 3490.06 111.865 2880.04
v 3489.87 111.865 2879.18
v 3490.04 112.024 2880.01
v 3490.79 115.955 2880.1
v 3490.74 116.452 2880.11
v 3490.52 115.955 2878.93
v 3490.48 116.452 2878.94
v 3490.74 116.452 2880.11
v 3489.57 116.332 2880.38
v 3490.48 116.452 2878.94
v 3489.31 116.332 2879.21
v 3489.57 116.332 2880.38
v 3489.62 115.835 2880.36
v 3489.31 116.332 2879.21
v 3489.36 115.835 2879.19
v 3489.62 115.835 2880.36
v 3490.79 115.955 2880.1
v 3489.36 115.835 2879.19
v 3490.52 115.955 2878.93
v 3490.52 115.955 2878.93
v 3490.48 116.452 2878.94
v 3489.36 115.835 2879.19
v 3489.31 116.332 2879.21
v 3489.62 115.835 2880.36
v 3489.57 116.332 2880.38
v 3490.79 115.955 2880.1
v 3490.74 116.452 2880.11
v 3489.49 116.946 2880.29
v 3489.27 116.946 2879.32
v 3489.16 117.472 2880.37
v 3488.94 117.472 2879.39
v 3488.69 117.867 2880.47
v 3488.47 117.867 2879.5
v 3490.39 117.351 2880.09
v 3490.62 116.442 2880.04
v 3489.49 116.946 2880.29
v 3489.65 116.342 2880.26
v 3490.4 116.442 2879.06
v 3490.17 117.351 2879.12
v 3489.43 116.342 2879.28
v 3489.27 116.946 2879.32
v 3489.67 118.14 2879.23
v 3488.94 117.472 2879.39
v 3489.17 118.564 2879.34
v 3488.96 118.27 2879.39
v 3488.61 118.122 2879.46
v 3488.47 117.867 2879.5
v 3490.17 117.351 2879.12
v 3490.4 116.442 2879.06
v 3490.39 117.351 2880.09
v 3490.62 116.442 2880.04
v 3490.16 117.711 2880.14
v 3489.16 117.472 2880.37
v 3489.17 118.564 2879.34
v 3489.67 118.14 2879.23
v 3489.48 118.395 2879.81
v 3489.59 118.318 2879.86
v 3489.87 118.14 2880.09
v 3489.66 118.317 2880.15
v 3490.16 117.711 2880.14
v 3489.87 118.14 2880.09
v 3490.16 117.711 2880.14
v 3489.81 118.067 2880.22
v 3489.6 118.299 2880.27
v 3489.61 118.327 2880.19
v 3489.66 118.317 2880.15
v 3489.43 116.342 2879.28
v 3489.65 116.342 2880.26
v 3485.55 115.943 2880.15
v 3485.77 115.943 2881.13
v 3485.79 116.349 2881.12
v 3485.75 116.441 2880.92
v 3485.57 116.318 2880.15
v 3485.55 115.943 2880.15
v 3485.57 116.318 2880.15
v 3485.09 116.357 2880.25
v 3484.57 115.843 2880.37
v 3484.62 116.673 2880.36
v 3484.74 116.425 2880.97
v 3484.57 115.843 2880.37
v 3484.62 116.673 2880.36
v 3484.83 116.517 2881.34
v 3484.79 115.843 2881.35
v 3484.83 116.517 2881.34
v 3489.81 118.067 2880.22
v 3488.79 118.053 2880.45
v 3488.82 118.029 2880.44
v 3488.69 117.867 2880.47
v 3488.97 118.043 2880.41
v 3489.32 117.898 2880.33
v 3489.6 118.299 2880.27
v 3488.69 117.867 2880.47
v 3488.47 117.867 2879.5
v 3488.79 118.053 2880.45
v 3488.61 118.122 2879.46
v 3488.96 118.27 2879.39
v 3489.48 118.395 2879.81
v 3489.32 117.898 2880.33
v 3488.82 118.029 2880.44
v 3488.97 118.043 2880.41
v 3489.59 118.318 2879.86
v 3489.61 118.327 2880.19
v 3489.66 118.317 2880.15
v 3489.6 118.299 2880.27
v 3489.17 118.564 2879.34
v 3484.62 116.673 2880.36
v 3485.09 116.357 2880.25
v 3484.74 116.425 2880.97
v 3485.57 116.318 2880.15
v 3485.75 116.441 2880.92
v 3485.31 116.211 2881.23
v 3484.83 116.517 2881.34
v 3485.79 116.349 2881.12
v 3491.31 113.068 2878.84
v 3491.24 113.685 2878.85
v 3491.49 113.068 2879.82
v 3491.24 115.351 2879.87
v 3490.98 116.051 2878.9
v 3491.1 116.546 2879.84
v 3490.89 117.034 2879
v 3491.05 116.946 2879.81
v 3491 117.334 2879.79
v 3490.86 117.334 2879.02
v 3491.12 117.348 2879.73
v 3491.1 116.962 2879.75
v 3491 117.334 2879.79
v 3491.05 116.946 2879.81
v 3492.25 113.712 2878.8
v 3492.12 114.702 2878.69
v 3492.16 113.705 2878.68
v 3490.89 117.034 2879
v 3490.92 117.131 2878.91
v 3490.86 117.334 2879.02
v 3490.9 117.341 2878.91
v 3490.96 116.823 2878.9
v 3490.98 116.051 2878.9
v 3491.1 116.546 2879.84
v 3491.14 116.609 2879.83
v 3491.24 115.351 2879.87
v 3491.36 116.509 2879.84
v 3492.3 113.178 2878.75
v 3492.19 113.167 2878.68
v 3491.12 117.348 2879.73
v 3491 117.334 2879.79
v 3491.29 117.374 2879.4
v 3491.58 116.697 2879.8
v 3491.36 116.509 2879.84
v 3491.14 116.609 2879.83
v 3491.58 113.722 2878.83
v 3491.64 113.105 2878.82
v 3491.62 113.692 2878.78
v 3491.73 113.116 2878.76
v 3491.62 114.293 2878.78
v 3491.59 114.245 2878.83
v 3491.42 114.811 2878.82
v 3491.54 114.301 2878.79
v 3491.59 114.245 2878.83
v 3491.42 114.811 2878.82
v 3491.49 113.658 2878.8
v 3491.58 113.722 2878.83
v 3491.64 113.105 2878.82
v 3491.48 113.088 2878.8
v 3490.98 116.051 2878.9
v 3491.24 113.685 2878.85
v 3491.42 114.811 2878.82
v 3491.54 114.301 2878.79
v 3491.49 113.658 2878.8
v 3491.31 113.068 2878.84
v 3491.48 113.088 2878.8
v 3491.55 115.687 2878.79
v 3491.42 114.811 2878.82
v 3492.08 115.089 2878.7
v 3492.12 114.702 2878.69
v 3491.62 114.293 2878.78
v 3492.16 113.705 2878.68
v 3491.62 113.692 2878.78
v 3491.73 113.116 2878.76
v 3492.19 113.167 2878.68
v 3491.55 115.687 2878.79
v 3491.3 115.887 2878.84
v 3491.42 114.811 2878.82
v 3490.98 116.051 2878.9
v 3490.96 116.823 2878.9
v 3491.19 116.358 2878.86
v 3492.37 113.556 2879.38
v 3492.25 113.712 2878.8
v 3492.3 113.178 2878.75
v 3492.32 114.312 2879.54
v 3492.12 114.702 2878.69
v 3492.24 114.878 2879.48
v 3492.08 115.089 2878.7
v 3492.06 115.494 2878.87
v 3492.19 115.726 2879.69
v 3492.02 116.168 2879.03
v 3492.03 116.424 2879.27
v 3492.06 116.913 2879.72
v 3492.03 116.935 2879.56
v 3492.06 116.913 2879.72
v 3492.19 115.726 2879.69
v 3491.58 116.697 2879.8
v 3492.07 114.854 2879.71
v 3491.49 113.068 2879.82
v 3492.21 114.329 2879.69
v 3492.23 114.11 2879.69
v 3492.11 113.473 2879.71
v 3492.07 114.854 2879.71
v 3492.19 115.726 2879.69
v 3492.24 114.878 2879.48
v 3492.21 114.329 2879.69
v 3492.32 114.312 2879.54
v 3492.23 114.11 2879.69
v 3492.37 113.556 2879.38
v 3492.11 113.473 2879.71
v 3491.29 117.374 2879.4
v 3490.9 117.341 2878.91
v 3491.48 116.833 2879.24
v 3490.92 117.131 2878.91
v 3490.96 116.823 2878.9
v 3492.08 115.089 2878.7
v 3492.06 115.494 2878.87
v 3491.66 116.141 2879.04
v 3492.02 116.168 2879.03
v 3491.55 115.687 2878.79
v 3491.3 115.887 2878.84
v 3492.03 116.424 2879.27
v 3491.19 116.358 2878.86
v 3492.03 116.935 2879.56
v 3490.9 117.341 2878.91
v 3491.29 117.374 2879.4
v 3490.86 117.334 2879.02
v 3491 117.334 2879.79
v 3491.23 117.361 2879.69
v 3491.12 117.348 2879.73
v 3491.29 117.374 2879.4
v 3491.1 116.962 2879.75
v 3491.23 117.361 2879.69
v 3491.51 117.012 2879.54
v 3491.37 117.046 2879.7
v 3491.12 117.348 2879.73
v 3491.37 117.046 2879.7
v 3491.23 117.361 2879.69
v 3491.66 116.911 2879.7
v 3491.66 116.911 2879.7
v 3491.74 116.957 2879.55
v 3491.29 117.374 2879.4
v 3492.06 116.913 2879.72
v 3492.06 116.913 2879.72
v 3492.03 116.935 2879.56
v 3492.88 113.245 2879.15
v 3492.85 113.525 2879.06
v 3492.65 113.206 2878.57
v 3492.77 113.551 2878.9
v 3492.51 113.211 2879.16
v 3492.85 113.525 2879.06
v 3492.88 113.245 2879.15
v 3492.77 113.551 2878.9
v 3492.46 113.193 2878.85
v 3492.65 113.206 2878.57
v 3492.46 113.193 2878.85
v 3492.77 113.551 2878.9
v 3492.51 113.211 2879.16
v 3492.85 113.525 2879.06
v 3492.39 113.217 2878.7
v 3492.37 113.396 2878.38
v 3492.43 113.203 2878.17
v 3492.37 113.701 2878.16
v 3492.43 113.203 2878.17
v 3491.91 113.87 2878.12
v 3491.5 113.091 2878.11
v 3492.37 113.701 2878.16
v 3491.73 113.673 2878.11
v 3491.5 113.091 2878.11
v 3491.73 113.673 2878.11
v 3491.77 113.408 2878.29
v 3492.37 113.396 2878.38
v 3492.06 113.442 2878.33
v 3492.37 113.701 2878.16
v 3491.91 113.87 2878.12
v 3492.39 113.217 2878.7
v 3492.27 113.2 2878.62
v 3492.37 113.396 2878.38
v 3492.06 113.442 2878.33
v 3491.48 113.095 2878.31
v 3491.77 113.408 2878.29
v 3491.5 113.091 2878.11
v 3491.49 113.068 2879.82
v 3492.11 113.473 2879.71
v 3491.92 113.111 2880.04
v 3492.41 113.162 2880.16
v 3492.76 113.205 2879.93
v 3492.69 113.205 2879.54
v 3492.37 113.556 2879.38
v 3492.9 113.23 2879.39
v 3492.3 113.178 2878.75
v 3483.29 111.068 2881.01
v 3482.91 114.043 2881.01
v 3482.85 114.934 2881.13
v 3483.2 114.99 2881.82
v 3483.74 111.127 2881.9
v 3483.17 115.119 2881.7
v 3482.81 115.137 2881.09
v 3483.63 115.345 2880.55
v 3483.34 112.808 2880.87
v 3484.02 112.372 2880.55
v 3483.54 112.292 2880.8
v 3483.95 111.697 2880.63
v 3483.56 111.693 2880.83
v 3483.68 111.118 2880.81
v 3484 111.16 2880.65
v 3484.25 111.192 2880.69
v 3484.63 111.242 2881.44
v 3484.23 111.732 2880.79
v 3484.11 115.194 2881.44
v 3484.02 112.372 2880.55
v 3483.63 115.345 2880.55
v 3484.23 111.732 2880.79
v 3484.02 112.372 2880.55
v 3483.95 111.697 2880.63
v 3482.85 114.934 2881.13
v 3482.82 115.023 2880.98
v 3482.81 115.137 2881.09
v 3482.82 115.139 2880.98
v 3482.92 114.722 2880.95
v 3482.91 114.043 2881.01
v 3483.52 114.561 2881.78
v 3483.74 111.127 2881.9
v 3483.2 114.99 2881.82
v 3484.25 111.192 2880.69
v 3484 111.16 2880.65
v 3484.11 115.194 2881.44
v 3484.63 111.242 2881.44
v 3483.91 115.319 2881.54
v 3483.74 115.064 2881.64
v 3483.71 114.749 2881.68
v 3483.25 115.295 2881.54
v 3483.32 115.4 2881.51
v 3482.98 115.255 2881.04
v 3483.41 115.411 2881.19
v 3482.98 115.255 2881.04
v 3483.6 115.261 2881.6
v 3483.52 114.561 2881.78
v 3483.2 114.99 2881.82
v 3483.25 115.295 2881.54
v 3483.6 115.261 2881.6
v 3483.71 114.749 2881.68
v 3483.74 115.064 2881.64
v 3483.17 115.119 2881.7
v 3483.54 111.725 2880.89
v 3483.61 111.109 2880.9
v 3483.56 111.693 2880.83
v 3483.68 111.118 2880.81
v 3483.54 112.292 2880.8
v 3483.53 112.247 2880.86
v 3483.34 112.808 2880.87
v 3483.46 112.3 2880.84
v 3483.53 112.247 2880.86
v 3483.34 112.808 2880.87
v 3483.44 111.658 2880.89
v 3483.54 111.725 2880.89
v 3483.61 111.109 2880.9
v 3483.45 111.089 2880.92
v 3483.29 111.068 2881.01
v 3483.44 111.658 2880.89
v 3483.46 112.3 2880.84
v 3482.91 114.043 2881.01
v 3483.45 111.089 2880.92
v 3482.92 114.722 2880.95
v 3482.82 115.023 2880.98
v 3482.82 115.139 2880.98
v 3483.89 115.411 2881.37
v 3483.56 115.431 2880.73
v 3483.41 115.411 2881.19
v 3483.89 115.411 2881.37
v 3483.32 115.4 2881.51
v 3483.52 114.389 2881.6
v 3483.37 114.383 2881.4
v 3484.49 110.56 2880.95
v 3484.33 110.554 2880.76
v 3478.53 108.252 2885.77
v 3478.38 108.245 2885.58
v 3477.57 112.08 2886.42
v 3477.42 112.074 2886.22
v 3481.95 112.492 2882.27
v 3480.82 113.152 2883.15
v 3481.2 109.393 2882.97
v 3479.98 113.103 2883.93
v 3479.4 112.897 2884.29
v 3479.95 112.949 2883.85
v 3481.57 113.728 2882.6
v 3481.54 113.606 2882.56
v 3481.8 113.829 2882.35
v 3480.82 113.152 2883.15
v 3480.87 113.278 2883.2
v 3479.47 112.83 2884.8
v 3479.7 112.906 2884.69
v 3479.5 112.747 2884.86
v 3478.95 112.629 2885.22
v 3478.97 112.566 2885.29
v 3478.86 112.578 2885.38
v 3479.4 112.897 2884.29
v 3478.9 112.651 2885.02
v 3477.26 112.068 2886.03
v 3477.42 112.074 2886.22
v 3479.98 113.103 2883.93
v 3480.43 113.068 2883.78
v 3480.87 113.278 2883.2
v 3481.88 113.805 2882.61
v 3481.57 113.728 2882.6
v 3481.8 113.829 2882.35
v 3483.37 114.383 2881.4
v 3483.21 114.376 2881.21
v 3482.82 113.965 2882.08
v 3483.52 114.389 2881.6
v 3482.87 113.886 2882.13
v 3483.52 114.389 2881.6
v 3484.49 110.56 2880.95
v 3482.87 113.886 2882.13
v 3482.94 113.138 2882.1
v 3482.34 113.8 2882.34
v 3480.26 113.138 2884.15
v 3480.4 112.778 2884.14
v 3480.18 113.094 2884.3
v 3480.76 113.176 2883.63
v 3481.14 112.108 2883.57
v 3481.88 111.63 2882.99
v 3481.54 111.916 2883.25
v 3481.19 113.538 2883.17
v 3482.46 111.618 2882.53
v 3481.75 113.731 2882.85
v 3482.95 112.264 2882.12
v 3482.34 113.8 2882.34
v 3482.94 113.138 2882.1
v 3482.87 113.886 2882.13
v 3477.26 112.068 2886.03
v 3478.22 108.239 2885.38
v 3479.4 112.897 2884.29
v 3481.54 113.606 2882.56
v 3483.21 114.376 2881.21
v 3481.8 113.829 2882.35
v 3479.95 112.949 2883.85
v 3481.51 109.406 2883.36
v 3478.53 108.252 2885.77
v 3480.4 112.778 2884.14
v 3482.95 112.264 2882.12
v 3482.46 111.618 2882.53
v 3481.14 112.108 2883.57
v 3480.18 113.094 2884.3
v 3479.7 112.906 2884.69
v 3479.5 112.747 2884.86
v 3481.54 111.916 2883.25
v 3481.88 111.63 2882.99
v 3477.57 112.08 2886.42
v 3478.86 112.578 2885.38
v 3478.97 112.566 2885.29
v 3482.69 110.29 2881.75
v 3482.78 110.006 2881.69
v 3484.17 110.548 2880.56
v 3481.99 111.814 2882.26
v 3482.08 111.841 2882.27
v 3481.95 112.492 2882.27
v 3481.95 112.492 2882.27
v 3482.08 111.841 2882.27
v 3482.11 111.873 2882.16
v 3482.16 111.441 2882.13
v 3482.17 111.423 2882.22
v 3482.23 111.087 2882.18
v 3482.26 111.124 2882.07
v 3482.39 110.599 2882.06
v 3482.47 110.653 2881.91
v 3482.54 110.21 2881.96
v 3482.69 110.29 2881.75
v 3482.6 109.922 2881.92
v 3482.78 110.006 2881.69
v 3482.6 109.922 2881.92
v 3482.54 110.21 2881.96
v 3482.4 109.861 2881.99
v 3482.38 110.16 2882
v 3482.39 110.599 2882.06
v 3482.24 110.547 2882.1
v 3482.23 111.087 2882.18
v 3482.08 111.031 2882.22
v 3482.08 111.399 2882.2
v 3482.17 111.423 2882.22
v 3482.47 110.653 2881.91
v 3482.26 111.124 2882.07
v 3482.16 111.441 2882.13
v 3482.11 111.873 2882.16
v 3481.99 111.814 2882.26
v 3482.08 111.399 2882.2
v 3482.08 111.031 2882.22
v 3482.24 110.547 2882.1
v 3482.38 110.16 2882
v 3482.4 109.861 2881.99
v 3483.21 114.376 2881.21
v 3484.17 110.548 2880.56
v 3478.22 108.239 2885.38
v 3477.26 112.068 2886.03
v 3483.52 114.389 2881.6
v 3482.82 113.965 2882.08
v 3482.34 113.8 2882.34
v 3481.75 113.731 2882.85
v 3478.86 112.578 2885.38
v 3477.57 112.08 2886.42
v 3478.95 112.629 2885.22
v 3479.47 112.83 2884.8
v 3479.7 112.906 2884.69
v 3480.18 113.094 2884.3
v 3480.26 113.138 2884.15
v 3480.76 113.176 2883.63
v 3481.19 113.538 2883.17
v 3477.92 108.384 2884.95
v 3477.44 111.298 2885.47
v 3477.2 112.13 2885.72
v 3476.69 111.957 2886.27
v 3477.26 108.146 2885.66
v 3476.77 112.109 2886.25
v 3477.19 112.342 2885.73
v 3477.97 112.461 2886.36
v 3477.87 110.054 2885.45
v 3478.46 109.548 2885.84
v 3478.06 109.532 2885.46
v 3478.44 108.906 2885.6
v 3478.11 108.952 2885.31
v 3478.24 108.384 2885.24
v 3478.5 108.384 2885.49
v 3478.55 108.348 2885.73
v 3477.99 108.146 2886.34
v 3478.39 108.844 2885.91
v 3477.35 112.017 2887.03
v 3478.46 109.548 2885.84
v 3477.97 112.461 2886.36
v 3478.39 108.844 2885.91
v 3478.46 109.548 2885.84
v 3478.44 108.906 2885.6
v 3477.2 112.13 2885.72
v 3477.31 112.252 2885.67
v 3477.19 112.342 2885.73
v 3477.3 112.365 2885.7
v 3477.41 111.95 2885.66
v 3477.44 111.298 2885.47
v 3476.89 111.482 2886.43
v 3477.26 108.146 2885.66
v 3476.69 111.957 2886.27
v 3478.55 108.348 2885.73
v 3478.5 108.384 2885.49
v 3477.35 112.017 2887.03
v 3477.99 108.146 2886.34
v 3477.17 112.162 2886.92
v 3477.04 111.939 2886.72
v 3477.03 111.639 2886.62
v 3476.92 112.292 2886.32
v 3476.97 112.382 2886.4
v 3477.29 112.426 2885.9
v 3477.3 112.441 2886.38
v 3477.29 112.426 2885.9
v 3477.01 112.166 2886.64
v 3476.89 111.482 2886.43
v 3476.69 111.957 2886.27
v 3476.92 112.292 2886.32
v 3477.01 112.166 2886.64
v 3477.03 111.639 2886.62
v 3477.04 111.939 2886.72
v 3476.77 112.109 2886.25
v 3478.04 108.975 2885.32
v 3478.14 108.373 2885.21
v 3478.11 108.952 2885.31
v 3478.24 108.384 2885.24
v 3478.06 109.532 2885.46
v 3478.01 109.479 2885.46
v 3477.87 110.054 2885.45
v 3478 109.549 2885.4
v 3478.01 109.479 2885.46
v 3477.87 110.054 2885.45
v 3478.01 108.933 2885.21
v 3478.04 108.975 2885.32
v 3478.14 108.373 2885.21
v 3478.05 108.384 2885.07
v 3477.92 108.384 2884.95
v 3478.01 108.933 2885.21
v 3478 109.549 2885.4
v 3477.44 111.298 2885.47
v 3478.05 108.384 2885.07
v 3477.41 111.95 2885.66
v 3477.31 112.252 2885.67
v 3477.3 112.365 2885.7
v 3477.31 112.291 2886.87
v 3477.77 112.522 2886.37
v 3477.3 112.441 2886.38
v 3477.31 112.291 2886.87
v 3476.97 112.382 2886.4
v 3487.86 110.308 2879.73
v 3487.86 110.431 2879.73
v 3487.66 110.308 2879.73
v 3487.66 110.431 2879.73
v 3487.81 110.485 2879.78
v 3487.81 110.485 2879.88
v 3487.71 110.485 2879.78
v 3487.71 110.485 2879.88
v 3487.86 110.431 2879.93
v 3487.86 110.308 2879.93
v 3487.66 110.431 2879.93
v 3487.66 110.308 2879.93
v 3487.86 110.308 2879.93
v 3487.86 110.308 2879.73
v 3487.66 110.308 2879.93
v 3487.66 110.308 2879.73
v 3487.66 110.308 2879.73
v 3487.66 110.431 2879.73
v 3487.66 110.308 2879.93
v 3487.66 110.431 2879.93
v 3487.86 110.308 2879.93
v 3487.86 110.431 2879.93
v 3487.86 110.308 2879.73
v 3487.86 110.431 2879.73
v 3487.56 110.436 2879.63
v 3487.66 110.431 2879.73
v 3487.96 110.436 2879.63
v 3487.86 110.431 2879.73
v 3487.56 110.436 2880.03
v 3487.66 110.431 2879.93
v 3487.56 110.436 2879.63
v 3487.66 110.431 2879.73
v 3487.96 110.436 2880.03
v 3487.86 110.431 2879.93
v 3487.56 110.436 2880.03
v 3487.66 110.431 2879.93
v 3487.96 110.436 2879.63
v 3487.86 110.431 2879.73
v 3487.96 110.436 2880.03
v 3487.86 110.431 2879.93
v 3487.96 110.436 2879.63
v 3487.82 110.5 2879.77
v 3487.56 110.436 2879.63
v 3487.69 110.5 2879.77
v 3487.56 110.436 2879.63
v 3487.69 110.5 2879.77
v 3487.56 110.436 2880.03
v 3487.69 110.5 2879.89
v 3487.56 110.436 2880.03
v 3487.69 110.5 2879.89
v 3487.96 110.436 2880.03
v 3487.82 110.5 2879.89
v 3487.96 110.436 2880.03
v 3487.82 110.5 2879.89
v 3487.96 110.436 2879.63
v 3487.82 110.5 2879.77
v 3487.82 110.5 2879.77
v 3487.81 110.485 2879.78
v 3487.69 110.5 2879.77
v 3487.71 110.485 2879.78
v 3487.69 110.5 2879.77
v 3487.71 110.485 2879.78
v 3487.69 110.5 2879.89
v 3487.71 110.485 2879.88
v 3487.69 110.5 2879.89
v 3487.71 110.485 2879.88
v 3487.82 110.5 2879.89
v 3487.81 110.485 2879.88
v 3487.82 110.5 2879.89
v 3487.81 110.485 2879.88
v 3487.82 110.5 2879.77
v 3487.81 110.485 2879.78
v 3453 98.4457 2914
v 3453 98.6764 2912
v 3453 98.8933 2910
v 3453 99.096 2908
v 3453 99.325 2906
v 3453 99.637 2904
v 3453 99.9263 2902
v 3453 100.193 2900
v 3453 100.436 2898
v 3453 100.655 2896
v 3453 100.851 2894
v 3453 101.023 2892
v 3453 101.171 2890
v 3453 101.295 2888
v 3453 100.787 2886
v 3453 98.784 2884
v 3453 96.4352 2882
v 3453 96.0132 2880
v 3453 96.6201 2878
v 3453 97.6726 2876
v 3453 100.313 2874
v 3453 101.46 2872
v 3453 101.384 2870
v 3453 101.289 2868
v 3453 101.176 2866
v 3453 101.046 2864
v 3453 100.901 2862
v 3453 100.742 2860
v 3453 100.57 2858
v 3453 100.387 2856
v 3453 100.195 2854
v 3453 99.9962 2852
v 3455 98.8059 2914
v 3455 99.0426 2912
v 3455 99.265 2910
v 3455 99.631 2908
v 3455 99.9746 2906
v 3455 100.295 2904
v 3455 100.592 2902
v 3455 100.864 2900
v 3455 101.113 2898
v 3455 101.336 2896
v 3455 101.535 2894
v 3455 101.709 2892
v 3455 101.858 2890
v 3455 101.982 2888
v 3455 101.702 2886
v 3455 99.6644 2884
v 3455 97.8251 2882
v 3455 96.6167 2880
v 3455 96.6482 2878
v 3455 97.6219 2876
v 3455 100.368 2874
v 3455 102.078 2872
v 3455 102.017 2870
v 3455 101.911 2868
v 3455 101.786 2866
v 3455 101.643 2864
v 3455 101.483 2862
v 3455 101.309 2860
v 3455 101.121 2858
v 3455 100.922 2856
v 3455 100.713 2854
v 3455 100.496 2852
v 3457 99.1655 2914
v 3457 99.4937 2912
v 3457 99.8937 2910
v 3457 100.27 2908
v 3457 100.623 2906
v 3457 100.952 2904
v 3457 101.256 2902
v 3457 101.535 2900
v 3457 101.789 2898
v 3457 102.016 2896
v 3457 102.219 2894
v 3457 102.395 2892
v 3457 102.545 2890
v 3457 102.669 2888
v 3457 102.538 2886
v 3457 100.843 2884
v 3457 98.8444 2882
v 3457 97.3024 2880
v 3457 97.3629 2878
v 3457 98.2812 2876
v 3457 100.663 2874
v 3457 102.548 2872
v 3457 102.653 2870
v 3457 102.536 2868
v 3457 102.399 2866
v 3457 102.243 2864
v 3457 102.07 2862
v 3457 101.882 2860
v 3457 101.679 2858
v 3457 101.464 2856
v 3457 101.238 2854
v 3457 101.005 2852
v 3459 99.6752 2914
v 3459 100.11 2912
v 3459 100.521 2910
v 3459 100.907 2908
v 3459 101.27 2906
v 3459 101.607 2904
v 3459 101.918 2902
v 3459 102.203 2900
v 3459 102.462 2898
v 3459 102.695 2896
v 3459 102.9 2894
v 3459 103.078 2892
v 3459 103.23 2890
v 3459 103.354 2888
v 3459 103.347 2886
v 3459 101.961 2884
v 3459 99.5301 2882
v 3459 98.0912 2880
v 3459 97.6259 2878
v 3459 98.4144 2876
v 3459 100.811 2874
v 3459 102.839 2872
v 3459 103.291 2870
v 3459 103.163 2868
v 3459 103.015 2866
v 3459 102.847 2864
v 3459 102.661 2862
v 3459 102.459 2860
v 3459 102.241 2858
v 3459 102.011 2856
v 3459 101.77 2854
v 3459 101.519 2852
v 3461 100.277 2914
v 3461 100.723 2912
v 3461 101.145 2910
v 3461 101.542 2908
v 3461 101.913 2906
v 3461 102.258 2904
v 3461 102.577 2902
v 3461 102.869 2900
v 3461 103.133 2898
v 3461 103.37 2896
v 3461 103.579 2894
v 3461 103.759 2892
v 3461 103.912 2890
v 3461 104.036 2888
v 3461 104.095 2886
v 3461 102.924 2884
v 3461 100.433 2882
v 3461 98.5545 2880
v 3461 97.574 2878
v 3461 98.8869 2876
v 3461 100.832 2874
v 3461 103.102 2872
v 3461 103.929 2870
v 3461 103.792 2868
v 3461 103.633 2866
v 3461 103.453 2864
v 3461 103.254 2862
v 3461 103.038 2860
v 3461 102.807 2858
v 3461 102.562 2856
v 3461 102.305 2854
v 3461 102.039 2852
v 3463 100.876 2914
v 3463 101.333 2912
v 3463 101.766 2910
v 3463 102.172 2908
v 3463 102.553 2906
v 3463 102.906 2904
v 3463 103.232 2902
v 3463 103.53 2900
v 3463 103.8 2898
v 3463 104.041 2896
v 3463 104.253 2894
v 3463 104.436 2892
v 3463 104.59 2890
v 3463 104.715 2888
v 3463 104.811 2886
v 3463 103.738 2884
v 3463 101.225 2882
v 3463 98.8887 2880
v 3463 98.491 2878
v 3463 99.5263 2876
v 3463 101.118 2874
v 3463 103.066 2872
v 3463 104.479 2870
v 3463 104.419 2868
v 3463 104.25 2866
v 3463 104.059 2864
v 3463 103.848 2862
v 3463 103.62 2860
v 3463 103.375 2858
v 3463 103.115 2856
v 3463 102.844 2854
v 3463 102.562 2852
v 3465 101.47 2914
v 3465 101.939 2912
v 3465 102.382 2910
v 3465 102.798 2908
v 3465 103.187 2906
v 3465 103.549 2904
v 3465 103.882 2902
v 3465 104.186 2900
v 3465 104.461 2898
v 3465 104.707 2896
v 3465 104.923 2894
v 3465 105.108 2892
v 3465 105.264 2890
v 3465 105.389 2888
v 3465 105.484 2886
v 3465 104.881 2884
v 3465 102.976 2882
v 3465 100.951 2880
v 3465 99.5989 2878
v 3465 99.2494 2876
v 3465 100.121 2874
v 3465 102.81 2872
v 3465 104.793 2870
v 3465 105.045 2868
v 3465 104.865 2866
v 3465 104.664 2864
v 3465 104.442 2862
v 3465 104.201 2860
v 3465 103.943 2858
v 3465 103.67 2856
v 3465 103.384 2854
v 3465 103.088 2852
v 3467 102.059 2914
v 3467 102.539 2912
v 3467 102.992 2910
v 3467 103.418 2908
v 3467 103.816 2906
v 3467 104.185 2904
v 3467 104.525 2902
v 3467 104.836 2900
v 3467 105.116 2898
v 3467 105.366 2896
v 3467 105.585 2894
v 3467 105.773 2892
v 3467 105.931 2890
v 3467 106.057 2888
v 3467 106.151 2886
v 3467 105.842 2884
v 3467 104.135 2882
v 3467 101.706 2880
v 3467 100.991 2878
v 3467 100.932 2876
v 3467 101.332 2874
v 3467 102.47 2872
v 3467 104.794 2870
v 3467 105.667 2868
v 3467 105.478 2866
v 3467 105.266 2864
v 3467 105.033 2862
v 3467 104.78 2860
v 3467 104.51 2858
v 3467 104.224 2856
v 3467 103.925 2854
v 3467 103.615 2852
v 3469 102.643 2914
v 3469 103.134 2912
v 3469 103.596 2910
v 3469 104.031 2908
v 3469 104.438 2906
v 3469 104.814 2904
v 3469 105.161 2902
v 3469 105.478 2900
v 3469 105.763 2898
v 3469 106.018 2896
v 3469 106.24 2894
v 3469 106.431 2892
v 3469 106.59 2890
v 3469 106.717 2888
v 3469 106.811 2886
v 3469 106.779 2884
v 3469 105.566 2882
v 3469 103.593 2880
v 3469 101.761 2878
v 3469 102.36 2876
v 3469 102.122 2874
v 3469 102.294 2872
v 3469 104.769 2870
v 3469 106.057 2868
v 3469 106.086 2866
v 3469 105.864 2864
v 3469 105.621 2862
v 3469 105.357 2860
v 3469 105.075 2858
v 3469 104.777 2856
v 3469 104.465 2854
v 3469 104.141 2852
v 3471 103.22 2914
v 3471 103.721 2912
v 3471 104.193 2910
v 3471 104.637 2908
v 3471 105.051 2906
v 3471 105.436 2904
v 3471 105.789 2902
v 3471 106.111 2900
v 3471 106.402 2898
v 3471 106.66 2896
v 3471 106.886 2894
v 3471 107.079 2892
v 3471 107.24 2890
v 3471 107.367 2888
v 3471 107.462 2886
v 3471 107.523 2884
v 3471 106.795 2882
v 3471 105.189 2880
v 3471 103.166 2878
v 3471 102.585 2876
v 3471 102.478 2874
v 3471 102.205 2872
v 3471 104.78 2870
v 3471 106.203 2868
v 3471 106.688 2866
v 3471 106.457 2864
v 3471 106.203 2862
v 3471 105.929 2860
v 3471 105.635 2858
v 3471 105.325 2856
v 3471 105.001 2854
v 3471 104.665 2852
v 3473 103.79 2914
v 3473 104.3 2912
v 3473 104.782 2910
v 3473 105.234 2908
v 3473 105.656 2906
v 3473 106.047 2904
v 3473 106.407 2902
v 3473 106.735 2900
v 3473 107.03 2898
v 3473 107.293 2896
v 3473 107.522 2894
v 3473 107.718 2892
v 3473 107.88 2890
v 3473 108.008 2888
v 3473 108.102 2886
v 3473 108.163 2884
v 3473 107.844 2882
v 3473 106.516 2880
v 3473 105.055 2878
v 3473 104.258 2876
v 3473 104.035 2874
v 3473 102.884 2872
v 3473 104.677 2870
v 3473 105.914 2868
v 3473 107.095 2866
v 3473 107.042 2864
v 3473 106.779 2862
v 3473 106.494 2860
v 3473 106.19 2858
v 3473 105.869 2856
v 3473 105.533 2854
v 3473 105.185 2852
v 3475 104.351 2914
v 3475 104.87 2912
v 3475 105.361 2910
v 3475 105.821 2908
v 3475 106.25 2906
v 3475 106.649 2904
v 3475 107.014 2902
v 3475 107.348 2900
v 3475 107.648 2898
v 3475 107.914 2896
v 3475 108.146 2894
v 3475 108.344 2892
v 3475 108.507 2890
v 3475 108.636 2888
v 3475 108.731 2886
v 3475 108.791 2884
v 3475 108.719 2882
v 3475 107.613 2880
v 3475 105.974 2878
v 3475 104.824 2876
v 3475 104.161 2874
v 3475 103.516 2872
v 3475 104.331 2870
v 3475 105.664 2868
v 3475 107.055 2866
v 3475 107.618 2864
v 3475 107.346 2862
v 3475 107.052 2860
v 3475 106.738 2858
v 3475 106.406 2856
v 3475 106.059 2854
v 3475 105.699 2852
v 3477 104.903 2914
v 3477 105.431 2912
v 3477 105.929 2910
v 3477 106.397 2908
v 3477 106.834 2906
v 3477 107.238 2904
v 3477 107.61 2902
v 3477 107.948 2900
v 3477 108.252 2898
v 3477 108.522 2896
v 3477 108.757 2894
v 3477 108.957 2892
v 3477 109.122 2890
v 3477 109.252 2888
v 3477 109.346 2886
v 3477 109.405 2884
v 3477 109.429 2882
v 3477 108.703 2880
v 3477 107.262 2878
v 3477 105.109 2876
v 3477 104.296 2874
v 3477 104.203 2872
v 3477 104.836 2870
v 3477 105.302 2868
v 3477 106.741 2866
v 3477 107.922 2864
v 3477 107.902 2862
v 3477 107.599 2860
v 3477 107.276 2858
v 3477 106.934 2856
v 3477 106.576 2854
v 3477 106.206 2852
v 3479 105.444 2914
v 3479 105.98 2912
v 3479 106.487 2910
v 3479 106.962 2908
v 3479 107.405 2906
v 3479 107.815 2904
v 3479 108.192 2902
v 3479 108.535 2900
v 3479 108.843 2898
v 3479 109.116 2896
v 3479 109.354 2894
v 3479 109.556 2892
v 3479 109.722 2890
v 3479 109.852 2888
v 3479 109.946 2886
v 3479 110.004 2884
v 3479 110.027 2882
v 3479 109.792 2880
v 3479 108.56 2878
v 3479 106.542 2876
v 3479 104.187 2874
v 3479 104.073 2872
v 3479 104.827 2870
v 3479 105.811 2868
v 3479 106.518 2866
v 3479 107.862 2864
v 3479 108.405 2862
v 3479 108.136 2860
v 3479 107.803 2858
v 3479 107.452 2856
v 3479 107.084 2854
v 3479 106.704 2852
v 3481 105.974 2914
v 3481 106.518 2912
v 3481 107.031 2910
v 3481 107.513 2908
v 3481 107.962 2906
v 3481 108.378 2904
v 3481 108.76 2902
v 3481 109.107 2900
v 3481 109.419 2898
v 3481 109.695 2896
v 3481 109.935 2894
v 3481 110.139 2892
v 3481 110.306 2890
v 3481 110.436 2888
v 3481 110.53 2886
v 3481 110.587 2884
v 3481 110.608 2882
v 3481 110.585 2880
v 3481 109.662 2878
v 3481 108.215 2876
v 3481 106.332 2874
v 3481 105.189 2872
v 3481 104.973 2870
v 3481 105.573 2868
v 3481 105.928 2866
v 3481 107.414 2864
v 3481 108.427 2862
v 3481 108.658 2860
v 3481 108.317 2858
v 3481 107.957 2856
v 3481 107.581 2854
v 3481 107.191 2852
v 3483 106.492 2914
v 3483 107.043 2912
v 3483 107.563 2910
v 3483 108.05 2908
v 3483 108.505 2906
v 3483 108.925 2904
v 3483 109.311 2902
v 3483 109.662 2900
v 3483 109.978 2898
v 3483 110.257 2896
v 3483 110.499 2894
v 3483 110.704 2892
v 3483 110.872 2890
v 3483 111.003 2888
v 3483 111.096 2886
v 3483 111.152 2884
v 3483 111.172 2882
v 3483 111.154 2880
v 3483 110.889 2878
v 3483 109.535 2876
v 3483 107.877 2874
v 3483 105.48 2872
v 3483 105.76 2870
v 3483 106.284 2868
v 3483 105.66 2866
v 3483 107.033 2864
v 3483 108.05 2862
v 3483 108.859 2860
v 3483 108.817 2858
v 3483 108.449 2856
v 3483 108.064 2854
v 3483 107.665 2852
v 3485 106.996 2914
v 3485 107.553 2912
v 3485 108.079 2910
v 3485 108.572 2908
v 3485 109.031 2906
v 3485 109.456 2904
v 3485 109.846 2902
v 3485 110.201 2900
v 3485 110.519 2898
v 3485 110.8 2896
v 3485 111.044 2894
v 3485 111.25 2892
v 3485 111.419 2890
v 3485 111.55 2888
v 3485 111.642 2886
v 3485 111.697 2884
v 3485 111.715 2882
v 3485 111.696 2880
v 3485 111.636 2878
v 3485 110.962 2876
v 3485 109.341 2874
v 3485 106.887 2872
v 3485 106.56 2870
v 3485 106.292 2868
v 3485 106.271 2866
v 3485 107.338 2864
v 3485 107.503 2862
v 3485 108.432 2860
v 3485 109.162 2858
v 3485 108.924 2856
v 3485 108.531 2854
v 3485 108.124 2852
v 3487 107.487 2914
v 3487 108.049 2912
v 3487 108.58 2910
v 3487 109.077 2908
v 3487 109.541 2906
v 3487 109.969 2904
v 3487 110.363 2902
v 3487 110.72 2900
v 3487 111.04 2898
v 3487 111.323 2896
v 3487 111.569 2894
v 3487 111.776 2892
v 3487 111.945 2890
v 3487 112.075 2888
v 3487 112.167 2886
v 3487 112.221 2884
v 3487 112.237 2882
v 3487 112.215 2880
v 3487 112.156 2878
v 3487 111.934 2876
v 3487 110.7 2874
v 3487 108.624 2872
v 3487 107.649 2870
v 3487 106.41 2868
v 3487 105.945 2866
v 3487 106.46 2864
v 3487 107.088 2862
v 3487 107.761 2860
v 3487 109.025 2858
v 3487 109.309 2856
v 3487 108.982 2854
v 3487 108.567 2852
v 3489 107.961 2914
v 3489 108.528 2912
v 3489 109.063 2910
v 3489 109.564 2908
v 3489 110.032 2906
v 3489 110.463 2904
v 3489 110.859 2902
v 3489 111.219 2900
v 3489 111.541 2898
v 3489 111.825 2896
v 3489 112.071 2894
v 3489 112.279 2892
v 3489 112.448 2890
v 3489 112.578 2888
v 3489 112.669 2886
v 3489 112.722 2884
v 3489 112.736 2882
v 3489 112.711 2880
v 3489 112.65 2878
v 3489 112.551 2876
v 3489 111.985 2874
v 3489 110.729 2872
v 3489 108.503 2870
v 3489 107.06 2868
v 3489 106.79 2866
v 3489 106.623 2864
v 3489 106.247 2862
v 3489 106.261 2860
v 3489 108.239 2858
v 3489 109.08 2856
v 3489 109.346 2854
v 3489 108.991 2852
v 3491 108.419 2914
v 3491 108.99 2912
v 3491 109.529 2910
v 3491 110.033 2908
v 3491 110.503 2906
v 3491 110.937 2904
v 3491 111.335 2902
v 3491 111.696 2900
v 3491 112.019 2898
v 3491 112.304 2896
v 3491 112.551 2894
v 3491 112.759 2892
v 3491 112.927 2890
v 3491 113.056 2888
v 3491 113.146 2886
v 3491 113.197 2884
v 3491 113.209 2882
v 3491 113.182 2880
v 3491 113.118 2878
v 3491 113.016 2876
v 3491 112.865 2874
v 3491 112.075 2872
v 3491 110.324 2870
v 3491 109.098 2868
v 3491 106.766 2866
v 3491 105.824 2864
v 3491 106.128 2862
v 3491 105.625 2860
v 3491 107.172 2858
v 3491 108.246 2856
v 3491 108.966 2854
v 3491 109.311 2852
v 3493 108.86 2914
v 3493 109.434 2912
v 3493 109.974 2910
v 3493 110.481 2908
v 3493 110.953 2906
v 3493 111.389 2904
v 3493 111.788 2902
v 3493 112.15 2900
v 3493 112.474 2898
v 3493 112.759 2896
v 3493 113.006 2894
v 3493 113.213 2892
v 3493 113.38 2890
v 3493 113.508 2888
v 3493 113.597 2886
v 3493 113.646 2884
v 3493 113.655 2882
v 3493 113.626 2880
v 3493 113.559 2878
v 3493 113.454 2876
v 3493 113.312 2874
v 3493 113.07 2872
v 3493 112.067 2870
v 3493 110.51 2868
v 3493 108.536 2866
v 3493 106.961 2864
v 3493 105.914 2862
v 3493 106.114 2860
v 3493 106.653 2858
v 3493 107.483 2856
v 3493 108.454 2854
v 3493 109.082 2852
v 3495 109.282 2914
v 3495 109.857 2912
v 3495 110.4 2910
v 3495 110.907 2908
v 3495 111.38 2906
v 3495 111.817 2904
v 3495 112.217 2902
v 3495 112.579 2900
v 3495 112.903 2898
v 3495 113.188 2896
v 3495 113.433 2894
v 3495 113.639 2892
v 3495 113.806 2890
v 3495 113.932 2888
v 3495 114.019 2886
v 3495 114.066 2884
v 3495 114.073 2882
v 3495 114.041 2880
v 3495 113.97 2878
v 3495 113.862 2876
v 3495 113.717 2874
v 3495 113.537 2872
v 3495 113.157 2870
v 3495 112.022 2868
v 3495 110.423 2866
v 3495 108.206 2864
v 3495 106.836 2862
v 3495 107.064 2860
v 3495 106.18 2858
v 3495 106.819 2856
v 3495 107.335 2854
v 3495 108.247 2852
v 3497 109.684 2914
v 3497 110.26 2912
v 3497 110.803 2910
v 3497 111.311 2908
v 3497 111.784 2906
v 3497 112.22 2904
v 3497 112.62 2902
v 3497 112.981 2900
v 3497 113.304 2898
v 3497 113.588 2896
v 3497 113.833 2894
v 3497 114.037 2892
v 3497 114.202 2890
v 3497 114.326 2888
v 3497 114.411 2886
v 3497 114.455 2884
v 3497 114.459 2882
v 3497 114.424 2880
v 3497 114.351 2878
v 3497 114.239 2876
v 3497 114.091 2874
v 3497 113.906 2872
v 3497 113.687 2870
v 3497 113.18 2868
v 3497 111.846 2866
v 3497 110.219 2864
v 3497 108.259 2862
v 3497 107.229 2860
v 3497 107.373 2858
v 3497 106.649 2856
v 3497 106.451 2854
v 3497 106.481 2852
v 3499 110.064 2914
v 3499 110.64 2912
v 3499 111.183 2910
v 3499 111.69 2908
v 3499 112.162 2906
v 3499 112.598 2904
v 3499 112.996 2902
v 3499 113.356 2900
v 3499 113.677 2898
v 3499 113.96 2896
v 3499 114.202 2894
v 3499 114.404 2892
v 3499 114.567 2890
v 3499 114.689 2888
v 3499 114.77 2886
v 3499 114.811 2884
v 3499 114.813 2882
v 3499 114.775 2880
v 3499 114.698 2878
v 3499 114.583 2876
v 3499 114.431 2874
v 3499 114.243 2872
v 3499 114.02 2870
v 3499 113.764 2868
v 3499 113.206 2866
v 3499 111.857 2864
v 3499 110.304 2862
v 3499 107.981 2860
v 3499 107.437 2858
v 3499 107.677 2856
v 3499 107.381 2854
v 3499 106.359 2852
v 3501 110.427 2914
v 3501 111.001 2912
v 3501 111.542 2910
v 3501 112.048 2908
v 3501 112.519 2906
v 3501 112.952 2904
v 3501 113.349 2902
v 3501 113.707 2900
v 3501 114.026 2898
v 3501 114.305 2896
v 3501 114.546 2894
v 3501 114.745 2892
v 3501 114.905 2890
v 3501 115.024 2888
v 3501 115.102 2886
v 3501 115.141 2884
v 3501 115.139 2882
v 3501 115.098 2880
v 3501 115.018 2878
v 3501 114.899 2876
v 3501 114.744 2874
v 3501 114.552 2872
v 3501 114.326 2870
v 3501 114.066 2868
v 3501 113.775 2866
v 3501 113.169 2864
v 3501 111.816 2862
v 3501 110.09 2860
v 3501 109.418 2858
v 3501 107.816 2856
v 3501 106.824 2854
v 3501 105.904 2852
v 3503 110.792 2914
v 3503 111.366 2912
v 3503 111.906 2910
v 3503 112.411 2908
v 3503 112.88 2906
v 3503 113.312 2904
v 3503 113.707 2902
v 3503 114.064 2900
v 3503 114.381 2898
v 3503 114.659 2896
v 3503 114.898 2894
v 3503 115.096 2892
v 3503 115.253 2890
v 3503 115.371 2888
v 3503 115.447 2886
v 3503 115.483 2884
v 3503 115.479 2882
v 3503 115.436 2880
v 3503 115.354 2878
v 3503 115.233 2876
v 3503 115.075 2874
v 3503 114.882 2872
v 3503 114.653 2870
v 3503 114.391 2868
v 3503 114.098 2866
v 3503 113.774 2864
v 3503 113.21 2862
v 3503 111.911 2860
v 3503 110.693 2858
v 3503 109.028 2856
v 3503 107.647 2854
v 3503 106.742 2852
v 3505 111.163 2914
v 3505 111.737 2912
v 3505 112.276 2910
v 3505 112.78 2908
v 3505 113.249 2906
v 3505 113.681 2904
v 3505 114.075 2902
v 3505 114.431 2900
v 3505 114.748 2898
v 3505 115.025 2896
v 3505 115.263 2894
v 3505 115.46 2892
v 3505 115.617 2890
v 3505 115.733 2888
v 3505 115.809 2886
v 3505 115.844 2884
v 3505 115.839 2882
v 3505 115.795 2880
v 3505 115.712 2878
v 3505 115.59 2876
v 3505 115.431 2874
v 3505 115.237 2872
v 3505 115.007 2870
v 3505 114.745 2868
v 3505 114.45 2866
v 3505 114.126 2864
v 3505 113.775 2862
v 3505 113.26 2860
v 3505 112.1 2858
v 3505 110.811 2856
v 3505 109.172 2854
v 3505 107.29 2852
v 3507 111.538 2914
v 3507 112.111 2912
v 3507 112.65 2910
v 3507 113.155 2908
v 3507 113.624 2906
v 3507 114.056 2904
v 3507 114.45 2902
v 3507 114.806 2900
v 3507 115.123 2898
v 3507 115.4 2896
v 3507 115.638 2894
v 3507 115.836 2892
v 3507 115.993 2890
v 3507 116.109 2888
v 3507 116.185 2886
v 3507 116.22 2884
v 3507 116.216 2882
v 3507 116.172 2880
v 3507 116.089 2878
v 3507 115.968 2876
v 3507 115.809 2874
v 3507 115.615 2872
v 3507 115.386 2870
v 3507 115.124 2868
v 3507 114.83 2866
v 3507 114.507 2864
v 3507 114.156 2862
v 3507 113.78 2860
v 3507 113.334 2858
v 3507 112.379 2856
v 3507 111.293 2854
v 3507 109.576 2852
v 3509 111.914 2914
v 3509 112.488 2912
v 3509 113.028 2910
v 3509 113.533 2908
v 3509 114.002 2906
v 3509 114.435 2904
v 3509 114.83 2902
v 3509 115.187 2900
v 3509 115.505 2898
v 3509 115.783 2896
v 3509 116.022 2894
v 3509 116.22 2892
v 3509 116.379 2890
v 3509 116.496 2888
v 3509 116.573 2886
v 3509 116.61 2884
v 3509 116.607 2882
v 3509 116.564 2880
v 3509 116.483 2878
v 3509 116.363 2876
v 3509 116.206 2874
v 3509 116.014 2872
v 3509 115.786 2870
v 3509 115.526 2868
v 3509 115.234 2866
v 3509 114.913 2864
v 3509 114.564 2862
v 3509 114.19 2860
v 3509 113.794 2858
v 3509 113.373 2856
v 3509 112.625 2854
v 3509 111.267 2852
v 3511 112.29 2914
v 3511 112.865 2912
v 3511 113.406 2910
v 3511 113.912 2908
v 3511 114.383 2906
v 3511 114.817 2904
v 3511 115.213 2902
v 3511 115.572 2900
v 3511 115.891 2898
v 3511 116.172 2896
v 3511 116.412 2894
v 3511 116.612 2892
v 3511 116.773 2890
v 3511 116.892 2888
v 3511 116.971 2886
v 3511 117.011 2884
v 3511 117.01 2882
v 3511 116.97 2880
v 3511 116.891 2878
v 3511 116.774 2876
v 3511 116.62 2874
v 3511 116.43 2872
v 3511 116.206 2870
v 3511 115.948 2868
v 3511 115.66 2866
v 3511 115.342 2864
v 3511 114.996 2862
v 3511 114.626 2860
v 3511 114.232 2858
v 3511 113.819 2856
v 3511 113.389 2854
v 3511 112.727 2852
v 3513 112.664 2914
v 3513 113.24 2912
v 3513 113.783 2910
v 3513 114.291 2908
v 3513 114.763 2906
v 3513 115.199 2904
v 3513 115.598 2902
v 3513 115.959 2900
v 3513 116.281 2898
v 3513 116.563 2896
v 3513 116.806 2894
v 3513 117.009 2892
v 3513 117.172 2890
v 3513 117.295 2888
v 3513 117.378 2886
v 3513 117.42 2884
v 3513 117.423 2882
v 3513 117.386 2880
v 3513 117.311 2878
v 3513 117.198 2876
v 3513 117.047 2874
v 3513 116.862 2872
v 3513 116.641 2870
v 3513 116.388 2868
v 3513 116.104 2866
v 3513 115.79 2864
v 3513 115.449 2862
v 3513 115.083 2860
v 3513 114.695 2858
v 3513 114.286 2856
v 3513 113.861 2854
v 3513 113.423 2852
v 3515 113.035 2914
v 3515 113.613 2912
v 3515 114.158 2910
v 3515 114.668 2908
v 3515 115.142 2906
v 3515 115.581 2904
v 3515 115.982 2902
v 3515 116.346 2900
v 3515 116.671 2898
v 3515 116.956 2896
v 3515 117.203 2894
v 3515 117.41 2892
v 3515 117.576 2890
v 3515 117.703 2888
v 3515 117.789 2886
v 3515 117.836 2884
v 3515 117.843 2882
v 3515 117.811 2880
v 3515 117.74 2878
v 3515 117.632 2876
v 3515 117.487 2874
v 3515 117.306 2872
v 3515 117.091 2870
v 3515 116.843 2868
v 3515 116.564 2866
v 3515 116.256 2864
v 3515 115.921 2862
v 3515 115.561 2860
v 3515 115.178 2858
v 3515 114.775 2856
v 3515 114.356 2854
v 3515 113.924 2852
f 72 71 70
f 73 71 72
f 68 67 66
f 69 67 68
f 76 75 74
f 64 63 62
f 65 63 64
f 77 75 76
f 60 59 58
f 61 59 60
f 128 127 126
f 133 131 132
f 132 131 130
f 136 135 134
f 129 127 128
f 145 143 144
f 144 143 142
f 124 123 122
f 137 135 136
f 125 123 124
f 115 113 114
f 110 109 108
f 32 33 31
f 32 31 30
f 186 146 185
f 111 109 110
f 100 99 98
f 32 34 33
f 34 35 33
f 34 36 35
f 37 36 34
f 104 102 105
f 104 103 102
f 103 106 102
f 107 106 103
f 19 18 17
f 20 18 19
f 118 117 116
f 118 120 117
f 117 120 121
f 189 188 187
f 155 153 154
f 3 4 2
f 3 2 1
f 14 15 16
f 15 14 13
f 212 211 210
f 212 213 211
f 212 214 213
f 212 217 214
f 217 218 214
f 154 153 152
f 170 154 152
f 101 99 100
f 170 171 154
f 170 203 171
f 171 203 208
f 171 208 206
f 208 207 206
f 206 207 205
f 206 205 204
f 169 167 168
f 198 201 200
f 185 146 147
f 148 147 146
f 148 149 147
f 150 149 148
f 150 151 149
f 231 228 229
f 202 1 2
f 190 189 187
f 230 229 226
f 226 229 228
f 222 220 216
f 221 216 220
f 216 215 214
f 218 216 214
f 219 216 221
f 216 219 215
f 197 198 200
f 176 178 173
f 173 178 166
f 166 178 168
f 168 167 166
f 203 209 208
f 181 180 179
f 183 181 179
f 181 183 182
f 184 183 179
f 177 176 173
f 175 177 173
f 121 120 119
f 114 113 112
f 190 187 191
f 226 228 225
f 225 228 227
f 49 47 48
f 48 47 46
f 40 39 38
f 41 39 40
f 53 51 52
f 52 51 50
f 88 87 86
f 89 87 88
f 84 83 82
f 85 83 84
f 80 79 78
f 81 79 80
f 226 225 224
f 199 198 197
f 175 173 174
f 174 173 172
f 214 215 223
f 92 91 90
f 93 91 92
f 45 43 44
f 44 43 42
f 27 25 28
f 27 26 25
f 21 29 28
f 27 28 29
f 24 22 23
f 23 22 21
f 22 29 21
f 7 6 5
f 158 157 156
f 159 157 158
f 159 160 157
f 161 160 159
f 163 162 160
f 161 163 160
f 164 163 161
f 165 164 161
f 96 95 94
f 95 96 97
f 8 6 7
f 8 9 6
f 8 10 9
f 8 11 10
f 12 11 8
f 196 194 195
f 194 192 195
f 194 193 192
f 57 55 56
f 56 55 54
f 141 139 140
f 140 139 138
f 369 368 367
f 373 372 371
f 370 368 369
f 380 378 379
f 376 375 374
f 379 378 377
f 382 383 384
f 383 382 381
f 387 386 385
f 385 386 388
f 396 394 395
f 395 394 393
f 400 398 399
f 399 398 397
f 305 304 303
f 304 306 303
f 258 317 318
f 307 306 304
f 307 308 306
f 309 308 307
f 310 308 309
f 290 289 288
f 291 289 290
f 291 292 289
f 293 292 291
f 318 317 316
f 339 338 337
f 257 317 258
f 257 319 317
f 340 338 339
f 340 339 343
f 362 366 334
f 362 365 366
f 365 362 361
f 343 339 334
f 345 343 334
f 260 248 259
f 259 248 246
f 248 247 246
f 341 339 337
f 311 315 314
f 315 311 313
f 313 311 312
f 312 311 310
f 310 311 308
f 326 325 324
f 327 326 324
f 328 326 327
f 329 328 327
f 330 328 329
f 330 329 331
f 264 364 360
f 400 402 398
f 398 402 401
f 296 295 293
f 293 294 292
f 293 295 294
f 320 321 319
f 320 322 321
f 391 394 396
f 394 391 392
f 320 323 322
f 387 389 386
f 320 319 257
f 355 361 362
f 355 362 334
f 339 341 342
f 339 342 344
f 339 344 334
f 355 356 361
f 264 360 358
f 392 391 390
f 402 403 401
f 299 298 297
f 355 334 363
f 334 344 336
f 336 335 334
f 334 335 333
f 334 333 332
f 355 363 354
f 356 355 354
f 266 265 264
f 266 264 353
f 264 358 353
f 271 272 273
f 269 272 271
f 270 268 269
f 267 272 269
f 275 278 274
f 276 275 274
f 269 268 267
f 284 282 283
f 274 278 277
f 285 282 284
f 348 347 346
f 347 348 349
f 263 262 261
f 352 351 350
f 359 357 358
f 358 357 353
f 279 277 278
f 277 279 280
f 283 282 281
f 299 300 298
f 302 298 300
f 256 257 258
f 285 286 282
f 287 286 285
f 302 300 301
f 244 243 242
f 243 245 256
f 243 244 245
f 254 249 253
f 249 250 253
f 251 252 250
f 251 250 249
f 257 256 255
f 256 245 255
f 234 233 232
f 241 238 240
f 240 238 239
f 235 233 234
f 235 236 233
f 239 238 237
f 237 238 236
f 237 236 235
f 409 411 410
f 411 412 410
f 407 408 405
f 408 409 405
f 409 410 405
f 406 407 405
f 406 405 404
f 430 431 429
f 432 431 430
f 433 431 432
f 433 488 431
f 489 488 433
f 430 429 428
f 424 423 422
f 487 489 420
f 436 435 434
f 446 436 434
f 447 436 446
f 422 423 421
f 443 444 449
f 443 449 452
f 452 449 451
f 422 421 420
f 451 449 450
f 483 420 421
f 450 449 448
f 491 450 448
f 485 420 483
f 486 420 485
f 487 420 486
f 488 489 490
f 489 455 490
f 455 489 487
f 491 458 450
f 456 454 491
f 491 454 458
f 427 426 424
f 424 426 425
f 424 425 423
f 458 451 450
f 463 464 462
f 456 455 454
f 462 492 461
f 462 461 459
f 459 463 462
f 468 471 470
f 470 471 472
f 469 467 468
f 475 474 473
f 466 471 468
f 474 477 473
f 468 467 466
f 473 477 476
f 421 482 480
f 482 481 480
f 478 476 477
f 476 478 479
f 483 421 480
f 454 419 453
f 454 455 419
f 461 460 459
f 445 444 443
f 484 480 481
f 461 465 460
f 418 453 419
f 440 439 457
f 442 437 441
f 437 438 441
f 439 440 438
f 439 438 437
f 419 415 418
f 418 415 416
f 415 414 413
f 416 415 413
f 417 416 413
f 532 531 530
f 532 530 537
f 528 617 616
f 626 523 625
f 625 523 624
f 624 523 623
f 622 519 620
f 521 620 519
f 621 620 521
f 500 498 499
f 499 498 497
f 496 494 495
f 495 494 493
f 514 513 512
f 514 512 515
f 514 515 516
f 517 516 515
f 563 569 559
f 563 559 534
f 563 534 562
f 534 536 562
f 534 535 536
f 535 534 533
f 571 570 560
f 572 571 560
f 567 572 560
f 566 567 560
f 566 560 565
f 561 565 560
f 561 560 559
f 564 561 559
f 568 564 559
f 569 568 559
f 551 549 550
f 550 549 548
f 548 549 547
f 548 547 546
f 547 543 546
f 543 547 545
f 545 544 543
f 545 542 544
f 542 545 541
f 542 541 539
f 539 541 538
f 540 539 538
f 623 523 519
f 623 519 622
f 627 523 626
f 525 617 528
f 525 618 617
f 525 619 618
f 525 628 619
f 627 628 523
f 523 628 525
f 521 519 520
f 615 614 500
f 500 614 498
f 519 523 522
f 519 522 518
f 520 519 518
f 525 524 523
f 523 524 522
f 528 527 525
f 525 527 526
f 525 526 524
f 529 527 528
f 613 612 496
f 496 612 494
f 506 505 504
f 506 504 510
f 510 504 511
f 510 511 507
f 594 593 592
f 595 593 594
f 595 596 593
f 597 596 595
f 597 598 596
f 599 598 597
f 600 598 599
f 601 598 600
f 576 601 600
f 601 576 577
f 578 577 576
f 581 580 579
f 582 580 581
f 583 580 582
f 585 583 582
f 583 585 584
f 587 584 585
f 584 587 586
f 589 586 587
f 586 589 588
f 591 588 589
f 588 591 590
f 510 507 508
f 509 508 507
f 554 553 552
f 554 558 553
f 558 503 553
f 558 502 503
f 501 502 555
f 503 502 501
f 501 606 503
f 606 607 503
f 607 608 503
f 608 609 503
f 609 610 503
f 503 610 611
f 575 574 573
f 575 573 602
f 575 602 603
f 575 603 604
f 575 604 605
f 575 605 501
f 575 501 556
f 556 501 555
f 555 557 556
f 646 647 645
f 648 647 646
f 649 647 648
f 649 704 647
f 705 704 649
f 646 645 644
f 640 639 638
f 703 705 636
f 652 651 650
f 662 652 650
f 663 652 662
f 638 639 637
f 659 660 665
f 659 665 668
f 668 665 667
f 638 637 636
f 667 665 666
f 699 636 637
f 666 665 664
f 707 666 664
f 701 636 699
f 702 636 701
f 703 636 702
f 704 705 706
f 705 671 706
f 671 705 703
f 707 674 666
f 672 670 707
f 707 670 674
f 643 642 640
f 640 642 641
f 640 641 639
f 674 667 666
f 679 680 678
f 672 671 670
f 678 708 677
f 678 677 675
f 675 679 678
f 684 687 686
f 686 687 688
f 685 683 684
f 691 690 689
f 682 687 684
f 690 693 689
f 684 683 682
f 689 693 692
f 637 698 696
f 698 697 696
f 694 692 693
f 692 694 695
f 699 637 696
f 670 635 669
f 670 671 635
f 677 676 675
f 661 660 659
f 700 696 697
f 677 681 676
f 634 669 635
f 656 655 673
f 658 653 657
f 653 654 657
f 655 656 654
f 655 654 653
f 635 631 634
f 634 631 632
f 631 630 629
f 632 631 629
f 633 632 629
f 763 762 761
f 764 762 763
f 759 758 757
f 760 758 759
f 751 750 749
f 747 746 745
f 746 747 748
f 743 742 741
f 735 734 733
f 734 735 736
f 711 710 709
f 712 710 711
f 742 743 744
f 731 730 729
f 732 730 731
f 723 722 721
f 724 722 723
f 719 718 717
f 720 718 719
f 779 778 777
f 780 778 779
f 775 774 773
f 776 774 775
f 767 766 765
f 752 750 751
f 768 766 767
f 715 714 713
f 716 714 715
f 771 770 769
f 772 770 771
f 755 754 753
f 756 754 755
f 739 738 737
f 738 739 740
f 727 726 725
f 728 726 727
f 814 782 781
f 781 813 814
f 846 814 813
f 813 845 846
f 878 846 845
f 845 877 878
f 910 878 877
f 877 909 910
f 942 910 909
f 909 941 942
f 974 942 941
f 941 973 974
f 1006 974 973
f 973 1005 1006
f 1038 1006 1005
f 1005 1037 1038
f 1070 1038 1037
f 1037 1069 1070
f 1102 1070 1069
f 1069 1101 1102
f 1134 1102 1101
f 1101 1133 1134
f 1166 1134 1133
f 1133 1165 1166
f 1198 1166 1165
f 1165 1197 1198
f 1230 1198 1197
f 1197 1229 1230
f 1262 1230 1229
f 1229 1261 1262
f 1294 1262 1261
f 1261 1293 1294
f 1326 1294 1293
f 1293 1325 1326
f 1358 1326 1325
f 1325 1357 1358
f 1390 1358 1357
f 1357 1389 1390
f 1422 1390 1389
f 1389 1421 1422
f 1454 1422 1421
f 1421 1453 1454
f 1486 1454 1453
f 1453 1485 1486
f 1518 1486 1485
f 1485 1517 1518
f 1550 1518 1517
f 1517 1549 1550
f 1582 1550 1549
f 1549 1581 1582
f 1614 1582 1581
f 1581 1613 1614
f 1646 1614 1613
f 1613 1645 1646
f 1678 1646 1645
f 1645 1677 1678
f 1710 1678 1677
f 1677 1709 1710
f 1742 1710 1709
f 1709 1741 1742
f 1774 1742 1741
f 1741 1773 1774
f 815 783 782
f 782 814 815
f 847 815 814
f 814 846 847
f 879 847 846
f 846 878 879
f 911 879 878
f 878 910 911
f 943 911 910
f 910 942 943
f 975 943 942
f 942 974 975
f 1007 975 974
f 974 1006 1007
f 1039 1007 1006
f 1006 1038 1039
f 1071 1039 1038
f 1038 1070 1071
f 1103 1071 1070
f 1070 1102 1103
f 1135 1103 1102
f 1102 1134 1135
f 1167 1135 1134
f 1134 1166 1167
f 1199 1167 1166
f 1166 1198 1199
f 1231 1199 1198
f 1198 1230 1231
f 1263 1231 1230
f 1230 1262 1263
f 1295 1263 1262
f 1262 1294 1295
f 1327 1295 1294
f 1294 1326 1327
f 1359 1327 1326
f 1326 1358 1359
f 1391 1359 1358
f 1358 1390 1391
f 1423 1391 1390
f 1390 1422 1423
f 1455 1423 1422
f 1422 1454 1455
f 1487 1455 1454
f 1454 1486 1487
f 1519 1487 1486
f 1486 1518 1519
f 1551 1519 1518
f 1518 1550 1551
f 1583 1551 1550
f 1550 1582 1583
f 1615 1583 1582
f 1582 1614 1615
f 1647 1615 1614
f 1614 1646 1647
f 1679 1647 1646
f 1646 1678 1679
f 1711 1679 1678
f 1678 1710 1711
f 1743 1711 1710
f 1710 1742 1743
f 1775 1743 1742
f 1742 1774 1775
f 816 784 783
f 783 815 816
f 848 816 815
f 815 847 848
f 880 848 847
f 847 879 880
f 912 880 879
f 879 911 912
f 944 912 911
f 911 943 944
f 976 944 943
f 943 975 976
f 1008 976 975
f 975 1007 1008
f 1040 1008 1007
f 1007 1039 1040
f 1072 1040 1039
f 1039 1071 1072
f 1104 1072 1071
f 1071 1103 1104
f 1136 1104 1103
f 1103 1135 1136
f 1168 1136 1135
f 1135 1167 1168
f 1200 1168 1167
f 1167 1199 1200
f 1232 1200 1199
f 1199 1231 1232
f 1264 1232 1231
f 1231 1263 1264
f 1296 1264 1263
f 1263 1295 1296
f 1328 1296 1295
f 1295 1327 1328
f 1360 1328 1327
f 1327 1359 1360
f 1392 1360 1359
f 1359 1391 1392
f 1424 1392 1391
f 1391 1423 1424
f 1456 1424 1423
f 1423 1455 1456
f 1488 1456 1455
f 1455 1487 1488
f 1520 1488 1487
f 1487 1519 1520
f 1552 1520 1519
f 1519 1551 1552
f 1584 1552 1551
f 1551 1583 1584
f 1616 1584 1583
f 1583 1615 1616
f 1648 1616 1615
f 1615 1647 1648
f 1680 1648 1647
f 1647 1679 1680
f 1712 1680 1679
f 1679 1711 1712
f 1744 1712 1711
f 1711 1743 1744
f 1776 1744 1743
f 1743 1775 1776
f 817 785 784
f 784 816 817
f 849 817 816
f 816 848 849
f 881 849 848
f 848 880 881
f 913 881 880
f 880 912 913
f 945 913 912
f 912 944 945
f 977 945 944
f 944 976 977
f 1009 977 976
f 976 1008 1009
f 1041 1009 1008
f 1008 1040 1041
f 1073 1041 1040
f 1040 1072 1073
f 1105 1073 1072
f 1072 1104 1105
f 1137 1105 1104
f 1104 1136 1137
f 1169 1137 1136
f 1136 1168 1169
f 1201 1169 1168
f 1168 1200 1201
f 1233 1201 1200
f 1200 1232 1233
f 1265 1233 1232
f 1232 1264 1265
f 1297 1265 1264
f 1264 1296 1297
f 1329 1297 1296
f 1296 1328 1329
f 1361 1329 1328
f 1328 1360 1361
f 1393 1361 1360
f 1360 1392 1393
f 1425 1393 1392
f 1392 1424 1425
f 1457 1425 1424
f 1424 1456 1457
f 1489 1457 1456
f 1456 1488 1489
f 1521 1489 1488
f 1488 1520 1521
f 1553 1521 1520
f 1520 1552 1553
f 1585 1553 1552
f 1552 1584 1585
f 1617 1585 1584
f 1584 1616 1617
f 1649 1617 1616
f 1616 1648 1649
f 1681 1649 1648
f 1648 1680 1681
f 1713 1681 1680
f 1680 1712 1713
f 1745 1713 1712
f 1712 1744 1745
f 1777 1745 1744
f 1744 1776 1777
f 818 786 785
f 785 817 818
f 850 818 817
f 817 849 850
f 882 850 849
f 849 881 882
f 914 882 881
f 881 913 914
f 946 914 913
f 913 945 946
f 978 946 945
f 945 977 978
f 1010 978 977
f 977 1009 1010
f 1042 1010 1009
f 1009 1041 1042
f 1074 1042 1041
f 1041 1073 1074
f 1106 1074 1073
f 1073 1105 1106
f 1138 1106 1105
f 1105 1137 1138
f 1170 1138 1137
f 1137 1169 1170
f 1202 1170 1169
f 1169 1201 1202
f 1234 1202 1201
f 1201 1233 1234
f 1266 1234 1233
f 1233 1265 1266
f 1298 1266 1265
f 1265 1297 1298
f 1330 1298 1297
f 1297 1329 1330
f 1362 1330 1329
f 1329 1361 1362
f 1394 1362 1361
f 1361 1393 1394
f 1426 1394 1393
f 1393 1425 1426
f 1458 1426 1425
f 1425 1457 1458
f 1490 1458 1457
f 1457 1489 1490
f 1522 1490 1489
f 1489 1521 1522
f 1554 1522 1521
f 1521 1553 1554
f 1586 1554 1553
f 1553 1585 1586
f 1618 1586 1585
f 1585 1617 1618
f 1650 1618 1617
f 1617 1649 1650
f 1682 1650 1649
f 1649 1681 1682
f 1714 1682 1681
f 1681 1713 1714
f 1746 1714 1713
f 1713 1745 1746
f 1778 1746 1745
f 1745 1777 1778
f 819 787 786
f 786 818 819
f 851 819 818
f 818 850 851
f 883 851 850
f 850 882 883
f 915 883 882
f 882 914 915
f 947 915 914
f 914 946 947
f 979 947 946
f 946 978 979
f 1011 979 978
f 978 1010 1011
f 1043 1011 1010
f 1010 1042 1043
f 1075 1043 1042
f 1042 1074 1075
f 1107 1075 1074
f 1074 1106 1107
f 1139 1107 1106
f 1106 1138 1139
f 1171 1139 1138
f 1138 1170 1171
f 1203 1171 1170
f 1170 1202 1203
f 1235 1203 1202
f 1202 1234 1235
f 1267 1235 1234
f 1234 1266 1267
f 1299 1267 1266
f 1266 1298 1299
f 1331 1299 1298
f 1298 1330 1331
f 1363 1331 1330
f 1330 1362 1363
f 1395 1363 1362
f 1362 1394 1395
f 1427 1395 1394
f 1394 1426 1427
f 1459 1427 1426
f 1426 1458 1459
f 1491 1459 1458
f 1458 1490 1491
f 1523 1491 1490
f 1490 1522 1523
f 1555 1523 1522
f 1522 1554 1555
f 1587 1555 1554
f 1554 1586 1587
f 1619 1587 1586
f 1586 1618 1619
f 1651 1619 1618
f 1618 1650 1651
f 1683 1651 1650
f 1650 1682 1683
f 1715 1683 1682
f 1682 1714 1715
f 1747 1715 1714
f 1714 1746 1747
f 1779 1747 1746
f 1746 1778 1779
f 820 788 787
f 787 819 820
f 852 820 819
f 819 851 852
f 884 852 851
f 851 883 884
f 916 884 883
f 883 915 916
f 948 916 915
f 915 947 948
f 980 948 947
f 947 979 980
f 1012 980 979
f 979 1011 1012
f 1044 1012 1011
f 1011 1043 1044
f 1076 1044 1043
f 1043 1075 1076
f 1108 1076 1075
f 1075 1107 1108
f 1140 1108 1107
f 1107 1139 1140
f 1172 1140 1139
f 1139 1171 1172
f 1204 1172 1171
f 1171 1203 1204
f 1236 1204 1203
f 1203 1235 1236
f 1268 1236 1235
f 1235 1267 1268
f 1300 1268 1267
f 1267 1299 1300
f 1332 1300 1299
f 1299 1331 1332
f 1364 1332 1331
f 1331 1363 1364
f 1396 1364 1363
f 1363 1395 1396
f 1428 1396 1395
f 1395 1427 1428
f 1460 1428 1427
f 1427 1459 1460
f 1492 1460 1459
f 1459 1491 1492
f 1524 1492 1491
f 1491 1523 1524
f 1556 1524 1523
f 1523 1555 1556
f 1588 1556 1555
f 1555 1587 1588
f 1620 1588 1587
f 1587 1619 1620
f 1652 1620 1619
f 1619 1651 1652
f 1684 1652 1651
f 1651 1683 1684
f 1716 1684 1683
f 1683 1715 1716
f 1748 1716 1715
f 1715 1747 1748
f 1780 1748 1747
f 1747 1779 1780
f 821 789 788
f 788 820 821
f 853 821 820
f 820 852 853
f 885 853 852
f 852 884 885
f 917 885 884
f 884 916 917
f 949 917 916
f 916 948 949
f 981 949 948
f 948 980 981
f 1013 981 980
f 980 1012 1013
f 1045 1013 1012
f 1012 1044 1045
f 1077 1045 1044
f 1044 1076 1077
f 1109 1077 1076
f 1076 1108 1109
f 1141 1109 1108
f 1108 1140 1141
f 1173 1141 1140
f 1140 1172 1173
f 1205 1173 1172
f 1172 1204 1205
f 1237 1205 1204
f 1204 1236 1237
f 1269 1237 1236
f 1236 1268 1269
f 1301 1269 1268
f 1268 1300 1301
f 1333 1301 1300
f 1300 1332 1333
f 1365 1333 1332
f 1332 1364 1365
f 1397 1365 1364
f 1364 1396 1397
f 1429 1397 1396
f 1396 1428 1429
f 1461 1429 1428
f 1428 1460 1461
f 1493 1461 1460
f 1460 1492 1493
f 1525 1493 1492
f 1492 1524 1525
f 1557 1525 1524
f 1524 1556 1557
f 1589 1557 1556
f 1556 1588 1589
f 1621 1589 1588
f 1588 1620 1621
f 1653 1621 1620
f 1620 1652 1653
f 1685 1653 1652
f 1652 1684 1685
f 1717 1685 1684
f 1684 1716 1717
f 1749 1717 1716
f 1716 1748 1749
f 1781 1749 1748
f 1748 1780 1781
f 822 790 789
f 789 821 822
f 854 822 821
f 821 853 854
f 886 854 853
f 853 885 886
f 918 886 885
f 885 917 918
f 950 918 917
f 917 949 950
f 982 950 949
f 949 981 982
f 1014 982 981
f 981 1013 1014
f 1046 1014 1013
f 1013 1045 1046
f 1078 1046 1045
f 1045 1077 1078
f 1110 1078 1077
f 1077 1109 1110
f 1142 1110 1109
f 1109 1141 1142
f 1174 1142 1141
f 1141 1173 1174
f 1206 1174 1173
f 1173 1205 1206
f 1238 1206 1205
f 1205 1237 1238
f 1270 1238 1237
f 1237 1269 1270
f 1302 1270 1269
f 1269 1301 1302
f 1334 1302 1301
f 1301 1333 1334
f 1366 1334 1333
f 1333 1365 1366
f 1398 1366 1365
f 1365 1397 1398
f 1430 1398 1397
f 1397 1429 1430
f 1462 1430 1429
f 1429 1461 1462
f 1494 1462 1461
f 1461 1493 1494
f 1526 1494 1493
f 1493 1525 1526
f 1558 1526 1525
f 1525 1557 1558
f 1590 1558 1557
f 1557 1589 1590
f 1622 1590 1589
f 1589 1621 1622
f 1654 1622 1621
f 1621 1653 1654
f 1686 1654 1653
f 1653 1685 1686
f 1718 1686 1685
f 1685 1717 1718
f 1750 1718 1717
f 1717 1749 1750
f 1782 1750 1749
f 1749 1781 1782
f 823 791 790
f 790 822 823
f 855 823 822
f 822 854 855
f 887 855 854
f 854 886 887
f 919 887 886
f 886 918 919
f 951 919 918
f 918 950 951
f 983 951 950
f 950 982 983
f 1015 983 982
f 982 1014 1015
f 1047 1015 1014
f 1014 1046 1047
f 1079 1047 1046
f 1046 1078 1079
f 1111 1079 1078
f 1078 1110 1111
f 1143 1111 1110
f 1110 1142 1143
f 1175 1143 1142
f 1142 1174 1175
f 1207 1175 1174
f 1174 1206 1207
f 1239 1207 1206
f 1206 1238 1239
f 1271 1239 1238
f 1238 1270 1271
f 1303 1271 1270
f 1270 1302 1303
f 1335 1303 1302
f 1302 1334 1335
f 1367 1335 1334
f 1334 1366 1367
f 1399 1367 1366
f 1366 1398 1399
f 1431 1399 1398
f 1398 1430 1431
f 1463 1431 1430
f 1430 1462 1463
f 1495 1463 1462
f 1462 1494 1495
f 1527 1495 1494
f 1494 1526 1527
f 1559 1527 1526
f 1526 1558 1559
f 1591 1559 1558
f 1558 1590 1591
f 1623 1591 1590
f 1590 1622 1623
f 1655 1623 1622
f 1622 1654 1655
f 1687 1655 1654
f 1654 1686 1687
f 1719 1687 1686
f 1686 1718 1719
f 1751 1719 1718
f 1718 1750 1751
f 1783 1751 1750
f 1750 1782 1783
f 824 792 791
f 791 823 824
f 856 824 823
f 823 855 856
f 888 856 855
f 855 887 888
f 920 888 887
f 887 919 920
f 952 920 919
f 919 951 952
f 984 952 951
f 951 983 984
f 1016 984 983
f 983 1015 1016
f 1048 1016 1015
f 1015 1047 1048
f 1080 1048 1047
f 1047 1079 1080
f 1112 1080 1079
f 1079 1111 1112
f 1144 1112 1111
f 1111 1143 1144
f 1176 1144 1143
f 1143 1175 1176
f 1208 1176 1175
f 1175 1207 1208
f 1240 1208 1207
f 1207 1239 1240
f 1272 1240 1239
f 1239 1271 1272
f 1304 1272 1271
f 1271 1303 1304
f 1336 1304 1303
f 1303 1335 1336
f 1368 1336 1335
f 1335 1367 1368
f 1400 1368 1367
f 1367 1399 1400
f 1432 1400 1399
f 1399 1431 1432
f 1464 1432 1431
f 1431 1463 1464
f 1496 1464 1463
f 1463 1495 1496
f 1528 1496 1495
f 1495 1527 1528
f 1560 1528 1527
f 1527 1559 1560
f 1592 1560 1559
f 1559 1591 1592
f 1624 1592 1591
f 1591 1623 1624
f 1656 1624 1623
f 1623 1655 1656
f 1688 1656 1655
f 1655 1687 1688
f 1720 1688 1687
f 1687 1719 1720
f 1752 1720 1719
f 1719 1751 1752
f 1784 1752 1751
f 1751 1783 1784
f 825 793 792
f 792 824 825
f 857 825 824
f 824 856 857
f 889 857 856
f 856 888 889
f 921 889 888
f 888 920 921
f 953 921 920
f 920 952 953
f 985 953 952
f 952 984 985
f 1017 985 984
f 984 1016 1017
f 1049 1017 1016
f 1016 1048 1049
f 1081 1049 1048
f 1048 1080 1081
f 1113 1081 1080
f 1080 1112 1113
f 1145 1113 1112
f 1112 1144 1145
f 1177 1145 1144
f 1144 1176 1177
f 1209 1177 1176
f 1176 1208 1209
f 1241 1209 1208
f 1208 1240 1241
f 1273 1241 1240
f 1240 1272 1273
f 1305 1273 1272
f 1272 1304 1305
f 1337 1305 1304
f 1304 1336 1337
f 1369 1337 1336
f 1336 1368 1369
f 1401 1369 1368
f 1368 1400 1401
f 1433 1401 1400
f 1400 1432 1433
f 1465 1433 1432
f 1432 1464 1465
f 1497 1465 1464
f 1464 1496 1497
f 1529 1497 1496
f 1496 1528 1529
f 1561 1529 1528
f 1528 1560 1561
f 1593 1561 1560
f 1560 1592 1593
f 1625 1593 1592
f 1592 1624 1625
f 1657 1625 1624
f 1624 1656 1657
f 1689 1657 1656
f 1656 1688 1689
f 1721 1689 1688
f 1688 1720 1721
f 1753 1721 1720
f 1720 1752 1753
f 1785 1753 1752
f 1752 1784 1785
f 826 794 793
f 793 825 826
f 858 826 825
f 825 857 858
f 890 858 857
f 857 889 890
f 922 890 889
f 889 921 922
f 954 922 921
f 921 953 954
f 986 954 953
f 953 985 986
f 1018 986 985
f 985 1017 1018
f 1050 1018 1017
f 1017 1049 1050
f 1082 1050 1049
f 1049 1081 1082
f 1114 1082 1081
f 1081 1113 1114
f 1146 1114 1113
f 1113 1145 1146
f 1178 1146 1145
f 1145 1177 1178
f 1210 1178 1177
f 1177 1209 1210
f 1242 1210 1209
f 1209 1241 1242
f 1274 1242 1241
f 1241 1273 1274
f 1306 1274 1273
f 1273 1305 1306
f 1338 1306 1305
f 1305 1337 1338
f 1370 1338 1337
f 1337 1369 1370
f 1402 1370 1369
f 1369 1401 1402
f 1434 1402 1401
f 1401 1433 1434
f 1466 1434 1433
f 1433 1465 1466
f 1498 1466 1465
f 1465 1497 1498
f 1530 1498 1497
f 1497 1529 1530
f 1562 1530 1529
f 1529 1561 1562
f 1594 1562 1561
f 1561 1593 1594
f 1626 1594 1593
f 1593 1625 1626
f 1658 1626 1625
f 1625 1657 1658
f 1690 1658 1657
f 1657 1689 1690
f 1722 1690 1689
f 1689 1721 1722
f 1754 1722 1721
f 1721 1753 1754
f 1786 1754 1753
f 1753 1785 1786
f 827 795 794
f 794 826 827
f 859 827 826
f 826 858 859
f 891 859 858
f 858 890 891
f 923 891 890
f 890 922 923
f 955 923 922
f 922 954 955
f 987 955 954
f 954 986 987
f 1019 987 986
f 986 1018 1019
f 1051 1019 1018
f 1018 1050 1051
f 1083 1051 1050
f 1050 1082 1083
f 1115 1083 1082
f 1082 1114 1115
f 1147 1115 1114
f 1114 1146 1147
f 1179 1147 1146
f 1146 1178 1179
f 1211 1179 1178
f 1178 1210 1211
f 1243 1211 1210
f 1210 1242 1243
f 1275 1243 1242
f 1242 1274 1275
f 1307 1275 1274
f 1274 1306 1307
f 1339 1307 1306
f 1306 1338 1339
f 1371 1339 1338
f 1338 1370 1371
f 1403 1371 1370
f 1370 1402 1403
f 1435 1403 1402
f 1402 1434 1435
f 1467 1435 1434
f 1434 1466 1467
f 1499 1467 1466
f 1466 1498 1499
f 1531 1499 1498
f 1498 1530 1531
f 1563 1531 1530
f 1530 1562 1563
f 1595 1563 1562
f 1562 1594 1595
f 1627 1595 1594
f 1594 1626 1627
f 1659 1627 1626
f 1626 1658 1659
f 1691 1659 1658
f 1658 1690 1691
f 1723 1691 1690
f 1690 1722 1723
f 1755 1723 1722
f 1722 1754 1755
f 1787 1755 1754
f 1754 1786 1787
f 828 796 795
f 795 827 828
f 860 828 827
f 827 859 860
f 892 860 859
f 859 891 892
f 924 892 891
f 891 923 924
f 956 924 923
f 923 955 956
f 988 956 955
f 955 987 988
f 1020 988 987
f 987 1019 1020
f 1052 1020 1019
f 1019 1051 1052
f 1084 1052 1051
f 1051 1083 1084
f 1116 1084 1083
f 1083 1115 1116
f 1148 1116 1115
f 1115 1147 1148
f 1180 1148 1147
f 1147 1179 1180
f 1212 1180 1179
f 1179 1211 1212
f 1244 1212 1211
f 1211 1243 1244
f 1276 1244 1243
f 1243 1275 1276
f 1308 1276 1275
f 1275 1307 1308
f 1340 1308 1307
f 1307 1339 1340
f 1372 1340 1339
f 1339 1371 1372
f 1404 1372 1371
f 1371 1403 1404
f 1436 1404 1403
f 1403 1435 1436
f 1468 1436 1435
f 1435 1467 1468
f 1500 1468 1467
f 1467 1499 1500
f 1532 1500 1499
f 1499 1531 1532
f 1564 1532 1531
f 1531 1563 1564
f 1596 1564 1563
f 1563 1595 1596
f 1628 1596 1595
f 1595 1627 1628
f 1660 1628 1627
f 1627 1659 1660
f 1692 1660 1659
f 1659 1691 1692
f 1724 1692 1691
f 1691 1723 1724
f 1756 1724 1723
f 1723 1755 1756
f 1788 1756 1755
f 1755 1787 1788
f 829 797 796
f 796 828 829
f 861 829 828
f 828 860 861
f 893 861 860
f 860 892 893
f 925 893 892
f 892 924 925
f 957 925 924
f 924 956 957
f 989 957 956
f 956 988 989
f 1021 989 988
f 988 1020 1021
f 1053 1021 1020
f 1020 1052 1053
f 1085 1053 1052
f 1052 1084 1085
f 1117 1085 1084
f 1084 1116 1117
f 1149 1117 1116
f 1116 1148 1149
f 1181 1149 1148
f 1148 1180 1181
f 1213 1181 1180
f 1180 1212 1213
f 1245 1213 1212
f 1212 1244 1245
f 1277 1245 1244
f 1244 1276 1277
f 1309 1277 1276
f 1276 1308 1309
f 1341 1309 1308
f 1308 1340 1341
f 1373 1341 1340
f 1340 1372 1373
f 1405 1373 1372
f 1372 1404 1405
f 1437 1405 1404
f 1404 1436 1437
f 1469 1437 1436
f 1436 1468 1469
f 1501 1469 1468
f 1468 1500 1501
f 1533 1501 1500
f 1500 1532 1533
f 1565 1533 1532
f 1532 1564 1565
f 1597 1565 1564
f 1564 1596 1597
f 1629 1597 1596
f 1596 1628 1629
f 1661 1629 1628
f 1628 1660 1661
f 1693 1661 1660
f 1660 1692 1693
f 1725 1693 1692
f 1692 1724 1725
f 1757 1725 1724
f 1724 1756 1757
f 1789 1757 1756
f 1756 1788 1789
f 830 798 797
f 797 829 830
f 862 830 829
f 829 861 862
f 894 862 861
f 861 893 894
f 926 894 893
f 893 925 926
f 958 926 925
f 925 957 958
f 990 958 957
f 957 989 990
f 1022 990 989
f 989 1021 1022
f 1054 1022 1021
f 1021 1053 1054
f 1086 1054 1053
f 1053 1085 1086
f 1118 1086 1085
f 1085 1117 1118
f 1150 1118 1117
f 1117 1149 1150
f 1182 1150 1149
f 1149 1181 1182
f 1214 1182 1181
f 1181 1213 1214
f 1246 1214 1213
f 1213 1245 1246
f 1278 1246 1245
f 1245 1277 1278
f 1310 1278 1277
f 1277 1309 1310
f 1342 1310 1309
f 1309 1341 1342
f 1374 1342 1341
f 1341 1373 1374
f 1406 1374 1373
f 1373 1405 1406
f 1438 1406 1405
f 1405 1437 1438
f 1470 1438 1437
f 1437 1469 1470
f 1502 1470 1469
f 1469 1501 1502
f 1534 1502 1501
f 1501 1533 1534
f 1566 1534 1533
f 1533 1565 1566
f 1598 1566 1565
f 1565 1597 1598
f 1630 1598 1597
f 1597 1629 1630
f 1662 1630 1629
f 1629 1661 1662
f 1694 1662 1661
f 1661 1693 1694
f 1726 1694 1693
f 1693 1725 1726
f 1758 1726 1725
f 1725 1757 1758
f 1790 1758 1757
f 1757 1789 1790
f 831 799 798
f 798 830 831
f 863 831 830
f 830 862 863
f 895 863 862
f 862 894 895
f 927 895 894
f 894 926 927
f 959 927 926
f 926 958 959
f 991 959 958
f 958 990 991
f 1023 991 990
f 990 1022 1023
f 1055 1023 1022
f 1022 1054 1055
f 1087 1055 1054
f 1054 1086 1087
f 1119 1087 1086
f 1086 1118 1119
f 1151 1119 1118
f 1118 1150 1151
f 1183 1151 1150
f 1150 1182 1183
f 1215 1183 1182
f 1182 1214 1215
f 1247 1215 1214
f 1214 1246 1247
f 1279 1247 1246
f 1246 1278 1279
f 1311 1279 1278
f 1278 1310 1311
f 1343 1311 1310
f 1310 1342 1343
f 1375 1343 1342
f 1342 1374 1375
f 1407 1375 1374
f 1374 1406 1407
f 1439 1407 1406
f 1406 1438 1439
f 1471 1439 1438
f 1438 1470 1471
f 1503 1471 1470
f 1470 1502 1503
f 1535 1503 1502
f 1502 1534 1535
f 1567 1535 1534
f 1534 1566 1567
f 1599 1567 1566
f 1566 1598 1599
f 1631 1599 1598
f 1598 1630 1631
f 1663 1631 1630
f 1630 1662 1663
f 1695 1663 1662
f 1662 1694 1695
f 1727 1695 1694
f 1694 1726 1727
f 1759 1727 1726
f 1726 1758 1759
f 1791 1759 1758
f 1758 1790 1791
f 832 800 799
f 799 831 832
f 864 832 831
f 831 863 864
f 896 864 863
f 863 895 896
f 928 896 895
f 895 927 928
f 960 928 927
f 927 959 960
f 992 960 959
f 959 991 992
f 1024 992 991
f 991 1023 1024
f 1056 1024 1023
f 1023 1055 1056
f 1088 1056 1055
f 1055 1087 1088
f 1120 1088 1087
f 1087 1119 1120
f 1152 1120 1119
f 1119 1151 1152
f 1184 1152 1151
f 1151 1183 1184
f 1216 1184 1183
f 1183 1215 1216
f 1248 1216 1215
f 1215 1247 1248
f 1280 1248 1247
f 1247 1279 1280
f 1312 1280 1279
f 1279 1311 1312
f 1344 1312 1311
f 1311 1343 1344
f 1376 1344 1343
f 1343 1375 1376
f 1408 1376 1375
f 1375 1407 1408
f 1440 1408 1407
f 1407 1439 1440
f 1472 1440 1439
f 1439 1471 1472
f 1504 1472 1471
f 1471 1503 1504
f 1536 1504 1503
f 1503 1535 1536
f 1568 1536 1535
f 1535 1567 1568
f 1600 1568 1567
f 1567 1599 1600
f 1632 1600 1599
f 1599 1631 1632
f 1664 1632 1631
f 1631 1663 1664
f 1696 1664 1663
f 1663 1695 1696
f 1728 1696 1695
f 1695 1727 1728
f 1760 1728 1727
f 1727 1759 1760
f 1792 1760 1759
f 1759 1791 1792
f 833 801 800
f 800 832 833
f 865 833 832
f 832 864 865
f 897 865 864
f 864 896 897
f 929 897 896
f 896 928 929
f 961 929 928
f 928 960 961
f 993 961 960
f 960 992 993
f 1025 993 992
f 992 1024 1025
f 1057 1025 1024
f 1024 1056 1057
f 1089 1057 1056
f 1056 1088 1089
f 1121 1089 1088
f 1088 1120 1121
f 1153 1121 1120
f 1120 1152 1153
f 1185 1153 1152
f 1152 1184 1185
f 1217 1185 1184
f 1184 1216 1217
f 1249 1217 1216
f 1216 1248 1249
f 1281 1249 1248
f 1248 1280 1281
f 1313 1281 1280
f 1280 1312 1313
f 1345 1313 1312
f 1312 1344 1345
f 1377 1345 1344
f 1344 1376 1377
f 1409 1377 1376
f 1376 1408 1409
f 1441 1409 1408
f 1408 1440 1441
f 1473 1441 1440
f 1440 1472 1473
f 1505 1473 1472
f 1472 1504 1505
f 1537 1505 1504
f 1504 1536 1537
f 1569 1537 1536
f 1536 1568 1569
f 1601 1569 1568
f 1568 1600 1601
f 1633 1601 1600
f 1600 1632 1633
f 1665 1633 1632
f 1632 1664 1665
f 1697 1665 1664
f 1664 1696 1697
f 1729 1697 1696
f 1696 1728 1729
f 1761 1729 1728
f 1728 1760 1761
f 1793 1761 1760
f 1760 1792 1793
f 834 802 801
f 801 833 834
f 866 834 833
f 833 865 866
f 898 866 865
f 865 897 898
f 930 898 897
f 897 929 930
f 962 930 929
f 929 961 962
f 994 962 961
f 961 993 994
f 1026 994 993
f 993 1025 1026
f 1058 1026 1025
f 1025 1057 1058
f 1090 1058 1057
f 1057 1089 1090
f 1122 1090 1089
f 1089 1121 1122
f 1154 1122 1121
f 1121 1153 1154
f 1186 1154 1153
f 1153 1185 1186
f 1218 1186 1185
f 1185 1217 1218
f 1250 1218 1217
f 1217 1249 1250
f 1282 1250 1249
f 1249 1281 1282
f 1314 1282 1281
f 1281 1313 1314
f 1346 1314 1313
f 1313 1345 1346
f 1378 1346 1345
f 1345 1377 1378
f 1410 1378 1377
f 1377 1409 1410
f 1442 1410 1409
f 1409 1441 1442
f 1474 1442 1441
f 1441 1473 1474
f 1506 1474 1473
f 1473 1505 1506
f 1538 1506 1505
f 1505 1537 1538
f 1570 1538 1537
f 1537 1569 1570
f 1602 1570 1569
f 1569 1601 1602
f 1634 1602 1601
f 1601 1633 1634
f 1666 1634 1633
f 1633 1665 1666
f 1698 1666 1665
f 1665 1697 1698
f 1730 1698 1697
f 1697 1729 1730
f 1762 1730 1729
f 1729 1761 1762
f 1794 1762 1761
f 1761 1793 1794
f 835 803 802
f 802 834 835
f 867 835 834
f 834 866 867
f 899 867 866
f 866 898 899
f 931 899 898
f 898 930 931
f 963 931 930
f 930 962 963
f 995 963 962
f 962 994 995
f 1027 995 994
f 994 1026 1027
f 1059 1027 1026
f 1026 1058 1059
f 1091 1059 1058
f 1058 1090 1091
f 1123 1091 1090
f 1090 1122 1123
f 1155 1123 1122
f 1122 1154 1155
f 1187 1155 1154
f 1154 1186 1187
f 1219 1187 1186
f 1186 1218 1219
f 1251 1219 1218
f 1218 1250 1251
f 1283 1251 1250
f 1250 1282 1283
f 1315 1283 1282
f 1282 1314 1315
f 1347 1315 1314
f 1314 1346 1347
f 1379 1347 1346
f 1346 1378 1379
f 1411 1379 1378
f 1378 1410 1411
f 1443 1411 1410
f 1410 1442 1443
f 1475 1443 1442
f 1442 1474 1475
f 1507 1475 1474
f 1474 1506 1507
f 1539 1507 1506
f 1506 1538 1539
f 1571 1539 1538
f 1538 1570 1571
f 1603 1571 1570
f 1570 1602 1603
f 1635 1603 1602
f 1602 1634 1635
f 1667 1635 1634
f 1634 1666 1667
f 1699 1667 1666
f 1666 1698 1699
f 1731 1699 1698
f 1698 1730 1731
f 1763 1731 1730
f 1730 1762 1763
f 1795 1763 1762
f 1762 1794 1795
f 836 804 803
f 803 835 836
f 868 836 835
f 835 867 868
f 900 868 867
f 867 899 900
f 932 900 899
f 899 931 932
f 964 932 931
f 931 963 964
f 996 964 963
f 963 995 996
f 1028 996 995
f 995 1027 1028
f 1060 1028 1027
f 1027 1059 1060
f 1092 1060 1059
f 1059 1091 1092
f 1124 1092 1091
f 1091 1123 1124
f 1156 1124 1123
f 1123 1155 1156
f 1188 1156 1155
f 1155 1187 1188
f 1220 1188 1187
f 1187 1219 1220
f 1252 1220 1219
f 1219 1251 1252
f 1284 1252 1251
f 1251 1283 1284
f 1316 1284 1283
f 1283 1315 1316
f 1348 1316 1315
f 1315 1347 1348
f 1380 1348 1347
f 1347 1379 1380
f 1412 1380 1379
f 1379 1411 1412
f 1444 1412 1411
f 1411 1443 1444
f 1476 1444 1443
f 1443 1475 1476
f 1508 1476 1475
f 1475 1507 1508
f 1540 1508 1507
f 1507 1539 1540
f 1572 1540 1539
f 1539 1571 1572
f 1604 1572 1571
f 1571 1603 1604
f 1636 1604 1603
f 1603 1635 1636
f 1668 1636 1635
f 1635 1667 1668
f 1700 1668 1667
f 1667 1699 1700
f 1732 1700 1699
f 1699 1731 1732
f 1764 1732 1731
f 1731 1763 1764
f 1796 1764 1763
f 1763 1795 1796
f 837 805 804
f 804 836 837
f 869 837 836
f 836 868 869
f 901 869 868
f 868 900 901
f 933 901 900
f 900 932 933
f 965 933 932
f 932 964 965
f 997 965 964
f 964 996 997
f 1029 997 996
f 996 1028 1029
f 1061 1029 1028
f 1028 1060 1061
f 1093 1061 1060
f 1060 1092 1093
f 1125 1093 1092
f 1092 1124 1125
f 1157 1125 1124
f 1124 1156 1157
f 1189 1157 1156
f 1156 1188 1189
f 1221 1189 1188
f 1188 1220 1221
f 1253 1221 1220
f 1220 1252 1253
f 1285 1253 1252
f 1252 1284 1285
f 1317 1285 1284
f 1284 1316 1317
f 1349 1317 1316
f 1316 1348 1349
f 1381 1349 1348
f 1348 1380 1381
f 1413 1381 1380
f 1380 1412 1413
f 1445 1413 1412
f 1412 1444 1445
f 1477 1445 1444
f 1444 1476 1477
f 1509 1477 1476
f 1476 1508 1509
f 1541 1509 1508
f 1508 1540 1541
f 1573 1541 1540
f 1540 1572 1573
f 1605 1573 1572
f 1572 1604 1605
f 1637 1605 1604
f 1604 1636 1637
f 1669 1637 1636
f 1636 1668 1669
f 1701 1669 1668
f 1668 1700 1701
f 1733 1701 1700
f 1700 1732 1733
f 1765 1733 1732
f 1732 1764 1765
f 1797 1765 1764
f 1764 1796 1797
f 838 806 805
f 805 837 838
f 870 838 837
f 837 869 870
f 902 870 869
f 869 901 902
f 934 902 901
f 901 933 934
f 966 934 933
f 933 965 966
f 998 966 965
f 965 997 998
f 1030 998 997
f 997 1029 1030
f 1062 1030 1029
f 1029 1061 1062
f 1094 1062 1061
f 1061 1093 1094
f 1126 1094 1093
f 1093 1125 1126
f 1158 1126 1125
f 1125 1157 1158
f 1190 1158 1157
f 1157 1189 1190
f 1222 1190 1189
f 1189 1221 1222
f 1254 1222 1221
f 1221 1253 1254
f 1286 1254 1253
f 1253 1285 1286
f 1318 1286 1285
f 1285 1317 1318
f 1350 1318 1317
f 1317 1349 1350
f 1382 1350 1349
f 1349 1381 1382
f 1414 1382 1381
f 1381 1413 1414
f 1446 1414 1413
f 1413 1445 1446
f 1478 1446 1445
f 1445 1477 1478
f 1510 1478 1477
f 1477 1509 1510
f 1542 1510 1509
f 1509 1541 1542
f 1574 1542 1541
f 1541 1573 1574
f 1606 1574 1573
f 1573 1605 1606
f 1638 1606 1605
f 1605 1637 1638
f 1670 1638 1637
f 1637 1669 1670
f 1702 1670 1669
f 1669 1701 1702
f 1734 1702 1701
f 1701 1733 1734
f 1766 1734 1733
f 1733 1765 1766
f 1798 1766 1765
f 1765 1797 1798
f 839 807 806
f 806 838 839
f 871 839 838
f 838 870 871
f 903 871 870
f 870 902 903
f 935 903 902
f 902 934 935
f 967 935 934
f 934 966 967
f 999 967 966
f 966 998 999
f 1031 999 998
f 998 1030 1031
f 1063 1031 1030
f 1030 1062 1063
f 1095 1063 1062
f 1062 1094 1095
f 1127 1095 1094
f 1094 1126 1127
f 1159 1127 1126
f 1126 1158 1159
f 1191 1159 1158
f 1158 1190 1191
f 1223 1191 1190
f 1190 1222 1223
f 1255 1223 1222
f 1222 1254 1255
f 1287 1255 1254
f 1254 1286 1287
f 1319 1287 1286
f 1286 1318 1319
f 1351 1319 1318
f 1318 1350 1351
f 1383 1351 1350
f 1350 1382 1383
f 1415 1383 1382
f 1382 1414 1415
f 1447 1415 1414
f 1414 1446 1447
f 1479 1447 1446
f 1446 1478 1479
f 1511 1479 1478
f 1478 1510 1511
f 1543 1511 1510
f 1510 1542 1543
f 1575 1543 1542
f 1542 1574 1575
f 1607 1575 1574
f 1574 1606 1607
f 1639 1607 1606
f 1606 1638 1639
f 1671 1639 1638
f 1638 1670 1671
f 1703 1671 1670
f 1670 1702 1703
f 1735 1703 1702
f 1702 1734 1735
f 1767 1735 1734
f 1734 1766 1767
f 1799 1767 1766
f 1766 1798 1799
f 840 808 807
f 807 839 840
f 872 840 839
f 839 871 872
f 904 872 871
f 871 903 904
f 936 904 903
f 903 935 936
f 968 936 935
f 935 967 968
f 1000 968 967
f 967 999 1000
f 1032 1000 999
f 999 1031 1032
f 1064 1032 1031
f 1031 1063 1064
f 1096 1064 1063
f 1063 1095 1096
f 1128 1096 1095
f 1095 1127 1128
f 1160 1128 1127
f 1127 1159 1160
f 1192 1160 1159
f 1159 1191 1192
f 1224 1192 1191
f 1191 1223 1224
f 1256 1224 1223
f 1223 1255 1256
f 1288 1256 1255
f 1255 1287 1288
f 1320 1288 1287
f 1287 1319 1320
f 1352 1320 1319
f 1319 1351 1352
f 1384 1352 1351
f 1351 1383 1384
f 1416 1384 1383
f 1383 1415 1416
f 1448 1416 1415
f 1415 1447 1448
f 1480 1448 1447
f 1447 1479 1480
f 1512 1480 1479
f 1479 1511 1512
f 1544 1512 1511
f 1511 1543 1544
f 1576 1544 1543
f 1543 1575 1576
f 1608 1576 1575
f 1575 1607 1608
f 1640 1608 1607
f 1607 1639 1640
f 1672 1640 1639
f 1639 1671 1672
f 1704 1672 1671
f 1671 1703 1704
f 1736 1704 1703
f 1703 1735 1736
f 1768 1736 1735
f 1735 1767 1768
f 1800 1768 1767
f 1767 1799 1800
f 841 809 808
f 808 840 841
f 873 841 840
f 840 872 873
f 905 873 872
f 872 904 905
f 937 905 904
f 904 936 937
f 969 937 936
f 936 968 969
f 1001 969 968
f 968 1000 1001
f 1033 1001 1000
f 1000 1032 1033
f 1065 1033 1032
f 1032 1064 1065
f 1097 1065 1064
f 1064 1096 1097
f 1129 1097 1096
f 1096 1128 1129
f 1161 1129 1128
f 1128 1160 1161
f 1193 1161 1160
f 1160 1192 1193
f 1225 1193 1192
f 1192 1224 1225
f 1257 1225 1224
f 1224 1256 1257
f 1289 1257 1256
f 1256 1288 1289
f 1321 1289 1288
f 1288 1320 1321
f 1353 1321 1320
f 1320 1352 1353
f 1385 1353 1352
f 1352 1384 1385
f 1417 1385 1384
f 1384 1416 1417
f 1449 1417 1416
f 1416 1448 1449
f 1481 1449 1448
f 1448 1480 1481
f 1513 1481 1480
f 1480 1512 1513
f 1545 1513 1512
f 1512 1544 1545
f 1577 1545 1544
f 1544 1576 1577
f 1609 1577 1576
f 1576 1608 1609
f 1641 1609 1608
f 1608 1640 1641
f 1673 1641 1640
f 1640 1672 1673
f 1705 1673 1672
f 1672 1704 1705
f 1737 1705 1704
f 1704 1736 1737
f 1769 1737 1736
f 1736 1768 1769
f 1801 1769 1768
f 1768 1800 1801
f 842 810 809
f 809 841 842
f 874 842 841
f 841 873 874
f 906 874 873
f 873 905 906
f 938 906 905
f 905 937 938
f 970 938 937
f 937 969 970
f 1002 970 969
f 969 1001 1002
f 1034 1002 1001
f 1001 1033 1034
f 1066 1034 1033
f 1033 1065 1066
f 1098 1066 1065
f 1065 1097 1098
f 1130 1098 1097
f 1097 1129 1130
f 1162 1130 1129
f 1129 1161 1162
f 1194 1162 1161
f 1161 1193 1194
f 1226 1194 1193
f 1193 1225 1226
f 1258 1226 1225
f 1225 1257 1258
f 1290 1258 1257
f 1257 1289 1290
f 1322 1290 1289
f 1289 1321 1322
f 1354 1322 1321
f 1321 1353 1354
f 1386 1354 1353
f 1353 1385 1386
f 1418 1386 1385
f 1385 1417 1418
f 1450 1418 1417
f 1417 1449 1450
f 1482 1450 1449
f 1449 1481 1482
f 1514 1482 1481
f 1481 1513 1514
f 1546 1514 1513
f 1513 1545 1546
f 1578 1546 1545
f 1545 1577 1578
f 1610 1578 1577
f 1577 1609 1610
f 1642 1610 1609
f 1609 1641 1642
f 1674 1642 1641
f 1641 1673 1674
f 1706 1674 1673
f 1673 1705 1706
f 1738 1706 1705
f 1705 1737 1738
f 1770 1738 1737
f 1737 1769 1770
f 1802 1770 1769
f 1769 1801 1802
f 843 811 810
f 810 842 843
f 875 843 842
f 842 874 875
f 907 875 874
f 874 906 907
f 939 907 906
f 906 938 939
f 971 939 938
f 938 970 971
f 1003 971 970
f 970 1002 1003
f 1035 1003 1002
f 1002 1034 1035
f 1067 1035 1034
f 1034 1066 1067
f 1099 1067 1066
f 1066 1098 1099
f 1131 1099 1098
f 1098 1130 1131
f 1163 1131 1130
f 1130 1162 1163
f 1195 1163 1162
f 1162 1194 1195
f 1227 1195 1194
f 1194 1226 1227
f 1259 1227 1226
f 1226 1258 1259
f 1291 1259 1258
f 1258 1290 1291
f 1323 1291 1290
f 1290 1322 1323
f 1355 1323 1322
f 1322 1354 1355
f 1387 1355 1354
f 1354 1386 1387
f 1419 1387 1386
f 1386 1418 1419
f 1451 1419 1418
f 1418 1450 1451
f 1483 1451 1450
f 1450 1482 1483
f 1515 1483 1482
f 1482 1514 1515
f 1547 1515 1514
f 1514 1546 1547
f 1579 1547 1546
f 1546 1578 1579
f 1611 1579 1578
f 1578 1610 1611
f 1643 1611 1610
f 1610 1642 1643
f 1675 1643 1642
f 1642 1674 1675
f 1707 1675 1674
f 1674 1706 1707
f 1739 1707 1706
f 1706 1738 1739
f 1771 1739 1738
f 1738 1770 1771
f 1803 1771 1770
f 1770 1802 1803
f 844 812 811
f 811 843 844
f 876 844 843
f 843 875 876
f 908 876 875
f 875 907 908
f 940 908 907
f 907 939 940
f 972 940 939
f 939 971 972
f 1004 972 971
f 971 1003 1004
f 1036 1004 1003
f 1003 1035 1036
f 1068 1036 1035
f 1035 1067 1068
f 1100 1068 1067
f 1067 1099 1100
f 1132 1100 1099
f 1099 1131 1132
f 1164 1132 1131
f 1131 1163 1164
f 1196 1164 1163
f 1163 1195 1196
f 1228 1196 1195
f 1195 1227 1228
f 1260 1228 1227
f 1227 1259 1260
f 1292 1260 1259
f 1259 1291 1292
f 1324 1292 1291
f 1291 1323 1324
f 1356 1324 1323
f 1323 1355 1356
f 1388 1356 1355
f 1355 1387 1388
f 1420 1388 1387
f 1387 1419 1420
f 1452 1420 1419
f 1419 1451 1452
f 1484 1452 1451
f 1451 1483 1484
f 1516 1484 1483
f 1483 1515 1516
f 1548 1516 1515
f 1515 1547 1548
f 1580 1548 1547
f 1547 1579 1580
f 1612 1580 1579
f 1579 1611 1612
f 1644 1612 1611
f 1611 1643 1644
f 1676 1644 1643
f 1643 1675 1676
f 1708 1676 1675
f 1675 1707 1708
f 1740 1708 1707
f 1707 1739 1740
f 1772 1740 1739
f 1739 1771 1772
f 1804 1772 1771
f 1771 1803 1804
