v -7557 272.07 -4456.23
v -7557.37 271.282 -4456.19
v -7557.3 271.275 -4456.21
v -7556.94 272.064 -4456.25
v -7556.82 272.855 -4456.29
v -7556.77 272.856 -4456.31
v -7556.9 273.433 -4456.22
v -7556.85 273.439 -4456.24
v -7557.1 273.941 -4456.02
v -7557.06 273.974 -4456.03
v -7557.54 274.153 -4455.65
v -7557.51 274.182 -4455.66
v -7557.03 272.081 -4456.18
v -7557.4 271.294 -4456.13
v -7556.85 272.857 -4456.24
v -7556.93 273.43 -4456.17
v -7557.11 273.912 -4455.98
v -7557.56 274.128 -4455.62
v -7557.54 274.121 -4455.58
v -7557.1 273.903 -4455.94
v -7556.92 273.432 -4456.12
v -7556.84 272.862 -4456.19
v -7557.01 272.089 -4456.12
v -7557.38 271.303 -4456.07
v -7557.51 274.135 -4455.56
v -7557.06 273.919 -4455.91
v -7556.87 273.438 -4456.1
v -7556.79 272.866 -4456.16
v -7556.96 272.091 -4456.09
v -7557.33 271.304 -4456.04
v -7556.9 272.084 -4456.11
v -7557.26 271.297 -4456.06
v -7556.73 272.868 -4456.18
v -7556.82 273.445 -4456.12
v -7557.02 273.952 -4455.92
v -7557.47 274.163 -4455.57
v -7558.41 272.341 -4455.14
v -7558.44 272.351 -4455.09
v -7558.5 271.505 -4455.28
v -7558.47 271.493 -4455.33
v -7558.33 273.142 -4455.13
v -7558.35 273.159 -4455.08
v -7558.1 273.662 -4455.29
v -7558.13 273.683 -4455.25
v -7557.75 274.065 -4455.51
v -7557.76 274.107 -4455.49
v -7557.26 274.099 -4455.88
v -7557.27 274.135 -4455.85
v -7558.35 272.334 -4455.16
v -7558.41 271.486 -4455.35
v -7558.27 273.128 -4455.15
v -7558.05 273.645 -4455.3
v -7557.72 274.027 -4455.51
v -7557.23 274.065 -4455.88
v -7557.68 274.015 -4455.48
v -7557.19 274.054 -4455.85
v -7558.01 273.641 -4455.28
v -7558.22 273.126 -4455.12
v -7558.3 272.335 -4455.13
v -7558.35 271.488 -4455.32
v -7557.66 274.035 -4455.44
v -7557.18 274.072 -4455.81
v -7558 273.653 -4455.23
v -7558.21 273.137 -4455.07
v -7558.29 272.344 -4455.07
v -7558.33 271.497 -4455.26
v -7558.32 272.355 -4455.02
v -7558.37 271.508 -4455.2
v -7558.24 273.155 -4455.02
v -7558.02 273.674 -4455.19
v -7557.67 274.076 -4455.42
v -7557.19 274.109 -4455.79
v -7558.01 273.674 -4459.34
v -7557.97 273.766 -4459.46
v -7557.09 273.814 -4458.81
v -7557.18 273.722 -4458.73
v -7559.02 273.715 -4459.48
v -7559.05 273.807 -4459.6
v -7560.61 274.017 -4458.26
v -7560.71 274.126 -4458.32
v -7560 273.843 -4459.09
v -7560.06 273.943 -4459.18
v -7560.73 274.194 -4457.23
v -7560.83 274.308 -4457.25
v -7560.33 274.324 -4456.29
v -7560.4 274.433 -4456.25
v -7559.5 274.372 -4455.67
v -7559.52 274.487 -4455.6
v -7558.46 274.327 -4455.54
v -7558.43 274.444 -4455.46
v -7556.89 274.026 -4456.77
v -7556.78 274.137 -4456.74
v -7557.49 274.202 -4455.93
v -7557.43 274.316 -4455.88
v -7556.77 273.849 -4457.79
v -7556.65 273.948 -4457.81
v -7557.09 273.814 -4458.81
v -7557.18 273.722 -4458.73
v -7557.97 273.536 -4459.47
v -7558 273.59 -4459.36
v -7557.16 273.64 -4458.73
v -7557.07 273.589 -4458.8
v -7559.07 273.588 -4459.61
v -7559.04 273.636 -4459.5
v -7560.65 273.94 -4458.26
v -7560.03 273.763 -4459.1
v -7560.76 273.908 -4458.3
v -7560.1 273.72 -4459.18
v -7560.89 274.099 -4457.21
v -7560.77 274.121 -4457.22
v -7560.45 274.25 -4456.19
v -7560.36 274.261 -4456.26
v -7559.55 274.3 -4455.52
v -7559.51 274.308 -4455.63
v -7558.44 274.26 -4455.31
v -7558.46 274.26 -4455.5
v -7556.86 273.948 -4456.74
v -7557.48 274.129 -4455.9
v -7556.7 273.917 -4456.66
v -7557.36 274.116 -4455.74
v -7556.62 273.731 -4457.79
v -7556.74 273.772 -4457.78
v -7557.07 273.589 -4458.8
v -7557.16 273.64 -4458.73
v -7558.01 273.674 -4459.34
v -7557.18 273.722 -4458.73
v -7559.02 273.715 -4459.48
v -7560.61 274.017 -4458.26
v -7560 273.843 -4459.09
v -7560.73 274.194 -4457.23
v -7560.33 274.324 -4456.29
v -7559.5 274.372 -4455.67
v -7558.46 274.327 -4455.54
v -7556.89 274.026 -4456.77
v -7557.49 274.202 -4455.93
v -7556.77 273.849 -4457.79
v -7557.18 273.722 -4458.73
v -7558.47 274.344 -4455.48
v -7558.11 273.574 -4455.27
v -7558.07 273.588 -4455.27
v -7558.44 274.358 -4455.48
v -7558.05 273.597 -4455.24
v -7558.42 274.368 -4455.45
v -7558.5 274.334 -4455.42
v -7558.14 273.564 -4455.21
v -7558.13 273.564 -4455.25
v -7558.5 274.334 -4455.45
v -7558.11 273.574 -4455.27
v -7558.47 274.344 -4455.48
v -7558.05 273.597 -4455.24
v -7558.07 273.588 -4455.27
v -7558.11 273.574 -4455.27
v -7558.13 273.564 -4455.25
v -7558.14 273.564 -4455.21
v -7558.12 273.574 -4455.19
v -7558.08 273.587 -4455.18
v -7558.06 273.597 -4455.21
v -7558.42 274.368 -4455.41
v -7558.45 274.358 -4455.39
v -7558.48 274.344 -4455.39
v -7558.5 274.334 -4455.42
v -7558.5 274.334 -4455.45
v -7558.47 274.344 -4455.48
v -7558.44 274.358 -4455.48
v -7558.42 274.368 -4455.45
v -7556.82 274.035 -4456.75
v -7556.87 273.377 -4456.21
v -7556.84 273.369 -4456.2
v -7556.77 274.036 -4456.74
v -7556.81 274.07 -4456.67
v -7556.84 273.422 -4456.14
v -7556.88 273.43 -4456.14
v -7556.85 274.069 -4456.67
v -7556.9 273.42 -4456.17
v -7556.87 274.059 -4456.7
v -7556.9 273.398 -4456.2
v -7556.86 274.045 -4456.73
v -7556.87 273.377 -4456.21
v -7556.82 274.035 -4456.75
v -7558.23 270.909 -4458.8
v -7558.04 272.36 -4459.3
v -7557.05 272.429 -4458.69
v -7557.44 270.955 -4458.21
v -7557.97 273.644 -4459.45
v -7557.09 273.696 -4458.79
v -7557.05 272.429 -4458.69
v -7556.62 272.578 -4457.67
v -7557.05 271.077 -4457.32
v -7557.44 270.955 -4458.21
v -7557.09 273.696 -4458.79
v -7556.66 273.832 -4457.8
v -7556.79 272.801 -4456.5
v -7557.18 271.241 -4456.37
v -7556.79 274.017 -4456.72
v -7556.79 272.824 -4456.22
v -7556.86 273.429 -4456.17
v -7557.07 273.933 -4455.96
v -7557.44 274.201 -4455.86
v -7558.44 274.334 -4455.44
v -7558.49 273.132 -4455.15
v -7558.04 273.653 -4455.26
v -7558.25 273.081 -4455.08
v -7557.68 274.05 -4455.49
v -7559.64 273.139 -4455.26
v -7559.63 271.569 -4455.32
v -7558.67 271.524 -4455.22
v -7559.53 274.38 -4455.58
v -7560.6 273.101 -4455.93
v -7560.42 271.523 -4455.91
v -7560.41 274.328 -4456.23
v -7560.6 273.101 -4455.93
v -7560.99 272.996 -4457.01
v -7560.81 271.401 -4456.81
v -7560.42 271.523 -4455.91
v -7560.41 274.328 -4456.23
v -7560.84 274.192 -4457.23
v -7560.88 272.721 -4458.19
v -7560.69 271.235 -4457.77
v -7560.72 274.007 -4458.3
v -7560.25 272.577 -4459.03
v -7560.11 271.07 -4458.54
v -7560.06 273.824 -4459.16
v -7559.13 272.479 -4459.53
v -7559.21 270.951 -4458.92
v -7559.06 273.691 -4459.58
v -7558.35 271.49 -4455.31
v -7558.37 272.344 -4455.12
v -7557.34 271.297 -4456.09
v -7556.96 272.076 -4456.21
v -7557.34 274.081 -4455.71
v -7558.08 270.839 -4459.16
v -7557.12 270.895 -4458.45
v -7556.77 272.402 -4458.88
v -7557.88 272.347 -4459.71
v -7556.68 273.616 -4459.11
v -7557.78 273.552 -4459.93
v -7556.77 272.402 -4458.88
v -7557.12 270.895 -4458.45
v -7556.65 271.043 -4457.37
v -7556.26 272.533 -4457.7
v -7556.14 273.787 -4457.87
v -7556.68 273.616 -4459.11
v -7556.81 271.242 -4456.22
v -7556.43 272.746 -4456.37
v -7556.29 274.019 -4456.53
v -7556.56 272.808 -4456.06
v -7556.6 273.451 -4455.93
v -7556.79 273.956 -4455.72
v -7557.11 274.248 -4455.45
v -7558.37 274.414 -4454.93
v -7557.86 273.693 -4454.95
v -7558.45 273.152 -4454.77
v -7558.08 273.18 -4454.89
v -7557.5 274.092 -4455.17
v -7558.61 271.586 -4454.83
v -7559.77 271.641 -4454.95
v -7559.8 273.265 -4455
v -7559.72 274.472 -4455.09
v -7560.73 271.584 -4455.66
v -7560.85 273.121 -4455.8
v -7560.82 274.407 -4455.91
v -7560.85 273.121 -4455.8
v -7560.73 271.584 -4455.66
v -7561.21 271.436 -4456.75
v -7561.43 273.01 -4456.99
v -7561.36 274.236 -4457.16
v -7560.82 274.407 -4455.91
v -7561.07 271.234 -4457.92
v -7561.24 272.771 -4458.27
v -7561.21 274.006 -4458.5
v -7560.36 271.035 -4458.85
v -7560.41 272.55 -4459.34
v -7560.39 273.776 -4459.57
v -7559.26 270.89 -4459.31
v -7559.25 272.355 -4459.82
v -7559.14 273.61 -4460.1
v -7558.25 271.545 -4454.94
v -7558.23 272.382 -4454.83
v -7557 271.306 -4455.9
v -7556.71 272.093 -4456.01
v -7557.11 274.113 -4455.42
v -7558.35 271.49 -4455.31
v -7558.24 271.513 -4455.13
v -7558.23 272.346 -4455.03
v -7558.37 272.344 -4455.12
v -7558.25 271.545 -4454.94
v -7558.23 272.382 -4454.83
v -7558.1 273.138 -4455.07
v -7558.25 273.081 -4455.08
v -7557.89 273.623 -4455.15
v -7558.04 273.653 -4455.26
v -7557.86 273.693 -4454.95
v -7557.56 274.004 -4455.34
v -7557.68 274.05 -4455.49
v -7557.11 274.113 -4455.42
v -7557.23 274.032 -4455.55
v -7557.34 274.081 -4455.71
v -7556.96 273.89 -4455.81
v -7556.79 273.956 -4455.72
v -7557.07 273.933 -4455.96
v -7556.79 273.413 -4456
v -7556.86 273.429 -4456.17
v -7556.6 273.451 -4455.93
v -7556.78 272.827 -4456.07
v -7556.79 272.824 -4456.22
v -7556.56 272.808 -4456.06
v -7556.91 272.095 -4456.05
v -7556.96 272.076 -4456.21
v -7556.71 272.093 -4456.01
v -7557.19 271.312 -4455.94
v -7557.34 271.297 -4456.09
v -7557 271.306 -4455.9
v -7556.44 273.48 -4459.29
v -7557.67 273.326 -4460.19
v -7557.78 273.552 -4459.93
v -7556.68 273.616 -4459.11
v -7555.84 273.59 -4457.88
v -7556.14 273.787 -4457.87
v -7556.01 273.8 -4456.37
v -7556.29 274.019 -4456.53
v -7556.92 274.186 -4455.19
v -7557.11 274.248 -4455.45
v -7558.33 274.291 -4454.59
v -7558.37 274.414 -4454.93
v -7559.84 274.437 -4454.79
v -7559.72 274.472 -4455.09
v -7561.08 274.284 -4455.69
v -7560.82 274.407 -4455.91
v -7561.69 274.093 -4457.09
v -7561.36 274.236 -4457.16
v -7561.51 273.916 -4458.6
v -7561.21 274.006 -4458.5
v -7560.6 273.578 -4459.79
v -7560.39 273.776 -4459.57
v -7559.19 273.473 -4460.39
v -7560.6 273.578 -4459.79
v -7560.39 273.776 -4459.57
v -7559.14 273.61 -4460.1
v -7557.11 277.119 -4459.17
v -7557.8 278.145 -4458.74
v -7558.16 278.124 -4459.01
v -7557.86 277.074 -4459.74
v -7556.73 277.237 -4458.31
v -7557.62 278.201 -4458.33
v -7556.84 277.396 -4457.39
v -7557.67 278.277 -4457.89
v -7557.4 277.554 -4456.65
v -7557.94 278.352 -4457.54
v -7558.27 277.669 -4456.28
v -7558.35 278.406 -4457.37
v -7559.21 277.709 -4456.4
v -7558.8 278.426 -4457.42
v -7559.96 277.665 -4456.96
v -7559.16 278.404 -4457.69
v -7560.34 277.547 -4457.82
v -7559.34 278.349 -4458.1
v -7560.23 277.388 -4458.75
v -7559.28 278.273 -4458.54
v -7559.67 277.229 -4459.49
v -7559.02 278.198 -4458.89
v -7558.8 277.115 -4459.85
v -7558.61 278.143 -4459.06
v -7559.02 278.198 -4458.89
v -7559.67 277.229 -4459.49
v -7556.52 275.012 -4459.4
v -7557.65 274.945 -4460.25
v -7555.95 275.189 -4458.11
v -7556.12 275.428 -4456.72
v -7556.96 275.666 -4455.61
v -7558.26 275.838 -4455.06
v -7559.67 275.899 -4455.24
v -7560.81 275.832 -4456.08
v -7561.37 275.655 -4457.38
v -7561.21 275.416 -4458.77
v -7560.36 275.178 -4459.88
v -7559.06 275.006 -4460.43
v -7560.36 275.178 -4459.88
v -7556.44 273.48 -4459.29
v -7557.67 273.326 -4460.19
v -7555.84 273.59 -4457.88
v -7556.01 273.8 -4456.37
v -7556.92 274.186 -4455.19
v -7558.33 274.291 -4454.59
v -7559.84 274.437 -4454.79
v -7561.08 274.284 -4455.69
v -7561.69 274.093 -4457.09
v -7561.51 273.916 -4458.6
v -7560.6 273.578 -4459.79
v -7559.19 273.473 -4460.39
v -7560.6 273.578 -4459.79
v -7557.8 278.145 -4458.74
v -7558.45 278.747 -4458.29
v -7558.16 278.124 -4459.01
v -7557.62 278.201 -4458.33
v -7558.45 278.747 -4458.29
v -7557.67 278.277 -4457.89
v -7557.94 278.352 -4457.54
v -7558.35 278.406 -4457.37
v -7558.8 278.426 -4457.42
v -7559.16 278.404 -4457.69
v -7559.34 278.349 -4458.1
v -7559.28 278.273 -4458.54
v -7559.02 278.198 -4458.89
v -7558.61 278.143 -4459.06
v -7558.16 278.124 -4459.01
v -7557.51 275.199 -4456.2
v -7556.92 275.034 -4456.97
v -7557.71 275.922 -4457.46
v -7558.01 276.008 -4457.05
v -7558.41 275.318 -4455.82
v -7558.48 276.07 -4456.86
v -7557.44 274.201 -4455.86
v -7556.79 274.017 -4456.72
v -7558.44 274.334 -4455.44
v -7558.58 276.631 -4457.94
v -7556.81 274.868 -4457.94
v -7557.2 274.746 -4458.83
v -7557.85 275.772 -4458.43
v -7557.65 275.836 -4457.96
v -7556.92 275.034 -4456.97
v -7557.71 275.922 -4457.46
v -7556.66 273.832 -4457.8
v -7557.09 273.696 -4458.79
v -7556.79 274.017 -4456.72
v -7559.38 275.361 -4455.94
v -7558.41 275.318 -4455.82
v -7558.48 276.07 -4456.86
v -7558.99 276.092 -4456.92
v -7560.17 275.314 -4456.53
v -7559.4 276.068 -4457.23
v -7559.53 274.38 -4455.58
v -7558.44 274.334 -4455.44
v -7560.41 274.328 -4456.23
v -7560.56 275.191 -4457.42
v -7560.17 275.314 -4456.53
v -7559.4 276.068 -4457.23
v -7559.61 276.004 -4457.69
v -7560.45 275.026 -4458.39
v -7559.55 275.918 -4458.2
v -7560.84 274.192 -4457.23
v -7560.41 274.328 -4456.23
v -7560.72 274.007 -4458.3
v -7559.86 274.861 -4459.16
v -7560.45 275.026 -4458.39
v -7559.55 275.918 -4458.2
v -7559.24 275.832 -4458.6
v -7558.96 274.741 -4459.54
v -7558.77 275.77 -4458.8
v -7560.06 273.824 -4459.16
v -7560.72 274.007 -4458.3
v -7559.06 273.691 -4459.58
v -7557.99 274.699 -4459.42
v -7558.96 274.741 -4459.54
v -7558.77 275.77 -4458.8
v -7558.26 275.748 -4458.73
v -7557.2 274.746 -4458.83
v -7557.85 275.772 -4458.43
v -7557.97 273.644 -4459.45
v -7559.06 273.691 -4459.58
v -7557.09 273.696 -4458.79
v -7560.53 271.089 -4459.09
v -7561.42 271.329 -4457.98
v -7560.53 274.089 -4459.09
v -7561.42 274.329 -4457.98
v -7559.22 270.908 -4459.68
v -7560.53 271.089 -4459.09
v -7559.22 273.908 -4459.68
v -7560.53 274.089 -4459.09
v -7557.91 270.88 -4459.35
v -7559.22 270.908 -4459.68
v -7557.91 273.88 -4459.35
v -7559.22 273.908 -4459.68
v -7556.91 270.935 -4458.62
v -7557.91 270.88 -4459.35
v -7556.91 273.935 -4458.62
v -7557.91 273.88 -4459.35
v -7556.36 271.102 -4457.4
v -7556.91 270.935 -4458.62
v -7556.36 274.102 -4457.4
v -7556.91 273.935 -4458.62
v -7556.61 271.358 -4455.94
v -7556.36 271.102 -4457.4
v -7556.61 274.358 -4455.94
v -7556.36 274.102 -4457.4
v -7556.88 271.415 -4455.7
v -7556.61 271.358 -4455.94
v -7556.88 274.415 -4455.7
v -7556.61 274.358 -4455.94
v -7561.42 271.329 -4457.98
v -7561.42 271.559 -4456.58
v -7561.42 274.329 -4457.98
v -7561.42 274.559 -4456.58
v -7561.42 271.559 -4456.58
v -7561 271.716 -4455.46
v -7561.42 274.559 -4456.58
v -7561 274.716 -4455.46
v -7561 271.716 -4455.46
v -7559.92 271.774 -4454.7
v -7561 274.716 -4455.46
v -7559.92 274.774 -4454.7
v -7559.92 271.774 -4454.7
v -7558.46 271.713 -4454.5
v -7559.92 274.774 -4454.7
v -7558.46 274.713 -4454.5
v -7558.11 271.651 -4454.74
v -7558.17 271.572 -4455.24
v -7558.11 274.651 -4454.74
v -7558.17 274.572 -4455.24
v -7557.3 271.407 -4455.91
v -7556.88 271.415 -4455.7
v -7557.3 274.407 -4455.91
v -7556.88 274.415 -4455.7
v -7558.46 271.713 -4454.5
v -7558.11 271.651 -4454.74
v -7558.46 274.713 -4454.5
v -7558.11 274.651 -4454.74
v -7558.17 271.572 -4455.24
v -7558.43 271.549 -4455.48
v -7558.17 274.572 -4455.24
v -7558.43 274.549 -4455.48
v -7557.48 271.368 -4456.22
v -7557.3 271.407 -4455.91
v -7557.48 274.368 -4456.22
v -7557.3 274.407 -4455.91
v -7557.56 271.059 -4458.12
v -7557.23 271.182 -4457.25
v -7557.56 274.059 -4458.12
v -7557.23 274.182 -4457.25
v -7557.23 271.182 -4457.25
v -7557.48 271.368 -4456.22
v -7557.23 274.182 -4457.25
v -7557.48 274.368 -4456.22
v -7558.43 271.549 -4455.48
v -7559.5 271.616 -4455.49
v -7558.43 274.549 -4455.48
v -7559.5 274.616 -4455.49
v -7559.5 271.616 -4455.49
v -7560.28 271.579 -4456.02
v -7559.5 274.616 -4455.49
v -7560.28 274.579 -4456.02
v -7558.42 271.021 -4458.68
v -7557.56 271.059 -4458.12
v -7558.42 274.021 -4458.68
v -7557.56 274.059 -4458.12
v -7560.28 271.579 -4456.02
v -7560.63 271.445 -4456.97
v -7560.28 274.579 -4456.02
v -7560.63 274.445 -4456.97
v -7559.12 271.05 -4458.79
v -7558.42 271.021 -4458.68
v -7559.12 274.05 -4458.79
v -7558.42 274.021 -4458.68
v -7560.63 271.445 -4456.97
v -7560.56 271.325 -4457.67
v -7560.63 274.445 -4456.97
v -7560.56 274.325 -4457.67
v -7560.56 271.325 -4457.67
v -7560 271.164 -4458.43
v -7560.56 274.325 -4457.67
v -7560 274.164 -4458.43
v -7560 271.164 -4458.43
v -7559.12 271.05 -4458.79
v -7560 274.164 -4458.43
v -7559.12 274.05 -4458.79
v -7554.49 270.771 -4452.61
v -7554.51 270.929 -4452.31
v -7554.82 271.012 -4452.44
v -7554.84 270.864 -4452.65
v -7555.14 271.097 -4452.33
v -7555.19 270.959 -4452.57
v -7554.66 271 -4452.15
v -7554.76 271.063 -4452.22
v -7554.88 271.065 -4452.2
v -7554.66 271.037 -4452.08
v -7554.77 271.103 -4452.1
v -7554.94 271.112 -4452.12
v -7554.69 271.011 -4451.95
v -7554.79 271.072 -4451.95
v -7554.87 271.053 -4452.02
v -7554.51 270.93 -4451.75
v -7554.79 271.041 -4451.7
v -7555.11 271.089 -4451.92
v -7554.39 270.745 -4451.67
v -7554.84 270.864 -4451.54
v -7555.36 271.004 -4451.78
v -7555.37 271.007 -4452.1
v -7555.36 271.004 -4451.78
v -7554.84 270.864 -4451.54
v -7554.39 270.745 -4451.67
v -7554.3 270.721 -4452.1
v -7554.49 270.771 -4452.61
v -7554.84 270.864 -4452.65
v -7555.19 270.959 -4452.57
v -7555.37 271.007 -4452.1
v -7555.18 271.109 -4452.1
v -7554.4 270.929 -4452.1
v -7554.3 270.721 -4452.1
v -7555.37 271.007 -4452.1
v -7554.72 271.021 -4452.3
v -7554.89 271.045 -4452.22
v -7554.92 271.011 -4452.21
v -7554.72 270.966 -4452.31
v -7554.89 271.018 -4452.14
v -7554.69 270.963 -4452.19
v -7554.88 271.047 -4452.15
v -7554.66 271.013 -4452.21
v -7554.87 271.055 -4452.19
v -7554.7 271.036 -4452.25
v -7554.89 271.045 -4452.22
v -7554.72 271.021 -4452.3
v -7555.09 271.101 -4452.14
v -7555.1 271.058 -4452.15
v -7555.05 271.051 -4452.06
v -7555.06 271.098 -4452.07
v -7555.06 271.116 -4452.11
v -7555.09 271.101 -4452.14
v -7554.72 270.966 -4452.31
v -7554.73 270.973 -4452.24
v -7554.72 271.021 -4452.3
v -7554.69 270.963 -4452.19
v -7554.66 271.013 -4452.21
v -7554.7 271.036 -4452.25
v -7555.09 271.101 -4452.14
v -7555.09 271.069 -4452.1
v -7555.1 271.058 -4452.15
v -7555.05 271.051 -4452.06
v -7555.06 271.098 -4452.07
v -7555.06 271.116 -4452.11
v -7554.76 271.097 -4452
v -7554.85 271.067 -4452.17
v -7554.83 271.058 -4452.2
v -7554.71 271.089 -4452.02
v -7554.81 271.027 -4452.2
v -7554.68 271.041 -4452.02
v -7554.82 270.998 -4452.19
v -7554.7 270.989 -4452.02
v -7554.88 271.005 -4452.16
v -7554.78 271.005 -4451.96
v -7554.87 271.042 -4452.14
v -7554.79 271.055 -4451.99
v -7554.85 271.067 -4452.17
v -7554.76 271.097 -4452
v -7554.98 271.063 -4452.35
v -7554.94 271.055 -4452.37
v -7554.91 271.028 -4452.37
v -7554.95 270.907 -4452.37
v -7555.02 270.92 -4452.33
v -7555 271.033 -4452.32
v -7554.98 271.063 -4452.35
v -7554.71 271.089 -4452.02
v -7554.75 271.03 -4452.03
v -7554.76 271.097 -4452
v -7554.68 271.041 -4452.02
v -7554.7 270.989 -4452.02
v -7554.78 271.005 -4451.96
v -7554.79 271.055 -4451.99
v -7554.98 271.063 -4452.35
v -7554.97 271.012 -4452.36
v -7554.94 271.055 -4452.37
v -7554.91 271.028 -4452.37
v -7554.95 270.907 -4452.37
v -7555.02 270.92 -4452.33
v -7555 271.033 -4452.32
v -7554.93 271.151 -4451.95
v -7554.79 271.04 -4452.04
v -7554.79 271.001 -4452.03
v -7554.95 271.109 -4451.92
v -7554.81 270.978 -4452.04
v -7554.99 271.072 -4451.93
v -7554.83 270.997 -4452.1
v -7555.01 271.09 -4452.03
v -7554.82 271.03 -4452.1
v -7555 271.149 -4452.03
v -7554.81 271.055 -4452.07
v -7554.94 271.153 -4452.01
v -7554.79 271.04 -4452.04
v -7554.93 271.151 -4451.95
v -7554.62 270.947 -4452.13
v -7554.63 270.91 -4452.11
v -7554.68 270.82 -4452.11
v -7554.71 270.838 -4452.19
v -7554.66 270.937 -4452.2
v -7554.64 270.965 -4452.17
v -7554.62 270.947 -4452.13
v -7554.95 271.109 -4451.92
v -7554.95 271.091 -4452
v -7554.93 271.151 -4451.95
v -7554.99 271.072 -4451.93
v -7555.01 271.09 -4452.03
v -7555 271.149 -4452.03
v -7554.94 271.153 -4452.01
v -7554.62 270.947 -4452.13
v -7554.64 270.907 -4452.16
v -7554.63 270.91 -4452.11
v -7554.68 270.82 -4452.11
v -7554.71 270.838 -4452.19
v -7554.66 270.937 -4452.2
v -7554.64 270.965 -4452.17
v -7554.52 270.949 -4451.94
v -7554.59 270.96 -4452.12
v -7554.56 270.957 -4452.15
v -7554.46 270.944 -4451.96
v -7554.55 270.927 -4452.16
v -7554.43 270.898 -4451.97
v -7554.55 270.895 -4452.15
v -7554.47 270.779 -4451.97
v -7554.61 270.929 -4452.1
v -7554.55 270.906 -4451.94
v -7554.59 270.96 -4452.12
v -7554.52 270.949 -4451.94
v -7554.69 270.997 -4452.31
v -7554.65 270.995 -4452.33
v -7554.63 270.967 -4452.33
v -7554.65 270.916 -4452.35
v -7554.72 270.962 -4452.29
v -7554.69 270.997 -4452.31
v -7554.46 270.944 -4451.96
v -7554.51 270.889 -4451.99
v -7554.52 270.949 -4451.94
v -7554.43 270.898 -4451.97
v -7554.47 270.779 -4451.97
v -7554.55 270.906 -4451.94
v -7554.69 270.997 -4452.31
v -7554.68 270.951 -4452.33
v -7554.65 270.995 -4452.33
v -7554.63 270.967 -4452.33
v -7554.65 270.916 -4452.35
v -7554.72 270.962 -4452.29
v -7554.72 271.005 -4451.85
v -7554.66 270.985 -4452.03
v -7554.62 270.981 -4452.04
v -7554.67 271.004 -4451.83
v -7554.6 270.953 -4452.03
v -7554.64 270.96 -4451.81
v -7554.61 270.922 -4452.02
v -7554.65 270.905 -4451.81
v -7554.69 270.956 -4452.03
v -7554.75 270.96 -4451.86
v -7554.66 270.985 -4452.03
v -7554.72 271.005 -4451.85
v -7554.62 270.989 -4452.25
v -7554.58 270.988 -4452.24
v -7554.56 270.963 -4452.22
v -7554.56 270.908 -4452.23
v -7554.65 270.954 -4452.24
v -7554.62 270.989 -4452.25
v -7554.67 271.004 -4451.83
v -7554.69 270.947 -4451.86
v -7554.72 271.005 -4451.85
v -7554.64 270.96 -4451.81
v -7554.65 270.905 -4451.81
v -7554.75 270.96 -4451.86
v -7554.62 270.989 -4452.25
v -7554.6 270.941 -4452.25
v -7554.58 270.988 -4452.24
v -7554.56 270.963 -4452.22
v -7554.56 270.908 -4452.23
v -7554.65 270.954 -4452.24
v -7558.55 270.677 -4457.33
v -7558.55 270.801 -4457.33
v -7558.75 270.677 -4457.33
v -7558.75 270.801 -4457.33
v -7558.6 270.854 -4457.28
v -7558.6 270.854 -4457.18
v -7558.7 270.854 -4457.28
v -7558.7 270.854 -4457.18
v -7558.55 270.801 -4457.13
v -7558.55 270.677 -4457.13
v -7558.75 270.801 -4457.13
v -7558.75 270.677 -4457.13
v -7558.55 270.677 -4457.13
v -7558.55 270.677 -4457.33
v -7558.75 270.677 -4457.13
v -7558.75 270.677 -4457.33
v -7558.75 270.677 -4457.33
v -7558.75 270.801 -4457.33
v -7558.75 270.677 -4457.13
v -7558.75 270.801 -4457.13
v -7558.55 270.677 -4457.13
v -7558.55 270.801 -4457.13
v -7558.55 270.677 -4457.33
v -7558.55 270.801 -4457.33
v -7558.85 270.805 -4457.43
v -7558.75 270.801 -4457.33
v -7558.45 270.805 -4457.43
v -7558.55 270.801 -4457.33
v -7558.85 270.805 -4457.03
v -7558.75 270.801 -4457.13
v -7558.85 270.805 -4457.43
v -7558.75 270.801 -4457.33
v -7558.45 270.805 -4457.03
v -7558.55 270.801 -4457.13
v -7558.85 270.805 -4457.03
v -7558.75 270.801 -4457.13
v -7558.45 270.805 -4457.43
v -7558.55 270.801 -4457.33
v -7558.45 270.805 -4457.03
v -7558.55 270.801 -4457.13
v -7558.45 270.805 -4457.43
v -7558.59 270.869 -4457.3
v -7558.85 270.805 -4457.43
v -7558.72 270.869 -4457.3
v -7558.85 270.805 -4457.43
v -7558.72 270.869 -4457.3
v -7558.85 270.805 -4457.03
v -7558.72 270.869 -4457.17
v -7558.85 270.805 -4457.03
v -7558.72 270.869 -4457.17
v -7558.45 270.805 -4457.03
v -7558.59 270.869 -4457.17
v -7558.45 270.805 -4457.03
v -7558.59 270.869 -4457.17
v -7558.45 270.805 -4457.43
v -7558.59 270.869 -4457.3
v -7558.59 270.869 -4457.3
v -7558.6 270.854 -4457.28
v -7558.72 270.869 -4457.3
v -7558.7 270.854 -4457.28
v -7558.72 270.869 -4457.3
v -7558.7 270.854 -4457.28
v -7558.72 270.869 -4457.17
v -7558.7 270.854 -4457.18
v -7558.72 270.869 -4457.17
v -7558.7 270.854 -4457.18
v -7558.59 270.869 -4457.17
v -7558.6 270.854 -4457.18
v -7558.59 270.869 -4457.17
v -7558.6 270.854 -4457.18
v -7558.59 270.869 -4457.3
v -7558.6 270.854 -4457.28
v -7591 276.802 -4425
v -7591 276.631 -4427
v -7591 276.853 -4429
v -7591 277.085 -4431
v -7591 277.324 -4433
v -7591 277.438 -4435
v -7591 277.487 -4437
v -7591 277.642 -4439
v -7591 277.649 -4441
v -7591 277.622 -4443
v -7591 277.707 -4445
v -7591 277.773 -4447
v -7591 278.423 -4449
v -7591 279.382 -4451
v -7591 280.455 -4453
v -7591 281.579 -4455
v -7591 282.606 -4457
v -7591 283.696 -4459
v -7591 284.716 -4461
v -7591 285.571 -4463
v -7591 286.176 -4465
v -7591 286.708 -4467
v -7591 286.902 -4469
v -7591 286.788 -4471
v -7591 286.379 -4473
v -7591 285.644 -4475
v -7591 285.35 -4477
v -7591 284.761 -4479
v -7591 284.213 -4481
v -7591 283.448 -4483
v -7591 282.65 -4485
v -7591 281.784 -4487
v -7589 275.579 -4425
v -7589 275.794 -4427
v -7589 276.239 -4429
v -7589 276.599 -4431
v -7589 276.598 -4433
v -7589 276.639 -4435
v -7589 276.706 -4437
v -7589 276.828 -4439
v -7589 276.84 -4441
v -7589 276.916 -4443
v -7589 276.878 -4445
v -7589 277.029 -4447
v -7589 277.731 -4449
v -7589 278.46 -4451
v -7589 279.382 -4453
v -7589 280.442 -4455
v -7589 281.549 -4457
v -7589 282.51 -4459
v -7589 283.581 -4461
v -7589 284.425 -4463
v -7589 285.141 -4465
v -7589 285.65 -4467
v -7589 285.68 -4469
v -7589 285.569 -4471
v -7589 285.359 -4473
v -7589 285.201 -4475
v -7589 284.8 -4477
v -7589 284.294 -4479
v -7589 283.683 -4481
v -7589 282.918 -4483
v -7589 282.088 -4485
v -7589 281.297 -4487
v -7587 274.713 -4425
v -7587 275.131 -4427
v -7587 275.705 -4429
v -7587 276.016 -4431
v -7587 275.979 -4433
v -7587 275.833 -4435
v -7587 275.904 -4437
v -7587 275.978 -4439
v -7587 276.01 -4441
v -7587 276.12 -4443
v -7587 276.122 -4445
v -7587 276.601 -4447
v -7587 277.174 -4449
v -7587 277.835 -4451
v -7587 278.364 -4453
v -7587 279.279 -4455
v -7587 280.415 -4457
v -7587 281.483 -4459
v -7587 279.242 -4461
v -7587 281.846 -4463
v -7587 284.063 -4465
v -7587 284.651 -4467
v -7587 285.101 -4469
v -7587 285.217 -4471
v -7587 284.984 -4473
v -7587 284.716 -4475
v -7587 284.239 -4477
v -7587 283.774 -4479
v -7587 283.223 -4481
v -7587 282.496 -4483
v -7587 281.781 -4485
v -7587 277.392 -4487
v -7585 274.222 -4425
v -7585 274.783 -4427
v -7585 275.105 -4429
v -7585 275.298 -4431
v -7585 275.149 -4433
v -7585 275.144 -4435
v -7585 275.263 -4437
v -7585 275.286 -4439
v -7585 275.347 -4441
v -7585 275.369 -4443
v -7585 275.351 -4445
v -7585 275.982 -4447
v -7585 276.65 -4449
v -7585 277.343 -4451
v -7585 277.851 -4453
v -7585 278.329 -4455
v -7585 279.291 -4457
v -7585 280.354 -4459
v -7585 281.081 -4461
v -7585 282.128 -4463
v -7585 282.972 -4465
v -7585 283.195 -4467
v -7585 283.973 -4469
v -7585 284.204 -4471
v -7585 284.3 -4473
v -7585 284.145 -4475
v -7585 283.799 -4477
v -7585 283.309 -4479
v -7585 281.633 -4481
v -7585 279.436 -4483
v -7585 277.046 -4485
v -7585 276.317 -4487
v -7583 273.782 -4425
v -7583 274.221 -4427
v -7583 274.422 -4429
v -7583 274.431 -4431
v -7583 274.353 -4433
v -7583 274.435 -4435
v -7583 274.636 -4437
v -7583 274.631 -4439
v -7583 274.646 -4441
v -7583 274.651 -4443
v -7583 274.803 -4445
v -7583 275.492 -4447
v -7583 276.216 -4449
v -7583 276.821 -4451
v -7583 277.355 -4453
v -7583 277.758 -4455
v -7583 278.297 -4457
v -7583 279.309 -4459
v -7583 280.317 -4461
v -7583 281.132 -4463
v -7583 281.87 -4465
v -7583 281.257 -4467
v -7583 279.074 -4469
v -7583 283.018 -4471
v -7583 283.237 -4473
v -7583 282.294 -4475
v -7583 280.271 -4477
v -7583 279.208 -4479
v -7583 276.543 -4481
v -7583 277.108 -4483
v -7583 278.316 -4485
v -7583 277.77 -4487
v -7581 273.113 -4425
v -7581 273.43 -4427
v -7581 273.584 -4429
v -7581 273.585 -4431
v -7581 273.654 -4433
v -7581 273.859 -4435
v -7581 273.955 -4437
v -7581 273.934 -4439
v -7581 274.032 -4441
v -7581 274.066 -4443
v -7581 274.477 -4445
v -7581 275.138 -4447
v -7581 275.752 -4449
v -7581 276.36 -4451
v -7581 276.874 -4453
v -7581 277.322 -4455
v -7581 277.816 -4457
v -7581 278.372 -4459
v -7581 279.315 -4461
v -7581 280.156 -4463
v -7581 280.904 -4465
v -7581 280.915 -4467
v -7581 277.429 -4469
v -7581 278.698 -4471
v -7581 280.35 -4473
v -7581 278.314 -4475
v -7581 276.196 -4477
v -7581 276.018 -4479
v -7581 276.461 -4481
v -7581 278.271 -4483
v -7581 278.375 -4485
v -7581 277.26 -4487
v -7579 272.303 -4425
v -7579 272.565 -4427
v -7579 272.793 -4429
v -7579 272.921 -4431
v -7579 273.055 -4433
v -7579 273.218 -4435
v -7579 273.356 -4437
v -7579 273.396 -4439
v -7579 273.365 -4441
v -7579 273.475 -4443
v -7579 274.099 -4445
v -7579 274.821 -4447
v -7579 275.385 -4449
v -7579 276.037 -4451
v -7579 276.473 -4453
v -7579 276.896 -4455
v -7579 277.398 -4457
v -7579 277.695 -4459
v -7579 278.394 -4461
v -7579 279.245 -4463
v -7579 279.991 -4465
v -7579 280.01 -4467
v -7579 277.292 -4469
v -7579 277.967 -4471
v -7579 278.912 -4473
v -7579 277.057 -4475
v -7579 276.178 -4477
v -7579 276.312 -4479
v -7579 276.587 -4481
v -7579 278.332 -4483
v -7579 277.392 -4485
v -7579 276.268 -4487
v -7577 271.548 -4425
v -7577 271.869 -4427
v -7577 272.151 -4429
v -7577 272.384 -4431
v -7577 272.585 -4433
v -7577 272.661 -4435
v -7577 272.794 -4437
v -7577 272.831 -4439
v -7577 272.806 -4441
v -7577 273.17 -4443
v -7577 273.862 -4445
v -7577 274.552 -4447
v -7577 275.093 -4449
v -7577 275.747 -4451
v -7577 276.161 -4453
v -7577 276.631 -4455
v -7577 277.005 -4457
v -7577 277.383 -4459
v -7577 277.611 -4461
v -7577 278.409 -4463
v -7577 279.114 -4465
v -7577 278.046 -4467
v -7577 276.919 -4469
v -7577 277.546 -4471
v -7577 277.957 -4473
v -7577 276.357 -4475
v -7577 276.64 -4477
v -7577 276.93 -4479
v -7577 276.121 -4481
v -7577 277.384 -4483
v -7577 276.436 -4485
v -7577 275.374 -4487
v -7575 271.165 -4425
v -7575 271.527 -4427
v -7575 271.708 -4429
v -7575 271.929 -4431
v -7575 272.093 -4433
v -7575 272.257 -4435
v -7575 272.255 -4437
v -7575 272.29 -4439
v -7575 272.35 -4441
v -7575 272.964 -4443
v -7575 273.667 -4445
v -7575 274.265 -4447
v -7575 274.822 -4449
v -7575 275.388 -4451
v -7575 275.947 -4453
v -7575 276.323 -4455
v -7575 276.679 -4457
v -7575 277.061 -4459
v -7575 277.259 -4461
v -7575 277.077 -4463
v -7575 277.328 -4465
v -7575 276.942 -4467
v -7575 276.754 -4469
v -7575 276.753 -4471
v -7575 276.815 -4473
v -7575 276.039 -4475
v -7575 277.128 -4477
v -7575 277.363 -4479
v -7575 276.714 -4481
v -7575 275.667 -4483
v -7575 275.462 -4485
v -7575 274.354 -4487
v -7573 270.722 -4425
v -7573 271.037 -4427
v -7573 271.268 -4429
v -7573 271.477 -4431
v -7573 271.571 -4433
v -7573 271.667 -4435
v -7573 271.755 -4437
v -7573 271.905 -4439
v -7573 272.167 -4441
v -7573 272.777 -4443
v -7573 273.493 -4445
v -7573 274.051 -4447
v -7573 274.701 -4449
v -7573 275.141 -4451
v -7573 275.649 -4453
v -7573 276.123 -4455
v -7573 276.468 -4457
v -7573 276.738 -4459
v -7573 277.056 -4461
v -7573 276.821 -4463
v -7573 276.616 -4465
v -7573 276.565 -4467
v -7573 276.691 -4469
v -7573 276.475 -4471
v -7573 276.087 -4473
v -7573 275.813 -4475
v -7573 277.131 -4477
v -7573 277.286 -4479
v -7573 276.659 -4481
v -7573 275.682 -4483
v -7573 274.736 -4485
v -7573 273.488 -4487
v -7571 270.298 -4425
v -7571 270.632 -4427
v -7571 270.829 -4429
v -7571 271.039 -4431
v -7571 271.169 -4433
v -7571 271.241 -4435
v -7571 271.338 -4437
v -7571 271.425 -4439
v -7571 271.99 -4441
v -7571 272.611 -4443
v -7571 273.344 -4445
v -7571 273.855 -4447
v -7571 274.421 -4449
v -7571 274.901 -4451
v -7571 275.408 -4453
v -7571 275.856 -4455
v -7571 275.978 -4457
v -7571 276.263 -4459
v -7571 276.692 -4461
v -7571 276.585 -4463
v -7571 276.59 -4465
v -7571 276.54 -4467
v -7571 276.493 -4469
v -7571 276.191 -4471
v -7571 275.666 -4473
v -7571 275.643 -4475
v -7571 276.919 -4477
v -7571 276.604 -4479
v -7571 275.939 -4481
v -7571 275.015 -4483
v -7571 274.013 -4485
v -7571 272.756 -4487
v -7569 269.905 -4425
v -7569 270.17 -4427
v -7569 270.526 -4429
v -7569 270.662 -4431
v -7569 270.775 -4433
v -7569 270.881 -4435
v -7569 271.009 -4437
v -7569 271.112 -4439
v -7569 271.713 -4441
v -7569 272.399 -4443
v -7569 273.112 -4445
v -7569 273.588 -4447
v -7569 274.121 -4449
v -7569 274.633 -4451
v -7569 275.016 -4453
v -7569 275.509 -4455
v -7569 275.709 -4457
v -7569 275.509 -4459
v -7569 276.041 -4461
v -7569 276.15 -4463
v -7569 276.287 -4465
v -7569 276.424 -4467
v -7569 276.309 -4469
v -7569 276.042 -4471
v -7569 275.392 -4473
v -7569 275.21 -4475
v -7569 275.991 -4477
v -7569 276.031 -4479
v -7569 275.264 -4481
v -7569 274.317 -4483
v -7569 273.393 -4485
v -7569 272.293 -4487
v -7567 269.538 -4425
v -7567 269.841 -4427
v -7567 270.052 -4429
v -7567 270.216 -4431
v -7567 270.385 -4433
v -7567 270.527 -4435
v -7567 270.66 -4437
v -7567 270.96 -4439
v -7567 271.655 -4441
v -7567 272.22 -4443
v -7567 272.854 -4445
v -7567 273.372 -4447
v -7567 273.785 -4449
v -7567 274.356 -4451
v -7567 274.829 -4453
v -7567 275.139 -4455
v -7567 275.304 -4457
v -7567 275.138 -4459
v -7567 275.169 -4461
v -7567 275.518 -4463
v -7567 275.906 -4465
v -7567 276.129 -4467
v -7567 275.987 -4469
v -7567 275.615 -4471
v -7567 274.974 -4473
v -7567 274.686 -4475
v -7567 274.812 -4477
v -7567 275.6 -4479
v -7567 274.885 -4481
v -7567 273.94 -4483
v -7567 272.891 -4485
v -7567 271.815 -4487
v -7565 269.216 -4425
v -7565 269.425 -4427
v -7565 269.699 -4429
v -7565 269.923 -4431
v -7565 270.056 -4433
v -7565 270.175 -4435
v -7565 270.256 -4437
v -7565 270.814 -4439
v -7565 271.442 -4441
v -7565 271.979 -4443
v -7565 272.617 -4445
v -7565 273.054 -4447
v -7565 273.419 -4449
v -7565 273.862 -4451
v -7565 274.191 -4453
v -7565 274.507 -4455
v -7565 274.826 -4457
v -7565 274.714 -4459
v -7565 274.405 -4461
v -7565 274.713 -4463
v -7565 275.307 -4465
v -7565 275.614 -4467
v -7565 275.476 -4469
v -7565 275.254 -4471
v -7565 274.645 -4473
v -7565 274.137 -4475
v -7565 274.154 -4477
v -7565 273.899 -4479
v -7565 273.507 -4481
v -7565 272.795 -4483
v -7565 272.067 -4485
v -7565 271.327 -4487
v -7563 268.855 -4425
v -7563 269.162 -4427
v -7563 269.345 -4429
v -7563 269.59 -4431
v -7563 269.765 -4433
v -7563 269.749 -4435
v -7563 270.091 -4437
v -7563 270.659 -4439
v -7563 271.221 -4441
v -7563 271.761 -4443
v -7563 272.237 -4445
v -7563 272.376 -4447
v -7563 272.477 -4449
v -7563 272.87 -4451
v -7563 273.329 -4453
v -7563 273.843 -4455
v -7563 274.184 -4457
v -7563 274.154 -4459
v -7563 273.989 -4461
v -7563 273.959 -4463
v -7563 274.615 -4465
v -7563 274.902 -4467
v -7563 274.978 -4469
v -7563 274.808 -4471
v -7563 274.215 -4473
v -7563 273.463 -4475
v -7563 273.444 -4477
v -7563 273.263 -4479
v -7563 272.699 -4481
v -7563 272.043 -4483
v -7563 271.241 -4485
v -7563 270.561 -4487
v -7561 268.148 -4425
v -7561 268.686 -4427
v -7561 268.948 -4429
v -7561 269.153 -4431
v -7561 269.347 -4433
v -7561 269.488 -4435
v -7561 269.674 -4437
v -7561 270.361 -4439
v -7561 270.813 -4441
v -7561 271.147 -4443
v -7561 271.38 -4445
v -7561 271.764 -4447
v -7561 272.154 -4449
v -7561 272.383 -4451
v -7561 272.109 -4453
v -7561 272.864 -4455
v -7561 273.34 -4457
v -7561 273.565 -4459
v -7561 273.47 -4461
v -7561 273.639 -4463
v -7561 273.85 -4465
v -7561 274.3 -4467
v -7561 274.4 -4469
v -7561 274.151 -4471
v -7561 273.663 -4473
v -7561 273.194 -4475
v -7561 272.854 -4477
v -7561 272.547 -4479
v -7561 271.91 -4481
v -7561 271.442 -4483
v -7561 270.938 -4485
v -7561 270.199 -4487
v -7559 267.813 -4425
v -7559 268.316 -4427
v -7559 268.604 -4429
v -7559 268.781 -4431
v -7559 268.971 -4433
v -7559 269.144 -4435
v -7559 269.164 -4437
v -7559 269.564 -4439
v -7559 270.048 -4441
v -7559 270.313 -4443
v -7559 270.99 -4445
v -7559 271.491 -4447
v -7559 271.893 -4449
v -7559 272.092 -4451
v -7559 272.043 -4453
v -7559 272.103 -4455
v -7559 272.721 -4457
v -7559 272.958 -4459
v -7559 273.184 -4461
v -7559 273.278 -4463
v -7559 273.374 -4465
v -7559 273.641 -4467
v -7559 273.655 -4469
v -7559 273.54 -4471
v -7559 273.198 -4473
v -7559 272.874 -4475
v -7559 272.507 -4477
v -7559 272.083 -4479
v -7559 271.667 -4481
v -7559 271.183 -4483
v -7559 270.596 -4485
v -7559 269.804 -4487
v -7557 267.261 -4425
v -7557 267.937 -4427
v -7557 268.167 -4429
v -7557 268.333 -4431
v -7557 268.584 -4433
v -7557 268.668 -4435
v -7557 268.749 -4437
v -7557 268.699 -4439
v -7557 269.451 -4441
v -7557 270.086 -4443
v -7557 270.602 -4445
v -7557 271.03 -4447
v -7557 271.423 -4449
v -7557 271.71 -4451
v -7557 271.699 -4453
v -7557 271.872 -4455
v -7557 272.339 -4457
v -7557 272.59 -4459
v -7557 272.863 -4461
v -7557 272.968 -4463
v -7557 273.029 -4465
v -7557 273.141 -4467
v -7557 273.082 -4469
v -7557 272.973 -4471
v -7557 272.774 -4473
v -7557 272.472 -4475
v -7557 272.219 -4477
v -7557 271.717 -4479
v -7557 271.351 -4481
v -7557 270.913 -4483
v -7557 270.115 -4485
v -7557 269.224 -4487
v -7555 266.171 -4425
v -7555 267.064 -4427
v -7555 267.69 -4429
v -7555 267.888 -4431
v -7555 267.938 -4433
v -7555 267.989 -4435
v -7555 268.012 -4437
v -7555 267.966 -4439
v -7555 269.165 -4441
v -7555 269.736 -4443
v -7555 270.154 -4445
v -7555 270.606 -4447
v -7555 270.826 -4449
v -7555 271.027 -4451
v -7555 271.125 -4453
v -7555 271.555 -4455
v -7555 271.974 -4457
v -7555 272.151 -4459
v -7555 272.387 -4461
v -7555 272.523 -4463
v -7555 272.665 -4465
v -7555 272.72 -4467
v -7555 272.66 -4469
v -7555 272.625 -4471
v -7555 272.485 -4473
v -7555 272.105 -4475
v -7555 271.825 -4477
v -7555 271.509 -4479
v -7555 270.883 -4481
v -7555 270.343 -4483
v -7555 269.657 -4485
v -7555 268.758 -4487
v -7553 262.427 -4425
v -7553 265.279 -4427
v -7553 266.554 -4429
v -7553 266.873 -4431
v -7553 266.945 -4433
v -7553 266.92 -4435
v -7553 266.02 -4437
v -7553 266.316 -4439
v -7553 267.623 -4441
v -7553 269.065 -4443
v -7553 269.513 -4445
v -7553 269.829 -4447
v -7553 269.212 -4449
v -7553 269.944 -4451
v -7553 270.763 -4453
v -7553 271.157 -4455
v -7553 271.434 -4457
v -7553 271.723 -4459
v -7553 271.956 -4461
v -7553 272.018 -4463
v -7553 272.167 -4465
v -7553 272.238 -4467
v -7553 272.188 -4469
v -7553 272.098 -4471
v -7553 271.969 -4473
v -7553 271.759 -4475
v -7553 271.468 -4477
v -7553 271.121 -4479
v -7553 270.547 -4481
v -7553 269.856 -4483
v -7553 269.026 -4485
v -7553 268.179 -4487
v -7551 260.287 -4425
v -7551 260.668 -4427
v -7551 262.741 -4429
v -7551 263.921 -4431
v -7551 263.862 -4433
v -7551 263.163 -4435
v -7551 262.886 -4437
v -7551 263.708 -4439
v -7551 264.375 -4441
v -7551 265.92 -4443
v -7551 266.606 -4445
v -7551 267.362 -4447
v -7551 268.486 -4449
v -7551 269.85 -4451
v -7551 270.261 -4453
v -7551 270.605 -4455
v -7551 270.932 -4457
v -7551 271.168 -4459
v -7551 271.452 -4461
v -7551 271.549 -4463
v -7551 271.644 -4465
v -7551 271.723 -4467
v -7551 271.744 -4469
v -7551 271.664 -4471
v -7551 271.485 -4473
v -7551 271.29 -4475
v -7551 271.02 -4477
v -7551 270.572 -4479
v -7551 269.975 -4481
v -7551 269.358 -4483
v -7551 268.601 -4485
v -7551 267.704 -4487
v -7549 259.929 -4425
v -7549 260.314 -4427
v -7549 260.683 -4429
v -7549 261.065 -4431
v -7549 261.447 -4433
v -7549 262.103 -4435
v -7549 262.669 -4437
v -7549 263.43 -4439
v -7549 264.284 -4441
v -7549 265.067 -4443
v -7549 265.939 -4445
v -7549 267.029 -4447
v -7549 268.233 -4449
v -7549 269.336 -4451
v -7549 269.712 -4453
v -7549 270.02 -4455
v -7549 270.388 -4457
v -7549 270.671 -4459
v -7549 270.797 -4461
v -7549 270.903 -4463
v -7549 271.095 -4465
v -7549 271.289 -4467
v -7549 271.264 -4469
v -7549 271.19 -4471
v -7549 270.942 -4473
v -7549 270.636 -4475
v -7549 270.282 -4477
v -7549 270.067 -4479
v -7549 269.496 -4481
v -7549 268.877 -4483
v -7549 268.086 -4485
v -7549 267.281 -4487
v -7547 262.388 -4425
v -7547 259.987 -4427
v -7547 260.372 -4429
v -7547 260.765 -4431
v -7547 261.087 -4433
v -7547 261.699 -4435
v -7547 262.424 -4437
v -7547 263.02 -4439
v -7547 263.84 -4441
v -7547 264.753 -4443
v -7547 265.68 -4445
v -7547 266.765 -4447
v -7547 267.906 -4449
v -7547 268.766 -4451
v -7547 269.096 -4453
v -7547 269.413 -4455
v -7547 269.743 -4457
v -7547 269.959 -4459
v -7547 270.172 -4461
v -7547 270.404 -4463
v -7547 270.61 -4465
v -7547 270.712 -4467
v -7547 270.563 -4469
v -7547 270.526 -4471
v -7547 270.293 -4473
v -7547 270.116 -4475
v -7547 269.701 -4477
v -7547 269.326 -4479
v -7547 268.888 -4481
v -7547 268.279 -4483
v -7547 267.559 -4485
v -7547 266.804 -4487
v -7545 263.689 -4425
v -7545 262.371 -4427
v -7545 260.283 -4429
v -7545 260.4 -4431
v -7545 260.8 -4433
v -7545 261.252 -4435
v -7545 261.959 -4437
v -7545 262.621 -4439
v -7545 263.357 -4441
v -7545 264.306 -4443
v -7545 264.67 -4445
v -7545 266.289 -4447
v -7545 267.543 -4449
v -7545 268.045 -4451
v -7545 268.396 -4453
v -7545 268.77 -4455
v -7545 269.086 -4457
v -7545 269.389 -4459
v -7545 269.532 -4461
v -7545 269.777 -4463
v -7545 269.905 -4465
v -7545 270.002 -4467
v -7545 269.895 -4469
v -7545 269.783 -4471
v -7545 269.56 -4473
v -7545 269.294 -4475
v -7545 269.014 -4477
v -7545 268.643 -4479
v -7545 268.262 -4481
v -7545 267.766 -4483
v -7545 267.05 -4485
v -7545 266.275 -4487
v -7543 263.253 -4425
v -7543 262.686 -4427
v -7543 261.001 -4429
v -7543 259.971 -4431
v -7543 260.362 -4433
v -7543 260.876 -4435
v -7543 261.419 -4437
v -7543 262.026 -4439
v -7543 262.774 -4441
v -7543 263.721 -4443
v -7543 263.803 -4445
v -7543 265.697 -4447
v -7543 266.951 -4449
v -7543 267.416 -4451
v -7543 267.787 -4453
v -7543 268.203 -4455
v -7543 268.464 -4457
v -7543 268.7 -4459
v -7543 268.953 -4461
v -7543 269.199 -4463
v -7543 269.301 -4465
v -7543 269.298 -4467
v -7543 269.223 -4469
v -7543 269.106 -4471
v -7543 269.025 -4473
v -7543 268.755 -4475
v -7543 268.492 -4477
v -7543 267.994 -4479
v -7543 267.563 -4481
v -7543 267.08 -4483
v -7543 266.458 -4485
v -7543 265.671 -4487
v -7541 261.436 -4425
v -7541 261.29 -4427
v -7541 259.727 -4429
v -7541 259.602 -4431
v -7541 260.021 -4433
v -7541 260.374 -4435
v -7541 260.788 -4437
v -7541 261.462 -4439
v -7541 262.176 -4441
v -7541 263.049 -4443
v -7541 263.477 -4445
v -7541 265.034 -4447
v -7541 266.178 -4449
v -7541 266.799 -4451
v -7541 267.097 -4453
v -7541 267.422 -4455
v -7541 267.678 -4457
v -7541 267.977 -4459
v -7541 268.178 -4461
v -7541 268.372 -4463
v -7541 268.504 -4465
v -7541 268.554 -4467
v -7541 268.606 -4469
v -7541 268.498 -4471
v -7541 268.308 -4473
v -7541 268.039 -4475
v -7541 267.761 -4477
v -7541 267.416 -4479
v -7541 266.972 -4481
v -7541 266.499 -4483
v -7541 265.837 -4485
v -7541 265.109 -4487
v -7539 258.312 -4425
v -7539 258.721 -4427
v -7539 258.748 -4429
v -7539 259.266 -4431
v -7539 259.606 -4433
v -7539 259.924 -4435
v -7539 260.248 -4437
v -7539 260.748 -4439
v -7539 261.461 -4441
v -7539 262.211 -4443
v -7539 263.206 -4445
v -7539 264.304 -4447
v -7539 265.516 -4449
v -7539 266 -4451
v -7539 266.393 -4453
v -7539 266.67 -4455
v -7539 267.035 -4457
v -7539 267.207 -4459
v -7539 267.466 -4461
v -7539 267.623 -4463
v -7539 267.758 -4465
v -7539 267.843 -4467
v -7539 267.912 -4469
v -7539 267.868 -4471
v -7539 267.61 -4473
v -7539 267.432 -4475
v -7539 267.065 -4477
v -7539 266.83 -4479
v -7539 266.352 -4481
v -7539 265.894 -4483
v -7539 265.209 -4485
v -7539 264.387 -4487
v -7537 257.326 -4425
v -7537 257.863 -4427
v -7537 258.229 -4429
v -7537 258.648 -4431
v -7537 259.023 -4433
v -7537 259.518 -4435
v -7537 259.873 -4437
v -7537 260.299 -4439
v -7537 260.777 -4441
v -7537 261.38 -4443
v -7537 262.353 -4445
v -7537 263.404 -4447
v -7537 264.604 -4449
v -7537 265.198 -4451
v -7537 265.652 -4453
v -7537 265.892 -4455
v -7537 266.272 -4457
v -7537 266.427 -4459
v -7537 266.685 -4461
v -7537 266.952 -4463
v -7537 267.16 -4465
v -7537 267.138 -4467
v -7537 267.207 -4469
v -7537 267.107 -4471
v -7537 266.947 -4473
v -7537 266.794 -4475
v -7537 266.542 -4477
v -7537 266.131 -4479
v -7537 265.979 -4481
v -7537 265.362 -4483
v -7537 264.556 -4485
v -7537 263.765 -4487
v -7535 257.156 -4425
v -7535 257.358 -4427
v -7535 257.787 -4429
v -7535 258.102 -4431
v -7535 258.559 -4433
v -7535 258.901 -4435
v -7535 258.514 -4437
v -7535 259.739 -4439
v -7535 260.228 -4441
v -7535 260.791 -4443
v -7535 261.378 -4445
v -7535 262.405 -4447
v -7535 263.702 -4449
v -7535 264.5 -4451
v -7535 264.793 -4453
v -7535 265.081 -4455
v -7535 265.496 -4457
v -7535 265.673 -4459
v -7535 265.863 -4461
v -7535 266.17 -4463
v -7535 266.274 -4465
v -7535 266.382 -4467
v -7535 266.525 -4469
v -7535 266.351 -4471
v -7535 266.258 -4473
v -7535 265.952 -4475
v -7535 265.792 -4477
v -7535 265.444 -4479
v -7535 265.442 -4481
v -7535 265.07 -4483
v -7535 263.867 -4485
v -7535 263.107 -4487
v -7533 257.435 -4425
v -7533 256.81 -4427
v -7533 257.218 -4429
v -7533 257.68 -4431
v -7533 257.967 -4433
v -7533 258.204 -4435
v -7533 258.786 -4437
v -7533 259.243 -4439
v -7533 259.705 -4441
v -7533 259.48 -4443
v -7533 258.198 -4445
v -7533 258.761 -4447
v -7533 261.728 -4449
v -7533 263.694 -4451
v -7533 263.942 -4453
v -7533 264.266 -4455
v -7533 264.538 -4457
v -7533 264.855 -4459
v -7533 265.141 -4461
v -7533 265.266 -4463
v -7533 265.51 -4465
v -7533 265.666 -4467
v -7533 265.716 -4469
v -7533 265.574 -4471
v -7533 265.431 -4473
v -7533 265.366 -4475
v -7533 265.033 -4477
v -7533 264.738 -4479
v -7533 264.295 -4481
v -7533 263.877 -4483
v -7533 263.131 -4485
v -7533 262.41 -4487
v -7531 256.489 -4425
v -7531 256.137 -4427
v -7531 256.634 -4429
v -7531 257.092 -4431
v -7531 257.39 -4433
v -7531 257.769 -4435
v -7531 258.158 -4437
v -7531 258.627 -4439
v -7531 257.147 -4441
v -7531 255.728 -4443
v -7531 256.612 -4445
v -7531 256.796 -4447
v -7531 257.353 -4449
v -7531 262.756 -4451
v -7531 263.18 -4453
v -7531 263.476 -4455
v -7531 263.751 -4457
v -7531 263.96 -4459
v -7531 264.255 -4461
v -7531 264.387 -4463
v -7531 264.65 -4465
v -7531 264.76 -4467
v -7531 264.758 -4469
v -7531 264.75 -4471
v -7531 264.671 -4473
v -7531 264.553 -4475
v -7531 264.203 -4477
v -7531 263.974 -4479
v -7531 263.545 -4481
v -7531 263.014 -4483
v -7531 262.335 -4485
v -7531 261.589 -4487
v -7529 255.115 -4425
v -7529 255.681 -4427
v -7529 256.079 -4429
v -7529 256.449 -4431
v -7529 256.771 -4433
v -7529 257.202 -4435
v -7529 257.62 -4437
v -7529 256.635 -4439
v -7529 256.867 -4441
v -7529 258.979 -4443
v -7529 259.535 -4445
v -7529 258.636 -4447
v -7529 257.706 -4449
v -7529 258.817 -4451
v -7529 262.172 -4453
v -7529 262.496 -4455
v -7529 262.891 -4457
v -7529 263.081 -4459
v -7529 263.323 -4461
v -7529 263.472 -4463
v -7529 263.699 -4465
v -7529 263.888 -4467
v -7529 263.813 -4469
v -7529 263.892 -4471
v -7529 263.747 -4473
v -7529 263.636 -4475
v -7529 263.427 -4477
v -7529 263.059 -4479
v -7529 262.718 -4481
v -7529 262.203 -4483
v -7529 261.59 -4485
v -7529 260.851 -4487
f 112 111 109
f 112 114 111
f 114 113 111
f 86 88 87
f 85 86 87
f 84 86 85
f 131 112 110
f 131 132 112
f 132 114 112
f 110 112 109
f 130 131 110
f 83 84 85
f 114 116 113
f 116 115 113
f 110 109 107
f 88 90 89
f 87 88 89
f 80 84 83
f 132 133 114
f 133 116 114
f 105 110 107
f 130 110 105
f 128 130 105
f 79 80 83
f 116 120 115
f 160 159 158
f 161 160 158
f 146 145 144
f 147 146 144
f 162 161 158
f 148 146 147
f 163 162 158
f 149 148 147
f 108 106 107
f 107 106 105
f 164 163 158
f 165 164 158
f 140 139 138
f 141 140 138
f 81 80 79
f 81 82 80
f 143 142 141
f 142 140 141
f 94 89 90
f 42 44 43
f 41 42 43
f 38 42 41
f 133 118 116
f 118 120 116
f 106 128 105
f 135 118 133
f 89 94 93
f 106 129 128
f 39 38 37
f 37 38 41
f 67 65 69
f 65 64 69
f 69 64 70
f 37 41 51
f 41 43 52
f 51 41 52
f 59 49 51
f 58 59 51
f 64 65 58
f 155 154 150
f 156 155 150
f 154 153 150
f 157 156 150
f 153 152 150
f 152 151 150
f 64 58 57
f 63 64 57
f 64 63 70
f 49 37 51
f 58 51 52
f 68 66 67
f 40 39 37
f 40 37 49
f 66 65 67
f 65 59 58
f 57 58 52
f 50 40 49
f 60 50 49
f 59 60 49
f 65 66 59
f 66 60 59
f 44 46 45
f 43 44 45
f 70 63 71
f 43 45 53
f 52 43 53
f 63 57 55
f 61 63 55
f 63 61 71
f 57 52 53
f 55 57 53
f 45 46 47
f 46 48 47
f 71 61 72
f 45 47 54
f 53 45 54
f 61 62 72
f 62 61 56
f 61 55 56
f 55 53 54
f 56 55 54
f 26 25 19
f 20 26 19
f 20 19 18
f 25 26 36
f 17 20 18
f 9 17 18
f 11 9 18
f 26 35 36
f 12 10 11
f 10 9 11
f 129 106 127
f 77 82 81
f 127 106 104
f 106 108 104
f 104 108 103
f 82 77 78
f 93 94 92
f 120 118 119
f 119 118 117
f 118 134 117
f 118 135 134
f 93 92 91
f 21 20 17
f 21 27 20
f 27 26 20
f 16 21 17
f 9 7 17
f 7 16 17
f 26 27 35
f 27 34 35
f 10 8 9
f 8 7 9
f 14 24 13
f 24 23 13
f 24 30 23
f 2 14 13
f 30 29 23
f 29 30 31
f 30 32 31
f 22 21 16
f 22 28 21
f 28 27 21
f 1 2 13
f 3 2 1
f 15 22 16
f 7 5 16
f 5 15 16
f 27 28 34
f 174 172 173
f 175 174 173
f 176 174 175
f 172 171 170
f 173 172 170
f 177 176 175
f 178 176 177
f 4 3 1
f 28 33 34
f 8 6 7
f 6 5 7
f 168 167 166
f 179 178 177
f 169 168 166
f 13 23 15
f 23 22 15
f 23 29 22
f 1 13 15
f 29 28 22
f 29 31 33
f 28 29 33
f 5 1 15
f 4 1 5
f 6 4 5
f 134 136 122
f 117 134 122
f 91 92 95
f 119 117 121
f 117 122 121
f 125 127 100
f 127 104 100
f 74 78 77
f 73 74 77
f 104 103 99
f 100 104 99
f 92 96 95
f 126 125 100
f 75 74 73
f 76 75 73
f 136 137 122
f 98 95 97
f 95 96 97
f 101 100 99
f 101 126 100
f 122 124 121
f 137 124 122
f 102 101 99
f 124 123 121
f 267 266 262
f 261 260 257
f 258 261 257
f 266 265 262
f 264 263 262
f 265 264 262
f 260 259 257
f 259 256 257
f 258 257 252
f 250 258 252
f 266 270 265
f 208 210 204
f 209 208 204
f 212 216 211
f 216 215 211
f 213 212 211
f 214 213 211
f 270 269 265
f 268 264 265
f 269 268 265
f 257 256 252
f 210 207 204
f 256 255 252
f 204 207 200
f 205 209 204
f 205 204 200
f 217 219 212
f 219 216 212
f 218 217 212
f 213 218 212
f 207 199 200
f 206 205 200
f 252 251 250
f 254 250 251
f 249 250 254
f 270 273 269
f 273 272 269
f 271 268 269
f 272 271 269
f 252 253 251
f 252 278 253
f 255 278 252
f 278 255 277
f 201 200 199
f 202 200 201
f 227 200 202
f 227 206 200
f 218 221 217
f 221 220 217
f 220 222 217
f 222 219 217
f 199 198 203
f 199 203 201
f 287 286 284
f 287 284 253
f 206 227 226
f 291 290 289
f 290 288 289
f 289 288 284
f 285 289 284
f 292 253 290
f 284 288 253
f 253 288 290
f 285 284 282
f 284 283 282
f 286 283 284
f 292 290 293
f 254 292 293
f 293 290 291
f 294 293 291
f 254 281 249
f 254 293 295
f 230 203 198
f 294 297 293
f 297 296 293
f 293 296 295
f 221 224 220
f 224 223 220
f 223 225 220
f 225 222 220
f 198 194 197
f 230 198 197
f 295 296 298
f 298 296 297
f 273 276 272
f 274 271 272
f 249 281 248
f 245 249 248
f 300 298 297
f 299 295 298
f 276 275 272
f 275 274 272
f 300 302 298
f 302 301 298
f 299 298 303
f 298 301 303
f 197 194 196
f 245 248 247
f 229 193 228
f 311 310 307
f 308 311 307
f 307 310 312
f 303 301 306
f 301 304 306
f 302 305 301
f 305 304 301
f 196 192 195
f 194 192 196
f 309 307 312
f 243 280 279
f 307 304 305
f 244 245 247
f 306 304 307
f 244 247 246
f 309 306 307
f 308 307 305
f 229 192 193
f 229 195 192
f 188 193 187
f 193 192 187
f 224 180 223
f 246 280 244
f 244 280 243
f 184 225 223
f 194 191 187
f 192 194 187
f 180 181 223
f 181 184 223
f 243 239 240
f 244 243 240
f 231 274 275
f 236 234 275
f 276 236 275
f 234 231 275
f 245 244 240
f 241 245 240
f 188 187 186
f 189 188 186
f 183 182 180
f 182 181 180
f 191 190 186
f 187 191 186
f 185 184 181
f 182 185 181
f 239 238 237
f 240 239 237
f 233 232 231
f 234 233 231
f 235 233 234
f 236 235 234
f 241 240 237
f 242 241 237
f 385 372 386
f 371 372 385
f 384 371 385
f 326 325 327
f 328 326 327
f 328 327 329
f 372 373 386
f 372 353 373
f 351 353 372
f 371 351 372
f 330 328 329
f 386 373 387
f 370 371 384
f 383 370 384
f 330 329 331
f 324 323 325
f 326 324 325
f 373 374 387
f 373 355 374
f 353 355 373
f 349 351 371
f 370 349 371
f 332 330 331
f 353 354 355
f 352 354 353
f 351 352 353
f 355 357 374
f 355 356 357
f 354 356 355
f 350 352 351
f 349 350 351
f 387 374 388
f 369 370 383
f 382 369 383
f 332 331 333
f 322 321 323
f 324 322 323
f 374 357 375
f 374 375 388
f 347 349 370
f 369 347 370
f 334 332 333
f 357 359 375
f 357 358 359
f 356 358 357
f 348 350 349
f 347 348 349
f 400 392 401
f 399 395 400
f 401 392 402
f 398 395 399
f 402 392 403
f 397 395 398
f 358 360 359
f 393 392 391
f 404 392 405
f 403 392 404
f 396 395 397
f 394 395 396
f 391 395 394
f 346 348 347
f 345 346 347
f 345 347 369
f 368 345 369
f 363 362 361
f 364 363 361
f 364 361 376
f 377 364 376
f 377 376 389
f 390 377 389
f 368 369 382
f 320 319 321
f 322 320 321
f 381 368 382
f 337 336 335
f 338 337 335
f 344 346 345
f 362 341 342
f 361 362 342
f 343 344 345
f 340 344 343
f 341 340 339
f 342 341 339
f 339 340 343
f 343 345 368
f 361 342 366
f 376 361 366
f 338 335 314
f 315 338 314
f 320 318 319
f 367 343 368
f 376 366 379
f 389 376 379
f 367 368 381
f 318 317 319
f 380 367 381
f 342 339 365
f 366 342 365
f 339 343 367
f 365 339 367
f 315 314 313
f 316 315 313
f 318 316 317
f 366 365 378
f 379 366 378
f 365 367 380
f 316 313 317
f 378 365 380
f 433 429 425
f 431 433 425
f 441 440 435
f 430 428 429
f 428 425 429
f 436 435 434
f 440 434 435
f 431 425 426
f 432 431 426
f 440 442 434
f 427 426 425
f 428 427 425
f 437 436 434
f 437 434 438
f 442 438 434
f 414 410 406
f 412 414 406
f 450 449 444
f 415 428 430
f 415 436 437
f 411 409 410
f 409 406 410
f 439 437 438
f 445 444 443
f 449 443 444
f 415 427 428
f 415 437 439
f 415 409 411
f 446 445 443
f 415 445 446
f 413 412 407
f 412 406 407
f 408 407 406
f 409 408 406
f 415 408 409
f 415 454 455
f 415 455 457
f 415 418 419
f 415 419 421
f 415 446 448
f 448 446 447
f 446 443 447
f 451 447 443
f 449 451 443
f 421 419 420
f 454 453 452
f 455 454 452
f 419 418 416
f 419 416 420
f 457 455 456
f 455 452 456
f 424 420 416
f 458 452 453
f 459 458 453
f 418 417 416
f 422 424 416
f 422 416 417
f 460 456 452
f 458 460 452
f 423 422 417
f 461 462 463
f 463 462 464
f 465 466 467
f 467 466 468
f 469 470 471
f 471 470 472
f 473 474 475
f 475 474 476
f 477 478 479
f 479 478 480
f 481 482 483
f 483 482 484
f 485 486 487
f 487 486 488
f 489 490 491
f 491 490 492
f 493 494 495
f 495 494 496
f 497 498 499
f 499 498 500
f 501 502 503
f 503 502 504
f 505 506 507
f 507 506 508
f 509 510 511
f 511 510 512
f 513 514 515
f 515 514 516
f 517 518 519
f 519 518 520
f 521 522 523
f 523 522 524
f 525 526 527
f 527 526 528
f 529 530 531
f 531 530 532
f 533 534 535
f 535 534 536
f 537 538 539
f 539 538 540
f 541 542 543
f 543 542 544
f 545 546 547
f 547 546 548
f 549 550 551
f 551 550 552
f 553 554 555
f 555 554 556
f 557 558 559
f 559 558 560
f 561 562 563
f 563 562 564
f 590 589 586
f 591 590 586
f 566 596 597
f 597 596 583
f 565 566 597
f 589 588 586
f 596 580 583
f 584 583 580
f 566 571 596
f 571 574 596
f 596 574 580
f 592 591 586
f 568 567 565
f 567 566 565
f 572 571 566
f 567 572 566
f 574 577 580
f 581 580 577
f 581 584 580
f 572 575 571
f 575 574 571
f 575 578 574
f 578 577 574
f 578 581 577
f 573 572 567
f 573 576 572
f 576 575 572
f 569 567 568
f 570 569 568
f 585 584 581
f 582 585 581
f 582 581 578
f 576 579 575
f 588 587 586
f 593 592 586
f 579 578 575
f 579 582 578
f 569 573 567
f 582 579 595
f 579 576 595
f 576 573 569
f 595 576 569
f 585 582 594
f 582 595 594
f 594 595 569
f 598 569 570
f 705 703 704
f 706 705 704
f 704 703 702
f 717 718 720
f 720 718 721
f 721 718 722
f 706 708 705
f 703 701 702
f 719 718 717
f 702 701 699
f 722 718 719
f 701 700 699
f 710 709 708
f 709 707 708
f 708 707 705
f 705 714 703
f 705 707 714
f 703 713 701
f 714 713 703
f 744 743 733
f 735 744 733
f 757 754 756
f 757 758 754
f 737 745 744
f 735 737 744
f 743 742 731
f 733 743 731
f 756 754 755
f 713 712 701
f 701 712 700
f 731 742 730
f 755 754 753
f 742 741 730
f 753 754 758
f 709 716 707
f 712 711 700
f 716 715 707
f 707 715 714
f 733 731 732
f 734 733 732
f 735 733 734
f 736 735 734
f 736 738 735
f 738 737 735
f 679 678 665
f 694 693 692
f 692 693 698
f 684 683 674
f 676 684 674
f 680 679 666
f 695 693 694
f 731 730 729
f 732 731 729
f 666 679 665
f 739 746 737
f 698 693 697
f 746 745 737
f 697 693 696
f 695 696 693
f 727 724 726
f 726 724 725
f 748 752 751
f 750 748 751
f 727 728 724
f 747 748 750
f 668 680 666
f 670 681 680
f 668 670 680
f 674 683 672
f 683 682 672
f 682 681 670
f 672 682 670
f 725 724 723
f 739 737 738
f 740 739 738
f 620 618 621
f 621 618 622
f 606 605 604
f 608 607 606
f 607 605 606
f 749 748 747
f 723 724 728
f 752 748 749
f 605 603 604
f 602 604 603
f 617 618 620
f 650 651 653
f 653 651 654
f 634 633 632
f 635 633 634
f 636 635 634
f 636 638 637
f 635 636 637
f 654 651 655
f 622 618 619
f 610 609 608
f 609 607 608
f 601 602 603
f 619 618 617
f 602 601 599
f 601 600 599
f 633 631 632
f 652 651 650
f 632 631 629
f 656 651 652
f 655 651 656
f 640 639 638
f 639 637 638
f 631 630 629
f 642 641 640
f 668 666 667
f 667 666 664
f 666 665 664
f 677 676 675
f 676 674 675
f 641 639 640
f 669 668 667
f 668 669 670
f 635 646 633
f 635 637 646
f 646 645 633
f 633 645 631
f 674 672 673
f 672 670 671
f 669 671 670
f 675 674 673
f 673 672 671
f 645 644 631
f 631 644 630
f 644 643 630
f 641 649 639
f 609 616 607
f 607 615 605
f 616 615 607
f 649 648 639
f 639 648 637
f 637 647 646
f 648 647 637
f 605 614 603
f 615 614 605
f 601 603 612
f 603 613 612
f 614 613 603
f 612 611 600
f 601 612 600
f 661 658 660
f 660 658 659
f 661 662 658
f 659 658 657
f 687 686 685
f 691 686 687
f 663 658 662
f 657 658 663
f 685 686 688
f 688 686 689
f 689 686 690
f 690 686 691
f 627 624 626
f 625 626 624
f 628 624 627
f 623 624 628
f 625 624 623
f 813 812 811
f 814 812 813
f 809 808 807
f 810 808 809
f 801 800 799
f 797 796 795
f 796 797 798
f 793 792 791
f 785 784 783
f 784 785 786
f 761 760 759
f 762 760 761
f 792 793 794
f 781 780 779
f 782 780 781
f 773 772 771
f 774 772 773
f 769 768 767
f 770 768 769
f 829 828 827
f 830 828 829
f 825 824 823
f 826 824 825
f 817 816 815
f 802 800 801
f 818 816 817
f 765 764 763
f 766 764 765
f 821 820 819
f 822 820 821
f 805 804 803
f 806 804 805
f 789 788 787
f 788 789 790
f 777 776 775
f 778 776 777
f 864 832 831
f 831 863 864
f 896 864 863
f 863 895 896
f 928 896 895
f 895 927 928
f 960 928 927
f 927 959 960
f 992 960 959
f 959 991 992
f 1024 992 991
f 991 1023 1024
f 1056 1024 1023
f 1023 1055 1056
f 1088 1056 1055
f 1055 1087 1088
f 1120 1088 1087
f 1087 1119 1120
f 1152 1120 1119
f 1119 1151 1152
f 1184 1152 1151
f 1151 1183 1184
f 1216 1184 1183
f 1183 1215 1216
f 1248 1216 1215
f 1215 1247 1248
f 1280 1248 1247
f 1247 1279 1280
f 1312 1280 1279
f 1279 1311 1312
f 1344 1312 1311
f 1311 1343 1344
f 1376 1344 1343
f 1343 1375 1376
f 1408 1376 1375
f 1375 1407 1408
f 1440 1408 1407
f 1407 1439 1440
f 1472 1440 1439
f 1439 1471 1472
f 1504 1472 1471
f 1471 1503 1504
f 1536 1504 1503
f 1503 1535 1536
f 1568 1536 1535
f 1535 1567 1568
f 1600 1568 1567
f 1567 1599 1600
f 1632 1600 1599
f 1599 1631 1632
f 1664 1632 1631
f 1631 1663 1664
f 1696 1664 1663
f 1663 1695 1696
f 1728 1696 1695
f 1695 1727 1728
f 1760 1728 1727
f 1727 1759 1760
f 1792 1760 1759
f 1759 1791 1792
f 1824 1792 1791
f 1791 1823 1824
f 865 833 832
f 832 864 865
f 897 865 864
f 864 896 897
f 929 897 896
f 896 928 929
f 961 929 928
f 928 960 961
f 993 961 960
f 960 992 993
f 1025 993 992
f 992 1024 1025
f 1057 1025 1024
f 1024 1056 1057
f 1089 1057 1056
f 1056 1088 1089
f 1121 1089 1088
f 1088 1120 1121
f 1153 1121 1120
f 1120 1152 1153
f 1185 1153 1152
f 1152 1184 1185
f 1217 1185 1184
f 1184 1216 1217
f 1249 1217 1216
f 1216 1248 1249
f 1281 1249 1248
f 1248 1280 1281
f 1313 1281 1280
f 1280 1312 1313
f 1345 1313 1312
f 1312 1344 1345
f 1377 1345 1344
f 1344 1376 1377
f 1409 1377 1376
f 1376 1408 1409
f 1441 1409 1408
f 1408 1440 1441
f 1473 1441 1440
f 1440 1472 1473
f 1505 1473 1472
f 1472 1504 1505
f 1537 1505 1504
f 1504 1536 1537
f 1569 1537 1536
f 1536 1568 1569
f 1601 1569 1568
f 1568 1600 1601
f 1633 1601 1600
f 1600 1632 1633
f 1665 1633 1632
f 1632 1664 1665
f 1697 1665 1664
f 1664 1696 1697
f 1729 1697 1696
f 1696 1728 1729
f 1761 1729 1728
f 1728 1760 1761
f 1793 1761 1760
f 1760 1792 1793
f 1825 1793 1792
f 1792 1824 1825
f 866 834 833
f 833 865 866
f 898 866 865
f 865 897 898
f 930 898 897
f 897 929 930
f 962 930 929
f 929 961 962
f 994 962 961
f 961 993 994
f 1026 994 993
f 993 1025 1026
f 1058 1026 1025
f 1025 1057 1058
f 1090 1058 1057
f 1057 1089 1090
f 1122 1090 1089
f 1089 1121 1122
f 1154 1122 1121
f 1121 1153 1154
f 1186 1154 1153
f 1153 1185 1186
f 1218 1186 1185
f 1185 1217 1218
f 1250 1218 1217
f 1217 1249 1250
f 1282 1250 1249
f 1249 1281 1282
f 1314 1282 1281
f 1281 1313 1314
f 1346 1314 1313
f 1313 1345 1346
f 1378 1346 1345
f 1345 1377 1378
f 1410 1378 1377
f 1377 1409 1410
f 1442 1410 1409
f 1409 1441 1442
f 1474 1442 1441
f 1441 1473 1474
f 1506 1474 1473
f 1473 1505 1506
f 1538 1506 1505
f 1505 1537 1538
f 1570 1538 1537
f 1537 1569 1570
f 1602 1570 1569
f 1569 1601 1602
f 1634 1602 1601
f 1601 1633 1634
f 1666 1634 1633
f 1633 1665 1666
f 1698 1666 1665
f 1665 1697 1698
f 1730 1698 1697
f 1697 1729 1730
f 1762 1730 1729
f 1729 1761 1762
f 1794 1762 1761
f 1761 1793 1794
f 1826 1794 1793
f 1793 1825 1826
f 867 835 834
f 834 866 867
f 899 867 866
f 866 898 899
f 931 899 898
f 898 930 931
f 963 931 930
f 930 962 963
f 995 963 962
f 962 994 995
f 1027 995 994
f 994 1026 1027
f 1059 1027 1026
f 1026 1058 1059
f 1091 1059 1058
f 1058 1090 1091
f 1123 1091 1090
f 1090 1122 1123
f 1155 1123 1122
f 1122 1154 1155
f 1187 1155 1154
f 1154 1186 1187
f 1219 1187 1186
f 1186 1218 1219
f 1251 1219 1218
f 1218 1250 1251
f 1283 1251 1250
f 1250 1282 1283
f 1315 1283 1282
f 1282 1314 1315
f 1347 1315 1314
f 1314 1346 1347
f 1379 1347 1346
f 1346 1378 1379
f 1411 1379 1378
f 1378 1410 1411
f 1443 1411 1410
f 1410 1442 1443
f 1475 1443 1442
f 1442 1474 1475
f 1507 1475 1474
f 1474 1506 1507
f 1539 1507 1506
f 1506 1538 1539
f 1571 1539 1538
f 1538 1570 1571
f 1603 1571 1570
f 1570 1602 1603
f 1635 1603 1602
f 1602 1634 1635
f 1667 1635 1634
f 1634 1666 1667
f 1699 1667 1666
f 1666 1698 1699
f 1731 1699 1698
f 1698 1730 1731
f 1763 1731 1730
f 1730 1762 1763
f 1795 1763 1762
f 1762 1794 1795
f 1827 1795 1794
f 1794 1826 1827
f 868 836 835
f 835 867 868
f 900 868 867
f 867 899 900
f 932 900 899
f 899 931 932
f 964 932 931
f 931 963 964
f 996 964 963
f 963 995 996
f 1028 996 995
f 995 1027 1028
f 1060 1028 1027
f 1027 1059 1060
f 1092 1060 1059
f 1059 1091 1092
f 1124 1092 1091
f 1091 1123 1124
f 1156 1124 1123
f 1123 1155 1156
f 1188 1156 1155
f 1155 1187 1188
f 1220 1188 1187
f 1187 1219 1220
f 1252 1220 1219
f 1219 1251 1252
f 1284 1252 1251
f 1251 1283 1284
f 1316 1284 1283
f 1283 1315 1316
f 1348 1316 1315
f 1315 1347 1348
f 1380 1348 1347
f 1347 1379 1380
f 1412 1380 1379
f 1379 1411 1412
f 1444 1412 1411
f 1411 1443 1444
f 1476 1444 1443
f 1443 1475 1476
f 1508 1476 1475
f 1475 1507 1508
f 1540 1508 1507
f 1507 1539 1540
f 1572 1540 1539
f 1539 1571 1572
f 1604 1572 1571
f 1571 1603 1604
f 1636 1604 1603
f 1603 1635 1636
f 1668 1636 1635
f 1635 1667 1668
f 1700 1668 1667
f 1667 1699 1700
f 1732 1700 1699
f 1699 1731 1732
f 1764 1732 1731
f 1731 1763 1764
f 1796 1764 1763
f 1763 1795 1796
f 1828 1796 1795
f 1795 1827 1828
f 869 837 836
f 836 868 869
f 901 869 868
f 868 900 901
f 933 901 900
f 900 932 933
f 965 933 932
f 932 964 965
f 997 965 964
f 964 996 997
f 1029 997 996
f 996 1028 1029
f 1061 1029 1028
f 1028 1060 1061
f 1093 1061 1060
f 1060 1092 1093
f 1125 1093 1092
f 1092 1124 1125
f 1157 1125 1124
f 1124 1156 1157
f 1189 1157 1156
f 1156 1188 1189
f 1221 1189 1188
f 1188 1220 1221
f 1253 1221 1220
f 1220 1252 1253
f 1285 1253 1252
f 1252 1284 1285
f 1317 1285 1284
f 1284 1316 1317
f 1349 1317 1316
f 1316 1348 1349
f 1381 1349 1348
f 1348 1380 1381
f 1413 1381 1380
f 1380 1412 1413
f 1445 1413 1412
f 1412 1444 1445
f 1477 1445 1444
f 1444 1476 1477
f 1509 1477 1476
f 1476 1508 1509
f 1541 1509 1508
f 1508 1540 1541
f 1573 1541 1540
f 1540 1572 1573
f 1605 1573 1572
f 1572 1604 1605
f 1637 1605 1604
f 1604 1636 1637
f 1669 1637 1636
f 1636 1668 1669
f 1701 1669 1668
f 1668 1700 1701
f 1733 1701 1700
f 1700 1732 1733
f 1765 1733 1732
f 1732 1764 1765
f 1797 1765 1764
f 1764 1796 1797
f 1829 1797 1796
f 1796 1828 1829
f 870 838 837
f 837 869 870
f 902 870 869
f 869 901 902
f 934 902 901
f 901 933 934
f 966 934 933
f 933 965 966
f 998 966 965
f 965 997 998
f 1030 998 997
f 997 1029 1030
f 1062 1030 1029
f 1029 1061 1062
f 1094 1062 1061
f 1061 1093 1094
f 1126 1094 1093
f 1093 1125 1126
f 1158 1126 1125
f 1125 1157 1158
f 1190 1158 1157
f 1157 1189 1190
f 1222 1190 1189
f 1189 1221 1222
f 1254 1222 1221
f 1221 1253 1254
f 1286 1254 1253
f 1253 1285 1286
f 1318 1286 1285
f 1285 1317 1318
f 1350 1318 1317
f 1317 1349 1350
f 1382 1350 1349
f 1349 1381 1382
f 1414 1382 1381
f 1381 1413 1414
f 1446 1414 1413
f 1413 1445 1446
f 1478 1446 1445
f 1445 1477 1478
f 1510 1478 1477
f 1477 1509 1510
f 1542 1510 1509
f 1509 1541 1542
f 1574 1542 1541
f 1541 1573 1574
f 1606 1574 1573
f 1573 1605 1606
f 1638 1606 1605
f 1605 1637 1638
f 1670 1638 1637
f 1637 1669 1670
f 1702 1670 1669
f 1669 1701 1702
f 1734 1702 1701
f 1701 1733 1734
f 1766 1734 1733
f 1733 1765 1766
f 1798 1766 1765
f 1765 1797 1798
f 1830 1798 1797
f 1797 1829 1830
f 871 839 838
f 838 870 871
f 903 871 870
f 870 902 903
f 935 903 902
f 902 934 935
f 967 935 934
f 934 966 967
f 999 967 966
f 966 998 999
f 1031 999 998
f 998 1030 1031
f 1063 1031 1030
f 1030 1062 1063
f 1095 1063 1062
f 1062 1094 1095
f 1127 1095 1094
f 1094 1126 1127
f 1159 1127 1126
f 1126 1158 1159
f 1191 1159 1158
f 1158 1190 1191
f 1223 1191 1190
f 1190 1222 1223
f 1255 1223 1222
f 1222 1254 1255
f 1287 1255 1254
f 1254 1286 1287
f 1319 1287 1286
f 1286 1318 1319
f 1351 1319 1318
f 1318 1350 1351
f 1383 1351 1350
f 1350 1382 1383
f 1415 1383 1382
f 1382 1414 1415
f 1447 1415 1414
f 1414 1446 1447
f 1479 1447 1446
f 1446 1478 1479
f 1511 1479 1478
f 1478 1510 1511
f 1543 1511 1510
f 1510 1542 1543
f 1575 1543 1542
f 1542 1574 1575
f 1607 1575 1574
f 1574 1606 1607
f 1639 1607 1606
f 1606 1638 1639
f 1671 1639 1638
f 1638 1670 1671
f 1703 1671 1670
f 1670 1702 1703
f 1735 1703 1702
f 1702 1734 1735
f 1767 1735 1734
f 1734 1766 1767
f 1799 1767 1766
f 1766 1798 1799
f 1831 1799 1798
f 1798 1830 1831
f 872 840 839
f 839 871 872
f 904 872 871
f 871 903 904
f 936 904 903
f 903 935 936
f 968 936 935
f 935 967 968
f 1000 968 967
f 967 999 1000
f 1032 1000 999
f 999 1031 1032
f 1064 1032 1031
f 1031 1063 1064
f 1096 1064 1063
f 1063 1095 1096
f 1128 1096 1095
f 1095 1127 1128
f 1160 1128 1127
f 1127 1159 1160
f 1192 1160 1159
f 1159 1191 1192
f 1224 1192 1191
f 1191 1223 1224
f 1256 1224 1223
f 1223 1255 1256
f 1288 1256 1255
f 1255 1287 1288
f 1320 1288 1287
f 1287 1319 1320
f 1352 1320 1319
f 1319 1351 1352
f 1384 1352 1351
f 1351 1383 1384
f 1416 1384 1383
f 1383 1415 1416
f 1448 1416 1415
f 1415 1447 1448
f 1480 1448 1447
f 1447 1479 1480
f 1512 1480 1479
f 1479 1511 1512
f 1544 1512 1511
f 1511 1543 1544
f 1576 1544 1543
f 1543 1575 1576
f 1608 1576 1575
f 1575 1607 1608
f 1640 1608 1607
f 1607 1639 1640
f 1672 1640 1639
f 1639 1671 1672
f 1704 1672 1671
f 1671 1703 1704
f 1736 1704 1703
f 1703 1735 1736
f 1768 1736 1735
f 1735 1767 1768
f 1800 1768 1767
f 1767 1799 1800
f 1832 1800 1799
f 1799 1831 1832
f 873 841 840
f 840 872 873
f 905 873 872
f 872 904 905
f 937 905 904
f 904 936 937
f 969 937 936
f 936 968 969
f 1001 969 968
f 968 1000 1001
f 1033 1001 1000
f 1000 1032 1033
f 1065 1033 1032
f 1032 1064 1065
f 1097 1065 1064
f 1064 1096 1097
f 1129 1097 1096
f 1096 1128 1129
f 1161 1129 1128
f 1128 1160 1161
f 1193 1161 1160
f 1160 1192 1193
f 1225 1193 1192
f 1192 1224 1225
f 1257 1225 1224
f 1224 1256 1257
f 1289 1257 1256
f 1256 1288 1289
f 1321 1289 1288
f 1288 1320 1321
f 1353 1321 1320
f 1320 1352 1353
f 1385 1353 1352
f 1352 1384 1385
f 1417 1385 1384
f 1384 1416 1417
f 1449 1417 1416
f 1416 1448 1449
f 1481 1449 1448
f 1448 1480 1481
f 1513 1481 1480
f 1480 1512 1513
f 1545 1513 1512
f 1512 1544 1545
f 1577 1545 1544
f 1544 1576 1577
f 1609 1577 1576
f 1576 1608 1609
f 1641 1609 1608
f 1608 1640 1641
f 1673 1641 1640
f 1640 1672 1673
f 1705 1673 1672
f 1672 1704 1705
f 1737 1705 1704
f 1704 1736 1737
f 1769 1737 1736
f 1736 1768 1769
f 1801 1769 1768
f 1768 1800 1801
f 1833 1801 1800
f 1800 1832 1833
f 874 842 841
f 841 873 874
f 906 874 873
f 873 905 906
f 938 906 905
f 905 937 938
f 970 938 937
f 937 969 970
f 1002 970 969
f 969 1001 1002
f 1034 1002 1001
f 1001 1033 1034
f 1066 1034 1033
f 1033 1065 1066
f 1098 1066 1065
f 1065 1097 1098
f 1130 1098 1097
f 1097 1129 1130
f 1162 1130 1129
f 1129 1161 1162
f 1194 1162 1161
f 1161 1193 1194
f 1226 1194 1193
f 1193 1225 1226
f 1258 1226 1225
f 1225 1257 1258
f 1290 1258 1257
f 1257 1289 1290
f 1322 1290 1289
f 1289 1321 1322
f 1354 1322 1321
f 1321 1353 1354
f 1386 1354 1353
f 1353 1385 1386
f 1418 1386 1385
f 1385 1417 1418
f 1450 1418 1417
f 1417 1449 1450
f 1482 1450 1449
f 1449 1481 1482
f 1514 1482 1481
f 1481 1513 1514
f 1546 1514 1513
f 1513 1545 1546
f 1578 1546 1545
f 1545 1577 1578
f 1610 1578 1577
f 1577 1609 1610
f 1642 1610 1609
f 1609 1641 1642
f 1674 1642 1641
f 1641 1673 1674
f 1706 1674 1673
f 1673 1705 1706
f 1738 1706 1705
f 1705 1737 1738
f 1770 1738 1737
f 1737 1769 1770
f 1802 1770 1769
f 1769 1801 1802
f 1834 1802 1801
f 1801 1833 1834
f 875 843 842
f 842 874 875
f 907 875 874
f 874 906 907
f 939 907 906
f 906 938 939
f 971 939 938
f 938 970 971
f 1003 971 970
f 970 1002 1003
f 1035 1003 1002
f 1002 1034 1035
f 1067 1035 1034
f 1034 1066 1067
f 1099 1067 1066
f 1066 1098 1099
f 1131 1099 1098
f 1098 1130 1131
f 1163 1131 1130
f 1130 1162 1163
f 1195 1163 1162
f 1162 1194 1195
f 1227 1195 1194
f 1194 1226 1227
f 1259 1227 1226
f 1226 1258 1259
f 1291 1259 1258
f 1258 1290 1291
f 1323 1291 1290
f 1290 1322 1323
f 1355 1323 1322
f 1322 1354 1355
f 1387 1355 1354
f 1354 1386 1387
f 1419 1387 1386
f 1386 1418 1419
f 1451 1419 1418
f 1418 1450 1451
f 1483 1451 1450
f 1450 1482 1483
f 1515 1483 1482
f 1482 1514 1515
f 1547 1515 1514
f 1514 1546 1547
f 1579 1547 1546
f 1546 1578 1579
f 1611 1579 1578
f 1578 1610 1611
f 1643 1611 1610
f 1610 1642 1643
f 1675 1643 1642
f 1642 1674 1675
f 1707 1675 1674
f 1674 1706 1707
f 1739 1707 1706
f 1706 1738 1739
f 1771 1739 1738
f 1738 1770 1771
f 1803 1771 1770
f 1770 1802 1803
f 1835 1803 1802
f 1802 1834 1835
f 876 844 843
f 843 875 876
f 908 876 875
f 875 907 908
f 940 908 907
f 907 939 940
f 972 940 939
f 939 971 972
f 1004 972 971
f 971 1003 1004
f 1036 1004 1003
f 1003 1035 1036
f 1068 1036 1035
f 1035 1067 1068
f 1100 1068 1067
f 1067 1099 1100
f 1132 1100 1099
f 1099 1131 1132
f 1164 1132 1131
f 1131 1163 1164
f 1196 1164 1163
f 1163 1195 1196
f 1228 1196 1195
f 1195 1227 1228
f 1260 1228 1227
f 1227 1259 1260
f 1292 1260 1259
f 1259 1291 1292
f 1324 1292 1291
f 1291 1323 1324
f 1356 1324 1323
f 1323 1355 1356
f 1388 1356 1355
f 1355 1387 1388
f 1420 1388 1387
f 1387 1419 1420
f 1452 1420 1419
f 1419 1451 1452
f 1484 1452 1451
f 1451 1483 1484
f 1516 1484 1483
f 1483 1515 1516
f 1548 1516 1515
f 1515 1547 1548
f 1580 1548 1547
f 1547 1579 1580
f 1612 1580 1579
f 1579 1611 1612
f 1644 1612 1611
f 1611 1643 1644
f 1676 1644 1643
f 1643 1675 1676
f 1708 1676 1675
f 1675 1707 1708
f 1740 1708 1707
f 1707 1739 1740
f 1772 1740 1739
f 1739 1771 1772
f 1804 1772 1771
f 1771 1803 1804
f 1836 1804 1803
f 1803 1835 1836
f 877 845 844
f 844 876 877
f 909 877 876
f 876 908 909
f 941 909 908
f 908 940 941
f 973 941 940
f 940 972 973
f 1005 973 972
f 972 1004 1005
f 1037 1005 1004
f 1004 1036 1037
f 1069 1037 1036
f 1036 1068 1069
f 1101 1069 1068
f 1068 1100 1101
f 1133 1101 1100
f 1100 1132 1133
f 1165 1133 1132
f 1132 1164 1165
f 1197 1165 1164
f 1164 1196 1197
f 1229 1197 1196
f 1196 1228 1229
f 1261 1229 1228
f 1228 1260 1261
f 1293 1261 1260
f 1260 1292 1293
f 1325 1293 1292
f 1292 1324 1325
f 1357 1325 1324
f 1324 1356 1357
f 1389 1357 1356
f 1356 1388 1389
f 1421 1389 1388
f 1388 1420 1421
f 1453 1421 1420
f 1420 1452 1453
f 1485 1453 1452
f 1452 1484 1485
f 1517 1485 1484
f 1484 1516 1517
f 1549 1517 1516
f 1516 1548 1549
f 1581 1549 1548
f 1548 1580 1581
f 1613 1581 1580
f 1580 1612 1613
f 1645 1613 1612
f 1612 1644 1645
f 1677 1645 1644
f 1644 1676 1677
f 1709 1677 1676
f 1676 1708 1709
f 1741 1709 1708
f 1708 1740 1741
f 1773 1741 1740
f 1740 1772 1773
f 1805 1773 1772
f 1772 1804 1805
f 1837 1805 1804
f 1804 1836 1837
f 878 846 845
f 845 877 878
f 910 878 877
f 877 909 910
f 942 910 909
f 909 941 942
f 974 942 941
f 941 973 974
f 1006 974 973
f 973 1005 1006
f 1038 1006 1005
f 1005 1037 1038
f 1070 1038 1037
f 1037 1069 1070
f 1102 1070 1069
f 1069 1101 1102
f 1134 1102 1101
f 1101 1133 1134
f 1166 1134 1133
f 1133 1165 1166
f 1198 1166 1165
f 1165 1197 1198
f 1230 1198 1197
f 1197 1229 1230
f 1262 1230 1229
f 1229 1261 1262
f 1294 1262 1261
f 1261 1293 1294
f 1326 1294 1293
f 1293 1325 1326
f 1358 1326 1325
f 1325 1357 1358
f 1390 1358 1357
f 1357 1389 1390
f 1422 1390 1389
f 1389 1421 1422
f 1454 1422 1421
f 1421 1453 1454
f 1486 1454 1453
f 1453 1485 1486
f 1518 1486 1485
f 1485 1517 1518
f 1550 1518 1517
f 1517 1549 1550
f 1582 1550 1549
f 1549 1581 1582
f 1614 1582 1581
f 1581 1613 1614
f 1646 1614 1613
f 1613 1645 1646
f 1678 1646 1645
f 1645 1677 1678
f 1710 1678 1677
f 1677 1709 1710
f 1742 1710 1709
f 1709 1741 1742
f 1774 1742 1741
f 1741 1773 1774
f 1806 1774 1773
f 1773 1805 1806
f 1838 1806 1805
f 1805 1837 1838
f 879 847 846
f 846 878 879
f 911 879 878
f 878 910 911
f 943 911 910
f 910 942 943
f 975 943 942
f 942 974 975
f 1007 975 974
f 974 1006 1007
f 1039 1007 1006
f 1006 1038 1039
f 1071 1039 1038
f 1038 1070 1071
f 1103 1071 1070
f 1070 1102 1103
f 1135 1103 1102
f 1102 1134 1135
f 1167 1135 1134
f 1134 1166 1167
f 1199 1167 1166
f 1166 1198 1199
f 1231 1199 1198
f 1198 1230 1231
f 1263 1231 1230
f 1230 1262 1263
f 1295 1263 1262
f 1262 1294 1295
f 1327 1295 1294
f 1294 1326 1327
f 1359 1327 1326
f 1326 1358 1359
f 1391 1359 1358
f 1358 1390 1391
f 1423 1391 1390
f 1390 1422 1423
f 1455 1423 1422
f 1422 1454 1455
f 1487 1455 1454
f 1454 1486 1487
f 1519 1487 1486
f 1486 1518 1519
f 1551 1519 1518
f 1518 1550 1551
f 1583 1551 1550
f 1550 1582 1583
f 1615 1583 1582
f 1582 1614 1615
f 1647 1615 1614
f 1614 1646 1647
f 1679 1647 1646
f 1646 1678 1679
f 1711 1679 1678
f 1678 1710 1711
f 1743 1711 1710
f 1710 1742 1743
f 1775 1743 1742
f 1742 1774 1775
f 1807 1775 1774
f 1774 1806 1807
f 1839 1807 1806
f 1806 1838 1839
f 880 848 847
f 847 879 880
f 912 880 879
f 879 911 912
f 944 912 911
f 911 943 944
f 976 944 943
f 943 975 976
f 1008 976 975
f 975 1007 1008
f 1040 1008 1007
f 1007 1039 1040
f 1072 1040 1039
f 1039 1071 1072
f 1104 1072 1071
f 1071 1103 1104
f 1136 1104 1103
f 1103 1135 1136
f 1168 1136 1135
f 1135 1167 1168
f 1200 1168 1167
f 1167 1199 1200
f 1232 1200 1199
f 1199 1231 1232
f 1264 1232 1231
f 1231 1263 1264
f 1296 1264 1263
f 1263 1295 1296
f 1328 1296 1295
f 1295 1327 1328
f 1360 1328 1327
f 1327 1359 1360
f 1392 1360 1359
f 1359 1391 1392
f 1424 1392 1391
f 1391 1423 1424
f 1456 1424 1423
f 1423 1455 1456
f 1488 1456 1455
f 1455 1487 1488
f 1520 1488 1487
f 1487 1519 1520
f 1552 1520 1519
f 1519 1551 1552
f 1584 1552 1551
f 1551 1583 1584
f 1616 1584 1583
f 1583 1615 1616
f 1648 1616 1615
f 1615 1647 1648
f 1680 1648 1647
f 1647 1679 1680
f 1712 1680 1679
f 1679 1711 1712
f 1744 1712 1711
f 1711 1743 1744
f 1776 1744 1743
f 1743 1775 1776
f 1808 1776 1775
f 1775 1807 1808
f 1840 1808 1807
f 1807 1839 1840
f 881 849 848
f 848 880 881
f 913 881 880
f 880 912 913
f 945 913 912
f 912 944 945
f 977 945 944
f 944 976 977
f 1009 977 976
f 976 1008 1009
f 1041 1009 1008
f 1008 1040 1041
f 1073 1041 1040
f 1040 1072 1073
f 1105 1073 1072
f 1072 1104 1105
f 1137 1105 1104
f 1104 1136 1137
f 1169 1137 1136
f 1136 1168 1169
f 1201 1169 1168
f 1168 1200 1201
f 1233 1201 1200
f 1200 1232 1233
f 1265 1233 1232
f 1232 1264 1265
f 1297 1265 1264
f 1264 1296 1297
f 1329 1297 1296
f 1296 1328 1329
f 1361 1329 1328
f 1328 1360 1361
f 1393 1361 1360
f 1360 1392 1393
f 1425 1393 1392
f 1392 1424 1425
f 1457 1425 1424
f 1424 1456 1457
f 1489 1457 1456
f 1456 1488 1489
f 1521 1489 1488
f 1488 1520 1521
f 1553 1521 1520
f 1520 1552 1553
f 1585 1553 1552
f 1552 1584 1585
f 1617 1585 1584
f 1584 1616 1617
f 1649 1617 1616
f 1616 1648 1649
f 1681 1649 1648
f 1648 1680 1681
f 1713 1681 1680
f 1680 1712 1713
f 1745 1713 1712
f 1712 1744 1745
f 1777 1745 1744
f 1744 1776 1777
f 1809 1777 1776
f 1776 1808 1809
f 1841 1809 1808
f 1808 1840 1841
f 882 850 849
f 849 881 882
f 914 882 881
f 881 913 914
f 946 914 913
f 913 945 946
f 978 946 945
f 945 977 978
f 1010 978 977
f 977 1009 1010
f 1042 1010 1009
f 1009 1041 1042
f 1074 1042 1041
f 1041 1073 1074
f 1106 1074 1073
f 1073 1105 1106
f 1138 1106 1105
f 1105 1137 1138
f 1170 1138 1137
f 1137 1169 1170
f 1202 1170 1169
f 1169 1201 1202
f 1234 1202 1201
f 1201 1233 1234
f 1266 1234 1233
f 1233 1265 1266
f 1298 1266 1265
f 1265 1297 1298
f 1330 1298 1297
f 1297 1329 1330
f 1362 1330 1329
f 1329 1361 1362
f 1394 1362 1361
f 1361 1393 1394
f 1426 1394 1393
f 1393 1425 1426
f 1458 1426 1425
f 1425 1457 1458
f 1490 1458 1457
f 1457 1489 1490
f 1522 1490 1489
f 1489 1521 1522
f 1554 1522 1521
f 1521 1553 1554
f 1586 1554 1553
f 1553 1585 1586
f 1618 1586 1585
f 1585 1617 1618
f 1650 1618 1617
f 1617 1649 1650
f 1682 1650 1649
f 1649 1681 1682
f 1714 1682 1681
f 1681 1713 1714
f 1746 1714 1713
f 1713 1745 1746
f 1778 1746 1745
f 1745 1777 1778
f 1810 1778 1777
f 1777 1809 1810
f 1842 1810 1809
f 1809 1841 1842
f 883 851 850
f 850 882 883
f 915 883 882
f 882 914 915
f 947 915 914
f 914 946 947
f 979 947 946
f 946 978 979
f 1011 979 978
f 978 1010 1011
f 1043 1011 1010
f 1010 1042 1043
f 1075 1043 1042
f 1042 1074 1075
f 1107 1075 1074
f 1074 1106 1107
f 1139 1107 1106
f 1106 1138 1139
f 1171 1139 1138
f 1138 1170 1171
f 1203 1171 1170
f 1170 1202 1203
f 1235 1203 1202
f 1202 1234 1235
f 1267 1235 1234
f 1234 1266 1267
f 1299 1267 1266
f 1266 1298 1299
f 1331 1299 1298
f 1298 1330 1331
f 1363 1331 1330
f 1330 1362 1363
f 1395 1363 1362
f 1362 1394 1395
f 1427 1395 1394
f 1394 1426 1427
f 1459 1427 1426
f 1426 1458 1459
f 1491 1459 1458
f 1458 1490 1491
f 1523 1491 1490
f 1490 1522 1523
f 1555 1523 1522
f 1522 1554 1555
f 1587 1555 1554
f 1554 1586 1587
f 1619 1587 1586
f 1586 1618 1619
f 1651 1619 1618
f 1618 1650 1651
f 1683 1651 1650
f 1650 1682 1683
f 1715 1683 1682
f 1682 1714 1715
f 1747 1715 1714
f 1714 1746 1747
f 1779 1747 1746
f 1746 1778 1779
f 1811 1779 1778
f 1778 1810 1811
f 1843 1811 1810
f 1810 1842 1843
f 884 852 851
f 851 883 884
f 916 884 883
f 883 915 916
f 948 916 915
f 915 947 948
f 980 948 947
f 947 979 980
f 1012 980 979
f 979 1011 1012
f 1044 1012 1011
f 1011 1043 1044
f 1076 1044 1043
f 1043 1075 1076
f 1108 1076 1075
f 1075 1107 1108
f 1140 1108 1107
f 1107 1139 1140
f 1172 1140 1139
f 1139 1171 1172
f 1204 1172 1171
f 1171 1203 1204
f 1236 1204 1203
f 1203 1235 1236
f 1268 1236 1235
f 1235 1267 1268
f 1300 1268 1267
f 1267 1299 1300
f 1332 1300 1299
f 1299 1331 1332
f 1364 1332 1331
f 1331 1363 1364
f 1396 1364 1363
f 1363 1395 1396
f 1428 1396 1395
f 1395 1427 1428
f 1460 1428 1427
f 1427 1459 1460
f 1492 1460 1459
f 1459 1491 1492
f 1524 1492 1491
f 1491 1523 1524
f 1556 1524 1523
f 1523 1555 1556
f 1588 1556 1555
f 1555 1587 1588
f 1620 1588 1587
f 1587 1619 1620
f 1652 1620 1619
f 1619 1651 1652
f 1684 1652 1651
f 1651 1683 1684
f 1716 1684 1683
f 1683 1715 1716
f 1748 1716 1715
f 1715 1747 1748
f 1780 1748 1747
f 1747 1779 1780
f 1812 1780 1779
f 1779 1811 1812
f 1844 1812 1811
f 1811 1843 1844
f 885 853 852
f 852 884 885
f 917 885 884
f 884 916 917
f 949 917 916
f 916 948 949
f 981 949 948
f 948 980 981
f 1013 981 980
f 980 1012 1013
f 1045 1013 1012
f 1012 1044 1045
f 1077 1045 1044
f 1044 1076 1077
f 1109 1077 1076
f 1076 1108 1109
f 1141 1109 1108
f 1108 1140 1141
f 1173 1141 1140
f 1140 1172 1173
f 1205 1173 1172
f 1172 1204 1205
f 1237 1205 1204
f 1204 1236 1237
f 1269 1237 1236
f 1236 1268 1269
f 1301 1269 1268
f 1268 1300 1301
f 1333 1301 1300
f 1300 1332 1333
f 1365 1333 1332
f 1332 1364 1365
f 1397 1365 1364
f 1364 1396 1397
f 1429 1397 1396
f 1396 1428 1429
f 1461 1429 1428
f 1428 1460 1461
f 1493 1461 1460
f 1460 1492 1493
f 1525 1493 1492
f 1492 1524 1525
f 1557 1525 1524
f 1524 1556 1557
f 1589 1557 1556
f 1556 1588 1589
f 1621 1589 1588
f 1588 1620 1621
f 1653 1621 1620
f 1620 1652 1653
f 1685 1653 1652
f 1652 1684 1685
f 1717 1685 1684
f 1684 1716 1717
f 1749 1717 1716
f 1716 1748 1749
f 1781 1749 1748
f 1748 1780 1781
f 1813 1781 1780
f 1780 1812 1813
f 1845 1813 1812
f 1812 1844 1845
f 886 854 853
f 853 885 886
f 918 886 885
f 885 917 918
f 950 918 917
f 917 949 950
f 982 950 949
f 949 981 982
f 1014 982 981
f 981 1013 1014
f 1046 1014 1013
f 1013 1045 1046
f 1078 1046 1045
f 1045 1077 1078
f 1110 1078 1077
f 1077 1109 1110
f 1142 1110 1109
f 1109 1141 1142
f 1174 1142 1141
f 1141 1173 1174
f 1206 1174 1173
f 1173 1205 1206
f 1238 1206 1205
f 1205 1237 1238
f 1270 1238 1237
f 1237 1269 1270
f 1302 1270 1269
f 1269 1301 1302
f 1334 1302 1301
f 1301 1333 1334
f 1366 1334 1333
f 1333 1365 1366
f 1398 1366 1365
f 1365 1397 1398
f 1430 1398 1397
f 1397 1429 1430
f 1462 1430 1429
f 1429 1461 1462
f 1494 1462 1461
f 1461 1493 1494
f 1526 1494 1493
f 1493 1525 1526
f 1558 1526 1525
f 1525 1557 1558
f 1590 1558 1557
f 1557 1589 1590
f 1622 1590 1589
f 1589 1621 1622
f 1654 1622 1621
f 1621 1653 1654
f 1686 1654 1653
f 1653 1685 1686
f 1718 1686 1685
f 1685 1717 1718
f 1750 1718 1717
f 1717 1749 1750
f 1782 1750 1749
f 1749 1781 1782
f 1814 1782 1781
f 1781 1813 1814
f 1846 1814 1813
f 1813 1845 1846
f 887 855 854
f 854 886 887
f 919 887 886
f 886 918 919
f 951 919 918
f 918 950 951
f 983 951 950
f 950 982 983
f 1015 983 982
f 982 1014 1015
f 1047 1015 1014
f 1014 1046 1047
f 1079 1047 1046
f 1046 1078 1079
f 1111 1079 1078
f 1078 1110 1111
f 1143 1111 1110
f 1110 1142 1143
f 1175 1143 1142
f 1142 1174 1175
f 1207 1175 1174
f 1174 1206 1207
f 1239 1207 1206
f 1206 1238 1239
f 1271 1239 1238
f 1238 1270 1271
f 1303 1271 1270
f 1270 1302 1303
f 1335 1303 1302
f 1302 1334 1335
f 1367 1335 1334
f 1334 1366 1367
f 1399 1367 1366
f 1366 1398 1399
f 1431 1399 1398
f 1398 1430 1431
f 1463 1431 1430
f 1430 1462 1463
f 1495 1463 1462
f 1462 1494 1495
f 1527 1495 1494
f 1494 1526 1527
f 1559 1527 1526
f 1526 1558 1559
f 1591 1559 1558
f 1558 1590 1591
f 1623 1591 1590
f 1590 1622 1623
f 1655 1623 1622
f 1622 1654 1655
f 1687 1655 1654
f 1654 1686 1687
f 1719 1687 1686
f 1686 1718 1719
f 1751 1719 1718
f 1718 1750 1751
f 1783 1751 1750
f 1750 1782 1783
f 1815 1783 1782
f 1782 1814 1815
f 1847 1815 1814
f 1814 1846 1847
f 888 856 855
f 855 887 888
f 920 888 887
f 887 919 920
f 952 920 919
f 919 951 952
f 984 952 951
f 951 983 984
f 1016 984 983
f 983 1015 1016
f 1048 1016 1015
f 1015 1047 1048
f 1080 1048 1047
f 1047 1079 1080
f 1112 1080 1079
f 1079 1111 1112
f 1144 1112 1111
f 1111 1143 1144
f 1176 1144 1143
f 1143 1175 1176
f 1208 1176 1175
f 1175 1207 1208
f 1240 1208 1207
f 1207 1239 1240
f 1272 1240 1239
f 1239 1271 1272
f 1304 1272 1271
f 1271 1303 1304
f 1336 1304 1303
f 1303 1335 1336
f 1368 1336 1335
f 1335 1367 1368
f 1400 1368 1367
f 1367 1399 1400
f 1432 1400 1399
f 1399 1431 1432
f 1464 1432 1431
f 1431 1463 1464
f 1496 1464 1463
f 1463 1495 1496
f 1528 1496 1495
f 1495 1527 1528
f 1560 1528 1527
f 1527 1559 1560
f 1592 1560 1559
f 1559 1591 1592
f 1624 1592 1591
f 1591 1623 1624
f 1656 1624 1623
f 1623 1655 1656
f 1688 1656 1655
f 1655 1687 1688
f 1720 1688 1687
f 1687 1719 1720
f 1752 1720 1719
f 1719 1751 1752
f 1784 1752 1751
f 1751 1783 1784
f 1816 1784 1783
f 1783 1815 1816
f 1848 1816 1815
f 1815 1847 1848
f 889 857 856
f 856 888 889
f 921 889 888
f 888 920 921
f 953 921 920
f 920 952 953
f 985 953 952
f 952 984 985
f 1017 985 984
f 984 1016 1017
f 1049 1017 1016
f 1016 1048 1049
f 1081 1049 1048
f 1048 1080 1081
f 1113 1081 1080
f 1080 1112 1113
f 1145 1113 1112
f 1112 1144 1145
f 1177 1145 1144
f 1144 1176 1177
f 1209 1177 1176
f 1176 1208 1209
f 1241 1209 1208
f 1208 1240 1241
f 1273 1241 1240
f 1240 1272 1273
f 1305 1273 1272
f 1272 1304 1305
f 1337 1305 1304
f 1304 1336 1337
f 1369 1337 1336
f 1336 1368 1369
f 1401 1369 1368
f 1368 1400 1401
f 1433 1401 1400
f 1400 1432 1433
f 1465 1433 1432
f 1432 1464 1465
f 1497 1465 1464
f 1464 1496 1497
f 1529 1497 1496
f 1496 1528 1529
f 1561 1529 1528
f 1528 1560 1561
f 1593 1561 1560
f 1560 1592 1593
f 1625 1593 1592
f 1592 1624 1625
f 1657 1625 1624
f 1624 1656 1657
f 1689 1657 1656
f 1656 1688 1689
f 1721 1689 1688
f 1688 1720 1721
f 1753 1721 1720
f 1720 1752 1753
f 1785 1753 1752
f 1752 1784 1785
f 1817 1785 1784
f 1784 1816 1817
f 1849 1817 1816
f 1816 1848 1849
f 890 858 857
f 857 889 890
f 922 890 889
f 889 921 922
f 954 922 921
f 921 953 954
f 986 954 953
f 953 985 986
f 1018 986 985
f 985 1017 1018
f 1050 1018 1017
f 1017 1049 1050
f 1082 1050 1049
f 1049 1081 1082
f 1114 1082 1081
f 1081 1113 1114
f 1146 1114 1113
f 1113 1145 1146
f 1178 1146 1145
f 1145 1177 1178
f 1210 1178 1177
f 1177 1209 1210
f 1242 1210 1209
f 1209 1241 1242
f 1274 1242 1241
f 1241 1273 1274
f 1306 1274 1273
f 1273 1305 1306
f 1338 1306 1305
f 1305 1337 1338
f 1370 1338 1337
f 1337 1369 1370
f 1402 1370 1369
f 1369 1401 1402
f 1434 1402 1401
f 1401 1433 1434
f 1466 1434 1433
f 1433 1465 1466
f 1498 1466 1465
f 1465 1497 1498
f 1530 1498 1497
f 1497 1529 1530
f 1562 1530 1529
f 1529 1561 1562
f 1594 1562 1561
f 1561 1593 1594
f 1626 1594 1593
f 1593 1625 1626
f 1658 1626 1625
f 1625 1657 1658
f 1690 1658 1657
f 1657 1689 1690
f 1722 1690 1689
f 1689 1721 1722
f 1754 1722 1721
f 1721 1753 1754
f 1786 1754 1753
f 1753 1785 1786
f 1818 1786 1785
f 1785 1817 1818
f 1850 1818 1817
f 1817 1849 1850
f 891 859 858
f 858 890 891
f 923 891 890
f 890 922 923
f 955 923 922
f 922 954 955
f 987 955 954
f 954 986 987
f 1019 987 986
f 986 1018 1019
f 1051 1019 1018
f 1018 1050 1051
f 1083 1051 1050
f 1050 1082 1083
f 1115 1083 1082
f 1082 1114 1115
f 1147 1115 1114
f 1114 1146 1147
f 1179 1147 1146
f 1146 1178 1179
f 1211 1179 1178
f 1178 1210 1211
f 1243 1211 1210
f 1210 1242 1243
f 1275 1243 1242
f 1242 1274 1275
f 1307 1275 1274
f 1274 1306 1307
f 1339 1307 1306
f 1306 1338 1339
f 1371 1339 1338
f 1338 1370 1371
f 1403 1371 1370
f 1370 1402 1403
f 1435 1403 1402
f 1402 1434 1435
f 1467 1435 1434
f 1434 1466 1467
f 1499 1467 1466
f 1466 1498 1499
f 1531 1499 1498
f 1498 1530 1531
f 1563 1531 1530
f 1530 1562 1563
f 1595 1563 1562
f 1562 1594 1595
f 1627 1595 1594
f 1594 1626 1627
f 1659 1627 1626
f 1626 1658 1659
f 1691 1659 1658
f 1658 1690 1691
f 1723 1691 1690
f 1690 1722 1723
f 1755 1723 1722
f 1722 1754 1755
f 1787 1755 1754
f 1754 1786 1787
f 1819 1787 1786
f 1786 1818 1819
f 1851 1819 1818
f 1818 1850 1851
f 892 860 859
f 859 891 892
f 924 892 891
f 891 923 924
f 956 924 923
f 923 955 956
f 988 956 955
f 955 987 988
f 1020 988 987
f 987 1019 1020
f 1052 1020 1019
f 1019 1051 1052
f 1084 1052 1051
f 1051 1083 1084
f 1116 1084 1083
f 1083 1115 1116
f 1148 1116 1115
f 1115 1147 1148
f 1180 1148 1147
f 1147 1179 1180
f 1212 1180 1179
f 1179 1211 1212
f 1244 1212 1211
f 1211 1243 1244
f 1276 1244 1243
f 1243 1275 1276
f 1308 1276 1275
f 1275 1307 1308
f 1340 1308 1307
f 1307 1339 1340
f 1372 1340 1339
f 1339 1371 1372
f 1404 1372 1371
f 1371 1403 1404
f 1436 1404 1403
f 1403 1435 1436
f 1468 1436 1435
f 1435 1467 1468
f 1500 1468 1467
f 1467 1499 1500
f 1532 1500 1499
f 1499 1531 1532
f 1564 1532 1531
f 1531 1563 1564
f 1596 1564 1563
f 1563 1595 1596
f 1628 1596 1595
f 1595 1627 1628
f 1660 1628 1627
f 1627 1659 1660
f 1692 1660 1659
f 1659 1691 1692
f 1724 1692 1691
f 1691 1723 1724
f 1756 1724 1723
f 1723 1755 1756
f 1788 1756 1755
f 1755 1787 1788
f 1820 1788 1787
f 1787 1819 1820
f 1852 1820 1819
f 1819 1851 1852
f 893 861 860
f 860 892 893
f 925 893 892
f 892 924 925
f 957 925 924
f 924 956 957
f 989 957 956
f 956 988 989
f 1021 989 988
f 988 1020 1021
f 1053 1021 1020
f 1020 1052 1053
f 1085 1053 1052
f 1052 1084 1085
f 1117 1085 1084
f 1084 1116 1117
f 1149 1117 1116
f 1116 1148 1149
f 1181 1149 1148
f 1148 1180 1181
f 1213 1181 1180
f 1180 1212 1213
f 1245 1213 1212
f 1212 1244 1245
f 1277 1245 1244
f 1244 1276 1277
f 1309 1277 1276
f 1276 1308 1309
f 1341 1309 1308
f 1308 1340 1341
f 1373 1341 1340
f 1340 1372 1373
f 1405 1373 1372
f 1372 1404 1405
f 1437 1405 1404
f 1404 1436 1437
f 1469 1437 1436
f 1436 1468 1469
f 1501 1469 1468
f 1468 1500 1501
f 1533 1501 1500
f 1500 1532 1533
f 1565 1533 1532
f 1532 1564 1565
f 1597 1565 1564
f 1564 1596 1597
f 1629 1597 1596
f 1596 1628 1629
f 1661 1629 1628
f 1628 1660 1661
f 1693 1661 1660
f 1660 1692 1693
f 1725 1693 1692
f 1692 1724 1725
f 1757 1725 1724
f 1724 1756 1757
f 1789 1757 1756
f 1756 1788 1789
f 1821 1789 1788
f 1788 1820 1821
f 1853 1821 1820
f 1820 1852 1853
f 894 862 861
f 861 893 894
f 926 894 893
f 893 925 926
f 958 926 925
f 925 957 958
f 990 958 957
f 957 989 990
f 1022 990 989
f 989 1021 1022
f 1054 1022 1021
f 1021 1053 1054
f 1086 1054 1053
f 1053 1085 1086
f 1118 1086 1085
f 1085 1117 1118
f 1150 1118 1117
f 1117 1149 1150
f 1182 1150 1149
f 1149 1181 1182
f 1214 1182 1181
f 1181 1213 1214
f 1246 1214 1213
f 1213 1245 1246
f 1278 1246 1245
f 1245 1277 1278
f 1310 1278 1277
f 1277 1309 1310
f 1342 1310 1309
f 1309 1341 1342
f 1374 1342 1341
f 1341 1373 1374
f 1406 1374 1373
f 1373 1405 1406
f 1438 1406 1405
f 1405 1437 1438
f 1470 1438 1437
f 1437 1469 1470
f 1502 1470 1469
f 1469 1501 1502
f 1534 1502 1501
f 1501 1533 1534
f 1566 1534 1533
f 1533 1565 1566
f 1598 1566 1565
f 1565 1597 1598
f 1630 1598 1597
f 1597 1629 1630
f 1662 1630 1629
f 1629 1661 1662
f 1694 1662 1661
f 1661 1693 1694
f 1726 1694 1693
f 1693 1725 1726
f 1758 1726 1725
f 1725 1757 1758
f 1790 1758 1757
f 1757 1789 1790
f 1822 1790 1789
f 1789 1821 1822
f 1854 1822 1821
f 1821 1853 1854
