v 1009.58 77.7807 -5360.01
v 1009.49 77.5449 -5359.92
v 1009.84 77.6191 -5359.96
v 1009.66 77.4436 -5359.89
v 1009.4 77.8615 -5359.77
v 1009.38 77.5955 -5359.77
v 1009.48 77.7807 -5359.47
v 1009.43 77.5449 -5359.59
v 1009.75 77.6191 -5359.42
v 1009.59 77.4436 -5359.56
v 1009.48 77.7807 -5359.47
v 1009.43 77.5449 -5359.59
v 1009.93 77.5383 -5359.67
v 1009.71 77.393 -5359.71
v 1006.59 72.1236 -5360.54
v 1006.57 72.2133 -5360.45
v 1006.34 72.2761 -5360.58
v 1006.4 72.3145 -5360.48
v 1006.17 72.3524 -5360.35
v 1006.29 72.3652 -5360.33
v 1006.25 72.2761 -5360.08
v 1006.34 72.3145 -5360.15
v 1006.25 72.2761 -5360.08
v 1006.34 72.3145 -5360.15
v 1006.5 72.1236 -5360.03
v 1006.51 72.2133 -5360.12
v 1006.67 72.0473 -5360.26
v 1006.62 72.1626 -5360.27
v 1006.49 71.8986 -5360.59
v 1006.53 72.0275 -5360.55
v 1006.2 72.073 -5360.65
v 1006.28 72.1789 -5360.59
v 1006.3 72.2181 -5360.61
v 1006.28 72.1789 -5360.59
v 1006.57 72.0528 -5360.56
v 1006.53 72.0275 -5360.55
v 1006.01 72.1601 -5360.38
v 1006.11 72.2546 -5360.36
v 1006.11 72.3008 -5360.36
v 1006.11 72.2546 -5360.36
v 1006.1 72.073 -5360.07
v 1006.19 72.1789 -5360.09
v 1006.2 72.2181 -5360.06
v 1006.19 72.1789 -5360.09
v 1006.1 72.073 -5360.07
v 1006.19 72.1789 -5360.09
v 1006.38 71.8986 -5360.02
v 1006.44 72.0275 -5360.04
v 1006.47 72.0527 -5360.02
v 1006.44 72.0275 -5360.04
v 1006.2 72.2181 -5360.06
v 1006.19 72.1789 -5360.09
v 1006.58 71.8114 -5360.28
v 1006.61 71.9519 -5360.27
v 1006.65 71.9701 -5360.26
v 1006.61 71.9519 -5360.27
v 1009.63 78.2468 -5360.09
v 1009.41 77.8688 -5360.13
v 1010.25 77.8709 -5359.98
v 1010.03 77.493 -5360.02
v 1009.5 78.2468 -5359.37
v 1010.12 77.8709 -5359.26
v 1009.28 77.8688 -5359.42
v 1009.89 77.493 -5359.3
v 1010.25 77.8709 -5359.98
v 1010.03 77.493 -5360.02
v 1010.12 77.8709 -5359.26
v 1009.89 77.493 -5359.3
v 1009.5 78.2468 -5359.37
v 1009.28 77.8688 -5359.42
v 1009.63 78.2468 -5360.09
v 1009.41 77.8688 -5360.13
v 1007.97 79.9032 -5356.01
v 1009.71 78.9599 -5356.77
v 1007.85 79.7406 -5356.25
v 1009.49 78.849 -5356.97
v 1010.93 78.4153 -5358.41
v 1010.65 78.3342 -5358.52
v 1011.31 78.4153 -5360.49
v 1011 78.3342 -5360.49
v 1010.75 78.9599 -5362.46
v 1010.47 78.849 -5362.35
v 1009.39 79.9032 -5363.79
v 1009.19 79.7406 -5363.6
v 1007.6 80.9925 -5364.11
v 1007.5 80.7702 -5363.91
v 1005.86 81.9358 -5363.35
v 1005.85 81.6619 -5363.19
v 1004.64 82.4804 -5361.71
v 1004.7 82.1767 -5361.64
v 1004.26 82.4804 -5359.62
v 1004.34 82.1767 -5359.67
v 1004.26 82.4804 -5359.62
v 1004.82 81.9358 -5357.66
v 1004.34 82.1767 -5359.67
v 1004.87 81.6619 -5357.81
v 1006.18 80.9925 -5356.33
v 1006.16 80.7702 -5356.56
v 1007.97 79.9032 -5356.01
v 1007.96 79.933 -5356.23
v 1009.71 78.9599 -5356.77
v 1009.6 79.0414 -5356.95
v 1010.93 78.4153 -5358.41
v 1010.76 78.5266 -5358.5
v 1011.31 78.4153 -5360.49
v 1011.12 78.5266 -5360.47
v 1010.75 78.9599 -5362.46
v 1010.58 79.0414 -5362.33
v 1009.39 79.9032 -5363.79
v 1009.3 79.933 -5363.58
v 1007.6 80.9925 -5364.11
v 1007.61 80.9626 -5363.89
v 1005.86 81.9358 -5363.35
v 1005.97 81.8543 -5363.17
v 1004.64 82.4804 -5361.71
v 1004.81 82.3691 -5361.62
v 1004.26 82.4804 -5359.62
v 1004.45 82.3691 -5359.65
v 1004.26 82.4804 -5359.62
v 1004.45 82.3691 -5359.65
v 1004.82 81.9358 -5357.66
v 1004.99 81.8543 -5357.79
v 1006.18 80.9925 -5356.33
v 1006.27 80.9626 -5356.54
v 1007.47 79.1058 -5356.32
v 1009.12 78.2142 -5357.04
v 1007.34 78.9116 -5356.48
v 1008.92 78.0528 -5357.17
v 1005.78 80.1354 -5356.62
v 1005.71 79.9032 -5356.78
v 1004.5 81.027 -5357.88
v 1004.48 80.762 -5357.98
v 1003.96 81.5418 -5359.74
v 1003.96 81.2578 -5359.77
v 1010.1 78.2141 -5362.42
v 1008.81 79.1058 -5363.67
v 1009.87 78.0528 -5362.36
v 1008.63 78.9116 -5363.56
v 1010.63 77.6994 -5360.56
v 1010.38 77.557 -5360.57
v 1010.27 77.6994 -5358.59
v 1010.63 77.6994 -5360.56
v 1010.04 77.557 -5358.67
v 1010.38 77.557 -5360.57
v 1004.32 81.5418 -5361.71
v 1003.96 81.5418 -5359.74
v 1004.31 81.2578 -5361.67
v 1003.96 81.2578 -5359.77
v 1005.48 81.027 -5363.26
v 1005.42 80.762 -5363.17
v 1007.12 80.1354 -5363.98
v 1007 79.9032 -5363.86
v 1004.6 80.7554 -5360.36
v 1004.45 80.5799 -5360.49
v 1004.33 80.917 -5360.41
v 1004.28 80.6812 -5360.52
v 1004.78 80.6745 -5360.6
v 1004.56 80.5293 -5360.65
v 1004.7 80.7554 -5360.9
v 1004.51 80.5799 -5360.83
v 1004.43 80.917 -5360.95
v 1004.34 80.6812 -5360.86
v 1004.7 80.7554 -5360.9
v 1004.51 80.5799 -5360.83
v 1004.25 80.9978 -5360.7
v 1004.23 80.7318 -5360.71
v 1001.1 75.4124 -5361.01
v 1001.2 75.4508 -5361.08
v 1001.35 75.2599 -5360.97
v 1001.36 75.3495 -5361.05
v 1001.52 75.1836 -5361.2
v 1001.48 75.2989 -5361.21
v 1001.44 75.2599 -5361.47
v 1001.42 75.3495 -5361.39
v 1001.44 75.2599 -5361.47
v 1001.42 75.3495 -5361.39
v 1001.19 75.4124 -5361.52
v 1001.26 75.4508 -5361.42
v 1001.02 75.4887 -5361.29
v 1001.14 75.5014 -5361.27
v 1000.95 75.2092 -5361
v 1001.05 75.3152 -5361.03
v 1001.24 75.0349 -5360.95
v 1001.29 75.1638 -5360.98
v 1001.32 75.189 -5360.95
v 1001.29 75.1638 -5360.98
v 1001.05 75.3544 -5361
v 1001.05 75.3152 -5361.03
v 1001.43 74.9477 -5361.21
v 1001.46 75.0882 -5361.21
v 1001.51 75.1064 -5361.2
v 1001.46 75.0882 -5361.21
v 1001.34 75.0349 -5361.53
v 1001.38 75.1638 -5361.48
v 1001.42 75.189 -5361.5
v 1001.38 75.1638 -5361.48
v 1001.34 75.0349 -5361.53
v 1001.38 75.1638 -5361.48
v 1001.06 75.2092 -5361.58
v 1001.14 75.3152 -5361.53
v 1001.15 75.3544 -5361.55
v 1001.14 75.3152 -5361.53
v 1001.42 75.189 -5361.5
v 1001.38 75.1638 -5361.48
v 1000.86 75.2964 -5361.32
v 1000.97 75.3908 -5361.3
v 1000.96 75.4371 -5361.3
v 1000.97 75.3908 -5361.3
v 1004.97 81.0072 -5360.2
v 1004.75 80.6293 -5360.24
v 1004.35 81.383 -5360.31
v 1004.13 81.0051 -5360.35
v 1005.1 81.0072 -5360.92
v 1004.48 81.383 -5361.03
v 1004.88 80.6293 -5360.96
v 1004.26 81.0051 -5361.07
v 1004.35 81.383 -5360.31
v 1004.13 81.0051 -5360.35
v 1004.48 81.383 -5361.03
v 1004.26 81.0051 -5361.07
v 1005.1 81.0072 -5360.92
v 1004.88 80.6293 -5360.96
v 1004.97 81.0072 -5360.2
v 1004.75 80.6293 -5360.24
v 1008.58 78.6456 -5362.6
v 1008.56 78.3796 -5362.6
v 1008.77 78.5648 -5362.84
v 1008.68 78.329 -5362.75
v 1008.67 78.5648 -5362.31
v 1008.61 78.329 -5362.42
v 1008.93 78.4031 -5362.26
v 1008.78 78.2277 -5362.39
v 1009.11 78.3223 -5362.5
v 1008.89 78.1771 -5362.54
v 1008.93 78.4031 -5362.26
v 1008.78 78.2277 -5362.39
v 1009.03 78.4031 -5362.79
v 1008.84 78.2277 -5362.72
v 1005.53 73.0602 -5363.42
v 1005.59 73.0986 -5363.32
v 1005.36 73.1365 -5363.19
v 1005.48 73.1492 -5363.16
v 1005.43 73.0602 -5362.91
v 1005.53 73.0986 -5362.98
v 1005.68 72.9077 -5362.86
v 1005.7 72.9973 -5362.95
v 1005.68 72.9077 -5362.86
v 1005.7 72.9973 -5362.95
v 1005.86 72.8314 -5363.09
v 1005.81 72.9467 -5363.1
v 1005.78 72.9077 -5363.37
v 1005.76 72.9973 -5363.29
v 1005.39 72.857 -5363.48
v 1005.47 72.963 -5363.42
v 1005.19 72.9442 -5363.21
v 1005.3 73.0386 -5363.2
v 1005.3 73.0849 -5363.2
v 1005.3 73.0386 -5363.2
v 1005.48 73.0022 -5363.45
v 1005.47 72.963 -5363.42
v 1005.28 72.857 -5362.9
v 1005.38 72.963 -5362.92
v 1005.38 73.0022 -5362.9
v 1005.38 72.963 -5362.92
v 1005.57 72.6827 -5362.85
v 1005.63 72.8116 -5362.88
v 1005.65 72.8368 -5362.85
v 1005.63 72.8116 -5362.88
v 1005.57 72.6827 -5362.85
v 1005.63 72.8116 -5362.88
v 1005.77 72.5955 -5363.11
v 1005.8 72.7359 -5363.1
v 1005.84 72.7542 -5363.1
v 1005.8 72.7359 -5363.1
v 1005.65 72.8368 -5362.85
v 1005.63 72.8116 -5362.88
v 1005.67 72.6827 -5363.43
v 1005.72 72.8116 -5363.38
v 1005.75 72.8368 -5363.4
v 1005.72 72.8116 -5363.38
v 1008.62 79.0996 -5362.46
v 1008.39 78.7217 -5362.5
v 1009.04 78.9117 -5363.02
v 1008.81 78.5337 -5363.06
v 1009.08 78.7742 -5362
v 1009.51 78.5862 -5362.57
v 1008.86 78.3962 -5362.04
v 1009.28 78.2083 -5362.61
v 1009.04 78.9117 -5363.02
v 1008.81 78.5337 -5363.06
v 1009.51 78.5862 -5362.57
v 1009.28 78.2083 -5362.61
v 1009.08 78.7742 -5362
v 1008.86 78.3962 -5362.04
v 1008.62 79.0996 -5362.46
v 1008.39 78.7217 -5362.5
v 1006.09 80.1329 -5362.77
v 1006.04 79.8971 -5362.89
v 1006.01 80.2137 -5363.07
v 1005.99 79.9477 -5363.07
v 1006.36 79.9713 -5362.73
v 1006.21 79.7958 -5362.86
v 1006.54 79.8905 -5362.97
v 1006.32 79.7452 -5363.01
v 1006.46 79.9713 -5363.26
v 1006.27 79.7958 -5363.19
v 1006.54 79.8905 -5362.97
v 1006.32 79.7452 -5363.01
v 1006.19 80.1329 -5363.31
v 1006.1 79.8971 -5363.22
v 1002.78 74.7046 -5363.65
v 1002.9 74.7174 -5363.63
v 1002.86 74.6283 -5363.38
v 1002.96 74.6667 -5363.45
v 1003.11 74.4758 -5363.33
v 1003.12 74.5655 -5363.42
v 1003.28 74.3995 -5363.56
v 1003.24 74.5148 -5363.57
v 1003.28 74.3995 -5363.56
v 1003.24 74.5148 -5363.57
v 1003.2 74.4758 -5363.84
v 1003.18 74.5655 -5363.75
v 1002.95 74.6283 -5363.88
v 1003.02 74.6667 -5363.78
v 1002.62 74.5123 -5363.68
v 1002.73 74.6068 -5363.66
v 1002.71 74.4252 -5363.37
v 1002.8 74.5311 -5363.39
v 1002.81 74.5703 -5363.37
v 1002.8 74.5311 -5363.39
v 1002.72 74.653 -5363.66
v 1002.73 74.6068 -5363.66
v 1003 74.2508 -5363.32
v 1003.05 74.3798 -5363.35
v 1003.08 74.405 -5363.32
v 1003.05 74.3798 -5363.35
v 1003.19 74.1636 -5363.58
v 1003.22 74.3041 -5363.57
v 1003.27 74.3223 -5363.57
v 1003.22 74.3041 -5363.57
v 1003.19 74.1636 -5363.58
v 1003.22 74.3041 -5363.57
v 1003.1 74.2508 -5363.89
v 1003.14 74.3798 -5363.85
v 1003.18 74.405 -5363.86
v 1003.14 74.3798 -5363.85
v 1003.27 74.3223 -5363.57
v 1003.22 74.3041 -5363.57
v 1002.81 74.4252 -5363.95
v 1002.9 74.5311 -5363.89
v 1002.91 74.5703 -5363.91
v 1002.9 74.5311 -5363.89
v 1006.28 80.4798 -5362.51
v 1006.06 80.1019 -5362.55
v 1006.09 80.6677 -5363.19
v 1005.87 80.2898 -5363.23
v 1006.88 80.1544 -5362.77
v 1006.69 80.3423 -5363.45
v 1006.66 79.7764 -5362.81
v 1006.47 79.9643 -5363.49
v 1006.09 80.6677 -5363.19
v 1005.87 80.2898 -5363.23
v 1006.69 80.3423 -5363.45
v 1006.47 79.9643 -5363.49
v 1006.88 80.1544 -5362.77
v 1006.66 79.7764 -5362.81
v 1006.28 80.4798 -5362.51
v 1006.06 80.1019 -5362.55
v 1005.59 79.8905 -5357.77
v 1005.37 79.7452 -5357.81
v 1005.41 79.9713 -5357.53
v 1005.26 79.7958 -5357.66
v 1005.51 79.9713 -5358.06
v 1005.32 79.7958 -5358
v 1005.25 80.1329 -5358.11
v 1005.16 79.8971 -5358.03
v 1005.06 80.2137 -5357.87
v 1005.04 79.9477 -5357.87
v 1005.25 80.1329 -5358.11
v 1005.16 79.8971 -5358.03
v 1005.15 80.1329 -5357.58
v 1005.09 79.8971 -5357.69
v 1002.17 74.4758 -5358.14
v 1002.18 74.5655 -5358.22
v 1002.34 74.3995 -5358.37
v 1002.29 74.5148 -5358.37
v 1002.26 74.4758 -5358.64
v 1002.24 74.5655 -5358.56
v 1002.01 74.6283 -5358.69
v 1002.07 74.6667 -5358.59
v 1002.01 74.6283 -5358.69
v 1002.07 74.6667 -5358.59
v 1001.84 74.7046 -5358.46
v 1001.96 74.7174 -5358.43
v 1001.91 74.6283 -5358.18
v 1002.01 74.6667 -5358.25
v 1002.05 74.2508 -5358.12
v 1002.11 74.3798 -5358.15
v 1002.25 74.1636 -5358.38
v 1002.28 74.3041 -5358.38
v 1002.32 74.3223 -5358.37
v 1002.28 74.3041 -5358.38
v 1002.13 74.405 -5358.12
v 1002.11 74.3798 -5358.15
v 1002.16 74.2508 -5358.7
v 1002.2 74.3798 -5358.65
v 1002.23 74.405 -5358.67
v 1002.2 74.3798 -5358.65
v 1001.87 74.4252 -5358.75
v 1001.95 74.5311 -5358.69
v 1001.96 74.5703 -5358.72
v 1001.95 74.5311 -5358.69
v 1001.87 74.4252 -5358.75
v 1001.95 74.5311 -5358.69
v 1001.67 74.5123 -5358.49
v 1001.78 74.6068 -5358.47
v 1001.78 74.653 -5358.47
v 1001.78 74.6068 -5358.47
v 1001.96 74.5703 -5358.72
v 1001.95 74.5311 -5358.69
v 1001.76 74.4252 -5358.17
v 1001.86 74.5311 -5358.19
v 1001.86 74.5703 -5358.17
v 1001.86 74.5311 -5358.19
v 1005.99 80.1544 -5357.84
v 1005.76 79.7764 -5357.88
v 1005.56 80.3423 -5357.27
v 1005.34 79.9643 -5357.31
v 1005.52 80.4799 -5358.29
v 1005.1 80.6678 -5357.73
v 1005.29 80.1019 -5358.33
v 1004.87 80.2898 -5357.77
v 1005.56 80.3423 -5357.27
v 1005.34 79.9643 -5357.31
v 1005.1 80.6678 -5357.73
v 1004.87 80.2898 -5357.77
v 1005.52 80.4799 -5358.29
v 1005.29 80.1019 -5358.33
v 1005.99 80.1544 -5357.84
v 1005.76 79.7764 -5357.88
v 1008.08 78.4031 -5357.6
v 1007.9 78.2277 -5357.53
v 1008.17 78.3223 -5357.3
v 1007.95 78.1771 -5357.34
v 1007.82 78.5648 -5357.64
v 1007.73 78.329 -5357.56
v 1007.64 78.6456 -5357.4
v 1007.62 78.3796 -5357.4
v 1007.72 78.5648 -5357.11
v 1007.67 78.329 -5357.22
v 1007.64 78.6456 -5357.4
v 1007.62 78.3796 -5357.4
v 1007.99 78.4031 -5357.06
v 1007.83 78.2277 -5357.19
v 1004.91 72.8314 -5357.9
v 1004.86 72.9467 -5357.91
v 1004.83 72.9077 -5358.17
v 1004.81 72.9973 -5358.09
v 1004.58 73.0602 -5358.22
v 1004.64 73.0986 -5358.12
v 1004.41 73.1365 -5357.99
v 1004.53 73.1492 -5357.97
v 1004.41 73.1365 -5357.99
v 1004.53 73.1492 -5357.97
v 1004.49 73.0602 -5357.71
v 1004.58 73.0986 -5357.78
v 1004.74 72.9077 -5357.67
v 1004.75 72.9973 -5357.75
v 1004.82 72.5955 -5357.91
v 1004.85 72.7359 -5357.91
v 1004.73 72.6827 -5358.23
v 1004.77 72.8116 -5358.18
v 1004.81 72.8368 -5358.2
v 1004.77 72.8116 -5358.18
v 1004.89 72.7542 -5357.9
v 1004.85 72.7359 -5357.91
v 1004.44 72.857 -5358.28
v 1004.52 72.963 -5358.23
v 1004.54 73.0022 -5358.25
v 1004.52 72.963 -5358.23
v 1004.25 72.9442 -5358.02
v 1004.35 73.0386 -5358
v 1004.35 73.0849 -5358
v 1004.35 73.0386 -5358
v 1004.25 72.9442 -5358.02
v 1004.35 73.0386 -5358
v 1004.34 72.857 -5357.7
v 1004.43 72.963 -5357.72
v 1004.44 73.0022 -5357.7
v 1004.43 72.963 -5357.72
v 1004.35 73.0849 -5358
v 1004.35 73.0386 -5358
v 1004.62 72.6827 -5357.65
v 1004.68 72.8116 -5357.68
v 1004.71 72.8368 -5357.65
v 1004.68 72.8116 -5357.68
v 1008.32 78.7742 -5357.78
v 1008.09 78.3962 -5357.82
v 1008.51 78.5862 -5357.11
v 1008.29 78.2083 -5357.15
v 1007.72 79.0996 -5357.52
v 1007.91 78.9117 -5356.84
v 1007.49 78.7217 -5357.56
v 1007.69 78.5338 -5356.88
v 1008.51 78.5862 -5357.11
v 1008.29 78.2083 -5357.15
v 1007.91 78.9117 -5356.84
v 1007.69 78.5338 -5356.88
v 1007.72 79.0996 -5357.52
v 1007.49 78.7217 -5357.56
v 1008.32 78.7742 -5357.78
v 1008.09 78.3962 -5357.82
v 1006.57 72.2133 -5360.45
v 1009.66 77.4436 -5359.89
v 1006.4 72.3145 -5360.48
v 1009.49 77.5449 -5359.92
v 1006.29 72.3652 -5360.33
v 1009.38 77.5955 -5359.77
v 1006.34 72.3145 -5360.15
v 1009.43 77.5449 -5359.59
v 1006.34 72.3145 -5360.15
v 1009.43 77.5449 -5359.59
v 1006.51 72.2133 -5360.12
v 1009.59 77.4436 -5359.56
v 1006.62 72.1626 -5360.27
v 1009.71 77.393 -5359.71
v 1005.57 69.932 -5360.83
v 1006.68 71.8139 -5360.63
v 1004.95 70.3078 -5360.95
v 1006.06 72.1897 -5360.74
v 1006.68 71.8139 -5360.63
v 1006.55 71.8139 -5359.91
v 1006.06 72.1897 -5360.74
v 1005.93 72.1897 -5360.02
v 1006.55 71.8139 -5359.91
v 1005.44 69.932 -5360.11
v 1005.93 72.1897 -5360.02
v 1004.82 70.3078 -5360.23
v 1004.95 70.3078 -5360.95
v 1006.06 72.1897 -5360.74
v 1004.82 70.3078 -5360.23
v 1005.93 72.1897 -5360.02
v 1005.44 69.932 -5360.11
v 1006.55 71.8139 -5359.91
v 1005.57 69.932 -5360.83
v 1006.68 71.8139 -5360.63
v 1009.41 77.8688 -5360.13
v 1009.28 77.8688 -5359.42
v 1010.03 77.493 -5360.02
v 1009.89 77.493 -5359.3
v 1007.52 79.6262 -5358.35
v 1008.28 79.2135 -5358.68
v 1007.6 80.1373 -5360.09
v 1008.98 78.9753 -5360.31
v 1008.82 78.9753 -5359.4
v 1004.48 80.762 -5357.98
v 1005.24 80.3799 -5358.6
v 1003.96 81.2578 -5359.77
v 1004.87 80.7358 -5359.89
v 1004.31 81.2578 -5361.67
v 1005.12 80.7358 -5361.25
v 1005.42 80.762 -5363.17
v 1005.91 80.3799 -5362.32
v 1007 79.9032 -5363.86
v 1007.05 79.7633 -5362.82
v 1008.63 78.9116 -5363.56
v 1008.22 79.0514 -5362.61
v 1009.87 78.0528 -5362.36
v 1009.11 78.4349 -5361.74
v 1010.38 77.557 -5360.57
v 1009.48 78.079 -5360.45
v 1010.04 77.557 -5358.67
v 1009.23 78.079 -5359.09
v 1008.92 78.0528 -5357.17
v 1008.43 78.4349 -5358.02
v 1007.34 78.9116 -5356.48
v 1007.29 79.0514 -5357.52
v 1005.71 79.9032 -5356.78
v 1006.12 79.7633 -5357.73
v 1005.24 80.3799 -5358.6
v 1006.15 80.5154 -5359.07
v 1004.87 80.7358 -5359.89
v 1005.9 80.7536 -5359.93
v 1005.12 80.7358 -5361.25
v 1006.06 80.7536 -5360.84
v 1005.91 80.3799 -5362.32
v 1006.6 80.5154 -5361.56
v 1007.05 79.7633 -5362.82
v 1007.36 80.1027 -5361.89
v 1008.22 79.0514 -5362.61
v 1008.14 79.6262 -5361.75
v 1009.11 78.4349 -5361.74
v 1008.74 79.2135 -5361.17
v 1009.48 78.079 -5360.45
v 1009.23 78.079 -5359.09
v 1008.43 78.4349 -5358.02
v 1007.29 79.0514 -5357.52
v 1006.12 79.7633 -5357.73
v 1006.74 80.1027 -5358.49
v 1001.2 75.4508 -5361.08
v 1004.28 80.6812 -5360.52
v 1001.36 75.3495 -5361.05
v 1004.45 80.5799 -5360.49
v 1001.48 75.2989 -5361.21
v 1004.56 80.5293 -5360.65
v 1001.42 75.3495 -5361.39
v 1004.51 80.5799 -5360.83
v 1001.42 75.3495 -5361.39
v 1004.51 80.5799 -5360.83
v 1001.26 75.4508 -5361.42
v 1004.34 80.6812 -5360.86
v 1001.14 75.5014 -5361.27
v 1004.23 80.7318 -5360.71
v 999.671 73.4441 -5361.16
v 1000.78 75.326 -5360.96
v 1000.29 73.0682 -5361.05
v 1001.4 74.9501 -5360.85
v 1000.78 75.326 -5360.96
v 1000.91 75.326 -5361.68
v 1001.4 74.9501 -5360.85
v 1001.53 74.9501 -5361.57
v 1000.91 75.326 -5361.68
v 999.802 73.4441 -5361.88
v 1001.53 74.9501 -5361.57
v 1000.42 73.0682 -5361.77
v 1000.29 73.0682 -5361.05
v 1001.4 74.9501 -5360.85
v 1000.42 73.0682 -5361.77
v 1001.53 74.9501 -5361.57
v 999.802 73.4441 -5361.88
v 1000.91 75.326 -5361.68
v 999.671 73.4441 -5361.16
v 1000.78 75.326 -5360.96
v 1004.75 80.6293 -5360.24
v 1004.88 80.6293 -5360.96
v 1004.13 81.0051 -5360.35
v 1004.26 81.0051 -5361.07
v 1005.59 73.0986 -5363.32
v 1008.68 78.329 -5362.75
v 1005.48 73.1492 -5363.16
v 1008.56 78.3796 -5362.6
v 1005.53 73.0986 -5362.98
v 1008.61 78.329 -5362.42
v 1005.7 72.9973 -5362.95
v 1008.78 78.2277 -5362.39
v 1005.7 72.9973 -5362.95
v 1008.78 78.2277 -5362.39
v 1005.81 72.9467 -5363.1
v 1008.89 78.1771 -5362.54
v 1005.76 72.9973 -5363.29
v 1008.84 78.2277 -5362.72
v 1004.36 70.9727 -5363.88
v 1005.47 72.8546 -5363.67
v 1003.93 71.1606 -5363.31
v 1005.04 73.0425 -5363.11
v 1005.47 72.8546 -5363.67
v 1005.93 72.5291 -5363.22
v 1005.04 73.0425 -5363.11
v 1005.51 72.7171 -5362.65
v 1005.93 72.5291 -5363.22
v 1004.82 70.6472 -5363.42
v 1005.51 72.7171 -5362.65
v 1004.4 70.8352 -5362.85
v 1003.93 71.1606 -5363.31
v 1005.04 73.0425 -5363.11
v 1004.4 70.8352 -5362.85
v 1005.51 72.7171 -5362.65
v 1004.82 70.6472 -5363.42
v 1005.93 72.5291 -5363.22
v 1004.36 70.9727 -5363.88
v 1005.47 72.8546 -5363.67
v 1008.39 78.7217 -5362.5
v 1008.86 78.3962 -5362.04
v 1008.81 78.5337 -5363.06
v 1009.28 78.2083 -5362.61
v 1002.9 74.7174 -5363.63
v 1005.99 79.9477 -5363.07
v 1002.96 74.6667 -5363.45
v 1006.04 79.8971 -5362.89
v 1003.12 74.5655 -5363.42
v 1006.21 79.7958 -5362.86
v 1003.24 74.5148 -5363.57
v 1006.32 79.7452 -5363.01
v 1003.24 74.5148 -5363.57
v 1006.32 79.7452 -5363.01
v 1003.18 74.5655 -5363.75
v 1006.27 79.7958 -5363.19
v 1003.02 74.6667 -5363.78
v 1006.1 79.8971 -5363.22
v 1001.41 72.7288 -5364.04
v 1002.52 74.6107 -5363.84
v 1001.6 72.5409 -5363.36
v 1002.71 74.4228 -5363.16
v 1002.52 74.6107 -5363.84
v 1003.12 74.2852 -5364.1
v 1002.71 74.4228 -5363.16
v 1003.31 74.0973 -5363.42
v 1003.12 74.2852 -5364.1
v 1002.01 72.4033 -5364.3
v 1003.31 74.0973 -5363.42
v 1002.2 72.2154 -5363.62
v 1001.6 72.5409 -5363.36
v 1002.71 74.4228 -5363.16
v 1002.2 72.2154 -5363.62
v 1003.31 74.0973 -5363.42
v 1002.01 72.4033 -5364.3
v 1003.12 74.2852 -5364.1
v 1001.41 72.7288 -5364.04
v 1002.52 74.6107 -5363.84
v 1006.06 80.1019 -5362.55
v 1006.66 79.7764 -5362.81
v 1005.87 80.2898 -5363.23
v 1006.47 79.9643 -5363.49
v 1002.18 74.5655 -5358.22
v 1005.26 79.7958 -5357.66
v 1002.29 74.5148 -5358.37
v 1005.37 79.7452 -5357.81
v 1002.24 74.5655 -5358.56
v 1005.32 79.7958 -5358
v 1002.07 74.6667 -5358.59
v 1005.16 79.8971 -5358.03
v 1002.07 74.6667 -5358.59
v 1005.16 79.8971 -5358.03
v 1001.96 74.7174 -5358.43
v 1005.04 79.9477 -5357.87
v 1002.01 74.6667 -5358.25
v 1005.09 79.8971 -5357.69
v 1000.88 72.4033 -5358.12
v 1001.99 74.2852 -5357.92
v 1001.3 72.2154 -5358.69
v 1002.41 74.0973 -5358.49
v 1001.99 74.2852 -5357.92
v 1001.52 74.6107 -5358.38
v 1002.41 74.0973 -5358.49
v 1001.95 74.4228 -5358.94
v 1001.52 74.6107 -5358.38
v 1000.41 72.7288 -5358.58
v 1001.95 74.4228 -5358.94
v 1000.84 72.5409 -5359.15
v 1001.3 72.2154 -5358.69
v 1002.41 74.0973 -5358.49
v 1000.84 72.5409 -5359.15
v 1001.95 74.4228 -5358.94
v 1000.41 72.7288 -5358.58
v 1001.52 74.6107 -5358.38
v 1000.88 72.4033 -5358.12
v 1001.99 74.2852 -5357.92
v 1005.76 79.7764 -5357.88
v 1005.29 80.1019 -5358.33
v 1005.34 79.9643 -5357.31
v 1004.87 80.2898 -5357.77
v 1004.86 72.9467 -5357.91
v 1007.95 78.1771 -5357.34
v 1004.81 72.9973 -5358.09
v 1007.9 78.2277 -5357.53
v 1004.64 73.0986 -5358.12
v 1007.73 78.329 -5357.56
v 1004.53 73.1492 -5357.97
v 1007.62 78.3796 -5357.4
v 1004.53 73.1492 -5357.97
v 1007.62 78.3796 -5357.4
v 1004.58 73.0986 -5357.78
v 1007.67 78.329 -5357.22
v 1004.75 72.9973 -5357.75
v 1007.83 78.2277 -5357.19
v 1003.83 70.6473 -5357.96
v 1004.94 72.5291 -5357.76
v 1003.64 70.8352 -5358.64
v 1004.75 72.7171 -5358.43
v 1004.94 72.5291 -5357.76
v 1004.34 72.8546 -5357.49
v 1004.75 72.7171 -5358.43
v 1004.15 73.0425 -5358.17
v 1004.34 72.8546 -5357.49
v 1003.23 70.9727 -5357.69
v 1004.15 73.0425 -5358.17
v 1003.04 71.1606 -5358.37
v 1003.64 70.8352 -5358.64
v 1004.75 72.7171 -5358.43
v 1003.04 71.1606 -5358.37
v 1004.15 73.0425 -5358.17
v 1003.23 70.9727 -5357.69
v 1004.34 72.8546 -5357.49
v 1003.83 70.6473 -5357.96
v 1004.94 72.5291 -5357.76
v 1008.09 78.3962 -5357.82
v 1007.49 78.7217 -5357.56
v 1008.29 78.2083 -5357.15
v 1007.69 78.5338 -5356.88
v 1009.6 79.0414 -5356.95
v 1009.74 80.1022 -5357.43
v 1010.76 78.5266 -5358.5
v 1010.69 79.682 -5358.7
v 1011.12 78.5266 -5360.47
v 1010.98 79.682 -5360.31
v 1010.58 79.0414 -5362.33
v 1010.54 80.1022 -5361.83
v 1009.3 79.933 -5363.58
v 1009.49 80.83 -5362.85
v 1007.61 80.9626 -5363.89
v 1008.11 81.6703 -5363.1
v 1005.97 81.8543 -5363.17
v 1006.77 82.3981 -5362.51
v 1004.81 82.3691 -5361.62
v 1005.83 82.8183 -5361.24
v 1004.45 82.3691 -5359.65
v 1005.54 82.8183 -5359.64
v 1004.99 81.8543 -5357.79
v 1005.97 82.3981 -5358.12
v 1006.27 80.9626 -5356.54
v 1007.02 81.6703 -5357.1
v 1007.96 79.933 -5356.23
v 1008.4 80.83 -5356.85
v 1009.67 81.0548 -5358.11
v 1010.34 80.7577 -5359.01
v 1010.55 80.7577 -5360.14
v 1010.24 81.0548 -5361.22
v 1009.5 81.5694 -5361.94
v 1008.52 82.1637 -5362.12
v 1007.57 82.6783 -5361.7
v 1006.91 82.9754 -5360.81
v 1006.7 82.9754 -5359.67
v 1007.01 82.6783 -5358.6
v 1007.75 82.1637 -5357.87
v 1008.72 81.5694 -5357.7
v 1009.39 81.8339 -5358.94
v 1009.74 81.6801 -5359.4
v 1009.85 81.6801 -5359.99
v 1009.69 81.8339 -5360.54
v 1009.3 82.1002 -5360.92
v 1008.8 82.4078 -5361.01
v 1008.31 82.6742 -5360.79
v 1007.96 82.828 -5360.33
v 1007.85 82.828 -5359.74
v 1008.01 82.6742 -5359.19
v 1008.4 82.4078 -5358.81
v 1008.9 82.1002 -5358.72
v 1008.93 82.3862 -5359.85
v 1007.85 79.7406 -5356.25
v 1009.49 78.849 -5356.97
v 1007.47 79.1058 -5356.32
v 1009.12 78.2142 -5357.04
v 1006.16 80.7702 -5356.56
v 1005.78 80.1354 -5356.62
v 1004.87 81.6619 -5357.81
v 1004.5 81.027 -5357.88
v 1004.34 82.1767 -5359.67
v 1003.96 81.5418 -5359.74
v 1010.1 78.2141 -5362.42
v 1010.47 78.849 -5362.35
v 1008.81 79.1058 -5363.67
v 1009.19 79.7406 -5363.6
v 1011 78.3342 -5360.49
v 1010.63 77.6994 -5360.56
v 1010.65 78.3342 -5358.52
v 1011 78.3342 -5360.49
v 1010.27 77.6994 -5358.59
v 1010.63 77.6994 -5360.56
v 1004.7 82.1767 -5361.64
v 1004.34 82.1767 -5359.67
v 1004.32 81.5418 -5361.71
v 1003.96 81.5418 -5359.74
v 1005.85 81.6619 -5363.19
v 1005.48 81.027 -5363.26
v 1007.5 80.7702 -5363.91
v 1007.12 80.1354 -5363.98
v 1008.11 77.2458 -5363.85
v 1009.51 79.6215 -5363.6
v 1005.85 78.6186 -5364.26
v 1007.25 80.9943 -5364.01
v 1008.1 77.2458 -5363.81
v 1005.85 78.6186 -5364.22
v 1009.5 79.6215 -5363.55
v 1007.25 80.9943 -5363.96
v 1003.38 79.9516 -5362.04
v 1004.74 82.2503 -5361.79
v 1002.9 79.9516 -5359.4
v 1004.26 82.2503 -5359.16
v 1003.41 79.9349 -5362.04
v 1002.93 79.9349 -5359.4
v 1004.76 82.2336 -5361.79
v 1004.28 82.2336 -5359.15
v 1004.04 77.3241 -5356.91
v 1006.13 80.8743 -5356.53
v 1006.05 76.0956 -5356.54
v 1008.15 79.6458 -5356.16
v 1004.04 77.3241 -5356.94
v 1006.06 76.0956 -5356.57
v 1006.14 80.8743 -5356.56
v 1008.15 79.6458 -5356.19
v 1004.73 82.3449 -5361.6
v 1004.05 81.1956 -5361.72
v 1005.96 81.7958 -5363.25
v 1005.28 80.6466 -5363.37
v 1005.97 81.7865 -5363.24
v 1005.29 80.6373 -5363.36
v 1004.74 82.3355 -5361.58
v 1004.06 81.1863 -5361.71
v 1010.56 78.9944 -5362.45
v 1009.89 77.8451 -5362.57
v 1011.13 78.4454 -5360.47
v 1010.46 77.2961 -5360.59
v 1011.11 78.4578 -5360.45
v 1010.43 77.3086 -5360.58
v 1010.54 79.0069 -5362.44
v 1009.86 77.8576 -5362.56
v 1001.89 74.1187 -5357.94
v 1002.32 73.9308 -5358.5
v 1001.89 77.1187 -5357.94
v 1002.32 76.9308 -5358.5
v 1004.05 72.8761 -5358.19
v 1004.24 72.6881 -5357.51
v 1004.05 75.8761 -5358.19
v 1004.24 75.6881 -5357.51
v 1004.84 72.3627 -5357.77
v 1004.65 72.5506 -5358.45
v 1004.84 75.3627 -5357.77
v 1004.65 75.5506 -5358.45
v 1005.83 72.0232 -5360.04
v 1006.45 71.6474 -5359.93
v 1005.83 75.0232 -5360.04
v 1006.45 74.6474 -5359.93
v 1003.21 73.9308 -5363.44
v 1003.02 74.1187 -5364.12
v 1003.21 76.9308 -5363.44
v 1003.02 77.1187 -5364.12
v 1005.37 72.6881 -5363.69
v 1004.95 72.876 -5363.12
v 1005.37 75.6881 -5363.69
v 1004.95 75.876 -5363.12
v 1000.68 75.1595 -5360.98
v 1001.3 74.7837 -5360.87
v 1000.68 78.1595 -5360.98
v 1001.3 77.7837 -5360.87
v 1001.85 74.2563 -5358.96
v 1001.43 74.4442 -5358.4
v 1001.85 77.2563 -5358.96
v 1001.43 77.4442 -5358.4
v 1005.41 72.5506 -5362.67
v 1005.84 72.3627 -5363.23
v 1005.41 75.5506 -5362.67
v 1005.84 75.3627 -5363.23
v 1006.58 71.6474 -5360.65
v 1005.96 72.0232 -5360.76
v 1006.58 74.6474 -5360.65
v 1005.96 75.0232 -5360.76
v 1001.43 74.7837 -5361.59
v 1000.81 75.1595 -5361.7
v 1001.43 77.7837 -5361.59
v 1000.81 78.1595 -5361.7
v 1002.42 74.4442 -5363.86
v 1002.61 74.2563 -5363.18
v 1002.42 77.4442 -5363.86
v 1002.61 77.2563 -5363.18
v 1002.32 73.9308 -5358.5
v 1001.85 74.2563 -5358.96
v 1002.32 76.9308 -5358.5
v 1001.85 77.2563 -5358.96
v 1001.3 74.7837 -5360.87
v 1001.43 74.7837 -5361.59
v 1001.3 77.7837 -5360.87
v 1001.43 77.7837 -5361.59
v 1004.65 72.5506 -5358.45
v 1004.05 72.8761 -5358.19
v 1004.65 75.5506 -5358.45
v 1004.05 75.8761 -5358.19
v 1005.96 72.0232 -5360.76
v 1005.83 72.0232 -5360.04
v 1005.96 75.0232 -5360.76
v 1005.83 75.0232 -5360.04
v 1004.95 72.876 -5363.12
v 1005.41 72.5506 -5362.67
v 1004.95 75.876 -5363.12
v 1005.41 75.5506 -5362.67
v 1002.61 74.2563 -5363.18
v 1003.21 73.9308 -5363.44
v 1002.61 77.2563 -5363.18
v 1003.21 76.9308 -5363.44
v 1000.81 75.1595 -5361.7
v 1000.68 75.1595 -5360.98
v 1000.81 78.1595 -5361.7
v 1000.68 78.1595 -5360.98
v 1001.43 74.4442 -5358.4
v 1001.89 74.1187 -5357.94
v 1001.43 77.4442 -5358.4
v 1001.89 77.1187 -5357.94
v 1004.24 72.6881 -5357.51
v 1004.84 72.3627 -5357.77
v 1004.24 75.6881 -5357.51
v 1004.84 75.3627 -5357.77
v 1006.45 71.6474 -5359.93
v 1006.58 71.6474 -5360.65
v 1006.45 74.6474 -5359.93
v 1006.58 74.6474 -5360.65
v 1003.02 74.1187 -5364.12
v 1002.42 74.4442 -5363.86
v 1003.02 77.1187 -5364.12
v 1002.42 77.4442 -5363.86
v 1005.84 72.3627 -5363.23
v 1005.37 72.6881 -5363.69
v 1005.84 75.3627 -5363.23
v 1005.37 75.6881 -5363.69
v 969 74.0855 -5328
v 969 74.0796 -5330
v 969 73.9875 -5332
v 969 74.013 -5334
v 969 73.7944 -5336
v 969 73.7721 -5338
v 969 73.8089 -5340
v 969 73.8441 -5342
v 969 73.9753 -5344
v 969 74.0293 -5346
v 969 74.2206 -5348
v 969 74.3757 -5350
v 969 74.4152 -5352
v 969 74.553 -5354
v 969 74.5921 -5356
v 969 74.7244 -5358
v 969 74.6826 -5360
v 969 74.6449 -5362
v 969 74.6637 -5364
v 969 74.6142 -5366
v 969 74.4802 -5368
v 969 74.0893 -5370
v 969 73.9099 -5372
v 969 74.322 -5374
v 969 74.746 -5376
v 969 75.1326 -5378
v 969 75.3873 -5380
v 969 75.6481 -5382
v 969 75.8923 -5384
v 969 76.3154 -5386
v 969 76.5591 -5388
v 969 76.8234 -5390
v 971 73.917 -5328
v 971 73.9799 -5330
v 971 74.0458 -5332
v 971 73.8415 -5334
v 971 73.7877 -5336
v 971 73.9169 -5338
v 971 74.0667 -5340
v 971 74.2479 -5342
v 971 74.5808 -5344
v 971 74.7245 -5346
v 971 74.97 -5348
v 971 75.1833 -5350
v 971 75.2315 -5352
v 971 75.2053 -5354
v 971 75.2673 -5356
v 971 75.4219 -5358
v 971 75.3347 -5360
v 971 75.338 -5362
v 971 75.4308 -5364
v 971 75.2067 -5366
v 971 75.1284 -5368
v 971 74.8552 -5370
v 971 74.616 -5372
v 971 74.1264 -5374
v 971 74.4365 -5376
v 971 74.8986 -5378
v 971 75.1873 -5380
v 971 75.4613 -5382
v 971 75.6982 -5384
v 971 76.1052 -5386
v 971 76.5204 -5388
v 971 76.8575 -5390
v 973 73.7941 -5328
v 973 73.8675 -5330
v 973 73.8471 -5332
v 973 73.8836 -5334
v 973 74.0498 -5336
v 973 74.2982 -5338
v 973 74.5831 -5340
v 973 74.7909 -5342
v 973 75.0338 -5344
v 973 75.3738 -5346
v 973 75.5726 -5348
v 973 75.6791 -5350
v 973 75.7658 -5352
v 973 75.6897 -5354
v 973 75.7945 -5356
v 973 75.8104 -5358
v 973 75.8031 -5360
v 973 75.6725 -5362
v 973 75.7523 -5364
v 973 75.4566 -5366
v 973 75.4012 -5368
v 973 75.1167 -5370
v 973 74.9294 -5372
v 973 74.6536 -5374
v 973 74.3006 -5376
v 973 74.5687 -5378
v 973 74.93 -5380
v 973 75.211 -5382
v 973 75.4476 -5384
v 973 75.8389 -5386
v 973 76.1984 -5388
v 973 76.4648 -5390
v 975 73.678 -5328
v 975 73.7587 -5330
v 975 73.9511 -5332
v 975 74.3772 -5334
v 975 74.7661 -5336
v 975 74.999 -5338
v 975 75.2277 -5340
v 975 75.3911 -5342
v 975 75.7256 -5344
v 975 76.0347 -5346
v 975 76.1285 -5348
v 975 76.2649 -5350
v 975 76.1844 -5352
v 975 76.2525 -5354
v 975 76.0715 -5356
v 975 76.0332 -5358
v 975 75.9876 -5360
v 975 75.8816 -5362
v 975 75.9028 -5364
v 975 75.7473 -5366
v 975 75.6665 -5368
v 975 75.4827 -5370
v 975 75.227 -5372
v 975 75.0901 -5374
v 975 74.648 -5376
v 975 74.4546 -5378
v 975 74.4673 -5380
v 975 74.872 -5382
v 975 75.072 -5384
v 975 75.5971 -5386
v 975 75.7566 -5388
v 975 76.1431 -5390
v 977 73.7677 -5328
v 977 74.1153 -5330
v 977 74.6283 -5332
v 977 74.9531 -5334
v 977 75.3657 -5336
v 977 75.6895 -5338
v 977 75.9174 -5340
v 977 76.0084 -5342
v 977 76.1941 -5344
v 977 76.4169 -5346
v 977 76.3835 -5348
v 977 76.4705 -5350
v 977 76.5378 -5352
v 977 76.4698 -5354
v 977 76.3188 -5356
v 977 76.3547 -5358
v 977 76.284 -5360
v 977 76.2087 -5362
v 977 76.1162 -5364
v 977 75.9937 -5366
v 977 75.8739 -5368
v 977 75.8414 -5370
v 977 75.6454 -5372
v 977 75.3507 -5374
v 977 75.037 -5376
v 977 74.7405 -5378
v 977 74.4192 -5380
v 977 74.5015 -5382
v 977 74.7766 -5384
v 977 75.1701 -5386
v 977 75.4324 -5388
v 977 75.8017 -5390
v 979 74.3985 -5328
v 979 74.8624 -5330
v 979 75.2857 -5332
v 979 75.5998 -5334
v 979 76.0146 -5336
v 979 76.201 -5338
v 979 76.2338 -5340
v 979 76.316 -5342
v 979 76.3678 -5344
v 979 76.5738 -5346
v 979 76.7397 -5348
v 979 76.8661 -5350
v 979 76.6929 -5352
v 979 76.7626 -5354
v 979 76.6807 -5356
v 979 76.7783 -5358
v 979 76.7486 -5360
v 979 76.7156 -5362
v 979 76.4324 -5364
v 979 76.2902 -5366
v 979 76.1474 -5368
v 979 76.08 -5370
v 979 75.9967 -5372
v 979 75.6894 -5374
v 979 75.4092 -5376
v 979 75.153 -5378
v 979 74.8271 -5380
v 979 74.5474 -5382
v 979 74.3766 -5384
v 979 74.8764 -5386
v 979 75.126 -5388
v 979 75.3617 -5390
v 981 75.0154 -5328
v 981 75.3528 -5330
v 981 75.6507 -5332
v 981 75.8909 -5334
v 981 76.1896 -5336
v 981 76.2936 -5338
v 981 76.4987 -5340
v 981 76.6965 -5342
v 981 76.7942 -5344
v 981 76.8985 -5346
v 981 77.0583 -5348
v 981 76.9942 -5350
v 981 77.1359 -5352
v 981 77.2158 -5354
v 981 77.1741 -5356
v 981 77.1559 -5358
v 981 77.0967 -5360
v 981 77.0177 -5362
v 981 76.8917 -5364
v 981 76.7312 -5366
v 981 76.5957 -5368
v 981 76.4943 -5370
v 981 76.2811 -5372
v 981 76.1063 -5374
v 981 75.8219 -5376
v 981 75.5174 -5378
v 981 75.2735 -5380
v 981 74.9827 -5382
v 981 74.5769 -5384
v 981 74.4127 -5386
v 981 74.8191 -5388
v 981 75.204 -5390
v 983 75.2062 -5328
v 983 75.5356 -5330
v 983 75.9196 -5332
v 983 76.2244 -5334
v 983 76.4178 -5336
v 983 76.6687 -5338
v 983 76.6949 -5340
v 983 76.7682 -5342
v 983 77.0558 -5344
v 983 77.1594 -5346
v 983 77.4646 -5348
v 983 77.6105 -5350
v 983 77.6164 -5352
v 983 77.6176 -5354
v 983 78.1515 -5356
v 983 78.0299 -5358
v 983 77.8413 -5360
v 983 77.3772 -5362
v 983 77.3169 -5364
v 983 76.9931 -5366
v 983 76.941 -5368
v 983 76.8079 -5370
v 983 76.6751 -5372
v 983 76.3836 -5374
v 983 76.0447 -5376
v 983 75.8695 -5378
v 983 75.5758 -5380
v 983 75.3517 -5382
v 983 75.1173 -5384
v 983 74.5914 -5386
v 983 74.4002 -5388
v 983 74.8227 -5390
v 985 75.5743 -5328
v 985 75.882 -5330
v 985 76.1762 -5332
v 985 76.5071 -5334
v 985 76.7626 -5336
v 985 76.7939 -5338
v 985 76.9382 -5340
v 985 77.0817 -5342
v 985 77.0819 -5344
v 985 77.408 -5346
v 985 77.8244 -5348
v 985 78.1265 -5350
v 985 78.4451 -5352
v 985 78.2013 -5354
v 985 78.24 -5356
v 985 78.5939 -5358
v 985 78.5862 -5360
v 985 78.0697 -5362
v 985 77.5772 -5364
v 985 77.4593 -5366
v 985 77.1661 -5368
v 985 77.0236 -5370
v 985 76.8473 -5372
v 985 76.5087 -5374
v 985 76.3802 -5376
v 985 76.1345 -5378
v 985 75.8529 -5380
v 985 75.5711 -5382
v 985 75.3979 -5384
v 985 74.9616 -5386
v 985 74.6812 -5388
v 985 74.405 -5390
v 987 75.9343 -5328
v 987 76.1948 -5330
v 987 76.5377 -5332
v 987 76.7615 -5334
v 987 77.0521 -5336
v 987 77.0485 -5338
v 987 77.1498 -5340
v 987 77.4304 -5342
v 987 77.3743 -5344
v 987 77.6647 -5346
v 987 77.9676 -5348
v 987 78.5433 -5350
v 987 78.5729 -5352
v 987 77.9873 -5354
v 987 78.0154 -5356
v 987 78.0569 -5358
v 987 78.8604 -5360
v 987 78.7299 -5362
v 987 77.81 -5364
v 987 77.6142 -5366
v 987 77.4631 -5368
v 987 77.239 -5370
v 987 77.0467 -5372
v 987 76.7172 -5374
v 987 76.6695 -5376
v 987 76.3463 -5378
v 987 76.2141 -5380
v 987 75.8608 -5382
v 987 75.6787 -5384
v 987 75.2325 -5386
v 987 75.017 -5388
v 987 74.4933 -5390
v 989 76.2901 -5328
v 989 76.5086 -5330
v 989 76.8638 -5332
v 989 77.1797 -5334
v 989 77.3579 -5336
v 989 77.3568 -5338
v 989 77.7327 -5340
v 989 77.7845 -5342
v 989 77.84 -5344
v 989 77.6518 -5346
v 989 77.7865 -5348
v 989 77.9129 -5350
v 989 78.1456 -5352
v 989 78.2394 -5354
v 989 78.2544 -5356
v 989 78.0374 -5358
v 989 78.0689 -5360
v 989 77.9653 -5362
v 989 78.0884 -5364
v 989 77.9128 -5366
v 989 77.7381 -5368
v 989 77.6002 -5370
v 989 77.3812 -5372
v 989 77.0847 -5374
v 989 77.0299 -5376
v 989 76.7268 -5378
v 989 76.478 -5380
v 989 76.2261 -5382
v 989 76.1027 -5384
v 989 75.6795 -5386
v 989 75.3066 -5388
v 989 74.8614 -5390
v 991 76.5046 -5328
v 991 76.8631 -5330
v 991 77.1098 -5332
v 991 77.4719 -5334
v 991 77.6813 -5336
v 991 77.6506 -5338
v 991 78.2659 -5340
v 991 78.8563 -5342
v 991 78.4532 -5344
v 991 77.9265 -5346
v 991 78.1624 -5348
v 991 78.2256 -5350
v 991 78.3352 -5352
v 991 78.4692 -5354
v 991 78.5005 -5356
v 991 78.2974 -5358
v 991 78.1238 -5360
v 991 78.1558 -5362
v 991 78.1468 -5364
v 991 78.0732 -5366
v 991 78.0452 -5368
v 991 77.7856 -5370
v 991 77.5855 -5372
v 991 77.2908 -5374
v 991 77.2503 -5376
v 991 77.0536 -5378
v 991 76.8255 -5380
v 991 76.596 -5382
v 991 76.2954 -5384
v 991 76.0044 -5386
v 991 75.7599 -5388
v 991 75.2606 -5390
v 993 76.7379 -5328
v 993 76.928 -5330
v 993 77.2925 -5332
v 993 77.498 -5334
v 993 77.8374 -5336
v 993 77.9669 -5338
v 993 78.3608 -5340
v 993 79.1613 -5342
v 993 79.0335 -5344
v 993 78.1994 -5346
v 993 78.1889 -5348
v 993 78.4095 -5350
v 993 78.4414 -5352
v 993 78.5659 -5354
v 993 78.4765 -5356
v 993 78.3982 -5358
v 993 78.3916 -5360
v 993 78.2442 -5362
v 993 78.2624 -5364
v 993 78.3564 -5366
v 993 78.1225 -5368
v 993 78.0098 -5370
v 993 77.9301 -5372
v 993 77.5433 -5374
v 993 77.4932 -5376
v 993 77.3964 -5378
v 993 77.0189 -5380
v 993 76.8498 -5382
v 993 76.5145 -5384
v 993 76.3374 -5386
v 993 76.0461 -5388
v 993 75.5835 -5390
v 995 76.9391 -5328
v 995 77.1619 -5330
v 995 77.4424 -5332
v 995 77.8034 -5334
v 995 77.8346 -5336
v 995 78.0396 -5338
v 995 78.1697 -5340
v 995 78.8727 -5342
v 995 79.4997 -5344
v 995 79.7039 -5346
v 995 79.5873 -5348
v 995 80.0704 -5350
v 995 80.6721 -5352
v 995 80.2978 -5354
v 995 78.5952 -5356
v 995 78.653 -5358
v 995 78.5564 -5360
v 995 78.5374 -5362
v 995 78.3885 -5364
v 995 78.4551 -5366
v 995 78.297 -5368
v 995 78.2256 -5370
v 995 78.1163 -5372
v 995 77.8103 -5374
v 995 77.7682 -5376
v 995 77.5053 -5378
v 995 77.3072 -5380
v 995 77.0267 -5382
v 995 76.8538 -5384
v 995 76.5097 -5386
v 995 76.2671 -5388
v 995 75.8808 -5390
v 997 77.1323 -5328
v 997 77.4616 -5330
v 997 77.7645 -5332
v 997 77.8637 -5334
v 997 78.0404 -5336
v 997 78.1778 -5338
v 997 78.2702 -5340
v 997 78.4747 -5342
v 997 79.9061 -5344
v 997 80.488 -5346
v 997 80.7933 -5348
v 997 80.9517 -5350
v 997 81.6717 -5352
v 997 82.0189 -5354
v 997 81.7496 -5356
v 997 80.3517 -5358
v 997 78.7063 -5360
v 997 78.7228 -5362
v 997 78.4915 -5364
v 997 78.5118 -5366
v 997 78.4492 -5368
v 997 78.3197 -5370
v 997 78.1536 -5372
v 997 78.1065 -5374
v 997 77.8067 -5376
v 997 77.6137 -5378
v 997 77.4388 -5380
v 997 77.1398 -5382
v 997 77.0172 -5384
v 997 76.5785 -5386
v 997 76.3433 -5388
v 997 76.0107 -5390
v 999 77.5539 -5328
v 999 77.6871 -5330
v 999 77.9877 -5332
v 999 78.0107 -5334
v 999 78.2377 -5336
v 999 78.3157 -5338
v 999 78.5281 -5340
v 999 78.5772 -5342
v 999 79.9763 -5344
v 999 80.5652 -5346
v 999 80.8779 -5348
v 999 80.9656 -5350
v 999 81.8591 -5352
v 999 82.9287 -5354
v 999 82.9633 -5356
v 999 82.3564 -5358
v 999 80.9971 -5360
v 999 78.8134 -5362
v 999 78.5766 -5364
v 999 78.4944 -5366
v 999 78.493 -5368
v 999 78.5057 -5370
v 999 78.4454 -5372
v 999 78.2214 -5374
v 999 77.9371 -5376
v 999 77.6823 -5378
v 999 77.5236 -5380
v 999 77.3882 -5382
v 999 77.1079 -5384
v 999 76.8365 -5386
v 999 76.5648 -5388
v 999 76.1384 -5390
v 1001 77.7669 -5328
v 1001 78.0684 -5330
v 1001 78.1708 -5332
v 1001 78.3563 -5334
v 1001 78.5434 -5336
v 1001 78.5251 -5338
v 1001 78.7033 -5340
v 1001 78.8635 -5342
v 1001 80.1527 -5344
v 1001 80.8131 -5346
v 1001 80.3461 -5348
v 1001 79.059 -5350
v 1001 79.0379 -5352
v 1001 81.4075 -5354
v 1001 81.8938 -5356
v 1001 81.3573 -5358
v 1001 79.2141 -5360
v 1001 78.8298 -5362
v 1001 78.7036 -5364
v 1001 78.6144 -5366
v 1001 78.4216 -5368
v 1001 78.4053 -5370
v 1001 78.3265 -5372
v 1001 78.2327 -5374
v 1001 78.084 -5376
v 1001 77.9001 -5378
v 1001 77.5776 -5380
v 1001 77.4386 -5382
v 1001 77.0664 -5384
v 1001 76.8485 -5386
v 1001 76.4634 -5388
v 1001 76.174 -5390
v 1003 78.0209 -5328
v 1003 78.2589 -5330
v 1003 78.4087 -5332
v 1003 78.6519 -5334
v 1003 78.6371 -5336
v 1003 78.7103 -5338
v 1003 78.9337 -5340
v 1003 78.9962 -5342
v 1003 79.0562 -5344
v 1003 81.5779 -5346
v 1003 81.4142 -5348
v 1003 79.1009 -5350
v 1003 79.1369 -5352
v 1003 79.2598 -5354
v 1003 79.0619 -5356
v 1003 78.9324 -5358
v 1003 78.9166 -5360
v 1003 78.7996 -5362
v 1003 78.624 -5364
v 1003 78.7086 -5366
v 1003 78.5964 -5368
v 1003 78.6082 -5370
v 1003 78.49 -5372
v 1003 78.3765 -5374
v 1003 78.1527 -5376
v 1003 78.1618 -5378
v 1003 77.9783 -5380
v 1003 77.6652 -5382
v 1003 77.3285 -5384
v 1003 77.088 -5386
v 1003 76.6023 -5388
v 1003 76.3712 -5390
v 1005 78.3036 -5328
v 1005 78.4981 -5330
v 1005 78.5705 -5332
v 1005 78.7383 -5334
v 1005 78.6721 -5336
v 1005 78.9476 -5338
v 1005 79.0644 -5340
v 1005 79.2011 -5342
v 1005 80.5062 -5344
v 1005 83.1611 -5346
v 1005 83.7481 -5348
v 1005 83.0463 -5350
v 1005 79.4433 -5352
v 1005 79.3605 -5354
v 1005 79.0728 -5356
v 1005 79.0545 -5358
v 1005 78.9295 -5360
v 1005 78.9026 -5362
v 1005 78.8794 -5364
v 1005 78.819 -5366
v 1005 78.7568 -5368
v 1005 78.6184 -5370
v 1005 78.4795 -5372
v 1005 78.4451 -5374
v 1005 78.3771 -5376
v 1005 78.2895 -5378
v 1005 78.0992 -5380
v 1005 77.8321 -5382
v 1005 77.4715 -5384
v 1005 77.1307 -5386
v 1005 76.8474 -5388
v 1005 76.5069 -5390
v 1007 78.5429 -5328
v 1007 78.6864 -5330
v 1007 78.6433 -5332
v 1007 78.692 -5334
v 1007 78.8415 -5336
v 1007 78.9977 -5338
v 1007 79.1489 -5340
v 1007 79.3294 -5342
v 1007 82.097 -5344
v 1007 84.2274 -5346
v 1007 85.665 -5348
v 1007 85.7086 -5350
v 1007 83.5347 -5352
v 1007 79.745 -5354
v 1007 79.6856 -5356
v 1007 79.4207 -5358
v 1007 79.1902 -5360
v 1007 79.239 -5362
v 1007 79.0505 -5364
v 1007 79.1108 -5366
v 1007 78.8589 -5368
v 1007 78.6805 -5370
v 1007 78.5464 -5372
v 1007 78.5695 -5374
v 1007 78.4307 -5376
v 1007 78.3559 -5378
v 1007 78.1965 -5380
v 1007 77.9461 -5382
v 1007 77.5084 -5384
v 1007 77.3452 -5386
v 1007 77.008 -5388
v 1007 76.6868 -5390
v 1009 78.7089 -5328
v 1009 78.806 -5330
v 1009 78.8581 -5332
v 1009 78.8446 -5334
v 1009 78.8714 -5336
v 1009 79.1172 -5338
v 1009 79.5436 -5340
v 1009 79.8782 -5342
v 1009 82.6008 -5344
v 1009 84.7443 -5346
v 1009 86.3189 -5348
v 1009 86.6798 -5350
v 1009 86.0022 -5352
v 1009 82.3247 -5354
v 1009 80.388 -5356
v 1009 80.1317 -5358
v 1009 79.8644 -5360
v 1009 79.7359 -5362
v 1009 79.4216 -5364
v 1009 79.3393 -5366
v 1009 79.0424 -5368
v 1009 78.9747 -5370
v 1009 78.7426 -5372
v 1009 78.6375 -5374
v 1009 78.378 -5376
v 1009 78.4421 -5378
v 1009 78.1933 -5380
v 1009 78.0795 -5382
v 1009 77.6125 -5384
v 1009 77.3804 -5386
v 1009 77.1139 -5388
v 1009 76.9673 -5390
v 1011 78.9526 -5328
v 1011 78.9086 -5330
v 1011 78.924 -5332
v 1011 79.0127 -5334
v 1011 79.3219 -5336
v 1011 79.7265 -5338
v 1011 80.2208 -5340
v 1011 80.6789 -5342
v 1011 81.2399 -5344
v 1011 83.9921 -5346
v 1011 86.8455 -5348
v 1011 87.9849 -5350
v 1011 88.3185 -5352
v 1011 87.0051 -5354
v 1011 84.8131 -5356
v 1011 83.6971 -5358
v 1011 83.2964 -5360
v 1011 80.4474 -5362
v 1011 80.003 -5364
v 1011 79.7305 -5366
v 1011 79.3666 -5368
v 1011 79.1154 -5370
v 1011 78.9789 -5372
v 1011 78.8251 -5374
v 1011 78.4672 -5376
v 1011 78.4116 -5378
v 1011 78.254 -5380
v 1011 78.0162 -5382
v 1011 77.7371 -5384
v 1011 77.5323 -5386
v 1011 77.1426 -5388
v 1011 76.9712 -5390
v 1013 79.0908 -5328
v 1013 79.1655 -5330
v 1013 79.3104 -5332
v 1013 79.4743 -5334
v 1013 80.3209 -5336
v 1013 80.8622 -5338
v 1013 81.7485 -5340
v 1013 82.3381 -5342
v 1013 82.9378 -5344
v 1013 82.8965 -5346
v 1013 86.586 -5348
v 1013 88.8362 -5350
v 1013 89.8589 -5352
v 1013 89.5344 -5354
v 1013 89.3894 -5356
v 1013 88.5243 -5358
v 1013 87.6537 -5360
v 1013 86.5854 -5362
v 1013 84.2089 -5364
v 1013 80.2292 -5366
v 1013 79.6867 -5368
v 1013 79.3022 -5370
v 1013 79.1609 -5372
v 1013 78.9326 -5374
v 1013 78.6464 -5376
v 1013 78.5419 -5378
v 1013 78.3192 -5380
v 1013 78.1243 -5382
v 1013 77.7102 -5384
v 1013 77.592 -5386
v 1013 77.3757 -5388
v 1013 77.1512 -5390
v 1015 79.3194 -5328
v 1015 79.7264 -5330
v 1015 80.2497 -5332
v 1015 80.6319 -5334
v 1015 81.7329 -5336
v 1015 82.551 -5338
v 1015 83.4284 -5340
v 1015 84.0327 -5342
v 1015 84.6846 -5344
v 1015 84.8254 -5346
v 1015 85.1609 -5348
v 1015 89.0011 -5350
v 1015 91.4587 -5352
v 1015 92.4661 -5354
v 1015 92.5154 -5356
v 1015 91.7543 -5358
v 1015 90.0665 -5360
v 1015 88.4361 -5362
v 1015 86.44 -5364
v 1015 84.9113 -5366
v 1015 83.4699 -5368
v 1015 81.2116 -5370
v 1015 79.2601 -5372
v 1015 79.1267 -5374
v 1015 78.8451 -5376
v 1015 78.686 -5378
v 1015 78.4226 -5380
v 1015 78.2069 -5382
v 1015 77.8627 -5384
v 1015 77.786 -5386
v 1015 77.47 -5388
v 1015 77.2779 -5390
v 1017 80.2306 -5328
v 1017 80.8558 -5330
v 1017 81.5809 -5332
v 1017 82.3514 -5334
v 1017 83.5775 -5336
v 1017 84.4052 -5338
v 1017 85.1858 -5340
v 1017 85.7926 -5342
v 1017 86.4328 -5344
v 1017 86.8465 -5346
v 1017 86.7926 -5348
v 1017 91.0096 -5350
v 1017 93.565 -5352
v 1017 94.5074 -5354
v 1017 94.7418 -5356
v 1017 93.5103 -5358
v 1017 91.0388 -5360
v 1017 88.7505 -5362
v 1017 87.6501 -5364
v 1017 86.5227 -5366
v 1017 85.8685 -5368
v 1017 84.4808 -5370
v 1017 80.9757 -5372
v 1017 79.2478 -5374
v 1017 79.025 -5376
v 1017 78.8298 -5378
v 1017 78.5294 -5380
v 1017 78.3787 -5382
v 1017 78.0079 -5384
v 1017 77.9365 -5386
v 1017 77.7959 -5388
v 1017 77.5216 -5390
v 1019 81.7723 -5328
v 1019 82.6641 -5330
v 1019 83.4059 -5332
v 1019 84.075 -5334
v 1019 85.1027 -5336
v 1019 86.183 -5338
v 1019 87.1833 -5340
v 1019 87.7405 -5342
v 1019 88.0958 -5344
v 1019 89.8117 -5346
v 1019 93.0164 -5348
v 1019 94.3861 -5350
v 1019 96.173 -5352
v 1019 96.869 -5354
v 1019 95.9642 -5356
v 1019 94.0766 -5358
v 1019 90.6944 -5360
v 1019 87.5867 -5362
v 1019 87.5127 -5364
v 1019 87.4215 -5366
v 1019 87.7984 -5368
v 1019 86.4352 -5370
v 1019 83.0884 -5372
v 1019 79.3103 -5374
v 1019 79.1553 -5376
v 1019 79.0406 -5378
v 1019 78.816 -5380
v 1019 78.5214 -5382
v 1019 78.3331 -5384
v 1019 78.1422 -5386
v 1019 77.9745 -5388
v 1019 77.7992 -5390
v 1021 83.6269 -5328
v 1021 84.3621 -5330
v 1021 85.1623 -5332
v 1021 86.1338 -5334
v 1021 87.2036 -5336
v 1021 88.135 -5338
v 1021 88.6596 -5340
v 1021 91.5717 -5342
v 1021 93.431 -5344
v 1021 95.2433 -5346
v 1021 96.6082 -5348
v 1021 97.6566 -5350
v 1021 98.0148 -5352
v 1021 98.327 -5354
v 1021 96.787 -5356
v 1021 94.8826 -5358
v 1021 91.8248 -5360
v 1021 89.1559 -5362
v 1021 89.4511 -5364
v 1021 88.853 -5366
v 1021 88.6977 -5368
v 1021 87.6571 -5370
v 1021 85.6471 -5372
v 1021 81.1584 -5374
v 1021 79.332 -5376
v 1021 79.2277 -5378
v 1021 78.8568 -5380
v 1021 78.6757 -5382
v 1021 78.5423 -5384
v 1021 78.3313 -5386
v 1021 78.2167 -5388
v 1021 77.8844 -5390
v 1023 85.5035 -5328
v 1023 86.4986 -5330
v 1023 87.219 -5332
v 1023 88.3176 -5334
v 1023 89.2836 -5336
v 1023 92.0357 -5338
v 1023 93.7794 -5340
v 1023 94.4257 -5342
v 1023 94.9173 -5344
v 1023 95.5503 -5346
v 1023 96.1681 -5348
v 1023 96.9233 -5350
v 1023 97.5645 -5352
v 1023 98.108 -5354
v 1023 98.2169 -5356
v 1023 97.0172 -5358
v 1023 95.1614 -5360
v 1023 93.6629 -5362
v 1023 93.1074 -5364
v 1023 91.7858 -5366
v 1023 91.2667 -5368
v 1023 89.8478 -5370
v 1023 87.3697 -5372
v 1023 84.8799 -5374
v 1023 81.0073 -5376
v 1023 79.2204 -5378
v 1023 79.0948 -5380
v 1023 78.8389 -5382
v 1023 78.7264 -5384
v 1023 78.5476 -5386
v 1023 78.3704 -5388
v 1023 78.2091 -5390
v 1025 87.3686 -5328
v 1025 88.387 -5330
v 1025 89.2654 -5332
v 1025 89.4307 -5334
v 1025 89.9633 -5336
v 1025 92.0142 -5338
v 1025 93.4483 -5340
v 1025 94.6379 -5342
v 1025 95.3485 -5344
v 1025 95.4266 -5346
v 1025 95.2899 -5348
v 1025 95.536 -5350
v 1025 95.7811 -5352
v 1025 96.5144 -5354
v 1025 97.5439 -5356
v 1025 98.4881 -5358
v 1025 98.6363 -5360
v 1025 97.6077 -5362
v 1025 96.0444 -5364
v 1025 94.363 -5366
v 1025 92.551 -5368
v 1025 90.9678 -5370
v 1025 88.9275 -5372
v 1025 86.9692 -5374
v 1025 83.9561 -5376
v 1025 79.2689 -5378
v 1025 79.1644 -5380
v 1025 79.0462 -5382
v 1025 78.7442 -5384
v 1025 78.6342 -5386
v 1025 78.5119 -5388
v 1025 78.3147 -5390
v 1027 89.3636 -5328
v 1027 89.3194 -5330
v 1027 88.5392 -5332
v 1027 87.9349 -5334
v 1027 87.6306 -5336
v 1027 89.6655 -5338
v 1027 91.8471 -5340
v 1027 93.9846 -5342
v 1027 95.1208 -5344
v 1027 94.9964 -5346
v 1027 94.53 -5348
v 1027 94.29 -5350
v 1027 94.1321 -5352
v 1027 95.1899 -5354
v 1027 97.0216 -5356
v 1027 98.7407 -5358
v 1027 100.433 -5360
v 1027 100.288 -5362
v 1027 98.1737 -5364
v 1027 95.7308 -5366
v 1027 93.6933 -5368
v 1027 91.8969 -5370
v 1027 89.9813 -5372
v 1027 88.1467 -5374
v 1027 84.5661 -5376
v 1027 79.4576 -5378
v 1027 79.1965 -5380
v 1027 79.1284 -5382
v 1027 80.3023 -5384
v 1027 79.7398 -5386
v 1027 78.5271 -5388
v 1027 78.3818 -5390
v 1029 88.5426 -5328
v 1029 87.9471 -5330
v 1029 87.4859 -5332
v 1029 86.9207 -5334
v 1029 86.6377 -5336
v 1029 86.3355 -5338
v 1029 90.252 -5340
v 1029 93.106 -5342
v 1029 94.7485 -5344
v 1029 95.0505 -5346
v 1029 94.527 -5348
v 1029 94.1685 -5350
v 1029 93.7463 -5352
v 1029 94.4587 -5354
v 1029 96.5851 -5356
v 1029 98.4526 -5358
v 1029 100.298 -5360
v 1029 101.453 -5362
v 1029 99.4037 -5364
v 1029 96.5875 -5366
v 1029 94.3877 -5368
v 1029 92.1522 -5370
v 1029 90.3941 -5372
v 1029 88.0342 -5374
v 1029 85.2301 -5376
v 1029 81.7532 -5378
v 1029 80.9696 -5380
v 1029 82.6643 -5382
v 1029 82.1817 -5384
v 1029 81.0599 -5386
v 1029 78.7093 -5388
v 1029 78.5698 -5390
v 1031 87.5156 -5328
v 1031 86.9454 -5330
v 1031 86.4731 -5332
v 1031 86.167 -5334
v 1031 85.884 -5336
v 1031 85.6548 -5338
v 1031 89.0243 -5340
v 1031 92.1529 -5342
v 1031 94.1892 -5344
v 1031 94.9426 -5346
v 1031 94.9907 -5348
v 1031 94.8915 -5350
v 1031 94.2498 -5352
v 1031 94.1024 -5354
v 1031 95.8376 -5356
v 1031 97.612 -5358
v 1031 99.4206 -5360
v 1031 100.32 -5362
v 1031 99.6467 -5364
v 1031 96.8479 -5366
v 1031 95.067 -5368
v 1031 93.4992 -5370
v 1031 90.7808 -5372
v 1031 87.5189 -5374
v 1031 85.2854 -5376
v 1031 83.0613 -5378
v 1031 83.0776 -5380
v 1031 84.2975 -5382
v 1031 83.9534 -5384
v 1031 81.9345 -5386
v 1031 78.6145 -5388
v 1031 78.6262 -5390
f 105 104 103
f 105 106 104
f 107 106 105
f 80 81 79
f 80 79 78
f 78 79 77
f 78 77 76
f 76 77 74
f 103 102 101
f 103 104 102
f 128 141 126
f 143 141 128
f 143 142 141
f 144 142 143
f 82 81 80
f 140 135 139
f 107 108 106
f 137 135 140
f 67 66 65
f 68 66 67
f 63 62 61
f 64 62 63
f 60 58 59
f 59 58 57
f 29 54 53
f 54 48 53
f 53 48 47
f 55 56 36
f 35 55 36
f 55 49 56
f 25 49 55
f 25 55 27
f 27 55 35
f 9 14 13
f 4 13 14
f 13 4 3
f 27 35 15
f 15 28 27
f 28 26 27
f 27 26 25
f 30 54 29
f 49 50 56
f 16 28 15
f 14 9 10
f 31 30 29
f 48 46 47
f 47 46 45
f 49 51 50
f 23 51 49
f 23 49 25
f 35 36 34
f 33 35 34
f 15 35 33
f 2 3 4
f 3 2 1
f 11 10 9
f 26 24 25
f 25 24 23
f 17 16 15
f 15 33 17
f 51 52 50
f 32 30 31
f 10 11 12
f 18 16 17
f 5 8 7
f 8 5 6
f 6 1 2
f 22 20 21
f 20 18 19
f 19 18 17
f 33 34 40
f 39 40 44
f 43 39 44
f 42 38 41
f 38 32 37
f 37 32 31
f 21 20 19
f 19 43 21
f 17 33 39
f 17 39 19
f 75 74 73
f 76 74 75
f 101 102 100
f 101 100 99
f 82 83 81
f 109 108 107
f 1 6 5
f 19 39 43
f 39 33 40
f 41 38 37
f 137 136 135
f 127 126 125
f 128 126 127
f 109 110 108
f 84 83 82
f 71 70 69
f 72 70 71
f 138 136 137
f 291 290 289
f 292 290 291
f 287 286 285
f 288 286 287
f 507 506 505
f 500 498 499
f 499 498 497
f 508 506 507
f 469 494 493
f 470 494 469
f 471 470 469
f 271 270 269
f 277 272 271
f 272 270 271
f 475 495 476
f 475 476 474
f 455 475 473
f 473 475 474
f 467 495 475
f 467 475 455
f 273 275 274
f 247 275 273
f 247 273 249
f 249 273 279
f 279 273 280
f 273 274 280
f 443 442 441
f 442 443 444
f 453 444 443
f 235 234 233
f 238 233 234
f 233 238 237
f 455 468 467
f 456 468 455
f 457 456 455
f 455 473 457
f 249 279 251
f 251 250 249
f 250 248 249
f 249 248 247
f 495 496 476
f 472 470 471
f 275 276 274
f 278 272 277
f 444 453 454
f 458 456 457
f 234 235 236
f 252 250 251
f 477 472 471
f 253 278 277
f 494 488 493
f 493 488 487
f 265 262 261
f 266 262 265
f 473 474 480
f 457 473 479
f 479 473 480
f 279 280 260
f 259 279 260
f 251 279 259
f 465 495 467
f 465 489 495
f 495 489 496
f 243 267 245
f 243 263 267
f 267 263 268
f 446 441 442
f 441 446 445
f 237 228 227
f 228 237 238
f 449 454 453
f 229 232 231
f 459 458 457
f 457 479 459
f 251 259 239
f 239 252 251
f 467 466 465
f 468 466 467
f 246 244 245
f 245 244 243
f 478 472 477
f 254 278 253
f 489 490 496
f 263 264 268
f 295 294 293
f 296 294 295
f 512 510 511
f 511 510 509
f 460 458 459
f 232 229 230
f 240 252 239
f 454 449 450
f 225 230 229
f 230 225 226
f 244 242 243
f 462 460 461
f 461 460 459
f 448 445 446
f 450 451 452
f 451 450 449
f 466 464 465
f 226 227 228
f 242 240 241
f 241 240 239
f 283 282 281
f 284 282 283
f 504 502 503
f 503 502 501
f 491 492 490
f 489 491 490
f 488 486 487
f 257 258 264
f 262 256 261
f 263 257 264
f 482 478 481
f 479 480 484
f 481 478 477
f 259 260 258
f 256 254 255
f 255 254 253
f 463 489 465
f 465 464 463
f 243 242 241
f 241 263 243
f 459 479 483
f 459 483 461
f 239 257 241
f 239 259 257
f 445 448 447
f 227 226 225
f 463 491 489
f 241 257 263
f 483 479 484
f 257 259 258
f 487 486 485
f 261 256 255
f 98 73 97
f 99 100 124
f 99 124 123
f 75 73 98
f 84 85 83
f 111 110 109
f 127 125 130
f 130 125 129
f 111 112 110
f 86 85 84
f 138 151 136
f 152 151 138
f 130 129 132
f 150 149 152
f 152 149 151
f 132 129 131
f 98 97 96
f 123 124 122
f 88 87 86
f 86 87 85
f 113 114 112
f 113 112 111
f 359 358 357
f 367 366 365
f 360 358 359
f 368 366 367
f 427 426 425
f 428 426 427
f 440 438 439
f 439 438 437
f 123 122 121
f 96 97 94
f 405 400 399
f 400 398 399
f 399 398 397
f 338 334 337
f 343 342 341
f 337 334 333
f 383 403 401
f 383 401 385
f 385 401 407
f 401 402 408
f 407 401 408
f 401 403 402
f 319 347 345
f 347 348 346
f 345 347 346
f 339 335 340
f 315 335 339
f 315 339 317
f 371 370 369
f 374 369 370
f 369 374 373
f 306 307 308
f 307 306 305
f 301 304 303
f 386 384 385
f 387 386 385
f 385 407 387
f 385 384 383
f 317 316 315
f 319 345 321
f 321 320 319
f 318 316 317
f 403 404 402
f 406 400 405
f 344 342 343
f 335 336 340
f 388 386 387
f 370 371 372
f 322 320 321
f 304 301 302
f 397 422 421
f 398 422 397
f 334 328 333
f 333 328 327
f 409 406 405
f 349 344 343
f 395 403 383
f 395 423 403
f 403 423 404
f 313 335 315
f 313 329 335
f 335 329 336
f 387 407 411
f 411 407 412
f 407 408 412
f 321 345 351
f 351 345 352
f 345 346 352
f 381 372 371
f 297 302 301
f 376 373 374
f 373 376 375
f 305 310 309
f 310 305 306
f 384 396 383
f 383 396 395
f 389 388 387
f 387 411 389
f 316 314 315
f 315 314 313
f 323 322 321
f 321 351 323
f 423 424 404
f 329 330 336
f 410 406 409
f 350 344 349
f 363 362 361
f 300 309 310
f 364 362 363
f 436 434 435
f 435 434 433
f 372 381 382
f 390 388 389
f 302 297 298
f 324 322 323
f 378 379 380
f 382 377 378
f 377 382 381
f 393 392 391
f 394 392 393
f 396 394 395
f 311 324 323
f 312 324 311
f 314 312 313
f 298 299 300
f 299 298 297
f 356 354 355
f 355 354 353
f 432 430 431
f 431 430 429
f 415 414 413
f 416 414 415
f 419 420 418
f 351 352 332
f 325 350 349
f 326 350 325
f 423 417 424
f 417 418 424
f 422 416 421
f 329 331 330
f 331 332 330
f 328 326 327
f 391 419 417
f 391 417 393
f 395 394 393
f 393 423 395
f 323 331 311
f 323 351 331
f 313 312 311
f 311 329 313
f 379 378 377
f 309 300 299
f 417 419 418
f 331 351 332
f 393 417 423
f 311 331 329
f 421 416 415
f 327 326 325
f 132 131 134
f 147 145 150
f 150 145 149
f 223 222 221
f 224 222 223
f 215 214 213
f 216 214 215
f 211 210 209
f 212 210 211
f 193 190 189
f 189 184 183
f 190 184 189
f 191 185 192
f 191 192 196
f 169 185 191
f 195 191 196
f 171 191 195
f 169 191 171
f 88 89 87
f 90 89 88
f 115 114 113
f 115 116 114
f 96 94 95
f 121 122 120
f 134 131 133
f 160 157 158
f 153 158 157
f 157 160 159
f 173 172 171
f 171 195 173
f 172 170 171
f 171 170 169
f 194 190 193
f 185 186 192
f 158 153 154
f 174 172 173
f 184 182 183
f 183 182 181
f 199 198 197
f 201 203 202
f 203 204 202
f 175 203 201
f 167 187 185
f 185 187 186
f 167 185 169
f 162 163 164
f 163 162 161
f 155 154 153
f 121 120 119
f 95 94 93
f 175 201 177
f 177 176 175
f 169 168 167
f 170 168 169
f 187 188 186
f 200 198 199
f 178 176 177
f 154 155 156
f 166 161 162
f 168 180 167
f 180 178 179
f 179 178 177
f 156 165 166
f 165 156 155
f 206 200 205
f 205 200 199
f 201 202 208
f 182 206 181
f 207 208 188
f 187 207 188
f 167 180 179
f 179 187 167
f 177 207 179
f 177 201 207
f 161 166 165
f 207 201 208
f 179 207 187
f 181 206 205
f 219 218 217
f 220 218 219
f 147 146 145
f 148 146 147
f 117 118 116
f 92 89 90
f 89 92 91
f 117 116 115
f 574 573 572
f 573 571 572
f 572 571 570
f 571 569 570
f 570 569 568
f 549 548 547
f 550 548 549
f 545 544 543
f 546 544 545
f 537 536 535
f 533 532 531
f 534 532 533
f 529 528 527
f 530 528 529
f 538 536 537
f 513 526 525
f 526 524 525
f 525 524 523
f 514 526 513
f 516 514 515
f 524 522 523
f 515 514 513
f 523 522 521
f 517 516 515
f 518 516 517
f 519 518 517
f 520 518 519
f 542 540 541
f 541 540 539
f 569 567 568
f 568 567 566
f 576 575 574
f 575 573 574
f 595 554 594
f 555 554 595
f 596 555 595
f 594 593 592
f 554 593 594
f 662 661 660
f 670 669 668
f 663 661 662
f 671 669 670
f 675 673 674
f 658 657 656
f 659 657 658
f 785 783 784
f 772 771 770
f 768 767 766
f 769 767 768
f 788 787 786
f 789 787 788
f 784 783 782
f 592 591 590
f 593 591 592
f 577 575 576
f 552 555 596
f 597 552 596
f 555 552 553
f 555 553 554
f 553 593 554
f 753 765 752
f 754 753 752
f 755 753 754
f 752 765 764
f 649 647 648
f 648 647 646
f 650 649 648
f 651 649 650
f 666 665 664
f 667 665 666
f 674 673 672
f 780 779 778
f 781 779 780
f 773 771 772
f 757 755 756
f 756 755 754
f 645 643 644
f 644 643 642
f 638 651 650
f 639 651 638
f 765 763 764
f 764 763 762
f 643 641 642
f 642 641 640
f 758 757 756
f 759 757 758
f 763 761 762
f 762 761 760
f 641 639 640
f 640 639 638
f 654 653 652
f 655 653 654
f 776 775 774
f 777 775 776
f 591 593 553
f 553 552 551
f 551 552 597
f 578 577 576
f 567 565 566
f 566 565 564
f 579 577 578
f 598 551 597
f 591 589 590
f 590 589 588
f 551 599 553
f 599 551 598
f 591 553 589
f 587 589 553
f 587 553 585
f 585 553 583
f 553 581 583
f 553 599 581
f 581 599 580
f 580 599 598
f 589 587 588
f 557 579 556
f 556 579 578
f 565 563 564
f 588 587 586
f 564 563 562
f 704 703 702
f 705 703 704
f 701 699 700
f 712 711 710
f 713 711 712
f 700 699 698
f 697 695 696
f 742 741 740
f 743 741 742
f 734 733 732
f 735 733 734
f 731 729 730
f 750 749 748
f 730 729 728
f 587 585 586
f 582 581 580
f 583 581 582
f 716 715 714
f 717 715 716
f 718 717 716
f 719 717 718
f 687 685 686
f 686 685 684
f 682 681 680
f 683 681 682
f 708 707 706
f 709 707 708
f 696 695 694
f 747 745 746
f 746 745 744
f 751 749 750
f 715 727 714
f 714 727 726
f 720 719 718
f 721 719 720
f 681 679 680
f 680 679 678
f 689 687 688
f 688 687 686
f 725 723 724
f 724 723 722
f 727 725 726
f 726 725 724
f 676 689 688
f 677 689 676
f 678 677 676
f 679 677 678
f 692 691 690
f 693 691 692
f 738 737 736
f 739 737 738
f 586 585 584
f 585 583 584
f 584 583 582
f 563 561 562
f 558 557 556
f 559 557 558
f 561 559 560
f 562 561 560
f 560 559 558
f 629 627 628
f 624 623 622
f 625 623 624
f 621 619 620
f 620 619 618
f 617 615 616
f 628 627 626
f 637 635 636
f 636 635 634
f 616 615 614
f 607 605 606
f 606 605 604
f 605 603 604
f 604 603 602
f 611 609 610
f 610 609 608
f 603 601 602
f 602 601 600
f 600 613 612
f 601 613 600
f 612 611 610
f 613 611 612
f 632 631 630
f 633 631 632
f 792 791 790
f 791 792 793
f 794 793 792
f 794 795 793
f 796 795 794
f 815 795 816
f 797 816 795
f 795 815 793
f 795 796 797
f 793 815 814
f 793 814 791
f 790 813 812
f 790 791 813
f 798 797 796
f 798 799 797
f 799 817 797
f 797 817 816
f 791 825 813
f 825 791 814
f 816 827 815
f 827 816 828
f 817 828 816
f 815 826 814
f 815 827 826
f 814 837 825
f 837 814 826
f 817 799 818
f 817 829 828
f 818 829 817
f 827 838 826
f 828 838 827
f 828 829 838
f 812 811 810
f 811 812 813
f 800 799 798
f 813 824 811
f 813 825 824
f 830 838 829
f 829 818 830
f 801 818 799
f 799 800 801
f 837 826 838
f 825 836 824
f 825 837 836
f 819 830 818
f 801 819 818
f 837 838 836
f 819 831 830
f 830 831 838
f 835 838 834
f 835 836 838
f 834 838 833
f 832 833 838
f 832 838 831
f 820 831 819
f 831 820 832
f 835 824 836
f 824 835 823
f 823 811 824
f 803 819 801
f 819 803 820
f 821 832 820
f 821 833 832
f 802 801 800
f 802 803 801
f 823 835 834
f 811 823 809
f 810 811 809
f 810 809 808
f 833 822 834
f 823 834 822
f 822 833 821
f 805 821 820
f 805 820 803
f 809 823 822
f 809 822 807
f 821 807 822
f 807 821 805
f 807 808 809
f 803 804 805
f 804 803 802
f 808 807 806
f 806 807 805
f 806 805 804
f 857 855 842
f 857 856 855
f 858 856 857
f 854 850 853
f 849 850 854
f 842 855 840
f 851 850 849
f 842 840 841
f 841 840 839
f 851 852 850
f 841 839 844
f 844 839 843
f 866 865 851
f 851 865 852
f 844 843 846
f 846 843 845
f 866 863 865
f 864 863 866
f 864 859 863
f 861 859 864
f 846 845 848
f 848 845 847
f 862 860 861
f 861 860 859
f 901 900 899
f 902 900 901
f 905 904 903
f 906 904 905
f 874 872 873
f 873 872 871
f 870 868 869
f 869 868 867
f 889 888 887
f 890 888 889
f 885 884 883
f 886 884 885
f 897 896 895
f 898 896 897
f 893 892 891
f 894 892 893
f 881 880 879
f 882 880 881
f 878 876 877
f 877 876 875
f 907 908 909
f 909 908 910
f 911 912 913
f 913 912 914
f 915 916 917
f 917 916 918
f 919 920 921
f 921 920 922
f 923 924 925
f 925 924 926
f 927 928 929
f 929 928 930
f 931 932 933
f 933 932 934
f 935 936 937
f 937 936 938
f 939 940 941
f 941 940 942
f 943 944 945
f 945 944 946
f 947 948 949
f 949 948 950
f 951 952 953
f 953 952 954
f 955 956 957
f 957 956 958
f 959 960 961
f 961 960 962
f 963 964 965
f 965 964 966
f 967 968 969
f 969 968 970
f 971 972 973
f 973 972 974
f 975 976 977
f 977 976 978
f 979 980 981
f 981 980 982
f 983 984 985
f 985 984 986
f 987 988 989
f 989 988 990
f 991 992 993
f 993 992 994
f 995 996 997
f 997 996 998
f 999 1000 1001
f 1001 1000 1002
f 1036 1004 1003
f 1003 1035 1036
f 1068 1036 1035
f 1035 1067 1068
f 1100 1068 1067
f 1067 1099 1100
f 1132 1100 1099
f 1099 1131 1132
f 1164 1132 1131
f 1131 1163 1164
f 1196 1164 1163
f 1163 1195 1196
f 1228 1196 1195
f 1195 1227 1228
f 1260 1228 1227
f 1227 1259 1260
f 1292 1260 1259
f 1259 1291 1292
f 1324 1292 1291
f 1291 1323 1324
f 1356 1324 1323
f 1323 1355 1356
f 1388 1356 1355
f 1355 1387 1388
f 1420 1388 1387
f 1387 1419 1420
f 1452 1420 1419
f 1419 1451 1452
f 1484 1452 1451
f 1451 1483 1484
f 1516 1484 1483
f 1483 1515 1516
f 1548 1516 1515
f 1515 1547 1548
f 1580 1548 1547
f 1547 1579 1580
f 1612 1580 1579
f 1579 1611 1612
f 1644 1612 1611
f 1611 1643 1644
f 1676 1644 1643
f 1643 1675 1676
f 1708 1676 1675
f 1675 1707 1708
f 1740 1708 1707
f 1707 1739 1740
f 1772 1740 1739
f 1739 1771 1772
f 1804 1772 1771
f 1771 1803 1804
f 1836 1804 1803
f 1803 1835 1836
f 1868 1836 1835
f 1835 1867 1868
f 1900 1868 1867
f 1867 1899 1900
f 1932 1900 1899
f 1899 1931 1932
f 1964 1932 1931
f 1931 1963 1964
f 1996 1964 1963
f 1963 1995 1996
f 1037 1005 1004
f 1004 1036 1037
f 1069 1037 1036
f 1036 1068 1069
f 1101 1069 1068
f 1068 1100 1101
f 1133 1101 1100
f 1100 1132 1133
f 1165 1133 1132
f 1132 1164 1165
f 1197 1165 1164
f 1164 1196 1197
f 1229 1197 1196
f 1196 1228 1229
f 1261 1229 1228
f 1228 1260 1261
f 1293 1261 1260
f 1260 1292 1293
f 1325 1293 1292
f 1292 1324 1325
f 1357 1325 1324
f 1324 1356 1357
f 1389 1357 1356
f 1356 1388 1389
f 1421 1389 1388
f 1388 1420 1421
f 1453 1421 1420
f 1420 1452 1453
f 1485 1453 1452
f 1452 1484 1485
f 1517 1485 1484
f 1484 1516 1517
f 1549 1517 1516
f 1516 1548 1549
f 1581 1549 1548
f 1548 1580 1581
f 1613 1581 1580
f 1580 1612 1613
f 1645 1613 1612
f 1612 1644 1645
f 1677 1645 1644
f 1644 1676 1677
f 1709 1677 1676
f 1676 1708 1709
f 1741 1709 1708
f 1708 1740 1741
f 1773 1741 1740
f 1740 1772 1773
f 1805 1773 1772
f 1772 1804 1805
f 1837 1805 1804
f 1804 1836 1837
f 1869 1837 1836
f 1836 1868 1869
f 1901 1869 1868
f 1868 1900 1901
f 1933 1901 1900
f 1900 1932 1933
f 1965 1933 1932
f 1932 1964 1965
f 1997 1965 1964
f 1964 1996 1997
f 1038 1006 1005
f 1005 1037 1038
f 1070 1038 1037
f 1037 1069 1070
f 1102 1070 1069
f 1069 1101 1102
f 1134 1102 1101
f 1101 1133 1134
f 1166 1134 1133
f 1133 1165 1166
f 1198 1166 1165
f 1165 1197 1198
f 1230 1198 1197
f 1197 1229 1230
f 1262 1230 1229
f 1229 1261 1262
f 1294 1262 1261
f 1261 1293 1294
f 1326 1294 1293
f 1293 1325 1326
f 1358 1326 1325
f 1325 1357 1358
f 1390 1358 1357
f 1357 1389 1390
f 1422 1390 1389
f 1389 1421 1422
f 1454 1422 1421
f 1421 1453 1454
f 1486 1454 1453
f 1453 1485 1486
f 1518 1486 1485
f 1485 1517 1518
f 1550 1518 1517
f 1517 1549 1550
f 1582 1550 1549
f 1549 1581 1582
f 1614 1582 1581
f 1581 1613 1614
f 1646 1614 1613
f 1613 1645 1646
f 1678 1646 1645
f 1645 1677 1678
f 1710 1678 1677
f 1677 1709 1710
f 1742 1710 1709
f 1709 1741 1742
f 1774 1742 1741
f 1741 1773 1774
f 1806 1774 1773
f 1773 1805 1806
f 1838 1806 1805
f 1805 1837 1838
f 1870 1838 1837
f 1837 1869 1870
f 1902 1870 1869
f 1869 1901 1902
f 1934 1902 1901
f 1901 1933 1934
f 1966 1934 1933
f 1933 1965 1966
f 1998 1966 1965
f 1965 1997 1998
f 1039 1007 1006
f 1006 1038 1039
f 1071 1039 1038
f 1038 1070 1071
f 1103 1071 1070
f 1070 1102 1103
f 1135 1103 1102
f 1102 1134 1135
f 1167 1135 1134
f 1134 1166 1167
f 1199 1167 1166
f 1166 1198 1199
f 1231 1199 1198
f 1198 1230 1231
f 1263 1231 1230
f 1230 1262 1263
f 1295 1263 1262
f 1262 1294 1295
f 1327 1295 1294
f 1294 1326 1327
f 1359 1327 1326
f 1326 1358 1359
f 1391 1359 1358
f 1358 1390 1391
f 1423 1391 1390
f 1390 1422 1423
f 1455 1423 1422
f 1422 1454 1455
f 1487 1455 1454
f 1454 1486 1487
f 1519 1487 1486
f 1486 1518 1519
f 1551 1519 1518
f 1518 1550 1551
f 1583 1551 1550
f 1550 1582 1583
f 1615 1583 1582
f 1582 1614 1615
f 1647 1615 1614
f 1614 1646 1647
f 1679 1647 1646
f 1646 1678 1679
f 1711 1679 1678
f 1678 1710 1711
f 1743 1711 1710
f 1710 1742 1743
f 1775 1743 1742
f 1742 1774 1775
f 1807 1775 1774
f 1774 1806 1807
f 1839 1807 1806
f 1806 1838 1839
f 1871 1839 1838
f 1838 1870 1871
f 1903 1871 1870
f 1870 1902 1903
f 1935 1903 1902
f 1902 1934 1935
f 1967 1935 1934
f 1934 1966 1967
f 1999 1967 1966
f 1966 1998 1999
f 1040 1008 1007
f 1007 1039 1040
f 1072 1040 1039
f 1039 1071 1072
f 1104 1072 1071
f 1071 1103 1104
f 1136 1104 1103
f 1103 1135 1136
f 1168 1136 1135
f 1135 1167 1168
f 1200 1168 1167
f 1167 1199 1200
f 1232 1200 1199
f 1199 1231 1232
f 1264 1232 1231
f 1231 1263 1264
f 1296 1264 1263
f 1263 1295 1296
f 1328 1296 1295
f 1295 1327 1328
f 1360 1328 1327
f 1327 1359 1360
f 1392 1360 1359
f 1359 1391 1392
f 1424 1392 1391
f 1391 1423 1424
f 1456 1424 1423
f 1423 1455 1456
f 1488 1456 1455
f 1455 1487 1488
f 1520 1488 1487
f 1487 1519 1520
f 1552 1520 1519
f 1519 1551 1552
f 1584 1552 1551
f 1551 1583 1584
f 1616 1584 1583
f 1583 1615 1616
f 1648 1616 1615
f 1615 1647 1648
f 1680 1648 1647
f 1647 1679 1680
f 1712 1680 1679
f 1679 1711 1712
f 1744 1712 1711
f 1711 1743 1744
f 1776 1744 1743
f 1743 1775 1776
f 1808 1776 1775
f 1775 1807 1808
f 1840 1808 1807
f 1807 1839 1840
f 1872 1840 1839
f 1839 1871 1872
f 1904 1872 1871
f 1871 1903 1904
f 1936 1904 1903
f 1903 1935 1936
f 1968 1936 1935
f 1935 1967 1968
f 2000 1968 1967
f 1967 1999 2000
f 1041 1009 1008
f 1008 1040 1041
f 1073 1041 1040
f 1040 1072 1073
f 1105 1073 1072
f 1072 1104 1105
f 1137 1105 1104
f 1104 1136 1137
f 1169 1137 1136
f 1136 1168 1169
f 1201 1169 1168
f 1168 1200 1201
f 1233 1201 1200
f 1200 1232 1233
f 1265 1233 1232
f 1232 1264 1265
f 1297 1265 1264
f 1264 1296 1297
f 1329 1297 1296
f 1296 1328 1329
f 1361 1329 1328
f 1328 1360 1361
f 1393 1361 1360
f 1360 1392 1393
f 1425 1393 1392
f 1392 1424 1425
f 1457 1425 1424
f 1424 1456 1457
f 1489 1457 1456
f 1456 1488 1489
f 1521 1489 1488
f 1488 1520 1521
f 1553 1521 1520
f 1520 1552 1553
f 1585 1553 1552
f 1552 1584 1585
f 1617 1585 1584
f 1584 1616 1617
f 1649 1617 1616
f 1616 1648 1649
f 1681 1649 1648
f 1648 1680 1681
f 1713 1681 1680
f 1680 1712 1713
f 1745 1713 1712
f 1712 1744 1745
f 1777 1745 1744
f 1744 1776 1777
f 1809 1777 1776
f 1776 1808 1809
f 1841 1809 1808
f 1808 1840 1841
f 1873 1841 1840
f 1840 1872 1873
f 1905 1873 1872
f 1872 1904 1905
f 1937 1905 1904
f 1904 1936 1937
f 1969 1937 1936
f 1936 1968 1969
f 2001 1969 1968
f 1968 2000 2001
f 1042 1010 1009
f 1009 1041 1042
f 1074 1042 1041
f 1041 1073 1074
f 1106 1074 1073
f 1073 1105 1106
f 1138 1106 1105
f 1105 1137 1138
f 1170 1138 1137
f 1137 1169 1170
f 1202 1170 1169
f 1169 1201 1202
f 1234 1202 1201
f 1201 1233 1234
f 1266 1234 1233
f 1233 1265 1266
f 1298 1266 1265
f 1265 1297 1298
f 1330 1298 1297
f 1297 1329 1330
f 1362 1330 1329
f 1329 1361 1362
f 1394 1362 1361
f 1361 1393 1394
f 1426 1394 1393
f 1393 1425 1426
f 1458 1426 1425
f 1425 1457 1458
f 1490 1458 1457
f 1457 1489 1490
f 1522 1490 1489
f 1489 1521 1522
f 1554 1522 1521
f 1521 1553 1554
f 1586 1554 1553
f 1553 1585 1586
f 1618 1586 1585
f 1585 1617 1618
f 1650 1618 1617
f 1617 1649 1650
f 1682 1650 1649
f 1649 1681 1682
f 1714 1682 1681
f 1681 1713 1714
f 1746 1714 1713
f 1713 1745 1746
f 1778 1746 1745
f 1745 1777 1778
f 1810 1778 1777
f 1777 1809 1810
f 1842 1810 1809
f 1809 1841 1842
f 1874 1842 1841
f 1841 1873 1874
f 1906 1874 1873
f 1873 1905 1906
f 1938 1906 1905
f 1905 1937 1938
f 1970 1938 1937
f 1937 1969 1970
f 2002 1970 1969
f 1969 2001 2002
f 1043 1011 1010
f 1010 1042 1043
f 1075 1043 1042
f 1042 1074 1075
f 1107 1075 1074
f 1074 1106 1107
f 1139 1107 1106
f 1106 1138 1139
f 1171 1139 1138
f 1138 1170 1171
f 1203 1171 1170
f 1170 1202 1203
f 1235 1203 1202
f 1202 1234 1235
f 1267 1235 1234
f 1234 1266 1267
f 1299 1267 1266
f 1266 1298 1299
f 1331 1299 1298
f 1298 1330 1331
f 1363 1331 1330
f 1330 1362 1363
f 1395 1363 1362
f 1362 1394 1395
f 1427 1395 1394
f 1394 1426 1427
f 1459 1427 1426
f 1426 1458 1459
f 1491 1459 1458
f 1458 1490 1491
f 1523 1491 1490
f 1490 1522 1523
f 1555 1523 1522
f 1522 1554 1555
f 1587 1555 1554
f 1554 1586 1587
f 1619 1587 1586
f 1586 1618 1619
f 1651 1619 1618
f 1618 1650 1651
f 1683 1651 1650
f 1650 1682 1683
f 1715 1683 1682
f 1682 1714 1715
f 1747 1715 1714
f 1714 1746 1747
f 1779 1747 1746
f 1746 1778 1779
f 1811 1779 1778
f 1778 1810 1811
f 1843 1811 1810
f 1810 1842 1843
f 1875 1843 1842
f 1842 1874 1875
f 1907 1875 1874
f 1874 1906 1907
f 1939 1907 1906
f 1906 1938 1939
f 1971 1939 1938
f 1938 1970 1971
f 2003 1971 1970
f 1970 2002 2003
f 1044 1012 1011
f 1011 1043 1044
f 1076 1044 1043
f 1043 1075 1076
f 1108 1076 1075
f 1075 1107 1108
f 1140 1108 1107
f 1107 1139 1140
f 1172 1140 1139
f 1139 1171 1172
f 1204 1172 1171
f 1171 1203 1204
f 1236 1204 1203
f 1203 1235 1236
f 1268 1236 1235
f 1235 1267 1268
f 1300 1268 1267
f 1267 1299 1300
f 1332 1300 1299
f 1299 1331 1332
f 1364 1332 1331
f 1331 1363 1364
f 1396 1364 1363
f 1363 1395 1396
f 1428 1396 1395
f 1395 1427 1428
f 1460 1428 1427
f 1427 1459 1460
f 1492 1460 1459
f 1459 1491 1492
f 1524 1492 1491
f 1491 1523 1524
f 1556 1524 1523
f 1523 1555 1556
f 1588 1556 1555
f 1555 1587 1588
f 1620 1588 1587
f 1587 1619 1620
f 1652 1620 1619
f 1619 1651 1652
f 1684 1652 1651
f 1651 1683 1684
f 1716 1684 1683
f 1683 1715 1716
f 1748 1716 1715
f 1715 1747 1748
f 1780 1748 1747
f 1747 1779 1780
f 1812 1780 1779
f 1779 1811 1812
f 1844 1812 1811
f 1811 1843 1844
f 1876 1844 1843
f 1843 1875 1876
f 1908 1876 1875
f 1875 1907 1908
f 1940 1908 1907
f 1907 1939 1940
f 1972 1940 1939
f 1939 1971 1972
f 2004 1972 1971
f 1971 2003 2004
f 1045 1013 1012
f 1012 1044 1045
f 1077 1045 1044
f 1044 1076 1077
f 1109 1077 1076
f 1076 1108 1109
f 1141 1109 1108
f 1108 1140 1141
f 1173 1141 1140
f 1140 1172 1173
f 1205 1173 1172
f 1172 1204 1205
f 1237 1205 1204
f 1204 1236 1237
f 1269 1237 1236
f 1236 1268 1269
f 1301 1269 1268
f 1268 1300 1301
f 1333 1301 1300
f 1300 1332 1333
f 1365 1333 1332
f 1332 1364 1365
f 1397 1365 1364
f 1364 1396 1397
f 1429 1397 1396
f 1396 1428 1429
f 1461 1429 1428
f 1428 1460 1461
f 1493 1461 1460
f 1460 1492 1493
f 1525 1493 1492
f 1492 1524 1525
f 1557 1525 1524
f 1524 1556 1557
f 1589 1557 1556
f 1556 1588 1589
f 1621 1589 1588
f 1588 1620 1621
f 1653 1621 1620
f 1620 1652 1653
f 1685 1653 1652
f 1652 1684 1685
f 1717 1685 1684
f 1684 1716 1717
f 1749 1717 1716
f 1716 1748 1749
f 1781 1749 1748
f 1748 1780 1781
f 1813 1781 1780
f 1780 1812 1813
f 1845 1813 1812
f 1812 1844 1845
f 1877 1845 1844
f 1844 1876 1877
f 1909 1877 1876
f 1876 1908 1909
f 1941 1909 1908
f 1908 1940 1941
f 1973 1941 1940
f 1940 1972 1973
f 2005 1973 1972
f 1972 2004 2005
f 1046 1014 1013
f 1013 1045 1046
f 1078 1046 1045
f 1045 1077 1078
f 1110 1078 1077
f 1077 1109 1110
f 1142 1110 1109
f 1109 1141 1142
f 1174 1142 1141
f 1141 1173 1174
f 1206 1174 1173
f 1173 1205 1206
f 1238 1206 1205
f 1205 1237 1238
f 1270 1238 1237
f 1237 1269 1270
f 1302 1270 1269
f 1269 1301 1302
f 1334 1302 1301
f 1301 1333 1334
f 1366 1334 1333
f 1333 1365 1366
f 1398 1366 1365
f 1365 1397 1398
f 1430 1398 1397
f 1397 1429 1430
f 1462 1430 1429
f 1429 1461 1462
f 1494 1462 1461
f 1461 1493 1494
f 1526 1494 1493
f 1493 1525 1526
f 1558 1526 1525
f 1525 1557 1558
f 1590 1558 1557
f 1557 1589 1590
f 1622 1590 1589
f 1589 1621 1622
f 1654 1622 1621
f 1621 1653 1654
f 1686 1654 1653
f 1653 1685 1686
f 1718 1686 1685
f 1685 1717 1718
f 1750 1718 1717
f 1717 1749 1750
f 1782 1750 1749
f 1749 1781 1782
f 1814 1782 1781
f 1781 1813 1814
f 1846 1814 1813
f 1813 1845 1846
f 1878 1846 1845
f 1845 1877 1878
f 1910 1878 1877
f 1877 1909 1910
f 1942 1910 1909
f 1909 1941 1942
f 1974 1942 1941
f 1941 1973 1974
f 2006 1974 1973
f 1973 2005 2006
f 1047 1015 1014
f 1014 1046 1047
f 1079 1047 1046
f 1046 1078 1079
f 1111 1079 1078
f 1078 1110 1111
f 1143 1111 1110
f 1110 1142 1143
f 1175 1143 1142
f 1142 1174 1175
f 1207 1175 1174
f 1174 1206 1207
f 1239 1207 1206
f 1206 1238 1239
f 1271 1239 1238
f 1238 1270 1271
f 1303 1271 1270
f 1270 1302 1303
f 1335 1303 1302
f 1302 1334 1335
f 1367 1335 1334
f 1334 1366 1367
f 1399 1367 1366
f 1366 1398 1399
f 1431 1399 1398
f 1398 1430 1431
f 1463 1431 1430
f 1430 1462 1463
f 1495 1463 1462
f 1462 1494 1495
f 1527 1495 1494
f 1494 1526 1527
f 1559 1527 1526
f 1526 1558 1559
f 1591 1559 1558
f 1558 1590 1591
f 1623 1591 1590
f 1590 1622 1623
f 1655 1623 1622
f 1622 1654 1655
f 1687 1655 1654
f 1654 1686 1687
f 1719 1687 1686
f 1686 1718 1719
f 1751 1719 1718
f 1718 1750 1751
f 1783 1751 1750
f 1750 1782 1783
f 1815 1783 1782
f 1782 1814 1815
f 1847 1815 1814
f 1814 1846 1847
f 1879 1847 1846
f 1846 1878 1879
f 1911 1879 1878
f 1878 1910 1911
f 1943 1911 1910
f 1910 1942 1943
f 1975 1943 1942
f 1942 1974 1975
f 2007 1975 1974
f 1974 2006 2007
f 1048 1016 1015
f 1015 1047 1048
f 1080 1048 1047
f 1047 1079 1080
f 1112 1080 1079
f 1079 1111 1112
f 1144 1112 1111
f 1111 1143 1144
f 1176 1144 1143
f 1143 1175 1176
f 1208 1176 1175
f 1175 1207 1208
f 1240 1208 1207
f 1207 1239 1240
f 1272 1240 1239
f 1239 1271 1272
f 1304 1272 1271
f 1271 1303 1304
f 1336 1304 1303
f 1303 1335 1336
f 1368 1336 1335
f 1335 1367 1368
f 1400 1368 1367
f 1367 1399 1400
f 1432 1400 1399
f 1399 1431 1432
f 1464 1432 1431
f 1431 1463 1464
f 1496 1464 1463
f 1463 1495 1496
f 1528 1496 1495
f 1495 1527 1528
f 1560 1528 1527
f 1527 1559 1560
f 1592 1560 1559
f 1559 1591 1592
f 1624 1592 1591
f 1591 1623 1624
f 1656 1624 1623
f 1623 1655 1656
f 1688 1656 1655
f 1655 1687 1688
f 1720 1688 1687
f 1687 1719 1720
f 1752 1720 1719
f 1719 1751 1752
f 1784 1752 1751
f 1751 1783 1784
f 1816 1784 1783
f 1783 1815 1816
f 1848 1816 1815
f 1815 1847 1848
f 1880 1848 1847
f 1847 1879 1880
f 1912 1880 1879
f 1879 1911 1912
f 1944 1912 1911
f 1911 1943 1944
f 1976 1944 1943
f 1943 1975 1976
f 2008 1976 1975
f 1975 2007 2008
f 1049 1017 1016
f 1016 1048 1049
f 1081 1049 1048
f 1048 1080 1081
f 1113 1081 1080
f 1080 1112 1113
f 1145 1113 1112
f 1112 1144 1145
f 1177 1145 1144
f 1144 1176 1177
f 1209 1177 1176
f 1176 1208 1209
f 1241 1209 1208
f 1208 1240 1241
f 1273 1241 1240
f 1240 1272 1273
f 1305 1273 1272
f 1272 1304 1305
f 1337 1305 1304
f 1304 1336 1337
f 1369 1337 1336
f 1336 1368 1369
f 1401 1369 1368
f 1368 1400 1401
f 1433 1401 1400
f 1400 1432 1433
f 1465 1433 1432
f 1432 1464 1465
f 1497 1465 1464
f 1464 1496 1497
f 1529 1497 1496
f 1496 1528 1529
f 1561 1529 1528
f 1528 1560 1561
f 1593 1561 1560
f 1560 1592 1593
f 1625 1593 1592
f 1592 1624 1625
f 1657 1625 1624
f 1624 1656 1657
f 1689 1657 1656
f 1656 1688 1689
f 1721 1689 1688
f 1688 1720 1721
f 1753 1721 1720
f 1720 1752 1753
f 1785 1753 1752
f 1752 1784 1785
f 1817 1785 1784
f 1784 1816 1817
f 1849 1817 1816
f 1816 1848 1849
f 1881 1849 1848
f 1848 1880 1881
f 1913 1881 1880
f 1880 1912 1913
f 1945 1913 1912
f 1912 1944 1945
f 1977 1945 1944
f 1944 1976 1977
f 2009 1977 1976
f 1976 2008 2009
f 1050 1018 1017
f 1017 1049 1050
f 1082 1050 1049
f 1049 1081 1082
f 1114 1082 1081
f 1081 1113 1114
f 1146 1114 1113
f 1113 1145 1146
f 1178 1146 1145
f 1145 1177 1178
f 1210 1178 1177
f 1177 1209 1210
f 1242 1210 1209
f 1209 1241 1242
f 1274 1242 1241
f 1241 1273 1274
f 1306 1274 1273
f 1273 1305 1306
f 1338 1306 1305
f 1305 1337 1338
f 1370 1338 1337
f 1337 1369 1370
f 1402 1370 1369
f 1369 1401 1402
f 1434 1402 1401
f 1401 1433 1434
f 1466 1434 1433
f 1433 1465 1466
f 1498 1466 1465
f 1465 1497 1498
f 1530 1498 1497
f 1497 1529 1530
f 1562 1530 1529
f 1529 1561 1562
f 1594 1562 1561
f 1561 1593 1594
f 1626 1594 1593
f 1593 1625 1626
f 1658 1626 1625
f 1625 1657 1658
f 1690 1658 1657
f 1657 1689 1690
f 1722 1690 1689
f 1689 1721 1722
f 1754 1722 1721
f 1721 1753 1754
f 1786 1754 1753
f 1753 1785 1786
f 1818 1786 1785
f 1785 1817 1818
f 1850 1818 1817
f 1817 1849 1850
f 1882 1850 1849
f 1849 1881 1882
f 1914 1882 1881
f 1881 1913 1914
f 1946 1914 1913
f 1913 1945 1946
f 1978 1946 1945
f 1945 1977 1978
f 2010 1978 1977
f 1977 2009 2010
f 1051 1019 1018
f 1018 1050 1051
f 1083 1051 1050
f 1050 1082 1083
f 1115 1083 1082
f 1082 1114 1115
f 1147 1115 1114
f 1114 1146 1147
f 1179 1147 1146
f 1146 1178 1179
f 1211 1179 1178
f 1178 1210 1211
f 1243 1211 1210
f 1210 1242 1243
f 1275 1243 1242
f 1242 1274 1275
f 1307 1275 1274
f 1274 1306 1307
f 1339 1307 1306
f 1306 1338 1339
f 1371 1339 1338
f 1338 1370 1371
f 1403 1371 1370
f 1370 1402 1403
f 1435 1403 1402
f 1402 1434 1435
f 1467 1435 1434
f 1434 1466 1467
f 1499 1467 1466
f 1466 1498 1499
f 1531 1499 1498
f 1498 1530 1531
f 1563 1531 1530
f 1530 1562 1563
f 1595 1563 1562
f 1562 1594 1595
f 1627 1595 1594
f 1594 1626 1627
f 1659 1627 1626
f 1626 1658 1659
f 1691 1659 1658
f 1658 1690 1691
f 1723 1691 1690
f 1690 1722 1723
f 1755 1723 1722
f 1722 1754 1755
f 1787 1755 1754
f 1754 1786 1787
f 1819 1787 1786
f 1786 1818 1819
f 1851 1819 1818
f 1818 1850 1851
f 1883 1851 1850
f 1850 1882 1883
f 1915 1883 1882
f 1882 1914 1915
f 1947 1915 1914
f 1914 1946 1947
f 1979 1947 1946
f 1946 1978 1979
f 2011 1979 1978
f 1978 2010 2011
f 1052 1020 1019
f 1019 1051 1052
f 1084 1052 1051
f 1051 1083 1084
f 1116 1084 1083
f 1083 1115 1116
f 1148 1116 1115
f 1115 1147 1148
f 1180 1148 1147
f 1147 1179 1180
f 1212 1180 1179
f 1179 1211 1212
f 1244 1212 1211
f 1211 1243 1244
f 1276 1244 1243
f 1243 1275 1276
f 1308 1276 1275
f 1275 1307 1308
f 1340 1308 1307
f 1307 1339 1340
f 1372 1340 1339
f 1339 1371 1372
f 1404 1372 1371
f 1371 1403 1404
f 1436 1404 1403
f 1403 1435 1436
f 1468 1436 1435
f 1435 1467 1468
f 1500 1468 1467
f 1467 1499 1500
f 1532 1500 1499
f 1499 1531 1532
f 1564 1532 1531
f 1531 1563 1564
f 1596 1564 1563
f 1563 1595 1596
f 1628 1596 1595
f 1595 1627 1628
f 1660 1628 1627
f 1627 1659 1660
f 1692 1660 1659
f 1659 1691 1692
f 1724 1692 1691
f 1691 1723 1724
f 1756 1724 1723
f 1723 1755 1756
f 1788 1756 1755
f 1755 1787 1788
f 1820 1788 1787
f 1787 1819 1820
f 1852 1820 1819
f 1819 1851 1852
f 1884 1852 1851
f 1851 1883 1884
f 1916 1884 1883
f 1883 1915 1916
f 1948 1916 1915
f 1915 1947 1948
f 1980 1948 1947
f 1947 1979 1980
f 2012 1980 1979
f 1979 2011 2012
f 1053 1021 1020
f 1020 1052 1053
f 1085 1053 1052
f 1052 1084 1085
f 1117 1085 1084
f 1084 1116 1117
f 1149 1117 1116
f 1116 1148 1149
f 1181 1149 1148
f 1148 1180 1181
f 1213 1181 1180
f 1180 1212 1213
f 1245 1213 1212
f 1212 1244 1245
f 1277 1245 1244
f 1244 1276 1277
f 1309 1277 1276
f 1276 1308 1309
f 1341 1309 1308
f 1308 1340 1341
f 1373 1341 1340
f 1340 1372 1373
f 1405 1373 1372
f 1372 1404 1405
f 1437 1405 1404
f 1404 1436 1437
f 1469 1437 1436
f 1436 1468 1469
f 1501 1469 1468
f 1468 1500 1501
f 1533 1501 1500
f 1500 1532 1533
f 1565 1533 1532
f 1532 1564 1565
f 1597 1565 1564
f 1564 1596 1597
f 1629 1597 1596
f 1596 1628 1629
f 1661 1629 1628
f 1628 1660 1661
f 1693 1661 1660
f 1660 1692 1693
f 1725 1693 1692
f 1692 1724 1725
f 1757 1725 1724
f 1724 1756 1757
f 1789 1757 1756
f 1756 1788 1789
f 1821 1789 1788
f 1788 1820 1821
f 1853 1821 1820
f 1820 1852 1853
f 1885 1853 1852
f 1852 1884 1885
f 1917 1885 1884
f 1884 1916 1917
f 1949 1917 1916
f 1916 1948 1949
f 1981 1949 1948
f 1948 1980 1981
f 2013 1981 1980
f 1980 2012 2013
f 1054 1022 1021
f 1021 1053 1054
f 1086 1054 1053
f 1053 1085 1086
f 1118 1086 1085
f 1085 1117 1118
f 1150 1118 1117
f 1117 1149 1150
f 1182 1150 1149
f 1149 1181 1182
f 1214 1182 1181
f 1181 1213 1214
f 1246 1214 1213
f 1213 1245 1246
f 1278 1246 1245
f 1245 1277 1278
f 1310 1278 1277
f 1277 1309 1310
f 1342 1310 1309
f 1309 1341 1342
f 1374 1342 1341
f 1341 1373 1374
f 1406 1374 1373
f 1373 1405 1406
f 1438 1406 1405
f 1405 1437 1438
f 1470 1438 1437
f 1437 1469 1470
f 1502 1470 1469
f 1469 1501 1502
f 1534 1502 1501
f 1501 1533 1534
f 1566 1534 1533
f 1533 1565 1566
f 1598 1566 1565
f 1565 1597 1598
f 1630 1598 1597
f 1597 1629 1630
f 1662 1630 1629
f 1629 1661 1662
f 1694 1662 1661
f 1661 1693 1694
f 1726 1694 1693
f 1693 1725 1726
f 1758 1726 1725
f 1725 1757 1758
f 1790 1758 1757
f 1757 1789 1790
f 1822 1790 1789
f 1789 1821 1822
f 1854 1822 1821
f 1821 1853 1854
f 1886 1854 1853
f 1853 1885 1886
f 1918 1886 1885
f 1885 1917 1918
f 1950 1918 1917
f 1917 1949 1950
f 1982 1950 1949
f 1949 1981 1982
f 2014 1982 1981
f 1981 2013 2014
f 1055 1023 1022
f 1022 1054 1055
f 1087 1055 1054
f 1054 1086 1087
f 1119 1087 1086
f 1086 1118 1119
f 1151 1119 1118
f 1118 1150 1151
f 1183 1151 1150
f 1150 1182 1183
f 1215 1183 1182
f 1182 1214 1215
f 1247 1215 1214
f 1214 1246 1247
f 1279 1247 1246
f 1246 1278 1279
f 1311 1279 1278
f 1278 1310 1311
f 1343 1311 1310
f 1310 1342 1343
f 1375 1343 1342
f 1342 1374 1375
f 1407 1375 1374
f 1374 1406 1407
f 1439 1407 1406
f 1406 1438 1439
f 1471 1439 1438
f 1438 1470 1471
f 1503 1471 1470
f 1470 1502 1503
f 1535 1503 1502
f 1502 1534 1535
f 1567 1535 1534
f 1534 1566 1567
f 1599 1567 1566
f 1566 1598 1599
f 1631 1599 1598
f 1598 1630 1631
f 1663 1631 1630
f 1630 1662 1663
f 1695 1663 1662
f 1662 1694 1695
f 1727 1695 1694
f 1694 1726 1727
f 1759 1727 1726
f 1726 1758 1759
f 1791 1759 1758
f 1758 1790 1791
f 1823 1791 1790
f 1790 1822 1823
f 1855 1823 1822
f 1822 1854 1855
f 1887 1855 1854
f 1854 1886 1887
f 1919 1887 1886
f 1886 1918 1919
f 1951 1919 1918
f 1918 1950 1951
f 1983 1951 1950
f 1950 1982 1983
f 2015 1983 1982
f 1982 2014 2015
f 1056 1024 1023
f 1023 1055 1056
f 1088 1056 1055
f 1055 1087 1088
f 1120 1088 1087
f 1087 1119 1120
f 1152 1120 1119
f 1119 1151 1152
f 1184 1152 1151
f 1151 1183 1184
f 1216 1184 1183
f 1183 1215 1216
f 1248 1216 1215
f 1215 1247 1248
f 1280 1248 1247
f 1247 1279 1280
f 1312 1280 1279
f 1279 1311 1312
f 1344 1312 1311
f 1311 1343 1344
f 1376 1344 1343
f 1343 1375 1376
f 1408 1376 1375
f 1375 1407 1408
f 1440 1408 1407
f 1407 1439 1440
f 1472 1440 1439
f 1439 1471 1472
f 1504 1472 1471
f 1471 1503 1504
f 1536 1504 1503
f 1503 1535 1536
f 1568 1536 1535
f 1535 1567 1568
f 1600 1568 1567
f 1567 1599 1600
f 1632 1600 1599
f 1599 1631 1632
f 1664 1632 1631
f 1631 1663 1664
f 1696 1664 1663
f 1663 1695 1696
f 1728 1696 1695
f 1695 1727 1728
f 1760 1728 1727
f 1727 1759 1760
f 1792 1760 1759
f 1759 1791 1792
f 1824 1792 1791
f 1791 1823 1824
f 1856 1824 1823
f 1823 1855 1856
f 1888 1856 1855
f 1855 1887 1888
f 1920 1888 1887
f 1887 1919 1920
f 1952 1920 1919
f 1919 1951 1952
f 1984 1952 1951
f 1951 1983 1984
f 2016 1984 1983
f 1983 2015 2016
f 1057 1025 1024
f 1024 1056 1057
f 1089 1057 1056
f 1056 1088 1089
f 1121 1089 1088
f 1088 1120 1121
f 1153 1121 1120
f 1120 1152 1153
f 1185 1153 1152
f 1152 1184 1185
f 1217 1185 1184
f 1184 1216 1217
f 1249 1217 1216
f 1216 1248 1249
f 1281 1249 1248
f 1248 1280 1281
f 1313 1281 1280
f 1280 1312 1313
f 1345 1313 1312
f 1312 1344 1345
f 1377 1345 1344
f 1344 1376 1377
f 1409 1377 1376
f 1376 1408 1409
f 1441 1409 1408
f 1408 1440 1441
f 1473 1441 1440
f 1440 1472 1473
f 1505 1473 1472
f 1472 1504 1505
f 1537 1505 1504
f 1504 1536 1537
f 1569 1537 1536
f 1536 1568 1569
f 1601 1569 1568
f 1568 1600 1601
f 1633 1601 1600
f 1600 1632 1633
f 1665 1633 1632
f 1632 1664 1665
f 1697 1665 1664
f 1664 1696 1697
f 1729 1697 1696
f 1696 1728 1729
f 1761 1729 1728
f 1728 1760 1761
f 1793 1761 1760
f 1760 1792 1793
f 1825 1793 1792
f 1792 1824 1825
f 1857 1825 1824
f 1824 1856 1857
f 1889 1857 1856
f 1856 1888 1889
f 1921 1889 1888
f 1888 1920 1921
f 1953 1921 1920
f 1920 1952 1953
f 1985 1953 1952
f 1952 1984 1985
f 2017 1985 1984
f 1984 2016 2017
f 1058 1026 1025
f 1025 1057 1058
f 1090 1058 1057
f 1057 1089 1090
f 1122 1090 1089
f 1089 1121 1122
f 1154 1122 1121
f 1121 1153 1154
f 1186 1154 1153
f 1153 1185 1186
f 1218 1186 1185
f 1185 1217 1218
f 1250 1218 1217
f 1217 1249 1250
f 1282 1250 1249
f 1249 1281 1282
f 1314 1282 1281
f 1281 1313 1314
f 1346 1314 1313
f 1313 1345 1346
f 1378 1346 1345
f 1345 1377 1378
f 1410 1378 1377
f 1377 1409 1410
f 1442 1410 1409
f 1409 1441 1442
f 1474 1442 1441
f 1441 1473 1474
f 1506 1474 1473
f 1473 1505 1506
f 1538 1506 1505
f 1505 1537 1538
f 1570 1538 1537
f 1537 1569 1570
f 1602 1570 1569
f 1569 1601 1602
f 1634 1602 1601
f 1601 1633 1634
f 1666 1634 1633
f 1633 1665 1666
f 1698 1666 1665
f 1665 1697 1698
f 1730 1698 1697
f 1697 1729 1730
f 1762 1730 1729
f 1729 1761 1762
f 1794 1762 1761
f 1761 1793 1794
f 1826 1794 1793
f 1793 1825 1826
f 1858 1826 1825
f 1825 1857 1858
f 1890 1858 1857
f 1857 1889 1890
f 1922 1890 1889
f 1889 1921 1922
f 1954 1922 1921
f 1921 1953 1954
f 1986 1954 1953
f 1953 1985 1986
f 2018 1986 1985
f 1985 2017 2018
f 1059 1027 1026
f 1026 1058 1059
f 1091 1059 1058
f 1058 1090 1091
f 1123 1091 1090
f 1090 1122 1123
f 1155 1123 1122
f 1122 1154 1155
f 1187 1155 1154
f 1154 1186 1187
f 1219 1187 1186
f 1186 1218 1219
f 1251 1219 1218
f 1218 1250 1251
f 1283 1251 1250
f 1250 1282 1283
f 1315 1283 1282
f 1282 1314 1315
f 1347 1315 1314
f 1314 1346 1347
f 1379 1347 1346
f 1346 1378 1379
f 1411 1379 1378
f 1378 1410 1411
f 1443 1411 1410
f 1410 1442 1443
f 1475 1443 1442
f 1442 1474 1475
f 1507 1475 1474
f 1474 1506 1507
f 1539 1507 1506
f 1506 1538 1539
f 1571 1539 1538
f 1538 1570 1571
f 1603 1571 1570
f 1570 1602 1603
f 1635 1603 1602
f 1602 1634 1635
f 1667 1635 1634
f 1634 1666 1667
f 1699 1667 1666
f 1666 1698 1699
f 1731 1699 1698
f 1698 1730 1731
f 1763 1731 1730
f 1730 1762 1763
f 1795 1763 1762
f 1762 1794 1795
f 1827 1795 1794
f 1794 1826 1827
f 1859 1827 1826
f 1826 1858 1859
f 1891 1859 1858
f 1858 1890 1891
f 1923 1891 1890
f 1890 1922 1923
f 1955 1923 1922
f 1922 1954 1955
f 1987 1955 1954
f 1954 1986 1987
f 2019 1987 1986
f 1986 2018 2019
f 1060 1028 1027
f 1027 1059 1060
f 1092 1060 1059
f 1059 1091 1092
f 1124 1092 1091
f 1091 1123 1124
f 1156 1124 1123
f 1123 1155 1156
f 1188 1156 1155
f 1155 1187 1188
f 1220 1188 1187
f 1187 1219 1220
f 1252 1220 1219
f 1219 1251 1252
f 1284 1252 1251
f 1251 1283 1284
f 1316 1284 1283
f 1283 1315 1316
f 1348 1316 1315
f 1315 1347 1348
f 1380 1348 1347
f 1347 1379 1380
f 1412 1380 1379
f 1379 1411 1412
f 1444 1412 1411
f 1411 1443 1444
f 1476 1444 1443
f 1443 1475 1476
f 1508 1476 1475
f 1475 1507 1508
f 1540 1508 1507
f 1507 1539 1540
f 1572 1540 1539
f 1539 1571 1572
f 1604 1572 1571
f 1571 1603 1604
f 1636 1604 1603
f 1603 1635 1636
f 1668 1636 1635
f 1635 1667 1668
f 1700 1668 1667
f 1667 1699 1700
f 1732 1700 1699
f 1699 1731 1732
f 1764 1732 1731
f 1731 1763 1764
f 1796 1764 1763
f 1763 1795 1796
f 1828 1796 1795
f 1795 1827 1828
f 1860 1828 1827
f 1827 1859 1860
f 1892 1860 1859
f 1859 1891 1892
f 1924 1892 1891
f 1891 1923 1924
f 1956 1924 1923
f 1923 1955 1956
f 1988 1956 1955
f 1955 1987 1988
f 2020 1988 1987
f 1987 2019 2020
f 1061 1029 1028
f 1028 1060 1061
f 1093 1061 1060
f 1060 1092 1093
f 1125 1093 1092
f 1092 1124 1125
f 1157 1125 1124
f 1124 1156 1157
f 1189 1157 1156
f 1156 1188 1189
f 1221 1189 1188
f 1188 1220 1221
f 1253 1221 1220
f 1220 1252 1253
f 1285 1253 1252
f 1252 1284 1285
f 1317 1285 1284
f 1284 1316 1317
f 1349 1317 1316
f 1316 1348 1349
f 1381 1349 1348
f 1348 1380 1381
f 1413 1381 1380
f 1380 1412 1413
f 1445 1413 1412
f 1412 1444 1445
f 1477 1445 1444
f 1444 1476 1477
f 1509 1477 1476
f 1476 1508 1509
f 1541 1509 1508
f 1508 1540 1541
f 1573 1541 1540
f 1540 1572 1573
f 1605 1573 1572
f 1572 1604 1605
f 1637 1605 1604
f 1604 1636 1637
f 1669 1637 1636
f 1636 1668 1669
f 1701 1669 1668
f 1668 1700 1701
f 1733 1701 1700
f 1700 1732 1733
f 1765 1733 1732
f 1732 1764 1765
f 1797 1765 1764
f 1764 1796 1797
f 1829 1797 1796
f 1796 1828 1829
f 1861 1829 1828
f 1828 1860 1861
f 1893 1861 1860
f 1860 1892 1893
f 1925 1893 1892
f 1892 1924 1925
f 1957 1925 1924
f 1924 1956 1957
f 1989 1957 1956
f 1956 1988 1989
f 2021 1989 1988
f 1988 2020 2021
f 1062 1030 1029
f 1029 1061 1062
f 1094 1062 1061
f 1061 1093 1094
f 1126 1094 1093
f 1093 1125 1126
f 1158 1126 1125
f 1125 1157 1158
f 1190 1158 1157
f 1157 1189 1190
f 1222 1190 1189
f 1189 1221 1222
f 1254 1222 1221
f 1221 1253 1254
f 1286 1254 1253
f 1253 1285 1286
f 1318 1286 1285
f 1285 1317 1318
f 1350 1318 1317
f 1317 1349 1350
f 1382 1350 1349
f 1349 1381 1382
f 1414 1382 1381
f 1381 1413 1414
f 1446 1414 1413
f 1413 1445 1446
f 1478 1446 1445
f 1445 1477 1478
f 1510 1478 1477
f 1477 1509 1510
f 1542 1510 1509
f 1509 1541 1542
f 1574 1542 1541
f 1541 1573 1574
f 1606 1574 1573
f 1573 1605 1606
f 1638 1606 1605
f 1605 1637 1638
f 1670 1638 1637
f 1637 1669 1670
f 1702 1670 1669
f 1669 1701 1702
f 1734 1702 1701
f 1701 1733 1734
f 1766 1734 1733
f 1733 1765 1766
f 1798 1766 1765
f 1765 1797 1798
f 1830 1798 1797
f 1797 1829 1830
f 1862 1830 1829
f 1829 1861 1862
f 1894 1862 1861
f 1861 1893 1894
f 1926 1894 1893
f 1893 1925 1926
f 1958 1926 1925
f 1925 1957 1958
f 1990 1958 1957
f 1957 1989 1990
f 2022 1990 1989
f 1989 2021 2022
f 1063 1031 1030
f 1030 1062 1063
f 1095 1063 1062
f 1062 1094 1095
f 1127 1095 1094
f 1094 1126 1127
f 1159 1127 1126
f 1126 1158 1159
f 1191 1159 1158
f 1158 1190 1191
f 1223 1191 1190
f 1190 1222 1223
f 1255 1223 1222
f 1222 1254 1255
f 1287 1255 1254
f 1254 1286 1287
f 1319 1287 1286
f 1286 1318 1319
f 1351 1319 1318
f 1318 1350 1351
f 1383 1351 1350
f 1350 1382 1383
f 1415 1383 1382
f 1382 1414 1415
f 1447 1415 1414
f 1414 1446 1447
f 1479 1447 1446
f 1446 1478 1479
f 1511 1479 1478
f 1478 1510 1511
f 1543 1511 1510
f 1510 1542 1543
f 1575 1543 1542
f 1542 1574 1575
f 1607 1575 1574
f 1574 1606 1607
f 1639 1607 1606
f 1606 1638 1639
f 1671 1639 1638
f 1638 1670 1671
f 1703 1671 1670
f 1670 1702 1703
f 1735 1703 1702
f 1702 1734 1735
f 1767 1735 1734
f 1734 1766 1767
f 1799 1767 1766
f 1766 1798 1799
f 1831 1799 1798
f 1798 1830 1831
f 1863 1831 1830
f 1830 1862 1863
f 1895 1863 1862
f 1862 1894 1895
f 1927 1895 1894
f 1894 1926 1927
f 1959 1927 1926
f 1926 1958 1959
f 1991 1959 1958
f 1958 1990 1991
f 2023 1991 1990
f 1990 2022 2023
f 1064 1032 1031
f 1031 1063 1064
f 1096 1064 1063
f 1063 1095 1096
f 1128 1096 1095
f 1095 1127 1128
f 1160 1128 1127
f 1127 1159 1160
f 1192 1160 1159
f 1159 1191 1192
f 1224 1192 1191
f 1191 1223 1224
f 1256 1224 1223
f 1223 1255 1256
f 1288 1256 1255
f 1255 1287 1288
f 1320 1288 1287
f 1287 1319 1320
f 1352 1320 1319
f 1319 1351 1352
f 1384 1352 1351
f 1351 1383 1384
f 1416 1384 1383
f 1383 1415 1416
f 1448 1416 1415
f 1415 1447 1448
f 1480 1448 1447
f 1447 1479 1480
f 1512 1480 1479
f 1479 1511 1512
f 1544 1512 1511
f 1511 1543 1544
f 1576 1544 1543
f 1543 1575 1576
f 1608 1576 1575
f 1575 1607 1608
f 1640 1608 1607
f 1607 1639 1640
f 1672 1640 1639
f 1639 1671 1672
f 1704 1672 1671
f 1671 1703 1704
f 1736 1704 1703
f 1703 1735 1736
f 1768 1736 1735
f 1735 1767 1768
f 1800 1768 1767
f 1767 1799 1800
f 1832 1800 1799
f 1799 1831 1832
f 1864 1832 1831
f 1831 1863 1864
f 1896 1864 1863
f 1863 1895 1896
f 1928 1896 1895
f 1895 1927 1928
f 1960 1928 1927
f 1927 1959 1960
f 1992 1960 1959
f 1959 1991 1992
f 2024 1992 1991
f 1991 2023 2024
f 1065 1033 1032
f 1032 1064 1065
f 1097 1065 1064
f 1064 1096 1097
f 1129 1097 1096
f 1096 1128 1129
f 1161 1129 1128
f 1128 1160 1161
f 1193 1161 1160
f 1160 1192 1193
f 1225 1193 1192
f 1192 1224 1225
f 1257 1225 1224
f 1224 1256 1257
f 1289 1257 1256
f 1256 1288 1289
f 1321 1289 1288
f 1288 1320 1321
f 1353 1321 1320
f 1320 1352 1353
f 1385 1353 1352
f 1352 1384 1385
f 1417 1385 1384
f 1384 1416 1417
f 1449 1417 1416
f 1416 1448 1449
f 1481 1449 1448
f 1448 1480 1481
f 1513 1481 1480
f 1480 1512 1513
f 1545 1513 1512
f 1512 1544 1545
f 1577 1545 1544
f 1544 1576 1577
f 1609 1577 1576
f 1576 1608 1609
f 1641 1609 1608
f 1608 1640 1641
f 1673 1641 1640
f 1640 1672 1673
f 1705 1673 1672
f 1672 1704 1705
f 1737 1705 1704
f 1704 1736 1737
f 1769 1737 1736
f 1736 1768 1769
f 1801 1769 1768
f 1768 1800 1801
f 1833 1801 1800
f 1800 1832 1833
f 1865 1833 1832
f 1832 1864 1865
f 1897 1865 1864
f 1864 1896 1897
f 1929 1897 1896
f 1896 1928 1929
f 1961 1929 1928
f 1928 1960 1961
f 1993 1961 1960
f 1960 1992 1993
f 2025 1993 1992
f 1992 2024 2025
f 1066 1034 1033
f 1033 1065 1066
f 1098 1066 1065
f 1065 1097 1098
f 1130 1098 1097
f 1097 1129 1130
f 1162 1130 1129
f 1129 1161 1162
f 1194 1162 1161
f 1161 1193 1194
f 1226 1194 1193
f 1193 1225 1226
f 1258 1226 1225
f 1225 1257 1258
f 1290 1258 1257
f 1257 1289 1290
f 1322 1290 1289
f 1289 1321 1322
f 1354 1322 1321
f 1321 1353 1354
f 1386 1354 1353
f 1353 1385 1386
f 1418 1386 1385
f 1385 1417 1418
f 1450 1418 1417
f 1417 1449 1450
f 1482 1450 1449
f 1449 1481 1482
f 1514 1482 1481
f 1481 1513 1514
f 1546 1514 1513
f 1513 1545 1546
f 1578 1546 1545
f 1545 1577 1578
f 1610 1578 1577
f 1577 1609 1610
f 1642 1610 1609
f 1609 1641 1642
f 1674 1642 1641
f 1641 1673 1674
f 1706 1674 1673
f 1673 1705 1706
f 1738 1706 1705
f 1705 1737 1738
f 1770 1738 1737
f 1737 1769 1770
f 1802 1770 1769
f 1769 1801 1802
f 1834 1802 1801
f 1801 1833 1834
f 1866 1834 1833
f 1833 1865 1866
f 1898 1866 1865
f 1865 1897 1898
f 1930 1898 1897
f 1897 1929 1930
f 1962 1930 1929
f 1929 1961 1962
f 1994 1962 1961
f 1961 1993 1994
f 2026 1994 1993
f 1993 2025 2026
