v 617.017 41.5019 -1099.8
v 617.221 41.6587 -1100.05
v 616.947 41.5956 -1099.81
v 617.018 41.9167 -1100.04
v 616.987 41.8928 -1099.98
v 616.986 41.8466 -1099.97
v 617.301 41.4871 -1100.06
v 617.038 41.5587 -1100.28
v 616.997 41.7795 -1100.24
v 616.997 41.7656 -1100.24
v 616.987 41.6297 -1100.31
v 617.009 41.5763 -1100.31
v 616.991 41.9006 -1100.13
v 616.989 41.934 -1100.06
v 616.988 41.9445 -1100.03
v 616.988 41.9239 -1100.02
v 616.935 41.4567 -1099.64
v 616.951 41.4161 -1099.63
v 616.934 41.4218 -1099.63
v 617.013 41.4306 -1099.78
v 617.04 41.4314 -1099.81
v 617.183 41.4699 -1099.98
v 617.016 40.4806 -1097.81
v 616.993 40.6365 -1097.79
v 617.974 40.5221 -1097.79
v 616.99 41.9464 -1097.8
v 618.056 40.6209 -1097.8
v 617.042 41.9795 -1097.81
v 618.055 41.7849 -1097.79
v 617.985 41.8453 -1097.79
v 618.003 40.3094 -1105.98
v 618.016 40.4748 -1106.01
v 617.05 40.3778 -1106.02
v 618.022 41.773 -1106
v 617.021 40.4804 -1106.01
v 617.977 41.8138 -1105.99
v 616.976 41.781 -1106
v 617.049 41.8065 -1105.99
v 616.986 41.8466 -1099.97
v 616.944 42.1644 -1098.91
v 616.947 41.5956 -1099.81
v 616.935 41.4567 -1099.64
v 618.016 40.4748 -1106.01
v 618.003 40.3094 -1105.98
v 618.068 40.8958 -1105.32
v 617.987 40.827 -1105.32
v 618.009 41.2807 -1104.67
v 617.979 41.2092 -1104.67
v 618.07 42.1647 -1104.88
v 617.987 42.2411 -1104.88
v 618.022 41.773 -1106
v 617.977 41.8138 -1105.99
v 617.976 41.4049 -1103.99
v 618.067 41.454 -1103.98
v 617.97 41.4815 -1103.3
v 618.078 41.5086 -1103.3
v 618.066 42.3574 -1103.41
v 618.003 42.4743 -1103.41
v 618.037 41.6794 -1102.6
v 617.999 41.5642 -1102.6
v 617.981 41.6302 -1101.9
v 618.057 41.6945 -1101.9
v 617.964 42.6699 -1101.9
v 618.009 42.6102 -1101.9
v 618.01 41.7763 -1101.2
v 618.002 41.6442 -1101.2
v 617.993 41.5797 -1100.5
v 618.032 41.6803 -1100.5
v 617.997 42.4885 -1100.39
v 617.962 42.6402 -1100.39
v 618.039 41.4861 -1099.81
v 617.99 41.3904 -1099.81
v 617.972 41.2376 -1099.13
v 618.02 41.2974 -1099.13
v 617.997 42.2731 -1098.9
v 617.996 42.1364 -1098.92
v 618.055 40.9828 -1098.48
v 617.96 40.9536 -1098.46
v 617.974 40.5221 -1097.79
v 618.056 40.6209 -1097.8
v 618.055 41.7849 -1097.79
v 617.985 41.8453 -1097.79
v 617.05 40.3778 -1106.02
v 617.021 40.4804 -1106.01
v 617.053 40.8641 -1105.34
v 616.991 40.9092 -1105.32
v 617.049 41.8065 -1105.99
v 617.048 42.2087 -1104.87
v 616.976 41.781 -1106
v 616.979 42.1537 -1104.88
v 617.037 41.2005 -1104.67
v 617.001 41.277 -1104.67
v 617.015 41.3438 -1103.98
v 616.956 41.4556 -1103.99
v 616.957 42.3555 -1103.41
v 617.018 42.4678 -1103.41
v 616.931 41.5053 -1103.3
v 617.016 41.4086 -1103.29
v 616.938 41.6633 -1102.6
v 617.02 41.5696 -1102.6
v 617.016 42.745 -1101.9
v 616.987 42.6173 -1101.9
v 617.051 41.6679 -1101.9
v 616.989 41.7058 -1101.9
v 616.985 41.7691 -1101.2
v 617.032 41.687 -1101.2
v 617 42.587 -1100.39
v 617.041 42.6623 -1100.39
v 617.037 41.6168 -1100.5
v 617.007 41.6898 -1100.5
v 617.009 41.5763 -1100.31
v 616.987 41.6297 -1100.31
v 617.038 41.5587 -1100.28
v 617.037 42.2206 -1098.92
v 617.04 41.4314 -1099.81
v 617.013 41.4306 -1099.78
v 617.05 41.2614 -1099.12
v 616.951 41.4161 -1099.63
v 616.934 41.4218 -1099.63
v 616.93 41.2746 -1099.14
v 617.045 40.9434 -1098.46
v 617.008 41.0014 -1098.47
v 616.99 41.9464 -1097.8
v 617.042 41.9795 -1097.81
v 616.993 40.6365 -1097.79
v 617.016 40.4806 -1097.81
v 618.003 40.3094 -1105.98
v 617.987 40.827 -1105.32
v 617.979 41.2092 -1104.67
v 617.976 41.4049 -1103.99
v 617.97 41.4815 -1103.3
v 617.999 41.5642 -1102.6
v 617.981 41.6302 -1101.9
v 618.002 41.6442 -1101.2
v 617.993 41.5797 -1100.5
v 617.99 41.3904 -1099.81
v 617.183 41.4699 -1099.98
v 617.301 41.4871 -1100.06
v 617.972 41.2376 -1099.13
v 617.96 40.9536 -1098.46
v 617.974 40.5221 -1097.79
v 616.997 41.7656 -1100.24
v 616.997 41.7795 -1100.24
v 616.991 41.9006 -1100.13
v 616.989 41.934 -1100.06
v 616.988 41.9445 -1100.03
v 616.987 41.8928 -1099.98
v 616.988 41.9239 -1100.02
v 615.142 42.028 -1101.05
v 614.997 42.1645 -1101.13
v 615.101 42.0812 -1101.05
v 615.006 42.207 -1101.05
v 615.142 42.0262 -1101.05
v 615.101 41.9891 -1101.09
v 614.906 41.9152 -1101.24
v 615.033 41.9198 -1101.15
v 615.048 41.9328 -1101.14
v 614.849 41.9107 -1101.23
v 614.698 42.1642 -1101.05
v 614.761 41.9068 -1101.29
v 614.634 41.961 -1101.3
v 614.55 41.8738 -1101.53
v 614.69 41.8965 -1101.37
v 614.458 41.8584 -1101.18
v 614.438 41.8552 -1101.15
v 614.443 41.8684 -1101.14
v 614.576 42.0723 -1101.05
v 614.477 41.9047 -1101.1
v 614.48 41.9583 -1101.05
v 614.806 42.2021 -1101.05
v 614.919 42.2338 -1101.05
v 617.214 41.366 -1101.05
v 617.214 42.5345 -1101.05
v 617.214 41.2882 -1101.15
v 617.214 41.2466 -1101.9
v 617.214 41.3429 -1102
v 617.214 42.6207 -1101.13
v 617.214 42.6207 -1101.93
v 617.214 42.5345 -1102
v 612.988 41.3341 -1102
v 612.988 42.5439 -1102
v 612.988 41.2681 -1101.9
v 612.988 41.2567 -1101.15
v 612.988 41.3635 -1101.05
v 612.988 42.63 -1101.93
v 612.988 42.63 -1101.13
v 612.988 42.5439 -1101.05
v 616.976 41.4215 -1101.15
v 616.984 41.5123 -1101.05
v 617.214 41.2882 -1101.15
v 617.214 41.366 -1101.05
v 616.723 41.6388 -1101.05
v 616.716 41.553 -1101.15
v 616.329 41.7907 -1101.05
v 616.324 41.7143 -1101.15
v 615.922 41.927 -1101.05
v 615.919 41.8393 -1101.15
v 615.514 42.0201 -1101.05
v 615.513 41.9359 -1101.15
v 615.101 41.9245 -1101.15
v 615.101 41.9891 -1101.09
v 615.142 42.0262 -1101.05
v 615.048 41.9328 -1101.14
v 615.048 41.9328 -1101.14
v 615.033 41.9198 -1101.15
v 614.477 41.9047 -1101.1
v 614.281 41.9126 -1101.05
v 614.48 41.9583 -1101.05
v 614.443 41.8684 -1101.14
v 614.438 41.8552 -1101.15
v 614.284 41.83 -1101.15
v 613.873 41.8114 -1101.05
v 613.878 41.7473 -1101.15
v 613.48 41.6492 -1101.05
v 613.486 41.5882 -1101.15
v 613.227 41.4462 -1101.15
v 613.219 41.5325 -1101.05
v 612.988 41.2567 -1101.15
v 612.988 41.3635 -1101.05
v 616.976 41.4348 -1101.9
v 617.214 41.2466 -1101.9
v 616.984 41.4977 -1102
v 617.214 41.3429 -1102
v 613.227 41.4341 -1101.9
v 613.219 41.5311 -1102
v 612.988 41.2681 -1101.9
v 612.988 41.3341 -1102
v 613.48 41.6793 -1102
v 613.486 41.5587 -1101.9
v 613.878 41.7494 -1101.9
v 613.873 41.8248 -1102
v 614.281 41.9484 -1102
v 614.284 41.8615 -1101.9
v 614.689 42.0249 -1102
v 614.69 41.8971 -1101.9
v 615.101 42.0337 -1102
v 615.101 41.958 -1101.9
v 615.513 41.9373 -1101.9
v 615.514 42.022 -1102
v 615.922 41.9532 -1102
v 615.919 41.8711 -1101.9
v 616.324 41.7086 -1101.9
v 616.329 41.8053 -1102
v 616.716 41.5879 -1101.9
v 616.723 41.6425 -1102
v 613.227 41.4341 -1101.9
v 613.486 41.5587 -1101.9
v 614.284 41.8615 -1101.9
v 613.878 41.7494 -1101.9
v 614.761 41.9068 -1101.29
v 615.101 41.958 -1101.9
v 614.69 41.8965 -1101.37
v 614.69 41.8971 -1101.9
v 614.761 41.9068 -1101.29
v 614.849 41.9107 -1101.23
v 614.906 41.9152 -1101.24
v 615.033 41.9198 -1101.15
v 615.513 41.9373 -1101.9
v 615.919 41.8711 -1101.9
v 616.716 41.5879 -1101.9
v 616.324 41.7086 -1101.9
v 616.976 41.4348 -1101.9
v 614.55 41.8738 -1101.53
v 614.458 41.8584 -1101.18
v 612.988 41.2681 -1101.9
v 617.214 41.2466 -1101.9
v 613.256 42.6566 -1101.05
v 612.988 42.5439 -1101.05
v 613.256 42.7427 -1101.13
v 612.988 42.63 -1101.13
v 613.256 42.6566 -1102
v 613.256 42.7427 -1101.93
v 612.988 42.5439 -1102
v 612.988 42.63 -1101.93
v 614.167 42.6578 -1101.05
v 614.167 42.7439 -1101.13
v 614.167 42.6578 -1102
v 614.167 42.7439 -1101.93
v 615.101 42.7409 -1101.05
v 615.101 42.827 -1101.13
v 615.101 42.7409 -1102
v 615.101 42.827 -1101.93
v 616.036 42.7777 -1101.05
v 616.036 42.8638 -1101.13
v 616.036 42.7777 -1102
v 616.036 42.8638 -1101.93
v 616.947 42.6566 -1102
v 616.947 42.7427 -1101.93
v 616.947 42.6566 -1101.05
v 616.947 42.7427 -1101.13
v 617.214 42.5345 -1102
v 617.214 42.6207 -1101.93
v 617.214 42.5345 -1101.05
v 617.214 42.6207 -1101.13
v 615.101 42.0812 -1101.05
v 615.006 42.207 -1101.05
v 614.806 42.2021 -1101.05
v 614.919 42.2338 -1101.05
v 614.48 41.9583 -1101.05
v 614.576 42.0723 -1101.05
v 614.698 42.1642 -1101.05
v 615.142 42.0262 -1101.05
v 615.142 42.028 -1101.05
v 620.04 41.9146 -1101.04
v 619.895 42.051 -1101.12
v 619.999 41.9677 -1101.04
v 619.904 42.0935 -1101.04
v 620.04 41.9128 -1101.04
v 619.999 41.8757 -1101.08
v 619.804 41.8017 -1101.23
v 619.931 41.8064 -1101.14
v 619.946 41.8194 -1101.13
v 619.747 41.7973 -1101.22
v 619.596 42.0507 -1101.04
v 619.659 41.7934 -1101.28
v 619.532 41.8476 -1101.29
v 619.448 41.7603 -1101.52
v 619.588 41.783 -1101.36
v 619.356 41.745 -1101.17
v 619.336 41.7417 -1101.14
v 619.341 41.7549 -1101.13
v 619.474 41.9588 -1101.04
v 619.375 41.7912 -1101.09
v 619.378 41.8448 -1101.04
v 619.704 42.0886 -1101.04
v 619.817 42.1204 -1101.04
v 622.112 41.2525 -1101.04
v 622.112 42.4211 -1101.04
v 622.112 41.1748 -1101.14
v 622.112 41.1332 -1101.89
v 622.112 41.2294 -1101.99
v 622.112 42.5072 -1101.12
v 622.112 42.5072 -1101.92
v 622.112 42.4211 -1101.99
v 617.886 41.2207 -1101.99
v 617.886 42.4304 -1101.99
v 617.886 41.1546 -1101.89
v 617.886 41.1432 -1101.14
v 617.886 41.25 -1101.04
v 617.886 42.5166 -1101.92
v 617.886 42.5166 -1101.12
v 617.886 42.4304 -1101.04
v 621.874 41.308 -1101.14
v 621.882 41.3989 -1101.04
v 622.112 41.1748 -1101.14
v 622.112 41.2525 -1101.04
v 621.621 41.5253 -1101.04
v 621.614 41.4395 -1101.14
v 621.227 41.6772 -1101.04
v 621.222 41.6008 -1101.14
v 620.82 41.8135 -1101.04
v 620.817 41.7259 -1101.14
v 620.412 41.9066 -1101.04
v 620.41 41.8225 -1101.14
v 619.999 41.8111 -1101.14
v 619.999 41.8757 -1101.08
v 620.04 41.9128 -1101.04
v 619.946 41.8194 -1101.13
v 619.946 41.8194 -1101.13
v 619.931 41.8064 -1101.14
v 619.375 41.7912 -1101.09
v 619.178 41.7991 -1101.04
v 619.378 41.8448 -1101.04
v 619.341 41.7549 -1101.13
v 619.336 41.7417 -1101.14
v 619.182 41.7165 -1101.14
v 618.771 41.6979 -1101.04
v 618.776 41.6338 -1101.14
v 618.378 41.5357 -1101.04
v 618.384 41.4748 -1101.14
v 618.125 41.3327 -1101.14
v 618.117 41.419 -1101.04
v 617.886 41.1432 -1101.14
v 617.886 41.25 -1101.04
v 621.874 41.3213 -1101.89
v 622.112 41.1332 -1101.89
v 621.882 41.3842 -1101.99
v 622.112 41.2294 -1101.99
v 618.125 41.3206 -1101.89
v 618.117 41.4176 -1101.99
v 617.886 41.1546 -1101.89
v 617.886 41.2207 -1101.99
v 618.378 41.5659 -1101.99
v 618.384 41.4452 -1101.89
v 618.776 41.6359 -1101.89
v 618.771 41.7114 -1101.99
v 619.178 41.8349 -1101.99
v 619.182 41.748 -1101.89
v 619.587 41.9115 -1101.99
v 619.588 41.7837 -1101.89
v 619.999 41.9203 -1101.99
v 619.999 41.8446 -1101.89
v 620.41 41.8238 -1101.89
v 620.412 41.9085 -1101.99
v 620.82 41.8397 -1101.99
v 620.817 41.7576 -1101.89
v 621.222 41.5951 -1101.89
v 621.227 41.6919 -1101.99
v 621.614 41.4745 -1101.89
v 621.621 41.5291 -1101.99
v 618.125 41.3206 -1101.89
v 618.384 41.4452 -1101.89
v 619.182 41.748 -1101.89
v 618.776 41.6359 -1101.89
v 619.659 41.7934 -1101.28
v 619.999 41.8446 -1101.89
v 619.588 41.783 -1101.36
v 619.588 41.7837 -1101.89
v 619.659 41.7934 -1101.28
v 619.747 41.7973 -1101.22
v 619.804 41.8017 -1101.23
v 619.931 41.8064 -1101.14
v 620.41 41.8238 -1101.89
v 620.817 41.7576 -1101.89
v 621.614 41.4745 -1101.89
v 621.222 41.5951 -1101.89
v 621.874 41.3213 -1101.89
v 619.448 41.7603 -1101.52
v 619.356 41.745 -1101.17
v 617.886 41.1546 -1101.89
v 622.112 41.1332 -1101.89
v 618.154 42.5431 -1101.04
v 617.886 42.4304 -1101.04
v 618.154 42.6293 -1101.12
v 617.886 42.5166 -1101.12
v 618.154 42.5431 -1101.99
v 618.154 42.6293 -1101.92
v 617.886 42.4304 -1101.99
v 617.886 42.5166 -1101.92
v 619.065 42.5443 -1101.04
v 619.065 42.6304 -1101.12
v 619.065 42.5443 -1101.99
v 619.065 42.6304 -1101.92
v 619.999 42.6274 -1101.04
v 619.999 42.7136 -1101.12
v 619.999 42.6274 -1101.99
v 619.999 42.7136 -1101.92
v 620.934 42.6642 -1101.04
v 620.934 42.7504 -1101.12
v 620.934 42.6642 -1101.99
v 620.934 42.7504 -1101.92
v 621.845 42.5431 -1101.99
v 621.845 42.6293 -1101.92
v 621.845 42.5431 -1101.04
v 621.845 42.6293 -1101.12
v 622.112 42.4211 -1101.99
v 622.112 42.5072 -1101.92
v 622.112 42.4211 -1101.04
v 622.112 42.5072 -1101.12
v 619.999 41.9677 -1101.04
v 619.904 42.0935 -1101.04
v 619.704 42.0886 -1101.04
v 619.817 42.1204 -1101.04
v 619.378 41.8448 -1101.04
v 619.474 41.9588 -1101.04
v 619.596 42.0507 -1101.04
v 620.04 41.9128 -1101.04
v 620.04 41.9146 -1101.04
v 617.131 42.4851 -1100.6
v 617.257 46.2351 -1100.9
v 617.877 42.4851 -1100.6
v 617.751 46.2351 -1100.9
v 617.877 42.4851 -1100.6
v 617.751 46.2351 -1100.9
v 618.405 42.4851 -1101.13
v 618.101 46.2351 -1101.25
v 618.405 42.4851 -1101.13
v 618.101 46.2351 -1101.25
v 618.405 42.4851 -1101.87
v 618.101 46.2351 -1101.75
v 618.405 42.4851 -1101.87
v 618.101 46.2351 -1101.75
v 617.877 42.4851 -1102.4
v 617.751 46.2351 -1102.1
v 617.877 42.4851 -1102.4
v 617.751 46.2351 -1102.1
v 617.131 42.4851 -1102.4
v 617.257 46.2351 -1102.1
v 617.131 42.4851 -1102.4
v 617.257 46.2351 -1102.1
v 616.603 42.4851 -1101.87
v 616.907 46.2351 -1101.75
v 616.603 42.4851 -1101.87
v 616.907 46.2351 -1101.75
v 616.603 42.4851 -1101.13
v 616.907 46.2351 -1101.25
v 616.603 42.4851 -1101.13
v 616.907 46.2351 -1101.25
v 617.131 42.4851 -1100.6
v 617.257 46.2351 -1100.9
v 616.907 46.2351 -1101.25
v 616.907 46.2351 -1101.75
v 617.257 46.2351 -1100.9
v 617.751 46.2351 -1100.9
v 618.101 46.2351 -1101.25
v 618.101 46.2351 -1101.75
v 617.751 46.2351 -1102.1
v 617.257 46.2351 -1102.1
v 616.504 42.3601 -1101.91
v 616.504 39.9851 -1101.91
v 617.09 42.3601 -1102.5
v 617.09 39.9851 -1102.5
v 617.09 42.3601 -1102.5
v 617.09 39.9851 -1102.5
v 617.918 42.3601 -1102.5
v 617.918 39.9851 -1102.5
v 617.918 42.3601 -1102.5
v 617.918 39.9851 -1102.5
v 618.504 42.3601 -1101.91
v 618.504 39.9851 -1101.91
v 618.504 42.3601 -1101.91
v 618.504 39.9851 -1101.91
v 618.504 42.3601 -1101.09
v 618.504 39.9851 -1101.09
v 618.504 42.3601 -1101.09
v 618.504 39.9851 -1101.09
v 617.918 42.3601 -1100.5
v 617.918 39.9851 -1100.5
v 617.918 42.3601 -1100.5
v 617.918 39.9851 -1100.5
v 617.09 42.3601 -1100.5
v 617.09 39.9851 -1100.5
v 617.09 42.3601 -1100.5
v 617.09 39.9851 -1100.5
v 616.504 42.3601 -1101.09
v 616.504 39.9851 -1101.09
v 616.504 42.3601 -1101.09
v 616.504 39.9851 -1101.09
v 616.504 42.3601 -1101.91
v 616.504 39.9851 -1101.91
v 617.09 42.3601 -1102.5
v 617.131 42.4851 -1102.4
v 616.504 42.3601 -1101.91
v 616.603 42.4851 -1101.87
v 617.918 42.3601 -1102.5
v 617.877 42.4851 -1102.4
v 617.09 42.3601 -1102.5
v 617.131 42.4851 -1102.4
v 618.504 42.3601 -1101.91
v 618.405 42.4851 -1101.87
v 617.918 42.3601 -1102.5
v 617.877 42.4851 -1102.4
v 618.504 42.3601 -1101.09
v 618.405 42.4851 -1101.13
v 617.918 42.3601 -1100.5
v 617.877 42.4851 -1100.6
v 617.09 42.3601 -1100.5
v 617.131 42.4851 -1100.6
v 617.918 42.3601 -1100.5
v 617.877 42.4851 -1100.6
v 616.504 42.3601 -1101.09
v 616.603 42.4851 -1101.13
v 617.09 42.3601 -1100.5
v 617.131 42.4851 -1100.6
v 617.335 46.3183 -1100.97
v 617.381 46.2282 -1101.11
v 617.05 46.3183 -1101.18
v 617.17 46.2282 -1101.27
v 617.687 46.3183 -1100.97
v 617.641 46.2282 -1101.11
v 617.972 46.3183 -1101.18
v 617.852 46.2282 -1101.27
v 617.687 46.3183 -1100.97
v 617.641 46.2282 -1101.11
v 618.093 46.3186 -1101.51
v 617.933 46.2282 -1101.51
v 617.982 46.3186 -1101.85
v 617.852 46.2282 -1101.76
v 617.691 46.3186 -1102.07
v 617.641 46.2282 -1101.92
v 617.331 46.3186 -1102.07
v 617.381 46.2282 -1101.92
v 617.04 46.3186 -1101.85
v 617.17 46.2282 -1101.76
v 616.929 46.3186 -1101.51
v 617.089 46.2282 -1101.51
v 616.962 46.428 -1101.12
v 617.301 46.428 -1100.87
v 617.721 46.428 -1100.87
v 618.06 46.428 -1101.12
v 617.721 46.428 -1100.87
v 618.19 46.428 -1101.51
v 618.06 46.428 -1101.91
v 617.721 46.428 -1102.16
v 617.301 46.428 -1102.16
v 616.962 46.428 -1101.91
v 616.832 46.428 -1101.51
v 616.979 46.4678 -1101.13
v 617.308 46.4678 -1100.89
v 617.714 46.4678 -1100.89
v 617.714 46.4678 -1100.89
v 618.043 46.4678 -1101.13
v 618.168 46.4678 -1101.51
v 618.043 46.4678 -1101.9
v 617.714 46.4678 -1102.14
v 617.308 46.4678 -1102.14
v 616.979 46.4678 -1101.9
v 616.854 46.4678 -1101.51
v 617.089 46.2282 -1101.51
v 617.17 46.2282 -1101.27
v 617.17 46.2282 -1101.76
v 617.381 46.2282 -1101.92
v 617.641 46.2282 -1101.92
v 617.852 46.2282 -1101.76
v 617.933 46.2282 -1101.51
v 617.852 46.2282 -1101.27
v 617.641 46.2282 -1101.11
v 617.381 46.2282 -1101.11
v 617.595 46.2534 -1101.77
v 617.731 46.2534 -1101.67
v 617.427 46.2534 -1101.77
v 617.291 46.2534 -1101.67
v 617.233 46.2531 -1101.51
v 617.736 46.2531 -1101.35
v 617.597 46.2531 -1101.25
v 617.789 46.2531 -1101.51
v 617.286 46.2531 -1101.35
v 617.425 46.2531 -1101.25
v 618.043 46.4678 -1101.13
v 618.018 46.4261 -1101.15
v 618.168 46.4678 -1101.51
v 618.138 46.4261 -1101.51
v 618.043 46.4678 -1101.9
v 618.018 46.4261 -1101.88
v 617.714 46.4678 -1102.14
v 617.705 46.4261 -1102.11
v 617.308 46.4678 -1102.14
v 617.317 46.4261 -1102.11
v 616.979 46.4678 -1101.9
v 617.004 46.4261 -1101.88
v 616.854 46.4678 -1101.51
v 616.884 46.4261 -1101.51
v 616.979 46.4678 -1101.13
v 617.004 46.4261 -1101.15
v 617.308 46.4678 -1100.89
v 617.317 46.4261 -1100.92
v 617.714 46.4678 -1100.89
v 617.705 46.4261 -1100.92
v 617.714 46.4678 -1100.89
v 617.705 46.4261 -1100.92
v 617.789 46.2531 -1101.51
v 617.736 46.2531 -1101.35
v 617.731 46.2534 -1101.67
v 617.291 46.2534 -1101.67
v 617.233 46.2531 -1101.51
v 617.286 46.2531 -1101.35
v 617.705 46.4261 -1102.11
v 617.595 46.2534 -1101.77
v 617.317 46.4261 -1102.11
v 617.427 46.2534 -1101.77
v 617.317 46.4261 -1100.92
v 617.425 46.2531 -1101.25
v 617.705 46.4261 -1100.92
v 617.597 46.2531 -1101.25
v 617.705 46.4261 -1100.92
v 617.597 46.2531 -1101.25
v 617.423 46.2969 -1101.22
v 617.43 46.2041 -1101.24
v 617.263 46.2969 -1101.34
v 617.282 46.2041 -1101.35
v 617.621 46.2969 -1101.22
v 617.614 46.2041 -1101.24
v 617.781 46.2969 -1101.34
v 617.762 46.2041 -1101.35
v 617.621 46.2969 -1101.22
v 617.614 46.2041 -1101.24
v 617.842 46.2969 -1101.53
v 617.819 46.2041 -1101.53
v 617.781 46.2969 -1101.71
v 617.762 46.2041 -1101.7
v 617.621 46.2969 -1101.83
v 617.614 46.2041 -1101.81
v 617.423 46.2969 -1101.83
v 617.43 46.2041 -1101.81
v 617.263 46.2969 -1101.71
v 617.282 46.2041 -1101.7
v 617.202 46.2969 -1101.53
v 617.225 46.2041 -1101.53
v 617.272 46.3399 -1101.35
v 617.426 46.3399 -1101.23
v 617.618 46.3399 -1101.23
v 617.618 46.3399 -1101.23
v 617.772 46.3399 -1101.35
v 617.831 46.3399 -1101.53
v 617.772 46.3399 -1101.71
v 617.618 46.3399 -1101.82
v 617.426 46.3399 -1101.82
v 617.272 46.3399 -1101.71
v 617.213 46.3399 -1101.53
v 617.772 46.3399 -1101.35
v 617.761 46.2948 -1101.35
v 617.831 46.3399 -1101.53
v 617.817 46.2948 -1101.53
v 617.772 46.3399 -1101.71
v 617.761 46.2948 -1101.7
v 617.618 46.3399 -1101.82
v 617.613 46.2948 -1101.81
v 617.426 46.3399 -1101.82
v 617.431 46.2948 -1101.81
v 617.272 46.3399 -1101.71
v 617.283 46.2948 -1101.7
v 617.213 46.3399 -1101.53
v 617.227 46.2948 -1101.53
v 617.272 46.3399 -1101.35
v 617.283 46.2948 -1101.35
v 617.426 46.3399 -1101.23
v 617.431 46.2948 -1101.25
v 617.618 46.3399 -1101.23
v 617.613 46.2948 -1101.25
v 617.618 46.3399 -1101.23
v 617.613 46.2948 -1101.25
v 617.761 46.2948 -1101.35
v 617.737 46.2443 -1101.37
v 617.817 46.2948 -1101.53
v 617.788 46.2443 -1101.53
v 617.761 46.2948 -1101.7
v 617.737 46.2443 -1101.68
v 617.613 46.2948 -1101.81
v 617.604 46.2443 -1101.78
v 617.431 46.2948 -1101.81
v 617.44 46.2443 -1101.78
v 617.283 46.2948 -1101.7
v 617.307 46.2443 -1101.68
v 617.227 46.2948 -1101.53
v 617.256 46.2443 -1101.53
v 617.283 46.2948 -1101.35
v 617.307 46.2443 -1101.37
v 617.431 46.2948 -1101.25
v 617.44 46.2443 -1101.27
v 617.613 46.2948 -1101.25
v 617.604 46.2443 -1101.27
v 617.613 46.2948 -1101.25
v 617.604 46.2443 -1101.27
v 617.438 46.1174 -1101.27
v 617.465 46.0329 -1101.35
v 617.302 46.1174 -1101.37
v 617.372 46.0329 -1101.42
v 617.606 46.1174 -1101.27
v 617.579 46.0329 -1101.35
v 617.742 46.1174 -1101.37
v 617.672 46.0329 -1101.42
v 617.606 46.1174 -1101.27
v 617.579 46.0329 -1101.35
v 617.794 46.1174 -1101.53
v 617.708 46.0329 -1101.53
v 617.742 46.1174 -1101.69
v 617.672 46.0329 -1101.64
v 617.606 46.1174 -1101.79
v 617.579 46.0329 -1101.7
v 617.438 46.1174 -1101.79
v 617.465 46.0329 -1101.7
v 617.302 46.1174 -1101.69
v 617.372 46.0329 -1101.64
v 617.25 46.1174 -1101.53
v 617.336 46.0329 -1101.53
v 617.336 46.0329 -1101.53
v 617.372 46.0329 -1101.42
v 617.372 46.0329 -1101.64
v 617.465 46.0329 -1101.7
v 617.579 46.0329 -1101.7
v 617.672 46.0329 -1101.64
v 617.708 46.0329 -1101.53
v 617.672 46.0329 -1101.42
v 617.579 46.0329 -1101.35
v 617.465 46.0329 -1101.35
v 617.279 46.1964 -1101.35
v 617.282 46.2041 -1101.35
v 617.429 46.1964 -1101.24
v 617.43 46.2041 -1101.24
v 617.615 46.1964 -1101.24
v 617.614 46.2041 -1101.24
v 617.615 46.1964 -1101.24
v 617.614 46.2041 -1101.24
v 617.765 46.1964 -1101.35
v 617.762 46.2041 -1101.35
v 617.823 46.1964 -1101.53
v 617.819 46.2041 -1101.53
v 617.765 46.1964 -1101.7
v 617.762 46.2041 -1101.7
v 617.615 46.1964 -1101.81
v 617.614 46.2041 -1101.81
v 617.429 46.1964 -1101.81
v 617.43 46.2041 -1101.81
v 617.279 46.1964 -1101.7
v 617.282 46.2041 -1101.7
v 617.221 46.1964 -1101.53
v 617.225 46.2041 -1101.53
v 617.737 46.2443 -1101.37
v 617.522 46.3402 -1101.53
v 617.788 46.2443 -1101.53
v 617.737 46.2443 -1101.68
v 617.604 46.2443 -1101.27
v 617.44 46.2443 -1101.27
v 617.307 46.2443 -1101.37
v 617.604 46.2443 -1101.78
v 617.44 46.2443 -1101.78
v 617.307 46.2443 -1101.68
v 617.256 46.2443 -1101.53
v 616.147 42.2872 -1101.66
v 616.255 41.715 -1101.58
v 616.174 41.81 -1101.24
v 616.028 42.2304 -1101.98
v 616.147 42.2872 -1101.66
v 616.003 42.5389 -1101.81
v 616.255 41.715 -1101.58
v 616.147 42.2872 -1101.66
v 616.11 41.8892 -1101.89
v 616.117 42.1184 -1101.06
v 616.044 42.4597 -1101.16
v 616.174 41.81 -1101.24
v 616.028 42.2304 -1101.98
v 616.11 41.8892 -1101.89
v 616.147 42.2872 -1101.66
v 616.003 42.5389 -1101.81
v 616.147 42.2872 -1101.66
v 616.094 42.6339 -1101.46
v 616.044 42.4597 -1101.16
v 616.094 42.6339 -1101.46
v 616.147 42.2872 -1101.66
v 616.174 41.81 -1101.24
v 616.044 42.4597 -1101.16
v 616.147 42.2872 -1101.66
v 613.616 42.6337 -1101.46
v 613.462 42.4595 -1101.16
v 613.437 42.1182 -1101.06
v 613.704 42.1896 -1101.63
v 613.847 42.2303 -1101.98
v 613.926 42.3913 -1101.89
v 613.616 42.6337 -1101.46
v 613.704 42.1896 -1101.63
v 613.714 42.5917 -1101.62
v 613.704 42.1896 -1101.63
v 614.227 42.4313 -1101.87
v 614.287 42.5388 -1101.81
v 614.287 42.5388 -1101.81
v 614.292 42.5686 -1101.7
v 613.704 42.1896 -1101.63
v 613.704 42.1896 -1101.63
v 614.292 42.5686 -1101.7
v 613.714 42.5917 -1101.62
v 613.704 42.1896 -1101.63
v 613.926 42.3913 -1101.89
v 614.227 42.4313 -1101.87
v 613.704 42.1896 -1101.63
v 613.573 42.1055 -1101.95
v 613.847 42.2303 -1101.98
v 613.573 42.1055 -1101.95
v 613.428 41.8098 -1101.24
v 613.532 41.889 -1101.89
v 613.704 42.1896 -1101.63
v 613.437 42.1182 -1101.06
v 613.428 41.8098 -1101.24
v 613.573 42.1055 -1101.95
v 613.704 42.1896 -1101.63
v 613.428 41.8098 -1101.24
v 613.704 42.1896 -1101.63
v 613.616 42.6337 -1101.46
v 613.437 42.1182 -1101.06
v 613.428 41.8098 -1101.24
v 613.505 41.7148 -1101.58
v 613.532 41.889 -1101.89
v 613.616 42.6337 -1101.46
v 616.094 42.6339 -1101.46
v 616.044 42.4597 -1101.16
v 613.462 42.4595 -1101.16
v 613.714 42.5917 -1101.62
v 614.292 42.5686 -1101.7
v 614.287 42.5388 -1101.81
v 616.003 42.5389 -1101.81
v 613.505 41.7148 -1101.58
v 616.255 41.715 -1101.58
v 616.11 41.8892 -1101.89
v 613.532 41.889 -1101.89
v 613.428 41.8098 -1101.24
v 616.174 41.81 -1101.24
v 613.437 42.1182 -1101.06
v 616.117 42.1184 -1101.06
v 616.174 41.81 -1101.24
v 613.428 41.8098 -1101.24
v 616.028 42.2304 -1101.98
v 614.227 42.4313 -1101.87
v 613.847 42.2303 -1101.98
v 613.926 42.3913 -1101.89
v 613.573 42.1055 -1101.95
v 621.557 41.9155 -1101.66
v 621.665 41.3434 -1101.58
v 621.584 41.4383 -1101.23
v 621.437 41.8588 -1101.98
v 621.557 41.9155 -1101.66
v 621.413 42.1673 -1101.81
v 621.665 41.3434 -1101.58
v 621.557 41.9155 -1101.66
v 621.52 41.5176 -1101.88
v 621.527 41.7468 -1101.06
v 621.454 42.088 -1101.16
v 621.584 41.4383 -1101.23
v 621.437 41.8588 -1101.98
v 621.52 41.5176 -1101.88
v 621.557 41.9155 -1101.66
v 621.413 42.1673 -1101.81
v 621.557 41.9155 -1101.66
v 621.504 42.2622 -1101.46
v 621.454 42.088 -1101.16
v 621.504 42.2622 -1101.46
v 621.557 41.9155 -1101.66
v 621.584 41.4383 -1101.23
v 621.454 42.088 -1101.16
v 621.557 41.9155 -1101.66
v 619.026 42.262 -1101.46
v 618.872 42.0879 -1101.16
v 618.847 41.7466 -1101.06
v 619.114 41.8179 -1101.63
v 619.257 41.8586 -1101.98
v 619.336 42.0197 -1101.89
v 619.026 42.262 -1101.46
v 619.114 41.8179 -1101.63
v 619.124 42.2201 -1101.62
v 619.114 41.8179 -1101.63
v 619.637 42.0596 -1101.87
v 619.697 42.1671 -1101.81
v 619.697 42.1671 -1101.81
v 619.702 42.197 -1101.7
v 619.114 41.8179 -1101.63
v 619.114 41.8179 -1101.63
v 619.702 42.197 -1101.7
v 619.124 42.2201 -1101.62
v 619.114 41.8179 -1101.63
v 619.336 42.0197 -1101.89
v 619.637 42.0596 -1101.87
v 619.114 41.8179 -1101.63
v 618.983 41.7339 -1101.94
v 619.257 41.8586 -1101.98
v 618.983 41.7339 -1101.94
v 618.838 41.4381 -1101.24
v 618.942 41.5174 -1101.88
v 619.114 41.8179 -1101.63
v 618.847 41.7466 -1101.06
v 618.838 41.4381 -1101.24
v 618.983 41.7339 -1101.94
v 619.114 41.8179 -1101.63
v 618.838 41.4381 -1101.24
v 619.114 41.8179 -1101.63
v 619.026 42.262 -1101.46
v 618.847 41.7466 -1101.06
v 618.838 41.4381 -1101.24
v 618.915 41.3432 -1101.58
v 618.942 41.5174 -1101.88
v 619.026 42.262 -1101.46
v 621.504 42.2622 -1101.46
v 621.454 42.088 -1101.16
v 618.872 42.0879 -1101.16
v 619.124 42.2201 -1101.62
v 619.702 42.197 -1101.7
v 619.697 42.1671 -1101.81
v 621.413 42.1673 -1101.81
v 618.915 41.3432 -1101.58
v 621.665 41.3434 -1101.58
v 621.52 41.5176 -1101.88
v 618.942 41.5174 -1101.88
v 618.838 41.4381 -1101.24
v 621.584 41.4383 -1101.23
v 618.847 41.7466 -1101.06
v 621.527 41.7468 -1101.06
v 621.584 41.4383 -1101.23
v 618.838 41.4381 -1101.24
v 621.437 41.8588 -1101.98
v 619.637 42.0596 -1101.87
v 619.257 41.8586 -1101.98
v 619.336 42.0197 -1101.89
v 618.983 41.7339 -1101.94
v 617.783 41.3345 -1098.81
v 617.83 41.0393 -1098.29
v 617.934 41.6445 -1098.73
v 617.983 41.3335 -1098.2
v 617.507 40.9461 -1098.33
v 617.506 41.2112 -1098.89
v 617.067 40.9626 -1098.32
v 617.2 41.3718 -1098.84
v 616.905 41.3418 -1098.19
v 617.001 41.656 -1098.76
v 617.084 41.7455 -1098.1
v 617.162 41.9235 -1098.62
v 617.877 41.7516 -1098.07
v 617.505 41.9582 -1098.04
v 617.765 41.9187 -1098.6
v 617.5 42.0717 -1098.6
v 617.737 41.9447 -1099.9
v 617.667 41.7765 -1099.97
v 617.794 41.8043 -1099.33
v 617.759 41.618 -1099.39
v 617.503 41.5028 -1099.45
v 617.487 41.757 -1099.96
v 617.238 41.5735 -1099.43
v 617.308 41.7626 -1099.93
v 617.221 41.9527 -1099.87
v 617.483 42.1798 -1099.81
v 617.105 41.8133 -1099.36
v 617.662 42.0981 -1099.84
v 617.697 42.0049 -1099.26
v 617.498 42.0792 -1099.24
v 617.758 42.0681 -1100.38
v 617.674 42.0932 -1100.45
v 617.683 41.9645 -1100.42
v 617.457 42.1576 -1100.31
v 617.483 42.0449 -1100.33
v 617.585 42.0886 -1100.47
v 617.563 42.1709 -1100.42
v 617.566 42.1477 -1100.31
v 617.674 42.0932 -1100.45
v 617.758 42.0681 -1100.38
v 617.934 41.6445 -1098.73
v 617.983 41.3335 -1098.2
v 617.794 41.8043 -1099.33
v 617.567 41.912 -1100.42
v 617.737 41.9447 -1099.9
v 617.585 42.0886 -1100.47
v 617.801 41.6274 -1103.24
v 617.847 41.4408 -1102.67
v 617.954 41.9477 -1103.21
v 618.001 41.7468 -1102.64
v 617.523 41.3444 -1102.68
v 617.524 41.4926 -1103.29
v 617.084 41.3636 -1102.68
v 617.218 41.6612 -1103.27
v 616.923 41.7608 -1102.63
v 617.021 41.957 -1103.24
v 617.104 42.1756 -1102.61
v 617.183 42.2448 -1103.17
v 617.897 42.1831 -1102.59
v 617.525 42.3927 -1102.6
v 617.785 42.2416 -1103.15
v 617.521 42.3929 -1103.17
v 617.756 42.0088 -1104.43
v 617.686 41.8318 -1104.45
v 617.814 41.9859 -1103.83
v 617.778 41.7898 -1103.86
v 617.521 41.6671 -1103.89
v 617.506 41.8147 -1104.44
v 617.256 41.7414 -1103.89
v 617.327 41.8265 -1104.42
v 617.241 42.0261 -1104.39
v 617.504 42.2591 -1104.38
v 617.124 41.9904 -1103.87
v 617.682 42.1713 -1104.4
v 617.717 42.1962 -1103.81
v 617.519 42.2728 -1103.81
v 617.778 42.0348 -1104.92
v 617.695 42.0463 -1104.99
v 617.703 41.9268 -1104.93
v 617.478 42.1376 -1104.87
v 617.503 42.024 -1104.86
v 617.605 42.0389 -1105.01
v 617.584 42.1296 -1104.97
v 617.587 42.1283 -1104.86
v 617.695 42.0463 -1104.99
v 617.778 42.0348 -1104.92
v 617.954 41.9477 -1103.21
v 618.001 41.7468 -1102.64
v 617.814 41.9859 -1103.83
v 617.587 41.8744 -1104.93
v 617.756 42.0088 -1104.43
v 617.605 42.0389 -1105.01
v 586 42.8709 -1068
v 586 42.9525 -1070
v 586 43.0358 -1072
v 586 43.1208 -1074
v 586 43.2076 -1076
v 586 43.296 -1078
v 586 43.386 -1080
v 586 43.4777 -1082
v 586 43.5709 -1084
v 586 43.6656 -1086
v 586 43.7618 -1088
v 586 43.8589 -1090
v 586 43.9569 -1092
v 586 44.0556 -1094
v 586 44.1551 -1096
v 586 44.2553 -1098
v 586 44.3562 -1100
v 586 44.4577 -1102
v 586 44.5599 -1104
v 586 44.6626 -1106
v 586 44.7853 -1108
v 586 44.9702 -1110
v 586 45.1931 -1112
v 586 45.45 -1114
v 586 45.7761 -1116
v 586 46.0221 -1118
v 586 46.1331 -1120
v 586 46.1773 -1122
v 586 46.1766 -1124
v 586 46.1395 -1126
v 586 46.0472 -1128
v 586 45.924 -1130
v 588 42.7166 -1068
v 588 42.7996 -1070
v 588 42.8843 -1072
v 588 42.9709 -1074
v 588 43.0591 -1076
v 588 43.1489 -1078
v 588 43.2404 -1080
v 588 43.3335 -1082
v 588 43.4282 -1084
v 588 43.5244 -1086
v 588 43.622 -1088
v 588 43.7206 -1090
v 588 43.82 -1092
v 588 43.9202 -1094
v 588 44.0212 -1096
v 588 44.1229 -1098
v 588 44.2252 -1100
v 588 44.3283 -1102
v 588 44.4319 -1104
v 588 44.5361 -1106
v 588 44.648 -1108
v 588 44.7776 -1110
v 588 44.9375 -1112
v 588 45.183 -1114
v 588 45.5504 -1116
v 588 45.924 -1118
v 588 46.12 -1120
v 588 46.2083 -1122
v 588 46.2561 -1124
v 588 46.2546 -1126
v 588 46.1855 -1128
v 588 46.0548 -1130
v 590 42.5557 -1068
v 590 42.6402 -1070
v 590 42.7264 -1072
v 590 42.8144 -1074
v 590 42.9041 -1076
v 590 42.9955 -1078
v 590 43.0885 -1080
v 590 43.1831 -1082
v 590 43.2793 -1084
v 590 43.377 -1086
v 590 43.4761 -1088
v 590 43.5762 -1090
v 590 43.6771 -1092
v 590 43.7788 -1094
v 590 43.8813 -1096
v 590 43.9845 -1098
v 590 44.0884 -1100
v 590 44.193 -1102
v 590 44.2982 -1104
v 590 44.4039 -1106
v 590 44.5102 -1108
v 590 44.6292 -1110
v 590 44.731 -1112
v 590 44.901 -1114
v 590 45.2321 -1116
v 590 45.6606 -1118
v 590 46.0373 -1120
v 590 46.2069 -1122
v 590 46.3046 -1124
v 590 46.3397 -1126
v 590 46.2954 -1128
v 590 46.1937 -1130
v 592 42.3884 -1068
v 592 42.4744 -1070
v 592 42.5622 -1072
v 592 42.6518 -1074
v 592 42.743 -1076
v 592 42.8359 -1078
v 592 42.9304 -1080
v 592 43.0266 -1082
v 592 43.1243 -1084
v 592 43.2235 -1086
v 592 43.3242 -1088
v 592 43.4258 -1090
v 592 43.5283 -1092
v 592 43.6316 -1094
v 592 43.7356 -1096
v 592 43.8404 -1098
v 592 43.9459 -1100
v 592 44.052 -1102
v 592 44.1588 -1104
v 592 44.2661 -1106
v 592 44.374 -1108
v 592 44.4961 -1110
v 592 44.5956 -1112
v 592 44.7009 -1114
v 592 44.886 -1116
v 592 45.2578 -1118
v 592 45.7344 -1120
v 592 46.1322 -1122
v 592 46.2878 -1124
v 592 46.3575 -1126
v 592 46.3563 -1128
v 592 46.3096 -1130
v 594 42.215 -1068
v 594 42.3026 -1070
v 594 42.392 -1072
v 594 42.4831 -1074
v 594 42.5759 -1076
v 594 42.6704 -1078
v 594 42.7665 -1080
v 594 42.8642 -1082
v 594 42.9635 -1084
v 594 43.0643 -1086
v 594 43.1665 -1088
v 594 43.2697 -1090
v 594 43.3738 -1092
v 594 43.4787 -1094
v 594 43.5843 -1096
v 594 43.6907 -1098
v 594 43.7978 -1100
v 594 43.9056 -1102
v 594 44.014 -1104
v 594 44.1229 -1106
v 594 44.2324 -1108
v 594 44.3427 -1110
v 594 44.4767 -1112
v 594 44.569 -1114
v 594 44.6549 -1116
v 594 44.8179 -1118
v 594 45.2472 -1120
v 594 45.7918 -1122
v 594 46.1913 -1124
v 594 46.3138 -1126
v 594 46.3662 -1128
v 594 46.3809 -1130
v 596 42.0357 -1068
v 596 42.1249 -1070
v 596 42.2158 -1072
v 596 42.3085 -1074
v 596 42.403 -1076
v 596 42.499 -1078
v 596 42.5968 -1080
v 596 42.6961 -1082
v 596 42.797 -1084
v 596 42.8994 -1086
v 596 43.0033 -1088
v 596 43.1081 -1090
v 596 43.2138 -1092
v 596 43.3203 -1094
v 596 43.4276 -1096
v 596 43.5357 -1098
v 596 43.6445 -1100
v 596 43.7539 -1102
v 596 43.8639 -1104
v 596 43.9745 -1106
v 596 44.0857 -1108
v 596 44.1973 -1110
v 596 44.3282 -1112
v 596 44.4494 -1114
v 596 44.5137 -1116
v 596 44.5896 -1118
v 596 44.7446 -1120
v 596 45.2315 -1122
v 596 45.8298 -1124
v 596 46.2275 -1126
v 596 46.3345 -1128
v 596 46.3827 -1130
v 598 41.8507 -1068
v 598 41.9415 -1070
v 598 42.0341 -1072
v 598 42.1284 -1074
v 598 42.2245 -1076
v 598 42.3222 -1078
v 598 42.4216 -1080
v 598 42.5226 -1082
v 598 42.6251 -1084
v 598 42.7292 -1086
v 598 42.8347 -1088
v 598 42.9412 -1090
v 598 43.0485 -1092
v 598 43.1568 -1094
v 598 43.2658 -1096
v 598 43.3755 -1098
v 598 43.486 -1100
v 598 43.5971 -1102
v 598 43.7088 -1104
v 598 43.8211 -1106
v 598 43.934 -1108
v 598 44.0473 -1110
v 598 44.1611 -1112
v 598 44.2968 -1114
v 598 44.3861 -1116
v 598 44.4436 -1118
v 598 44.5615 -1120
v 598 44.777 -1122
v 598 45.2003 -1124
v 598 45.8157 -1126
v 598 46.1945 -1128
v 598 46.2976 -1130
v 600 41.6602 -1068
v 600 41.7526 -1070
v 600 41.8469 -1072
v 600 41.9429 -1074
v 600 42.0406 -1076
v 600 42.1401 -1078
v 600 42.2411 -1080
v 600 42.3438 -1082
v 600 42.448 -1084
v 600 42.5538 -1086
v 600 42.661 -1088
v 600 42.7692 -1090
v 600 42.8783 -1092
v 600 42.9882 -1094
v 600 43.0989 -1096
v 600 43.2104 -1098
v 600 43.3226 -1100
v 600 43.4355 -1102
v 600 43.5489 -1104
v 600 43.663 -1106
v 600 43.7776 -1108
v 600 43.8926 -1110
v 600 44.0081 -1112
v 600 44.124 -1114
v 600 44.2468 -1116
v 600 44.3225 -1118
v 600 44.4265 -1120
v 600 44.6162 -1122
v 600 44.9153 -1124
v 600 45.2849 -1126
v 600 45.6462 -1128
v 600 46.0191 -1130
v 602 41.4644 -1068
v 602 41.5586 -1070
v 602 41.6545 -1072
v 602 41.7523 -1074
v 602 41.8517 -1076
v 602 41.9528 -1078
v 602 42.0556 -1080
v 602 42.16 -1082
v 602 42.266 -1084
v 602 42.3735 -1086
v 602 42.4824 -1088
v 602 42.5924 -1090
v 602 42.7032 -1092
v 602 42.8149 -1094
v 602 42.9274 -1096
v 602 43.0406 -1098
v 602 43.1546 -1100
v 602 43.2692 -1102
v 602 43.3845 -1104
v 602 43.5003 -1106
v 602 43.6167 -1108
v 602 43.7335 -1110
v 602 43.8508 -1112
v 602 43.9684 -1114
v 602 44.0864 -1116
v 602 44.1885 -1118
v 602 44.2869 -1120
v 602 44.4518 -1122
v 602 44.7114 -1124
v 602 45.0426 -1126
v 602 45.4 -1128
v 602 45.7473 -1130
v 604 41.2637 -1068
v 604 41.3596 -1070
v 604 41.4573 -1072
v 604 41.5567 -1074
v 604 41.6579 -1076
v 604 41.7608 -1078
v 604 41.8654 -1080
v 604 41.9715 -1082
v 604 42.0793 -1084
v 604 42.1885 -1086
v 604 42.2992 -1088
v 604 42.411 -1090
v 604 42.5236 -1092
v 604 42.6371 -1094
v 604 42.7513 -1096
v 604 42.8664 -1098
v 604 42.9822 -1100
v 604 43.0986 -1102
v 604 43.2157 -1104
v 604 43.3333 -1106
v 604 43.4515 -1108
v 604 43.5701 -1110
v 604 43.6892 -1112
v 604 43.8087 -1114
v 604 43.9285 -1116
v 604 44.0469 -1118
v 604 44.1441 -1120
v 604 44.2802 -1122
v 604 44.4877 -1124
v 604 44.7615 -1126
v 604 45.0946 -1128
v 604 45.4534 -1130
v 606 41.0582 -1068
v 606 41.1559 -1070
v 606 41.2554 -1072
v 606 41.3566 -1074
v 606 41.4596 -1076
v 606 41.5643 -1078
v 606 41.6706 -1080
v 606 41.7785 -1082
v 606 41.8881 -1084
v 606 41.9991 -1086
v 606 42.1117 -1088
v 606 42.2252 -1090
v 606 42.3396 -1092
v 606 42.4549 -1094
v 606 42.571 -1096
v 606 42.6879 -1098
v 606 42.8055 -1100
v 606 42.9238 -1102
v 606 43.0427 -1104
v 606 43.1622 -1106
v 606 43.2822 -1108
v 606 43.4027 -1110
v 606 43.5237 -1112
v 606 43.645 -1114
v 606 43.7666 -1116
v 606 43.8885 -1118
v 606 44.0088 -1120
v 606 44.1273 -1122
v 606 44.2809 -1124
v 606 44.4887 -1126
v 606 44.7679 -1128
v 606 45.092 -1130
v 608 40.8483 -1068
v 608 40.9478 -1070
v 608 41.049 -1072
v 608 41.1521 -1074
v 608 41.2569 -1076
v 608 41.3634 -1078
v 608 41.4715 -1080
v 608 41.5813 -1082
v 608 41.6927 -1084
v 608 41.8056 -1086
v 608 41.9199 -1088
v 608 42.0353 -1090
v 608 42.1516 -1092
v 608 42.2688 -1094
v 608 42.3867 -1096
v 608 42.5055 -1098
v 608 42.625 -1100
v 608 42.7451 -1102
v 608 42.8659 -1104
v 608 42.9873 -1106
v 608 43.1092 -1108
v 608 43.2315 -1110
v 608 43.3543 -1112
v 608 43.4775 -1114
v 608 43.6011 -1116
v 608 43.7248 -1118
v 608 43.8489 -1120
v 608 43.9753 -1122
v 608 44.1008 -1124
v 608 44.2491 -1126
v 608 44.4571 -1128
v 608 44.715 -1130
v 610 40.6342 -1068
v 610 40.7354 -1070
v 610 40.8386 -1072
v 610 40.9434 -1074
v 610 41.0501 -1076
v 610 41.1584 -1078
v 610 41.2684 -1080
v 610 41.3801 -1082
v 610 41.4933 -1084
v 610 41.6081 -1086
v 610 41.7243 -1088
v 610 41.8416 -1090
v 610 41.9598 -1092
v 610 42.0788 -1094
v 610 42.1987 -1096
v 610 42.3194 -1098
v 610 42.4407 -1100
v 610 42.5628 -1102
v 610 42.6855 -1104
v 610 42.8088 -1106
v 610 42.9325 -1108
v 610 43.0568 -1110
v 610 43.1815 -1112
v 610 43.3066 -1114
v 610 43.432 -1116
v 610 43.5577 -1118
v 610 43.6837 -1120
v 610 43.8098 -1122
v 610 43.936 -1124
v 610 44.0666 -1126
v 610 44.2125 -1128
v 610 44.3899 -1130
v 612 40.4161 -1068
v 612 40.5192 -1070
v 612 40.6242 -1072
v 612 40.731 -1074
v 612 40.8395 -1076
v 612 40.9497 -1078
v 612 41.0616 -1080
v 612 41.1752 -1082
v 612 41.2903 -1084
v 612 41.407 -1086
v 612 41.5251 -1088
v 612 41.6443 -1090
v 612 41.7644 -1092
v 612 41.8854 -1094
v 612 42.0072 -1096
v 612 42.1297 -1098
v 612 42.2531 -1100
v 612 42.377 -1102
v 612 42.5017 -1104
v 612 42.6269 -1106
v 612 42.7526 -1108
v 612 42.8788 -1110
v 612 43.0055 -1112
v 612 43.1325 -1114
v 612 43.2598 -1116
v 612 43.3874 -1118
v 612 43.5153 -1120
v 612 43.6433 -1122
v 612 43.7715 -1124
v 612 43.8997 -1126
v 612 44.0279 -1128
v 612 44.1562 -1130
v 614 40.1943 -1068
v 614 40.2994 -1070
v 614 40.4062 -1072
v 614 40.5149 -1074
v 614 40.6253 -1076
v 614 40.7375 -1078
v 614 40.8513 -1080
v 614 40.9668 -1082
v 614 41.0838 -1084
v 614 41.2025 -1086
v 614 41.3225 -1088
v 614 41.4437 -1090
v 614 41.5657 -1092
v 614 41.6886 -1094
v 614 41.8124 -1096
v 614 41.9369 -1098
v 614 42.0622 -1100
v 614 42.1881 -1102
v 614 42.3147 -1104
v 614 42.4419 -1106
v 614 42.5696 -1108
v 614 42.6977 -1110
v 614 42.8263 -1112
v 614 42.9553 -1114
v 614 43.0846 -1116
v 614 43.2142 -1118
v 614 43.344 -1120
v 614 43.4739 -1122
v 614 43.604 -1124
v 614 43.7342 -1126
v 614 43.8644 -1128
v 614 43.9945 -1130
v 616 39.9692 -1068
v 616 40.0761 -1070
v 616 40.1849 -1072
v 616 40.2955 -1074
v 616 40.4079 -1076
v 616 40.522 -1078
v 616 40.6378 -1080
v 616 40.7552 -1082
v 616 40.8742 -1084
v 616 40.9948 -1086
v 616 41.1169 -1088
v 616 41.24 -1090
v 616 41.364 -1092
v 616 41.4889 -1094
v 616 41.6146 -1096
v 616 41.7411 -1098
v 616 41.8684 -1100
v 616 41.9963 -1102
v 616 42.1249 -1104
v 616 42.254 -1106
v 616 42.3837 -1108
v 616 42.5139 -1110
v 616 42.6444 -1112
v 616 42.7754 -1114
v 616 42.9067 -1116
v 616 43.0382 -1118
v 616 43.17 -1120
v 616 43.3019 -1122
v 616 43.434 -1124
v 616 43.5661 -1126
v 616 43.6982 -1128
v 616 43.8303 -1130
v 618 39.7408 -1068
v 618 39.8498 -1070
v 618 39.9605 -1072
v 618 40.0731 -1074
v 618 40.1875 -1076
v 618 40.3035 -1078
v 618 40.4213 -1080
v 618 40.5407 -1082
v 618 40.6617 -1084
v 618 40.7843 -1086
v 618 40.9083 -1088
v 618 41.0334 -1090
v 618 41.1595 -1092
v 618 41.2864 -1094
v 618 41.4141 -1096
v 618 41.5426 -1098
v 618 41.6719 -1100
v 618 41.8019 -1102
v 618 41.9324 -1104
v 618 42.0636 -1106
v 618 42.1953 -1108
v 618 42.3274 -1110
v 618 42.46 -1112
v 618 42.593 -1114
v 618 42.7262 -1116
v 618 42.8598 -1118
v 618 42.9935 -1120
v 618 43.1274 -1122
v 618 43.2615 -1124
v 618 43.3956 -1126
v 618 43.5297 -1128
v 618 43.6638 -1130
v 620 39.5097 -1068
v 620 39.6205 -1070
v 620 39.7333 -1072
v 620 39.8479 -1074
v 620 39.9642 -1076
v 620 40.0823 -1078
v 620 40.2021 -1080
v 620 40.3235 -1082
v 620 40.4466 -1084
v 620 40.5712 -1086
v 620 40.6972 -1088
v 620 40.8244 -1090
v 620 40.9524 -1092
v 620 41.0814 -1094
v 620 41.2112 -1096
v 620 41.3417 -1098
v 620 41.473 -1100
v 620 41.605 -1102
v 620 41.7376 -1104
v 620 41.8708 -1106
v 620 42.0045 -1108
v 620 42.1387 -1110
v 620 42.2733 -1112
v 620 42.4082 -1114
v 620 42.5435 -1116
v 620 42.6791 -1118
v 620 42.8149 -1120
v 620 42.9508 -1122
v 620 43.0868 -1124
v 620 43.2229 -1126
v 620 43.359 -1128
v 620 43.4951 -1130
v 622 39.2758 -1068
v 622 39.3887 -1070
v 622 39.5035 -1072
v 622 39.6201 -1074
v 622 39.7385 -1076
v 622 39.8586 -1078
v 622 39.9804 -1080
v 622 40.1039 -1082
v 622 40.229 -1084
v 622 40.3557 -1086
v 622 40.4838 -1088
v 622 40.613 -1090
v 622 40.7431 -1092
v 622 40.8741 -1094
v 622 41.0059 -1096
v 622 41.1385 -1098
v 622 41.2719 -1100
v 622 41.4059 -1102
v 622 41.5406 -1104
v 622 41.6758 -1106
v 622 41.8116 -1108
v 622 41.9478 -1110
v 622 42.0845 -1112
v 622 42.2215 -1114
v 622 42.3588 -1116
v 622 42.4964 -1118
v 622 42.6342 -1120
v 622 42.7722 -1122
v 622 42.9102 -1124
v 622 43.0483 -1126
v 622 43.1865 -1128
v 622 43.3246 -1130
v 624 39.0396 -1068
v 624 39.1546 -1070
v 624 39.2714 -1072
v 624 39.3901 -1074
v 624 39.5105 -1076
v 624 39.6327 -1078
v 624 39.7566 -1080
v 624 39.8821 -1082
v 624 40.0093 -1084
v 624 40.138 -1086
v 624 40.2682 -1088
v 624 40.3995 -1090
v 624 40.5317 -1092
v 624 40.6648 -1094
v 624 40.7987 -1096
v 624 40.9334 -1098
v 624 41.0688 -1100
v 624 41.205 -1102
v 624 41.3417 -1104
v 624 41.479 -1106
v 624 41.6168 -1108
v 624 41.7551 -1110
v 624 41.8938 -1112
v 624 42.0329 -1114
v 624 42.1723 -1116
v 624 42.3119 -1118
v 624 42.4518 -1120
v 624 42.5918 -1122
v 624 42.7319 -1124
v 624 42.8721 -1126
v 624 43.0122 -1128
v 624 43.1523 -1130
v 626 38.8011 -1068
v 626 38.9182 -1070
v 626 39.0371 -1072
v 626 39.1579 -1074
v 626 39.2804 -1076
v 626 39.4047 -1078
v 626 39.5307 -1080
v 626 39.6583 -1082
v 626 39.7876 -1084
v 626 39.9184 -1086
v 626 40.0508 -1088
v 626 40.1841 -1090
v 626 40.3184 -1092
v 626 40.4536 -1094
v 626 40.5896 -1096
v 626 40.7265 -1098
v 626 40.864 -1100
v 626 41.0022 -1102
v 626 41.141 -1104
v 626 41.2804 -1106
v 626 41.4204 -1108
v 626 41.5608 -1110
v 626 41.7016 -1112
v 626 41.8427 -1114
v 626 41.9842 -1116
v 626 42.1259 -1118
v 626 42.2678 -1120
v 626 42.4099 -1122
v 626 42.5521 -1124
v 626 42.6943 -1126
v 626 42.8365 -1128
v 626 42.9786 -1130
v 628 38.5599 -1068
v 628 38.679 -1070
v 628 38.8001 -1072
v 628 38.923 -1074
v 628 39.0477 -1076
v 628 39.1741 -1078
v 628 39.3022 -1080
v 628 39.432 -1082
v 628 39.5635 -1084
v 628 39.6965 -1086
v 628 39.8309 -1088
v 628 39.9665 -1090
v 628 40.1029 -1092
v 628 40.2403 -1094
v 628 40.3784 -1096
v 628 40.5174 -1098
v 628 40.6571 -1100
v 628 40.7974 -1102
v 628 40.9384 -1104
v 628 41.08 -1106
v 628 41.222 -1108
v 628 41.3645 -1110
v 628 41.5075 -1112
v 628 41.6507 -1114
v 628 41.7943 -1116
v 628 41.9382 -1118
v 628 42.0822 -1120
v 628 42.2264 -1122
v 628 42.3707 -1124
v 628 42.515 -1126
v 628 42.6593 -1128
v 628 42.8035 -1130
v 630 38.3158 -1068
v 630 38.4371 -1070
v 630 38.5604 -1072
v 630 38.6855 -1074
v 630 38.8124 -1076
v 630 38.941 -1078
v 630 39.0713 -1080
v 630 39.2033 -1082
v 630 39.3369 -1084
v 630 39.4721 -1086
v 630 39.6088 -1088
v 630 39.7465 -1090
v 630 39.8852 -1092
v 630 40.0247 -1094
v 630 40.1651 -1096
v 630 40.3062 -1098
v 630 40.4481 -1100
v 630 40.5906 -1102
v 630 40.7338 -1104
v 630 40.8775 -1106
v 630 41.0218 -1108
v 630 41.1665 -1110
v 630 41.3116 -1112
v 630 41.457 -1114
v 630 41.6028 -1116
v 630 41.7488 -1118
v 630 41.895 -1120
v 630 42.0413 -1122
v 630 42.1877 -1124
v 630 42.3342 -1126
v 630 42.4806 -1128
v 630 42.627 -1130
v 632 38.069 -1068
v 632 38.1926 -1070
v 632 38.3182 -1072
v 632 38.4455 -1074
v 632 38.5746 -1076
v 632 38.7055 -1078
v 632 38.8381 -1080
v 632 38.9723 -1082
v 632 39.1082 -1084
v 632 39.2456 -1086
v 632 39.3845 -1088
v 632 39.5244 -1090
v 632 39.6653 -1092
v 632 39.8071 -1094
v 632 39.9497 -1096
v 632 40.0931 -1098
v 632 40.2372 -1100
v 632 40.3819 -1102
v 632 40.5273 -1104
v 632 40.6733 -1106
v 632 40.8197 -1108
v 632 40.9667 -1110
v 632 41.114 -1112
v 632 41.2616 -1114
v 632 41.4096 -1116
v 632 41.5578 -1118
v 632 41.7062 -1120
v 632 41.8548 -1122
v 632 42.0034 -1124
v 632 42.152 -1126
v 632 42.3006 -1128
v 632 42.4492 -1130
v 634 37.8198 -1068
v 634 37.9457 -1070
v 634 38.0735 -1072
v 634 38.2031 -1074
v 634 38.3346 -1076
v 634 38.4677 -1078
v 634 38.6026 -1080
v 634 38.7391 -1082
v 634 38.8772 -1084
v 634 39.0169 -1086
v 634 39.1581 -1088
v 634 39.3003 -1090
v 634 39.4435 -1092
v 634 39.5875 -1094
v 634 39.7324 -1096
v 634 39.878 -1098
v 634 40.0244 -1100
v 634 40.1714 -1102
v 634 40.319 -1104
v 634 40.4673 -1106
v 634 40.616 -1108
v 634 40.7651 -1110
v 634 40.9147 -1112
v 634 41.0646 -1114
v 634 41.2149 -1116
v 634 41.3653 -1118
v 634 41.516 -1120
v 634 41.6668 -1122
v 634 41.8176 -1124
v 634 41.9685 -1126
v 634 42.1194 -1128
v 634 42.2701 -1130
v 636 37.5682 -1068
v 636 37.6965 -1070
v 636 37.8266 -1072
v 636 37.9586 -1074
v 636 38.0923 -1076
v 636 38.2278 -1078
v 636 38.3649 -1080
v 636 38.5038 -1082
v 636 38.6442 -1084
v 636 38.7862 -1086
v 636 38.9297 -1088
v 636 39.0742 -1090
v 636 39.2196 -1092
v 636 39.366 -1094
v 636 39.5131 -1096
v 636 39.6611 -1098
v 636 39.8097 -1100
v 636 39.9591 -1102
v 636 40.109 -1104
v 636 40.2595 -1106
v 636 40.4106 -1108
v 636 40.562 -1110
v 636 40.7139 -1112
v 636 40.8661 -1114
v 636 41.0186 -1116
v 636 41.1714 -1118
v 636 41.3243 -1120
v 636 41.4774 -1122
v 636 41.6305 -1124
v 636 41.7837 -1126
v 636 41.9368 -1128
v 636 42.0899 -1130
v 638 37.3145 -1068
v 638 37.4451 -1070
v 638 37.5776 -1072
v 638 37.7119 -1074
v 638 37.848 -1076
v 638 37.9858 -1078
v 638 38.1253 -1080
v 638 38.2665 -1082
v 638 38.4093 -1084
v 638 38.5536 -1086
v 638 38.6994 -1088
v 638 38.8462 -1090
v 638 38.994 -1092
v 638 39.1427 -1094
v 638 39.2921 -1096
v 638 39.4424 -1098
v 638 39.5934 -1100
v 638 39.7451 -1102
v 638 39.8974 -1104
v 638 40.0502 -1106
v 638 40.2036 -1108
v 638 40.3574 -1110
v 638 40.5116 -1112
v 638 40.6661 -1114
v 638 40.821 -1116
v 638 40.9761 -1118
v 638 41.1313 -1120
v 638 41.2867 -1122
v 638 41.4422 -1124
v 638 41.5977 -1126
v 638 41.7531 -1128
v 638 41.9085 -1130
v 640 37.0587 -1068
v 640 37.1917 -1070
v 640 37.3266 -1072
v 640 37.4633 -1074
v 640 37.6018 -1076
v 640 37.742 -1078
v 640 37.8838 -1080
v 640 38.0274 -1082
v 640 38.1725 -1084
v 640 38.3192 -1086
v 640 38.4673 -1088
v 640 38.6165 -1090
v 640 38.7666 -1092
v 640 38.9176 -1094
v 640 39.0695 -1096
v 640 39.2221 -1098
v 640 39.3754 -1100
v 640 39.5295 -1102
v 640 39.6841 -1104
v 640 39.8393 -1106
v 640 39.995 -1108
v 640 40.1512 -1110
v 640 40.3078 -1112
v 640 40.4647 -1114
v 640 40.6219 -1116
v 640 40.7794 -1118
v 640 40.937 -1120
v 640 41.0948 -1122
v 640 41.2526 -1124
v 640 41.4105 -1126
v 640 41.5683 -1128
v 640 41.7261 -1130
v 642 36.8011 -1068
v 642 36.9365 -1070
v 642 37.0738 -1072
v 642 37.2129 -1074
v 642 37.3538 -1076
v 642 37.4963 -1078
v 642 37.6406 -1080
v 642 37.7865 -1082
v 642 37.934 -1084
v 642 38.083 -1086
v 642 38.2335 -1088
v 642 38.3851 -1090
v 642 38.5376 -1092
v 642 38.6909 -1094
v 642 38.8452 -1096
v 642 39.0002 -1098
v 642 39.1559 -1100
v 642 39.3123 -1102
v 642 39.4694 -1104
v 642 39.627 -1106
v 642 39.7851 -1108
v 642 39.9437 -1110
v 642 40.1027 -1112
v 642 40.262 -1114
v 642 40.4216 -1116
v 642 40.5815 -1118
v 642 40.7415 -1120
v 642 40.9017 -1122
v 642 41.0619 -1124
v 642 41.2222 -1126
v 642 41.3825 -1128
v 642 41.5426 -1130
v 644 36.5418 -1068
v 644 36.6796 -1070
v 644 36.8193 -1072
v 644 36.9608 -1074
v 644 37.1041 -1076
v 644 37.2491 -1078
v 644 37.3957 -1080
v 644 37.544 -1082
v 644 37.6939 -1084
v 644 37.8453 -1086
v 644 37.9981 -1088
v 644 38.1521 -1090
v 644 38.3069 -1092
v 644 38.4627 -1094
v 644 38.6193 -1096
v 644 38.7767 -1098
v 644 38.9349 -1100
v 644 39.0937 -1102
v 644 39.2532 -1104
v 644 39.4132 -1106
v 644 39.5737 -1108
v 644 39.7347 -1110
v 644 39.8962 -1112
v 644 40.0579 -1114
v 644 40.22 -1116
v 644 40.3823 -1118
v 644 40.5448 -1120
v 644 40.7074 -1122
v 644 40.8701 -1124
v 644 41.0329 -1126
v 644 41.1955 -1128
v 644 41.3581 -1130
v 646 36.2809 -1068
v 646 36.4212 -1070
v 646 36.5634 -1072
v 646 36.7073 -1074
v 646 36.8529 -1076
v 646 37.0003 -1078
v 646 37.1494 -1080
v 646 37.3 -1082
v 646 37.4523 -1084
v 646 37.6061 -1086
v 646 37.7613 -1088
v 646 37.9176 -1090
v 646 38.0749 -1092
v 646 38.233 -1094
v 646 38.3921 -1096
v 646 38.5519 -1098
v 646 38.7124 -1100
v 646 38.8737 -1102
v 646 39.0356 -1104
v 646 39.1981 -1106
v 646 39.3611 -1108
v 646 39.5245 -1110
v 646 39.6884 -1112
v 646 39.8526 -1114
v 646 40.0172 -1116
v 646 40.182 -1118
v 646 40.347 -1120
v 646 40.5121 -1122
v 646 40.6773 -1124
v 646 40.8425 -1126
v 646 41.0077 -1128
v 646 41.1728 -1130
v 648 36.0188 -1068
v 648 36.1615 -1070
v 648 36.306 -1072
v 648 36.4523 -1074
v 648 36.6004 -1076
v 648 36.7502 -1078
v 648 36.9016 -1080
v 648 37.0547 -1082
v 648 37.2093 -1084
v 648 37.3655 -1086
v 648 37.5231 -1088
v 648 37.6818 -1090
v 648 37.8414 -1092
v 648 38.002 -1094
v 648 38.1634 -1096
v 648 38.3257 -1098
v 648 38.4887 -1100
v 648 38.6524 -1102
v 648 38.8167 -1104
v 648 38.9816 -1106
v 648 39.1471 -1108
v 648 39.313 -1110
v 648 39.4794 -1112
v 648 39.6462 -1114
v 648 39.8132 -1116
v 648 39.9805 -1118
v 648 40.148 -1120
v 648 40.3156 -1122
v 648 40.4834 -1124
v 648 40.6511 -1126
v 648 40.8189 -1128
v 648 40.9865 -1130
f 33 32 31
f 33 34 32
f 35 34 33
f 35 36 34
f 36 35 38
f 38 35 37
f 12 2 11
f 11 2 10
f 12 8 2
f 2 8 7
f 10 2 9
f 2 13 9
f 4 13 2
f 4 14 13
f 4 15 14
f 2 7 22
f 3 6 2
f 3 2 1
f 22 1 2
f 2 5 4
f 2 6 5
f 4 16 15
f 4 5 16
f 1 22 21
f 20 1 21
f 1 17 3
f 1 19 17
f 19 1 18
f 1 20 18
f 25 24 23
f 27 28 26
f 29 28 27
f 30 28 29
f 27 26 25
f 25 26 24
f 85 84 83
f 128 83 127
f 85 83 128
f 84 86 89
f 85 86 84
f 45 44 43
f 51 45 43
f 89 88 87
f 89 90 88
f 89 86 90
f 51 50 49
f 52 50 51
f 51 49 45
f 52 87 50
f 50 87 88
f 46 44 45
f 91 86 85
f 91 85 129
f 129 85 128
f 92 90 86
f 92 86 91
f 48 46 47
f 47 46 45
f 47 45 49
f 49 58 57
f 58 49 50
f 49 54 47
f 49 57 54
f 50 88 58
f 88 90 96
f 96 90 95
f 90 94 95
f 92 94 90
f 58 88 96
f 129 130 91
f 48 54 53
f 47 54 48
f 94 92 91
f 94 91 93
f 91 130 93
f 54 55 53
f 93 130 98
f 98 130 131
f 97 95 94
f 93 97 94
f 56 54 57
f 54 56 55
f 97 93 98
f 101 58 96
f 63 58 101
f 63 57 58
f 95 101 96
f 64 57 63
f 64 59 57
f 59 56 57
f 102 101 95
f 97 99 95
f 95 99 102
f 56 60 55
f 98 131 100
f 100 131 132
f 60 56 59
f 98 99 97
f 100 99 98
f 59 61 60
f 62 61 59
f 62 59 64
f 104 102 99
f 103 104 99
f 103 99 100
f 132 103 100
f 133 103 132
f 102 104 105
f 104 106 105
f 103 106 104
f 64 65 62
f 61 62 66
f 103 133 134
f 103 134 106
f 66 62 65
f 108 101 107
f 108 63 101
f 70 63 108
f 107 102 105
f 107 101 102
f 69 65 64
f 64 70 69
f 63 70 64
f 135 106 134
f 65 67 66
f 109 105 106
f 135 109 106
f 110 105 109
f 107 105 110
f 65 69 68
f 68 67 65
f 135 113 109
f 138 135 136
f 113 135 138
f 71 67 68
f 72 67 71
f 69 71 68
f 111 110 109
f 111 109 113
f 112 110 111
f 142 110 112
f 142 107 110
f 114 70 108
f 75 70 114
f 75 69 70
f 143 107 142
f 144 107 143
f 145 107 144
f 146 107 145
f 107 146 40
f 107 40 108
f 108 40 114
f 69 76 71
f 76 69 75
f 138 136 137
f 148 147 146
f 40 146 147
f 40 147 39
f 137 136 115
f 41 40 39
f 139 115 136
f 72 74 73
f 71 74 72
f 117 116 115
f 117 115 139
f 74 71 76
f 42 40 41
f 117 118 116
f 120 40 42
f 120 42 119
f 118 120 119
f 120 118 117
f 122 120 121
f 121 120 117
f 40 120 122
f 76 77 74
f 77 73 74
f 140 117 139
f 73 77 78
f 121 117 140
f 76 81 77
f 75 81 76
f 114 124 75
f 124 114 123
f 123 114 40
f 123 40 122
f 75 124 82
f 82 81 75
f 77 79 78
f 77 80 79
f 80 77 81
f 121 126 122
f 122 126 125
f 123 122 125
f 140 141 121
f 121 141 126
f 174 173 172
f 175 173 174
f 176 173 175
f 176 177 173
f 176 179 177
f 177 179 178
f 149 154 153
f 149 150 154
f 151 150 149
f 154 150 157
f 150 151 152
f 157 150 156
f 156 150 155
f 150 152 171
f 150 171 170
f 150 170 159
f 159 158 150
f 150 158 155
f 159 160 158
f 159 161 160
f 161 163 160
f 161 159 164
f 164 159 166
f 167 166 159
f 163 161 162
f 161 164 162
f 167 168 166
f 169 168 167
f 164 166 165
f 182 181 180
f 183 181 182
f 184 181 183
f 184 185 181
f 187 185 184
f 185 187 186
f 292 290 294
f 294 290 293
f 293 290 289
f 293 289 189
f 293 189 191
f 190 191 189
f 190 189 188
f 190 188 262
f 190 262 266
f 291 222 287
f 288 291 287
f 288 292 291
f 288 290 292
f 291 223 222
f 222 223 221
f 222 221 220
f 189 289 192
f 193 189 192
f 188 189 193
f 245 222 244
f 222 245 287
f 244 222 220
f 262 188 193
f 262 193 260
f 192 289 194
f 289 283 194
f 290 283 289
f 285 287 245
f 286 287 285
f 286 288 287
f 286 284 288
f 288 284 290
f 290 284 283
f 194 193 192
f 244 243 245
f 243 285 245
f 194 195 193
f 195 260 193
f 261 260 195
f 244 242 243
f 283 196 194
f 197 194 196
f 195 194 197
f 240 285 243
f 240 243 241
f 241 243 242
f 261 197 259
f 195 197 261
f 283 279 198
f 283 198 196
f 285 239 281
f 240 239 285
f 284 280 283
f 283 280 279
f 282 280 284
f 282 284 286
f 282 286 281
f 281 286 285
f 197 196 199
f 199 196 198
f 240 238 239
f 238 240 241
f 259 197 258
f 258 197 199
f 198 303 302
f 279 303 198
f 198 201 199
f 201 198 202
f 236 281 239
f 236 239 238
f 199 201 200
f 258 199 251
f 251 199 200
f 236 238 237
f 279 295 303
f 205 200 204
f 203 200 201
f 257 251 200
f 251 257 256
f 251 256 255
f 251 255 254
f 237 235 236
f 253 251 252
f 252 251 250
f 236 235 234
f 281 236 234
f 279 296 295
f 280 276 279
f 278 276 280
f 277 281 234
f 278 281 277
f 278 282 281
f 278 280 282
f 279 276 275
f 279 298 296
f 298 279 297
f 275 297 279
f 275 301 297
f 301 275 300
f 233 232 235
f 235 232 234
f 263 248 253
f 263 253 252
f 277 234 232
f 300 275 299
f 263 264 248
f 208 207 206
f 299 275 207
f 207 209 206
f 248 264 210
f 207 211 209
f 209 211 210
f 248 210 211
f 230 231 233
f 233 231 232
f 212 211 207
f 213 211 212
f 211 213 249
f 211 249 248
f 277 232 231
f 207 275 212
f 276 269 267
f 272 269 276
f 272 276 278
f 272 278 271
f 271 278 277
f 271 277 231
f 276 267 275
f 212 275 267
f 229 231 230
f 215 213 212
f 213 215 249
f 249 215 247
f 228 231 229
f 214 212 267
f 215 212 214
f 228 271 231
f 215 214 217
f 215 217 216
f 247 215 246
f 246 215 216
f 229 225 228
f 224 225 229
f 217 214 267
f 225 271 228
f 268 217 267
f 269 268 267
f 273 271 225
f 273 272 271
f 274 272 273
f 274 269 272
f 270 269 274
f 269 270 268
f 246 216 265
f 265 216 218
f 217 218 216
f 226 225 224
f 217 219 218
f 268 219 217
f 226 227 225
f 273 225 227
f 329 328 327
f 330 328 329
f 331 328 330
f 331 332 328
f 331 334 332
f 332 334 333
f 304 309 308
f 304 305 309
f 306 305 304
f 309 305 312
f 305 306 307
f 312 305 311
f 311 305 310
f 305 307 326
f 305 326 325
f 305 325 314
f 314 313 305
f 305 313 310
f 314 315 313
f 314 316 315
f 316 318 315
f 316 314 319
f 319 314 321
f 322 321 314
f 318 316 317
f 316 319 317
f 322 323 321
f 324 323 322
f 319 321 320
f 337 336 335
f 338 336 337
f 339 336 338
f 339 340 336
f 342 340 339
f 340 342 341
f 447 445 449
f 449 445 448
f 448 445 444
f 448 444 344
f 448 344 346
f 345 346 344
f 345 344 343
f 345 343 417
f 345 417 421
f 446 377 442
f 443 446 442
f 443 447 446
f 443 445 447
f 446 378 377
f 377 378 376
f 377 376 375
f 344 444 347
f 348 344 347
f 343 344 348
f 400 377 399
f 377 400 442
f 399 377 375
f 417 343 348
f 417 348 415
f 347 444 349
f 444 438 349
f 445 438 444
f 440 442 400
f 441 442 440
f 441 443 442
f 441 439 443
f 443 439 445
f 445 439 438
f 349 348 347
f 399 398 400
f 398 440 400
f 349 350 348
f 350 415 348
f 416 415 350
f 399 397 398
f 438 351 349
f 352 349 351
f 350 349 352
f 395 440 398
f 395 398 396
f 396 398 397
f 416 352 414
f 350 352 416
f 438 434 353
f 438 353 351
f 440 394 436
f 395 394 440
f 439 435 438
f 438 435 434
f 437 435 439
f 437 439 441
f 437 441 436
f 436 441 440
f 352 351 354
f 354 351 353
f 395 393 394
f 393 395 396
f 414 352 413
f 413 352 354
f 353 458 457
f 434 458 353
f 353 356 354
f 356 353 357
f 391 436 394
f 391 394 393
f 354 356 355
f 413 354 406
f 406 354 355
f 391 393 392
f 434 450 458
f 360 355 359
f 358 355 356
f 412 406 355
f 406 412 411
f 406 411 410
f 406 410 409
f 392 390 391
f 408 406 407
f 407 406 405
f 391 390 389
f 436 391 389
f 434 451 450
f 435 431 434
f 433 431 435
f 432 436 389
f 433 436 432
f 433 437 436
f 433 435 437
f 434 431 430
f 434 453 451
f 453 434 452
f 430 452 434
f 430 456 452
f 456 430 455
f 388 387 390
f 390 387 389
f 418 403 408
f 418 408 407
f 432 389 387
f 455 430 454
f 418 419 403
f 363 362 361
f 454 430 362
f 362 364 361
f 403 419 365
f 362 366 364
f 364 366 365
f 403 365 366
f 385 386 388
f 388 386 387
f 367 366 362
f 368 366 367
f 366 368 404
f 366 404 403
f 432 387 386
f 362 430 367
f 431 424 422
f 427 424 431
f 427 431 433
f 427 433 426
f 426 433 432
f 426 432 386
f 431 422 430
f 367 430 422
f 384 386 385
f 370 368 367
f 368 370 404
f 404 370 402
f 383 386 384
f 369 367 422
f 370 367 369
f 383 426 386
f 370 369 372
f 370 372 371
f 402 370 401
f 401 370 371
f 384 380 383
f 379 380 384
f 372 369 422
f 380 426 383
f 423 372 422
f 424 423 422
f 428 426 380
f 428 427 426
f 429 427 428
f 429 424 427
f 425 424 429
f 424 425 423
f 401 371 420
f 420 371 373
f 372 373 371
f 381 380 379
f 372 374 373
f 423 374 372
f 381 382 380
f 428 380 382
f 517 516 515
f 518 516 517
f 513 512 511
f 514 512 513
f 509 508 507
f 510 508 509
f 541 540 539
f 544 539 540
f 539 544 543
f 546 543 544
f 543 546 545
f 465 464 463
f 466 464 465
f 473 472 471
f 469 468 467
f 470 468 469
f 540 541 542
f 474 472 473
f 495 492 494
f 496 492 495
f 497 492 496
f 549 548 547
f 548 549 550
f 537 536 535
f 521 520 519
f 505 504 503
f 506 504 505
f 522 520 521
f 461 460 459
f 462 460 461
f 536 537 538
f 477 476 475
f 478 476 477
f 494 492 493
f 498 492 497
f 490 488 489
f 481 480 479
f 482 480 481
f 493 492 491
f 489 488 487
f 552 553 554
f 532 533 534
f 533 532 531
f 525 524 523
f 526 524 525
f 502 500 501
f 501 500 499
f 553 552 551
f 485 484 483
f 486 484 485
f 534 551 552
f 551 534 533
f 529 528 527
f 530 528 529
f 582 567 583
f 583 593 582
f 567 582 565
f 593 592 582
f 582 592 580
f 580 565 582
f 594 593 583
f 623 622 621
f 622 620 621
f 621 620 619
f 624 622 623
f 565 568 567
f 568 565 566
f 561 566 565
f 624 641 622
f 565 580 561
f 641 620 622
f 580 591 581
f 592 591 580
f 584 594 583
f 581 561 580
f 583 569 584
f 569 583 567
f 619 640 639
f 620 640 619
f 595 594 584
f 625 624 623
f 643 641 624
f 647 643 624
f 626 624 625
f 642 655 620
f 641 642 620
f 567 570 569
f 570 567 568
f 563 562 561
f 561 581 563
f 566 561 562
f 605 603 604
f 607 605 606
f 607 600 605
f 605 600 603
f 562 563 564
f 610 615 616
f 616 615 614
f 642 656 655
f 648 643 647
f 610 613 615
f 611 613 610
f 611 610 609
f 578 559 579
f 579 589 578
f 590 589 579
f 571 584 569
f 584 571 585
f 585 595 584
f 627 626 625
f 637 636 635
f 638 636 637
f 596 595 585
f 654 652 653
f 653 652 651
f 649 648 647
f 628 626 627
f 569 572 571
f 572 569 570
f 555 560 559
f 559 578 555
f 600 607 608
f 560 555 556
f 603 600 601
f 603 601 602
f 615 613 618
f 650 648 649
f 644 650 649
f 613 611 612
f 618 613 617
f 652 646 651
f 557 556 555
f 556 557 558
f 574 571 572
f 555 578 557
f 571 574 573
f 573 585 571
f 636 634 635
f 651 646 634
f 629 628 627
f 630 628 629
f 644 649 630
f 635 634 633
f 589 588 578
f 597 596 586
f 586 596 585
f 557 578 577
f 578 588 577
f 585 573 586
f 645 644 632
f 632 644 630
f 646 645 634
f 634 645 632
f 601 600 599
f 576 573 574
f 558 557 576
f 576 557 575
f 573 576 575
f 557 577 575
f 573 587 586
f 575 587 573
f 634 632 633
f 632 630 631
f 631 630 629
f 633 632 631
f 588 598 587
f 588 587 577
f 587 597 586
f 598 597 587
f 575 577 587
f 667 670 669
f 667 683 663
f 684 683 667
f 669 684 667
f 670 667 668
f 663 668 667
f 685 684 669
f 694 693 692
f 693 691 692
f 692 691 690
f 668 663 664
f 695 693 694
f 716 715 714
f 715 713 714
f 714 713 712
f 717 715 716
f 671 685 669
f 683 682 663
f 663 682 665
f 669 672 671
f 672 669 670
f 665 664 663
f 686 685 671
f 696 695 694
f 691 711 690
f 690 711 710
f 664 665 666
f 712 733 732
f 713 733 712
f 697 695 696
f 718 717 716
f 719 717 718
f 681 680 661
f 661 680 657
f 657 662 661
f 673 686 671
f 671 674 673
f 674 671 672
f 708 707 706
f 709 707 708
f 687 686 673
f 698 697 696
f 662 657 658
f 731 729 730
f 730 729 728
f 699 697 698
f 720 719 718
f 721 719 720
f 729 727 728
f 723 721 722
f 722 721 720
f 728 727 726
f 707 705 706
f 700 699 698
f 701 699 700
f 658 659 660
f 659 658 657
f 676 673 674
f 706 705 704
f 680 679 657
f 688 687 675
f 675 687 673
f 657 679 659
f 673 676 675
f 727 725 726
f 725 723 724
f 724 723 722
f 705 703 704
f 726 725 724
f 702 701 700
f 703 701 702
f 677 660 659
f 660 677 678
f 678 675 676
f 679 689 659
f 689 688 677
f 677 688 675
f 704 703 702
f 659 689 677
f 675 678 677
f 776 775 774
f 777 775 776
f 778 777 776
f 776 746 778
f 746 776 744
f 774 744 776
f 779 777 778
f 747 744 745
f 744 747 746
f 740 745 744
f 744 774 740
f 772 740 774
f 780 779 778
f 774 773 772
f 748 778 746
f 778 748 780
f 775 773 774
f 781 779 780
f 749 746 747
f 746 749 748
f 742 741 740
f 745 740 741
f 740 772 742
f 762 760 761
f 764 762 763
f 764 757 762
f 762 757 760
f 741 742 743
f 768 738 770
f 771 769 770
f 770 769 768
f 780 750 782
f 750 780 748
f 782 781 780
f 783 781 782
f 734 739 738
f 738 768 734
f 751 748 749
f 748 751 750
f 739 734 735
f 757 764 765
f 760 757 758
f 760 758 759
f 736 735 734
f 735 736 737
f 753 750 751
f 734 766 736
f 766 734 768
f 750 753 752
f 752 782 750
f 769 767 768
f 785 783 784
f 784 783 782
f 768 767 766
f 782 752 784
f 758 757 756
f 755 752 753
f 737 754 755
f 754 737 736
f 752 755 754
f 754 784 752
f 786 736 766
f 736 786 754
f 786 785 784
f 787 785 786
f 767 787 766
f 784 754 786
f 766 787 786
f 790 789 788
f 791 789 790
f 795 789 791
f 789 792 788
f 789 793 792
f 796 789 795
f 796 797 789
f 797 798 789
f 789 798 794
f 794 793 789
f 801 800 799
f 807 806 805
f 810 809 808
f 822 821 820
f 804 803 802
f 813 812 811
f 816 815 814
f 819 818 817
f 840 839 838
f 837 836 835
f 834 833 832
f 843 842 841
f 828 827 826
f 846 845 844
f 831 830 829
f 858 857 856
f 855 854 853
f 852 851 850
f 825 824 823
f 849 848 847
f 861 860 859
f 871 875 874
f 870 871 874
f 872 871 870
f 878 877 876
f 879 878 876
f 877 864 865
f 876 877 865
f 873 872 870
f 880 872 873
f 869 867 863
f 863 867 866
f 863 866 862
f 864 863 862
f 865 864 862
f 882 880 873
f 882 881 880
f 881 869 880
f 881 868 869
f 867 869 868
f 883 881 882
f 884 882 873
f 887 886 885
f 893 892 891
f 896 895 894
f 908 907 906
f 890 889 888
f 899 898 897
f 902 901 900
f 905 904 903
f 926 925 924
f 923 922 921
f 920 919 918
f 929 928 927
f 914 913 912
f 932 931 930
f 917 916 915
f 944 943 942
f 941 940 939
f 938 937 936
f 911 910 909
f 935 934 933
f 947 946 945
f 957 961 960
f 956 957 960
f 958 957 956
f 964 963 962
f 965 964 962
f 963 950 951
f 962 963 951
f 959 958 956
f 966 958 959
f 955 953 949
f 949 953 952
f 949 952 948
f 950 949 948
f 951 950 948
f 968 966 959
f 968 967 966
f 967 955 966
f 967 954 955
f 953 955 954
f 969 967 968
f 970 968 959
f 977 976 975
f 976 972 975
f 976 977 978
f 977 980 978
f 979 980 977
f 991 976 993
f 991 971 976
f 993 976 978
f 976 971 972
f 974 972 973
f 973 972 971
f 993 992 991
f 990 971 991
f 991 988 990
f 992 988 991
f 990 973 971
f 1014 1002 1003
f 1002 1014 1016
f 1005 1016 1014
f 994 1005 1014
f 994 1014 992
f 992 1014 988
f 988 1014 1003
f 993 994 992
f 997 994 993
f 993 980 997
f 993 978 980
f 990 988 989
f 989 988 987
f 988 1001 987
f 1001 988 1003
f 1005 994 995
f 995 994 997
f 1003 1002 1001
f 989 973 990
f 1006 1005 1004
f 1006 1007 1009
f 1007 1006 1004
f 1005 995 1004
f 1010 998 1015
f 1008 998 1010
f 1010 1009 1008
f 1009 1007 1008
f 1012 985 983
f 985 1012 1011
f 981 980 979
f 1015 999 1013
f 1015 998 999
f 1004 995 996
f 997 996 995
f 1008 1007 1004
f 1013 999 1011
f 982 997 980
f 1000 996 997
f 1000 997 982
f 1008 1004 996
f 998 1008 996
f 1011 999 985
f 981 982 980
f 996 999 998
f 1000 999 996
f 999 986 985
f 1000 986 999
f 1000 982 986
f 984 985 986
f 985 984 983
f 984 982 981
f 984 986 982
f 1023 1022 1021
f 1022 1018 1021
f 1022 1023 1024
f 1023 1026 1024
f 1025 1026 1023
f 1037 1022 1039
f 1037 1017 1022
f 1039 1022 1024
f 1022 1017 1018
f 1020 1018 1019
f 1019 1018 1017
f 1039 1038 1037
f 1036 1017 1037
f 1037 1034 1036
f 1038 1034 1037
f 1036 1019 1017
f 1060 1048 1049
f 1048 1060 1062
f 1051 1062 1060
f 1040 1051 1060
f 1040 1060 1038
f 1038 1060 1034
f 1034 1060 1049
f 1039 1040 1038
f 1043 1040 1039
f 1039 1026 1043
f 1039 1024 1026
f 1036 1034 1035
f 1035 1034 1033
f 1034 1047 1033
f 1047 1034 1049
f 1051 1040 1041
f 1041 1040 1043
f 1049 1048 1047
f 1035 1019 1036
f 1052 1051 1050
f 1052 1053 1055
f 1053 1052 1050
f 1051 1041 1050
f 1056 1044 1061
f 1054 1044 1056
f 1056 1055 1054
f 1055 1053 1054
f 1058 1031 1029
f 1031 1058 1057
f 1027 1026 1025
f 1061 1045 1059
f 1061 1044 1045
f 1050 1041 1042
f 1043 1042 1041
f 1054 1053 1050
f 1059 1045 1057
f 1028 1043 1026
f 1046 1042 1043
f 1046 1043 1028
f 1054 1050 1042
f 1044 1054 1042
f 1057 1045 1031
f 1027 1028 1026
f 1042 1045 1044
f 1046 1045 1042
f 1045 1032 1031
f 1046 1032 1045
f 1046 1028 1032
f 1030 1031 1032
f 1031 1030 1029
f 1030 1028 1027
f 1030 1032 1028
f 1096 1064 1063
f 1063 1095 1096
f 1128 1096 1095
f 1095 1127 1128
f 1160 1128 1127
f 1127 1159 1160
f 1192 1160 1159
f 1159 1191 1192
f 1224 1192 1191
f 1191 1223 1224
f 1256 1224 1223
f 1223 1255 1256
f 1288 1256 1255
f 1255 1287 1288
f 1320 1288 1287
f 1287 1319 1320
f 1352 1320 1319
f 1319 1351 1352
f 1384 1352 1351
f 1351 1383 1384
f 1416 1384 1383
f 1383 1415 1416
f 1448 1416 1415
f 1415 1447 1448
f 1480 1448 1447
f 1447 1479 1480
f 1512 1480 1479
f 1479 1511 1512
f 1544 1512 1511
f 1511 1543 1544
f 1576 1544 1543
f 1543 1575 1576
f 1608 1576 1575
f 1575 1607 1608
f 1640 1608 1607
f 1607 1639 1640
f 1672 1640 1639
f 1639 1671 1672
f 1704 1672 1671
f 1671 1703 1704
f 1736 1704 1703
f 1703 1735 1736
f 1768 1736 1735
f 1735 1767 1768
f 1800 1768 1767
f 1767 1799 1800
f 1832 1800 1799
f 1799 1831 1832
f 1864 1832 1831
f 1831 1863 1864
f 1896 1864 1863
f 1863 1895 1896
f 1928 1896 1895
f 1895 1927 1928
f 1960 1928 1927
f 1927 1959 1960
f 1992 1960 1959
f 1959 1991 1992
f 2024 1992 1991
f 1991 2023 2024
f 2056 2024 2023
f 2023 2055 2056
f 1097 1065 1064
f 1064 1096 1097
f 1129 1097 1096
f 1096 1128 1129
f 1161 1129 1128
f 1128 1160 1161
f 1193 1161 1160
f 1160 1192 1193
f 1225 1193 1192
f 1192 1224 1225
f 1257 1225 1224
f 1224 1256 1257
f 1289 1257 1256
f 1256 1288 1289
f 1321 1289 1288
f 1288 1320 1321
f 1353 1321 1320
f 1320 1352 1353
f 1385 1353 1352
f 1352 1384 1385
f 1417 1385 1384
f 1384 1416 1417
f 1449 1417 1416
f 1416 1448 1449
f 1481 1449 1448
f 1448 1480 1481
f 1513 1481 1480
f 1480 1512 1513
f 1545 1513 1512
f 1512 1544 1545
f 1577 1545 1544
f 1544 1576 1577
f 1609 1577 1576
f 1576 1608 1609
f 1641 1609 1608
f 1608 1640 1641
f 1673 1641 1640
f 1640 1672 1673
f 1705 1673 1672
f 1672 1704 1705
f 1737 1705 1704
f 1704 1736 1737
f 1769 1737 1736
f 1736 1768 1769
f 1801 1769 1768
f 1768 1800 1801
f 1833 1801 1800
f 1800 1832 1833
f 1865 1833 1832
f 1832 1864 1865
f 1897 1865 1864
f 1864 1896 1897
f 1929 1897 1896
f 1896 1928 1929
f 1961 1929 1928
f 1928 1960 1961
f 1993 1961 1960
f 1960 1992 1993
f 2025 1993 1992
f 1992 2024 2025
f 2057 2025 2024
f 2024 2056 2057
f 1098 1066 1065
f 1065 1097 1098
f 1130 1098 1097
f 1097 1129 1130
f 1162 1130 1129
f 1129 1161 1162
f 1194 1162 1161
f 1161 1193 1194
f 1226 1194 1193
f 1193 1225 1226
f 1258 1226 1225
f 1225 1257 1258
f 1290 1258 1257
f 1257 1289 1290
f 1322 1290 1289
f 1289 1321 1322
f 1354 1322 1321
f 1321 1353 1354
f 1386 1354 1353
f 1353 1385 1386
f 1418 1386 1385
f 1385 1417 1418
f 1450 1418 1417
f 1417 1449 1450
f 1482 1450 1449
f 1449 1481 1482
f 1514 1482 1481
f 1481 1513 1514
f 1546 1514 1513
f 1513 1545 1546
f 1578 1546 1545
f 1545 1577 1578
f 1610 1578 1577
f 1577 1609 1610
f 1642 1610 1609
f 1609 1641 1642
f 1674 1642 1641
f 1641 1673 1674
f 1706 1674 1673
f 1673 1705 1706
f 1738 1706 1705
f 1705 1737 1738
f 1770 1738 1737
f 1737 1769 1770
f 1802 1770 1769
f 1769 1801 1802
f 1834 1802 1801
f 1801 1833 1834
f 1866 1834 1833
f 1833 1865 1866
f 1898 1866 1865
f 1865 1897 1898
f 1930 1898 1897
f 1897 1929 1930
f 1962 1930 1929
f 1929 1961 1962
f 1994 1962 1961
f 1961 1993 1994
f 2026 1994 1993
f 1993 2025 2026
f 2058 2026 2025
f 2025 2057 2058
f 1099 1067 1066
f 1066 1098 1099
f 1131 1099 1098
f 1098 1130 1131
f 1163 1131 1130
f 1130 1162 1163
f 1195 1163 1162
f 1162 1194 1195
f 1227 1195 1194
f 1194 1226 1227
f 1259 1227 1226
f 1226 1258 1259
f 1291 1259 1258
f 1258 1290 1291
f 1323 1291 1290
f 1290 1322 1323
f 1355 1323 1322
f 1322 1354 1355
f 1387 1355 1354
f 1354 1386 1387
f 1419 1387 1386
f 1386 1418 1419
f 1451 1419 1418
f 1418 1450 1451
f 1483 1451 1450
f 1450 1482 1483
f 1515 1483 1482
f 1482 1514 1515
f 1547 1515 1514
f 1514 1546 1547
f 1579 1547 1546
f 1546 1578 1579
f 1611 1579 1578
f 1578 1610 1611
f 1643 1611 1610
f 1610 1642 1643
f 1675 1643 1642
f 1642 1674 1675
f 1707 1675 1674
f 1674 1706 1707
f 1739 1707 1706
f 1706 1738 1739
f 1771 1739 1738
f 1738 1770 1771
f 1803 1771 1770
f 1770 1802 1803
f 1835 1803 1802
f 1802 1834 1835
f 1867 1835 1834
f 1834 1866 1867
f 1899 1867 1866
f 1866 1898 1899
f 1931 1899 1898
f 1898 1930 1931
f 1963 1931 1930
f 1930 1962 1963
f 1995 1963 1962
f 1962 1994 1995
f 2027 1995 1994
f 1994 2026 2027
f 2059 2027 2026
f 2026 2058 2059
f 1100 1068 1067
f 1067 1099 1100
f 1132 1100 1099
f 1099 1131 1132
f 1164 1132 1131
f 1131 1163 1164
f 1196 1164 1163
f 1163 1195 1196
f 1228 1196 1195
f 1195 1227 1228
f 1260 1228 1227
f 1227 1259 1260
f 1292 1260 1259
f 1259 1291 1292
f 1324 1292 1291
f 1291 1323 1324
f 1356 1324 1323
f 1323 1355 1356
f 1388 1356 1355
f 1355 1387 1388
f 1420 1388 1387
f 1387 1419 1420
f 1452 1420 1419
f 1419 1451 1452
f 1484 1452 1451
f 1451 1483 1484
f 1516 1484 1483
f 1483 1515 1516
f 1548 1516 1515
f 1515 1547 1548
f 1580 1548 1547
f 1547 1579 1580
f 1612 1580 1579
f 1579 1611 1612
f 1644 1612 1611
f 1611 1643 1644
f 1676 1644 1643
f 1643 1675 1676
f 1708 1676 1675
f 1675 1707 1708
f 1740 1708 1707
f 1707 1739 1740
f 1772 1740 1739
f 1739 1771 1772
f 1804 1772 1771
f 1771 1803 1804
f 1836 1804 1803
f 1803 1835 1836
f 1868 1836 1835
f 1835 1867 1868
f 1900 1868 1867
f 1867 1899 1900
f 1932 1900 1899
f 1899 1931 1932
f 1964 1932 1931
f 1931 1963 1964
f 1996 1964 1963
f 1963 1995 1996
f 2028 1996 1995
f 1995 2027 2028
f 2060 2028 2027
f 2027 2059 2060
f 1101 1069 1068
f 1068 1100 1101
f 1133 1101 1100
f 1100 1132 1133
f 1165 1133 1132
f 1132 1164 1165
f 1197 1165 1164
f 1164 1196 1197
f 1229 1197 1196
f 1196 1228 1229
f 1261 1229 1228
f 1228 1260 1261
f 1293 1261 1260
f 1260 1292 1293
f 1325 1293 1292
f 1292 1324 1325
f 1357 1325 1324
f 1324 1356 1357
f 1389 1357 1356
f 1356 1388 1389
f 1421 1389 1388
f 1388 1420 1421
f 1453 1421 1420
f 1420 1452 1453
f 1485 1453 1452
f 1452 1484 1485
f 1517 1485 1484
f 1484 1516 1517
f 1549 1517 1516
f 1516 1548 1549
f 1581 1549 1548
f 1548 1580 1581
f 1613 1581 1580
f 1580 1612 1613
f 1645 1613 1612
f 1612 1644 1645
f 1677 1645 1644
f 1644 1676 1677
f 1709 1677 1676
f 1676 1708 1709
f 1741 1709 1708
f 1708 1740 1741
f 1773 1741 1740
f 1740 1772 1773
f 1805 1773 1772
f 1772 1804 1805
f 1837 1805 1804
f 1804 1836 1837
f 1869 1837 1836
f 1836 1868 1869
f 1901 1869 1868
f 1868 1900 1901
f 1933 1901 1900
f 1900 1932 1933
f 1965 1933 1932
f 1932 1964 1965
f 1997 1965 1964
f 1964 1996 1997
f 2029 1997 1996
f 1996 2028 2029
f 2061 2029 2028
f 2028 2060 2061
f 1102 1070 1069
f 1069 1101 1102
f 1134 1102 1101
f 1101 1133 1134
f 1166 1134 1133
f 1133 1165 1166
f 1198 1166 1165
f 1165 1197 1198
f 1230 1198 1197
f 1197 1229 1230
f 1262 1230 1229
f 1229 1261 1262
f 1294 1262 1261
f 1261 1293 1294
f 1326 1294 1293
f 1293 1325 1326
f 1358 1326 1325
f 1325 1357 1358
f 1390 1358 1357
f 1357 1389 1390
f 1422 1390 1389
f 1389 1421 1422
f 1454 1422 1421
f 1421 1453 1454
f 1486 1454 1453
f 1453 1485 1486
f 1518 1486 1485
f 1485 1517 1518
f 1550 1518 1517
f 1517 1549 1550
f 1582 1550 1549
f 1549 1581 1582
f 1614 1582 1581
f 1581 1613 1614
f 1646 1614 1613
f 1613 1645 1646
f 1678 1646 1645
f 1645 1677 1678
f 1710 1678 1677
f 1677 1709 1710
f 1742 1710 1709
f 1709 1741 1742
f 1774 1742 1741
f 1741 1773 1774
f 1806 1774 1773
f 1773 1805 1806
f 1838 1806 1805
f 1805 1837 1838
f 1870 1838 1837
f 1837 1869 1870
f 1902 1870 1869
f 1869 1901 1902
f 1934 1902 1901
f 1901 1933 1934
f 1966 1934 1933
f 1933 1965 1966
f 1998 1966 1965
f 1965 1997 1998
f 2030 1998 1997
f 1997 2029 2030
f 2062 2030 2029
f 2029 2061 2062
f 1103 1071 1070
f 1070 1102 1103
f 1135 1103 1102
f 1102 1134 1135
f 1167 1135 1134
f 1134 1166 1167
f 1199 1167 1166
f 1166 1198 1199
f 1231 1199 1198
f 1198 1230 1231
f 1263 1231 1230
f 1230 1262 1263
f 1295 1263 1262
f 1262 1294 1295
f 1327 1295 1294
f 1294 1326 1327
f 1359 1327 1326
f 1326 1358 1359
f 1391 1359 1358
f 1358 1390 1391
f 1423 1391 1390
f 1390 1422 1423
f 1455 1423 1422
f 1422 1454 1455
f 1487 1455 1454
f 1454 1486 1487
f 1519 1487 1486
f 1486 1518 1519
f 1551 1519 1518
f 1518 1550 1551
f 1583 1551 1550
f 1550 1582 1583
f 1615 1583 1582
f 1582 1614 1615
f 1647 1615 1614
f 1614 1646 1647
f 1679 1647 1646
f 1646 1678 1679
f 1711 1679 1678
f 1678 1710 1711
f 1743 1711 1710
f 1710 1742 1743
f 1775 1743 1742
f 1742 1774 1775
f 1807 1775 1774
f 1774 1806 1807
f 1839 1807 1806
f 1806 1838 1839
f 1871 1839 1838
f 1838 1870 1871
f 1903 1871 1870
f 1870 1902 1903
f 1935 1903 1902
f 1902 1934 1935
f 1967 1935 1934
f 1934 1966 1967
f 1999 1967 1966
f 1966 1998 1999
f 2031 1999 1998
f 1998 2030 2031
f 2063 2031 2030
f 2030 2062 2063
f 1104 1072 1071
f 1071 1103 1104
f 1136 1104 1103
f 1103 1135 1136
f 1168 1136 1135
f 1135 1167 1168
f 1200 1168 1167
f 1167 1199 1200
f 1232 1200 1199
f 1199 1231 1232
f 1264 1232 1231
f 1231 1263 1264
f 1296 1264 1263
f 1263 1295 1296
f 1328 1296 1295
f 1295 1327 1328
f 1360 1328 1327
f 1327 1359 1360
f 1392 1360 1359
f 1359 1391 1392
f 1424 1392 1391
f 1391 1423 1424
f 1456 1424 1423
f 1423 1455 1456
f 1488 1456 1455
f 1455 1487 1488
f 1520 1488 1487
f 1487 1519 1520
f 1552 1520 1519
f 1519 1551 1552
f 1584 1552 1551
f 1551 1583 1584
f 1616 1584 1583
f 1583 1615 1616
f 1648 1616 1615
f 1615 1647 1648
f 1680 1648 1647
f 1647 1679 1680
f 1712 1680 1679
f 1679 1711 1712
f 1744 1712 1711
f 1711 1743 1744
f 1776 1744 1743
f 1743 1775 1776
f 1808 1776 1775
f 1775 1807 1808
f 1840 1808 1807
f 1807 1839 1840
f 1872 1840 1839
f 1839 1871 1872
f 1904 1872 1871
f 1871 1903 1904
f 1936 1904 1903
f 1903 1935 1936
f 1968 1936 1935
f 1935 1967 1968
f 2000 1968 1967
f 1967 1999 2000
f 2032 2000 1999
f 1999 2031 2032
f 2064 2032 2031
f 2031 2063 2064
f 1105 1073 1072
f 1072 1104 1105
f 1137 1105 1104
f 1104 1136 1137
f 1169 1137 1136
f 1136 1168 1169
f 1201 1169 1168
f 1168 1200 1201
f 1233 1201 1200
f 1200 1232 1233
f 1265 1233 1232
f 1232 1264 1265
f 1297 1265 1264
f 1264 1296 1297
f 1329 1297 1296
f 1296 1328 1329
f 1361 1329 1328
f 1328 1360 1361
f 1393 1361 1360
f 1360 1392 1393
f 1425 1393 1392
f 1392 1424 1425
f 1457 1425 1424
f 1424 1456 1457
f 1489 1457 1456
f 1456 1488 1489
f 1521 1489 1488
f 1488 1520 1521
f 1553 1521 1520
f 1520 1552 1553
f 1585 1553 1552
f 1552 1584 1585
f 1617 1585 1584
f 1584 1616 1617
f 1649 1617 1616
f 1616 1648 1649
f 1681 1649 1648
f 1648 1680 1681
f 1713 1681 1680
f 1680 1712 1713
f 1745 1713 1712
f 1712 1744 1745
f 1777 1745 1744
f 1744 1776 1777
f 1809 1777 1776
f 1776 1808 1809
f 1841 1809 1808
f 1808 1840 1841
f 1873 1841 1840
f 1840 1872 1873
f 1905 1873 1872
f 1872 1904 1905
f 1937 1905 1904
f 1904 1936 1937
f 1969 1937 1936
f 1936 1968 1969
f 2001 1969 1968
f 1968 2000 2001
f 2033 2001 2000
f 2000 2032 2033
f 2065 2033 2032
f 2032 2064 2065
f 1106 1074 1073
f 1073 1105 1106
f 1138 1106 1105
f 1105 1137 1138
f 1170 1138 1137
f 1137 1169 1170
f 1202 1170 1169
f 1169 1201 1202
f 1234 1202 1201
f 1201 1233 1234
f 1266 1234 1233
f 1233 1265 1266
f 1298 1266 1265
f 1265 1297 1298
f 1330 1298 1297
f 1297 1329 1330
f 1362 1330 1329
f 1329 1361 1362
f 1394 1362 1361
f 1361 1393 1394
f 1426 1394 1393
f 1393 1425 1426
f 1458 1426 1425
f 1425 1457 1458
f 1490 1458 1457
f 1457 1489 1490
f 1522 1490 1489
f 1489 1521 1522
f 1554 1522 1521
f 1521 1553 1554
f 1586 1554 1553
f 1553 1585 1586
f 1618 1586 1585
f 1585 1617 1618
f 1650 1618 1617
f 1617 1649 1650
f 1682 1650 1649
f 1649 1681 1682
f 1714 1682 1681
f 1681 1713 1714
f 1746 1714 1713
f 1713 1745 1746
f 1778 1746 1745
f 1745 1777 1778
f 1810 1778 1777
f 1777 1809 1810
f 1842 1810 1809
f 1809 1841 1842
f 1874 1842 1841
f 1841 1873 1874
f 1906 1874 1873
f 1873 1905 1906
f 1938 1906 1905
f 1905 1937 1938
f 1970 1938 1937
f 1937 1969 1970
f 2002 1970 1969
f 1969 2001 2002
f 2034 2002 2001
f 2001 2033 2034
f 2066 2034 2033
f 2033 2065 2066
f 1107 1075 1074
f 1074 1106 1107
f 1139 1107 1106
f 1106 1138 1139
f 1171 1139 1138
f 1138 1170 1171
f 1203 1171 1170
f 1170 1202 1203
f 1235 1203 1202
f 1202 1234 1235
f 1267 1235 1234
f 1234 1266 1267
f 1299 1267 1266
f 1266 1298 1299
f 1331 1299 1298
f 1298 1330 1331
f 1363 1331 1330
f 1330 1362 1363
f 1395 1363 1362
f 1362 1394 1395
f 1427 1395 1394
f 1394 1426 1427
f 1459 1427 1426
f 1426 1458 1459
f 1491 1459 1458
f 1458 1490 1491
f 1523 1491 1490
f 1490 1522 1523
f 1555 1523 1522
f 1522 1554 1555
f 1587 1555 1554
f 1554 1586 1587
f 1619 1587 1586
f 1586 1618 1619
f 1651 1619 1618
f 1618 1650 1651
f 1683 1651 1650
f 1650 1682 1683
f 1715 1683 1682
f 1682 1714 1715
f 1747 1715 1714
f 1714 1746 1747
f 1779 1747 1746
f 1746 1778 1779
f 1811 1779 1778
f 1778 1810 1811
f 1843 1811 1810
f 1810 1842 1843
f 1875 1843 1842
f 1842 1874 1875
f 1907 1875 1874
f 1874 1906 1907
f 1939 1907 1906
f 1906 1938 1939
f 1971 1939 1938
f 1938 1970 1971
f 2003 1971 1970
f 1970 2002 2003
f 2035 2003 2002
f 2002 2034 2035
f 2067 2035 2034
f 2034 2066 2067
f 1108 1076 1075
f 1075 1107 1108
f 1140 1108 1107
f 1107 1139 1140
f 1172 1140 1139
f 1139 1171 1172
f 1204 1172 1171
f 1171 1203 1204
f 1236 1204 1203
f 1203 1235 1236
f 1268 1236 1235
f 1235 1267 1268
f 1300 1268 1267
f 1267 1299 1300
f 1332 1300 1299
f 1299 1331 1332
f 1364 1332 1331
f 1331 1363 1364
f 1396 1364 1363
f 1363 1395 1396
f 1428 1396 1395
f 1395 1427 1428
f 1460 1428 1427
f 1427 1459 1460
f 1492 1460 1459
f 1459 1491 1492
f 1524 1492 1491
f 1491 1523 1524
f 1556 1524 1523
f 1523 1555 1556
f 1588 1556 1555
f 1555 1587 1588
f 1620 1588 1587
f 1587 1619 1620
f 1652 1620 1619
f 1619 1651 1652
f 1684 1652 1651
f 1651 1683 1684
f 1716 1684 1683
f 1683 1715 1716
f 1748 1716 1715
f 1715 1747 1748
f 1780 1748 1747
f 1747 1779 1780
f 1812 1780 1779
f 1779 1811 1812
f 1844 1812 1811
f 1811 1843 1844
f 1876 1844 1843
f 1843 1875 1876
f 1908 1876 1875
f 1875 1907 1908
f 1940 1908 1907
f 1907 1939 1940
f 1972 1940 1939
f 1939 1971 1972
f 2004 1972 1971
f 1971 2003 2004
f 2036 2004 2003
f 2003 2035 2036
f 2068 2036 2035
f 2035 2067 2068
f 1109 1077 1076
f 1076 1108 1109
f 1141 1109 1108
f 1108 1140 1141
f 1173 1141 1140
f 1140 1172 1173
f 1205 1173 1172
f 1172 1204 1205
f 1237 1205 1204
f 1204 1236 1237
f 1269 1237 1236
f 1236 1268 1269
f 1301 1269 1268
f 1268 1300 1301
f 1333 1301 1300
f 1300 1332 1333
f 1365 1333 1332
f 1332 1364 1365
f 1397 1365 1364
f 1364 1396 1397
f 1429 1397 1396
f 1396 1428 1429
f 1461 1429 1428
f 1428 1460 1461
f 1493 1461 1460
f 1460 1492 1493
f 1525 1493 1492
f 1492 1524 1525
f 1557 1525 1524
f 1524 1556 1557
f 1589 1557 1556
f 1556 1588 1589
f 1621 1589 1588
f 1588 1620 1621
f 1653 1621 1620
f 1620 1652 1653
f 1685 1653 1652
f 1652 1684 1685
f 1717 1685 1684
f 1684 1716 1717
f 1749 1717 1716
f 1716 1748 1749
f 1781 1749 1748
f 1748 1780 1781
f 1813 1781 1780
f 1780 1812 1813
f 1845 1813 1812
f 1812 1844 1845
f 1877 1845 1844
f 1844 1876 1877
f 1909 1877 1876
f 1876 1908 1909
f 1941 1909 1908
f 1908 1940 1941
f 1973 1941 1940
f 1940 1972 1973
f 2005 1973 1972
f 1972 2004 2005
f 2037 2005 2004
f 2004 2036 2037
f 2069 2037 2036
f 2036 2068 2069
f 1110 1078 1077
f 1077 1109 1110
f 1142 1110 1109
f 1109 1141 1142
f 1174 1142 1141
f 1141 1173 1174
f 1206 1174 1173
f 1173 1205 1206
f 1238 1206 1205
f 1205 1237 1238
f 1270 1238 1237
f 1237 1269 1270
f 1302 1270 1269
f 1269 1301 1302
f 1334 1302 1301
f 1301 1333 1334
f 1366 1334 1333
f 1333 1365 1366
f 1398 1366 1365
f 1365 1397 1398
f 1430 1398 1397
f 1397 1429 1430
f 1462 1430 1429
f 1429 1461 1462
f 1494 1462 1461
f 1461 1493 1494
f 1526 1494 1493
f 1493 1525 1526
f 1558 1526 1525
f 1525 1557 1558
f 1590 1558 1557
f 1557 1589 1590
f 1622 1590 1589
f 1589 1621 1622
f 1654 1622 1621
f 1621 1653 1654
f 1686 1654 1653
f 1653 1685 1686
f 1718 1686 1685
f 1685 1717 1718
f 1750 1718 1717
f 1717 1749 1750
f 1782 1750 1749
f 1749 1781 1782
f 1814 1782 1781
f 1781 1813 1814
f 1846 1814 1813
f 1813 1845 1846
f 1878 1846 1845
f 1845 1877 1878
f 1910 1878 1877
f 1877 1909 1910
f 1942 1910 1909
f 1909 1941 1942
f 1974 1942 1941
f 1941 1973 1974
f 2006 1974 1973
f 1973 2005 2006
f 2038 2006 2005
f 2005 2037 2038
f 2070 2038 2037
f 2037 2069 2070
f 1111 1079 1078
f 1078 1110 1111
f 1143 1111 1110
f 1110 1142 1143
f 1175 1143 1142
f 1142 1174 1175
f 1207 1175 1174
f 1174 1206 1207
f 1239 1207 1206
f 1206 1238 1239
f 1271 1239 1238
f 1238 1270 1271
f 1303 1271 1270
f 1270 1302 1303
f 1335 1303 1302
f 1302 1334 1335
f 1367 1335 1334
f 1334 1366 1367
f 1399 1367 1366
f 1366 1398 1399
f 1431 1399 1398
f 1398 1430 1431
f 1463 1431 1430
f 1430 1462 1463
f 1495 1463 1462
f 1462 1494 1495
f 1527 1495 1494
f 1494 1526 1527
f 1559 1527 1526
f 1526 1558 1559
f 1591 1559 1558
f 1558 1590 1591
f 1623 1591 1590
f 1590 1622 1623
f 1655 1623 1622
f 1622 1654 1655
f 1687 1655 1654
f 1654 1686 1687
f 1719 1687 1686
f 1686 1718 1719
f 1751 1719 1718
f 1718 1750 1751
f 1783 1751 1750
f 1750 1782 1783
f 1815 1783 1782
f 1782 1814 1815
f 1847 1815 1814
f 1814 1846 1847
f 1879 1847 1846
f 1846 1878 1879
f 1911 1879 1878
f 1878 1910 1911
f 1943 1911 1910
f 1910 1942 1943
f 1975 1943 1942
f 1942 1974 1975
f 2007 1975 1974
f 1974 2006 2007
f 2039 2007 2006
f 2006 2038 2039
f 2071 2039 2038
f 2038 2070 2071
f 1112 1080 1079
f 1079 1111 1112
f 1144 1112 1111
f 1111 1143 1144
f 1176 1144 1143
f 1143 1175 1176
f 1208 1176 1175
f 1175 1207 1208
f 1240 1208 1207
f 1207 1239 1240
f 1272 1240 1239
f 1239 1271 1272
f 1304 1272 1271
f 1271 1303 1304
f 1336 1304 1303
f 1303 1335 1336
f 1368 1336 1335
f 1335 1367 1368
f 1400 1368 1367
f 1367 1399 1400
f 1432 1400 1399
f 1399 1431 1432
f 1464 1432 1431
f 1431 1463 1464
f 1496 1464 1463
f 1463 1495 1496
f 1528 1496 1495
f 1495 1527 1528
f 1560 1528 1527
f 1527 1559 1560
f 1592 1560 1559
f 1559 1591 1592
f 1624 1592 1591
f 1591 1623 1624
f 1656 1624 1623
f 1623 1655 1656
f 1688 1656 1655
f 1655 1687 1688
f 1720 1688 1687
f 1687 1719 1720
f 1752 1720 1719
f 1719 1751 1752
f 1784 1752 1751
f 1751 1783 1784
f 1816 1784 1783
f 1783 1815 1816
f 1848 1816 1815
f 1815 1847 1848
f 1880 1848 1847
f 1847 1879 1880
f 1912 1880 1879
f 1879 1911 1912
f 1944 1912 1911
f 1911 1943 1944
f 1976 1944 1943
f 1943 1975 1976
f 2008 1976 1975
f 1975 2007 2008
f 2040 2008 2007
f 2007 2039 2040
f 2072 2040 2039
f 2039 2071 2072
f 1113 1081 1080
f 1080 1112 1113
f 1145 1113 1112
f 1112 1144 1145
f 1177 1145 1144
f 1144 1176 1177
f 1209 1177 1176
f 1176 1208 1209
f 1241 1209 1208
f 1208 1240 1241
f 1273 1241 1240
f 1240 1272 1273
f 1305 1273 1272
f 1272 1304 1305
f 1337 1305 1304
f 1304 1336 1337
f 1369 1337 1336
f 1336 1368 1369
f 1401 1369 1368
f 1368 1400 1401
f 1433 1401 1400
f 1400 1432 1433
f 1465 1433 1432
f 1432 1464 1465
f 1497 1465 1464
f 1464 1496 1497
f 1529 1497 1496
f 1496 1528 1529
f 1561 1529 1528
f 1528 1560 1561
f 1593 1561 1560
f 1560 1592 1593
f 1625 1593 1592
f 1592 1624 1625
f 1657 1625 1624
f 1624 1656 1657
f 1689 1657 1656
f 1656 1688 1689
f 1721 1689 1688
f 1688 1720 1721
f 1753 1721 1720
f 1720 1752 1753
f 1785 1753 1752
f 1752 1784 1785
f 1817 1785 1784
f 1784 1816 1817
f 1849 1817 1816
f 1816 1848 1849
f 1881 1849 1848
f 1848 1880 1881
f 1913 1881 1880
f 1880 1912 1913
f 1945 1913 1912
f 1912 1944 1945
f 1977 1945 1944
f 1944 1976 1977
f 2009 1977 1976
f 1976 2008 2009
f 2041 2009 2008
f 2008 2040 2041
f 2073 2041 2040
f 2040 2072 2073
f 1114 1082 1081
f 1081 1113 1114
f 1146 1114 1113
f 1113 1145 1146
f 1178 1146 1145
f 1145 1177 1178
f 1210 1178 1177
f 1177 1209 1210
f 1242 1210 1209
f 1209 1241 1242
f 1274 1242 1241
f 1241 1273 1274
f 1306 1274 1273
f 1273 1305 1306
f 1338 1306 1305
f 1305 1337 1338
f 1370 1338 1337
f 1337 1369 1370
f 1402 1370 1369
f 1369 1401 1402
f 1434 1402 1401
f 1401 1433 1434
f 1466 1434 1433
f 1433 1465 1466
f 1498 1466 1465
f 1465 1497 1498
f 1530 1498 1497
f 1497 1529 1530
f 1562 1530 1529
f 1529 1561 1562
f 1594 1562 1561
f 1561 1593 1594
f 1626 1594 1593
f 1593 1625 1626
f 1658 1626 1625
f 1625 1657 1658
f 1690 1658 1657
f 1657 1689 1690
f 1722 1690 1689
f 1689 1721 1722
f 1754 1722 1721
f 1721 1753 1754
f 1786 1754 1753
f 1753 1785 1786
f 1818 1786 1785
f 1785 1817 1818
f 1850 1818 1817
f 1817 1849 1850
f 1882 1850 1849
f 1849 1881 1882
f 1914 1882 1881
f 1881 1913 1914
f 1946 1914 1913
f 1913 1945 1946
f 1978 1946 1945
f 1945 1977 1978
f 2010 1978 1977
f 1977 2009 2010
f 2042 2010 2009
f 2009 2041 2042
f 2074 2042 2041
f 2041 2073 2074
f 1115 1083 1082
f 1082 1114 1115
f 1147 1115 1114
f 1114 1146 1147
f 1179 1147 1146
f 1146 1178 1179
f 1211 1179 1178
f 1178 1210 1211
f 1243 1211 1210
f 1210 1242 1243
f 1275 1243 1242
f 1242 1274 1275
f 1307 1275 1274
f 1274 1306 1307
f 1339 1307 1306
f 1306 1338 1339
f 1371 1339 1338
f 1338 1370 1371
f 1403 1371 1370
f 1370 1402 1403
f 1435 1403 1402
f 1402 1434 1435
f 1467 1435 1434
f 1434 1466 1467
f 1499 1467 1466
f 1466 1498 1499
f 1531 1499 1498
f 1498 1530 1531
f 1563 1531 1530
f 1530 1562 1563
f 1595 1563 1562
f 1562 1594 1595
f 1627 1595 1594
f 1594 1626 1627
f 1659 1627 1626
f 1626 1658 1659
f 1691 1659 1658
f 1658 1690 1691
f 1723 1691 1690
f 1690 1722 1723
f 1755 1723 1722
f 1722 1754 1755
f 1787 1755 1754
f 1754 1786 1787
f 1819 1787 1786
f 1786 1818 1819
f 1851 1819 1818
f 1818 1850 1851
f 1883 1851 1850
f 1850 1882 1883
f 1915 1883 1882
f 1882 1914 1915
f 1947 1915 1914
f 1914 1946 1947
f 1979 1947 1946
f 1946 1978 1979
f 2011 1979 1978
f 1978 2010 2011
f 2043 2011 2010
f 2010 2042 2043
f 2075 2043 2042
f 2042 2074 2075
f 1116 1084 1083
f 1083 1115 1116
f 1148 1116 1115
f 1115 1147 1148
f 1180 1148 1147
f 1147 1179 1180
f 1212 1180 1179
f 1179 1211 1212
f 1244 1212 1211
f 1211 1243 1244
f 1276 1244 1243
f 1243 1275 1276
f 1308 1276 1275
f 1275 1307 1308
f 1340 1308 1307
f 1307 1339 1340
f 1372 1340 1339
f 1339 1371 1372
f 1404 1372 1371
f 1371 1403 1404
f 1436 1404 1403
f 1403 1435 1436
f 1468 1436 1435
f 1435 1467 1468
f 1500 1468 1467
f 1467 1499 1500
f 1532 1500 1499
f 1499 1531 1532
f 1564 1532 1531
f 1531 1563 1564
f 1596 1564 1563
f 1563 1595 1596
f 1628 1596 1595
f 1595 1627 1628
f 1660 1628 1627
f 1627 1659 1660
f 1692 1660 1659
f 1659 1691 1692
f 1724 1692 1691
f 1691 1723 1724
f 1756 1724 1723
f 1723 1755 1756
f 1788 1756 1755
f 1755 1787 1788
f 1820 1788 1787
f 1787 1819 1820
f 1852 1820 1819
f 1819 1851 1852
f 1884 1852 1851
f 1851 1883 1884
f 1916 1884 1883
f 1883 1915 1916
f 1948 1916 1915
f 1915 1947 1948
f 1980 1948 1947
f 1947 1979 1980
f 2012 1980 1979
f 1979 2011 2012
f 2044 2012 2011
f 2011 2043 2044
f 2076 2044 2043
f 2043 2075 2076
f 1117 1085 1084
f 1084 1116 1117
f 1149 1117 1116
f 1116 1148 1149
f 1181 1149 1148
f 1148 1180 1181
f 1213 1181 1180
f 1180 1212 1213
f 1245 1213 1212
f 1212 1244 1245
f 1277 1245 1244
f 1244 1276 1277
f 1309 1277 1276
f 1276 1308 1309
f 1341 1309 1308
f 1308 1340 1341
f 1373 1341 1340
f 1340 1372 1373
f 1405 1373 1372
f 1372 1404 1405
f 1437 1405 1404
f 1404 1436 1437
f 1469 1437 1436
f 1436 1468 1469
f 1501 1469 1468
f 1468 1500 1501
f 1533 1501 1500
f 1500 1532 1533
f 1565 1533 1532
f 1532 1564 1565
f 1597 1565 1564
f 1564 1596 1597
f 1629 1597 1596
f 1596 1628 1629
f 1661 1629 1628
f 1628 1660 1661
f 1693 1661 1660
f 1660 1692 1693
f 1725 1693 1692
f 1692 1724 1725
f 1757 1725 1724
f 1724 1756 1757
f 1789 1757 1756
f 1756 1788 1789
f 1821 1789 1788
f 1788 1820 1821
f 1853 1821 1820
f 1820 1852 1853
f 1885 1853 1852
f 1852 1884 1885
f 1917 1885 1884
f 1884 1916 1917
f 1949 1917 1916
f 1916 1948 1949
f 1981 1949 1948
f 1948 1980 1981
f 2013 1981 1980
f 1980 2012 2013
f 2045 2013 2012
f 2012 2044 2045
f 2077 2045 2044
f 2044 2076 2077
f 1118 1086 1085
f 1085 1117 1118
f 1150 1118 1117
f 1117 1149 1150
f 1182 1150 1149
f 1149 1181 1182
f 1214 1182 1181
f 1181 1213 1214
f 1246 1214 1213
f 1213 1245 1246
f 1278 1246 1245
f 1245 1277 1278
f 1310 1278 1277
f 1277 1309 1310
f 1342 1310 1309
f 1309 1341 1342
f 1374 1342 1341
f 1341 1373 1374
f 1406 1374 1373
f 1373 1405 1406
f 1438 1406 1405
f 1405 1437 1438
f 1470 1438 1437
f 1437 1469 1470
f 1502 1470 1469
f 1469 1501 1502
f 1534 1502 1501
f 1501 1533 1534
f 1566 1534 1533
f 1533 1565 1566
f 1598 1566 1565
f 1565 1597 1598
f 1630 1598 1597
f 1597 1629 1630
f 1662 1630 1629
f 1629 1661 1662
f 1694 1662 1661
f 1661 1693 1694
f 1726 1694 1693
f 1693 1725 1726
f 1758 1726 1725
f 1725 1757 1758
f 1790 1758 1757
f 1757 1789 1790
f 1822 1790 1789
f 1789 1821 1822
f 1854 1822 1821
f 1821 1853 1854
f 1886 1854 1853
f 1853 1885 1886
f 1918 1886 1885
f 1885 1917 1918
f 1950 1918 1917
f 1917 1949 1950
f 1982 1950 1949
f 1949 1981 1982
f 2014 1982 1981
f 1981 2013 2014
f 2046 2014 2013
f 2013 2045 2046
f 2078 2046 2045
f 2045 2077 2078
f 1119 1087 1086
f 1086 1118 1119
f 1151 1119 1118
f 1118 1150 1151
f 1183 1151 1150
f 1150 1182 1183
f 1215 1183 1182
f 1182 1214 1215
f 1247 1215 1214
f 1214 1246 1247
f 1279 1247 1246
f 1246 1278 1279
f 1311 1279 1278
f 1278 1310 1311
f 1343 1311 1310
f 1310 1342 1343
f 1375 1343 1342
f 1342 1374 1375
f 1407 1375 1374
f 1374 1406 1407
f 1439 1407 1406
f 1406 1438 1439
f 1471 1439 1438
f 1438 1470 1471
f 1503 1471 1470
f 1470 1502 1503
f 1535 1503 1502
f 1502 1534 1535
f 1567 1535 1534
f 1534 1566 1567
f 1599 1567 1566
f 1566 1598 1599
f 1631 1599 1598
f 1598 1630 1631
f 1663 1631 1630
f 1630 1662 1663
f 1695 1663 1662
f 1662 1694 1695
f 1727 1695 1694
f 1694 1726 1727
f 1759 1727 1726
f 1726 1758 1759
f 1791 1759 1758
f 1758 1790 1791
f 1823 1791 1790
f 1790 1822 1823
f 1855 1823 1822
f 1822 1854 1855
f 1887 1855 1854
f 1854 1886 1887
f 1919 1887 1886
f 1886 1918 1919
f 1951 1919 1918
f 1918 1950 1951
f 1983 1951 1950
f 1950 1982 1983
f 2015 1983 1982
f 1982 2014 2015
f 2047 2015 2014
f 2014 2046 2047
f 2079 2047 2046
f 2046 2078 2079
f 1120 1088 1087
f 1087 1119 1120
f 1152 1120 1119
f 1119 1151 1152
f 1184 1152 1151
f 1151 1183 1184
f 1216 1184 1183
f 1183 1215 1216
f 1248 1216 1215
f 1215 1247 1248
f 1280 1248 1247
f 1247 1279 1280
f 1312 1280 1279
f 1279 1311 1312
f 1344 1312 1311
f 1311 1343 1344
f 1376 1344 1343
f 1343 1375 1376
f 1408 1376 1375
f 1375 1407 1408
f 1440 1408 1407
f 1407 1439 1440
f 1472 1440 1439
f 1439 1471 1472
f 1504 1472 1471
f 1471 1503 1504
f 1536 1504 1503
f 1503 1535 1536
f 1568 1536 1535
f 1535 1567 1568
f 1600 1568 1567
f 1567 1599 1600
f 1632 1600 1599
f 1599 1631 1632
f 1664 1632 1631
f 1631 1663 1664
f 1696 1664 1663
f 1663 1695 1696
f 1728 1696 1695
f 1695 1727 1728
f 1760 1728 1727
f 1727 1759 1760
f 1792 1760 1759
f 1759 1791 1792
f 1824 1792 1791
f 1791 1823 1824
f 1856 1824 1823
f 1823 1855 1856
f 1888 1856 1855
f 1855 1887 1888
f 1920 1888 1887
f 1887 1919 1920
f 1952 1920 1919
f 1919 1951 1952
f 1984 1952 1951
f 1951 1983 1984
f 2016 1984 1983
f 1983 2015 2016
f 2048 2016 2015
f 2015 2047 2048
f 2080 2048 2047
f 2047 2079 2080
f 1121 1089 1088
f 1088 1120 1121
f 1153 1121 1120
f 1120 1152 1153
f 1185 1153 1152
f 1152 1184 1185
f 1217 1185 1184
f 1184 1216 1217
f 1249 1217 1216
f 1216 1248 1249
f 1281 1249 1248
f 1248 1280 1281
f 1313 1281 1280
f 1280 1312 1313
f 1345 1313 1312
f 1312 1344 1345
f 1377 1345 1344
f 1344 1376 1377
f 1409 1377 1376
f 1376 1408 1409
f 1441 1409 1408
f 1408 1440 1441
f 1473 1441 1440
f 1440 1472 1473
f 1505 1473 1472
f 1472 1504 1505
f 1537 1505 1504
f 1504 1536 1537
f 1569 1537 1536
f 1536 1568 1569
f 1601 1569 1568
f 1568 1600 1601
f 1633 1601 1600
f 1600 1632 1633
f 1665 1633 1632
f 1632 1664 1665
f 1697 1665 1664
f 1664 1696 1697
f 1729 1697 1696
f 1696 1728 1729
f 1761 1729 1728
f 1728 1760 1761
f 1793 1761 1760
f 1760 1792 1793
f 1825 1793 1792
f 1792 1824 1825
f 1857 1825 1824
f 1824 1856 1857
f 1889 1857 1856
f 1856 1888 1889
f 1921 1889 1888
f 1888 1920 1921
f 1953 1921 1920
f 1920 1952 1953
f 1985 1953 1952
f 1952 1984 1985
f 2017 1985 1984
f 1984 2016 2017
f 2049 2017 2016
f 2016 2048 2049
f 2081 2049 2048
f 2048 2080 2081
f 1122 1090 1089
f 1089 1121 1122
f 1154 1122 1121
f 1121 1153 1154
f 1186 1154 1153
f 1153 1185 1186
f 1218 1186 1185
f 1185 1217 1218
f 1250 1218 1217
f 1217 1249 1250
f 1282 1250 1249
f 1249 1281 1282
f 1314 1282 1281
f 1281 1313 1314
f 1346 1314 1313
f 1313 1345 1346
f 1378 1346 1345
f 1345 1377 1378
f 1410 1378 1377
f 1377 1409 1410
f 1442 1410 1409
f 1409 1441 1442
f 1474 1442 1441
f 1441 1473 1474
f 1506 1474 1473
f 1473 1505 1506
f 1538 1506 1505
f 1505 1537 1538
f 1570 1538 1537
f 1537 1569 1570
f 1602 1570 1569
f 1569 1601 1602
f 1634 1602 1601
f 1601 1633 1634
f 1666 1634 1633
f 1633 1665 1666
f 1698 1666 1665
f 1665 1697 1698
f 1730 1698 1697
f 1697 1729 1730
f 1762 1730 1729
f 1729 1761 1762
f 1794 1762 1761
f 1761 1793 1794
f 1826 1794 1793
f 1793 1825 1826
f 1858 1826 1825
f 1825 1857 1858
f 1890 1858 1857
f 1857 1889 1890
f 1922 1890 1889
f 1889 1921 1922
f 1954 1922 1921
f 1921 1953 1954
f 1986 1954 1953
f 1953 1985 1986
f 2018 1986 1985
f 1985 2017 2018
f 2050 2018 2017
f 2017 2049 2050
f 2082 2050 2049
f 2049 2081 2082
f 1123 1091 1090
f 1090 1122 1123
f 1155 1123 1122
f 1122 1154 1155
f 1187 1155 1154
f 1154 1186 1187
f 1219 1187 1186
f 1186 1218 1219
f 1251 1219 1218
f 1218 1250 1251
f 1283 1251 1250
f 1250 1282 1283
f 1315 1283 1282
f 1282 1314 1315
f 1347 1315 1314
f 1314 1346 1347
f 1379 1347 1346
f 1346 1378 1379
f 1411 1379 1378
f 1378 1410 1411
f 1443 1411 1410
f 1410 1442 1443
f 1475 1443 1442
f 1442 1474 1475
f 1507 1475 1474
f 1474 1506 1507
f 1539 1507 1506
f 1506 1538 1539
f 1571 1539 1538
f 1538 1570 1571
f 1603 1571 1570
f 1570 1602 1603
f 1635 1603 1602
f 1602 1634 1635
f 1667 1635 1634
f 1634 1666 1667
f 1699 1667 1666
f 1666 1698 1699
f 1731 1699 1698
f 1698 1730 1731
f 1763 1731 1730
f 1730 1762 1763
f 1795 1763 1762
f 1762 1794 1795
f 1827 1795 1794
f 1794 1826 1827
f 1859 1827 1826
f 1826 1858 1859
f 1891 1859 1858
f 1858 1890 1891
f 1923 1891 1890
f 1890 1922 1923
f 1955 1923 1922
f 1922 1954 1955
f 1987 1955 1954
f 1954 1986 1987
f 2019 1987 1986
f 1986 2018 2019
f 2051 2019 2018
f 2018 2050 2051
f 2083 2051 2050
f 2050 2082 2083
f 1124 1092 1091
f 1091 1123 1124
f 1156 1124 1123
f 1123 1155 1156
f 1188 1156 1155
f 1155 1187 1188
f 1220 1188 1187
f 1187 1219 1220
f 1252 1220 1219
f 1219 1251 1252
f 1284 1252 1251
f 1251 1283 1284
f 1316 1284 1283
f 1283 1315 1316
f 1348 1316 1315
f 1315 1347 1348
f 1380 1348 1347
f 1347 1379 1380
f 1412 1380 1379
f 1379 1411 1412
f 1444 1412 1411
f 1411 1443 1444
f 1476 1444 1443
f 1443 1475 1476
f 1508 1476 1475
f 1475 1507 1508
f 1540 1508 1507
f 1507 1539 1540
f 1572 1540 1539
f 1539 1571 1572
f 1604 1572 1571
f 1571 1603 1604
f 1636 1604 1603
f 1603 1635 1636
f 1668 1636 1635
f 1635 1667 1668
f 1700 1668 1667
f 1667 1699 1700
f 1732 1700 1699
f 1699 1731 1732
f 1764 1732 1731
f 1731 1763 1764
f 1796 1764 1763
f 1763 1795 1796
f 1828 1796 1795
f 1795 1827 1828
f 1860 1828 1827
f 1827 1859 1860
f 1892 1860 1859
f 1859 1891 1892
f 1924 1892 1891
f 1891 1923 1924
f 1956 1924 1923
f 1923 1955 1956
f 1988 1956 1955
f 1955 1987 1988
f 2020 1988 1987
f 1987 2019 2020
f 2052 2020 2019
f 2019 2051 2052
f 2084 2052 2051
f 2051 2083 2084
f 1125 1093 1092
f 1092 1124 1125
f 1157 1125 1124
f 1124 1156 1157
f 1189 1157 1156
f 1156 1188 1189
f 1221 1189 1188
f 1188 1220 1221
f 1253 1221 1220
f 1220 1252 1253
f 1285 1253 1252
f 1252 1284 1285
f 1317 1285 1284
f 1284 1316 1317
f 1349 1317 1316
f 1316 1348 1349
f 1381 1349 1348
f 1348 1380 1381
f 1413 1381 1380
f 1380 1412 1413
f 1445 1413 1412
f 1412 1444 1445
f 1477 1445 1444
f 1444 1476 1477
f 1509 1477 1476
f 1476 1508 1509
f 1541 1509 1508
f 1508 1540 1541
f 1573 1541 1540
f 1540 1572 1573
f 1605 1573 1572
f 1572 1604 1605
f 1637 1605 1604
f 1604 1636 1637
f 1669 1637 1636
f 1636 1668 1669
f 1701 1669 1668
f 1668 1700 1701
f 1733 1701 1700
f 1700 1732 1733
f 1765 1733 1732
f 1732 1764 1765
f 1797 1765 1764
f 1764 1796 1797
f 1829 1797 1796
f 1796 1828 1829
f 1861 1829 1828
f 1828 1860 1861
f 1893 1861 1860
f 1860 1892 1893
f 1925 1893 1892
f 1892 1924 1925
f 1957 1925 1924
f 1924 1956 1957
f 1989 1957 1956
f 1956 1988 1989
f 2021 1989 1988
f 1988 2020 2021
f 2053 2021 2020
f 2020 2052 2053
f 2085 2053 2052
f 2052 2084 2085
f 1126 1094 1093
f 1093 1125 1126
f 1158 1126 1125
f 1125 1157 1158
f 1190 1158 1157
f 1157 1189 1190
f 1222 1190 1189
f 1189 1221 1222
f 1254 1222 1221
f 1221 1253 1254
f 1286 1254 1253
f 1253 1285 1286
f 1318 1286 1285
f 1285 1317 1318
f 1350 1318 1317
f 1317 1349 1350
f 1382 1350 1349
f 1349 1381 1382
f 1414 1382 1381
f 1381 1413 1414
f 1446 1414 1413
f 1413 1445 1446
f 1478 1446 1445
f 1445 1477 1478
f 1510 1478 1477
f 1477 1509 1510
f 1542 1510 1509
f 1509 1541 1542
f 1574 1542 1541
f 1541 1573 1574
f 1606 1574 1573
f 1573 1605 1606
f 1638 1606 1605
f 1605 1637 1638
f 1670 1638 1637
f 1637 1669 1670
f 1702 1670 1669
f 1669 1701 1702
f 1734 1702 1701
f 1701 1733 1734
f 1766 1734 1733
f 1733 1765 1766
f 1798 1766 1765
f 1765 1797 1798
f 1830 1798 1797
f 1797 1829 1830
f 1862 1830 1829
f 1829 1861 1862
f 1894 1862 1861
f 1861 1893 1894
f 1926 1894 1893
f 1893 1925 1926
f 1958 1926 1925
f 1925 1957 1958
f 1990 1958 1957
f 1957 1989 1990
f 2022 1990 1989
f 1989 2021 2022
f 2054 2022 2021
f 2021 2053 2054
f 2086 2054 2053
f 2053 2085 2086
