v 7268.4 118.973 2971.02
v 7269.59 118.973 2972.61
v 7269.59 121.514 2972.61
v 7268.4 121.514 2971.02
v 7266.65 121.704 2972.32
v 7268.25 121.704 2971.13
v 7269.44 121.704 2972.73
v 7267.84 121.704 2973.92
v 7266.5 118.973 2972.44
v 7266.5 121.514 2972.44
v 7267.69 121.514 2974.03
v 7267.69 118.973 2974.03
v 7266.54 118.973 2972.17
v 7268.13 118.973 2970.98
v 7268.13 121.514 2970.98
v 7266.54 121.514 2972.17
v 7269.55 121.514 2972.88
v 7269.55 118.973 2972.88
v 7267.95 118.973 2974.07
v 7267.95 121.514 2974.07
v 7268.25 121.704 2971.13
v 7266.65 121.704 2972.32
v 7269.44 121.704 2972.73
v 7267.84 121.704 2973.92
v 7267.84 121.704 2973.92
v 7267.69 118.973 2974.03
v 7267.69 121.514 2974.03
v 7269.03 118.783 2969.94
v 7269.03 116.791 2969.94
v 7270.8 116.791 2972.32
v 7270.8 118.783 2972.32
v 7260 118.783 2980.37
v 7260 116.791 2980.37
v 7258.23 116.791 2977.99
v 7258.23 118.783 2977.99
v 7263.42 118.783 2973.78
v 7263.42 116.791 2973.78
v 7268.63 116.791 2969.89
v 7268.63 118.783 2969.89
v 7265.52 116.791 2976.6
v 7260.4 116.791 2980.43
v 7260.4 118.783 2980.43
v 7265.52 118.783 2976.6
v 7265.36 116.601 2976.38
v 7260.23 116.601 2980.2
v 7260 116.791 2980.37
v 7260 118.783 2980.37
v 7260.23 116.601 2980.2
v 7258.46 116.601 2977.83
v 7258.29 116.791 2977.6
v 7258.29 118.783 2977.6
v 7263.59 116.601 2974
v 7268.8 116.601 2970.11
v 7270.57 116.601 2972.49
v 7270.74 116.791 2972.71
v 7270.74 118.783 2972.71
v 7268.8 118.973 2970.11
v 7265.69 118.973 2972.44
v 7264.88 118.973 2973.05
v 7263.59 118.973 2974
v 7268.8 118.973 2970.11
v 7263.59 118.973 2974
v 7270.57 118.973 2972.49
v 7260.23 118.973 2980.2
v 7263.06 118.973 2978.08
v 7263.95 118.973 2977.42
v 7265.36 118.973 2976.38
v 7258.46 118.973 2977.83
v 7260.23 118.973 2980.2
v 7261.21 101.641 2976.38
v 7262.4 101.641 2977.98
v 7262.4 116.601 2977.98
v 7261.21 116.601 2976.38
v 7259.31 101.641 2977.8
v 7259.31 116.601 2977.8
v 7260.5 116.601 2979.39
v 7260.5 101.641 2979.39
v 7259.35 101.641 2977.53
v 7260.95 101.641 2976.34
v 7260.95 116.601 2976.34
v 7259.35 116.601 2977.53
v 7262.36 116.601 2978.24
v 7262.36 101.641 2978.24
v 7260.77 101.641 2979.43
v 7260.77 116.601 2979.43
v 7260.5 101.641 2979.39
v 7260.5 116.601 2979.39
v 7264.78 101.641 2973.72
v 7265.97 101.641 2975.31
v 7265.97 116.601 2975.31
v 7264.78 116.601 2973.72
v 7262.88 101.641 2975.13
v 7262.88 116.601 2975.13
v 7264.07 116.601 2976.73
v 7264.07 101.641 2976.73
v 7262.92 101.641 2974.87
v 7264.52 101.641 2973.68
v 7264.52 116.601 2973.68
v 7262.92 116.601 2974.87
v 7265.93 116.601 2975.58
v 7265.93 101.641 2975.58
v 7264.34 101.641 2976.77
v 7264.34 116.601 2976.77
v 7264.07 101.641 2976.73
v 7264.07 116.601 2976.73
v 7268.4 101.641 2971.02
v 7269.59 101.641 2972.61
v 7269.59 116.601 2972.61
v 7268.4 116.601 2971.02
v 7266.5 101.641 2972.44
v 7266.5 116.601 2972.44
v 7267.69 116.601 2974.03
v 7267.69 101.641 2974.03
v 7266.54 101.641 2972.17
v 7268.13 101.641 2970.98
v 7268.13 116.601 2970.98
v 7266.54 116.601 2972.17
v 7269.55 116.601 2972.88
v 7269.55 101.641 2972.88
v 7267.95 101.641 2974.07
v 7267.95 116.601 2974.07
v 7268.13 116.601 2970.98
v 7268.13 101.641 2970.98
v 7259.31 116.601 2977.8
v 7258.46 116.601 2977.83
v 7260.23 116.601 2980.2
v 7260.5 116.601 2979.39
v 7262.88 116.601 2975.13
v 7261.21 116.601 2976.38
v 7262.4 116.601 2977.98
v 7264.07 116.601 2976.73
v 7265.97 116.601 2975.31
v 7267.69 116.601 2974.03
v 7266.5 116.601 2972.44
v 7264.78 116.601 2973.72
v 7269.59 116.601 2972.61
v 7270.57 116.601 2972.49
v 7268.8 116.601 2970.11
v 7268.4 116.601 2971.02
v 7260.77 116.601 2979.43
v 7262.36 116.601 2978.24
v 7264.34 116.601 2976.77
v 7265.93 116.601 2975.58
v 7267.95 116.601 2974.07
v 7269.55 116.601 2972.88
v 7259.35 116.601 2977.53
v 7262.92 116.601 2974.87
v 7260.95 116.601 2976.34
v 7266.54 116.601 2972.17
v 7264.52 116.601 2973.68
v 7268.13 116.601 2970.98
v 7268.8 116.601 2970.11
v 7263.59 116.601 2974
v 7258.46 116.601 2977.83
v 7260.23 116.601 2980.2
v 7265.36 116.601 2976.38
v 7270.57 116.601 2972.49
v 7266.64 118.973 2975.41
v 7267.45 118.973 2974.81
v 7262.18 118.973 2975.06
v 7261.3 118.973 2975.71
v 7258.46 118.973 2977.83
v 7266 118.973 2972.54
v 7267.45 118.973 2974.49
v 7267.45 121.514 2974.49
v 7266 121.514 2972.54
v 7265.04 121.704 2973.26
v 7265.85 121.704 2972.65
v 7267.3 121.704 2974.6
v 7266.49 121.704 2975.2
v 7264.89 118.973 2973.37
v 7264.89 121.514 2973.37
v 7266.34 121.514 2975.32
v 7266.34 118.973 2975.32
v 7264.88 118.973 2973.05
v 7265.69 118.973 2972.44
v 7265.7 121.514 2972.45
v 7264.89 121.514 2973.06
v 7267.45 121.514 2974.8
v 7267.45 118.973 2974.81
v 7266.64 118.973 2975.41
v 7266.64 121.514 2975.4
v 7265.85 121.704 2972.65
v 7265.04 121.704 2973.26
v 7267.3 121.704 2974.6
v 7266.49 121.704 2975.2
v 7266.49 121.704 2975.2
v 7266.34 118.973 2975.32
v 7266.34 121.514 2975.32
v 7264.76 118.973 2973.73
v 7265.95 118.973 2975.33
v 7265.95 121.514 2975.33
v 7264.76 121.514 2973.73
v 7263.02 121.704 2975.03
v 7264.61 121.704 2973.84
v 7265.8 121.704 2975.44
v 7264.21 121.704 2976.63
v 7262.86 118.973 2975.15
v 7262.86 121.514 2975.15
v 7264.05 121.514 2976.74
v 7264.05 118.973 2976.74
v 7262.9 118.973 2974.88
v 7264.5 118.973 2973.69
v 7264.5 121.514 2973.69
v 7262.9 121.514 2974.88
v 7265.92 121.514 2975.59
v 7265.92 118.973 2975.59
v 7264.32 118.973 2976.78
v 7264.32 121.514 2976.78
v 7264.61 121.704 2973.84
v 7263.02 121.704 2975.03
v 7265.8 121.704 2975.44
v 7264.21 121.704 2976.63
v 7264.21 121.704 2976.63
v 7264.05 118.973 2976.74
v 7264.05 121.514 2976.74
v 7262.77 118.973 2978
v 7261.29 118.973 2976.02
v 7261.29 121.514 2976.02
v 7262.77 121.514 2978
v 7263.8 121.704 2977.23
v 7262.92 121.704 2977.89
v 7261.44 121.704 2975.91
v 7262.32 121.704 2975.25
v 7263.95 118.973 2977.12
v 7263.95 121.514 2977.12
v 7262.47 121.514 2975.14
v 7262.47 118.973 2975.14
v 7263.95 118.973 2977.42
v 7263.06 118.973 2978.08
v 7263.06 121.514 2978.08
v 7263.94 121.514 2977.42
v 7261.3 121.514 2975.72
v 7261.3 118.973 2975.71
v 7262.18 118.973 2975.06
v 7262.18 121.514 2975.06
v 7262.92 121.704 2977.89
v 7263.8 121.704 2977.23
v 7261.44 121.704 2975.91
v 7262.32 121.704 2975.25
v 7262.32 121.704 2975.25
v 7262.47 118.973 2975.14
v 7262.47 121.514 2975.14
v 7261.16 118.973 2976.41
v 7262.36 118.973 2978.01
v 7262.36 121.514 2978.01
v 7261.16 121.514 2976.41
v 7259.42 121.704 2977.72
v 7261.01 121.704 2976.53
v 7262.2 121.704 2978.12
v 7260.61 121.704 2979.31
v 7259.26 118.973 2977.83
v 7259.26 121.514 2977.83
v 7260.45 121.514 2979.43
v 7260.45 118.973 2979.43
v 7259.3 118.973 2977.57
v 7260.9 118.973 2976.37
v 7260.9 121.514 2976.37
v 7259.3 121.514 2977.57
v 7262.32 121.514 2978.28
v 7262.32 118.973 2978.28
v 7260.72 118.973 2979.47
v 7260.72 121.514 2979.47
v 7261.01 121.704 2976.53
v 7259.42 121.704 2977.72
v 7262.2 121.704 2978.12
v 7260.61 121.704 2979.31
v 7260.61 121.704 2979.31
v 7260.45 118.973 2979.43
v 7260.45 121.514 2979.43
v 7258.46 118.973 2977.83
v 7259.26 118.973 2977.83
v 7260.45 118.973 2979.43
v 7260.23 118.973 2980.2
v 7260.72 118.973 2979.47
v 7262.32 118.973 2978.28
v 7263.06 118.973 2978.08
v 7261.16 118.973 2976.41
v 7261.29 118.973 2976.02
v 7262.77 118.973 2978
v 7262.36 118.973 2978.01
v 7261.3 118.973 2975.71
v 7260.9 118.973 2976.37
v 7259.3 118.973 2977.57
v 7264.05 118.973 2976.74
v 7263.95 118.973 2977.12
v 7262.47 118.973 2975.14
v 7262.86 118.973 2975.15
v 7266.34 118.973 2975.32
v 7265.95 118.973 2975.33
v 7264.76 118.973 2973.73
v 7264.89 118.973 2973.37
v 7263.59 118.973 2974
v 7264.88 118.973 2973.05
v 7264.5 118.973 2973.69
v 7262.9 118.973 2974.88
v 7262.18 118.973 2975.06
v 7267.69 118.973 2974.03
v 7267.45 118.973 2974.49
v 7266 118.973 2972.54
v 7266.5 118.973 2972.44
v 7268.8 118.973 2970.11
v 7268.13 118.973 2970.98
v 7266.54 118.973 2972.17
v 7265.69 118.973 2972.44
v 7270.57 118.973 2972.49
v 7269.59 118.973 2972.61
v 7268.4 118.973 2971.02
v 7267.45 118.973 2974.81
v 7267.95 118.973 2974.07
v 7269.55 118.973 2972.88
v 7263.95 118.973 2977.42
v 7264.32 118.973 2976.78
v 7265.92 118.973 2975.59
v 7266.64 118.973 2975.41
v 7265.36 118.973 2976.38
v 7265.45 121.654 2976
v 7263.97 121.654 2974.02
v 7263.97 124.196 2974.02
v 7265.45 124.196 2976
v 7266.48 124.386 2975.23
v 7265.6 124.386 2975.89
v 7264.12 124.386 2973.91
v 7265.01 124.386 2973.25
v 7266.64 121.654 2975.12
v 7266.64 124.196 2975.12
v 7265.16 124.196 2973.14
v 7265.16 121.654 2973.14
v 7266.63 121.654 2975.42
v 7265.75 121.654 2976.08
v 7265.75 124.196 2976.08
v 7266.63 124.196 2975.42
v 7263.98 124.196 2973.72
v 7263.98 121.654 2973.72
v 7264.86 121.654 2973.06
v 7264.86 124.196 2973.06
v 7265.6 124.386 2975.89
v 7266.48 124.386 2975.23
v 7264.12 124.386 2973.91
v 7265.01 124.386 2973.25
v 7265.01 124.386 2973.25
v 7265.16 121.654 2973.14
v 7265.16 124.196 2973.14
v 7266.63 121.654 2975.42
v 7266.64 121.654 2975.12
v 7265.16 121.654 2973.14
v 7264.86 121.654 2973.06
v 7263.98 121.654 2973.72
v 7263.97 121.654 2974.02
v 7265.45 121.654 2976
v 7265.75 121.654 2976.08
v 7267.32 121.704 2971.82
v 7268.51 121.704 2973.42
v 7268.51 124.246 2973.42
v 7267.32 124.246 2971.82
v 7265.57 124.436 2973.13
v 7267.17 124.436 2971.94
v 7268.36 124.436 2973.53
v 7266.76 124.436 2974.73
v 7265.42 121.704 2973.24
v 7265.42 124.246 2973.24
v 7266.61 124.246 2974.84
v 7266.61 121.704 2974.84
v 7265.46 121.704 2972.98
v 7267.05 121.704 2971.79
v 7267.05 124.246 2971.79
v 7265.46 124.246 2972.98
v 7268.47 124.246 2973.69
v 7268.47 121.704 2973.69
v 7266.87 121.704 2974.88
v 7266.87 124.246 2974.88
v 7267.17 124.436 2971.94
v 7265.57 124.436 2973.13
v 7268.36 124.436 2973.53
v 7266.76 124.436 2974.73
v 7266.76 124.436 2974.73
v 7266.61 121.704 2974.84
v 7266.61 124.246 2974.84
v 7268.47 121.704 2973.69
v 7268.51 121.704 2973.42
v 7267.32 121.704 2971.82
v 7267.05 121.704 2971.79
v 7265.46 121.704 2972.98
v 7265.42 121.704 2973.24
v 7266.61 121.704 2974.84
v 7266.87 121.704 2974.88
v 7263.39 121.704 2974.75
v 7264.58 121.704 2976.35
v 7264.58 124.246 2976.35
v 7263.39 124.246 2974.75
v 7261.64 124.436 2976.06
v 7263.24 124.436 2974.87
v 7264.43 124.436 2976.46
v 7262.83 124.436 2977.66
v 7261.49 121.704 2976.17
v 7261.49 124.246 2976.17
v 7262.68 124.246 2977.77
v 7262.68 121.704 2977.77
v 7261.53 121.704 2975.91
v 7263.12 121.704 2974.72
v 7263.12 124.246 2974.72
v 7261.53 124.246 2975.91
v 7264.54 124.246 2976.62
v 7264.54 121.704 2976.62
v 7262.94 121.704 2977.81
v 7262.94 124.246 2977.81
v 7263.24 124.436 2974.87
v 7261.64 124.436 2976.06
v 7264.43 124.436 2976.46
v 7262.83 124.436 2977.66
v 7262.83 124.436 2977.66
v 7262.68 121.704 2977.77
v 7262.68 124.246 2977.77
v 7262.68 121.704 2977.77
v 7262.94 121.704 2977.81
v 7264.54 121.704 2976.62
v 7264.58 121.704 2976.35
v 7263.39 121.704 2974.75
v 7263.12 121.704 2974.72
v 7261.53 121.704 2975.91
v 7261.49 121.704 2976.17
v 7262.8 124.436 2974.95
v 7264.4 124.436 2973.76
v 7264.4 126.977 2973.76
v 7262.8 126.977 2974.95
v 7264.11 127.167 2976.7
v 7262.92 127.167 2975.11
v 7264.51 127.167 2973.92
v 7265.71 127.167 2975.51
v 7264.22 124.436 2976.85
v 7264.22 126.977 2976.85
v 7265.82 126.977 2975.66
v 7265.82 124.436 2975.66
v 7263.96 124.436 2976.82
v 7262.77 124.436 2975.22
v 7262.77 126.977 2975.22
v 7263.96 126.977 2976.82
v 7264.67 126.977 2973.8
v 7264.67 124.436 2973.8
v 7265.86 124.436 2975.4
v 7265.86 126.977 2975.4
v 7262.92 127.167 2975.11
v 7264.11 127.167 2976.7
v 7264.51 127.167 2973.92
v 7265.71 127.167 2975.51
v 7265.71 127.167 2975.51
v 7265.82 124.436 2975.66
v 7265.82 126.977 2975.66
v 7265.82 124.436 2975.66
v 7265.86 124.436 2975.4
v 7264.67 124.436 2973.8
v 7264.4 124.436 2973.76
v 7262.8 124.436 2974.95
v 7262.77 124.436 2975.22
v 7263.96 124.436 2976.82
v 7264.22 124.436 2976.85
v 7231 116.859 3005
v 7231 116.753 3003
v 7231 116.655 3001
v 7231 116.568 2999
v 7231 116.499 2997
v 7231 116.449 2995
v 7231 116.418 2993
v 7231 116.407 2991
v 7231 116.416 2989
v 7231 116.447 2987
v 7231 116.499 2985
v 7231 116.573 2983
v 7231 116.67 2981
v 7231 116.788 2979
v 7231 116.929 2977
v 7231 117.092 2975
v 7231 117.278 2973
v 7231 117.485 2971
v 7231 117.715 2969
v 7231 117.967 2967
v 7231 118.24 2965
v 7231 118.534 2963
v 7231 118.849 2961
v 7231 119.184 2959
v 7231 119.539 2957
v 7231 119.913 2955
v 7231 120.192 2953
v 7231 120.448 2951
v 7231 120.714 2949
v 7231 120.988 2947
v 7231 121.271 2945
v 7231 121.561 2943
v 7233 116.078 3005
v 7233 115.993 3003
v 7233 115.918 3001
v 7233 115.854 2999
v 7233 115.808 2997
v 7233 115.78 2995
v 7233 115.773 2993
v 7233 115.785 2991
v 7233 115.818 2989
v 7233 115.872 2987
v 7233 115.947 2985
v 7233 116.044 2983
v 7233 116.162 2981
v 7233 116.302 2979
v 7233 116.463 2977
v 7233 116.646 2975
v 7233 116.851 2973
v 7233 117.077 2971
v 7233 117.324 2969
v 7233 117.592 2967
v 7233 117.88 2965
v 7233 118.188 2963
v 7233 118.516 2961
v 7233 118.863 2959
v 7233 119.229 2957
v 7233 119.612 2955
v 7233 120.008 2953
v 7233 120.269 2951
v 7233 120.539 2949
v 7233 120.817 2947
v 7233 121.102 2945
v 7233 121.394 2943
v 7235 115.289 3005
v 7235 115.225 3003
v 7235 115.171 3001
v 7235 115.128 2999
v 7235 115.104 2997
v 7235 115.098 2995
v 7235 115.113 2993
v 7235 115.148 2991
v 7235 115.203 2989
v 7235 115.28 2987
v 7235 115.377 2985
v 7235 115.495 2983
v 7235 115.634 2981
v 7235 115.795 2979
v 7235 115.977 2977
v 7235 116.179 2975
v 7235 116.402 2973
v 7235 116.646 2971
v 7235 116.91 2969
v 7235 117.194 2967
v 7235 117.498 2965
v 7235 117.82 2963
v 7235 118.161 2961
v 7235 118.52 2959
v 7235 118.897 2957
v 7235 119.29 2955
v 7235 119.7 2953
v 7235 120.078 2951
v 7235 120.352 2949
v 7235 120.634 2947
v 7235 120.922 2945
v 7235 121.217 2943
v 7237 114.494 3005
v 7237 114.45 3003
v 7237 114.416 3001
v 7237 114.393 2999
v 7237 114.389 2997
v 7237 114.405 2995
v 7237 114.441 2993
v 7237 114.497 2991
v 7237 114.573 2989
v 7237 114.671 2987
v 7237 114.789 2985
v 7237 114.928 2983
v 7237 115.088 2981
v 7237 115.268 2979
v 7237 115.469 2977
v 7237 115.69 2975
v 7237 115.932 2973
v 7237 116.193 2971
v 7237 116.474 2969
v 7237 116.774 2967
v 7237 117.092 2965
v 7237 117.428 2963
v 7237 117.783 2961
v 7237 118.154 2959
v 7237 118.542 2957
v 7237 118.945 2955
v 7237 119.364 2953
v 7237 119.797 2951
v 7237 120.152 2949
v 7237 120.438 2947
v 7237 120.73 2945
v 7237 121.028 2943
v 7239 113.697 3005
v 7239 113.672 3003
v 7239 113.656 3001
v 7239 113.652 2999
v 7239 113.667 2997
v 7239 113.702 2995
v 7239 113.757 2993
v 7239 113.833 2991
v 7239 113.93 2989
v 7239 114.047 2987
v 7239 114.185 2985
v 7239 114.344 2983
v 7239 114.523 2981
v 7239 114.722 2979
v 7239 114.941 2977
v 7239 115.181 2975
v 7239 115.44 2973
v 7239 115.718 2971
v 7239 116.015 2969
v 7239 116.33 2967
v 7239 116.663 2965
v 7239 117.013 2963
v 7239 117.381 2961
v 7239 117.764 2959
v 7239 118.163 2957
v 7239 118.577 2955
v 7239 119.005 2953
v 7239 119.446 2951
v 7239 119.901 2949
v 7239 120.229 2947
v 7239 120.524 2945
v 7239 120.825 2943
v 7241 112.9 3005
v 7241 112.891 3003
v 7241 112.893 3001
v 7241 112.906 2999
v 7241 112.939 2997
v 7241 112.992 2995
v 7241 113.065 2993
v 7241 113.16 2991
v 7241 113.275 2989
v 7241 113.41 2987
v 7241 113.567 2985
v 7241 113.744 2983
v 7241 113.941 2981
v 7241 114.158 2979
v 7241 114.395 2977
v 7241 114.651 2975
v 7241 114.927 2973
v 7241 115.221 2971
v 7241 115.533 2969
v 7241 115.863 2967
v 7241 116.211 2965
v 7241 116.574 2963
v 7241 116.954 2961
v 7241 117.35 2959
v 7241 117.76 2957
v 7241 118.184 2955
v 7241 118.622 2953
v 7241 119.072 2951
v 7241 119.534 2949
v 7241 120.004 2947
v 7241 120.305 2945
v 7241 120.609 2943
v 7243 112.115 3005
v 7243 112.122 3003
v 7243 112.139 3001
v 7243 112.168 2999
v 7243 112.216 2997
v 7243 112.285 2995
v 7243 112.376 2993
v 7243 112.486 2991
v 7243 112.618 2989
v 7243 112.771 2987
v 7243 112.944 2985
v 7243 113.137 2983
v 7243 113.35 2981
v 7243 113.584 2979
v 7243 113.836 2977
v 7243 114.108 2975
v 7243 114.399 2973
v 7243 114.708 2971
v 7243 115.034 2969
v 7243 115.378 2967
v 7243 115.738 2965
v 7243 116.115 2963
v 7243 116.506 2961
v 7243 116.913 2959
v 7243 117.333 2957
v 7243 117.767 2955
v 7243 118.214 2953
v 7243 118.672 2951
v 7243 119.142 2949
v 7243 119.622 2947
v 7243 120.069 2945
v 7243 120.377 2943
v 7245 111.362 3005
v 7245 111.384 3003
v 7245 111.415 3001
v 7245 111.457 2999
v 7245 111.519 2997
v 7245 111.602 2995
v 7245 111.706 2993
v 7245 111.832 2991
v 7245 111.978 2989
v 7245 112.144 2987
v 7245 112.331 2985
v 7245 112.539 2983
v 7245 112.766 2981
v 7245 113.013 2979
v 7245 113.28 2977
v 7245 113.565 2975
v 7245 113.868 2973
v 7245 114.189 2971
v 7245 114.528 2969
v 7245 114.883 2967
v 7245 115.254 2965
v 7245 115.641 2963
v 7245 116.043 2961
v 7245 116.459 2959
v 7245 116.889 2957
v 7245 117.331 2955
v 7245 117.785 2953
v 7245 118.251 2951
v 7245 118.727 2949
v 7245 119.213 2947
v 7245 119.708 2945
v 7245 120.13 2943
v 7247 110.64 3005
v 7247 110.674 3003
v 7247 110.717 3001
v 7247 110.771 2999
v 7247 110.845 2997
v 7247 110.94 2995
v 7247 111.057 2993
v 7247 111.194 2991
v 7247 111.352 2989
v 7247 111.531 2987
v 7247 111.73 2985
v 7247 111.95 2983
v 7247 112.189 2981
v 7247 112.447 2979
v 7247 112.725 2977
v 7247 113.021 2975
v 7247 113.335 2973
v 7247 113.667 2971
v 7247 114.015 2969
v 7247 114.38 2967
v 7247 114.761 2965
v 7247 115.157 2963
v 7247 115.567 2961
v 7247 115.991 2959
v 7247 116.428 2957
v 7247 116.877 2955
v 7247 117.338 2953
v 7247 117.81 2951
v 7247 118.291 2949
v 7247 118.782 2947
v 7247 119.281 2945
v 7247 119.788 2943
v 7249 109.946 3005
v 7249 109.991 3003
v 7249 110.045 3001
v 7249 110.109 2999
v 7249 110.193 2997
v 7249 110.298 2995
v 7249 110.425 2993
v 7249 110.573 2991
v 7249 110.741 2989
v 7249 110.93 2987
v 7249 111.14 2985
v 7249 111.369 2983
v 7249 111.618 2981
v 7249 111.886 2979
v 7249 112.173 2977
v 7249 112.478 2975
v 7249 112.801 2973
v 7249 113.141 2971
v 7249 113.498 2969
v 7249 113.871 2967
v 7249 114.259 2965
v 7249 114.662 2963
v 7249 115.08 2961
v 7249 115.51 2959
v 7249 115.954 2957
v 7249 116.409 2955
v 7249 116.875 2953
v 7249 117.352 2951
v 7249 117.838 2949
v 7249 118.333 2947
v 7249 118.836 2945
v 7249 119.346 2943
v 7251 109.276 3005
v 7251 109.332 3003
v 7251 109.395 3001
v 7251 109.467 2999
v 7251 109.56 2997
v 7251 109.674 2995
v 7251 109.81 2993
v 7251 109.966 2991
v 7251 110.143 2989
v 7251 110.341 2987
v 7251 110.558 2985
v 7251 110.796 2983
v 7251 111.053 2981
v 7251 111.329 2979
v 7251 111.624 2977
v 7251 111.936 2975
v 7251 112.266 2973
v 7251 112.614 2971
v 7251 112.977 2969
v 7251 113.357 2967
v 7251 113.751 2965
v 7251 114.16 2963
v 7251 114.583 2961
v 7251 115.019 2959
v 7251 115.468 2957
v 7251 115.928 2955
v 7251 116.398 2953
v 7251 116.879 2951
v 7251 117.37 2949
v 7251 117.868 2947
v 7251 118.375 2945
v 7251 118.888 2943
v 7253 108.629 3005
v 7253 108.693 3003
v 7253 108.765 3001
v 7253 108.845 2999
v 7253 108.945 2997
v 7253 109.067 2995
v 7253 109.209 2993
v 7253 109.373 2991
v 7253 109.557 2989
v 7253 109.762 2987
v 7253 109.986 2985
v 7253 110.231 2983
v 7253 110.494 2981
v 7253 110.777 2979
v 7253 111.078 2977
v 7253 111.396 2975
v 7253 111.732 2973
v 7253 112.085 2971
v 7253 112.454 2969
v 7253 112.839 2967
v 7253 113.238 2965
v 7253 113.652 2963
v 7253 114.08 2961
v 7253 114.52 2959
v 7253 114.972 2957
v 7253 115.436 2955
v 7253 115.911 2953
v 7253 116.395 2951
v 7253 116.889 2949
v 7253 117.39 2947
v 7253 117.9 2945
v 7253 118.416 2943
v 7255 108.002 3005
v 7255 108.075 3003
v 7255 108.153 3001
v 7255 108.24 2999
v 7255 108.347 2997
v 7255 108.474 2995
v 7255 108.623 2993
v 7255 108.793 2991
v 7255 108.983 2989
v 7255 109.193 2987
v 7255 109.423 2985
v 7255 109.673 2983
v 7255 109.942 2981
v 7255 110.23 2979
v 7255 110.535 2977
v 7255 110.859 2975
v 7255 111.199 2973
v 7255 111.557 2971
v 7255 111.93 2969
v 7255 112.319 2967
v 7255 112.722 2965
v 7255 113.14 2963
v 7255 113.571 2961
v 7255 114.014 2959
v 7255 114.47 2957
v 7255 114.937 2955
v 7255 115.414 2953
v 7255 115.902 2951
v 7255 116.398 2949
v 7255 116.902 2947
v 7255 117.414 2945
v 7255 117.932 2943
v 7257 107.394 3005
v 7257 107.473 3003
v 7257 107.558 3001
v 7257 107.651 2999
v 7257 107.762 2997
v 7257 107.895 2995
v 7257 108.049 2993
v 7257 108.224 2991
v 7257 108.419 2989
v 7257 108.634 2987
v 7257 108.868 2985
v 7257 109.123 2983
v 7257 109.396 2981
v 7257 109.687 2979
v 7257 109.997 2977
v 7257 110.324 2975
v 7257 110.668 2973
v 7257 111.029 2971
v 7257 111.405 2969
v 7257 111.797 2967
v 7257 112.204 2965
v 7257 112.624 2963
v 7257 113.058 2961
v 7257 113.504 2959
v 7257 113.962 2957
v 7257 114.432 2955
v 7257 114.911 2953
v 7257 115.401 2951
v 7257 115.899 2949
v 7257 116.406 2947
v 7257 116.92 2945
v 7257 117.44 2943
v 7259 106.801 3005
v 7259 106.887 3003
v 7259 106.978 3001
v 7259 107.075 2999
v 7259 107.191 2997
v 7259 107.329 2995
v 7259 107.487 2993
v 7259 107.665 2991
v 7259 107.864 2989
v 7259 108.083 2987
v 7259 108.321 2985
v 7259 108.579 2983
v 7259 108.855 2981
v 7259 109.15 2979
v 7259 109.463 2977
v 7259 109.793 2975
v 7259 110.139 2973
v 7259 110.503 2971
v 7259 110.882 2969
v 7259 111.276 2967
v 7259 111.684 2965
v 7259 112.107 2963
v 7259 112.542 2961
v 7259 112.991 2959
v 7259 113.451 2957
v 7259 113.922 2955
v 7259 114.404 2953
v 7259 114.895 2951
v 7259 115.395 2949
v 7259 115.904 2947
v 7259 116.419 2945
v 7259 116.941 2943
v 7261 106.222 3005
v 7261 106.315 3003
v 7261 106.41 3001
v 7261 106.512 2999
v 7261 106.632 2997
v 7261 106.773 2995
v 7261 106.934 2993
v 7261 107.117 2991
v 7261 107.319 2989
v 7261 107.54 2987
v 7261 107.782 2985
v 7261 108.042 2983
v 7261 108.321 2981
v 7261 108.618 2979
v 7261 108.933 2977
v 7261 109.265 2975
v 7261 109.614 2973
v 7261 109.979 2971
v 7261 110.359 2969
v 7261 110.755 2967
v 7261 111.165 2965
v 7261 111.589 2963
v 7261 112.027 2961
v 7261 112.476 2959
v 7261 112.938 2957
v 7261 113.41 2955
v 7261 113.893 2953
v 7261 114.386 2951
v 7261 114.888 2949
v 7261 115.398 2947
v 7261 115.915 2945
v 7261 116.439 2943
v 7263 105.656 3005
v 7263 105.755 3003
v 7263 105.855 3001
v 7263 105.96 2999
v 7263 106.083 2997
v 7263 106.227 2995
v 7263 106.392 2993
v 7263 106.577 2991
v 7263 106.781 2989
v 7263 107.006 2987
v 7263 107.249 2985
v 7263 107.512 2983
v 7263 107.792 2981
v 7263 108.091 2979
v 7263 108.408 2977
v 7263 108.741 2975
v 7263 109.092 2973
v 7263 109.458 2971
v 7263 109.84 2969
v 7263 110.237 2967
v 7263 110.648 2965
v 7263 111.073 2963
v 7263 111.511 2961
v 7263 111.962 2959
v 7263 112.425 2957
v 7263 112.898 2955
v 7263 113.382 2953
v 7263 113.876 2951
v 7263 114.379 2949
v 7263 114.89 2947
v 7263 115.409 2945
v 7263 115.934 2943
v 7265 105.101 3005
v 7265 105.205 3003
v 7265 105.309 3001
v 7265 105.417 2999
v 7265 105.543 2997
v 7265 105.69 2995
v 7265 105.857 2993
v 7265 106.045 2991
v 7265 106.251 2989
v 7265 106.478 2987
v 7265 106.723 2985
v 7265 106.987 2983
v 7265 107.27 2981
v 7265 107.57 2979
v 7265 107.888 2977
v 7265 108.222 2975
v 7265 108.574 2973
v 7265 108.941 2971
v 7265 109.324 2969
v 7265 109.721 2967
v 7265 110.133 2965
v 7265 110.559 2963
v 7265 110.998 2961
v 7265 111.449 2959
v 7265 111.912 2957
v 7265 112.387 2955
v 7265 112.872 2953
v 7265 113.366 2951
v 7265 113.87 2949
v 7265 114.382 2947
v 7265 114.902 2945
v 7265 115.429 2943
v 7267 104.556 3005
v 7267 104.664 3003
v 7267 104.772 3001
v 7267 104.883 2999
v 7267 105.012 2997
v 7267 105.161 2995
v 7267 105.331 2993
v 7267 105.52 2991
v 7267 105.729 2989
v 7267 105.957 2987
v 7267 106.204 2985
v 7267 106.469 2983
v 7267 106.753 2981
v 7267 107.054 2979
v 7267 107.373 2977
v 7267 107.708 2975
v 7267 108.06 2973
v 7267 108.428 2971
v 7267 108.811 2969
v 7267 109.209 2967
v 7267 109.622 2965
v 7267 110.048 2963
v 7267 110.487 2961
v 7267 110.939 2959
v 7267 111.403 2957
v 7267 111.878 2955
v 7267 112.363 2953
v 7267 112.859 2951
v 7267 113.363 2949
v 7267 113.876 2947
v 7267 114.397 2945
v 7267 114.925 2943
v 7269 104.019 3005
v 7269 104.132 3003
v 7269 104.244 3001
v 7269 104.357 2999
v 7269 104.489 2997
v 7269 104.64 2995
v 7269 104.811 2993
v 7269 105.002 2991
v 7269 105.213 2989
v 7269 105.442 2987
v 7269 105.69 2985
v 7269 105.957 2983
v 7269 106.241 2981
v 7269 106.543 2979
v 7269 106.863 2977
v 7269 107.199 2975
v 7269 107.551 2973
v 7269 107.92 2971
v 7269 108.303 2969
v 7269 108.702 2967
v 7269 109.114 2965
v 7269 109.541 2963
v 7269 109.98 2961
v 7269 110.433 2959
v 7269 110.897 2957
v 7269 111.372 2955
v 7269 111.858 2953
v 7269 112.354 2951
v 7269 112.859 2949
v 7269 113.373 2947
v 7269 113.895 2945
v 7269 114.424 2943
v 7271 103.489 3005
v 7271 103.607 3003
v 7271 103.722 3001
v 7271 103.838 2999
v 7271 103.972 2997
v 7271 104.125 2995
v 7271 104.298 2993
v 7271 104.491 2991
v 7271 104.703 2989
v 7271 104.933 2987
v 7271 105.183 2985
v 7271 105.45 2983
v 7271 105.736 2981
v 7271 106.039 2979
v 7271 106.359 2977
v 7271 106.695 2975
v 7271 107.048 2973
v 7271 107.417 2971
v 7271 107.801 2969
v 7271 108.199 2967
v 7271 108.612 2965
v 7271 109.039 2963
v 7271 109.479 2961
v 7271 109.931 2959
v 7271 110.395 2957
v 7271 110.871 2955
v 7271 111.358 2953
v 7271 111.854 2951
v 7271 112.36 2949
v 7271 112.875 2947
v 7271 113.398 2945
v 7271 113.928 2943
v 7273 102.966 3005
v 7273 103.088 3003
v 7273 103.207 3001
v 7273 103.325 2999
v 7273 103.461 2997
v 7273 103.616 2995
v 7273 103.791 2993
v 7273 103.985 2991
v 7273 104.198 2989
v 7273 104.43 2987
v 7273 104.681 2985
v 7273 104.949 2983
v 7273 105.236 2981
v 7273 105.539 2979
v 7273 105.86 2977
v 7273 106.197 2975
v 7273 106.55 2973
v 7273 106.919 2971
v 7273 107.303 2969
v 7273 107.702 2967
v 7273 108.115 2965
v 7273 108.542 2963
v 7273 108.982 2961
v 7273 109.435 2959
v 7273 109.9 2957
v 7273 110.376 2955
v 7273 110.863 2953
v 7273 111.36 2951
v 7273 111.867 2949
v 7273 112.382 2947
v 7273 112.906 2945
v 7273 113.438 2943
v 7275 102.448 3005
v 7275 102.575 3003
v 7275 102.697 3001
v 7275 102.818 2999
v 7275 102.955 2997
v 7275 103.112 2995
v 7275 103.289 2993
v 7275 103.485 2991
v 7275 103.7 2989
v 7275 103.933 2987
v 7275 104.184 2985
v 7275 104.454 2983
v 7275 104.741 2981
v 7275 105.045 2979
v 7275 105.367 2977
v 7275 105.704 2975
v 7275 106.058 2973
v 7275 106.428 2971
v 7275 106.812 2969
v 7275 107.211 2967
v 7275 107.625 2965
v 7275 108.052 2963
v 7275 108.492 2961
v 7275 108.945 2959
v 7275 109.41 2957
v 7275 109.887 2955
v 7275 110.374 2953
v 7275 110.872 2951
v 7275 111.379 2949
v 7275 111.896 2947
v 7275 112.421 2945
v 7275 112.954 2943
v 7277 101.935 3005
v 7277 102.066 3003
v 7277 102.192 3001
v 7277 102.315 2999
v 7277 102.455 2997
v 7277 102.614 2995
v 7277 102.792 2993
v 7277 102.99 2991
v 7277 103.206 2989
v 7277 103.441 2987
v 7277 103.693 2985
v 7277 103.964 2983
v 7277 104.252 2981
v 7277 104.557 2979
v 7277 104.879 2977
v 7277 105.218 2975
v 7277 105.572 2973
v 7277 105.942 2971
v 7277 106.327 2969
v 7277 106.727 2967
v 7277 107.14 2965
v 7277 107.568 2963
v 7277 108.009 2961
v 7277 108.462 2959
v 7277 108.928 2957
v 7277 109.405 2955
v 7277 109.893 2953
v 7277 110.391 2951
v 7277 110.9 2949
v 7277 111.417 2947
v 7277 111.944 2945
v 7277 112.478 2943
v 7279 101.427 3005
v 7279 101.563 3003
v 7279 101.692 3001
v 7279 101.817 2999
v 7279 101.959 2997
v 7279 102.12 2995
v 7279 102.3 2993
v 7279 102.5 2991
v 7279 102.717 2989
v 7279 102.953 2987
v 7279 103.208 2985
v 7279 103.479 2983
v 7279 103.769 2981
v 7279 104.075 2979
v 7279 104.398 2977
v 7279 104.737 2975
v 7279 105.092 2973
v 7279 105.463 2971
v 7279 105.848 2969
v 7279 106.249 2967
v 7279 106.663 2965
v 7279 107.091 2963
v 7279 107.532 2961
v 7279 107.986 2959
v 7279 108.452 2957
v 7279 108.93 2955
v 7279 109.419 2953
v 7279 109.918 2951
v 7279 110.428 2949
v 7279 110.947 2947
v 7279 111.474 2945
v 7279 112.01 2943
v 7281 100.922 3005
v 7281 101.063 3003
v 7281 101.195 3001
v 7281 101.323 2999
v 7281 101.467 2997
v 7281 101.63 2995
v 7281 101.813 2993
v 7281 102.014 2991
v 7281 102.233 2989
v 7281 102.471 2987
v 7281 102.727 2985
v 7281 103 2983
v 7281 103.29 2981
v 7281 103.598 2979
v 7281 103.922 2977
v 7281 104.262 2975
v 7281 104.618 2973
v 7281 104.99 2971
v 7281 105.376 2969
v 7281 105.777 2967
v 7281 106.192 2965
v 7281 106.621 2963
v 7281 107.063 2961
v 7281 107.518 2959
v 7281 107.985 2957
v 7281 108.463 2955
v 7281 108.953 2953
v 7281 109.454 2951
v 7281 109.964 2949
v 7281 110.484 2947
v 7281 111.013 2945
v 7281 111.55 2943
v 7283 100.422 3005
v 7283 100.567 3003
v 7283 100.703 3001
v 7283 100.833 2999
v 7283 100.979 2997
v 7283 101.145 2995
v 7283 101.329 2993
v 7283 101.532 2991
v 7283 101.754 2989
v 7283 101.993 2987
v 7283 102.251 2985
v 7283 102.525 2983
v 7283 102.817 2981
v 7283 103.126 2979
v 7283 103.452 2977
v 7283 103.793 2975
v 7283 104.15 2973
v 7283 104.523 2971
v 7283 104.91 2969
v 7283 105.313 2967
v 7283 105.729 2965
v 7283 106.158 2963
v 7283 106.602 2961
v 7283 107.057 2959
v 7283 107.525 2957
v 7283 108.005 2955
v 7283 108.496 2953
v 7283 108.998 2951
v 7283 109.51 2949
v 7283 110.031 2947
v 7283 110.562 2945
v 7283 111.1 2943
v 7285 99.9871 3005
v 7285 100.082 3003
v 7285 100.214 3001
v 7285 100.347 2999
v 7285 100.496 2997
v 7285 100.663 2995
v 7285 100.85 2993
v 7285 101.055 2991
v 7285 101.278 2989
v 7285 101.52 2987
v 7285 101.779 2985
v 7285 102.056 2983
v 7285 102.35 2981
v 7285 102.66 2979
v 7285 102.987 2977
v 7285 103.33 2975
v 7285 103.689 2973
v 7285 104.063 2971
v 7285 104.451 2969
v 7285 104.855 2967
v 7285 105.272 2965
v 7285 105.703 2963
v 7285 106.148 2961
v 7285 106.605 2959
v 7285 107.074 2957
v 7285 107.555 2955
v 7285 108.047 2953
v 7285 108.55 2951
v 7285 109.064 2949
v 7285 109.587 2947
v 7285 110.119 2945
v 7285 110.66 2943
v 7287 99.6557 3005
v 7287 99.7547 3003
v 7287 99.8456 3001
v 7287 99.9308 2999
v 7287 100.026 2997
v 7287 100.185 2995
v 7287 100.374 2993
v 7287 100.582 2991
v 7287 100.807 2989
v 7287 101.051 2987
v 7287 101.312 2985
v 7287 101.591 2983
v 7287 101.887 2981
v 7287 102.199 2979
v 7287 102.528 2977
v 7287 102.872 2975
v 7287 103.233 2973
v 7287 103.608 2971
v 7287 103.999 2969
v 7287 104.404 2967
v 7287 104.823 2965
v 7287 105.255 2963
v 7287 105.701 2961
v 7287 106.159 2959
v 7287 106.63 2957
v 7287 107.113 2955
v 7287 107.607 2953
v 7287 108.112 2951
v 7287 108.627 2949
v 7287 109.152 2947
v 7287 109.686 2945
v 7287 110.229 2943
v 7289 99.3266 3005
v 7289 99.4295 3003
v 7289 99.5236 3001
v 7289 99.6115 2999
v 7289 99.709 2997
v 7289 99.8185 2995
v 7289 99.9399 2993
v 7289 100.112 2991
v 7289 100.34 2989
v 7289 100.586 2987
v 7289 100.85 2985
v 7289 101.131 2983
v 7289 101.429 2981
v 7289 101.743 2979
v 7289 102.074 2977
v 7289 102.42 2975
v 7289 102.783 2973
v 7289 103.16 2971
v 7289 103.552 2969
v 7289 103.959 2967
v 7289 104.38 2965
v 7289 104.814 2963
v 7289 105.262 2961
v 7289 105.722 2959
v 7289 106.195 2957
v 7289 106.679 2955
v 7289 107.175 2953
v 7289 107.682 2951
v 7289 108.199 2949
v 7289 108.726 2947
v 7289 109.262 2945
v 7289 109.807 2943
v 7291 98.9996 3005
v 7291 99.1064 3003
v 7291 99.2038 3001
v 7291 99.2943 2999
v 7291 99.3943 2997
v 7291 99.5064 2995
v 7291 99.6302 2993
v 7291 99.7655 2991
v 7291 99.912 2989
v 7291 100.126 2987
v 7291 100.392 2985
v 7291 100.675 2983
v 7291 100.975 2981
v 7291 101.292 2979
v 7291 101.625 2977
v 7291 101.974 2975
v 7291 102.338 2973
v 7291 102.718 2971
v 7291 103.112 2969
v 7291 103.521 2967
v 7291 103.944 2965
v 7291 104.38 2963
v 7291 104.83 2961
v 7291 105.292 2959
v 7291 105.767 2957
v 7291 106.253 2955
v 7291 106.751 2953
v 7291 107.26 2951
v 7291 107.779 2949
v 7291 108.309 2947
v 7291 108.847 2945
v 7291 109.395 2943
v 7293 98.6518 3005
v 7293 98.7857 3003
v 7293 98.8863 3001
v 7293 98.9794 2999
v 7293 99.082 2997
v 7293 99.1966 2995
v 7293 99.3229 2993
v 7293 99.4608 2991
v 7293 99.6097 2989
v 7293 99.7696 2987
v 7293 99.9399 2985
v 7293 100.223 2983
v 7293 100.526 2981
v 7293 100.845 2979
v 7293 101.181 2977
v 7293 101.532 2975
v 7293 101.899 2973
v 7293 102.281 2971
v 7293 102.678 2969
v 7293 103.089 2967
v 7293 103.514 2965
v 7293 103.953 2963
v 7293 104.404 2961
v 7293 104.869 2959
v 7293 105.346 2957
v 7293 105.835 2955
v 7293 106.335 2953
v 7293 106.847 2951
v 7293 107.368 2949
v 7293 107.9 2947
v 7293 108.442 2945
v 7293 108.992 2943
f 159 158 56
f 63 159 56
f 45 44 41
f 41 46 45
f 41 42 46
f 30 31 55
f 67 66 43
f 66 65 43
f 44 40 41
f 31 56 55
f 56 43 55
f 65 64 43
f 42 47 46
f 42 64 47
f 44 54 40
f 54 55 40
f 56 31 63
f 158 67 56
f 43 40 55
f 43 42 40
f 42 41 40
f 64 42 43
f 67 43 56
f 55 54 30
f 306 311 309
f 140 141 126
f 127 140 126
f 127 126 124
f 126 125 124
f 144 145 126
f 30 29 28
f 29 30 53
f 306 307 311
f 316 315 312
f 30 54 53
f 33 34 48
f 302 308 306
f 308 307 306
f 34 49 48
f 61 63 28
f 157 156 155
f 31 30 28
f 63 31 28
f 35 32 68
f 274 273 271
f 275 273 274
f 276 275 274
f 277 276 274
f 32 69 68
f 34 33 32
f 35 34 32
f 143 144 126
f 142 143 126
f 141 142 126
f 145 137 126
f 136 137 145
f 138 137 136
f 230 231 217
f 231 230 229
f 232 231 229
f 232 229 226
f 229 225 226
f 277 280 276
f 315 314 312
f 285 286 312
f 313 285 312
f 314 313 312
f 347 346 344
f 346 345 344
f 232 238 237
f 351 350 344
f 332 326 338
f 331 337 320
f 331 332 337
f 332 338 337
f 231 220 217
f 232 226 238
f 331 320 317
f 329 325 326
f 330 331 317
f 331 330 329
f 332 331 329
f 350 349 344
f 349 348 344
f 332 329 326
f 231 237 220
f 348 347 344
f 231 232 237
f 311 310 309
f 310 298 309
f 315 289 314
f 165 179 180
f 164 165 180
f 181 180 179
f 182 181 179
f 188 181 182
f 298 299 309
f 179 165 185
f 189 188 182
f 185 186 179
f 186 182 179
f 182 186 189
f 280 279 278
f 337 339 320
f 327 341 338
f 326 327 338
f 237 239 220
f 239 219 220
f 220 219 217
f 226 227 238
f 320 319 317
f 339 319 320
f 227 241 238
f 327 326 325
f 227 226 225
f 328 327 325
f 228 227 225
f 219 218 217
f 319 318 317
f 287 286 285
f 223 222 221
f 224 223 221
f 323 322 321
f 324 323 321
f 280 281 276
f 281 280 278
f 291 290 289
f 292 291 289
f 300 299 298
f 289 290 314
f 166 165 163
f 170 169 167
f 169 168 167
f 185 165 166
f 172 173 184
f 183 185 166
f 165 164 163
f 174 173 171
f 173 172 171
f 173 187 184
f 456 455 449
f 431 432 443
f 437 431 443
f 437 434 431
f 455 454 449
f 454 453 449
f 453 452 449
f 452 451 449
f 451 450 449
f 447 440 441
f 448 447 441
f 432 446 443
f 441 445 448
f 434 430 431
f 432 431 430
f 433 432 430
f 263 267 270
f 267 263 260
f 266 267 260
f 260 246 266
f 132 133 143
f 133 144 143
f 385 384 379
f 384 383 379
f 191 192 207
f 192 206 207
f 208 207 206
f 270 269 263
f 269 262 263
f 263 262 260
f 262 261 260
f 246 260 261
f 245 246 261
f 386 385 379
f 388 389 404
f 389 403 404
f 403 389 409
f 85 84 82
f 17 3 23
f 23 24 17
f 24 20 17
f 20 24 27
f 27 26 20
f 26 19 20
f 20 19 17
f 381 380 379
f 382 381 379
f 383 382 379
f 19 18 17
f 3 17 18
f 2 3 18
f 130 131 141
f 131 142 141
f 206 192 212
f 212 213 206
f 213 209 206
f 209 213 216
f 216 215 209
f 215 208 209
f 209 208 206
f 353 354 369
f 84 83 82
f 112 113 121
f 113 120 121
f 121 120 118
f 120 119 118
f 108 118 119
f 107 108 119
f 368 354 374
f 417 416 414
f 412 405 406
f 105 104 103
f 104 102 103
f 416 415 414
f 413 412 406
f 103 102 100
f 102 101 100
f 406 410 413
f 410 406 403
f 409 410 403
f 89 90 101
f 90 100 101
f 86 84 85
f 87 86 85
f 405 404 403
f 406 405 403
f 71 72 83
f 72 82 83
f 374 375 368
f 375 371 368
f 371 375 378
f 378 377 371
f 377 370 371
f 371 370 368
f 370 369 368
f 354 368 369
f 197 196 194
f 196 195 194
f 407 409 390
f 251 250 248
f 250 249 248
f 73 72 70
f 72 71 70
f 76 75 74
f 409 389 390
f 7 6 5
f 8 7 5
f 390 389 387
f 359 358 356
f 23 3 4
f 358 357 356
f 135 134 132
f 134 133 132
f 131 130 128
f 11 10 9
f 273 272 271
f 418 417 414
f 419 418 414
f 94 93 92
f 12 11 9
f 95 94 92
f 10 11 22
f 112 111 110
f 420 419 414
f 421 420 414
f 11 25 22
f 21 23 4
f 398 397 395
f 389 388 387
f 246 245 244
f 247 246 244
f 253 254 265
f 254 253 252
f 255 254 252
f 254 268 265
f 354 353 352
f 363 362 360
f 362 361 360
f 362 376 373
f 361 362 373
f 108 107 106
f 355 354 352
f 374 354 355
f 372 374 355
f 394 393 391
f 393 392 391
f 109 108 106
f 301 300 298
f 288 287 285
f 77 76 74
f 139 138 136
f 130 129 128
f 3 2 1
f 210 212 193
f 212 192 193
f 4 3 1
f 113 112 110
f 192 191 190
f 193 192 190
f 91 90 88
f 266 246 247
f 264 266 247
f 200 214 211
f 201 200 198
f 200 199 198
f 396 397 408
f 199 200 211
f 397 396 395
f 90 89 88
f 397 411 408
f 437 436 434
f 445 441 438
f 444 445 438
f 441 440 438
f 440 439 438
f 436 437 442
f 428 427 426
f 437 443 442
f 436 435 434
f 429 428 426
f 97 98 88
f 96 92 93
f 99 96 93
f 98 91 88
f 366 355 352
f 366 372 355
f 366 367 372
f 367 373 372
f 295 291 294
f 291 292 294
f 287 288 296
f 300 301 304
f 399 395 396
f 402 396 408
f 402 399 396
f 400 401 387
f 401 390 387
f 401 407 390
f 401 402 407
f 402 408 407
f 302 303 308
f 123 122 106
f 122 109 106
f 15 4 1
f 13 9 10
f 16 13 10
f 114 110 111
f 14 15 1
f 16 10 22
f 16 22 21
f 15 16 21
f 15 21 4
f 278 279 282
f 271 272 284
f 117 114 111
f 283 278 282
f 205 202 199
f 203 204 190
f 202 198 199
f 124 125 146
f 129 148 147
f 128 129 147
f 139 151 138
f 134 135 149
f 135 150 149
f 78 74 75
f 204 193 190
f 81 78 75
f 204 210 193
f 204 205 210
f 205 211 210
f 205 199 211
f 256 252 253
f 79 80 70
f 80 73 70
f 259 256 253
f 257 258 244
f 258 247 244
f 258 264 247
f 258 259 264
f 259 265 264
f 259 253 265
f 364 360 361
f 367 361 373
f 367 364 361
f 365 366 352
f 444 424 425
f 436 425 422
f 435 436 422
f 436 442 425
f 442 444 425
f 423 424 439
f 424 438 439
f 438 424 444
f 304 303 302
f 81 80 78
f 80 79 78
f 305 304 302
f 117 116 114
f 305 300 304
f 116 115 114
f 150 147 138
f 149 150 138
f 151 149 138
f 147 148 138
f 98 97 96
f 99 98 96
f 401 400 399
f 148 146 138
f 146 125 138
f 205 204 202
f 204 203 202
f 259 258 256
f 402 401 399
f 284 283 282
f 271 284 282
f 15 14 13
f 16 15 13
f 297 296 293
f 297 287 296
f 295 294 293
f 296 295 293
f 366 365 364
f 367 366 364
f 258 257 256
f 425 424 422
f 424 423 422
f 178 184 183
f 177 178 183
f 177 183 166
f 177 166 163
f 176 177 163
f 178 175 172
f 175 171 172
f 178 172 184
f 243 242 236
f 236 240 243
f 240 236 233
f 239 240 233
f 242 235 236
f 219 233 234
f 318 319 334
f 319 333 334
f 218 219 234
f 233 219 239
f 342 335 336
f 343 342 336
f 336 340 343
f 340 336 333
f 339 340 333
f 333 319 339
f 177 176 175
f 178 177 175
f 59 58 57
f 60 59 57
f 236 235 233
f 235 234 233
f 335 334 333
f 336 335 333
f 162 161 60
f 161 160 60
f 154 153 152
f 39 36 61
f 39 61 28
f 36 62 61
f 36 51 62
f 51 68 62
f 51 35 68
f 34 35 50
f 35 51 50
f 38 39 29
f 39 28 29
f 38 29 53
f 38 53 52
f 37 38 52
f 37 52 49
f 50 37 49
f 50 49 34
f 39 38 36
f 38 37 36
f 36 37 51
f 37 50 51
f 490 458 457
f 457 489 490
f 522 490 489
f 489 521 522
f 554 522 521
f 521 553 554
f 586 554 553
f 553 585 586
f 618 586 585
f 585 617 618
f 650 618 617
f 617 649 650
f 682 650 649
f 649 681 682
f 714 682 681
f 681 713 714
f 746 714 713
f 713 745 746
f 778 746 745
f 745 777 778
f 810 778 777
f 777 809 810
f 842 810 809
f 809 841 842
f 874 842 841
f 841 873 874
f 906 874 873
f 873 905 906
f 938 906 905
f 905 937 938
f 970 938 937
f 937 969 970
f 1002 970 969
f 969 1001 1002
f 1034 1002 1001
f 1001 1033 1034
f 1066 1034 1033
f 1033 1065 1066
f 1098 1066 1065
f 1065 1097 1098
f 1130 1098 1097
f 1097 1129 1130
f 1162 1130 1129
f 1129 1161 1162
f 1194 1162 1161
f 1161 1193 1194
f 1226 1194 1193
f 1193 1225 1226
f 1258 1226 1225
f 1225 1257 1258
f 1290 1258 1257
f 1257 1289 1290
f 1322 1290 1289
f 1289 1321 1322
f 1354 1322 1321
f 1321 1353 1354
f 1386 1354 1353
f 1353 1385 1386
f 1418 1386 1385
f 1385 1417 1418
f 1450 1418 1417
f 1417 1449 1450
f 491 459 458
f 458 490 491
f 523 491 490
f 490 522 523
f 555 523 522
f 522 554 555
f 587 555 554
f 554 586 587
f 619 587 586
f 586 618 619
f 651 619 618
f 618 650 651
f 683 651 650
f 650 682 683
f 715 683 682
f 682 714 715
f 747 715 714
f 714 746 747
f 779 747 746
f 746 778 779
f 811 779 778
f 778 810 811
f 843 811 810
f 810 842 843
f 875 843 842
f 842 874 875
f 907 875 874
f 874 906 907
f 939 907 906
f 906 938 939
f 971 939 938
f 938 970 971
f 1003 971 970
f 970 1002 1003
f 1035 1003 1002
f 1002 1034 1035
f 1067 1035 1034
f 1034 1066 1067
f 1099 1067 1066
f 1066 1098 1099
f 1131 1099 1098
f 1098 1130 1131
f 1163 1131 1130
f 1130 1162 1163
f 1195 1163 1162
f 1162 1194 1195
f 1227 1195 1194
f 1194 1226 1227
f 1259 1227 1226
f 1226 1258 1259
f 1291 1259 1258
f 1258 1290 1291
f 1323 1291 1290
f 1290 1322 1323
f 1355 1323 1322
f 1322 1354 1355
f 1387 1355 1354
f 1354 1386 1387
f 1419 1387 1386
f 1386 1418 1419
f 1451 1419 1418
f 1418 1450 1451
f 492 460 459
f 459 491 492
f 524 492 491
f 491 523 524
f 556 524 523
f 523 555 556
f 588 556 555
f 555 587 588
f 620 588 587
f 587 619 620
f 652 620 619
f 619 651 652
f 684 652 651
f 651 683 684
f 716 684 683
f 683 715 716
f 748 716 715
f 715 747 748
f 780 748 747
f 747 779 780
f 812 780 779
f 779 811 812
f 844 812 811
f 811 843 844
f 876 844 843
f 843 875 876
f 908 876 875
f 875 907 908
f 940 908 907
f 907 939 940
f 972 940 939
f 939 971 972
f 1004 972 971
f 971 1003 1004
f 1036 1004 1003
f 1003 1035 1036
f 1068 1036 1035
f 1035 1067 1068
f 1100 1068 1067
f 1067 1099 1100
f 1132 1100 1099
f 1099 1131 1132
f 1164 1132 1131
f 1131 1163 1164
f 1196 1164 1163
f 1163 1195 1196
f 1228 1196 1195
f 1195 1227 1228
f 1260 1228 1227
f 1227 1259 1260
f 1292 1260 1259
f 1259 1291 1292
f 1324 1292 1291
f 1291 1323 1324
f 1356 1324 1323
f 1323 1355 1356
f 1388 1356 1355
f 1355 1387 1388
f 1420 1388 1387
f 1387 1419 1420
f 1452 1420 1419
f 1419 1451 1452
f 493 461 460
f 460 492 493
f 525 493 492
f 492 524 525
f 557 525 524
f 524 556 557
f 589 557 556
f 556 588 589
f 621 589 588
f 588 620 621
f 653 621 620
f 620 652 653
f 685 653 652
f 652 684 685
f 717 685 684
f 684 716 717
f 749 717 716
f 716 748 749
f 781 749 748
f 748 780 781
f 813 781 780
f 780 812 813
f 845 813 812
f 812 844 845
f 877 845 844
f 844 876 877
f 909 877 876
f 876 908 909
f 941 909 908
f 908 940 941
f 973 941 940
f 940 972 973
f 1005 973 972
f 972 1004 1005
f 1037 1005 1004
f 1004 1036 1037
f 1069 1037 1036
f 1036 1068 1069
f 1101 1069 1068
f 1068 1100 1101
f 1133 1101 1100
f 1100 1132 1133
f 1165 1133 1132
f 1132 1164 1165
f 1197 1165 1164
f 1164 1196 1197
f 1229 1197 1196
f 1196 1228 1229
f 1261 1229 1228
f 1228 1260 1261
f 1293 1261 1260
f 1260 1292 1293
f 1325 1293 1292
f 1292 1324 1325
f 1357 1325 1324
f 1324 1356 1357
f 1389 1357 1356
f 1356 1388 1389
f 1421 1389 1388
f 1388 1420 1421
f 1453 1421 1420
f 1420 1452 1453
f 494 462 461
f 461 493 494
f 526 494 493
f 493 525 526
f 558 526 525
f 525 557 558
f 590 558 557
f 557 589 590
f 622 590 589
f 589 621 622
f 654 622 621
f 621 653 654
f 686 654 653
f 653 685 686
f 718 686 685
f 685 717 718
f 750 718 717
f 717 749 750
f 782 750 749
f 749 781 782
f 814 782 781
f 781 813 814
f 846 814 813
f 813 845 846
f 878 846 845
f 845 877 878
f 910 878 877
f 877 909 910
f 942 910 909
f 909 941 942
f 974 942 941
f 941 973 974
f 1006 974 973
f 973 1005 1006
f 1038 1006 1005
f 1005 1037 1038
f 1070 1038 1037
f 1037 1069 1070
f 1102 1070 1069
f 1069 1101 1102
f 1134 1102 1101
f 1101 1133 1134
f 1166 1134 1133
f 1133 1165 1166
f 1198 1166 1165
f 1165 1197 1198
f 1230 1198 1197
f 1197 1229 1230
f 1262 1230 1229
f 1229 1261 1262
f 1294 1262 1261
f 1261 1293 1294
f 1326 1294 1293
f 1293 1325 1326
f 1358 1326 1325
f 1325 1357 1358
f 1390 1358 1357
f 1357 1389 1390
f 1422 1390 1389
f 1389 1421 1422
f 1454 1422 1421
f 1421 1453 1454
f 495 463 462
f 462 494 495
f 527 495 494
f 494 526 527
f 559 527 526
f 526 558 559
f 591 559 558
f 558 590 591
f 623 591 590
f 590 622 623
f 655 623 622
f 622 654 655
f 687 655 654
f 654 686 687
f 719 687 686
f 686 718 719
f 751 719 718
f 718 750 751
f 783 751 750
f 750 782 783
f 815 783 782
f 782 814 815
f 847 815 814
f 814 846 847
f 879 847 846
f 846 878 879
f 911 879 878
f 878 910 911
f 943 911 910
f 910 942 943
f 975 943 942
f 942 974 975
f 1007 975 974
f 974 1006 1007
f 1039 1007 1006
f 1006 1038 1039
f 1071 1039 1038
f 1038 1070 1071
f 1103 1071 1070
f 1070 1102 1103
f 1135 1103 1102
f 1102 1134 1135
f 1167 1135 1134
f 1134 1166 1167
f 1199 1167 1166
f 1166 1198 1199
f 1231 1199 1198
f 1198 1230 1231
f 1263 1231 1230
f 1230 1262 1263
f 1295 1263 1262
f 1262 1294 1295
f 1327 1295 1294
f 1294 1326 1327
f 1359 1327 1326
f 1326 1358 1359
f 1391 1359 1358
f 1358 1390 1391
f 1423 1391 1390
f 1390 1422 1423
f 1455 1423 1422
f 1422 1454 1455
f 496 464 463
f 463 495 496
f 528 496 495
f 495 527 528
f 560 528 527
f 527 559 560
f 592 560 559
f 559 591 592
f 624 592 591
f 591 623 624
f 656 624 623
f 623 655 656
f 688 656 655
f 655 687 688
f 720 688 687
f 687 719 720
f 752 720 719
f 719 751 752
f 784 752 751
f 751 783 784
f 816 784 783
f 783 815 816
f 848 816 815
f 815 847 848
f 880 848 847
f 847 879 880
f 912 880 879
f 879 911 912
f 944 912 911
f 911 943 944
f 976 944 943
f 943 975 976
f 1008 976 975
f 975 1007 1008
f 1040 1008 1007
f 1007 1039 1040
f 1072 1040 1039
f 1039 1071 1072
f 1104 1072 1071
f 1071 1103 1104
f 1136 1104 1103
f 1103 1135 1136
f 1168 1136 1135
f 1135 1167 1168
f 1200 1168 1167
f 1167 1199 1200
f 1232 1200 1199
f 1199 1231 1232
f 1264 1232 1231
f 1231 1263 1264
f 1296 1264 1263
f 1263 1295 1296
f 1328 1296 1295
f 1295 1327 1328
f 1360 1328 1327
f 1327 1359 1360
f 1392 1360 1359
f 1359 1391 1392
f 1424 1392 1391
f 1391 1423 1424
f 1456 1424 1423
f 1423 1455 1456
f 497 465 464
f 464 496 497
f 529 497 496
f 496 528 529
f 561 529 528
f 528 560 561
f 593 561 560
f 560 592 593
f 625 593 592
f 592 624 625
f 657 625 624
f 624 656 657
f 689 657 656
f 656 688 689
f 721 689 688
f 688 720 721
f 753 721 720
f 720 752 753
f 785 753 752
f 752 784 785
f 817 785 784
f 784 816 817
f 849 817 816
f 816 848 849
f 881 849 848
f 848 880 881
f 913 881 880
f 880 912 913
f 945 913 912
f 912 944 945
f 977 945 944
f 944 976 977
f 1009 977 976
f 976 1008 1009
f 1041 1009 1008
f 1008 1040 1041
f 1073 1041 1040
f 1040 1072 1073
f 1105 1073 1072
f 1072 1104 1105
f 1137 1105 1104
f 1104 1136 1137
f 1169 1137 1136
f 1136 1168 1169
f 1201 1169 1168
f 1168 1200 1201
f 1233 1201 1200
f 1200 1232 1233
f 1265 1233 1232
f 1232 1264 1265
f 1297 1265 1264
f 1264 1296 1297
f 1329 1297 1296
f 1296 1328 1329
f 1361 1329 1328
f 1328 1360 1361
f 1393 1361 1360
f 1360 1392 1393
f 1425 1393 1392
f 1392 1424 1425
f 1457 1425 1424
f 1424 1456 1457
f 498 466 465
f 465 497 498
f 530 498 497
f 497 529 530
f 562 530 529
f 529 561 562
f 594 562 561
f 561 593 594
f 626 594 593
f 593 625 626
f 658 626 625
f 625 657 658
f 690 658 657
f 657 689 690
f 722 690 689
f 689 721 722
f 754 722 721
f 721 753 754
f 786 754 753
f 753 785 786
f 818 786 785
f 785 817 818
f 850 818 817
f 817 849 850
f 882 850 849
f 849 881 882
f 914 882 881
f 881 913 914
f 946 914 913
f 913 945 946
f 978 946 945
f 945 977 978
f 1010 978 977
f 977 1009 1010
f 1042 1010 1009
f 1009 1041 1042
f 1074 1042 1041
f 1041 1073 1074
f 1106 1074 1073
f 1073 1105 1106
f 1138 1106 1105
f 1105 1137 1138
f 1170 1138 1137
f 1137 1169 1170
f 1202 1170 1169
f 1169 1201 1202
f 1234 1202 1201
f 1201 1233 1234
f 1266 1234 1233
f 1233 1265 1266
f 1298 1266 1265
f 1265 1297 1298
f 1330 1298 1297
f 1297 1329 1330
f 1362 1330 1329
f 1329 1361 1362
f 1394 1362 1361
f 1361 1393 1394
f 1426 1394 1393
f 1393 1425 1426
f 1458 1426 1425
f 1425 1457 1458
f 499 467 466
f 466 498 499
f 531 499 498
f 498 530 531
f 563 531 530
f 530 562 563
f 595 563 562
f 562 594 595
f 627 595 594
f 594 626 627
f 659 627 626
f 626 658 659
f 691 659 658
f 658 690 691
f 723 691 690
f 690 722 723
f 755 723 722
f 722 754 755
f 787 755 754
f 754 786 787
f 819 787 786
f 786 818 819
f 851 819 818
f 818 850 851
f 883 851 850
f 850 882 883
f 915 883 882
f 882 914 915
f 947 915 914
f 914 946 947
f 979 947 946
f 946 978 979
f 1011 979 978
f 978 1010 1011
f 1043 1011 1010
f 1010 1042 1043
f 1075 1043 1042
f 1042 1074 1075
f 1107 1075 1074
f 1074 1106 1107
f 1139 1107 1106
f 1106 1138 1139
f 1171 1139 1138
f 1138 1170 1171
f 1203 1171 1170
f 1170 1202 1203
f 1235 1203 1202
f 1202 1234 1235
f 1267 1235 1234
f 1234 1266 1267
f 1299 1267 1266
f 1266 1298 1299
f 1331 1299 1298
f 1298 1330 1331
f 1363 1331 1330
f 1330 1362 1363
f 1395 1363 1362
f 1362 1394 1395
f 1427 1395 1394
f 1394 1426 1427
f 1459 1427 1426
f 1426 1458 1459
f 500 468 467
f 467 499 500
f 532 500 499
f 499 531 532
f 564 532 531
f 531 563 564
f 596 564 563
f 563 595 596
f 628 596 595
f 595 627 628
f 660 628 627
f 627 659 660
f 692 660 659
f 659 691 692
f 724 692 691
f 691 723 724
f 756 724 723
f 723 755 756
f 788 756 755
f 755 787 788
f 820 788 787
f 787 819 820
f 852 820 819
f 819 851 852
f 884 852 851
f 851 883 884
f 916 884 883
f 883 915 916
f 948 916 915
f 915 947 948
f 980 948 947
f 947 979 980
f 1012 980 979
f 979 1011 1012
f 1044 1012 1011
f 1011 1043 1044
f 1076 1044 1043
f 1043 1075 1076
f 1108 1076 1075
f 1075 1107 1108
f 1140 1108 1107
f 1107 1139 1140
f 1172 1140 1139
f 1139 1171 1172
f 1204 1172 1171
f 1171 1203 1204
f 1236 1204 1203
f 1203 1235 1236
f 1268 1236 1235
f 1235 1267 1268
f 1300 1268 1267
f 1267 1299 1300
f 1332 1300 1299
f 1299 1331 1332
f 1364 1332 1331
f 1331 1363 1364
f 1396 1364 1363
f 1363 1395 1396
f 1428 1396 1395
f 1395 1427 1428
f 1460 1428 1427
f 1427 1459 1460
f 501 469 468
f 468 500 501
f 533 501 500
f 500 532 533
f 565 533 532
f 532 564 565
f 597 565 564
f 564 596 597
f 629 597 596
f 596 628 629
f 661 629 628
f 628 660 661
f 693 661 660
f 660 692 693
f 725 693 692
f 692 724 725
f 757 725 724
f 724 756 757
f 789 757 756
f 756 788 789
f 821 789 788
f 788 820 821
f 853 821 820
f 820 852 853
f 885 853 852
f 852 884 885
f 917 885 884
f 884 916 917
f 949 917 916
f 916 948 949
f 981 949 948
f 948 980 981
f 1013 981 980
f 980 1012 1013
f 1045 1013 1012
f 1012 1044 1045
f 1077 1045 1044
f 1044 1076 1077
f 1109 1077 1076
f 1076 1108 1109
f 1141 1109 1108
f 1108 1140 1141
f 1173 1141 1140
f 1140 1172 1173
f 1205 1173 1172
f 1172 1204 1205
f 1237 1205 1204
f 1204 1236 1237
f 1269 1237 1236
f 1236 1268 1269
f 1301 1269 1268
f 1268 1300 1301
f 1333 1301 1300
f 1300 1332 1333
f 1365 1333 1332
f 1332 1364 1365
f 1397 1365 1364
f 1364 1396 1397
f 1429 1397 1396
f 1396 1428 1429
f 1461 1429 1428
f 1428 1460 1461
f 502 470 469
f 469 501 502
f 534 502 501
f 501 533 534
f 566 534 533
f 533 565 566
f 598 566 565
f 565 597 598
f 630 598 597
f 597 629 630
f 662 630 629
f 629 661 662
f 694 662 661
f 661 693 694
f 726 694 693
f 693 725 726
f 758 726 725
f 725 757 758
f 790 758 757
f 757 789 790
f 822 790 789
f 789 821 822
f 854 822 821
f 821 853 854
f 886 854 853
f 853 885 886
f 918 886 885
f 885 917 918
f 950 918 917
f 917 949 950
f 982 950 949
f 949 981 982
f 1014 982 981
f 981 1013 1014
f 1046 1014 1013
f 1013 1045 1046
f 1078 1046 1045
f 1045 1077 1078
f 1110 1078 1077
f 1077 1109 1110
f 1142 1110 1109
f 1109 1141 1142
f 1174 1142 1141
f 1141 1173 1174
f 1206 1174 1173
f 1173 1205 1206
f 1238 1206 1205
f 1205 1237 1238
f 1270 1238 1237
f 1237 1269 1270
f 1302 1270 1269
f 1269 1301 1302
f 1334 1302 1301
f 1301 1333 1334
f 1366 1334 1333
f 1333 1365 1366
f 1398 1366 1365
f 1365 1397 1398
f 1430 1398 1397
f 1397 1429 1430
f 1462 1430 1429
f 1429 1461 1462
f 503 471 470
f 470 502 503
f 535 503 502
f 502 534 535
f 567 535 534
f 534 566 567
f 599 567 566
f 566 598 599
f 631 599 598
f 598 630 631
f 663 631 630
f 630 662 663
f 695 663 662
f 662 694 695
f 727 695 694
f 694 726 727
f 759 727 726
f 726 758 759
f 791 759 758
f 758 790 791
f 823 791 790
f 790 822 823
f 855 823 822
f 822 854 855
f 887 855 854
f 854 886 887
f 919 887 886
f 886 918 919
f 951 919 918
f 918 950 951
f 983 951 950
f 950 982 983
f 1015 983 982
f 982 1014 1015
f 1047 1015 1014
f 1014 1046 1047
f 1079 1047 1046
f 1046 1078 1079
f 1111 1079 1078
f 1078 1110 1111
f 1143 1111 1110
f 1110 1142 1143
f 1175 1143 1142
f 1142 1174 1175
f 1207 1175 1174
f 1174 1206 1207
f 1239 1207 1206
f 1206 1238 1239
f 1271 1239 1238
f 1238 1270 1271
f 1303 1271 1270
f 1270 1302 1303
f 1335 1303 1302
f 1302 1334 1335
f 1367 1335 1334
f 1334 1366 1367
f 1399 1367 1366
f 1366 1398 1399
f 1431 1399 1398
f 1398 1430 1431
f 1463 1431 1430
f 1430 1462 1463
f 504 472 471
f 471 503 504
f 536 504 503
f 503 535 536
f 568 536 535
f 535 567 568
f 600 568 567
f 567 599 600
f 632 600 599
f 599 631 632
f 664 632 631
f 631 663 664
f 696 664 663
f 663 695 696
f 728 696 695
f 695 727 728
f 760 728 727
f 727 759 760
f 792 760 759
f 759 791 792
f 824 792 791
f 791 823 824
f 856 824 823
f 823 855 856
f 888 856 855
f 855 887 888
f 920 888 887
f 887 919 920
f 952 920 919
f 919 951 952
f 984 952 951
f 951 983 984
f 1016 984 983
f 983 1015 1016
f 1048 1016 1015
f 1015 1047 1048
f 1080 1048 1047
f 1047 1079 1080
f 1112 1080 1079
f 1079 1111 1112
f 1144 1112 1111
f 1111 1143 1144
f 1176 1144 1143
f 1143 1175 1176
f 1208 1176 1175
f 1175 1207 1208
f 1240 1208 1207
f 1207 1239 1240
f 1272 1240 1239
f 1239 1271 1272
f 1304 1272 1271
f 1271 1303 1304
f 1336 1304 1303
f 1303 1335 1336
f 1368 1336 1335
f 1335 1367 1368
f 1400 1368 1367
f 1367 1399 1400
f 1432 1400 1399
f 1399 1431 1432
f 1464 1432 1431
f 1431 1463 1464
f 505 473 472
f 472 504 505
f 537 505 504
f 504 536 537
f 569 537 536
f 536 568 569
f 601 569 568
f 568 600 601
f 633 601 600
f 600 632 633
f 665 633 632
f 632 664 665
f 697 665 664
f 664 696 697
f 729 697 696
f 696 728 729
f 761 729 728
f 728 760 761
f 793 761 760
f 760 792 793
f 825 793 792
f 792 824 825
f 857 825 824
f 824 856 857
f 889 857 856
f 856 888 889
f 921 889 888
f 888 920 921
f 953 921 920
f 920 952 953
f 985 953 952
f 952 984 985
f 1017 985 984
f 984 1016 1017
f 1049 1017 1016
f 1016 1048 1049
f 1081 1049 1048
f 1048 1080 1081
f 1113 1081 1080
f 1080 1112 1113
f 1145 1113 1112
f 1112 1144 1145
f 1177 1145 1144
f 1144 1176 1177
f 1209 1177 1176
f 1176 1208 1209
f 1241 1209 1208
f 1208 1240 1241
f 1273 1241 1240
f 1240 1272 1273
f 1305 1273 1272
f 1272 1304 1305
f 1337 1305 1304
f 1304 1336 1337
f 1369 1337 1336
f 1336 1368 1369
f 1401 1369 1368
f 1368 1400 1401
f 1433 1401 1400
f 1400 1432 1433
f 1465 1433 1432
f 1432 1464 1465
f 506 474 473
f 473 505 506
f 538 506 505
f 505 537 538
f 570 538 537
f 537 569 570
f 602 570 569
f 569 601 602
f 634 602 601
f 601 633 634
f 666 634 633
f 633 665 666
f 698 666 665
f 665 697 698
f 730 698 697
f 697 729 730
f 762 730 729
f 729 761 762
f 794 762 761
f 761 793 794
f 826 794 793
f 793 825 826
f 858 826 825
f 825 857 858
f 890 858 857
f 857 889 890
f 922 890 889
f 889 921 922
f 954 922 921
f 921 953 954
f 986 954 953
f 953 985 986
f 1018 986 985
f 985 1017 1018
f 1050 1018 1017
f 1017 1049 1050
f 1082 1050 1049
f 1049 1081 1082
f 1114 1082 1081
f 1081 1113 1114
f 1146 1114 1113
f 1113 1145 1146
f 1178 1146 1145
f 1145 1177 1178
f 1210 1178 1177
f 1177 1209 1210
f 1242 1210 1209
f 1209 1241 1242
f 1274 1242 1241
f 1241 1273 1274
f 1306 1274 1273
f 1273 1305 1306
f 1338 1306 1305
f 1305 1337 1338
f 1370 1338 1337
f 1337 1369 1370
f 1402 1370 1369
f 1369 1401 1402
f 1434 1402 1401
f 1401 1433 1434
f 1466 1434 1433
f 1433 1465 1466
f 507 475 474
f 474 506 507
f 539 507 506
f 506 538 539
f 571 539 538
f 538 570 571
f 603 571 570
f 570 602 603
f 635 603 602
f 602 634 635
f 667 635 634
f 634 666 667
f 699 667 666
f 666 698 699
f 731 699 698
f 698 730 731
f 763 731 730
f 730 762 763
f 795 763 762
f 762 794 795
f 827 795 794
f 794 826 827
f 859 827 826
f 826 858 859
f 891 859 858
f 858 890 891
f 923 891 890
f 890 922 923
f 955 923 922
f 922 954 955
f 987 955 954
f 954 986 987
f 1019 987 986
f 986 1018 1019
f 1051 1019 1018
f 1018 1050 1051
f 1083 1051 1050
f 1050 1082 1083
f 1115 1083 1082
f 1082 1114 1115
f 1147 1115 1114
f 1114 1146 1147
f 1179 1147 1146
f 1146 1178 1179
f 1211 1179 1178
f 1178 1210 1211
f 1243 1211 1210
f 1210 1242 1243
f 1275 1243 1242
f 1242 1274 1275
f 1307 1275 1274
f 1274 1306 1307
f 1339 1307 1306
f 1306 1338 1339
f 1371 1339 1338
f 1338 1370 1371
f 1403 1371 1370
f 1370 1402 1403
f 1435 1403 1402
f 1402 1434 1435
f 1467 1435 1434
f 1434 1466 1467
f 508 476 475
f 475 507 508
f 540 508 507
f 507 539 540
f 572 540 539
f 539 571 572
f 604 572 571
f 571 603 604
f 636 604 603
f 603 635 636
f 668 636 635
f 635 667 668
f 700 668 667
f 667 699 700
f 732 700 699
f 699 731 732
f 764 732 731
f 731 763 764
f 796 764 763
f 763 795 796
f 828 796 795
f 795 827 828
f 860 828 827
f 827 859 860
f 892 860 859
f 859 891 892
f 924 892 891
f 891 923 924
f 956 924 923
f 923 955 956
f 988 956 955
f 955 987 988
f 1020 988 987
f 987 1019 1020
f 1052 1020 1019
f 1019 1051 1052
f 1084 1052 1051
f 1051 1083 1084
f 1116 1084 1083
f 1083 1115 1116
f 1148 1116 1115
f 1115 1147 1148
f 1180 1148 1147
f 1147 1179 1180
f 1212 1180 1179
f 1179 1211 1212
f 1244 1212 1211
f 1211 1243 1244
f 1276 1244 1243
f 1243 1275 1276
f 1308 1276 1275
f 1275 1307 1308
f 1340 1308 1307
f 1307 1339 1340
f 1372 1340 1339
f 1339 1371 1372
f 1404 1372 1371
f 1371 1403 1404
f 1436 1404 1403
f 1403 1435 1436
f 1468 1436 1435
f 1435 1467 1468
f 509 477 476
f 476 508 509
f 541 509 508
f 508 540 541
f 573 541 540
f 540 572 573
f 605 573 572
f 572 604 605
f 637 605 604
f 604 636 637
f 669 637 636
f 636 668 669
f 701 669 668
f 668 700 701
f 733 701 700
f 700 732 733
f 765 733 732
f 732 764 765
f 797 765 764
f 764 796 797
f 829 797 796
f 796 828 829
f 861 829 828
f 828 860 861
f 893 861 860
f 860 892 893
f 925 893 892
f 892 924 925
f 957 925 924
f 924 956 957
f 989 957 956
f 956 988 989
f 1021 989 988
f 988 1020 1021
f 1053 1021 1020
f 1020 1052 1053
f 1085 1053 1052
f 1052 1084 1085
f 1117 1085 1084
f 1084 1116 1117
f 1149 1117 1116
f 1116 1148 1149
f 1181 1149 1148
f 1148 1180 1181
f 1213 1181 1180
f 1180 1212 1213
f 1245 1213 1212
f 1212 1244 1245
f 1277 1245 1244
f 1244 1276 1277
f 1309 1277 1276
f 1276 1308 1309
f 1341 1309 1308
f 1308 1340 1341
f 1373 1341 1340
f 1340 1372 1373
f 1405 1373 1372
f 1372 1404 1405
f 1437 1405 1404
f 1404 1436 1437
f 1469 1437 1436
f 1436 1468 1469
f 510 478 477
f 477 509 510
f 542 510 509
f 509 541 542
f 574 542 541
f 541 573 574
f 606 574 573
f 573 605 606
f 638 606 605
f 605 637 638
f 670 638 637
f 637 669 670
f 702 670 669
f 669 701 702
f 734 702 701
f 701 733 734
f 766 734 733
f 733 765 766
f 798 766 765
f 765 797 798
f 830 798 797
f 797 829 830
f 862 830 829
f 829 861 862
f 894 862 861
f 861 893 894
f 926 894 893
f 893 925 926
f 958 926 925
f 925 957 958
f 990 958 957
f 957 989 990
f 1022 990 989
f 989 1021 1022
f 1054 1022 1021
f 1021 1053 1054
f 1086 1054 1053
f 1053 1085 1086
f 1118 1086 1085
f 1085 1117 1118
f 1150 1118 1117
f 1117 1149 1150
f 1182 1150 1149
f 1149 1181 1182
f 1214 1182 1181
f 1181 1213 1214
f 1246 1214 1213
f 1213 1245 1246
f 1278 1246 1245
f 1245 1277 1278
f 1310 1278 1277
f 1277 1309 1310
f 1342 1310 1309
f 1309 1341 1342
f 1374 1342 1341
f 1341 1373 1374
f 1406 1374 1373
f 1373 1405 1406
f 1438 1406 1405
f 1405 1437 1438
f 1470 1438 1437
f 1437 1469 1470
f 511 479 478
f 478 510 511
f 543 511 510
f 510 542 543
f 575 543 542
f 542 574 575
f 607 575 574
f 574 606 607
f 639 607 606
f 606 638 639
f 671 639 638
f 638 670 671
f 703 671 670
f 670 702 703
f 735 703 702
f 702 734 735
f 767 735 734
f 734 766 767
f 799 767 766
f 766 798 799
f 831 799 798
f 798 830 831
f 863 831 830
f 830 862 863
f 895 863 862
f 862 894 895
f 927 895 894
f 894 926 927
f 959 927 926
f 926 958 959
f 991 959 958
f 958 990 991
f 1023 991 990
f 990 1022 1023
f 1055 1023 1022
f 1022 1054 1055
f 1087 1055 1054
f 1054 1086 1087
f 1119 1087 1086
f 1086 1118 1119
f 1151 1119 1118
f 1118 1150 1151
f 1183 1151 1150
f 1150 1182 1183
f 1215 1183 1182
f 1182 1214 1215
f 1247 1215 1214
f 1214 1246 1247
f 1279 1247 1246
f 1246 1278 1279
f 1311 1279 1278
f 1278 1310 1311
f 1343 1311 1310
f 1310 1342 1343
f 1375 1343 1342
f 1342 1374 1375
f 1407 1375 1374
f 1374 1406 1407
f 1439 1407 1406
f 1406 1438 1439
f 1471 1439 1438
f 1438 1470 1471
f 512 480 479
f 479 511 512
f 544 512 511
f 511 543 544
f 576 544 543
f 543 575 576
f 608 576 575
f 575 607 608
f 640 608 607
f 607 639 640
f 672 640 639
f 639 671 672
f 704 672 671
f 671 703 704
f 736 704 703
f 703 735 736
f 768 736 735
f 735 767 768
f 800 768 767
f 767 799 800
f 832 800 799
f 799 831 832
f 864 832 831
f 831 863 864
f 896 864 863
f 863 895 896
f 928 896 895
f 895 927 928
f 960 928 927
f 927 959 960
f 992 960 959
f 959 991 992
f 1024 992 991
f 991 1023 1024
f 1056 1024 1023
f 1023 1055 1056
f 1088 1056 1055
f 1055 1087 1088
f 1120 1088 1087
f 1087 1119 1120
f 1152 1120 1119
f 1119 1151 1152
f 1184 1152 1151
f 1151 1183 1184
f 1216 1184 1183
f 1183 1215 1216
f 1248 1216 1215
f 1215 1247 1248
f 1280 1248 1247
f 1247 1279 1280
f 1312 1280 1279
f 1279 1311 1312
f 1344 1312 1311
f 1311 1343 1344
f 1376 1344 1343
f 1343 1375 1376
f 1408 1376 1375
f 1375 1407 1408
f 1440 1408 1407
f 1407 1439 1440
f 1472 1440 1439
f 1439 1471 1472
f 513 481 480
f 480 512 513
f 545 513 512
f 512 544 545
f 577 545 544
f 544 576 577
f 609 577 576
f 576 608 609
f 641 609 608
f 608 640 641
f 673 641 640
f 640 672 673
f 705 673 672
f 672 704 705
f 737 705 704
f 704 736 737
f 769 737 736
f 736 768 769
f 801 769 768
f 768 800 801
f 833 801 800
f 800 832 833
f 865 833 832
f 832 864 865
f 897 865 864
f 864 896 897
f 929 897 896
f 896 928 929
f 961 929 928
f 928 960 961
f 993 961 960
f 960 992 993
f 1025 993 992
f 992 1024 1025
f 1057 1025 1024
f 1024 1056 1057
f 1089 1057 1056
f 1056 1088 1089
f 1121 1089 1088
f 1088 1120 1121
f 1153 1121 1120
f 1120 1152 1153
f 1185 1153 1152
f 1152 1184 1185
f 1217 1185 1184
f 1184 1216 1217
f 1249 1217 1216
f 1216 1248 1249
f 1281 1249 1248
f 1248 1280 1281
f 1313 1281 1280
f 1280 1312 1313
f 1345 1313 1312
f 1312 1344 1345
f 1377 1345 1344
f 1344 1376 1377
f 1409 1377 1376
f 1376 1408 1409
f 1441 1409 1408
f 1408 1440 1441
f 1473 1441 1440
f 1440 1472 1473
f 514 482 481
f 481 513 514
f 546 514 513
f 513 545 546
f 578 546 545
f 545 577 578
f 610 578 577
f 577 609 610
f 642 610 609
f 609 641 642
f 674 642 641
f 641 673 674
f 706 674 673
f 673 705 706
f 738 706 705
f 705 737 738
f 770 738 737
f 737 769 770
f 802 770 769
f 769 801 802
f 834 802 801
f 801 833 834
f 866 834 833
f 833 865 866
f 898 866 865
f 865 897 898
f 930 898 897
f 897 929 930
f 962 930 929
f 929 961 962
f 994 962 961
f 961 993 994
f 1026 994 993
f 993 1025 1026
f 1058 1026 1025
f 1025 1057 1058
f 1090 1058 1057
f 1057 1089 1090
f 1122 1090 1089
f 1089 1121 1122
f 1154 1122 1121
f 1121 1153 1154
f 1186 1154 1153
f 1153 1185 1186
f 1218 1186 1185
f 1185 1217 1218
f 1250 1218 1217
f 1217 1249 1250
f 1282 1250 1249
f 1249 1281 1282
f 1314 1282 1281
f 1281 1313 1314
f 1346 1314 1313
f 1313 1345 1346
f 1378 1346 1345
f 1345 1377 1378
f 1410 1378 1377
f 1377 1409 1410
f 1442 1410 1409
f 1409 1441 1442
f 1474 1442 1441
f 1441 1473 1474
f 515 483 482
f 482 514 515
f 547 515 514
f 514 546 547
f 579 547 546
f 546 578 579
f 611 579 578
f 578 610 611
f 643 611 610
f 610 642 643
f 675 643 642
f 642 674 675
f 707 675 674
f 674 706 707
f 739 707 706
f 706 738 739
f 771 739 738
f 738 770 771
f 803 771 770
f 770 802 803
f 835 803 802
f 802 834 835
f 867 835 834
f 834 866 867
f 899 867 866
f 866 898 899
f 931 899 898
f 898 930 931
f 963 931 930
f 930 962 963
f 995 963 962
f 962 994 995
f 1027 995 994
f 994 1026 1027
f 1059 1027 1026
f 1026 1058 1059
f 1091 1059 1058
f 1058 1090 1091
f 1123 1091 1090
f 1090 1122 1123
f 1155 1123 1122
f 1122 1154 1155
f 1187 1155 1154
f 1154 1186 1187
f 1219 1187 1186
f 1186 1218 1219
f 1251 1219 1218
f 1218 1250 1251
f 1283 1251 1250
f 1250 1282 1283
f 1315 1283 1282
f 1282 1314 1315
f 1347 1315 1314
f 1314 1346 1347
f 1379 1347 1346
f 1346 1378 1379
f 1411 1379 1378
f 1378 1410 1411
f 1443 1411 1410
f 1410 1442 1443
f 1475 1443 1442
f 1442 1474 1475
f 516 484 483
f 483 515 516
f 548 516 515
f 515 547 548
f 580 548 547
f 547 579 580
f 612 580 579
f 579 611 612
f 644 612 611
f 611 643 644
f 676 644 643
f 643 675 676
f 708 676 675
f 675 707 708
f 740 708 707
f 707 739 740
f 772 740 739
f 739 771 772
f 804 772 771
f 771 803 804
f 836 804 803
f 803 835 836
f 868 836 835
f 835 867 868
f 900 868 867
f 867 899 900
f 932 900 899
f 899 931 932
f 964 932 931
f 931 963 964
f 996 964 963
f 963 995 996
f 1028 996 995
f 995 1027 1028
f 1060 1028 1027
f 1027 1059 1060
f 1092 1060 1059
f 1059 1091 1092
f 1124 1092 1091
f 1091 1123 1124
f 1156 1124 1123
f 1123 1155 1156
f 1188 1156 1155
f 1155 1187 1188
f 1220 1188 1187
f 1187 1219 1220
f 1252 1220 1219
f 1219 1251 1252
f 1284 1252 1251
f 1251 1283 1284
f 1316 1284 1283
f 1283 1315 1316
f 1348 1316 1315
f 1315 1347 1348
f 1380 1348 1347
f 1347 1379 1380
f 1412 1380 1379
f 1379 1411 1412
f 1444 1412 1411
f 1411 1443 1444
f 1476 1444 1443
f 1443 1475 1476
f 517 485 484
f 484 516 517
f 549 517 516
f 516 548 549
f 581 549 548
f 548 580 581
f 613 581 580
f 580 612 613
f 645 613 612
f 612 644 645
f 677 645 644
f 644 676 677
f 709 677 676
f 676 708 709
f 741 709 708
f 708 740 741
f 773 741 740
f 740 772 773
f 805 773 772
f 772 804 805
f 837 805 804
f 804 836 837
f 869 837 836
f 836 868 869
f 901 869 868
f 868 900 901
f 933 901 900
f 900 932 933
f 965 933 932
f 932 964 965
f 997 965 964
f 964 996 997
f 1029 997 996
f 996 1028 1029
f 1061 1029 1028
f 1028 1060 1061
f 1093 1061 1060
f 1060 1092 1093
f 1125 1093 1092
f 1092 1124 1125
f 1157 1125 1124
f 1124 1156 1157
f 1189 1157 1156
f 1156 1188 1189
f 1221 1189 1188
f 1188 1220 1221
f 1253 1221 1220
f 1220 1252 1253
f 1285 1253 1252
f 1252 1284 1285
f 1317 1285 1284
f 1284 1316 1317
f 1349 1317 1316
f 1316 1348 1349
f 1381 1349 1348
f 1348 1380 1381
f 1413 1381 1380
f 1380 1412 1413
f 1445 1413 1412
f 1412 1444 1445
f 1477 1445 1444
f 1444 1476 1477
f 518 486 485
f 485 517 518
f 550 518 517
f 517 549 550
f 582 550 549
f 549 581 582
f 614 582 581
f 581 613 614
f 646 614 613
f 613 645 646
f 678 646 645
f 645 677 678
f 710 678 677
f 677 709 710
f 742 710 709
f 709 741 742
f 774 742 741
f 741 773 774
f 806 774 773
f 773 805 806
f 838 806 805
f 805 837 838
f 870 838 837
f 837 869 870
f 902 870 869
f 869 901 902
f 934 902 901
f 901 933 934
f 966 934 933
f 933 965 966
f 998 966 965
f 965 997 998
f 1030 998 997
f 997 1029 1030
f 1062 1030 1029
f 1029 1061 1062
f 1094 1062 1061
f 1061 1093 1094
f 1126 1094 1093
f 1093 1125 1126
f 1158 1126 1125
f 1125 1157 1158
f 1190 1158 1157
f 1157 1189 1190
f 1222 1190 1189
f 1189 1221 1222
f 1254 1222 1221
f 1221 1253 1254
f 1286 1254 1253
f 1253 1285 1286
f 1318 1286 1285
f 1285 1317 1318
f 1350 1318 1317
f 1317 1349 1350
f 1382 1350 1349
f 1349 1381 1382
f 1414 1382 1381
f 1381 1413 1414
f 1446 1414 1413
f 1413 1445 1446
f 1478 1446 1445
f 1445 1477 1478
f 519 487 486
f 486 518 519
f 551 519 518
f 518 550 551
f 583 551 550
f 550 582 583
f 615 583 582
f 582 614 615
f 647 615 614
f 614 646 647
f 679 647 646
f 646 678 679
f 711 679 678
f 678 710 711
f 743 711 710
f 710 742 743
f 775 743 742
f 742 774 775
f 807 775 774
f 774 806 807
f 839 807 806
f 806 838 839
f 871 839 838
f 838 870 871
f 903 871 870
f 870 902 903
f 935 903 902
f 902 934 935
f 967 935 934
f 934 966 967
f 999 967 966
f 966 998 999
f 1031 999 998
f 998 1030 1031
f 1063 1031 1030
f 1030 1062 1063
f 1095 1063 1062
f 1062 1094 1095
f 1127 1095 1094
f 1094 1126 1127
f 1159 1127 1126
f 1126 1158 1159
f 1191 1159 1158
f 1158 1190 1191
f 1223 1191 1190
f 1190 1222 1223
f 1255 1223 1222
f 1222 1254 1255
f 1287 1255 1254
f 1254 1286 1287
f 1319 1287 1286
f 1286 1318 1319
f 1351 1319 1318
f 1318 1350 1351
f 1383 1351 1350
f 1350 1382 1383
f 1415 1383 1382
f 1382 1414 1415
f 1447 1415 1414
f 1414 1446 1447
f 1479 1447 1446
f 1446 1478 1479
f 520 488 487
f 487 519 520
f 552 520 519
f 519 551 552
f 584 552 551
f 551 583 584
f 616 584 583
f 583 615 616
f 648 616 615
f 615 647 648
f 680 648 647
f 647 679 680
f 712 680 679
f 679 711 712
f 744 712 711
f 711 743 744
f 776 744 743
f 743 775 776
f 808 776 775
f 775 807 808
f 840 808 807
f 807 839 840
f 872 840 839
f 839 871 872
f 904 872 871
f 871 903 904
f 936 904 903
f 903 935 936
f 968 936 935
f 935 967 968
f 1000 968 967
f 967 999 1000
f 1032 1000 999
f 999 1031 1032
f 1064 1032 1031
f 1031 1063 1064
f 1096 1064 1063
f 1063 1095 1096
f 1128 1096 1095
f 1095 1127 1128
f 1160 1128 1127
f 1127 1159 1160
f 1192 1160 1159
f 1159 1191 1192
f 1224 1192 1191
f 1191 1223 1224
f 1256 1224 1223
f 1223 1255 1256
f 1288 1256 1255
f 1255 1287 1288
f 1320 1288 1287
f 1287 1319 1320
f 1352 1320 1319
f 1319 1351 1352
f 1384 1352 1351
f 1351 1383 1384
f 1416 1384 1383
f 1383 1415 1416
f 1448 1416 1415
f 1415 1447 1448
f 1480 1448 1447
f 1447 1479 1480
