v 4975.53 63.9563 -3850.99
v 4975.64 63.3841 -3850.9
v 4975.56 63.4791 -3850.56
v 4975.41 63.8995 -3851.31
v 4975.53 63.9563 -3850.99
v 4975.39 64.208 -3851.13
v 4975.64 63.3841 -3850.9
v 4975.53 63.9563 -3850.99
v 4975.5 63.5583 -3851.21
v 4975.5 63.7875 -3850.39
v 4975.43 64.1288 -3850.48
v 4975.56 63.4791 -3850.56
v 4975.41 63.8995 -3851.31
v 4975.5 63.5583 -3851.21
v 4975.53 63.9563 -3850.99
v 4975.39 64.208 -3851.13
v 4975.53 63.9563 -3850.99
v 4975.48 64.3029 -3850.79
v 4975.43 64.1288 -3850.48
v 4975.48 64.3029 -3850.79
v 4975.53 63.9563 -3850.99
v 4975.56 63.4791 -3850.56
v 4975.43 64.1288 -3850.48
v 4975.53 63.9563 -3850.99
v 4973 64.3028 -3850.79
v 4972.85 64.1286 -3850.48
v 4972.82 63.7873 -3850.39
v 4973.09 63.8587 -3850.95
v 4973.23 63.8994 -3851.31
v 4973.31 64.0604 -3851.22
v 4973 64.3028 -3850.79
v 4973.09 63.8587 -3850.95
v 4973.1 64.2608 -3850.94
v 4973.09 63.8587 -3850.95
v 4973.61 64.1004 -3851.19
v 4973.67 64.2079 -3851.13
v 4973.67 64.2079 -3851.13
v 4973.68 64.2377 -3851.02
v 4973.09 63.8587 -3850.95
v 4973.09 63.8587 -3850.95
v 4973.68 64.2377 -3851.02
v 4973.1 64.2608 -3850.94
v 4973.09 63.8587 -3850.95
v 4973.31 64.0604 -3851.22
v 4973.61 64.1004 -3851.19
v 4973.09 63.8587 -3850.95
v 4972.96 63.7746 -3851.27
v 4973.23 63.8994 -3851.31
v 4972.96 63.7746 -3851.27
v 4972.81 63.4789 -3850.56
v 4972.92 63.5581 -3851.21
v 4973.09 63.8587 -3850.95
v 4972.82 63.7873 -3850.39
v 4972.81 63.4789 -3850.56
v 4972.96 63.7746 -3851.27
v 4973.09 63.8587 -3850.95
v 4972.81 63.4789 -3850.56
v 4973.09 63.8587 -3850.95
v 4973 64.3028 -3850.79
v 4972.82 63.7873 -3850.39
v 4972.81 63.4789 -3850.56
v 4972.89 63.3839 -3850.9
v 4972.92 63.5581 -3851.21
v 4973 64.3028 -3850.79
v 4975.48 64.3029 -3850.79
v 4975.43 64.1288 -3850.48
v 4972.85 64.1286 -3850.48
v 4973.1 64.2608 -3850.94
v 4973.68 64.2377 -3851.02
v 4973.67 64.2079 -3851.13
v 4975.39 64.208 -3851.13
v 4972.89 63.3839 -3850.9
v 4975.64 63.3841 -3850.9
v 4975.5 63.5583 -3851.21
v 4972.92 63.5581 -3851.21
v 4972.81 63.4789 -3850.56
v 4975.56 63.4791 -3850.56
v 4972.82 63.7873 -3850.39
v 4975.5 63.7875 -3850.39
v 4975.56 63.4791 -3850.56
v 4972.81 63.4789 -3850.56
v 4975.41 63.8995 -3851.31
v 4973.61 64.1004 -3851.19
v 4973.23 63.8994 -3851.31
v 4973.31 64.0604 -3851.22
v 4972.96 63.7746 -3851.27
v 4976.21 62.5838 -3849.87
v 4976.07 65.1641 -3850.12
v 4976.31 65.1581 -3850.48
v 4976.56 62.5838 -3850.36
v 4978.08 65.4304 -3850.06
v 4977.87 65.4304 -3850.42
v 4978.08 65.193 -3850.42
v 4976.71 62.5838 -3850.42
v 4976.41 65.4304 -3850.42
v 4976.08 62.5838 -3849.81
v 4976.08 65.4304 -3849.99
v 4976.08 65.2596 -3850
v 4977.7 65.4304 -3848.72
v 4977.63 62.5838 -3848.63
v 4977.35 62.5838 -3848.42
v 4977.46 65.4304 -3848.42
v 4977.86 62.5838 -3848.42
v 4977.63 62.5838 -3848.63
v 4977.7 65.4304 -3848.72
v 4977.82 65.4304 -3848.42
v 4976.95 65.7057 -3848.73
v 4977.08 65.9459 -3848.82
v 4977.06 65.7057 -3848.78
v 4976.9 65.4009 -3848.69
v 4976.95 65.7057 -3848.73
v 4977.06 65.7057 -3848.78
v 4977.06 65.4009 -3848.73
v 4977.05 65.8604 -3849.46
v 4977.24 65.9459 -3849.96
v 4977.32 65.7057 -3850.07
v 4977.1 65.7057 -3849.51
v 4977.65 65.4009 -3849.99
v 4977.3 65.4009 -3849.48
v 4977.1 65.7057 -3849.51
v 4977.32 65.7057 -3850.07
v 4977.08 65.9459 -3848.82
v 4976.65 65.9459 -3848.99
v 4977.05 65.8604 -3849.46
v 4976.48 65.9459 -3849.42
v 4976.65 65.9459 -3849.85
v 4977.08 65.9459 -3850.02
v 4977.24 65.9459 -3849.96
v 4977.08 65.9459 -3848.82
v 4977.05 65.8604 -3849.46
v 4977.1 65.7057 -3849.51
v 4977.06 65.7057 -3848.78
v 4977.3 65.4009 -3849.48
v 4977.06 65.4009 -3848.73
v 4977.06 65.7057 -3848.78
v 4977.1 65.7057 -3849.51
v 4976.07 65.1641 -3850.12
v 4976.03 65.1457 -3850.44
v 4976.31 65.1581 -3850.48
v 4976.16 62.5838 -3850.31
v 4976.03 65.1457 -3850.44
v 4976.07 65.1641 -3850.12
v 4976.21 62.5838 -3849.87
v 4976.56 62.5838 -3850.36
v 4976.31 65.1581 -3850.48
v 4976.03 65.1457 -3850.44
v 4976.16 62.5838 -3850.31
v 4976.55 65.7057 -3849.95
v 4976.65 65.9459 -3849.85
v 4976.48 65.9459 -3849.42
v 4976.33 65.7057 -3849.42
v 4976.65 65.9459 -3848.99
v 4976.55 65.7057 -3848.89
v 4977.32 65.7057 -3850.07
v 4977.24 65.9459 -3849.96
v 4977.08 65.9459 -3850.02
v 4977.08 65.7057 -3850.17
v 4976.27 65.4009 -3849.42
v 4976.51 65.4009 -3848.85
v 4977.65 65.4009 -3849.99
v 4977.08 65.4009 -3850.23
v 4976.51 65.4009 -3849.99
v 4978.08 62.5838 -3850.42
v 4978.08 65.193 -3850.42
v 4977.87 65.4304 -3850.42
v 4976.41 65.4304 -3850.42
v 4976.71 62.5838 -3850.42
v 4978.08 65.4304 -3848.42
v 4978.08 62.5838 -3848.42
v 4977.86 62.5838 -3848.42
v 4977.82 65.4304 -3848.42
v 4976.08 62.5838 -3848.42
v 4976.08 62.5838 -3849.81
v 4976.08 65.4304 -3848.42
v 4976.08 65.4304 -3849.99
v 4976.08 65.2596 -3850
v 4978.08 62.5838 -3848.42
v 4978.08 65.4304 -3848.42
v 4978.08 65.4304 -3850.06
v 4978.08 65.193 -3850.42
v 4978.08 62.5838 -3850.42
v 4976.08 65.4304 -3849.99
v 4977.7 65.4304 -3848.72
v 4976.08 65.4304 -3848.42
v 4977.46 65.4304 -3848.42
v 4976.41 65.4304 -3850.42
v 4977.87 65.4304 -3850.42
v 4978.08 65.4304 -3850.06
v 4977.82 65.4304 -3848.42
v 4978.08 65.4304 -3848.42
v 4977.35 62.5838 -3848.42
v 4976.08 62.5838 -3848.42
v 4976.08 65.4304 -3848.42
v 4977.46 65.4304 -3848.42
v 4977.08 65.9459 -3848.82
v 4976.95 65.7057 -3848.73
v 4976.9 65.4009 -3848.69
v 4972.88 62.6495 -3845.34
v 4972.74 65.2297 -3845.59
v 4972.98 65.2237 -3845.95
v 4973.23 62.6495 -3845.83
v 4973.72 65.7714 -3844.25
v 4973.75 65.9644 -3844.26
v 4973.75 65.7714 -3844.14
v 4973.72 65.4666 -3844.2
v 4973.72 65.7714 -3844.25
v 4973.75 65.7714 -3844.14
v 4973.75 65.4666 -3844.08
v 4973.42 72.3315 -3844.56
v 4974.07 72.4364 -3844.56
v 4973.75 72.478 -3844.43
v 4974.21 72.2055 -3844.89
v 4973.9 72.2319 -3844.99
v 4974.07 72.0675 -3845.22
v 4974.07 72.4364 -3844.56
v 4973.42 72.3315 -3844.56
v 4973.9 72.2319 -3844.99
v 4973.28 72.2891 -3844.89
v 4973.42 72.1631 -3845.22
v 4973.42 72.3315 -3844.56
v 4974.21 72.2055 -3844.89
v 4974.07 72.4364 -3844.56
v 4973.9 72.2319 -3844.99
v 4974.07 72.0675 -3845.22
v 4973.9 72.2319 -3844.99
v 4973.75 72.1799 -3845.35
v 4973.42 72.1631 -3845.22
v 4973.75 72.1799 -3845.35
v 4973.9 72.2319 -3844.99
v 4973.42 72.3315 -3844.56
v 4973.42 72.1631 -3845.22
v 4973.9 72.2319 -3844.99
v 4974.75 65.496 -3845.53
v 4974.54 65.496 -3845.89
v 4974.75 65.2586 -3845.89
v 4973.38 62.6495 -3845.89
v 4973.08 65.496 -3845.89
v 4972.75 62.6495 -3845.28
v 4972.75 65.496 -3845.45
v 4972.75 65.3252 -3845.47
v 4974.37 65.496 -3844.19
v 4974.3 62.6495 -3844.1
v 4974.02 62.6495 -3843.89
v 4974.13 65.496 -3843.89
v 4974.53 62.6495 -3843.89
v 4974.3 62.6495 -3844.1
v 4974.37 65.496 -3844.19
v 4974.48 65.496 -3843.89
v 4973.62 65.7714 -3844.19
v 4973.75 65.9644 -3844.26
v 4973.72 65.7714 -3844.25
v 4973.57 65.4666 -3844.16
v 4973.62 65.7714 -3844.19
v 4973.72 65.7714 -3844.25
v 4973.72 65.4666 -3844.2
v 4973.42 66.1495 -3845.22
v 4973.42 72.1631 -3845.22
v 4973.28 72.2891 -3844.89
v 4973.28 66.1495 -3844.89
v 4973.42 72.3315 -3844.56
v 4973.42 66.1495 -3844.56
v 4973.42 66.1495 -3844.56
v 4973.42 72.3315 -3844.56
v 4973.75 72.478 -3844.43
v 4973.75 66.1495 -3844.43
v 4974.07 72.4364 -3844.56
v 4974.07 66.1495 -3844.56
v 4974.21 72.2055 -3844.89
v 4974.21 66.1495 -3844.89
v 4974.07 72.0675 -3845.22
v 4974.07 66.1495 -3845.22
v 4973.75 72.1799 -3845.35
v 4973.75 66.1495 -3845.35
v 4972.74 65.2297 -3845.59
v 4972.7 65.2113 -3845.91
v 4972.98 65.2237 -3845.95
v 4972.82 62.6495 -3845.78
v 4972.7 65.2113 -3845.91
v 4972.74 65.2297 -3845.59
v 4972.88 62.6495 -3845.34
v 4973.23 62.6495 -3845.83
v 4972.98 65.2237 -3845.95
v 4972.7 65.2113 -3845.91
v 4972.82 62.6495 -3845.78
v 4973.22 65.7714 -3845.42
v 4973.32 66.0115 -3845.32
v 4973.14 66.0115 -3844.89
v 4973 65.7714 -3844.89
v 4973.32 66.0115 -3844.46
v 4973.22 65.7714 -3844.36
v 4973.75 65.7714 -3844.14
v 4973.75 65.9644 -3844.26
v 4973.75 66.0115 -3844.29
v 4974.17 66.0115 -3844.46
v 4974.28 65.7714 -3844.36
v 4974.35 66.0115 -3844.89
v 4974.5 65.7714 -3844.89
v 4974.17 66.0115 -3845.32
v 4974.28 65.7714 -3845.42
v 4973.75 66.0115 -3845.49
v 4973.75 65.7714 -3845.64
v 4973.75 66.0115 -3845.49
v 4973.75 66.0296 -3845.43
v 4973.37 66.0296 -3845.27
v 4973.32 66.0115 -3845.32
v 4973.21 66.0296 -3844.89
v 4973.14 66.0115 -3844.89
v 4973.37 66.0296 -3844.51
v 4973.32 66.0115 -3844.46
v 4973.75 66.0296 -3844.36
v 4973.75 66.0115 -3844.29
v 4973.75 66.0115 -3844.29
v 4973.75 66.0296 -3844.36
v 4974.13 66.0296 -3844.51
v 4974.17 66.0115 -3844.46
v 4974.28 66.0296 -3844.89
v 4974.35 66.0115 -3844.89
v 4974.13 66.0296 -3845.27
v 4974.17 66.0115 -3845.32
v 4973.75 66.1495 -3845.35
v 4973.75 66.0296 -3845.43
v 4974.13 66.0296 -3845.27
v 4974.07 66.1495 -3845.22
v 4973.42 66.1495 -3845.22
v 4973.37 66.0296 -3845.27
v 4973.28 66.1495 -3844.89
v 4973.21 66.0296 -3844.89
v 4973.42 66.1495 -3844.56
v 4973.37 66.0296 -3844.51
v 4973.75 66.1495 -3844.43
v 4973.75 66.0296 -3844.36
v 4974.07 66.1495 -3844.56
v 4974.13 66.0296 -3844.51
v 4973.75 66.0296 -3844.36
v 4973.75 66.1495 -3844.43
v 4974.21 66.1495 -3844.89
v 4974.28 66.0296 -3844.89
v 4972.94 65.4666 -3844.89
v 4973.18 65.4666 -3844.32
v 4973.75 65.4666 -3844.08
v 4974.32 65.4666 -3844.32
v 4974.56 65.4666 -3844.89
v 4974.32 65.4666 -3845.46
v 4973.75 65.4666 -3845.7
v 4973.18 65.4666 -3845.46
v 4974.75 62.6495 -3845.89
v 4974.75 65.2586 -3845.89
v 4974.54 65.496 -3845.89
v 4973.08 65.496 -3845.89
v 4973.38 62.6495 -3845.89
v 4974.75 65.496 -3843.89
v 4974.75 62.6495 -3843.89
v 4974.53 62.6495 -3843.89
v 4974.48 65.496 -3843.89
v 4972.75 62.6495 -3843.89
v 4972.75 62.6495 -3845.28
v 4972.75 65.496 -3843.89
v 4972.75 65.496 -3845.45
v 4972.75 65.3252 -3845.47
v 4974.75 62.6495 -3843.89
v 4974.75 65.496 -3843.89
v 4974.75 65.496 -3845.53
v 4974.75 65.2586 -3845.89
v 4974.75 62.6495 -3845.89
v 4972.75 65.496 -3845.45
v 4974.37 65.496 -3844.19
v 4972.75 65.496 -3843.89
v 4974.13 65.496 -3843.89
v 4973.08 65.496 -3845.89
v 4974.54 65.496 -3845.89
v 4974.75 65.496 -3845.53
v 4974.48 65.496 -3843.89
v 4974.75 65.496 -3843.89
v 4974.02 62.6495 -3843.89
v 4972.75 62.6495 -3843.89
v 4972.75 65.496 -3843.89
v 4974.13 65.496 -3843.89
v 4973.75 66.0115 -3844.29
v 4973.75 65.9644 -3844.26
v 4973.62 65.7714 -3844.19
v 4973.57 65.4666 -3844.16
v 4969.78 63.1144 -3854.1
v 4969.78 63.8785 -3854.1
v 4969.7 64.1554 -3853.92
v 4969.64 64.1451 -3853.78
v 4969.64 63.1144 -3853.78
v 4969.78 64.3248 -3853.45
v 4969.78 63.1144 -3853.45
v 4970.43 63.1144 -3853.45
v 4970.43 64.2863 -3853.45
v 4970.57 64.1928 -3853.78
v 4970.57 63.1144 -3853.78
v 4970.43 64.0648 -3854.1
v 4970.43 63.1144 -3854.1
v 4970.27 64.0816 -3854.17
v 4970.1 63.7495 -3854.24
v 4970.1 63.1144 -3854.24
v 4969.78 63.1144 -3853.45
v 4969.78 64.3248 -3853.45
v 4970.1 64.3314 -3853.31
v 4970.1 63.1144 -3853.31
v 4970.43 64.2863 -3853.45
v 4970.43 63.1144 -3853.45
v 4971.1 62.461 -3854.19
v 4970.29 62.461 -3854.78
v 4971.1 62.1117 -3854.78
v 4970.57 64.1928 -3853.78
v 4969.92 64.1088 -3853.78
v 4970.43 64.0648 -3854.1
v 4970.27 64.0816 -3854.17
v 4969.32 62.329 -3853.06
v 4969.1 62.461 -3852.99
v 4969.1 61.3808 -3853.08
v 4969.55 62.461 -3853.07
v 4969.1 62.461 -3852.99
v 4969.32 62.329 -3853.06
v 4969.55 62.461 -3853.07
v 4969.32 62.329 -3853.06
v 4969.1 62.461 -3853.28
v 4969.1 62.461 -3853.28
v 4969.32 62.329 -3853.06
v 4969.1 61.3808 -3853.08
v 4970.65 62.461 -3852.78
v 4971.1 62.461 -3853.37
v 4971.1 61.4112 -3852.78
v 4970.57 64.1928 -3853.78
v 4970.43 64.2863 -3853.45
v 4969.92 64.1088 -3853.78
v 4970.1 64.3314 -3853.31
v 4969.64 64.1451 -3853.78
v 4969.7 64.1554 -3853.92
v 4970.1 64.3314 -3853.31
v 4969.78 64.3248 -3853.45
v 4969.92 64.1088 -3853.78
v 4969.64 64.1451 -3853.78
v 4969.78 63.8785 -3854.1
v 4970.1 63.7495 -3854.24
v 4969.58 62.7363 -3854.31
v 4969.68 62.9765 -3854.2
v 4969.5 62.9765 -3853.78
v 4969.36 62.7363 -3853.78
v 4969.68 62.9765 -3853.35
v 4969.58 62.7363 -3853.25
v 4970.1 62.9765 -3853.17
v 4970.1 62.7363 -3853.03
v 4970.1 62.7363 -3853.03
v 4970.1 62.9765 -3853.17
v 4970.53 62.9765 -3853.35
v 4970.63 62.7363 -3853.25
v 4970.71 62.9765 -3853.78
v 4970.85 62.7363 -3853.78
v 4970.53 62.9765 -3854.2
v 4970.63 62.7363 -3854.31
v 4970.1 62.9765 -3854.38
v 4970.1 62.7363 -3854.53
v 4970.1 62.9765 -3854.38
v 4970.1 62.9946 -3854.31
v 4969.73 62.9946 -3854.16
v 4969.68 62.9765 -3854.2
v 4969.57 62.9946 -3853.78
v 4969.5 62.9765 -3853.78
v 4969.73 62.9946 -3853.4
v 4969.68 62.9765 -3853.35
v 4970.1 62.9946 -3853.24
v 4970.1 62.9765 -3853.17
v 4970.1 62.9765 -3853.17
v 4970.1 62.9946 -3853.24
v 4970.48 62.9946 -3853.4
v 4970.53 62.9765 -3853.35
v 4970.64 62.9946 -3853.78
v 4970.71 62.9765 -3853.78
v 4970.48 62.9946 -3854.16
v 4970.53 62.9765 -3854.2
v 4970.1 63.1144 -3854.24
v 4970.1 62.9946 -3854.31
v 4970.48 62.9946 -3854.16
v 4970.43 63.1144 -3854.1
v 4969.78 63.1144 -3854.1
v 4969.73 62.9946 -3854.16
v 4969.64 63.1144 -3853.78
v 4969.57 62.9946 -3853.78
v 4969.78 63.1144 -3853.45
v 4969.73 62.9946 -3853.4
v 4970.1 63.1144 -3853.31
v 4970.1 62.9946 -3853.24
v 4970.43 63.1144 -3853.45
v 4970.48 62.9946 -3853.4
v 4970.1 62.9946 -3853.24
v 4970.1 63.1144 -3853.31
v 4970.57 63.1144 -3853.78
v 4970.64 62.9946 -3853.78
v 4969.3 62.4316 -3853.78
v 4969.53 62.4316 -3853.21
v 4970.1 62.4316 -3852.97
v 4970.1 62.4316 -3852.97
v 4970.68 62.4316 -3853.21
v 4970.91 62.4316 -3853.78
v 4970.68 62.4316 -3854.35
v 4970.1 62.4316 -3854.59
v 4969.53 62.4316 -3854.35
v 4971.1 61.4112 -3852.78
v 4971.1 59.6144 -3852.78
v 4969.1 59.6144 -3852.78
v 4969.1 62.461 -3852.78
v 4970.65 62.461 -3852.78
v 4969.1 62.461 -3854.78
v 4969.1 61.3808 -3853.08
v 4969.1 59.6144 -3854.78
v 4969.1 59.6144 -3852.78
v 4969.1 62.461 -3852.78
v 4969.1 62.461 -3852.99
v 4969.1 62.461 -3853.28
v 4969.1 62.461 -3854.78
v 4970.29 62.461 -3854.78
v 4969.1 62.461 -3853.28
v 4969.55 62.461 -3853.07
v 4971.1 62.461 -3854.19
v 4970.65 62.461 -3852.78
v 4971.1 62.461 -3853.37
v 4969.1 62.461 -3852.99
v 4969.1 62.461 -3852.78
v 4971.1 59.6144 -3852.78
v 4971.1 61.4112 -3852.78
v 4971.1 62.461 -3853.37
v 4971.1 62.461 -3854.19
v 4971.1 62.1117 -3854.78
v 4971.1 59.6144 -3854.78
v 4971.1 59.6144 -3854.78
v 4971.1 62.1117 -3854.78
v 4970.29 62.461 -3854.78
v 4969.1 62.461 -3854.78
v 4969.1 59.6144 -3854.78
v 4974.34 63.1174 -3847.69
v 4974.34 63.2411 -3847.69
v 4974.14 63.1174 -3847.69
v 4974.14 63.2411 -3847.69
v 4974.29 63.2942 -3847.64
v 4974.29 63.2942 -3847.54
v 4974.19 63.2942 -3847.64
v 4974.19 63.2942 -3847.54
v 4974.34 63.2411 -3847.49
v 4974.34 63.1174 -3847.49
v 4974.14 63.2411 -3847.49
v 4974.14 63.1174 -3847.49
v 4974.34 63.1174 -3847.49
v 4974.34 63.1174 -3847.69
v 4974.14 63.1174 -3847.49
v 4974.14 63.1174 -3847.69
v 4974.14 63.1174 -3847.69
v 4974.14 63.2411 -3847.69
v 4974.14 63.1174 -3847.49
v 4974.14 63.2411 -3847.49
v 4974.34 63.1174 -3847.49
v 4974.34 63.2411 -3847.49
v 4974.34 63.1174 -3847.69
v 4974.34 63.2411 -3847.69
v 4974.04 63.2458 -3847.79
v 4974.14 63.2411 -3847.69
v 4974.44 63.2458 -3847.79
v 4974.34 63.2411 -3847.69
v 4974.04 63.2458 -3847.39
v 4974.14 63.2411 -3847.49
v 4974.04 63.2458 -3847.79
v 4974.14 63.2411 -3847.69
v 4974.44 63.2458 -3847.39
v 4974.34 63.2411 -3847.49
v 4974.04 63.2458 -3847.39
v 4974.14 63.2411 -3847.49
v 4974.44 63.2458 -3847.79
v 4974.34 63.2411 -3847.69
v 4974.44 63.2458 -3847.39
v 4974.34 63.2411 -3847.49
v 4974.44 63.2458 -3847.79
v 4974.31 63.3094 -3847.65
v 4974.04 63.2458 -3847.79
v 4974.18 63.3094 -3847.65
v 4974.04 63.2458 -3847.79
v 4974.18 63.3094 -3847.65
v 4974.04 63.2458 -3847.39
v 4974.18 63.3094 -3847.52
v 4974.04 63.2458 -3847.39
v 4974.18 63.3094 -3847.52
v 4974.44 63.2458 -3847.39
v 4974.31 63.3094 -3847.52
v 4974.44 63.2458 -3847.39
v 4974.31 63.3094 -3847.52
v 4974.44 63.2458 -3847.79
v 4974.31 63.3094 -3847.65
v 4974.31 63.3094 -3847.65
v 4974.29 63.2942 -3847.64
v 4974.18 63.3094 -3847.65
v 4974.19 63.2942 -3847.64
v 4974.18 63.3094 -3847.65
v 4974.19 63.2942 -3847.64
v 4974.18 63.3094 -3847.52
v 4974.19 63.2942 -3847.54
v 4974.18 63.3094 -3847.52
v 4974.19 63.2942 -3847.54
v 4974.31 63.3094 -3847.52
v 4974.29 63.2942 -3847.54
v 4974.31 63.3094 -3847.52
v 4974.29 63.2942 -3847.54
v 4974.31 63.3094 -3847.65
v 4974.29 63.2942 -3847.64
v 4942 64.1903 -3817
v 4942 63.792 -3819
v 4942 63.1018 -3821
v 4942 62.5088 -3823
v 4942 62.0281 -3825
v 4942 61.6701 -3827
v 4942 61.4399 -3829
v 4942 61.3369 -3831
v 4942 61.3554 -3833
v 4942 61.0103 -3835
v 4942 60.3673 -3837
v 4942 59.4372 -3839
v 4942 58.5671 -3841
v 4942 57.7815 -3843
v 4942 57.1165 -3845
v 4942 56.5961 -3847
v 4942 56.2317 -3849
v 4942 56.0213 -3851
v 4942 55.9512 -3853
v 4942 55.9973 -3855
v 4942 56.1287 -3857
v 4942 56.3099 -3859
v 4942 56.0993 -3861
v 4942 55.7809 -3863
v 4942 55.4845 -3865
v 4942 55.2123 -3867
v 4942 54.9657 -3869
v 4942 54.7463 -3871
v 4942 54.555 -3873
v 4942 54.3929 -3875
v 4942 54.2605 -3877
v 4942 54.1582 -3879
v 4944 64.2702 -3817
v 4944 63.7579 -3819
v 4944 63.1567 -3821
v 4944 62.6442 -3823
v 4944 62.2292 -3825
v 4944 61.9166 -3827
v 4944 61.707 -3829
v 4944 61.5965 -3831
v 4944 61.5782 -3833
v 4944 61.2106 -3835
v 4944 60.8395 -3837
v 4944 60.4536 -3839
v 4944 59.7046 -3841
v 4944 59.0174 -3843
v 4944 58.4215 -3845
v 4944 57.9369 -3847
v 4944 57.5733 -3849
v 4944 57.3303 -3851
v 4944 57.1982 -3853
v 4944 57.1592 -3855
v 4944 56.9762 -3857
v 4944 56.6138 -3859
v 4944 56.2686 -3861
v 4944 55.9431 -3863
v 4944 55.6396 -3865
v 4944 55.36 -3867
v 4944 55.1062 -3869
v 4944 54.9702 -3871
v 4944 54.8528 -3873
v 4944 54.7008 -3875
v 4944 54.3726 -3877
v 4944 54.2638 -3879
v 4946 64.3295 -3817
v 4946 63.8335 -3819
v 4946 63.3175 -3821
v 4946 62.8796 -3823
v 4946 62.5224 -3825
v 4946 62.2453 -3827
v 4946 62.0446 -3829
v 4946 61.9134 -3831
v 4946 61.7589 -3833
v 4946 61.3925 -3835
v 4946 61.0273 -3837
v 4946 60.6674 -3839
v 4946 60.305 -3841
v 4946 59.925 -3843
v 4946 59.5317 -3845
v 4946 59.13 -3847
v 4946 58.7242 -3849
v 4946 58.3185 -3851
v 4946 57.9168 -3853
v 4946 57.5226 -3855
v 4946 57.1394 -3857
v 4946 56.7703 -3859
v 4946 56.418 -3861
v 4946 56.0852 -3863
v 4946 55.7742 -3865
v 4946 55.7889 -3867
v 4946 55.7554 -3869
v 4946 55.6646 -3871
v 4946 55.5342 -3873
v 4946 55.3776 -3875
v 4946 54.4622 -3877
v 4946 54.3465 -3879
v 4948 64.3676 -3817
v 4948 64.0309 -3819
v 4948 63.5949 -3821
v 4948 63.2247 -3823
v 4948 62.9171 -3825
v 4948 62.6664 -3827
v 4948 62.4645 -3829
v 4948 62.2662 -3831
v 4948 61.9127 -3833
v 4948 61.5547 -3835
v 4948 61.1956 -3837
v 4948 60.8391 -3839
v 4948 60.4779 -3841
v 4948 60.0975 -3843
v 4948 59.7028 -3845
v 4948 59.2985 -3847
v 4948 58.8892 -3849
v 4948 58.479 -3851
v 4948 58.0721 -3853
v 4948 57.6721 -3855
v 4948 57.2824 -3857
v 4948 56.9064 -3859
v 4948 56.584 -3861
v 4948 56.5816 -3863
v 4948 56.5705 -3865
v 4948 56.4855 -3867
v 4948 56.215 -3869
v 4948 55.9936 -3871
v 4948 55.81 -3873
v 4948 55.3271 -3875
v 4948 54.5288 -3877
v 4948 54.4059 -3879
v 4950 64.3839 -3817
v 4950 64.158 -3819
v 4950 63.9092 -3821
v 4950 63.6392 -3823
v 4950 63.35 -3825
v 4950 63.0436 -3827
v 4950 62.7224 -3829
v 4950 62.3889 -3831
v 4950 62.0459 -3833
v 4950 61.6964 -3835
v 4950 61.3434 -3837
v 4950 60.9905 -3839
v 4950 60.6304 -3841
v 4950 60.2498 -3843
v 4950 59.8536 -3845
v 4950 59.4467 -3847
v 4950 59.0337 -3849
v 4950 58.619 -3851
v 4950 58.2088 -3853
v 4950 58.0051 -3855
v 4950 57.8325 -3857
v 4950 57.6862 -3859
v 4950 57.5602 -3861
v 4950 57.3508 -3863
v 4950 57.0431 -3865
v 4950 56.7383 -3867
v 4950 56.4625 -3869
v 4950 56.2216 -3871
v 4950 56.0084 -3873
v 4950 55.1539 -3875
v 4950 54.5721 -3877
v 4950 54.4417 -3879
v 4952 64.3782 -3817
v 4952 64.1693 -3819
v 4952 63.9373 -3821
v 4952 63.6837 -3823
v 4952 63.4102 -3825
v 4952 63.1187 -3827
v 4952 62.8112 -3829
v 4952 62.4901 -3831
v 4952 62.1577 -3833
v 4952 61.8167 -3835
v 4952 61.47 -3837
v 4952 61.1206 -3839
v 4952 60.7617 -3841
v 4952 60.3809 -3843
v 4952 59.9832 -3845
v 4952 59.5736 -3847
v 4952 59.157 -3849
v 4952 58.7376 -3851
v 4952 58.5574 -3853
v 4952 58.4094 -3855
v 4952 58.2327 -3857
v 4952 58.0286 -3859
v 4952 57.7987 -3861
v 4952 57.5453 -3863
v 4952 57.2709 -3865
v 4952 56.9783 -3867
v 4952 56.695 -3869
v 4952 56.4333 -3871
v 4952 56.1415 -3873
v 4952 54.97 -3875
v 4952 54.5921 -3877
v 4952 54.454 -3879
v 4954 64.3505 -3817
v 4954 64.1585 -3819
v 4954 63.9432 -3821
v 4954 63.706 -3823
v 4954 63.4483 -3825
v 4954 63.1717 -3827
v 4954 62.878 -3829
v 4954 62.5691 -3831
v 4954 62.2474 -3833
v 4954 61.915 -3835
v 4954 61.5746 -3837
v 4954 61.2288 -3839
v 4954 60.8712 -3841
v 4954 60.4902 -3843
v 4954 60.091 -3845
v 4954 59.6788 -3847
v 4954 59.2584 -3849
v 4954 58.8344 -3851
v 4954 58.5343 -3853
v 4954 58.4273 -3855
v 4954 58.3002 -3857
v 4954 58.1482 -3859
v 4954 57.9677 -3861
v 4954 57.7553 -3863
v 4954 57.5081 -3865
v 4954 57.2232 -3867
v 4954 56.9296 -3869
v 4954 56.6456 -3871
v 4954 55.9896 -3873
v 4954 54.7982 -3875
v 4954 54.5887 -3877
v 4954 54.4429 -3879
v 4956 64.3006 -3817
v 4956 64.1255 -3819
v 4956 63.9269 -3821
v 4956 63.706 -3823
v 4956 63.464 -3825
v 4956 63.2023 -3827
v 4956 62.9222 -3829
v 4956 62.6257 -3831
v 4956 62.3146 -3833
v 4956 61.9908 -3835
v 4956 61.6567 -3837
v 4956 61.3147 -3839
v 4956 60.9583 -3841
v 4956 60.5772 -3843
v 4956 60.1765 -3845
v 4956 59.7616 -3847
v 4956 59.3375 -3849
v 4956 58.9088 -3851
v 4956 58.5966 -3853
v 4956 58.5208 -3855
v 4956 58.4328 -3857
v 4956 58.3225 -3859
v 4956 58.181 -3861
v 4956 57.9999 -3863
v 4956 57.7716 -3865
v 4956 57.4884 -3867
v 4956 57.1811 -3869
v 4956 56.8734 -3871
v 4956 55.8631 -3873
v 4956 54.748 -3875
v 4956 54.5623 -3877
v 4956 54.4086 -3879
v 4958 64.2288 -3817
v 4958 64.0704 -3819
v 4958 63.8884 -3821
v 4958 63.6837 -3823
v 4958 63.4573 -3825
v 4958 63.2103 -3827
v 4958 62.9439 -3829
v 4958 62.6596 -3831
v 4958 62.359 -3833
v 4958 62.0439 -3835
v 4958 61.7161 -3837
v 4958 61.3777 -3839
v 4958 61.0227 -3841
v 4958 60.6415 -3843
v 4958 60.2393 -3845
v 4958 59.8218 -3847
v 4958 59.394 -3849
v 4958 58.9607 -3851
v 4958 58.776 -3853
v 4958 58.7186 -3855
v 4958 58.6561 -3857
v 4958 58.5735 -3859
v 4958 58.4571 -3861
v 4958 58.2945 -3863
v 4958 58.0746 -3865
v 4958 57.7862 -3867
v 4958 57.4615 -3869
v 4958 56.9639 -3871
v 4958 55.7828 -3873
v 4958 54.7071 -3875
v 4958 54.5132 -3877
v 4958 54.3517 -3879
v 4960 64.302 -3817
v 4960 64.2095 -3819
v 4960 64.1469 -3821
v 4960 64.0823 -3823
v 4960 63.9842 -3825
v 4960 63.8224 -3827
v 4960 63.5674 -3829
v 4960 63.1896 -3831
v 4960 62.6578 -3833
v 4960 62.0741 -3835
v 4960 61.7526 -3837
v 4960 61.4179 -3839
v 4960 61.0643 -3841
v 4960 60.6829 -3843
v 4960 60.2794 -3845
v 4960 59.8593 -3847
v 4960 59.4278 -3849
v 4960 59.1711 -3851
v 4960 59.0974 -3853
v 4960 59.0435 -3855
v 4960 58.9898 -3857
v 4960 58.9173 -3859
v 4960 58.8089 -3861
v 4960 58.6496 -3863
v 4960 58.4258 -3865
v 4960 58.1241 -3867
v 4960 57.7779 -3869
v 4960 56.9372 -3871
v 4960 55.7675 -3873
v 4960 54.6441 -3875
v 4960 54.4422 -3877
v 4960 54.2727 -3879
v 4962 65.1915 -3817
v 4962 65.1466 -3819
v 4962 65.1226 -3821
v 4962 65.0861 -3823
v 4962 65.005 -3825
v 4962 64.8488 -3827
v 4962 64.5876 -3829
v 4962 64.1913 -3831
v 4962 63.6269 -3833
v 4962 62.9378 -3835
v 4962 62.2738 -3837
v 4962 61.6667 -3839
v 4962 61.1312 -3841
v 4962 60.7016 -3843
v 4962 60.2993 -3845
v 4962 60.0134 -3847
v 4962 59.8077 -3849
v 4962 59.668 -3851
v 4962 59.5754 -3853
v 4962 59.5082 -3855
v 4962 59.444 -3857
v 4962 59.3615 -3859
v 4962 59.2416 -3861
v 4962 59.0681 -3863
v 4962 58.8267 -3865
v 4962 58.5034 -3867
v 4962 58.0925 -3869
v 4962 56.9791 -3871
v 4962 55.8325 -3873
v 4962 54.6677 -3875
v 4962 54.3498 -3877
v 4962 54.1726 -3879
v 4964 66.0529 -3817
v 4964 66.05 -3819
v 4964 66.0596 -3821
v 4964 65.8894 -3823
v 4964 65.5027 -3825
v 4964 65.2301 -3827
v 4964 65.0966 -3829
v 4964 65.119 -3831
v 4964 64.6079 -3833
v 4964 63.9008 -3835
v 4964 63.2091 -3837
v 4964 62.5666 -3839
v 4964 61.9908 -3841
v 4964 61.4898 -3843
v 4964 61.0757 -3845
v 4964 60.7506 -3847
v 4964 60.5084 -3849
v 4964 60.3347 -3851
v 4964 60.21 -3853
v 4964 60.1115 -3855
v 4964 60.0159 -3857
v 4964 59.9015 -3859
v 4964 59.7492 -3861
v 4964 59.5433 -3863
v 4964 59.2704 -3865
v 4964 58.9176 -3867
v 4964 58.1798 -3869
v 4964 57.0993 -3871
v 4964 55.9877 -3873
v 4964 54.8604 -3875
v 4964 54.2372 -3877
v 4964 54.0524 -3879
v 4966 66.845 -3817
v 4966 66.8794 -3819
v 4966 66.6758 -3821
v 4966 66.2057 -3823
v 4966 65.8185 -3825
v 4966 65.5449 -3827
v 4966 65.411 -3829
v 4966 65.4342 -3831
v 4966 65.5637 -3833
v 4966 64.8697 -3835
v 4966 64.1839 -3837
v 4966 63.5394 -3839
v 4966 62.9537 -3841
v 4966 62.4356 -3843
v 4966 61.998 -3845
v 4966 61.6435 -3847
v 4966 61.3661 -3849
v 4966 61.1519 -3851
v 4966 60.9818 -3853
v 4966 60.8338 -3855
v 4966 60.6857 -3857
v 4966 60.5175 -3859
v 4966 60.3121 -3861
v 4966 60.0563 -3863
v 4966 59.7393 -3865
v 4966 59.3352 -3867
v 4966 58.3375 -3869
v 4966 57.3003 -3871
v 4966 56.2356 -3873
v 4966 55.1583 -3875
v 4966 54.1054 -3877
v 4966 53.9133 -3879
v 4968 67.5587 -3817
v 4968 67.511 -3819
v 4968 66.9902 -3821
v 4968 66.5144 -3823
v 4968 66.1174 -3825
v 4968 65.8312 -3827
v 4968 65.6829 -3829
v 4968 65.6904 -3831
v 4968 65.8584 -3833
v 4968 65.8297 -3835
v 4968 65.1751 -3837
v 4968 64.5517 -3839
v 4968 63.975 -3841
v 4968 63.4534 -3843
v 4968 62.9991 -3845
v 4968 62.615 -3847
v 4968 62.2959 -3849
v 4968 62.0291 -3851
v 4968 61.7975 -3853
v 4968 61.5814 -3855
v 4968 61.362 -3857
v 4968 61.1221 -3859
v 4968 60.8486 -3861
v 4968 60.4586 -3863
v 4968 59.8829 -3865
v 4968 59.0885 -3867
v 4968 58.111 -3869
v 4968 57.1617 -3871
v 4968 56.2458 -3873
v 4968 55.3654 -3875
v 4968 54.4851 -3877
v 4968 53.7566 -3879
v 4970 68.1571 -3817
v 4970 67.7234 -3819
v 4970 67.2101 -3821
v 4970 66.7163 -3823
v 4970 66.2986 -3825
v 4970 65.9907 -3827
v 4970 65.8214 -3829
v 4970 65.8095 -3831
v 4970 65.9595 -3833
v 4970 66.1865 -3835
v 4970 66.1546 -3837
v 4970 65.5476 -3839
v 4970 64.9685 -3841
v 4970 64.426 -3843
v 4970 63.9335 -3845
v 4970 63.4963 -3847
v 4970 63.1116 -3849
v 4970 62.7703 -3851
v 4970 62.4587 -3853
v 4970 62.1607 -3855
v 4970 61.8608 -3857
v 4970 61.5454 -3859
v 4970 61.0458 -3861
v 4970 60.3987 -3863
v 4970 59.7266 -3865
v 4970 58.6893 -3867
v 4970 57.695 -3869
v 4970 56.7354 -3871
v 4970 55.8157 -3873
v 4970 54.9377 -3875
v 4970 54.1015 -3877
v 4970 53.5839 -3879
v 4972 68.1638 -3817
v 4972 67.7523 -3819
v 4972 67.2966 -3821
v 4972 66.8359 -3823
v 4972 66.4118 -3825
v 4972 66.08 -3827
v 4972 65.8876 -3829
v 4972 65.8542 -3831
v 4972 65.9843 -3833
v 4972 66.1952 -3835
v 4972 66.3325 -3837
v 4972 66.3699 -3839
v 4972 65.8371 -3841
v 4972 65.2682 -3843
v 4972 64.7302 -3845
v 4972 64.2315 -3847
v 4972 63.7736 -3849
v 4972 63.3514 -3851
v 4972 62.9556 -3853
v 4972 62.5744 -3855
v 4972 62.1958 -3857
v 4972 61.7259 -3859
v 4972 61.0464 -3861
v 4972 60.3895 -3863
v 4972 59.4012 -3865
v 4972 58.3517 -3867
v 4972 57.3486 -3869
v 4972 56.385 -3871
v 4972 55.4665 -3873
v 4972 54.5954 -3875
v 4972 53.7722 -3877
v 4972 53.3969 -3879
v 4974 67.9624 -3817
v 4974 67.6101 -3819
v 4974 67.2097 -3821
v 4974 66.8008 -3823
v 4974 66.4259 -3825
v 4974 66.1259 -3827
v 4974 65.9356 -3829
v 4974 65.8822 -3831
v 4974 65.9888 -3833
v 4974 66.1798 -3835
v 4974 66.3082 -3837
v 4974 66.3437 -3839
v 4974 66.2667 -3841
v 4974 65.9304 -3843
v 4974 65.3523 -3845
v 4974 64.7974 -3847
v 4974 64.2714 -3849
v 4974 63.7741 -3851
v 4974 63.3007 -3853
v 4974 62.8437 -3855
v 4974 62.3946 -3857
v 4974 61.7539 -3859
v 4974 61.0752 -3861
v 4974 60.2125 -3863
v 4974 59.1283 -3865
v 4974 58.0761 -3867
v 4974 57.0706 -3869
v 4974 56.1078 -3871
v 4974 55.1939 -3873
v 4974 54.3325 -3875
v 4974 53.5249 -3877
v 4974 53.1976 -3879
v 4976 67.6105 -3817
v 4976 67.3197 -3819
v 4976 66.9778 -3821
v 4976 66.6241 -3823
v 4976 66.3009 -3825
v 4976 66.0487 -3827
v 4976 65.9014 -3829
v 4976 65.8817 -3831
v 4976 65.9962 -3833
v 4976 66.1777 -3835
v 4976 66.2952 -3837
v 4976 66.3252 -3839
v 4976 66.2477 -3841
v 4976 66.0527 -3843
v 4976 65.7495 -3845
v 4976 65.1901 -3847
v 4976 64.6093 -3849
v 4976 64.0497 -3851
v 4976 63.5113 -3853
v 4976 62.9905 -3855
v 4976 62.4592 -3857
v 4976 61.7878 -3859
v 4976 61.0331 -3861
v 4976 59.9787 -3863
v 4976 58.9043 -3865
v 4976 57.8573 -3867
v 4976 56.8545 -3869
v 4976 55.8959 -3871
v 4976 54.989 -3873
v 4976 54.1347 -3875
v 4976 53.3243 -3877
v 4976 52.9234 -3879
v 4978 67.1258 -3817
v 4978 66.9009 -3819
v 4978 66.6237 -3821
v 4978 66.3322 -3823
v 4978 66.0668 -3825
v 4978 65.8658 -3827
v 4978 65.7609 -3829
v 4978 65.7721 -3831
v 4978 65.9039 -3833
v 4978 66.0983 -3835
v 4978 66.2392 -3837
v 4978 66.2903 -3839
v 4978 66.2273 -3841
v 4978 66.0411 -3843
v 4978 65.742 -3845
v 4978 65.3455 -3847
v 4978 64.7939 -3849
v 4978 64.1962 -3851
v 4978 63.6076 -3853
v 4978 63.0099 -3855
v 4978 62.4114 -3857
v 4978 61.7981 -3859
v 4978 60.8136 -3861
v 4978 59.7777 -3863
v 4978 58.7179 -3865
v 4978 57.6738 -3867
v 4978 56.6624 -3869
v 4978 55.6856 -3871
v 4978 54.75 -3873
v 4978 53.8592 -3875
v 4978 53.0144 -3877
v 4978 52.4579 -3879
v 4980 66.5305 -3817
v 4980 66.3715 -3819
v 4980 66.1656 -3821
v 4980 65.9442 -3823
v 4980 65.7441 -3825
v 4980 65.5995 -3827
v 4980 65.5378 -3829
v 4980 65.5751 -3831
v 4980 65.7128 -3833
v 4980 65.9037 -3835
v 4980 66.0513 -3837
v 4980 66.1157 -3839
v 4980 66.069 -3841
v 4980 65.8997 -3843
v 4980 65.5818 -3845
v 4980 65.0607 -3847
v 4980 64.5066 -3849
v 4980 63.9282 -3851
v 4980 63.3338 -3853
v 4980 62.7305 -3855
v 4980 62.1248 -3857
v 4980 61.4982 -3859
v 4980 60.5212 -3861
v 4980 59.49 -3863
v 4980 58.4283 -3865
v 4980 57.3705 -3867
v 4980 56.3363 -3869
v 4980 55.3324 -3871
v 4980 54.3673 -3873
v 4980 53.4469 -3875
v 4980 52.5742 -3877
v 4980 51.8281 -3879
v 4982 65.7953 -3817
v 4982 65.7748 -3819
v 4982 65.6267 -3821
v 4982 65.4735 -3823
v 4982 65.3445 -3825
v 4982 65.2606 -3827
v 4982 65.243 -3829
v 4982 65.3027 -3831
v 4982 65.4372 -3833
v 4982 65.6106 -3835
v 4982 65.7483 -3837
v 4982 65.8085 -3839
v 4982 65.7613 -3841
v 4982 65.5209 -3843
v 4982 65.0665 -3845
v 4982 64.5648 -3847
v 4982 64.0251 -3849
v 4982 63.4547 -3851
v 4982 62.8635 -3853
v 4982 62.259 -3855
v 4982 61.6447 -3857
v 4982 60.9258 -3859
v 4982 60.0606 -3861
v 4982 59.0372 -3863
v 4982 57.978 -3865
v 4982 56.9127 -3867
v 4982 55.8627 -3869
v 4982 54.8384 -3871
v 4982 53.8506 -3873
v 4982 52.907 -3875
v 4982 52.0126 -3877
v 4982 51.1732 -3879
v 4984 64.7542 -3817
v 4984 65.0731 -3819
v 4984 65.0223 -3821
v 4984 64.9569 -3823
v 4984 64.8852 -3825
v 4984 64.8562 -3827
v 4984 64.8783 -3829
v 4984 64.9564 -3831
v 4984 65.0812 -3833
v 4984 65.2268 -3835
v 4984 65.3406 -3837
v 4984 65.3812 -3839
v 4984 65.1957 -3841
v 4984 64.8238 -3843
v 4984 64.3912 -3845
v 4984 63.9075 -3847
v 4984 63.3812 -3849
v 4984 62.8166 -3851
v 4984 62.2284 -3853
v 4984 61.6169 -3855
v 4984 60.9944 -3857
v 4984 60.1186 -3859
v 4984 59.2424 -3861
v 4984 58.3783 -3863
v 4984 57.3855 -3865
v 4984 56.3173 -3867
v 4984 55.2572 -3869
v 4984 54.2188 -3871
v 4984 53.2181 -3873
v 4984 52.2749 -3875
v 4984 51.4128 -3877
v 4984 50.571 -3879
v 4986 63.6922 -3817
v 4986 64.0051 -3819
v 4986 64.2904 -3821
v 4986 64.3436 -3823
v 4986 64.3707 -3825
v 4986 64.4225 -3827
v 4986 64.4665 -3829
v 4986 64.5472 -3831
v 4986 64.6477 -3833
v 4986 64.7569 -3835
v 4986 64.8349 -3837
v 4986 64.6317 -3839
v 4986 64.3541 -3841
v 4986 64.0044 -3843
v 4986 63.5915 -3845
v 4986 63.1479 -3847
v 4986 62.6231 -3849
v 4986 62.0464 -3851
v 4986 61.4481 -3853
v 4986 60.8314 -3855
v 4986 60.0565 -3857
v 4986 59.1497 -3859
v 4986 58.2555 -3861
v 4986 57.3799 -3863
v 4986 56.5217 -3865
v 4986 55.6071 -3867
v 4986 54.5588 -3869
v 4986 53.5287 -3871
v 4986 52.5618 -3873
v 4986 51.6094 -3875
v 4986 50.6482 -3877
v 4986 49.7685 -3879
v 4988 62.6271 -3817
v 4988 62.9425 -3819
v 4988 63.233 -3821
v 4988 63.4939 -3823
v 4988 63.685 -3825
v 4988 63.8578 -3827
v 4988 63.9731 -3829
v 4988 64.0399 -3831
v 4988 64.0456 -3833
v 4988 63.9918 -3835
v 4988 63.8742 -3837
v 4988 63.6894 -3839
v 4988 63.4319 -3841
v 4988 63.1291 -3843
v 4988 62.9092 -3845
v 4988 62.5648 -3847
v 4988 61.8531 -3849
v 4988 61.154 -3851
v 4988 60.5536 -3853
v 4988 59.9228 -3855
v 4988 59.0006 -3857
v 4988 58.0824 -3859
v 4988 57.1726 -3861
v 4988 56.2955 -3863
v 4988 55.483 -3865
v 4988 54.6162 -3867
v 4988 53.8019 -3869
v 4988 52.7035 -3871
v 4988 51.766 -3873
v 4988 50.7653 -3875
v 4988 49.8974 -3877
v 4988 49.1337 -3879
v 4990 62.1229 -3817
v 4990 62.193 -3819
v 4990 62.2507 -3821
v 4990 62.4585 -3823
v 4990 62.646 -3825
v 4990 62.8203 -3827
v 4990 62.943 -3829
v 4990 63.0125 -3831
v 4990 63.0321 -3833
v 4990 62.9878 -3835
v 4990 62.8803 -3837
v 4990 62.7136 -3839
v 4990 62.689 -3841
v 4990 62.5614 -3843
v 4990 62.2943 -3845
v 4990 61.6697 -3847
v 4990 60.7578 -3849
v 4990 60.1813 -3851
v 4990 59.581 -3853
v 4990 58.8274 -3855
v 4990 57.9379 -3857
v 4990 56.97 -3859
v 4990 56.0373 -3861
v 4990 55.2389 -3863
v 4990 54.4087 -3865
v 4990 53.6207 -3867
v 4990 52.8117 -3869
v 4990 52.0505 -3871
v 4990 51.0633 -3873
v 4990 50.2443 -3875
v 4990 49.4805 -3877
v 4990 48.9229 -3879
v 4992 61.5001 -3817
v 4992 61.6483 -3819
v 4992 61.7241 -3821
v 4992 61.7899 -3823
v 4992 61.6964 -3825
v 4992 61.8964 -3827
v 4992 61.9207 -3829
v 4992 62.0624 -3831
v 4992 62.0626 -3833
v 4992 62.1603 -3835
v 4992 62.2016 -3837
v 4992 62.1391 -3839
v 4992 62.0701 -3841
v 4992 61.9221 -3843
v 4992 61.3556 -3845
v 4992 60.4682 -3847
v 4992 59.7257 -3849
v 4992 59.1509 -3851
v 4992 58.5544 -3853
v 4992 57.7343 -3855
v 4992 56.8448 -3857
v 4992 55.8143 -3859
v 4992 54.8536 -3861
v 4992 54.0873 -3863
v 4992 53.3802 -3865
v 4992 52.6063 -3867
v 4992 51.9141 -3869
v 4992 51.275 -3871
v 4992 50.7073 -3873
v 4992 49.4789 -3875
v 4992 48.8207 -3877
v 4992 48.0468 -3879
v 4994 60.9973 -3817
v 4994 61.1299 -3819
v 4994 61.1977 -3821
v 4994 61.2178 -3823
v 4994 61.1909 -3825
v 4994 61.3609 -3827
v 4994 61.5022 -3829
v 4994 61.6452 -3831
v 4994 61.645 -3833
v 4994 61.6604 -3835
v 4994 61.6721 -3837
v 4994 61.579 -3839
v 4994 61.4101 -3841
v 4994 60.8836 -3843
v 4994 60.0548 -3845
v 4994 59.2229 -3847
v 4994 58.6842 -3849
v 4994 58.1026 -3851
v 4994 57.4684 -3853
v 4994 56.4863 -3855
v 4994 55.6924 -3857
v 4994 54.6218 -3859
v 4994 53.7518 -3861
v 4994 53.0723 -3863
v 4994 52.4057 -3865
v 4994 51.6475 -3867
v 4994 51.3171 -3869
v 4994 50.8083 -3871
v 4994 49.8421 -3873
v 4994 48.9942 -3875
v 4994 48.2273 -3877
v 4994 47.1131 -3879
v 4996 60.4199 -3817
v 4996 60.5808 -3819
v 4996 60.6226 -3821
v 4996 60.6353 -3823
v 4996 60.5569 -3825
v 4996 60.7296 -3827
v 4996 60.9619 -3829
v 4996 61.1817 -3831
v 4996 61.1121 -3833
v 4996 61.138 -3835
v 4996 60.9846 -3837
v 4996 60.8347 -3839
v 4996 60.3515 -3841
v 4996 59.6397 -3843
v 4996 58.8294 -3845
v 4996 58.1837 -3847
v 4996 57.6466 -3849
v 4996 57.0682 -3851
v 4996 56.1625 -3853
v 4996 55.3486 -3855
v 4996 54.559 -3857
v 4996 53.7089 -3859
v 4996 52.9723 -3861
v 4996 52.1843 -3863
v 4996 51.6671 -3865
v 4996 50.5544 -3867
v 4996 50.3025 -3869
v 4996 49.64 -3871
v 4996 48.7028 -3873
v 4996 47.6472 -3875
v 4996 46.9142 -3877
v 4996 45.8682 -3879
v 4998 59.847 -3817
v 4998 60.0401 -3819
v 4998 60.2935 -3821
v 4998 60.1702 -3823
v 4998 60.0631 -3825
v 4998 60.4277 -3827
v 4998 60.5702 -3829
v 4998 60.6758 -3831
v 4998 60.6912 -3833
v 4998 60.449 -3835
v 4998 60.2589 -3837
v 4998 59.866 -3839
v 4998 59.1761 -3841
v 4998 58.4443 -3843
v 4998 57.8661 -3845
v 4998 57.2064 -3847
v 4998 56.6878 -3849
v 4998 56.073 -3851
v 4998 55.1697 -3853
v 4998 54.6355 -3855
v 4998 53.9233 -3857
v 4998 53.1227 -3859
v 4998 51.8813 -3861
v 4998 51.7187 -3863
v 4998 51.3252 -3865
v 4998 50.2928 -3867
v 4998 49.836 -3869
v 4998 49.0678 -3871
v 4998 47.9625 -3873
v 4998 47.0494 -3875
v 4998 45.766 -3877
v 4998 45.2397 -3879
v 5000 59.3075 -3817
v 5000 59.757 -3819
v 5000 59.5894 -3821
v 5000 59.4803 -3823
v 5000 59.3325 -3825
v 5000 60.0345 -3827
v 5000 60.0215 -3829
v 5000 60.1853 -3831
v 5000 59.9523 -3833
v 5000 59.553 -3835
v 5000 59.112 -3837
v 5000 58.7424 -3839
v 5000 58.0457 -3841
v 5000 57.3142 -3843
v 5000 56.7274 -3845
v 5000 56.2306 -3847
v 5000 55.6461 -3849
v 5000 55.1522 -3851
v 5000 54.6858 -3853
v 5000 54.1109 -3855
v 5000 53.4633 -3857
v 5000 52.63 -3859
v 5000 51.5414 -3861
v 5000 50.5642 -3863
v 5000 50.0064 -3865
v 5000 49.1099 -3867
v 5000 48.6876 -3869
v 5000 47.6001 -3871
v 5000 47.1522 -3873
v 5000 45.0563 -3875
v 5000 45.4569 -3877
v 5000 44.1685 -3879
v 5002 58.6466 -3817
v 5002 59.0954 -3819
v 5002 59.1298 -3821
v 5002 59.0358 -3823
v 5002 58.879 -3825
v 5002 59.5315 -3827
v 5002 59.6108 -3829
v 5002 59.2884 -3831
v 5002 58.8064 -3833
v 5002 58.4742 -3835
v 5002 58.2831 -3837
v 5002 57.835 -3839
v 5002 56.8559 -3841
v 5002 56.1137 -3843
v 5002 55.6213 -3845
v 5002 55.201 -3847
v 5002 54.6716 -3849
v 5002 54.2915 -3851
v 5002 53.7931 -3853
v 5002 53.3982 -3855
v 5002 52.7776 -3857
v 5002 52.0676 -3859
v 5002 51.4801 -3861
v 5002 50.4936 -3863
v 5002 49.2549 -3865
v 5002 48.5309 -3867
v 5002 47.8444 -3869
v 5002 46.815 -3871
v 5002 45.238 -3873
v 5002 45.1054 -3875
v 5002 44.8861 -3877
v 5002 43.5613 -3879
v 5004 57.8742 -3817
v 5004 58.3597 -3819
v 5004 58.3617 -3821
v 5004 58.4487 -3823
v 5004 58.2424 -3825
v 5004 58.5554 -3827
v 5004 58.3849 -3829
v 5004 58.2417 -3831
v 5004 57.5486 -3833
v 5004 57.3328 -3835
v 5004 56.7522 -3837
v 5004 56.1397 -3839
v 5004 55.3751 -3841
v 5004 55.0246 -3843
v 5004 54.537 -3845
v 5004 54.0776 -3847
v 5004 53.6261 -3849
v 5004 53.2397 -3851
v 5004 52.8128 -3853
v 5004 52.3178 -3855
v 5004 51.8341 -3857
v 5004 51.1193 -3859
v 5004 50.4043 -3861
v 5004 48.8981 -3863
v 5004 48.5317 -3865
v 5004 47.1976 -3867
v 5004 46.854 -3869
v 5004 44.881 -3871
v 5004 44.3261 -3873
v 5004 43.4165 -3875
v 5004 43.508 -3877
v 5004 42.2929 -3879
f 3 2 1
f 9 8 7
f 12 11 10
f 24 23 22
f 6 5 4
f 15 14 13
f 18 17 16
f 21 20 19
f 42 41 40
f 39 38 37
f 36 35 34
f 45 44 43
f 30 29 28
f 48 47 46
f 33 32 31
f 60 59 58
f 57 56 55
f 54 53 52
f 27 26 25
f 51 50 49
f 63 62 61
f 73 77 76
f 72 73 76
f 74 73 72
f 80 79 78
f 81 80 78
f 79 66 67
f 78 79 67
f 75 74 72
f 82 74 75
f 71 69 65
f 65 69 68
f 65 68 64
f 66 65 64
f 67 66 64
f 84 82 75
f 84 83 82
f 83 71 82
f 83 70 71
f 69 71 70
f 85 83 84
f 86 84 75
f 93 92 91
f 105 104 103
f 106 105 103
f 101 100 99
f 102 101 99
f 120 119 118
f 121 120 118
f 116 115 114
f 117 116 114
f 135 134 133
f 136 135 133
f 127 124 128
f 131 130 129
f 132 131 129
f 124 123 122
f 124 127 126
f 109 108 107
f 112 111 110
f 113 112 110
f 124 125 123
f 124 126 125
f 96 95 94
f 90 89 87
f 98 95 96
f 95 98 97
f 89 88 87
f 170 169 168
f 171 170 168
f 179 178 177
f 180 179 177
f 181 180 177
f 190 183 189
f 183 190 188
f 186 188 187
f 186 183 188
f 165 164 163
f 166 165 163
f 167 166 163
f 161 157 160
f 157 154 160
f 183 186 182
f 184 183 182
f 185 183 184
f 194 193 191
f 193 192 191
f 157 156 154
f 156 155 154
f 162 148 161
f 148 157 161
f 196 195 153
f 195 152 153
f 149 156 157
f 148 149 157
f 197 196 159
f 196 153 159
f 153 152 151
f 150 149 148
f 152 150 151
f 146 145 144
f 147 146 144
f 159 153 158
f 153 151 158
f 151 148 162
f 151 150 148
f 158 151 162
f 139 138 137
f 143 142 140
f 142 141 140
f 176 174 175
f 174 176 173
f 174 173 172
f 235 234 233
f 247 246 245
f 248 247 245
f 243 242 241
f 244 243 241
f 214 213 212
f 223 222 221
f 211 210 209
f 217 216 215
f 226 225 224
f 232 231 230
f 229 228 227
f 204 203 202
f 207 206 205
f 208 207 205
f 251 250 249
f 254 253 252
f 255 254 252
f 220 219 218
f 238 237 236
f 201 200 198
f 240 237 238
f 237 240 239
f 200 199 198
f 269 268 267
f 270 268 269
f 271 270 269
f 268 266 267
f 272 270 271
f 273 272 271
f 267 266 265
f 266 264 265
f 257 272 273
f 256 257 273
f 264 263 262
f 265 264 262
f 260 258 259
f 261 260 259
f 258 257 256
f 259 258 256
f 353 352 351
f 354 353 351
f 348 347 346
f 373 366 372
f 366 373 371
f 369 371 370
f 369 366 371
f 362 361 360
f 363 362 360
f 364 363 360
f 349 348 346
f 350 349 346
f 342 297 341
f 299 297 342
f 343 299 342
f 297 295 341
f 297 296 295
f 298 296 297
f 299 298 297
f 366 369 365
f 367 366 365
f 368 366 367
f 296 294 295
f 317 316 315
f 318 316 317
f 319 318 317
f 301 299 343
f 344 301 343
f 341 295 340
f 336 337 322
f 333 337 336
f 316 314 315
f 300 298 299
f 301 300 299
f 295 291 340
f 295 294 291
f 323 336 322
f 332 333 336
f 294 293 291
f 315 314 312
f 303 318 319
f 302 303 319
f 377 376 374
f 334 333 332
f 314 313 312
f 322 321 320
f 323 322 320
f 335 334 332
f 376 375 374
f 321 325 324
f 320 321 324
f 304 303 302
f 285 301 344
f 345 285 344
f 329 331 330
f 310 308 309
f 311 310 309
f 293 292 291
f 285 286 301
f 286 300 301
f 379 378 290
f 380 379 290
f 305 304 302
f 378 289 290
f 328 329 330
f 380 290 339
f 381 380 339
f 327 329 328
f 326 327 328
f 324 325 326
f 308 306 307
f 309 308 307
f 325 327 326
f 306 304 305
f 289 287 288
f 290 289 288
f 287 286 285
f 307 306 305
f 283 282 281
f 284 283 281
f 290 288 338
f 339 290 338
f 288 285 345
f 288 287 285
f 338 288 345
f 276 275 274
f 280 279 277
f 279 278 277
f 357 356 355
f 357 359 356
f 359 357 358
f 391 390 389
f 392 391 389
f 393 391 392
f 394 393 392
f 395 393 394
f 396 395 394
f 397 396 394
f 383 396 397
f 382 383 397
f 387 385 386
f 388 387 386
f 385 384 382
f 386 385 382
f 384 383 382
f 406 405 404
f 425 424 423
f 409 408 407
f 428 427 426
f 402 400 401
f 403 402 401
f 410 408 409
f 427 428 429
f 437 408 410
f 434 433 432
f 400 399 398
f 401 400 398
f 437 436 408
f 436 431 408
f 408 431 430
f 435 433 434
f 416 415 414
f 419 418 417
f 413 412 411
f 422 421 420
f 517 518 519
f 514 518 517
f 524 523 522
f 525 524 522
f 526 525 522
f 503 502 501
f 504 503 501
f 505 504 501
f 530 529 528
f 531 530 528
f 532 531 528
f 527 526 522
f 497 451 496
f 453 451 497
f 498 453 497
f 451 450 449
f 452 450 451
f 453 452 451
f 451 449 496
f 450 448 449
f 471 470 469
f 472 470 471
f 473 472 471
f 455 453 498
f 499 455 498
f 496 449 495
f 518 514 516
f 516 521 518
f 490 491 476
f 487 491 490
f 470 468 469
f 454 452 453
f 455 454 453
f 449 448 446
f 449 446 495
f 477 490 476
f 486 487 490
f 448 447 446
f 469 468 466
f 457 472 473
f 456 457 473
f 488 487 486
f 468 467 466
f 476 475 474
f 477 476 474
f 489 488 486
f 515 514 513
f 516 514 515
f 475 479 478
f 474 475 478
f 458 457 456
f 445 444 443
f 445 443 493
f 494 445 493
f 439 454 455
f 438 439 455
f 438 455 499
f 500 438 499
f 483 485 484
f 464 462 463
f 465 464 463
f 459 458 456
f 444 442 443
f 482 483 484
f 481 483 482
f 480 481 482
f 478 479 480
f 462 460 461
f 463 462 461
f 479 481 480
f 460 458 459
f 440 439 438
f 442 440 441
f 443 442 441
f 461 460 459
f 443 441 492
f 493 443 492
f 441 438 500
f 441 440 438
f 521 516 520
f 492 441 500
f 512 506 507
f 508 507 506
f 509 507 508
f 510 507 509
f 511 507 510
f 587 586 585
f 588 586 587
f 583 582 581
f 584 582 583
f 575 574 573
f 571 570 569
f 570 571 572
f 567 566 565
f 559 558 557
f 558 559 560
f 535 534 533
f 536 534 535
f 566 567 568
f 555 554 553
f 556 554 555
f 547 546 545
f 548 546 547
f 543 542 541
f 544 542 543
f 603 602 601
f 604 602 603
f 599 598 597
f 600 598 599
f 591 590 589
f 576 574 575
f 592 590 591
f 539 538 537
f 540 538 539
f 595 594 593
f 596 594 595
f 579 578 577
f 580 578 579
f 563 562 561
f 562 563 564
f 551 550 549
f 552 550 551
f 638 606 605
f 605 637 638
f 670 638 637
f 637 669 670
f 702 670 669
f 669 701 702
f 734 702 701
f 701 733 734
f 766 734 733
f 733 765 766
f 798 766 765
f 765 797 798
f 830 798 797
f 797 829 830
f 862 830 829
f 829 861 862
f 894 862 861
f 861 893 894
f 926 894 893
f 893 925 926
f 958 926 925
f 925 957 958
f 990 958 957
f 957 989 990
f 1022 990 989
f 989 1021 1022
f 1054 1022 1021
f 1021 1053 1054
f 1086 1054 1053
f 1053 1085 1086
f 1118 1086 1085
f 1085 1117 1118
f 1150 1118 1117
f 1117 1149 1150
f 1182 1150 1149
f 1149 1181 1182
f 1214 1182 1181
f 1181 1213 1214
f 1246 1214 1213
f 1213 1245 1246
f 1278 1246 1245
f 1245 1277 1278
f 1310 1278 1277
f 1277 1309 1310
f 1342 1310 1309
f 1309 1341 1342
f 1374 1342 1341
f 1341 1373 1374
f 1406 1374 1373
f 1373 1405 1406
f 1438 1406 1405
f 1405 1437 1438
f 1470 1438 1437
f 1437 1469 1470
f 1502 1470 1469
f 1469 1501 1502
f 1534 1502 1501
f 1501 1533 1534
f 1566 1534 1533
f 1533 1565 1566
f 1598 1566 1565
f 1565 1597 1598
f 639 607 606
f 606 638 639
f 671 639 638
f 638 670 671
f 703 671 670
f 670 702 703
f 735 703 702
f 702 734 735
f 767 735 734
f 734 766 767
f 799 767 766
f 766 798 799
f 831 799 798
f 798 830 831
f 863 831 830
f 830 862 863
f 895 863 862
f 862 894 895
f 927 895 894
f 894 926 927
f 959 927 926
f 926 958 959
f 991 959 958
f 958 990 991
f 1023 991 990
f 990 1022 1023
f 1055 1023 1022
f 1022 1054 1055
f 1087 1055 1054
f 1054 1086 1087
f 1119 1087 1086
f 1086 1118 1119
f 1151 1119 1118
f 1118 1150 1151
f 1183 1151 1150
f 1150 1182 1183
f 1215 1183 1182
f 1182 1214 1215
f 1247 1215 1214
f 1214 1246 1247
f 1279 1247 1246
f 1246 1278 1279
f 1311 1279 1278
f 1278 1310 1311
f 1343 1311 1310
f 1310 1342 1343
f 1375 1343 1342
f 1342 1374 1375
f 1407 1375 1374
f 1374 1406 1407
f 1439 1407 1406
f 1406 1438 1439
f 1471 1439 1438
f 1438 1470 1471
f 1503 1471 1470
f 1470 1502 1503
f 1535 1503 1502
f 1502 1534 1535
f 1567 1535 1534
f 1534 1566 1567
f 1599 1567 1566
f 1566 1598 1599
f 640 608 607
f 607 639 640
f 672 640 639
f 639 671 672
f 704 672 671
f 671 703 704
f 736 704 703
f 703 735 736
f 768 736 735
f 735 767 768
f 800 768 767
f 767 799 800
f 832 800 799
f 799 831 832
f 864 832 831
f 831 863 864
f 896 864 863
f 863 895 896
f 928 896 895
f 895 927 928
f 960 928 927
f 927 959 960
f 992 960 959
f 959 991 992
f 1024 992 991
f 991 1023 1024
f 1056 1024 1023
f 1023 1055 1056
f 1088 1056 1055
f 1055 1087 1088
f 1120 1088 1087
f 1087 1119 1120
f 1152 1120 1119
f 1119 1151 1152
f 1184 1152 1151
f 1151 1183 1184
f 1216 1184 1183
f 1183 1215 1216
f 1248 1216 1215
f 1215 1247 1248
f 1280 1248 1247
f 1247 1279 1280
f 1312 1280 1279
f 1279 1311 1312
f 1344 1312 1311
f 1311 1343 1344
f 1376 1344 1343
f 1343 1375 1376
f 1408 1376 1375
f 1375 1407 1408
f 1440 1408 1407
f 1407 1439 1440
f 1472 1440 1439
f 1439 1471 1472
f 1504 1472 1471
f 1471 1503 1504
f 1536 1504 1503
f 1503 1535 1536
f 1568 1536 1535
f 1535 1567 1568
f 1600 1568 1567
f 1567 1599 1600
f 641 609 608
f 608 640 641
f 673 641 640
f 640 672 673
f 705 673 672
f 672 704 705
f 737 705 704
f 704 736 737
f 769 737 736
f 736 768 769
f 801 769 768
f 768 800 801
f 833 801 800
f 800 832 833
f 865 833 832
f 832 864 865
f 897 865 864
f 864 896 897
f 929 897 896
f 896 928 929
f 961 929 928
f 928 960 961
f 993 961 960
f 960 992 993
f 1025 993 992
f 992 1024 1025
f 1057 1025 1024
f 1024 1056 1057
f 1089 1057 1056
f 1056 1088 1089
f 1121 1089 1088
f 1088 1120 1121
f 1153 1121 1120
f 1120 1152 1153
f 1185 1153 1152
f 1152 1184 1185
f 1217 1185 1184
f 1184 1216 1217
f 1249 1217 1216
f 1216 1248 1249
f 1281 1249 1248
f 1248 1280 1281
f 1313 1281 1280
f 1280 1312 1313
f 1345 1313 1312
f 1312 1344 1345
f 1377 1345 1344
f 1344 1376 1377
f 1409 1377 1376
f 1376 1408 1409
f 1441 1409 1408
f 1408 1440 1441
f 1473 1441 1440
f 1440 1472 1473
f 1505 1473 1472
f 1472 1504 1505
f 1537 1505 1504
f 1504 1536 1537
f 1569 1537 1536
f 1536 1568 1569
f 1601 1569 1568
f 1568 1600 1601
f 642 610 609
f 609 641 642
f 674 642 641
f 641 673 674
f 706 674 673
f 673 705 706
f 738 706 705
f 705 737 738
f 770 738 737
f 737 769 770
f 802 770 769
f 769 801 802
f 834 802 801
f 801 833 834
f 866 834 833
f 833 865 866
f 898 866 865
f 865 897 898
f 930 898 897
f 897 929 930
f 962 930 929
f 929 961 962
f 994 962 961
f 961 993 994
f 1026 994 993
f 993 1025 1026
f 1058 1026 1025
f 1025 1057 1058
f 1090 1058 1057
f 1057 1089 1090
f 1122 1090 1089
f 1089 1121 1122
f 1154 1122 1121
f 1121 1153 1154
f 1186 1154 1153
f 1153 1185 1186
f 1218 1186 1185
f 1185 1217 1218
f 1250 1218 1217
f 1217 1249 1250
f 1282 1250 1249
f 1249 1281 1282
f 1314 1282 1281
f 1281 1313 1314
f 1346 1314 1313
f 1313 1345 1346
f 1378 1346 1345
f 1345 1377 1378
f 1410 1378 1377
f 1377 1409 1410
f 1442 1410 1409
f 1409 1441 1442
f 1474 1442 1441
f 1441 1473 1474
f 1506 1474 1473
f 1473 1505 1506
f 1538 1506 1505
f 1505 1537 1538
f 1570 1538 1537
f 1537 1569 1570
f 1602 1570 1569
f 1569 1601 1602
f 643 611 610
f 610 642 643
f 675 643 642
f 642 674 675
f 707 675 674
f 674 706 707
f 739 707 706
f 706 738 739
f 771 739 738
f 738 770 771
f 803 771 770
f 770 802 803
f 835 803 802
f 802 834 835
f 867 835 834
f 834 866 867
f 899 867 866
f 866 898 899
f 931 899 898
f 898 930 931
f 963 931 930
f 930 962 963
f 995 963 962
f 962 994 995
f 1027 995 994
f 994 1026 1027
f 1059 1027 1026
f 1026 1058 1059
f 1091 1059 1058
f 1058 1090 1091
f 1123 1091 1090
f 1090 1122 1123
f 1155 1123 1122
f 1122 1154 1155
f 1187 1155 1154
f 1154 1186 1187
f 1219 1187 1186
f 1186 1218 1219
f 1251 1219 1218
f 1218 1250 1251
f 1283 1251 1250
f 1250 1282 1283
f 1315 1283 1282
f 1282 1314 1315
f 1347 1315 1314
f 1314 1346 1347
f 1379 1347 1346
f 1346 1378 1379
f 1411 1379 1378
f 1378 1410 1411
f 1443 1411 1410
f 1410 1442 1443
f 1475 1443 1442
f 1442 1474 1475
f 1507 1475 1474
f 1474 1506 1507
f 1539 1507 1506
f 1506 1538 1539
f 1571 1539 1538
f 1538 1570 1571
f 1603 1571 1570
f 1570 1602 1603
f 644 612 611
f 611 643 644
f 676 644 643
f 643 675 676
f 708 676 675
f 675 707 708
f 740 708 707
f 707 739 740
f 772 740 739
f 739 771 772
f 804 772 771
f 771 803 804
f 836 804 803
f 803 835 836
f 868 836 835
f 835 867 868
f 900 868 867
f 867 899 900
f 932 900 899
f 899 931 932
f 964 932 931
f 931 963 964
f 996 964 963
f 963 995 996
f 1028 996 995
f 995 1027 1028
f 1060 1028 1027
f 1027 1059 1060
f 1092 1060 1059
f 1059 1091 1092
f 1124 1092 1091
f 1091 1123 1124
f 1156 1124 1123
f 1123 1155 1156
f 1188 1156 1155
f 1155 1187 1188
f 1220 1188 1187
f 1187 1219 1220
f 1252 1220 1219
f 1219 1251 1252
f 1284 1252 1251
f 1251 1283 1284
f 1316 1284 1283
f 1283 1315 1316
f 1348 1316 1315
f 1315 1347 1348
f 1380 1348 1347
f 1347 1379 1380
f 1412 1380 1379
f 1379 1411 1412
f 1444 1412 1411
f 1411 1443 1444
f 1476 1444 1443
f 1443 1475 1476
f 1508 1476 1475
f 1475 1507 1508
f 1540 1508 1507
f 1507 1539 1540
f 1572 1540 1539
f 1539 1571 1572
f 1604 1572 1571
f 1571 1603 1604
f 645 613 612
f 612 644 645
f 677 645 644
f 644 676 677
f 709 677 676
f 676 708 709
f 741 709 708
f 708 740 741
f 773 741 740
f 740 772 773
f 805 773 772
f 772 804 805
f 837 805 804
f 804 836 837
f 869 837 836
f 836 868 869
f 901 869 868
f 868 900 901
f 933 901 900
f 900 932 933
f 965 933 932
f 932 964 965
f 997 965 964
f 964 996 997
f 1029 997 996
f 996 1028 1029
f 1061 1029 1028
f 1028 1060 1061
f 1093 1061 1060
f 1060 1092 1093
f 1125 1093 1092
f 1092 1124 1125
f 1157 1125 1124
f 1124 1156 1157
f 1189 1157 1156
f 1156 1188 1189
f 1221 1189 1188
f 1188 1220 1221
f 1253 1221 1220
f 1220 1252 1253
f 1285 1253 1252
f 1252 1284 1285
f 1317 1285 1284
f 1284 1316 1317
f 1349 1317 1316
f 1316 1348 1349
f 1381 1349 1348
f 1348 1380 1381
f 1413 1381 1380
f 1380 1412 1413
f 1445 1413 1412
f 1412 1444 1445
f 1477 1445 1444
f 1444 1476 1477
f 1509 1477 1476
f 1476 1508 1509
f 1541 1509 1508
f 1508 1540 1541
f 1573 1541 1540
f 1540 1572 1573
f 1605 1573 1572
f 1572 1604 1605
f 646 614 613
f 613 645 646
f 678 646 645
f 645 677 678
f 710 678 677
f 677 709 710
f 742 710 709
f 709 741 742
f 774 742 741
f 741 773 774
f 806 774 773
f 773 805 806
f 838 806 805
f 805 837 838
f 870 838 837
f 837 869 870
f 902 870 869
f 869 901 902
f 934 902 901
f 901 933 934
f 966 934 933
f 933 965 966
f 998 966 965
f 965 997 998
f 1030 998 997
f 997 1029 1030
f 1062 1030 1029
f 1029 1061 1062
f 1094 1062 1061
f 1061 1093 1094
f 1126 1094 1093
f 1093 1125 1126
f 1158 1126 1125
f 1125 1157 1158
f 1190 1158 1157
f 1157 1189 1190
f 1222 1190 1189
f 1189 1221 1222
f 1254 1222 1221
f 1221 1253 1254
f 1286 1254 1253
f 1253 1285 1286
f 1318 1286 1285
f 1285 1317 1318
f 1350 1318 1317
f 1317 1349 1350
f 1382 1350 1349
f 1349 1381 1382
f 1414 1382 1381
f 1381 1413 1414
f 1446 1414 1413
f 1413 1445 1446
f 1478 1446 1445
f 1445 1477 1478
f 1510 1478 1477
f 1477 1509 1510
f 1542 1510 1509
f 1509 1541 1542
f 1574 1542 1541
f 1541 1573 1574
f 1606 1574 1573
f 1573 1605 1606
f 647 615 614
f 614 646 647
f 679 647 646
f 646 678 679
f 711 679 678
f 678 710 711
f 743 711 710
f 710 742 743
f 775 743 742
f 742 774 775
f 807 775 774
f 774 806 807
f 839 807 806
f 806 838 839
f 871 839 838
f 838 870 871
f 903 871 870
f 870 902 903
f 935 903 902
f 902 934 935
f 967 935 934
f 934 966 967
f 999 967 966
f 966 998 999
f 1031 999 998
f 998 1030 1031
f 1063 1031 1030
f 1030 1062 1063
f 1095 1063 1062
f 1062 1094 1095
f 1127 1095 1094
f 1094 1126 1127
f 1159 1127 1126
f 1126 1158 1159
f 1191 1159 1158
f 1158 1190 1191
f 1223 1191 1190
f 1190 1222 1223
f 1255 1223 1222
f 1222 1254 1255
f 1287 1255 1254
f 1254 1286 1287
f 1319 1287 1286
f 1286 1318 1319
f 1351 1319 1318
f 1318 1350 1351
f 1383 1351 1350
f 1350 1382 1383
f 1415 1383 1382
f 1382 1414 1415
f 1447 1415 1414
f 1414 1446 1447
f 1479 1447 1446
f 1446 1478 1479
f 1511 1479 1478
f 1478 1510 1511
f 1543 1511 1510
f 1510 1542 1543
f 1575 1543 1542
f 1542 1574 1575
f 1607 1575 1574
f 1574 1606 1607
f 648 616 615
f 615 647 648
f 680 648 647
f 647 679 680
f 712 680 679
f 679 711 712
f 744 712 711
f 711 743 744
f 776 744 743
f 743 775 776
f 808 776 775
f 775 807 808
f 840 808 807
f 807 839 840
f 872 840 839
f 839 871 872
f 904 872 871
f 871 903 904
f 936 904 903
f 903 935 936
f 968 936 935
f 935 967 968
f 1000 968 967
f 967 999 1000
f 1032 1000 999
f 999 1031 1032
f 1064 1032 1031
f 1031 1063 1064
f 1096 1064 1063
f 1063 1095 1096
f 1128 1096 1095
f 1095 1127 1128
f 1160 1128 1127
f 1127 1159 1160
f 1192 1160 1159
f 1159 1191 1192
f 1224 1192 1191
f 1191 1223 1224
f 1256 1224 1223
f 1223 1255 1256
f 1288 1256 1255
f 1255 1287 1288
f 1320 1288 1287
f 1287 1319 1320
f 1352 1320 1319
f 1319 1351 1352
f 1384 1352 1351
f 1351 1383 1384
f 1416 1384 1383
f 1383 1415 1416
f 1448 1416 1415
f 1415 1447 1448
f 1480 1448 1447
f 1447 1479 1480
f 1512 1480 1479
f 1479 1511 1512
f 1544 1512 1511
f 1511 1543 1544
f 1576 1544 1543
f 1543 1575 1576
f 1608 1576 1575
f 1575 1607 1608
f 649 617 616
f 616 648 649
f 681 649 648
f 648 680 681
f 713 681 680
f 680 712 713
f 745 713 712
f 712 744 745
f 777 745 744
f 744 776 777
f 809 777 776
f 776 808 809
f 841 809 808
f 808 840 841
f 873 841 840
f 840 872 873
f 905 873 872
f 872 904 905
f 937 905 904
f 904 936 937
f 969 937 936
f 936 968 969
f 1001 969 968
f 968 1000 1001
f 1033 1001 1000
f 1000 1032 1033
f 1065 1033 1032
f 1032 1064 1065
f 1097 1065 1064
f 1064 1096 1097
f 1129 1097 1096
f 1096 1128 1129
f 1161 1129 1128
f 1128 1160 1161
f 1193 1161 1160
f 1160 1192 1193
f 1225 1193 1192
f 1192 1224 1225
f 1257 1225 1224
f 1224 1256 1257
f 1289 1257 1256
f 1256 1288 1289
f 1321 1289 1288
f 1288 1320 1321
f 1353 1321 1320
f 1320 1352 1353
f 1385 1353 1352
f 1352 1384 1385
f 1417 1385 1384
f 1384 1416 1417
f 1449 1417 1416
f 1416 1448 1449
f 1481 1449 1448
f 1448 1480 1481
f 1513 1481 1480
f 1480 1512 1513
f 1545 1513 1512
f 1512 1544 1545
f 1577 1545 1544
f 1544 1576 1577
f 1609 1577 1576
f 1576 1608 1609
f 650 618 617
f 617 649 650
f 682 650 649
f 649 681 682
f 714 682 681
f 681 713 714
f 746 714 713
f 713 745 746
f 778 746 745
f 745 777 778
f 810 778 777
f 777 809 810
f 842 810 809
f 809 841 842
f 874 842 841
f 841 873 874
f 906 874 873
f 873 905 906
f 938 906 905
f 905 937 938
f 970 938 937
f 937 969 970
f 1002 970 969
f 969 1001 1002
f 1034 1002 1001
f 1001 1033 1034
f 1066 1034 1033
f 1033 1065 1066
f 1098 1066 1065
f 1065 1097 1098
f 1130 1098 1097
f 1097 1129 1130
f 1162 1130 1129
f 1129 1161 1162
f 1194 1162 1161
f 1161 1193 1194
f 1226 1194 1193
f 1193 1225 1226
f 1258 1226 1225
f 1225 1257 1258
f 1290 1258 1257
f 1257 1289 1290
f 1322 1290 1289
f 1289 1321 1322
f 1354 1322 1321
f 1321 1353 1354
f 1386 1354 1353
f 1353 1385 1386
f 1418 1386 1385
f 1385 1417 1418
f 1450 1418 1417
f 1417 1449 1450
f 1482 1450 1449
f 1449 1481 1482
f 1514 1482 1481
f 1481 1513 1514
f 1546 1514 1513
f 1513 1545 1546
f 1578 1546 1545
f 1545 1577 1578
f 1610 1578 1577
f 1577 1609 1610
f 651 619 618
f 618 650 651
f 683 651 650
f 650 682 683
f 715 683 682
f 682 714 715
f 747 715 714
f 714 746 747
f 779 747 746
f 746 778 779
f 811 779 778
f 778 810 811
f 843 811 810
f 810 842 843
f 875 843 842
f 842 874 875
f 907 875 874
f 874 906 907
f 939 907 906
f 906 938 939
f 971 939 938
f 938 970 971
f 1003 971 970
f 970 1002 1003
f 1035 1003 1002
f 1002 1034 1035
f 1067 1035 1034
f 1034 1066 1067
f 1099 1067 1066
f 1066 1098 1099
f 1131 1099 1098
f 1098 1130 1131
f 1163 1131 1130
f 1130 1162 1163
f 1195 1163 1162
f 1162 1194 1195
f 1227 1195 1194
f 1194 1226 1227
f 1259 1227 1226
f 1226 1258 1259
f 1291 1259 1258
f 1258 1290 1291
f 1323 1291 1290
f 1290 1322 1323
f 1355 1323 1322
f 1322 1354 1355
f 1387 1355 1354
f 1354 1386 1387
f 1419 1387 1386
f 1386 1418 1419
f 1451 1419 1418
f 1418 1450 1451
f 1483 1451 1450
f 1450 1482 1483
f 1515 1483 1482
f 1482 1514 1515
f 1547 1515 1514
f 1514 1546 1547
f 1579 1547 1546
f 1546 1578 1579
f 1611 1579 1578
f 1578 1610 1611
f 652 620 619
f 619 651 652
f 684 652 651
f 651 683 684
f 716 684 683
f 683 715 716
f 748 716 715
f 715 747 748
f 780 748 747
f 747 779 780
f 812 780 779
f 779 811 812
f 844 812 811
f 811 843 844
f 876 844 843
f 843 875 876
f 908 876 875
f 875 907 908
f 940 908 907
f 907 939 940
f 972 940 939
f 939 971 972
f 1004 972 971
f 971 1003 1004
f 1036 1004 1003
f 1003 1035 1036
f 1068 1036 1035
f 1035 1067 1068
f 1100 1068 1067
f 1067 1099 1100
f 1132 1100 1099
f 1099 1131 1132
f 1164 1132 1131
f 1131 1163 1164
f 1196 1164 1163
f 1163 1195 1196
f 1228 1196 1195
f 1195 1227 1228
f 1260 1228 1227
f 1227 1259 1260
f 1292 1260 1259
f 1259 1291 1292
f 1324 1292 1291
f 1291 1323 1324
f 1356 1324 1323
f 1323 1355 1356
f 1388 1356 1355
f 1355 1387 1388
f 1420 1388 1387
f 1387 1419 1420
f 1452 1420 1419
f 1419 1451 1452
f 1484 1452 1451
f 1451 1483 1484
f 1516 1484 1483
f 1483 1515 1516
f 1548 1516 1515
f 1515 1547 1548
f 1580 1548 1547
f 1547 1579 1580
f 1612 1580 1579
f 1579 1611 1612
f 653 621 620
f 620 652 653
f 685 653 652
f 652 684 685
f 717 685 684
f 684 716 717
f 749 717 716
f 716 748 749
f 781 749 748
f 748 780 781
f 813 781 780
f 780 812 813
f 845 813 812
f 812 844 845
f 877 845 844
f 844 876 877
f 909 877 876
f 876 908 909
f 941 909 908
f 908 940 941
f 973 941 940
f 940 972 973
f 1005 973 972
f 972 1004 1005
f 1037 1005 1004
f 1004 1036 1037
f 1069 1037 1036
f 1036 1068 1069
f 1101 1069 1068
f 1068 1100 1101
f 1133 1101 1100
f 1100 1132 1133
f 1165 1133 1132
f 1132 1164 1165
f 1197 1165 1164
f 1164 1196 1197
f 1229 1197 1196
f 1196 1228 1229
f 1261 1229 1228
f 1228 1260 1261
f 1293 1261 1260
f 1260 1292 1293
f 1325 1293 1292
f 1292 1324 1325
f 1357 1325 1324
f 1324 1356 1357
f 1389 1357 1356
f 1356 1388 1389
f 1421 1389 1388
f 1388 1420 1421
f 1453 1421 1420
f 1420 1452 1453
f 1485 1453 1452
f 1452 1484 1485
f 1517 1485 1484
f 1484 1516 1517
f 1549 1517 1516
f 1516 1548 1549
f 1581 1549 1548
f 1548 1580 1581
f 1613 1581 1580
f 1580 1612 1613
f 654 622 621
f 621 653 654
f 686 654 653
f 653 685 686
f 718 686 685
f 685 717 718
f 750 718 717
f 717 749 750
f 782 750 749
f 749 781 782
f 814 782 781
f 781 813 814
f 846 814 813
f 813 845 846
f 878 846 845
f 845 877 878
f 910 878 877
f 877 909 910
f 942 910 909
f 909 941 942
f 974 942 941
f 941 973 974
f 1006 974 973
f 973 1005 1006
f 1038 1006 1005
f 1005 1037 1038
f 1070 1038 1037
f 1037 1069 1070
f 1102 1070 1069
f 1069 1101 1102
f 1134 1102 1101
f 1101 1133 1134
f 1166 1134 1133
f 1133 1165 1166
f 1198 1166 1165
f 1165 1197 1198
f 1230 1198 1197
f 1197 1229 1230
f 1262 1230 1229
f 1229 1261 1262
f 1294 1262 1261
f 1261 1293 1294
f 1326 1294 1293
f 1293 1325 1326
f 1358 1326 1325
f 1325 1357 1358
f 1390 1358 1357
f 1357 1389 1390
f 1422 1390 1389
f 1389 1421 1422
f 1454 1422 1421
f 1421 1453 1454
f 1486 1454 1453
f 1453 1485 1486
f 1518 1486 1485
f 1485 1517 1518
f 1550 1518 1517
f 1517 1549 1550
f 1582 1550 1549
f 1549 1581 1582
f 1614 1582 1581
f 1581 1613 1614
f 655 623 622
f 622 654 655
f 687 655 654
f 654 686 687
f 719 687 686
f 686 718 719
f 751 719 718
f 718 750 751
f 783 751 750
f 750 782 783
f 815 783 782
f 782 814 815
f 847 815 814
f 814 846 847
f 879 847 846
f 846 878 879
f 911 879 878
f 878 910 911
f 943 911 910
f 910 942 943
f 975 943 942
f 942 974 975
f 1007 975 974
f 974 1006 1007
f 1039 1007 1006
f 1006 1038 1039
f 1071 1039 1038
f 1038 1070 1071
f 1103 1071 1070
f 1070 1102 1103
f 1135 1103 1102
f 1102 1134 1135
f 1167 1135 1134
f 1134 1166 1167
f 1199 1167 1166
f 1166 1198 1199
f 1231 1199 1198
f 1198 1230 1231
f 1263 1231 1230
f 1230 1262 1263
f 1295 1263 1262
f 1262 1294 1295
f 1327 1295 1294
f 1294 1326 1327
f 1359 1327 1326
f 1326 1358 1359
f 1391 1359 1358
f 1358 1390 1391
f 1423 1391 1390
f 1390 1422 1423
f 1455 1423 1422
f 1422 1454 1455
f 1487 1455 1454
f 1454 1486 1487
f 1519 1487 1486
f 1486 1518 1519
f 1551 1519 1518
f 1518 1550 1551
f 1583 1551 1550
f 1550 1582 1583
f 1615 1583 1582
f 1582 1614 1615
f 656 624 623
f 623 655 656
f 688 656 655
f 655 687 688
f 720 688 687
f 687 719 720
f 752 720 719
f 719 751 752
f 784 752 751
f 751 783 784
f 816 784 783
f 783 815 816
f 848 816 815
f 815 847 848
f 880 848 847
f 847 879 880
f 912 880 879
f 879 911 912
f 944 912 911
f 911 943 944
f 976 944 943
f 943 975 976
f 1008 976 975
f 975 1007 1008
f 1040 1008 1007
f 1007 1039 1040
f 1072 1040 1039
f 1039 1071 1072
f 1104 1072 1071
f 1071 1103 1104
f 1136 1104 1103
f 1103 1135 1136
f 1168 1136 1135
f 1135 1167 1168
f 1200 1168 1167
f 1167 1199 1200
f 1232 1200 1199
f 1199 1231 1232
f 1264 1232 1231
f 1231 1263 1264
f 1296 1264 1263
f 1263 1295 1296
f 1328 1296 1295
f 1295 1327 1328
f 1360 1328 1327
f 1327 1359 1360
f 1392 1360 1359
f 1359 1391 1392
f 1424 1392 1391
f 1391 1423 1424
f 1456 1424 1423
f 1423 1455 1456
f 1488 1456 1455
f 1455 1487 1488
f 1520 1488 1487
f 1487 1519 1520
f 1552 1520 1519
f 1519 1551 1552
f 1584 1552 1551
f 1551 1583 1584
f 1616 1584 1583
f 1583 1615 1616
f 657 625 624
f 624 656 657
f 689 657 656
f 656 688 689
f 721 689 688
f 688 720 721
f 753 721 720
f 720 752 753
f 785 753 752
f 752 784 785
f 817 785 784
f 784 816 817
f 849 817 816
f 816 848 849
f 881 849 848
f 848 880 881
f 913 881 880
f 880 912 913
f 945 913 912
f 912 944 945
f 977 945 944
f 944 976 977
f 1009 977 976
f 976 1008 1009
f 1041 1009 1008
f 1008 1040 1041
f 1073 1041 1040
f 1040 1072 1073
f 1105 1073 1072
f 1072 1104 1105
f 1137 1105 1104
f 1104 1136 1137
f 1169 1137 1136
f 1136 1168 1169
f 1201 1169 1168
f 1168 1200 1201
f 1233 1201 1200
f 1200 1232 1233
f 1265 1233 1232
f 1232 1264 1265
f 1297 1265 1264
f 1264 1296 1297
f 1329 1297 1296
f 1296 1328 1329
f 1361 1329 1328
f 1328 1360 1361
f 1393 1361 1360
f 1360 1392 1393
f 1425 1393 1392
f 1392 1424 1425
f 1457 1425 1424
f 1424 1456 1457
f 1489 1457 1456
f 1456 1488 1489
f 1521 1489 1488
f 1488 1520 1521
f 1553 1521 1520
f 1520 1552 1553
f 1585 1553 1552
f 1552 1584 1585
f 1617 1585 1584
f 1584 1616 1617
f 658 626 625
f 625 657 658
f 690 658 657
f 657 689 690
f 722 690 689
f 689 721 722
f 754 722 721
f 721 753 754
f 786 754 753
f 753 785 786
f 818 786 785
f 785 817 818
f 850 818 817
f 817 849 850
f 882 850 849
f 849 881 882
f 914 882 881
f 881 913 914
f 946 914 913
f 913 945 946
f 978 946 945
f 945 977 978
f 1010 978 977
f 977 1009 1010
f 1042 1010 1009
f 1009 1041 1042
f 1074 1042 1041
f 1041 1073 1074
f 1106 1074 1073
f 1073 1105 1106
f 1138 1106 1105
f 1105 1137 1138
f 1170 1138 1137
f 1137 1169 1170
f 1202 1170 1169
f 1169 1201 1202
f 1234 1202 1201
f 1201 1233 1234
f 1266 1234 1233
f 1233 1265 1266
f 1298 1266 1265
f 1265 1297 1298
f 1330 1298 1297
f 1297 1329 1330
f 1362 1330 1329
f 1329 1361 1362
f 1394 1362 1361
f 1361 1393 1394
f 1426 1394 1393
f 1393 1425 1426
f 1458 1426 1425
f 1425 1457 1458
f 1490 1458 1457
f 1457 1489 1490
f 1522 1490 1489
f 1489 1521 1522
f 1554 1522 1521
f 1521 1553 1554
f 1586 1554 1553
f 1553 1585 1586
f 1618 1586 1585
f 1585 1617 1618
f 659 627 626
f 626 658 659
f 691 659 658
f 658 690 691
f 723 691 690
f 690 722 723
f 755 723 722
f 722 754 755
f 787 755 754
f 754 786 787
f 819 787 786
f 786 818 819
f 851 819 818
f 818 850 851
f 883 851 850
f 850 882 883
f 915 883 882
f 882 914 915
f 947 915 914
f 914 946 947
f 979 947 946
f 946 978 979
f 1011 979 978
f 978 1010 1011
f 1043 1011 1010
f 1010 1042 1043
f 1075 1043 1042
f 1042 1074 1075
f 1107 1075 1074
f 1074 1106 1107
f 1139 1107 1106
f 1106 1138 1139
f 1171 1139 1138
f 1138 1170 1171
f 1203 1171 1170
f 1170 1202 1203
f 1235 1203 1202
f 1202 1234 1235
f 1267 1235 1234
f 1234 1266 1267
f 1299 1267 1266
f 1266 1298 1299
f 1331 1299 1298
f 1298 1330 1331
f 1363 1331 1330
f 1330 1362 1363
f 1395 1363 1362
f 1362 1394 1395
f 1427 1395 1394
f 1394 1426 1427
f 1459 1427 1426
f 1426 1458 1459
f 1491 1459 1458
f 1458 1490 1491
f 1523 1491 1490
f 1490 1522 1523
f 1555 1523 1522
f 1522 1554 1555
f 1587 1555 1554
f 1554 1586 1587
f 1619 1587 1586
f 1586 1618 1619
f 660 628 627
f 627 659 660
f 692 660 659
f 659 691 692
f 724 692 691
f 691 723 724
f 756 724 723
f 723 755 756
f 788 756 755
f 755 787 788
f 820 788 787
f 787 819 820
f 852 820 819
f 819 851 852
f 884 852 851
f 851 883 884
f 916 884 883
f 883 915 916
f 948 916 915
f 915 947 948
f 980 948 947
f 947 979 980
f 1012 980 979
f 979 1011 1012
f 1044 1012 1011
f 1011 1043 1044
f 1076 1044 1043
f 1043 1075 1076
f 1108 1076 1075
f 1075 1107 1108
f 1140 1108 1107
f 1107 1139 1140
f 1172 1140 1139
f 1139 1171 1172
f 1204 1172 1171
f 1171 1203 1204
f 1236 1204 1203
f 1203 1235 1236
f 1268 1236 1235
f 1235 1267 1268
f 1300 1268 1267
f 1267 1299 1300
f 1332 1300 1299
f 1299 1331 1332
f 1364 1332 1331
f 1331 1363 1364
f 1396 1364 1363
f 1363 1395 1396
f 1428 1396 1395
f 1395 1427 1428
f 1460 1428 1427
f 1427 1459 1460
f 1492 1460 1459
f 1459 1491 1492
f 1524 1492 1491
f 1491 1523 1524
f 1556 1524 1523
f 1523 1555 1556
f 1588 1556 1555
f 1555 1587 1588
f 1620 1588 1587
f 1587 1619 1620
f 661 629 628
f 628 660 661
f 693 661 660
f 660 692 693
f 725 693 692
f 692 724 725
f 757 725 724
f 724 756 757
f 789 757 756
f 756 788 789
f 821 789 788
f 788 820 821
f 853 821 820
f 820 852 853
f 885 853 852
f 852 884 885
f 917 885 884
f 884 916 917
f 949 917 916
f 916 948 949
f 981 949 948
f 948 980 981
f 1013 981 980
f 980 1012 1013
f 1045 1013 1012
f 1012 1044 1045
f 1077 1045 1044
f 1044 1076 1077
f 1109 1077 1076
f 1076 1108 1109
f 1141 1109 1108
f 1108 1140 1141
f 1173 1141 1140
f 1140 1172 1173
f 1205 1173 1172
f 1172 1204 1205
f 1237 1205 1204
f 1204 1236 1237
f 1269 1237 1236
f 1236 1268 1269
f 1301 1269 1268
f 1268 1300 1301
f 1333 1301 1300
f 1300 1332 1333
f 1365 1333 1332
f 1332 1364 1365
f 1397 1365 1364
f 1364 1396 1397
f 1429 1397 1396
f 1396 1428 1429
f 1461 1429 1428
f 1428 1460 1461
f 1493 1461 1460
f 1460 1492 1493
f 1525 1493 1492
f 1492 1524 1525
f 1557 1525 1524
f 1524 1556 1557
f 1589 1557 1556
f 1556 1588 1589
f 1621 1589 1588
f 1588 1620 1621
f 662 630 629
f 629 661 662
f 694 662 661
f 661 693 694
f 726 694 693
f 693 725 726
f 758 726 725
f 725 757 758
f 790 758 757
f 757 789 790
f 822 790 789
f 789 821 822
f 854 822 821
f 821 853 854
f 886 854 853
f 853 885 886
f 918 886 885
f 885 917 918
f 950 918 917
f 917 949 950
f 982 950 949
f 949 981 982
f 1014 982 981
f 981 1013 1014
f 1046 1014 1013
f 1013 1045 1046
f 1078 1046 1045
f 1045 1077 1078
f 1110 1078 1077
f 1077 1109 1110
f 1142 1110 1109
f 1109 1141 1142
f 1174 1142 1141
f 1141 1173 1174
f 1206 1174 1173
f 1173 1205 1206
f 1238 1206 1205
f 1205 1237 1238
f 1270 1238 1237
f 1237 1269 1270
f 1302 1270 1269
f 1269 1301 1302
f 1334 1302 1301
f 1301 1333 1334
f 1366 1334 1333
f 1333 1365 1366
f 1398 1366 1365
f 1365 1397 1398
f 1430 1398 1397
f 1397 1429 1430
f 1462 1430 1429
f 1429 1461 1462
f 1494 1462 1461
f 1461 1493 1494
f 1526 1494 1493
f 1493 1525 1526
f 1558 1526 1525
f 1525 1557 1558
f 1590 1558 1557
f 1557 1589 1590
f 1622 1590 1589
f 1589 1621 1622
f 663 631 630
f 630 662 663
f 695 663 662
f 662 694 695
f 727 695 694
f 694 726 727
f 759 727 726
f 726 758 759
f 791 759 758
f 758 790 791
f 823 791 790
f 790 822 823
f 855 823 822
f 822 854 855
f 887 855 854
f 854 886 887
f 919 887 886
f 886 918 919
f 951 919 918
f 918 950 951
f 983 951 950
f 950 982 983
f 1015 983 982
f 982 1014 1015
f 1047 1015 1014
f 1014 1046 1047
f 1079 1047 1046
f 1046 1078 1079
f 1111 1079 1078
f 1078 1110 1111
f 1143 1111 1110
f 1110 1142 1143
f 1175 1143 1142
f 1142 1174 1175
f 1207 1175 1174
f 1174 1206 1207
f 1239 1207 1206
f 1206 1238 1239
f 1271 1239 1238
f 1238 1270 1271
f 1303 1271 1270
f 1270 1302 1303
f 1335 1303 1302
f 1302 1334 1335
f 1367 1335 1334
f 1334 1366 1367
f 1399 1367 1366
f 1366 1398 1399
f 1431 1399 1398
f 1398 1430 1431
f 1463 1431 1430
f 1430 1462 1463
f 1495 1463 1462
f 1462 1494 1495
f 1527 1495 1494
f 1494 1526 1527
f 1559 1527 1526
f 1526 1558 1559
f 1591 1559 1558
f 1558 1590 1591
f 1623 1591 1590
f 1590 1622 1623
f 664 632 631
f 631 663 664
f 696 664 663
f 663 695 696
f 728 696 695
f 695 727 728
f 760 728 727
f 727 759 760
f 792 760 759
f 759 791 792
f 824 792 791
f 791 823 824
f 856 824 823
f 823 855 856
f 888 856 855
f 855 887 888
f 920 888 887
f 887 919 920
f 952 920 919
f 919 951 952
f 984 952 951
f 951 983 984
f 1016 984 983
f 983 1015 1016
f 1048 1016 1015
f 1015 1047 1048
f 1080 1048 1047
f 1047 1079 1080
f 1112 1080 1079
f 1079 1111 1112
f 1144 1112 1111
f 1111 1143 1144
f 1176 1144 1143
f 1143 1175 1176
f 1208 1176 1175
f 1175 1207 1208
f 1240 1208 1207
f 1207 1239 1240
f 1272 1240 1239
f 1239 1271 1272
f 1304 1272 1271
f 1271 1303 1304
f 1336 1304 1303
f 1303 1335 1336
f 1368 1336 1335
f 1335 1367 1368
f 1400 1368 1367
f 1367 1399 1400
f 1432 1400 1399
f 1399 1431 1432
f 1464 1432 1431
f 1431 1463 1464
f 1496 1464 1463
f 1463 1495 1496
f 1528 1496 1495
f 1495 1527 1528
f 1560 1528 1527
f 1527 1559 1560
f 1592 1560 1559
f 1559 1591 1592
f 1624 1592 1591
f 1591 1623 1624
f 665 633 632
f 632 664 665
f 697 665 664
f 664 696 697
f 729 697 696
f 696 728 729
f 761 729 728
f 728 760 761
f 793 761 760
f 760 792 793
f 825 793 792
f 792 824 825
f 857 825 824
f 824 856 857
f 889 857 856
f 856 888 889
f 921 889 888
f 888 920 921
f 953 921 920
f 920 952 953
f 985 953 952
f 952 984 985
f 1017 985 984
f 984 1016 1017
f 1049 1017 1016
f 1016 1048 1049
f 1081 1049 1048
f 1048 1080 1081
f 1113 1081 1080
f 1080 1112 1113
f 1145 1113 1112
f 1112 1144 1145
f 1177 1145 1144
f 1144 1176 1177
f 1209 1177 1176
f 1176 1208 1209
f 1241 1209 1208
f 1208 1240 1241
f 1273 1241 1240
f 1240 1272 1273
f 1305 1273 1272
f 1272 1304 1305
f 1337 1305 1304
f 1304 1336 1337
f 1369 1337 1336
f 1336 1368 1369
f 1401 1369 1368
f 1368 1400 1401
f 1433 1401 1400
f 1400 1432 1433
f 1465 1433 1432
f 1432 1464 1465
f 1497 1465 1464
f 1464 1496 1497
f 1529 1497 1496
f 1496 1528 1529
f 1561 1529 1528
f 1528 1560 1561
f 1593 1561 1560
f 1560 1592 1593
f 1625 1593 1592
f 1592 1624 1625
f 666 634 633
f 633 665 666
f 698 666 665
f 665 697 698
f 730 698 697
f 697 729 730
f 762 730 729
f 729 761 762
f 794 762 761
f 761 793 794
f 826 794 793
f 793 825 826
f 858 826 825
f 825 857 858
f 890 858 857
f 857 889 890
f 922 890 889
f 889 921 922
f 954 922 921
f 921 953 954
f 986 954 953
f 953 985 986
f 1018 986 985
f 985 1017 1018
f 1050 1018 1017
f 1017 1049 1050
f 1082 1050 1049
f 1049 1081 1082
f 1114 1082 1081
f 1081 1113 1114
f 1146 1114 1113
f 1113 1145 1146
f 1178 1146 1145
f 1145 1177 1178
f 1210 1178 1177
f 1177 1209 1210
f 1242 1210 1209
f 1209 1241 1242
f 1274 1242 1241
f 1241 1273 1274
f 1306 1274 1273
f 1273 1305 1306
f 1338 1306 1305
f 1305 1337 1338
f 1370 1338 1337
f 1337 1369 1370
f 1402 1370 1369
f 1369 1401 1402
f 1434 1402 1401
f 1401 1433 1434
f 1466 1434 1433
f 1433 1465 1466
f 1498 1466 1465
f 1465 1497 1498
f 1530 1498 1497
f 1497 1529 1530
f 1562 1530 1529
f 1529 1561 1562
f 1594 1562 1561
f 1561 1593 1594
f 1626 1594 1593
f 1593 1625 1626
f 667 635 634
f 634 666 667
f 699 667 666
f 666 698 699
f 731 699 698
f 698 730 731
f 763 731 730
f 730 762 763
f 795 763 762
f 762 794 795
f 827 795 794
f 794 826 827
f 859 827 826
f 826 858 859
f 891 859 858
f 858 890 891
f 923 891 890
f 890 922 923
f 955 923 922
f 922 954 955
f 987 955 954
f 954 986 987
f 1019 987 986
f 986 1018 1019
f 1051 1019 1018
f 1018 1050 1051
f 1083 1051 1050
f 1050 1082 1083
f 1115 1083 1082
f 1082 1114 1115
f 1147 1115 1114
f 1114 1146 1147
f 1179 1147 1146
f 1146 1178 1179
f 1211 1179 1178
f 1178 1210 1211
f 1243 1211 1210
f 1210 1242 1243
f 1275 1243 1242
f 1242 1274 1275
f 1307 1275 1274
f 1274 1306 1307
f 1339 1307 1306
f 1306 1338 1339
f 1371 1339 1338
f 1338 1370 1371
f 1403 1371 1370
f 1370 1402 1403
f 1435 1403 1402
f 1402 1434 1435
f 1467 1435 1434
f 1434 1466 1467
f 1499 1467 1466
f 1466 1498 1499
f 1531 1499 1498
f 1498 1530 1531
f 1563 1531 1530
f 1530 1562 1563
f 1595 1563 1562
f 1562 1594 1595
f 1627 1595 1594
f 1594 1626 1627
f 668 636 635
f 635 667 668
f 700 668 667
f 667 699 700
f 732 700 699
f 699 731 732
f 764 732 731
f 731 763 764
f 796 764 763
f 763 795 796
f 828 796 795
f 795 827 828
f 860 828 827
f 827 859 860
f 892 860 859
f 859 891 892
f 924 892 891
f 891 923 924
f 956 924 923
f 923 955 956
f 988 956 955
f 955 987 988
f 1020 988 987
f 987 1019 1020
f 1052 1020 1019
f 1019 1051 1052
f 1084 1052 1051
f 1051 1083 1084
f 1116 1084 1083
f 1083 1115 1116
f 1148 1116 1115
f 1115 1147 1148
f 1180 1148 1147
f 1147 1179 1180
f 1212 1180 1179
f 1179 1211 1212
f 1244 1212 1211
f 1211 1243 1244
f 1276 1244 1243
f 1243 1275 1276
f 1308 1276 1275
f 1275 1307 1308
f 1340 1308 1307
f 1307 1339 1340
f 1372 1340 1339
f 1339 1371 1372
f 1404 1372 1371
f 1371 1403 1404
f 1436 1404 1403
f 1403 1435 1436
f 1468 1436 1435
f 1435 1467 1468
f 1500 1468 1467
f 1467 1499 1500
f 1532 1500 1499
f 1499 1531 1532
f 1564 1532 1531
f 1531 1563 1564
f 1596 1564 1563
f 1563 1595 1596
f 1628 1596 1595
f 1595 1627 1628
