v -6417.64 216.824 -2643.33
v -6421.77 221.732 -2639.82
v -6426.34 213.471 -2644.88
v -6417.64 216.824 -2643.33
v -6412.49 217.809 -2636.56
v -6421.77 221.732 -2639.82
v -6429.18 218.869 -2640.37
v -6433.91 209.788 -2641.72
v -6432.83 220.029 -2640.45
v -6435.7 216.365 -2638.93
v -6437.03 215.107 -2631.92
v -6435.55 207.677 -2633.35
v -6432.98 207.521 -2626.16
v -6437.71 216.758 -2629.06
v -6437.97 221.971 -2624.1
v -6431.96 211.088 -2620.24
v -6430.73 207.284 -2619.29
v -6421.59 210.361 -2615.04
v -6429.83 215.256 -2620.38
v -6424.18 216.126 -2616.03
v -6414.41 214.173 -2619.89
v -6419.5 219.46 -2623.68
v -6409.83 217.354 -2627.41
v -6414.82 222.676 -2626.88
v -6415.92 223.77 -2633.62
v -6423.29 225.416 -2639.44
v -6425.46 228.681 -2637.97
v -6428.08 223.538 -2638.22
v -6430.37 230.11 -2636.84
v -6419.94 226.055 -2633.82
v -6425.46 228.681 -2637.97
v -6423.29 225.416 -2639.44
v -6423.59 228.074 -2632.23
v -6427.24 232.093 -2636.71
v -6427.24 232.093 -2636.71
v -6436.09 223.377 -2635.7
v -6432.26 229.424 -2635.25
v -6431.48 225.098 -2636.94
v -6435.8 221.671 -2632.8
v -6438.67 221.608 -2629.78
v -6438.76 226.451 -2632.8
v -6440.37 225.927 -2629.38
v -6438.58 227.07 -2636.44
v -6433.62 222.643 -2620.52
v -6438.9 225.872 -2624.06
v -6440.7 227.21 -2627.88
v -6427.71 224.471 -2617.31
v -6420.25 219.187 -2617.97
v -6433.79 226.686 -2621.44
v -6423.27 222.39 -2619.98
v -6424.39 225.84 -2622.5
v -6424.81 229.622 -2621.03
v -6429.28 227.248 -2618.23
v -6426.52 232.358 -2621.7
v -6420.32 223.693 -2625.73
v -6421.97 227.27 -2626.87
v -6417.93 225.553 -2626.65
v -6419.07 224.94 -2630.48
v -6424.91 231.624 -2631.31
v -6422.11 230.916 -2626.19
v -6429.12 234.856 -2635.05
v -6429.12 234.856 -2635.05
v -6434.54 233.36 -2635.99
v -6430.59 237.034 -2633.49
v -6426.38 234.634 -2630.13
v -6427.02 237.726 -2628.6
v -6430.59 237.034 -2633.49
v -6439.57 230.995 -2634.57
v -6435.69 234.609 -2632.81
v -6439.04 231.153 -2628.38
v -6438.54 234.176 -2631.64
v -6439.34 234 -2629.78
v -6439.01 229.237 -2624.19
v -6435.24 229.396 -2621.26
v -6438.18 231.958 -2624.38
v -6430.54 229.675 -2619.7
v -6433.97 232.248 -2621.88
v -6430.32 234.051 -2622.11
v -6434.18 232.997 -2621.29
v -6432.33 233.014 -2621.12
v -6423.79 234.13 -2625.37
v -6426.46 237.202 -2624.63
v -6432.27 238.894 -2631.41
v -6435.39 238.192 -2630.63
v -6432.27 238.894 -2631.41
v -6437.87 243.516 -2631.01
v -6430.45 239.259 -2628.39
v -6431.29 242.573 -2628.23
v -6432.38 242.459 -2631.81
v -6436.37 242.289 -2629.94
v -6432.38 242.459 -2631.81
v -6439.24 235.318 -2626.92
v -6437.93 234.183 -2624.29
v -6439.66 238.768 -2621.06
v -6435.58 234.586 -2623.08
v -6436.87 237.91 -2621.15
v -6433.39 235.374 -2623.13
v -6431.61 236.753 -2622.83
v -6435.15 239.244 -2620.54
v -6430.16 238.526 -2624.75
v -6433.44 240.301 -2622.12
v -6432.34 242.115 -2622.38
v -6433.38 245.666 -2630.9
v -6433.38 245.666 -2630.9
v -6438.82 247.175 -2630.06
v -6433.13 245.462 -2627.44
v -6434.97 249.497 -2627.48
v -6436.08 247.813 -2628.64
v -6436.08 247.813 -2628.64
v -6441.67 242.921 -2629.61
v -6437.64 239.628 -2630.79
v -6443.43 245.752 -2629.74
v -6439.59 240.357 -2628.92
v -6442.79 241.526 -2626.13
v -6444.01 244.91 -2625.84
v -6442.56 240.893 -2622.54
v -6436.41 242.337 -2619.89
v -6439.81 244.024 -2620.23
v -6440.87 237.153 -2624.78
v -6444.35 243.8 -2621.76
v -6441.5 244.617 -2619.68
v -6435.11 246.155 -2620.28
v -6432.2 245.735 -2624.61
v -6431.88 241.233 -2627.05
v -6435.21 247.576 -2621.16
v -6432.8 248.132 -2626.37
v -6433.67 248.61 -2623.93
v -6438.22 250.898 -2627.71
v -6435.44 251.252 -2623.25
v -6438.4 253.924 -2625.06
v -6438.22 250.898 -2627.71
v -6440.8 249.573 -2627.49
v -6439.85 253.523 -2626.02
v -6439.85 253.523 -2626.02
v -6444.29 248.837 -2628.68
v -6445.01 247.857 -2625.02
v -6442.34 252.854 -2626.74
v -6445.58 251.644 -2624.42
v -6443.26 254.074 -2625.1
v -6444.87 252.995 -2625.77
v -6445.29 247.246 -2621.43
v -6445.52 250.437 -2623.52
v -6442.14 248.222 -2620.23
v -6443.15 251.65 -2620.3
v -6445.58 250.956 -2621.04
v -6439.31 249.058 -2619.02
v -6440.75 252.315 -2618.51
v -6436.63 250.493 -2620.61
v -6438.45 252.572 -2619.44
v -6438.9 253.404 -2620.68
v -6437.99 253.291 -2622.57
v -6440.93 256.468 -2625.41
v -6442.55 255.701 -2624.84
v -6440.93 256.468 -2625.41
v -6442.67 258.68 -2624
v -6439.65 256.683 -2624
v -6442.04 258.549 -2622.61
v -6442.67 258.68 -2624
v -6444.51 254.971 -2624.37
v -6444.07 258.343 -2624.3
v -6445.72 254.545 -2622.56
v -6446.56 257.186 -2623.43
v -6445.77 258.214 -2624.52
v -6442.2 255.463 -2617.59
v -6444.92 254.794 -2618.31
v -6444.26 257.71 -2619.39
v -6440.78 255.748 -2619.83
v -6442.1 259.268 -2620.86
v -6443.8 258.645 -2619.36
v -6438.81 256.595 -2622
v -6441.54 259.967 -2620.5
v -6440.95 259.919 -2621.58
v -6441.83 259.586 -2622.36
v -6444.49 261.585 -2623.32
v -6444.49 261.585 -2623.32
v -6445.51 261.639 -2624.3
v -6446.89 263.473 -2623.13
v -6444.77 261.867 -2622.04
v -6445.8 265.05 -2622.7
v -6445.8 265.05 -2622.7
v -6446.53 261.414 -2623.2
v -6446.49 260.678 -2622.26
v -6448.43 263.014 -2621.92
v -6447.26 259.687 -2621.1
v -6445.75 256.175 -2621.95
v -6447.36 257.033 -2620.66
v -6445.7 256.773 -2618.7
v -6446.2 260.996 -2620.36
v -6448.48 262.849 -2620.26
v -6445.2 261.933 -2619.57
v -6446.65 266.578 -2618.21
v -6447.42 264.73 -2618.86
v -6444.68 263.004 -2621.19
v -6445.95 264.048 -2620.25
v -6446.06 265.746 -2621.54
v -6445.42 266.321 -2620.54
v -6447.28 268.939 -2622.19
v -6446.96 265.467 -2622.84
v -6449.14 270.362 -2622.37
v -6447.28 268.939 -2622.19
v -6446.97 269.097 -2620.95
v -6448.07 271.454 -2620.57
v -6448.73 271.562 -2621.4
v -6448.73 271.562 -2621.4
v -6449.67 266.933 -2622.31
v -6450.03 265.953 -2620.8
v -6451.27 269.984 -2620.39
v -6449.62 270.678 -2621.56
v -6451 274.01 -2621.07
v -6451.05 270.919 -2621.5
v -6449.66 266.019 -2619.39
v -6451.72 269.585 -2618.75
v -6447.43 262.961 -2620.48
v -6449.04 269.787 -2618.72
v -6451 270.701 -2618.28
v -6446.79 269.352 -2619.86
v -6448.59 271.749 -2618.82
v -6449.85 274.737 -2621.26
v -6450.94 276.711 -2620.33
v -6448.86 272.019 -2620.63
v -6449.85 274.737 -2621.26
v -6450.61 276.186 -2618.91
v -6450.28 277.18 -2620.16
v -6450.94 276.711 -2620.33
v -6451.3 273.492 -2620.16
v -6452.65 276.731 -2619.45
v -6452.33 273.395 -2619.58
v -6453.34 276.096 -2618.22
v -6452.47 276.096 -2618.98
v -6452.51 273.587 -2618.31
v -6450.49 274.185 -2617.62
v -6453.19 276.71 -2616.51
v -6449.35 274.162 -2617.92
v -6450.69 276.815 -2617.73
v -6451.27 277.361 -2615.74
v -6452.13 278.838 -2619.9
v -6452.8 279.259 -2619.67
v -6452.13 278.838 -2619.9
v -6453.59 281.243 -2617.61
v -6452.8 279.259 -2619.67
v -6452.13 278.838 -2619.9
v -6451.76 279.604 -2619.48
v -6452.61 280.681 -2617.72
v -6451.76 279.604 -2619.48
v -6453.38 279.464 -2618.69
v -6453.38 279.464 -2618.69
v -6454.98 279.288 -2618.85
v -6454.98 279.288 -2618.85
v -6454.81 278.358 -2618.06
v -6454.06 279.189 -2616.72
v -6453.01 280.871 -2615.47
v -6451.57 279.815 -2616.71
v -6451.07 279.373 -2618.77
v -6451.07 279.373 -2618.77
v -6441.06 240.179 -2626.71
v -6422.62 222.029 -2617.6
v -6464.48 214.758 -2608.24
v -6462.93 220.013 -2607.71
v -6459.77 219.71 -2605.16
v -6460.13 214.758 -2604.7
v -6464.77 220.075 -2615.06
v -6463.99 220.26 -2611.75
v -6464.48 214.758 -2608.24
v -6465.69 214.758 -2614.5
v -6462.93 220.013 -2607.71
v -6457.88 219.47 -2604.65
v -6454.67 220.115 -2605.24
v -6454.33 214.758 -2604.84
v -6451.96 219.837 -2605.96
v -6448.79 219.381 -2607.78
v -6448.7 214.758 -2607.67
v -6448.72 220.282 -2610.71
v -6446.89 214.758 -2613.76
v -6448.79 220.984 -2613.98
v -6449.67 220.992 -2617.85
v -6449.02 214.758 -2619.16
v -6449.73 228.133 -2613.99
v -6449.12 226.269 -2611.22
v -6453.4 220.72 -2620.25
v -6454.01 214.758 -2622.44
v -6456.11 222.651 -2620.98
v -6458.67 220.523 -2621.19
v -6459.92 214.758 -2622.14
v -6462.59 220.485 -2618.54
v -6464.62 214.758 -2618.65
v -6459.05 227.909 -2607.01
v -6455.05 228.185 -2606.39
v -6459.42 224.662 -2605.63
v -6462.42 228.527 -2608.94
v -6463.36 225.875 -2608.73
v -6464.56 225.163 -2614.47
v -6455.01 225.473 -2605.65
v -6450.92 228.092 -2611.35
v -6452.51 229.953 -2610.58
v -6453.25 226.987 -2607.9
v -6453.57 229.197 -2607.75
v -6450.95 229.893 -2613.23
v -6451.17 227.792 -2617.85
v -6450.76 225.798 -2618.83
v -6454.56 228.19 -2619.48
v -6459.83 228.003 -2619.22
v -6459.56 226.177 -2620.66
v -6456.65 227.752 -2619
v -6462.64 227.729 -2617.18
v -6463.13 228.448 -2613.93
v -6458.7 230.196 -2607.92
v -6461.4 230.14 -2610.54
v -6462.42 228.527 -2608.94
v -6461.4 230.14 -2610.54
v -6455.68 230.237 -2608.15
v -6454.96 229.963 -2617.94
v -6451.61 232.182 -2616.04
v -6457.42 229.468 -2618.42
v -6460.81 230.147 -2617.21
v -6460.94 232.654 -2609.77
v -6462.24 233.58 -2614.77
v -6459.35 232.578 -2608.09
v -6460.94 232.654 -2609.77
v -6456.21 231.748 -2607.61
v -6450.6 234.317 -2613.04
v -6452.49 231.96 -2609.99
v -6456.15 231.339 -2619.27
v -6459.9 231.663 -2619.01
v -6461.51 232.283 -2617.38
v -6461.43 234.092 -2610.81
v -6461.43 234.092 -2610.81
v -6457.9 236.974 -2608.52
v -6455.56 236.841 -2608.51
v -6452.47 239.588 -2611.06
v -6455.62 239.001 -2609
v -6452.84 234.738 -2616.76
v -6459.74 236.581 -2619.26
v -6455.6 236.607 -2618.03
v -6461.72 237.443 -2617.46
v -6460.34 236.224 -2611.01
v -6460.34 236.224 -2611.01
v -6451.69 239.752 -2614.18
v -6453.06 238.992 -2616.55
v -6462.62 239.902 -2613.64
v -6461.1 239.307 -2610.68
v -6461.1 239.307 -2610.68
v -6457.95 242.006 -2606.45
v -6459.26 239.829 -2618.88
v -6455.85 247.359 -2618.73
v -6458.42 244.29 -2618.65
v -6461.93 243.416 -2612.94
v -6461.64 248.746 -2616.54
v -6463.18 248.882 -2612.72
v -6460.83 242.282 -2610.13
v -6460.83 242.282 -2610.13
v -6453.04 242.687 -2610.38
v -6457.95 244.923 -2605.26
v -6454.68 243.641 -2606.49
v -6452.76 242.714 -2616.44
v -6452.74 245.392 -2612.94
v -6460.53 245.852 -2609.29
v -6460.53 245.852 -2609.29
v -6455.19 246.264 -2607.06
v -6451.24 247.8 -2612.59
v -6452.01 249.565 -2609.77
v -6453.22 246.856 -2616.6
v -6458.81 248.256 -2618.56
v -6462.25 247.993 -2609.41
v -6458.76 246.516 -2605.78
v -6462.25 247.993 -2609.41
v -6452.24 248.498 -2616.98
v -6456.19 252.751 -2619.64
v -6452.7 250.381 -2617.45
v -6462.03 251.892 -2617.29
v -6459.45 253.05 -2619.69
v -6462.88 249.997 -2609.14
v -6465.71 253.752 -2613.53
v -6462.88 249.997 -2609.14
v -6458.15 249.832 -2607.37
v -6455.67 251.657 -2607.25
v -6450.19 252.596 -2612.17
v -6451.99 252.8 -2616.62
v -6463.14 252.464 -2609.63
v -6463.14 252.464 -2609.63
v -6454.87 255.011 -2607.68
v -6453.44 258.741 -2610.13
v -6455.01 257.985 -2608.1
v -6455.69 255.809 -2620.2
v -6460.57 254.926 -2620.2
v -6465.3 255.511 -2618.22
v -6458.96 255.284 -2606.17
v -6463.03 255.83 -2609.78
v -6463.03 255.83 -2609.78
v -6451.23 255.515 -2612.98
v -6451.98 260.843 -2617.21
v -6460.72 255.409 -2620.85
v -6466.61 255.695 -2615.26
v -6463.26 259.09 -2608.77
v -6463.26 259.09 -2608.77
v -6458.95 262.735 -2606.68
v -6451.02 259.979 -2612.94
v -6461.53 258.413 -2621.79
v -6455.55 257.957 -2620.71
v -6464.84 262.36 -2620.21
v -6465.9 259.453 -2616.05
v -6462.79 262.969 -2609.06
v -6462.79 262.969 -2609.06
v -6453.69 261.502 -2611.16
v -6455.61 265.645 -2607.33
v -6460.32 262.459 -2622.01
v -6451.15 263.769 -2617.35
v -6455.11 264.881 -2621.06
v -6465.6 262.777 -2615.86
v -6458.85 265.845 -2605.35
v -6466.35 269.716 -2613.03
v -6463.53 266.597 -2608.13
v -6463.53 266.597 -2608.13
v -6450.08 264.1 -2612.48
v -6453.2 264.701 -2611.13
v -6459.94 265.203 -2622.43
v -6465.26 268.509 -2618.28
v -6463.37 269.35 -2608.14
v -6463.37 269.35 -2608.14
v -6456.83 268.18 -2607.8
v -6458.91 272.199 -2604.11
v -6454.15 272.495 -2611.82
v -6449.66 268.313 -2611.97
v -6450.08 270.057 -2617.76
v -6453.94 271.229 -2620.86
v -6463.48 277.085 -2616.7
v -6458.98 275.15 -2620.69
v -6465.99 273.474 -2611.34
v -6464.09 273.82 -2607.33
v -6464.09 273.82 -2607.33
v -6456.86 274.473 -2606.45
v -6466.51 277.258 -2612.76
v -6462.7 277.132 -2607.57
v -6462.7 277.132 -2607.57
v -6458.58 279.025 -2607.06
v -6449.89 272.879 -2617.31
v -6452.03 275.992 -2612.32
v -6455.47 277.732 -2618.49
v -6458.9 278.827 -2617.89
v -6463.92 280.445 -2613.06
v -6461.33 280.649 -2609.45
v -6461.33 280.649 -2609.45
v -6455.77 277.889 -2611.52
v -6456.96 278.129 -2608.09
v -6452.88 276.654 -2616
v -6461.33 280.649 -2609.45
v -6456.96 278.129 -2608.09
v -6458.58 279.025 -2607.06
v -6455.77 277.889 -2611.52
v -6458.9 280.736 -2613.57
v -6452.88 276.654 -2616
v -6452.03 275.992 -2612.32
v -6452.72 227.139 -2610.12
v -6452.03 225.183 -2606.56
v -6449.6 224.917 -2608.28
v -6463.36 225.875 -2608.73
v -6461.73 282.267 -2612.89
v -6461.73 285.265 -2612.87
v -6461.54 282.307 -2612.77
v -6461.53 285.28 -2612.84
v -6462.62 285.293 -2612.95
v -6462.62 282.352 -2612.88
v -6462.81 285.314 -2612.98
v -6462.81 282.432 -2613
v -6461.38 285.293 -2612.83
v -6461.19 285.314 -2612.82
v -6461.39 282.352 -2612.76
v -6461.18 282.432 -2612.84
v -6462.27 282.267 -2612.95
v -6462.47 282.307 -2612.87
v -6462.27 285.265 -2612.93
v -6462.47 285.28 -2612.93
v -6461.93 282.243 -2612.81
v -6461.93 285.265 -2612.88
v -6462.08 282.243 -2612.83
v -6462.08 285.265 -2612.89
v -6461.53 285.503 -2612.85
v -6461.53 285.532 -2612.9
v -6461.38 285.509 -2612.83
v -6461.38 285.532 -2612.89
v -6462.47 285.503 -2612.94
v -6462.62 285.509 -2612.96
v -6462.46 285.532 -2613
v -6462.61 285.532 -2613.01
v -6462.47 285.28 -2612.93
v -6462.62 285.293 -2612.95
v -6461.53 285.28 -2612.84
v -6461.38 285.293 -2612.83
v -6462.06 282.243 -2613.09
v -6462.06 285.265 -2613.02
v -6462.26 282.267 -2613.01
v -6462.26 285.265 -2613.03
v -6461.72 282.267 -2612.96
v -6461.52 282.307 -2613.03
v -6461.72 285.265 -2612.97
v -6461.52 285.28 -2612.97
v -6461.91 282.243 -2613.07
v -6461.91 285.265 -2613.01
v -6461.37 285.293 -2612.95
v -6461.37 282.352 -2613.02
v -6461.18 285.314 -2612.92
v -6461.18 282.432 -2612.9
v -6462.6 285.293 -2613.08
v -6462.8 285.314 -2613.08
v -6462.6 282.352 -2613.14
v -6462.8 282.432 -2613.07
v -6462.45 282.307 -2613.13
v -6462.45 285.28 -2613.06
v -6461.52 285.503 -2612.96
v -6461.37 285.509 -2612.95
v -6462.46 285.503 -2613.06
v -6462.6 285.509 -2613.07
v -6462.45 285.28 -2613.06
v -6462.6 285.293 -2613.08
v -6461.52 285.28 -2612.97
v -6461.37 285.293 -2612.95
v -6462.08 282.243 -2612.83
v -6462.08 285.265 -2612.89
v -6462.27 282.267 -2612.95
v -6462.27 285.265 -2612.93
v -6461.73 282.267 -2612.89
v -6461.54 282.307 -2612.77
v -6461.73 285.265 -2612.87
v -6461.53 285.279 -2612.84
v -6461.93 282.243 -2612.81
v -6461.93 285.265 -2612.88
v -6461.39 282.352 -2612.76
v -6461.18 282.432 -2612.84
v -6461.38 285.293 -2612.83
v -6461.19 285.314 -2612.82
v -6462.62 282.352 -2612.88
v -6462.62 285.293 -2612.95
v -6462.81 282.432 -2613
v -6462.81 285.314 -2612.98
v -6462.47 282.307 -2612.87
v -6462.47 285.279 -2612.94
v -6461.53 285.5 -2612.85
v -6461.38 285.507 -2612.84
v -6461.53 285.527 -2612.9
v -6461.38 285.527 -2612.89
v -6462.47 285.5 -2612.94
v -6462.46 285.527 -2613
v -6462.61 285.507 -2612.96
v -6462.61 285.527 -2613.01
v -6462.47 285.279 -2612.94
v -6462.62 285.293 -2612.95
v -6461.53 285.279 -2612.84
v -6461.38 285.293 -2612.83
v -6461.72 282.267 -2612.96
v -6461.72 285.265 -2612.97
v -6461.52 282.307 -2613.03
v -6461.52 285.279 -2612.96
v -6462.6 282.352 -2613.14
v -6462.8 282.432 -2613.07
v -6462.6 285.293 -2613.07
v -6462.8 285.314 -2613.08
v -6461.37 282.352 -2613.02
v -6461.37 285.293 -2612.95
v -6461.18 282.432 -2612.9
v -6461.18 285.314 -2612.92
v -6462.26 282.267 -2613.01
v -6462.45 282.307 -2613.13
v -6462.26 285.265 -2613.03
v -6462.46 285.279 -2613.06
v -6461.91 282.243 -2613.07
v -6461.91 285.265 -2613.01
v -6462.06 282.243 -2613.09
v -6462.06 285.265 -2613.02
v -6461.52 285.5 -2612.96
v -6461.37 285.507 -2612.94
v -6462.46 285.5 -2613.05
v -6462.6 285.507 -2613.07
v -6462.46 285.279 -2613.06
v -6462.6 285.293 -2613.07
v -6461.52 285.279 -2612.96
v -6461.37 285.293 -2612.95
v -6461.53 285.279 -2612.84
v -6461.53 285.28 -2612.84
v -6461.73 285.265 -2612.87
v -6462.27 285.265 -2612.93
v -6462.47 285.28 -2612.93
v -6462.47 285.279 -2612.94
v -6461.19 285.314 -2612.82
v -6461.38 285.293 -2612.83
v -6461.38 285.293 -2612.83
v -6462.62 285.293 -2612.95
v -6462.62 285.293 -2612.95
v -6462.81 285.314 -2612.98
v -6461.72 285.265 -2612.97
v -6461.52 285.28 -2612.97
v -6461.52 285.279 -2612.96
v -6462.46 285.279 -2613.06
v -6462.45 285.28 -2613.06
v -6462.26 285.265 -2613.03
v -6461.37 285.293 -2612.95
v -6461.37 285.293 -2612.95
v -6461.18 285.314 -2612.92
v -6462.8 285.314 -2613.08
v -6462.6 285.293 -2613.08
v -6462.6 285.293 -2613.07
v -6462.99 285.506 -2613.02
v -6461 285.506 -2612.82
v -6462.99 285.471 -2613
v -6461 285.471 -2612.8
v -6462.99 285.436 -2613.02
v -6461 285.436 -2612.82
v -6462.99 285.421 -2613.05
v -6461 285.421 -2612.85
v -6462.99 285.436 -2613.09
v -6461 285.436 -2612.89
v -6462.98 285.471 -2613.1
v -6460.99 285.471 -2612.9
v -6462.99 285.506 -2613.09
v -6461 285.506 -2612.89
v -6462.99 285.521 -2613.05
v -6461 285.521 -2612.85
v -6462.99 285.506 -2613.02
v -6461 285.506 -2612.82
v -6460.96 285.511 -2612.78
v -6460.92 285.494 -2612.8
v -6460.96 285.43 -2612.78
v -6460.92 285.448 -2612.8
v -6460.95 285.552 -2612.85
v -6460.92 285.518 -2612.84
v -6460.95 285.511 -2612.92
v -6460.91 285.494 -2612.88
v -6460.95 285.43 -2612.92
v -6460.91 285.448 -2612.88
v -6460.95 285.39 -2612.85
v -6460.92 285.424 -2612.84
v -6460.96 285.43 -2612.78
v -6460.92 285.448 -2612.8
v -6461.01 285.518 -2612.77
v -6461.01 285.424 -2612.77
v -6461 285.564 -2612.85
v -6460.99 285.518 -2612.93
v -6460.99 285.424 -2612.93
v -6461 285.378 -2612.85
v -6461.01 285.424 -2612.77
v -6461.05 285.43 -2612.79
v -6461.05 285.511 -2612.79
v -6461.05 285.552 -2612.86
v -6461.04 285.511 -2612.93
v -6461.04 285.43 -2612.93
v -6461.05 285.39 -2612.86
v -6461.05 285.43 -2612.79
v -6461.08 285.448 -2612.82
v -6461.08 285.494 -2612.82
v -6461.08 285.518 -2612.86
v -6461.08 285.494 -2612.9
v -6461.08 285.448 -2612.9
v -6461.08 285.424 -2612.86
v -6461.08 285.448 -2612.82
v -6460.91 285.471 -2612.84
v -6461.09 285.471 -2612.86
v -6462.95 285.511 -2612.98
v -6462.91 285.494 -2613
v -6462.95 285.43 -2612.98
v -6462.91 285.448 -2613
v -6462.94 285.552 -2613.05
v -6462.91 285.518 -2613.04
v -6462.94 285.511 -2613.12
v -6462.9 285.494 -2613.08
v -6462.94 285.43 -2613.12
v -6462.9 285.448 -2613.08
v -6462.94 285.39 -2613.05
v -6462.91 285.424 -2613.04
v -6462.95 285.43 -2612.98
v -6462.91 285.448 -2613
v -6463 285.518 -2612.97
v -6463 285.424 -2612.97
v -6462.99 285.564 -2613.05
v -6462.98 285.518 -2613.13
v -6462.98 285.424 -2613.13
v -6462.99 285.378 -2613.05
v -6463 285.424 -2612.97
v -6463.04 285.43 -2612.99
v -6463.04 285.511 -2612.99
v -6463.04 285.552 -2613.06
v -6463.03 285.511 -2613.13
v -6463.03 285.43 -2613.13
v -6463.04 285.39 -2613.06
v -6463.04 285.43 -2612.99
v -6463.07 285.448 -2613.02
v -6463.07 285.494 -2613.02
v -6463.07 285.518 -2613.06
v -6463.07 285.494 -2613.1
v -6463.07 285.448 -2613.1
v -6463.07 285.424 -2613.06
v -6463.07 285.448 -2613.02
v -6462.9 285.471 -2613.04
v -6463.08 285.471 -2613.06
v -6462.22 280.385 -2612.85
v -6462.17 280.762 -2612.87
v -6462.14 280.385 -2612.75
v -6462.11 280.762 -2612.8
v -6462.02 280.385 -2612.7
v -6462.01 280.762 -2612.76
v -6461.89 280.385 -2612.72
v -6461.92 280.762 -2612.78
v -6461.79 280.385 -2612.81
v -6461.84 280.762 -2612.84
v -6461.75 280.385 -2612.93
v -6461.8 280.762 -2612.93
v -6461.77 280.385 -2613.05
v -6461.82 280.762 -2613.03
v -6461.85 280.385 -2613.15
v -6461.88 280.762 -2613.11
v -6461.97 280.385 -2613.2
v -6461.98 280.762 -2613.14
v -6462.1 280.385 -2613.18
v -6462.07 280.762 -2613.13
v -6462.2 280.385 -2613.1
v -6462.15 280.762 -2613.06
v -6462.24 280.385 -2612.98
v -6462.18 280.762 -2612.97
v -6462.22 280.385 -2612.85
v -6462.17 280.762 -2612.87
v -6462.17 280.762 -2612.87
v -6462.18 280.762 -2612.97
v -6462.11 280.762 -2612.8
v -6462.01 280.762 -2612.76
v -6461.92 280.762 -2612.78
v -6461.84 280.762 -2612.84
v -6461.8 280.762 -2612.93
v -6461.82 280.762 -2613.03
v -6461.88 280.762 -2613.11
v -6461.98 280.762 -2613.14
v -6462.07 280.762 -2613.13
v -6462.15 280.762 -2613.06
v -6462.02 280.45 -2612.93
v -6462.02 285.479 -2612.93
v -6462 280.45 -2612.91
v -6462 285.479 -2612.91
v -6461.97 280.45 -2612.92
v -6461.97 285.479 -2612.92
v -6461.96 280.45 -2612.95
v -6461.96 285.479 -2612.95
v -6461.96 280.45 -2612.98
v -6461.96 285.479 -2612.98
v -6461.99 280.45 -2612.99
v -6461.99 285.479 -2612.99
v -6462.02 280.45 -2612.98
v -6462.02 285.479 -2612.98
v -6462.03 280.45 -2612.96
v -6462.03 285.479 -2612.96
v -6462.02 280.45 -2612.93
v -6462.02 285.479 -2612.93
v -6461.58 279.007 -2613.29
v -6461.58 280.45 -2613.29
v -6462.33 279.007 -2613.36
v -6462.33 280.45 -2613.36
v -6461.58 280.45 -2613.29
v -6461.66 280.45 -2612.54
v -6462.33 280.45 -2613.36
v -6462.4 280.45 -2612.62
v -6461.66 280.45 -2612.54
v -6461.66 279.007 -2612.54
v -6462.4 280.45 -2612.62
v -6462.4 279.007 -2612.62
v -6462.33 279.007 -2613.36
v -6462.33 280.45 -2613.36
v -6462.4 279.007 -2612.62
v -6462.4 280.45 -2612.62
v -6461.66 279.007 -2612.54
v -6461.66 280.45 -2612.54
v -6461.58 279.007 -2613.29
v -6461.58 280.45 -2613.29
v -6481 240.831 -2582
v -6481 239.227 -2584
v -6481 236.942 -2586
v -6481 235.521 -2588
v -6481 235.496 -2590
v -6481 235.048 -2592
v -6481 234.474 -2594
v -6481 234.862 -2596
v -6481 235.034 -2598
v -6481 235.657 -2600
v -6481 236.367 -2602
v -6481 236.411 -2604
v -6481 236.31 -2606
v -6481 236.117 -2608
v -6481 235.553 -2610
v -6481 234.968 -2612
v -6481 234.66 -2614
v -6481 235.453 -2616
v -6481 235.317 -2618
v -6481 234.352 -2620
v -6481 233.302 -2622
v -6481 232.708 -2624
v -6481 230.821 -2626
v -6481 233.314 -2628
v -6481 234.942 -2630
v -6481 234.801 -2632
v -6481 233.546 -2634
v -6481 232.369 -2636
v -6481 231.995 -2638
v -6481 232.707 -2640
v -6481 234.452 -2642
v -6481 236.347 -2644
v -6479 242.394 -2582
v -6479 239.999 -2584
v -6479 237.649 -2586
v -6479 236.228 -2588
v -6479 235.542 -2590
v -6479 235.212 -2592
v -6479 235.347 -2594
v -6479 235.294 -2596
v -6479 235.576 -2598
v -6479 236.241 -2600
v -6479 236.877 -2602
v -6479 238.242 -2604
v -6479 238.729 -2606
v -6479 238.151 -2608
v -6479 237.015 -2610
v -6479 235.766 -2612
v -6479 234.886 -2614
v -6479 235.565 -2616
v -6479 235.714 -2618
v -6479 234.916 -2620
v -6479 233.764 -2622
v -6479 232.893 -2624
v -6479 231.529 -2626
v -6479 232.046 -2628
v -6479 233.144 -2630
v -6479 232.601 -2632
v -6479 231.191 -2634
v -6479 230.3 -2636
v -6479 230.93 -2638
v -6479 231.887 -2640
v -6479 234.462 -2642
v -6479 236.927 -2644
v -6477 242.852 -2582
v -6477 240.674 -2584
v -6477 238.931 -2586
v -6477 237.507 -2588
v -6477 236.642 -2590
v -6477 237.001 -2592
v -6477 236.74 -2594
v -6477 236.274 -2596
v -6477 236.182 -2598
v -6477 236.527 -2600
v -6477 237.841 -2602
v -6477 239.321 -2604
v -6477 239.754 -2606
v -6477 239.067 -2608
v -6477 237.766 -2610
v -6477 236.354 -2612
v -6477 235.426 -2614
v -6477 235.053 -2616
v -6477 235.127 -2618
v -6477 234.616 -2620
v -6477 234.828 -2622
v -6477 233.59 -2624
v -6477 232.439 -2626
v -6477 231.314 -2628
v -6477 231.225 -2630
v -6477 230.562 -2632
v -6477 229.261 -2634
v -6477 229.331 -2636
v -6477 230.335 -2638
v -6477 231.658 -2640
v -6477 233.348 -2642
v -6477 236.002 -2644
v -6475 243.575 -2582
v -6475 242.059 -2584
v -6475 240.426 -2586
v -6475 239.31 -2588
v -6475 239.488 -2590
v -6475 239.426 -2592
v -6475 238.692 -2594
v -6475 237.654 -2596
v -6475 236.752 -2598
v -6475 237.14 -2600
v -6475 237.807 -2602
v -6475 238.873 -2604
v -6475 239.327 -2606
v -6475 238.861 -2608
v -6475 237.879 -2610
v -6475 236.84 -2612
v -6475 236.285 -2614
v -6475 236.143 -2616
v -6475 235.987 -2618
v -6475 235.975 -2620
v -6475 235.682 -2622
v -6475 234.268 -2624
v -6475 233.155 -2626
v -6475 231.316 -2628
v -6475 230.371 -2630
v -6475 230.026 -2632
v -6475 228.98 -2634
v -6475 228.155 -2636
v -6475 229.132 -2638
v -6475 230.574 -2640
v -6475 231.773 -2642
v -6475 233.888 -2644
v -6473 244.99 -2582
v -6473 243.579 -2584
v -6473 242.308 -2586
v -6473 242.075 -2588
v -6473 241.817 -2590
v -6473 241.548 -2592
v -6473 240.643 -2594
v -6473 238.868 -2596
v -6473 237.55 -2598
v -6473 237.04 -2600
v -6473 236.663 -2602
v -6473 237.036 -2604
v -6473 237.437 -2606
v -6473 237.349 -2608
v -6473 236.998 -2610
v -6473 236.672 -2612
v -6473 236.697 -2614
v -6473 236.818 -2616
v -6473 236.911 -2618
v -6473 237.08 -2620
v -6473 236.199 -2622
v -6473 234.805 -2624
v -6473 233.735 -2626
v -6473 231.742 -2628
v -6473 230.845 -2630
v -6473 230.947 -2632
v -6473 230.256 -2634
v -6473 229.426 -2636
v -6473 228.946 -2638
v -6473 228.937 -2640
v -6473 229.762 -2642
v -6473 230.847 -2644
v -6471 246.589 -2582
v -6471 245.456 -2584
v -6471 244.512 -2586
v -6471 243.513 -2588
v -6471 243.097 -2590
v -6471 242.67 -2592
v -6471 241.441 -2594
v -6471 239.161 -2596
v -6471 237.956 -2598
v -6471 236.515 -2600
v -6471 235.062 -2602
v -6471 234.531 -2604
v -6471 234.566 -2606
v -6471 234.664 -2608
v -6471 234.912 -2610
v -6471 235.348 -2612
v -6471 235.981 -2614
v -6471 236.385 -2616
v -6471 236.895 -2618
v -6471 237.505 -2620
v -6471 236.312 -2622
v -6471 235.161 -2624
v -6471 234.256 -2626
v -6471 232.523 -2628
v -6471 233.236 -2630
v -6471 233.48 -2632
v -6471 232.772 -2634
v -6471 231.559 -2636
v -6471 229.957 -2638
v -6471 228.118 -2640
v -6471 227.386 -2642
v -6471 227.462 -2644
v -6469 249.283 -2582
v -6469 247.72 -2584
v -6469 245.313 -2586
v -6469 243.662 -2588
v -6469 242.915 -2590
v -6469 242.117 -2592
v -6469 240.875 -2594
v -6469 239.868 -2596
v -6469 238.241 -2598
v -6469 236.113 -2600
v -6469 233.701 -2602
v -6469 234.17 -2604
v -6469 234.519 -2606
v -6469 234.234 -2608
v -6469 233.887 -2610
v -6469 235.067 -2612
v -6469 236.199 -2614
v -6469 236.74 -2616
v -6469 237.391 -2618
v -6469 237.564 -2620
v -6469 236.198 -2622
v -6469 234.85 -2624
v -6469 234.152 -2626
v -6469 233.362 -2628
v -6469 234.853 -2630
v -6469 235.517 -2632
v -6469 235.201 -2634
v -6469 234.288 -2636
v -6469 232.613 -2638
v -6469 230.317 -2640
v -6469 228.559 -2642
v -6469 227.108 -2644
v -6467 250.933 -2582
v -6467 248.969 -2584
v -6467 246.592 -2586
v -6467 244.477 -2588
v -6467 242.867 -2590
v -6467 242.042 -2592
v -6467 241.322 -2594
v -6467 240.212 -2596
v -6467 238.457 -2598
v -6467 236.024 -2600
v -6467 235.684 -2602
v -6467 237.4 -2604
v -6467 238.01 -2606
v -6467 237.696 -2608
v -6467 237.276 -2610
v -6467 237.355 -2612
v -6467 238.39 -2614
v -6467 239.832 -2616
v -6467 239.789 -2618
v -6467 237.65 -2620
v -6467 236.474 -2622
v -6467 235.272 -2624
v -6467 234.089 -2626
v -6467 233.324 -2628
v -6467 234.912 -2630
v -6467 235.675 -2632
v -6467 235.536 -2634
v -6467 234.838 -2636
v -6467 233.243 -2638
v -6467 232.221 -2640
v -6467 231.409 -2642
v -6467 229.46 -2644
v -6465 251.298 -2582
v -6465 249.482 -2584
v -6465 247.355 -2586
v -6465 245.541 -2588
v -6465 244.121 -2590
v -6465 243.125 -2592
v -6465 241.96 -2594
v -6465 240.556 -2596
v -6465 238.977 -2598
v -6465 239.581 -2600
v -6465 239.37 -2602
v -6465 240.069 -2604
v -6465 240.171 -2606
v -6465 239.882 -2608
v -6465 239.959 -2610
v -6465 240.738 -2612
v -6465 242.167 -2614
v -6465 243.339 -2616
v -6465 242.915 -2618
v -6465 239.595 -2620
v -6465 236.645 -2622
v -6465 235.757 -2624
v -6465 234.519 -2626
v -6465 233.37 -2628
v -6465 234.181 -2630
v -6465 234.777 -2632
v -6465 234.609 -2634
v -6465 234.016 -2636
v -6465 234.579 -2638
v -6465 235.433 -2640
v -6465 234.518 -2642
v -6465 232.399 -2644
v -6463 251.463 -2582
v -6463 249.322 -2584
v -6463 247.533 -2586
v -6463 246.194 -2588
v -6463 245.172 -2590
v -6463 244.147 -2592
v -6463 242.531 -2594
v -6463 240.661 -2596
v -6463 241.296 -2598
v -6463 241.936 -2600
v -6463 241.996 -2602
v -6463 241.853 -2604
v -6463 241.295 -2606
v -6463 241.037 -2608
v -6463 241.622 -2610
v -6463 243.094 -2612
v -6463 244.928 -2614
v -6463 245.928 -2616
v -6463 244.72 -2618
v -6463 240.958 -2620
v -6463 237.259 -2622
v -6463 236.457 -2624
v -6463 235.208 -2626
v -6463 234.034 -2628
v -6463 233.761 -2630
v -6463 234.098 -2632
v -6463 233.85 -2634
v -6463 234.513 -2636
v -6463 236.701 -2638
v -6463 237.739 -2640
v -6463 237.042 -2642
v -6463 235.083 -2644
v -6461 252.264 -2582
v -6461 249.223 -2584
v -6461 247.4 -2586
v -6461 246.561 -2588
v -6461 245.996 -2590
v -6461 245.015 -2592
v -6461 242.987 -2594
v -6461 241.348 -2596
v -6461 242.529 -2598
v -6461 243.591 -2600
v -6461 243.502 -2602
v -6461 243.77 -2604
v -6461 243.385 -2606
v -6461 242.679 -2608
v -6461 242.43 -2610
v -6461 244.492 -2612
v -6461 246.672 -2614
v -6461 247.593 -2616
v -6461 245.634 -2618
v -6461 241.84 -2620
v -6461 238.677 -2622
v -6461 237.59 -2624
v -6461 236.087 -2626
v -6461 234.982 -2628
v -6461 234.56 -2630
v -6461 234.733 -2632
v -6461 234.496 -2634
v -6461 235.631 -2636
v -6461 237.835 -2638
v -6461 239.006 -2640
v -6461 238.546 -2642
v -6461 236.875 -2644
v -6459 253.046 -2582
v -6459 250.681 -2584
v -6459 248.016 -2586
v -6459 246.727 -2588
v -6459 246.668 -2590
v -6459 245.794 -2592
v -6459 243.483 -2594
v -6459 242.908 -2596
v -6459 245.02 -2598
v -6459 245.453 -2600
v -6459 244.497 -2602
v -6459 245.285 -2604
v -6459 245.584 -2606
v -6459 245.447 -2608
v -6459 245.295 -2610
v -6459 245.181 -2612
v -6459 246.88 -2614
v -6459 247.787 -2616
v -6459 245.363 -2618
v -6459 242.012 -2620
v -6459 240.526 -2622
v -6459 239.033 -2624
v -6459 237.237 -2626
v -6459 236.033 -2628
v -6459 236.307 -2630
v -6459 236.247 -2632
v -6459 235.933 -2634
v -6459 235.947 -2636
v -6459 237.589 -2638
v -6459 238.998 -2640
v -6459 238.994 -2642
v -6459 237.938 -2644
v -6457 253.792 -2582
v -6457 252.147 -2584
v -6457 250.357 -2586
v -6457 248.68 -2588
v -6457 247.458 -2590
v -6457 246.793 -2592
v -6457 245.729 -2594
v -6457 245.675 -2596
v -6457 246.76 -2598
v -6457 246.522 -2600
v -6457 245.408 -2602
v -6457 246.798 -2604
v -6457 247.721 -2606
v -6457 247.973 -2608
v -6457 247.92 -2610
v -6457 247.715 -2612
v -6457 247.45 -2614
v -6457 246.832 -2616
v -6457 245.074 -2618
v -6457 243.456 -2620
v -6457 241.808 -2622
v -6457 239.979 -2624
v -6457 238.072 -2626
v -6457 237.67 -2628
v -6457 238.121 -2630
v -6457 237.807 -2632
v -6457 237.306 -2634
v -6457 237.331 -2636
v -6457 237.953 -2638
v -6457 238.757 -2640
v -6457 239.522 -2642
v -6457 239.694 -2644
v -6455 254.686 -2582
v -6455 253.52 -2584
v -6455 252.145 -2586
v -6455 250.693 -2588
v -6455 249.512 -2590
v -6455 248.69 -2592
v -6455 247.414 -2594
v -6455 246.199 -2596
v -6455 246.815 -2598
v -6455 246.458 -2600
v -6455 246.911 -2602
v -6455 248.782 -2604
v -6455 250.2 -2606
v -6455 250.692 -2608
v -6455 250.569 -2610
v -6455 250.128 -2612
v -6455 249.746 -2614
v -6455 248.485 -2616
v -6455 246.535 -2618
v -6455 244.596 -2620
v -6455 242.549 -2622
v -6455 240.238 -2624
v -6455 238.276 -2626
v -6455 239.231 -2628
v -6455 239.685 -2630
v -6455 239.366 -2632
v -6455 238.819 -2634
v -6455 238.824 -2636
v -6455 239.526 -2638
v -6455 240.464 -2640
v -6455 241.262 -2642
v -6455 241.301 -2644
v -6453 256.124 -2582
v -6453 254.924 -2584
v -6453 253.497 -2586
v -6453 251.923 -2588
v -6453 250.613 -2590
v -6453 249.273 -2592
v -6453 247.859 -2594
v -6453 245.428 -2596
v -6453 245.922 -2598
v -6453 246.686 -2600
v -6453 248.391 -2602
v -6453 250.697 -2604
v -6453 252.488 -2606
v -6453 253.143 -2608
v -6453 252.911 -2610
v -6453 252.21 -2612
v -6453 251.676 -2614
v -6453 249.708 -2616
v -6453 247.497 -2618
v -6453 245.172 -2620
v -6453 242.683 -2622
v -6453 239.92 -2624
v -6453 238.271 -2626
v -6453 239.956 -2628
v -6453 240.696 -2630
v -6453 240.635 -2632
v -6453 240.212 -2634
v -6453 240.176 -2636
v -6453 240.683 -2638
v -6453 241.343 -2640
v -6453 241.839 -2642
v -6453 241.616 -2644
v -6451 257.757 -2582
v -6451 256.513 -2584
v -6451 254.934 -2586
v -6451 253.62 -2588
v -6451 252.261 -2590
v -6451 250.467 -2592
v -6451 248.404 -2594
v -6451 246.06 -2596
v -6451 245.181 -2598
v -6451 246.982 -2600
v -6451 249.131 -2602
v -6451 251.712 -2604
v -6451 253.735 -2606
v -6451 254.57 -2608
v -6451 254.385 -2610
v -6451 253.613 -2612
v -6451 252.448 -2614
v -6451 250.267 -2616
v -6451 247.796 -2618
v -6451 245.145 -2620
v -6451 242.362 -2622
v -6451 239.422 -2624
v -6451 238.239 -2626
v -6451 240.019 -2628
v -6451 241.187 -2630
v -6451 241.508 -2632
v -6451 241.301 -2634
v -6451 241.207 -2636
v -6451 241.328 -2638
v -6451 241.433 -2640
v -6451 241.423 -2642
v -6451 240.891 -2644
v -6449 260.019 -2582
v -6449 259.193 -2584
v -6449 257.472 -2586
v -6449 255.332 -2588
v -6449 253.246 -2590
v -6449 251.192 -2592
v -6449 249.432 -2594
v -6449 247.608 -2596
v -6449 245.056 -2598
v -6449 246.133 -2600
v -6449 248.583 -2602
v -6449 251.263 -2604
v -6449 253.385 -2606
v -6449 254.412 -2608
v -6449 254.43 -2610
v -6449 253.801 -2612
v -6449 251.999 -2614
v -6449 249.775 -2616
v -6449 247.306 -2618
v -6449 244.656 -2620
v -6449 241.891 -2622
v -6449 239.379 -2624
v -6449 238.705 -2626
v -6449 239.591 -2628
v -6449 241.081 -2630
v -6449 241.748 -2632
v -6449 241.789 -2634
v -6449 241.645 -2636
v -6449 241.4 -2638
v -6449 241.006 -2640
v -6449 240.615 -2642
v -6449 239.939 -2644
v -6447 262.255 -2582
v -6447 260.882 -2584
v -6447 258.557 -2586
v -6447 255.85 -2588
v -6447 253.449 -2590
v -6447 251.921 -2592
v -6447 251.075 -2594
v -6447 249.663 -2596
v -6447 247.638 -2598
v -6447 246.084 -2600
v -6447 247.007 -2602
v -6447 249.897 -2604
v -6447 252.083 -2606
v -6447 253.148 -2608
v -6447 253.172 -2610
v -6447 252.502 -2612
v -6447 249.96 -2614
v -6447 247.849 -2616
v -6447 245.862 -2618
v -6447 243.714 -2620
v -6447 241.292 -2622
v -6447 239.681 -2624
v -6447 238.953 -2626
v -6447 238.647 -2628
v -6447 240.179 -2630
v -6447 241.081 -2632
v -6447 241.391 -2634
v -6447 241.216 -2636
v -6447 240.759 -2638
v -6447 240.13 -2640
v -6447 239.646 -2642
v -6447 239.019 -2644
v -6445 263.618 -2582
v -6445 261.728 -2584
v -6445 259.115 -2586
v -6445 257.418 -2588
v -6445 255.627 -2590
v -6445 254.428 -2592
v -6445 253.636 -2594
v -6445 252.327 -2596
v -6445 250.687 -2598
v -6445 248.989 -2600
v -6445 248.513 -2602
v -6445 249.243 -2604
v -6445 250.442 -2606
v -6445 251.726 -2608
v -6445 251.904 -2610
v -6445 250.79 -2612
v -6445 249.726 -2614
v -6445 248.337 -2616
v -6445 245.494 -2618
v -6445 243.342 -2620
v -6445 241.387 -2622
v -6445 240.591 -2624
v -6445 239.68 -2626
v -6445 238.382 -2628
v -6445 238.734 -2630
v -6445 239.623 -2632
v -6445 240.138 -2634
v -6445 240.864 -2636
v -6445 242.097 -2638
v -6445 242.301 -2640
v -6445 240.782 -2642
v -6445 238.134 -2644
v -6443 264.616 -2582
v -6443 262.508 -2584
v -6443 261.032 -2586
v -6443 259.515 -2588
v -6443 258.001 -2590
v -6443 257.057 -2592
v -6443 256.314 -2594
v -6443 255.182 -2596
v -6443 253.92 -2598
v -6443 252.714 -2600
v -6443 251.603 -2602
v -6443 251.426 -2604
v -6443 251.549 -2606
v -6443 251.26 -2608
v -6443 251.385 -2610
v -6443 250.158 -2612
v -6443 249.051 -2614
v -6443 248.138 -2616
v -6443 246.181 -2618
v -6443 243.603 -2620
v -6443 242.877 -2622
v -6443 242.129 -2624
v -6443 241.161 -2626
v -6443 239.67 -2628
v -6443 238.84 -2630
v -6443 239.28 -2632
v -6443 240.681 -2634
v -6443 242.173 -2636
v -6443 243.622 -2638
v -6443 244.221 -2640
v -6443 243.106 -2642
v -6443 240.359 -2644
v -6441 265.715 -2582
v -6441 264.505 -2584
v -6441 263.162 -2586
v -6441 261.878 -2588
v -6441 260.62 -2590
v -6441 259.724 -2592
v -6441 258.864 -2594
v -6441 257.713 -2596
v -6441 256.605 -2598
v -6441 255.704 -2600
v -6441 254.888 -2602
v -6441 253.809 -2604
v -6441 252.6 -2606
v -6441 251.866 -2608
v -6441 252.164 -2610
v -6441 250.405 -2612
v -6441 248.248 -2614
v -6441 247.724 -2616
v -6441 246.847 -2618
v -6441 245.373 -2620
v -6441 244.192 -2622
v -6441 243.467 -2624
v -6441 242.575 -2626
v -6441 241.036 -2628
v -6441 239.986 -2630
v -6441 240.123 -2632
v -6441 241.244 -2634
v -6441 242.521 -2636
v -6441 244.006 -2638
v -6441 244.918 -2640
v -6441 244.302 -2642
v -6441 241.946 -2644
v -6439 268.682 -2582
v -6439 267.332 -2584
v -6439 265.772 -2586
v -6439 264.279 -2588
v -6439 263.082 -2590
v -6439 262.553 -2592
v -6439 260.996 -2594
v -6439 259.308 -2596
v -6439 258.141 -2598
v -6439 257.34 -2600
v -6439 256.66 -2602
v -6439 255.67 -2604
v -6439 254.028 -2606
v -6439 253.269 -2608
v -6439 253.626 -2610
v -6439 251.848 -2612
v -6439 249.79 -2614
v -6439 247.977 -2616
v -6439 248.414 -2618
v -6439 248.025 -2620
v -6439 246.323 -2622
v -6439 243.712 -2624
v -6439 243.152 -2626
v -6439 242.012 -2628
v -6439 241.039 -2630
v -6439 240.905 -2632
v -6439 241.556 -2634
v -6439 242.348 -2636
v -6439 243.451 -2638
v -6439 244.258 -2640
v -6439 243.955 -2642
v -6439 242.127 -2644
v -6437 271.638 -2582
v -6437 270.073 -2584
v -6437 268.293 -2586
v -6437 266.529 -2588
v -6437 265.62 -2590
v -6437 265.249 -2592
v -6437 264.046 -2594
v -6437 261.777 -2596
v -6437 259.083 -2598
v -6437 257.691 -2600
v -6437 257.118 -2602
v -6437 256.273 -2604
v -6437 256.823 -2606
v -6437 257.472 -2608
v -6437 256.31 -2610
v -6437 253.836 -2612
v -6437 251.34 -2614
v -6437 249.702 -2616
v -6437 250.19 -2618
v -6437 249.887 -2620
v -6437 248.41 -2622
v -6437 246.036 -2624
v -6437 243.403 -2626
v -6437 242.423 -2628
v -6437 241.904 -2630
v -6437 241.612 -2632
v -6437 241.618 -2634
v -6437 241.609 -2636
v -6437 241.976 -2638
v -6437 242.484 -2640
v -6437 242.641 -2642
v -6437 241.827 -2644
v -6435 273.849 -2582
v -6435 272.186 -2584
v -6435 270.426 -2586
v -6435 268.707 -2588
v -6435 267.146 -2590
v -6435 266.488 -2592
v -6435 265.301 -2594
v -6435 263.326 -2596
v -6435 261.27 -2598
v -6435 259.668 -2600
v -6435 258.974 -2602
v -6435 259.242 -2604
v -6435 259.847 -2606
v -6435 260.123 -2608
v -6435 257.759 -2610
v -6435 254.576 -2612
v -6435 252.718 -2614
v -6435 252.134 -2616
v -6435 251.603 -2618
v -6435 250.63 -2620
v -6435 249.105 -2622
v -6435 247.219 -2624
v -6435 245.231 -2626
v -6435 243.484 -2628
v -6435 242.893 -2630
v -6435 242.516 -2632
v -6435 242.717 -2634
v -6435 242.796 -2636
v -6435 242.778 -2638
v -6435 242.203 -2640
v -6435 241.451 -2642
v -6435 241.617 -2644
v -6433 275.304 -2582
v -6433 273.568 -2584
v -6433 271.942 -2586
v -6433 270.466 -2588
v -6433 269.16 -2590
v -6433 267.537 -2592
v -6433 265.634 -2594
v -6433 263.701 -2596
v -6433 261.973 -2598
v -6433 260.894 -2600
v -6433 260.584 -2602
v -6433 260.628 -2604
v -6433 260.77 -2606
v -6433 259.996 -2608
v -6433 258.333 -2610
v -6433 256.685 -2612
v -6433 254.967 -2614
v -6433 253.276 -2616
v -6433 251.524 -2618
v -6433 249.849 -2620
v -6433 248.298 -2622
v -6433 246.834 -2624
v -6433 245.468 -2626
v -6433 244.742 -2628
v -6433 244.941 -2630
v -6433 244.468 -2632
v -6433 243.732 -2634
v -6433 243.048 -2636
v -6433 242.338 -2638
v -6433 241.469 -2640
v -6433 241.111 -2642
v -6433 241.807 -2644
v -6431 276.208 -2582
v -6431 274.411 -2584
v -6431 272.969 -2586
v -6431 271.827 -2588
v -6431 270.899 -2590
v -6431 269.479 -2592
v -6431 266.97 -2594
v -6431 263.88 -2596
v -6431 262.186 -2598
v -6431 261.252 -2600
v -6431 260.916 -2602
v -6431 260.432 -2604
v -6431 261.809 -2606
v -6431 262.155 -2608
v -6431 260.774 -2610
v -6431 258.372 -2612
v -6431 255.55 -2614
v -6431 252.783 -2616
v -6431 250.027 -2618
v -6431 247.931 -2620
v -6431 246.648 -2622
v -6431 245.921 -2624
v -6431 245.568 -2626
v -6431 246.683 -2628
v -6431 247.066 -2630
v -6431 246.395 -2632
v -6431 244.859 -2634
v -6431 243.107 -2636
v -6431 241.622 -2638
v -6431 240.821 -2640
v -6431 241.068 -2642
v -6431 241.968 -2644
v -6429 277.11 -2582
v -6429 275.255 -2584
v -6429 273.982 -2586
v -6429 273.184 -2588
v -6429 272.69 -2590
v -6429 271.569 -2592
v -6429 269.111 -2594
v -6429 265.772 -2596
v -6429 262.788 -2598
v -6429 261.577 -2600
v -6429 260.881 -2602
v -6429 262.098 -2604
v -6429 264.055 -2606
v -6429 263.679 -2608
v -6429 262.264 -2610
v -6429 259.209 -2612
v -6429 255.387 -2614
v -6429 251.647 -2616
v -6429 248.105 -2618
v -6429 246.196 -2620
v -6429 246.691 -2622
v -6429 247.416 -2624
v -6429 247.905 -2626
v -6429 248.628 -2628
v -6429 248.762 -2630
v -6429 247.847 -2632
v -6429 246.098 -2634
v -6429 244.288 -2636
v -6429 242.678 -2638
v -6429 241.609 -2640
v -6429 241.531 -2642
v -6429 242.216 -2644
v -6427 277.546 -2582
v -6427 275.776 -2584
v -6427 274.809 -2586
v -6427 274.414 -2588
v -6427 274.323 -2590
v -6427 273.402 -2592
v -6427 270.917 -2594
v -6427 267.404 -2596
v -6427 264.077 -2598
v -6427 261.995 -2600
v -6427 261.447 -2602
v -6427 262.679 -2604
v -6427 265.247 -2606
v -6427 265.269 -2608
v -6427 263.313 -2610
v -6427 259.583 -2612
v -6427 255.062 -2614
v -6427 250.858 -2616
v -6427 249.595 -2618
v -6427 248.883 -2620
v -6427 249.308 -2622
v -6427 249.86 -2624
v -6427 249.706 -2626
v -6427 249.673 -2628
v -6427 249.285 -2630
v -6427 248.072 -2632
v -6427 246.319 -2634
v -6427 244.831 -2636
v -6427 243.623 -2638
v -6427 242.731 -2640
v -6427 242.533 -2642
v -6427 242.969 -2644
v -6425 277.919 -2582
v -6425 276.632 -2584
v -6425 276.463 -2586
v -6425 276.291 -2588
v -6425 275.331 -2590
v -6425 274.189 -2592
v -6425 271.367 -2594
v -6425 267.585 -2596
v -6425 264.972 -2598
v -6425 262.859 -2600
v -6425 262.022 -2602
v -6425 264.53 -2604
v -6425 266.246 -2606
v -6425 265.825 -2608
v -6425 263.728 -2610
v -6425 260.08 -2612
v -6425 255.605 -2614
v -6425 253.397 -2616
v -6425 252.113 -2618
v -6425 251.126 -2620
v -6425 250.22 -2622
v -6425 249.92 -2624
v -6425 249.773 -2626
v -6425 250.349 -2628
v -6425 249.604 -2630
v -6425 248.032 -2632
v -6425 246.257 -2634
v -6425 245.192 -2636
v -6425 244.758 -2638
v -6425 244.623 -2640
v -6425 244.289 -2642
v -6425 244.482 -2644
v -6423 279.316 -2582
v -6423 278.61 -2584
v -6423 278.636 -2586
v -6423 278.387 -2588
v -6423 276.979 -2590
v -6423 274.499 -2592
v -6423 271.223 -2594
v -6423 267.959 -2596
v -6423 265.191 -2598
v -6423 266.243 -2600
v -6423 267.359 -2602
v -6423 267.39 -2604
v -6423 267.181 -2606
v -6423 266.318 -2608
v -6423 264.437 -2610
v -6423 261.519 -2612
v -6423 258.175 -2614
v -6423 256.187 -2616
v -6423 254.076 -2618
v -6423 252.184 -2620
v -6423 250.533 -2622
v -6423 251.386 -2624
v -6423 252.285 -2626
v -6423 252.586 -2628
v -6423 251.469 -2630
v -6423 249.694 -2632
v -6423 248.013 -2634
v -6423 247.34 -2636
v -6423 247.589 -2638
v -6423 248.059 -2640
v -6423 247.907 -2642
v -6423 246.53 -2644
v -6421 281.617 -2582
v -6421 281.034 -2584
v -6421 280.838 -2586
v -6421 280.026 -2588
v -6421 277.894 -2590
v -6421 274.416 -2592
v -6421 270.196 -2594
v -6421 267.565 -2596
v -6421 269.274 -2598
v -6421 271.054 -2600
v -6421 272.313 -2602
v -6421 272.117 -2604
v -6421 270.127 -2606
v -6421 268.274 -2608
v -6421 266.448 -2610
v -6421 264.5 -2612
v -6421 262.253 -2614
v -6421 259.463 -2616
v -6421 256.258 -2618
v -6421 255.033 -2620
v -6421 254.946 -2622
v -6421 255.241 -2624
v -6421 254.754 -2626
v -6421 253.231 -2628
v -6421 251.994 -2630
v -6421 250.189 -2632
v -6421 248.692 -2634
v -6421 248.378 -2636
v -6421 249.218 -2638
v -6421 250.231 -2640
v -6421 250.258 -2642
v -6421 248.629 -2644
v -6419 284.019 -2582
v -6419 283.241 -2584
v -6419 282.396 -2586
v -6419 280.603 -2588
v -6419 277.456 -2590
v -6419 272.688 -2592
v -6419 270.455 -2594
v -6419 271.937 -2596
v -6419 273.731 -2598
v -6419 275.223 -2600
v -6419 276.82 -2602
v -6419 276.278 -2604
v -6419 274.566 -2606
v -6419 272.941 -2608
v -6419 271.198 -2610
v -6419 269.094 -2612
v -6419 266.403 -2614
v -6419 263.156 -2616
v -6419 260.796 -2618
v -6419 259.146 -2620
v -6419 258.241 -2622
v -6419 257.678 -2624
v -6419 256.594 -2626
v -6419 254.411 -2628
v -6419 250.957 -2630
v -6419 249.355 -2632
v -6419 248.198 -2634
v -6419 248.74 -2636
v -6419 250.241 -2638
v -6419 251.023 -2640
v -6419 251.163 -2642
v -6419 249.677 -2644
f 16 17 18
f 16 13 17
f 15 13 16
f 16 19 15
f 16 18 19
f 12 13 11
f 11 13 14
f 15 14 13
f 12 11 8
f 14 15 40
f 19 44 15
f 40 15 42
f 42 15 46
f 46 15 45
f 44 45 15
f 14 40 11
f 46 45 73
f 45 44 49
f 45 49 73
f 10 8 11
f 11 40 39
f 10 11 39
f 46 73 70
f 46 70 42
f 40 42 39
f 42 41 39
f 41 42 70
f 70 73 75
f 49 74 73
f 74 75 73
f 44 47 49
f 20 47 44
f 20 44 19
f 19 18 20
f 120 121 141
f 120 116 121
f 114 116 120
f 120 115 114
f 120 141 115
f 143 144 141
f 121 143 141
f 145 141 144
f 142 141 145
f 115 141 136
f 136 141 142
f 118 121 116
f 117 118 116
f 117 116 94
f 119 94 116
f 114 119 116
f 75 72 70
f 75 93 92
f 72 75 92
f 75 74 77
f 75 77 93
f 119 92 94
f 92 119 84
f 114 255 119
f 255 84 119
f 74 76 77
f 53 76 74
f 53 74 49
f 94 96 117
f 94 93 96
f 92 93 94
f 49 47 53
f 144 165 145
f 145 161 142
f 161 145 165
f 121 146 143
f 118 146 121
f 70 72 68
f 68 41 70
f 39 41 36
f 43 36 41
f 43 41 68
f 114 115 110
f 113 114 110
f 255 114 113
f 20 18 21
f 77 95 93
f 95 96 93
f 115 136 112
f 112 110 115
f 10 39 36
f 112 136 135
f 142 138 136
f 136 138 135
f 138 142 161
f 186 165 187
f 186 187 184
f 165 186 161
f 185 161 186
f 185 186 184
f 166 187 165
f 165 164 166
f 144 164 165
f 3 8 7
f 9 8 10
f 9 10 36
f 7 8 9
f 72 92 84
f 20 21 48
f 20 48 256
f 20 256 47
f 166 184 187
f 143 146 147
f 147 144 143
f 118 117 122
f 118 122 146
f 113 84 255
f 138 161 159
f 140 138 159
f 140 135 138
f 206 211 212
f 212 211 215
f 212 215 231
f 212 207 206
f 212 230 207
f 231 230 212
f 71 68 72
f 84 71 72
f 96 95 99
f 96 99 117
f 162 161 185
f 161 162 159
f 147 164 144
f 77 76 79
f 79 97 95
f 79 95 77
f 79 80 97
f 79 76 80
f 192 214 211
f 213 192 211
f 189 213 211
f 206 189 211
f 214 215 211
f 37 36 43
f 37 43 63
f 63 43 68
f 183 184 189
f 183 189 206
f 189 188 213
f 188 189 184
f 69 68 71
f 63 68 69
f 182 184 183
f 162 184 182
f 162 185 184
f 188 184 166
f 256 50 47
f 50 51 47
f 51 52 47
f 95 97 99
f 38 36 37
f 38 9 36
f 206 205 183
f 206 207 205
f 229 249 247
f 229 228 249
f 228 250 249
f 248 249 239
f 250 239 249
f 232 250 228
f 232 251 250
f 235 251 232
f 235 232 231
f 231 232 230
f 228 230 232
f 227 230 228
f 207 230 227
f 214 231 215
f 53 54 76
f 52 54 47
f 53 47 54
f 162 182 163
f 163 159 162
f 227 228 225
f 229 225 228
f 210 205 207
f 207 227 225
f 210 207 225
f 250 251 239
f 177 181 183
f 198 183 205
f 177 183 198
f 182 183 181
f 229 247 226
f 226 247 245
f 248 239 246
f 80 76 78
f 54 78 76
f 71 84 69
f 213 188 192
f 166 164 169
f 166 169 188
f 147 149 164
f 150 167 164
f 167 168 164
f 169 164 168
f 191 192 190
f 188 190 192
f 192 191 214
f 139 135 140
f 137 135 139
f 140 159 153
f 140 153 139
f 188 169 190
f 111 113 110
f 86 110 112
f 112 105 86
f 112 135 105
f 105 135 132
f 132 135 137
f 86 111 110
f 147 146 149
f 149 150 164
f 99 101 117
f 101 122 117
f 122 125 146
f 125 148 146
f 148 149 146
f 98 99 97
f 99 98 101
f 78 98 80
f 80 98 97
f 208 199 205
f 198 205 199
f 163 182 181
f 111 84 113
f 160 159 163
f 153 159 160
f 209 210 225
f 209 205 210
f 209 208 205
f 226 225 229
f 235 252 251
f 252 243 251
f 243 239 251
f 169 168 190
f 214 217 231
f 216 214 191
f 214 216 217
f 235 231 234
f 234 252 235
f 217 233 231
f 233 234 231
f 209 225 226
f 226 219 209
f 237 226 245
f 237 236 226
f 226 236 219
f 171 190 168
f 191 190 171
f 160 163 174
f 163 181 176
f 163 176 174
f 240 246 239
f 176 181 177
f 171 194 191
f 196 191 194
f 216 191 196
f 243 238 239
f 240 239 238
f 196 194 193
f 172 194 171
f 172 193 194
f 139 153 137
f 180 177 198
f 180 174 177
f 176 177 174
f 199 208 203
f 208 218 203
f 209 218 208
f 209 219 218
f 234 253 252
f 233 253 234
f 252 254 243
f 244 243 254
f 244 238 243
f 217 216 202
f 233 217 222
f 220 222 217
f 220 217 202
f 233 222 253
f 220 221 222
f 222 221 223
f 222 223 253
f 150 170 167
f 167 170 168
f 178 195 193
f 179 195 178
f 178 175 179
f 173 175 178
f 172 178 193
f 173 178 172
f 198 199 197
f 198 197 180
f 199 203 197
f 160 155 153
f 160 174 155
f 223 241 242
f 224 241 223
f 9 28 7
f 9 38 28
f 22 50 256
f 48 22 256
f 137 133 132
f 137 152 133
f 137 153 152
f 196 193 195
f 220 202 204
f 204 221 220
f 86 84 111
f 179 200 195
f 195 200 201
f 195 201 196
f 149 148 150
f 224 223 221
f 132 133 131
f 108 132 131
f 108 105 132
f 153 155 152
f 204 202 200
f 78 100 98
f 82 100 78
f 82 78 54
f 101 102 122
f 102 101 100
f 98 100 101
f 223 242 253
f 201 202 216
f 196 201 216
f 69 64 63
f 69 83 64
f 69 84 83
f 173 157 175
f 158 175 157
f 201 200 202
f 22 51 50
f 171 168 170
f 122 102 125
f 148 129 150
f 150 151 170
f 150 129 151
f 21 22 48
f 173 170 157
f 156 157 170
f 158 157 154
f 156 154 157
f 171 170 172
f 127 129 148
f 127 148 125
f 84 86 83
f 172 170 173
f 102 123 125
f 125 123 127
f 86 105 103
f 90 86 103
f 90 83 86
f 37 29 38
f 38 29 28
f 90 89 83
f 90 103 89
f 105 108 103
f 55 51 22
f 55 56 51
f 51 56 52
f 134 154 130
f 134 130 128
f 102 124 123
f 102 87 124
f 87 102 100
f 151 130 170
f 151 129 130
f 130 154 156
f 63 62 37
f 37 62 29
f 63 64 62
f 7 28 2
f 7 2 3
f 130 156 170
f 52 81 54
f 54 81 82
f 60 52 56
f 60 81 52
f 109 128 107
f 129 128 130
f 129 107 128
f 82 87 100
f 107 129 126
f 127 126 129
f 22 23 24
f 21 23 22
f 24 55 22
f 109 107 104
f 124 88 123
f 124 87 88
f 127 123 126
f 3 2 1
f 28 27 26
f 28 26 2
f 28 29 27
f 67 85 66
f 91 88 85
f 87 85 88
f 66 85 87
f 106 126 123
f 88 106 123
f 29 35 27
f 29 62 35
f 106 104 107
f 88 104 106
f 107 126 106
f 66 87 82
f 91 104 88
f 24 57 55
f 57 56 55
f 82 81 66
f 67 66 61
f 57 58 56
f 60 56 59
f 33 59 56
f 30 33 56
f 58 30 56
f 65 61 66
f 59 61 65
f 33 61 59
f 33 34 61
f 59 65 60
f 60 65 81
f 65 66 81
f 33 31 34
f 30 31 33
f 32 31 30
f 57 24 58
f 24 25 58
f 58 25 30
f 6 32 25
f 25 5 6
f 6 5 4
f 32 30 25
f 24 23 25
f 25 23 5
f 276 274 273
f 272 273 274
f 273 272 271
f 272 270 271
f 271 270 268
f 272 454 270
f 454 272 274
f 278 454 274
f 278 274 277
f 275 277 274
f 276 275 274
f 270 454 269
f 270 269 268
f 279 275 276
f 280 279 276
f 454 278 452
f 278 293 452
f 278 277 293
f 453 269 454
f 454 452 453
f 421 414 422
f 413 422 414
f 422 413 423
f 423 435 422
f 435 436 422
f 421 422 436
f 279 299 275
f 299 277 275
f 277 299 298
f 277 297 293
f 298 297 277
f 435 423 437
f 444 435 437
f 436 435 444
f 406 423 413
f 407 423 406
f 423 407 424
f 424 437 423
f 413 396 406
f 396 413 403
f 414 403 413
f 376 359 377
f 377 389 376
f 360 359 376
f 376 381 360
f 389 381 376
f 297 320 294
f 312 320 297
f 320 312 331
f 321 294 320
f 331 337 320
f 329 320 337
f 320 329 321
f 299 279 300
f 298 299 300
f 294 452 293
f 294 293 297
f 297 298 312
f 403 381 396
f 381 389 396
f 396 389 390
f 390 406 396
f 406 398 407
f 390 398 406
f 300 311 298
f 311 312 298
f 389 377 390
f 361 359 355
f 368 377 359
f 366 368 359
f 359 361 366
f 355 359 351
f 359 360 351
f 322 331 312
f 312 311 322
f 337 331 338
f 337 351 329
f 338 354 337
f 354 355 337
f 351 337 355
f 267 268 269
f 292 267 269
f 453 292 269
f 383 390 377
f 398 390 383
f 377 368 383
f 358 351 360
f 360 375 358
f 375 360 380
f 382 360 381
f 380 360 382
f 453 295 292
f 452 295 453
f 442 421 436
f 451 450 448
f 344 366 361
f 366 344 368
f 330 321 329
f 329 351 330
f 319 294 321
f 321 328 319
f 328 321 330
f 296 295 294
f 294 295 452
f 310 296 294
f 294 319 310
f 367 383 368
f 368 344 367
f 355 354 361
f 361 354 344
f 354 338 344
f 331 322 333
f 333 338 331
f 450 437 448
f 353 351 358
f 351 353 330
f 338 333 344
f 414 421 404
f 404 403 414
f 287 292 295
f 296 287 295
f 281 279 280
f 281 300 279
f 381 403 382
f 310 287 296
f 403 404 382
f 415 424 407
f 424 415 426
f 283 282 280
f 282 281 280
f 268 267 260
f 313 311 300
f 303 313 300
f 303 300 281
f 267 266 260
f 267 292 266
f 364 353 358
f 353 364 352
f 352 330 353
f 311 313 322
f 259 266 292
f 288 259 292
f 292 287 288
f 310 306 287
f 287 306 286
f 288 287 286
f 374 358 375
f 358 374 364
f 437 449 448
f 438 449 437
f 437 424 438
f 426 438 424
f 421 442 430
f 430 419 421
f 419 404 421
f 386 375 380
f 380 395 386
f 382 395 380
f 395 382 404
f 405 407 398
f 407 405 415
f 397 405 398
f 398 383 397
f 328 330 327
f 327 319 328
f 343 344 333
f 333 322 332
f 332 343 333
f 409 395 404
f 404 419 409
f 342 330 352
f 330 342 327
f 375 386 378
f 378 374 375
f 310 319 306
f 384 383 367
f 383 384 391
f 391 397 383
f 443 430 442
f 448 449 445
f 446 448 445
f 345 344 343
f 344 345 362
f 362 367 344
f 303 281 282
f 322 314 323
f 323 332 322
f 314 322 313
f 370 384 367
f 367 362 370
f 319 327 317
f 317 306 319
f 301 313 303
f 303 302 301
f 302 303 282
f 419 420 409
f 420 419 430
f 434 430 443
f 430 434 420
f 447 446 445
f 314 313 301
f 259 260 266
f 340 327 342
f 327 340 336
f 336 325 327
f 325 317 327
f 352 364 356
f 356 342 352
f 342 356 350
f 350 340 342
f 374 378 371
f 371 364 374
f 345 334 347
f 343 334 345
f 362 345 347
f 440 432 434
f 432 420 434
f 284 302 282
f 284 282 283
f 306 317 309
f 309 308 306
f 286 306 308
f 364 371 365
f 365 356 364
f 347 369 362
f 370 362 369
f 417 409 420
f 409 417 411
f 411 402 409
f 395 409 402
f 439 449 438
f 439 445 449
f 425 438 426
f 438 425 439
f 420 432 428
f 428 417 420
f 402 393 395
f 393 386 395
f 386 393 388
f 388 378 386
f 426 415 425
f 308 455 286
f 288 286 455
f 334 343 332
f 317 325 318
f 318 309 317
f 455 258 288
f 259 288 258
f 369 384 370
f 302 284 304
f 301 302 304
f 332 323 334
f 259 258 257
f 260 259 257
f 304 314 301
f 324 334 323
f 323 314 324
f 285 284 283
f 399 415 405
f 416 425 415
f 415 399 416
f 405 397 399
f 316 326 335
f 335 339 316
f 341 339 335
f 346 349 357
f 357 363 346
f 391 384 385
f 384 369 385
f 385 397 391
f 324 314 316
f 314 305 316
f 305 314 304
f 339 341 349
f 349 346 339
f 315 316 305
f 326 316 315
f 307 315 305
f 441 439 433
f 305 289 307
f 316 334 324
f 397 385 399
f 348 369 347
f 347 334 348
f 334 316 339
f 339 346 334
f 346 348 334
f 363 348 346
f 372 385 369
f 369 348 372
f 348 363 372
f 373 372 363
f 291 290 289
f 289 305 291
f 261 284 285
f 261 304 284
f 304 291 305
f 291 304 261
f 433 431 427
f 431 433 439
f 427 429 433
f 412 410 401
f 408 401 410
f 400 394 401
f 401 408 400
f 379 372 373
f 265 262 263
f 265 290 262
f 372 379 387
f 387 392 372
f 392 387 394
f 394 400 392
f 290 291 262
f 429 427 418
f 410 418 427
f 418 410 412
f 431 439 425
f 425 416 431
f 261 262 291
f 263 262 261
f 264 263 261
f 264 261 285
f 399 400 408
f 408 416 399
f 400 399 392
f 392 399 385
f 427 431 416
f 416 408 410
f 410 427 416
f 385 372 392
f 501 499 500
f 500 499 498
f 558 557 556
f 559 557 558
f 467 465 466
f 466 465 464
f 528 527 526
f 529 527 528
f 596 595 594
f 584 583 582
f 556 551 550
f 557 551 556
f 523 526 521
f 526 523 528
f 464 459 466
f 466 459 458
f 499 495 498
f 495 499 493
f 508 515 514
f 509 515 508
f 478 476 487
f 487 476 486
f 536 547 546
f 537 547 536
f 538 537 536
f 539 537 538
f 539 538 569
f 569 538 568
f 569 568 575
f 575 568 574
f 477 509 508
f 479 509 477
f 479 477 478
f 478 477 476
f 578 577 576
f 550 551 549
f 523 521 522
f 590 589 588
f 458 459 457
f 495 493 494
f 522 521 520
f 458 457 456
f 550 549 548
f 494 493 492
f 522 520 525
f 457 473 456
f 549 565 548
f 494 492 497
f 548 565 564
f 525 520 524
f 456 473 472
f 497 492 496
f 565 566 564
f 516 525 524
f 473 474 472
f 488 497 496
f 516 517 525
f 475 474 473
f 567 566 565
f 488 489 497
f 562 560 567
f 567 560 566
f 518 519 517
f 518 517 516
f 475 468 474
f 470 468 475
f 490 489 488
f 491 489 490
f 562 561 560
f 534 519 518
f 470 469 468
f 506 491 490
f 507 491 506
f 593 592 591
f 563 561 562
f 471 469 470
f 581 580 579
f 534 535 519
f 530 535 534
f 471 461 469
f 563 552 561
f 504 507 506
f 460 461 471
f 504 502 507
f 480 485 484
f 513 510 512
f 482 481 480
f 482 483 481
f 510 483 482
f 480 481 485
f 483 510 511
f 511 510 513
f 554 552 563
f 530 531 535
f 570 573 572
f 570 571 573
f 541 571 570
f 541 543 571
f 543 541 542
f 542 541 540
f 542 540 545
f 545 540 544
f 554 555 553
f 554 553 552
f 531 532 533
f 532 531 530
f 599 598 597
f 587 586 585
f 462 461 460
f 504 503 502
f 463 461 462
f 503 504 505
f 629 653 631
f 627 653 629
f 625 653 627
f 621 653 619
f 619 653 623
f 623 653 625
f 626 629 628
f 629 626 627
f 628 631 630
f 631 628 629
f 627 624 625
f 624 627 626
f 619 620 621
f 625 622 623
f 622 625 624
f 623 618 619
f 618 623 622
f 620 619 618
f 637 630 638
f 636 628 637
f 628 636 626
f 630 637 628
f 626 635 624
f 635 626 636
f 624 634 622
f 634 624 635
f 622 632 618
f 632 622 634
f 633 618 632
f 618 633 620
f 645 644 638
f 638 644 637
f 636 642 635
f 643 642 636
f 644 643 637
f 637 643 636
f 635 641 634
f 642 641 635
f 634 640 632
f 641 640 634
f 640 639 632
f 632 639 633
f 602 601 600
f 603 601 602
f 604 603 602
f 605 603 604
f 606 605 604
f 607 605 606
f 608 607 606
f 609 607 608
f 610 609 608
f 611 609 610
f 612 611 610
f 613 611 612
f 614 613 612
f 615 613 614
f 616 615 614
f 617 615 616
f 652 651 645
f 642 648 641
f 649 648 642
f 651 650 644
f 645 651 644
f 643 649 642
f 650 649 643
f 644 650 643
f 641 647 640
f 648 647 641
f 647 646 640
f 640 646 639
f 652 654 651
f 649 654 648
f 650 654 649
f 651 654 650
f 648 654 647
f 647 654 646
f 704 703 702
f 702 701 700
f 703 701 702
f 705 703 704
f 706 705 704
f 700 699 698
f 701 699 700
f 724 719 723
f 725 719 724
f 707 705 706
f 723 719 722
f 726 719 725
f 708 707 706
f 698 697 696
f 699 697 698
f 722 719 721
f 709 707 708
f 727 719 726
f 737 735 736
f 738 737 736
f 739 737 738
f 736 735 734
f 734 733 732
f 735 733 734
f 740 739 738
f 741 739 740
f 697 695 696
f 710 709 708
f 696 695 694
f 733 731 732
f 721 719 720
f 742 741 740
f 743 741 742
f 732 731 730
f 711 709 710
f 728 719 727
f 747 745 746
f 744 743 742
f 745 743 744
f 746 745 744
f 712 711 710
f 713 711 712
f 695 693 694
f 720 719 718
f 729 719 728
f 694 693 692
f 714 713 712
f 715 713 714
f 717 715 716
f 716 715 714
f 666 690 668
f 664 690 666
f 662 690 664
f 660 690 662
f 658 690 656
f 656 690 660
f 665 668 667
f 668 665 666
f 663 666 665
f 666 663 664
f 664 661 662
f 661 664 663
f 662 659 660
f 659 662 661
f 660 655 656
f 655 660 659
f 657 656 655
f 656 657 658
f 674 667 675
f 667 674 665
f 673 665 674
f 665 673 663
f 663 672 661
f 672 663 673
f 661 671 659
f 671 661 672
f 659 669 655
f 669 659 671
f 670 655 669
f 655 670 657
f 682 681 675
f 675 681 674
f 681 680 674
f 674 680 673
f 673 679 672
f 680 679 673
f 672 678 671
f 679 678 672
f 671 677 669
f 678 677 671
f 677 676 669
f 669 676 670
f 689 688 682
f 688 687 681
f 682 688 681
f 687 686 680
f 681 687 680
f 680 686 679
f 679 685 678
f 686 685 679
f 678 684 677
f 685 684 678
f 684 683 677
f 677 683 676
f 689 691 688
f 687 691 686
f 688 691 687
f 686 691 685
f 685 691 684
f 684 691 683
f 750 749 748
f 751 749 750
f 766 765 764
f 767 765 766
f 758 757 756
f 759 757 758
f 754 753 752
f 755 753 754
f 762 761 760
f 763 761 762
f 801 769 768
f 768 800 801
f 833 801 800
f 800 832 833
f 865 833 832
f 832 864 865
f 897 865 864
f 864 896 897
f 929 897 896
f 896 928 929
f 961 929 928
f 928 960 961
f 993 961 960
f 960 992 993
f 1025 993 992
f 992 1024 1025
f 1057 1025 1024
f 1024 1056 1057
f 1089 1057 1056
f 1056 1088 1089
f 1121 1089 1088
f 1088 1120 1121
f 1153 1121 1120
f 1120 1152 1153
f 1185 1153 1152
f 1152 1184 1185
f 1217 1185 1184
f 1184 1216 1217
f 1249 1217 1216
f 1216 1248 1249
f 1281 1249 1248
f 1248 1280 1281
f 1313 1281 1280
f 1280 1312 1313
f 1345 1313 1312
f 1312 1344 1345
f 1377 1345 1344
f 1344 1376 1377
f 1409 1377 1376
f 1376 1408 1409
f 1441 1409 1408
f 1408 1440 1441
f 1473 1441 1440
f 1440 1472 1473
f 1505 1473 1472
f 1472 1504 1505
f 1537 1505 1504
f 1504 1536 1537
f 1569 1537 1536
f 1536 1568 1569
f 1601 1569 1568
f 1568 1600 1601
f 1633 1601 1600
f 1600 1632 1633
f 1665 1633 1632
f 1632 1664 1665
f 1697 1665 1664
f 1664 1696 1697
f 1729 1697 1696
f 1696 1728 1729
f 1761 1729 1728
f 1728 1760 1761
f 802 770 769
f 769 801 802
f 834 802 801
f 801 833 834
f 866 834 833
f 833 865 866
f 898 866 865
f 865 897 898
f 930 898 897
f 897 929 930
f 962 930 929
f 929 961 962
f 994 962 961
f 961 993 994
f 1026 994 993
f 993 1025 1026
f 1058 1026 1025
f 1025 1057 1058
f 1090 1058 1057
f 1057 1089 1090
f 1122 1090 1089
f 1089 1121 1122
f 1154 1122 1121
f 1121 1153 1154
f 1186 1154 1153
f 1153 1185 1186
f 1218 1186 1185
f 1185 1217 1218
f 1250 1218 1217
f 1217 1249 1250
f 1282 1250 1249
f 1249 1281 1282
f 1314 1282 1281
f 1281 1313 1314
f 1346 1314 1313
f 1313 1345 1346
f 1378 1346 1345
f 1345 1377 1378
f 1410 1378 1377
f 1377 1409 1410
f 1442 1410 1409
f 1409 1441 1442
f 1474 1442 1441
f 1441 1473 1474
f 1506 1474 1473
f 1473 1505 1506
f 1538 1506 1505
f 1505 1537 1538
f 1570 1538 1537
f 1537 1569 1570
f 1602 1570 1569
f 1569 1601 1602
f 1634 1602 1601
f 1601 1633 1634
f 1666 1634 1633
f 1633 1665 1666
f 1698 1666 1665
f 1665 1697 1698
f 1730 1698 1697
f 1697 1729 1730
f 1762 1730 1729
f 1729 1761 1762
f 803 771 770
f 770 802 803
f 835 803 802
f 802 834 835
f 867 835 834
f 834 866 867
f 899 867 866
f 866 898 899
f 931 899 898
f 898 930 931
f 963 931 930
f 930 962 963
f 995 963 962
f 962 994 995
f 1027 995 994
f 994 1026 1027
f 1059 1027 1026
f 1026 1058 1059
f 1091 1059 1058
f 1058 1090 1091
f 1123 1091 1090
f 1090 1122 1123
f 1155 1123 1122
f 1122 1154 1155
f 1187 1155 1154
f 1154 1186 1187
f 1219 1187 1186
f 1186 1218 1219
f 1251 1219 1218
f 1218 1250 1251
f 1283 1251 1250
f 1250 1282 1283
f 1315 1283 1282
f 1282 1314 1315
f 1347 1315 1314
f 1314 1346 1347
f 1379 1347 1346
f 1346 1378 1379
f 1411 1379 1378
f 1378 1410 1411
f 1443 1411 1410
f 1410 1442 1443
f 1475 1443 1442
f 1442 1474 1475
f 1507 1475 1474
f 1474 1506 1507
f 1539 1507 1506
f 1506 1538 1539
f 1571 1539 1538
f 1538 1570 1571
f 1603 1571 1570
f 1570 1602 1603
f 1635 1603 1602
f 1602 1634 1635
f 1667 1635 1634
f 1634 1666 1667
f 1699 1667 1666
f 1666 1698 1699
f 1731 1699 1698
f 1698 1730 1731
f 1763 1731 1730
f 1730 1762 1763
f 804 772 771
f 771 803 804
f 836 804 803
f 803 835 836
f 868 836 835
f 835 867 868
f 900 868 867
f 867 899 900
f 932 900 899
f 899 931 932
f 964 932 931
f 931 963 964
f 996 964 963
f 963 995 996
f 1028 996 995
f 995 1027 1028
f 1060 1028 1027
f 1027 1059 1060
f 1092 1060 1059
f 1059 1091 1092
f 1124 1092 1091
f 1091 1123 1124
f 1156 1124 1123
f 1123 1155 1156
f 1188 1156 1155
f 1155 1187 1188
f 1220 1188 1187
f 1187 1219 1220
f 1252 1220 1219
f 1219 1251 1252
f 1284 1252 1251
f 1251 1283 1284
f 1316 1284 1283
f 1283 1315 1316
f 1348 1316 1315
f 1315 1347 1348
f 1380 1348 1347
f 1347 1379 1380
f 1412 1380 1379
f 1379 1411 1412
f 1444 1412 1411
f 1411 1443 1444
f 1476 1444 1443
f 1443 1475 1476
f 1508 1476 1475
f 1475 1507 1508
f 1540 1508 1507
f 1507 1539 1540
f 1572 1540 1539
f 1539 1571 1572
f 1604 1572 1571
f 1571 1603 1604
f 1636 1604 1603
f 1603 1635 1636
f 1668 1636 1635
f 1635 1667 1668
f 1700 1668 1667
f 1667 1699 1700
f 1732 1700 1699
f 1699 1731 1732
f 1764 1732 1731
f 1731 1763 1764
f 805 773 772
f 772 804 805
f 837 805 804
f 804 836 837
f 869 837 836
f 836 868 869
f 901 869 868
f 868 900 901
f 933 901 900
f 900 932 933
f 965 933 932
f 932 964 965
f 997 965 964
f 964 996 997
f 1029 997 996
f 996 1028 1029
f 1061 1029 1028
f 1028 1060 1061
f 1093 1061 1060
f 1060 1092 1093
f 1125 1093 1092
f 1092 1124 1125
f 1157 1125 1124
f 1124 1156 1157
f 1189 1157 1156
f 1156 1188 1189
f 1221 1189 1188
f 1188 1220 1221
f 1253 1221 1220
f 1220 1252 1253
f 1285 1253 1252
f 1252 1284 1285
f 1317 1285 1284
f 1284 1316 1317
f 1349 1317 1316
f 1316 1348 1349
f 1381 1349 1348
f 1348 1380 1381
f 1413 1381 1380
f 1380 1412 1413
f 1445 1413 1412
f 1412 1444 1445
f 1477 1445 1444
f 1444 1476 1477
f 1509 1477 1476
f 1476 1508 1509
f 1541 1509 1508
f 1508 1540 1541
f 1573 1541 1540
f 1540 1572 1573
f 1605 1573 1572
f 1572 1604 1605
f 1637 1605 1604
f 1604 1636 1637
f 1669 1637 1636
f 1636 1668 1669
f 1701 1669 1668
f 1668 1700 1701
f 1733 1701 1700
f 1700 1732 1733
f 1765 1733 1732
f 1732 1764 1765
f 806 774 773
f 773 805 806
f 838 806 805
f 805 837 838
f 870 838 837
f 837 869 870
f 902 870 869
f 869 901 902
f 934 902 901
f 901 933 934
f 966 934 933
f 933 965 966
f 998 966 965
f 965 997 998
f 1030 998 997
f 997 1029 1030
f 1062 1030 1029
f 1029 1061 1062
f 1094 1062 1061
f 1061 1093 1094
f 1126 1094 1093
f 1093 1125 1126
f 1158 1126 1125
f 1125 1157 1158
f 1190 1158 1157
f 1157 1189 1190
f 1222 1190 1189
f 1189 1221 1222
f 1254 1222 1221
f 1221 1253 1254
f 1286 1254 1253
f 1253 1285 1286
f 1318 1286 1285
f 1285 1317 1318
f 1350 1318 1317
f 1317 1349 1350
f 1382 1350 1349
f 1349 1381 1382
f 1414 1382 1381
f 1381 1413 1414
f 1446 1414 1413
f 1413 1445 1446
f 1478 1446 1445
f 1445 1477 1478
f 1510 1478 1477
f 1477 1509 1510
f 1542 1510 1509
f 1509 1541 1542
f 1574 1542 1541
f 1541 1573 1574
f 1606 1574 1573
f 1573 1605 1606
f 1638 1606 1605
f 1605 1637 1638
f 1670 1638 1637
f 1637 1669 1670
f 1702 1670 1669
f 1669 1701 1702
f 1734 1702 1701
f 1701 1733 1734
f 1766 1734 1733
f 1733 1765 1766
f 807 775 774
f 774 806 807
f 839 807 806
f 806 838 839
f 871 839 838
f 838 870 871
f 903 871 870
f 870 902 903
f 935 903 902
f 902 934 935
f 967 935 934
f 934 966 967
f 999 967 966
f 966 998 999
f 1031 999 998
f 998 1030 1031
f 1063 1031 1030
f 1030 1062 1063
f 1095 1063 1062
f 1062 1094 1095
f 1127 1095 1094
f 1094 1126 1127
f 1159 1127 1126
f 1126 1158 1159
f 1191 1159 1158
f 1158 1190 1191
f 1223 1191 1190
f 1190 1222 1223
f 1255 1223 1222
f 1222 1254 1255
f 1287 1255 1254
f 1254 1286 1287
f 1319 1287 1286
f 1286 1318 1319
f 1351 1319 1318
f 1318 1350 1351
f 1383 1351 1350
f 1350 1382 1383
f 1415 1383 1382
f 1382 1414 1415
f 1447 1415 1414
f 1414 1446 1447
f 1479 1447 1446
f 1446 1478 1479
f 1511 1479 1478
f 1478 1510 1511
f 1543 1511 1510
f 1510 1542 1543
f 1575 1543 1542
f 1542 1574 1575
f 1607 1575 1574
f 1574 1606 1607
f 1639 1607 1606
f 1606 1638 1639
f 1671 1639 1638
f 1638 1670 1671
f 1703 1671 1670
f 1670 1702 1703
f 1735 1703 1702
f 1702 1734 1735
f 1767 1735 1734
f 1734 1766 1767
f 808 776 775
f 775 807 808
f 840 808 807
f 807 839 840
f 872 840 839
f 839 871 872
f 904 872 871
f 871 903 904
f 936 904 903
f 903 935 936
f 968 936 935
f 935 967 968
f 1000 968 967
f 967 999 1000
f 1032 1000 999
f 999 1031 1032
f 1064 1032 1031
f 1031 1063 1064
f 1096 1064 1063
f 1063 1095 1096
f 1128 1096 1095
f 1095 1127 1128
f 1160 1128 1127
f 1127 1159 1160
f 1192 1160 1159
f 1159 1191 1192
f 1224 1192 1191
f 1191 1223 1224
f 1256 1224 1223
f 1223 1255 1256
f 1288 1256 1255
f 1255 1287 1288
f 1320 1288 1287
f 1287 1319 1320
f 1352 1320 1319
f 1319 1351 1352
f 1384 1352 1351
f 1351 1383 1384
f 1416 1384 1383
f 1383 1415 1416
f 1448 1416 1415
f 1415 1447 1448
f 1480 1448 1447
f 1447 1479 1480
f 1512 1480 1479
f 1479 1511 1512
f 1544 1512 1511
f 1511 1543 1544
f 1576 1544 1543
f 1543 1575 1576
f 1608 1576 1575
f 1575 1607 1608
f 1640 1608 1607
f 1607 1639 1640
f 1672 1640 1639
f 1639 1671 1672
f 1704 1672 1671
f 1671 1703 1704
f 1736 1704 1703
f 1703 1735 1736
f 1768 1736 1735
f 1735 1767 1768
f 809 777 776
f 776 808 809
f 841 809 808
f 808 840 841
f 873 841 840
f 840 872 873
f 905 873 872
f 872 904 905
f 937 905 904
f 904 936 937
f 969 937 936
f 936 968 969
f 1001 969 968
f 968 1000 1001
f 1033 1001 1000
f 1000 1032 1033
f 1065 1033 1032
f 1032 1064 1065
f 1097 1065 1064
f 1064 1096 1097
f 1129 1097 1096
f 1096 1128 1129
f 1161 1129 1128
f 1128 1160 1161
f 1193 1161 1160
f 1160 1192 1193
f 1225 1193 1192
f 1192 1224 1225
f 1257 1225 1224
f 1224 1256 1257
f 1289 1257 1256
f 1256 1288 1289
f 1321 1289 1288
f 1288 1320 1321
f 1353 1321 1320
f 1320 1352 1353
f 1385 1353 1352
f 1352 1384 1385
f 1417 1385 1384
f 1384 1416 1417
f 1449 1417 1416
f 1416 1448 1449
f 1481 1449 1448
f 1448 1480 1481
f 1513 1481 1480
f 1480 1512 1513
f 1545 1513 1512
f 1512 1544 1545
f 1577 1545 1544
f 1544 1576 1577
f 1609 1577 1576
f 1576 1608 1609
f 1641 1609 1608
f 1608 1640 1641
f 1673 1641 1640
f 1640 1672 1673
f 1705 1673 1672
f 1672 1704 1705
f 1737 1705 1704
f 1704 1736 1737
f 1769 1737 1736
f 1736 1768 1769
f 810 778 777
f 777 809 810
f 842 810 809
f 809 841 842
f 874 842 841
f 841 873 874
f 906 874 873
f 873 905 906
f 938 906 905
f 905 937 938
f 970 938 937
f 937 969 970
f 1002 970 969
f 969 1001 1002
f 1034 1002 1001
f 1001 1033 1034
f 1066 1034 1033
f 1033 1065 1066
f 1098 1066 1065
f 1065 1097 1098
f 1130 1098 1097
f 1097 1129 1130
f 1162 1130 1129
f 1129 1161 1162
f 1194 1162 1161
f 1161 1193 1194
f 1226 1194 1193
f 1193 1225 1226
f 1258 1226 1225
f 1225 1257 1258
f 1290 1258 1257
f 1257 1289 1290
f 1322 1290 1289
f 1289 1321 1322
f 1354 1322 1321
f 1321 1353 1354
f 1386 1354 1353
f 1353 1385 1386
f 1418 1386 1385
f 1385 1417 1418
f 1450 1418 1417
f 1417 1449 1450
f 1482 1450 1449
f 1449 1481 1482
f 1514 1482 1481
f 1481 1513 1514
f 1546 1514 1513
f 1513 1545 1546
f 1578 1546 1545
f 1545 1577 1578
f 1610 1578 1577
f 1577 1609 1610
f 1642 1610 1609
f 1609 1641 1642
f 1674 1642 1641
f 1641 1673 1674
f 1706 1674 1673
f 1673 1705 1706
f 1738 1706 1705
f 1705 1737 1738
f 1770 1738 1737
f 1737 1769 1770
f 811 779 778
f 778 810 811
f 843 811 810
f 810 842 843
f 875 843 842
f 842 874 875
f 907 875 874
f 874 906 907
f 939 907 906
f 906 938 939
f 971 939 938
f 938 970 971
f 1003 971 970
f 970 1002 1003
f 1035 1003 1002
f 1002 1034 1035
f 1067 1035 1034
f 1034 1066 1067
f 1099 1067 1066
f 1066 1098 1099
f 1131 1099 1098
f 1098 1130 1131
f 1163 1131 1130
f 1130 1162 1163
f 1195 1163 1162
f 1162 1194 1195
f 1227 1195 1194
f 1194 1226 1227
f 1259 1227 1226
f 1226 1258 1259
f 1291 1259 1258
f 1258 1290 1291
f 1323 1291 1290
f 1290 1322 1323
f 1355 1323 1322
f 1322 1354 1355
f 1387 1355 1354
f 1354 1386 1387
f 1419 1387 1386
f 1386 1418 1419
f 1451 1419 1418
f 1418 1450 1451
f 1483 1451 1450
f 1450 1482 1483
f 1515 1483 1482
f 1482 1514 1515
f 1547 1515 1514
f 1514 1546 1547
f 1579 1547 1546
f 1546 1578 1579
f 1611 1579 1578
f 1578 1610 1611
f 1643 1611 1610
f 1610 1642 1643
f 1675 1643 1642
f 1642 1674 1675
f 1707 1675 1674
f 1674 1706 1707
f 1739 1707 1706
f 1706 1738 1739
f 1771 1739 1738
f 1738 1770 1771
f 812 780 779
f 779 811 812
f 844 812 811
f 811 843 844
f 876 844 843
f 843 875 876
f 908 876 875
f 875 907 908
f 940 908 907
f 907 939 940
f 972 940 939
f 939 971 972
f 1004 972 971
f 971 1003 1004
f 1036 1004 1003
f 1003 1035 1036
f 1068 1036 1035
f 1035 1067 1068
f 1100 1068 1067
f 1067 1099 1100
f 1132 1100 1099
f 1099 1131 1132
f 1164 1132 1131
f 1131 1163 1164
f 1196 1164 1163
f 1163 1195 1196
f 1228 1196 1195
f 1195 1227 1228
f 1260 1228 1227
f 1227 1259 1260
f 1292 1260 1259
f 1259 1291 1292
f 1324 1292 1291
f 1291 1323 1324
f 1356 1324 1323
f 1323 1355 1356
f 1388 1356 1355
f 1355 1387 1388
f 1420 1388 1387
f 1387 1419 1420
f 1452 1420 1419
f 1419 1451 1452
f 1484 1452 1451
f 1451 1483 1484
f 1516 1484 1483
f 1483 1515 1516
f 1548 1516 1515
f 1515 1547 1548
f 1580 1548 1547
f 1547 1579 1580
f 1612 1580 1579
f 1579 1611 1612
f 1644 1612 1611
f 1611 1643 1644
f 1676 1644 1643
f 1643 1675 1676
f 1708 1676 1675
f 1675 1707 1708
f 1740 1708 1707
f 1707 1739 1740
f 1772 1740 1739
f 1739 1771 1772
f 813 781 780
f 780 812 813
f 845 813 812
f 812 844 845
f 877 845 844
f 844 876 877
f 909 877 876
f 876 908 909
f 941 909 908
f 908 940 941
f 973 941 940
f 940 972 973
f 1005 973 972
f 972 1004 1005
f 1037 1005 1004
f 1004 1036 1037
f 1069 1037 1036
f 1036 1068 1069
f 1101 1069 1068
f 1068 1100 1101
f 1133 1101 1100
f 1100 1132 1133
f 1165 1133 1132
f 1132 1164 1165
f 1197 1165 1164
f 1164 1196 1197
f 1229 1197 1196
f 1196 1228 1229
f 1261 1229 1228
f 1228 1260 1261
f 1293 1261 1260
f 1260 1292 1293
f 1325 1293 1292
f 1292 1324 1325
f 1357 1325 1324
f 1324 1356 1357
f 1389 1357 1356
f 1356 1388 1389
f 1421 1389 1388
f 1388 1420 1421
f 1453 1421 1420
f 1420 1452 1453
f 1485 1453 1452
f 1452 1484 1485
f 1517 1485 1484
f 1484 1516 1517
f 1549 1517 1516
f 1516 1548 1549
f 1581 1549 1548
f 1548 1580 1581
f 1613 1581 1580
f 1580 1612 1613
f 1645 1613 1612
f 1612 1644 1645
f 1677 1645 1644
f 1644 1676 1677
f 1709 1677 1676
f 1676 1708 1709
f 1741 1709 1708
f 1708 1740 1741
f 1773 1741 1740
f 1740 1772 1773
f 814 782 781
f 781 813 814
f 846 814 813
f 813 845 846
f 878 846 845
f 845 877 878
f 910 878 877
f 877 909 910
f 942 910 909
f 909 941 942
f 974 942 941
f 941 973 974
f 1006 974 973
f 973 1005 1006
f 1038 1006 1005
f 1005 1037 1038
f 1070 1038 1037
f 1037 1069 1070
f 1102 1070 1069
f 1069 1101 1102
f 1134 1102 1101
f 1101 1133 1134
f 1166 1134 1133
f 1133 1165 1166
f 1198 1166 1165
f 1165 1197 1198
f 1230 1198 1197
f 1197 1229 1230
f 1262 1230 1229
f 1229 1261 1262
f 1294 1262 1261
f 1261 1293 1294
f 1326 1294 1293
f 1293 1325 1326
f 1358 1326 1325
f 1325 1357 1358
f 1390 1358 1357
f 1357 1389 1390
f 1422 1390 1389
f 1389 1421 1422
f 1454 1422 1421
f 1421 1453 1454
f 1486 1454 1453
f 1453 1485 1486
f 1518 1486 1485
f 1485 1517 1518
f 1550 1518 1517
f 1517 1549 1550
f 1582 1550 1549
f 1549 1581 1582
f 1614 1582 1581
f 1581 1613 1614
f 1646 1614 1613
f 1613 1645 1646
f 1678 1646 1645
f 1645 1677 1678
f 1710 1678 1677
f 1677 1709 1710
f 1742 1710 1709
f 1709 1741 1742
f 1774 1742 1741
f 1741 1773 1774
f 815 783 782
f 782 814 815
f 847 815 814
f 814 846 847
f 879 847 846
f 846 878 879
f 911 879 878
f 878 910 911
f 943 911 910
f 910 942 943
f 975 943 942
f 942 974 975
f 1007 975 974
f 974 1006 1007
f 1039 1007 1006
f 1006 1038 1039
f 1071 1039 1038
f 1038 1070 1071
f 1103 1071 1070
f 1070 1102 1103
f 1135 1103 1102
f 1102 1134 1135
f 1167 1135 1134
f 1134 1166 1167
f 1199 1167 1166
f 1166 1198 1199
f 1231 1199 1198
f 1198 1230 1231
f 1263 1231 1230
f 1230 1262 1263
f 1295 1263 1262
f 1262 1294 1295
f 1327 1295 1294
f 1294 1326 1327
f 1359 1327 1326
f 1326 1358 1359
f 1391 1359 1358
f 1358 1390 1391
f 1423 1391 1390
f 1390 1422 1423
f 1455 1423 1422
f 1422 1454 1455
f 1487 1455 1454
f 1454 1486 1487
f 1519 1487 1486
f 1486 1518 1519
f 1551 1519 1518
f 1518 1550 1551
f 1583 1551 1550
f 1550 1582 1583
f 1615 1583 1582
f 1582 1614 1615
f 1647 1615 1614
f 1614 1646 1647
f 1679 1647 1646
f 1646 1678 1679
f 1711 1679 1678
f 1678 1710 1711
f 1743 1711 1710
f 1710 1742 1743
f 1775 1743 1742
f 1742 1774 1775
f 816 784 783
f 783 815 816
f 848 816 815
f 815 847 848
f 880 848 847
f 847 879 880
f 912 880 879
f 879 911 912
f 944 912 911
f 911 943 944
f 976 944 943
f 943 975 976
f 1008 976 975
f 975 1007 1008
f 1040 1008 1007
f 1007 1039 1040
f 1072 1040 1039
f 1039 1071 1072
f 1104 1072 1071
f 1071 1103 1104
f 1136 1104 1103
f 1103 1135 1136
f 1168 1136 1135
f 1135 1167 1168
f 1200 1168 1167
f 1167 1199 1200
f 1232 1200 1199
f 1199 1231 1232
f 1264 1232 1231
f 1231 1263 1264
f 1296 1264 1263
f 1263 1295 1296
f 1328 1296 1295
f 1295 1327 1328
f 1360 1328 1327
f 1327 1359 1360
f 1392 1360 1359
f 1359 1391 1392
f 1424 1392 1391
f 1391 1423 1424
f 1456 1424 1423
f 1423 1455 1456
f 1488 1456 1455
f 1455 1487 1488
f 1520 1488 1487
f 1487 1519 1520
f 1552 1520 1519
f 1519 1551 1552
f 1584 1552 1551
f 1551 1583 1584
f 1616 1584 1583
f 1583 1615 1616
f 1648 1616 1615
f 1615 1647 1648
f 1680 1648 1647
f 1647 1679 1680
f 1712 1680 1679
f 1679 1711 1712
f 1744 1712 1711
f 1711 1743 1744
f 1776 1744 1743
f 1743 1775 1776
f 817 785 784
f 784 816 817
f 849 817 816
f 816 848 849
f 881 849 848
f 848 880 881
f 913 881 880
f 880 912 913
f 945 913 912
f 912 944 945
f 977 945 944
f 944 976 977
f 1009 977 976
f 976 1008 1009
f 1041 1009 1008
f 1008 1040 1041
f 1073 1041 1040
f 1040 1072 1073
f 1105 1073 1072
f 1072 1104 1105
f 1137 1105 1104
f 1104 1136 1137
f 1169 1137 1136
f 1136 1168 1169
f 1201 1169 1168
f 1168 1200 1201
f 1233 1201 1200
f 1200 1232 1233
f 1265 1233 1232
f 1232 1264 1265
f 1297 1265 1264
f 1264 1296 1297
f 1329 1297 1296
f 1296 1328 1329
f 1361 1329 1328
f 1328 1360 1361
f 1393 1361 1360
f 1360 1392 1393
f 1425 1393 1392
f 1392 1424 1425
f 1457 1425 1424
f 1424 1456 1457
f 1489 1457 1456
f 1456 1488 1489
f 1521 1489 1488
f 1488 1520 1521
f 1553 1521 1520
f 1520 1552 1553
f 1585 1553 1552
f 1552 1584 1585
f 1617 1585 1584
f 1584 1616 1617
f 1649 1617 1616
f 1616 1648 1649
f 1681 1649 1648
f 1648 1680 1681
f 1713 1681 1680
f 1680 1712 1713
f 1745 1713 1712
f 1712 1744 1745
f 1777 1745 1744
f 1744 1776 1777
f 818 786 785
f 785 817 818
f 850 818 817
f 817 849 850
f 882 850 849
f 849 881 882
f 914 882 881
f 881 913 914
f 946 914 913
f 913 945 946
f 978 946 945
f 945 977 978
f 1010 978 977
f 977 1009 1010
f 1042 1010 1009
f 1009 1041 1042
f 1074 1042 1041
f 1041 1073 1074
f 1106 1074 1073
f 1073 1105 1106
f 1138 1106 1105
f 1105 1137 1138
f 1170 1138 1137
f 1137 1169 1170
f 1202 1170 1169
f 1169 1201 1202
f 1234 1202 1201
f 1201 1233 1234
f 1266 1234 1233
f 1233 1265 1266
f 1298 1266 1265
f 1265 1297 1298
f 1330 1298 1297
f 1297 1329 1330
f 1362 1330 1329
f 1329 1361 1362
f 1394 1362 1361
f 1361 1393 1394
f 1426 1394 1393
f 1393 1425 1426
f 1458 1426 1425
f 1425 1457 1458
f 1490 1458 1457
f 1457 1489 1490
f 1522 1490 1489
f 1489 1521 1522
f 1554 1522 1521
f 1521 1553 1554
f 1586 1554 1553
f 1553 1585 1586
f 1618 1586 1585
f 1585 1617 1618
f 1650 1618 1617
f 1617 1649 1650
f 1682 1650 1649
f 1649 1681 1682
f 1714 1682 1681
f 1681 1713 1714
f 1746 1714 1713
f 1713 1745 1746
f 1778 1746 1745
f 1745 1777 1778
f 819 787 786
f 786 818 819
f 851 819 818
f 818 850 851
f 883 851 850
f 850 882 883
f 915 883 882
f 882 914 915
f 947 915 914
f 914 946 947
f 979 947 946
f 946 978 979
f 1011 979 978
f 978 1010 1011
f 1043 1011 1010
f 1010 1042 1043
f 1075 1043 1042
f 1042 1074 1075
f 1107 1075 1074
f 1074 1106 1107
f 1139 1107 1106
f 1106 1138 1139
f 1171 1139 1138
f 1138 1170 1171
f 1203 1171 1170
f 1170 1202 1203
f 1235 1203 1202
f 1202 1234 1235
f 1267 1235 1234
f 1234 1266 1267
f 1299 1267 1266
f 1266 1298 1299
f 1331 1299 1298
f 1298 1330 1331
f 1363 1331 1330
f 1330 1362 1363
f 1395 1363 1362
f 1362 1394 1395
f 1427 1395 1394
f 1394 1426 1427
f 1459 1427 1426
f 1426 1458 1459
f 1491 1459 1458
f 1458 1490 1491
f 1523 1491 1490
f 1490 1522 1523
f 1555 1523 1522
f 1522 1554 1555
f 1587 1555 1554
f 1554 1586 1587
f 1619 1587 1586
f 1586 1618 1619
f 1651 1619 1618
f 1618 1650 1651
f 1683 1651 1650
f 1650 1682 1683
f 1715 1683 1682
f 1682 1714 1715
f 1747 1715 1714
f 1714 1746 1747
f 1779 1747 1746
f 1746 1778 1779
f 820 788 787
f 787 819 820
f 852 820 819
f 819 851 852
f 884 852 851
f 851 883 884
f 916 884 883
f 883 915 916
f 948 916 915
f 915 947 948
f 980 948 947
f 947 979 980
f 1012 980 979
f 979 1011 1012
f 1044 1012 1011
f 1011 1043 1044
f 1076 1044 1043
f 1043 1075 1076
f 1108 1076 1075
f 1075 1107 1108
f 1140 1108 1107
f 1107 1139 1140
f 1172 1140 1139
f 1139 1171 1172
f 1204 1172 1171
f 1171 1203 1204
f 1236 1204 1203
f 1203 1235 1236
f 1268 1236 1235
f 1235 1267 1268
f 1300 1268 1267
f 1267 1299 1300
f 1332 1300 1299
f 1299 1331 1332
f 1364 1332 1331
f 1331 1363 1364
f 1396 1364 1363
f 1363 1395 1396
f 1428 1396 1395
f 1395 1427 1428
f 1460 1428 1427
f 1427 1459 1460
f 1492 1460 1459
f 1459 1491 1492
f 1524 1492 1491
f 1491 1523 1524
f 1556 1524 1523
f 1523 1555 1556
f 1588 1556 1555
f 1555 1587 1588
f 1620 1588 1587
f 1587 1619 1620
f 1652 1620 1619
f 1619 1651 1652
f 1684 1652 1651
f 1651 1683 1684
f 1716 1684 1683
f 1683 1715 1716
f 1748 1716 1715
f 1715 1747 1748
f 1780 1748 1747
f 1747 1779 1780
f 821 789 788
f 788 820 821
f 853 821 820
f 820 852 853
f 885 853 852
f 852 884 885
f 917 885 884
f 884 916 917
f 949 917 916
f 916 948 949
f 981 949 948
f 948 980 981
f 1013 981 980
f 980 1012 1013
f 1045 1013 1012
f 1012 1044 1045
f 1077 1045 1044
f 1044 1076 1077
f 1109 1077 1076
f 1076 1108 1109
f 1141 1109 1108
f 1108 1140 1141
f 1173 1141 1140
f 1140 1172 1173
f 1205 1173 1172
f 1172 1204 1205
f 1237 1205 1204
f 1204 1236 1237
f 1269 1237 1236
f 1236 1268 1269
f 1301 1269 1268
f 1268 1300 1301
f 1333 1301 1300
f 1300 1332 1333
f 1365 1333 1332
f 1332 1364 1365
f 1397 1365 1364
f 1364 1396 1397
f 1429 1397 1396
f 1396 1428 1429
f 1461 1429 1428
f 1428 1460 1461
f 1493 1461 1460
f 1460 1492 1493
f 1525 1493 1492
f 1492 1524 1525
f 1557 1525 1524
f 1524 1556 1557
f 1589 1557 1556
f 1556 1588 1589
f 1621 1589 1588
f 1588 1620 1621
f 1653 1621 1620
f 1620 1652 1653
f 1685 1653 1652
f 1652 1684 1685
f 1717 1685 1684
f 1684 1716 1717
f 1749 1717 1716
f 1716 1748 1749
f 1781 1749 1748
f 1748 1780 1781
f 822 790 789
f 789 821 822
f 854 822 821
f 821 853 854
f 886 854 853
f 853 885 886
f 918 886 885
f 885 917 918
f 950 918 917
f 917 949 950
f 982 950 949
f 949 981 982
f 1014 982 981
f 981 1013 1014
f 1046 1014 1013
f 1013 1045 1046
f 1078 1046 1045
f 1045 1077 1078
f 1110 1078 1077
f 1077 1109 1110
f 1142 1110 1109
f 1109 1141 1142
f 1174 1142 1141
f 1141 1173 1174
f 1206 1174 1173
f 1173 1205 1206
f 1238 1206 1205
f 1205 1237 1238
f 1270 1238 1237
f 1237 1269 1270
f 1302 1270 1269
f 1269 1301 1302
f 1334 1302 1301
f 1301 1333 1334
f 1366 1334 1333
f 1333 1365 1366
f 1398 1366 1365
f 1365 1397 1398
f 1430 1398 1397
f 1397 1429 1430
f 1462 1430 1429
f 1429 1461 1462
f 1494 1462 1461
f 1461 1493 1494
f 1526 1494 1493
f 1493 1525 1526
f 1558 1526 1525
f 1525 1557 1558
f 1590 1558 1557
f 1557 1589 1590
f 1622 1590 1589
f 1589 1621 1622
f 1654 1622 1621
f 1621 1653 1654
f 1686 1654 1653
f 1653 1685 1686
f 1718 1686 1685
f 1685 1717 1718
f 1750 1718 1717
f 1717 1749 1750
f 1782 1750 1749
f 1749 1781 1782
f 823 791 790
f 790 822 823
f 855 823 822
f 822 854 855
f 887 855 854
f 854 886 887
f 919 887 886
f 886 918 919
f 951 919 918
f 918 950 951
f 983 951 950
f 950 982 983
f 1015 983 982
f 982 1014 1015
f 1047 1015 1014
f 1014 1046 1047
f 1079 1047 1046
f 1046 1078 1079
f 1111 1079 1078
f 1078 1110 1111
f 1143 1111 1110
f 1110 1142 1143
f 1175 1143 1142
f 1142 1174 1175
f 1207 1175 1174
f 1174 1206 1207
f 1239 1207 1206
f 1206 1238 1239
f 1271 1239 1238
f 1238 1270 1271
f 1303 1271 1270
f 1270 1302 1303
f 1335 1303 1302
f 1302 1334 1335
f 1367 1335 1334
f 1334 1366 1367
f 1399 1367 1366
f 1366 1398 1399
f 1431 1399 1398
f 1398 1430 1431
f 1463 1431 1430
f 1430 1462 1463
f 1495 1463 1462
f 1462 1494 1495
f 1527 1495 1494
f 1494 1526 1527
f 1559 1527 1526
f 1526 1558 1559
f 1591 1559 1558
f 1558 1590 1591
f 1623 1591 1590
f 1590 1622 1623
f 1655 1623 1622
f 1622 1654 1655
f 1687 1655 1654
f 1654 1686 1687
f 1719 1687 1686
f 1686 1718 1719
f 1751 1719 1718
f 1718 1750 1751
f 1783 1751 1750
f 1750 1782 1783
f 824 792 791
f 791 823 824
f 856 824 823
f 823 855 856
f 888 856 855
f 855 887 888
f 920 888 887
f 887 919 920
f 952 920 919
f 919 951 952
f 984 952 951
f 951 983 984
f 1016 984 983
f 983 1015 1016
f 1048 1016 1015
f 1015 1047 1048
f 1080 1048 1047
f 1047 1079 1080
f 1112 1080 1079
f 1079 1111 1112
f 1144 1112 1111
f 1111 1143 1144
f 1176 1144 1143
f 1143 1175 1176
f 1208 1176 1175
f 1175 1207 1208
f 1240 1208 1207
f 1207 1239 1240
f 1272 1240 1239
f 1239 1271 1272
f 1304 1272 1271
f 1271 1303 1304
f 1336 1304 1303
f 1303 1335 1336
f 1368 1336 1335
f 1335 1367 1368
f 1400 1368 1367
f 1367 1399 1400
f 1432 1400 1399
f 1399 1431 1432
f 1464 1432 1431
f 1431 1463 1464
f 1496 1464 1463
f 1463 1495 1496
f 1528 1496 1495
f 1495 1527 1528
f 1560 1528 1527
f 1527 1559 1560
f 1592 1560 1559
f 1559 1591 1592
f 1624 1592 1591
f 1591 1623 1624
f 1656 1624 1623
f 1623 1655 1656
f 1688 1656 1655
f 1655 1687 1688
f 1720 1688 1687
f 1687 1719 1720
f 1752 1720 1719
f 1719 1751 1752
f 1784 1752 1751
f 1751 1783 1784
f 825 793 792
f 792 824 825
f 857 825 824
f 824 856 857
f 889 857 856
f 856 888 889
f 921 889 888
f 888 920 921
f 953 921 920
f 920 952 953
f 985 953 952
f 952 984 985
f 1017 985 984
f 984 1016 1017
f 1049 1017 1016
f 1016 1048 1049
f 1081 1049 1048
f 1048 1080 1081
f 1113 1081 1080
f 1080 1112 1113
f 1145 1113 1112
f 1112 1144 1145
f 1177 1145 1144
f 1144 1176 1177
f 1209 1177 1176
f 1176 1208 1209
f 1241 1209 1208
f 1208 1240 1241
f 1273 1241 1240
f 1240 1272 1273
f 1305 1273 1272
f 1272 1304 1305
f 1337 1305 1304
f 1304 1336 1337
f 1369 1337 1336
f 1336 1368 1369
f 1401 1369 1368
f 1368 1400 1401
f 1433 1401 1400
f 1400 1432 1433
f 1465 1433 1432
f 1432 1464 1465
f 1497 1465 1464
f 1464 1496 1497
f 1529 1497 1496
f 1496 1528 1529
f 1561 1529 1528
f 1528 1560 1561
f 1593 1561 1560
f 1560 1592 1593
f 1625 1593 1592
f 1592 1624 1625
f 1657 1625 1624
f 1624 1656 1657
f 1689 1657 1656
f 1656 1688 1689
f 1721 1689 1688
f 1688 1720 1721
f 1753 1721 1720
f 1720 1752 1753
f 1785 1753 1752
f 1752 1784 1785
f 826 794 793
f 793 825 826
f 858 826 825
f 825 857 858
f 890 858 857
f 857 889 890
f 922 890 889
f 889 921 922
f 954 922 921
f 921 953 954
f 986 954 953
f 953 985 986
f 1018 986 985
f 985 1017 1018
f 1050 1018 1017
f 1017 1049 1050
f 1082 1050 1049
f 1049 1081 1082
f 1114 1082 1081
f 1081 1113 1114
f 1146 1114 1113
f 1113 1145 1146
f 1178 1146 1145
f 1145 1177 1178
f 1210 1178 1177
f 1177 1209 1210
f 1242 1210 1209
f 1209 1241 1242
f 1274 1242 1241
f 1241 1273 1274
f 1306 1274 1273
f 1273 1305 1306
f 1338 1306 1305
f 1305 1337 1338
f 1370 1338 1337
f 1337 1369 1370
f 1402 1370 1369
f 1369 1401 1402
f 1434 1402 1401
f 1401 1433 1434
f 1466 1434 1433
f 1433 1465 1466
f 1498 1466 1465
f 1465 1497 1498
f 1530 1498 1497
f 1497 1529 1530
f 1562 1530 1529
f 1529 1561 1562
f 1594 1562 1561
f 1561 1593 1594
f 1626 1594 1593
f 1593 1625 1626
f 1658 1626 1625
f 1625 1657 1658
f 1690 1658 1657
f 1657 1689 1690
f 1722 1690 1689
f 1689 1721 1722
f 1754 1722 1721
f 1721 1753 1754
f 1786 1754 1753
f 1753 1785 1786
f 827 795 794
f 794 826 827
f 859 827 826
f 826 858 859
f 891 859 858
f 858 890 891
f 923 891 890
f 890 922 923
f 955 923 922
f 922 954 955
f 987 955 954
f 954 986 987
f 1019 987 986
f 986 1018 1019
f 1051 1019 1018
f 1018 1050 1051
f 1083 1051 1050
f 1050 1082 1083
f 1115 1083 1082
f 1082 1114 1115
f 1147 1115 1114
f 1114 1146 1147
f 1179 1147 1146
f 1146 1178 1179
f 1211 1179 1178
f 1178 1210 1211
f 1243 1211 1210
f 1210 1242 1243
f 1275 1243 1242
f 1242 1274 1275
f 1307 1275 1274
f 1274 1306 1307
f 1339 1307 1306
f 1306 1338 1339
f 1371 1339 1338
f 1338 1370 1371
f 1403 1371 1370
f 1370 1402 1403
f 1435 1403 1402
f 1402 1434 1435
f 1467 1435 1434
f 1434 1466 1467
f 1499 1467 1466
f 1466 1498 1499
f 1531 1499 1498
f 1498 1530 1531
f 1563 1531 1530
f 1530 1562 1563
f 1595 1563 1562
f 1562 1594 1595
f 1627 1595 1594
f 1594 1626 1627
f 1659 1627 1626
f 1626 1658 1659
f 1691 1659 1658
f 1658 1690 1691
f 1723 1691 1690
f 1690 1722 1723
f 1755 1723 1722
f 1722 1754 1755
f 1787 1755 1754
f 1754 1786 1787
f 828 796 795
f 795 827 828
f 860 828 827
f 827 859 860
f 892 860 859
f 859 891 892
f 924 892 891
f 891 923 924
f 956 924 923
f 923 955 956
f 988 956 955
f 955 987 988
f 1020 988 987
f 987 1019 1020
f 1052 1020 1019
f 1019 1051 1052
f 1084 1052 1051
f 1051 1083 1084
f 1116 1084 1083
f 1083 1115 1116
f 1148 1116 1115
f 1115 1147 1148
f 1180 1148 1147
f 1147 1179 1180
f 1212 1180 1179
f 1179 1211 1212
f 1244 1212 1211
f 1211 1243 1244
f 1276 1244 1243
f 1243 1275 1276
f 1308 1276 1275
f 1275 1307 1308
f 1340 1308 1307
f 1307 1339 1340
f 1372 1340 1339
f 1339 1371 1372
f 1404 1372 1371
f 1371 1403 1404
f 1436 1404 1403
f 1403 1435 1436
f 1468 1436 1435
f 1435 1467 1468
f 1500 1468 1467
f 1467 1499 1500
f 1532 1500 1499
f 1499 1531 1532
f 1564 1532 1531
f 1531 1563 1564
f 1596 1564 1563
f 1563 1595 1596
f 1628 1596 1595
f 1595 1627 1628
f 1660 1628 1627
f 1627 1659 1660
f 1692 1660 1659
f 1659 1691 1692
f 1724 1692 1691
f 1691 1723 1724
f 1756 1724 1723
f 1723 1755 1756
f 1788 1756 1755
f 1755 1787 1788
f 829 797 796
f 796 828 829
f 861 829 828
f 828 860 861
f 893 861 860
f 860 892 893
f 925 893 892
f 892 924 925
f 957 925 924
f 924 956 957
f 989 957 956
f 956 988 989
f 1021 989 988
f 988 1020 1021
f 1053 1021 1020
f 1020 1052 1053
f 1085 1053 1052
f 1052 1084 1085
f 1117 1085 1084
f 1084 1116 1117
f 1149 1117 1116
f 1116 1148 1149
f 1181 1149 1148
f 1148 1180 1181
f 1213 1181 1180
f 1180 1212 1213
f 1245 1213 1212
f 1212 1244 1245
f 1277 1245 1244
f 1244 1276 1277
f 1309 1277 1276
f 1276 1308 1309
f 1341 1309 1308
f 1308 1340 1341
f 1373 1341 1340
f 1340 1372 1373
f 1405 1373 1372
f 1372 1404 1405
f 1437 1405 1404
f 1404 1436 1437
f 1469 1437 1436
f 1436 1468 1469
f 1501 1469 1468
f 1468 1500 1501
f 1533 1501 1500
f 1500 1532 1533
f 1565 1533 1532
f 1532 1564 1565
f 1597 1565 1564
f 1564 1596 1597
f 1629 1597 1596
f 1596 1628 1629
f 1661 1629 1628
f 1628 1660 1661
f 1693 1661 1660
f 1660 1692 1693
f 1725 1693 1692
f 1692 1724 1725
f 1757 1725 1724
f 1724 1756 1757
f 1789 1757 1756
f 1756 1788 1789
f 830 798 797
f 797 829 830
f 862 830 829
f 829 861 862
f 894 862 861
f 861 893 894
f 926 894 893
f 893 925 926
f 958 926 925
f 925 957 958
f 990 958 957
f 957 989 990
f 1022 990 989
f 989 1021 1022
f 1054 1022 1021
f 1021 1053 1054
f 1086 1054 1053
f 1053 1085 1086
f 1118 1086 1085
f 1085 1117 1118
f 1150 1118 1117
f 1117 1149 1150
f 1182 1150 1149
f 1149 1181 1182
f 1214 1182 1181
f 1181 1213 1214
f 1246 1214 1213
f 1213 1245 1246
f 1278 1246 1245
f 1245 1277 1278
f 1310 1278 1277
f 1277 1309 1310
f 1342 1310 1309
f 1309 1341 1342
f 1374 1342 1341
f 1341 1373 1374
f 1406 1374 1373
f 1373 1405 1406
f 1438 1406 1405
f 1405 1437 1438
f 1470 1438 1437
f 1437 1469 1470
f 1502 1470 1469
f 1469 1501 1502
f 1534 1502 1501
f 1501 1533 1534
f 1566 1534 1533
f 1533 1565 1566
f 1598 1566 1565
f 1565 1597 1598
f 1630 1598 1597
f 1597 1629 1630
f 1662 1630 1629
f 1629 1661 1662
f 1694 1662 1661
f 1661 1693 1694
f 1726 1694 1693
f 1693 1725 1726
f 1758 1726 1725
f 1725 1757 1758
f 1790 1758 1757
f 1757 1789 1790
f 831 799 798
f 798 830 831
f 863 831 830
f 830 862 863
f 895 863 862
f 862 894 895
f 927 895 894
f 894 926 927
f 959 927 926
f 926 958 959
f 991 959 958
f 958 990 991
f 1023 991 990
f 990 1022 1023
f 1055 1023 1022
f 1022 1054 1055
f 1087 1055 1054
f 1054 1086 1087
f 1119 1087 1086
f 1086 1118 1119
f 1151 1119 1118
f 1118 1150 1151
f 1183 1151 1150
f 1150 1182 1183
f 1215 1183 1182
f 1182 1214 1215
f 1247 1215 1214
f 1214 1246 1247
f 1279 1247 1246
f 1246 1278 1279
f 1311 1279 1278
f 1278 1310 1311
f 1343 1311 1310
f 1310 1342 1343
f 1375 1343 1342
f 1342 1374 1375
f 1407 1375 1374
f 1374 1406 1407
f 1439 1407 1406
f 1406 1438 1439
f 1471 1439 1438
f 1438 1470 1471
f 1503 1471 1470
f 1470 1502 1503
f 1535 1503 1502
f 1502 1534 1535
f 1567 1535 1534
f 1534 1566 1567
f 1599 1567 1566
f 1566 1598 1599
f 1631 1599 1598
f 1598 1630 1631
f 1663 1631 1630
f 1630 1662 1663
f 1695 1663 1662
f 1662 1694 1695
f 1727 1695 1694
f 1694 1726 1727
f 1759 1727 1726
f 1726 1758 1759
f 1791 1759 1758
f 1758 1790 1791
