v 5579.59 78.9846 -2430.05
v 5579.59 79.5412 -2430.34
v 5578.59 78.9846 -2430.05
v 5578.59 79.5412 -2430.34
v 5579.59 79.9829 -2430.78
v 5578.59 79.9829 -2430.78
v 5579.59 80.2665 -2431.34
v 5578.59 80.2665 -2431.34
v 5579.59 80.3643 -2431.95
v 5578.59 80.3643 -2431.95
v 5579.59 79.2961 -2429.1
v 5579.59 78.9846 -2430.05
v 5579.59 78.3676 -2428.95
v 5579.59 78.3676 -2429.95
v 5579.59 81.221 -2431.03
v 5579.59 80.2665 -2431.34
v 5579.59 80.7949 -2430.19
v 5579.59 79.9829 -2430.78
v 5579.59 81.3679 -2431.95
v 5579.59 80.3643 -2431.95
v 5578.59 78.3676 -2428.95
v 5578.59 78.3676 -2429.95
v 5578.59 79.2961 -2429.1
v 5578.59 78.9846 -2430.05
v 5578.59 80.1311 -2429.53
v 5578.59 79.5412 -2430.34
v 5578.59 80.7949 -2430.19
v 5578.59 79.9829 -2430.78
v 5578.59 81.221 -2431.03
v 5578.59 80.2665 -2431.34
v 5578.59 81.3679 -2431.95
v 5578.59 80.3643 -2431.95
v 5578.59 79.2961 -2429.1
v 5579.59 79.2961 -2429.1
v 5578.59 78.3676 -2428.95
v 5579.59 78.3676 -2428.95
v 5578.59 81.221 -2431.03
v 5579.59 81.221 -2431.03
v 5578.59 80.7949 -2430.19
v 5579.59 80.7949 -2430.19
v 5578.59 81.3679 -2431.95
v 5579.59 81.3679 -2431.95
v 5579.59 79.6764 -2429.29
v 5579.59 79.5412 -2430.34
v 5579.59 80.0664 -2429.61
v 5579.59 80.6727 -2430.07
v 5579.59 80.4186 -2429.89
v 5579.59 80.6727 -2430.07
v 5578.59 80.1311 -2429.53
v 5579.5 80.4301 -2429.82
v 5579.48 80.1311 -2429.53
v 5579.59 79.6764 -2429.29
v 5579.5 80.4301 -2429.82
v 5579.59 80.6727 -2430.07
v 5579.59 80.4186 -2429.89
v 5579.48 80.1311 -2429.53
v 5579.59 80.0664 -2429.61
v 5579.59 79.6764 -2429.29
v 5579.59 80.0664 -2429.61
v 5579.5 80.4301 -2429.82
v 5578.59 78.3676 -2429.95
v 5579.59 78.3676 -2429.95
v 5578.59 73.8676 -2429.86
v 5578.59 74.2527 -2429.79
v 5578.59 73.8676 -2428.95
v 5578.59 77.8676 -2428.95
v 5578.59 74.8807 -2429.85
v 5578.59 75.5594 -2429.83
v 5578.59 76.4161 -2429.95
v 5578.59 77.8676 -2429.95
v 5579.59 77.8676 -2429.95
v 5579.59 73.8676 -2429.95
v 5579.59 77.8676 -2428.95
v 5579.59 73.8676 -2428.95
v 5579.59 77.8676 -2428.95
v 5579.59 73.8676 -2428.95
v 5578.59 77.8676 -2428.95
v 5578.59 73.8676 -2428.95
v 5578.68 74.327 -2429.95
v 5578.59 74.2527 -2429.79
v 5578.73 73.8676 -2429.95
v 5578.59 73.8676 -2429.86
v 5578.74 75.6457 -2429.95
v 5578.59 76.4161 -2429.95
v 5578.59 75.5594 -2429.83
v 5578.73 75.0027 -2429.95
v 5578.59 74.8807 -2429.85
v 5578.59 77.8676 -2429.95
v 5578.59 76.4161 -2429.95
v 5579.59 77.8676 -2429.95
v 5578.74 75.6457 -2429.95
v 5579.59 73.8676 -2429.95
v 5578.73 75.0027 -2429.95
v 5578.68 74.327 -2429.95
v 5578.73 73.8676 -2429.95
v 5579.34 77.8676 -2427.95
v 5579.34 73.8676 -2427.95
v 5578.84 77.8676 -2427.95
v 5578.84 73.8676 -2427.95
v 5578.84 73.8676 -2427.95
v 5578.84 73.8676 -2428.95
v 5578.84 77.8676 -2427.95
v 5578.84 77.8676 -2428.95
v 5579.34 77.8676 -2427.95
v 5578.84 77.8676 -2427.95
v 5579.34 77.8676 -2428.95
v 5578.84 77.8676 -2428.95
v 5579.34 77.8676 -2428.95
v 5579.34 73.8676 -2428.95
v 5579.34 77.8676 -2427.95
v 5579.34 73.8676 -2427.95
v 5578.49 77.8676 -2430.05
v 5578.49 78.3676 -2430.05
v 5578.49 77.8676 -2428.85
v 5578.49 78.3676 -2428.85
v 5578.49 78.3676 -2430.05
v 5579.69 78.3676 -2430.05
v 5578.49 78.3676 -2428.85
v 5579.69 78.3676 -2428.85
v 5579.69 78.3676 -2430.05
v 5579.69 77.8676 -2430.05
v 5579.69 78.3676 -2428.85
v 5579.69 77.8676 -2428.85
v 5579.69 77.8676 -2430.05
v 5578.49 77.8676 -2430.05
v 5579.69 77.8676 -2428.85
v 5578.49 77.8676 -2428.85
v 5578.49 77.8676 -2428.85
v 5578.49 78.3676 -2428.85
v 5579.69 77.8676 -2428.85
v 5579.69 78.3676 -2428.85
v 5579.69 77.8676 -2430.05
v 5579.69 78.3676 -2430.05
v 5578.49 77.8676 -2430.05
v 5578.49 78.3676 -2430.05
v 5578.84 77.8676 -2435.95
v 5578.84 73.8676 -2435.95
v 5579.34 77.8676 -2435.95
v 5579.34 73.8676 -2435.95
v 5579.34 73.8676 -2435.95
v 5579.34 73.8676 -2434.95
v 5579.34 77.8676 -2435.95
v 5579.34 77.8676 -2434.95
v 5578.84 77.8676 -2435.95
v 5579.34 77.8676 -2435.95
v 5578.84 77.8676 -2434.95
v 5579.34 77.8676 -2434.95
v 5578.84 77.8676 -2434.95
v 5578.84 73.8676 -2434.95
v 5578.84 77.8676 -2435.95
v 5578.84 73.8676 -2435.95
v 5578.59 77.8676 -2433.95
v 5578.59 73.8676 -2433.95
v 5578.59 77.8676 -2434.95
v 5578.59 73.8676 -2434.95
v 5579.59 73.8676 -2434.95
v 5579.59 77.8676 -2434.95
v 5578.59 73.8676 -2434.95
v 5578.59 77.8676 -2434.95
v 5579.59 74.5568 -2434.09
v 5579.59 77.8676 -2434.95
v 5579.59 73.8676 -2434.95
v 5579.59 73.8676 -2434.16
v 5579.59 74.9911 -2433.95
v 5579.59 77.8676 -2433.95
v 5579.59 74.9911 -2433.95
v 5579.59 74.5568 -2434.09
v 5579.45 73.8676 -2434.11
v 5579.59 73.8676 -2434.16
v 5579.47 73.8676 -2433.95
v 5579.44 74.0279 -2433.95
v 5579.45 73.8676 -2434.11
v 5579.59 74.9911 -2433.95
v 5579.59 77.8676 -2433.95
v 5579.59 74.9911 -2433.95
v 5578.59 77.8676 -2433.95
v 5579.47 73.8676 -2433.95
v 5578.59 73.8676 -2433.95
v 5579.44 74.0279 -2433.95
v 5579.69 77.8676 -2435.05
v 5579.69 78.3676 -2435.05
v 5578.49 77.8676 -2435.05
v 5578.49 78.3676 -2435.05
v 5579.69 78.3676 -2435.05
v 5579.69 78.3676 -2433.85
v 5578.49 78.3676 -2435.05
v 5578.49 78.3676 -2433.85
v 5579.69 78.3676 -2433.85
v 5579.69 77.8676 -2433.85
v 5578.49 78.3676 -2433.85
v 5578.49 77.8676 -2433.85
v 5579.69 77.8676 -2433.85
v 5579.69 77.8676 -2435.05
v 5578.49 77.8676 -2433.85
v 5578.49 77.8676 -2435.05
v 5578.49 77.8676 -2435.05
v 5578.49 78.3676 -2435.05
v 5578.49 77.8676 -2433.85
v 5578.49 78.3676 -2433.85
v 5579.69 77.8676 -2433.85
v 5579.69 78.3676 -2433.85
v 5579.69 77.8676 -2435.05
v 5579.69 78.3676 -2435.05
v 5579.59 78.9846 -2433.85
v 5578.59 78.9846 -2433.85
v 5579.59 79.5412 -2433.57
v 5578.59 79.5412 -2433.57
v 5579.59 79.9829 -2433.13
v 5578.59 79.9829 -2433.13
v 5579.59 80.2665 -2432.57
v 5578.59 80.2665 -2432.57
v 5579.59 80.3643 -2431.95
v 5578.59 80.3643 -2431.95
v 5579.59 79.2961 -2434.81
v 5579.59 78.3676 -2434.95
v 5579.59 78.9846 -2433.85
v 5579.59 78.3676 -2433.95
v 5579.59 81.221 -2432.88
v 5579.59 80.7949 -2433.72
v 5579.59 80.2665 -2432.57
v 5579.59 79.9829 -2433.13
v 5579.59 81.3679 -2431.95
v 5579.59 80.3643 -2431.95
v 5578.59 78.3676 -2434.95
v 5578.59 79.2961 -2434.81
v 5578.59 78.3676 -2433.95
v 5578.59 78.9846 -2433.85
v 5578.59 80.1311 -2434.38
v 5578.59 79.5412 -2433.57
v 5578.59 80.7949 -2433.72
v 5578.59 79.9829 -2433.13
v 5578.59 81.221 -2432.88
v 5578.59 80.2665 -2432.57
v 5578.59 81.3679 -2431.95
v 5578.59 80.3643 -2431.95
v 5578.59 79.2961 -2434.81
v 5578.59 78.3676 -2434.95
v 5579.59 79.2961 -2434.81
v 5579.59 78.3676 -2434.95
v 5578.59 81.221 -2432.88
v 5578.59 80.7949 -2433.72
v 5579.59 81.221 -2432.88
v 5579.59 80.7949 -2433.72
v 5578.59 81.3679 -2431.95
v 5579.59 81.3679 -2431.95
v 5579.59 79.6764 -2434.61
v 5579.59 79.5412 -2433.57
v 5579.59 80.0664 -2434.29
v 5579.59 80.6727 -2433.84
v 5579.59 80.4186 -2434.02
v 5579.59 80.6727 -2433.84
v 5578.59 80.1311 -2434.38
v 5579.5 80.4301 -2434.08
v 5579.48 80.1311 -2434.38
v 5579.59 79.6764 -2434.61
v 5579.5 80.4301 -2434.08
v 5579.59 80.4186 -2434.02
v 5579.59 80.6727 -2433.84
v 5579.48 80.1311 -2434.38
v 5579.59 79.6764 -2434.61
v 5579.59 80.0664 -2434.29
v 5579.59 80.0664 -2434.29
v 5579.5 80.4301 -2434.08
v 5578.59 78.3676 -2433.95
v 5579.59 78.3676 -2433.95
v 5590.42 76.8588 -2427.62
v 5590.43 76.9085 -2427.86
v 5590.46 72.9386 -2428.41
v 5590.47 72.9883 -2428.66
v 5582.46 72.9386 -2428.73
v 5582.47 72.9883 -2428.97
v 5582.43 76.8588 -2427.93
v 5582.44 76.9085 -2428.18
v 5588.33 75.6558 -2428.45
v 5587.15 76.6809 -2428.29
v 5586.48 73.0379 -2429.06
v 5586.03 76.9417 -2428.2
v 5585.32 76.9582 -2428.31
v 5586.01 76.8076 -2428.31
v 5588.19 76.9476 -2428.14
v 5588.17 76.8432 -2428.22
v 5588.55 76.9582 -2428.18
v 5587.15 76.6809 -2428.29
v 5587.19 76.7809 -2428.2
v 5585.04 76.8711 -2427.89
v 5585.29 76.8588 -2427.82
v 5584.99 76.7847 -2427.85
v 5584.34 76.8715 -2427.92
v 5584.29 76.8067 -2427.87
v 5584.16 76.8588 -2427.86
v 5585.32 76.9582 -2428.31
v 5584.44 76.9085 -2428.1
v 5582.45 76.9582 -2428.42
v 5582.44 76.9085 -2428.18
v 5586.03 76.9417 -2428.2
v 5586.44 76.7447 -2428.05
v 5587.19 76.7809 -2428.2
v 5588.44 76.9085 -2427.94
v 5588.19 76.9476 -2428.14
v 5588.55 76.9582 -2428.18
v 5590.43 76.9085 -2427.86
v 5590.44 76.9582 -2428.11
v 5589.5 76.7167 -2427.76
v 5590.42 76.8588 -2427.62
v 5589.48 76.6244 -2427.7
v 5590.42 76.8588 -2427.62
v 5590.46 72.9386 -2428.41
v 5589.48 76.6244 -2427.7
v 5589.34 75.9018 -2427.85
v 5588.94 76.7354 -2427.87
v 5586.1 76.8726 -2427.86
v 5586.11 76.4849 -2427.86
v 5585.94 76.8588 -2427.79
v 5586.8 76.7284 -2427.96
v 5586.82 75.594 -2428.02
v 5587.58 74.8797 -2428.13
v 5587.25 75.2687 -2428.06
v 5587.51 76.9067 -2427.97
v 5588.29 74.6588 -2428.15
v 5588.17 76.8878 -2427.85
v 5589.08 75.0855 -2428.03
v 5588.94 76.7354 -2427.87
v 5589.34 75.9018 -2427.85
v 5589.48 76.6244 -2427.7
v 5582.45 76.9582 -2428.42
v 5582.48 73.0379 -2429.22
v 5585.32 76.9582 -2428.31
v 5588.17 76.8432 -2428.22
v 5590.44 76.9582 -2428.11
v 5588.55 76.9582 -2428.18
v 5586.01 76.8076 -2428.31
v 5586.46 72.9386 -2428.57
v 5582.46 72.9386 -2428.73
v 5586.11 76.4849 -2427.86
v 5589.08 75.0855 -2428.03
v 5588.29 74.6588 -2428.15
v 5586.82 75.594 -2428.02
v 5585.94 76.8588 -2427.79
v 5585.29 76.8588 -2427.82
v 5584.99 76.7847 -2427.85
v 5587.25 75.2687 -2428.06
v 5587.58 74.8797 -2428.13
v 5582.43 76.8588 -2427.93
v 5584.16 76.8588 -2427.86
v 5584.29 76.8067 -2427.87
v 5588.58 73.3325 -2428.92
v 5588.6 73.0379 -2428.98
v 5590.48 73.0379 -2428.9
v 5588.18 75.0079 -2428.59
v 5588.25 75.0005 -2428.52
v 5588.33 75.6558 -2428.45
v 5588.33 75.6558 -2428.45
v 5588.25 75.0005 -2428.52
v 5588.35 75.0195 -2428.58
v 5588.28 74.5983 -2428.67
v 5588.22 74.5807 -2428.61
v 5588.2 74.2448 -2428.68
v 5588.3 74.2688 -2428.74
v 5588.25 73.7306 -2428.78
v 5588.42 73.7513 -2428.84
v 5588.31 73.3154 -2428.86
v 5588.58 73.3325 -2428.92
v 5588.3 73.0247 -2428.92
v 5588.6 73.0379 -2428.98
v 5588.3 73.0247 -2428.92
v 5588.31 73.3154 -2428.86
v 5588.1 73.0379 -2428.99
v 5588.16 73.3247 -2428.93
v 5588.25 73.7306 -2428.78
v 5588.1 73.7364 -2428.85
v 5588.2 74.2448 -2428.68
v 5588.05 74.2473 -2428.75
v 5588.16 74.5896 -2428.68
v 5588.22 74.5807 -2428.61
v 5588.42 73.7513 -2428.84
v 5588.3 74.2688 -2428.74
v 5588.28 74.5983 -2428.67
v 5588.35 75.0195 -2428.58
v 5588.18 75.0079 -2428.59
v 5588.16 74.5896 -2428.68
v 5588.05 74.2473 -2428.75
v 5588.1 73.7364 -2428.85
v 5588.16 73.3247 -2428.93
v 5588.1 73.0379 -2428.99
v 5590.44 76.9582 -2428.11
v 5590.48 73.0379 -2428.9
v 5582.48 73.0379 -2429.22
v 5582.45 76.9582 -2428.42
v 5590.42 76.8588 -2427.62
v 5589.5 76.7167 -2427.76
v 5588.94 76.7354 -2427.87
v 5588.17 76.8878 -2427.85
v 5584.16 76.8588 -2427.86
v 5582.43 76.8588 -2427.93
v 5584.34 76.8715 -2427.92
v 5585.04 76.8711 -2427.89
v 5585.29 76.8588 -2427.82
v 5585.94 76.8588 -2427.79
v 5586.1 76.8726 -2427.86
v 5586.8 76.7284 -2427.96
v 5587.51 76.9067 -2427.97
v 5582.35 78.2451 -2443.47
v 5581.79 78.5583 -2443.44
v 5581.35 78.2451 -2443.43
v 5581.29 78.6459 -2443.42
v 5581.49 73.7451 -2442.43
v 5581.55 74.1302 -2442.43
v 5582.39 73.7451 -2442.47
v 5582.39 77.7451 -2442.47
v 5581.5 74.7582 -2442.43
v 5581.52 75.4369 -2442.43
v 5581.39 76.2936 -2442.43
v 5581.39 77.7451 -2442.43
v 5581.35 77.7451 -2443.43
v 5581.35 73.7451 -2443.43
v 5582.35 77.7451 -2443.47
v 5582.35 73.7451 -2443.47
v 5582.35 77.7451 -2443.47
v 5582.35 73.7451 -2443.47
v 5582.39 77.7451 -2442.47
v 5582.39 73.7451 -2442.47
v 5581.39 74.2046 -2442.51
v 5581.55 74.1302 -2442.43
v 5581.39 73.7451 -2442.57
v 5581.49 73.7451 -2442.43
v 5581.39 75.5232 -2442.58
v 5581.39 76.2936 -2442.43
v 5581.52 75.4369 -2442.43
v 5581.39 74.8802 -2442.57
v 5581.5 74.7582 -2442.43
v 5581.39 77.7451 -2442.43
v 5581.39 76.2936 -2442.43
v 5581.35 77.7451 -2443.43
v 5581.39 75.5232 -2442.58
v 5581.35 73.7451 -2443.43
v 5581.39 74.8802 -2442.57
v 5581.39 74.2046 -2442.51
v 5581.39 73.7451 -2442.57
v 5583.36 77.7451 -2443.25
v 5583.36 73.7451 -2443.25
v 5583.38 77.7451 -2442.76
v 5583.38 73.7451 -2442.76
v 5583.38 73.7451 -2442.76
v 5582.38 73.7451 -2442.72
v 5583.38 77.7451 -2442.76
v 5582.38 77.7451 -2442.72
v 5583.36 77.7451 -2443.25
v 5583.38 77.7451 -2442.76
v 5582.36 77.7451 -2443.22
v 5582.38 77.7451 -2442.72
v 5582.36 77.7451 -2443.22
v 5582.36 73.7451 -2443.22
v 5583.36 77.7451 -2443.25
v 5583.36 73.7451 -2443.25
v 5581.3 77.7451 -2442.32
v 5581.3 78.2451 -2442.32
v 5582.5 77.7451 -2442.37
v 5582.5 78.2451 -2442.37
v 5581.3 78.2451 -2442.32
v 5581.25 78.2451 -2443.52
v 5582.5 78.2451 -2442.37
v 5582.45 78.2451 -2443.57
v 5581.25 78.2451 -2443.52
v 5581.25 77.7451 -2443.52
v 5582.45 78.2451 -2443.57
v 5582.45 77.7451 -2443.57
v 5581.25 77.7451 -2443.52
v 5581.3 77.7451 -2442.32
v 5582.45 77.7451 -2443.57
v 5582.5 77.7451 -2442.37
v 5582.5 77.7451 -2442.37
v 5582.5 78.2451 -2442.37
v 5582.45 77.7451 -2443.57
v 5582.45 78.2451 -2443.57
v 5581.25 77.7451 -2443.52
v 5581.25 78.2451 -2443.52
v 5581.3 77.7451 -2442.32
v 5581.3 78.2451 -2442.32
v 5575.39 77.7451 -2442.44
v 5575.39 73.7451 -2442.44
v 5575.37 77.7451 -2442.94
v 5575.37 73.7451 -2442.94
v 5575.37 73.7451 -2442.94
v 5576.37 73.7451 -2442.98
v 5575.37 77.7451 -2442.94
v 5576.37 77.7451 -2442.98
v 5575.39 77.7451 -2442.44
v 5575.37 77.7451 -2442.94
v 5576.39 77.7451 -2442.48
v 5576.37 77.7451 -2442.98
v 5576.39 77.7451 -2442.48
v 5576.39 73.7451 -2442.48
v 5575.39 77.7451 -2442.44
v 5575.39 73.7451 -2442.44
v 5577.4 77.7451 -2442.27
v 5577.4 73.7451 -2442.27
v 5576.4 77.7451 -2442.23
v 5576.4 73.7451 -2442.23
v 5576.36 73.7451 -2443.23
v 5576.36 77.7451 -2443.23
v 5576.4 73.7451 -2442.23
v 5576.4 77.7451 -2442.23
v 5577.22 74.4343 -2443.26
v 5576.36 77.7451 -2443.23
v 5576.36 73.7451 -2443.23
v 5577.15 73.7451 -2443.26
v 5577.36 74.8687 -2443.27
v 5577.36 77.7451 -2443.27
v 5577.36 74.8687 -2443.27
v 5577.22 74.4343 -2443.26
v 5577.21 73.7451 -2443.12
v 5577.15 73.7451 -2443.26
v 5577.36 73.7451 -2443.15
v 5577.36 73.9054 -2443.11
v 5577.21 73.7451 -2443.12
v 5577.36 74.8687 -2443.27
v 5577.36 77.7451 -2443.27
v 5577.36 74.8687 -2443.27
v 5577.4 77.7451 -2442.27
v 5577.36 73.7451 -2443.15
v 5577.4 73.7451 -2442.27
v 5577.36 73.9054 -2443.11
v 5576.25 77.7451 -2443.33
v 5576.25 78.2451 -2443.33
v 5576.3 77.7451 -2442.13
v 5576.3 78.2451 -2442.13
v 5576.25 78.2451 -2443.33
v 5577.45 78.2451 -2443.37
v 5576.3 78.2451 -2442.13
v 5577.5 78.2451 -2442.17
v 5577.45 78.2451 -2443.37
v 5577.45 77.7451 -2443.37
v 5577.5 78.2451 -2442.17
v 5577.5 77.7451 -2442.17
v 5577.45 77.7451 -2443.37
v 5576.25 77.7451 -2443.33
v 5577.5 77.7451 -2442.17
v 5576.3 77.7451 -2442.13
v 5576.3 77.7451 -2442.13
v 5576.3 78.2451 -2442.13
v 5577.5 77.7451 -2442.17
v 5577.5 78.2451 -2442.17
v 5577.45 77.7451 -2443.37
v 5577.45 78.2451 -2443.37
v 5576.25 77.7451 -2443.33
v 5576.25 78.2451 -2443.33
v 5577.46 78.8621 -2443.27
v 5577.5 78.8621 -2442.27
v 5577.74 79.4187 -2443.28
v 5577.78 79.4187 -2442.29
v 5578.18 79.8605 -2443.3
v 5578.22 79.8605 -2442.3
v 5576.5 79.1736 -2443.24
v 5576.36 78.2451 -2443.23
v 5577.46 78.8621 -2443.27
v 5577.36 78.2451 -2443.27
v 5576.4 78.2451 -2442.23
v 5576.54 79.1736 -2442.24
v 5577.4 78.2451 -2442.27
v 5577.5 78.8621 -2442.27
v 5576.97 80.0086 -2442.25
v 5577.78 79.4187 -2442.29
v 5577.44 80.4824 -2442.27
v 5577.69 80.2114 -2442.28
v 5578.05 80.0993 -2442.3
v 5578.22 79.8605 -2442.3
v 5576.54 79.1736 -2442.24
v 5576.4 78.2451 -2442.23
v 5576.5 79.1736 -2443.24
v 5576.36 78.2451 -2443.23
v 5576.7 79.5539 -2443.24
v 5577.74 79.4187 -2443.28
v 5577.44 80.4824 -2442.27
v 5576.97 80.0086 -2442.25
v 5577.23 80.2938 -2442.79
v 5577.14 80.208 -2442.86
v 5576.93 80.0086 -2443.14
v 5577.13 80.2065 -2443.16
v 5576.7 79.5539 -2443.24
v 5576.93 80.0086 -2443.14
v 5576.7 79.5539 -2443.24
v 5577.02 79.9439 -2443.26
v 5577.21 80.197 -2443.26
v 5577.18 80.2213 -2443.19
v 5577.13 80.2065 -2443.16
v 5577.4 78.2451 -2442.27
v 5577.36 78.2451 -2443.27
v 5581.39 78.2451 -2442.43
v 5581.35 78.2451 -2443.43
v 5581.29 78.6459 -2443.42
v 5581.28 78.7372 -2443.22
v 5581.33 78.6154 -2442.42
v 5581.39 78.2451 -2442.43
v 5581.33 78.6154 -2442.42
v 5581.81 78.7028 -2442.44
v 5582.39 78.2451 -2442.47
v 5582.26 79.0661 -2442.46
v 5582.28 78.8207 -2443.08
v 5582.39 78.2451 -2442.47
v 5582.26 79.0661 -2442.46
v 5582.25 78.9118 -2443.46
v 5582.35 78.2451 -2443.47
v 5582.25 78.9118 -2443.46
v 5577.02 79.9439 -2443.26
v 5578.06 80.0344 -2443.3
v 5578.03 80.0073 -2443.3
v 5578.18 79.8605 -2443.3
v 5577.88 80.0071 -2443.29
v 5577.53 79.8262 -2443.28
v 5577.21 80.197 -2443.26
v 5578.18 79.8605 -2443.3
v 5578.22 79.8605 -2442.3
v 5578.06 80.0344 -2443.3
v 5578.05 80.0993 -2442.3
v 5577.69 80.2114 -2442.28
v 5577.23 80.2938 -2442.79
v 5577.53 79.8262 -2443.28
v 5578.03 80.0073 -2443.3
v 5577.88 80.0071 -2443.29
v 5577.14 80.208 -2442.86
v 5577.18 80.2213 -2443.19
v 5577.13 80.2065 -2443.16
v 5577.21 80.197 -2443.26
v 5577.44 80.4824 -2442.27
v 5582.26 79.0661 -2442.46
v 5581.81 78.7028 -2442.44
v 5582.28 78.8207 -2443.08
v 5581.33 78.6154 -2442.42
v 5581.28 78.7372 -2443.22
v 5581.79 78.5583 -2443.44
v 5582.25 78.9118 -2443.46
v 5581.29 78.6459 -2443.42
v 5594.72 76.3894 -2431.67
v 5594.72 76.2761 -2431.18
v 5594.33 76.3968 -2431.61
v 5594.22 76.3309 -2431.37
v 5594.63 76.2076 -2430.9
v 5594.36 76.1994 -2430.9
v 5594.47 76.1261 -2430.64
v 5594.72 76.0238 -2430.15
v 5594.72 75.5526 -2430.15
v 5594.57 75.9971 -2430.15
v 5594.22 75.5526 -2430.15
v 5594.38 76.0124 -2430.15
v 5594.22 75.9675 -2430.15
v 5594.67 76.155 -2430.89
v 5594.72 76.133 -2430.97
v 5594.65 76.5966 -2433.01
v 5594.58 76.622 -2432.73
v 5594.22 76.6225 -2432.97
v 5594.33 76.6318 -2432.73
v 5594.29 76.6504 -2432.47
v 5594.52 76.6243 -2432.26
v 5594.33 76.6303 -2432.26
v 5594.29 76.4595 -2431.77
v 5594.62 76.4994 -2431.9
v 5594.39 76.5589 -2432.01
v 5594.72 76.5488 -2433.16
v 5594.72 76.5131 -2433.07
v 5594.61 76.1042 -2430.58
v 5594.72 76.0725 -2430.58
v 5594.41 76.0456 -2430.38
v 5594.57 76.0283 -2430.36
v 5594.72 76.0359 -2430.33
v 5594.72 76.032 -2430.39
v 5594.62 76.5579 -2432.19
v 5594.63 76.5436 -2432.65
v 5594.72 76.5117 -2432.15
v 5594.72 76.4875 -2432.58
v 5594.72 76.0238 -2434.15
v 5594.72 75.5526 -2434.15
v 5594.72 76.0095 -2434
v 5594.72 76.2743 -2433.54
v 5594.72 76.4356 -2433.43
v 5594.62 76.2866 -2433.69
v 5594.22 76.5489 -2433.15
v 5594.33 76.4543 -2433.38
v 5594.36 76.2637 -2433.67
v 5594.48 76.106 -2433.94
v 5594.22 76.3162 -2433.39
v 5594.57 75.9971 -2434.15
v 5594.22 75.5526 -2434.15
v 5594.38 76.0124 -2434.15
v 5594.22 75.9675 -2434.15
v 5594.22 76.0595 -2433.99
v 5594.22 76.1216 -2433.67
v 5594.22 76.5135 -2432.73
v 5594.22 76.0823 -2430.5
v 5594.22 76.0623 -2430.73
v 5594.22 76.348 -2431.82
v 5594.22 76.5308 -2432.37
v 5594.22 76.0978 -2431
v 5594.22 76.3174 -2431.56
v 5594.22 76.4633 -2432.06
v 5594.03 75.5976 -2431.96
v 5593.91 75.6573 -2431.99
v 5594.02 75.6022 -2432.04
v 5593.87 75.596 -2431.93
v 5593.84 75.5936 -2432.01
v 5593.88 75.5949 -2432.06
v 5593.96 75.6007 -2431.92
v 5593.89 75.5526 -2431.94
v 5593.87 75.5507 -2432
v 5593.9 75.5517 -2432.05
v 5594.01 75.5576 -2432.03
v 5594.01 75.5523 -2431.97
v 5593.96 75.5564 -2431.93
v 5594.92 75.5526 -2433.38
v 5594.72 75.6302 -2433.31
v 5594.72 75.5526 -2433.98
v 5594.72 75.5526 -2431.36
v 5594.72 75.6149 -2431.79
v 5594.94 75.5526 -2431.81
v 5594.72 75.7297 -2432.8
v 5594.89 75.5526 -2432.41
v 5595.05 75.5526 -2432.84
v 5593.99 75.5526 -2432.72
v 5594.22 75.5526 -2433.31
v 5594.22 75.6302 -2432.65
v 5594.22 75.5526 -2430.69
v 5593.98 75.5526 -2431.15
v 5594.22 75.6149 -2431.13
v 5594.22 75.7297 -2432.14
v 5594.03 75.5526 -2431.74
v 5593.86 75.5526 -2432.18
v 5593.06 77.5233 -2445.17
v 5593.06 77.1356 -2445.16
v 5593.31 77.1356 -2445.17
v 5593.06 76.8507 -2445.05
v 5593.31 76.5839 -2445.1
v 5593.06 76.4918 -2445.01
v 5593.06 75.9401 -2445.38
v 5593.31 76.037 -2445.38
v 5593.06 76.4918 -2445.01
v 5593.31 76.5839 -2445.1
v 5593.56 76.5386 -2445.06
v 5593.56 76.0187 -2445.38
v 5593.56 76.8403 -2445.09
v 5593.56 76.5386 -2445.06
v 5593.56 77.1356 -2445.17
v 5593.31 77.7356 -2444.94
v 5593.56 77.3415 -2444.99
v 5593.56 77.7356 -2444.79
v 5593.56 78.0542 -2445.01
v 5593.56 78.2269 -2445.06
v 5593.31 78.2857 -2445.1
v 5593.56 78.2269 -2445.06
v 5593.56 78.6691 -2445.31
v 5593.31 78.2857 -2445.1
v 5593.31 78.699 -2445.38
v 5593.06 78.6558 -2445.31
v 5593.06 78.2447 -2445.14
v 5593.06 78.0503 -2445.09
v 5593.06 78.2447 -2445.14
v 5593.06 77.7356 -2445.09
v 5593.06 78.6558 -2445.31
v 5593.31 78.699 -2445.38
v 5593.06 79.3693 -2445.31
v 5593.31 79.4308 -2445.38
v 5593.56 78.6691 -2445.31
v 5593.56 79.3693 -2445.31
v 5593.06 77.6449 -2443.85
v 5593.08 77.8699 -2443.59
v 5593.06 76.8369 -2443.25
v 5593.06 78.063 -2444.41
v 5593.13 78.0451 -2443.84
v 5593.14 78.2281 -2443.99
v 5593.31 78.3691 -2443.99
v 5593.56 78.2075 -2443.96
v 5593.31 78.0099 -2443.37
v 5593.56 77.9065 -2443.42
v 5593.06 78.6183 -2442.95
v 5593.31 78.6524 -2443
v 5593.06 78.5797 -2442.77
v 5593.31 78.7307 -2442.52
v 5593.56 78.6723 -2442.52
v 5593.56 78.4986 -2442.95
v 5593.56 78.4362 -2443.13
v 5593.31 78.5128 -2443
v 5593.06 78.3573 -2443.03
v 5593.31 78.4362 -2443.19
v 5593.06 78.5128 -2442.95
v 5593.06 77.857 -2442.85
v 5593.31 77.9992 -2443.04
v 5593.06 76.7965 -2443.18
v 5593.31 77.048 -2443.18
v 5593.06 77.857 -2442.85
v 5593.31 77.9992 -2443.04
v 5593.06 78.7083 -2444.6
v 5593.14 78.3883 -2444.16
v 5593.13 78.8725 -2444.34
v 5593.31 77.0992 -2443.23
v 5593.56 76.8503 -2443.28
v 5593.56 76.8503 -2443.28
v 5593.56 76.7965 -2443.18
v 5593.56 77.7478 -2442.99
v 5593.56 77.7478 -2442.99
v 5593.56 79.2192 -2444.63
v 5593.56 78.4641 -2444.2
v 5593.31 79.3328 -2444.63
v 5593.31 78.8839 -2444.28
v 5593.31 78.6451 -2441
v 5593.48 78.6714 -2440.75
v 5593.31 79.0364 -2440.24
v 5593.56 78.7456 -2440.5
v 5593.48 78.7159 -2440.24
v 5593.56 77.9869 -2440.22
v 5593.56 78.2281 -2440.74
v 5593.48 78.8286 -2439.48
v 5593.31 78.9293 -2439.48
v 5593.48 78.7001 -2439.82
v 5593.56 78.8346 -2441
v 5593.56 78.7137 -2439.22
v 5593.56 79.3381 -2439.11
v 5593.31 79.4308 -2439.11
v 5593.56 78.214 -2439.59
v 5593.31 77.6418 -2437.38
v 5593.06 77.7024 -2437.38
v 5593.31 78.75 -2437.55
v 5593.06 78.6816 -2437.78
v 5593.56 75.4308 -2437.38
v 5593.31 77.6418 -2437.38
v 5593.56 77.6976 -2437.38
v 5593.56 78.7105 -2437.75
v 5593.56 77.6976 -2437.38
v 5593.06 79.1989 -2444.63
v 5593.06 78.6183 -2442.95
v 5593.56 79.3693 -2445.31
v 5593.56 78.6691 -2445.31
v 5593.56 79.2192 -2444.63
v 5593.56 78.4641 -2444.2
v 5593.56 78.2269 -2445.06
v 5593.56 78.0542 -2445.01
v 5593.56 77.7356 -2444.79
v 5593.56 78.2075 -2443.96
v 5593.56 77.6976 -2437.38
v 5593.56 78.214 -2439.59
v 5593.56 75.4308 -2437.38
v 5593.56 76.0187 -2445.38
v 5593.56 75.4308 -2445.38
v 5593.56 78.7105 -2437.75
v 5593.56 78.7137 -2439.22
v 5593.56 78.4362 -2443.13
v 5593.56 77.7478 -2442.99
v 5593.56 78.4986 -2442.95
v 5593.56 78.8346 -2441
v 5593.56 78.7149 -2441.38
v 5593.56 78.2281 -2440.74
v 5593.56 79.3381 -2439.11
v 5593.56 79.3381 -2438.6
v 5593.56 79.2194 -2438.42
v 5593.56 78.8747 -2437.96
v 5593.56 78.6723 -2442.52
v 5593.56 77.9065 -2443.42
v 5593.56 76.8503 -2443.28
v 5593.56 77.3415 -2444.99
v 5593.56 77.1356 -2445.17
v 5593.56 76.8403 -2445.09
v 5593.56 76.5386 -2445.06
v 5593.56 78.8037 -2441.76
v 5593.56 76.7965 -2443.18
v 5593.56 77.9869 -2440.22
v 5593.06 79.1989 -2444.63
v 5593.06 79.3693 -2445.31
v 5593.31 79.3328 -2444.63
v 5593.31 79.4308 -2445.38
v 5593.56 79.3693 -2445.31
v 5593.56 79.2192 -2444.63
v 5593.06 77.7024 -2437.38
v 5593.06 75.4308 -2437.38
v 5593.31 75.4308 -2437.38
v 5593.56 75.4308 -2445.38
v 5593.56 76.0187 -2445.38
v 5593.31 75.4308 -2445.38
v 5593.31 76.037 -2445.38
v 5593.06 75.4308 -2445.38
v 5593.06 75.9401 -2445.38
v 5593.31 79.4308 -2438.57
v 5593.31 79.4308 -2439.11
v 5593.56 79.3381 -2438.6
v 5593.56 79.3381 -2439.11
v 5593.06 79.3381 -2438.62
v 5593.06 79.3381 -2439.11
v 5593.31 78.8226 -2441.76
v 5593.06 78.8854 -2441.38
v 5593.06 78.6764 -2440.62
v 5593.06 78.872 -2440.24
v 5593.06 78.9826 -2439.86
v 5593.06 78.9291 -2439.48
v 5593.06 79.3381 -2439.11
v 5593.06 78.9291 -2439.48
v 5593.56 78.7149 -2441.38
v 5593.56 78.8037 -2441.76
v 5593.06 78.5614 -2442.52
v 5593.06 78.6183 -2442.95
v 5593.06 78.5797 -2442.77
v 5593.06 78.5128 -2442.95
v 5593.06 75.4308 -2445.38
v 5593.06 75.9401 -2445.38
v 5593.06 75.4308 -2437.38
v 5593.06 76.4918 -2445.01
v 5593.06 76.7965 -2443.18
v 5593.06 79.3693 -2445.31
v 5593.06 79.1989 -2444.63
v 5593.06 78.6558 -2445.31
v 5593.06 78.7083 -2444.6
v 5593.06 78.2447 -2445.14
v 5593.06 78.063 -2444.41
v 5593.06 78.0503 -2445.09
v 5593.06 77.7356 -2445.09
v 5593.06 79.3381 -2438.62
v 5593.06 79.1438 -2438.5
v 5593.06 79.3381 -2439.11
v 5593.06 78.9291 -2439.48
v 5593.06 77.6449 -2443.85
v 5593.06 77.5233 -2445.17
v 5593.06 77.1356 -2445.16
v 5593.06 76.8507 -2445.05
v 5593.06 76.8369 -2443.25
v 5593.06 78.3573 -2443.03
v 5593.06 77.857 -2442.85
v 5593.06 78.5614 -2442.52
v 5593.06 78.8854 -2441.38
v 5593.06 78.6816 -2437.78
v 5593.06 77.7024 -2437.38
v 5593.06 78.6764 -2440.62
v 5593.06 78.9826 -2439.86
v 5593.06 78.872 -2440.24
v 5593.56 78.8747 -2437.96
v 5593.31 79.1768 -2438.33
v 5593.56 79.2194 -2438.42
v 5593.56 79.3381 -2438.6
v 5593.31 79.4308 -2438.57
v 5593.06 79.1438 -2438.5
v 5593.06 79.3381 -2438.62
v 5593.56 78.8346 -2441
v 5593.68 75.9562 -2444.91
v 5594.08 75.9049 -2444.68
v 5593.86 75.9539 -2444.56
v 5594.01 76.0514 -2444.32
v 5594.41 76.0717 -2444.13
v 5594.18 76.0834 -2444
v 5594.37 75.706 -2443.49
v 5594.18 76.0834 -2444
v 5594.67 75.6677 -2443.52
v 5594.41 76.0717 -2444.13
v 5594.59 75.9567 -2444.26
v 5594.77 75.6264 -2443.78
v 5594.44 75.8339 -2444.53
v 5594.59 75.9567 -2444.26
v 5594.3 75.86 -2444.79
v 5593.84 76.2449 -2445.22
v 5594.23 76.0412 -2444.98
v 5594.08 75.9049 -2444.68
v 5594.3 75.86 -2444.79
v 5594.08 76.2478 -2445.34
v 5594.08 76.2478 -2445.34
v 5593.9 76.0427 -2445.61
v 5593.82 75.9977 -2445.77
v 5593.56 76.1403 -2445.7
v 5593.3 75.7389 -2446.15
v 5593.57 75.6972 -2446.14
v 5593.13 75.7786 -2445.91
v 5593.36 75.9973 -2445.55
v 5593.46 76.048 -2445.38
v 5593.6 76.0398 -2445.1
v 5593.68 75.9562 -2444.91
v 5594.67 75.6677 -2443.52
v 5594.59 75.2684 -2443.5
v 5594.37 75.706 -2443.49
v 5594.29 75.3067 -2443.47
v 5594.77 75.6264 -2443.78
v 5594.69 75.2271 -2443.76
v 5593.48 75.2979 -2446.12
v 5594.69 75.2271 -2443.76
v 5594.3 75.86 -2444.79
v 5593.82 75.9977 -2445.77
v 5593.57 75.6972 -2446.14
v 5593.9 76.0427 -2445.61
v 5594.44 75.8339 -2444.53
v 5594.77 75.6264 -2443.78
v 5594.08 76.2478 -2445.34
v 5594.23 76.0412 -2444.98
v 5594.59 75.9567 -2444.26
v 5593.22 75.3396 -2446.13
v 5593.48 75.2979 -2446.12
v 5593.3 75.7389 -2446.15
v 5593.57 75.6972 -2446.14
v 5593.05 75.3793 -2445.88
v 5593.13 75.7786 -2445.91
v 5593.13 75.7786 -2445.91
v 5593.36 75.9973 -2445.55
v 5593.05 75.3793 -2445.88
v 5593.46 76.048 -2445.38
v 5593.6 76.0398 -2445.1
v 5593.68 75.9562 -2444.91
v 5594.29 75.3067 -2443.47
v 5593.86 75.9539 -2444.56
v 5594.01 76.0514 -2444.32
v 5594.18 76.0834 -2444
v 5594.37 75.706 -2443.49
v 5593.56 75.4308 -2440.68
v 5593.65 75.4308 -2440.69
v 5593.56 75.7553 -2439.78
v 5593.71 75.6874 -2439.8
v 5593.56 75.8305 -2439.02
v 5593.73 75.8019 -2439.06
v 5593.69 75.4308 -2437.99
v 5593.56 75.4308 -2438
v 5593.93 75.4308 -2440.2
v 5594.06 75.4308 -2439.65
v 5594.07 75.4308 -2439.1
v 5593.93 75.4308 -2438.43
v 5593.06 75.7325 -2444.2
v 5593.06 75.7449 -2444.02
v 5592.84 75.5704 -2444.32
v 5592.95 75.5242 -2443.6
v 5592.62 75.4308 -2444.24
v 5592.69 75.4308 -2444.76
v 5592.9 75.4308 -2443.02
v 5592.77 75.4308 -2443.23
v 5592.73 75.4308 -2443.59
v 5593.06 75.4308 -2442.96
v 5593.06 75.6401 -2443.49
v 5593.06 75.4308 -2444.94
v 5552 76.7632 -2404
v 5552 76.7711 -2406
v 5552 76.5358 -2408
v 5552 76.4455 -2410
v 5552 76.1788 -2412
v 5552 75.9199 -2414
v 5552 75.5783 -2416
v 5552 75.4629 -2418
v 5552 75.1963 -2420
v 5552 75.0642 -2422
v 5552 74.8795 -2424
v 5552 74.9656 -2426
v 5552 74.7739 -2428
v 5552 74.6901 -2430
v 5552 74.4622 -2432
v 5552 74.3083 -2434
v 5552 74.1971 -2436
v 5552 74.4557 -2438
v 5552 74.4629 -2440
v 5552 74.6476 -2442
v 5552 74.942 -2444
v 5552 74.8867 -2446
v 5552 74.9637 -2448
v 5552 75.1574 -2450
v 5552 75.2435 -2452
v 5552 75.524 -2454
v 5552 75.6234 -2456
v 5552 75.8618 -2458
v 5552 76.2315 -2460
v 5552 76.5008 -2462
v 5552 76.8245 -2464
v 5552 76.903 -2466
v 5554 76.8464 -2404
v 5554 76.8757 -2406
v 5554 76.5758 -2408
v 5554 76.4638 -2410
v 5554 76.3155 -2412
v 5554 76.0195 -2414
v 5554 75.6129 -2416
v 5554 75.5726 -2418
v 5554 75.2659 -2420
v 5554 75.091 -2422
v 5554 75.0606 -2424
v 5554 75.1297 -2426
v 5554 74.9924 -2428
v 5554 74.845 -2430
v 5554 74.6983 -2432
v 5554 74.5155 -2434
v 5554 74.5167 -2436
v 5554 74.676 -2438
v 5554 74.7956 -2440
v 5554 74.8229 -2442
v 5554 74.9512 -2444
v 5554 74.951 -2446
v 5554 75.1819 -2448
v 5554 75.3356 -2450
v 5554 75.5033 -2452
v 5554 75.6593 -2454
v 5554 75.9524 -2456
v 5554 76.1616 -2458
v 5554 76.3776 -2460
v 5554 76.5916 -2462
v 5554 76.9456 -2464
v 5554 76.9953 -2466
v 5556 76.8976 -2404
v 5556 76.9088 -2406
v 5556 76.766 -2408
v 5556 76.5186 -2410
v 5556 76.2426 -2412
v 5556 76.0965 -2414
v 5556 75.8655 -2416
v 5556 75.667 -2418
v 5556 75.3481 -2420
v 5556 75.2557 -2422
v 5556 75.1148 -2424
v 5556 75.1273 -2426
v 5556 75.1592 -2428
v 5556 74.9652 -2430
v 5556 74.8789 -2432
v 5556 74.7999 -2434
v 5556 74.9122 -2436
v 5556 74.9475 -2438
v 5556 74.8743 -2440
v 5556 74.8278 -2442
v 5556 75.0492 -2444
v 5556 75.2209 -2446
v 5556 75.3569 -2448
v 5556 75.4724 -2450
v 5556 75.7314 -2452
v 5556 75.8162 -2454
v 5556 76.0542 -2456
v 5556 76.2373 -2458
v 5556 76.664 -2460
v 5556 76.8655 -2462
v 5556 77.0405 -2464
v 5556 77.1657 -2466
v 5558 77.2127 -2404
v 5558 76.9789 -2406
v 5558 76.8099 -2408
v 5558 76.5744 -2410
v 5558 76.3555 -2412
v 5558 76.0136 -2414
v 5558 75.9705 -2416
v 5558 75.755 -2418
v 5558 75.6428 -2420
v 5558 75.4445 -2422
v 5558 75.3778 -2424
v 5558 75.3692 -2426
v 5558 75.1836 -2428
v 5558 75.1221 -2430
v 5558 75.0266 -2432
v 5558 74.9867 -2434
v 5558 75.0495 -2436
v 5558 75.0441 -2438
v 5558 75.1584 -2440
v 5558 75.0894 -2442
v 5558 75.0825 -2444
v 5558 75.2709 -2446
v 5558 75.358 -2448
v 5558 75.6525 -2450
v 5558 75.8945 -2452
v 5558 76.1403 -2454
v 5558 76.2581 -2456
v 5558 76.491 -2458
v 5558 76.697 -2460
v 5558 76.8988 -2462
v 5558 77.0525 -2464
v 5558 77.5371 -2466
v 5560 77.2615 -2404
v 5560 77.0297 -2406
v 5560 76.9294 -2408
v 5560 76.6165 -2410
v 5560 76.3992 -2412
v 5560 76.1793 -2414
v 5560 76.1424 -2416
v 5560 75.961 -2418
v 5560 75.7729 -2420
v 5560 75.5435 -2422
v 5560 75.5046 -2424
v 5560 75.5454 -2426
v 5560 75.307 -2428
v 5560 75.2522 -2430
v 5560 75.1448 -2432
v 5560 75.1969 -2434
v 5560 75.1847 -2436
v 5560 75.2901 -2438
v 5560 75.2466 -2440
v 5560 75.1339 -2442
v 5560 75.2348 -2444
v 5560 75.2125 -2446
v 5560 75.5319 -2448
v 5560 75.7821 -2450
v 5560 75.9976 -2452
v 5560 76.2866 -2454
v 5560 76.3453 -2456
v 5560 76.4746 -2458
v 5560 76.7022 -2460
v 5560 76.884 -2462
v 5560 77.1597 -2464
v 5560 77.5204 -2466
v 5562 77.4819 -2404
v 5562 77.1877 -2406
v 5562 76.937 -2408
v 5562 76.7049 -2410
v 5562 76.5075 -2412
v 5562 76.2757 -2414
v 5562 76.1624 -2416
v 5562 76.0711 -2418
v 5562 75.9237 -2420
v 5562 75.7957 -2422
v 5562 75.546 -2424
v 5562 75.6314 -2426
v 5562 75.5018 -2428
v 5562 75.3456 -2430
v 5562 75.2635 -2432
v 5562 75.3438 -2434
v 5562 75.3304 -2436
v 5562 75.3432 -2438
v 5562 75.2869 -2440
v 5562 75.3283 -2442
v 5562 75.2811 -2444
v 5562 75.2643 -2446
v 5562 75.6248 -2448
v 5562 75.8344 -2450
v 5562 75.9984 -2452
v 5562 76.2405 -2454
v 5562 76.2938 -2456
v 5562 76.3987 -2458
v 5562 76.6107 -2460
v 5562 76.9144 -2462
v 5562 77.12 -2464
v 5562 77.3917 -2466
v 5564 77.6778 -2404
v 5564 77.2736 -2406
v 5564 76.8871 -2408
v 5564 76.5687 -2410
v 5564 76.4675 -2412
v 5564 76.3197 -2414
v 5564 76.3497 -2416
v 5564 76.2737 -2418
v 5564 75.9869 -2420
v 5564 75.7388 -2422
v 5564 75.5308 -2424
v 5564 75.5796 -2426
v 5564 75.3944 -2428
v 5564 75.4047 -2430
v 5564 75.3978 -2432
v 5564 75.4329 -2434
v 5564 75.4919 -2436
v 5564 75.3996 -2438
v 5564 75.3707 -2440
v 5564 75.3719 -2442
v 5564 75.3934 -2444
v 5564 75.4212 -2446
v 5564 75.6772 -2448
v 5564 75.7622 -2450
v 5564 75.9415 -2452
v 5564 76.0809 -2454
v 5564 76.242 -2456
v 5564 76.3056 -2458
v 5564 76.5764 -2460
v 5564 76.8855 -2462
v 5564 77.1402 -2464
v 5564 78.0461 -2466
v 5566 77.4461 -2404
v 5566 77.1317 -2406
v 5566 76.9102 -2408
v 5566 76.6319 -2410
v 5566 76.4625 -2412
v 5566 76.2101 -2414
v 5566 76.2466 -2416
v 5566 76.1953 -2418
v 5566 76.0115 -2420
v 5566 75.7914 -2422
v 5566 75.5652 -2424
v 5566 75.5671 -2426
v 5566 75.5471 -2428
v 5566 75.5944 -2430
v 5566 75.5387 -2432
v 5566 75.5237 -2434
v 5566 75.5941 -2436
v 5566 75.4411 -2438
v 5566 75.5108 -2440
v 5566 75.2927 -2442
v 5566 75.4257 -2444
v 5566 75.4324 -2446
v 5566 75.6519 -2448
v 5566 75.8097 -2450
v 5566 75.8051 -2452
v 5566 75.9983 -2454
v 5566 76.188 -2456
v 5566 76.2418 -2458
v 5566 76.5652 -2460
v 5566 76.8981 -2462
v 5566 77.0804 -2464
v 5566 77.9059 -2466
v 5568 77.5989 -2404
v 5568 77.0551 -2406
v 5568 76.8582 -2408
v 5568 76.6178 -2410
v 5568 76.4811 -2412
v 5568 76.2282 -2414
v 5568 76.2146 -2416
v 5568 76.1514 -2418
v 5568 75.9254 -2420
v 5568 75.7556 -2422
v 5568 75.5605 -2424
v 5568 75.4003 -2426
v 5568 75.3539 -2428
v 5568 75.433 -2430
v 5568 75.5603 -2432
v 5568 75.5082 -2434
v 5568 75.5821 -2436
v 5568 75.5534 -2438
v 5568 75.3839 -2440
v 5568 75.411 -2442
v 5568 75.5992 -2444
v 5568 75.5085 -2446
v 5568 75.7758 -2448
v 5568 75.9081 -2450
v 5568 75.938 -2452
v 5568 75.939 -2454
v 5568 76.0075 -2456
v 5568 76.3408 -2458
v 5568 76.554 -2460
v 5568 76.9037 -2462
v 5568 77.1129 -2464
v 5568 77.6882 -2466
v 5570 77.2896 -2404
v 5570 77.204 -2406
v 5570 76.7773 -2408
v 5570 76.585 -2410
v 5570 76.3741 -2412
v 5570 76.3754 -2414
v 5570 76.1414 -2416
v 5570 76.0487 -2418
v 5570 75.863 -2420
v 5570 75.6449 -2422
v 5570 75.3699 -2424
v 5570 75.3822 -2426
v 5570 75.2956 -2428
v 5570 75.4261 -2430
v 5570 75.4889 -2432
v 5570 75.6351 -2434
v 5570 75.5739 -2436
v 5570 75.5669 -2438
v 5570 75.4147 -2440
v 5570 75.3515 -2442
v 5570 75.5446 -2444
v 5570 75.6794 -2446
v 5570 75.7524 -2448
v 5570 75.8435 -2450
v 5570 75.8063 -2452
v 5570 75.9422 -2454
v 5570 76.1477 -2456
v 5570 76.2697 -2458
v 5570 76.5945 -2460
v 5570 76.8345 -2462
v 5570 77.3276 -2464
v 5570 77.4504 -2466
v 5572 77.1886 -2404
v 5572 76.9512 -2406
v 5572 76.8581 -2408
v 5572 76.613 -2410
v 5572 76.4781 -2412
v 5572 76.2314 -2414
v 5572 76.1591 -2416
v 5572 75.941 -2418
v 5572 75.767 -2420
v 5572 75.6249 -2422
v 5572 75.446 -2424
v 5572 75.2528 -2426
v 5572 75.3672 -2428
v 5572 75.3787 -2430
v 5572 75.4006 -2432
v 5572 75.4216 -2434
v 5572 75.5639 -2436
v 5572 75.395 -2438
v 5572 75.3642 -2440
v 5572 75.2794 -2442
v 5572 75.4678 -2444
v 5572 75.622 -2446
v 5572 75.7111 -2448
v 5572 75.7629 -2450
v 5572 75.8248 -2452
v 5572 75.9911 -2454
v 5572 75.9665 -2456
v 5572 76.347 -2458
v 5572 76.5428 -2460
v 5572 76.8029 -2462
v 5572 76.9786 -2464
v 5572 77.2974 -2466
v 5574 77.1792 -2404
v 5574 77.0274 -2406
v 5574 76.9148 -2408
v 5574 76.6543 -2410
v 5574 76.3525 -2412
v 5574 76.0706 -2414
v 5574 76.0349 -2416
v 5574 75.9037 -2418
v 5574 75.7832 -2420
v 5574 75.4914 -2422
v 5574 75.3583 -2424
v 5574 75.1775 -2426
v 5574 75.2442 -2428
v 5574 75.1947 -2430
v 5574 75.3553 -2432
v 5574 75.3107 -2434
v 5574 75.3979 -2436
v 5574 75.2477 -2438
v 5574 75.1134 -2440
v 5574 75.2663 -2442
v 5574 75.4527 -2444
v 5574 75.6518 -2446
v 5574 75.6329 -2448
v 5574 75.6709 -2450
v 5574 75.7442 -2452
v 5574 75.882 -2454
v 5574 75.9699 -2456
v 5574 76.3581 -2458
v 5574 76.5841 -2460
v 5574 76.8093 -2462
v 5574 76.9248 -2464
v 5574 77.1288 -2466
v 5576 76.9605 -2404
v 5576 76.7881 -2406
v 5576 76.6621 -2408
v 5576 76.4952 -2410
v 5576 76.3108 -2412
v 5576 76.121 -2414
v 5576 76.0554 -2416
v 5576 75.8971 -2418
v 5576 75.7428 -2420
v 5576 75.5226 -2422
v 5576 75.4582 -2424
v 5576 75.2871 -2426
v 5576 75.1362 -2428
v 5576 75.1844 -2430
v 5576 75.2515 -2432
v 5576 75.2023 -2434
v 5576 75.2029 -2436
v 5576 75.1305 -2438
v 5576 75.0404 -2440
v 5576 75.1432 -2442
v 5576 75.3209 -2444
v 5576 75.4677 -2446
v 5576 75.5378 -2448
v 5576 75.6648 -2450
v 5576 75.6242 -2452
v 5576 75.6748 -2454
v 5576 75.8058 -2456
v 5576 76.0899 -2458
v 5576 76.3872 -2460
v 5576 76.5144 -2462
v 5576 76.6601 -2464
v 5576 76.7878 -2466
v 5578 76.8939 -2404
v 5578 76.8207 -2406
v 5578 76.5456 -2408
v 5578 76.2604 -2410
v 5578 76.0466 -2412
v 5578 75.8467 -2414
v 5578 75.733 -2416
v 5578 75.6069 -2418
v 5578 75.5548 -2420
v 5578 75.4326 -2422
v 5578 75.2768 -2424
v 5578 75.1808 -2426
v 5578 75.0443 -2428
v 5578 75.107 -2430
v 5578 75.0895 -2432
v 5578 75.109 -2434
v 5578 74.9901 -2436
v 5578 74.9121 -2438
v 5578 74.9857 -2440
v 5578 75.0495 -2442
v 5578 75.2701 -2444
v 5578 75.2523 -2446
v 5578 75.3772 -2448
v 5578 75.329 -2450
v 5578 75.344 -2452
v 5578 75.455 -2454
v 5578 75.7295 -2456
v 5578 76.0056 -2458
v 5578 76.1254 -2460
v 5578 76.2076 -2462
v 5578 76.278 -2464
v 5578 76.4951 -2466
v 5580 76.6258 -2404
v 5580 76.5805 -2406
v 5580 76.3854 -2408
v 5580 76.0762 -2410
v 5580 75.7774 -2412
v 5580 75.6021 -2414
v 5580 75.5825 -2416
v 5580 75.3916 -2418
v 5580 75.3754 -2420
v 5580 75.3085 -2422
v 5580 75.1446 -2424
v 5580 74.945 -2426
v 5580 74.9505 -2428
v 5580 74.9298 -2430
v 5580 74.8936 -2432
v 5580 74.8876 -2434
v 5580 74.9099 -2436
v 5580 74.8194 -2438
v 5580 74.8555 -2440
v 5580 75.0448 -2442
v 5580 75.0072 -2444
v 5580 75.2495 -2446
v 5580 75.2148 -2448
v 5580 75.171 -2450
v 5580 75.1868 -2452
v 5580 75.1611 -2454
v 5580 75.4363 -2456
v 5580 75.6334 -2458
v 5580 75.7902 -2460
v 5580 75.8805 -2462
v 5580 75.9719 -2464
v 5580 76.2441 -2466
v 5582 76.4677 -2404
v 5582 76.336 -2406
v 5582 76.1107 -2408
v 5582 75.8269 -2410
v 5582 75.6117 -2412
v 5582 75.3234 -2414
v 5582 75.168 -2416
v 5582 75.156 -2418
v 5582 75.1469 -2420
v 5582 75.0285 -2422
v 5582 74.7848 -2424
v 5582 74.7559 -2426
v 5582 74.7678 -2428
v 5582 74.7229 -2430
v 5582 74.7156 -2432
v 5582 74.8449 -2434
v 5582 74.6733 -2436
v 5582 74.7108 -2438
v 5582 74.7343 -2440
v 5582 74.8276 -2442
v 5582 75.0383 -2444
v 5582 74.9915 -2446
v 5582 75.065 -2448
v 5582 75.021 -2450
v 5582 74.9222 -2452
v 5582 74.9444 -2454
v 5582 75.1193 -2456
v 5582 75.2464 -2458
v 5582 75.4221 -2460
v 5582 75.5338 -2462
v 5582 75.6834 -2464
v 5582 75.7815 -2466
v 5584 76.3303 -2404
v 5584 76.0147 -2406
v 5584 75.8179 -2408
v 5584 75.5262 -2410
v 5584 75.2718 -2412
v 5584 75.1118 -2414
v 5584 74.9159 -2416
v 5584 74.9161 -2418
v 5584 74.7394 -2420
v 5584 74.6422 -2422
v 5584 74.6045 -2424
v 5584 74.4941 -2426
v 5584 74.4831 -2428
v 5584 74.5584 -2430
v 5584 74.4738 -2432
v 5584 74.4536 -2434
v 5584 74.2871 -2436
v 5584 74.416 -2438
v 5584 74.6051 -2440
v 5584 74.7233 -2442
v 5584 74.8685 -2444
v 5584 74.6967 -2446
v 5584 74.6829 -2448
v 5584 74.6875 -2450
v 5584 74.8592 -2452
v 5584 74.7429 -2454
v 5584 74.8761 -2456
v 5584 74.9075 -2458
v 5584 75.0096 -2460
v 5584 75.1705 -2462
v 5584 75.4061 -2464
v 5584 75.4504 -2466
v 5586 76.1425 -2404
v 5586 75.7287 -2406
v 5586 75.4909 -2408
v 5586 75.2437 -2410
v 5586 75.201 -2412
v 5586 74.9038 -2414
v 5586 74.7022 -2416
v 5586 74.7318 -2418
v 5586 74.5809 -2420
v 5586 74.4494 -2422
v 5586 74.3809 -2424
v 5586 74.1515 -2426
v 5586 74.0205 -2428
v 5586 74.0748 -2430
v 5586 74.2903 -2432
v 5586 74.2845 -2434
v 5586 74.3663 -2436
v 5586 74.5045 -2438
v 5586 74.4041 -2440
v 5586 74.4838 -2442
v 5586 74.6889 -2444
v 5586 74.6075 -2446
v 5586 74.5441 -2448
v 5586 74.518 -2450
v 5586 74.5024 -2452
v 5586 74.478 -2454
v 5586 74.7034 -2456
v 5586 74.7398 -2458
v 5586 74.7409 -2460
v 5586 74.8057 -2462
v 5586 75.0809 -2464
v 5586 75.1954 -2466
v 5588 75.8342 -2404
v 5588 75.5884 -2406
v 5588 75.4349 -2408
v 5588 75.2109 -2410
v 5588 74.9841 -2412
v 5588 74.7146 -2414
v 5588 74.6523 -2416
v 5588 74.5221 -2418
v 5588 74.3473 -2420
v 5588 74.1588 -2422
v 5588 74.0841 -2424
v 5588 74.1913 -2426
v 5588 74.2605 -2428
v 5588 74.4519 -2430
v 5588 74.5975 -2432
v 5588 74.5412 -2434
v 5588 74.6722 -2436
v 5588 74.5526 -2438
v 5588 74.644 -2440
v 5588 74.7269 -2442
v 5588 74.8066 -2444
v 5588 74.8849 -2446
v 5588 74.6776 -2448
v 5588 74.5044 -2450
v 5588 74.2964 -2452
v 5588 74.1514 -2454
v 5588 74.3177 -2456
v 5588 74.4117 -2458
v 5588 74.5177 -2460
v 5588 74.5865 -2462
v 5588 74.8171 -2464
v 5588 74.9784 -2466
v 5590 75.6482 -2404
v 5590 75.5461 -2406
v 5590 75.1942 -2408
v 5590 75.0008 -2410
v 5590 74.7806 -2412
v 5590 74.752 -2414
v 5590 74.4862 -2416
v 5590 74.311 -2418
v 5590 74.255 -2420
v 5590 74.3804 -2422
v 5590 74.328 -2424
v 5590 74.5789 -2426
v 5590 74.5883 -2428
v 5590 74.7721 -2430
v 5590 74.8452 -2432
v 5590 74.9201 -2434
v 5590 74.8072 -2436
v 5590 74.9225 -2438
v 5590 74.9319 -2440
v 5590 75.0019 -2442
v 5590 75.0728 -2444
v 5590 75.1719 -2446
v 5590 74.8738 -2448
v 5590 74.7596 -2450
v 5590 74.6602 -2452
v 5590 74.611 -2454
v 5590 74.5447 -2456
v 5590 74.4128 -2458
v 5590 74.3343 -2460
v 5590 74.3224 -2462
v 5590 74.4423 -2464
v 5590 74.6123 -2466
v 5592 75.3804 -2404
v 5592 75.1116 -2406
v 5592 75.0074 -2408
v 5592 74.7603 -2410
v 5592 74.5327 -2412
v 5592 74.4708 -2414
v 5592 74.3576 -2416
v 5592 74.4961 -2418
v 5592 74.7388 -2420
v 5592 74.7628 -2422
v 5592 74.754 -2424
v 5592 75.024 -2426
v 5592 74.9768 -2428
v 5592 75.0993 -2430
v 5592 75.2125 -2432
v 5592 75.1823 -2434
v 5592 75.2411 -2436
v 5592 75.1442 -2438
v 5592 75.1654 -2440
v 5592 75.2239 -2442
v 5592 75.3299 -2444
v 5592 75.4323 -2446
v 5592 75.1574 -2448
v 5592 75.1269 -2450
v 5592 74.9842 -2452
v 5592 74.8917 -2454
v 5592 74.9602 -2456
v 5592 74.916 -2458
v 5592 74.8019 -2460
v 5592 74.5877 -2462
v 5592 74.5143 -2464
v 5592 74.2667 -2466
v 5594 75.0288 -2404
v 5594 74.9532 -2406
v 5594 74.6737 -2408
v 5594 74.3884 -2410
v 5594 74.2572 -2412
v 5594 74.5958 -2414
v 5594 74.6925 -2416
v 5594 74.9188 -2418
v 5594 74.9769 -2420
v 5594 75.2766 -2422
v 5594 75.2348 -2424
v 5594 75.4063 -2426
v 5594 75.3021 -2428
v 5594 75.5413 -2430
v 5594 75.4947 -2432
v 5594 75.3456 -2434
v 5594 75.3651 -2436
v 5594 75.412 -2438
v 5594 75.494 -2440
v 5594 75.5664 -2442
v 5594 75.5233 -2444
v 5594 75.4851 -2446
v 5594 75.4667 -2448
v 5594 75.3842 -2450
v 5594 75.4675 -2452
v 5594 75.3657 -2454
v 5594 75.3721 -2456
v 5594 75.1539 -2458
v 5594 75.1004 -2460
v 5594 75.0611 -2462
v 5594 74.9805 -2464
v 5594 74.7143 -2466
v 5596 74.689 -2404
v 5596 74.5827 -2406
v 5596 74.363 -2408
v 5596 74.499 -2410
v 5596 74.6195 -2412
v 5596 74.8205 -2414
v 5596 74.8345 -2416
v 5596 75.1721 -2418
v 5596 75.443 -2420
v 5596 75.5994 -2422
v 5596 75.5723 -2424
v 5596 75.7042 -2426
v 5596 75.7703 -2428
v 5596 75.7508 -2430
v 5596 75.791 -2432
v 5596 75.7309 -2434
v 5596 75.6617 -2436
v 5596 75.6293 -2438
v 5596 75.7211 -2440
v 5596 75.715 -2442
v 5596 75.7781 -2444
v 5596 75.8498 -2446
v 5596 75.832 -2448
v 5596 75.7294 -2450
v 5596 75.8057 -2452
v 5596 75.6365 -2454
v 5596 75.7185 -2456
v 5596 75.673 -2458
v 5596 75.5649 -2460
v 5596 75.405 -2462
v 5596 75.363 -2464
v 5596 75.1855 -2466
v 5598 74.3872 -2404
v 5598 74.4392 -2406
v 5598 74.6944 -2408
v 5598 74.7525 -2410
v 5598 74.7994 -2412
v 5598 75.0979 -2414
v 5598 75.2123 -2416
v 5598 75.3089 -2418
v 5598 75.6012 -2420
v 5598 75.9044 -2422
v 5598 76.0088 -2424
v 5598 76.014 -2426
v 5598 76.1407 -2428
v 5598 75.9807 -2430
v 5598 75.9191 -2432
v 5598 76.041 -2434
v 5598 76.0225 -2436
v 5598 75.9719 -2438
v 5598 76.0586 -2440
v 5598 76.1222 -2442
v 5598 76.01 -2444
v 5598 76.1749 -2446
v 5598 76.0559 -2448
v 5598 76.1698 -2450
v 5598 76.0651 -2452
v 5598 75.9752 -2454
v 5598 75.9866 -2456
v 5598 75.8177 -2458
v 5598 75.8688 -2460
v 5598 75.7984 -2462
v 5598 75.7844 -2464
v 5598 75.7728 -2466
v 5600 74.839 -2404
v 5600 74.9081 -2406
v 5600 75.0183 -2408
v 5600 75.1594 -2410
v 5600 75.2025 -2412
v 5600 75.3486 -2414
v 5600 75.5195 -2416
v 5600 75.6111 -2418
v 5600 75.854 -2420
v 5600 76.1079 -2422
v 5600 76.2103 -2424
v 5600 76.4498 -2426
v 5600 76.3104 -2428
v 5600 76.2922 -2430
v 5600 76.3222 -2432
v 5600 76.218 -2434
v 5600 76.3331 -2436
v 5600 76.4565 -2438
v 5600 76.4713 -2440
v 5600 76.3955 -2442
v 5600 76.3886 -2444
v 5600 76.4545 -2446
v 5600 76.3359 -2448
v 5600 76.4033 -2450
v 5600 76.4046 -2452
v 5600 76.3321 -2454
v 5600 76.1498 -2456
v 5600 76.1399 -2458
v 5600 76.1079 -2460
v 5600 76.1545 -2462
v 5600 76.15 -2464
v 5600 76.0216 -2466
v 5602 74.9697 -2404
v 5602 75.2469 -2406
v 5602 75.386 -2408
v 5602 75.5173 -2410
v 5602 75.6534 -2412
v 5602 75.7841 -2414
v 5602 75.7947 -2416
v 5602 75.9349 -2418
v 5602 76.2101 -2420
v 5602 76.3776 -2422
v 5602 76.4874 -2424
v 5602 76.5401 -2426
v 5602 76.5187 -2428
v 5602 76.5573 -2430
v 5602 76.5331 -2432
v 5602 76.6008 -2434
v 5602 76.6631 -2436
v 5602 76.8459 -2438
v 5602 76.7535 -2440
v 5602 76.6855 -2442
v 5602 76.6442 -2444
v 5602 76.6834 -2446
v 5602 76.5666 -2448
v 5602 76.5546 -2450
v 5602 76.5385 -2452
v 5602 76.4665 -2454
v 5602 76.4396 -2456
v 5602 76.4158 -2458
v 5602 76.3994 -2460
v 5602 76.4537 -2462
v 5602 76.3962 -2464
v 5602 76.3375 -2466
v 5604 75.3294 -2404
v 5604 75.4941 -2406
v 5604 75.7683 -2408
v 5604 75.7626 -2410
v 5604 75.9075 -2412
v 5604 76.017 -2414
v 5604 76.2067 -2416
v 5604 76.2425 -2418
v 5604 76.4442 -2420
v 5604 76.6742 -2422
v 5604 76.6802 -2424
v 5604 76.7556 -2426
v 5604 76.8806 -2428
v 5604 76.8378 -2430
v 5604 76.9151 -2432
v 5604 76.9222 -2434
v 5604 76.8726 -2436
v 5604 76.9912 -2438
v 5604 77.0732 -2440
v 5604 77.0144 -2442
v 5604 76.8975 -2444
v 5604 76.8761 -2446
v 5604 76.6567 -2448
v 5604 76.7667 -2450
v 5604 76.8681 -2452
v 5604 76.754 -2454
v 5604 76.6169 -2456
v 5604 76.7072 -2458
v 5604 76.6254 -2460
v 5604 76.5524 -2462
v 5604 76.5614 -2464
v 5604 76.6394 -2466
v 5606 75.5049 -2404
v 5606 75.5303 -2406
v 5606 75.8772 -2408
v 5606 76.0886 -2410
v 5606 76.2013 -2412
v 5606 76.1832 -2414
v 5606 76.5305 -2416
v 5606 76.6546 -2418
v 5606 76.734 -2420
v 5606 76.8298 -2422
v 5606 76.8875 -2424
v 5606 76.8865 -2426
v 5606 76.9402 -2428
v 5606 76.9272 -2430
v 5606 77.0986 -2432
v 5606 77.2431 -2434
v 5606 77.1606 -2436
v 5606 77.2215 -2438
v 5606 77.2932 -2440
v 5606 77.2438 -2442
v 5606 77.0303 -2444
v 5606 76.9879 -2446
v 5606 76.9666 -2448
v 5606 77.0357 -2450
v 5606 76.9486 -2452
v 5606 76.9768 -2454
v 5606 76.7932 -2456
v 5606 76.8764 -2458
v 5606 76.7754 -2460
v 5606 76.9156 -2462
v 5606 76.9912 -2464
v 5606 77.0512 -2466
v 5608 75.7087 -2404
v 5608 75.7605 -2406
v 5608 76.0798 -2408
v 5608 76.2064 -2410
v 5608 76.4374 -2412
v 5608 76.5295 -2414
v 5608 76.8511 -2416
v 5608 76.7842 -2418
v 5608 76.895 -2420
v 5608 77.0744 -2422
v 5608 77.0669 -2424
v 5608 76.9351 -2426
v 5608 77.1222 -2428
v 5608 77.2581 -2430
v 5608 77.3097 -2432
v 5608 77.5155 -2434
v 5608 77.415 -2436
v 5608 77.511 -2438
v 5608 77.4779 -2440
v 5608 77.376 -2442
v 5608 77.4251 -2444
v 5608 77.2452 -2446
v 5608 77.2467 -2448
v 5608 77.3141 -2450
v 5608 77.3513 -2452
v 5608 77.5103 -2454
v 5608 77.0836 -2456
v 5608 77.131 -2458
v 5608 77.2551 -2460
v 5608 77.3195 -2462
v 5608 77.4078 -2464
v 5608 77.2423 -2466
v 5610 75.9089 -2404
v 5610 76.1928 -2406
v 5610 76.2784 -2408
v 5610 76.4677 -2410
v 5610 76.617 -2412
v 5610 76.7931 -2414
v 5610 77.0206 -2416
v 5610 76.9749 -2418
v 5610 77.0561 -2420
v 5610 77.0802 -2422
v 5610 77.1763 -2424
v 5610 77.1608 -2426
v 5610 77.2645 -2428
v 5610 77.4239 -2430
v 5610 77.5404 -2432
v 5610 77.639 -2434
v 5610 77.7633 -2436
v 5610 77.5774 -2438
v 5610 77.5856 -2440
v 5610 77.6051 -2442
v 5610 77.3889 -2444
v 5610 77.5354 -2446
v 5610 77.5385 -2448
v 5610 77.5525 -2450
v 5610 77.8518 -2452
v 5610 77.5863 -2454
v 5610 77.7355 -2456
v 5610 77.7641 -2458
v 5610 77.6333 -2460
v 5610 77.6962 -2462
v 5610 77.9401 -2464
v 5610 78.1064 -2466
v 5612 76.3318 -2404
v 5612 76.4334 -2406
v 5612 76.5577 -2408
v 5612 76.7236 -2410
v 5612 76.8715 -2412
v 5612 77.0801 -2414
v 5612 77.0842 -2416
v 5612 77.1295 -2418
v 5612 77.1334 -2420
v 5612 77.1912 -2422
v 5612 77.3027 -2424
v 5612 77.2594 -2426
v 5612 77.3517 -2428
v 5612 77.5322 -2430
v 5612 77.6793 -2432
v 5612 77.9073 -2434
v 5612 77.7852 -2436
v 5612 77.8735 -2438
v 5612 77.8398 -2440
v 5612 77.7982 -2442
v 5612 77.646 -2444
v 5612 77.6835 -2446
v 5612 77.6987 -2448
v 5612 77.7865 -2450
v 5612 77.9029 -2452
v 5612 78.5404 -2454
v 5612 78.3608 -2456
v 5612 78.1098 -2458
v 5612 78.1617 -2460
v 5612 78.6408 -2462
v 5612 78.3855 -2464
v 5612 78.6258 -2466
v 5614 76.5804 -2404
v 5614 76.6003 -2406
v 5614 76.817 -2408
v 5614 76.9781 -2410
v 5614 77.0882 -2412
v 5614 77.1684 -2414
v 5614 77.2461 -2416
v 5614 77.3258 -2418
v 5614 77.3104 -2420
v 5614 77.2978 -2422
v 5614 77.3648 -2424
v 5614 77.3136 -2426
v 5614 77.6073 -2428
v 5614 77.7591 -2430
v 5614 77.7014 -2432
v 5614 77.7507 -2434
v 5614 77.788 -2436
v 5614 77.8489 -2438
v 5614 77.8592 -2440
v 5614 77.9608 -2442
v 5614 77.9445 -2444
v 5614 77.8567 -2446
v 5614 77.9077 -2448
v 5614 77.9624 -2450
v 5614 77.9408 -2452
v 5614 78.8033 -2454
v 5614 78.8204 -2456
v 5614 78.6581 -2458
v 5614 79.0045 -2460
v 5614 78.7981 -2462
v 5614 78.5413 -2464
v 5614 78.7082 -2466
f 123 121 122
f 134 133 132
f 130 129 128
f 122 121 120
f 127 125 126
f 126 125 124
f 131 129 130
f 118 117 116
f 119 117 118
f 135 133 134
f 187 185 186
f 186 185 184
f 191 189 190
f 190 189 188
f 194 193 192
f 203 201 202
f 202 201 200
f 182 181 180
f 183 181 182
f 195 193 194
f 162 161 160
f 161 164 160
f 165 164 161
f 13 14 12
f 265 204 264
f 77 76 75
f 78 76 77
f 73 72 71
f 72 73 74
f 175 178 179
f 176 178 175
f 176 175 174
f 90 89 88
f 90 91 89
f 173 171 172
f 168 167 166
f 169 167 168
f 158 157 156
f 90 92 91
f 92 93 91
f 92 94 93
f 95 94 92
f 217 215 216
f 162 160 163
f 1 62 61
f 220 219 218
f 246 247 216
f 246 216 214
f 216 215 214
f 221 219 220
f 221 249 219
f 221 250 249
f 247 250 221
f 247 248 250
f 246 248 247
f 49 50 48
f 49 48 39
f 39 48 40
f 40 38 39
f 39 38 37
f 38 42 37
f 15 20 19
f 15 16 20
f 17 16 15
f 17 18 16
f 46 18 17
f 47 18 46
f 47 44 18
f 45 44 47
f 45 43 44
f 44 43 12
f 12 43 11
f 13 12 11
f 245 242 240
f 242 241 240
f 242 243 241
f 251 241 243
f 251 252 241
f 253 252 251
f 239 237 238
f 223 218 222
f 220 218 223
f 159 157 158
f 206 207 205
f 206 205 204
f 264 204 205
f 35 36 34
f 262 256 257
f 258 257 256
f 1 61 3
f 3 2 1
f 4 2 3
f 4 5 2
f 6 5 4
f 6 7 5
f 8 7 6
f 8 9 7
f 10 9 8
f 210 211 209
f 210 209 208
f 208 209 207
f 212 211 210
f 212 213 211
f 53 59 55
f 55 54 53
f 208 207 206
f 37 42 41
f 254 255 252
f 252 255 236
f 236 255 238
f 245 240 244
f 238 237 236
f 35 34 33
f 261 260 259
f 263 261 259
f 57 60 56
f 52 51 49
f 52 49 33
f 52 33 34
f 58 57 56
f 51 50 49
f 253 254 252
f 179 178 177
f 172 171 170
f 99 97 98
f 98 97 96
f 146 145 144
f 147 145 146
f 142 141 140
f 143 141 142
f 138 137 136
f 139 137 138
f 107 105 106
f 110 109 108
f 106 105 104
f 111 109 110
f 151 149 150
f 150 149 148
f 103 101 102
f 102 101 100
f 85 83 86
f 85 84 83
f 79 87 86
f 85 86 87
f 82 80 81
f 81 80 79
f 80 87 79
f 66 64 65
f 65 64 63
f 153 154 155
f 154 153 152
f 226 225 224
f 227 225 226
f 227 228 225
f 229 228 227
f 229 230 228
f 231 230 229
f 231 232 230
f 233 232 231
f 233 234 232
f 235 234 233
f 70 69 66
f 66 69 68
f 23 22 21
f 23 24 22
f 25 24 23
f 25 26 24
f 27 26 25
f 27 28 26
f 29 28 27
f 29 30 28
f 31 30 29
f 31 32 30
f 66 68 67
f 66 67 64
f 114 113 112
f 115 113 114
f 198 197 196
f 199 197 198
f 305 304 303
f 305 303 310
f 301 390 389
f 399 296 398
f 398 296 397
f 397 296 396
f 395 292 393
f 294 393 292
f 394 393 294
f 273 271 272
f 272 271 270
f 269 267 268
f 268 267 266
f 287 286 285
f 287 285 288
f 287 288 289
f 290 289 288
f 336 342 332
f 336 332 307
f 336 307 335
f 307 309 335
f 307 308 309
f 308 307 306
f 344 343 333
f 345 344 333
f 340 345 333
f 339 340 333
f 339 333 338
f 334 338 333
f 334 333 332
f 337 334 332
f 341 337 332
f 342 341 332
f 324 322 323
f 323 322 321
f 321 322 320
f 321 320 319
f 320 316 319
f 316 320 318
f 318 317 316
f 318 315 317
f 315 318 314
f 315 314 312
f 312 314 311
f 313 312 311
f 396 296 292
f 396 292 395
f 400 296 399
f 298 390 301
f 298 391 390
f 298 392 391
f 298 401 392
f 400 401 296
f 296 401 298
f 294 292 293
f 388 387 273
f 273 387 271
f 292 296 295
f 292 295 291
f 293 292 291
f 298 297 296
f 296 297 295
f 301 300 298
f 298 300 299
f 298 299 297
f 302 300 301
f 386 385 269
f 269 385 267
f 279 278 277
f 279 277 283
f 283 277 284
f 283 284 280
f 367 366 365
f 368 366 367
f 368 369 366
f 370 369 368
f 370 371 369
f 372 371 370
f 373 371 372
f 374 371 373
f 349 374 373
f 374 349 350
f 351 350 349
f 354 353 352
f 355 353 354
f 356 353 355
f 358 356 355
f 356 358 357
f 360 357 358
f 357 360 359
f 362 359 360
f 359 362 361
f 364 361 362
f 361 364 363
f 283 280 281
f 282 281 280
f 327 326 325
f 327 331 326
f 331 276 326
f 331 275 276
f 274 275 328
f 276 275 274
f 274 379 276
f 379 380 276
f 380 381 276
f 381 382 276
f 382 383 276
f 276 383 384
f 348 347 346
f 348 346 375
f 348 375 376
f 348 376 377
f 348 377 378
f 348 378 274
f 348 274 329
f 329 274 328
f 328 330 329
f 473 472 471
f 474 472 473
f 469 468 467
f 470 468 469
f 477 476 475
f 465 464 463
f 466 464 465
f 478 476 477
f 461 460 459
f 462 460 461
f 529 528 527
f 534 532 533
f 533 532 531
f 537 536 535
f 530 528 529
f 546 544 545
f 545 544 543
f 525 524 523
f 538 536 537
f 526 524 525
f 516 514 515
f 511 510 509
f 433 434 432
f 433 432 431
f 587 547 586
f 512 510 511
f 501 500 499
f 433 435 434
f 435 436 434
f 435 437 436
f 438 437 435
f 505 503 506
f 505 504 503
f 504 507 503
f 508 507 504
f 420 419 418
f 421 419 420
f 519 518 517
f 519 521 518
f 518 521 522
f 590 589 588
f 556 554 555
f 404 405 403
f 404 403 402
f 415 416 417
f 416 415 414
f 613 612 611
f 613 614 612
f 613 615 614
f 613 618 615
f 618 619 615
f 555 554 553
f 571 555 553
f 502 500 501
f 571 572 555
f 571 604 572
f 572 604 609
f 572 609 607
f 609 608 607
f 607 608 606
f 607 606 605
f 570 568 569
f 599 602 601
f 586 547 548
f 549 548 547
f 549 550 548
f 551 550 549
f 551 552 550
f 632 629 630
f 603 402 403
f 591 590 588
f 631 630 627
f 627 630 629
f 623 621 617
f 622 617 621
f 617 616 615
f 619 617 615
f 620 617 622
f 617 620 616
f 598 599 601
f 577 579 574
f 574 579 567
f 567 579 569
f 569 568 567
f 604 610 609
f 582 581 580
f 584 582 580
f 582 584 583
f 585 584 580
f 578 577 574
f 576 578 574
f 522 521 520
f 515 514 513
f 591 588 592
f 627 629 626
f 626 629 628
f 450 448 449
f 449 448 447
f 441 440 439
f 442 440 441
f 454 452 453
f 453 452 451
f 489 488 487
f 490 488 489
f 485 484 483
f 486 484 485
f 481 480 479
f 482 480 481
f 627 626 625
f 600 599 598
f 576 574 575
f 575 574 573
f 615 616 624
f 493 492 491
f 494 492 493
f 446 444 445
f 445 444 443
f 428 426 429
f 428 427 426
f 422 430 429
f 428 429 430
f 425 423 424
f 424 423 422
f 423 430 422
f 408 407 406
f 559 558 557
f 560 558 559
f 560 561 558
f 562 561 560
f 564 563 561
f 562 564 561
f 565 564 562
f 566 565 562
f 497 496 495
f 496 497 498
f 409 407 408
f 409 410 407
f 409 411 410
f 409 412 411
f 413 412 409
f 597 595 596
f 595 593 596
f 595 594 593
f 458 456 457
f 457 456 455
f 542 540 541
f 541 540 539
f 641 642 643
f 642 641 640
f 641 664 640
f 642 640 664
f 641 665 664
f 642 664 663
f 665 663 664
f 641 661 665
f 661 641 647
f 646 661 647
f 660 661 646
f 660 665 661
f 665 660 663
f 646 647 634
f 637 646 634
f 633 655 635
f 635 634 633
f 636 634 635
f 634 636 637
f 682 681 671
f 672 671 670
f 679 670 681
f 671 681 670
f 672 673 671
f 672 675 673
f 675 674 673
f 679 672 670
f 675 672 679
f 659 658 648
f 658 659 674
f 677 658 674
f 675 677 674
f 658 676 648
f 676 658 677
f 659 648 649
f 674 669 673
f 674 659 669
f 667 669 659
f 659 649 667
f 656 655 633
f 641 671 673
f 669 641 673
f 668 641 669
f 669 666 668
f 666 633 668
f 666 656 633
f 666 669 667
f 641 668 633
f 647 641 633
f 647 633 634
f 637 660 646
f 648 676 650
f 650 649 648
f 660 637 639
f 636 638 637
f 639 637 638
f 653 667 649
f 667 653 666
f 675 678 677
f 675 679 678
f 653 656 666
f 654 656 653
f 654 657 656
f 656 657 655
f 639 663 660
f 651 649 650
f 652 649 651
f 649 652 654
f 649 654 653
f 642 663 662
f 663 639 662
f 642 644 643
f 644 642 662
f 682 683 681
f 681 683 679
f 683 685 679
f 686 678 679
f 685 686 679
f 688 662 639
f 638 689 639
f 689 688 639
f 645 644 662
f 645 662 688
f 694 655 657
f 694 657 654
f 645 643 644
f 684 683 682
f 683 684 685
f 636 692 638
f 692 689 638
f 686 677 678
f 690 635 655
f 635 690 693
f 693 636 635
f 694 654 691
f 691 654 652
f 680 676 677
f 680 677 686
f 687 652 651
f 650 687 651
f 690 655 694
f 652 687 691
f 689 643 688
f 688 643 645
f 693 692 636
f 692 643 689
f 692 693 643
f 643 693 690
f 690 682 643
f 685 682 686
f 682 685 684
f 686 682 680
f 680 682 687
f 690 687 682
f 676 687 650
f 680 687 676
f 687 690 691
f 691 690 694
f 707 706 695
f 707 695 701
f 695 696 701
f 697 696 695
f 706 697 695
f 700 696 697
f 706 705 697
f 705 700 697
f 705 704 700
f 698 707 701
f 702 707 698
f 701 696 698
f 699 698 696
f 696 700 699
f 704 699 700
f 704 703 699
f 703 702 699
f 699 702 698
f 716 714 715
f 716 709 714
f 708 709 716
f 713 712 711
f 713 714 712
f 715 714 713
f 710 709 708
f 719 718 717
f 723 721 722
f 722 721 720
f 719 717 725
f 719 725 723
f 723 725 724
f 723 724 721
f 981 975 980
f 984 981 980
f 968 973 972
f 945 948 946
f 946 948 947
f 976 975 974
f 976 980 975
f 968 969 973
f 970 969 968
f 945 944 943
f 945 946 944
f 970 971 969
f 949 941 950
f 951 938 949
f 941 949 938
f 940 941 938
f 942 941 940
f 1001 1000 997
f 953 954 955
f 976 979 983
f 974 979 976
f 993 997 996
f 997 998 996
f 997 999 998
f 997 1000 999
f 956 952 953
f 954 953 952
f 983 979 982
f 958 952 957
f 966 954 952
f 967 954 966
f 940 938 939
f 939 938 937
f 960 952 958
f 960 958 959
f 977 979 974
f 960 965 952
f 966 952 965
f 959 962 961
f 959 961 960
f 978 977 974
f 995 993 996
f 993 995 994
f 987 988 986
f 963 960 961
f 964 960 963
f 965 960 964
f 855 839 859
f 855 859 858
f 737 735 736
f 730 738 739
f 936 803 808
f 803 805 808
f 808 805 807
f 805 806 807
f 806 816 807
f 811 816 806
f 812 802 803
f 802 812 892
f 802 892 893
f 802 893 884
f 893 776 884
f 884 776 775
f 777 775 776
f 797 781 778
f 784 781 797
f 779 778 781
f 779 777 778
f 773 777 779
f 777 773 775
f 819 825 824
f 819 817 825
f 929 819 824
f 930 819 929
f 930 929 931
f 932 930 931
f 932 933 930
f 800 799 798
f 801 799 800
f 768 799 801
f 799 768 769
f 770 769 768
f 771 769 770
f 770 792 771
f 771 792 793
f 786 794 792
f 786 795 794
f 786 796 795
f 788 796 786
f 840 839 838
f 850 842 849
f 851 842 850
f 852 842 851
f 852 841 842
f 836 842 841
f 837 842 836
f 838 837 836
f 862 837 838
f 838 861 862
f 838 839 861
f 848 861 844
f 862 861 848
f 845 844 843
f 853 844 845
f 844 853 860
f 844 860 847
f 848 844 847
f 848 847 846
f 861 839 855
f 855 858 857
f 855 857 856
f 855 856 834
f 855 834 854
f 854 834 835
f 835 834 831
f 831 834 833
f 831 833 832
f 831 832 829
f 831 829 830
f 830 829 828
f 867 866 865
f 868 867 865
f 880 879 878
f 881 879 880
f 735 737 733
f 822 871 821
f 823 822 821
f 811 809 816
f 816 809 813
f 809 814 813
f 810 814 809
f 815 814 810
f 744 746 745
f 741 746 744
f 741 744 743
f 741 743 742
f 741 742 740
f 741 740 728
f 728 740 738
f 738 730 728
f 749 748 747
f 749 750 748
f 759 761 757
f 757 761 760
f 875 873 874
f 874 873 872
f 804 805 803
f 806 805 804
f 987 986 985
f 811 806 804
f 811 810 809
f 811 804 810
f 804 803 802
f 993 994 992
f 993 992 991
f 753 746 741
f 746 753 754
f 749 751 750
f 749 752 751
f 758 757 756
f 758 759 757
f 775 894 884
f 885 802 884
f 884 894 885
f 886 804 802
f 802 885 886
f 804 886 887
f 804 887 888
f 804 888 889
f 804 889 810
f 780 784 783
f 781 784 780
f 773 774 775
f 775 774 894
f 774 773 772
f 782 781 780
f 779 781 782
f 782 773 779
f 827 773 782
f 930 820 819
f 934 820 930
f 819 818 817
f 820 818 819
f 933 934 930
f 933 935 934
f 826 801 800
f 791 801 826
f 791 768 801
f 790 768 791
f 767 768 790
f 767 770 768
f 766 770 767
f 766 763 770
f 764 770 763
f 770 764 792
f 792 764 786
f 788 786 787
f 787 786 785
f 786 764 785
f 865 864 863
f 865 866 864
f 883 882 879
f 879 882 878
f 870 822 869
f 871 822 870
f 810 891 815
f 815 891 890
f 874 876 875
f 734 733 732
f 735 733 734
f 875 876 877
f 730 731 729
f 730 729 728
f 728 729 727
f 726 741 728
f 728 727 726
f 741 726 755
f 741 755 753
f 987 985 990
f 990 985 989
f 790 765 767
f 767 765 766
f 791 789 790
f 790 789 765
f 791 826 789
f 766 765 762
f 766 762 763
f 764 763 762
f 901 919 918
f 901 902 919
f 900 902 901
f 900 901 899
f 917 915 916
f 918 915 917
f 925 921 902
f 900 925 902
f 921 897 920
f 913 912 911
f 914 912 913
f 912 914 924
f 924 914 925
f 914 928 925
f 925 928 926
f 926 921 925
f 926 923 921
f 922 921 923
f 921 922 896
f 921 896 897
f 897 896 895
f 928 914 927
f 918 919 915
f 900 899 898
f 905 904 903
f 905 906 904
f 907 906 905
f 907 908 906
f 909 908 907
f 910 908 909
f 910 915 908
f 916 915 910
f 1012 1011 1007
f 1013 1012 1007
f 1011 1010 1005
f 1007 1011 1005
f 1005 1010 1003
f 1013 1007 1008
f 1006 1008 1007
f 1007 1004 1006
f 1004 1007 1005
f 1004 1005 1003
f 1006 1009 1008
f 1004 1003 1002
f 1016 1015 1014
f 1025 1016 1014
f 1024 1020 1023
f 1024 1017 1020
f 1024 1015 1017
f 1017 1015 1016
f 1025 1019 1016
f 1018 1017 1016
f 1018 1022 1017
f 1022 1021 1017
f 1017 1021 1020
f 1016 1019 1018
f 1059 1027 1026
f 1026 1058 1059
f 1091 1059 1058
f 1058 1090 1091
f 1123 1091 1090
f 1090 1122 1123
f 1155 1123 1122
f 1122 1154 1155
f 1187 1155 1154
f 1154 1186 1187
f 1219 1187 1186
f 1186 1218 1219
f 1251 1219 1218
f 1218 1250 1251
f 1283 1251 1250
f 1250 1282 1283
f 1315 1283 1282
f 1282 1314 1315
f 1347 1315 1314
f 1314 1346 1347
f 1379 1347 1346
f 1346 1378 1379
f 1411 1379 1378
f 1378 1410 1411
f 1443 1411 1410
f 1410 1442 1443
f 1475 1443 1442
f 1442 1474 1475
f 1507 1475 1474
f 1474 1506 1507
f 1539 1507 1506
f 1506 1538 1539
f 1571 1539 1538
f 1538 1570 1571
f 1603 1571 1570
f 1570 1602 1603
f 1635 1603 1602
f 1602 1634 1635
f 1667 1635 1634
f 1634 1666 1667
f 1699 1667 1666
f 1666 1698 1699
f 1731 1699 1698
f 1698 1730 1731
f 1763 1731 1730
f 1730 1762 1763
f 1795 1763 1762
f 1762 1794 1795
f 1827 1795 1794
f 1794 1826 1827
f 1859 1827 1826
f 1826 1858 1859
f 1891 1859 1858
f 1858 1890 1891
f 1923 1891 1890
f 1890 1922 1923
f 1955 1923 1922
f 1922 1954 1955
f 1987 1955 1954
f 1954 1986 1987
f 2019 1987 1986
f 1986 2018 2019
f 1060 1028 1027
f 1027 1059 1060
f 1092 1060 1059
f 1059 1091 1092
f 1124 1092 1091
f 1091 1123 1124
f 1156 1124 1123
f 1123 1155 1156
f 1188 1156 1155
f 1155 1187 1188
f 1220 1188 1187
f 1187 1219 1220
f 1252 1220 1219
f 1219 1251 1252
f 1284 1252 1251
f 1251 1283 1284
f 1316 1284 1283
f 1283 1315 1316
f 1348 1316 1315
f 1315 1347 1348
f 1380 1348 1347
f 1347 1379 1380
f 1412 1380 1379
f 1379 1411 1412
f 1444 1412 1411
f 1411 1443 1444
f 1476 1444 1443
f 1443 1475 1476
f 1508 1476 1475
f 1475 1507 1508
f 1540 1508 1507
f 1507 1539 1540
f 1572 1540 1539
f 1539 1571 1572
f 1604 1572 1571
f 1571 1603 1604
f 1636 1604 1603
f 1603 1635 1636
f 1668 1636 1635
f 1635 1667 1668
f 1700 1668 1667
f 1667 1699 1700
f 1732 1700 1699
f 1699 1731 1732
f 1764 1732 1731
f 1731 1763 1764
f 1796 1764 1763
f 1763 1795 1796
f 1828 1796 1795
f 1795 1827 1828
f 1860 1828 1827
f 1827 1859 1860
f 1892 1860 1859
f 1859 1891 1892
f 1924 1892 1891
f 1891 1923 1924
f 1956 1924 1923
f 1923 1955 1956
f 1988 1956 1955
f 1955 1987 1988
f 2020 1988 1987
f 1987 2019 2020
f 1061 1029 1028
f 1028 1060 1061
f 1093 1061 1060
f 1060 1092 1093
f 1125 1093 1092
f 1092 1124 1125
f 1157 1125 1124
f 1124 1156 1157
f 1189 1157 1156
f 1156 1188 1189
f 1221 1189 1188
f 1188 1220 1221
f 1253 1221 1220
f 1220 1252 1253
f 1285 1253 1252
f 1252 1284 1285
f 1317 1285 1284
f 1284 1316 1317
f 1349 1317 1316
f 1316 1348 1349
f 1381 1349 1348
f 1348 1380 1381
f 1413 1381 1380
f 1380 1412 1413
f 1445 1413 1412
f 1412 1444 1445
f 1477 1445 1444
f 1444 1476 1477
f 1509 1477 1476
f 1476 1508 1509
f 1541 1509 1508
f 1508 1540 1541
f 1573 1541 1540
f 1540 1572 1573
f 1605 1573 1572
f 1572 1604 1605
f 1637 1605 1604
f 1604 1636 1637
f 1669 1637 1636
f 1636 1668 1669
f 1701 1669 1668
f 1668 1700 1701
f 1733 1701 1700
f 1700 1732 1733
f 1765 1733 1732
f 1732 1764 1765
f 1797 1765 1764
f 1764 1796 1797
f 1829 1797 1796
f 1796 1828 1829
f 1861 1829 1828
f 1828 1860 1861
f 1893 1861 1860
f 1860 1892 1893
f 1925 1893 1892
f 1892 1924 1925
f 1957 1925 1924
f 1924 1956 1957
f 1989 1957 1956
f 1956 1988 1989
f 2021 1989 1988
f 1988 2020 2021
f 1062 1030 1029
f 1029 1061 1062
f 1094 1062 1061
f 1061 1093 1094
f 1126 1094 1093
f 1093 1125 1126
f 1158 1126 1125
f 1125 1157 1158
f 1190 1158 1157
f 1157 1189 1190
f 1222 1190 1189
f 1189 1221 1222
f 1254 1222 1221
f 1221 1253 1254
f 1286 1254 1253
f 1253 1285 1286
f 1318 1286 1285
f 1285 1317 1318
f 1350 1318 1317
f 1317 1349 1350
f 1382 1350 1349
f 1349 1381 1382
f 1414 1382 1381
f 1381 1413 1414
f 1446 1414 1413
f 1413 1445 1446
f 1478 1446 1445
f 1445 1477 1478
f 1510 1478 1477
f 1477 1509 1510
f 1542 1510 1509
f 1509 1541 1542
f 1574 1542 1541
f 1541 1573 1574
f 1606 1574 1573
f 1573 1605 1606
f 1638 1606 1605
f 1605 1637 1638
f 1670 1638 1637
f 1637 1669 1670
f 1702 1670 1669
f 1669 1701 1702
f 1734 1702 1701
f 1701 1733 1734
f 1766 1734 1733
f 1733 1765 1766
f 1798 1766 1765
f 1765 1797 1798
f 1830 1798 1797
f 1797 1829 1830
f 1862 1830 1829
f 1829 1861 1862
f 1894 1862 1861
f 1861 1893 1894
f 1926 1894 1893
f 1893 1925 1926
f 1958 1926 1925
f 1925 1957 1958
f 1990 1958 1957
f 1957 1989 1990
f 2022 1990 1989
f 1989 2021 2022
f 1063 1031 1030
f 1030 1062 1063
f 1095 1063 1062
f 1062 1094 1095
f 1127 1095 1094
f 1094 1126 1127
f 1159 1127 1126
f 1126 1158 1159
f 1191 1159 1158
f 1158 1190 1191
f 1223 1191 1190
f 1190 1222 1223
f 1255 1223 1222
f 1222 1254 1255
f 1287 1255 1254
f 1254 1286 1287
f 1319 1287 1286
f 1286 1318 1319
f 1351 1319 1318
f 1318 1350 1351
f 1383 1351 1350
f 1350 1382 1383
f 1415 1383 1382
f 1382 1414 1415
f 1447 1415 1414
f 1414 1446 1447
f 1479 1447 1446
f 1446 1478 1479
f 1511 1479 1478
f 1478 1510 1511
f 1543 1511 1510
f 1510 1542 1543
f 1575 1543 1542
f 1542 1574 1575
f 1607 1575 1574
f 1574 1606 1607
f 1639 1607 1606
f 1606 1638 1639
f 1671 1639 1638
f 1638 1670 1671
f 1703 1671 1670
f 1670 1702 1703
f 1735 1703 1702
f 1702 1734 1735
f 1767 1735 1734
f 1734 1766 1767
f 1799 1767 1766
f 1766 1798 1799
f 1831 1799 1798
f 1798 1830 1831
f 1863 1831 1830
f 1830 1862 1863
f 1895 1863 1862
f 1862 1894 1895
f 1927 1895 1894
f 1894 1926 1927
f 1959 1927 1926
f 1926 1958 1959
f 1991 1959 1958
f 1958 1990 1991
f 2023 1991 1990
f 1990 2022 2023
f 1064 1032 1031
f 1031 1063 1064
f 1096 1064 1063
f 1063 1095 1096
f 1128 1096 1095
f 1095 1127 1128
f 1160 1128 1127
f 1127 1159 1160
f 1192 1160 1159
f 1159 1191 1192
f 1224 1192 1191
f 1191 1223 1224
f 1256 1224 1223
f 1223 1255 1256
f 1288 1256 1255
f 1255 1287 1288
f 1320 1288 1287
f 1287 1319 1320
f 1352 1320 1319
f 1319 1351 1352
f 1384 1352 1351
f 1351 1383 1384
f 1416 1384 1383
f 1383 1415 1416
f 1448 1416 1415
f 1415 1447 1448
f 1480 1448 1447
f 1447 1479 1480
f 1512 1480 1479
f 1479 1511 1512
f 1544 1512 1511
f 1511 1543 1544
f 1576 1544 1543
f 1543 1575 1576
f 1608 1576 1575
f 1575 1607 1608
f 1640 1608 1607
f 1607 1639 1640
f 1672 1640 1639
f 1639 1671 1672
f 1704 1672 1671
f 1671 1703 1704
f 1736 1704 1703
f 1703 1735 1736
f 1768 1736 1735
f 1735 1767 1768
f 1800 1768 1767
f 1767 1799 1800
f 1832 1800 1799
f 1799 1831 1832
f 1864 1832 1831
f 1831 1863 1864
f 1896 1864 1863
f 1863 1895 1896
f 1928 1896 1895
f 1895 1927 1928
f 1960 1928 1927
f 1927 1959 1960
f 1992 1960 1959
f 1959 1991 1992
f 2024 1992 1991
f 1991 2023 2024
f 1065 1033 1032
f 1032 1064 1065
f 1097 1065 1064
f 1064 1096 1097
f 1129 1097 1096
f 1096 1128 1129
f 1161 1129 1128
f 1128 1160 1161
f 1193 1161 1160
f 1160 1192 1193
f 1225 1193 1192
f 1192 1224 1225
f 1257 1225 1224
f 1224 1256 1257
f 1289 1257 1256
f 1256 1288 1289
f 1321 1289 1288
f 1288 1320 1321
f 1353 1321 1320
f 1320 1352 1353
f 1385 1353 1352
f 1352 1384 1385
f 1417 1385 1384
f 1384 1416 1417
f 1449 1417 1416
f 1416 1448 1449
f 1481 1449 1448
f 1448 1480 1481
f 1513 1481 1480
f 1480 1512 1513
f 1545 1513 1512
f 1512 1544 1545
f 1577 1545 1544
f 1544 1576 1577
f 1609 1577 1576
f 1576 1608 1609
f 1641 1609 1608
f 1608 1640 1641
f 1673 1641 1640
f 1640 1672 1673
f 1705 1673 1672
f 1672 1704 1705
f 1737 1705 1704
f 1704 1736 1737
f 1769 1737 1736
f 1736 1768 1769
f 1801 1769 1768
f 1768 1800 1801
f 1833 1801 1800
f 1800 1832 1833
f 1865 1833 1832
f 1832 1864 1865
f 1897 1865 1864
f 1864 1896 1897
f 1929 1897 1896
f 1896 1928 1929
f 1961 1929 1928
f 1928 1960 1961
f 1993 1961 1960
f 1960 1992 1993
f 2025 1993 1992
f 1992 2024 2025
f 1066 1034 1033
f 1033 1065 1066
f 1098 1066 1065
f 1065 1097 1098
f 1130 1098 1097
f 1097 1129 1130
f 1162 1130 1129
f 1129 1161 1162
f 1194 1162 1161
f 1161 1193 1194
f 1226 1194 1193
f 1193 1225 1226
f 1258 1226 1225
f 1225 1257 1258
f 1290 1258 1257
f 1257 1289 1290
f 1322 1290 1289
f 1289 1321 1322
f 1354 1322 1321
f 1321 1353 1354
f 1386 1354 1353
f 1353 1385 1386
f 1418 1386 1385
f 1385 1417 1418
f 1450 1418 1417
f 1417 1449 1450
f 1482 1450 1449
f 1449 1481 1482
f 1514 1482 1481
f 1481 1513 1514
f 1546 1514 1513
f 1513 1545 1546
f 1578 1546 1545
f 1545 1577 1578
f 1610 1578 1577
f 1577 1609 1610
f 1642 1610 1609
f 1609 1641 1642
f 1674 1642 1641
f 1641 1673 1674
f 1706 1674 1673
f 1673 1705 1706
f 1738 1706 1705
f 1705 1737 1738
f 1770 1738 1737
f 1737 1769 1770
f 1802 1770 1769
f 1769 1801 1802
f 1834 1802 1801
f 1801 1833 1834
f 1866 1834 1833
f 1833 1865 1866
f 1898 1866 1865
f 1865 1897 1898
f 1930 1898 1897
f 1897 1929 1930
f 1962 1930 1929
f 1929 1961 1962
f 1994 1962 1961
f 1961 1993 1994
f 2026 1994 1993
f 1993 2025 2026
f 1067 1035 1034
f 1034 1066 1067
f 1099 1067 1066
f 1066 1098 1099
f 1131 1099 1098
f 1098 1130 1131
f 1163 1131 1130
f 1130 1162 1163
f 1195 1163 1162
f 1162 1194 1195
f 1227 1195 1194
f 1194 1226 1227
f 1259 1227 1226
f 1226 1258 1259
f 1291 1259 1258
f 1258 1290 1291
f 1323 1291 1290
f 1290 1322 1323
f 1355 1323 1322
f 1322 1354 1355
f 1387 1355 1354
f 1354 1386 1387
f 1419 1387 1386
f 1386 1418 1419
f 1451 1419 1418
f 1418 1450 1451
f 1483 1451 1450
f 1450 1482 1483
f 1515 1483 1482
f 1482 1514 1515
f 1547 1515 1514
f 1514 1546 1547
f 1579 1547 1546
f 1546 1578 1579
f 1611 1579 1578
f 1578 1610 1611
f 1643 1611 1610
f 1610 1642 1643
f 1675 1643 1642
f 1642 1674 1675
f 1707 1675 1674
f 1674 1706 1707
f 1739 1707 1706
f 1706 1738 1739
f 1771 1739 1738
f 1738 1770 1771
f 1803 1771 1770
f 1770 1802 1803
f 1835 1803 1802
f 1802 1834 1835
f 1867 1835 1834
f 1834 1866 1867
f 1899 1867 1866
f 1866 1898 1899
f 1931 1899 1898
f 1898 1930 1931
f 1963 1931 1930
f 1930 1962 1963
f 1995 1963 1962
f 1962 1994 1995
f 2027 1995 1994
f 1994 2026 2027
f 1068 1036 1035
f 1035 1067 1068
f 1100 1068 1067
f 1067 1099 1100
f 1132 1100 1099
f 1099 1131 1132
f 1164 1132 1131
f 1131 1163 1164
f 1196 1164 1163
f 1163 1195 1196
f 1228 1196 1195
f 1195 1227 1228
f 1260 1228 1227
f 1227 1259 1260
f 1292 1260 1259
f 1259 1291 1292
f 1324 1292 1291
f 1291 1323 1324
f 1356 1324 1323
f 1323 1355 1356
f 1388 1356 1355
f 1355 1387 1388
f 1420 1388 1387
f 1387 1419 1420
f 1452 1420 1419
f 1419 1451 1452
f 1484 1452 1451
f 1451 1483 1484
f 1516 1484 1483
f 1483 1515 1516
f 1548 1516 1515
f 1515 1547 1548
f 1580 1548 1547
f 1547 1579 1580
f 1612 1580 1579
f 1579 1611 1612
f 1644 1612 1611
f 1611 1643 1644
f 1676 1644 1643
f 1643 1675 1676
f 1708 1676 1675
f 1675 1707 1708
f 1740 1708 1707
f 1707 1739 1740
f 1772 1740 1739
f 1739 1771 1772
f 1804 1772 1771
f 1771 1803 1804
f 1836 1804 1803
f 1803 1835 1836
f 1868 1836 1835
f 1835 1867 1868
f 1900 1868 1867
f 1867 1899 1900
f 1932 1900 1899
f 1899 1931 1932
f 1964 1932 1931
f 1931 1963 1964
f 1996 1964 1963
f 1963 1995 1996
f 2028 1996 1995
f 1995 2027 2028
f 1069 1037 1036
f 1036 1068 1069
f 1101 1069 1068
f 1068 1100 1101
f 1133 1101 1100
f 1100 1132 1133
f 1165 1133 1132
f 1132 1164 1165
f 1197 1165 1164
f 1164 1196 1197
f 1229 1197 1196
f 1196 1228 1229
f 1261 1229 1228
f 1228 1260 1261
f 1293 1261 1260
f 1260 1292 1293
f 1325 1293 1292
f 1292 1324 1325
f 1357 1325 1324
f 1324 1356 1357
f 1389 1357 1356
f 1356 1388 1389
f 1421 1389 1388
f 1388 1420 1421
f 1453 1421 1420
f 1420 1452 1453
f 1485 1453 1452
f 1452 1484 1485
f 1517 1485 1484
f 1484 1516 1517
f 1549 1517 1516
f 1516 1548 1549
f 1581 1549 1548
f 1548 1580 1581
f 1613 1581 1580
f 1580 1612 1613
f 1645 1613 1612
f 1612 1644 1645
f 1677 1645 1644
f 1644 1676 1677
f 1709 1677 1676
f 1676 1708 1709
f 1741 1709 1708
f 1708 1740 1741
f 1773 1741 1740
f 1740 1772 1773
f 1805 1773 1772
f 1772 1804 1805
f 1837 1805 1804
f 1804 1836 1837
f 1869 1837 1836
f 1836 1868 1869
f 1901 1869 1868
f 1868 1900 1901
f 1933 1901 1900
f 1900 1932 1933
f 1965 1933 1932
f 1932 1964 1965
f 1997 1965 1964
f 1964 1996 1997
f 2029 1997 1996
f 1996 2028 2029
f 1070 1038 1037
f 1037 1069 1070
f 1102 1070 1069
f 1069 1101 1102
f 1134 1102 1101
f 1101 1133 1134
f 1166 1134 1133
f 1133 1165 1166
f 1198 1166 1165
f 1165 1197 1198
f 1230 1198 1197
f 1197 1229 1230
f 1262 1230 1229
f 1229 1261 1262
f 1294 1262 1261
f 1261 1293 1294
f 1326 1294 1293
f 1293 1325 1326
f 1358 1326 1325
f 1325 1357 1358
f 1390 1358 1357
f 1357 1389 1390
f 1422 1390 1389
f 1389 1421 1422
f 1454 1422 1421
f 1421 1453 1454
f 1486 1454 1453
f 1453 1485 1486
f 1518 1486 1485
f 1485 1517 1518
f 1550 1518 1517
f 1517 1549 1550
f 1582 1550 1549
f 1549 1581 1582
f 1614 1582 1581
f 1581 1613 1614
f 1646 1614 1613
f 1613 1645 1646
f 1678 1646 1645
f 1645 1677 1678
f 1710 1678 1677
f 1677 1709 1710
f 1742 1710 1709
f 1709 1741 1742
f 1774 1742 1741
f 1741 1773 1774
f 1806 1774 1773
f 1773 1805 1806
f 1838 1806 1805
f 1805 1837 1838
f 1870 1838 1837
f 1837 1869 1870
f 1902 1870 1869
f 1869 1901 1902
f 1934 1902 1901
f 1901 1933 1934
f 1966 1934 1933
f 1933 1965 1966
f 1998 1966 1965
f 1965 1997 1998
f 2030 1998 1997
f 1997 2029 2030
f 1071 1039 1038
f 1038 1070 1071
f 1103 1071 1070
f 1070 1102 1103
f 1135 1103 1102
f 1102 1134 1135
f 1167 1135 1134
f 1134 1166 1167
f 1199 1167 1166
f 1166 1198 1199
f 1231 1199 1198
f 1198 1230 1231
f 1263 1231 1230
f 1230 1262 1263
f 1295 1263 1262
f 1262 1294 1295
f 1327 1295 1294
f 1294 1326 1327
f 1359 1327 1326
f 1326 1358 1359
f 1391 1359 1358
f 1358 1390 1391
f 1423 1391 1390
f 1390 1422 1423
f 1455 1423 1422
f 1422 1454 1455
f 1487 1455 1454
f 1454 1486 1487
f 1519 1487 1486
f 1486 1518 1519
f 1551 1519 1518
f 1518 1550 1551
f 1583 1551 1550
f 1550 1582 1583
f 1615 1583 1582
f 1582 1614 1615
f 1647 1615 1614
f 1614 1646 1647
f 1679 1647 1646
f 1646 1678 1679
f 1711 1679 1678
f 1678 1710 1711
f 1743 1711 1710
f 1710 1742 1743
f 1775 1743 1742
f 1742 1774 1775
f 1807 1775 1774
f 1774 1806 1807
f 1839 1807 1806
f 1806 1838 1839
f 1871 1839 1838
f 1838 1870 1871
f 1903 1871 1870
f 1870 1902 1903
f 1935 1903 1902
f 1902 1934 1935
f 1967 1935 1934
f 1934 1966 1967
f 1999 1967 1966
f 1966 1998 1999
f 2031 1999 1998
f 1998 2030 2031
f 1072 1040 1039
f 1039 1071 1072
f 1104 1072 1071
f 1071 1103 1104
f 1136 1104 1103
f 1103 1135 1136
f 1168 1136 1135
f 1135 1167 1168
f 1200 1168 1167
f 1167 1199 1200
f 1232 1200 1199
f 1199 1231 1232
f 1264 1232 1231
f 1231 1263 1264
f 1296 1264 1263
f 1263 1295 1296
f 1328 1296 1295
f 1295 1327 1328
f 1360 1328 1327
f 1327 1359 1360
f 1392 1360 1359
f 1359 1391 1392
f 1424 1392 1391
f 1391 1423 1424
f 1456 1424 1423
f 1423 1455 1456
f 1488 1456 1455
f 1455 1487 1488
f 1520 1488 1487
f 1487 1519 1520
f 1552 1520 1519
f 1519 1551 1552
f 1584 1552 1551
f 1551 1583 1584
f 1616 1584 1583
f 1583 1615 1616
f 1648 1616 1615
f 1615 1647 1648
f 1680 1648 1647
f 1647 1679 1680
f 1712 1680 1679
f 1679 1711 1712
f 1744 1712 1711
f 1711 1743 1744
f 1776 1744 1743
f 1743 1775 1776
f 1808 1776 1775
f 1775 1807 1808
f 1840 1808 1807
f 1807 1839 1840
f 1872 1840 1839
f 1839 1871 1872
f 1904 1872 1871
f 1871 1903 1904
f 1936 1904 1903
f 1903 1935 1936
f 1968 1936 1935
f 1935 1967 1968
f 2000 1968 1967
f 1967 1999 2000
f 2032 2000 1999
f 1999 2031 2032
f 1073 1041 1040
f 1040 1072 1073
f 1105 1073 1072
f 1072 1104 1105
f 1137 1105 1104
f 1104 1136 1137
f 1169 1137 1136
f 1136 1168 1169
f 1201 1169 1168
f 1168 1200 1201
f 1233 1201 1200
f 1200 1232 1233
f 1265 1233 1232
f 1232 1264 1265
f 1297 1265 1264
f 1264 1296 1297
f 1329 1297 1296
f 1296 1328 1329
f 1361 1329 1328
f 1328 1360 1361
f 1393 1361 1360
f 1360 1392 1393
f 1425 1393 1392
f 1392 1424 1425
f 1457 1425 1424
f 1424 1456 1457
f 1489 1457 1456
f 1456 1488 1489
f 1521 1489 1488
f 1488 1520 1521
f 1553 1521 1520
f 1520 1552 1553
f 1585 1553 1552
f 1552 1584 1585
f 1617 1585 1584
f 1584 1616 1617
f 1649 1617 1616
f 1616 1648 1649
f 1681 1649 1648
f 1648 1680 1681
f 1713 1681 1680
f 1680 1712 1713
f 1745 1713 1712
f 1712 1744 1745
f 1777 1745 1744
f 1744 1776 1777
f 1809 1777 1776
f 1776 1808 1809
f 1841 1809 1808
f 1808 1840 1841
f 1873 1841 1840
f 1840 1872 1873
f 1905 1873 1872
f 1872 1904 1905
f 1937 1905 1904
f 1904 1936 1937
f 1969 1937 1936
f 1936 1968 1969
f 2001 1969 1968
f 1968 2000 2001
f 2033 2001 2000
f 2000 2032 2033
f 1074 1042 1041
f 1041 1073 1074
f 1106 1074 1073
f 1073 1105 1106
f 1138 1106 1105
f 1105 1137 1138
f 1170 1138 1137
f 1137 1169 1170
f 1202 1170 1169
f 1169 1201 1202
f 1234 1202 1201
f 1201 1233 1234
f 1266 1234 1233
f 1233 1265 1266
f 1298 1266 1265
f 1265 1297 1298
f 1330 1298 1297
f 1297 1329 1330
f 1362 1330 1329
f 1329 1361 1362
f 1394 1362 1361
f 1361 1393 1394
f 1426 1394 1393
f 1393 1425 1426
f 1458 1426 1425
f 1425 1457 1458
f 1490 1458 1457
f 1457 1489 1490
f 1522 1490 1489
f 1489 1521 1522
f 1554 1522 1521
f 1521 1553 1554
f 1586 1554 1553
f 1553 1585 1586
f 1618 1586 1585
f 1585 1617 1618
f 1650 1618 1617
f 1617 1649 1650
f 1682 1650 1649
f 1649 1681 1682
f 1714 1682 1681
f 1681 1713 1714
f 1746 1714 1713
f 1713 1745 1746
f 1778 1746 1745
f 1745 1777 1778
f 1810 1778 1777
f 1777 1809 1810
f 1842 1810 1809
f 1809 1841 1842
f 1874 1842 1841
f 1841 1873 1874
f 1906 1874 1873
f 1873 1905 1906
f 1938 1906 1905
f 1905 1937 1938
f 1970 1938 1937
f 1937 1969 1970
f 2002 1970 1969
f 1969 2001 2002
f 2034 2002 2001
f 2001 2033 2034
f 1075 1043 1042
f 1042 1074 1075
f 1107 1075 1074
f 1074 1106 1107
f 1139 1107 1106
f 1106 1138 1139
f 1171 1139 1138
f 1138 1170 1171
f 1203 1171 1170
f 1170 1202 1203
f 1235 1203 1202
f 1202 1234 1235
f 1267 1235 1234
f 1234 1266 1267
f 1299 1267 1266
f 1266 1298 1299
f 1331 1299 1298
f 1298 1330 1331
f 1363 1331 1330
f 1330 1362 1363
f 1395 1363 1362
f 1362 1394 1395
f 1427 1395 1394
f 1394 1426 1427
f 1459 1427 1426
f 1426 1458 1459
f 1491 1459 1458
f 1458 1490 1491
f 1523 1491 1490
f 1490 1522 1523
f 1555 1523 1522
f 1522 1554 1555
f 1587 1555 1554
f 1554 1586 1587
f 1619 1587 1586
f 1586 1618 1619
f 1651 1619 1618
f 1618 1650 1651
f 1683 1651 1650
f 1650 1682 1683
f 1715 1683 1682
f 1682 1714 1715
f 1747 1715 1714
f 1714 1746 1747
f 1779 1747 1746
f 1746 1778 1779
f 1811 1779 1778
f 1778 1810 1811
f 1843 1811 1810
f 1810 1842 1843
f 1875 1843 1842
f 1842 1874 1875
f 1907 1875 1874
f 1874 1906 1907
f 1939 1907 1906
f 1906 1938 1939
f 1971 1939 1938
f 1938 1970 1971
f 2003 1971 1970
f 1970 2002 2003
f 2035 2003 2002
f 2002 2034 2035
f 1076 1044 1043
f 1043 1075 1076
f 1108 1076 1075
f 1075 1107 1108
f 1140 1108 1107
f 1107 1139 1140
f 1172 1140 1139
f 1139 1171 1172
f 1204 1172 1171
f 1171 1203 1204
f 1236 1204 1203
f 1203 1235 1236
f 1268 1236 1235
f 1235 1267 1268
f 1300 1268 1267
f 1267 1299 1300
f 1332 1300 1299
f 1299 1331 1332
f 1364 1332 1331
f 1331 1363 1364
f 1396 1364 1363
f 1363 1395 1396
f 1428 1396 1395
f 1395 1427 1428
f 1460 1428 1427
f 1427 1459 1460
f 1492 1460 1459
f 1459 1491 1492
f 1524 1492 1491
f 1491 1523 1524
f 1556 1524 1523
f 1523 1555 1556
f 1588 1556 1555
f 1555 1587 1588
f 1620 1588 1587
f 1587 1619 1620
f 1652 1620 1619
f 1619 1651 1652
f 1684 1652 1651
f 1651 1683 1684
f 1716 1684 1683
f 1683 1715 1716
f 1748 1716 1715
f 1715 1747 1748
f 1780 1748 1747
f 1747 1779 1780
f 1812 1780 1779
f 1779 1811 1812
f 1844 1812 1811
f 1811 1843 1844
f 1876 1844 1843
f 1843 1875 1876
f 1908 1876 1875
f 1875 1907 1908
f 1940 1908 1907
f 1907 1939 1940
f 1972 1940 1939
f 1939 1971 1972
f 2004 1972 1971
f 1971 2003 2004
f 2036 2004 2003
f 2003 2035 2036
f 1077 1045 1044
f 1044 1076 1077
f 1109 1077 1076
f 1076 1108 1109
f 1141 1109 1108
f 1108 1140 1141
f 1173 1141 1140
f 1140 1172 1173
f 1205 1173 1172
f 1172 1204 1205
f 1237 1205 1204
f 1204 1236 1237
f 1269 1237 1236
f 1236 1268 1269
f 1301 1269 1268
f 1268 1300 1301
f 1333 1301 1300
f 1300 1332 1333
f 1365 1333 1332
f 1332 1364 1365
f 1397 1365 1364
f 1364 1396 1397
f 1429 1397 1396
f 1396 1428 1429
f 1461 1429 1428
f 1428 1460 1461
f 1493 1461 1460
f 1460 1492 1493
f 1525 1493 1492
f 1492 1524 1525
f 1557 1525 1524
f 1524 1556 1557
f 1589 1557 1556
f 1556 1588 1589
f 1621 1589 1588
f 1588 1620 1621
f 1653 1621 1620
f 1620 1652 1653
f 1685 1653 1652
f 1652 1684 1685
f 1717 1685 1684
f 1684 1716 1717
f 1749 1717 1716
f 1716 1748 1749
f 1781 1749 1748
f 1748 1780 1781
f 1813 1781 1780
f 1780 1812 1813
f 1845 1813 1812
f 1812 1844 1845
f 1877 1845 1844
f 1844 1876 1877
f 1909 1877 1876
f 1876 1908 1909
f 1941 1909 1908
f 1908 1940 1941
f 1973 1941 1940
f 1940 1972 1973
f 2005 1973 1972
f 1972 2004 2005
f 2037 2005 2004
f 2004 2036 2037
f 1078 1046 1045
f 1045 1077 1078
f 1110 1078 1077
f 1077 1109 1110
f 1142 1110 1109
f 1109 1141 1142
f 1174 1142 1141
f 1141 1173 1174
f 1206 1174 1173
f 1173 1205 1206
f 1238 1206 1205
f 1205 1237 1238
f 1270 1238 1237
f 1237 1269 1270
f 1302 1270 1269
f 1269 1301 1302
f 1334 1302 1301
f 1301 1333 1334
f 1366 1334 1333
f 1333 1365 1366
f 1398 1366 1365
f 1365 1397 1398
f 1430 1398 1397
f 1397 1429 1430
f 1462 1430 1429
f 1429 1461 1462
f 1494 1462 1461
f 1461 1493 1494
f 1526 1494 1493
f 1493 1525 1526
f 1558 1526 1525
f 1525 1557 1558
f 1590 1558 1557
f 1557 1589 1590
f 1622 1590 1589
f 1589 1621 1622
f 1654 1622 1621
f 1621 1653 1654
f 1686 1654 1653
f 1653 1685 1686
f 1718 1686 1685
f 1685 1717 1718
f 1750 1718 1717
f 1717 1749 1750
f 1782 1750 1749
f 1749 1781 1782
f 1814 1782 1781
f 1781 1813 1814
f 1846 1814 1813
f 1813 1845 1846
f 1878 1846 1845
f 1845 1877 1878
f 1910 1878 1877
f 1877 1909 1910
f 1942 1910 1909
f 1909 1941 1942
f 1974 1942 1941
f 1941 1973 1974
f 2006 1974 1973
f 1973 2005 2006
f 2038 2006 2005
f 2005 2037 2038
f 1079 1047 1046
f 1046 1078 1079
f 1111 1079 1078
f 1078 1110 1111
f 1143 1111 1110
f 1110 1142 1143
f 1175 1143 1142
f 1142 1174 1175
f 1207 1175 1174
f 1174 1206 1207
f 1239 1207 1206
f 1206 1238 1239
f 1271 1239 1238
f 1238 1270 1271
f 1303 1271 1270
f 1270 1302 1303
f 1335 1303 1302
f 1302 1334 1335
f 1367 1335 1334
f 1334 1366 1367
f 1399 1367 1366
f 1366 1398 1399
f 1431 1399 1398
f 1398 1430 1431
f 1463 1431 1430
f 1430 1462 1463
f 1495 1463 1462
f 1462 1494 1495
f 1527 1495 1494
f 1494 1526 1527
f 1559 1527 1526
f 1526 1558 1559
f 1591 1559 1558
f 1558 1590 1591
f 1623 1591 1590
f 1590 1622 1623
f 1655 1623 1622
f 1622 1654 1655
f 1687 1655 1654
f 1654 1686 1687
f 1719 1687 1686
f 1686 1718 1719
f 1751 1719 1718
f 1718 1750 1751
f 1783 1751 1750
f 1750 1782 1783
f 1815 1783 1782
f 1782 1814 1815
f 1847 1815 1814
f 1814 1846 1847
f 1879 1847 1846
f 1846 1878 1879
f 1911 1879 1878
f 1878 1910 1911
f 1943 1911 1910
f 1910 1942 1943
f 1975 1943 1942
f 1942 1974 1975
f 2007 1975 1974
f 1974 2006 2007
f 2039 2007 2006
f 2006 2038 2039
f 1080 1048 1047
f 1047 1079 1080
f 1112 1080 1079
f 1079 1111 1112
f 1144 1112 1111
f 1111 1143 1144
f 1176 1144 1143
f 1143 1175 1176
f 1208 1176 1175
f 1175 1207 1208
f 1240 1208 1207
f 1207 1239 1240
f 1272 1240 1239
f 1239 1271 1272
f 1304 1272 1271
f 1271 1303 1304
f 1336 1304 1303
f 1303 1335 1336
f 1368 1336 1335
f 1335 1367 1368
f 1400 1368 1367
f 1367 1399 1400
f 1432 1400 1399
f 1399 1431 1432
f 1464 1432 1431
f 1431 1463 1464
f 1496 1464 1463
f 1463 1495 1496
f 1528 1496 1495
f 1495 1527 1528
f 1560 1528 1527
f 1527 1559 1560
f 1592 1560 1559
f 1559 1591 1592
f 1624 1592 1591
f 1591 1623 1624
f 1656 1624 1623
f 1623 1655 1656
f 1688 1656 1655
f 1655 1687 1688
f 1720 1688 1687
f 1687 1719 1720
f 1752 1720 1719
f 1719 1751 1752
f 1784 1752 1751
f 1751 1783 1784
f 1816 1784 1783
f 1783 1815 1816
f 1848 1816 1815
f 1815 1847 1848
f 1880 1848 1847
f 1847 1879 1880
f 1912 1880 1879
f 1879 1911 1912
f 1944 1912 1911
f 1911 1943 1944
f 1976 1944 1943
f 1943 1975 1976
f 2008 1976 1975
f 1975 2007 2008
f 2040 2008 2007
f 2007 2039 2040
f 1081 1049 1048
f 1048 1080 1081
f 1113 1081 1080
f 1080 1112 1113
f 1145 1113 1112
f 1112 1144 1145
f 1177 1145 1144
f 1144 1176 1177
f 1209 1177 1176
f 1176 1208 1209
f 1241 1209 1208
f 1208 1240 1241
f 1273 1241 1240
f 1240 1272 1273
f 1305 1273 1272
f 1272 1304 1305
f 1337 1305 1304
f 1304 1336 1337
f 1369 1337 1336
f 1336 1368 1369
f 1401 1369 1368
f 1368 1400 1401
f 1433 1401 1400
f 1400 1432 1433
f 1465 1433 1432
f 1432 1464 1465
f 1497 1465 1464
f 1464 1496 1497
f 1529 1497 1496
f 1496 1528 1529
f 1561 1529 1528
f 1528 1560 1561
f 1593 1561 1560
f 1560 1592 1593
f 1625 1593 1592
f 1592 1624 1625
f 1657 1625 1624
f 1624 1656 1657
f 1689 1657 1656
f 1656 1688 1689
f 1721 1689 1688
f 1688 1720 1721
f 1753 1721 1720
f 1720 1752 1753
f 1785 1753 1752
f 1752 1784 1785
f 1817 1785 1784
f 1784 1816 1817
f 1849 1817 1816
f 1816 1848 1849
f 1881 1849 1848
f 1848 1880 1881
f 1913 1881 1880
f 1880 1912 1913
f 1945 1913 1912
f 1912 1944 1945
f 1977 1945 1944
f 1944 1976 1977
f 2009 1977 1976
f 1976 2008 2009
f 2041 2009 2008
f 2008 2040 2041
f 1082 1050 1049
f 1049 1081 1082
f 1114 1082 1081
f 1081 1113 1114
f 1146 1114 1113
f 1113 1145 1146
f 1178 1146 1145
f 1145 1177 1178
f 1210 1178 1177
f 1177 1209 1210
f 1242 1210 1209
f 1209 1241 1242
f 1274 1242 1241
f 1241 1273 1274
f 1306 1274 1273
f 1273 1305 1306
f 1338 1306 1305
f 1305 1337 1338
f 1370 1338 1337
f 1337 1369 1370
f 1402 1370 1369
f 1369 1401 1402
f 1434 1402 1401
f 1401 1433 1434
f 1466 1434 1433
f 1433 1465 1466
f 1498 1466 1465
f 1465 1497 1498
f 1530 1498 1497
f 1497 1529 1530
f 1562 1530 1529
f 1529 1561 1562
f 1594 1562 1561
f 1561 1593 1594
f 1626 1594 1593
f 1593 1625 1626
f 1658 1626 1625
f 1625 1657 1658
f 1690 1658 1657
f 1657 1689 1690
f 1722 1690 1689
f 1689 1721 1722
f 1754 1722 1721
f 1721 1753 1754
f 1786 1754 1753
f 1753 1785 1786
f 1818 1786 1785
f 1785 1817 1818
f 1850 1818 1817
f 1817 1849 1850
f 1882 1850 1849
f 1849 1881 1882
f 1914 1882 1881
f 1881 1913 1914
f 1946 1914 1913
f 1913 1945 1946
f 1978 1946 1945
f 1945 1977 1978
f 2010 1978 1977
f 1977 2009 2010
f 2042 2010 2009
f 2009 2041 2042
f 1083 1051 1050
f 1050 1082 1083
f 1115 1083 1082
f 1082 1114 1115
f 1147 1115 1114
f 1114 1146 1147
f 1179 1147 1146
f 1146 1178 1179
f 1211 1179 1178
f 1178 1210 1211
f 1243 1211 1210
f 1210 1242 1243
f 1275 1243 1242
f 1242 1274 1275
f 1307 1275 1274
f 1274 1306 1307
f 1339 1307 1306
f 1306 1338 1339
f 1371 1339 1338
f 1338 1370 1371
f 1403 1371 1370
f 1370 1402 1403
f 1435 1403 1402
f 1402 1434 1435
f 1467 1435 1434
f 1434 1466 1467
f 1499 1467 1466
f 1466 1498 1499
f 1531 1499 1498
f 1498 1530 1531
f 1563 1531 1530
f 1530 1562 1563
f 1595 1563 1562
f 1562 1594 1595
f 1627 1595 1594
f 1594 1626 1627
f 1659 1627 1626
f 1626 1658 1659
f 1691 1659 1658
f 1658 1690 1691
f 1723 1691 1690
f 1690 1722 1723
f 1755 1723 1722
f 1722 1754 1755
f 1787 1755 1754
f 1754 1786 1787
f 1819 1787 1786
f 1786 1818 1819
f 1851 1819 1818
f 1818 1850 1851
f 1883 1851 1850
f 1850 1882 1883
f 1915 1883 1882
f 1882 1914 1915
f 1947 1915 1914
f 1914 1946 1947
f 1979 1947 1946
f 1946 1978 1979
f 2011 1979 1978
f 1978 2010 2011
f 2043 2011 2010
f 2010 2042 2043
f 1084 1052 1051
f 1051 1083 1084
f 1116 1084 1083
f 1083 1115 1116
f 1148 1116 1115
f 1115 1147 1148
f 1180 1148 1147
f 1147 1179 1180
f 1212 1180 1179
f 1179 1211 1212
f 1244 1212 1211
f 1211 1243 1244
f 1276 1244 1243
f 1243 1275 1276
f 1308 1276 1275
f 1275 1307 1308
f 1340 1308 1307
f 1307 1339 1340
f 1372 1340 1339
f 1339 1371 1372
f 1404 1372 1371
f 1371 1403 1404
f 1436 1404 1403
f 1403 1435 1436
f 1468 1436 1435
f 1435 1467 1468
f 1500 1468 1467
f 1467 1499 1500
f 1532 1500 1499
f 1499 1531 1532
f 1564 1532 1531
f 1531 1563 1564
f 1596 1564 1563
f 1563 1595 1596
f 1628 1596 1595
f 1595 1627 1628
f 1660 1628 1627
f 1627 1659 1660
f 1692 1660 1659
f 1659 1691 1692
f 1724 1692 1691
f 1691 1723 1724
f 1756 1724 1723
f 1723 1755 1756
f 1788 1756 1755
f 1755 1787 1788
f 1820 1788 1787
f 1787 1819 1820
f 1852 1820 1819
f 1819 1851 1852
f 1884 1852 1851
f 1851 1883 1884
f 1916 1884 1883
f 1883 1915 1916
f 1948 1916 1915
f 1915 1947 1948
f 1980 1948 1947
f 1947 1979 1980
f 2012 1980 1979
f 1979 2011 2012
f 2044 2012 2011
f 2011 2043 2044
f 1085 1053 1052
f 1052 1084 1085
f 1117 1085 1084
f 1084 1116 1117
f 1149 1117 1116
f 1116 1148 1149
f 1181 1149 1148
f 1148 1180 1181
f 1213 1181 1180
f 1180 1212 1213
f 1245 1213 1212
f 1212 1244 1245
f 1277 1245 1244
f 1244 1276 1277
f 1309 1277 1276
f 1276 1308 1309
f 1341 1309 1308
f 1308 1340 1341
f 1373 1341 1340
f 1340 1372 1373
f 1405 1373 1372
f 1372 1404 1405
f 1437 1405 1404
f 1404 1436 1437
f 1469 1437 1436
f 1436 1468 1469
f 1501 1469 1468
f 1468 1500 1501
f 1533 1501 1500
f 1500 1532 1533
f 1565 1533 1532
f 1532 1564 1565
f 1597 1565 1564
f 1564 1596 1597
f 1629 1597 1596
f 1596 1628 1629
f 1661 1629 1628
f 1628 1660 1661
f 1693 1661 1660
f 1660 1692 1693
f 1725 1693 1692
f 1692 1724 1725
f 1757 1725 1724
f 1724 1756 1757
f 1789 1757 1756
f 1756 1788 1789
f 1821 1789 1788
f 1788 1820 1821
f 1853 1821 1820
f 1820 1852 1853
f 1885 1853 1852
f 1852 1884 1885
f 1917 1885 1884
f 1884 1916 1917
f 1949 1917 1916
f 1916 1948 1949
f 1981 1949 1948
f 1948 1980 1981
f 2013 1981 1980
f 1980 2012 2013
f 2045 2013 2012
f 2012 2044 2045
f 1086 1054 1053
f 1053 1085 1086
f 1118 1086 1085
f 1085 1117 1118
f 1150 1118 1117
f 1117 1149 1150
f 1182 1150 1149
f 1149 1181 1182
f 1214 1182 1181
f 1181 1213 1214
f 1246 1214 1213
f 1213 1245 1246
f 1278 1246 1245
f 1245 1277 1278
f 1310 1278 1277
f 1277 1309 1310
f 1342 1310 1309
f 1309 1341 1342
f 1374 1342 1341
f 1341 1373 1374
f 1406 1374 1373
f 1373 1405 1406
f 1438 1406 1405
f 1405 1437 1438
f 1470 1438 1437
f 1437 1469 1470
f 1502 1470 1469
f 1469 1501 1502
f 1534 1502 1501
f 1501 1533 1534
f 1566 1534 1533
f 1533 1565 1566
f 1598 1566 1565
f 1565 1597 1598
f 1630 1598 1597
f 1597 1629 1630
f 1662 1630 1629
f 1629 1661 1662
f 1694 1662 1661
f 1661 1693 1694
f 1726 1694 1693
f 1693 1725 1726
f 1758 1726 1725
f 1725 1757 1758
f 1790 1758 1757
f 1757 1789 1790
f 1822 1790 1789
f 1789 1821 1822
f 1854 1822 1821
f 1821 1853 1854
f 1886 1854 1853
f 1853 1885 1886
f 1918 1886 1885
f 1885 1917 1918
f 1950 1918 1917
f 1917 1949 1950
f 1982 1950 1949
f 1949 1981 1982
f 2014 1982 1981
f 1981 2013 2014
f 2046 2014 2013
f 2013 2045 2046
f 1087 1055 1054
f 1054 1086 1087
f 1119 1087 1086
f 1086 1118 1119
f 1151 1119 1118
f 1118 1150 1151
f 1183 1151 1150
f 1150 1182 1183
f 1215 1183 1182
f 1182 1214 1215
f 1247 1215 1214
f 1214 1246 1247
f 1279 1247 1246
f 1246 1278 1279
f 1311 1279 1278
f 1278 1310 1311
f 1343 1311 1310
f 1310 1342 1343
f 1375 1343 1342
f 1342 1374 1375
f 1407 1375 1374
f 1374 1406 1407
f 1439 1407 1406
f 1406 1438 1439
f 1471 1439 1438
f 1438 1470 1471
f 1503 1471 1470
f 1470 1502 1503
f 1535 1503 1502
f 1502 1534 1535
f 1567 1535 1534
f 1534 1566 1567
f 1599 1567 1566
f 1566 1598 1599
f 1631 1599 1598
f 1598 1630 1631
f 1663 1631 1630
f 1630 1662 1663
f 1695 1663 1662
f 1662 1694 1695
f 1727 1695 1694
f 1694 1726 1727
f 1759 1727 1726
f 1726 1758 1759
f 1791 1759 1758
f 1758 1790 1791
f 1823 1791 1790
f 1790 1822 1823
f 1855 1823 1822
f 1822 1854 1855
f 1887 1855 1854
f 1854 1886 1887
f 1919 1887 1886
f 1886 1918 1919
f 1951 1919 1918
f 1918 1950 1951
f 1983 1951 1950
f 1950 1982 1983
f 2015 1983 1982
f 1982 2014 2015
f 2047 2015 2014
f 2014 2046 2047
f 1088 1056 1055
f 1055 1087 1088
f 1120 1088 1087
f 1087 1119 1120
f 1152 1120 1119
f 1119 1151 1152
f 1184 1152 1151
f 1151 1183 1184
f 1216 1184 1183
f 1183 1215 1216
f 1248 1216 1215
f 1215 1247 1248
f 1280 1248 1247
f 1247 1279 1280
f 1312 1280 1279
f 1279 1311 1312
f 1344 1312 1311
f 1311 1343 1344
f 1376 1344 1343
f 1343 1375 1376
f 1408 1376 1375
f 1375 1407 1408
f 1440 1408 1407
f 1407 1439 1440
f 1472 1440 1439
f 1439 1471 1472
f 1504 1472 1471
f 1471 1503 1504
f 1536 1504 1503
f 1503 1535 1536
f 1568 1536 1535
f 1535 1567 1568
f 1600 1568 1567
f 1567 1599 1600
f 1632 1600 1599
f 1599 1631 1632
f 1664 1632 1631
f 1631 1663 1664
f 1696 1664 1663
f 1663 1695 1696
f 1728 1696 1695
f 1695 1727 1728
f 1760 1728 1727
f 1727 1759 1760
f 1792 1760 1759
f 1759 1791 1792
f 1824 1792 1791
f 1791 1823 1824
f 1856 1824 1823
f 1823 1855 1856
f 1888 1856 1855
f 1855 1887 1888
f 1920 1888 1887
f 1887 1919 1920
f 1952 1920 1919
f 1919 1951 1952
f 1984 1952 1951
f 1951 1983 1984
f 2016 1984 1983
f 1983 2015 2016
f 2048 2016 2015
f 2015 2047 2048
f 1089 1057 1056
f 1056 1088 1089
f 1121 1089 1088
f 1088 1120 1121
f 1153 1121 1120
f 1120 1152 1153
f 1185 1153 1152
f 1152 1184 1185
f 1217 1185 1184
f 1184 1216 1217
f 1249 1217 1216
f 1216 1248 1249
f 1281 1249 1248
f 1248 1280 1281
f 1313 1281 1280
f 1280 1312 1313
f 1345 1313 1312
f 1312 1344 1345
f 1377 1345 1344
f 1344 1376 1377
f 1409 1377 1376
f 1376 1408 1409
f 1441 1409 1408
f 1408 1440 1441
f 1473 1441 1440
f 1440 1472 1473
f 1505 1473 1472
f 1472 1504 1505
f 1537 1505 1504
f 1504 1536 1537
f 1569 1537 1536
f 1536 1568 1569
f 1601 1569 1568
f 1568 1600 1601
f 1633 1601 1600
f 1600 1632 1633
f 1665 1633 1632
f 1632 1664 1665
f 1697 1665 1664
f 1664 1696 1697
f 1729 1697 1696
f 1696 1728 1729
f 1761 1729 1728
f 1728 1760 1761
f 1793 1761 1760
f 1760 1792 1793
f 1825 1793 1792
f 1792 1824 1825
f 1857 1825 1824
f 1824 1856 1857
f 1889 1857 1856
f 1856 1888 1889
f 1921 1889 1888
f 1888 1920 1921
f 1953 1921 1920
f 1920 1952 1953
f 1985 1953 1952
f 1952 1984 1985
f 2017 1985 1984
f 1984 2016 2017
f 2049 2017 2016
f 2016 2048 2049
