v -3589.7 91.6429 873.576
v -3589.7 91.6429 878.328
v -3589.7 92.1887 873.576
v -3589.7 92.2498 873.685
v -3589.7 92.458 874.214
v -3589.7 93.0031 874.754
v -3589.7 93.3769 875.252
v -3589.7 93.436 875.527
v -3589.7 93.1469 878.355
v -3589.7 93.5339 877.518
v -3589.7 94.0891 876.853
v -3589.7 94.0516 876.016
v -3589.7 95.6429 881.576
v -3589.83 95.702 881.514
v -3589.7 95.6429 880.623
v -3589.97 95.6429 881.452
v -3589.82 95.6915 880.616
v -3589.93 95.6429 880.609
v -3590.2 94.6422 886.683
v -3590.2 95.0964 887.323
v -3590.2 94.1064 888.344
v -3590.2 95.0156 887.97
v -3589.89 95.6429 881.866
v -3589.7 95.6429 882.278
v -3589.83 95.702 882.25
v -3589.95 95.6429 882.222
v -3590.2 92.1887 889.576
v -3590.01 92.1887 889.576
v -3590.2 91.6429 889.576
v -3590.01 91.6429 889.576
v -3589.82 92.1887 889.576
v -3589.7 92.0143 889.576
v -3589.7 91.6429 889.576
v -3589.86 92.5258 874.182
v -3589.92 92.9426 874.475
v -3590.2 92.542 874.23
v -3590.13 93.2878 874.75
v -3589.88 93.2145 874.699
v -3589.7 93.436 875.527
v -3589.84 93.444 875.532
v -3589.7 93.3769 875.252
v -3589.98 93.4521 875.536
v -3589.96 94.0719 876.05
v -3589.98 93.4521 875.536
v -3589.83 94.1036 876.033
v -3589.84 93.444 875.532
v -3589.7 94.0516 876.016
v -3589.7 93.436 875.527
v -3589.7 94.0891 876.853
v -3589.84 94.1416 876.841
v -3589.7 94.0516 876.016
v -3589.83 94.1036 876.033
v -3589.98 94.1106 876.755
v -3589.96 94.0719 876.05
v -3589.98 94.1106 876.755
v -3589.84 94.1416 876.841
v -3590.06 93.5735 877.469
v -3589.7 93.5339 877.518
v -3589.88 93.6143 877.527
v -3589.7 94.0891 876.853
v -3589.92 94.4961 882.88
v -3589.7 94.4656 882.84
v -3589.95 93.7391 883.403
v -3590.14 94.5265 882.92
v -3590.16 94.2391 883.098
v -3589.7 91.9876 884.041
v -3589.95 91.9762 884.105
v -3589.97 92.9242 883.617
v -3590.2 92.3835 883.932
v -3590.2 91.9648 884.17
v -3589.7 91.8637 884.378
v -3590.04 91.8365 884.729
v -3590.2 91.8332 884.744
v -3589.87 91.8398 884.714
v -3590.2 91.9505 885.398
v -3590.05 91.9462 885.383
v -3589.89 91.9418 885.368
v -3589.9 91.9012 885.081
v -3589.93 94.6001 886.606
v -3589.98 95.0872 887.246
v -3590.07 94.6211 886.644
v -3590.2 95.0964 887.323
v -3590.2 94.6422 886.683
v -3590.09 95.0918 887.284
v -3589.98 95.0872 887.246
v -3590 95.0076 887.92
v -3590.09 95.0918 887.284
v -3590.2 95.0156 887.97
v -3590.2 95.0964 887.323
v -3590.1 95.0116 887.945
v -3590.2 94.1064 888.344
v -3590.2 95.0156 887.97
v -3590.06 94.105 888.303
v -3590.1 95.0116 887.945
v -3589.91 94.1036 888.262
v -3590 95.0076 887.92
v -3589.7 93.5283 888.79
v -3590.03 93.501 888.815
v -3590.11 93.6873 888.644
v -3590.2 93.8963 888.508
v -3589.84 92.7697 889.103
v -3590.01 92.7914 889.1
v -3590.06 93.2058 888.989
v -3590.2 92.8131 889.098
v -3590.2 92.4468 889.244
v -3590.01 92.4621 889.234
v -3589.92 92.4775 889.223
v -3589.7 93.1083 889.013
v -3589.82 92.1887 889.576
v -3590.01 92.1887 889.576
v -3590.2 92.1887 889.576
v -3589.95 95.6429 882.222
v -3590.05 95.2089 882.708
v -3590.05 95.2803 882.174
v -3589.94 94.4042 879.652
v -3589.88 95.0513 879.873
v -3590.2 93.9782 879.794
v -3590.2 94.2916 881.576
v -3590.2 94.3246 880.619
v -3589.97 95.6429 881.452
v -3589.93 95.6429 880.609
v -3590.2 93.7546 879.124
v -3589.89 95.6429 881.866
v -3590.05 95.2803 882.174
v -3589.95 95.6429 882.222
v -3590.2 91.8332 884.744
v -3590.2 91.6429 881.576
v -3590.2 91.9648 884.17
v -3590.2 92.3835 883.932
v -3590.2 92.6938 883.485
v -3590.2 92.9552 883.48
v -3590.2 94.2916 881.576
v -3590.2 93.7633 883.258
v -3590.16 94.2391 883.098
v -3590.14 94.5265 882.92
v -3590.05 95.2803 882.174
v -3590.05 95.2089 882.708
v -3590.13 93.2878 874.75
v -3589.98 93.4521 875.536
v -3590.2 92.8539 875.388
v -3590.2 92.4681 874.548
v -3590.2 92.542 874.23
v -3590.2 92.6278 877.173
v -3589.98 94.1106 876.755
v -3590.06 93.5735 877.469
v -3589.96 94.0719 876.05
v -3590.2 92.6101 876.527
v -3590.2 93.1194 877.669
v -3590.2 93.4797 877.709
v -3589.7 93.5283 888.79
v -3589.7 92.8128 888.467
v -3589.7 93.1083 889.013
v -3589.7 92.5486 888.996
v -3589.7 92.2556 889.172
v -3589.7 92.5871 887.171
v -3589.7 93.5283 888.79
v -3589.91 94.1036 888.262
v -3589.7 92.8128 888.467
v -3589.7 92.5871 887.171
v -3589.7 93.2673 886.569
v -3589.93 94.6001 886.606
v -3589.98 95.0872 887.246
v -3590 95.0076 887.92
v -3589.7 95.6429 880.623
v -3589.7 95.0231 880.799
v -3589.7 95.6429 881.576
v -3589.7 91.6429 884.688
v -3589.7 91.8637 884.378
v -3589.7 91.9876 884.041
v -3589.7 92.7369 879.464
v -3589.7 92.8237 883.371
v -3589.7 93.082 878.822
v -3589.7 93.1469 878.355
v -3589.7 93.082 878.822
v -3589.88 93.4135 878.904
v -3589.88 95.0513 879.873
v -3589.94 94.4042 879.652
v -3589.7 94.5373 880.558
v -3589.7 93.4577 880.422
v -3589.7 95.6429 880.623
v -3589.82 95.6915 880.616
v -3589.88 95.0513 879.873
v -3589.93 95.6429 880.609
v -3589.7 95.6429 880.623
v -3589.88 95.0513 879.873
v -3589.7 95.0231 880.799
v -3589.7 94.5373 880.558
v -3589.7 91.6429 889.576
v -3589.7 92.0143 889.576
v -3589.79 93.7719 886.343
v -3589.7 93.1957 886.289
v -3589.7 93.2673 886.569
v -3589.7 93.1957 886.289
v -3589.7 92.7094 885.8
v -3589.96 92.6893 885.689
v -3590.05 91.9462 885.383
v -3589.89 91.9418 885.368
v -3589.7 92.154 885.442
v -3589.79 93.7719 886.343
v -3589.97 93.1931 886.141
v -3589.7 93.1957 886.289
v -3589.96 92.6893 885.689
v -3589.7 92.7094 885.8
v -3589.7 92.154 885.442
v -3589.7 93.4577 880.422
v -3589.7 93.7468 883.176
v -3589.7 93.7468 883.176
v -3589.95 93.7391 883.403
v -3589.7 94.4656 882.84
v -3589.7 91.9876 884.041
v -3589.97 92.9242 883.617
v -3589.7 92.8237 883.371
v -3589.84 92.7697 889.103
v -3589.7 93.1083 889.013
v -3589.7 92.5486 888.996
v -3589.92 92.4775 889.223
v -3589.7 92.2556 889.172
v -3589.82 92.1887 889.576
v -3589.7 92.0143 889.576
v -3589.7 93.3769 875.252
v -3589.88 93.2145 874.699
v -3589.7 93.0031 874.754
v -3589.92 92.9426 874.475
v -3589.7 92.1887 873.576
v -3589.7 92.2498 873.685
v -3589.9 92.3886 873.93
v -3589.7 92.458 874.214
v -3589.86 92.5258 874.182
v -3590.16 94.2391 883.098
v -3589.95 93.7391 883.403
v -3590.2 93.7633 883.258
v -3589.97 92.9242 883.617
v -3590.2 92.9552 883.48
v -3590.2 92.3835 883.932
v -3590.2 92.6938 883.485
v -3589.7 94.4656 882.84
v -3589.7 94.5373 880.558
v -3589.7 94.7659 882.804
v -3589.7 95.1333 882.58
v -3589.7 95.4671 882.448
v -3589.7 95.6429 882.278
v -3589.7 95.6429 882.278
v -3589.7 95.4671 882.448
v -3589.83 95.702 882.25
v -3589.79 95.0918 882.768
v -3589.92 95.1504 882.785
v -3589.78 95.2987 882.593
v -3589.95 95.6429 882.222
v -3590.05 95.2089 882.708
v -3589.7 94.7659 882.804
v -3589.78 95.2987 882.593
v -3589.7 95.4671 882.448
v -3589.7 95.1333 882.58
v -3589.79 95.0918 882.768
v -3589.7 94.7659 882.804
v -3589.7 91.6429 885.031
v -3589.7 91.9369 885.351
v -3589.7 92.154 885.442
v -3589.89 91.9418 885.368
v -3589.7 91.9369 885.351
v -3589.7 92.154 885.442
v -3589.7 91.6429 884.688
v -3589.87 91.8398 884.714
v -3589.7 91.8637 884.378
v -3589.7 91.6429 885.031
v -3589.9 91.9012 885.081
v -3589.8 91.6429 884.863
v -3590.2 91.6429 889.576
v -3590.2 91.9505 885.398
v -3590.2 92.4933 885.628
v -3590.2 92.6879 885.875
v -3590.2 92.8404 886.024
v -3590.2 92.1887 889.576
v -3590.2 92.4468 889.244
v -3590.2 92.8131 889.098
v -3590.2 93.1337 888.825
v -3590.2 93.4578 888.626
v -3590.2 93.3144 886.421
v -3590.2 93.8963 888.508
v -3590.2 94.059 886.513
v -3590.2 94.4849 886.607
v -3590.08 93.7785 886.357
v -3589.94 93.7752 886.35
v -3590.12 94.1363 886.465
v -3589.79 93.7719 886.343
v -3590.2 94.4849 886.607
v -3589.97 93.1931 886.141
v -3590.2 92.4933 885.628
v -3590.2 91.9505 885.398
v -3590.12 94.1363 886.465
v -3590.2 94.4849 886.607
v -3590.2 94.059 886.513
v -3590.2 92.6879 885.875
v -3590.2 92.8404 886.024
v -3589.97 93.1931 886.141
v -3590.2 93.3144 886.421
v -3590.08 93.7785 886.357
v -3590.12 94.1363 886.465
v -3590.2 94.059 886.513
v -3590.11 93.6873 888.644
v -3590.2 93.4578 888.626
v -3590.2 93.8963 888.508
v -3590.03 93.501 888.815
v -3590.2 93.1337 888.825
v -3590.06 93.2058 888.989
v -3590.2 92.8131 889.098
v -3589.88 93.4135 878.904
v -3589.95 93.2041 878.478
v -3589.7 93.1469 878.355
v -3589.98 93.1913 878.299
v -3590.06 93.5735 877.469
v -3589.88 93.6143 877.527
v -3590.2 93.4797 877.709
v -3589.7 93.5339 877.518
v -3590.11 93.2978 878.128
v -3590.2 93.3837 877.936
v -3590.2 93.2124 878.129
v -3590.2 93.1194 877.669
v -3590.2 93.3837 877.936
v -3590.2 93.4797 877.709
v -3590.04 93.3904 878.853
v -3590.15 93.1748 878.49
v -3590.2 93.2375 878.717
v -3590.2 93.3672 878.803
v -3590.2 93.1201 878.292
v -3590.2 93.2124 878.129
v -3590.2 91.6429 873.576
v -3590.2 92.0298 878.661
v -3590.2 92.6101 876.527
v -3590.2 92.6278 877.173
v -3590.2 91.7745 873.576
v -3590.2 92.4681 874.548
v -3590.2 92.8539 875.388
v -3590.2 92.1166 873.687
v -3590.2 92.3203 874.003
v -3590.2 92.542 874.23
v -3590.2 92.5015 874.155
v -3590.2 92.542 874.23
v -3589.9 92.3886 873.93
v -3589.86 92.5258 874.182
v -3589.7 92.1887 873.576
v -3589.9 92.1572 873.576
v -3590.1 92.2602 873.703
v -3590.09 92.1257 873.576
v -3589.7 92.1887 873.576
v -3589.9 92.1572 873.576
v -3589.7 91.6429 873.576
v -3589.95 91.6429 873.576
v -3590.09 92.1257 873.576
v -3590.2 91.6429 873.576
v -3590.2 91.7745 873.576
v -3590.2 92.3203 874.003
v -3590.09 92.1257 873.576
v -3590.2 92.1166 873.687
v -3590.2 91.7745 873.576
v -3590.2 92.3203 874.003
v -3590.2 92.1166 873.687
v -3590.1 92.2602 873.703
v -3590.09 92.1257 873.576
v -3590.2 93.004 878.63
v -3590.15 92.9694 878.565
v -3590.2 94.3246 880.619
v -3590.2 93.9782 879.794
v -3590.2 93.7546 879.124
v -3590.2 93.4519 878.883
v -3590.2 92.3811 878.573
v -3590.2 92.7004 878.565
v -3590.2 92.9655 878.47
v -3590.2 93.1201 878.292
v -3590.2 92.399 878.66
v -3590.2 92.7193 878.661
v -3590.2 93.3672 878.803
v -3590.2 93.2375 878.717
v -3590.2 93.004 878.63
v -3590.15 92.9694 878.565
v -3590.2 92.9655 878.47
v -3590.15 92.7032 878.61
v -3590.2 92.7004 878.565
v -3590.2 92.7193 878.661
v -3590.15 92.7032 878.61
v -3590.15 92.3681 878.607
v -3590.2 92.3811 878.573
v -3590.15 92.3681 878.607
v -3590.2 92.399 878.66
v -3590.2 92.0298 878.661
v -3590.2 92.0298 878.661
v -3590.2 93.3672 878.803
v -3590.04 93.3904 878.853
v -3590.2 93.4519 878.883
v -3590.2 93.7546 879.124
v -3589.94 94.4042 879.652
v -3589.88 93.4135 878.904
v -3590.2 92.5015 874.155
v -3589.43 91.6429 883.692
v -3589.44 91.8722 884.026
v -3589.71 91.6429 883.928
v -3589.44 91.6429 884.5
v -3589.44 91.8722 884.414
v -3589.15 91.6429 884.341
v -3589.26 91.8427 884.365
v -3589.44 91.8722 884.183
v -3589.69 91.6429 884.414
v -3589.2 91.6429 884.026
v -3589.69 92.0457 884.8
v -3589.91 92.1307 884.873
v -3589.88 92.0307 884.782
v -3590.04 92.1606 884.93
v -3590.12 91.8405 884.893
v -3589.47 91.7489 884.518
v -3589.58 91.916 884.606
v -3589.4 91.938 884.518
v -3589.29 91.6801 884.51
v -3589.21 91.8693 884.51
v -3589.18 91.7629 884.864
v -3589.19 91.6429 885.075
v -3589.25 91.7459 885.075
v -3589.32 91.9084 885.102
v -3589.2 91.8644 884.989
v -3589.19 91.8589 884.668
v -3589.22 91.8718 884.823
v -3589.76 91.9329 885.156
v -3589.5 91.886 885.122
v -3590.04 91.8974 885.19
v -3589.96 92.1112 885.187
v -3589.83 92.0556 885.17
v -3589.99 92.1583 885.127
v -3589.85 92.1066 885.109
v -3589.53 91.9864 885.07
v -3589.7 92.05 885.084
v -3589.53 91.9869 884.675
v -3589.35 91.831 878.337
v -3589.54 91.845 878.423
v -3589.42 91.7701 878.258
v -3589.56 91.7502 878.377
v -3589.11 91.7996 877.996
v -3589.24 91.7345 878.106
v -3589.12 91.6544 878.006
v -3589.66 91.6582 878.458
v -3589.65 91.8196 878.449
v -3588.97 91.652 877.998
v -3588.96 91.7919 877.987
v -3588.91 91.7333 878.423
v -3588.89 91.6429 878.686
v -3588.96 91.7155 878.681
v -3588.93 91.802 878.179
v -3588.96 91.8144 878.367
v -3588.95 91.8254 878.57
v -3589.02 91.8368 878.703
v -3589.6 91.6531 878.82
v -3589.59 91.8059 878.812
v -3589.46 91.8249 878.787
v -3589.38 91.7363 878.776
v -3589.18 91.7672 878.734
v -3589.07 91.8395 878.711
v -3589.6 91.866 878.732
v -3589.49 91.8593 878.711
v -3589.22 91.844 878.666
v -3589.36 91.8517 878.682
v -3589.64 91.8561 878.536
v -3589.22 91.8159 878.186
v -3589.12 91.7169 879.402
v -3589.26 91.8479 879.595
v -3589.33 91.7169 879.426
v -3589.39 91.7169 879.782
v -3589.36 91.8479 879.7
v -3589.2 91.7169 879.801
v -3589.26 91.831 879.734
v -3589.48 91.7169 879.661
v -3589.12 91.7169 879.637
v -3589.21 91.6429 879.761
v -3589.36 91.6429 879.746
v -3589.43 91.6429 879.648
v -3589.31 91.6429 879.459
v -3589.15 91.6429 879.44
v -3589.15 91.6429 879.629
v -3589.49 91.7833 877.871
v -3589.39 91.7833 877.897
v -3589.48 91.7833 878.028
v -3589.4 91.7833 877.976
v -3589.62 91.6522 877.977
v -3589.63 91.6522 877.679
v -3589.5 91.6522 877.66
v -3589.23 91.6522 877.752
v -3589.27 91.6522 878.011
v -3589.4 91.6522 878.116
v -3589.53 91.6522 878.143
v -3589.19 91.6768 879.288
v -3589.33 91.7448 879.255
v -3589.2 91.6804 879.179
v -3589.38 91.6878 879.336
v -3589.41 91.6856 879.228
v -3589.36 91.6827 879.151
v -3589.27 91.686 879.343
v -3589.36 91.6429 879.323
v -3589.38 91.6411 879.236
v -3589.35 91.6388 879.174
v -3589.22 91.637 879.196
v -3589.21 91.633 879.284
v -3589.27 91.6414 879.328
v -3590.58 91.7169 878.522
v -3590.51 91.8479 878.748
v -3590.68 91.7169 878.699
v -3590.44 91.7169 878.963
v -3590.48 91.8479 878.891
v -3590.31 91.7169 878.825
v -3590.4 91.831 878.834
v -3590.59 91.7169 878.959
v -3590.39 91.7169 878.662
v -3590.34 91.6429 878.809
v -3590.45 91.6429 878.92
v -3590.57 91.6429 878.917
v -3590.65 91.6429 878.707
v -3590.56 91.6429 878.565
v -3590.41 91.6429 878.677
v -3590.41 91.6879 878.465
v -3590.56 91.7477 878.431
v -3590.43 91.6925 878.357
v -3590.61 91.6863 878.511
v -3590.64 91.684 878.402
v -3590.59 91.6853 878.326
v -3590.5 91.691 878.519
v -3590.59 91.6429 878.497
v -3590.61 91.641 878.409
v -3590.57 91.6421 878.348
v -3590.44 91.6479 878.372
v -3590.44 91.6426 878.46
v -3590.5 91.6467 878.503
v -3583.29 92.2601 875.132
v -3583.17 91.6879 875.069
v -3582.89 91.7829 875.284
v -3583.63 92.2033 875.107
v -3583.29 92.2601 875.132
v -3583.48 92.5118 875.202
v -3583.17 91.6879 875.069
v -3583.29 92.2601 875.132
v -3583.51 91.8621 875.072
v -3582.76 92.0913 875.409
v -3582.88 92.4325 875.436
v -3582.89 91.7829 875.284
v -3583.63 92.2033 875.107
v -3583.51 91.8621 875.072
v -3583.29 92.2601 875.132
v -3583.48 92.5118 875.202
v -3583.29 92.2601 875.132
v -3583.13 92.6067 875.261
v -3582.88 92.4325 875.436
v -3583.13 92.6067 875.261
v -3583.29 92.2601 875.132
v -3582.89 91.7829 875.284
v -3582.88 92.4325 875.436
v -3583.29 92.2601 875.132
v -3584.17 92.6065 877.513
v -3583.95 92.4324 877.782
v -3583.88 92.0911 877.844
v -3584.28 92.1624 877.365
v -3584.54 92.2031 877.088
v -3584.43 92.3642 877.054
v -3584.17 92.6065 877.513
v -3584.28 92.1624 877.365
v -3584.27 92.5646 877.361
v -3584.28 92.1624 877.365
v -3584.28 92.4041 876.79
v -3584.2 92.5116 876.761
v -3584.2 92.5116 876.761
v -3584.1 92.5415 876.801
v -3584.28 92.1624 877.365
v -3584.28 92.1624 877.365
v -3584.1 92.5415 876.801
v -3584.27 92.5646 877.361
v -3584.28 92.1624 877.365
v -3584.43 92.3642 877.054
v -3584.28 92.4041 876.79
v -3584.28 92.1624 877.365
v -3584.62 92.0784 877.351
v -3584.54 92.2031 877.088
v -3584.62 92.0784 877.351
v -3584.04 91.7826 877.78
v -3584.59 91.8619 877.414
v -3584.28 92.1624 877.365
v -3583.88 92.0911 877.844
v -3584.04 91.7826 877.78
v -3584.62 92.0784 877.351
v -3584.28 92.1624 877.365
v -3584.04 91.7826 877.78
v -3584.28 92.1624 877.365
v -3584.17 92.6065 877.513
v -3583.88 92.0911 877.844
v -3584.04 91.7826 877.78
v -3584.32 91.6877 877.567
v -3584.59 91.8619 877.414
v -3584.17 92.6065 877.513
v -3583.13 92.6067 875.261
v -3582.88 92.4325 875.436
v -3583.95 92.4324 877.782
v -3584.27 92.5646 877.361
v -3584.1 92.5415 876.801
v -3584.2 92.5116 876.761
v -3583.48 92.5118 875.202
v -3584.32 91.6877 877.567
v -3583.17 91.6879 875.069
v -3583.51 91.8621 875.072
v -3584.59 91.8619 877.414
v -3584.04 91.7826 877.78
v -3582.89 91.7829 875.284
v -3583.88 92.0911 877.844
v -3582.76 92.0913 875.409
v -3582.89 91.7829 875.284
v -3584.04 91.7826 877.78
v -3583.63 92.2033 875.107
v -3584.28 92.4041 876.79
v -3584.54 92.2031 877.088
v -3584.43 92.3642 877.054
v -3584.62 92.0784 877.351
v -3586.33 90.2556 881.472
v -3586.47 92.8359 881.222
v -3586.23 92.8298 880.867
v -3585.97 90.2556 880.985
v -3584.46 93.1022 881.287
v -3584.66 93.1022 880.924
v -3584.46 92.8647 880.924
v -3585.83 90.2556 880.924
v -3586.12 93.1022 880.924
v -3586.46 90.2556 881.539
v -3586.46 93.1022 881.361
v -3586.46 92.9314 881.35
v -3584.84 93.1022 882.625
v -3584.91 90.2556 882.719
v -3585.19 90.2556 882.925
v -3585.08 93.1022 882.925
v -3584.67 90.2556 882.925
v -3584.91 90.2556 882.719
v -3584.84 93.1022 882.625
v -3584.72 93.1022 882.925
v -3585.58 93.3775 882.621
v -3585.46 93.6176 882.528
v -3585.48 93.3775 882.562
v -3585.64 93.0727 882.658
v -3585.58 93.3775 882.621
v -3585.48 93.3775 882.562
v -3585.48 93.0727 882.616
v -3585.48 93.5321 881.89
v -3585.3 93.6176 881.386
v -3585.21 93.3775 881.277
v -3585.44 93.3775 881.831
v -3584.89 93.0727 881.353
v -3585.24 93.0727 881.861
v -3585.44 93.3775 881.831
v -3585.21 93.3775 881.277
v -3585.46 93.6176 882.528
v -3585.88 93.6176 882.351
v -3585.48 93.5321 881.89
v -3586.06 93.6176 881.925
v -3585.88 93.6176 881.498
v -3585.46 93.6176 881.321
v -3585.3 93.6176 881.386
v -3585.46 93.6176 882.528
v -3585.48 93.5321 881.89
v -3585.44 93.3775 881.831
v -3585.48 93.3775 882.562
v -3585.24 93.0727 881.861
v -3585.48 93.0727 882.616
v -3585.48 93.3775 882.562
v -3585.44 93.3775 881.831
v -3586.47 92.8359 881.222
v -3586.51 92.8175 880.903
v -3586.23 92.8298 880.867
v -3586.38 90.2556 881.035
v -3586.51 92.8175 880.903
v -3586.47 92.8359 881.222
v -3586.33 90.2556 881.472
v -3585.97 90.2556 880.985
v -3586.23 92.8298 880.867
v -3586.51 92.8175 880.903
v -3586.38 90.2556 881.035
v -3585.99 93.3775 881.396
v -3585.88 93.6176 881.498
v -3586.06 93.6176 881.925
v -3586.21 93.3775 881.925
v -3585.88 93.6176 882.351
v -3585.99 93.3775 882.454
v -3585.21 93.3775 881.277
v -3585.3 93.6176 881.386
v -3585.46 93.6176 881.321
v -3585.46 93.3775 881.176
v -3586.27 93.0727 881.925
v -3586.03 93.0727 882.496
v -3584.89 93.0727 881.353
v -3585.46 93.0727 881.116
v -3586.03 93.0727 881.353
v -3584.46 90.2556 880.924
v -3584.46 92.8647 880.924
v -3584.66 93.1022 880.924
v -3586.12 93.1022 880.924
v -3585.83 90.2556 880.924
v -3584.46 93.1022 882.925
v -3584.46 90.2556 882.925
v -3584.67 90.2556 882.925
v -3584.72 93.1022 882.925
v -3586.46 90.2556 882.925
v -3586.46 90.2556 881.539
v -3586.46 93.1022 882.925
v -3586.46 93.1022 881.361
v -3586.46 92.9314 881.35
v -3584.46 90.2556 882.925
v -3584.46 93.1022 882.925
v -3584.46 93.1022 881.287
v -3584.46 92.8647 880.924
v -3584.46 90.2556 880.924
v -3586.46 93.1022 881.361
v -3584.84 93.1022 882.625
v -3586.46 93.1022 882.925
v -3585.08 93.1022 882.925
v -3586.12 93.1022 880.924
v -3584.66 93.1022 880.924
v -3584.46 93.1022 881.287
v -3584.72 93.1022 882.925
v -3584.46 93.1022 882.925
v -3585.19 90.2556 882.925
v -3586.46 90.2556 882.925
v -3586.46 93.1022 882.925
v -3585.08 93.1022 882.925
v -3585.46 93.6176 882.528
v -3585.58 93.3775 882.621
v -3585.64 93.0727 882.658
v -3580.5 92.065 874.526
v -3580.5 92.6858 874.526
v -3580.5 92.065 875.526
v -3580.5 94.3612 875.526
v -3580.5 95.0658 874.526
v -3580.5 95.5637 875.472
v -3580.5 96.0547 874.611
v -3580.5 95.9661 875.435
v -3580.5 96.3567 875.405
v -3580.5 96.3567 874.622
v -3580.38 96.3567 875.372
v -3580.44 95.9751 875.389
v -3580.5 96.3567 875.405
v -3580.5 95.9661 875.435
v -3579.5 92.6026 874.655
v -3579.5 93.5978 874.526
v -3579.57 92.6027 874.526
v -3580.5 96.0547 874.611
v -3580.45 96.1468 874.526
v -3580.5 96.3567 874.622
v -3580.44 96.3567 874.526
v -3580.44 95.8355 874.526
v -3580.5 95.0658 874.526
v -3580.5 95.5637 875.472
v -3580.45 95.6217 875.473
v -3580.5 94.3612 875.526
v -3580.25 95.4991 875.526
v -3579.5 92.065 874.615
v -3579.6 92.065 874.526
v -3580.38 96.3567 875.372
v -3580.5 96.3567 875.405
v -3580.14 96.3567 875.077
v -3580.01 95.6613 875.526
v -3580.25 95.4991 875.526
v -3580.45 95.6217 875.473
v -3580.16 92.685 874.572
v -3580.17 92.065 874.572
v -3580.11 92.6498 874.526
v -3580.07 92.065 874.526
v -3580.05 93.2467 874.526
v -3580.09 93.2038 874.572
v -3580.2 93.7848 874.526
v -3580.14 93.265 874.526
v -3580.09 93.2038 874.572
v -3580.2 93.7848 874.526
v -3580.25 92.6307 874.526
v -3580.16 92.685 874.572
v -3580.17 92.065 874.572
v -3580.32 92.065 874.526
v -3580.5 95.0658 874.526
v -3580.5 92.6858 874.526
v -3580.2 93.7848 874.526
v -3580.14 93.265 874.526
v -3580.25 92.6307 874.526
v -3580.5 92.065 874.526
v -3580.32 92.065 874.526
v -3579.97 94.6408 874.526
v -3580.2 93.7848 874.526
v -3579.5 93.9873 874.526
v -3579.5 93.5978 874.526
v -3580.05 93.2467 874.526
v -3579.57 92.6027 874.526
v -3580.11 92.6498 874.526
v -3580.07 92.065 874.526
v -3579.6 92.065 874.526
v -3579.97 94.6408 874.526
v -3580.2 94.868 874.526
v -3580.2 93.7848 874.526
v -3580.5 95.0658 874.526
v -3580.44 95.8355 874.526
v -3580.26 95.3481 874.526
v -3579.5 92.4454 875.247
v -3579.5 92.6026 874.655
v -3579.5 92.065 874.615
v -3579.5 93.2058 875.398
v -3579.5 93.5978 874.526
v -3579.5 93.7752 875.324
v -3579.5 93.9873 874.526
v -3579.5 94.3948 874.692
v -3579.5 94.6281 875.526
v -3579.5 95.073 874.843
v -3579.5 95.3308 875.086
v -3579.5 95.8231 875.526
v -3579.5 95.8449 875.369
v -3579.5 95.8231 875.526
v -3579.5 94.6281 875.526
v -3580.01 95.6613 875.526
v -3579.72 93.7743 875.526
v -3580.5 92.065 875.526
v -3579.63 93.2376 875.526
v -3579.64 93.0175 875.526
v -3579.82 92.3971 875.526
v -3579.72 93.7743 875.526
v -3579.5 94.6281 875.526
v -3579.5 93.7752 875.324
v -3579.63 93.2376 875.526
v -3579.5 93.2058 875.398
v -3579.64 93.0175 875.526
v -3579.5 92.4454 875.247
v -3579.82 92.3971 875.526
v -3580.14 96.3567 875.077
v -3580.44 96.3567 874.526
v -3579.99 95.7952 874.955
v -3580.45 96.1468 874.526
v -3580.44 95.8355 874.526
v -3579.5 93.9873 874.526
v -3579.5 94.3948 874.692
v -3579.85 95.0846 874.788
v -3579.5 95.073 874.843
v -3579.97 94.6408 874.526
v -3580.2 94.868 874.526
v -3579.5 95.3308 875.086
v -3580.26 95.3481 874.526
v -3579.5 95.8449 875.369
v -3580.44 96.3567 874.526
v -3580.14 96.3567 875.077
v -3580.5 96.3567 874.622
v -3580.5 96.3567 875.405
v -3580.26 96.3567 875.35
v -3580.38 96.3567 875.372
v -3580.14 96.3567 875.077
v -3580.44 95.9751 875.389
v -3580.26 96.3567 875.35
v -3580 95.9773 875.253
v -3580.16 96.0291 875.387
v -3580.38 96.3567 875.372
v -3580.16 96.0291 875.387
v -3580.26 96.3567 875.35
v -3579.89 95.8627 875.442
v -3579.89 95.8627 875.442
v -3579.78 95.8977 875.31
v -3580.14 96.3567 875.077
v -3579.5 95.8231 875.526
v -3579.5 95.8231 875.526
v -3579.5 95.8449 875.369
v -3579 92.0768 875.118
v -3578.98 92.3567 875.026
v -3579.13 92.0519 874.5
v -3579.03 92.388 874.846
v -3579.36 92.0823 875.06
v -3578.98 92.3567 875.026
v -3579 92.0768 875.118
v -3579.03 92.388 874.846
v -3579.36 92.065 874.742
v -3579.13 92.0519 874.5
v -3579.36 92.065 874.742
v -3579.03 92.388 874.846
v -3579.36 92.0823 875.06
v -3578.98 92.3567 875.026
v -3579.4 92.093 874.589
v -3579.35 92.2671 874.272
v -3579.27 92.065 874.074
v -3579.27 92.5653 874.046
v -3579.27 92.065 874.074
v -3579.69 92.7818 873.926
v -3580.18 92.0524 873.841
v -3579.27 92.5653 874.046
v -3579.89 92.6063 873.885
v -3580.18 92.0524 873.841
v -3579.89 92.6063 873.885
v -3579.91 92.3414 874.069
v -3579.35 92.2671 874.272
v -3579.64 92.3457 874.16
v -3579.27 92.5653 874.046
v -3579.69 92.7818 873.926
v -3579.4 92.093 874.589
v -3579.51 92.0876 874.49
v -3579.35 92.2671 874.272
v -3579.64 92.3457 874.16
v -3580.24 92.0633 874.042
v -3579.91 92.3414 874.069
v -3580.18 92.0524 873.841
v -3580.5 92.065 875.526
v -3579.82 92.3971 875.526
v -3580.11 92.065 875.817
v -3579.65 92.065 876.023
v -3579.26 92.065 875.864
v -3579.26 92.065 875.465
v -3579.5 92.4454 875.247
v -3579.03 92.065 875.351
v -3579.5 92.065 874.615
v -3618 94.9474 912
v -3618 94.7343 910
v -3618 94.542 908
v -3618 94.3704 906
v -3618 94.2192 904
v -3618 94.0881 902
v -3618 93.9767 900
v -3618 93.8846 898
v -3618 93.8114 896
v -3618 93.7564 894
v -3618 93.7192 892
v -3618 93.699 890
v -3618 93.6953 888
v -3618 93.7073 886
v -3618 93.7342 884
v -3618 93.7753 882
v -3618 93.8297 880
v -3618 93.8965 878
v -3618 93.9748 876
v -3618 94.0637 874
v -3618 94.1622 872
v -3618 94.2692 870
v -3618 94.3838 868
v -3618 94.5048 866
v -3618 94.6312 864
v -3618 94.7619 862
v -3618 94.8958 860
v -3618 95.0317 858
v -3618 94.935 856
v -3618 93.9681 854
v -3618 92.7772 852
v -3618 91.8151 850
v -3616 95.0176 912
v -3616 94.8011 910
v -3616 94.6054 908
v -3616 94.4303 906
v -3616 94.2755 904
v -3616 94.1408 902
v -3616 94.0257 900
v -3616 93.9298 898
v -3616 93.8526 896
v -3616 93.7937 894
v -3616 93.7525 892
v -3616 93.7283 890
v -3616 93.7205 888
v -3616 93.7283 886
v -3616 93.7511 884
v -3616 93.7879 882
v -3616 93.838 880
v -3616 93.9006 878
v -3616 93.9746 876
v -3616 94.0592 874
v -3616 94.1535 872
v -3616 94.2562 870
v -3616 94.3666 868
v -3616 94.4834 866
v -3616 94.6057 864
v -3616 94.7322 862
v -3616 94.8621 860
v -3616 94.994 858
v -3616 95.1268 856
v -3616 95.0782 854
v -3616 94.1303 852
v -3616 92.9582 850
v -3614 95.0995 912
v -3614 94.8795 910
v -3614 94.6803 908
v -3614 94.5015 906
v -3614 94.343 904
v -3614 94.2045 902
v -3614 94.0855 900
v -3614 93.9857 898
v -3614 93.9046 896
v -3614 93.8417 894
v -3614 93.7963 892
v -3614 93.768 890
v -3614 93.756 888
v -3614 93.7596 886
v -3614 93.7781 884
v -3614 93.8106 882
v -3614 93.8564 880
v -3614 93.9147 878
v -3614 93.9844 876
v -3614 94.0646 874
v -3614 94.1545 872
v -3614 94.2529 870
v -3614 94.359 868
v -3614 94.4715 866
v -3614 94.5895 864
v -3614 94.7119 862
v -3614 94.8376 860
v -3614 94.9655 858
v -3614 95.0943 856
v -3614 95.2226 854
v -3614 95.205 852
v -3614 94.6291 850
v -3612 95.1927 912
v -3612 94.9691 910
v -3612 94.7662 908
v -3612 94.5837 906
v -3612 94.4214 904
v -3612 94.2789 902
v -3612 94.156 900
v -3612 94.0522 898
v -3612 93.967 896
v -3612 93.8999 894
v -3612 93.8504 892
v -3612 93.8178 890
v -3612 93.8015 888
v -3612 93.8008 886
v -3612 93.815 884
v -3612 93.8432 882
v -3612 93.8846 880
v -3612 93.9385 878
v -3612 94.0038 876
v -3612 94.0796 874
v -3612 94.1651 872
v -3612 94.2591 870
v -3612 94.3608 868
v -3612 94.469 866
v -3612 94.5827 864
v -3612 94.7007 862
v -3612 94.8222 860
v -3612 94.946 858
v -3612 95.0708 856
v -3612 95.1951 854
v -3612 95.3175 852
v -3612 95.3579 850
v -3610 95.2969 912
v -3610 95.0696 910
v -3610 94.8629 908
v -3610 94.6765 906
v -3610 94.5103 904
v -3610 94.3639 902
v -3610 94.2369 900
v -3610 94.1289 898
v -3610 94.0396 896
v -3610 93.9683 894
v -3610 93.9145 892
v -3610 93.8776 890
v -3610 93.857 888
v -3610 93.8519 886
v -3610 93.8616 884
v -3610 93.8854 882
v -3610 93.9224 880
v -3610 93.9718 878
v -3610 94.0326 876
v -3610 94.104 874
v -3610 94.185 872
v -3610 94.2746 870
v -3610 94.3719 868
v -3610 94.4756 866
v -3610 94.5849 864
v -3610 94.6986 862
v -3610 94.8158 860
v -3610 94.9354 858
v -3610 95.056 856
v -3610 95.1763 854
v -3610 95.2948 852
v -3610 95.41 850
v -3608 95.4117 912
v -3608 95.1807 910
v -3608 94.9701 908
v -3608 94.7798 906
v -3608 94.6095 904
v -3608 94.459 902
v -3608 94.3279 900
v -3608 94.2157 898
v -3608 94.1221 896
v -3608 94.0465 894
v -3608 93.9883 892
v -3608 93.9471 890
v -3608 93.922 888
v -3608 93.9125 886
v -3608 93.9177 884
v -3608 93.937 882
v -3608 93.9695 880
v -3608 94.0144 878
v -3608 94.0707 876
v -3608 94.1376 874
v -3608 94.2141 872
v -3608 94.2992 870
v -3608 94.3919 868
v -3608 94.4912 866
v -3608 94.596 864
v -3608 94.7053 862
v -3608 94.8181 860
v -3608 94.9334 858
v -3608 95.0498 856
v -3608 95.166 854
v -3608 95.2805 852
v -3608 95.3918 850
v -3606 95.537 912
v -3606 95.302 910
v -3606 95.0874 908
v -3606 94.8931 906
v -3606 94.7187 904
v -3606 94.564 902
v -3606 94.4287 900
v -3606 94.3122 898
v -3606 94.2142 896
v -3606 94.1343 894
v -3606 94.0717 892
v -3606 94.0259 890
v -3606 93.9964 888
v -3606 93.9823 886
v -3606 93.9831 884
v -3606 93.9978 882
v -3606 94.0257 880
v -3606 94.066 878
v -3606 94.1178 876
v -3606 94.1801 874
v -3606 94.2521 872
v -3606 94.3326 870
v -3606 94.4208 868
v -3606 94.5156 866
v -3606 94.6159 864
v -3606 94.7206 862
v -3606 94.829 860
v -3606 94.9399 858
v -3606 95.052 856
v -3606 95.164 854
v -3606 95.2745 852
v -3606 95.3819 850
v -3604 95.6723 912
v -3604 95.4333 910
v -3604 95.2147 908
v -3604 95.0162 906
v -3604 94.8376 904
v -3604 94.6787 902
v -3604 94.539 900
v -3604 94.4182 898
v -3604 94.3158 896
v -3604 94.2314 894
v -3604 94.1643 892
v -3604 94.114 890
v -3604 94.0799 888
v -3604 94.0613 886
v -3604 94.0574 884
v -3604 94.0676 882
v -3604 94.0909 880
v -3604 94.1266 878
v -3604 94.1737 876
v -3604 94.2314 874
v -3604 94.2988 872
v -3604 94.3747 870
v -3604 94.4584 868
v -3604 94.5486 866
v -3604 94.6443 864
v -3604 94.7445 862
v -3604 94.8483 860
v -3604 94.9547 858
v -3604 95.0625 856
v -3604 95.1702 854
v -3604 95.2765 852
v -3604 95.3799 850
v -3602 95.8173 912
v -3602 95.5743 910
v -3602 95.3515 908
v -3602 95.1488 906
v -3602 94.966 904
v -3602 94.8027 902
v -3602 94.6586 900
v -3602 94.5334 898
v -3602 94.4265 896
v -3602 94.3375 894
v -3602 94.2659 892
v -3602 94.2111 890
v -3602 94.1723 888
v -3602 94.1491 886
v -3602 94.1406 884
v -3602 94.1461 882
v -3602 94.1647 880
v -3602 94.1957 878
v -3602 94.2382 876
v -3602 94.2913 874
v -3602 94.354 872
v -3602 94.4253 870
v -3602 94.5043 868
v -3602 94.5899 866
v -3602 94.681 864
v -3602 94.7766 862
v -3602 94.8758 860
v -3602 94.9777 858
v -3602 95.081 856
v -3602 95.1844 854
v -3602 95.2865 852
v -3602 95.3857 850
v -3600 95.9716 912
v -3600 95.7245 910
v -3600 95.4976 908
v -3600 95.2906 906
v -3600 95.1034 904
v -3600 94.9358 902
v -3600 94.7872 900
v -3600 94.6575 898
v -3600 94.5461 896
v -3600 94.4525 894
v -3600 94.3763 892
v -3600 94.3168 890
v -3600 94.2734 888
v -3600 94.2455 886
v -3600 94.2323 884
v -3600 94.2331 882
v -3600 94.247 880
v -3600 94.2734 878
v -3600 94.3111 876
v -3600 94.3595 874
v -3600 94.4176 872
v -3600 94.4842 870
v -3600 94.5585 868
v -3600 94.6394 866
v -3600 94.7259 864
v -3600 94.8168 862
v -3600 94.9113 860
v -3600 95.0087 858
v -3600 95.1075 856
v -3600 95.2065 854
v -3600 95.3042 852
v -3600 95.3992 850
v -3598 96.1345 912
v -3598 95.8832 910
v -3598 95.652 908
v -3598 95.4407 906
v -3598 95.2492 904
v -3598 95.0771 902
v -3598 94.924 900
v -3598 94.7897 898
v -3598 94.6737 896
v -3598 94.5755 894
v -3598 94.4946 892
v -3598 94.4304 890
v -3598 94.3823 888
v -3598 94.3497 886
v -3598 94.3317 884
v -3598 94.3278 882
v -3598 94.337 880
v -3598 94.3586 878
v -3598 94.3917 876
v -3598 94.4353 874
v -3598 94.4886 872
v -3598 94.5506 870
v -3598 94.6202 868
v -3598 94.6964 866
v -3598 94.7781 864
v -3598 94.8643 862
v -3598 94.9541 860
v -3598 95.0468 858
v -3598 95.141 856
v -3598 95.2355 854
v -3598 95.3288 852
v -3598 95.4195 850
v -3596 96.3049 912
v -3596 96.0494 910
v -3596 95.8139 908
v -3596 95.5983 906
v -3596 95.4023 904
v -3596 95.2257 902
v -3596 95.0681 900
v -3596 94.9292 898
v -3596 94.8085 896
v -3596 94.7057 894
v -3596 94.62 892
v -3596 94.5511 890
v -3596 94.4983 888
v -3596 94.4608 886
v -3596 94.4381 884
v -3596 94.4294 882
v -3596 94.4338 880
v -3596 94.4506 878
v -3596 94.4789 876
v -3596 94.5178 874
v -3596 94.5663 872
v -3596 94.6235 870
v -3596 94.6883 868
v -3596 94.7597 866
v -3596 94.8367 864
v -3596 94.9181 862
v -3596 95.0031 860
v -3596 95.0911 858
v -3596 95.1807 856
v -3596 95.2705 854
v -3596 95.3593 852
v -3596 95.4456 850
v -3594 96.4823 912
v -3594 96.2226 910
v -3594 95.9828 908
v -3594 95.7628 906
v -3594 95.5623 904
v -3594 95.3812 902
v -3594 95.219 900
v -3594 95.0755 898
v -3594 94.9502 896
v -3594 94.8426 894
v -3594 94.7522 892
v -3594 94.6785 890
v -3594 94.6208 888
v -3594 94.5786 886
v -3594 94.2279 884
v -3594 93.6844 882
v -3594 94.5371 880
v -3594 94.5491 878
v -3594 94.5725 876
v -3594 94.6066 874
v -3594 94.6503 872
v -3594 94.7026 870
v -3594 94.7627 868
v -3594 94.8293 866
v -3594 94.9014 864
v -3594 94.9779 862
v -3594 95.0582 860
v -3594 95.1413 858
v -3594 95.2261 856
v -3594 95.3113 854
v -3594 95.3955 852
v -3594 95.4772 850
v -3592 96.6664 912
v -3592 96.4024 910
v -3592 96.1582 908
v -3592 95.9338 906
v -3592 95.7289 904
v -3592 95.5432 902
v -3592 95.3764 900
v -3592 95.2282 898
v -3592 95.0982 896
v -3592 94.9859 894
v -3592 94.8907 892
v -3592 94.8122 890
v -3592 94.7497 888
v -3592 93.0966 886
v -3592 92.2936 884
v -3592 92.0607 882
v -3592 92.4359 880
v -3592 93.4391 878
v -3592 94.6722 876
v -3592 94.7014 874
v -3592 94.7402 872
v -3592 94.7877 870
v -3592 94.8429 868
v -3592 94.9046 866
v -3592 94.9719 864
v -3592 95.0435 862
v -3592 95.1188 860
v -3592 95.1971 858
v -3592 95.277 856
v -3592 95.3574 854
v -3592 95.4369 852
v -3592 95.514 850
v -3590 96.8567 912
v -3590 96.5884 910
v -3590 96.3399 908
v -3590 96.111 906
v -3590 95.9016 904
v -3590 95.7113 902
v -3590 95.5399 900
v -3590 95.387 898
v -3590 95.2523 896
v -3590 95.1352 894
v -3590 95.0352 892
v -3590 94.9518 890
v -3590 93.4441 888
v -3590 92.4596 886
v -3590 91.7952 884
v -3590 91.7719 882
v -3590 91.7617 880
v -3590 92.2706 878
v -3590 93.1192 876
v -3590 94.8019 874
v -3590 94.8358 872
v -3590 94.8784 870
v -3590 94.9286 868
v -3590 94.9855 866
v -3590 95.0478 864
v -3590 95.1144 862
v -3590 95.1847 860
v -3590 95.258 858
v -3590 95.3331 856
v -3590 95.4086 854
v -3590 95.4832 852
v -3590 95.5555 850
v -3588 97.0527 912
v -3588 96.7801 910
v -3588 96.5273 908
v -3588 96.294 906
v -3588 96.08 904
v -3588 95.8852 902
v -3588 95.7091 900
v -3588 95.5516 898
v -3588 95.412 896
v -3588 95.2901 894
v -3588 95.1853 892
v -3588 95.0971 890
v -3588 93.7598 888
v -3588 92.6469 886
v -3588 91.9258 884
v -3588 91.8975 882
v -3588 91.8824 880
v -3588 91.9418 878
v -3588 92.396 876
v -3588 92.8584 874
v -3588 93.289 872
v -3588 94.9743 870
v -3588 95.0196 868
v -3588 95.0715 866
v -3588 95.1288 864
v -3588 95.1904 862
v -3588 95.2557 860
v -3588 95.324 858
v -3588 95.394 856
v -3588 95.4646 854
v -3588 95.5343 852
v -3588 95.6017 850
v -3586 97.254 912
v -3586 96.9772 910
v -3586 96.7199 908
v -3586 96.4822 906
v -3586 96.2637 904
v -3586 96.0643 902
v -3586 95.8836 900
v -3586 95.7213 898
v -3586 95.5771 896
v -3586 95.4504 894
v -3586 95.3407 892
v -3586 95.2476 890
v -3586 95.1705 888
v -3586 93.3831 886
v -3586 92.5251 884
v -3586 92.0801 882
v -3586 92.0081 880
v -3586 92.0004 878
v -3586 92.0222 876
v -3586 92.1361 874
v -3586 92.3796 872
v -3586 93.1039 870
v -3586 95.1155 868
v -3586 95.1623 866
v -3586 95.2146 864
v -3586 95.2711 862
v -3586 95.3313 860
v -3586 95.3945 858
v -3586 95.4595 856
v -3586 95.525 854
v -3586 95.5896 852
v -3586 95.6521 850
v -3584 97.4602 912
v -3584 97.1791 910
v -3584 96.9175 908
v -3584 96.6754 906
v -3584 96.4524 904
v -3584 96.2484 902
v -3584 96.0631 900
v -3584 95.8961 898
v -3584 95.747 896
v -3584 95.6155 894
v -3584 95.501 892
v -3584 95.403 890
v -3584 95.3209 888
v -3584 94.0834 886
v -3584 93.3004 884
v -3584 92.7857 882
v -3584 92.368 880
v -3584 92.126 878
v -3584 92.1247 876
v -3584 92.1341 874
v -3584 92.153 872
v -3584 92.4602 870
v -3584 93.6853 868
v -3584 95.2576 866
v -3584 95.3048 864
v -3584 95.3562 862
v -3584 95.4113 860
v -3584 95.4693 858
v -3584 95.5291 856
v -3584 95.5895 854
v -3584 95.649 852
v -3584 95.7064 850
v -3582 97.6708 912
v -3582 97.3854 910
v -3582 97.1195 908
v -3582 96.8729 906
v -3582 96.6455 904
v -3582 96.4369 902
v -3582 96.2469 900
v -3582 96.0752 898
v -3582 95.9214 896
v -3582 95.7851 894
v -3582 95.6658 892
v -3582 95.5629 890
v -3582 95.4759 888
v -3582 94.2494 886
v -3582 93.7557 884
v -3582 93.2446 882
v -3582 92.6398 880
v -3582 92.2559 878
v -3582 92.2496 876
v -3582 92.2539 874
v -3582 92.2678 872
v -3582 92.3598 870
v -3582 93.2828 868
v -3582 95.3571 866
v -3582 95.3992 864
v -3582 95.4454 862
v -3582 95.4952 860
v -3582 95.5481 858
v -3582 95.6027 856
v -3582 95.6578 854
v -3582 95.7121 852
v -3582 95.7643 850
v -3580 97.8853 912
v -3580 97.5957 910
v -3580 97.3255 908
v -3580 97.0746 906
v -3580 96.8426 904
v -3580 96.6295 902
v -3580 96.4349 900
v -3580 96.2585 898
v -3580 96.1 896
v -3580 95.9589 894
v -3580 95.8346 892
v -3580 95.7269 890
v -3580 95.6349 888
v -3580 94.2239 886
v -3580 93.8696 884
v -3580 93.3982 882
v -3580 92.8003 880
v -3580 92.3899 878
v -3580 92.3786 876
v -3580 92.3778 874
v -3580 92.3866 872
v -3580 92.7016 870
v -3580 93.4674 868
v -3580 95.4605 866
v -3580 95.4974 864
v -3580 95.5384 862
v -3580 95.583 860
v -3580 95.6305 858
v -3580 95.6798 856
v -3580 95.7296 854
v -3580 95.7787 852
v -3580 95.8256 850
v -3578 98.1033 912
v -3578 97.8096 910
v -3578 97.5351 908
v -3578 97.2798 906
v -3578 97.0434 904
v -3578 96.8258 902
v -3578 96.6266 900
v -3578 96.4455 898
v -3578 96.2823 896
v -3578 96.1363 894
v -3578 96.0073 892
v -3578 95.8946 890
v -3578 95.7977 888
v -3578 95.7161 886
v -3578 94.4372 884
v -3578 93.7632 882
v -3578 93.1828 880
v -3578 92.7547 878
v -3578 92.5116 876
v -3578 92.5208 874
v -3578 92.9148 872
v -3578 93.3899 870
v -3578 94.0035 868
v -3578 95.5674 866
v -3578 95.5991 864
v -3578 95.6348 862
v -3578 95.6741 860
v -3578 95.7163 858
v -3578 95.7602 856
v -3578 95.8047 854
v -3578 95.8483 852
v -3578 95.8898 850
v -3576 98.3244 912
v -3576 98.0265 910
v -3576 97.7478 908
v -3576 97.4881 906
v -3576 97.2474 904
v -3576 97.0252 902
v -3576 96.8215 900
v -3576 96.6358 898
v -3576 96.4678 896
v -3576 96.3172 894
v -3576 96.1833 892
v -3576 96.0658 890
v -3576 95.964 888
v -3576 95.8774 886
v -3576 95.8053 884
v -3576 94.5773 882
v -3576 94.0234 880
v -3576 93.7922 878
v -3576 93.7441 876
v -3576 93.9047 874
v -3576 94.4814 872
v -3576 95.0496 870
v -3576 95.6565 868
v -3576 95.6776 866
v -3576 95.7039 864
v -3576 95.7343 862
v -3576 95.7683 860
v -3576 95.8051 858
v -3576 95.8436 856
v -3576 95.8826 854
v -3576 95.9208 852
v -3576 95.9569 850
v -3574 98.6054 912
v -3574 98.246 910
v -3574 97.9631 908
v -3574 97.6992 906
v -3574 97.4541 904
v -3574 97.2275 902
v -3574 97.0192 900
v -3574 96.829 898
v -3574 96.6563 896
v -3574 96.5009 894
v -3574 96.3623 892
v -3574 96.2399 890
v -3574 96.1332 888
v -3574 96.0416 886
v -3574 95.9645 884
v -3574 95.9012 882
v -3574 95.8509 880
v -3574 95.8129 878
v -3574 95.7862 876
v -3574 95.77 874
v -3574 95.7634 872
v -3574 95.7653 870
v -3574 95.7747 868
v -3574 95.7906 866
v -3574 95.8116 864
v -3574 95.8367 862
v -3574 95.8652 860
v -3574 95.8967 858
v -3574 95.9297 856
v -3574 95.9632 854
v -3574 95.9959 852
v -3574 96.0264 850
v -3572 99.0389 912
v -3572 98.4677 910
v -3572 98.1807 908
v -3572 97.9126 906
v -3572 97.6631 904
v -3572 97.4322 902
v -3572 97.2194 900
v -3572 97.0246 898
v -3572 96.8473 896
v -3572 96.6872 894
v -3572 96.5438 892
v -3572 96.4166 890
v -3572 96.305 888
v -3572 96.2086 886
v -3572 96.1265 884
v -3572 96.0582 882
v -3572 96.0028 880
v -3572 95.9597 878
v -3572 95.9279 876
v -3572 95.9066 874
v -3572 95.8948 872
v -3572 95.8914 870
v -3572 95.8956 868
v -3572 95.9062 866
v -3572 95.9219 864
v -3572 95.9416 862
v -3572 95.9647 860
v -3572 95.9906 858
v -3572 96.0182 856
v -3572 96.0461 854
v -3572 96.0732 852
v -3572 96.098 850
v -3570 99.4756 912
v -3570 98.8598 910
v -3570 98.4 908
v -3570 98.1277 906
v -3570 97.874 904
v -3570 97.6388 902
v -3570 97.4216 900
v -3570 97.2223 898
v -3570 97.0404 896
v -3570 96.8757 894
v -3570 96.7275 892
v -3570 96.5956 890
v -3570 96.4792 888
v -3570 96.3778 886
v -3570 96.2908 884
v -3570 96.2175 882
v -3570 96.1571 880
v -3570 96.1088 878
v -3570 96.0719 876
v -3570 96.0454 874
v -3570 96.0284 872
v -3570 96.0199 870
v -3570 96.0188 868
v -3570 96.024 866
v -3570 96.0344 864
v -3570 96.0487 862
v -3570 96.0664 860
v -3570 96.0868 858
v -3570 96.1087 856
v -3570 96.1311 854
v -3570 96.1525 852
v -3570 96.1716 850
v -3568 99.9144 912
v -3568 99.2897 910
v -3568 98.7052 908
v -3568 98.3443 906
v -3568 98.0864 904
v -3568 97.8468 902
v -3568 97.6253 900
v -3568 97.4215 898
v -3568 97.2352 896
v -3568 97.0658 894
v -3568 96.9131 892
v -3568 96.7763 890
v -3568 96.6552 888
v -3568 96.5489 886
v -3568 96.457 884
v -3568 96.3787 882
v -3568 96.3133 880
v -3568 96.26 878
v -3568 96.2179 876
v -3568 96.1863 874
v -3568 96.1641 872
v -3568 96.1503 870
v -3568 96.1439 868
v -3568 96.1438 866
v -3568 96.1488 864
v -3568 96.1577 862
v -3568 96.1699 860
v -3568 96.1848 858
v -3568 96.2011 856
v -3568 96.2178 854
v -3568 96.2335 852
v -3568 96.2469 850
v -3566 100.355 912
v -3566 99.721 910
v -3566 99.1276 908
v -3566 98.5738 906
v -3566 98.2997 904
v -3566 98.056 902
v -3566 97.8302 900
v -3566 97.622 898
v -3566 97.4312 896
v -3566 97.2574 894
v -3566 97.1 892
v -3566 96.9586 890
v -3566 96.8326 888
v -3566 96.7216 886
v -3566 96.6248 884
v -3566 96.5415 882
v -3566 96.4711 880
v -3566 96.4128 878
v -3566 96.3656 876
v -3566 96.3288 874
v -3566 96.3014 872
v -3566 96.2824 870
v -3566 96.2707 868
v -3566 96.2653 866
v -3566 96.2649 864
v -3566 96.2684 862
v -3566 96.275 860
v -3566 96.2843 858
v -3566 96.295 856
v -3566 96.306 854
v -3566 96.3159 852
v -3566 96.3235 850
v -3564 100.795 912
v -3564 100.153 910
v -3564 99.5506 908
v -3564 98.9879 906
v -3564 98.5135 904
v -3564 98.2657 902
v -3564 98.0357 900
v -3564 97.8233 898
v -3564 97.6281 896
v -3564 97.4498 894
v -3564 97.2878 892
v -3564 97.1418 890
v -3564 97.0112 888
v -3564 96.8954 886
v -3564 96.7937 884
v -3564 96.7056 882
v -3564 96.6302 880
v -3564 96.5668 878
v -3564 96.5146 876
v -3564 96.4727 874
v -3564 96.4401 872
v -3564 96.4158 870
v -3564 96.3988 868
v -3564 96.3881 866
v -3564 96.3823 864
v -3564 96.3803 862
v -3564 96.3815 860
v -3564 96.3852 858
v -3564 96.3902 856
v -3564 96.3955 854
v -3564 96.3996 852
v -3564 96.4013 850
v -3562 101.235 912
v -3562 100.584 910
v -3562 99.9734 908
v -3562 99.402 906
v -3562 98.8691 904
v -3562 98.4756 902
v -3562 98.2415 900
v -3562 98.0248 898
v -3562 97.8254 896
v -3562 97.6427 894
v -3562 97.4763 892
v -3562 97.3257 890
v -3562 97.1904 888
v -3562 97.0699 886
v -3562 96.9635 884
v -3562 96.8705 882
v -3562 96.7902 880
v -3562 96.7218 878
v -3562 96.6646 876
v -3562 96.6175 874
v -3562 96.5798 872
v -3562 96.5502 870
v -3562 96.528 868
v -3562 96.5119 866
v -3562 96.5007 864
v -3562 96.4933 862
v -3562 96.4889 860
v -3562 96.487 858
v -3562 96.4864 856
v -3562 96.4859 854
v -3562 96.4842 852
v -3562 96.48 850
v -3560 101.673 912
v -3560 101.014 910
v -3560 100.395 908
v -3560 99.8151 906
v -3560 99.2736 904
v -3560 98.7698 902
v -3560 98.447 900
v -3560 98.2263 898
v -3560 98.0226 896
v -3560 97.8356 894
v -3560 97.6648 892
v -3560 97.5098 890
v -3560 97.37 888
v -3560 97.2448 886
v -3560 97.1337 884
v -3560 97.0359 882
v -3560 96.9507 880
v -3560 96.8774 878
v -3560 96.8152 876
v -3560 96.763 874
v -3560 96.7201 872
v -3560 96.6854 870
v -3560 96.6579 868
v -3560 96.6364 866
v -3560 96.6199 864
v -3560 96.607 862
v -3560 96.5972 860
v -3560 96.5897 858
v -3560 96.5833 856
v -3560 96.577 854
v -3560 96.5695 852
v -3560 96.5594 850
v -3558 102.109 912
v -3558 101.442 910
v -3558 100.815 908
v -3558 100.226 906
v -3558 99.6763 904
v -3558 99.164 902
v -3558 98.6884 900
v -3558 98.4271 898
v -3558 98.2194 896
v -3558 98.0282 894
v -3558 97.8531 892
v -3558 97.6937 890
v -3558 97.5494 888
v -3558 97.4197 886
v -3558 97.3039 884
v -3558 97.2014 882
v -3558 97.1115 880
v -3558 97.0333 878
v -3558 96.966 876
v -3558 96.9088 874
v -3558 96.8608 872
v -3558 96.8209 870
v -3558 96.7881 868
v -3558 96.7614 866
v -3558 96.7395 864
v -3558 96.7212 862
v -3558 96.7058 860
v -3558 96.6927 858
v -3558 96.6807 856
v -3558 96.6687 854
v -3558 96.6553 852
v -3558 96.6392 850
v -3556 102.542 912
v -3556 101.867 910
v -3556 101.231 908
v -3556 100.635 906
v -3556 100.076 904
v -3556 99.5558 902
v -3556 99.0717 900
v -3556 98.627 898
v -3556 98.4152 896
v -3556 98.2199 894
v -3556 98.0407 892
v -3556 97.877 890
v -3556 97.7283 888
v -3556 97.5942 886
v -3556 97.4738 884
v -3556 97.3667 882
v -3556 97.272 880
v -3556 97.189 878
v -3556 97.1168 876
v -3556 97.0546 874
v -3556 97.0015 872
v -3556 96.9565 870
v -3556 96.9185 868
v -3556 96.8865 866
v -3556 96.8592 864
v -3556 96.8356 862
v -3556 96.8147 860
v -3556 96.7961 858
v -3556 96.7784 856
v -3556 96.7606 854
v -3556 96.7413 852
v -3556 96.7193 850
f 444 449 443
f 444 443 442
f 442 443 440
f 447 442 446
f 447 444 442
f 446 442 445
f 440 445 442
f 460 446 445
f 460 445 435
f 441 445 440
f 435 445 441
f 431 448 447
f 444 447 448
f 431 447 446
f 444 453 452
f 444 448 454
f 444 454 453
f 444 452 449
f 435 441 440
f 431 446 460
f 435 440 437
f 431 454 448
f 431 457 454
f 457 453 454
f 436 460 435
f 437 436 435
f 438 436 437
f 466 475 469
f 475 461 469
f 461 462 469
f 469 467 466
f 469 462 467
f 475 474 461
f 474 463 461
f 463 462 461
f 470 475 466
f 399 398 397
f 399 400 398
f 403 400 399
f 474 473 463
f 453 458 452
f 453 457 458
f 420 414 419
f 412 419 414
f 414 415 412
f 416 415 414
f 418 414 420
f 414 418 416
f 499 498 487
f 499 487 493
f 487 488 493
f 489 488 487
f 498 489 487
f 422 423 415
f 415 416 422
f 413 419 412
f 411 419 413
f 430 419 411
f 430 420 419
f 403 401 400
f 395 401 403
f 394 395 403
f 464 470 466
f 492 488 489
f 498 497 489
f 497 492 489
f 417 418 420
f 416 418 417
f 471 470 464
f 411 413 412
f 497 496 492
f 433 460 436
f 433 431 460
f 431 458 457
f 428 420 430
f 417 420 428
f 477 484 483
f 482 477 483
f 438 433 436
f 416 417 422
f 462 465 467
f 466 467 465
f 466 465 464
f 465 462 463
f 401 398 400
f 490 499 493
f 493 488 490
f 494 499 490
f 479 485 484
f 484 477 479
f 411 412 409
f 473 472 468
f 473 468 463
f 428 422 417
f 491 490 488
f 488 492 491
f 465 463 468
f 496 491 492
f 496 495 491
f 432 458 431
f 433 432 431
f 495 494 491
f 491 494 490
f 465 468 464
f 472 471 464
f 432 456 458
f 451 458 456
f 452 458 451
f 449 452 451
f 472 464 468
f 478 477 476
f 479 477 478
f 476 477 482
f 410 411 409
f 410 430 411
f 479 478 485
f 478 486 485
f 434 432 433
f 438 434 433
f 396 395 394
f 396 401 395
f 402 401 396
f 398 401 402
f 398 402 397
f 449 451 450
f 451 456 450
f 406 409 408
f 410 409 406
f 478 476 481
f 478 481 480
f 478 480 486
f 456 459 455
f 450 456 455
f 432 459 456
f 476 482 481
f 423 422 421
f 422 429 421
f 428 429 422
f 428 404 429
f 428 430 404
f 404 430 410
f 439 432 434
f 432 439 459
f 439 434 438
f 404 410 406
f 450 438 449
f 455 438 450
f 459 438 455
f 438 459 439
f 406 405 404
f 427 404 405
f 429 404 427
f 425 429 427
f 421 429 425
f 30 33 28
f 32 28 33
f 28 32 31
f 24 14 25
f 14 24 13
f 15 14 13
f 15 17 14
f 3 2 1
f 4 2 3
f 5 2 4
f 6 2 5
f 7 2 6
f 8 2 7
f 2 172 170
f 9 172 2
f 8 9 2
f 8 10 9
f 8 11 10
f 12 11 8
f 170 174 179
f 175 174 173
f 179 174 175
f 179 175 177
f 179 177 178
f 178 177 176
f 215 214 213
f 215 213 216
f 215 216 217
f 218 217 216
f 219 217 218
f 212 211 210
f 207 211 212
f 207 208 211
f 209 208 207
f 160 191 190
f 160 190 161
f 161 157 160
f 160 157 159
f 159 157 158
f 158 157 156
f 152 151 150
f 153 151 152
f 151 153 155
f 155 153 154
f 155 154 189
f 155 189 188
f 256 155 188
f 257 155 256
f 258 155 257
f 194 155 258
f 193 155 194
f 155 193 192
f 253 252 251
f 253 251 254
f 255 253 254
f 347 346 345
f 348 346 347
f 309 308 307
f 310 308 309
f 314 310 309
f 312 310 314
f 342 339 341
f 166 241 240
f 166 240 239
f 166 239 165
f 239 238 165
f 165 238 236
f 165 236 237
f 237 236 205
f 205 236 206
f 206 171 205
f 205 171 170
f 166 165 164
f 171 169 170
f 170 169 2
f 2 169 168
f 2 168 167
f 98 103 97
f 95 98 97
f 103 101 108
f 97 103 108
f 198 197 195
f 244 243 242
f 244 247 243
f 61 250 245
f 61 62 250
f 63 62 61
f 41 40 39
f 222 221 220
f 38 40 41
f 222 223 221
f 227 223 222
f 227 228 223
f 227 226 228
f 226 227 225
f 226 225 224
f 201 200 199
f 201 203 200
f 200 203 202
f 203 204 202
f 47 46 45
f 48 46 47
f 51 50 49
f 52 50 51
f 186 185 184
f 185 186 187
f 182 181 180
f 56 59 60
f 60 59 58
f 68 67 66
f 67 74 71
f 67 71 66
f 264 263 262
f 267 262 263
f 265 267 266
f 265 259 260
f 261 260 259
f 265 266 259
f 423 421 425
f 247 244 246
f 247 246 245
f 61 245 246
f 283 79 285
f 287 283 285
f 267 263 266
f 14 17 16
f 17 18 16
f 183 181 182
f 107 110 109
f 26 25 23
f 14 23 25
f 244 249 246
f 249 244 248
f 423 425 424
f 425 427 424
f 45 46 44
f 45 44 43
f 52 53 50
f 52 54 53
f 23 14 16
f 57 56 55
f 56 57 59
f 103 102 101
f 101 102 107
f 40 38 42
f 427 405 407
f 427 407 426
f 424 427 426
f 340 339 338
f 36 35 34
f 74 72 78
f 74 67 72
f 312 315 310
f 312 316 315
f 313 312 311
f 312 313 316
f 36 38 35
f 38 36 37
f 42 38 37
f 406 408 407
f 407 405 406
f 308 321 307
f 392 388 391
f 116 119 121
f 117 119 116
f 117 116 115
f 197 196 195
f 77 78 72
f 77 72 76
f 124 125 123
f 124 123 118
f 118 123 120
f 348 349 346
f 342 343 339
f 343 342 344
f 343 352 339
f 393 339 352
f 339 393 338
f 162 157 161
f 162 163 157
f 98 95 93
f 96 93 95
f 106 110 107
f 107 102 106
f 61 246 64
f 64 246 249
f 61 65 63
f 65 61 64
f 81 79 283
f 81 80 79
f 119 120 121
f 391 388 390
f 122 117 115
f 282 283 287
f 283 284 81
f 284 283 282
f 322 308 325
f 325 308 310
f 322 321 308
f 114 113 112
f 349 348 351
f 351 348 350
f 68 69 67
f 70 67 69
f 73 67 70
f 67 73 72
f 231 230 229
f 231 233 230
f 230 233 232
f 426 423 424
f 147 144 146
f 139 147 146
f 288 293 195
f 196 288 195
f 294 295 195
f 294 195 293
f 120 119 118
f 233 235 232
f 232 235 234
f 296 297 295
f 296 295 294
f 145 144 143
f 143 144 147
f 315 325 310
f 140 147 139
f 140 139 138
f 87 86 85
f 81 84 80
f 426 407 408
f 408 423 426
f 96 94 93
f 87 90 86
f 29 28 27
f 30 28 29
f 106 111 110
f 106 105 111
f 106 104 105
f 106 102 104
f 104 102 103
f 304 305 303
f 304 303 301
f 301 303 300
f 98 93 99
f 76 72 73
f 323 321 322
f 324 321 323
f 389 388 387
f 389 390 388
f 288 196 289
f 76 73 75
f 136 135 137
f 135 136 132
f 149 145 148
f 145 143 148
f 93 94 92
f 93 92 91
f 93 91 100
f 99 93 100
f 304 306 305
f 81 284 286
f 83 81 286
f 81 83 84
f 299 298 297
f 297 296 299
f 357 358 359
f 355 354 353
f 87 89 90
f 84 83 82
f 358 357 356
f 90 89 88
f 315 316 326
f 315 326 325
f 302 301 300
f 292 291 290
f 138 141 140
f 142 141 138
f 135 132 134
f 381 382 385
f 377 382 381
f 377 378 382
f 377 376 378
f 376 377 375
f 375 325 376
f 325 375 322
f 360 322 361
f 360 361 380
f 360 380 379
f 379 380 384
f 384 380 383
f 383 386 384
f 322 360 323
f 134 132 133
f 363 127 362
f 364 127 363
f 374 371 373
f 362 127 132
f 373 371 372
f 368 318 367
f 369 318 368
f 275 272 274
f 274 272 273
f 273 272 268
f 268 272 271
f 268 271 270
f 268 270 269
f 268 269 126
f 268 126 127
f 128 127 126
f 129 127 128
f 130 127 129
f 131 127 130
f 328 327 127
f 133 132 131
f 131 132 127
f 365 127 364
f 328 127 365
f 365 370 328
f 365 371 370
f 372 371 365
f 337 335 336
f 336 335 332
f 332 335 334
f 332 334 331
f 329 332 331
f 327 329 331
f 328 329 327
f 330 329 328
f 366 330 328
f 366 318 330
f 333 332 329
f 367 318 366
f 317 318 369
f 319 318 317
f 318 319 320
f 22 20 21
f 21 20 19
f 21 19 281
f 21 281 280
f 278 21 280
f 21 278 279
f 279 278 277
f 272 277 278
f 277 272 276
f 276 272 275
f 503 509 505
f 509 514 505
f 505 514 508
f 505 504 503
f 505 506 504
f 508 506 505
f 510 509 503
f 514 500 508
f 500 501 508
f 508 501 506
f 501 504 506
f 514 513 500
f 527 526 515
f 527 515 521
f 515 516 521
f 517 516 515
f 526 517 515
f 520 516 517
f 526 525 517
f 525 520 517
f 511 503 507
f 511 510 503
f 504 507 503
f 525 524 520
f 504 501 502
f 504 502 507
f 518 527 521
f 522 527 518
f 521 516 518
f 502 501 500
f 519 518 516
f 516 520 519
f 513 502 500
f 513 512 502
f 512 511 507
f 524 519 520
f 524 523 519
f 523 522 519
f 519 522 518
f 512 507 502
f 530 529 528
f 536 535 534
f 539 538 537
f 551 550 549
f 533 532 531
f 542 541 540
f 545 544 543
f 548 547 546
f 569 568 567
f 566 565 564
f 563 562 561
f 572 571 570
f 557 556 555
f 575 574 573
f 560 559 558
f 587 586 585
f 584 583 582
f 581 580 579
f 554 553 552
f 578 577 576
f 590 589 588
f 600 604 603
f 599 600 603
f 601 600 599
f 607 606 605
f 608 607 605
f 606 593 594
f 605 606 594
f 602 601 599
f 609 601 602
f 598 596 592
f 592 596 595
f 592 595 591
f 593 592 591
f 594 593 591
f 611 609 602
f 611 610 609
f 610 598 609
f 610 597 598
f 596 598 597
f 612 610 611
f 613 611 602
f 620 619 618
f 632 631 630
f 633 632 630
f 628 627 626
f 629 628 626
f 647 646 645
f 648 647 645
f 643 642 641
f 644 643 641
f 662 661 660
f 663 662 660
f 654 651 655
f 658 657 656
f 659 658 656
f 651 650 649
f 651 654 653
f 636 635 634
f 639 638 637
f 640 639 637
f 651 652 650
f 651 653 652
f 623 622 621
f 617 616 614
f 625 622 623
f 622 625 624
f 616 615 614
f 697 696 695
f 698 697 695
f 706 705 704
f 707 706 704
f 708 707 704
f 717 710 716
f 710 717 715
f 713 715 714
f 713 710 715
f 692 691 690
f 693 692 690
f 694 693 690
f 688 684 687
f 684 681 687
f 710 713 709
f 711 710 709
f 712 710 711
f 721 720 718
f 720 719 718
f 684 683 681
f 683 682 681
f 689 675 688
f 675 684 688
f 723 722 680
f 722 679 680
f 676 683 684
f 675 676 684
f 724 723 686
f 723 680 686
f 680 679 678
f 677 676 675
f 679 677 678
f 673 672 671
f 674 673 671
f 686 680 685
f 680 678 685
f 678 675 689
f 678 677 675
f 685 678 689
f 666 665 664
f 670 669 667
f 669 668 667
f 703 701 702
f 701 703 700
f 701 700 699
f 862 861 860
f 866 865 864
f 863 861 862
f 873 871 872
f 869 868 867
f 872 871 870
f 875 876 877
f 876 875 874
f 880 879 878
f 878 879 881
f 889 887 888
f 888 887 886
f 893 891 892
f 892 891 890
f 798 797 796
f 797 799 796
f 751 810 811
f 800 799 797
f 800 801 799
f 802 801 800
f 803 801 802
f 783 782 781
f 784 782 783
f 784 785 782
f 786 785 784
f 811 810 809
f 832 831 830
f 750 810 751
f 750 812 810
f 833 831 832
f 833 832 836
f 855 859 827
f 855 858 859
f 858 855 854
f 836 832 827
f 838 836 827
f 753 741 752
f 752 741 739
f 741 740 739
f 834 832 830
f 804 808 807
f 808 804 806
f 806 804 805
f 805 804 803
f 803 804 801
f 819 818 817
f 820 819 817
f 821 819 820
f 822 821 820
f 823 821 822
f 823 822 824
f 757 857 853
f 893 895 891
f 891 895 894
f 789 788 786
f 786 787 785
f 786 788 787
f 813 814 812
f 813 815 814
f 884 887 889
f 887 884 885
f 813 816 815
f 880 882 879
f 813 812 750
f 848 854 855
f 848 855 827
f 832 834 835
f 832 835 837
f 832 837 827
f 848 849 854
f 757 853 851
f 885 884 883
f 895 896 894
f 792 791 790
f 848 827 856
f 827 837 829
f 829 828 827
f 827 828 826
f 827 826 825
f 848 856 847
f 849 848 847
f 759 758 757
f 759 757 846
f 757 851 846
f 764 765 766
f 762 765 764
f 763 761 762
f 760 765 762
f 768 771 767
f 769 768 767
f 762 761 760
f 777 775 776
f 767 771 770
f 778 775 777
f 841 840 839
f 840 841 842
f 756 755 754
f 845 844 843
f 852 850 851
f 851 850 846
f 772 770 771
f 770 772 773
f 776 775 774
f 792 793 791
f 795 791 793
f 749 750 751
f 778 779 775
f 780 779 778
f 795 793 794
f 737 736 735
f 736 738 749
f 736 737 738
f 747 742 746
f 742 743 746
f 744 745 743
f 744 743 742
f 750 749 748
f 749 738 748
f 727 726 725
f 734 731 733
f 733 731 732
f 728 726 727
f 728 729 726
f 732 731 730
f 730 731 729
f 730 729 728
f 902 904 903
f 904 905 903
f 900 901 898
f 901 902 898
f 902 903 898
f 899 900 898
f 899 898 897
f 939 907 906
f 906 938 939
f 971 939 938
f 938 970 971
f 1003 971 970
f 970 1002 1003
f 1035 1003 1002
f 1002 1034 1035
f 1067 1035 1034
f 1034 1066 1067
f 1099 1067 1066
f 1066 1098 1099
f 1131 1099 1098
f 1098 1130 1131
f 1163 1131 1130
f 1130 1162 1163
f 1195 1163 1162
f 1162 1194 1195
f 1227 1195 1194
f 1194 1226 1227
f 1259 1227 1226
f 1226 1258 1259
f 1291 1259 1258
f 1258 1290 1291
f 1323 1291 1290
f 1290 1322 1323
f 1355 1323 1322
f 1322 1354 1355
f 1387 1355 1354
f 1354 1386 1387
f 1419 1387 1386
f 1386 1418 1419
f 1451 1419 1418
f 1418 1450 1451
f 1483 1451 1450
f 1450 1482 1483
f 1515 1483 1482
f 1482 1514 1515
f 1547 1515 1514
f 1514 1546 1547
f 1579 1547 1546
f 1546 1578 1579
f 1611 1579 1578
f 1578 1610 1611
f 1643 1611 1610
f 1610 1642 1643
f 1675 1643 1642
f 1642 1674 1675
f 1707 1675 1674
f 1674 1706 1707
f 1739 1707 1706
f 1706 1738 1739
f 1771 1739 1738
f 1738 1770 1771
f 1803 1771 1770
f 1770 1802 1803
f 1835 1803 1802
f 1802 1834 1835
f 1867 1835 1834
f 1834 1866 1867
f 1899 1867 1866
f 1866 1898 1899
f 940 908 907
f 907 939 940
f 972 940 939
f 939 971 972
f 1004 972 971
f 971 1003 1004
f 1036 1004 1003
f 1003 1035 1036
f 1068 1036 1035
f 1035 1067 1068
f 1100 1068 1067
f 1067 1099 1100
f 1132 1100 1099
f 1099 1131 1132
f 1164 1132 1131
f 1131 1163 1164
f 1196 1164 1163
f 1163 1195 1196
f 1228 1196 1195
f 1195 1227 1228
f 1260 1228 1227
f 1227 1259 1260
f 1292 1260 1259
f 1259 1291 1292
f 1324 1292 1291
f 1291 1323 1324
f 1356 1324 1323
f 1323 1355 1356
f 1388 1356 1355
f 1355 1387 1388
f 1420 1388 1387
f 1387 1419 1420
f 1452 1420 1419
f 1419 1451 1452
f 1484 1452 1451
f 1451 1483 1484
f 1516 1484 1483
f 1483 1515 1516
f 1548 1516 1515
f 1515 1547 1548
f 1580 1548 1547
f 1547 1579 1580
f 1612 1580 1579
f 1579 1611 1612
f 1644 1612 1611
f 1611 1643 1644
f 1676 1644 1643
f 1643 1675 1676
f 1708 1676 1675
f 1675 1707 1708
f 1740 1708 1707
f 1707 1739 1740
f 1772 1740 1739
f 1739 1771 1772
f 1804 1772 1771
f 1771 1803 1804
f 1836 1804 1803
f 1803 1835 1836
f 1868 1836 1835
f 1835 1867 1868
f 1900 1868 1867
f 1867 1899 1900
f 941 909 908
f 908 940 941
f 973 941 940
f 940 972 973
f 1005 973 972
f 972 1004 1005
f 1037 1005 1004
f 1004 1036 1037
f 1069 1037 1036
f 1036 1068 1069
f 1101 1069 1068
f 1068 1100 1101
f 1133 1101 1100
f 1100 1132 1133
f 1165 1133 1132
f 1132 1164 1165
f 1197 1165 1164
f 1164 1196 1197
f 1229 1197 1196
f 1196 1228 1229
f 1261 1229 1228
f 1228 1260 1261
f 1293 1261 1260
f 1260 1292 1293
f 1325 1293 1292
f 1292 1324 1325
f 1357 1325 1324
f 1324 1356 1357
f 1389 1357 1356
f 1356 1388 1389
f 1421 1389 1388
f 1388 1420 1421
f 1453 1421 1420
f 1420 1452 1453
f 1485 1453 1452
f 1452 1484 1485
f 1517 1485 1484
f 1484 1516 1517
f 1549 1517 1516
f 1516 1548 1549
f 1581 1549 1548
f 1548 1580 1581
f 1613 1581 1580
f 1580 1612 1613
f 1645 1613 1612
f 1612 1644 1645
f 1677 1645 1644
f 1644 1676 1677
f 1709 1677 1676
f 1676 1708 1709
f 1741 1709 1708
f 1708 1740 1741
f 1773 1741 1740
f 1740 1772 1773
f 1805 1773 1772
f 1772 1804 1805
f 1837 1805 1804
f 1804 1836 1837
f 1869 1837 1836
f 1836 1868 1869
f 1901 1869 1868
f 1868 1900 1901
f 942 910 909
f 909 941 942
f 974 942 941
f 941 973 974
f 1006 974 973
f 973 1005 1006
f 1038 1006 1005
f 1005 1037 1038
f 1070 1038 1037
f 1037 1069 1070
f 1102 1070 1069
f 1069 1101 1102
f 1134 1102 1101
f 1101 1133 1134
f 1166 1134 1133
f 1133 1165 1166
f 1198 1166 1165
f 1165 1197 1198
f 1230 1198 1197
f 1197 1229 1230
f 1262 1230 1229
f 1229 1261 1262
f 1294 1262 1261
f 1261 1293 1294
f 1326 1294 1293
f 1293 1325 1326
f 1358 1326 1325
f 1325 1357 1358
f 1390 1358 1357
f 1357 1389 1390
f 1422 1390 1389
f 1389 1421 1422
f 1454 1422 1421
f 1421 1453 1454
f 1486 1454 1453
f 1453 1485 1486
f 1518 1486 1485
f 1485 1517 1518
f 1550 1518 1517
f 1517 1549 1550
f 1582 1550 1549
f 1549 1581 1582
f 1614 1582 1581
f 1581 1613 1614
f 1646 1614 1613
f 1613 1645 1646
f 1678 1646 1645
f 1645 1677 1678
f 1710 1678 1677
f 1677 1709 1710
f 1742 1710 1709
f 1709 1741 1742
f 1774 1742 1741
f 1741 1773 1774
f 1806 1774 1773
f 1773 1805 1806
f 1838 1806 1805
f 1805 1837 1838
f 1870 1838 1837
f 1837 1869 1870
f 1902 1870 1869
f 1869 1901 1902
f 943 911 910
f 910 942 943
f 975 943 942
f 942 974 975
f 1007 975 974
f 974 1006 1007
f 1039 1007 1006
f 1006 1038 1039
f 1071 1039 1038
f 1038 1070 1071
f 1103 1071 1070
f 1070 1102 1103
f 1135 1103 1102
f 1102 1134 1135
f 1167 1135 1134
f 1134 1166 1167
f 1199 1167 1166
f 1166 1198 1199
f 1231 1199 1198
f 1198 1230 1231
f 1263 1231 1230
f 1230 1262 1263
f 1295 1263 1262
f 1262 1294 1295
f 1327 1295 1294
f 1294 1326 1327
f 1359 1327 1326
f 1326 1358 1359
f 1391 1359 1358
f 1358 1390 1391
f 1423 1391 1390
f 1390 1422 1423
f 1455 1423 1422
f 1422 1454 1455
f 1487 1455 1454
f 1454 1486 1487
f 1519 1487 1486
f 1486 1518 1519
f 1551 1519 1518
f 1518 1550 1551
f 1583 1551 1550
f 1550 1582 1583
f 1615 1583 1582
f 1582 1614 1615
f 1647 1615 1614
f 1614 1646 1647
f 1679 1647 1646
f 1646 1678 1679
f 1711 1679 1678
f 1678 1710 1711
f 1743 1711 1710
f 1710 1742 1743
f 1775 1743 1742
f 1742 1774 1775
f 1807 1775 1774
f 1774 1806 1807
f 1839 1807 1806
f 1806 1838 1839
f 1871 1839 1838
f 1838 1870 1871
f 1903 1871 1870
f 1870 1902 1903
f 944 912 911
f 911 943 944
f 976 944 943
f 943 975 976
f 1008 976 975
f 975 1007 1008
f 1040 1008 1007
f 1007 1039 1040
f 1072 1040 1039
f 1039 1071 1072
f 1104 1072 1071
f 1071 1103 1104
f 1136 1104 1103
f 1103 1135 1136
f 1168 1136 1135
f 1135 1167 1168
f 1200 1168 1167
f 1167 1199 1200
f 1232 1200 1199
f 1199 1231 1232
f 1264 1232 1231
f 1231 1263 1264
f 1296 1264 1263
f 1263 1295 1296
f 1328 1296 1295
f 1295 1327 1328
f 1360 1328 1327
f 1327 1359 1360
f 1392 1360 1359
f 1359 1391 1392
f 1424 1392 1391
f 1391 1423 1424
f 1456 1424 1423
f 1423 1455 1456
f 1488 1456 1455
f 1455 1487 1488
f 1520 1488 1487
f 1487 1519 1520
f 1552 1520 1519
f 1519 1551 1552
f 1584 1552 1551
f 1551 1583 1584
f 1616 1584 1583
f 1583 1615 1616
f 1648 1616 1615
f 1615 1647 1648
f 1680 1648 1647
f 1647 1679 1680
f 1712 1680 1679
f 1679 1711 1712
f 1744 1712 1711
f 1711 1743 1744
f 1776 1744 1743
f 1743 1775 1776
f 1808 1776 1775
f 1775 1807 1808
f 1840 1808 1807
f 1807 1839 1840
f 1872 1840 1839
f 1839 1871 1872
f 1904 1872 1871
f 1871 1903 1904
f 945 913 912
f 912 944 945
f 977 945 944
f 944 976 977
f 1009 977 976
f 976 1008 1009
f 1041 1009 1008
f 1008 1040 1041
f 1073 1041 1040
f 1040 1072 1073
f 1105 1073 1072
f 1072 1104 1105
f 1137 1105 1104
f 1104 1136 1137
f 1169 1137 1136
f 1136 1168 1169
f 1201 1169 1168
f 1168 1200 1201
f 1233 1201 1200
f 1200 1232 1233
f 1265 1233 1232
f 1232 1264 1265
f 1297 1265 1264
f 1264 1296 1297
f 1329 1297 1296
f 1296 1328 1329
f 1361 1329 1328
f 1328 1360 1361
f 1393 1361 1360
f 1360 1392 1393
f 1425 1393 1392
f 1392 1424 1425
f 1457 1425 1424
f 1424 1456 1457
f 1489 1457 1456
f 1456 1488 1489
f 1521 1489 1488
f 1488 1520 1521
f 1553 1521 1520
f 1520 1552 1553
f 1585 1553 1552
f 1552 1584 1585
f 1617 1585 1584
f 1584 1616 1617
f 1649 1617 1616
f 1616 1648 1649
f 1681 1649 1648
f 1648 1680 1681
f 1713 1681 1680
f 1680 1712 1713
f 1745 1713 1712
f 1712 1744 1745
f 1777 1745 1744
f 1744 1776 1777
f 1809 1777 1776
f 1776 1808 1809
f 1841 1809 1808
f 1808 1840 1841
f 1873 1841 1840
f 1840 1872 1873
f 1905 1873 1872
f 1872 1904 1905
f 946 914 913
f 913 945 946
f 978 946 945
f 945 977 978
f 1010 978 977
f 977 1009 1010
f 1042 1010 1009
f 1009 1041 1042
f 1074 1042 1041
f 1041 1073 1074
f 1106 1074 1073
f 1073 1105 1106
f 1138 1106 1105
f 1105 1137 1138
f 1170 1138 1137
f 1137 1169 1170
f 1202 1170 1169
f 1169 1201 1202
f 1234 1202 1201
f 1201 1233 1234
f 1266 1234 1233
f 1233 1265 1266
f 1298 1266 1265
f 1265 1297 1298
f 1330 1298 1297
f 1297 1329 1330
f 1362 1330 1329
f 1329 1361 1362
f 1394 1362 1361
f 1361 1393 1394
f 1426 1394 1393
f 1393 1425 1426
f 1458 1426 1425
f 1425 1457 1458
f 1490 1458 1457
f 1457 1489 1490
f 1522 1490 1489
f 1489 1521 1522
f 1554 1522 1521
f 1521 1553 1554
f 1586 1554 1553
f 1553 1585 1586
f 1618 1586 1585
f 1585 1617 1618
f 1650 1618 1617
f 1617 1649 1650
f 1682 1650 1649
f 1649 1681 1682
f 1714 1682 1681
f 1681 1713 1714
f 1746 1714 1713
f 1713 1745 1746
f 1778 1746 1745
f 1745 1777 1778
f 1810 1778 1777
f 1777 1809 1810
f 1842 1810 1809
f 1809 1841 1842
f 1874 1842 1841
f 1841 1873 1874
f 1906 1874 1873
f 1873 1905 1906
f 947 915 914
f 914 946 947
f 979 947 946
f 946 978 979
f 1011 979 978
f 978 1010 1011
f 1043 1011 1010
f 1010 1042 1043
f 1075 1043 1042
f 1042 1074 1075
f 1107 1075 1074
f 1074 1106 1107
f 1139 1107 1106
f 1106 1138 1139
f 1171 1139 1138
f 1138 1170 1171
f 1203 1171 1170
f 1170 1202 1203
f 1235 1203 1202
f 1202 1234 1235
f 1267 1235 1234
f 1234 1266 1267
f 1299 1267 1266
f 1266 1298 1299
f 1331 1299 1298
f 1298 1330 1331
f 1363 1331 1330
f 1330 1362 1363
f 1395 1363 1362
f 1362 1394 1395
f 1427 1395 1394
f 1394 1426 1427
f 1459 1427 1426
f 1426 1458 1459
f 1491 1459 1458
f 1458 1490 1491
f 1523 1491 1490
f 1490 1522 1523
f 1555 1523 1522
f 1522 1554 1555
f 1587 1555 1554
f 1554 1586 1587
f 1619 1587 1586
f 1586 1618 1619
f 1651 1619 1618
f 1618 1650 1651
f 1683 1651 1650
f 1650 1682 1683
f 1715 1683 1682
f 1682 1714 1715
f 1747 1715 1714
f 1714 1746 1747
f 1779 1747 1746
f 1746 1778 1779
f 1811 1779 1778
f 1778 1810 1811
f 1843 1811 1810
f 1810 1842 1843
f 1875 1843 1842
f 1842 1874 1875
f 1907 1875 1874
f 1874 1906 1907
f 948 916 915
f 915 947 948
f 980 948 947
f 947 979 980
f 1012 980 979
f 979 1011 1012
f 1044 1012 1011
f 1011 1043 1044
f 1076 1044 1043
f 1043 1075 1076
f 1108 1076 1075
f 1075 1107 1108
f 1140 1108 1107
f 1107 1139 1140
f 1172 1140 1139
f 1139 1171 1172
f 1204 1172 1171
f 1171 1203 1204
f 1236 1204 1203
f 1203 1235 1236
f 1268 1236 1235
f 1235 1267 1268
f 1300 1268 1267
f 1267 1299 1300
f 1332 1300 1299
f 1299 1331 1332
f 1364 1332 1331
f 1331 1363 1364
f 1396 1364 1363
f 1363 1395 1396
f 1428 1396 1395
f 1395 1427 1428
f 1460 1428 1427
f 1427 1459 1460
f 1492 1460 1459
f 1459 1491 1492
f 1524 1492 1491
f 1491 1523 1524
f 1556 1524 1523
f 1523 1555 1556
f 1588 1556 1555
f 1555 1587 1588
f 1620 1588 1587
f 1587 1619 1620
f 1652 1620 1619
f 1619 1651 1652
f 1684 1652 1651
f 1651 1683 1684
f 1716 1684 1683
f 1683 1715 1716
f 1748 1716 1715
f 1715 1747 1748
f 1780 1748 1747
f 1747 1779 1780
f 1812 1780 1779
f 1779 1811 1812
f 1844 1812 1811
f 1811 1843 1844
f 1876 1844 1843
f 1843 1875 1876
f 1908 1876 1875
f 1875 1907 1908
f 949 917 916
f 916 948 949
f 981 949 948
f 948 980 981
f 1013 981 980
f 980 1012 1013
f 1045 1013 1012
f 1012 1044 1045
f 1077 1045 1044
f 1044 1076 1077
f 1109 1077 1076
f 1076 1108 1109
f 1141 1109 1108
f 1108 1140 1141
f 1173 1141 1140
f 1140 1172 1173
f 1205 1173 1172
f 1172 1204 1205
f 1237 1205 1204
f 1204 1236 1237
f 1269 1237 1236
f 1236 1268 1269
f 1301 1269 1268
f 1268 1300 1301
f 1333 1301 1300
f 1300 1332 1333
f 1365 1333 1332
f 1332 1364 1365
f 1397 1365 1364
f 1364 1396 1397
f 1429 1397 1396
f 1396 1428 1429
f 1461 1429 1428
f 1428 1460 1461
f 1493 1461 1460
f 1460 1492 1493
f 1525 1493 1492
f 1492 1524 1525
f 1557 1525 1524
f 1524 1556 1557
f 1589 1557 1556
f 1556 1588 1589
f 1621 1589 1588
f 1588 1620 1621
f 1653 1621 1620
f 1620 1652 1653
f 1685 1653 1652
f 1652 1684 1685
f 1717 1685 1684
f 1684 1716 1717
f 1749 1717 1716
f 1716 1748 1749
f 1781 1749 1748
f 1748 1780 1781
f 1813 1781 1780
f 1780 1812 1813
f 1845 1813 1812
f 1812 1844 1845
f 1877 1845 1844
f 1844 1876 1877
f 1909 1877 1876
f 1876 1908 1909
f 950 918 917
f 917 949 950
f 982 950 949
f 949 981 982
f 1014 982 981
f 981 1013 1014
f 1046 1014 1013
f 1013 1045 1046
f 1078 1046 1045
f 1045 1077 1078
f 1110 1078 1077
f 1077 1109 1110
f 1142 1110 1109
f 1109 1141 1142
f 1174 1142 1141
f 1141 1173 1174
f 1206 1174 1173
f 1173 1205 1206
f 1238 1206 1205
f 1205 1237 1238
f 1270 1238 1237
f 1237 1269 1270
f 1302 1270 1269
f 1269 1301 1302
f 1334 1302 1301
f 1301 1333 1334
f 1366 1334 1333
f 1333 1365 1366
f 1398 1366 1365
f 1365 1397 1398
f 1430 1398 1397
f 1397 1429 1430
f 1462 1430 1429
f 1429 1461 1462
f 1494 1462 1461
f 1461 1493 1494
f 1526 1494 1493
f 1493 1525 1526
f 1558 1526 1525
f 1525 1557 1558
f 1590 1558 1557
f 1557 1589 1590
f 1622 1590 1589
f 1589 1621 1622
f 1654 1622 1621
f 1621 1653 1654
f 1686 1654 1653
f 1653 1685 1686
f 1718 1686 1685
f 1685 1717 1718
f 1750 1718 1717
f 1717 1749 1750
f 1782 1750 1749
f 1749 1781 1782
f 1814 1782 1781
f 1781 1813 1814
f 1846 1814 1813
f 1813 1845 1846
f 1878 1846 1845
f 1845 1877 1878
f 1910 1878 1877
f 1877 1909 1910
f 951 919 918
f 918 950 951
f 983 951 950
f 950 982 983
f 1015 983 982
f 982 1014 1015
f 1047 1015 1014
f 1014 1046 1047
f 1079 1047 1046
f 1046 1078 1079
f 1111 1079 1078
f 1078 1110 1111
f 1143 1111 1110
f 1110 1142 1143
f 1175 1143 1142
f 1142 1174 1175
f 1207 1175 1174
f 1174 1206 1207
f 1239 1207 1206
f 1206 1238 1239
f 1271 1239 1238
f 1238 1270 1271
f 1303 1271 1270
f 1270 1302 1303
f 1335 1303 1302
f 1302 1334 1335
f 1367 1335 1334
f 1334 1366 1367
f 1399 1367 1366
f 1366 1398 1399
f 1431 1399 1398
f 1398 1430 1431
f 1463 1431 1430
f 1430 1462 1463
f 1495 1463 1462
f 1462 1494 1495
f 1527 1495 1494
f 1494 1526 1527
f 1559 1527 1526
f 1526 1558 1559
f 1591 1559 1558
f 1558 1590 1591
f 1623 1591 1590
f 1590 1622 1623
f 1655 1623 1622
f 1622 1654 1655
f 1687 1655 1654
f 1654 1686 1687
f 1719 1687 1686
f 1686 1718 1719
f 1751 1719 1718
f 1718 1750 1751
f 1783 1751 1750
f 1750 1782 1783
f 1815 1783 1782
f 1782 1814 1815
f 1847 1815 1814
f 1814 1846 1847
f 1879 1847 1846
f 1846 1878 1879
f 1911 1879 1878
f 1878 1910 1911
f 952 920 919
f 919 951 952
f 984 952 951
f 951 983 984
f 1016 984 983
f 983 1015 1016
f 1048 1016 1015
f 1015 1047 1048
f 1080 1048 1047
f 1047 1079 1080
f 1112 1080 1079
f 1079 1111 1112
f 1144 1112 1111
f 1111 1143 1144
f 1176 1144 1143
f 1143 1175 1176
f 1208 1176 1175
f 1175 1207 1208
f 1240 1208 1207
f 1207 1239 1240
f 1272 1240 1239
f 1239 1271 1272
f 1304 1272 1271
f 1271 1303 1304
f 1336 1304 1303
f 1303 1335 1336
f 1368 1336 1335
f 1335 1367 1368
f 1400 1368 1367
f 1367 1399 1400
f 1432 1400 1399
f 1399 1431 1432
f 1464 1432 1431
f 1431 1463 1464
f 1496 1464 1463
f 1463 1495 1496
f 1528 1496 1495
f 1495 1527 1528
f 1560 1528 1527
f 1527 1559 1560
f 1592 1560 1559
f 1559 1591 1592
f 1624 1592 1591
f 1591 1623 1624
f 1656 1624 1623
f 1623 1655 1656
f 1688 1656 1655
f 1655 1687 1688
f 1720 1688 1687
f 1687 1719 1720
f 1752 1720 1719
f 1719 1751 1752
f 1784 1752 1751
f 1751 1783 1784
f 1816 1784 1783
f 1783 1815 1816
f 1848 1816 1815
f 1815 1847 1848
f 1880 1848 1847
f 1847 1879 1880
f 1912 1880 1879
f 1879 1911 1912
f 953 921 920
f 920 952 953
f 985 953 952
f 952 984 985
f 1017 985 984
f 984 1016 1017
f 1049 1017 1016
f 1016 1048 1049
f 1081 1049 1048
f 1048 1080 1081
f 1113 1081 1080
f 1080 1112 1113
f 1145 1113 1112
f 1112 1144 1145
f 1177 1145 1144
f 1144 1176 1177
f 1209 1177 1176
f 1176 1208 1209
f 1241 1209 1208
f 1208 1240 1241
f 1273 1241 1240
f 1240 1272 1273
f 1305 1273 1272
f 1272 1304 1305
f 1337 1305 1304
f 1304 1336 1337
f 1369 1337 1336
f 1336 1368 1369
f 1401 1369 1368
f 1368 1400 1401
f 1433 1401 1400
f 1400 1432 1433
f 1465 1433 1432
f 1432 1464 1465
f 1497 1465 1464
f 1464 1496 1497
f 1529 1497 1496
f 1496 1528 1529
f 1561 1529 1528
f 1528 1560 1561
f 1593 1561 1560
f 1560 1592 1593
f 1625 1593 1592
f 1592 1624 1625
f 1657 1625 1624
f 1624 1656 1657
f 1689 1657 1656
f 1656 1688 1689
f 1721 1689 1688
f 1688 1720 1721
f 1753 1721 1720
f 1720 1752 1753
f 1785 1753 1752
f 1752 1784 1785
f 1817 1785 1784
f 1784 1816 1817
f 1849 1817 1816
f 1816 1848 1849
f 1881 1849 1848
f 1848 1880 1881
f 1913 1881 1880
f 1880 1912 1913
f 954 922 921
f 921 953 954
f 986 954 953
f 953 985 986
f 1018 986 985
f 985 1017 1018
f 1050 1018 1017
f 1017 1049 1050
f 1082 1050 1049
f 1049 1081 1082
f 1114 1082 1081
f 1081 1113 1114
f 1146 1114 1113
f 1113 1145 1146
f 1178 1146 1145
f 1145 1177 1178
f 1210 1178 1177
f 1177 1209 1210
f 1242 1210 1209
f 1209 1241 1242
f 1274 1242 1241
f 1241 1273 1274
f 1306 1274 1273
f 1273 1305 1306
f 1338 1306 1305
f 1305 1337 1338
f 1370 1338 1337
f 1337 1369 1370
f 1402 1370 1369
f 1369 1401 1402
f 1434 1402 1401
f 1401 1433 1434
f 1466 1434 1433
f 1433 1465 1466
f 1498 1466 1465
f 1465 1497 1498
f 1530 1498 1497
f 1497 1529 1530
f 1562 1530 1529
f 1529 1561 1562
f 1594 1562 1561
f 1561 1593 1594
f 1626 1594 1593
f 1593 1625 1626
f 1658 1626 1625
f 1625 1657 1658
f 1690 1658 1657
f 1657 1689 1690
f 1722 1690 1689
f 1689 1721 1722
f 1754 1722 1721
f 1721 1753 1754
f 1786 1754 1753
f 1753 1785 1786
f 1818 1786 1785
f 1785 1817 1818
f 1850 1818 1817
f 1817 1849 1850
f 1882 1850 1849
f 1849 1881 1882
f 1914 1882 1881
f 1881 1913 1914
f 955 923 922
f 922 954 955
f 987 955 954
f 954 986 987
f 1019 987 986
f 986 1018 1019
f 1051 1019 1018
f 1018 1050 1051
f 1083 1051 1050
f 1050 1082 1083
f 1115 1083 1082
f 1082 1114 1115
f 1147 1115 1114
f 1114 1146 1147
f 1179 1147 1146
f 1146 1178 1179
f 1211 1179 1178
f 1178 1210 1211
f 1243 1211 1210
f 1210 1242 1243
f 1275 1243 1242
f 1242 1274 1275
f 1307 1275 1274
f 1274 1306 1307
f 1339 1307 1306
f 1306 1338 1339
f 1371 1339 1338
f 1338 1370 1371
f 1403 1371 1370
f 1370 1402 1403
f 1435 1403 1402
f 1402 1434 1435
f 1467 1435 1434
f 1434 1466 1467
f 1499 1467 1466
f 1466 1498 1499
f 1531 1499 1498
f 1498 1530 1531
f 1563 1531 1530
f 1530 1562 1563
f 1595 1563 1562
f 1562 1594 1595
f 1627 1595 1594
f 1594 1626 1627
f 1659 1627 1626
f 1626 1658 1659
f 1691 1659 1658
f 1658 1690 1691
f 1723 1691 1690
f 1690 1722 1723
f 1755 1723 1722
f 1722 1754 1755
f 1787 1755 1754
f 1754 1786 1787
f 1819 1787 1786
f 1786 1818 1819
f 1851 1819 1818
f 1818 1850 1851
f 1883 1851 1850
f 1850 1882 1883
f 1915 1883 1882
f 1882 1914 1915
f 956 924 923
f 923 955 956
f 988 956 955
f 955 987 988
f 1020 988 987
f 987 1019 1020
f 1052 1020 1019
f 1019 1051 1052
f 1084 1052 1051
f 1051 1083 1084
f 1116 1084 1083
f 1083 1115 1116
f 1148 1116 1115
f 1115 1147 1148
f 1180 1148 1147
f 1147 1179 1180
f 1212 1180 1179
f 1179 1211 1212
f 1244 1212 1211
f 1211 1243 1244
f 1276 1244 1243
f 1243 1275 1276
f 1308 1276 1275
f 1275 1307 1308
f 1340 1308 1307
f 1307 1339 1340
f 1372 1340 1339
f 1339 1371 1372
f 1404 1372 1371
f 1371 1403 1404
f 1436 1404 1403
f 1403 1435 1436
f 1468 1436 1435
f 1435 1467 1468
f 1500 1468 1467
f 1467 1499 1500
f 1532 1500 1499
f 1499 1531 1532
f 1564 1532 1531
f 1531 1563 1564
f 1596 1564 1563
f 1563 1595 1596
f 1628 1596 1595
f 1595 1627 1628
f 1660 1628 1627
f 1627 1659 1660
f 1692 1660 1659
f 1659 1691 1692
f 1724 1692 1691
f 1691 1723 1724
f 1756 1724 1723
f 1723 1755 1756
f 1788 1756 1755
f 1755 1787 1788
f 1820 1788 1787
f 1787 1819 1820
f 1852 1820 1819
f 1819 1851 1852
f 1884 1852 1851
f 1851 1883 1884
f 1916 1884 1883
f 1883 1915 1916
f 957 925 924
f 924 956 957
f 989 957 956
f 956 988 989
f 1021 989 988
f 988 1020 1021
f 1053 1021 1020
f 1020 1052 1053
f 1085 1053 1052
f 1052 1084 1085
f 1117 1085 1084
f 1084 1116 1117
f 1149 1117 1116
f 1116 1148 1149
f 1181 1149 1148
f 1148 1180 1181
f 1213 1181 1180
f 1180 1212 1213
f 1245 1213 1212
f 1212 1244 1245
f 1277 1245 1244
f 1244 1276 1277
f 1309 1277 1276
f 1276 1308 1309
f 1341 1309 1308
f 1308 1340 1341
f 1373 1341 1340
f 1340 1372 1373
f 1405 1373 1372
f 1372 1404 1405
f 1437 1405 1404
f 1404 1436 1437
f 1469 1437 1436
f 1436 1468 1469
f 1501 1469 1468
f 1468 1500 1501
f 1533 1501 1500
f 1500 1532 1533
f 1565 1533 1532
f 1532 1564 1565
f 1597 1565 1564
f 1564 1596 1597
f 1629 1597 1596
f 1596 1628 1629
f 1661 1629 1628
f 1628 1660 1661
f 1693 1661 1660
f 1660 1692 1693
f 1725 1693 1692
f 1692 1724 1725
f 1757 1725 1724
f 1724 1756 1757
f 1789 1757 1756
f 1756 1788 1789
f 1821 1789 1788
f 1788 1820 1821
f 1853 1821 1820
f 1820 1852 1853
f 1885 1853 1852
f 1852 1884 1885
f 1917 1885 1884
f 1884 1916 1917
f 958 926 925
f 925 957 958
f 990 958 957
f 957 989 990
f 1022 990 989
f 989 1021 1022
f 1054 1022 1021
f 1021 1053 1054
f 1086 1054 1053
f 1053 1085 1086
f 1118 1086 1085
f 1085 1117 1118
f 1150 1118 1117
f 1117 1149 1150
f 1182 1150 1149
f 1149 1181 1182
f 1214 1182 1181
f 1181 1213 1214
f 1246 1214 1213
f 1213 1245 1246
f 1278 1246 1245
f 1245 1277 1278
f 1310 1278 1277
f 1277 1309 1310
f 1342 1310 1309
f 1309 1341 1342
f 1374 1342 1341
f 1341 1373 1374
f 1406 1374 1373
f 1373 1405 1406
f 1438 1406 1405
f 1405 1437 1438
f 1470 1438 1437
f 1437 1469 1470
f 1502 1470 1469
f 1469 1501 1502
f 1534 1502 1501
f 1501 1533 1534
f 1566 1534 1533
f 1533 1565 1566
f 1598 1566 1565
f 1565 1597 1598
f 1630 1598 1597
f 1597 1629 1630
f 1662 1630 1629
f 1629 1661 1662
f 1694 1662 1661
f 1661 1693 1694
f 1726 1694 1693
f 1693 1725 1726
f 1758 1726 1725
f 1725 1757 1758
f 1790 1758 1757
f 1757 1789 1790
f 1822 1790 1789
f 1789 1821 1822
f 1854 1822 1821
f 1821 1853 1854
f 1886 1854 1853
f 1853 1885 1886
f 1918 1886 1885
f 1885 1917 1918
f 959 927 926
f 926 958 959
f 991 959 958
f 958 990 991
f 1023 991 990
f 990 1022 1023
f 1055 1023 1022
f 1022 1054 1055
f 1087 1055 1054
f 1054 1086 1087
f 1119 1087 1086
f 1086 1118 1119
f 1151 1119 1118
f 1118 1150 1151
f 1183 1151 1150
f 1150 1182 1183
f 1215 1183 1182
f 1182 1214 1215
f 1247 1215 1214
f 1214 1246 1247
f 1279 1247 1246
f 1246 1278 1279
f 1311 1279 1278
f 1278 1310 1311
f 1343 1311 1310
f 1310 1342 1343
f 1375 1343 1342
f 1342 1374 1375
f 1407 1375 1374
f 1374 1406 1407
f 1439 1407 1406
f 1406 1438 1439
f 1471 1439 1438
f 1438 1470 1471
f 1503 1471 1470
f 1470 1502 1503
f 1535 1503 1502
f 1502 1534 1535
f 1567 1535 1534
f 1534 1566 1567
f 1599 1567 1566
f 1566 1598 1599
f 1631 1599 1598
f 1598 1630 1631
f 1663 1631 1630
f 1630 1662 1663
f 1695 1663 1662
f 1662 1694 1695
f 1727 1695 1694
f 1694 1726 1727
f 1759 1727 1726
f 1726 1758 1759
f 1791 1759 1758
f 1758 1790 1791
f 1823 1791 1790
f 1790 1822 1823
f 1855 1823 1822
f 1822 1854 1855
f 1887 1855 1854
f 1854 1886 1887
f 1919 1887 1886
f 1886 1918 1919
f 960 928 927
f 927 959 960
f 992 960 959
f 959 991 992
f 1024 992 991
f 991 1023 1024
f 1056 1024 1023
f 1023 1055 1056
f 1088 1056 1055
f 1055 1087 1088
f 1120 1088 1087
f 1087 1119 1120
f 1152 1120 1119
f 1119 1151 1152
f 1184 1152 1151
f 1151 1183 1184
f 1216 1184 1183
f 1183 1215 1216
f 1248 1216 1215
f 1215 1247 1248
f 1280 1248 1247
f 1247 1279 1280
f 1312 1280 1279
f 1279 1311 1312
f 1344 1312 1311
f 1311 1343 1344
f 1376 1344 1343
f 1343 1375 1376
f 1408 1376 1375
f 1375 1407 1408
f 1440 1408 1407
f 1407 1439 1440
f 1472 1440 1439
f 1439 1471 1472
f 1504 1472 1471
f 1471 1503 1504
f 1536 1504 1503
f 1503 1535 1536
f 1568 1536 1535
f 1535 1567 1568
f 1600 1568 1567
f 1567 1599 1600
f 1632 1600 1599
f 1599 1631 1632
f 1664 1632 1631
f 1631 1663 1664
f 1696 1664 1663
f 1663 1695 1696
f 1728 1696 1695
f 1695 1727 1728
f 1760 1728 1727
f 1727 1759 1760
f 1792 1760 1759
f 1759 1791 1792
f 1824 1792 1791
f 1791 1823 1824
f 1856 1824 1823
f 1823 1855 1856
f 1888 1856 1855
f 1855 1887 1888
f 1920 1888 1887
f 1887 1919 1920
f 961 929 928
f 928 960 961
f 993 961 960
f 960 992 993
f 1025 993 992
f 992 1024 1025
f 1057 1025 1024
f 1024 1056 1057
f 1089 1057 1056
f 1056 1088 1089
f 1121 1089 1088
f 1088 1120 1121
f 1153 1121 1120
f 1120 1152 1153
f 1185 1153 1152
f 1152 1184 1185
f 1217 1185 1184
f 1184 1216 1217
f 1249 1217 1216
f 1216 1248 1249
f 1281 1249 1248
f 1248 1280 1281
f 1313 1281 1280
f 1280 1312 1313
f 1345 1313 1312
f 1312 1344 1345
f 1377 1345 1344
f 1344 1376 1377
f 1409 1377 1376
f 1376 1408 1409
f 1441 1409 1408
f 1408 1440 1441
f 1473 1441 1440
f 1440 1472 1473
f 1505 1473 1472
f 1472 1504 1505
f 1537 1505 1504
f 1504 1536 1537
f 1569 1537 1536
f 1536 1568 1569
f 1601 1569 1568
f 1568 1600 1601
f 1633 1601 1600
f 1600 1632 1633
f 1665 1633 1632
f 1632 1664 1665
f 1697 1665 1664
f 1664 1696 1697
f 1729 1697 1696
f 1696 1728 1729
f 1761 1729 1728
f 1728 1760 1761
f 1793 1761 1760
f 1760 1792 1793
f 1825 1793 1792
f 1792 1824 1825
f 1857 1825 1824
f 1824 1856 1857
f 1889 1857 1856
f 1856 1888 1889
f 1921 1889 1888
f 1888 1920 1921
f 962 930 929
f 929 961 962
f 994 962 961
f 961 993 994
f 1026 994 993
f 993 1025 1026
f 1058 1026 1025
f 1025 1057 1058
f 1090 1058 1057
f 1057 1089 1090
f 1122 1090 1089
f 1089 1121 1122
f 1154 1122 1121
f 1121 1153 1154
f 1186 1154 1153
f 1153 1185 1186
f 1218 1186 1185
f 1185 1217 1218
f 1250 1218 1217
f 1217 1249 1250
f 1282 1250 1249
f 1249 1281 1282
f 1314 1282 1281
f 1281 1313 1314
f 1346 1314 1313
f 1313 1345 1346
f 1378 1346 1345
f 1345 1377 1378
f 1410 1378 1377
f 1377 1409 1410
f 1442 1410 1409
f 1409 1441 1442
f 1474 1442 1441
f 1441 1473 1474
f 1506 1474 1473
f 1473 1505 1506
f 1538 1506 1505
f 1505 1537 1538
f 1570 1538 1537
f 1537 1569 1570
f 1602 1570 1569
f 1569 1601 1602
f 1634 1602 1601
f 1601 1633 1634
f 1666 1634 1633
f 1633 1665 1666
f 1698 1666 1665
f 1665 1697 1698
f 1730 1698 1697
f 1697 1729 1730
f 1762 1730 1729
f 1729 1761 1762
f 1794 1762 1761
f 1761 1793 1794
f 1826 1794 1793
f 1793 1825 1826
f 1858 1826 1825
f 1825 1857 1858
f 1890 1858 1857
f 1857 1889 1890
f 1922 1890 1889
f 1889 1921 1922
f 963 931 930
f 930 962 963
f 995 963 962
f 962 994 995
f 1027 995 994
f 994 1026 1027
f 1059 1027 1026
f 1026 1058 1059
f 1091 1059 1058
f 1058 1090 1091
f 1123 1091 1090
f 1090 1122 1123
f 1155 1123 1122
f 1122 1154 1155
f 1187 1155 1154
f 1154 1186 1187
f 1219 1187 1186
f 1186 1218 1219
f 1251 1219 1218
f 1218 1250 1251
f 1283 1251 1250
f 1250 1282 1283
f 1315 1283 1282
f 1282 1314 1315
f 1347 1315 1314
f 1314 1346 1347
f 1379 1347 1346
f 1346 1378 1379
f 1411 1379 1378
f 1378 1410 1411
f 1443 1411 1410
f 1410 1442 1443
f 1475 1443 1442
f 1442 1474 1475
f 1507 1475 1474
f 1474 1506 1507
f 1539 1507 1506
f 1506 1538 1539
f 1571 1539 1538
f 1538 1570 1571
f 1603 1571 1570
f 1570 1602 1603
f 1635 1603 1602
f 1602 1634 1635
f 1667 1635 1634
f 1634 1666 1667
f 1699 1667 1666
f 1666 1698 1699
f 1731 1699 1698
f 1698 1730 1731
f 1763 1731 1730
f 1730 1762 1763
f 1795 1763 1762
f 1762 1794 1795
f 1827 1795 1794
f 1794 1826 1827
f 1859 1827 1826
f 1826 1858 1859
f 1891 1859 1858
f 1858 1890 1891
f 1923 1891 1890
f 1890 1922 1923
f 964 932 931
f 931 963 964
f 996 964 963
f 963 995 996
f 1028 996 995
f 995 1027 1028
f 1060 1028 1027
f 1027 1059 1060
f 1092 1060 1059
f 1059 1091 1092
f 1124 1092 1091
f 1091 1123 1124
f 1156 1124 1123
f 1123 1155 1156
f 1188 1156 1155
f 1155 1187 1188
f 1220 1188 1187
f 1187 1219 1220
f 1252 1220 1219
f 1219 1251 1252
f 1284 1252 1251
f 1251 1283 1284
f 1316 1284 1283
f 1283 1315 1316
f 1348 1316 1315
f 1315 1347 1348
f 1380 1348 1347
f 1347 1379 1380
f 1412 1380 1379
f 1379 1411 1412
f 1444 1412 1411
f 1411 1443 1444
f 1476 1444 1443
f 1443 1475 1476
f 1508 1476 1475
f 1475 1507 1508
f 1540 1508 1507
f 1507 1539 1540
f 1572 1540 1539
f 1539 1571 1572
f 1604 1572 1571
f 1571 1603 1604
f 1636 1604 1603
f 1603 1635 1636
f 1668 1636 1635
f 1635 1667 1668
f 1700 1668 1667
f 1667 1699 1700
f 1732 1700 1699
f 1699 1731 1732
f 1764 1732 1731
f 1731 1763 1764
f 1796 1764 1763
f 1763 1795 1796
f 1828 1796 1795
f 1795 1827 1828
f 1860 1828 1827
f 1827 1859 1860
f 1892 1860 1859
f 1859 1891 1892
f 1924 1892 1891
f 1891 1923 1924
f 965 933 932
f 932 964 965
f 997 965 964
f 964 996 997
f 1029 997 996
f 996 1028 1029
f 1061 1029 1028
f 1028 1060 1061
f 1093 1061 1060
f 1060 1092 1093
f 1125 1093 1092
f 1092 1124 1125
f 1157 1125 1124
f 1124 1156 1157
f 1189 1157 1156
f 1156 1188 1189
f 1221 1189 1188
f 1188 1220 1221
f 1253 1221 1220
f 1220 1252 1253
f 1285 1253 1252
f 1252 1284 1285
f 1317 1285 1284
f 1284 1316 1317
f 1349 1317 1316
f 1316 1348 1349
f 1381 1349 1348
f 1348 1380 1381
f 1413 1381 1380
f 1380 1412 1413
f 1445 1413 1412
f 1412 1444 1445
f 1477 1445 1444
f 1444 1476 1477
f 1509 1477 1476
f 1476 1508 1509
f 1541 1509 1508
f 1508 1540 1541
f 1573 1541 1540
f 1540 1572 1573
f 1605 1573 1572
f 1572 1604 1605
f 1637 1605 1604
f 1604 1636 1637
f 1669 1637 1636
f 1636 1668 1669
f 1701 1669 1668
f 1668 1700 1701
f 1733 1701 1700
f 1700 1732 1733
f 1765 1733 1732
f 1732 1764 1765
f 1797 1765 1764
f 1764 1796 1797
f 1829 1797 1796
f 1796 1828 1829
f 1861 1829 1828
f 1828 1860 1861
f 1893 1861 1860
f 1860 1892 1893
f 1925 1893 1892
f 1892 1924 1925
f 966 934 933
f 933 965 966
f 998 966 965
f 965 997 998
f 1030 998 997
f 997 1029 1030
f 1062 1030 1029
f 1029 1061 1062
f 1094 1062 1061
f 1061 1093 1094
f 1126 1094 1093
f 1093 1125 1126
f 1158 1126 1125
f 1125 1157 1158
f 1190 1158 1157
f 1157 1189 1190
f 1222 1190 1189
f 1189 1221 1222
f 1254 1222 1221
f 1221 1253 1254
f 1286 1254 1253
f 1253 1285 1286
f 1318 1286 1285
f 1285 1317 1318
f 1350 1318 1317
f 1317 1349 1350
f 1382 1350 1349
f 1349 1381 1382
f 1414 1382 1381
f 1381 1413 1414
f 1446 1414 1413
f 1413 1445 1446
f 1478 1446 1445
f 1445 1477 1478
f 1510 1478 1477
f 1477 1509 1510
f 1542 1510 1509
f 1509 1541 1542
f 1574 1542 1541
f 1541 1573 1574
f 1606 1574 1573
f 1573 1605 1606
f 1638 1606 1605
f 1605 1637 1638
f 1670 1638 1637
f 1637 1669 1670
f 1702 1670 1669
f 1669 1701 1702
f 1734 1702 1701
f 1701 1733 1734
f 1766 1734 1733
f 1733 1765 1766
f 1798 1766 1765
f 1765 1797 1798
f 1830 1798 1797
f 1797 1829 1830
f 1862 1830 1829
f 1829 1861 1862
f 1894 1862 1861
f 1861 1893 1894
f 1926 1894 1893
f 1893 1925 1926
f 967 935 934
f 934 966 967
f 999 967 966
f 966 998 999
f 1031 999 998
f 998 1030 1031
f 1063 1031 1030
f 1030 1062 1063
f 1095 1063 1062
f 1062 1094 1095
f 1127 1095 1094
f 1094 1126 1127
f 1159 1127 1126
f 1126 1158 1159
f 1191 1159 1158
f 1158 1190 1191
f 1223 1191 1190
f 1190 1222 1223
f 1255 1223 1222
f 1222 1254 1255
f 1287 1255 1254
f 1254 1286 1287
f 1319 1287 1286
f 1286 1318 1319
f 1351 1319 1318
f 1318 1350 1351
f 1383 1351 1350
f 1350 1382 1383
f 1415 1383 1382
f 1382 1414 1415
f 1447 1415 1414
f 1414 1446 1447
f 1479 1447 1446
f 1446 1478 1479
f 1511 1479 1478
f 1478 1510 1511
f 1543 1511 1510
f 1510 1542 1543
f 1575 1543 1542
f 1542 1574 1575
f 1607 1575 1574
f 1574 1606 1607
f 1639 1607 1606
f 1606 1638 1639
f 1671 1639 1638
f 1638 1670 1671
f 1703 1671 1670
f 1670 1702 1703
f 1735 1703 1702
f 1702 1734 1735
f 1767 1735 1734
f 1734 1766 1767
f 1799 1767 1766
f 1766 1798 1799
f 1831 1799 1798
f 1798 1830 1831
f 1863 1831 1830
f 1830 1862 1863
f 1895 1863 1862
f 1862 1894 1895
f 1927 1895 1894
f 1894 1926 1927
f 968 936 935
f 935 967 968
f 1000 968 967
f 967 999 1000
f 1032 1000 999
f 999 1031 1032
f 1064 1032 1031
f 1031 1063 1064
f 1096 1064 1063
f 1063 1095 1096
f 1128 1096 1095
f 1095 1127 1128
f 1160 1128 1127
f 1127 1159 1160
f 1192 1160 1159
f 1159 1191 1192
f 1224 1192 1191
f 1191 1223 1224
f 1256 1224 1223
f 1223 1255 1256
f 1288 1256 1255
f 1255 1287 1288
f 1320 1288 1287
f 1287 1319 1320
f 1352 1320 1319
f 1319 1351 1352
f 1384 1352 1351
f 1351 1383 1384
f 1416 1384 1383
f 1383 1415 1416
f 1448 1416 1415
f 1415 1447 1448
f 1480 1448 1447
f 1447 1479 1480
f 1512 1480 1479
f 1479 1511 1512
f 1544 1512 1511
f 1511 1543 1544
f 1576 1544 1543
f 1543 1575 1576
f 1608 1576 1575
f 1575 1607 1608
f 1640 1608 1607
f 1607 1639 1640
f 1672 1640 1639
f 1639 1671 1672
f 1704 1672 1671
f 1671 1703 1704
f 1736 1704 1703
f 1703 1735 1736
f 1768 1736 1735
f 1735 1767 1768
f 1800 1768 1767
f 1767 1799 1800
f 1832 1800 1799
f 1799 1831 1832
f 1864 1832 1831
f 1831 1863 1864
f 1896 1864 1863
f 1863 1895 1896
f 1928 1896 1895
f 1895 1927 1928
f 969 937 936
f 936 968 969
f 1001 969 968
f 968 1000 1001
f 1033 1001 1000
f 1000 1032 1033
f 1065 1033 1032
f 1032 1064 1065
f 1097 1065 1064
f 1064 1096 1097
f 1129 1097 1096
f 1096 1128 1129
f 1161 1129 1128
f 1128 1160 1161
f 1193 1161 1160
f 1160 1192 1193
f 1225 1193 1192
f 1192 1224 1225
f 1257 1225 1224
f 1224 1256 1257
f 1289 1257 1256
f 1256 1288 1289
f 1321 1289 1288
f 1288 1320 1321
f 1353 1321 1320
f 1320 1352 1353
f 1385 1353 1352
f 1352 1384 1385
f 1417 1385 1384
f 1384 1416 1417
f 1449 1417 1416
f 1416 1448 1449
f 1481 1449 1448
f 1448 1480 1481
f 1513 1481 1480
f 1480 1512 1513
f 1545 1513 1512
f 1512 1544 1545
f 1577 1545 1544
f 1544 1576 1577
f 1609 1577 1576
f 1576 1608 1609
f 1641 1609 1608
f 1608 1640 1641
f 1673 1641 1640
f 1640 1672 1673
f 1705 1673 1672
f 1672 1704 1705
f 1737 1705 1704
f 1704 1736 1737
f 1769 1737 1736
f 1736 1768 1769
f 1801 1769 1768
f 1768 1800 1801
f 1833 1801 1800
f 1800 1832 1833
f 1865 1833 1832
f 1832 1864 1865
f 1897 1865 1864
f 1864 1896 1897
f 1929 1897 1896
f 1896 1928 1929
