v 959.16 78.3014 -6523.68
v 959.16 77.6619 -6523.65
v 959.075 78.3014 -6523.68
v 959.075 77.6619 -6523.65
v 959.039 78.3014 -6523.73
v 959.015 77.6619 -6523.72
v 959.023 77.9264 -6523.91
v 959.015 77.6619 -6523.92
v 959.197 78.3014 -6523.73
v 959.212 77.9264 -6523.91
v 959.22 77.6619 -6523.72
v 959.22 77.6619 -6523.92
v 959.16 77.6619 -6523.96
v 959.16 77.9264 -6523.95
v 959.075 77.6619 -6523.96
v 959.075 77.9264 -6523.95
v 959.075 77.6619 -6523.65
v 959.015 77.6619 -6523.72
v 959.075 78.3014 -6523.68
v 959.039 78.3014 -6523.73
v 959.039 78.3014 -6523.73
v 959.023 77.9264 -6523.91
v 959.075 78.3014 -6523.76
v 959.075 77.9264 -6523.95
v 959.075 77.6619 -6523.96
v 959.075 77.9264 -6523.95
v 959.015 77.6619 -6523.92
v 959.023 77.9264 -6523.91
v 959.22 77.6619 -6523.92
v 959.16 77.6619 -6523.96
v 959.22 77.6619 -6523.72
v 959.075 77.6619 -6523.96
v 959.015 77.6619 -6523.92
v 959.015 77.6619 -6523.72
v 959.16 77.6619 -6523.65
v 959.075 77.6619 -6523.65
v 959.16 77.6619 -6523.96
v 959.22 77.6619 -6523.92
v 959.16 77.9264 -6523.95
v 959.212 77.9264 -6523.91
v 959.197 78.3014 -6523.73
v 959.16 78.3014 -6523.76
v 959.212 77.9264 -6523.91
v 959.16 77.9264 -6523.95
v 959.197 78.3014 -6523.73
v 959.16 78.3014 -6523.68
v 959.16 78.3014 -6523.76
v 959.075 78.3014 -6523.68
v 959.075 78.3014 -6523.76
v 959.039 78.3014 -6523.73
v 959.16 77.6619 -6523.65
v 959.16 78.3014 -6523.68
v 959.22 77.6619 -6523.72
v 959.197 78.3014 -6523.73
v 959.16 77.9264 -6523.95
v 959.16 78.3014 -6523.76
v 959.075 77.9264 -6523.95
v 959.075 78.3014 -6523.76
v 959.114 77.9628 -6524.99
v 959.114 78.6099 -6524.82
v 958.985 77.9628 -6524.82
v 959.37 78.6099 -6524.82
v 959.316 78.6099 -6524.61
v 959.114 78.6099 -6524.82
v 959.168 78.6099 -6524.61
v 959.063 77.9628 -6524.55
v 959.168 78.6099 -6524.61
v 959.421 77.9628 -6524.55
v 959.316 78.6099 -6524.61
v 959.421 77.6925 -6524.55
v 959.499 77.6925 -6524.82
v 959.063 77.6925 -6524.55
v 958.985 77.6925 -6524.82
v 959.114 77.6925 -6524.99
v 959.37 77.6925 -6524.99
v 958.985 77.9628 -6524.82
v 959.114 78.6099 -6524.82
v 959.063 77.9628 -6524.55
v 959.168 78.6099 -6524.61
v 959.421 77.9628 -6524.55
v 959.316 78.6099 -6524.61
v 959.499 77.9628 -6524.82
v 959.37 78.6099 -6524.82
v 959.421 77.9628 -6524.55
v 959.421 77.6925 -6524.55
v 959.063 77.9628 -6524.55
v 959.063 77.6925 -6524.55
v 959.063 77.9628 -6524.55
v 959.063 77.6925 -6524.55
v 958.985 77.9628 -6524.82
v 958.985 77.6925 -6524.82
v 958.985 77.9628 -6524.82
v 958.985 77.6925 -6524.82
v 959.114 77.9628 -6524.99
v 959.114 77.6925 -6524.99
v 959.499 77.9628 -6524.82
v 959.499 77.6925 -6524.82
v 959.421 77.9628 -6524.55
v 959.421 77.6925 -6524.55
v 959.499 77.9628 -6524.82
v 959.37 78.6099 -6524.82
v 959.37 77.9628 -6524.99
v 959.37 77.6925 -6524.99
v 959.499 77.6925 -6524.82
v 959.37 77.9628 -6524.99
v 959.499 77.9628 -6524.82
v 959.114 77.6925 -6524.99
v 959.37 77.6925 -6524.99
v 959.114 77.9628 -6524.99
v 959.37 77.9628 -6524.99
v 959.37 78.6099 -6524.82
v 959.114 78.6099 -6524.82
v 959.37 77.9628 -6524.99
v 959.114 77.9628 -6524.99
v 959.296 78.5429 -6522.72
v 959.272 78.5429 -6522.75
v 959.296 77.5429 -6522.72
v 959.084 78.0758 -6522.93
v 959.084 77.5429 -6522.93
v 958.872 77.5429 -6522.72
v 958.872 78.5429 -6522.72
v 959.084 77.5429 -6522.51
v 959.084 78.5429 -6522.51
v 959.296 77.5429 -6522.72
v 959.084 77.5429 -6522.93
v 959.084 77.5429 -6522.51
v 958.872 77.5429 -6522.72
v 959.296 78.5429 -6522.72
v 959.296 77.5429 -6522.72
v 959.084 78.5429 -6522.51
v 959.084 77.5429 -6522.51
v 958.872 78.5429 -6522.72
v 958.896 78.5429 -6522.75
v 959.084 78.5429 -6522.51
v 959.296 78.5429 -6522.72
v 959.272 78.5429 -6522.75
v 959.084 77.5429 -6522.93
v 959.084 78.0758 -6522.93
v 958.872 77.5429 -6522.72
v 958.872 78.5429 -6522.72
v 958.896 78.5429 -6522.75
v 959.084 78.0758 -6522.93
v 959.272 78.5429 -6522.75
v 958.896 78.5429 -6522.75
v 960.488 77.6117 -6524.28
v 960.522 78.5106 -6524.38
v 960.694 77.6117 -6524.28
v 960.66 78.5106 -6524.38
v 960.728 78.2573 -6524.62
v 960.796 77.6117 -6524.62
v 960.66 78.5106 -6524.38
v 960.694 77.6117 -6524.28
v 960.66 77.9908 -6524.86
v 960.694 77.6117 -6524.96
v 960.728 78.2573 -6524.62
v 960.796 77.6117 -6524.62
v 960.694 77.6117 -6524.96
v 960.66 77.9908 -6524.86
v 960.488 77.6117 -6524.96
v 960.522 77.9908 -6524.86
v 960.385 77.6117 -6524.62
v 960.488 77.6117 -6524.96
v 960.453 78.2573 -6524.62
v 960.522 77.9908 -6524.86
v 960.488 77.6117 -6524.28
v 960.385 77.6117 -6524.62
v 960.522 78.5106 -6524.38
v 960.453 78.2573 -6524.62
v 960.796 77.6117 -6524.62
v 960.694 77.6117 -6524.96
v 960.694 77.6117 -6524.28
v 960.488 77.6117 -6524.96
v 960.488 77.6117 -6524.28
v 960.385 77.6117 -6524.62
v 960.522 78.5106 -6524.38
v 960.453 78.2573 -6524.62
v 960.66 78.5106 -6524.38
v 960.728 78.2573 -6524.62
v 960.522 77.9908 -6524.86
v 960.66 77.9908 -6524.86
v 960.35 77.6386 -6523.31
v 960.378 77.8367 -6523.32
v 960.71 77.6386 -6523.31
v 960.682 77.8367 -6523.32
v 960.682 77.8367 -6523.32
v 960.732 77.8152 -6523.39
v 960.71 77.6386 -6523.31
v 960.77 77.6386 -6523.39
v 960.77 77.6386 -6523.39
v 960.732 77.8152 -6523.39
v 960.71 77.6386 -6523.47
v 960.682 77.7928 -6523.45
v 960.71 77.6386 -6523.47
v 960.682 77.7928 -6523.45
v 960.35 77.6386 -6523.47
v 960.378 77.7928 -6523.45
v 960.29 77.6386 -6523.39
v 960.35 77.6386 -6523.47
v 960.328 77.8152 -6523.39
v 960.378 77.7928 -6523.45
v 960.378 77.8367 -6523.32
v 960.35 77.6386 -6523.31
v 960.328 77.8152 -6523.39
v 960.29 77.6386 -6523.39
v 960.35 77.6386 -6523.47
v 960.29 77.6386 -6523.39
v 960.71 77.6386 -6523.47
v 960.35 77.6386 -6523.31
v 960.77 77.6386 -6523.39
v 960.71 77.6386 -6523.31
v 960.328 77.8152 -6523.39
v 960.378 77.7928 -6523.45
v 960.378 77.8367 -6523.32
v 960.682 77.7928 -6523.45
v 960.732 77.8152 -6523.39
v 960.682 77.8367 -6523.32
v 957.387 77.6377 -6522.9
v 957.415 77.8359 -6522.91
v 957.748 77.6377 -6522.9
v 957.719 77.8359 -6522.91
v 957.719 77.8359 -6522.91
v 957.769 77.8143 -6522.98
v 957.748 77.6377 -6522.9
v 957.807 77.6377 -6522.98
v 957.807 77.6377 -6522.98
v 957.769 77.8143 -6522.98
v 957.748 77.6377 -6523.05
v 957.719 77.792 -6523.04
v 957.748 77.6377 -6523.05
v 957.719 77.792 -6523.04
v 957.387 77.6377 -6523.05
v 957.415 77.792 -6523.04
v 957.328 77.6377 -6522.98
v 957.387 77.6377 -6523.05
v 957.365 77.8143 -6522.98
v 957.415 77.792 -6523.04
v 957.415 77.8359 -6522.91
v 957.387 77.6377 -6522.9
v 957.365 77.8143 -6522.98
v 957.328 77.6377 -6522.98
v 957.387 77.6377 -6523.05
v 957.328 77.6377 -6522.98
v 957.748 77.6377 -6523.05
v 957.387 77.6377 -6522.9
v 957.807 77.6377 -6522.98
v 957.748 77.6377 -6522.9
v 957.365 77.8143 -6522.98
v 957.415 77.792 -6523.04
v 957.415 77.8359 -6522.91
v 957.719 77.792 -6523.04
v 957.769 77.8143 -6522.98
v 957.719 77.8359 -6522.91
v 960.911 78.4862 -6522.88
v 960.887 78.4862 -6522.9
v 960.911 77.4862 -6522.88
v 960.699 78.0191 -6523.09
v 960.699 77.4862 -6523.09
v 960.487 77.4862 -6522.88
v 960.487 78.4862 -6522.88
v 960.699 77.4862 -6522.67
v 960.699 78.4862 -6522.67
v 960.911 77.4862 -6522.88
v 960.699 77.4862 -6523.09
v 960.699 77.4862 -6522.67
v 960.487 77.4862 -6522.88
v 960.911 78.4862 -6522.88
v 960.911 77.4862 -6522.88
v 960.699 78.4862 -6522.67
v 960.699 77.4862 -6522.67
v 960.487 78.4862 -6522.88
v 960.512 78.4862 -6522.9
v 960.699 78.4862 -6522.67
v 960.911 78.4862 -6522.88
v 960.887 78.4862 -6522.9
v 960.699 77.4862 -6523.09
v 960.699 78.0191 -6523.09
v 960.487 77.4862 -6522.88
v 960.487 78.4862 -6522.88
v 960.512 78.4862 -6522.9
v 960.699 78.0191 -6523.09
v 960.887 78.4862 -6522.9
v 960.512 78.4862 -6522.9
v 961.728 81.9863 -6520.29
v 961.169 82.2995 -6520.3
v 960.726 81.9863 -6520.31
v 960.662 82.387 -6520.31
v 960.804 77.4863 -6519.31
v 960.869 77.8714 -6519.31
v 961.707 77.4863 -6519.29
v 961.708 81.4863 -6519.29
v 960.812 78.4994 -6519.31
v 960.832 79.1781 -6519.31
v 960.706 80.0348 -6519.31
v 960.705 81.4863 -6519.31
v 960.726 81.4863 -6520.31
v 960.728 77.4863 -6520.31
v 961.728 81.4863 -6520.29
v 961.728 77.4863 -6520.29
v 961.728 81.4863 -6520.29
v 961.728 77.4863 -6520.29
v 961.708 81.4863 -6519.29
v 961.707 77.4863 -6519.29
v 960.709 77.9457 -6519.4
v 960.869 77.8714 -6519.31
v 960.71 77.4863 -6519.45
v 960.804 77.4863 -6519.31
v 960.709 79.2643 -6519.46
v 960.706 80.0348 -6519.31
v 960.832 79.1781 -6519.31
v 960.709 78.6213 -6519.46
v 960.812 78.4994 -6519.31
v 960.705 81.4863 -6519.31
v 960.706 80.0348 -6519.31
v 960.726 81.4863 -6520.31
v 960.709 79.2643 -6519.46
v 960.728 77.4863 -6520.31
v 960.709 78.6213 -6519.46
v 960.709 77.9457 -6519.4
v 960.71 77.4863 -6519.45
v 962.722 81.4863 -6520.02
v 962.722 77.4863 -6520.02
v 962.712 81.4863 -6519.52
v 962.712 77.4863 -6519.52
v 962.712 77.4863 -6519.52
v 961.712 77.4863 -6519.54
v 962.712 81.4863 -6519.52
v 961.712 81.4863 -6519.54
v 962.722 81.4863 -6520.02
v 962.712 81.4863 -6519.52
v 961.722 81.4863 -6520.04
v 961.712 81.4863 -6519.54
v 961.722 81.4863 -6520.04
v 961.722 77.4863 -6520.04
v 962.722 81.4863 -6520.02
v 962.722 77.4863 -6520.02
v 960.605 81.4863 -6519.21
v 960.605 81.9863 -6519.21
v 961.805 81.4863 -6519.19
v 961.805 81.9863 -6519.19
v 960.605 81.9863 -6519.21
v 960.63 81.9863 -6520.41
v 961.805 81.9863 -6519.19
v 961.83 81.9863 -6520.39
v 960.63 81.9863 -6520.41
v 960.63 81.4863 -6520.41
v 961.83 81.9863 -6520.39
v 961.83 81.4863 -6520.39
v 960.63 81.4863 -6520.41
v 960.605 81.4863 -6519.21
v 961.83 81.4863 -6520.39
v 961.805 81.4863 -6519.19
v 961.805 81.4863 -6519.19
v 961.805 81.9863 -6519.19
v 961.83 81.4863 -6520.39
v 961.83 81.9863 -6520.39
v 960.63 81.4863 -6520.41
v 960.63 81.9863 -6520.41
v 960.605 81.4863 -6519.21
v 960.605 81.9863 -6519.21
v 954.714 81.4863 -6519.69
v 954.714 77.4863 -6519.69
v 954.724 81.4863 -6520.19
v 954.724 77.4863 -6520.19
v 954.724 77.4863 -6520.19
v 955.724 77.4863 -6520.17
v 954.724 81.4863 -6520.19
v 955.724 81.4863 -6520.17
v 954.714 81.4863 -6519.69
v 954.724 81.4863 -6520.19
v 955.713 81.4863 -6519.67
v 955.724 81.4863 -6520.17
v 955.713 81.4863 -6519.67
v 955.713 77.4863 -6519.67
v 954.714 81.4863 -6519.69
v 954.714 77.4863 -6519.69
v 956.71 81.4863 -6519.4
v 956.708 77.4863 -6519.4
v 955.707 81.4863 -6519.42
v 955.708 77.4863 -6519.42
v 955.729 77.4863 -6520.42
v 955.728 81.4863 -6520.42
v 955.708 77.4863 -6519.42
v 955.707 81.4863 -6519.42
v 956.59 78.1755 -6520.4
v 955.728 81.4863 -6520.42
v 955.729 77.4863 -6520.42
v 956.521 77.4863 -6520.4
v 956.729 78.6098 -6520.4
v 956.73 81.4863 -6520.4
v 956.729 78.6098 -6520.4
v 956.59 78.1755 -6520.4
v 956.57 77.4863 -6520.25
v 956.521 77.4863 -6520.4
v 956.726 77.4863 -6520.27
v 956.726 77.6466 -6520.24
v 956.57 77.4863 -6520.25
v 956.729 78.6098 -6520.4
v 956.73 81.4863 -6520.4
v 956.729 78.6098 -6520.4
v 956.71 81.4863 -6519.4
v 956.726 77.4863 -6520.27
v 956.708 77.4863 -6519.4
v 956.726 77.6466 -6520.24
v 955.631 81.4863 -6520.52
v 955.631 81.9863 -6520.52
v 955.606 81.4863 -6519.32
v 955.606 81.9863 -6519.32
v 955.631 81.9863 -6520.52
v 956.831 81.9863 -6520.49
v 955.606 81.9863 -6519.32
v 956.806 81.9863 -6519.29
v 956.831 81.9863 -6520.49
v 956.831 81.4863 -6520.49
v 956.806 81.9863 -6519.29
v 956.806 81.4863 -6519.29
v 956.831 81.4863 -6520.49
v 955.631 81.4863 -6520.52
v 956.806 81.4863 -6519.29
v 955.606 81.4863 -6519.32
v 955.606 81.4863 -6519.32
v 955.606 81.9863 -6519.32
v 956.806 81.4863 -6519.29
v 956.806 81.9863 -6519.29
v 956.831 81.4863 -6520.49
v 956.831 81.9863 -6520.49
v 955.631 81.4863 -6520.52
v 955.631 81.9863 -6520.52
v 956.83 82.6033 -6520.39
v 956.809 82.6033 -6519.39
v 957.113 83.1599 -6520.39
v 957.092 83.1599 -6519.39
v 957.555 83.6016 -6520.38
v 957.534 83.6016 -6519.38
v 955.876 82.9147 -6520.41
v 955.728 81.9863 -6520.42
v 956.83 82.6033 -6520.39
v 956.73 81.9863 -6520.4
v 955.707 81.9863 -6519.42
v 955.855 82.9147 -6519.41
v 956.71 81.9863 -6519.4
v 956.809 82.6033 -6519.39
v 956.281 83.7498 -6519.4
v 957.092 83.1599 -6519.39
v 956.754 84.2236 -6519.39
v 956.999 83.9525 -6519.39
v 957.361 83.8404 -6519.38
v 957.534 83.6016 -6519.38
v 955.855 82.9147 -6519.41
v 955.707 81.9863 -6519.42
v 955.876 82.9147 -6520.41
v 955.728 81.9863 -6520.42
v 956.07 83.295 -6520.41
v 957.113 83.1599 -6520.39
v 956.754 84.2236 -6519.39
v 956.281 83.7498 -6519.4
v 956.577 84.0349 -6519.92
v 956.493 83.9492 -6520
v 956.299 83.7498 -6520.29
v 956.497 83.9477 -6520.3
v 956.07 83.295 -6520.41
v 956.299 83.7498 -6520.29
v 956.07 83.295 -6520.41
v 956.391 83.6851 -6520.4
v 956.587 83.9382 -6520.4
v 956.549 83.9624 -6520.33
v 956.497 83.9477 -6520.3
v 956.71 81.9863 -6519.4
v 956.73 81.9863 -6520.4
v 960.705 81.9863 -6519.31
v 960.726 81.9863 -6520.31
v 960.662 82.387 -6520.31
v 960.643 82.4784 -6520.11
v 960.646 82.3565 -6519.31
v 960.705 81.9863 -6519.31
v 960.646 82.3565 -6519.31
v 961.127 82.4439 -6519.3
v 961.708 81.9863 -6519.29
v 961.577 82.8073 -6519.29
v 961.629 82.5619 -6519.91
v 961.708 81.9863 -6519.29
v 961.577 82.8073 -6519.29
v 961.622 82.6529 -6520.29
v 961.728 81.9863 -6520.29
v 961.622 82.6529 -6520.29
v 956.391 83.6851 -6520.4
v 957.429 83.7755 -6520.38
v 957.403 83.7485 -6520.38
v 957.555 83.6016 -6520.38
v 957.255 83.7482 -6520.38
v 956.905 83.5673 -6520.39
v 956.587 83.9382 -6520.4
v 957.555 83.6016 -6520.38
v 957.534 83.6016 -6519.38
v 957.429 83.7755 -6520.38
v 957.361 83.8404 -6519.38
v 956.999 83.9525 -6519.39
v 956.577 84.0349 -6519.92
v 956.905 83.5673 -6520.39
v 957.403 83.7485 -6520.38
v 957.255 83.7482 -6520.38
v 956.493 83.9492 -6520
v 956.549 83.9624 -6520.33
v 956.497 83.9477 -6520.3
v 956.587 83.9382 -6520.4
v 956.754 84.2236 -6519.39
v 961.577 82.8073 -6519.29
v 961.127 82.4439 -6519.3
v 961.629 82.5619 -6519.91
v 960.646 82.3565 -6519.31
v 960.643 82.4784 -6520.11
v 961.169 82.2995 -6520.3
v 961.622 82.6529 -6520.29
v 960.662 82.387 -6520.31
v 955.135 80.6427 -6527.84
v 954.887 80.6751 -6527.84
v 954.616 76.6764 -6527.84
v 954.368 76.7088 -6527.83
v 954.696 76.6764 -6519.84
v 954.448 76.7088 -6519.83
v 955.215 80.6427 -6519.84
v 954.967 80.6751 -6519.84
v 954.488 79.3899 -6525.71
v 954.635 80.427 -6524.53
v 954.16 76.7412 -6523.83
v 954.765 80.6968 -6523.42
v 954.69 80.7075 -6522.71
v 954.663 80.5551 -6523.4
v 954.714 80.7006 -6525.58
v 954.646 80.5911 -6525.55
v 954.658 80.7075 -6525.94
v 954.635 80.427 -6524.53
v 954.717 80.533 -6524.58
v 955.128 80.6506 -6522.44
v 955.186 80.6427 -6522.7
v 955.179 80.5677 -6522.4
v 955.133 80.6509 -6521.75
v 955.189 80.5899 -6521.7
v 955.197 80.6427 -6521.57
v 954.69 80.7075 -6522.71
v 954.947 80.6751 -6521.84
v 954.719 80.7075 -6519.84
v 954.967 80.6751 -6519.84
v 954.765 80.6968 -6523.42
v 954.905 80.5093 -6523.84
v 954.717 80.533 -6524.58
v 954.907 80.6751 -6525.84
v 954.714 80.7006 -6525.58
v 954.658 80.7075 -6525.94
v 954.887 80.6751 -6527.84
v 954.639 80.7075 -6527.84
v 955.053 80.4938 -6526.91
v 955.135 80.6427 -6527.84
v 955.113 80.4055 -6526.89
v 955.135 80.6427 -6527.84
v 954.616 76.6764 -6527.84
v 955.113 80.4055 -6526.89
v 955.019 79.6744 -6526.74
v 954.965 80.506 -6526.34
v 955.109 80.6517 -6523.51
v 955.128 80.2644 -6523.52
v 955.179 80.6427 -6523.35
v 954.983 80.4987 -6524.21
v 955.004 79.363 -6524.22
v 954.901 78.6403 -6524.98
v 954.956 79.0339 -6524.65
v 954.925 80.6739 -6524.91
v 954.865 78.4169 -6525.68
v 955.013 80.6616 -6525.57
v 954.914 78.8485 -6526.48
v 954.965 80.506 -6526.34
v 955.019 79.6744 -6526.74
v 955.113 80.4055 -6526.89
v 954.719 80.7075 -6519.84
v 954.2 76.7412 -6519.83
v 954.69 80.7075 -6522.71
v 954.646 80.5911 -6525.55
v 954.639 80.7075 -6527.84
v 954.658 80.7075 -6525.94
v 954.663 80.5551 -6523.4
v 954.656 76.6764 -6523.84
v 954.696 76.6764 -6519.84
v 955.128 80.2644 -6523.52
v 954.914 78.8485 -6526.48
v 954.865 78.4169 -6525.68
v 955.004 79.363 -6524.22
v 955.179 80.6427 -6523.35
v 955.186 80.6427 -6522.7
v 955.179 80.5677 -6522.4
v 954.956 79.0339 -6524.65
v 954.901 78.6403 -6524.98
v 955.215 80.6427 -6519.84
v 955.197 80.6427 -6521.57
v 955.189 80.5899 -6521.7
v 954.178 77.0393 -6525.94
v 954.139 76.7412 -6525.95
v 954.12 76.7412 -6527.83
v 954.404 78.7343 -6525.55
v 954.47 78.7316 -6525.62
v 954.488 79.3899 -6525.71
v 954.488 79.3899 -6525.71
v 954.47 78.7316 -6525.62
v 954.404 78.7461 -6525.72
v 954.349 78.32 -6525.65
v 954.414 78.3069 -6525.6
v 954.37 77.967 -6525.57
v 954.305 77.9865 -6525.66
v 954.302 77.4468 -6525.61
v 954.235 77.463 -6525.78
v 954.246 77.0267 -6525.67
v 954.178 77.0393 -6525.94
v 954.208 76.7326 -6525.66
v 954.139 76.7412 -6525.95
v 954.208 76.7326 -6525.66
v 954.246 77.0267 -6525.67
v 954.144 76.7412 -6525.45
v 954.181 77.0314 -6525.52
v 954.302 77.4468 -6525.61
v 954.236 77.448 -6525.46
v 954.37 77.967 -6525.57
v 954.304 77.9648 -6525.41
v 954.349 78.3111 -6525.53
v 954.414 78.3069 -6525.6
v 954.235 77.463 -6525.78
v 954.305 77.9865 -6525.66
v 954.349 78.32 -6525.65
v 954.404 78.7461 -6525.72
v 954.404 78.7343 -6525.55
v 954.349 78.3111 -6525.53
v 954.304 77.9648 -6525.41
v 954.236 77.448 -6525.46
v 954.181 77.0314 -6525.52
v 954.144 76.7412 -6525.45
v 954.639 80.7075 -6527.84
v 954.12 76.7412 -6527.83
v 954.2 76.7412 -6519.83
v 954.719 80.7075 -6519.84
v 955.135 80.6427 -6527.84
v 955.053 80.4938 -6526.91
v 954.965 80.506 -6526.34
v 955.013 80.6616 -6525.57
v 955.197 80.6427 -6521.57
v 955.215 80.6427 -6519.84
v 955.133 80.6509 -6521.75
v 955.128 80.6506 -6522.44
v 955.186 80.6427 -6522.7
v 955.179 80.6427 -6523.35
v 955.109 80.6517 -6523.51
v 954.983 80.4987 -6524.21
v 954.925 80.6739 -6524.91
v 926 76.4505 -6489
v 926 76.1001 -6491
v 926 75.7325 -6493
v 926 75.1395 -6495
v 926 74.8461 -6497
v 926 74.5137 -6499
v 926 74.301 -6501
v 926 74.2703 -6503
v 926 74.6622 -6505
v 926 74.9325 -6507
v 926 75.0426 -6509
v 926 75.1021 -6511
v 926 75.3147 -6513
v 926 75.3663 -6515
v 926 75.667 -6517
v 926 75.8074 -6519
v 926 75.9421 -6521
v 926 76.0554 -6523
v 926 75.9858 -6525
v 926 75.9749 -6527
v 926 76.0039 -6529
v 926 76.1459 -6531
v 926 76.2414 -6533
v 926 76.1488 -6535
v 926 76.2001 -6537
v 926 76.1425 -6539
v 926 76.0018 -6541
v 926 75.9561 -6543
v 926 75.9062 -6545
v 926 75.9259 -6547
v 926 76.1834 -6549
v 926 76.2593 -6551
v 928 76.2836 -6489
v 928 76.0083 -6491
v 928 75.4455 -6493
v 928 75.1562 -6495
v 928 74.7927 -6497
v 928 74.3431 -6499
v 928 74.1006 -6501
v 928 74.5591 -6503
v 928 74.7677 -6505
v 928 74.9902 -6507
v 928 75.1225 -6509
v 928 75.271 -6511
v 928 75.3626 -6513
v 928 75.454 -6515
v 928 75.5875 -6517
v 928 75.806 -6519
v 928 76.0343 -6521
v 928 76.1506 -6523
v 928 76.0827 -6525
v 928 76.1389 -6527
v 928 76.1401 -6529
v 928 76.2875 -6531
v 928 76.3557 -6533
v 928 76.4771 -6535
v 928 76.3197 -6537
v 928 76.3319 -6539
v 928 76.1045 -6541
v 928 76.1257 -6543
v 928 76.1699 -6545
v 928 76.2941 -6547
v 928 76.4905 -6549
v 928 76.4073 -6551
v 930 76.1028 -6489
v 930 75.6309 -6491
v 930 75.2663 -6493
v 930 74.934 -6495
v 930 74.6017 -6497
v 930 74.407 -6499
v 930 74.3804 -6501
v 930 74.7799 -6503
v 930 75.0417 -6505
v 930 75.1943 -6507
v 930 75.4166 -6509
v 930 75.3298 -6511
v 930 75.4825 -6513
v 930 75.5448 -6515
v 930 75.7453 -6517
v 930 75.8209 -6519
v 930 76.2045 -6521
v 930 76.1347 -6523
v 930 76.2295 -6525
v 930 76.2295 -6527
v 930 76.4024 -6529
v 930 76.4002 -6531
v 930 76.5562 -6533
v 930 76.6771 -6535
v 930 76.6848 -6537
v 930 76.5631 -6539
v 930 76.4427 -6541
v 930 76.4133 -6543
v 930 76.3663 -6545
v 930 76.4843 -6547
v 930 76.5783 -6549
v 930 76.6262 -6551
v 932 75.8599 -6489
v 932 75.4542 -6491
v 932 75.0334 -6493
v 932 74.6794 -6495
v 932 74.501 -6497
v 932 74.2887 -6499
v 932 74.5379 -6501
v 932 75.0419 -6503
v 932 75.3036 -6505
v 932 75.4182 -6507
v 932 75.5361 -6509
v 932 75.6487 -6511
v 932 75.7003 -6513
v 932 75.7444 -6515
v 932 75.9145 -6517
v 932 76.0476 -6519
v 932 76.2634 -6521
v 932 76.2735 -6523
v 932 76.3483 -6525
v 932 76.3657 -6527
v 932 76.5652 -6529
v 932 76.6143 -6531
v 932 76.7592 -6533
v 932 76.873 -6535
v 932 76.7839 -6537
v 932 76.7996 -6539
v 932 76.7655 -6541
v 932 76.5423 -6543
v 932 76.5133 -6545
v 932 76.6358 -6547
v 932 76.6318 -6549
v 932 76.8527 -6551
v 934 75.5545 -6489
v 934 75.2024 -6491
v 934 74.7755 -6493
v 934 74.6402 -6495
v 934 74.1744 -6497
v 934 74.5479 -6499
v 934 74.7488 -6501
v 934 75.0599 -6503
v 934 75.3226 -6505
v 934 75.6189 -6507
v 934 75.7438 -6509
v 934 75.9898 -6511
v 934 75.9606 -6513
v 934 75.9828 -6515
v 934 75.9984 -6517
v 934 76.2207 -6519
v 934 76.34 -6521
v 934 76.4558 -6523
v 934 76.4055 -6525
v 934 76.5196 -6527
v 934 76.6812 -6529
v 934 76.8899 -6531
v 934 76.9066 -6533
v 934 76.8663 -6535
v 934 76.8759 -6537
v 934 76.8145 -6539
v 934 76.8533 -6541
v 934 76.8406 -6543
v 934 76.7287 -6545
v 934 76.6543 -6547
v 934 76.7524 -6549
v 934 76.9124 -6551
v 936 75.4626 -6489
v 936 75.1677 -6491
v 936 74.6948 -6493
v 936 74.0999 -6495
v 936 74.022 -6497
v 936 74.7048 -6499
v 936 75.0162 -6501
v 936 75.3241 -6503
v 936 75.6117 -6505
v 936 75.6444 -6507
v 936 75.7246 -6509
v 936 76.0687 -6511
v 936 76.1863 -6513
v 936 76.3437 -6515
v 936 76.3784 -6517
v 936 76.3941 -6519
v 936 76.3595 -6521
v 936 76.559 -6523
v 936 76.5438 -6525
v 936 76.6353 -6527
v 936 76.762 -6529
v 936 77.0273 -6531
v 936 76.9857 -6533
v 936 77.0892 -6535
v 936 77.0852 -6537
v 936 77.0724 -6539
v 936 77.1414 -6541
v 936 76.981 -6543
v 936 77.0011 -6545
v 936 77.022 -6547
v 936 77.1088 -6549
v 936 77.1738 -6551
v 938 75.2235 -6489
v 938 74.8385 -6491
v 938 74.4441 -6493
v 938 73.9656 -6495
v 938 74.4161 -6497
v 938 74.7199 -6499
v 938 75.0004 -6501
v 938 75.378 -6503
v 938 75.5497 -6505
v 938 75.8121 -6507
v 938 75.9644 -6509
v 938 76.2488 -6511
v 938 76.3756 -6513
v 938 76.5504 -6515
v 938 76.5263 -6517
v 938 76.6548 -6519
v 938 76.5909 -6521
v 938 76.5022 -6523
v 938 76.599 -6525
v 938 76.7519 -6527
v 938 76.813 -6529
v 938 77.0567 -6531
v 938 77.2832 -6533
v 938 77.1868 -6535
v 938 77.0349 -6537
v 938 77.0701 -6539
v 938 77.4108 -6541
v 938 77.3248 -6543
v 938 77.489 -6545
v 938 77.3709 -6547
v 938 77.2902 -6549
v 938 77.241 -6551
v 940 75.0953 -6489
v 940 74.539 -6491
v 940 74.079 -6493
v 940 74.1402 -6495
v 940 74.6154 -6497
v 940 74.9255 -6499
v 940 75.2332 -6501
v 940 75.5126 -6503
v 940 75.6751 -6505
v 940 75.8463 -6507
v 940 75.9623 -6509
v 940 76.2287 -6511
v 940 76.4259 -6513
v 940 76.6321 -6515
v 940 76.7505 -6517
v 940 76.5996 -6519
v 940 76.6805 -6521
v 940 76.6505 -6523
v 940 76.6428 -6525
v 940 76.7166 -6527
v 940 77.0798 -6529
v 940 77.0127 -6531
v 940 77.3217 -6533
v 940 77.325 -6535
v 940 77.4608 -6537
v 940 77.3696 -6539
v 940 77.4972 -6541
v 940 78.1144 -6543
v 940 78.1272 -6545
v 940 78.1103 -6547
v 940 77.8736 -6549
v 940 78.0705 -6551
v 942 74.687 -6489
v 942 74.2572 -6491
v 942 73.9964 -6493
v 942 74.4875 -6495
v 942 74.8208 -6497
v 942 75.0811 -6499
v 942 75.4944 -6501
v 942 75.6774 -6503
v 942 75.8017 -6505
v 942 75.8562 -6507
v 942 76.0199 -6509
v 942 76.2146 -6511
v 942 76.586 -6513
v 942 76.6988 -6515
v 942 76.8002 -6517
v 942 76.8182 -6519
v 942 76.7566 -6521
v 942 76.7444 -6523
v 942 76.7816 -6525
v 942 76.8684 -6527
v 942 77.1691 -6529
v 942 77.2391 -6531
v 942 77.3257 -6533
v 942 77.4634 -6535
v 942 77.8345 -6537
v 942 77.9453 -6539
v 942 77.8515 -6541
v 942 78.3202 -6543
v 942 79.0046 -6545
v 942 79.1288 -6547
v 942 78.6417 -6549
v 942 79.2585 -6551
v 944 74.3852 -6489
v 944 74.1771 -6491
v 944 74.4215 -6493
v 944 74.6093 -6495
v 944 75.1499 -6497
v 944 75.4787 -6499
v 944 75.7262 -6501
v 944 75.8824 -6503
v 944 75.8431 -6505
v 944 76.0765 -6507
v 944 76.188 -6509
v 944 76.4149 -6511
v 944 76.6116 -6513
v 944 76.8745 -6515
v 944 76.9223 -6517
v 944 76.8325 -6519
v 944 76.8932 -6521
v 944 76.9439 -6523
v 944 76.9464 -6525
v 944 77.0306 -6527
v 944 77.0808 -6529
v 944 77.366 -6531
v 944 77.7637 -6533
v 944 77.7872 -6535
v 944 77.7256 -6537
v 944 78.0114 -6539
v 944 78.4223 -6541
v 944 78.5801 -6543
v 944 78.8428 -6545
v 944 79.3166 -6547
v 944 79.1538 -6549
v 944 79.2641 -6551
v 946 74.0651 -6489
v 946 74.3384 -6491
v 946 74.5641 -6493
v 946 75.022 -6495
v 946 75.1993 -6497
v 946 75.5507 -6499
v 946 75.7012 -6501
v 946 75.8684 -6503
v 946 75.9795 -6505
v 946 76.0404 -6507
v 946 76.3364 -6509
v 946 76.63 -6511
v 946 76.7326 -6513
v 946 76.9667 -6515
v 946 77.0893 -6517
v 946 76.9808 -6519
v 946 76.9708 -6521
v 946 76.9469 -6523
v 946 76.9902 -6525
v 946 77.226 -6527
v 946 77.2653 -6529
v 946 77.3775 -6531
v 946 77.525 -6533
v 946 77.7131 -6535
v 946 77.6672 -6537
v 946 78.0056 -6539
v 946 78.8348 -6541
v 946 78.679 -6543
v 946 78.7373 -6545
v 946 78.6326 -6547
v 946 78.5723 -6549
v 946 78.7683 -6551
v 948 74.3352 -6489
v 948 74.6798 -6491
v 948 74.9655 -6493
v 948 75.1791 -6495
v 948 75.5197 -6497
v 948 75.7851 -6499
v 948 75.82 -6501
v 948 75.8894 -6503
v 948 76.0129 -6505
v 948 76.1761 -6507
v 948 76.4312 -6509
v 948 76.6183 -6511
v 948 76.9575 -6513
v 948 77.0837 -6515
v 948 77.1464 -6517
v 948 77.1233 -6519
v 948 77.0693 -6521
v 948 77.1842 -6523
v 948 77.292 -6525
v 948 77.351 -6527
v 948 77.6115 -6529
v 948 77.5577 -6531
v 948 77.7176 -6533
v 948 77.5495 -6535
v 948 78.0495 -6537
v 948 78.0377 -6539
v 948 78.8719 -6541
v 948 78.6755 -6543
v 948 77.9919 -6545
v 948 78.0403 -6547
v 948 78.0949 -6549
v 948 78.1146 -6551
v 950 74.7135 -6489
v 950 74.9473 -6491
v 950 75.1249 -6493
v 950 75.4223 -6495
v 950 75.6537 -6497
v 950 75.7928 -6499
v 950 75.9638 -6501
v 950 76.036 -6503
v 950 76.1047 -6505
v 950 76.2827 -6507
v 950 76.653 -6509
v 950 76.711 -6511
v 950 77.0902 -6513
v 950 77.2239 -6515
v 950 77.3226 -6517
v 950 77.1959 -6519
v 950 77.2186 -6521
v 950 77.2381 -6523
v 950 77.3842 -6525
v 950 77.4579 -6527
v 950 77.6771 -6529
v 950 77.5585 -6531
v 950 77.4652 -6533
v 950 77.4725 -6535
v 950 77.8368 -6537
v 950 78.4264 -6539
v 950 79.1631 -6541
v 950 79.2994 -6543
v 950 78.7551 -6545
v 950 78.0682 -6547
v 950 78.1127 -6549
v 950 77.9873 -6551
v 952 74.927 -6489
v 952 75.1935 -6491
v 952 75.3271 -6493
v 952 75.6004 -6495
v 952 75.8349 -6497
v 952 75.8518 -6499
v 952 76.0613 -6501
v 952 76.1674 -6503
v 952 76.2747 -6505
v 952 76.4513 -6507
v 952 76.5975 -6509
v 952 76.9075 -6511
v 952 77.1892 -6513
v 952 77.316 -6515
v 952 77.3204 -6517
v 952 77.3357 -6519
v 952 77.4435 -6521
v 952 77.3753 -6523
v 952 77.4948 -6525
v 952 77.5547 -6527
v 952 77.6503 -6529
v 952 77.6379 -6531
v 952 77.5881 -6533
v 952 77.5679 -6535
v 952 77.7156 -6537
v 952 77.9158 -6539
v 952 79.2071 -6541
v 952 79.3619 -6543
v 952 79.3873 -6545
v 952 78.0737 -6547
v 952 78.1477 -6549
v 952 77.9874 -6551
v 954 75.1046 -6489
v 954 75.3129 -6491
v 954 75.4124 -6493
v 954 75.6181 -6495
v 954 75.9192 -6497
v 954 75.8921 -6499
v 954 76.0456 -6501
v 954 76.1528 -6503
v 954 76.3696 -6505
v 954 76.6412 -6507
v 954 76.678 -6509
v 954 76.8493 -6511
v 954 77.1024 -6513
v 954 77.3169 -6515
v 954 77.4148 -6517
v 954 77.3932 -6519
v 954 77.6042 -6521
v 954 77.6331 -6523
v 954 77.6348 -6525
v 954 77.6628 -6527
v 954 77.7878 -6529
v 954 77.7708 -6531
v 954 77.7588 -6533
v 954 77.6947 -6535
v 954 77.803 -6537
v 954 77.8793 -6539
v 954 78.2302 -6541
v 954 79.498 -6543
v 954 79.7162 -6545
v 954 78.7945 -6547
v 954 78.1967 -6549
v 954 78.0285 -6551
v 956 75.2641 -6489
v 956 75.5395 -6491
v 956 75.7227 -6493
v 956 75.8973 -6495
v 956 75.8474 -6497
v 956 75.9726 -6499
v 956 76.2446 -6501
v 956 76.4594 -6503
v 956 76.5573 -6505
v 956 76.7586 -6507
v 956 76.8911 -6509
v 956 76.9993 -6511
v 956 77.2205 -6513
v 956 77.2303 -6515
v 956 77.433 -6517
v 956 77.4577 -6519
v 956 77.6083 -6521
v 956 77.5741 -6523
v 956 77.7621 -6525
v 956 77.9012 -6527
v 956 77.8464 -6529
v 956 77.7742 -6531
v 956 77.7559 -6533
v 956 77.8816 -6535
v 956 77.8354 -6537
v 956 77.8702 -6539
v 956 77.8906 -6541
v 956 78.9379 -6543
v 956 79.1161 -6545
v 956 78.8164 -6547
v 956 78.2492 -6549
v 956 78.2705 -6551
v 958 75.3038 -6489
v 958 75.5521 -6491
v 958 75.8637 -6493
v 958 75.963 -6495
v 958 76.1251 -6497
v 958 76.1492 -6499
v 958 76.3401 -6501
v 958 76.5949 -6503
v 958 76.7452 -6505
v 958 76.8616 -6507
v 958 77.0233 -6509
v 958 76.9973 -6511
v 958 77.088 -6513
v 958 77.2158 -6515
v 958 77.293 -6517
v 958 77.4645 -6519
v 958 77.6233 -6521
v 958 77.6938 -6523
v 958 77.8197 -6525
v 958 77.9022 -6527
v 958 77.7107 -6529
v 958 77.7628 -6531
v 958 77.8278 -6533
v 958 77.8189 -6535
v 958 77.9678 -6537
v 958 77.892 -6539
v 958 77.9868 -6541
v 958 78.0053 -6543
v 958 78.5127 -6545
v 958 78.1146 -6547
v 958 78.2041 -6549
v 958 78.2901 -6551
v 960 75.5897 -6489
v 960 75.7134 -6491
v 960 76.0007 -6493
v 960 76.1564 -6495
v 960 76.3204 -6497
v 960 76.2947 -6499
v 960 76.6423 -6501
v 960 76.7183 -6503
v 960 76.9411 -6505
v 960 77.0177 -6507
v 960 77.0975 -6509
v 960 77.1806 -6511
v 960 77.059 -6513
v 960 77.1802 -6515
v 960 77.2743 -6517
v 960 77.461 -6519
v 960 77.5401 -6521
v 960 77.7216 -6523
v 960 77.7942 -6525
v 960 77.8912 -6527
v 960 77.822 -6529
v 960 77.7531 -6531
v 960 77.7564 -6533
v 960 77.8825 -6535
v 960 77.9581 -6537
v 960 78.0594 -6539
v 960 77.9078 -6541
v 960 78.0004 -6543
v 960 78.0066 -6545
v 960 78.0364 -6547
v 960 78.2214 -6549
v 960 78.0949 -6551
v 962 75.8147 -6489
v 962 75.9189 -6491
v 962 76.1114 -6493
v 962 76.2574 -6495
v 962 76.4164 -6497
v 962 76.5526 -6499
v 962 76.7597 -6501
v 962 76.8615 -6503
v 962 77.0597 -6505
v 962 77.1205 -6507
v 962 77.0102 -6509
v 962 77.1321 -6511
v 962 77.1189 -6513
v 962 77.139 -6515
v 962 77.185 -6517
v 962 77.3509 -6519
v 962 77.41 -6521
v 962 77.6577 -6523
v 962 77.7651 -6525
v 962 77.8424 -6527
v 962 77.8929 -6529
v 962 77.8145 -6531
v 962 77.8678 -6533
v 962 77.9739 -6535
v 962 78.0117 -6537
v 962 78.1646 -6539
v 962 78.0569 -6541
v 962 77.9845 -6543
v 962 77.9636 -6545
v 962 78.113 -6547
v 962 78.1316 -6549
v 962 78.0211 -6551
v 964 76.0331 -6489
v 964 76.0532 -6491
v 964 76.3428 -6493
v 964 76.5262 -6495
v 964 76.5934 -6497
v 964 76.7005 -6499
v 964 76.9335 -6501
v 964 77.0687 -6503
v 964 77.096 -6505
v 964 77.0693 -6507
v 964 77.1139 -6509
v 964 77.1372 -6511
v 964 77.1329 -6513
v 964 77.0953 -6515
v 964 77.2924 -6517
v 964 77.3362 -6519
v 964 77.4505 -6521
v 964 77.4747 -6523
v 964 77.7626 -6525
v 964 77.7753 -6527
v 964 77.9247 -6529
v 964 77.8202 -6531
v 964 77.8782 -6533
v 964 77.9718 -6535
v 964 78.15 -6537
v 964 78.0908 -6539
v 964 78.128 -6541
v 964 78.032 -6543
v 964 78.0438 -6545
v 964 78.0151 -6547
v 964 78.0692 -6549
v 964 78.0269 -6551
v 966 76.0938 -6489
v 966 76.0722 -6491
v 966 76.1873 -6493
v 966 76.3675 -6495
v 966 76.6808 -6497
v 966 76.8312 -6499
v 966 77.0108 -6501
v 966 77.0035 -6503
v 966 76.9981 -6505
v 966 77.1147 -6507
v 966 77.1311 -6509
v 966 77.0745 -6511
v 966 77.0497 -6513
v 966 77.066 -6515
v 966 77.1646 -6517
v 966 77.1668 -6519
v 966 77.4343 -6521
v 966 77.5827 -6523
v 966 77.6789 -6525
v 966 77.8181 -6527
v 966 77.9164 -6529
v 966 77.91 -6531
v 966 78.0156 -6533
v 966 78.0544 -6535
v 966 78.0643 -6537
v 966 78.055 -6539
v 966 78.1152 -6541
v 966 78.0469 -6543
v 966 78.0079 -6545
v 966 77.8733 -6547
v 966 78.1195 -6549
v 966 78.0485 -6551
v 968 76.1069 -6489
v 968 76.149 -6491
v 968 76.1201 -6493
v 968 76.2642 -6495
v 968 76.5158 -6497
v 968 76.6052 -6499
v 968 76.8542 -6501
v 968 77.0433 -6503
v 968 77.0964 -6505
v 968 77.118 -6507
v 968 77.0039 -6509
v 968 77.074 -6511
v 968 77.1411 -6513
v 968 77.2058 -6515
v 968 77.2255 -6517
v 968 77.4145 -6519
v 968 77.6095 -6521
v 968 77.6072 -6523
v 968 77.7221 -6525
v 968 77.793 -6527
v 968 77.7721 -6529
v 968 77.9079 -6531
v 968 77.9544 -6533
v 968 78.0403 -6535
v 968 78.0516 -6537
v 968 78.0432 -6539
v 968 77.8963 -6541
v 968 77.9744 -6543
v 968 77.8577 -6545
v 968 77.9252 -6547
v 968 78.1213 -6549
v 968 78.0689 -6551
v 970 76.1197 -6489
v 970 76.1681 -6491
v 970 76.0763 -6493
v 970 76.2233 -6495
v 970 76.4538 -6497
v 970 76.4962 -6499
v 970 76.7683 -6501
v 970 76.9622 -6503
v 970 77.0248 -6505
v 970 77.1063 -6507
v 970 77.0872 -6509
v 970 77.2841 -6511
v 970 77.2334 -6513
v 970 77.2775 -6515
v 970 77.3146 -6517
v 970 77.443 -6519
v 970 77.6727 -6521
v 970 77.6432 -6523
v 970 77.7019 -6525
v 970 77.6966 -6527
v 970 77.7606 -6529
v 970 77.7365 -6531
v 970 77.8216 -6533
v 970 77.891 -6535
v 970 77.877 -6537
v 970 77.85 -6539
v 970 77.9053 -6541
v 970 77.7074 -6543
v 970 77.7507 -6545
v 970 77.8693 -6547
v 970 77.8028 -6549
v 970 77.9924 -6551
v 972 75.9796 -6489
v 972 76.1044 -6491
v 972 76.1285 -6493
v 972 76.1788 -6495
v 972 76.3148 -6497
v 972 76.5849 -6499
v 972 76.5949 -6501
v 972 76.9009 -6503
v 972 77.0869 -6505
v 972 77.1754 -6507
v 972 77.2682 -6509
v 972 77.3596 -6511
v 972 77.4139 -6513
v 972 77.3477 -6515
v 972 77.4259 -6517
v 972 77.5353 -6519
v 972 77.6245 -6521
v 972 77.7311 -6523
v 972 77.7433 -6525
v 972 77.5917 -6527
v 972 77.5306 -6529
v 972 77.6297 -6531
v 972 77.6257 -6533
v 972 77.7104 -6535
v 972 77.648 -6537
v 972 77.7296 -6539
v 972 77.6471 -6541
v 972 77.5821 -6543
v 972 77.5246 -6545
v 972 77.6293 -6547
v 972 77.5969 -6549
v 972 77.7933 -6551
v 974 75.8822 -6489
v 974 76.1087 -6491
v 974 76.1484 -6493
v 974 76.3465 -6495
v 974 76.3707 -6497
v 974 76.5977 -6499
v 974 76.7028 -6501
v 974 76.9424 -6503
v 974 77.0152 -6505
v 974 77.2153 -6507
v 974 77.3824 -6509
v 974 77.2745 -6511
v 974 77.3807 -6513
v 974 77.3852 -6515
v 974 77.4496 -6517
v 974 77.469 -6519
v 974 77.6123 -6521
v 974 77.6238 -6523
v 974 77.6054 -6525
v 974 77.7345 -6527
v 974 77.5766 -6529
v 974 77.9023 -6531
v 974 78.1284 -6533
v 974 78.1289 -6535
v 974 77.7673 -6537
v 974 77.5363 -6539
v 974 77.4599 -6541
v 974 77.4054 -6543
v 974 77.4874 -6545
v 974 77.554 -6547
v 974 77.4935 -6549
v 974 77.5589 -6551
v 976 75.9495 -6489
v 976 76.0949 -6491
v 976 76.0996 -6493
v 976 76.2324 -6495
v 976 76.4498 -6497
v 976 76.648 -6499
v 976 76.746 -6501
v 976 76.896 -6503
v 976 77.0776 -6505
v 976 77.1301 -6507
v 976 77.2931 -6509
v 976 77.219 -6511
v 976 77.2864 -6513
v 976 77.3021 -6515
v 976 77.4286 -6517
v 976 77.5456 -6519
v 976 77.7264 -6521
v 976 77.6682 -6523
v 976 77.737 -6525
v 976 77.6169 -6527
v 976 77.4315 -6529
v 976 77.4663 -6531
v 976 77.708 -6533
v 976 77.6242 -6535
v 976 77.8267 -6537
v 976 77.4224 -6539
v 976 77.3019 -6541
v 976 77.2335 -6543
v 976 77.2953 -6545
v 976 77.2952 -6547
v 976 77.3885 -6549
v 976 77.5435 -6551
v 978 75.992 -6489
v 978 76.1081 -6491
v 978 76.2607 -6493
v 978 76.3784 -6495
v 978 76.4417 -6497
v 978 76.6286 -6499
v 978 76.7168 -6501
v 978 76.867 -6503
v 978 77.0399 -6505
v 978 77.0601 -6507
v 978 77.1557 -6509
v 978 77.2043 -6511
v 978 77.0652 -6513
v 978 77.1822 -6515
v 978 77.284 -6517
v 978 77.2859 -6519
v 978 77.4215 -6521
v 978 77.5714 -6523
v 978 77.5377 -6525
v 978 77.5066 -6527
v 978 77.4071 -6529
v 978 77.3854 -6531
v 978 77.4392 -6533
v 978 77.4533 -6535
v 978 77.4333 -6537
v 978 77.3626 -6539
v 978 77.3544 -6541
v 978 77.3273 -6543
v 978 77.2339 -6545
v 978 77.3135 -6547
v 978 77.3336 -6549
v 978 77.4712 -6551
v 980 75.9591 -6489
v 980 76.1825 -6491
v 980 76.2157 -6493
v 980 76.3145 -6495
v 980 76.3999 -6497
v 980 76.399 -6499
v 980 76.6434 -6501
v 980 76.6618 -6503
v 980 76.842 -6505
v 980 76.9131 -6507
v 980 77.0074 -6509
v 980 76.8349 -6511
v 980 76.9654 -6513
v 980 76.9315 -6515
v 980 76.9612 -6517
v 980 77.1208 -6519
v 980 77.3336 -6521
v 980 77.3197 -6523
v 980 77.4189 -6525
v 980 77.3611 -6527
v 980 77.3963 -6529
v 980 77.2572 -6531
v 980 77.2432 -6533
v 980 77.328 -6535
v 980 77.3665 -6537
v 980 77.6642 -6539
v 980 77.3556 -6541
v 980 77.2182 -6543
v 980 77.2034 -6545
v 980 77.2428 -6547
v 980 77.2685 -6549
v 980 77.366 -6551
v 982 75.9009 -6489
v 982 76.0747 -6491
v 982 76.1832 -6493
v 982 76.203 -6495
v 982 76.255 -6497
v 982 76.2421 -6499
v 982 76.2812 -6501
v 982 76.5642 -6503
v 982 76.6515 -6505
v 982 76.7341 -6507
v 982 76.8591 -6509
v 982 76.8743 -6511
v 982 76.7051 -6513
v 982 76.7328 -6515
v 982 76.8662 -6517
v 982 76.8502 -6519
v 982 77.0677 -6521
v 982 77.2195 -6523
v 982 77.3225 -6525
v 982 77.1909 -6527
v 982 77.1266 -6529
v 982 77.2013 -6531
v 982 77.0848 -6533
v 982 77.1381 -6535
v 982 77.186 -6537
v 982 77.3404 -6539
v 982 77.499 -6541
v 982 77.2128 -6543
v 982 77.0605 -6545
v 982 77.1321 -6547
v 982 77.2378 -6549
v 982 77.2611 -6551
v 984 75.6999 -6489
v 984 75.9013 -6491
v 984 75.9994 -6493
v 984 76.0093 -6495
v 984 75.9504 -6497
v 984 75.9663 -6499
v 984 76.0504 -6501
v 984 76.2381 -6503
v 984 76.5224 -6505
v 984 76.5244 -6507
v 984 76.6522 -6509
v 984 76.6089 -6511
v 984 76.6242 -6513
v 984 76.6406 -6515
v 984 76.7286 -6517
v 984 76.6142 -6519
v 984 76.766 -6521
v 984 76.9053 -6523
v 984 76.9743 -6525
v 984 77.201 -6527
v 984 76.9606 -6529
v 984 76.9643 -6531
v 984 77.0628 -6533
v 984 77.0744 -6535
v 984 77.1978 -6537
v 984 77.1533 -6539
v 984 77.2274 -6541
v 984 76.9599 -6543
v 984 76.9711 -6545
v 984 76.9929 -6547
v 984 77.0901 -6549
v 984 77.0242 -6551
v 986 75.671 -6489
v 986 75.811 -6491
v 986 75.7514 -6493
v 986 75.7639 -6495
v 986 75.978 -6497
v 986 75.9585 -6499
v 986 76.0171 -6501
v 986 76.2264 -6503
v 986 76.2879 -6505
v 986 76.4875 -6507
v 986 76.6936 -6509
v 986 76.5982 -6511
v 986 76.576 -6513
v 986 76.5015 -6515
v 986 76.5679 -6517
v 986 76.5918 -6519
v 986 76.7256 -6521
v 986 76.8844 -6523
v 986 76.9844 -6525
v 986 76.9117 -6527
v 986 76.8944 -6529
v 986 76.9078 -6531
v 986 76.9921 -6533
v 986 77.0827 -6535
v 986 76.9814 -6537
v 986 76.815 -6539
v 986 76.8816 -6541
v 986 76.7137 -6543
v 986 76.7142 -6545
v 986 76.742 -6547
v 986 76.8783 -6549
v 986 76.9316 -6551
v 988 75.5607 -6489
v 988 75.5265 -6491
v 988 75.6134 -6493
v 988 75.7609 -6495
v 988 75.8248 -6497
v 988 75.8075 -6499
v 988 75.7943 -6501
v 988 76.049 -6503
v 988 76.1586 -6505
v 988 76.2579 -6507
v 988 76.4789 -6509
v 988 76.4369 -6511
v 988 76.3216 -6513
v 988 76.3476 -6515
v 988 76.4489 -6517
v 988 76.4871 -6519
v 988 76.5019 -6521
v 988 76.7435 -6523
v 988 76.6909 -6525
v 988 76.6396 -6527
v 988 76.7708 -6529
v 988 76.7567 -6531
v 988 76.6845 -6533
v 988 76.744 -6535
v 988 76.8298 -6537
v 988 76.61 -6539
v 988 76.6257 -6541
v 988 76.4278 -6543
v 988 76.4722 -6545
v 988 76.3845 -6547
v 988 76.4507 -6549
v 988 76.5957 -6551
f 11 10 9
f 12 10 11
f 31 30 29
f 31 32 30
f 31 33 32
f 31 34 33
f 40 38 39
f 39 38 37
f 53 54 52
f 53 52 51
f 35 34 31
f 42 43 44
f 43 42 41
f 47 46 45
f 49 48 47
f 47 48 46
f 36 34 35
f 16 14 15
f 15 14 13
f 4 2 3
f 3 2 1
f 20 18 19
f 19 18 17
f 50 48 49
f 24 22 23
f 23 22 21
f 27 28 26
f 27 26 25
f 7 6 5
f 6 7 8
f 57 56 55
f 58 56 57
f 102 101 100
f 72 71 70
f 73 71 72
f 74 71 73
f 75 71 74
f 106 104 105
f 105 104 103
f 99 97 98
f 98 97 96
f 82 81 80
f 83 81 82
f 87 85 86
f 86 85 84
f 67 68 69
f 68 67 66
f 64 63 62
f 109 108 107
f 110 108 109
f 65 63 64
f 79 77 78
f 78 77 76
f 94 93 92
f 95 93 94
f 61 60 59
f 90 89 88
f 91 89 90
f 113 112 111
f 114 112 113
f 130 129 128
f 131 129 130
f 126 125 124
f 117 116 115
f 117 118 116
f 117 119 118
f 136 134 135
f 133 134 136
f 122 121 120
f 123 121 122
f 127 125 126
f 139 138 137
f 138 139 141
f 134 133 132
f 141 139 140
f 144 143 142
f 156 154 155
f 151 150 149
f 152 150 151
f 171 170 169
f 155 154 153
f 159 158 157
f 171 172 170
f 147 146 145
f 148 146 147
f 173 172 171
f 160 158 159
f 162 163 164
f 167 166 165
f 166 167 168
f 163 162 161
f 173 174 172
f 178 176 177
f 178 179 176
f 180 179 178
f 177 176 175
f 191 190 189
f 188 186 187
f 209 208 207
f 210 208 209
f 192 190 191
f 187 186 185
f 183 182 181
f 184 182 183
f 195 194 193
f 207 206 205
f 207 208 206
f 196 194 195
f 203 202 201
f 199 200 198
f 202 203 204
f 199 198 197
f 213 215 214
f 216 215 213
f 213 214 212
f 213 212 211
f 227 226 225
f 224 222 223
f 245 244 243
f 246 244 245
f 228 226 227
f 223 222 221
f 219 218 217
f 220 218 219
f 231 230 229
f 243 242 241
f 243 244 242
f 232 230 231
f 239 238 237
f 235 236 234
f 238 239 240
f 235 234 233
f 249 251 250
f 252 251 249
f 249 250 248
f 249 248 247
f 268 267 266
f 269 267 268
f 264 263 262
f 255 254 253
f 255 256 254
f 255 257 256
f 274 272 273
f 271 272 274
f 260 259 258
f 261 259 260
f 265 263 264
f 277 276 275
f 276 277 279
f 272 271 270
f 279 277 278
f 282 281 280
f 354 353 352
f 355 353 354
f 350 349 348
f 351 349 350
f 358 357 356
f 346 345 344
f 347 345 346
f 359 357 358
f 342 341 340
f 343 341 342
f 410 409 408
f 415 413 414
f 414 413 412
f 418 417 416
f 411 409 410
f 427 425 426
f 426 425 424
f 406 405 404
f 419 417 418
f 407 405 406
f 397 395 396
f 392 391 390
f 314 315 313
f 314 313 312
f 468 428 467
f 393 391 392
f 382 381 380
f 314 316 315
f 316 317 315
f 316 318 317
f 319 318 316
f 386 384 387
f 386 385 384
f 385 388 384
f 389 388 385
f 301 300 299
f 302 300 301
f 400 399 398
f 400 402 399
f 399 402 403
f 471 470 469
f 437 435 436
f 285 286 284
f 285 284 283
f 296 297 298
f 297 296 295
f 494 493 492
f 494 495 493
f 494 496 495
f 494 499 496
f 499 500 496
f 436 435 434
f 452 436 434
f 383 381 382
f 452 453 436
f 452 485 453
f 453 485 490
f 453 490 488
f 490 489 488
f 488 489 487
f 488 487 486
f 451 449 450
f 480 483 482
f 467 428 429
f 430 429 428
f 430 431 429
f 432 431 430
f 432 433 431
f 513 510 511
f 484 283 284
f 472 471 469
f 512 511 508
f 508 511 510
f 504 502 498
f 503 498 502
f 498 497 496
f 500 498 496
f 501 498 503
f 498 501 497
f 479 480 482
f 458 460 455
f 455 460 448
f 448 460 450
f 450 449 448
f 485 491 490
f 463 462 461
f 465 463 461
f 463 465 464
f 466 465 461
f 459 458 455
f 457 459 455
f 403 402 401
f 396 395 394
f 472 469 473
f 508 510 507
f 507 510 509
f 331 329 330
f 330 329 328
f 322 321 320
f 323 321 322
f 335 333 334
f 334 333 332
f 370 369 368
f 371 369 370
f 366 365 364
f 367 365 366
f 362 361 360
f 363 361 362
f 508 507 506
f 481 480 479
f 457 455 456
f 456 455 454
f 496 497 505
f 374 373 372
f 375 373 374
f 327 325 326
f 326 325 324
f 309 307 310
f 309 308 307
f 303 311 310
f 309 310 311
f 306 304 305
f 305 304 303
f 304 311 303
f 289 288 287
f 440 439 438
f 441 439 440
f 441 442 439
f 443 442 441
f 445 444 442
f 443 445 442
f 446 445 443
f 447 446 443
f 378 377 376
f 377 378 379
f 290 288 289
f 290 291 288
f 290 292 291
f 290 293 292
f 294 293 290
f 478 476 477
f 476 474 477
f 476 475 474
f 339 337 338
f 338 337 336
f 423 421 422
f 422 421 420
f 553 552 551
f 553 551 558
f 549 638 637
f 647 544 646
f 646 544 645
f 645 544 644
f 643 540 641
f 542 641 540
f 642 641 542
f 521 519 520
f 520 519 518
f 517 515 516
f 516 515 514
f 535 534 533
f 535 533 536
f 535 536 537
f 538 537 536
f 584 590 580
f 584 580 555
f 584 555 583
f 555 557 583
f 555 556 557
f 556 555 554
f 592 591 581
f 593 592 581
f 588 593 581
f 587 588 581
f 587 581 586
f 582 586 581
f 582 581 580
f 585 582 580
f 589 585 580
f 590 589 580
f 572 570 571
f 571 570 569
f 569 570 568
f 569 568 567
f 568 564 567
f 564 568 566
f 566 565 564
f 566 563 565
f 563 566 562
f 563 562 560
f 560 562 559
f 561 560 559
f 644 544 540
f 644 540 643
f 648 544 647
f 546 638 549
f 546 639 638
f 546 640 639
f 546 649 640
f 648 649 544
f 544 649 546
f 542 540 541
f 636 635 521
f 521 635 519
f 540 544 543
f 540 543 539
f 541 540 539
f 546 545 544
f 544 545 543
f 549 548 546
f 546 548 547
f 546 547 545
f 550 548 549
f 634 633 517
f 517 633 515
f 527 526 525
f 527 525 531
f 531 525 532
f 531 532 528
f 615 614 613
f 616 614 615
f 616 617 614
f 618 617 616
f 618 619 617
f 620 619 618
f 621 619 620
f 622 619 621
f 597 622 621
f 622 597 598
f 599 598 597
f 602 601 600
f 603 601 602
f 604 601 603
f 606 604 603
f 604 606 605
f 608 605 606
f 605 608 607
f 610 607 608
f 607 610 609
f 612 609 610
f 609 612 611
f 531 528 529
f 530 529 528
f 575 574 573
f 575 579 574
f 579 524 574
f 579 523 524
f 522 523 576
f 524 523 522
f 522 627 524
f 627 628 524
f 628 629 524
f 629 630 524
f 630 631 524
f 524 631 632
f 596 595 594
f 596 594 623
f 596 623 624
f 596 624 625
f 596 625 626
f 596 626 522
f 596 522 577
f 577 522 576
f 576 578 577
f 683 651 650
f 650 682 683
f 715 683 682
f 682 714 715
f 747 715 714
f 714 746 747
f 779 747 746
f 746 778 779
f 811 779 778
f 778 810 811
f 843 811 810
f 810 842 843
f 875 843 842
f 842 874 875
f 907 875 874
f 874 906 907
f 939 907 906
f 906 938 939
f 971 939 938
f 938 970 971
f 1003 971 970
f 970 1002 1003
f 1035 1003 1002
f 1002 1034 1035
f 1067 1035 1034
f 1034 1066 1067
f 1099 1067 1066
f 1066 1098 1099
f 1131 1099 1098
f 1098 1130 1131
f 1163 1131 1130
f 1130 1162 1163
f 1195 1163 1162
f 1162 1194 1195
f 1227 1195 1194
f 1194 1226 1227
f 1259 1227 1226
f 1226 1258 1259
f 1291 1259 1258
f 1258 1290 1291
f 1323 1291 1290
f 1290 1322 1323
f 1355 1323 1322
f 1322 1354 1355
f 1387 1355 1354
f 1354 1386 1387
f 1419 1387 1386
f 1386 1418 1419
f 1451 1419 1418
f 1418 1450 1451
f 1483 1451 1450
f 1450 1482 1483
f 1515 1483 1482
f 1482 1514 1515
f 1547 1515 1514
f 1514 1546 1547
f 1579 1547 1546
f 1546 1578 1579
f 1611 1579 1578
f 1578 1610 1611
f 1643 1611 1610
f 1610 1642 1643
f 684 652 651
f 651 683 684
f 716 684 683
f 683 715 716
f 748 716 715
f 715 747 748
f 780 748 747
f 747 779 780
f 812 780 779
f 779 811 812
f 844 812 811
f 811 843 844
f 876 844 843
f 843 875 876
f 908 876 875
f 875 907 908
f 940 908 907
f 907 939 940
f 972 940 939
f 939 971 972
f 1004 972 971
f 971 1003 1004
f 1036 1004 1003
f 1003 1035 1036
f 1068 1036 1035
f 1035 1067 1068
f 1100 1068 1067
f 1067 1099 1100
f 1132 1100 1099
f 1099 1131 1132
f 1164 1132 1131
f 1131 1163 1164
f 1196 1164 1163
f 1163 1195 1196
f 1228 1196 1195
f 1195 1227 1228
f 1260 1228 1227
f 1227 1259 1260
f 1292 1260 1259
f 1259 1291 1292
f 1324 1292 1291
f 1291 1323 1324
f 1356 1324 1323
f 1323 1355 1356
f 1388 1356 1355
f 1355 1387 1388
f 1420 1388 1387
f 1387 1419 1420
f 1452 1420 1419
f 1419 1451 1452
f 1484 1452 1451
f 1451 1483 1484
f 1516 1484 1483
f 1483 1515 1516
f 1548 1516 1515
f 1515 1547 1548
f 1580 1548 1547
f 1547 1579 1580
f 1612 1580 1579
f 1579 1611 1612
f 1644 1612 1611
f 1611 1643 1644
f 685 653 652
f 652 684 685
f 717 685 684
f 684 716 717
f 749 717 716
f 716 748 749
f 781 749 748
f 748 780 781
f 813 781 780
f 780 812 813
f 845 813 812
f 812 844 845
f 877 845 844
f 844 876 877
f 909 877 876
f 876 908 909
f 941 909 908
f 908 940 941
f 973 941 940
f 940 972 973
f 1005 973 972
f 972 1004 1005
f 1037 1005 1004
f 1004 1036 1037
f 1069 1037 1036
f 1036 1068 1069
f 1101 1069 1068
f 1068 1100 1101
f 1133 1101 1100
f 1100 1132 1133
f 1165 1133 1132
f 1132 1164 1165
f 1197 1165 1164
f 1164 1196 1197
f 1229 1197 1196
f 1196 1228 1229
f 1261 1229 1228
f 1228 1260 1261
f 1293 1261 1260
f 1260 1292 1293
f 1325 1293 1292
f 1292 1324 1325
f 1357 1325 1324
f 1324 1356 1357
f 1389 1357 1356
f 1356 1388 1389
f 1421 1389 1388
f 1388 1420 1421
f 1453 1421 1420
f 1420 1452 1453
f 1485 1453 1452
f 1452 1484 1485
f 1517 1485 1484
f 1484 1516 1517
f 1549 1517 1516
f 1516 1548 1549
f 1581 1549 1548
f 1548 1580 1581
f 1613 1581 1580
f 1580 1612 1613
f 1645 1613 1612
f 1612 1644 1645
f 686 654 653
f 653 685 686
f 718 686 685
f 685 717 718
f 750 718 717
f 717 749 750
f 782 750 749
f 749 781 782
f 814 782 781
f 781 813 814
f 846 814 813
f 813 845 846
f 878 846 845
f 845 877 878
f 910 878 877
f 877 909 910
f 942 910 909
f 909 941 942
f 974 942 941
f 941 973 974
f 1006 974 973
f 973 1005 1006
f 1038 1006 1005
f 1005 1037 1038
f 1070 1038 1037
f 1037 1069 1070
f 1102 1070 1069
f 1069 1101 1102
f 1134 1102 1101
f 1101 1133 1134
f 1166 1134 1133
f 1133 1165 1166
f 1198 1166 1165
f 1165 1197 1198
f 1230 1198 1197
f 1197 1229 1230
f 1262 1230 1229
f 1229 1261 1262
f 1294 1262 1261
f 1261 1293 1294
f 1326 1294 1293
f 1293 1325 1326
f 1358 1326 1325
f 1325 1357 1358
f 1390 1358 1357
f 1357 1389 1390
f 1422 1390 1389
f 1389 1421 1422
f 1454 1422 1421
f 1421 1453 1454
f 1486 1454 1453
f 1453 1485 1486
f 1518 1486 1485
f 1485 1517 1518
f 1550 1518 1517
f 1517 1549 1550
f 1582 1550 1549
f 1549 1581 1582
f 1614 1582 1581
f 1581 1613 1614
f 1646 1614 1613
f 1613 1645 1646
f 687 655 654
f 654 686 687
f 719 687 686
f 686 718 719
f 751 719 718
f 718 750 751
f 783 751 750
f 750 782 783
f 815 783 782
f 782 814 815
f 847 815 814
f 814 846 847
f 879 847 846
f 846 878 879
f 911 879 878
f 878 910 911
f 943 911 910
f 910 942 943
f 975 943 942
f 942 974 975
f 1007 975 974
f 974 1006 1007
f 1039 1007 1006
f 1006 1038 1039
f 1071 1039 1038
f 1038 1070 1071
f 1103 1071 1070
f 1070 1102 1103
f 1135 1103 1102
f 1102 1134 1135
f 1167 1135 1134
f 1134 1166 1167
f 1199 1167 1166
f 1166 1198 1199
f 1231 1199 1198
f 1198 1230 1231
f 1263 1231 1230
f 1230 1262 1263
f 1295 1263 1262
f 1262 1294 1295
f 1327 1295 1294
f 1294 1326 1327
f 1359 1327 1326
f 1326 1358 1359
f 1391 1359 1358
f 1358 1390 1391
f 1423 1391 1390
f 1390 1422 1423
f 1455 1423 1422
f 1422 1454 1455
f 1487 1455 1454
f 1454 1486 1487
f 1519 1487 1486
f 1486 1518 1519
f 1551 1519 1518
f 1518 1550 1551
f 1583 1551 1550
f 1550 1582 1583
f 1615 1583 1582
f 1582 1614 1615
f 1647 1615 1614
f 1614 1646 1647
f 688 656 655
f 655 687 688
f 720 688 687
f 687 719 720
f 752 720 719
f 719 751 752
f 784 752 751
f 751 783 784
f 816 784 783
f 783 815 816
f 848 816 815
f 815 847 848
f 880 848 847
f 847 879 880
f 912 880 879
f 879 911 912
f 944 912 911
f 911 943 944
f 976 944 943
f 943 975 976
f 1008 976 975
f 975 1007 1008
f 1040 1008 1007
f 1007 1039 1040
f 1072 1040 1039
f 1039 1071 1072
f 1104 1072 1071
f 1071 1103 1104
f 1136 1104 1103
f 1103 1135 1136
f 1168 1136 1135
f 1135 1167 1168
f 1200 1168 1167
f 1167 1199 1200
f 1232 1200 1199
f 1199 1231 1232
f 1264 1232 1231
f 1231 1263 1264
f 1296 1264 1263
f 1263 1295 1296
f 1328 1296 1295
f 1295 1327 1328
f 1360 1328 1327
f 1327 1359 1360
f 1392 1360 1359
f 1359 1391 1392
f 1424 1392 1391
f 1391 1423 1424
f 1456 1424 1423
f 1423 1455 1456
f 1488 1456 1455
f 1455 1487 1488
f 1520 1488 1487
f 1487 1519 1520
f 1552 1520 1519
f 1519 1551 1552
f 1584 1552 1551
f 1551 1583 1584
f 1616 1584 1583
f 1583 1615 1616
f 1648 1616 1615
f 1615 1647 1648
f 689 657 656
f 656 688 689
f 721 689 688
f 688 720 721
f 753 721 720
f 720 752 753
f 785 753 752
f 752 784 785
f 817 785 784
f 784 816 817
f 849 817 816
f 816 848 849
f 881 849 848
f 848 880 881
f 913 881 880
f 880 912 913
f 945 913 912
f 912 944 945
f 977 945 944
f 944 976 977
f 1009 977 976
f 976 1008 1009
f 1041 1009 1008
f 1008 1040 1041
f 1073 1041 1040
f 1040 1072 1073
f 1105 1073 1072
f 1072 1104 1105
f 1137 1105 1104
f 1104 1136 1137
f 1169 1137 1136
f 1136 1168 1169
f 1201 1169 1168
f 1168 1200 1201
f 1233 1201 1200
f 1200 1232 1233
f 1265 1233 1232
f 1232 1264 1265
f 1297 1265 1264
f 1264 1296 1297
f 1329 1297 1296
f 1296 1328 1329
f 1361 1329 1328
f 1328 1360 1361
f 1393 1361 1360
f 1360 1392 1393
f 1425 1393 1392
f 1392 1424 1425
f 1457 1425 1424
f 1424 1456 1457
f 1489 1457 1456
f 1456 1488 1489
f 1521 1489 1488
f 1488 1520 1521
f 1553 1521 1520
f 1520 1552 1553
f 1585 1553 1552
f 1552 1584 1585
f 1617 1585 1584
f 1584 1616 1617
f 1649 1617 1616
f 1616 1648 1649
f 690 658 657
f 657 689 690
f 722 690 689
f 689 721 722
f 754 722 721
f 721 753 754
f 786 754 753
f 753 785 786
f 818 786 785
f 785 817 818
f 850 818 817
f 817 849 850
f 882 850 849
f 849 881 882
f 914 882 881
f 881 913 914
f 946 914 913
f 913 945 946
f 978 946 945
f 945 977 978
f 1010 978 977
f 977 1009 1010
f 1042 1010 1009
f 1009 1041 1042
f 1074 1042 1041
f 1041 1073 1074
f 1106 1074 1073
f 1073 1105 1106
f 1138 1106 1105
f 1105 1137 1138
f 1170 1138 1137
f 1137 1169 1170
f 1202 1170 1169
f 1169 1201 1202
f 1234 1202 1201
f 1201 1233 1234
f 1266 1234 1233
f 1233 1265 1266
f 1298 1266 1265
f 1265 1297 1298
f 1330 1298 1297
f 1297 1329 1330
f 1362 1330 1329
f 1329 1361 1362
f 1394 1362 1361
f 1361 1393 1394
f 1426 1394 1393
f 1393 1425 1426
f 1458 1426 1425
f 1425 1457 1458
f 1490 1458 1457
f 1457 1489 1490
f 1522 1490 1489
f 1489 1521 1522
f 1554 1522 1521
f 1521 1553 1554
f 1586 1554 1553
f 1553 1585 1586
f 1618 1586 1585
f 1585 1617 1618
f 1650 1618 1617
f 1617 1649 1650
f 691 659 658
f 658 690 691
f 723 691 690
f 690 722 723
f 755 723 722
f 722 754 755
f 787 755 754
f 754 786 787
f 819 787 786
f 786 818 819
f 851 819 818
f 818 850 851
f 883 851 850
f 850 882 883
f 915 883 882
f 882 914 915
f 947 915 914
f 914 946 947
f 979 947 946
f 946 978 979
f 1011 979 978
f 978 1010 1011
f 1043 1011 1010
f 1010 1042 1043
f 1075 1043 1042
f 1042 1074 1075
f 1107 1075 1074
f 1074 1106 1107
f 1139 1107 1106
f 1106 1138 1139
f 1171 1139 1138
f 1138 1170 1171
f 1203 1171 1170
f 1170 1202 1203
f 1235 1203 1202
f 1202 1234 1235
f 1267 1235 1234
f 1234 1266 1267
f 1299 1267 1266
f 1266 1298 1299
f 1331 1299 1298
f 1298 1330 1331
f 1363 1331 1330
f 1330 1362 1363
f 1395 1363 1362
f 1362 1394 1395
f 1427 1395 1394
f 1394 1426 1427
f 1459 1427 1426
f 1426 1458 1459
f 1491 1459 1458
f 1458 1490 1491
f 1523 1491 1490
f 1490 1522 1523
f 1555 1523 1522
f 1522 1554 1555
f 1587 1555 1554
f 1554 1586 1587
f 1619 1587 1586
f 1586 1618 1619
f 1651 1619 1618
f 1618 1650 1651
f 692 660 659
f 659 691 692
f 724 692 691
f 691 723 724
f 756 724 723
f 723 755 756
f 788 756 755
f 755 787 788
f 820 788 787
f 787 819 820
f 852 820 819
f 819 851 852
f 884 852 851
f 851 883 884
f 916 884 883
f 883 915 916
f 948 916 915
f 915 947 948
f 980 948 947
f 947 979 980
f 1012 980 979
f 979 1011 1012
f 1044 1012 1011
f 1011 1043 1044
f 1076 1044 1043
f 1043 1075 1076
f 1108 1076 1075
f 1075 1107 1108
f 1140 1108 1107
f 1107 1139 1140
f 1172 1140 1139
f 1139 1171 1172
f 1204 1172 1171
f 1171 1203 1204
f 1236 1204 1203
f 1203 1235 1236
f 1268 1236 1235
f 1235 1267 1268
f 1300 1268 1267
f 1267 1299 1300
f 1332 1300 1299
f 1299 1331 1332
f 1364 1332 1331
f 1331 1363 1364
f 1396 1364 1363
f 1363 1395 1396
f 1428 1396 1395
f 1395 1427 1428
f 1460 1428 1427
f 1427 1459 1460
f 1492 1460 1459
f 1459 1491 1492
f 1524 1492 1491
f 1491 1523 1524
f 1556 1524 1523
f 1523 1555 1556
f 1588 1556 1555
f 1555 1587 1588
f 1620 1588 1587
f 1587 1619 1620
f 1652 1620 1619
f 1619 1651 1652
f 693 661 660
f 660 692 693
f 725 693 692
f 692 724 725
f 757 725 724
f 724 756 757
f 789 757 756
f 756 788 789
f 821 789 788
f 788 820 821
f 853 821 820
f 820 852 853
f 885 853 852
f 852 884 885
f 917 885 884
f 884 916 917
f 949 917 916
f 916 948 949
f 981 949 948
f 948 980 981
f 1013 981 980
f 980 1012 1013
f 1045 1013 1012
f 1012 1044 1045
f 1077 1045 1044
f 1044 1076 1077
f 1109 1077 1076
f 1076 1108 1109
f 1141 1109 1108
f 1108 1140 1141
f 1173 1141 1140
f 1140 1172 1173
f 1205 1173 1172
f 1172 1204 1205
f 1237 1205 1204
f 1204 1236 1237
f 1269 1237 1236
f 1236 1268 1269
f 1301 1269 1268
f 1268 1300 1301
f 1333 1301 1300
f 1300 1332 1333
f 1365 1333 1332
f 1332 1364 1365
f 1397 1365 1364
f 1364 1396 1397
f 1429 1397 1396
f 1396 1428 1429
f 1461 1429 1428
f 1428 1460 1461
f 1493 1461 1460
f 1460 1492 1493
f 1525 1493 1492
f 1492 1524 1525
f 1557 1525 1524
f 1524 1556 1557
f 1589 1557 1556
f 1556 1588 1589
f 1621 1589 1588
f 1588 1620 1621
f 1653 1621 1620
f 1620 1652 1653
f 694 662 661
f 661 693 694
f 726 694 693
f 693 725 726
f 758 726 725
f 725 757 758
f 790 758 757
f 757 789 790
f 822 790 789
f 789 821 822
f 854 822 821
f 821 853 854
f 886 854 853
f 853 885 886
f 918 886 885
f 885 917 918
f 950 918 917
f 917 949 950
f 982 950 949
f 949 981 982
f 1014 982 981
f 981 1013 1014
f 1046 1014 1013
f 1013 1045 1046
f 1078 1046 1045
f 1045 1077 1078
f 1110 1078 1077
f 1077 1109 1110
f 1142 1110 1109
f 1109 1141 1142
f 1174 1142 1141
f 1141 1173 1174
f 1206 1174 1173
f 1173 1205 1206
f 1238 1206 1205
f 1205 1237 1238
f 1270 1238 1237
f 1237 1269 1270
f 1302 1270 1269
f 1269 1301 1302
f 1334 1302 1301
f 1301 1333 1334
f 1366 1334 1333
f 1333 1365 1366
f 1398 1366 1365
f 1365 1397 1398
f 1430 1398 1397
f 1397 1429 1430
f 1462 1430 1429
f 1429 1461 1462
f 1494 1462 1461
f 1461 1493 1494
f 1526 1494 1493
f 1493 1525 1526
f 1558 1526 1525
f 1525 1557 1558
f 1590 1558 1557
f 1557 1589 1590
f 1622 1590 1589
f 1589 1621 1622
f 1654 1622 1621
f 1621 1653 1654
f 695 663 662
f 662 694 695
f 727 695 694
f 694 726 727
f 759 727 726
f 726 758 759
f 791 759 758
f 758 790 791
f 823 791 790
f 790 822 823
f 855 823 822
f 822 854 855
f 887 855 854
f 854 886 887
f 919 887 886
f 886 918 919
f 951 919 918
f 918 950 951
f 983 951 950
f 950 982 983
f 1015 983 982
f 982 1014 1015
f 1047 1015 1014
f 1014 1046 1047
f 1079 1047 1046
f 1046 1078 1079
f 1111 1079 1078
f 1078 1110 1111
f 1143 1111 1110
f 1110 1142 1143
f 1175 1143 1142
f 1142 1174 1175
f 1207 1175 1174
f 1174 1206 1207
f 1239 1207 1206
f 1206 1238 1239
f 1271 1239 1238
f 1238 1270 1271
f 1303 1271 1270
f 1270 1302 1303
f 1335 1303 1302
f 1302 1334 1335
f 1367 1335 1334
f 1334 1366 1367
f 1399 1367 1366
f 1366 1398 1399
f 1431 1399 1398
f 1398 1430 1431
f 1463 1431 1430
f 1430 1462 1463
f 1495 1463 1462
f 1462 1494 1495
f 1527 1495 1494
f 1494 1526 1527
f 1559 1527 1526
f 1526 1558 1559
f 1591 1559 1558
f 1558 1590 1591
f 1623 1591 1590
f 1590 1622 1623
f 1655 1623 1622
f 1622 1654 1655
f 696 664 663
f 663 695 696
f 728 696 695
f 695 727 728
f 760 728 727
f 727 759 760
f 792 760 759
f 759 791 792
f 824 792 791
f 791 823 824
f 856 824 823
f 823 855 856
f 888 856 855
f 855 887 888
f 920 888 887
f 887 919 920
f 952 920 919
f 919 951 952
f 984 952 951
f 951 983 984
f 1016 984 983
f 983 1015 1016
f 1048 1016 1015
f 1015 1047 1048
f 1080 1048 1047
f 1047 1079 1080
f 1112 1080 1079
f 1079 1111 1112
f 1144 1112 1111
f 1111 1143 1144
f 1176 1144 1143
f 1143 1175 1176
f 1208 1176 1175
f 1175 1207 1208
f 1240 1208 1207
f 1207 1239 1240
f 1272 1240 1239
f 1239 1271 1272
f 1304 1272 1271
f 1271 1303 1304
f 1336 1304 1303
f 1303 1335 1336
f 1368 1336 1335
f 1335 1367 1368
f 1400 1368 1367
f 1367 1399 1400
f 1432 1400 1399
f 1399 1431 1432
f 1464 1432 1431
f 1431 1463 1464
f 1496 1464 1463
f 1463 1495 1496
f 1528 1496 1495
f 1495 1527 1528
f 1560 1528 1527
f 1527 1559 1560
f 1592 1560 1559
f 1559 1591 1592
f 1624 1592 1591
f 1591 1623 1624
f 1656 1624 1623
f 1623 1655 1656
f 697 665 664
f 664 696 697
f 729 697 696
f 696 728 729
f 761 729 728
f 728 760 761
f 793 761 760
f 760 792 793
f 825 793 792
f 792 824 825
f 857 825 824
f 824 856 857
f 889 857 856
f 856 888 889
f 921 889 888
f 888 920 921
f 953 921 920
f 920 952 953
f 985 953 952
f 952 984 985
f 1017 985 984
f 984 1016 1017
f 1049 1017 1016
f 1016 1048 1049
f 1081 1049 1048
f 1048 1080 1081
f 1113 1081 1080
f 1080 1112 1113
f 1145 1113 1112
f 1112 1144 1145
f 1177 1145 1144
f 1144 1176 1177
f 1209 1177 1176
f 1176 1208 1209
f 1241 1209 1208
f 1208 1240 1241
f 1273 1241 1240
f 1240 1272 1273
f 1305 1273 1272
f 1272 1304 1305
f 1337 1305 1304
f 1304 1336 1337
f 1369 1337 1336
f 1336 1368 1369
f 1401 1369 1368
f 1368 1400 1401
f 1433 1401 1400
f 1400 1432 1433
f 1465 1433 1432
f 1432 1464 1465
f 1497 1465 1464
f 1464 1496 1497
f 1529 1497 1496
f 1496 1528 1529
f 1561 1529 1528
f 1528 1560 1561
f 1593 1561 1560
f 1560 1592 1593
f 1625 1593 1592
f 1592 1624 1625
f 1657 1625 1624
f 1624 1656 1657
f 698 666 665
f 665 697 698
f 730 698 697
f 697 729 730
f 762 730 729
f 729 761 762
f 794 762 761
f 761 793 794
f 826 794 793
f 793 825 826
f 858 826 825
f 825 857 858
f 890 858 857
f 857 889 890
f 922 890 889
f 889 921 922
f 954 922 921
f 921 953 954
f 986 954 953
f 953 985 986
f 1018 986 985
f 985 1017 1018
f 1050 1018 1017
f 1017 1049 1050
f 1082 1050 1049
f 1049 1081 1082
f 1114 1082 1081
f 1081 1113 1114
f 1146 1114 1113
f 1113 1145 1146
f 1178 1146 1145
f 1145 1177 1178
f 1210 1178 1177
f 1177 1209 1210
f 1242 1210 1209
f 1209 1241 1242
f 1274 1242 1241
f 1241 1273 1274
f 1306 1274 1273
f 1273 1305 1306
f 1338 1306 1305
f 1305 1337 1338
f 1370 1338 1337
f 1337 1369 1370
f 1402 1370 1369
f 1369 1401 1402
f 1434 1402 1401
f 1401 1433 1434
f 1466 1434 1433
f 1433 1465 1466
f 1498 1466 1465
f 1465 1497 1498
f 1530 1498 1497
f 1497 1529 1530
f 1562 1530 1529
f 1529 1561 1562
f 1594 1562 1561
f 1561 1593 1594
f 1626 1594 1593
f 1593 1625 1626
f 1658 1626 1625
f 1625 1657 1658
f 699 667 666
f 666 698 699
f 731 699 698
f 698 730 731
f 763 731 730
f 730 762 763
f 795 763 762
f 762 794 795
f 827 795 794
f 794 826 827
f 859 827 826
f 826 858 859
f 891 859 858
f 858 890 891
f 923 891 890
f 890 922 923
f 955 923 922
f 922 954 955
f 987 955 954
f 954 986 987
f 1019 987 986
f 986 1018 1019
f 1051 1019 1018
f 1018 1050 1051
f 1083 1051 1050
f 1050 1082 1083
f 1115 1083 1082
f 1082 1114 1115
f 1147 1115 1114
f 1114 1146 1147
f 1179 1147 1146
f 1146 1178 1179
f 1211 1179 1178
f 1178 1210 1211
f 1243 1211 1210
f 1210 1242 1243
f 1275 1243 1242
f 1242 1274 1275
f 1307 1275 1274
f 1274 1306 1307
f 1339 1307 1306
f 1306 1338 1339
f 1371 1339 1338
f 1338 1370 1371
f 1403 1371 1370
f 1370 1402 1403
f 1435 1403 1402
f 1402 1434 1435
f 1467 1435 1434
f 1434 1466 1467
f 1499 1467 1466
f 1466 1498 1499
f 1531 1499 1498
f 1498 1530 1531
f 1563 1531 1530
f 1530 1562 1563
f 1595 1563 1562
f 1562 1594 1595
f 1627 1595 1594
f 1594 1626 1627
f 1659 1627 1626
f 1626 1658 1659
f 700 668 667
f 667 699 700
f 732 700 699
f 699 731 732
f 764 732 731
f 731 763 764
f 796 764 763
f 763 795 796
f 828 796 795
f 795 827 828
f 860 828 827
f 827 859 860
f 892 860 859
f 859 891 892
f 924 892 891
f 891 923 924
f 956 924 923
f 923 955 956
f 988 956 955
f 955 987 988
f 1020 988 987
f 987 1019 1020
f 1052 1020 1019
f 1019 1051 1052
f 1084 1052 1051
f 1051 1083 1084
f 1116 1084 1083
f 1083 1115 1116
f 1148 1116 1115
f 1115 1147 1148
f 1180 1148 1147
f 1147 1179 1180
f 1212 1180 1179
f 1179 1211 1212
f 1244 1212 1211
f 1211 1243 1244
f 1276 1244 1243
f 1243 1275 1276
f 1308 1276 1275
f 1275 1307 1308
f 1340 1308 1307
f 1307 1339 1340
f 1372 1340 1339
f 1339 1371 1372
f 1404 1372 1371
f 1371 1403 1404
f 1436 1404 1403
f 1403 1435 1436
f 1468 1436 1435
f 1435 1467 1468
f 1500 1468 1467
f 1467 1499 1500
f 1532 1500 1499
f 1499 1531 1532
f 1564 1532 1531
f 1531 1563 1564
f 1596 1564 1563
f 1563 1595 1596
f 1628 1596 1595
f 1595 1627 1628
f 1660 1628 1627
f 1627 1659 1660
f 701 669 668
f 668 700 701
f 733 701 700
f 700 732 733
f 765 733 732
f 732 764 765
f 797 765 764
f 764 796 797
f 829 797 796
f 796 828 829
f 861 829 828
f 828 860 861
f 893 861 860
f 860 892 893
f 925 893 892
f 892 924 925
f 957 925 924
f 924 956 957
f 989 957 956
f 956 988 989
f 1021 989 988
f 988 1020 1021
f 1053 1021 1020
f 1020 1052 1053
f 1085 1053 1052
f 1052 1084 1085
f 1117 1085 1084
f 1084 1116 1117
f 1149 1117 1116
f 1116 1148 1149
f 1181 1149 1148
f 1148 1180 1181
f 1213 1181 1180
f 1180 1212 1213
f 1245 1213 1212
f 1212 1244 1245
f 1277 1245 1244
f 1244 1276 1277
f 1309 1277 1276
f 1276 1308 1309
f 1341 1309 1308
f 1308 1340 1341
f 1373 1341 1340
f 1340 1372 1373
f 1405 1373 1372
f 1372 1404 1405
f 1437 1405 1404
f 1404 1436 1437
f 1469 1437 1436
f 1436 1468 1469
f 1501 1469 1468
f 1468 1500 1501
f 1533 1501 1500
f 1500 1532 1533
f 1565 1533 1532
f 1532 1564 1565
f 1597 1565 1564
f 1564 1596 1597
f 1629 1597 1596
f 1596 1628 1629
f 1661 1629 1628
f 1628 1660 1661
f 702 670 669
f 669 701 702
f 734 702 701
f 701 733 734
f 766 734 733
f 733 765 766
f 798 766 765
f 765 797 798
f 830 798 797
f 797 829 830
f 862 830 829
f 829 861 862
f 894 862 861
f 861 893 894
f 926 894 893
f 893 925 926
f 958 926 925
f 925 957 958
f 990 958 957
f 957 989 990
f 1022 990 989
f 989 1021 1022
f 1054 1022 1021
f 1021 1053 1054
f 1086 1054 1053
f 1053 1085 1086
f 1118 1086 1085
f 1085 1117 1118
f 1150 1118 1117
f 1117 1149 1150
f 1182 1150 1149
f 1149 1181 1182
f 1214 1182 1181
f 1181 1213 1214
f 1246 1214 1213
f 1213 1245 1246
f 1278 1246 1245
f 1245 1277 1278
f 1310 1278 1277
f 1277 1309 1310
f 1342 1310 1309
f 1309 1341 1342
f 1374 1342 1341
f 1341 1373 1374
f 1406 1374 1373
f 1373 1405 1406
f 1438 1406 1405
f 1405 1437 1438
f 1470 1438 1437
f 1437 1469 1470
f 1502 1470 1469
f 1469 1501 1502
f 1534 1502 1501
f 1501 1533 1534
f 1566 1534 1533
f 1533 1565 1566
f 1598 1566 1565
f 1565 1597 1598
f 1630 1598 1597
f 1597 1629 1630
f 1662 1630 1629
f 1629 1661 1662
f 703 671 670
f 670 702 703
f 735 703 702
f 702 734 735
f 767 735 734
f 734 766 767
f 799 767 766
f 766 798 799
f 831 799 798
f 798 830 831
f 863 831 830
f 830 862 863
f 895 863 862
f 862 894 895
f 927 895 894
f 894 926 927
f 959 927 926
f 926 958 959
f 991 959 958
f 958 990 991
f 1023 991 990
f 990 1022 1023
f 1055 1023 1022
f 1022 1054 1055
f 1087 1055 1054
f 1054 1086 1087
f 1119 1087 1086
f 1086 1118 1119
f 1151 1119 1118
f 1118 1150 1151
f 1183 1151 1150
f 1150 1182 1183
f 1215 1183 1182
f 1182 1214 1215
f 1247 1215 1214
f 1214 1246 1247
f 1279 1247 1246
f 1246 1278 1279
f 1311 1279 1278
f 1278 1310 1311
f 1343 1311 1310
f 1310 1342 1343
f 1375 1343 1342
f 1342 1374 1375
f 1407 1375 1374
f 1374 1406 1407
f 1439 1407 1406
f 1406 1438 1439
f 1471 1439 1438
f 1438 1470 1471
f 1503 1471 1470
f 1470 1502 1503
f 1535 1503 1502
f 1502 1534 1535
f 1567 1535 1534
f 1534 1566 1567
f 1599 1567 1566
f 1566 1598 1599
f 1631 1599 1598
f 1598 1630 1631
f 1663 1631 1630
f 1630 1662 1663
f 704 672 671
f 671 703 704
f 736 704 703
f 703 735 736
f 768 736 735
f 735 767 768
f 800 768 767
f 767 799 800
f 832 800 799
f 799 831 832
f 864 832 831
f 831 863 864
f 896 864 863
f 863 895 896
f 928 896 895
f 895 927 928
f 960 928 927
f 927 959 960
f 992 960 959
f 959 991 992
f 1024 992 991
f 991 1023 1024
f 1056 1024 1023
f 1023 1055 1056
f 1088 1056 1055
f 1055 1087 1088
f 1120 1088 1087
f 1087 1119 1120
f 1152 1120 1119
f 1119 1151 1152
f 1184 1152 1151
f 1151 1183 1184
f 1216 1184 1183
f 1183 1215 1216
f 1248 1216 1215
f 1215 1247 1248
f 1280 1248 1247
f 1247 1279 1280
f 1312 1280 1279
f 1279 1311 1312
f 1344 1312 1311
f 1311 1343 1344
f 1376 1344 1343
f 1343 1375 1376
f 1408 1376 1375
f 1375 1407 1408
f 1440 1408 1407
f 1407 1439 1440
f 1472 1440 1439
f 1439 1471 1472
f 1504 1472 1471
f 1471 1503 1504
f 1536 1504 1503
f 1503 1535 1536
f 1568 1536 1535
f 1535 1567 1568
f 1600 1568 1567
f 1567 1599 1600
f 1632 1600 1599
f 1599 1631 1632
f 1664 1632 1631
f 1631 1663 1664
f 705 673 672
f 672 704 705
f 737 705 704
f 704 736 737
f 769 737 736
f 736 768 769
f 801 769 768
f 768 800 801
f 833 801 800
f 800 832 833
f 865 833 832
f 832 864 865
f 897 865 864
f 864 896 897
f 929 897 896
f 896 928 929
f 961 929 928
f 928 960 961
f 993 961 960
f 960 992 993
f 1025 993 992
f 992 1024 1025
f 1057 1025 1024
f 1024 1056 1057
f 1089 1057 1056
f 1056 1088 1089
f 1121 1089 1088
f 1088 1120 1121
f 1153 1121 1120
f 1120 1152 1153
f 1185 1153 1152
f 1152 1184 1185
f 1217 1185 1184
f 1184 1216 1217
f 1249 1217 1216
f 1216 1248 1249
f 1281 1249 1248
f 1248 1280 1281
f 1313 1281 1280
f 1280 1312 1313
f 1345 1313 1312
f 1312 1344 1345
f 1377 1345 1344
f 1344 1376 1377
f 1409 1377 1376
f 1376 1408 1409
f 1441 1409 1408
f 1408 1440 1441
f 1473 1441 1440
f 1440 1472 1473
f 1505 1473 1472
f 1472 1504 1505
f 1537 1505 1504
f 1504 1536 1537
f 1569 1537 1536
f 1536 1568 1569
f 1601 1569 1568
f 1568 1600 1601
f 1633 1601 1600
f 1600 1632 1633
f 1665 1633 1632
f 1632 1664 1665
f 706 674 673
f 673 705 706
f 738 706 705
f 705 737 738
f 770 738 737
f 737 769 770
f 802 770 769
f 769 801 802
f 834 802 801
f 801 833 834
f 866 834 833
f 833 865 866
f 898 866 865
f 865 897 898
f 930 898 897
f 897 929 930
f 962 930 929
f 929 961 962
f 994 962 961
f 961 993 994
f 1026 994 993
f 993 1025 1026
f 1058 1026 1025
f 1025 1057 1058
f 1090 1058 1057
f 1057 1089 1090
f 1122 1090 1089
f 1089 1121 1122
f 1154 1122 1121
f 1121 1153 1154
f 1186 1154 1153
f 1153 1185 1186
f 1218 1186 1185
f 1185 1217 1218
f 1250 1218 1217
f 1217 1249 1250
f 1282 1250 1249
f 1249 1281 1282
f 1314 1282 1281
f 1281 1313 1314
f 1346 1314 1313
f 1313 1345 1346
f 1378 1346 1345
f 1345 1377 1378
f 1410 1378 1377
f 1377 1409 1410
f 1442 1410 1409
f 1409 1441 1442
f 1474 1442 1441
f 1441 1473 1474
f 1506 1474 1473
f 1473 1505 1506
f 1538 1506 1505
f 1505 1537 1538
f 1570 1538 1537
f 1537 1569 1570
f 1602 1570 1569
f 1569 1601 1602
f 1634 1602 1601
f 1601 1633 1634
f 1666 1634 1633
f 1633 1665 1666
f 707 675 674
f 674 706 707
f 739 707 706
f 706 738 739
f 771 739 738
f 738 770 771
f 803 771 770
f 770 802 803
f 835 803 802
f 802 834 835
f 867 835 834
f 834 866 867
f 899 867 866
f 866 898 899
f 931 899 898
f 898 930 931
f 963 931 930
f 930 962 963
f 995 963 962
f 962 994 995
f 1027 995 994
f 994 1026 1027
f 1059 1027 1026
f 1026 1058 1059
f 1091 1059 1058
f 1058 1090 1091
f 1123 1091 1090
f 1090 1122 1123
f 1155 1123 1122
f 1122 1154 1155
f 1187 1155 1154
f 1154 1186 1187
f 1219 1187 1186
f 1186 1218 1219
f 1251 1219 1218
f 1218 1250 1251
f 1283 1251 1250
f 1250 1282 1283
f 1315 1283 1282
f 1282 1314 1315
f 1347 1315 1314
f 1314 1346 1347
f 1379 1347 1346
f 1346 1378 1379
f 1411 1379 1378
f 1378 1410 1411
f 1443 1411 1410
f 1410 1442 1443
f 1475 1443 1442
f 1442 1474 1475
f 1507 1475 1474
f 1474 1506 1507
f 1539 1507 1506
f 1506 1538 1539
f 1571 1539 1538
f 1538 1570 1571
f 1603 1571 1570
f 1570 1602 1603
f 1635 1603 1602
f 1602 1634 1635
f 1667 1635 1634
f 1634 1666 1667
f 708 676 675
f 675 707 708
f 740 708 707
f 707 739 740
f 772 740 739
f 739 771 772
f 804 772 771
f 771 803 804
f 836 804 803
f 803 835 836
f 868 836 835
f 835 867 868
f 900 868 867
f 867 899 900
f 932 900 899
f 899 931 932
f 964 932 931
f 931 963 964
f 996 964 963
f 963 995 996
f 1028 996 995
f 995 1027 1028
f 1060 1028 1027
f 1027 1059 1060
f 1092 1060 1059
f 1059 1091 1092
f 1124 1092 1091
f 1091 1123 1124
f 1156 1124 1123
f 1123 1155 1156
f 1188 1156 1155
f 1155 1187 1188
f 1220 1188 1187
f 1187 1219 1220
f 1252 1220 1219
f 1219 1251 1252
f 1284 1252 1251
f 1251 1283 1284
f 1316 1284 1283
f 1283 1315 1316
f 1348 1316 1315
f 1315 1347 1348
f 1380 1348 1347
f 1347 1379 1380
f 1412 1380 1379
f 1379 1411 1412
f 1444 1412 1411
f 1411 1443 1444
f 1476 1444 1443
f 1443 1475 1476
f 1508 1476 1475
f 1475 1507 1508
f 1540 1508 1507
f 1507 1539 1540
f 1572 1540 1539
f 1539 1571 1572
f 1604 1572 1571
f 1571 1603 1604
f 1636 1604 1603
f 1603 1635 1636
f 1668 1636 1635
f 1635 1667 1668
f 709 677 676
f 676 708 709
f 741 709 708
f 708 740 741
f 773 741 740
f 740 772 773
f 805 773 772
f 772 804 805
f 837 805 804
f 804 836 837
f 869 837 836
f 836 868 869
f 901 869 868
f 868 900 901
f 933 901 900
f 900 932 933
f 965 933 932
f 932 964 965
f 997 965 964
f 964 996 997
f 1029 997 996
f 996 1028 1029
f 1061 1029 1028
f 1028 1060 1061
f 1093 1061 1060
f 1060 1092 1093
f 1125 1093 1092
f 1092 1124 1125
f 1157 1125 1124
f 1124 1156 1157
f 1189 1157 1156
f 1156 1188 1189
f 1221 1189 1188
f 1188 1220 1221
f 1253 1221 1220
f 1220 1252 1253
f 1285 1253 1252
f 1252 1284 1285
f 1317 1285 1284
f 1284 1316 1317
f 1349 1317 1316
f 1316 1348 1349
f 1381 1349 1348
f 1348 1380 1381
f 1413 1381 1380
f 1380 1412 1413
f 1445 1413 1412
f 1412 1444 1445
f 1477 1445 1444
f 1444 1476 1477
f 1509 1477 1476
f 1476 1508 1509
f 1541 1509 1508
f 1508 1540 1541
f 1573 1541 1540
f 1540 1572 1573
f 1605 1573 1572
f 1572 1604 1605
f 1637 1605 1604
f 1604 1636 1637
f 1669 1637 1636
f 1636 1668 1669
f 710 678 677
f 677 709 710
f 742 710 709
f 709 741 742
f 774 742 741
f 741 773 774
f 806 774 773
f 773 805 806
f 838 806 805
f 805 837 838
f 870 838 837
f 837 869 870
f 902 870 869
f 869 901 902
f 934 902 901
f 901 933 934
f 966 934 933
f 933 965 966
f 998 966 965
f 965 997 998
f 1030 998 997
f 997 1029 1030
f 1062 1030 1029
f 1029 1061 1062
f 1094 1062 1061
f 1061 1093 1094
f 1126 1094 1093
f 1093 1125 1126
f 1158 1126 1125
f 1125 1157 1158
f 1190 1158 1157
f 1157 1189 1190
f 1222 1190 1189
f 1189 1221 1222
f 1254 1222 1221
f 1221 1253 1254
f 1286 1254 1253
f 1253 1285 1286
f 1318 1286 1285
f 1285 1317 1318
f 1350 1318 1317
f 1317 1349 1350
f 1382 1350 1349
f 1349 1381 1382
f 1414 1382 1381
f 1381 1413 1414
f 1446 1414 1413
f 1413 1445 1446
f 1478 1446 1445
f 1445 1477 1478
f 1510 1478 1477
f 1477 1509 1510
f 1542 1510 1509
f 1509 1541 1542
f 1574 1542 1541
f 1541 1573 1574
f 1606 1574 1573
f 1573 1605 1606
f 1638 1606 1605
f 1605 1637 1638
f 1670 1638 1637
f 1637 1669 1670
f 711 679 678
f 678 710 711
f 743 711 710
f 710 742 743
f 775 743 742
f 742 774 775
f 807 775 774
f 774 806 807
f 839 807 806
f 806 838 839
f 871 839 838
f 838 870 871
f 903 871 870
f 870 902 903
f 935 903 902
f 902 934 935
f 967 935 934
f 934 966 967
f 999 967 966
f 966 998 999
f 1031 999 998
f 998 1030 1031
f 1063 1031 1030
f 1030 1062 1063
f 1095 1063 1062
f 1062 1094 1095
f 1127 1095 1094
f 1094 1126 1127
f 1159 1127 1126
f 1126 1158 1159
f 1191 1159 1158
f 1158 1190 1191
f 1223 1191 1190
f 1190 1222 1223
f 1255 1223 1222
f 1222 1254 1255
f 1287 1255 1254
f 1254 1286 1287
f 1319 1287 1286
f 1286 1318 1319
f 1351 1319 1318
f 1318 1350 1351
f 1383 1351 1350
f 1350 1382 1383
f 1415 1383 1382
f 1382 1414 1415
f 1447 1415 1414
f 1414 1446 1447
f 1479 1447 1446
f 1446 1478 1479
f 1511 1479 1478
f 1478 1510 1511
f 1543 1511 1510
f 1510 1542 1543
f 1575 1543 1542
f 1542 1574 1575
f 1607 1575 1574
f 1574 1606 1607
f 1639 1607 1606
f 1606 1638 1639
f 1671 1639 1638
f 1638 1670 1671
f 712 680 679
f 679 711 712
f 744 712 711
f 711 743 744
f 776 744 743
f 743 775 776
f 808 776 775
f 775 807 808
f 840 808 807
f 807 839 840
f 872 840 839
f 839 871 872
f 904 872 871
f 871 903 904
f 936 904 903
f 903 935 936
f 968 936 935
f 935 967 968
f 1000 968 967
f 967 999 1000
f 1032 1000 999
f 999 1031 1032
f 1064 1032 1031
f 1031 1063 1064
f 1096 1064 1063
f 1063 1095 1096
f 1128 1096 1095
f 1095 1127 1128
f 1160 1128 1127
f 1127 1159 1160
f 1192 1160 1159
f 1159 1191 1192
f 1224 1192 1191
f 1191 1223 1224
f 1256 1224 1223
f 1223 1255 1256
f 1288 1256 1255
f 1255 1287 1288
f 1320 1288 1287
f 1287 1319 1320
f 1352 1320 1319
f 1319 1351 1352
f 1384 1352 1351
f 1351 1383 1384
f 1416 1384 1383
f 1383 1415 1416
f 1448 1416 1415
f 1415 1447 1448
f 1480 1448 1447
f 1447 1479 1480
f 1512 1480 1479
f 1479 1511 1512
f 1544 1512 1511
f 1511 1543 1544
f 1576 1544 1543
f 1543 1575 1576
f 1608 1576 1575
f 1575 1607 1608
f 1640 1608 1607
f 1607 1639 1640
f 1672 1640 1639
f 1639 1671 1672
f 713 681 680
f 680 712 713
f 745 713 712
f 712 744 745
f 777 745 744
f 744 776 777
f 809 777 776
f 776 808 809
f 841 809 808
f 808 840 841
f 873 841 840
f 840 872 873
f 905 873 872
f 872 904 905
f 937 905 904
f 904 936 937
f 969 937 936
f 936 968 969
f 1001 969 968
f 968 1000 1001
f 1033 1001 1000
f 1000 1032 1033
f 1065 1033 1032
f 1032 1064 1065
f 1097 1065 1064
f 1064 1096 1097
f 1129 1097 1096
f 1096 1128 1129
f 1161 1129 1128
f 1128 1160 1161
f 1193 1161 1160
f 1160 1192 1193
f 1225 1193 1192
f 1192 1224 1225
f 1257 1225 1224
f 1224 1256 1257
f 1289 1257 1256
f 1256 1288 1289
f 1321 1289 1288
f 1288 1320 1321
f 1353 1321 1320
f 1320 1352 1353
f 1385 1353 1352
f 1352 1384 1385
f 1417 1385 1384
f 1384 1416 1417
f 1449 1417 1416
f 1416 1448 1449
f 1481 1449 1448
f 1448 1480 1481
f 1513 1481 1480
f 1480 1512 1513
f 1545 1513 1512
f 1512 1544 1545
f 1577 1545 1544
f 1544 1576 1577
f 1609 1577 1576
f 1576 1608 1609
f 1641 1609 1608
f 1608 1640 1641
f 1673 1641 1640
f 1640 1672 1673
