v -2699.63 68.8342 -4492.31
v -2699.63 68.8127 -4495.31
v -2699.63 66.533 -4492.31
v -2699.63 66.533 -4495.31
v -2704.72 69.4511 -4492.32
v -2704.6 69.533 -4495.31
v -2703.81 69.3677 -4492.31
v -2703.81 69.4506 -4495.31
v -2703.74 68.9494 -4495.31
v -2703.74 69.033 -4492.31
v -2703.74 69.3622 -4495.31
v -2703.74 69.2804 -4492.31
v -2705.81 70.4076 -4495.31
v -2705.81 70.4767 -4492.31
v -2706.74 70.4639 -4495.31
v -2706.74 70.533 -4492.31
v -2705.74 70.3918 -4492.31
v -2705.74 70.3227 -4495.31
v -2705.74 69.9511 -4492.31
v -2705.74 70.033 -4495.31
v -2704.68 69.903 -4495.31
v -2704.8 69.8223 -4492.32
v -2705.74 70.033 -4495.31
v -2705.74 69.9511 -4492.31
v -2704.72 69.4511 -4492.32
v -2704.72 69.7313 -4492.32
v -2704.6 69.533 -4495.31
v -2704.6 69.8132 -4495.31
v -2706.81 70.8908 -4495.31
v -2706.81 70.9846 -4492.31
v -2707.74 70.9391 -4495.31
v -2707.74 71.033 -4492.31
v -2706.74 70.9004 -4492.31
v -2706.74 70.8065 -4495.31
v -2706.74 70.533 -4492.31
v -2706.74 70.4639 -4495.31
v -2707.81 71.3071 -4495.31
v -2707.81 71.4082 -4492.31
v -2708.74 71.3554 -4495.31
v -2708.74 71.4566 -4492.31
v -2707.74 71.324 -4492.31
v -2707.74 71.2229 -4495.31
v -2707.74 71.033 -4492.31
v -2707.74 70.9391 -4495.31
v -2708.81 71.7287 -4495.31
v -2708.81 71.9846 -4492.31
v -2709.74 71.7771 -4495.31
v -2709.74 72.033 -4492.31
v -2708.74 71.9001 -4492.31
v -2708.74 71.6443 -4495.31
v -2708.74 71.4566 -4492.31
v -2708.74 71.3554 -4495.31
v -2709.81 72.2289 -4495.31
v -2709.81 72.4031 -4492.31
v -2710.74 72.2772 -4495.31
v -2710.74 72.4514 -4492.31
v -2709.74 71.7771 -4495.31
v -2709.74 72.033 -4492.31
v -2709.74 72.1446 -4495.31
v -2709.74 72.3187 -4492.31
v -2710.81 72.7287 -4495.31
v -2710.81 72.9846 -4492.31
v -2711.74 72.7771 -4495.31
v -2711.74 73.033 -4492.31
v -2710.74 72.9001 -4492.31
v -2710.74 72.6443 -4495.31
v -2710.74 72.4514 -4492.31
v -2710.74 72.2772 -4495.31
v -2712.58 73.2545 -4495.31
v -2711.74 72.7771 -4495.31
v -2711.81 73.2287 -4495.31
v -2711.74 73.1443 -4495.31
v -2711.74 73.4001 -4492.31
v -2711.74 73.1443 -4495.31
v -2711.74 73.033 -4492.31
v -2711.74 72.7771 -4495.31
v -2699.63 68.8342 -4492.31
v -2699.87 68.9808 -4492.31
v -2699.63 68.8127 -4495.31
v -2699.71 68.8972 -4495.31
v -2703.74 68.9494 -4495.31
v -2703.74 69.033 -4492.31
v -2711.79 73.533 -4492.31
v -2711.81 73.2287 -4495.31
v -2712.74 66.533 -4479.48
v -2712.74 73.533 -4479.48
v -2707.74 66.533 -4479.48
v -2707.74 73.533 -4479.48
v -2713.38 66.533 -4480.13
v -2713.38 66.533 -4485.9
v -2713.38 73.533 -4480.13
v -2713.38 73.533 -4485.9
v -2698.95 66.533 -4485.9
v -2698.95 66.533 -4480.13
v -2698.95 73.533 -4485.9
v -2698.95 73.533 -4482.26
v -2698.95 73.533 -4480.13
v -2713.38 66.533 -4491.68
v -2712.74 66.533 -4492.31
v -2713.38 73.533 -4491.68
v -2712.74 73.533 -4492.31
v -2712.74 73.872 -4485.9
v -2712.74 73.872 -4480.13
v -2713.38 73.533 -4485.9
v -2713.38 73.533 -4480.13
v -2699.63 73.872 -4491.68
v -2703.5 73.872 -4491.68
v -2699.63 73.533 -4492.31
v -2703.5 73.533 -4492.31
v -2698.95 73.533 -4485.9
v -2698.95 73.533 -4482.26
v -2699.63 73.872 -4485.9
v -2699.63 73.872 -4482.3
v -2707.74 73.872 -4480.13
v -2712.74 73.533 -4479.48
v -2707.74 73.533 -4479.48
v -2699.63 73.533 -4479.48
v -2699.63 66.533 -4479.48
v -2712.74 73.533 -4492.31
v -2712.74 73.872 -4491.68
v -2713.38 73.533 -4491.68
v -2698.95 73.533 -4491.68
v -2699.63 73.533 -4479.48
v -2699.63 73.872 -4480.13
v -2698.95 73.533 -4480.13
v -2699.87 68.9808 -4492.31
v -2703.74 69.2804 -4492.31
v -2703.74 69.033 -4492.31
v -2703.81 69.3677 -4492.31
v -2704.72 69.7313 -4492.32
v -2704.72 69.4511 -4492.32
v -2704.8 69.8223 -4492.32
v -2705.74 70.3918 -4492.31
v -2705.74 69.9511 -4492.31
v -2705.81 70.4767 -4492.31
v -2706.74 70.9004 -4492.31
v -2706.74 70.533 -4492.31
v -2706.81 70.9846 -4492.31
v -2707.74 71.324 -4492.31
v -2707.74 71.033 -4492.31
v -2707.81 71.4082 -4492.31
v -2708.74 71.9001 -4492.31
v -2708.74 71.4566 -4492.31
v -2708.81 71.9846 -4492.31
v -2709.74 72.3187 -4492.31
v -2709.74 72.033 -4492.31
v -2709.81 72.4031 -4492.31
v -2710.74 72.9001 -4492.31
v -2710.74 72.4514 -4492.31
v -2710.81 72.9846 -4492.31
v -2711.74 73.4001 -4492.31
v -2711.74 73.033 -4492.31
v -2699.63 71.327 -4492.31
v -2703.5 73.533 -4492.31
v -2699.63 73.533 -4492.31
v -2707.65 73.533 -4492.31
v -2711.79 73.533 -4492.31
v -2698.95 73.533 -4491.68
v -2698.95 66.533 -4491.68
v -2711.79 73.533 -4492.31
v -2707.65 73.533 -4492.31
v -2707.65 73.872 -4491.68
v -2698.95 73.533 -4489.04
v -2698.95 73.533 -4489.04
v -2699.63 73.872 -4489.08
v -2699.63 73.533 -4479.48
v -2699.63 66.533 -4479.48
v -2710.74 72.2772 -4495.31
v -2709.74 71.7771 -4495.31
v -2709.81 72.2289 -4495.31
v -2709.74 72.1446 -4495.31
v -2703.74 68.9494 -4495.31
v -2699.63 66.533 -4495.31
v -2699.71 68.8972 -4495.31
v -2699.63 68.8127 -4495.31
v -2706.74 70.4639 -4495.31
v -2705.74 70.033 -4495.31
v -2705.81 70.4076 -4495.31
v -2705.74 70.3227 -4495.31
v -2704.6 69.533 -4495.31
v -2703.81 69.4506 -4495.31
v -2703.74 69.3622 -4495.31
v -2704.68 69.903 -4495.31
v -2704.6 69.8132 -4495.31
v -2705.83 66.533 -4495.31
v -2707.74 70.9391 -4495.31
v -2706.81 70.8908 -4495.31
v -2706.74 70.8065 -4495.31
v -2708.74 71.3554 -4495.31
v -2707.81 71.3071 -4495.31
v -2707.74 71.2229 -4495.31
v -2708.81 71.7287 -4495.31
v -2708.74 71.6443 -4495.31
v -2709.96 66.533 -4495.31
v -2710.81 72.7287 -4495.31
v -2710.74 72.6443 -4495.31
v -2712.6 66.533 -4495.31
v -2712.74 73.2839 -4495.15
v -2712.76 66.533 -4495.15
v -2712.74 73.533 -4492.31
v -2712.74 73.2839 -4495.15
v -2712.58 73.2545 -4495.31
v -2711.93 73.8077 -4489.82
v -2704.35 73.8077 -4489.82
v -2711.93 78.1251 -4489.82
v -2704.35 78.1251 -4489.82
v -2711.93 73.8077 -4481.92
v -2711.93 78.1251 -4481.92
v -2704.35 73.8077 -4481.92
v -2704.35 78.1251 -4481.92
v -2712.35 73.8077 -4482.31
v -2712.35 73.8077 -4489.42
v -2712.35 78.1251 -4482.31
v -2712.35 78.1251 -4489.42
v -2703.92 78.1251 -4489.42
v -2703.92 73.8077 -4489.42
v -2703.92 78.1251 -4482.31
v -2703.92 73.8077 -4482.31
v -2711.93 78.3549 -4489.42
v -2711.93 78.3549 -4482.31
v -2704.35 78.3549 -4489.42
v -2704.35 78.3549 -4482.31
v -2711.93 78.3549 -4482.31
v -2704.35 78.3549 -4482.31
v -2704.35 78.1251 -4481.92
v -2704.35 73.8077 -4481.92
v -2711.1 78.3549 -4488.99
v -2705.61 78.3549 -4488.99
v -2711.1 82.2358 -4488.99
v -2705.61 82.2358 -4488.99
v -2711.1 78.3549 -4482.89
v -2711.1 82.2358 -4482.89
v -2705.61 78.3549 -4482.89
v -2705.61 82.2358 -4482.89
v -2711.41 78.3549 -4483.19
v -2711.41 78.3549 -4488.68
v -2711.41 82.2358 -4483.19
v -2711.41 82.2358 -4488.68
v -2705.31 82.2358 -4488.68
v -2705.31 78.3549 -4488.68
v -2705.31 82.2358 -4483.19
v -2705.31 78.3549 -4483.19
v -2711.1 82.4022 -4488.68
v -2705.61 82.4022 -4488.68
v -2705.61 82.4022 -4483.19
v -2711.1 82.4022 -4483.19
v -2705.61 82.4022 -4483.19
v -2705.61 82.2358 -4482.89
v -2705.61 78.3549 -4482.89
v -2710.31 82.4022 -4488.24
v -2706.18 82.4022 -4488.24
v -2710.31 85.92 -4488.24
v -2706.18 85.92 -4488.24
v -2710.31 82.4022 -4483.64
v -2710.31 85.92 -4483.64
v -2706.18 82.4022 -4483.64
v -2706.18 85.92 -4483.64
v -2710.54 82.4022 -4483.87
v -2710.54 82.4022 -4488.01
v -2710.54 85.92 -4483.87
v -2710.54 85.92 -4488.01
v -2705.95 85.92 -4488.01
v -2705.95 82.4022 -4488.01
v -2705.95 85.92 -4483.87
v -2705.95 82.4022 -4483.87
v -2710.31 86.0454 -4488.01
v -2710.31 86.0454 -4483.87
v -2706.18 86.0454 -4488.01
v -2706.18 86.0454 -4483.87
v -2706.18 86.0454 -4483.87
v -2706.18 85.92 -4483.64
v -2706.18 82.4022 -4483.64
v -2709.92 86.0454 -4487.69
v -2706.76 86.0454 -4487.69
v -2709.92 88.5011 -4487.69
v -2706.76 88.5011 -4487.69
v -2709.92 88.61 -4484.36
v -2709.92 88.61 -4487.52
v -2706.76 88.61 -4484.36
v -2706.76 88.61 -4487.52
v -2709.92 86.0454 -4484.18
v -2709.92 88.5011 -4484.18
v -2706.76 86.0454 -4484.18
v -2706.76 88.5011 -4484.18
v -2710.1 86.0454 -4484.36
v -2710.1 86.0454 -4487.52
v -2710.1 88.5011 -4484.36
v -2710.1 88.5011 -4487.52
v -2706.59 88.5011 -4487.52
v -2706.59 86.0454 -4487.52
v -2706.59 88.5011 -4484.36
v -2706.59 86.0454 -4484.36
v -2709.92 88.61 -4487.52
v -2709.92 88.61 -4484.36
v -2706.76 88.61 -4487.52
v -2706.76 88.61 -4484.36
v -2706.76 88.61 -4484.36
v -2706.76 88.5011 -4484.18
v -2706.76 86.0454 -4484.18
v -2701.48 73.8808 -4487.69
v -2699.95 73.8808 -4487.69
v -2701.48 75.2181 -4487.69
v -2699.95 75.2181 -4487.69
v -2701.48 75.2754 -4484.36
v -2701.48 75.2754 -4487.52
v -2699.95 75.2754 -4484.36
v -2699.95 75.2754 -4487.52
v -2701.48 73.8808 -4484.18
v -2701.48 75.2181 -4484.18
v -2699.95 73.8808 -4484.18
v -2699.95 75.2181 -4484.18
v -2701.56 73.8808 -4484.36
v -2701.56 73.8808 -4487.52
v -2701.56 75.2181 -4484.36
v -2701.56 75.2181 -4487.52
v -2699.87 75.2181 -4487.52
v -2699.87 73.8808 -4487.52
v -2699.87 75.2181 -4484.36
v -2699.87 73.8808 -4484.36
v -2701.48 75.2754 -4487.52
v -2701.48 75.2754 -4484.36
v -2699.95 75.2754 -4487.52
v -2699.95 75.2754 -4484.36
v -2699.95 75.2754 -4484.36
v -2699.95 75.2181 -4484.18
v -2699.95 73.8808 -4484.18
v -2704.35 73.8077 -4489.82
v -2703.92 73.8077 -4489.42
v -2699.87 73.8808 -4484.36
v -2699.87 73.8808 -4487.52
v -2701.56 73.8808 -4487.52
v -2703.92 73.8077 -4482.31
v -2701.56 73.8808 -4484.36
v -2699.95 73.8808 -4487.69
v -2701.48 73.8808 -4487.69
v -2701.48 73.8808 -4484.18
v -2699.95 73.8808 -4484.18
v -2711.93 73.8077 -4481.92
v -2712.35 73.8077 -4489.42
v -2712.35 73.8077 -4482.31
v -2711.93 73.8077 -4489.82
v -2704.35 73.8077 -4481.92
v -2704.35 78.3549 -4489.42
v -2705.61 78.3549 -4488.99
v -2711.93 78.3549 -4489.42
v -2711.1 78.3549 -4488.99
v -2711.93 78.3549 -4482.31
v -2711.41 78.3549 -4483.19
v -2711.41 78.3549 -4488.68
v -2704.35 78.3549 -4482.31
v -2711.93 78.3549 -4482.31
v -2705.61 78.3549 -4482.89
v -2711.1 78.3549 -4482.89
v -2711.1 82.4022 -4483.19
v -2710.31 82.4022 -4483.64
v -2705.61 82.4022 -4483.19
v -2706.18 82.4022 -4483.64
v -2706.18 86.0454 -4483.87
v -2710.31 86.0454 -4483.87
v -2706.76 86.0454 -4484.18
v -2709.92 86.0454 -4484.18
v -2704.35 78.3549 -4482.31
v -2705.31 78.3549 -4483.19
v -2705.31 78.3549 -4488.68
v -2705.95 82.4022 -4483.87
v -2705.61 82.4022 -4488.68
v -2705.95 82.4022 -4488.01
v -2706.18 86.0454 -4483.87
v -2706.59 86.0454 -4484.36
v -2706.18 86.0454 -4488.01
v -2706.59 86.0454 -4487.52
v -2706.76 86.0454 -4487.69
v -2710.31 86.0454 -4488.01
v -2709.92 86.0454 -4487.69
v -2711.1 82.4022 -4488.68
v -2710.31 82.4022 -4488.24
v -2706.18 82.4022 -4488.24
v -2711.1 78.3549 -4488.99
v -2711.41 78.3549 -4488.68
v -2711.93 78.3549 -4489.42
v -2706.18 86.0454 -4488.01
v -2706.59 86.0454 -4487.52
v -2706.76 86.0454 -4487.69
v -2711.1 82.4022 -4488.68
v -2711.1 82.4022 -4483.19
v -2711.41 82.2358 -4488.68
v -2711.41 82.2358 -4483.19
v -2711.1 82.4022 -4488.68
v -2710.54 82.4022 -4488.01
v -2711.1 82.4022 -4483.19
v -2710.54 82.4022 -4483.87
v -2710.54 82.4022 -4483.87
v -2711.1 78.3549 -4482.89
v -2711.93 78.3549 -4482.31
v -2711.93 78.1251 -4481.92
v -2712.35 78.1251 -4482.31
v -2710.31 86.0454 -4488.01
v -2710.1 86.0454 -4487.52
v -2710.31 86.0454 -4483.87
v -2710.1 86.0454 -4484.36
v -2709.92 86.0454 -4487.69
v -2710.1 86.0454 -4487.52
v -2710.1 86.0454 -4484.36
v -2705.61 78.3549 -4482.89
v -2705.31 78.3549 -4483.19
v -2706.18 82.4022 -4483.64
v -2705.61 82.4022 -4483.19
v -2705.95 82.4022 -4488.01
v -2706.18 82.4022 -4488.24
v -2705.61 82.4022 -4488.68
v -2698.95 68.533 -4480.13
v -2698.95 68.533 -4491.68
v -2698.95 71.533 -4480.13
v -2698.95 71.533 -4491.68
v -2698.95 68.533 -4491.68
v -2699.63 68.533 -4492.31
v -2698.95 71.533 -4491.68
v -2699.63 71.533 -4492.31
v -2699.63 68.533 -4495.31
v -2712.68 68.533 -4495.23
v -2699.63 71.533 -4495.31
v -2712.68 71.533 -4495.23
v -2713.38 68.533 -4480.13
v -2712.74 68.533 -4479.48
v -2713.38 71.533 -4480.13
v -2712.74 71.533 -4479.48
v -2712.74 68.533 -4492.31
v -2713.38 68.533 -4491.68
v -2712.74 71.533 -4492.31
v -2713.38 71.533 -4491.68
v -2712.68 68.533 -4495.23
v -2712.74 68.533 -4492.31
v -2712.68 71.533 -4495.23
v -2712.74 71.533 -4492.31
v -2713.38 68.533 -4491.68
v -2713.38 68.533 -4480.13
v -2713.38 71.533 -4491.68
v -2713.38 71.533 -4480.13
v -2699.63 68.533 -4479.48
v -2698.95 68.533 -4480.13
v -2699.63 71.533 -4479.48
v -2698.95 71.533 -4480.13
v -2712.74 68.533 -4479.48
v -2699.63 68.533 -4479.48
v -2712.74 71.533 -4479.48
v -2699.63 71.533 -4479.48
v -2699.63 68.533 -4492.31
v -2699.87 68.9808 -4492.31
v -2699.63 71.533 -4492.31
v -2699.87 71.9808 -4492.31
v -2699.71 68.8972 -4495.31
v -2699.63 68.533 -4495.31
v -2699.71 71.8972 -4495.31
v -2699.63 71.533 -4495.31
v -2699.87 68.9808 -4492.31
v -2703.66 69.1918 -4492.31
v -2699.87 71.9808 -4492.31
v -2703.66 72.1918 -4492.31
v -2703.66 69.1918 -4492.31
v -2709.81 72.4031 -4492.31
v -2703.66 72.1918 -4492.31
v -2709.81 75.4031 -4492.31
v -2709.81 72.4031 -4492.31
v -2710.8 73.0057 -4492.6
v -2709.81 75.4031 -4492.31
v -2710.8 76.0057 -4492.6
v -2711.81 73.2287 -4495.31
v -2703.66 69.1082 -4495.31
v -2711.81 76.2287 -4495.31
v -2703.66 72.1082 -4495.31
v -2712.66 73.2692 -4495.23
v -2711.81 73.2287 -4495.31
v -2712.66 76.2692 -4495.23
v -2711.81 76.2287 -4495.31
v -2712.74 73.533 -4492.31
v -2712.66 73.2692 -4495.23
v -2712.74 76.533 -4492.31
v -2712.66 76.2692 -4495.23
v -2712.74 73.872 -4491.68
v -2712.74 73.533 -4492.31
v -2712.74 76.872 -4491.68
v -2712.74 76.533 -4492.31
v -2699.63 73.533 -4492.31
v -2699.63 73.872 -4491.68
v -2699.63 76.533 -4492.31
v -2699.63 76.872 -4491.68
v -2710.61 73.533 -4492.31
v -2699.63 73.533 -4492.31
v -2710.61 76.533 -4492.31
v -2699.63 76.533 -4492.31
v -2699.63 73.872 -4480.13
v -2699.63 73.533 -4479.48
v -2699.63 76.872 -4480.13
v -2699.63 76.533 -4479.48
v -2699.63 73.533 -4479.48
v -2712.74 73.533 -4479.48
v -2699.63 76.533 -4479.48
v -2712.74 76.533 -4479.48
v -2712.74 73.533 -4479.48
v -2712.74 73.872 -4480.13
v -2712.74 76.533 -4479.48
v -2712.74 76.872 -4480.13
v -2704.35 73.8077 -4481.92
v -2703.92 73.8077 -4482.31
v -2704.35 76.8077 -4481.92
v -2703.92 76.8077 -4482.31
v -2699.95 73.8808 -4484.18
v -2699.63 73.872 -4480.13
v -2699.95 76.8808 -4484.18
v -2699.63 76.872 -4480.13
v -2701.48 73.8808 -4484.18
v -2699.95 73.8808 -4484.18
v -2701.48 76.8808 -4484.18
v -2699.95 76.8808 -4484.18
v -2703.92 73.8077 -4482.31
v -2703.92 73.8077 -4489.42
v -2703.92 76.8077 -4482.31
v -2703.92 76.8077 -4489.42
v -2701.48 73.8808 -4487.69
v -2701.48 73.8808 -4484.18
v -2701.48 76.8808 -4487.69
v -2701.48 76.8808 -4484.18
v -2699.63 73.872 -4491.68
v -2699.95 73.8808 -4487.69
v -2699.63 76.872 -4491.68
v -2699.95 76.8808 -4487.69
v -2699.95 73.8808 -4487.69
v -2701.48 73.8808 -4487.69
v -2699.95 76.8808 -4487.69
v -2701.48 76.8808 -4487.69
v -2703.92 73.8077 -4489.42
v -2704.35 73.8077 -4489.82
v -2703.92 76.8077 -4489.42
v -2704.35 76.8077 -4489.82
v -2704.35 73.8077 -4489.82
v -2711.93 73.8077 -4489.82
v -2704.35 76.8077 -4489.82
v -2711.93 76.8077 -4489.82
v -2711.93 73.8077 -4489.82
v -2712.35 73.8077 -4489.42
v -2711.93 76.8077 -4489.82
v -2712.35 76.8077 -4489.42
v -2712.35 73.8077 -4489.42
v -2712.74 73.872 -4491.68
v -2712.35 76.8077 -4489.42
v -2712.74 76.872 -4491.68
v -2712.74 73.872 -4480.13
v -2711.93 73.8077 -4481.92
v -2712.74 76.872 -4480.13
v -2711.93 76.8077 -4481.92
v -2711.93 73.8077 -4481.92
v -2704.35 73.8077 -4481.92
v -2711.93 76.8077 -4481.92
v -2704.35 76.8077 -4481.92
v -2710.8 73.0057 -4492.6
v -2710.61 73.533 -4492.31
v -2710.8 76.0057 -4492.6
v -2710.61 76.533 -4492.31
v -2745 73.9152 -4454
v -2745 74.3505 -4456
v -2745 75.2299 -4458
v -2745 75.4363 -4460
v -2745 75.4413 -4462
v -2745 76.2012 -4464
v -2745 76.9201 -4466
v -2745 77.1936 -4468
v -2745 77.1723 -4470
v -2745 77.7969 -4472
v -2745 78.1252 -4474
v -2745 78.1909 -4476
v -2745 78.335 -4478
v -2745 78.5842 -4480
v -2745 78.8764 -4482
v -2745 79.0768 -4484
v -2745 79.2707 -4486
v -2745 79.3566 -4488
v -2745 79.521 -4490
v -2745 79.6097 -4492
v -2745 79.8218 -4494
v -2745 79.7512 -4496
v -2745 78.6254 -4498
v -2745 78.9694 -4500
v -2745 78.6451 -4502
v -2745 78.6128 -4504
v -2745 80.0528 -4506
v -2745 79.8941 -4508
v -2745 78.9054 -4510
v -2745 78.7311 -4512
v -2745 78.5844 -4514
v -2745 78.5935 -4516
v -2743 73.8024 -4454
v -2743 74.5154 -4456
v -2743 75.7425 -4458
v -2743 75.8831 -4460
v -2743 75.52 -4462
v -2743 75.5867 -4464
v -2743 76.915 -4466
v -2743 77.1812 -4468
v -2743 77.4788 -4470
v -2743 77.8302 -4472
v -2743 77.9743 -4474
v -2743 78.2049 -4476
v -2743 78.3818 -4478
v -2743 78.6161 -4480
v -2743 78.8894 -4482
v -2743 78.9704 -4484
v -2743 78.1175 -4486
v -2743 78.0329 -4488
v -2743 79.4905 -4490
v -2743 79.7152 -4492
v -2743 79.7088 -4494
v -2743 78.4664 -4496
v -2743 78.4727 -4498
v -2743 78.7306 -4500
v -2743 78.5763 -4502
v -2743 78.396 -4504
v -2743 79.3292 -4506
v -2743 79.8276 -4508
v -2743 79.8246 -4510
v -2743 78.6448 -4512
v -2743 78.4964 -4514
v -2743 78.3317 -4516
v -2741 73.7367 -4454
v -2741 75.4278 -4456
v -2741 75.6096 -4458
v -2741 76.0792 -4460
v -2741 76.265 -4462
v -2741 75.9195 -4464
v -2741 76.4845 -4466
v -2741 77.2906 -4468
v -2741 77.5199 -4470
v -2741 77.7522 -4472
v -2741 78.015 -4474
v -2741 78.3336 -4476
v -2741 78.5201 -4478
v -2741 78.629 -4480
v -2741 78.819 -4482
v -2741 77.8921 -4484
v -2741 77.3071 -4486
v -2741 77.6614 -4488
v -2741 78.7697 -4490
v -2741 79.6265 -4492
v -2741 79.1221 -4494
v -2741 78.4432 -4496
v -2741 78.7106 -4498
v -2741 78.6644 -4500
v -2741 78.6532 -4502
v -2741 78.5061 -4504
v -2741 79.4441 -4506
v -2741 79.7239 -4508
v -2741 79.9817 -4510
v -2741 79.2525 -4512
v -2741 78.5074 -4514
v -2741 78.306 -4516
v -2739 73.6829 -4454
v -2739 74.8732 -4456
v -2739 75.5514 -4458
v -2739 75.8001 -4460
v -2739 76.1969 -4462
v -2739 76.5987 -4464
v -2739 76.8187 -4466
v -2739 77.2191 -4468
v -2739 77.4573 -4470
v -2739 77.6705 -4472
v -2739 77.9871 -4474
v -2739 78.3047 -4476
v -2739 78.406 -4478
v -2739 78.7062 -4480
v -2739 78.8928 -4482
v -2739 77.5652 -4484
v -2739 77.4882 -4486
v -2739 77.8564 -4488
v -2739 78.6298 -4490
v -2739 79.6455 -4492
v -2739 79.7923 -4494
v -2739 78.9558 -4496
v -2739 78.2537 -4498
v -2739 78.163 -4500
v -2739 78.9117 -4502
v -2739 79.8205 -4504
v -2739 79.8252 -4506
v -2739 79.8172 -4508
v -2739 79.722 -4510
v -2739 79.8059 -4512
v -2739 78.0444 -4514
v -2739 78.041 -4516
v -2737 73.6395 -4454
v -2737 74.0396 -4456
v -2737 75.3427 -4458
v -2737 75.6929 -4460
v -2737 76.0752 -4462
v -2737 76.4047 -4464
v -2737 76.8116 -4466
v -2737 77.1156 -4468
v -2737 77.5345 -4470
v -2737 77.8102 -4472
v -2737 78.0197 -4474
v -2737 78.2965 -4476
v -2737 78.349 -4478
v -2737 78.6127 -4480
v -2737 78.8816 -4482
v -2737 77.5812 -4484
v -2737 77.1936 -4486
v -2737 77.6615 -4488
v -2737 78.9942 -4490
v -2737 79.5805 -4492
v -2737 79.6443 -4494
v -2737 79.7982 -4496
v -2737 78.6968 -4498
v -2737 78.9406 -4500
v -2737 79.58 -4502
v -2737 79.6999 -4504
v -2737 79.5519 -4506
v -2737 79.7153 -4508
v -2737 79.8293 -4510
v -2737 79.8123 -4512
v -2737 78.3983 -4514
v -2737 78.4942 -4516
v -2735 73.6546 -4454
v -2735 74.2598 -4456
v -2735 75.2715 -4458
v -2735 75.5709 -4460
v -2735 75.884 -4462
v -2735 76.1032 -4464
v -2735 76.3793 -4466
v -2735 76.0565 -4468
v -2735 76.2026 -4470
v -2735 76.4922 -4472
v -2735 77.9544 -4474
v -2735 78.136 -4476
v -2735 78.2694 -4478
v -2735 78.5662 -4480
v -2735 78.8037 -4482
v -2735 77.7726 -4484
v -2735 77.0109 -4486
v -2735 77.8521 -4488
v -2735 78.365 -4490
v -2735 79.4605 -4492
v -2735 79.5943 -4494
v -2735 79.6743 -4496
v -2735 78.7793 -4498
v -2735 78.9108 -4500
v -2735 79.4902 -4502
v -2735 79.4786 -4504
v -2735 79.6155 -4506
v -2735 79.6935 -4508
v -2735 79.7626 -4510
v -2735 79.7553 -4512
v -2735 78.8312 -4514
v -2735 78.3184 -4516
v -2733 74.2562 -4454
v -2733 74.8331 -4456
v -2733 74.8987 -4458
v -2733 75.4697 -4460
v -2733 75.6799 -4462
v -2733 76.1475 -4464
v -2733 75.2442 -4466
v -2733 74.8355 -4468
v -2733 75.6692 -4470
v -2733 76.4053 -4472
v -2733 77.8375 -4474
v -2733 77.9511 -4476
v -2733 78.1849 -4478
v -2733 78.3923 -4480
v -2733 78.6554 -4482
v -2733 78.9307 -4484
v -2733 78.8725 -4486
v -2733 78.7288 -4488
v -2733 78.0782 -4490
v -2733 78.3294 -4492
v -2733 78.9222 -4494
v -2733 79.092 -4496
v -2733 78.1403 -4498
v -2733 78.2436 -4500
v -2733 78.622 -4502
v -2733 79.5331 -4504
v -2733 79.4737 -4506
v -2733 79.5509 -4508
v -2733 79.4937 -4510
v -2733 79.6345 -4512
v -2733 78.816 -4514
v -2733 78.0288 -4516
v -2731 74.2056 -4454
v -2731 74.7143 -4456
v -2731 74.8593 -4458
v -2731 75.1871 -4460
v -2731 75.4336 -4462
v -2731 75.8416 -4464
v -2731 75.9916 -4466
v -2731 74.9557 -4468
v -2731 76.1147 -4470
v -2731 77.2973 -4472
v -2731 77.4733 -4474
v -2731 77.6721 -4476
v -2731 77.9112 -4478
v -2731 78.231 -4480
v -2731 78.4878 -4482
v -2731 78.6971 -4484
v -2731 78.7982 -4486
v -2731 78.946 -4488
v -2731 78.9942 -4490
v -2731 78.7856 -4492
v -2731 78.8391 -4494
v -2731 78.7066 -4496
v -2731 77.7842 -4498
v -2731 77.808 -4500
v -2731 77.9033 -4502
v -2731 78.6127 -4504
v -2731 79.2211 -4506
v -2731 78.6076 -4508
v -2731 77.977 -4510
v -2731 79.4174 -4512
v -2731 79.4622 -4514
v -2731 77.7245 -4516
v -2729 73.715 -4454
v -2729 73.9381 -4456
v -2729 74.1272 -4458
v -2729 74.2292 -4460
v -2729 74.8011 -4462
v -2729 75.5235 -4464
v -2729 75.8641 -4466
v -2729 76.2156 -4468
v -2729 76.5893 -4470
v -2729 76.9649 -4472
v -2729 76.0187 -4474
v -2729 76.0212 -4476
v -2729 76.3344 -4478
v -2729 77.3782 -4480
v -2729 77.2847 -4482
v -2729 76.8234 -4484
v -2729 77.2299 -4486
v -2729 78.2364 -4488
v -2729 79.0786 -4490
v -2729 79.2116 -4492
v -2729 79.4262 -4494
v -2729 79.5561 -4496
v -2729 78.6327 -4498
v -2729 77.8682 -4500
v -2729 78.0223 -4502
v -2729 78.654 -4504
v -2729 78.9321 -4506
v -2729 77.8767 -4508
v -2729 77.7251 -4510
v -2729 77.9444 -4512
v -2729 79.1269 -4514
v -2729 77.6921 -4516
v -2727 73.6232 -4454
v -2727 73.6544 -4456
v -2727 73.7553 -4458
v -2727 74.204 -4460
v -2727 74.924 -4462
v -2727 75.2661 -4464
v -2727 75.5718 -4466
v -2727 76.0722 -4468
v -2727 76.477 -4470
v -2727 75.3152 -4472
v -2727 75.2362 -4474
v -2727 75.4369 -4476
v -2727 75.5732 -4478
v -2727 76.2293 -4480
v -2727 76.162 -4482
v -2727 76.629 -4484
v -2727 77.1091 -4486
v -2727 77.0695 -4488
v -2727 78.431 -4490
v -2727 79.028 -4492
v -2727 79.0883 -4494
v -2727 79.2147 -4496
v -2727 79.0774 -4498
v -2727 79.047 -4500
v -2727 79.003 -4502
v -2727 78.9816 -4504
v -2727 78.0298 -4506
v -2727 77.5632 -4508
v -2727 77.4146 -4510
v -2727 77.3452 -4512
v -2727 78.9877 -4514
v -2727 78.9502 -4516
v -2725 73.5769 -4454
v -2725 73.6776 -4456
v -2725 74.0723 -4458
v -2725 74.4733 -4460
v -2725 74.7873 -4462
v -2725 74.8826 -4464
v -2725 75.482 -4466
v -2725 75.5041 -4468
v -2725 74.6298 -4470
v -2725 75.0266 -4472
v -2725 75.4586 -4474
v -2725 75.3027 -4476
v -2725 75.4498 -4478
v -2725 76.0559 -4480
v -2725 75.9942 -4482
v -2725 76.536 -4484
v -2725 77.0348 -4486
v -2725 77.1266 -4488
v -2725 77.6713 -4490
v -2725 78.2587 -4492
v -2725 78.9579 -4494
v -2725 78.9072 -4496
v -2725 78.8199 -4498
v -2725 78.8179 -4500
v -2725 78.8751 -4502
v -2725 78.7573 -4504
v -2725 77.0976 -4506
v -2725 77.0488 -4508
v -2725 77.3214 -4510
v -2725 77.4107 -4512
v -2725 78.8477 -4514
v -2725 78.6159 -4516
v -2723 73.5918 -4454
v -2723 73.6683 -4456
v -2723 74.0127 -4458
v -2723 74.2091 -4460
v -2723 74.5826 -4462
v -2723 74.7845 -4464
v -2723 74.817 -4466
v -2723 74.1772 -4468
v -2723 74.4721 -4470
v -2723 74.7347 -4472
v -2723 75.3525 -4474
v -2723 74.9817 -4476
v -2723 75.1754 -4478
v -2723 75.8891 -4480
v -2723 75.9566 -4482
v -2723 76.8797 -4484
v -2723 77.7016 -4486
v -2723 77.6825 -4488
v -2723 77.2189 -4490
v -2723 77.7507 -4492
v -2723 78.6182 -4494
v -2723 78.6944 -4496
v -2723 78.517 -4498
v -2723 78.5964 -4500
v -2723 78.6467 -4502
v -2723 78.8296 -4504
v -2723 77.2478 -4506
v -2723 77.1062 -4508
v -2723 76.9358 -4510
v -2723 78.1061 -4512
v -2723 78.6067 -4514
v -2723 78.6738 -4516
v -2721 73.6339 -4454
v -2721 73.6622 -4456
v -2721 74.2945 -4458
v -2721 74.1254 -4460
v -2721 74.2123 -4462
v -2721 73.7642 -4464
v -2721 73.6426 -4466
v -2721 73.6727 -4468
v -2721 74.1888 -4470
v -2721 74.7537 -4472
v -2721 74.9258 -4474
v -2721 74.8362 -4476
v -2721 75.0424 -4478
v -2721 75.8173 -4480
v -2721 75.9146 -4482
v -2721 76.0593 -4484
v -2721 76.8984 -4486
v -2721 76.9846 -4488
v -2721 76.7726 -4490
v -2721 77.2881 -4492
v -2721 78.3707 -4494
v -2721 78.528 -4496
v -2721 78.3846 -4498
v -2721 78.3231 -4500
v -2721 78.4304 -4502
v -2721 78.6086 -4504
v -2721 77.505 -4506
v -2721 77.354 -4508
v -2721 76.9881 -4510
v -2721 78.1094 -4512
v -2721 78.2926 -4514
v -2721 78.46 -4516
v -2719 74.0645 -4454
v -2719 73.8638 -4456
v -2719 74.5258 -4458
v -2719 74.2887 -4460
v -2719 74.1116 -4462
v -2719 73.727 -4464
v -2719 73.5919 -4466
v -2719 73.737 -4468
v -2719 73.8834 -4470
v -2719 74.6118 -4472
v -2719 74.8949 -4474
v -2719 75.0212 -4476
v -2719 75.1799 -4478
v -2719 75.4263 -4480
v -2719 75.606 -4482
v -2719 75.8518 -4484
v -2719 76.0861 -4486
v -2719 76.2315 -4488
v -2719 76.2253 -4490
v -2719 76.656 -4492
v -2719 78.0025 -4494
v -2719 78.1353 -4496
v -2719 77.2264 -4498
v -2719 78.1025 -4500
v -2719 78.316 -4502
v -2719 78.3575 -4504
v -2719 77.681 -4506
v -2719 76.8245 -4508
v -2719 76.6521 -4510
v -2719 76.6188 -4512
v -2719 77.1449 -4514
v -2719 77.2523 -4516
v -2717 73.8779 -4454
v -2717 73.9446 -4456
v -2717 74.751 -4458
v -2717 74.6336 -4460
v -2717 73.9055 -4462
v -2717 73.9565 -4464
v -2717 73.8688 -4466
v -2717 73.6302 -4468
v -2717 74.0914 -4470
v -2717 75.2427 -4472
v -2717 74.7854 -4474
v -2717 74.2997 -4476
v -2717 74.9531 -4478
v -2717 75.0201 -4480
v -2717 75.6966 -4482
v -2717 75.737 -4484
v -2717 76.1316 -4486
v -2717 75.8697 -4488
v -2717 76.2379 -4490
v -2717 76.8623 -4492
v -2717 77.8962 -4494
v -2717 77.7522 -4496
v -2717 77.0102 -4498
v -2717 77.0842 -4500
v -2717 77.9905 -4502
v -2717 78.0012 -4504
v -2717 76.9418 -4506
v -2717 76.5227 -4508
v -2717 76.4394 -4510
v -2717 76.6066 -4512
v -2717 76.4113 -4514
v -2717 76.734 -4516
v -2715 73.9062 -4454
v -2715 74.166 -4456
v -2715 74.137 -4458
v -2715 74.6292 -4460
v -2715 73.8698 -4462
v -2715 73.7273 -4464
v -2715 73.9199 -4466
v -2715 73.6506 -4468
v -2715 73.7044 -4470
v -2715 73.8268 -4472
v -2715 73.7123 -4474
v -2715 74.1183 -4476
v -2715 74.6849 -4478
v -2715 74.5784 -4480
v -2715 75.2887 -4482
v -2715 75.5253 -4484
v -2715 75.2517 -4486
v -2715 75.6927 -4488
v -2715 75.8876 -4490
v -2715 76.536 -4492
v -2715 77.4024 -4494
v -2715 77.5876 -4496
v -2715 77.2832 -4498
v -2715 77.1854 -4500
v -2715 77.5976 -4502
v -2715 77.5647 -4504
v -2715 76.3526 -4506
v -2715 75.9238 -4508
v -2715 76.0906 -4510
v -2715 76.3577 -4512
v -2715 76.0636 -4514
v -2715 76.275 -4516
v -2713 74.4982 -4454
v -2713 74.6367 -4456
v -2713 74.2653 -4458
v -2713 73.8221 -4460
v -2713 73.8264 -4462
v -2713 73.7078 -4464
v -2713 73.5932 -4466
v -2713 73.5999 -4468
v -2713 73.7944 -4470
v -2713 73.6347 -4472
v -2713 73.534 -4474
v -2713 73.5439 -4476
v -2713 73.8616 -4478
v -2713 74.4329 -4480
v -2713 74.8651 -4482
v -2713 74.8558 -4484
v -2713 74.4242 -4486
v -2713 74.7365 -4488
v -2713 74.7791 -4490
v -2713 76.1614 -4492
v -2713 77.0313 -4494
v -2713 77.1681 -4496
v -2713 77.2344 -4498
v -2713 77.2829 -4500
v -2713 77.3568 -4502
v -2713 77.405 -4504
v -2713 76.2587 -4506
v -2713 75.9028 -4508
v -2713 75.5487 -4510
v -2713 75.6359 -4512
v -2713 75.3896 -4514
v -2713 76.4262 -4516
v -2711 74.623 -4454
v -2711 74.8907 -4456
v -2711 74.5208 -4458
v -2711 74.1626 -4460
v -2711 74.1646 -4462
v -2711 73.8113 -4464
v -2711 73.7065 -4466
v -2711 73.6038 -4468
v -2711 73.6314 -4470
v -2711 73.5969 -4472
v -2711 73.5008 -4474
v -2711 73.4321 -4476
v -2711 73.4885 -4478
v -2711 73.9101 -4480
v -2711 73.8056 -4482
v -2711 74.186 -4484
v -2711 74.0722 -4486
v -2711 74.1334 -4488
v -2711 74.5832 -4490
v -2711 75.1486 -4492
v -2711 76.3033 -4494
v -2711 76.4236 -4496
v -2711 76.635 -4498
v -2711 76.6811 -4500
v -2711 76.7211 -4502
v -2711 76.8162 -4504
v -2711 76.7951 -4506
v -2711 75.4754 -4508
v -2711 75.5304 -4510
v -2711 75.4659 -4512
v -2711 75.408 -4514
v -2711 76.2377 -4516
v -2709 75.404 -4454
v -2709 75.3663 -4456
v -2709 74.9887 -4458
v -2709 74.6694 -4460
v -2709 74.205 -4462
v -2709 74.303 -4464
v -2709 74.0216 -4466
v -2709 73.9235 -4468
v -2709 73.7345 -4470
v -2709 73.6454 -4472
v -2709 73.578 -4474
v -2709 73.5254 -4476
v -2709 73.4517 -4478
v -2709 73.4839 -4480
v -2709 73.5901 -4482
v -2709 73.6819 -4484
v -2709 73.5413 -4486
v -2709 73.8579 -4488
v -2709 74.0315 -4490
v -2709 74.8539 -4492
v -2709 75.9615 -4494
v -2709 75.7362 -4496
v -2709 75.785 -4498
v -2709 76.3373 -4500
v -2709 76.2769 -4502
v -2709 76.3356 -4504
v -2709 76.423 -4506
v -2709 76.5635 -4508
v -2709 75.1862 -4510
v -2709 75.2442 -4512
v -2709 75.0077 -4514
v -2709 75.4193 -4516
v -2707 74.8915 -4454
v -2707 75.347 -4456
v -2707 75.154 -4458
v -2707 74.9532 -4460
v -2707 74.9475 -4462
v -2707 74.6284 -4464
v -2707 74.1898 -4466
v -2707 74.3298 -4468
v -2707 74.0545 -4470
v -2707 73.9911 -4472
v -2707 73.6766 -4474
v -2707 73.5714 -4476
v -2707 73.5184 -4478
v -2707 73.6231 -4480
v -2707 73.5838 -4482
v -2707 73.5917 -4484
v -2707 73.6042 -4486
v -2707 73.5983 -4488
v -2707 73.684 -4490
v -2707 74.2737 -4492
v -2707 75.4199 -4494
v -2707 75.3637 -4496
v -2707 75.6795 -4498
v -2707 75.6395 -4500
v -2707 75.4289 -4502
v -2707 75.7503 -4504
v -2707 75.9941 -4506
v -2707 76.1588 -4508
v -2707 74.8037 -4510
v -2707 75.1206 -4512
v -2707 74.5987 -4514
v -2707 74.4188 -4516
v -2705 74.9814 -4454
v -2705 75.2712 -4456
v -2705 75.6663 -4458
v -2705 75.1856 -4460
v -2705 75.2955 -4462
v -2705 75.066 -4464
v -2705 74.5863 -4466
v -2705 74.7977 -4468
v -2705 74.3733 -4470
v -2705 74.6033 -4472
v -2705 73.8832 -4474
v -2705 73.8098 -4476
v -2705 73.6289 -4478
v -2705 73.5875 -4480
v -2705 73.7195 -4482
v -2705 73.8909 -4484
v -2705 73.7272 -4486
v -2705 73.5921 -4488
v -2705 73.5984 -4490
v -2705 73.6404 -4492
v -2705 73.8045 -4494
v -2705 74.2374 -4496
v -2705 74.5343 -4498
v -2705 74.8765 -4500
v -2705 75.14 -4502
v -2705 75.3764 -4504
v -2705 75.5419 -4506
v -2705 75.7984 -4508
v -2705 74.3268 -4510
v -2705 74.61 -4512
v -2705 74.2196 -4514
v -2705 74.6583 -4516
v -2703 75.2226 -4454
v -2703 75.4735 -4456
v -2703 75.5389 -4458
v -2703 75.7618 -4460
v -2703 75.769 -4462
v -2703 75.0643 -4464
v -2703 74.7158 -4466
v -2703 74.5368 -4468
v -2703 74.6885 -4470
v -2703 74.5488 -4472
v -2703 74.6964 -4474
v -2703 74.2234 -4476
v -2703 73.8449 -4478
v -2703 73.813 -4480
v -2703 73.6189 -4482
v -2703 73.6503 -4484
v -2703 73.6323 -4486
v -2703 73.7174 -4488
v -2703 73.6003 -4490
v -2703 73.5769 -4492
v -2703 73.5944 -4494
v -2703 73.615 -4496
v -2703 73.6335 -4498
v -2703 73.7453 -4500
v -2703 74.0648 -4502
v -2703 74.9865 -4504
v -2703 75.1863 -4506
v -2703 74.4986 -4508
v -2703 74.1358 -4510
v -2703 74.0163 -4512
v -2703 74.1025 -4514
v -2703 75.6555 -4516
v -2701 75.4375 -4454
v -2701 75.3408 -4456
v -2701 76.0218 -4458
v -2701 76.9139 -4460
v -2701 76.7786 -4462
v -2701 76.5093 -4464
v -2701 76.388 -4466
v -2701 76.3482 -4468
v -2701 75.968 -4470
v -2701 75.4897 -4472
v -2701 74.7865 -4474
v -2701 74.6272 -4476
v -2701 74.0444 -4478
v -2701 73.9966 -4480
v -2701 73.7903 -4482
v -2701 73.6691 -4484
v -2701 73.5619 -4486
v -2701 73.5312 -4488
v -2701 73.5069 -4490
v -2701 73.5685 -4492
v -2701 73.5135 -4494
v -2701 73.4819 -4496
v -2701 73.4791 -4498
v -2701 73.5495 -4500
v -2701 73.6981 -4502
v -2701 74.6168 -4504
v -2701 74.6877 -4506
v -2701 74.2206 -4508
v -2701 74.1887 -4510
v -2701 74.8669 -4512
v -2701 74.9125 -4514
v -2701 75.1127 -4516
v -2699 75.8849 -4454
v -2699 75.8693 -4456
v -2699 76.2416 -4458
v -2699 77.0311 -4460
v -2699 76.7877 -4462
v -2699 76.6573 -4464
v -2699 76.5587 -4466
v -2699 76.465 -4468
v -2699 76.4514 -4470
v -2699 76.4535 -4472
v -2699 75.7107 -4474
v -2699 75.1261 -4476
v -2699 75.3666 -4478
v -2699 75.6798 -4480
v -2699 75.4225 -4482
v -2699 73.9981 -4484
v -2699 73.6986 -4486
v -2699 73.608 -4488
v -2699 73.6029 -4490
v -2699 73.5446 -4492
v -2699 73.5353 -4494
v -2699 73.45 -4496
v -2699 73.4519 -4498
v -2699 73.5766 -4500
v -2699 74.2456 -4502
v -2699 74.5002 -4504
v -2699 74.2726 -4506
v -2699 74.3512 -4508
v -2699 74.3765 -4510
v -2699 74.5266 -4512
v -2699 74.5152 -4514
v -2699 74.7063 -4516
v -2697 75.7299 -4454
v -2697 75.9248 -4456
v -2697 75.8624 -4458
v -2697 76.4789 -4460
v -2697 76.9359 -4462
v -2697 76.8191 -4464
v -2697 76.6907 -4466
v -2697 76.7609 -4468
v -2697 76.7331 -4470
v -2697 76.6853 -4472
v -2697 76.6132 -4474
v -2697 76.4148 -4476
v -2697 76.2647 -4478
v -2697 75.9232 -4480
v -2697 75.7392 -4482
v -2697 74.565 -4484
v -2697 73.8286 -4486
v -2697 73.8917 -4488
v -2697 73.7668 -4490
v -2697 73.7121 -4492
v -2697 73.6342 -4494
v -2697 73.7609 -4496
v -2697 73.8591 -4498
v -2697 73.7499 -4500
v -2697 74.9503 -4502
v -2697 74.9986 -4504
v -2697 74.8659 -4506
v -2697 74.7057 -4508
v -2697 74.5005 -4510
v -2697 74.2439 -4512
v -2697 74.1831 -4514
v -2697 74.2512 -4516
v -2695 76.1094 -4454
v -2695 76.2955 -4456
v -2695 75.7487 -4458
v -2695 75.709 -4460
v -2695 77.0428 -4462
v -2695 76.9747 -4464
v -2695 76.7712 -4466
v -2695 76.9539 -4468
v -2695 76.5887 -4470
v -2695 76.4816 -4472
v -2695 76.7623 -4474
v -2695 76.8232 -4476
v -2695 76.4529 -4478
v -2695 76.2604 -4480
v -2695 76.0624 -4482
v -2695 74.5313 -4484
v -2695 74.0226 -4486
v -2695 74.7186 -4488
v -2695 74.36 -4490
v -2695 74.0243 -4492
v -2695 74.0555 -4494
v -2695 73.8627 -4496
v -2695 74.1152 -4498
v -2695 74.6098 -4500
v -2695 75.4448 -4502
v -2695 75.533 -4504
v -2695 75.3008 -4506
v -2695 73.941 -4508
v -2695 73.8495 -4510
v -2695 74.5997 -4512
v -2695 74.4628 -4514
v -2695 74.1032 -4516
v -2693 76.2809 -4454
v -2693 76.2643 -4456
v -2693 76.3569 -4458
v -2693 76.0725 -4460
v -2693 76.0712 -4462
v -2693 76.3532 -4464
v -2693 77.1445 -4466
v -2693 77.0401 -4468
v -2693 77.1188 -4470
v -2693 76.6968 -4472
v -2693 77.1519 -4474
v -2693 76.9623 -4476
v -2693 76.7617 -4478
v -2693 76.5825 -4480
v -2693 76.4174 -4482
v -2693 75.1028 -4484
v -2693 74.4567 -4486
v -2693 74.6403 -4488
v -2693 74.8751 -4490
v -2693 74.4294 -4492
v -2693 74.486 -4494
v -2693 74.4463 -4496
v -2693 74.1914 -4498
v -2693 75.0938 -4500
v -2693 75.8717 -4502
v -2693 75.5841 -4504
v -2693 74.4345 -4506
v -2693 73.9142 -4508
v -2693 73.8199 -4510
v -2693 74.9384 -4512
v -2693 74.8677 -4514
v -2693 73.9339 -4516
v -2691 76.951 -4454
v -2691 76.4578 -4456
v -2691 76.2149 -4458
v -2691 76.3846 -4460
v -2691 75.9913 -4462
v -2691 76.6524 -4464
v -2691 77.2102 -4466
v -2691 77.2723 -4468
v -2691 77.2872 -4470
v -2691 76.6464 -4472
v -2691 76.3243 -4474
v -2691 76.1703 -4476
v -2691 76.093 -4478
v -2691 76.5039 -4480
v -2691 76.5988 -4482
v -2691 76.2282 -4484
v -2691 75.0736 -4486
v -2691 75.2424 -4488
v -2691 75.1424 -4490
v -2691 74.97 -4492
v -2691 74.6246 -4494
v -2691 74.4794 -4496
v -2691 74.3843 -4498
v -2691 75.2105 -4500
v -2691 75.0323 -4502
v -2691 74.4726 -4504
v -2691 74.5849 -4506
v -2691 73.9586 -4508
v -2691 74.1399 -4510
v -2691 75.4462 -4512
v -2691 75.1513 -4514
v -2691 74.1635 -4516
v -2689 76.8088 -4454
v -2689 76.6461 -4456
v -2689 76.5937 -4458
v -2689 77.0579 -4460
v -2689 77.6563 -4462
v -2689 77.6045 -4464
v -2689 77.3445 -4466
v -2689 77.4554 -4468
v -2689 77.6052 -4470
v -2689 76.5861 -4472
v -2689 76.1047 -4474
v -2689 76.3253 -4476
v -2689 75.8961 -4478
v -2689 75.9624 -4480
v -2689 76.9775 -4482
v -2689 76.8556 -4484
v -2689 75.0256 -4486
v -2689 75.2562 -4488
v -2689 75.3083 -4490
v -2689 75.3227 -4492
v -2689 75.2354 -4494
v -2689 74.9691 -4496
v -2689 74.7631 -4498
v -2689 74.8042 -4500
v -2689 74.8527 -4502
v -2689 75.051 -4504
v -2689 74.7285 -4506
v -2689 74.6832 -4508
v -2689 74.7434 -4510
v -2689 75.6782 -4512
v -2689 75.4481 -4514
v -2689 75.3567 -4516
v -2687 76.8207 -4454
v -2687 76.7414 -4456
v -2687 77.1511 -4458
v -2687 77.9289 -4460
v -2687 77.8131 -4462
v -2687 77.7195 -4464
v -2687 76.5045 -4466
v -2687 76.5611 -4468
v -2687 76.0979 -4470
v -2687 76.1041 -4472
v -2687 76.1482 -4474
v -2687 76.4324 -4476
v -2687 76.0244 -4478
v -2687 76.2651 -4480
v -2687 77.2492 -4482
v -2687 77.1605 -4484
v -2687 76.1743 -4486
v -2687 75.9896 -4488
v -2687 76.0471 -4490
v -2687 75.67 -4492
v -2687 75.5149 -4494
v -2687 75.2552 -4496
v -2687 75.2204 -4498
v -2687 75.1884 -4500
v -2687 75.1107 -4502
v -2687 75.2165 -4504
v -2687 75.0518 -4506
v -2687 75.3647 -4508
v -2687 75.2791 -4510
v -2687 74.8033 -4512
v -2687 74.7388 -4514
v -2687 75.686 -4516
v -2685 76.5643 -4454
v -2685 76.3901 -4456
v -2685 77.2322 -4458
v -2685 77.9929 -4460
v -2685 77.4315 -4462
v -2685 76.1007 -4464
v -2685 75.7803 -4466
v -2685 76.3875 -4468
v -2685 76.2209 -4470
v -2685 76.2262 -4472
v -2685 76.7835 -4474
v -2685 76.4326 -4476
v -2685 76.5202 -4478
v -2685 77.222 -4480
v -2685 77.6213 -4482
v -2685 77.4546 -4484
v -2685 76.55 -4486
v -2685 75.9832 -4488
v -2685 76.1391 -4490
v -2685 75.9158 -4492
v -2685 75.6347 -4494
v -2685 75.3904 -4496
v -2685 75.581 -4498
v -2685 75.4112 -4500
v -2685 75.3594 -4502
v -2685 75.4889 -4504
v -2685 75.3987 -4506
v -2685 75.7958 -4508
v -2685 75.5755 -4510
v -2685 74.5959 -4512
v -2685 74.8712 -4514
v -2685 74.6337 -4516
v -2683 76.9306 -4454
v -2683 77.3704 -4456
v -2683 78.027 -4458
v -2683 78.102 -4460
v -2683 76.0252 -4462
v -2683 76.2907 -4464
v -2683 76.0775 -4466
v -2683 76.3654 -4468
v -2683 76.5596 -4470
v -2683 76.8582 -4472
v -2683 76.4716 -4474
v -2683 76.9158 -4476
v -2683 77.4055 -4478
v -2683 78.018 -4480
v -2683 77.9311 -4482
v -2683 77.8775 -4484
v -2683 77.3816 -4486
v -2683 76.2151 -4488
v -2683 76.2309 -4490
v -2683 76.4741 -4492
v -2683 75.7084 -4494
v -2683 75.9734 -4496
v -2683 75.9193 -4498
v -2683 75.8572 -4500
v -2683 75.7805 -4502
v -2683 75.8891 -4504
v -2683 75.5574 -4506
v -2683 75.696 -4508
v -2683 75.5971 -4510
v -2683 75.0005 -4512
v -2683 75.2502 -4514
v -2683 74.7498 -4516
f 159 3 1
f 159 1 153
f 153 155 158
f 159 153 158
f 158 93 159
f 163 93 158
f 95 93 163
f 95 94 93
f 96 94 95
f 97 94 96
f 117 94 97
f 118 94 117
f 122 108 106
f 106 164 122
f 165 164 106
f 112 164 165
f 112 110 164
f 112 111 110
f 113 111 112
f 124 111 113
f 124 125 111
f 125 124 123
f 4 2 3
f 3 2 1
f 1 126 153
f 154 153 126
f 155 153 154
f 107 108 109
f 108 107 106
f 328 106 107
f 328 165 106
f 330 112 165
f 328 334 165
f 334 330 165
f 330 329 112
f 113 112 329
f 113 329 337
f 113 337 336
f 113 336 332
f 332 124 113
f 332 342 124
f 342 114 124
f 123 124 116
f 116 124 114
f 185 172 173
f 174 173 172
f 173 174 175
f 87 166 88
f 167 166 87
f 79 78 77
f 79 80 78
f 81 78 80
f 303 316 301
f 316 303 322
f 322 318 316
f 323 318 322
f 318 323 325
f 326 318 325
f 326 319 318
f 319 317 318
f 318 317 316
f 301 316 317
f 154 126 127
f 128 127 126
f 82 78 81
f 322 303 320
f 320 303 302
f 302 301 300
f 303 301 302
f 309 324 321
f 311 324 309
f 311 309 310
f 310 309 308
f 335 334 328
f 306 305 304
f 307 305 306
f 315 320 302
f 315 321 320
f 315 300 313
f 315 302 300
f 314 321 315
f 314 309 321
f 314 308 309
f 312 308 314
f 332 336 333
f 328 331 335
f 314 313 312
f 315 313 314
f 332 333 331
f 332 331 328
f 135 136 154
f 154 136 138
f 138 156 154
f 135 154 133
f 132 154 130
f 130 154 129
f 133 154 132
f 129 154 127
f 162 109 161
f 107 109 162
f 327 107 162
f 328 107 327
f 181 182 172
f 181 172 180
f 11 8 7
f 11 7 12
f 10 11 12
f 11 10 9
f 6 7 8
f 185 180 172
f 131 130 129
f 7 6 5
f 206 215 204
f 204 215 216
f 215 206 221
f 221 217 215
f 222 217 221
f 217 222 225
f 217 216 215
f 218 216 217
f 225 218 217
f 226 218 225
f 362 405 404
f 343 363 362
f 363 343 364
f 344 364 343
f 345 344 343
f 352 351 350
f 210 224 223
f 210 223 208
f 210 208 209
f 209 208 207
f 219 206 205
f 206 204 205
f 205 204 203
f 221 206 219
f 341 327 162
f 342 338 114
f 177 180 185
f 183 180 177
f 183 184 180
f 28 21 26
f 27 28 26
f 27 26 25
f 23 22 21
f 26 21 22
f 134 133 132
f 24 22 23
f 230 239 228
f 228 239 240
f 241 240 239
f 242 240 241
f 248 242 241
f 249 242 248
f 239 230 244
f 244 241 239
f 245 241 244
f 241 245 248
f 376 366 375
f 377 366 376
f 366 365 356
f 365 366 367
f 407 365 406
f 356 355 354
f 355 356 357
f 410 409 408
f 344 345 346
f 353 351 352
f 243 230 229
f 230 228 229
f 244 230 243
f 229 228 227
f 234 247 246
f 234 246 232
f 234 232 233
f 233 232 231
f 185 176 177
f 178 177 176
f 178 179 177
f 17 13 14
f 18 13 17
f 19 18 17
f 20 18 19
f 137 136 135
f 16 14 15
f 15 14 13
f 189 185 194
f 186 185 189
f 176 185 186
f 253 262 251
f 262 253 268
f 268 264 262
f 269 264 268
f 264 269 271
f 271 265 264
f 272 265 271
f 251 262 263
f 264 263 262
f 265 263 264
f 266 253 252
f 268 253 266
f 253 251 252
f 252 251 250
f 255 270 267
f 257 270 255
f 257 255 256
f 256 255 254
f 373 372 370
f 370 369 368
f 369 370 371
f 360 359 358
f 358 369 360
f 383 382 381
f 276 289 274
f 289 276 295
f 295 291 289
f 296 291 295
f 291 296 298
f 298 292 291
f 299 292 298
f 274 289 290
f 291 290 289
f 292 290 291
f 187 188 176
f 187 176 186
f 33 29 30
f 34 29 33
f 35 34 33
f 36 34 35
f 293 276 275
f 295 276 293
f 275 274 273
f 276 274 275
f 283 282 281
f 284 282 283
f 284 297 282
f 282 297 294
f 372 373 374
f 361 359 360
f 279 278 277
f 280 278 279
f 156 138 139
f 140 139 138
f 32 30 31
f 31 30 29
f 144 145 156
f 144 156 142
f 142 156 141
f 156 145 147
f 156 151 157
f 156 150 151
f 156 148 150
f 156 147 148
f 141 156 139
f 120 162 160
f 162 161 160
f 341 162 120
f 338 103 114
f 116 114 115
f 115 114 103
f 190 186 189
f 190 191 186
f 87 86 85
f 88 86 87
f 44 42 43
f 43 42 41
f 42 37 41
f 41 37 38
f 39 38 37
f 143 142 141
f 40 38 39
f 189 194 169
f 192 189 169
f 192 193 189
f 52 50 51
f 51 50 49
f 50 45 49
f 49 45 46
f 146 145 144
f 47 46 45
f 48 46 47
f 170 171 169
f 170 169 168
f 194 168 169
f 59 58 57
f 58 59 60
f 59 53 60
f 60 53 54
f 149 148 147
f 55 54 53
f 56 54 55
f 288 294 293
f 288 293 275
f 288 275 286
f 286 275 273
f 285 281 287
f 287 281 282
f 287 282 294
f 287 294 288
f 402 401 373
f 359 361 403
f 168 194 70
f 70 194 69
f 69 194 197
f 287 286 285
f 288 286 287
f 399 398 397
f 400 398 399
f 389 376 388
f 354 355 392
f 261 267 266
f 261 266 252
f 259 252 250
f 261 252 259
f 260 267 261
f 260 255 267
f 260 254 255
f 258 254 260
f 390 389 388
f 391 389 390
f 261 259 260
f 260 259 258
f 195 196 168
f 195 168 70
f 68 66 67
f 67 66 65
f 66 61 65
f 65 61 62
f 152 151 150
f 63 62 61
f 64 62 63
f 380 379 378
f 351 393 348
f 238 243 229
f 237 231 232
f 235 231 237
f 238 227 236
f 238 229 227
f 237 232 246
f 386 385 384
f 387 385 386
f 348 345 347
f 349 345 348
f 237 236 235
f 238 236 237
f 73 84 83
f 74 84 73
f 75 74 73
f 76 74 75
f 71 70 69
f 72 70 71
f 120 160 119
f 83 201 200
f 83 202 201
f 202 83 84
f 213 207 208
f 211 207 213
f 212 205 203
f 214 205 212
f 213 220 214
f 214 220 219
f 214 219 205
f 396 395 394
f 103 338 340
f 339 341 120
f 213 212 211
f 214 212 213
f 103 340 102
f 340 339 102
f 102 339 120
f 198 69 197
f 198 197 199
f 104 120 121
f 121 120 119
f 105 115 103
f 105 103 104
f 104 103 102
f 104 102 120
f 99 198 199
f 198 99 101
f 100 101 99
f 100 99 98
f 89 85 91
f 91 85 86
f 100 98 92
f 92 98 90
f 92 90 91
f 91 90 89
f 411 412 413
f 413 412 414
f 415 416 417
f 417 416 418
f 419 420 421
f 421 420 422
f 423 424 425
f 425 424 426
f 427 428 429
f 429 428 430
f 431 432 433
f 433 432 434
f 435 436 437
f 437 436 438
f 439 440 441
f 441 440 442
f 443 444 445
f 445 444 446
f 447 448 449
f 449 448 450
f 451 452 453
f 453 452 454
f 455 456 457
f 457 456 458
f 459 460 461
f 461 460 462
f 463 464 465
f 465 464 466
f 467 468 469
f 469 468 470
f 471 472 473
f 473 472 474
f 475 476 477
f 477 476 478
f 479 480 481
f 481 480 482
f 483 484 485
f 485 484 486
f 487 488 489
f 489 488 490
f 491 492 493
f 493 492 494
f 495 496 497
f 497 496 498
f 499 500 501
f 501 500 502
f 503 504 505
f 505 504 506
f 507 508 509
f 509 508 510
f 511 512 513
f 513 512 514
f 515 516 517
f 517 516 518
f 519 520 521
f 521 520 522
f 523 524 525
f 525 524 526
f 527 528 529
f 529 528 530
f 531 532 533
f 533 532 534
f 535 536 537
f 537 536 538
f 539 540 541
f 541 540 542
f 543 544 545
f 545 544 546
f 547 548 549
f 549 548 550
f 551 552 553
f 553 552 554
f 555 556 557
f 557 556 558
f 592 560 559
f 559 591 592
f 624 592 591
f 591 623 624
f 656 624 623
f 623 655 656
f 688 656 655
f 655 687 688
f 720 688 687
f 687 719 720
f 752 720 719
f 719 751 752
f 784 752 751
f 751 783 784
f 816 784 783
f 783 815 816
f 848 816 815
f 815 847 848
f 880 848 847
f 847 879 880
f 912 880 879
f 879 911 912
f 944 912 911
f 911 943 944
f 976 944 943
f 943 975 976
f 1008 976 975
f 975 1007 1008
f 1040 1008 1007
f 1007 1039 1040
f 1072 1040 1039
f 1039 1071 1072
f 1104 1072 1071
f 1071 1103 1104
f 1136 1104 1103
f 1103 1135 1136
f 1168 1136 1135
f 1135 1167 1168
f 1200 1168 1167
f 1167 1199 1200
f 1232 1200 1199
f 1199 1231 1232
f 1264 1232 1231
f 1231 1263 1264
f 1296 1264 1263
f 1263 1295 1296
f 1328 1296 1295
f 1295 1327 1328
f 1360 1328 1327
f 1327 1359 1360
f 1392 1360 1359
f 1359 1391 1392
f 1424 1392 1391
f 1391 1423 1424
f 1456 1424 1423
f 1423 1455 1456
f 1488 1456 1455
f 1455 1487 1488
f 1520 1488 1487
f 1487 1519 1520
f 1552 1520 1519
f 1519 1551 1552
f 593 561 560
f 560 592 593
f 625 593 592
f 592 624 625
f 657 625 624
f 624 656 657
f 689 657 656
f 656 688 689
f 721 689 688
f 688 720 721
f 753 721 720
f 720 752 753
f 785 753 752
f 752 784 785
f 817 785 784
f 784 816 817
f 849 817 816
f 816 848 849
f 881 849 848
f 848 880 881
f 913 881 880
f 880 912 913
f 945 913 912
f 912 944 945
f 977 945 944
f 944 976 977
f 1009 977 976
f 976 1008 1009
f 1041 1009 1008
f 1008 1040 1041
f 1073 1041 1040
f 1040 1072 1073
f 1105 1073 1072
f 1072 1104 1105
f 1137 1105 1104
f 1104 1136 1137
f 1169 1137 1136
f 1136 1168 1169
f 1201 1169 1168
f 1168 1200 1201
f 1233 1201 1200
f 1200 1232 1233
f 1265 1233 1232
f 1232 1264 1265
f 1297 1265 1264
f 1264 1296 1297
f 1329 1297 1296
f 1296 1328 1329
f 1361 1329 1328
f 1328 1360 1361
f 1393 1361 1360
f 1360 1392 1393
f 1425 1393 1392
f 1392 1424 1425
f 1457 1425 1424
f 1424 1456 1457
f 1489 1457 1456
f 1456 1488 1489
f 1521 1489 1488
f 1488 1520 1521
f 1553 1521 1520
f 1520 1552 1553
f 594 562 561
f 561 593 594
f 626 594 593
f 593 625 626
f 658 626 625
f 625 657 658
f 690 658 657
f 657 689 690
f 722 690 689
f 689 721 722
f 754 722 721
f 721 753 754
f 786 754 753
f 753 785 786
f 818 786 785
f 785 817 818
f 850 818 817
f 817 849 850
f 882 850 849
f 849 881 882
f 914 882 881
f 881 913 914
f 946 914 913
f 913 945 946
f 978 946 945
f 945 977 978
f 1010 978 977
f 977 1009 1010
f 1042 1010 1009
f 1009 1041 1042
f 1074 1042 1041
f 1041 1073 1074
f 1106 1074 1073
f 1073 1105 1106
f 1138 1106 1105
f 1105 1137 1138
f 1170 1138 1137
f 1137 1169 1170
f 1202 1170 1169
f 1169 1201 1202
f 1234 1202 1201
f 1201 1233 1234
f 1266 1234 1233
f 1233 1265 1266
f 1298 1266 1265
f 1265 1297 1298
f 1330 1298 1297
f 1297 1329 1330
f 1362 1330 1329
f 1329 1361 1362
f 1394 1362 1361
f 1361 1393 1394
f 1426 1394 1393
f 1393 1425 1426
f 1458 1426 1425
f 1425 1457 1458
f 1490 1458 1457
f 1457 1489 1490
f 1522 1490 1489
f 1489 1521 1522
f 1554 1522 1521
f 1521 1553 1554
f 595 563 562
f 562 594 595
f 627 595 594
f 594 626 627
f 659 627 626
f 626 658 659
f 691 659 658
f 658 690 691
f 723 691 690
f 690 722 723
f 755 723 722
f 722 754 755
f 787 755 754
f 754 786 787
f 819 787 786
f 786 818 819
f 851 819 818
f 818 850 851
f 883 851 850
f 850 882 883
f 915 883 882
f 882 914 915
f 947 915 914
f 914 946 947
f 979 947 946
f 946 978 979
f 1011 979 978
f 978 1010 1011
f 1043 1011 1010
f 1010 1042 1043
f 1075 1043 1042
f 1042 1074 1075
f 1107 1075 1074
f 1074 1106 1107
f 1139 1107 1106
f 1106 1138 1139
f 1171 1139 1138
f 1138 1170 1171
f 1203 1171 1170
f 1170 1202 1203
f 1235 1203 1202
f 1202 1234 1235
f 1267 1235 1234
f 1234 1266 1267
f 1299 1267 1266
f 1266 1298 1299
f 1331 1299 1298
f 1298 1330 1331
f 1363 1331 1330
f 1330 1362 1363
f 1395 1363 1362
f 1362 1394 1395
f 1427 1395 1394
f 1394 1426 1427
f 1459 1427 1426
f 1426 1458 1459
f 1491 1459 1458
f 1458 1490 1491
f 1523 1491 1490
f 1490 1522 1523
f 1555 1523 1522
f 1522 1554 1555
f 596 564 563
f 563 595 596
f 628 596 595
f 595 627 628
f 660 628 627
f 627 659 660
f 692 660 659
f 659 691 692
f 724 692 691
f 691 723 724
f 756 724 723
f 723 755 756
f 788 756 755
f 755 787 788
f 820 788 787
f 787 819 820
f 852 820 819
f 819 851 852
f 884 852 851
f 851 883 884
f 916 884 883
f 883 915 916
f 948 916 915
f 915 947 948
f 980 948 947
f 947 979 980
f 1012 980 979
f 979 1011 1012
f 1044 1012 1011
f 1011 1043 1044
f 1076 1044 1043
f 1043 1075 1076
f 1108 1076 1075
f 1075 1107 1108
f 1140 1108 1107
f 1107 1139 1140
f 1172 1140 1139
f 1139 1171 1172
f 1204 1172 1171
f 1171 1203 1204
f 1236 1204 1203
f 1203 1235 1236
f 1268 1236 1235
f 1235 1267 1268
f 1300 1268 1267
f 1267 1299 1300
f 1332 1300 1299
f 1299 1331 1332
f 1364 1332 1331
f 1331 1363 1364
f 1396 1364 1363
f 1363 1395 1396
f 1428 1396 1395
f 1395 1427 1428
f 1460 1428 1427
f 1427 1459 1460
f 1492 1460 1459
f 1459 1491 1492
f 1524 1492 1491
f 1491 1523 1524
f 1556 1524 1523
f 1523 1555 1556
f 597 565 564
f 564 596 597
f 629 597 596
f 596 628 629
f 661 629 628
f 628 660 661
f 693 661 660
f 660 692 693
f 725 693 692
f 692 724 725
f 757 725 724
f 724 756 757
f 789 757 756
f 756 788 789
f 821 789 788
f 788 820 821
f 853 821 820
f 820 852 853
f 885 853 852
f 852 884 885
f 917 885 884
f 884 916 917
f 949 917 916
f 916 948 949
f 981 949 948
f 948 980 981
f 1013 981 980
f 980 1012 1013
f 1045 1013 1012
f 1012 1044 1045
f 1077 1045 1044
f 1044 1076 1077
f 1109 1077 1076
f 1076 1108 1109
f 1141 1109 1108
f 1108 1140 1141
f 1173 1141 1140
f 1140 1172 1173
f 1205 1173 1172
f 1172 1204 1205
f 1237 1205 1204
f 1204 1236 1237
f 1269 1237 1236
f 1236 1268 1269
f 1301 1269 1268
f 1268 1300 1301
f 1333 1301 1300
f 1300 1332 1333
f 1365 1333 1332
f 1332 1364 1365
f 1397 1365 1364
f 1364 1396 1397
f 1429 1397 1396
f 1396 1428 1429
f 1461 1429 1428
f 1428 1460 1461
f 1493 1461 1460
f 1460 1492 1493
f 1525 1493 1492
f 1492 1524 1525
f 1557 1525 1524
f 1524 1556 1557
f 598 566 565
f 565 597 598
f 630 598 597
f 597 629 630
f 662 630 629
f 629 661 662
f 694 662 661
f 661 693 694
f 726 694 693
f 693 725 726
f 758 726 725
f 725 757 758
f 790 758 757
f 757 789 790
f 822 790 789
f 789 821 822
f 854 822 821
f 821 853 854
f 886 854 853
f 853 885 886
f 918 886 885
f 885 917 918
f 950 918 917
f 917 949 950
f 982 950 949
f 949 981 982
f 1014 982 981
f 981 1013 1014
f 1046 1014 1013
f 1013 1045 1046
f 1078 1046 1045
f 1045 1077 1078
f 1110 1078 1077
f 1077 1109 1110
f 1142 1110 1109
f 1109 1141 1142
f 1174 1142 1141
f 1141 1173 1174
f 1206 1174 1173
f 1173 1205 1206
f 1238 1206 1205
f 1205 1237 1238
f 1270 1238 1237
f 1237 1269 1270
f 1302 1270 1269
f 1269 1301 1302
f 1334 1302 1301
f 1301 1333 1334
f 1366 1334 1333
f 1333 1365 1366
f 1398 1366 1365
f 1365 1397 1398
f 1430 1398 1397
f 1397 1429 1430
f 1462 1430 1429
f 1429 1461 1462
f 1494 1462 1461
f 1461 1493 1494
f 1526 1494 1493
f 1493 1525 1526
f 1558 1526 1525
f 1525 1557 1558
f 599 567 566
f 566 598 599
f 631 599 598
f 598 630 631
f 663 631 630
f 630 662 663
f 695 663 662
f 662 694 695
f 727 695 694
f 694 726 727
f 759 727 726
f 726 758 759
f 791 759 758
f 758 790 791
f 823 791 790
f 790 822 823
f 855 823 822
f 822 854 855
f 887 855 854
f 854 886 887
f 919 887 886
f 886 918 919
f 951 919 918
f 918 950 951
f 983 951 950
f 950 982 983
f 1015 983 982
f 982 1014 1015
f 1047 1015 1014
f 1014 1046 1047
f 1079 1047 1046
f 1046 1078 1079
f 1111 1079 1078
f 1078 1110 1111
f 1143 1111 1110
f 1110 1142 1143
f 1175 1143 1142
f 1142 1174 1175
f 1207 1175 1174
f 1174 1206 1207
f 1239 1207 1206
f 1206 1238 1239
f 1271 1239 1238
f 1238 1270 1271
f 1303 1271 1270
f 1270 1302 1303
f 1335 1303 1302
f 1302 1334 1335
f 1367 1335 1334
f 1334 1366 1367
f 1399 1367 1366
f 1366 1398 1399
f 1431 1399 1398
f 1398 1430 1431
f 1463 1431 1430
f 1430 1462 1463
f 1495 1463 1462
f 1462 1494 1495
f 1527 1495 1494
f 1494 1526 1527
f 1559 1527 1526
f 1526 1558 1559
f 600 568 567
f 567 599 600
f 632 600 599
f 599 631 632
f 664 632 631
f 631 663 664
f 696 664 663
f 663 695 696
f 728 696 695
f 695 727 728
f 760 728 727
f 727 759 760
f 792 760 759
f 759 791 792
f 824 792 791
f 791 823 824
f 856 824 823
f 823 855 856
f 888 856 855
f 855 887 888
f 920 888 887
f 887 919 920
f 952 920 919
f 919 951 952
f 984 952 951
f 951 983 984
f 1016 984 983
f 983 1015 1016
f 1048 1016 1015
f 1015 1047 1048
f 1080 1048 1047
f 1047 1079 1080
f 1112 1080 1079
f 1079 1111 1112
f 1144 1112 1111
f 1111 1143 1144
f 1176 1144 1143
f 1143 1175 1176
f 1208 1176 1175
f 1175 1207 1208
f 1240 1208 1207
f 1207 1239 1240
f 1272 1240 1239
f 1239 1271 1272
f 1304 1272 1271
f 1271 1303 1304
f 1336 1304 1303
f 1303 1335 1336
f 1368 1336 1335
f 1335 1367 1368
f 1400 1368 1367
f 1367 1399 1400
f 1432 1400 1399
f 1399 1431 1432
f 1464 1432 1431
f 1431 1463 1464
f 1496 1464 1463
f 1463 1495 1496
f 1528 1496 1495
f 1495 1527 1528
f 1560 1528 1527
f 1527 1559 1560
f 601 569 568
f 568 600 601
f 633 601 600
f 600 632 633
f 665 633 632
f 632 664 665
f 697 665 664
f 664 696 697
f 729 697 696
f 696 728 729
f 761 729 728
f 728 760 761
f 793 761 760
f 760 792 793
f 825 793 792
f 792 824 825
f 857 825 824
f 824 856 857
f 889 857 856
f 856 888 889
f 921 889 888
f 888 920 921
f 953 921 920
f 920 952 953
f 985 953 952
f 952 984 985
f 1017 985 984
f 984 1016 1017
f 1049 1017 1016
f 1016 1048 1049
f 1081 1049 1048
f 1048 1080 1081
f 1113 1081 1080
f 1080 1112 1113
f 1145 1113 1112
f 1112 1144 1145
f 1177 1145 1144
f 1144 1176 1177
f 1209 1177 1176
f 1176 1208 1209
f 1241 1209 1208
f 1208 1240 1241
f 1273 1241 1240
f 1240 1272 1273
f 1305 1273 1272
f 1272 1304 1305
f 1337 1305 1304
f 1304 1336 1337
f 1369 1337 1336
f 1336 1368 1369
f 1401 1369 1368
f 1368 1400 1401
f 1433 1401 1400
f 1400 1432 1433
f 1465 1433 1432
f 1432 1464 1465
f 1497 1465 1464
f 1464 1496 1497
f 1529 1497 1496
f 1496 1528 1529
f 1561 1529 1528
f 1528 1560 1561
f 602 570 569
f 569 601 602
f 634 602 601
f 601 633 634
f 666 634 633
f 633 665 666
f 698 666 665
f 665 697 698
f 730 698 697
f 697 729 730
f 762 730 729
f 729 761 762
f 794 762 761
f 761 793 794
f 826 794 793
f 793 825 826
f 858 826 825
f 825 857 858
f 890 858 857
f 857 889 890
f 922 890 889
f 889 921 922
f 954 922 921
f 921 953 954
f 986 954 953
f 953 985 986
f 1018 986 985
f 985 1017 1018
f 1050 1018 1017
f 1017 1049 1050
f 1082 1050 1049
f 1049 1081 1082
f 1114 1082 1081
f 1081 1113 1114
f 1146 1114 1113
f 1113 1145 1146
f 1178 1146 1145
f 1145 1177 1178
f 1210 1178 1177
f 1177 1209 1210
f 1242 1210 1209
f 1209 1241 1242
f 1274 1242 1241
f 1241 1273 1274
f 1306 1274 1273
f 1273 1305 1306
f 1338 1306 1305
f 1305 1337 1338
f 1370 1338 1337
f 1337 1369 1370
f 1402 1370 1369
f 1369 1401 1402
f 1434 1402 1401
f 1401 1433 1434
f 1466 1434 1433
f 1433 1465 1466
f 1498 1466 1465
f 1465 1497 1498
f 1530 1498 1497
f 1497 1529 1530
f 1562 1530 1529
f 1529 1561 1562
f 603 571 570
f 570 602 603
f 635 603 602
f 602 634 635
f 667 635 634
f 634 666 667
f 699 667 666
f 666 698 699
f 731 699 698
f 698 730 731
f 763 731 730
f 730 762 763
f 795 763 762
f 762 794 795
f 827 795 794
f 794 826 827
f 859 827 826
f 826 858 859
f 891 859 858
f 858 890 891
f 923 891 890
f 890 922 923
f 955 923 922
f 922 954 955
f 987 955 954
f 954 986 987
f 1019 987 986
f 986 1018 1019
f 1051 1019 1018
f 1018 1050 1051
f 1083 1051 1050
f 1050 1082 1083
f 1115 1083 1082
f 1082 1114 1115
f 1147 1115 1114
f 1114 1146 1147
f 1179 1147 1146
f 1146 1178 1179
f 1211 1179 1178
f 1178 1210 1211
f 1243 1211 1210
f 1210 1242 1243
f 1275 1243 1242
f 1242 1274 1275
f 1307 1275 1274
f 1274 1306 1307
f 1339 1307 1306
f 1306 1338 1339
f 1371 1339 1338
f 1338 1370 1371
f 1403 1371 1370
f 1370 1402 1403
f 1435 1403 1402
f 1402 1434 1435
f 1467 1435 1434
f 1434 1466 1467
f 1499 1467 1466
f 1466 1498 1499
f 1531 1499 1498
f 1498 1530 1531
f 1563 1531 1530
f 1530 1562 1563
f 604 572 571
f 571 603 604
f 636 604 603
f 603 635 636
f 668 636 635
f 635 667 668
f 700 668 667
f 667 699 700
f 732 700 699
f 699 731 732
f 764 732 731
f 731 763 764
f 796 764 763
f 763 795 796
f 828 796 795
f 795 827 828
f 860 828 827
f 827 859 860
f 892 860 859
f 859 891 892
f 924 892 891
f 891 923 924
f 956 924 923
f 923 955 956
f 988 956 955
f 955 987 988
f 1020 988 987
f 987 1019 1020
f 1052 1020 1019
f 1019 1051 1052
f 1084 1052 1051
f 1051 1083 1084
f 1116 1084 1083
f 1083 1115 1116
f 1148 1116 1115
f 1115 1147 1148
f 1180 1148 1147
f 1147 1179 1180
f 1212 1180 1179
f 1179 1211 1212
f 1244 1212 1211
f 1211 1243 1244
f 1276 1244 1243
f 1243 1275 1276
f 1308 1276 1275
f 1275 1307 1308
f 1340 1308 1307
f 1307 1339 1340
f 1372 1340 1339
f 1339 1371 1372
f 1404 1372 1371
f 1371 1403 1404
f 1436 1404 1403
f 1403 1435 1436
f 1468 1436 1435
f 1435 1467 1468
f 1500 1468 1467
f 1467 1499 1500
f 1532 1500 1499
f 1499 1531 1532
f 1564 1532 1531
f 1531 1563 1564
f 605 573 572
f 572 604 605
f 637 605 604
f 604 636 637
f 669 637 636
f 636 668 669
f 701 669 668
f 668 700 701
f 733 701 700
f 700 732 733
f 765 733 732
f 732 764 765
f 797 765 764
f 764 796 797
f 829 797 796
f 796 828 829
f 861 829 828
f 828 860 861
f 893 861 860
f 860 892 893
f 925 893 892
f 892 924 925
f 957 925 924
f 924 956 957
f 989 957 956
f 956 988 989
f 1021 989 988
f 988 1020 1021
f 1053 1021 1020
f 1020 1052 1053
f 1085 1053 1052
f 1052 1084 1085
f 1117 1085 1084
f 1084 1116 1117
f 1149 1117 1116
f 1116 1148 1149
f 1181 1149 1148
f 1148 1180 1181
f 1213 1181 1180
f 1180 1212 1213
f 1245 1213 1212
f 1212 1244 1245
f 1277 1245 1244
f 1244 1276 1277
f 1309 1277 1276
f 1276 1308 1309
f 1341 1309 1308
f 1308 1340 1341
f 1373 1341 1340
f 1340 1372 1373
f 1405 1373 1372
f 1372 1404 1405
f 1437 1405 1404
f 1404 1436 1437
f 1469 1437 1436
f 1436 1468 1469
f 1501 1469 1468
f 1468 1500 1501
f 1533 1501 1500
f 1500 1532 1533
f 1565 1533 1532
f 1532 1564 1565
f 606 574 573
f 573 605 606
f 638 606 605
f 605 637 638
f 670 638 637
f 637 669 670
f 702 670 669
f 669 701 702
f 734 702 701
f 701 733 734
f 766 734 733
f 733 765 766
f 798 766 765
f 765 797 798
f 830 798 797
f 797 829 830
f 862 830 829
f 829 861 862
f 894 862 861
f 861 893 894
f 926 894 893
f 893 925 926
f 958 926 925
f 925 957 958
f 990 958 957
f 957 989 990
f 1022 990 989
f 989 1021 1022
f 1054 1022 1021
f 1021 1053 1054
f 1086 1054 1053
f 1053 1085 1086
f 1118 1086 1085
f 1085 1117 1118
f 1150 1118 1117
f 1117 1149 1150
f 1182 1150 1149
f 1149 1181 1182
f 1214 1182 1181
f 1181 1213 1214
f 1246 1214 1213
f 1213 1245 1246
f 1278 1246 1245
f 1245 1277 1278
f 1310 1278 1277
f 1277 1309 1310
f 1342 1310 1309
f 1309 1341 1342
f 1374 1342 1341
f 1341 1373 1374
f 1406 1374 1373
f 1373 1405 1406
f 1438 1406 1405
f 1405 1437 1438
f 1470 1438 1437
f 1437 1469 1470
f 1502 1470 1469
f 1469 1501 1502
f 1534 1502 1501
f 1501 1533 1534
f 1566 1534 1533
f 1533 1565 1566
f 607 575 574
f 574 606 607
f 639 607 606
f 606 638 639
f 671 639 638
f 638 670 671
f 703 671 670
f 670 702 703
f 735 703 702
f 702 734 735
f 767 735 734
f 734 766 767
f 799 767 766
f 766 798 799
f 831 799 798
f 798 830 831
f 863 831 830
f 830 862 863
f 895 863 862
f 862 894 895
f 927 895 894
f 894 926 927
f 959 927 926
f 926 958 959
f 991 959 958
f 958 990 991
f 1023 991 990
f 990 1022 1023
f 1055 1023 1022
f 1022 1054 1055
f 1087 1055 1054
f 1054 1086 1087
f 1119 1087 1086
f 1086 1118 1119
f 1151 1119 1118
f 1118 1150 1151
f 1183 1151 1150
f 1150 1182 1183
f 1215 1183 1182
f 1182 1214 1215
f 1247 1215 1214
f 1214 1246 1247
f 1279 1247 1246
f 1246 1278 1279
f 1311 1279 1278
f 1278 1310 1311
f 1343 1311 1310
f 1310 1342 1343
f 1375 1343 1342
f 1342 1374 1375
f 1407 1375 1374
f 1374 1406 1407
f 1439 1407 1406
f 1406 1438 1439
f 1471 1439 1438
f 1438 1470 1471
f 1503 1471 1470
f 1470 1502 1503
f 1535 1503 1502
f 1502 1534 1535
f 1567 1535 1534
f 1534 1566 1567
f 608 576 575
f 575 607 608
f 640 608 607
f 607 639 640
f 672 640 639
f 639 671 672
f 704 672 671
f 671 703 704
f 736 704 703
f 703 735 736
f 768 736 735
f 735 767 768
f 800 768 767
f 767 799 800
f 832 800 799
f 799 831 832
f 864 832 831
f 831 863 864
f 896 864 863
f 863 895 896
f 928 896 895
f 895 927 928
f 960 928 927
f 927 959 960
f 992 960 959
f 959 991 992
f 1024 992 991
f 991 1023 1024
f 1056 1024 1023
f 1023 1055 1056
f 1088 1056 1055
f 1055 1087 1088
f 1120 1088 1087
f 1087 1119 1120
f 1152 1120 1119
f 1119 1151 1152
f 1184 1152 1151
f 1151 1183 1184
f 1216 1184 1183
f 1183 1215 1216
f 1248 1216 1215
f 1215 1247 1248
f 1280 1248 1247
f 1247 1279 1280
f 1312 1280 1279
f 1279 1311 1312
f 1344 1312 1311
f 1311 1343 1344
f 1376 1344 1343
f 1343 1375 1376
f 1408 1376 1375
f 1375 1407 1408
f 1440 1408 1407
f 1407 1439 1440
f 1472 1440 1439
f 1439 1471 1472
f 1504 1472 1471
f 1471 1503 1504
f 1536 1504 1503
f 1503 1535 1536
f 1568 1536 1535
f 1535 1567 1568
f 609 577 576
f 576 608 609
f 641 609 608
f 608 640 641
f 673 641 640
f 640 672 673
f 705 673 672
f 672 704 705
f 737 705 704
f 704 736 737
f 769 737 736
f 736 768 769
f 801 769 768
f 768 800 801
f 833 801 800
f 800 832 833
f 865 833 832
f 832 864 865
f 897 865 864
f 864 896 897
f 929 897 896
f 896 928 929
f 961 929 928
f 928 960 961
f 993 961 960
f 960 992 993
f 1025 993 992
f 992 1024 1025
f 1057 1025 1024
f 1024 1056 1057
f 1089 1057 1056
f 1056 1088 1089
f 1121 1089 1088
f 1088 1120 1121
f 1153 1121 1120
f 1120 1152 1153
f 1185 1153 1152
f 1152 1184 1185
f 1217 1185 1184
f 1184 1216 1217
f 1249 1217 1216
f 1216 1248 1249
f 1281 1249 1248
f 1248 1280 1281
f 1313 1281 1280
f 1280 1312 1313
f 1345 1313 1312
f 1312 1344 1345
f 1377 1345 1344
f 1344 1376 1377
f 1409 1377 1376
f 1376 1408 1409
f 1441 1409 1408
f 1408 1440 1441
f 1473 1441 1440
f 1440 1472 1473
f 1505 1473 1472
f 1472 1504 1505
f 1537 1505 1504
f 1504 1536 1537
f 1569 1537 1536
f 1536 1568 1569
f 610 578 577
f 577 609 610
f 642 610 609
f 609 641 642
f 674 642 641
f 641 673 674
f 706 674 673
f 673 705 706
f 738 706 705
f 705 737 738
f 770 738 737
f 737 769 770
f 802 770 769
f 769 801 802
f 834 802 801
f 801 833 834
f 866 834 833
f 833 865 866
f 898 866 865
f 865 897 898
f 930 898 897
f 897 929 930
f 962 930 929
f 929 961 962
f 994 962 961
f 961 993 994
f 1026 994 993
f 993 1025 1026
f 1058 1026 1025
f 1025 1057 1058
f 1090 1058 1057
f 1057 1089 1090
f 1122 1090 1089
f 1089 1121 1122
f 1154 1122 1121
f 1121 1153 1154
f 1186 1154 1153
f 1153 1185 1186
f 1218 1186 1185
f 1185 1217 1218
f 1250 1218 1217
f 1217 1249 1250
f 1282 1250 1249
f 1249 1281 1282
f 1314 1282 1281
f 1281 1313 1314
f 1346 1314 1313
f 1313 1345 1346
f 1378 1346 1345
f 1345 1377 1378
f 1410 1378 1377
f 1377 1409 1410
f 1442 1410 1409
f 1409 1441 1442
f 1474 1442 1441
f 1441 1473 1474
f 1506 1474 1473
f 1473 1505 1506
f 1538 1506 1505
f 1505 1537 1538
f 1570 1538 1537
f 1537 1569 1570
f 611 579 578
f 578 610 611
f 643 611 610
f 610 642 643
f 675 643 642
f 642 674 675
f 707 675 674
f 674 706 707
f 739 707 706
f 706 738 739
f 771 739 738
f 738 770 771
f 803 771 770
f 770 802 803
f 835 803 802
f 802 834 835
f 867 835 834
f 834 866 867
f 899 867 866
f 866 898 899
f 931 899 898
f 898 930 931
f 963 931 930
f 930 962 963
f 995 963 962
f 962 994 995
f 1027 995 994
f 994 1026 1027
f 1059 1027 1026
f 1026 1058 1059
f 1091 1059 1058
f 1058 1090 1091
f 1123 1091 1090
f 1090 1122 1123
f 1155 1123 1122
f 1122 1154 1155
f 1187 1155 1154
f 1154 1186 1187
f 1219 1187 1186
f 1186 1218 1219
f 1251 1219 1218
f 1218 1250 1251
f 1283 1251 1250
f 1250 1282 1283
f 1315 1283 1282
f 1282 1314 1315
f 1347 1315 1314
f 1314 1346 1347
f 1379 1347 1346
f 1346 1378 1379
f 1411 1379 1378
f 1378 1410 1411
f 1443 1411 1410
f 1410 1442 1443
f 1475 1443 1442
f 1442 1474 1475
f 1507 1475 1474
f 1474 1506 1507
f 1539 1507 1506
f 1506 1538 1539
f 1571 1539 1538
f 1538 1570 1571
f 612 580 579
f 579 611 612
f 644 612 611
f 611 643 644
f 676 644 643
f 643 675 676
f 708 676 675
f 675 707 708
f 740 708 707
f 707 739 740
f 772 740 739
f 739 771 772
f 804 772 771
f 771 803 804
f 836 804 803
f 803 835 836
f 868 836 835
f 835 867 868
f 900 868 867
f 867 899 900
f 932 900 899
f 899 931 932
f 964 932 931
f 931 963 964
f 996 964 963
f 963 995 996
f 1028 996 995
f 995 1027 1028
f 1060 1028 1027
f 1027 1059 1060
f 1092 1060 1059
f 1059 1091 1092
f 1124 1092 1091
f 1091 1123 1124
f 1156 1124 1123
f 1123 1155 1156
f 1188 1156 1155
f 1155 1187 1188
f 1220 1188 1187
f 1187 1219 1220
f 1252 1220 1219
f 1219 1251 1252
f 1284 1252 1251
f 1251 1283 1284
f 1316 1284 1283
f 1283 1315 1316
f 1348 1316 1315
f 1315 1347 1348
f 1380 1348 1347
f 1347 1379 1380
f 1412 1380 1379
f 1379 1411 1412
f 1444 1412 1411
f 1411 1443 1444
f 1476 1444 1443
f 1443 1475 1476
f 1508 1476 1475
f 1475 1507 1508
f 1540 1508 1507
f 1507 1539 1540
f 1572 1540 1539
f 1539 1571 1572
f 613 581 580
f 580 612 613
f 645 613 612
f 612 644 645
f 677 645 644
f 644 676 677
f 709 677 676
f 676 708 709
f 741 709 708
f 708 740 741
f 773 741 740
f 740 772 773
f 805 773 772
f 772 804 805
f 837 805 804
f 804 836 837
f 869 837 836
f 836 868 869
f 901 869 868
f 868 900 901
f 933 901 900
f 900 932 933
f 965 933 932
f 932 964 965
f 997 965 964
f 964 996 997
f 1029 997 996
f 996 1028 1029
f 1061 1029 1028
f 1028 1060 1061
f 1093 1061 1060
f 1060 1092 1093
f 1125 1093 1092
f 1092 1124 1125
f 1157 1125 1124
f 1124 1156 1157
f 1189 1157 1156
f 1156 1188 1189
f 1221 1189 1188
f 1188 1220 1221
f 1253 1221 1220
f 1220 1252 1253
f 1285 1253 1252
f 1252 1284 1285
f 1317 1285 1284
f 1284 1316 1317
f 1349 1317 1316
f 1316 1348 1349
f 1381 1349 1348
f 1348 1380 1381
f 1413 1381 1380
f 1380 1412 1413
f 1445 1413 1412
f 1412 1444 1445
f 1477 1445 1444
f 1444 1476 1477
f 1509 1477 1476
f 1476 1508 1509
f 1541 1509 1508
f 1508 1540 1541
f 1573 1541 1540
f 1540 1572 1573
f 614 582 581
f 581 613 614
f 646 614 613
f 613 645 646
f 678 646 645
f 645 677 678
f 710 678 677
f 677 709 710
f 742 710 709
f 709 741 742
f 774 742 741
f 741 773 774
f 806 774 773
f 773 805 806
f 838 806 805
f 805 837 838
f 870 838 837
f 837 869 870
f 902 870 869
f 869 901 902
f 934 902 901
f 901 933 934
f 966 934 933
f 933 965 966
f 998 966 965
f 965 997 998
f 1030 998 997
f 997 1029 1030
f 1062 1030 1029
f 1029 1061 1062
f 1094 1062 1061
f 1061 1093 1094
f 1126 1094 1093
f 1093 1125 1126
f 1158 1126 1125
f 1125 1157 1158
f 1190 1158 1157
f 1157 1189 1190
f 1222 1190 1189
f 1189 1221 1222
f 1254 1222 1221
f 1221 1253 1254
f 1286 1254 1253
f 1253 1285 1286
f 1318 1286 1285
f 1285 1317 1318
f 1350 1318 1317
f 1317 1349 1350
f 1382 1350 1349
f 1349 1381 1382
f 1414 1382 1381
f 1381 1413 1414
f 1446 1414 1413
f 1413 1445 1446
f 1478 1446 1445
f 1445 1477 1478
f 1510 1478 1477
f 1477 1509 1510
f 1542 1510 1509
f 1509 1541 1542
f 1574 1542 1541
f 1541 1573 1574
f 615 583 582
f 582 614 615
f 647 615 614
f 614 646 647
f 679 647 646
f 646 678 679
f 711 679 678
f 678 710 711
f 743 711 710
f 710 742 743
f 775 743 742
f 742 774 775
f 807 775 774
f 774 806 807
f 839 807 806
f 806 838 839
f 871 839 838
f 838 870 871
f 903 871 870
f 870 902 903
f 935 903 902
f 902 934 935
f 967 935 934
f 934 966 967
f 999 967 966
f 966 998 999
f 1031 999 998
f 998 1030 1031
f 1063 1031 1030
f 1030 1062 1063
f 1095 1063 1062
f 1062 1094 1095
f 1127 1095 1094
f 1094 1126 1127
f 1159 1127 1126
f 1126 1158 1159
f 1191 1159 1158
f 1158 1190 1191
f 1223 1191 1190
f 1190 1222 1223
f 1255 1223 1222
f 1222 1254 1255
f 1287 1255 1254
f 1254 1286 1287
f 1319 1287 1286
f 1286 1318 1319
f 1351 1319 1318
f 1318 1350 1351
f 1383 1351 1350
f 1350 1382 1383
f 1415 1383 1382
f 1382 1414 1415
f 1447 1415 1414
f 1414 1446 1447
f 1479 1447 1446
f 1446 1478 1479
f 1511 1479 1478
f 1478 1510 1511
f 1543 1511 1510
f 1510 1542 1543
f 1575 1543 1542
f 1542 1574 1575
f 616 584 583
f 583 615 616
f 648 616 615
f 615 647 648
f 680 648 647
f 647 679 680
f 712 680 679
f 679 711 712
f 744 712 711
f 711 743 744
f 776 744 743
f 743 775 776
f 808 776 775
f 775 807 808
f 840 808 807
f 807 839 840
f 872 840 839
f 839 871 872
f 904 872 871
f 871 903 904
f 936 904 903
f 903 935 936
f 968 936 935
f 935 967 968
f 1000 968 967
f 967 999 1000
f 1032 1000 999
f 999 1031 1032
f 1064 1032 1031
f 1031 1063 1064
f 1096 1064 1063
f 1063 1095 1096
f 1128 1096 1095
f 1095 1127 1128
f 1160 1128 1127
f 1127 1159 1160
f 1192 1160 1159
f 1159 1191 1192
f 1224 1192 1191
f 1191 1223 1224
f 1256 1224 1223
f 1223 1255 1256
f 1288 1256 1255
f 1255 1287 1288
f 1320 1288 1287
f 1287 1319 1320
f 1352 1320 1319
f 1319 1351 1352
f 1384 1352 1351
f 1351 1383 1384
f 1416 1384 1383
f 1383 1415 1416
f 1448 1416 1415
f 1415 1447 1448
f 1480 1448 1447
f 1447 1479 1480
f 1512 1480 1479
f 1479 1511 1512
f 1544 1512 1511
f 1511 1543 1544
f 1576 1544 1543
f 1543 1575 1576
f 617 585 584
f 584 616 617
f 649 617 616
f 616 648 649
f 681 649 648
f 648 680 681
f 713 681 680
f 680 712 713
f 745 713 712
f 712 744 745
f 777 745 744
f 744 776 777
f 809 777 776
f 776 808 809
f 841 809 808
f 808 840 841
f 873 841 840
f 840 872 873
f 905 873 872
f 872 904 905
f 937 905 904
f 904 936 937
f 969 937 936
f 936 968 969
f 1001 969 968
f 968 1000 1001
f 1033 1001 1000
f 1000 1032 1033
f 1065 1033 1032
f 1032 1064 1065
f 1097 1065 1064
f 1064 1096 1097
f 1129 1097 1096
f 1096 1128 1129
f 1161 1129 1128
f 1128 1160 1161
f 1193 1161 1160
f 1160 1192 1193
f 1225 1193 1192
f 1192 1224 1225
f 1257 1225 1224
f 1224 1256 1257
f 1289 1257 1256
f 1256 1288 1289
f 1321 1289 1288
f 1288 1320 1321
f 1353 1321 1320
f 1320 1352 1353
f 1385 1353 1352
f 1352 1384 1385
f 1417 1385 1384
f 1384 1416 1417
f 1449 1417 1416
f 1416 1448 1449
f 1481 1449 1448
f 1448 1480 1481
f 1513 1481 1480
f 1480 1512 1513
f 1545 1513 1512
f 1512 1544 1545
f 1577 1545 1544
f 1544 1576 1577
f 618 586 585
f 585 617 618
f 650 618 617
f 617 649 650
f 682 650 649
f 649 681 682
f 714 682 681
f 681 713 714
f 746 714 713
f 713 745 746
f 778 746 745
f 745 777 778
f 810 778 777
f 777 809 810
f 842 810 809
f 809 841 842
f 874 842 841
f 841 873 874
f 906 874 873
f 873 905 906
f 938 906 905
f 905 937 938
f 970 938 937
f 937 969 970
f 1002 970 969
f 969 1001 1002
f 1034 1002 1001
f 1001 1033 1034
f 1066 1034 1033
f 1033 1065 1066
f 1098 1066 1065
f 1065 1097 1098
f 1130 1098 1097
f 1097 1129 1130
f 1162 1130 1129
f 1129 1161 1162
f 1194 1162 1161
f 1161 1193 1194
f 1226 1194 1193
f 1193 1225 1226
f 1258 1226 1225
f 1225 1257 1258
f 1290 1258 1257
f 1257 1289 1290
f 1322 1290 1289
f 1289 1321 1322
f 1354 1322 1321
f 1321 1353 1354
f 1386 1354 1353
f 1353 1385 1386
f 1418 1386 1385
f 1385 1417 1418
f 1450 1418 1417
f 1417 1449 1450
f 1482 1450 1449
f 1449 1481 1482
f 1514 1482 1481
f 1481 1513 1514
f 1546 1514 1513
f 1513 1545 1546
f 1578 1546 1545
f 1545 1577 1578
f 619 587 586
f 586 618 619
f 651 619 618
f 618 650 651
f 683 651 650
f 650 682 683
f 715 683 682
f 682 714 715
f 747 715 714
f 714 746 747
f 779 747 746
f 746 778 779
f 811 779 778
f 778 810 811
f 843 811 810
f 810 842 843
f 875 843 842
f 842 874 875
f 907 875 874
f 874 906 907
f 939 907 906
f 906 938 939
f 971 939 938
f 938 970 971
f 1003 971 970
f 970 1002 1003
f 1035 1003 1002
f 1002 1034 1035
f 1067 1035 1034
f 1034 1066 1067
f 1099 1067 1066
f 1066 1098 1099
f 1131 1099 1098
f 1098 1130 1131
f 1163 1131 1130
f 1130 1162 1163
f 1195 1163 1162
f 1162 1194 1195
f 1227 1195 1194
f 1194 1226 1227
f 1259 1227 1226
f 1226 1258 1259
f 1291 1259 1258
f 1258 1290 1291
f 1323 1291 1290
f 1290 1322 1323
f 1355 1323 1322
f 1322 1354 1355
f 1387 1355 1354
f 1354 1386 1387
f 1419 1387 1386
f 1386 1418 1419
f 1451 1419 1418
f 1418 1450 1451
f 1483 1451 1450
f 1450 1482 1483
f 1515 1483 1482
f 1482 1514 1515
f 1547 1515 1514
f 1514 1546 1547
f 1579 1547 1546
f 1546 1578 1579
f 620 588 587
f 587 619 620
f 652 620 619
f 619 651 652
f 684 652 651
f 651 683 684
f 716 684 683
f 683 715 716
f 748 716 715
f 715 747 748
f 780 748 747
f 747 779 780
f 812 780 779
f 779 811 812
f 844 812 811
f 811 843 844
f 876 844 843
f 843 875 876
f 908 876 875
f 875 907 908
f 940 908 907
f 907 939 940
f 972 940 939
f 939 971 972
f 1004 972 971
f 971 1003 1004
f 1036 1004 1003
f 1003 1035 1036
f 1068 1036 1035
f 1035 1067 1068
f 1100 1068 1067
f 1067 1099 1100
f 1132 1100 1099
f 1099 1131 1132
f 1164 1132 1131
f 1131 1163 1164
f 1196 1164 1163
f 1163 1195 1196
f 1228 1196 1195
f 1195 1227 1228
f 1260 1228 1227
f 1227 1259 1260
f 1292 1260 1259
f 1259 1291 1292
f 1324 1292 1291
f 1291 1323 1324
f 1356 1324 1323
f 1323 1355 1356
f 1388 1356 1355
f 1355 1387 1388
f 1420 1388 1387
f 1387 1419 1420
f 1452 1420 1419
f 1419 1451 1452
f 1484 1452 1451
f 1451 1483 1484
f 1516 1484 1483
f 1483 1515 1516
f 1548 1516 1515
f 1515 1547 1548
f 1580 1548 1547
f 1547 1579 1580
f 621 589 588
f 588 620 621
f 653 621 620
f 620 652 653
f 685 653 652
f 652 684 685
f 717 685 684
f 684 716 717
f 749 717 716
f 716 748 749
f 781 749 748
f 748 780 781
f 813 781 780
f 780 812 813
f 845 813 812
f 812 844 845
f 877 845 844
f 844 876 877
f 909 877 876
f 876 908 909
f 941 909 908
f 908 940 941
f 973 941 940
f 940 972 973
f 1005 973 972
f 972 1004 1005
f 1037 1005 1004
f 1004 1036 1037
f 1069 1037 1036
f 1036 1068 1069
f 1101 1069 1068
f 1068 1100 1101
f 1133 1101 1100
f 1100 1132 1133
f 1165 1133 1132
f 1132 1164 1165
f 1197 1165 1164
f 1164 1196 1197
f 1229 1197 1196
f 1196 1228 1229
f 1261 1229 1228
f 1228 1260 1261
f 1293 1261 1260
f 1260 1292 1293
f 1325 1293 1292
f 1292 1324 1325
f 1357 1325 1324
f 1324 1356 1357
f 1389 1357 1356
f 1356 1388 1389
f 1421 1389 1388
f 1388 1420 1421
f 1453 1421 1420
f 1420 1452 1453
f 1485 1453 1452
f 1452 1484 1485
f 1517 1485 1484
f 1484 1516 1517
f 1549 1517 1516
f 1516 1548 1549
f 1581 1549 1548
f 1548 1580 1581
f 622 590 589
f 589 621 622
f 654 622 621
f 621 653 654
f 686 654 653
f 653 685 686
f 718 686 685
f 685 717 718
f 750 718 717
f 717 749 750
f 782 750 749
f 749 781 782
f 814 782 781
f 781 813 814
f 846 814 813
f 813 845 846
f 878 846 845
f 845 877 878
f 910 878 877
f 877 909 910
f 942 910 909
f 909 941 942
f 974 942 941
f 941 973 974
f 1006 974 973
f 973 1005 1006
f 1038 1006 1005
f 1005 1037 1038
f 1070 1038 1037
f 1037 1069 1070
f 1102 1070 1069
f 1069 1101 1102
f 1134 1102 1101
f 1101 1133 1134
f 1166 1134 1133
f 1133 1165 1166
f 1198 1166 1165
f 1165 1197 1198
f 1230 1198 1197
f 1197 1229 1230
f 1262 1230 1229
f 1229 1261 1262
f 1294 1262 1261
f 1261 1293 1294
f 1326 1294 1293
f 1293 1325 1326
f 1358 1326 1325
f 1325 1357 1358
f 1390 1358 1357
f 1357 1389 1390
f 1422 1390 1389
f 1389 1421 1422
f 1454 1422 1421
f 1421 1453 1454
f 1486 1454 1453
f 1453 1485 1486
f 1518 1486 1485
f 1485 1517 1518
f 1550 1518 1517
f 1517 1549 1550
f 1582 1550 1549
f 1549 1581 1582
