v 1867.86 73.8611 -1758.08
v 1867.61 73.8611 -1758.08
v 1867.86 77.8611 -1758.08
v 1867.61 77.8611 -1758.08
v 1867.86 77.8611 -1759.61
v 1867.61 77.8611 -1759.06
v 1867.61 77.8611 -1760.04
v 1867.82 77.8611 -1758.46
v 1867.79 77.8611 -1758.84
v 1867.86 77.8611 -1759.14
v 1867.86 77.7612 -1763.59
v 1867.86 77.7595 -1764.42
v 1867.86 77.6119 -1764.65
v 1867.86 77.8611 -1758.08
v 1867.61 77.8611 -1758.08
v 1867.86 77.8611 -1758.32
v 1867.86 77.8611 -1761.86
v 1867.86 77.8611 -1761.46
v 1867.61 77.8611 -1762
v 1867.79 77.8611 -1760.36
v 1867.79 77.8611 -1760.98
v 1867.44 77.8611 -1759.65
v 1867.36 77.8611 -1759.05
v 1867.36 77.7615 -1759.65
v 1867.82 77.8611 -1758.46
v 1867.86 77.8275 -1758.46
v 1867.86 77.8611 -1758.32
v 1867.79 77.8611 -1760.36
v 1867.86 77.7638 -1760.39
v 1867.86 77.8611 -1759.61
v 1867.82 77.7886 -1764.78
v 1867.61 77.5727 -1764.76
v 1867.61 77.8611 -1764.9
v 1867.78 77.8611 -1765.11
v 1867.82 77.7886 -1764.78
v 1867.61 77.8611 -1764.9
v 1867.86 77.8611 -1766.08
v 1867.86 77.8611 -1765.49
v 1867.61 77.8611 -1766.08
v 1867.61 77.8611 -1764.9
v 1867.78 77.8611 -1765.11
v 1867.36 77.8611 -1759.05
v 1867.36 77.8611 -1758.08
v 1867.36 73.8611 -1758.08
v 1867.36 77.8611 -1763.42
v 1867.36 77.8611 -1764.46
v 1867.61 77.8687 -1763.54
v 1867.65 77.8611 -1764.4
v 1867.36 76.5396 -1764.73
v 1867.36 77.1867 -1764.79
v 1867.61 76.615 -1764.75
v 1867.61 77.1479 -1764.77
v 1867.36 76.5396 -1764.73
v 1867.61 76.615 -1764.75
v 1867.36 77.1645 -1764.65
v 1867.61 77.1449 -1764.69
v 1867.36 77.5495 -1764.63
v 1867.62 77.6197 -1764.66
v 1867.36 77.8611 -1764.46
v 1867.41 77.7979 -1764.52
v 1867.36 77.5772 -1764.8
v 1867.86 77.6119 -1764.65
v 1867.86 77.0556 -1764.68
v 1867.86 76.5541 -1764.77
v 1867.86 76.5541 -1764.77
v 1867.61 76.615 -1764.75
v 1867.86 77.045 -1764.8
v 1867.86 77.045 -1764.8
v 1867.86 77.5435 -1764.78
v 1867.86 77.7824 -1764.82
v 1867.86 77.7595 -1764.42
v 1867.62 77.6197 -1764.66
v 1867.86 77.6119 -1764.65
v 1867.86 77.7824 -1765.09
v 1867.82 77.7886 -1764.78
v 1867.86 77.7824 -1765.09
v 1867.86 77.7824 -1764.82
v 1867.61 77.8687 -1763.54
v 1867.65 77.8611 -1764.4
v 1867.86 77.7612 -1763.59
v 1867.86 77.7595 -1764.42
v 1867.65 77.8611 -1764.4
v 1867.41 77.7979 -1764.52
v 1867.36 77.8611 -1764.46
v 1867.86 77.6472 -1762.12
v 1867.63 77.7083 -1762.19
v 1867.86 77.1581 -1762.33
v 1867.61 77.3064 -1762.34
v 1867.86 76.7355 -1762.34
v 1867.61 76.8784 -1762.41
v 1867.86 76.1591 -1762.56
v 1867.61 76.253 -1762.58
v 1867.86 75.3846 -1762.59
v 1867.61 75.409 -1762.61
v 1867.86 76.6303 -1763.11
v 1867.61 77.023 -1763.16
v 1867.86 77.0148 -1763.21
v 1867.86 77.3865 -1763.36
v 1867.63 77.4102 -1763.25
v 1867.86 77.7612 -1763.59
v 1867.61 77.7251 -1763.37
v 1867.86 76.121 -1762.82
v 1867.86 75.3846 -1762.59
v 1867.61 76.1344 -1762.77
v 1867.61 75.409 -1762.61
v 1867.36 76.3469 -1762.53
v 1867.36 75.3493 -1762.58
v 1867.36 76.1478 -1762.79
v 1867.36 75.3493 -1762.58
v 1867.36 77.0312 -1763.2
v 1867.36 77.5014 -1763.24
v 1867.36 77.0213 -1762.4
v 1867.36 77.4548 -1762.21
v 1867.36 77.8611 -1763.42
v 1867.36 77.8611 -1762.07
v 1867.61 77.8611 -1762
v 1867.86 77.8611 -1761.86
v 1867.61 77.8687 -1763.54
v 1867.36 77.8611 -1761.29
v 1867.44 77.8611 -1760.5
v 1867.36 77.7869 -1760.47
v 1867.41 77.8611 -1759.95
v 1867.36 77.7989 -1759.94
v 1867.86 77.7932 -1758.91
v 1867.79 77.8611 -1758.84
v 1867.86 77.8611 -1759.14
v 1867.86 77.7868 -1761.05
v 1867.79 77.8611 -1760.98
v 1867.86 77.8611 -1761.46
v 1867.86 77.8611 -1765.49
v 1867.36 77.1645 -1764.65
v 1867.36 77.0312 -1763.2
v 1867.36 76.1478 -1762.79
v 1867.36 76.5396 -1764.73
v 1867.36 75.3493 -1762.58
v 1867.36 77.8611 -1764.46
v 1867.36 77.8611 -1763.42
v 1867.36 77.5014 -1763.24
v 1867.36 77.5495 -1764.63
v 1867.36 73.8611 -1766.08
v 1867.36 76.3469 -1762.53
v 1867.36 77.7615 -1759.65
v 1867.36 77.7989 -1759.94
v 1867.36 77.7869 -1760.47
v 1867.36 77.8611 -1761.29
v 1867.36 77.0213 -1762.4
v 1867.36 77.4548 -1762.21
v 1867.36 77.8611 -1762.07
v 1867.36 77.8611 -1766.08
v 1867.36 77.1867 -1764.79
v 1867.36 77.5772 -1764.8
v 1867.36 77.8611 -1764.91
v 1867.86 77.5435 -1764.78
v 1867.86 77.7824 -1764.82
v 1867.86 77.7824 -1765.09
v 1867.86 76.121 -1762.82
v 1867.86 76.6303 -1763.11
v 1867.86 76.5541 -1764.77
v 1867.86 77.0556 -1764.68
v 1867.86 77.0148 -1763.21
v 1867.86 77.3865 -1763.36
v 1867.86 75.3846 -1762.59
v 1867.86 73.8611 -1764.33
v 1867.86 73.8611 -1758.08
v 1867.86 73.8611 -1766.08
v 1867.86 77.8611 -1766.08
v 1867.86 77.8611 -1765.49
v 1867.86 77.045 -1764.8
v 1867.86 77.8611 -1761.46
v 1867.86 77.8611 -1761.86
v 1867.86 77.6472 -1762.12
v 1867.86 77.7638 -1760.39
v 1867.86 76.1591 -1762.56
v 1867.86 77.7868 -1761.05
v 1867.86 77.1581 -1762.33
v 1867.86 76.7355 -1762.34
v 1867.86 77.8611 -1759.14
v 1867.86 77.8611 -1759.61
v 1867.86 77.8611 -1758.32
v 1867.86 77.8611 -1758.08
v 1867.86 77.8275 -1758.46
v 1867.86 77.7932 -1758.91
v 1867.86 77.8611 -1766.08
v 1867.61 77.8611 -1766.08
v 1867.86 73.8611 -1766.08
v 1867.61 73.8611 -1766.08
v 1867.36 73.8611 -1758.08
v 1867.36 77.8611 -1758.08
v 1867.36 77.8611 -1762.07
v 1867.36 77.8611 -1761.29
v 1867.44 77.8611 -1759.65
v 1867.44 77.8611 -1760.5
v 1867.41 77.8611 -1759.95
v 1867.36 77.8611 -1759.05
v 1867.36 77.8611 -1758.08
v 1867.36 77.8611 -1766.08
v 1867.36 77.8611 -1764.91
v 1867.36 77.8611 -1764.91
v 1867.36 77.8611 -1766.08
v 1867.36 73.8611 -1766.08
v 1867.15 73.9061 -1762.39
v 1867.01 73.9659 -1762.43
v 1867.14 73.9107 -1762.5
v 1866.96 73.9045 -1762.35
v 1866.93 73.9022 -1762.46
v 1866.98 73.9035 -1762.53
v 1867.07 73.9092 -1762.34
v 1866.98 73.8611 -1762.36
v 1866.96 73.8592 -1762.45
v 1867 73.8602 -1762.51
v 1867.13 73.8661 -1762.49
v 1867.13 73.8608 -1762.4
v 1867.07 73.8649 -1762.35
v 1866.99 73.9351 -1762.34
v 1867.06 74.0661 -1762.11
v 1866.89 73.9351 -1762.16
v 1867.13 73.9351 -1761.9
v 1867.08 74.0661 -1761.97
v 1867.26 73.9351 -1762.03
v 1867.17 74.0492 -1762.02
v 1866.98 73.9351 -1761.9
v 1867.18 73.9351 -1762.2
v 1867.22 73.8611 -1762.05
v 1867.12 73.8611 -1761.94
v 1867 73.8611 -1761.94
v 1866.92 73.8611 -1762.15
v 1867.01 73.8611 -1762.29
v 1867.16 73.8611 -1762.18
v 1868.08 73.9061 -1761.76
v 1868.09 73.9107 -1761.86
v 1868.22 73.9659 -1761.79
v 1868.3 73.9022 -1761.82
v 1868.27 73.9045 -1761.71
v 1868.25 73.9035 -1761.9
v 1868.16 73.9092 -1761.7
v 1868.25 73.8611 -1761.72
v 1868.27 73.8592 -1761.81
v 1868.23 73.8602 -1761.87
v 1868.1 73.8661 -1761.85
v 1868.1 73.8608 -1761.76
v 1868.16 73.8649 -1761.72
v 1867.15 73.8611 -1763.62
v 1867.36 73.8611 -1764.29
v 1867.36 73.9387 -1763.36
v 1867.36 73.8611 -1760.61
v 1867.1 73.8611 -1761.03
v 1867.36 73.9234 -1761.23
v 1867.08 73.8611 -1761.47
v 1867.36 74.0382 -1762.64
v 1867.15 73.8611 -1762.08
v 1866.95 73.8611 -1762.69
v 1867.06 73.8611 -1763.28
v 1868.08 73.8611 -1762.98
v 1867.86 73.9387 -1762.72
v 1867.86 73.8611 -1763.65
v 1867.86 73.8611 -1759.98
v 1867.86 73.9234 -1760.59
v 1868.13 73.8611 -1760.39
v 1868.15 73.8611 -1760.84
v 1867.86 74.0382 -1762
v 1868.08 73.8611 -1761.45
v 1868.28 73.8611 -1762.06
v 1868.17 73.8611 -1762.64
v 1873.29 78.8315 -1766.32
v 1873 79.3881 -1766.32
v 1873.29 78.8315 -1765.32
v 1873 79.3881 -1765.32
v 1872.56 79.8298 -1766.32
v 1872.56 79.8298 -1765.32
v 1872.01 80.1134 -1766.32
v 1872.01 80.1134 -1765.32
v 1871.39 80.2111 -1766.32
v 1871.39 80.2111 -1765.32
v 1874.24 79.1429 -1766.32
v 1873.29 78.8315 -1766.32
v 1874.39 78.2145 -1766.32
v 1873.39 78.2145 -1766.32
v 1872.32 81.0679 -1766.32
v 1872.01 80.1134 -1766.32
v 1873.15 80.6418 -1766.32
v 1872.56 79.8298 -1766.32
v 1871.39 81.2148 -1766.32
v 1871.39 80.2111 -1766.32
v 1874.39 78.2145 -1765.32
v 1873.39 78.2145 -1765.32
v 1874.24 79.1429 -1765.32
v 1873.29 78.8315 -1765.32
v 1873.82 79.978 -1765.32
v 1873 79.3881 -1765.32
v 1873.15 80.6418 -1765.32
v 1872.56 79.8298 -1765.32
v 1872.32 81.0679 -1765.32
v 1872.01 80.1134 -1765.32
v 1871.39 81.2148 -1765.32
v 1871.39 80.2111 -1765.32
v 1874.24 79.1429 -1765.32
v 1874.24 79.1429 -1766.32
v 1874.39 78.2145 -1765.32
v 1874.39 78.2145 -1766.32
v 1872.32 81.0679 -1765.32
v 1872.32 81.0679 -1766.32
v 1873.15 80.6418 -1765.32
v 1873.15 80.6418 -1766.32
v 1871.39 81.2148 -1765.32
v 1871.39 81.2148 -1766.32
v 1874.05 79.5232 -1766.32
v 1873 79.3881 -1766.32
v 1873.73 79.9132 -1766.32
v 1873.28 80.5196 -1766.32
v 1873.45 80.2655 -1766.32
v 1873.28 80.5196 -1766.32
v 1873.82 79.978 -1765.32
v 1873.52 80.277 -1766.22
v 1873.82 79.978 -1766.2
v 1874.05 79.5232 -1766.32
v 1873.52 80.277 -1766.22
v 1873.28 80.5196 -1766.32
v 1873.45 80.2655 -1766.32
v 1873.82 79.978 -1766.2
v 1873.73 79.9132 -1766.32
v 1874.05 79.5232 -1766.32
v 1873.73 79.9132 -1766.32
v 1873.52 80.277 -1766.22
v 1873.39 78.2145 -1765.32
v 1873.39 78.2145 -1766.32
v 1873.49 73.7145 -1765.32
v 1873.55 74.0996 -1765.32
v 1874.39 73.7145 -1765.32
v 1874.39 77.7145 -1765.32
v 1873.49 74.7276 -1765.32
v 1873.51 75.4063 -1765.32
v 1873.39 76.2629 -1765.32
v 1873.39 77.7145 -1765.32
v 1873.39 77.7145 -1766.32
v 1873.39 73.7145 -1766.32
v 1874.39 77.7145 -1766.32
v 1874.39 73.7145 -1766.32
v 1874.39 77.7145 -1766.32
v 1874.39 73.7145 -1766.32
v 1874.39 77.7145 -1765.32
v 1874.39 73.7145 -1765.32
v 1873.39 74.1739 -1765.4
v 1873.55 74.0996 -1765.32
v 1873.39 73.7145 -1765.45
v 1873.49 73.7145 -1765.32
v 1873.39 75.4925 -1765.46
v 1873.39 76.2629 -1765.32
v 1873.51 75.4063 -1765.32
v 1873.39 74.8495 -1765.46
v 1873.49 74.7276 -1765.32
v 1873.39 77.7145 -1765.32
v 1873.39 76.2629 -1765.32
v 1873.39 77.7145 -1766.32
v 1873.39 75.4925 -1765.46
v 1873.39 73.7145 -1766.32
v 1873.39 74.8495 -1765.46
v 1873.39 74.1739 -1765.4
v 1873.39 73.7145 -1765.45
v 1875.39 77.7145 -1766.07
v 1875.39 73.7145 -1766.07
v 1875.39 77.7145 -1765.57
v 1875.39 73.7145 -1765.57
v 1875.39 73.7145 -1765.57
v 1874.39 73.7145 -1765.57
v 1875.39 77.7145 -1765.57
v 1874.39 77.7145 -1765.57
v 1875.39 77.7145 -1766.07
v 1875.39 77.7145 -1765.57
v 1874.39 77.7145 -1766.07
v 1874.39 77.7145 -1765.57
v 1874.39 77.7145 -1766.07
v 1874.39 73.7145 -1766.07
v 1875.39 77.7145 -1766.07
v 1875.39 73.7145 -1766.07
v 1873.29 77.7145 -1765.22
v 1873.29 78.2145 -1765.22
v 1874.49 77.7145 -1765.22
v 1874.49 78.2145 -1765.22
v 1873.29 78.2145 -1765.22
v 1873.29 78.2145 -1766.42
v 1874.49 78.2145 -1765.22
v 1874.49 78.2145 -1766.42
v 1873.29 78.2145 -1766.42
v 1873.29 77.7145 -1766.42
v 1874.49 78.2145 -1766.42
v 1874.49 77.7145 -1766.42
v 1873.29 77.7145 -1766.42
v 1873.29 77.7145 -1765.22
v 1874.49 77.7145 -1766.42
v 1874.49 77.7145 -1765.22
v 1874.49 77.7145 -1765.22
v 1874.49 78.2145 -1765.22
v 1874.49 77.7145 -1766.42
v 1874.49 78.2145 -1766.42
v 1873.29 77.7145 -1766.42
v 1873.29 78.2145 -1766.42
v 1873.29 77.7145 -1765.22
v 1873.29 78.2145 -1765.22
v 1867.39 77.7145 -1765.57
v 1867.39 73.7145 -1765.57
v 1867.39 77.7145 -1766.07
v 1867.39 73.7145 -1766.07
v 1867.39 73.7145 -1766.07
v 1868.39 73.7145 -1766.07
v 1867.39 77.7145 -1766.07
v 1868.39 77.7145 -1766.07
v 1867.39 77.7145 -1765.57
v 1867.39 77.7145 -1766.07
v 1868.39 77.7145 -1765.57
v 1868.39 77.7145 -1766.07
v 1868.39 77.7145 -1765.57
v 1868.39 73.7145 -1765.57
v 1867.39 77.7145 -1765.57
v 1867.39 73.7145 -1765.57
v 1869.39 77.7145 -1765.32
v 1869.39 73.7145 -1765.32
v 1868.39 77.7145 -1765.32
v 1868.39 73.7145 -1765.32
v 1868.39 73.7145 -1766.32
v 1868.39 77.7145 -1766.32
v 1868.39 73.7145 -1765.32
v 1868.39 77.7145 -1765.32
v 1869.25 74.4037 -1766.32
v 1868.39 77.7145 -1766.32
v 1868.39 73.7145 -1766.32
v 1869.18 73.7145 -1766.32
v 1869.39 74.838 -1766.32
v 1869.39 77.7145 -1766.32
v 1869.39 74.838 -1766.32
v 1869.25 74.4037 -1766.32
v 1869.23 73.7145 -1766.17
v 1869.18 73.7145 -1766.32
v 1869.39 73.7145 -1766.19
v 1869.39 73.8747 -1766.16
v 1869.23 73.7145 -1766.17
v 1869.39 74.838 -1766.32
v 1869.39 77.7145 -1766.32
v 1869.39 74.838 -1766.32
v 1869.39 77.7145 -1765.32
v 1869.39 73.7145 -1766.19
v 1869.39 73.7145 -1765.32
v 1869.39 73.8747 -1766.16
v 1868.29 77.7145 -1766.42
v 1868.29 78.2145 -1766.42
v 1868.29 77.7145 -1765.22
v 1868.29 78.2145 -1765.22
v 1868.29 78.2145 -1766.42
v 1869.49 78.2145 -1766.42
v 1868.29 78.2145 -1765.22
v 1869.49 78.2145 -1765.22
v 1869.49 78.2145 -1766.42
v 1869.49 77.7145 -1766.42
v 1869.49 78.2145 -1765.22
v 1869.49 77.7145 -1765.22
v 1869.49 77.7145 -1766.42
v 1868.29 77.7145 -1766.42
v 1869.49 77.7145 -1765.22
v 1868.29 77.7145 -1765.22
v 1868.29 77.7145 -1765.22
v 1868.29 78.2145 -1765.22
v 1869.49 77.7145 -1765.22
v 1869.49 78.2145 -1765.22
v 1869.49 77.7145 -1766.42
v 1869.49 78.2145 -1766.42
v 1868.29 77.7145 -1766.42
v 1868.29 78.2145 -1766.42
v 1869.49 78.8315 -1766.32
v 1869.49 78.8315 -1765.32
v 1869.77 79.3881 -1766.32
v 1869.77 79.3881 -1765.32
v 1870.22 79.8298 -1766.32
v 1870.22 79.8298 -1765.32
v 1870.77 80.1134 -1766.32
v 1870.77 80.1134 -1765.32
v 1871.39 80.2111 -1766.32
v 1871.39 80.2111 -1765.32
v 1868.54 79.1429 -1766.32
v 1868.39 78.2145 -1766.32
v 1869.49 78.8315 -1766.32
v 1869.39 78.2145 -1766.32
v 1870.46 81.0679 -1766.32
v 1869.63 80.6418 -1766.32
v 1870.77 80.1134 -1766.32
v 1870.22 79.8298 -1766.32
v 1871.39 81.2148 -1766.32
v 1871.39 80.2111 -1766.32
v 1868.39 78.2145 -1765.32
v 1868.54 79.1429 -1765.32
v 1869.39 78.2145 -1765.32
v 1869.49 78.8315 -1765.32
v 1868.96 79.978 -1765.32
v 1869.77 79.3881 -1765.32
v 1869.63 80.6418 -1765.32
v 1870.22 79.8298 -1765.32
v 1870.46 81.0679 -1765.32
v 1870.77 80.1134 -1765.32
v 1871.39 81.2148 -1765.32
v 1871.39 80.2111 -1765.32
v 1868.54 79.1429 -1765.32
v 1868.39 78.2145 -1765.32
v 1868.54 79.1429 -1766.32
v 1868.39 78.2145 -1766.32
v 1870.46 81.0679 -1765.32
v 1869.63 80.6418 -1765.32
v 1870.46 81.0679 -1766.32
v 1869.63 80.6418 -1766.32
v 1871.39 81.2148 -1765.32
v 1871.39 81.2148 -1766.32
v 1868.73 79.5232 -1766.32
v 1869.77 79.3881 -1766.32
v 1869.05 79.9132 -1766.32
v 1869.5 80.5196 -1766.32
v 1869.32 80.2655 -1766.32
v 1869.5 80.5196 -1766.32
v 1868.96 79.978 -1765.32
v 1869.26 80.277 -1766.22
v 1868.96 79.978 -1766.2
v 1868.73 79.5232 -1766.32
v 1869.26 80.277 -1766.22
v 1869.32 80.2655 -1766.32
v 1869.5 80.5196 -1766.32
v 1868.96 79.978 -1766.2
v 1868.73 79.5232 -1766.32
v 1869.05 79.9132 -1766.32
v 1869.05 79.9132 -1766.32
v 1869.26 80.277 -1766.22
v 1869.39 78.2145 -1765.32
v 1869.39 78.2145 -1766.32
v 1865.53 77.8562 -1758.27
v 1865.53 77.8562 -1758.02
v 1865.53 73.8562 -1758.27
v 1865.53 73.8562 -1758.02
v 1873.53 73.8562 -1758.27
v 1873.53 73.8562 -1758.02
v 1873.53 77.8562 -1758.27
v 1873.53 77.8562 -1758.02
v 1867.65 76.5274 -1757.77
v 1868.83 77.5733 -1757.77
v 1869.53 73.8562 -1757.77
v 1869.94 77.8562 -1757.85
v 1870.65 77.8562 -1757.77
v 1869.96 77.7026 -1757.77
v 1867.78 77.8562 -1757.83
v 1867.81 77.7389 -1757.77
v 1867.42 77.8562 -1757.77
v 1868.83 77.5733 -1757.77
v 1868.78 77.6891 -1757.84
v 1870.92 77.8562 -1758.21
v 1870.66 77.8562 -1758.27
v 1870.96 77.7806 -1758.27
v 1871.62 77.8562 -1758.21
v 1871.66 77.803 -1758.27
v 1871.8 77.8562 -1758.27
v 1870.65 77.8562 -1757.77
v 1871.53 77.8562 -1758.02
v 1873.53 77.8562 -1757.77
v 1873.53 77.8562 -1758.02
v 1869.94 77.8562 -1757.85
v 1869.53 77.6891 -1758.02
v 1868.78 77.6891 -1757.84
v 1867.53 77.8562 -1758.02
v 1867.78 77.8562 -1757.83
v 1867.42 77.8562 -1757.77
v 1865.53 77.8562 -1758.02
v 1865.53 77.8562 -1757.77
v 1866.46 77.6968 -1758.2
v 1865.53 77.8562 -1758.27
v 1866.48 77.617 -1758.27
v 1865.53 77.8562 -1758.27
v 1865.53 73.8562 -1758.27
v 1866.48 77.617 -1758.27
v 1866.62 76.8797 -1758.27
v 1867.02 77.6968 -1758.11
v 1869.85 77.8562 -1758.2
v 1869.84 77.4747 -1758.27
v 1870.01 77.8562 -1758.27
v 1869.16 77.6891 -1758.1
v 1869.15 76.5657 -1758.27
v 1868.39 75.8368 -1758.27
v 1868.71 76.2337 -1758.27
v 1868.45 77.8562 -1758.03
v 1867.68 75.6115 -1758.27
v 1867.79 77.8562 -1758.13
v 1866.89 76.0468 -1758.27
v 1867.02 77.6968 -1758.11
v 1866.62 76.8797 -1758.27
v 1866.48 77.617 -1758.27
v 1873.53 77.8562 -1757.77
v 1873.53 73.8562 -1757.77
v 1870.65 77.8562 -1757.77
v 1867.81 77.7389 -1757.77
v 1865.53 77.8562 -1757.77
v 1867.42 77.8562 -1757.77
v 1869.96 77.7026 -1757.77
v 1869.53 73.8562 -1758.27
v 1873.53 73.8562 -1758.27
v 1869.84 77.4747 -1758.27
v 1866.89 76.0468 -1758.27
v 1867.68 75.6115 -1758.27
v 1869.15 76.5657 -1758.27
v 1870.01 77.8562 -1758.27
v 1870.66 77.8562 -1758.27
v 1870.96 77.7806 -1758.27
v 1868.71 76.2337 -1758.27
v 1868.39 75.8368 -1758.27
v 1873.53 77.8562 -1758.27
v 1871.8 77.8562 -1758.27
v 1871.66 77.803 -1758.27
v 1867.42 74.1568 -1757.77
v 1867.4 73.8562 -1757.77
v 1865.53 73.8562 -1757.77
v 1867.8 75.8662 -1757.77
v 1867.74 75.8722 -1757.84
v 1867.65 76.5274 -1757.77
v 1867.65 76.5274 -1757.77
v 1867.74 75.8722 -1757.84
v 1867.64 75.8781 -1757.77
v 1867.71 75.4484 -1757.77
v 1867.76 75.4439 -1757.84
v 1867.79 75.1012 -1757.84
v 1867.7 75.1121 -1757.77
v 1867.74 74.5765 -1757.84
v 1867.58 74.5841 -1757.77
v 1867.68 74.1528 -1757.84
v 1867.42 74.1568 -1757.77
v 1867.7 73.8562 -1757.84
v 1867.4 73.8562 -1757.77
v 1867.7 73.8562 -1757.84
v 1867.68 74.1528 -1757.84
v 1867.91 73.8562 -1757.77
v 1867.84 74.1488 -1757.77
v 1867.74 74.5765 -1757.84
v 1867.89 74.569 -1757.77
v 1867.79 75.1012 -1757.84
v 1867.94 75.0902 -1757.77
v 1867.83 75.4394 -1757.77
v 1867.76 75.4439 -1757.84
v 1867.58 74.5841 -1757.77
v 1867.7 75.1121 -1757.77
v 1867.71 75.4484 -1757.77
v 1867.64 75.8781 -1757.77
v 1867.8 75.8662 -1757.77
v 1867.83 75.4394 -1757.77
v 1867.94 75.0902 -1757.77
v 1867.89 74.569 -1757.77
v 1867.84 74.1488 -1757.77
v 1867.91 73.8562 -1757.77
v 1865.53 77.8562 -1757.77
v 1865.53 73.8562 -1757.77
v 1873.53 73.8562 -1757.77
v 1873.53 77.8562 -1757.77
v 1865.53 77.8562 -1758.27
v 1866.46 77.6968 -1758.2
v 1867.02 77.6968 -1758.11
v 1867.79 77.8562 -1758.13
v 1871.8 77.8562 -1758.27
v 1873.53 77.8562 -1758.27
v 1871.62 77.8562 -1758.21
v 1870.92 77.8562 -1758.21
v 1870.66 77.8562 -1758.27
v 1870.01 77.8562 -1758.27
v 1869.85 77.8562 -1758.2
v 1869.16 77.6891 -1758.1
v 1868.45 77.8562 -1758.03
v 1875.11 73.7735 -1766.24
v 1875.11 76.7743 -1766.24
v 1875.11 77.6642 -1766.1
v 1875.11 77.6747 -1765.33
v 1875.11 73.7735 -1765.24
v 1875.16 77.8059 -1765.43
v 1875.11 77.8718 -1766.14
v 1876.11 77.9708 -1766.24
v 1875.42 75.4933 -1766.24
v 1876.11 74.972 -1766.24
v 1875.57 74.9553 -1766.24
v 1875.94 74.3112 -1766.24
v 1875.5 74.3583 -1766.24
v 1875.55 73.7735 -1766.24
v 1875.91 73.7735 -1766.24
v 1876.11 73.7735 -1766.09
v 1876.11 73.7735 -1765.24
v 1876.11 74.3111 -1765.98
v 1876.11 77.7586 -1765.24
v 1876.11 74.972 -1766.24
v 1876.11 77.9708 -1766.24
v 1876.11 74.3111 -1765.98
v 1876.11 74.972 -1766.24
v 1875.94 74.3112 -1766.24
v 1875.11 77.6642 -1766.1
v 1875.17 77.7564 -1766.24
v 1875.11 77.8718 -1766.14
v 1875.17 77.8718 -1766.24
v 1875.23 77.4451 -1766.24
v 1875.11 76.7743 -1766.24
v 1875.37 77.2076 -1765.24
v 1875.11 73.7735 -1765.24
v 1875.11 77.6747 -1765.33
v 1876.11 73.7735 -1766.09
v 1875.91 73.7735 -1766.24
v 1876.11 77.7586 -1765.24
v 1876.11 73.7735 -1765.24
v 1875.91 77.9085 -1765.24
v 1875.68 77.6783 -1765.24
v 1875.6 77.3698 -1765.24
v 1875.32 77.9708 -1765.53
v 1875.41 78.0653 -1765.52
v 1875.3 77.9663 -1766.11
v 1875.63 78.0653 -1765.77
v 1875.3 77.9663 -1766.11
v 1875.61 77.8905 -1765.33
v 1875.37 77.2076 -1765.24
v 1875.11 77.6747 -1765.33
v 1875.32 77.9708 -1765.53
v 1875.61 77.8905 -1765.33
v 1875.6 77.3698 -1765.24
v 1875.68 77.6783 -1765.24
v 1875.16 77.8059 -1765.43
v 1875.45 74.3935 -1766.19
v 1875.45 73.7735 -1766.19
v 1875.5 74.3583 -1766.24
v 1875.55 73.7735 -1766.24
v 1875.57 74.9553 -1766.24
v 1875.52 74.9123 -1766.19
v 1875.42 75.4933 -1766.24
v 1875.48 74.9735 -1766.24
v 1875.52 74.9123 -1766.19
v 1875.42 75.4933 -1766.24
v 1875.36 74.3392 -1766.24
v 1875.45 74.3935 -1766.19
v 1875.45 73.7735 -1766.19
v 1875.29 73.7735 -1766.24
v 1875.11 73.7735 -1766.24
v 1875.36 74.3392 -1766.24
v 1875.48 74.9735 -1766.24
v 1875.11 76.7743 -1766.24
v 1875.29 73.7735 -1766.24
v 1875.23 77.4451 -1766.24
v 1875.17 77.7564 -1766.24
v 1875.17 77.8718 -1766.24
v 1875.98 78.003 -1765.4
v 1875.98 78.0653 -1766.11
v 1875.63 78.0653 -1765.77
v 1875.98 78.003 -1765.4
v 1875.41 78.0653 -1765.52
v 1876.43 73.7671 -1758.7
v 1876.43 74.3879 -1758.7
v 1876.47 73.7671 -1757.7
v 1876.47 76.0634 -1757.7
v 1876.43 76.7679 -1758.7
v 1876.47 77.2658 -1757.76
v 1876.43 77.7568 -1758.62
v 1876.47 77.6683 -1757.8
v 1876.47 78.0589 -1757.82
v 1876.43 78.0589 -1758.61
v 1876.59 78.0589 -1757.86
v 1876.53 77.6772 -1757.84
v 1876.47 78.0589 -1757.82
v 1876.47 77.6683 -1757.8
v 1877.43 74.3047 -1758.61
v 1877.43 75.2999 -1758.74
v 1877.36 74.3048 -1758.74
v 1876.43 77.7568 -1758.62
v 1876.48 77.849 -1758.71
v 1876.43 78.0589 -1758.61
v 1876.49 78.0589 -1758.71
v 1876.49 77.5377 -1758.71
v 1876.43 76.7679 -1758.7
v 1876.47 77.2658 -1757.76
v 1876.52 77.3239 -1757.76
v 1876.47 76.0634 -1757.7
v 1876.72 77.2012 -1757.71
v 1877.43 73.7671 -1758.65
v 1877.33 73.7671 -1758.74
v 1876.59 78.0589 -1757.86
v 1876.47 78.0589 -1757.82
v 1876.81 78.0589 -1758.17
v 1876.96 77.3634 -1757.72
v 1876.72 77.2012 -1757.71
v 1876.52 77.3239 -1757.76
v 1876.77 74.3871 -1758.67
v 1876.77 73.7671 -1758.67
v 1876.82 74.352 -1758.72
v 1876.86 73.7671 -1758.72
v 1876.89 74.9489 -1758.72
v 1876.84 74.906 -1758.67
v 1876.73 75.4869 -1758.72
v 1876.8 74.9671 -1758.72
v 1876.84 74.906 -1758.67
v 1876.73 75.4869 -1758.72
v 1876.68 74.3328 -1758.71
v 1876.77 74.3871 -1758.67
v 1876.77 73.7671 -1758.67
v 1876.61 73.7671 -1758.71
v 1876.43 76.7679 -1758.7
v 1876.43 74.3879 -1758.7
v 1876.73 75.4869 -1758.72
v 1876.8 74.9671 -1758.72
v 1876.68 74.3328 -1758.71
v 1876.43 73.7671 -1758.7
v 1876.61 73.7671 -1758.71
v 1876.97 76.343 -1758.72
v 1876.73 75.4869 -1758.72
v 1877.43 75.6895 -1758.74
v 1877.43 75.2999 -1758.74
v 1876.89 74.9489 -1758.72
v 1877.36 74.3048 -1758.74
v 1876.82 74.352 -1758.72
v 1876.86 73.7671 -1758.72
v 1877.33 73.7671 -1758.74
v 1876.97 76.343 -1758.72
v 1876.73 76.5701 -1758.72
v 1876.73 75.4869 -1758.72
v 1876.43 76.7679 -1758.7
v 1876.49 77.5377 -1758.71
v 1876.68 77.0502 -1758.71
v 1877.46 74.1475 -1758.02
v 1877.43 74.3047 -1758.61
v 1877.43 73.7671 -1758.65
v 1877.46 74.9079 -1757.87
v 1877.43 75.2999 -1758.74
v 1877.46 75.4773 -1757.95
v 1877.43 75.6895 -1758.74
v 1877.44 76.0969 -1758.58
v 1877.47 76.3302 -1757.74
v 1877.44 76.7752 -1758.43
v 1877.45 77.0329 -1758.18
v 1877.47 77.5252 -1757.74
v 1877.46 77.5471 -1757.9
v 1877.47 77.5252 -1757.74
v 1877.47 76.3302 -1757.74
v 1876.96 77.3634 -1757.72
v 1877.26 75.4765 -1757.74
v 1876.47 73.7671 -1757.7
v 1877.34 74.9397 -1757.74
v 1877.33 74.7197 -1757.74
v 1877.15 74.0992 -1757.73
v 1877.26 75.4765 -1757.74
v 1877.47 76.3302 -1757.74
v 1877.46 75.4773 -1757.95
v 1877.34 74.9397 -1757.74
v 1877.46 74.9079 -1757.87
v 1877.33 74.7197 -1757.74
v 1877.46 74.1475 -1758.02
v 1877.15 74.0992 -1757.73
v 1876.81 78.0589 -1758.17
v 1876.49 78.0589 -1758.71
v 1876.96 77.4974 -1758.3
v 1876.48 77.849 -1758.71
v 1876.49 77.5377 -1758.71
v 1877.43 75.6895 -1758.74
v 1877.44 76.0969 -1758.58
v 1877.09 76.7867 -1758.47
v 1877.44 76.7752 -1758.43
v 1876.97 76.343 -1758.72
v 1876.73 76.5701 -1758.72
v 1877.45 77.0329 -1758.18
v 1876.68 77.0502 -1758.71
v 1877.46 77.5471 -1757.9
v 1876.49 78.0589 -1758.71
v 1876.81 78.0589 -1758.17
v 1876.43 78.0589 -1758.61
v 1876.47 78.0589 -1757.82
v 1876.71 78.0589 -1757.89
v 1876.59 78.0589 -1757.86
v 1876.81 78.0589 -1758.17
v 1876.53 77.6772 -1757.84
v 1876.71 78.0589 -1757.89
v 1876.96 77.6795 -1758
v 1876.81 77.7312 -1757.86
v 1876.59 78.0589 -1757.86
v 1876.81 77.7312 -1757.86
v 1876.71 78.0589 -1757.89
v 1877.08 77.5649 -1757.81
v 1877.08 77.5649 -1757.81
v 1877.18 77.5999 -1757.95
v 1876.81 78.0589 -1758.17
v 1877.47 77.5252 -1757.74
v 1877.47 77.5252 -1757.74
v 1877.46 77.5471 -1757.9
v 1877.95 73.7789 -1758.17
v 1877.97 74.0588 -1758.26
v 1877.8 73.754 -1758.78
v 1877.92 74.0901 -1758.44
v 1877.59 73.7844 -1758.21
v 1877.97 74.0588 -1758.26
v 1877.95 73.7789 -1758.17
v 1877.92 74.0901 -1758.44
v 1877.58 73.7671 -1758.53
v 1877.8 73.754 -1758.78
v 1877.58 73.7671 -1758.53
v 1877.92 74.0901 -1758.44
v 1877.59 73.7844 -1758.21
v 1877.97 74.0588 -1758.26
v 1877.53 73.7951 -1758.68
v 1877.58 73.9692 -1759
v 1877.64 73.7671 -1759.2
v 1877.64 74.2674 -1759.23
v 1877.64 73.7671 -1759.2
v 1877.21 74.4839 -1759.33
v 1876.72 73.7545 -1759.4
v 1877.64 74.2674 -1759.23
v 1877.02 74.3084 -1759.37
v 1876.72 73.7545 -1759.4
v 1877.02 74.3084 -1759.37
v 1877 74.0435 -1759.18
v 1877.58 73.9692 -1759
v 1877.28 74.0478 -1759.1
v 1877.64 74.2674 -1759.23
v 1877.21 74.4839 -1759.33
v 1877.53 73.7951 -1758.68
v 1877.42 73.7898 -1758.78
v 1877.58 73.9692 -1759
v 1877.28 74.0478 -1759.1
v 1876.67 73.7654 -1759.2
v 1877 74.0435 -1759.18
v 1876.72 73.7545 -1759.4
v 1876.47 73.7671 -1757.7
v 1877.15 74.0992 -1757.73
v 1876.87 73.7671 -1757.43
v 1877.34 73.7671 -1757.24
v 1877.73 73.7671 -1757.42
v 1877.71 73.7671 -1757.81
v 1877.46 74.1475 -1758.02
v 1877.94 73.7671 -1757.94
v 1877.43 73.7671 -1758.65
v 1839 74.2243 -1729
v 1839 74.0433 -1731
v 1839 74.0148 -1733
v 1839 74.073 -1735
v 1839 74.1057 -1737
v 1839 74.0506 -1739
v 1839 73.9175 -1741
v 1839 73.8098 -1743
v 1839 73.7599 -1745
v 1839 73.7231 -1747
v 1839 73.7868 -1749
v 1839 73.9425 -1751
v 1839 74.1373 -1753
v 1839 74.3532 -1755
v 1839 74.4464 -1757
v 1839 74.3927 -1759
v 1839 74.2806 -1761
v 1839 74.0895 -1763
v 1839 73.93 -1765
v 1839 73.8681 -1767
v 1839 73.8669 -1769
v 1839 73.8507 -1771
v 1839 73.8259 -1773
v 1839 73.807 -1775
v 1839 73.8026 -1777
v 1839 73.7781 -1779
v 1839 73.683 -1781
v 1839 73.5519 -1783
v 1839 73.4593 -1785
v 1839 73.4829 -1787
v 1839 73.5342 -1789
v 1839 73.5555 -1791
v 1841 74.3895 -1729
v 1841 74.2061 -1731
v 1841 74.1531 -1733
v 1841 74.1926 -1735
v 1841 74.1727 -1737
v 1841 74.0557 -1739
v 1841 73.9012 -1741
v 1841 73.8242 -1743
v 1841 73.8258 -1745
v 1841 73.812 -1747
v 1841 73.8558 -1749
v 1841 73.9729 -1751
v 1841 74.1494 -1753
v 1841 74.3593 -1755
v 1841 74.4844 -1757
v 1841 74.4942 -1759
v 1841 74.4338 -1761
v 1841 74.2376 -1763
v 1841 74.0172 -1765
v 1841 73.874 -1767
v 1841 73.8378 -1769
v 1841 73.8283 -1771
v 1841 73.8266 -1773
v 1841 73.8458 -1775
v 1841 73.8789 -1777
v 1841 73.8937 -1779
v 1841 73.8357 -1781
v 1841 73.705 -1783
v 1841 73.5787 -1785
v 1841 73.5508 -1787
v 1841 73.5255 -1789
v 1841 73.501 -1791
v 1843 74.4413 -1729
v 1843 74.2993 -1731
v 1843 74.2601 -1733
v 1843 74.2957 -1735
v 1843 74.2548 -1737
v 1843 74.1326 -1739
v 1843 74.0126 -1741
v 1843 73.9946 -1743
v 1843 74.0419 -1745
v 1843 74.0343 -1747
v 1843 74.0393 -1749
v 1843 74.1052 -1751
v 1843 74.2472 -1753
v 1843 74.3882 -1755
v 1843 74.465 -1757
v 1843 74.4765 -1759
v 1843 74.4612 -1761
v 1843 74.3261 -1763
v 1843 74.145 -1765
v 1843 74.0085 -1767
v 1843 73.9671 -1769
v 1843 73.9209 -1771
v 1843 73.861 -1773
v 1843 73.8378 -1775
v 1843 73.8674 -1777
v 1843 73.9329 -1779
v 1843 73.943 -1781
v 1843 73.8473 -1783
v 1843 73.7094 -1785
v 1843 73.6407 -1787
v 1843 73.5797 -1789
v 1843 73.5614 -1791
v 1845 74.3845 -1729
v 1845 74.2938 -1731
v 1845 74.2876 -1733
v 1845 74.3329 -1735
v 1845 74.3121 -1737
v 1845 74.2419 -1739
v 1845 74.1931 -1741
v 1845 74.2327 -1743
v 1845 74.3017 -1745
v 1845 74.2899 -1747
v 1845 74.2658 -1749
v 1845 74.2983 -1751
v 1845 74.4071 -1753
v 1845 74.4557 -1755
v 1845 74.4358 -1757
v 1845 74.3925 -1759
v 1845 74.3922 -1761
v 1845 74.3399 -1763
v 1845 74.258 -1765
v 1845 74.1947 -1767
v 1845 74.1746 -1769
v 1845 74.0814 -1771
v 1845 73.9391 -1773
v 1845 73.8424 -1775
v 1845 73.845 -1777
v 1845 73.9369 -1779
v 1845 73.9804 -1781
v 1845 73.9002 -1783
v 1845 73.754 -1785
v 1845 73.6746 -1787
v 1845 73.6438 -1789
v 1845 73.6906 -1791
v 1847 74.2901 -1729
v 1847 74.264 -1731
v 1847 74.3089 -1733
v 1847 74.3715 -1735
v 1847 74.3922 -1737
v 1847 74.3909 -1739
v 1847 74.3988 -1741
v 1847 74.4529 -1743
v 1847 74.5076 -1745
v 1847 74.4881 -1747
v 1847 74.4531 -1749
v 1847 74.4646 -1751
v 1847 74.5317 -1753
v 1847 74.5076 -1755
v 1847 74.4112 -1757
v 1847 74.31 -1759
v 1847 74.2885 -1761
v 1847 74.28 -1763
v 1847 74.2754 -1765
v 1847 74.2795 -1767
v 1847 74.274 -1769
v 1847 74.1554 -1771
v 1847 73.9785 -1773
v 1847 73.8492 -1775
v 1847 73.8311 -1777
v 1847 73.9157 -1779
v 1847 73.9581 -1781
v 1847 73.8815 -1783
v 1847 73.7377 -1785
v 1847 73.6619 -1787
v 1847 73.6705 -1789
v 1847 73.7796 -1791
v 1849 74.2491 -1729
v 1849 74.3054 -1731
v 1849 74.4101 -1733
v 1849 74.4848 -1735
v 1849 74.5387 -1737
v 1849 74.5866 -1739
v 1849 74.6134 -1741
v 1849 74.6371 -1743
v 1849 74.6581 -1745
v 1849 74.639 -1747
v 1849 74.6012 -1749
v 1849 74.5771 -1751
v 1849 74.573 -1753
v 1849 74.5013 -1755
v 1849 74.3858 -1757
v 1849 74.2738 -1759
v 1849 74.2198 -1761
v 1849 74.2169 -1763
v 1849 74.2473 -1765
v 1849 74.2798 -1767
v 1849 74.2604 -1769
v 1849 74.1233 -1771
v 1849 73.9474 -1773
v 1849 73.8217 -1775
v 1849 73.7913 -1777
v 1849 73.8649 -1779
v 1849 73.9377 -1781
v 1849 73.9115 -1783
v 1849 73.8026 -1785
v 1849 73.711 -1787
v 1849 73.6929 -1789
v 1849 73.8003 -1791
v 1851 74.3231 -1729
v 1851 74.4004 -1731
v 1851 74.5103 -1733
v 1851 74.5765 -1735
v 1851 74.6454 -1737
v 1851 74.707 -1739
v 1851 74.7144 -1741
v 1851 74.6836 -1743
v 1851 74.6772 -1745
v 1851 74.6866 -1747
v 1851 74.6768 -1749
v 1851 74.6332 -1751
v 1851 74.5654 -1753
v 1851 74.5 -1755
v 1851 74.4391 -1757
v 1851 74.3732 -1759
v 1851 74.2909 -1761
v 1851 74.2549 -1763
v 1851 74.2648 -1765
v 1851 74.2769 -1767
v 1851 74.2237 -1769
v 1851 74.0848 -1771
v 1851 73.9454 -1773
v 1851 73.8588 -1775
v 1851 73.8325 -1777
v 1851 73.8873 -1779
v 1851 73.9764 -1781
v 1851 73.9871 -1783
v 1851 73.905 -1785
v 1851 73.7865 -1787
v 1851 73.7022 -1789
v 1851 73.7616 -1791
v 1853 74.4526 -1729
v 1853 74.4759 -1731
v 1853 74.5305 -1733
v 1853 74.5726 -1735
v 1853 74.6458 -1737
v 1853 74.7035 -1739
v 1853 74.6851 -1741
v 1853 74.6126 -1743
v 1853 74.6012 -1745
v 1853 74.6605 -1747
v 1853 74.7032 -1749
v 1853 74.6683 -1751
v 1853 74.5682 -1753
v 1853 74.5419 -1755
v 1853 74.5614 -1757
v 1853 74.5591 -1759
v 1853 74.4617 -1761
v 1853 74.3851 -1763
v 1853 74.3544 -1765
v 1853 74.3297 -1767
v 1853 74.2465 -1769
v 1853 74.1168 -1771
v 1853 74.0207 -1773
v 1853 73.9795 -1775
v 1853 73.9671 -1777
v 1853 73.9986 -1779
v 1853 74.0649 -1781
v 1853 74.0614 -1783
v 1853 73.9718 -1785
v 1853 73.8321 -1787
v 1853 73.697 -1789
v 1853 73.7148 -1791
v 1855 74.5022 -1729
v 1855 74.4505 -1731
v 1855 74.4385 -1733
v 1855 74.4653 -1735
v 1855 74.5495 -1737
v 1855 74.6181 -1739
v 1855 74.6121 -1741
v 1855 74.5528 -1743
v 1855 74.5635 -1745
v 1855 74.6561 -1747
v 1855 74.7266 -1749
v 1855 74.704 -1751
v 1855 74.6072 -1753
v 1855 74.603 -1755
v 1855 74.6504 -1757
v 1855 74.6662 -1759
v 1855 74.5664 -1761
v 1855 74.493 -1763
v 1855 74.4756 -1765
v 1855 74.4668 -1767
v 1855 74.3918 -1769
v 1855 74.2657 -1771
v 1855 74.1684 -1773
v 1855 74.1194 -1775
v 1855 74.0982 -1777
v 1855 74.104 -1779
v 1855 74.1174 -1781
v 1855 74.0679 -1783
v 1855 73.9602 -1785
v 1855 73.8329 -1787
v 1855 73.7131 -1789
v 1855 73.7334 -1791
v 1857 74.4937 -1729
v 1857 74.4127 -1731
v 1857 74.3711 -1733
v 1857 74.4072 -1735
v 1857 74.4964 -1737
v 1857 74.5602 -1739
v 1857 74.5695 -1741
v 1857 74.5562 -1743
v 1857 74.6092 -1745
v 1857 74.6943 -1747
v 1857 74.7224 -1749
v 1857 74.6628 -1751
v 1857 74.5774 -1753
v 1857 74.591 -1755
v 1857 74.6461 -1757
v 1857 74.6581 -1759
v 1857 74.5537 -1761
v 1857 74.4988 -1763
v 1857 74.526 -1765
v 1857 74.5732 -1767
v 1857 74.5367 -1769
v 1857 74.4236 -1771
v 1857 74.3018 -1773
v 1857 74.1926 -1775
v 1857 74.1133 -1777
v 1857 74.0746 -1779
v 1857 74.0542 -1781
v 1857 74.0271 -1783
v 1857 73.9873 -1785
v 1857 73.9247 -1787
v 1857 73.8378 -1789
v 1857 73.8166 -1791
v 1859 74.4418 -1729
v 1859 74.3806 -1731
v 1859 74.3509 -1733
v 1859 74.4142 -1735
v 1859 74.4982 -1737
v 1859 74.5367 -1739
v 1859 74.5472 -1741
v 1859 74.5832 -1743
v 1859 74.6893 -1745
v 1859 74.7631 -1747
v 1859 74.7353 -1749
v 1859 74.6279 -1751
v 1859 74.554 -1753
v 1859 74.5722 -1755
v 1859 74.6138 -1757
v 1859 74.6039 -1759
v 1859 74.4879 -1761
v 1859 74.4208 -1763
v 1859 74.45 -1765
v 1859 74.5206 -1767
v 1859 74.5169 -1769
v 1859 74.4436 -1771
v 1859 74.3335 -1773
v 1859 74.1893 -1775
v 1859 74.0561 -1777
v 1859 73.9673 -1779
v 1859 73.9243 -1781
v 1859 73.9505 -1783
v 1859 74.0143 -1785
v 1859 74.0403 -1787
v 1859 74.0116 -1789
v 1859 73.9573 -1791
v 1861 74.37 -1729
v 1861 74.3423 -1731
v 1861 74.3385 -1733
v 1861 74.4294 -1735
v 1861 74.5031 -1737
v 1861 74.5095 -1739
v 1861 74.5086 -1741
v 1861 74.5773 -1743
v 1861 74.734 -1745
v 1861 74.8223 -1747
v 1861 74.7767 -1749
v 1861 74.649 -1751
v 1861 74.5834 -1753
v 1861 74.5938 -1755
v 1861 74.6102 -1757
v 1861 74.572 -1759
v 1861 74.4402 -1761
v 1861 74.3228 -1763
v 1861 74.2924 -1765
v 1861 74.3274 -1767
v 1861 74.3309 -1769
v 1861 74.3169 -1771
v 1861 74.2692 -1773
v 1861 74.1514 -1775
v 1861 74.0047 -1777
v 1861 73.875 -1779
v 1861 73.805 -1781
v 1861 73.8612 -1783
v 1861 73.9984 -1785
v 1861 74.1008 -1787
v 1861 74.1495 -1789
v 1861 74.1107 -1791
v 1863 74.3276 -1729
v 1863 74.285 -1731
v 1863 74.2665 -1733
v 1863 74.3552 -1735
v 1863 74.4215 -1737
v 1863 74.4122 -1739
v 1863 74.4004 -1741
v 1863 74.4715 -1743
v 1863 74.6567 -1745
v 1863 74.8 -1747
v 1863 74.8136 -1749
v 1863 74.7269 -1751
v 1863 74.6684 -1753
v 1863 74.6678 -1755
v 1863 74.6656 -1757
v 1863 74.6123 -1759
v 1863 74.4727 -1761
v 1863 74.2972 -1763
v 1863 74.1787 -1765
v 1863 74.1374 -1767
v 1863 74.1185 -1769
v 1863 74.1573 -1771
v 1863 74.1992 -1773
v 1863 74.1641 -1775
v 1863 74.0574 -1777
v 1863 73.9058 -1779
v 1863 73.7837 -1781
v 1863 73.7936 -1783
v 1863 73.9138 -1785
v 1863 74.0457 -1787
v 1863 74.1682 -1789
v 1863 74.2017 -1791
v 1865 74.3607 -1729
v 1865 74.3028 -1731
v 1865 74.2431 -1733
v 1865 74.2771 -1735
v 1865 74.3122 -1737
v 1865 74.2935 -1739
v 1865 74.2749 -1741
v 1865 74.3195 -1743
v 1865 74.4738 -1745
v 1865 74.6539 -1747
v 1865 74.7728 -1749
v 1865 74.8015 -1751
v 1865 74.773 -1753
v 1865 74.7315 -1755
v 1865 74.6723 -1757
v 1865 74.592 -1759
v 1865 74.4815 -1761
v 1865 74.2902 -1763
v 1865 74.0932 -1765
v 1865 73.9535 -1767
v 1865 73.8919 -1769
v 1865 73.9836 -1771
v 1865 74.1315 -1773
v 1865 74.2081 -1775
v 1865 74.1665 -1777
v 1865 73.997 -1779
v 1865 73.8062 -1781
v 1865 73.7387 -1783
v 1865 73.8138 -1785
v 1865 73.969 -1787
v 1865 74.1647 -1789
v 1865 74.2703 -1791
v 1867 74.3504 -1729
v 1867 74.3183 -1731
v 1867 74.2373 -1733
v 1867 74.2003 -1735
v 1867 74.2048 -1737
v 1867 74.2067 -1739
v 1867 74.2123 -1741
v 1867 74.2327 -1743
v 1867 74.3014 -1745
v 1867 74.4416 -1747
v 1867 74.6146 -1749
v 1867 74.7508 -1751
v 1867 74.7679 -1753
v 1867 74.6917 -1755
v 1867 74.5812 -1757
v 1867 74.4875 -1759
v 1867 74.436 -1761
v 1867 74.2931 -1763
v 1867 74.0845 -1765
v 1867 73.8891 -1767
v 1867 73.794 -1769
v 1867 73.8953 -1771
v 1867 74.0713 -1773
v 1867 74.1852 -1775
v 1867 74.173 -1777
v 1867 74.0069 -1779
v 1867 73.8021 -1781
v 1867 73.7194 -1783
v 1867 73.7918 -1785
v 1867 73.9693 -1787
v 1867 74.1981 -1789
v 1867 74.3148 -1791
v 1869 74.2368 -1729
v 1869 74.2608 -1731
v 1869 74.19 -1733
v 1869 74.1 -1735
v 1869 74.0963 -1737
v 1869 74.1528 -1739
v 1869 74.2159 -1741
v 1869 74.233 -1743
v 1869 74.2002 -1745
v 1869 74.2367 -1747
v 1869 74.3818 -1749
v 1869 74.5645 -1751
v 1869 74.6255 -1753
v 1869 74.5493 -1755
v 1869 74.4324 -1757
v 1869 74.3571 -1759
v 1869 74.3696 -1761
v 1869 74.3152 -1763
v 1869 74.1638 -1765
v 1869 73.9781 -1767
v 1869 73.8728 -1769
v 1869 73.929 -1771
v 1869 74.0299 -1773
v 1869 74.0776 -1775
v 1869 74.0409 -1777
v 1869 73.9034 -1779
v 1869 73.7556 -1781
v 1869 73.7371 -1783
v 1869 73.858 -1785
v 1869 74.0504 -1787
v 1869 74.2636 -1789
v 1869 74.3325 -1791
v 1871 74.0583 -1729
v 1871 74.122 -1731
v 1871 74.0732 -1733
v 1871 73.9708 -1735
v 1871 73.9838 -1737
v 1871 74.097 -1739
v 1871 74.2181 -1741
v 1871 74.2541 -1743
v 1871 74.1679 -1745
v 1871 74.1189 -1747
v 1871 74.1994 -1749
v 1871 74.3642 -1751
v 1871 74.4476 -1753
v 1871 74.4073 -1755
v 1871 74.3333 -1757
v 1871 74.2993 -1759
v 1871 74.3459 -1761
v 1871 74.3491 -1763
v 1871 74.2561 -1765
v 1871 74.1067 -1767
v 1871 74.0082 -1769
v 1871 74.0064 -1771
v 1871 74.0026 -1773
v 1871 73.9506 -1775
v 1871 73.8683 -1777
v 1871 73.763 -1779
v 1871 73.6898 -1781
v 1871 73.7544 -1783
v 1871 73.9328 -1785
v 1871 74.1325 -1787
v 1871 74.3214 -1789
v 1871 74.3483 -1791
v 1873 73.9273 -1729
v 1873 74.0072 -1731
v 1873 73.9917 -1733
v 1873 73.9075 -1735
v 1873 73.9216 -1737
v 1873 74.0513 -1739
v 1873 74.2111 -1741
v 1873 74.2934 -1743
v 1873 74.2276 -1745
v 1873 74.1395 -1747
v 1873 74.126 -1749
v 1873 74.1924 -1751
v 1873 74.2589 -1753
v 1873 74.2898 -1755
v 1873 74.3153 -1757
v 1873 74.3494 -1759
v 1873 74.3874 -1761
v 1873 74.3977 -1763
v 1873 74.3427 -1765
v 1873 74.2356 -1767
v 1873 74.1438 -1769
v 1873 74.0727 -1771
v 1873 73.9612 -1773
v 1873 73.8146 -1775
v 1873 73.6917 -1777
v 1873 73.6242 -1779
v 1873 73.6258 -1781
v 1873 73.7482 -1783
v 1873 73.9383 -1785
v 1873 74.1012 -1787
v 1873 74.246 -1789
v 1873 74.26 -1791
v 1875 73.8642 -1729
v 1875 73.9452 -1731
v 1875 73.966 -1733
v 1875 73.9053 -1735
v 1875 73.8866 -1737
v 1875 73.9829 -1739
v 1875 74.1517 -1741
v 1875 74.2879 -1743
v 1875 74.2954 -1745
v 1875 74.2304 -1747
v 1875 74.1467 -1749
v 1875 74.0937 -1751
v 1875 74.111 -1753
v 1875 74.1892 -1755
v 1875 74.2938 -1757
v 1875 74.3729 -1759
v 1875 74.3723 -1761
v 1875 74.3655 -1763
v 1875 74.3389 -1765
v 1875 74.2742 -1767
v 1875 74.1842 -1769
v 1875 74.065 -1771
v 1875 73.904 -1773
v 1875 73.7302 -1775
v 1875 73.6057 -1777
v 1875 73.5787 -1779
v 1875 73.6427 -1781
v 1875 73.7856 -1783
v 1875 73.937 -1785
v 1875 74.0242 -1787
v 1875 74.1056 -1789
v 1875 74.1242 -1791
v 1877 73.8389 -1729
v 1877 73.9025 -1731
v 1877 73.9426 -1733
v 1877 73.8983 -1735
v 1877 73.8287 -1737
v 1877 73.8591 -1739
v 1877 74.0042 -1741
v 1877 74.1761 -1743
v 1877 74.2808 -1745
v 1877 74.3079 -1747
v 1877 74.2314 -1749
v 1877 74.1087 -1751
v 1877 74.0652 -1753
v 1877 74.1273 -1755
v 1877 74.231 -1757
v 1877 74.2946 -1759
v 1877 74.2425 -1761
v 1877 74.2062 -1763
v 1877 74.1889 -1765
v 1877 74.1504 -1767
v 1877 74.0593 -1769
v 1877 73.9512 -1771
v 1877 73.8495 -1773
v 1877 73.7558 -1775
v 1877 73.6848 -1777
v 1877 73.6856 -1779
v 1877 73.7751 -1781
v 1877 73.8967 -1783
v 1877 73.9815 -1785
v 1877 73.993 -1787
v 1877 74.0267 -1789
v 1877 74.0698 -1791
v 1879 73.803 -1729
v 1879 73.845 -1731
v 1879 73.8836 -1733
v 1879 73.8417 -1735
v 1879 73.7346 -1737
v 1879 73.7124 -1739
v 1879 73.8264 -1741
v 1879 74.0041 -1743
v 1879 74.1746 -1745
v 1879 74.3007 -1747
v 1879 74.2863 -1749
v 1879 74.1645 -1751
v 1879 74.0794 -1753
v 1879 74.0819 -1755
v 1879 74.1215 -1757
v 1879 74.1301 -1759
v 1879 74.0442 -1761
v 1879 73.9913 -1763
v 1879 73.9751 -1765
v 1879 73.948 -1767
v 1879 73.86 -1769
v 1879 73.806 -1771
v 1879 73.8207 -1773
v 1879 73.8534 -1775
v 1879 73.8556 -1777
v 1879 73.8692 -1779
v 1879 73.9583 -1781
v 1879 74.0517 -1783
v 1879 74.0907 -1785
v 1879 74.0645 -1787
v 1879 74.0841 -1789
v 1879 74.1532 -1791
v 1881 73.7866 -1729
v 1881 73.8094 -1731
v 1881 73.8317 -1733
v 1881 73.795 -1735
v 1881 73.6962 -1737
v 1881 73.6521 -1739
v 1881 73.7138 -1741
v 1881 73.8369 -1743
v 1881 74.0033 -1745
v 1881 74.1869 -1747
v 1881 74.2587 -1749
v 1881 74.2023 -1751
v 1881 74.112 -1753
v 1881 74.0615 -1755
v 1881 74.0297 -1757
v 1881 73.981 -1759
v 1881 73.8817 -1761
v 1881 73.8107 -1763
v 1881 73.7783 -1765
v 1881 73.7517 -1767
v 1881 73.6838 -1769
v 1881 73.6939 -1771
v 1881 73.7986 -1773
v 1881 73.9095 -1775
v 1881 73.9507 -1777
v 1881 73.9773 -1779
v 1881 74.0907 -1781
v 1881 74.2127 -1783
v 1881 74.2732 -1785
v 1881 74.2514 -1787
v 1881 74.2704 -1789
v 1881 74.3422 -1791
v 1883 73.8692 -1729
v 1883 73.8589 -1731
v 1883 73.8549 -1733
v 1883 73.8451 -1735
v 1883 73.8002 -1737
v 1883 73.7445 -1739
v 1883 73.7121 -1741
v 1883 73.7188 -1743
v 1883 73.833 -1745
v 1883 74.0373 -1747
v 1883 74.1894 -1749
v 1883 74.2142 -1751
v 1883 74.1358 -1753
v 1883 74.0689 -1755
v 1883 73.9999 -1757
v 1883 73.9102 -1759
v 1883 73.7892 -1761
v 1883 73.671 -1763
v 1883 73.6031 -1765
v 1883 73.5828 -1767
v 1883 73.5586 -1769
v 1883 73.6325 -1771
v 1883 73.789 -1773
v 1883 73.9208 -1775
v 1883 73.9621 -1777
v 1883 74.0016 -1779
v 1883 74.1527 -1781
v 1883 74.3263 -1783
v 1883 74.4299 -1785
v 1883 74.4136 -1787
v 1883 74.4125 -1789
v 1883 74.4692 -1791
v 1885 73.9789 -1729
v 1885 73.9336 -1731
v 1885 73.9019 -1733
v 1885 73.9239 -1735
v 1885 73.9618 -1737
v 1885 73.9336 -1739
v 1885 73.8349 -1741
v 1885 73.7309 -1743
v 1885 73.7551 -1745
v 1885 73.8986 -1747
v 1885 74.0475 -1749
v 1885 74.1036 -1751
v 1885 74.0467 -1753
v 1885 74.0182 -1755
v 1885 73.9793 -1757
v 1885 73.8981 -1759
v 1885 73.7663 -1761
v 1885 73.6187 -1763
v 1885 73.5466 -1765
v 1885 73.5648 -1767
v 1885 73.5999 -1769
v 1885 73.7099 -1771
v 1885 73.8577 -1773
v 1885 73.9464 -1775
v 1885 73.9531 -1777
v 1885 73.9901 -1779
v 1885 74.1423 -1781
v 1885 74.3278 -1783
v 1885 74.4495 -1785
v 1885 74.4342 -1787
v 1885 74.4046 -1789
v 1885 74.4368 -1791
v 1887 74.0418 -1729
v 1887 73.9712 -1731
v 1887 73.9183 -1733
v 1887 73.9589 -1735
v 1887 74.0711 -1737
v 1887 74.1 -1739
v 1887 73.9955 -1741
v 1887 73.8348 -1743
v 1887 73.7693 -1745
v 1887 73.8013 -1747
v 1887 73.87 -1749
v 1887 73.8963 -1751
v 1887 73.8566 -1753
v 1887 73.8906 -1755
v 1887 73.9201 -1757
v 1887 73.8833 -1759
v 1887 73.7585 -1761
v 1887 73.6233 -1763
v 1887 73.594 -1765
v 1887 73.6782 -1767
v 1887 73.7695 -1769
v 1887 73.889 -1771
v 1887 73.9998 -1773
v 1887 74.0287 -1775
v 1887 73.9975 -1777
v 1887 74.0167 -1779
v 1887 74.1228 -1781
v 1887 74.2628 -1783
v 1887 74.3606 -1785
v 1887 74.3404 -1787
v 1887 74.2882 -1789
v 1887 74.2999 -1791
v 1889 73.9983 -1729
v 1889 73.9392 -1731
v 1889 73.8974 -1733
v 1889 73.9389 -1735
v 1889 74.0727 -1737
v 1889 74.143 -1739
v 1889 74.0727 -1741
v 1889 73.9166 -1743
v 1889 73.7982 -1745
v 1889 73.7341 -1747
v 1889 73.7118 -1749
v 1889 73.6896 -1751
v 1889 73.6594 -1753
v 1889 73.7251 -1755
v 1889 73.7891 -1757
v 1889 73.7788 -1759
v 1889 73.6742 -1761
v 1889 73.6003 -1763
v 1889 73.6567 -1765
v 1889 73.8179 -1767
v 1889 73.945 -1769
v 1889 74.0612 -1771
v 1889 74.1518 -1773
v 1889 74.1584 -1775
v 1889 74.1183 -1777
v 1889 74.1164 -1779
v 1889 74.1558 -1781
v 1889 74.2195 -1783
v 1889 74.2667 -1785
v 1889 74.2402 -1787
v 1889 74.1904 -1789
v 1889 74.2069 -1791
v 1891 73.9299 -1729
v 1891 73.9336 -1731
v 1891 73.9573 -1733
v 1891 74.0097 -1735
v 1891 74.13 -1737
v 1891 74.1991 -1739
v 1891 74.1313 -1741
v 1891 73.9674 -1743
v 1891 73.7873 -1745
v 1891 73.622 -1747
v 1891 73.5285 -1749
v 1891 73.4986 -1751
v 1891 73.5098 -1753
v 1891 73.6013 -1755
v 1891 73.665 -1757
v 1891 73.6444 -1759
v 1891 73.5609 -1761
v 1891 73.5703 -1763
v 1891 73.7274 -1765
v 1891 73.9655 -1767
v 1891 74.1179 -1769
v 1891 74.2086 -1771
v 1891 74.2533 -1773
v 1891 74.2195 -1775
v 1891 74.1641 -1777
v 1891 74.1491 -1779
v 1891 74.1451 -1781
v 1891 74.1604 -1783
v 1891 74.1768 -1785
v 1891 74.1503 -1787
v 1891 74.1164 -1789
v 1891 74.1577 -1791
v 1893 73.9395 -1729
v 1893 73.9745 -1731
v 1893 74.0403 -1733
v 1893 74.0935 -1735
v 1893 74.1809 -1737
v 1893 74.218 -1739
v 1893 74.1243 -1741
v 1893 73.9382 -1743
v 1893 73.7136 -1745
v 1893 73.5013 -1747
v 1893 73.4079 -1749
v 1893 73.4279 -1751
v 1893 73.495 -1753
v 1893 73.6027 -1755
v 1893 73.6424 -1757
v 1893 73.5892 -1759
v 1893 73.5191 -1761
v 1893 73.5649 -1763
v 1893 73.7474 -1765
v 1893 73.992 -1767
v 1893 74.1422 -1769
v 1893 74.2255 -1771
v 1893 74.2627 -1773
v 1893 74.2283 -1775
v 1893 74.1781 -1777
v 1893 74.1698 -1779
v 1893 74.1765 -1781
v 1893 74.205 -1783
v 1893 74.2313 -1785
v 1893 74.2034 -1787
v 1893 74.1616 -1789
v 1893 74.1984 -1791
v 1895 74.0366 -1729
v 1895 74.0339 -1731
v 1895 74.078 -1733
v 1895 74.1123 -1735
v 1895 74.1696 -1737
v 1895 74.1744 -1739
v 1895 74.0531 -1741
v 1895 73.8453 -1743
v 1895 73.6056 -1745
v 1895 73.411 -1747
v 1895 73.3786 -1749
v 1895 73.4768 -1751
v 1895 73.5898 -1753
v 1895 73.7041 -1755
v 1895 73.7179 -1757
v 1895 73.6345 -1759
v 1895 73.5695 -1761
v 1895 73.5897 -1763
v 1895 73.71 -1765
v 1895 73.8883 -1767
v 1895 74.0136 -1769
v 1895 74.1245 -1771
v 1895 74.2164 -1773
v 1895 74.2411 -1775
v 1895 74.2253 -1777
v 1895 74.2371 -1779
v 1895 74.291 -1781
v 1895 74.3728 -1783
v 1895 74.434 -1785
v 1895 74.3981 -1787
v 1895 74.3152 -1789
v 1895 74.3043 -1791
v 1897 74.1454 -1729
v 1897 74.0508 -1731
v 1897 73.8851 -1733
v 1897 74.0114 -1735
v 1897 74.0693 -1737
v 1897 74.0881 -1739
v 1897 73.9846 -1741
v 1897 73.7839 -1743
v 1897 73.549 -1745
v 1897 73.3838 -1747
v 1897 73.3922 -1749
v 1897 73.5242 -1751
v 1897 73.6506 -1753
v 1897 73.7767 -1755
v 1897 73.7998 -1757
v 1897 73.7242 -1759
v 1897 73.6637 -1761
v 1897 73.6314 -1763
v 1897 73.6653 -1765
v 1897 73.7674 -1767
v 1897 73.873 -1769
v 1897 74.0327 -1771
v 1897 74.2086 -1773
v 1897 74.3178 -1775
v 1897 74.3491 -1777
v 1897 74.3782 -1779
v 1897 74.4628 -1781
v 1897 74.5732 -1783
v 1897 74.6478 -1785
v 1897 74.595 -1787
v 1897 74.4555 -1789
v 1897 74.3731 -1791
v 1899 74.0977 -1729
v 1899 74.0592 -1731
v 1899 73.9794 -1733
v 1899 73.841 -1735
v 1899 73.897 -1737
v 1899 73.9624 -1739
v 1899 73.9432 -1741
v 1899 73.8163 -1743
v 1899 73.6056 -1745
v 1899 73.4293 -1747
v 1899 73.3948 -1749
v 1899 73.4829 -1751
v 1899 73.6116 -1753
v 1899 73.7791 -1755
v 1899 73.859 -1757
v 1899 73.8312 -1759
v 1899 73.7785 -1761
v 1899 73.6773 -1763
v 1899 73.6144 -1765
v 1899 73.6458 -1767
v 1899 73.7469 -1769
v 1899 73.9341 -1771
v 1899 74.1493 -1773
v 1899 74.3114 -1775
v 1899 74.3968 -1777
v 1899 74.4874 -1779
v 1899 74.6374 -1781
v 1899 74.7766 -1783
v 1899 74.8397 -1785
v 1899 74.7592 -1787
v 1899 74.5693 -1789
v 1899 74.4103 -1791
v 1901 73.8425 -1729
v 1901 74.1218 -1731
v 1901 73.9032 -1733
v 1901 73.5239 -1735
v 1901 73.7939 -1737
v 1901 73.8524 -1739
v 1901 73.8858 -1741
v 1901 73.8368 -1743
v 1901 73.6693 -1745
v 1901 73.4822 -1747
v 1901 73.3869 -1749
v 1901 73.4108 -1751
v 1901 73.535 -1753
v 1901 73.7269 -1755
v 1901 73.8423 -1757
v 1901 73.8461 -1759
v 1901 73.8014 -1761
v 1901 73.6748 -1763
v 1901 73.5871 -1765
v 1901 73.617 -1767
v 1901 73.7431 -1769
v 1901 73.9211 -1771
v 1901 74.1061 -1773
v 1901 74.2612 -1775
v 1901 74.3837 -1777
v 1901 74.5505 -1779
v 1901 74.7572 -1781
v 1901 74.894 -1783
v 1901 74.9116 -1785
v 1901 74.8087 -1787
v 1901 74.6261 -1789
v 1901 74.4576 -1791
f 236 232 233
f 236 237 232
f 237 238 232
f 232 238 234
f 233 232 231
f 234 231 232
f 241 236 233
f 241 233 235
f 231 235 233
f 238 239 234
f 234 239 230
f 231 234 230
f 231 230 229
f 231 229 235
f 229 241 235
f 240 241 229
f 239 240 230
f 230 240 229
f 67 66 65
f 5 9 10
f 16 15 14
f 8 15 16
f 9 5 6
f 7 6 5
f 7 5 20
f 21 18 19
f 19 18 17
f 4 2 3
f 3 2 1
f 158 156 162
f 155 154 153
f 155 153 168
f 167 155 168
f 167 168 158
f 166 167 158
f 166 158 165
f 165 158 163
f 158 162 163
f 164 163 162
f 180 164 179
f 181 179 164
f 182 181 164
f 177 182 164
f 178 177 164
f 164 172 178
f 164 162 172
f 162 173 172
f 173 176 172
f 176 175 172
f 175 174 172
f 175 171 174
f 171 169 174
f 171 170 169
f 52 51 68
f 69 52 68
f 52 69 32
f 69 31 32
f 70 31 69
f 92 90 91
f 91 90 89
f 90 88 89
f 89 88 87
f 88 86 87
f 87 86 85
f 85 86 116
f 85 116 117
f 104 103 102
f 104 105 103
f 94 92 93
f 93 92 91
f 80 79 78
f 80 81 79
f 77 76 75
f 95 104 102
f 104 95 96
f 97 96 95
f 99 96 97
f 99 97 98
f 99 98 101
f 101 98 100
f 100 118 101
f 72 82 71
f 73 72 71
f 158 157 156
f 158 159 157
f 159 160 157
f 159 161 160
f 159 13 161
f 13 11 161
f 13 12 11
f 62 56 58
f 63 56 62
f 54 63 64
f 54 56 63
f 126 125 124
f 125 26 124
f 26 125 25
f 27 26 25
f 39 38 37
f 38 39 41
f 74 130 34
f 34 35 74
f 127 129 128
f 128 29 127
f 29 128 28
f 30 29 28
f 185 184 183
f 186 184 185
f 8 6 15
f 9 6 8
f 36 35 34
f 33 32 31
f 7 20 19
f 21 19 20
f 41 39 40
f 84 82 83
f 83 82 72
f 47 48 46
f 116 86 115
f 86 113 115
f 86 88 113
f 99 101 111
f 96 99 110
f 110 99 111
f 60 58 57
f 58 56 57
f 198 32 33
f 196 40 39
f 197 40 196
f 15 6 195
f 191 195 6
f 191 6 7
f 192 191 7
f 19 192 7
f 192 19 190
f 190 19 189
f 188 187 4
f 4 187 2
f 186 199 184
f 200 199 186
f 88 90 112
f 90 92 106
f 90 106 112
f 92 107 106
f 92 94 107
f 111 101 114
f 108 96 110
f 104 96 108
f 105 104 109
f 101 118 114
f 88 112 113
f 109 104 108
f 47 46 45
f 52 61 50
f 51 52 50
f 198 61 32
f 52 32 61
f 55 54 53
f 56 54 55
f 51 50 49
f 57 56 55
f 191 192 193
f 121 122 120
f 121 120 119
f 195 191 194
f 24 23 22
f 24 22 123
f 123 22 122
f 123 122 121
f 60 57 59
f 44 43 42
f 42 142 44
f 44 142 141
f 143 141 142
f 144 141 143
f 145 141 144
f 145 146 141
f 145 147 146
f 148 147 145
f 138 137 136
f 138 136 139
f 138 139 131
f 132 138 131
f 133 132 131
f 133 131 134
f 135 133 134
f 140 135 134
f 44 135 140
f 135 44 141
f 151 152 149
f 150 151 149
f 134 150 149
f 134 149 140
f 217 223 219
f 223 228 219
f 219 228 222
f 219 218 217
f 219 220 218
f 222 220 219
f 224 223 217
f 228 214 222
f 214 215 222
f 222 215 220
f 215 218 220
f 228 227 214
f 213 201 207
f 201 202 207
f 213 212 201
f 203 202 201
f 212 203 201
f 206 202 203
f 212 211 203
f 211 206 203
f 225 217 221
f 225 224 217
f 218 221 217
f 211 210 206
f 218 215 216
f 218 216 221
f 204 213 207
f 208 213 204
f 207 202 204
f 216 215 214
f 205 204 202
f 202 206 205
f 227 216 214
f 227 226 216
f 226 225 221
f 210 205 206
f 210 209 205
f 209 208 205
f 205 208 204
f 226 221 216
f 262 260 261
f 262 254 260
f 263 254 262
f 263 253 254
f 259 257 258
f 259 260 257
f 261 260 259
f 258 257 256
f 255 254 253
f 244 243 242
f 249 248 247
f 247 248 246
f 247 246 245
f 242 252 244
f 244 252 251
f 244 251 249
f 249 251 250
f 249 250 248
f 386 384 385
f 397 396 395
f 393 392 391
f 385 384 383
f 390 388 389
f 389 388 387
f 394 392 393
f 381 380 379
f 382 380 381
f 398 396 397
f 450 448 449
f 449 448 447
f 454 452 453
f 453 452 451
f 457 456 455
f 466 464 465
f 465 464 463
f 445 444 443
f 446 444 445
f 458 456 457
f 425 424 423
f 424 427 423
f 428 427 424
f 276 277 275
f 528 467 527
f 340 339 338
f 341 339 340
f 336 335 334
f 335 336 337
f 438 441 442
f 439 441 438
f 439 438 437
f 353 352 351
f 353 354 352
f 436 434 435
f 431 430 429
f 432 430 431
f 421 420 419
f 353 355 354
f 355 356 354
f 355 357 356
f 358 357 355
f 480 478 479
f 425 423 426
f 264 325 324
f 483 482 481
f 509 510 479
f 509 479 477
f 479 478 477
f 484 482 483
f 484 512 482
f 484 513 512
f 510 513 484
f 510 511 513
f 509 511 510
f 312 313 311
f 312 311 302
f 302 311 303
f 303 301 302
f 302 301 300
f 301 305 300
f 278 283 282
f 278 279 283
f 280 279 278
f 280 281 279
f 309 281 280
f 310 281 309
f 310 307 281
f 308 307 310
f 308 306 307
f 307 306 275
f 275 306 274
f 276 275 274
f 508 505 503
f 505 504 503
f 505 506 504
f 514 504 506
f 514 515 504
f 516 515 514
f 502 500 501
f 486 481 485
f 483 481 486
f 422 420 421
f 469 470 468
f 469 468 467
f 527 467 468
f 298 299 297
f 525 519 520
f 521 520 519
f 264 324 266
f 266 265 264
f 267 265 266
f 267 268 265
f 269 268 267
f 269 270 268
f 271 270 269
f 271 272 270
f 273 272 271
f 473 474 472
f 473 472 471
f 471 472 470
f 475 474 473
f 475 476 474
f 316 322 318
f 318 317 316
f 471 470 469
f 300 305 304
f 517 518 515
f 515 518 499
f 499 518 501
f 508 503 507
f 501 500 499
f 298 297 296
f 524 523 522
f 526 524 522
f 320 323 319
f 315 314 312
f 315 312 296
f 315 296 297
f 321 320 319
f 314 313 312
f 516 517 515
f 442 441 440
f 435 434 433
f 362 360 361
f 361 360 359
f 409 408 407
f 410 408 409
f 405 404 403
f 406 404 405
f 401 400 399
f 402 400 401
f 370 368 369
f 373 372 371
f 369 368 367
f 374 372 373
f 414 412 413
f 413 412 411
f 366 364 365
f 365 364 363
f 348 346 349
f 348 347 346
f 342 350 349
f 348 349 350
f 345 343 344
f 344 343 342
f 343 350 342
f 329 327 328
f 328 327 326
f 416 417 418
f 417 416 415
f 489 488 487
f 490 488 489
f 490 491 488
f 492 491 490
f 492 493 491
f 494 493 492
f 494 495 493
f 496 495 494
f 496 497 495
f 498 497 496
f 333 332 329
f 329 332 331
f 286 285 284
f 286 287 285
f 288 287 286
f 288 289 287
f 290 289 288
f 290 291 289
f 292 291 290
f 292 293 291
f 294 293 292
f 294 295 293
f 329 331 330
f 329 330 327
f 377 376 375
f 378 376 377
f 461 460 459
f 462 460 461
f 568 567 566
f 568 566 573
f 564 653 652
f 662 559 661
f 661 559 660
f 660 559 659
f 658 555 656
f 557 656 555
f 657 656 557
f 536 534 535
f 535 534 533
f 532 530 531
f 531 530 529
f 550 549 548
f 550 548 551
f 550 551 552
f 553 552 551
f 599 605 595
f 599 595 570
f 599 570 598
f 570 572 598
f 570 571 572
f 571 570 569
f 607 606 596
f 608 607 596
f 603 608 596
f 602 603 596
f 602 596 601
f 597 601 596
f 597 596 595
f 600 597 595
f 604 600 595
f 605 604 595
f 587 585 586
f 586 585 584
f 584 585 583
f 584 583 582
f 583 579 582
f 579 583 581
f 581 580 579
f 581 578 580
f 578 581 577
f 578 577 575
f 575 577 574
f 576 575 574
f 659 559 555
f 659 555 658
f 663 559 662
f 561 653 564
f 561 654 653
f 561 655 654
f 561 664 655
f 663 664 559
f 559 664 561
f 557 555 556
f 651 650 536
f 536 650 534
f 555 559 558
f 555 558 554
f 556 555 554
f 561 560 559
f 559 560 558
f 564 563 561
f 561 563 562
f 561 562 560
f 565 563 564
f 649 648 532
f 532 648 530
f 542 541 540
f 542 540 546
f 546 540 547
f 546 547 543
f 630 629 628
f 631 629 630
f 631 632 629
f 633 632 631
f 633 634 632
f 635 634 633
f 636 634 635
f 637 634 636
f 612 637 636
f 637 612 613
f 614 613 612
f 617 616 615
f 618 616 617
f 619 616 618
f 621 619 618
f 619 621 620
f 623 620 621
f 620 623 622
f 625 622 623
f 622 625 624
f 627 624 625
f 624 627 626
f 546 543 544
f 545 544 543
f 590 589 588
f 590 594 589
f 594 539 589
f 594 538 539
f 537 538 591
f 539 538 537
f 537 642 539
f 642 643 539
f 643 644 539
f 644 645 539
f 645 646 539
f 539 646 647
f 611 610 609
f 611 609 638
f 611 638 639
f 611 639 640
f 611 640 641
f 611 641 537
f 611 537 592
f 592 537 591
f 591 593 592
f 682 683 681
f 684 683 682
f 685 683 684
f 685 740 683
f 741 740 685
f 682 681 680
f 676 675 674
f 739 741 672
f 688 687 686
f 698 688 686
f 699 688 698
f 674 675 673
f 695 696 701
f 695 701 704
f 704 701 703
f 674 673 672
f 703 701 702
f 735 672 673
f 702 701 700
f 743 702 700
f 737 672 735
f 738 672 737
f 739 672 738
f 740 741 742
f 741 707 742
f 707 741 739
f 743 710 702
f 708 706 743
f 743 706 710
f 679 678 676
f 676 678 677
f 676 677 675
f 710 703 702
f 715 716 714
f 708 707 706
f 714 744 713
f 714 713 711
f 711 715 714
f 720 723 722
f 722 723 724
f 721 719 720
f 727 726 725
f 718 723 720
f 726 729 725
f 720 719 718
f 725 729 728
f 673 734 732
f 734 733 732
f 730 728 729
f 728 730 731
f 735 673 732
f 706 671 705
f 706 707 671
f 713 712 711
f 697 696 695
f 736 732 733
f 713 717 712
f 670 705 671
f 692 691 709
f 694 689 693
f 689 690 693
f 691 692 690
f 691 690 689
f 671 667 670
f 670 667 668
f 667 666 665
f 668 667 665
f 669 668 665
f 882 881 880
f 886 885 884
f 883 881 882
f 893 891 892
f 889 888 887
f 892 891 890
f 895 896 897
f 896 895 894
f 900 899 898
f 898 899 901
f 909 907 908
f 908 907 906
f 913 911 912
f 912 911 910
f 818 817 816
f 817 819 816
f 771 830 831
f 820 819 817
f 820 821 819
f 822 821 820
f 823 821 822
f 803 802 801
f 804 802 803
f 804 805 802
f 806 805 804
f 831 830 829
f 852 851 850
f 770 830 771
f 770 832 830
f 853 851 852
f 853 852 856
f 875 879 847
f 875 878 879
f 878 875 874
f 856 852 847
f 858 856 847
f 773 761 772
f 772 761 759
f 761 760 759
f 854 852 850
f 824 828 827
f 828 824 826
f 826 824 825
f 825 824 823
f 823 824 821
f 839 838 837
f 840 839 837
f 841 839 840
f 842 841 840
f 843 841 842
f 843 842 844
f 777 877 873
f 913 915 911
f 911 915 914
f 809 808 806
f 806 807 805
f 806 808 807
f 833 834 832
f 833 835 834
f 904 907 909
f 907 904 905
f 833 836 835
f 900 902 899
f 833 832 770
f 868 874 875
f 868 875 847
f 852 854 855
f 852 855 857
f 852 857 847
f 868 869 874
f 777 873 871
f 905 904 903
f 915 916 914
f 812 811 810
f 868 847 876
f 847 857 849
f 849 848 847
f 847 848 846
f 847 846 845
f 868 876 867
f 869 868 867
f 779 778 777
f 779 777 866
f 777 871 866
f 784 785 786
f 782 785 784
f 783 781 782
f 780 785 782
f 788 791 787
f 789 788 787
f 782 781 780
f 797 795 796
f 787 791 790
f 798 795 797
f 861 860 859
f 860 861 862
f 776 775 774
f 865 864 863
f 872 870 871
f 871 870 866
f 792 790 791
f 790 792 793
f 796 795 794
f 812 813 811
f 815 811 813
f 769 770 771
f 798 799 795
f 800 799 798
f 815 813 814
f 757 756 755
f 756 758 769
f 756 757 758
f 767 762 766
f 762 763 766
f 764 765 763
f 764 763 762
f 770 769 768
f 769 758 768
f 747 746 745
f 754 751 753
f 753 751 752
f 748 746 747
f 748 749 746
f 752 751 750
f 750 751 749
f 750 749 748
f 922 924 923
f 924 925 923
f 920 921 918
f 921 922 918
f 922 923 918
f 919 920 918
f 919 918 917
f 959 927 926
f 926 958 959
f 991 959 958
f 958 990 991
f 1023 991 990
f 990 1022 1023
f 1055 1023 1022
f 1022 1054 1055
f 1087 1055 1054
f 1054 1086 1087
f 1119 1087 1086
f 1086 1118 1119
f 1151 1119 1118
f 1118 1150 1151
f 1183 1151 1150
f 1150 1182 1183
f 1215 1183 1182
f 1182 1214 1215
f 1247 1215 1214
f 1214 1246 1247
f 1279 1247 1246
f 1246 1278 1279
f 1311 1279 1278
f 1278 1310 1311
f 1343 1311 1310
f 1310 1342 1343
f 1375 1343 1342
f 1342 1374 1375
f 1407 1375 1374
f 1374 1406 1407
f 1439 1407 1406
f 1406 1438 1439
f 1471 1439 1438
f 1438 1470 1471
f 1503 1471 1470
f 1470 1502 1503
f 1535 1503 1502
f 1502 1534 1535
f 1567 1535 1534
f 1534 1566 1567
f 1599 1567 1566
f 1566 1598 1599
f 1631 1599 1598
f 1598 1630 1631
f 1663 1631 1630
f 1630 1662 1663
f 1695 1663 1662
f 1662 1694 1695
f 1727 1695 1694
f 1694 1726 1727
f 1759 1727 1726
f 1726 1758 1759
f 1791 1759 1758
f 1758 1790 1791
f 1823 1791 1790
f 1790 1822 1823
f 1855 1823 1822
f 1822 1854 1855
f 1887 1855 1854
f 1854 1886 1887
f 1919 1887 1886
f 1886 1918 1919
f 960 928 927
f 927 959 960
f 992 960 959
f 959 991 992
f 1024 992 991
f 991 1023 1024
f 1056 1024 1023
f 1023 1055 1056
f 1088 1056 1055
f 1055 1087 1088
f 1120 1088 1087
f 1087 1119 1120
f 1152 1120 1119
f 1119 1151 1152
f 1184 1152 1151
f 1151 1183 1184
f 1216 1184 1183
f 1183 1215 1216
f 1248 1216 1215
f 1215 1247 1248
f 1280 1248 1247
f 1247 1279 1280
f 1312 1280 1279
f 1279 1311 1312
f 1344 1312 1311
f 1311 1343 1344
f 1376 1344 1343
f 1343 1375 1376
f 1408 1376 1375
f 1375 1407 1408
f 1440 1408 1407
f 1407 1439 1440
f 1472 1440 1439
f 1439 1471 1472
f 1504 1472 1471
f 1471 1503 1504
f 1536 1504 1503
f 1503 1535 1536
f 1568 1536 1535
f 1535 1567 1568
f 1600 1568 1567
f 1567 1599 1600
f 1632 1600 1599
f 1599 1631 1632
f 1664 1632 1631
f 1631 1663 1664
f 1696 1664 1663
f 1663 1695 1696
f 1728 1696 1695
f 1695 1727 1728
f 1760 1728 1727
f 1727 1759 1760
f 1792 1760 1759
f 1759 1791 1792
f 1824 1792 1791
f 1791 1823 1824
f 1856 1824 1823
f 1823 1855 1856
f 1888 1856 1855
f 1855 1887 1888
f 1920 1888 1887
f 1887 1919 1920
f 961 929 928
f 928 960 961
f 993 961 960
f 960 992 993
f 1025 993 992
f 992 1024 1025
f 1057 1025 1024
f 1024 1056 1057
f 1089 1057 1056
f 1056 1088 1089
f 1121 1089 1088
f 1088 1120 1121
f 1153 1121 1120
f 1120 1152 1153
f 1185 1153 1152
f 1152 1184 1185
f 1217 1185 1184
f 1184 1216 1217
f 1249 1217 1216
f 1216 1248 1249
f 1281 1249 1248
f 1248 1280 1281
f 1313 1281 1280
f 1280 1312 1313
f 1345 1313 1312
f 1312 1344 1345
f 1377 1345 1344
f 1344 1376 1377
f 1409 1377 1376
f 1376 1408 1409
f 1441 1409 1408
f 1408 1440 1441
f 1473 1441 1440
f 1440 1472 1473
f 1505 1473 1472
f 1472 1504 1505
f 1537 1505 1504
f 1504 1536 1537
f 1569 1537 1536
f 1536 1568 1569
f 1601 1569 1568
f 1568 1600 1601
f 1633 1601 1600
f 1600 1632 1633
f 1665 1633 1632
f 1632 1664 1665
f 1697 1665 1664
f 1664 1696 1697
f 1729 1697 1696
f 1696 1728 1729
f 1761 1729 1728
f 1728 1760 1761
f 1793 1761 1760
f 1760 1792 1793
f 1825 1793 1792
f 1792 1824 1825
f 1857 1825 1824
f 1824 1856 1857
f 1889 1857 1856
f 1856 1888 1889
f 1921 1889 1888
f 1888 1920 1921
f 962 930 929
f 929 961 962
f 994 962 961
f 961 993 994
f 1026 994 993
f 993 1025 1026
f 1058 1026 1025
f 1025 1057 1058
f 1090 1058 1057
f 1057 1089 1090
f 1122 1090 1089
f 1089 1121 1122
f 1154 1122 1121
f 1121 1153 1154
f 1186 1154 1153
f 1153 1185 1186
f 1218 1186 1185
f 1185 1217 1218
f 1250 1218 1217
f 1217 1249 1250
f 1282 1250 1249
f 1249 1281 1282
f 1314 1282 1281
f 1281 1313 1314
f 1346 1314 1313
f 1313 1345 1346
f 1378 1346 1345
f 1345 1377 1378
f 1410 1378 1377
f 1377 1409 1410
f 1442 1410 1409
f 1409 1441 1442
f 1474 1442 1441
f 1441 1473 1474
f 1506 1474 1473
f 1473 1505 1506
f 1538 1506 1505
f 1505 1537 1538
f 1570 1538 1537
f 1537 1569 1570
f 1602 1570 1569
f 1569 1601 1602
f 1634 1602 1601
f 1601 1633 1634
f 1666 1634 1633
f 1633 1665 1666
f 1698 1666 1665
f 1665 1697 1698
f 1730 1698 1697
f 1697 1729 1730
f 1762 1730 1729
f 1729 1761 1762
f 1794 1762 1761
f 1761 1793 1794
f 1826 1794 1793
f 1793 1825 1826
f 1858 1826 1825
f 1825 1857 1858
f 1890 1858 1857
f 1857 1889 1890
f 1922 1890 1889
f 1889 1921 1922
f 963 931 930
f 930 962 963
f 995 963 962
f 962 994 995
f 1027 995 994
f 994 1026 1027
f 1059 1027 1026
f 1026 1058 1059
f 1091 1059 1058
f 1058 1090 1091
f 1123 1091 1090
f 1090 1122 1123
f 1155 1123 1122
f 1122 1154 1155
f 1187 1155 1154
f 1154 1186 1187
f 1219 1187 1186
f 1186 1218 1219
f 1251 1219 1218
f 1218 1250 1251
f 1283 1251 1250
f 1250 1282 1283
f 1315 1283 1282
f 1282 1314 1315
f 1347 1315 1314
f 1314 1346 1347
f 1379 1347 1346
f 1346 1378 1379
f 1411 1379 1378
f 1378 1410 1411
f 1443 1411 1410
f 1410 1442 1443
f 1475 1443 1442
f 1442 1474 1475
f 1507 1475 1474
f 1474 1506 1507
f 1539 1507 1506
f 1506 1538 1539
f 1571 1539 1538
f 1538 1570 1571
f 1603 1571 1570
f 1570 1602 1603
f 1635 1603 1602
f 1602 1634 1635
f 1667 1635 1634
f 1634 1666 1667
f 1699 1667 1666
f 1666 1698 1699
f 1731 1699 1698
f 1698 1730 1731
f 1763 1731 1730
f 1730 1762 1763
f 1795 1763 1762
f 1762 1794 1795
f 1827 1795 1794
f 1794 1826 1827
f 1859 1827 1826
f 1826 1858 1859
f 1891 1859 1858
f 1858 1890 1891
f 1923 1891 1890
f 1890 1922 1923
f 964 932 931
f 931 963 964
f 996 964 963
f 963 995 996
f 1028 996 995
f 995 1027 1028
f 1060 1028 1027
f 1027 1059 1060
f 1092 1060 1059
f 1059 1091 1092
f 1124 1092 1091
f 1091 1123 1124
f 1156 1124 1123
f 1123 1155 1156
f 1188 1156 1155
f 1155 1187 1188
f 1220 1188 1187
f 1187 1219 1220
f 1252 1220 1219
f 1219 1251 1252
f 1284 1252 1251
f 1251 1283 1284
f 1316 1284 1283
f 1283 1315 1316
f 1348 1316 1315
f 1315 1347 1348
f 1380 1348 1347
f 1347 1379 1380
f 1412 1380 1379
f 1379 1411 1412
f 1444 1412 1411
f 1411 1443 1444
f 1476 1444 1443
f 1443 1475 1476
f 1508 1476 1475
f 1475 1507 1508
f 1540 1508 1507
f 1507 1539 1540
f 1572 1540 1539
f 1539 1571 1572
f 1604 1572 1571
f 1571 1603 1604
f 1636 1604 1603
f 1603 1635 1636
f 1668 1636 1635
f 1635 1667 1668
f 1700 1668 1667
f 1667 1699 1700
f 1732 1700 1699
f 1699 1731 1732
f 1764 1732 1731
f 1731 1763 1764
f 1796 1764 1763
f 1763 1795 1796
f 1828 1796 1795
f 1795 1827 1828
f 1860 1828 1827
f 1827 1859 1860
f 1892 1860 1859
f 1859 1891 1892
f 1924 1892 1891
f 1891 1923 1924
f 965 933 932
f 932 964 965
f 997 965 964
f 964 996 997
f 1029 997 996
f 996 1028 1029
f 1061 1029 1028
f 1028 1060 1061
f 1093 1061 1060
f 1060 1092 1093
f 1125 1093 1092
f 1092 1124 1125
f 1157 1125 1124
f 1124 1156 1157
f 1189 1157 1156
f 1156 1188 1189
f 1221 1189 1188
f 1188 1220 1221
f 1253 1221 1220
f 1220 1252 1253
f 1285 1253 1252
f 1252 1284 1285
f 1317 1285 1284
f 1284 1316 1317
f 1349 1317 1316
f 1316 1348 1349
f 1381 1349 1348
f 1348 1380 1381
f 1413 1381 1380
f 1380 1412 1413
f 1445 1413 1412
f 1412 1444 1445
f 1477 1445 1444
f 1444 1476 1477
f 1509 1477 1476
f 1476 1508 1509
f 1541 1509 1508
f 1508 1540 1541
f 1573 1541 1540
f 1540 1572 1573
f 1605 1573 1572
f 1572 1604 1605
f 1637 1605 1604
f 1604 1636 1637
f 1669 1637 1636
f 1636 1668 1669
f 1701 1669 1668
f 1668 1700 1701
f 1733 1701 1700
f 1700 1732 1733
f 1765 1733 1732
f 1732 1764 1765
f 1797 1765 1764
f 1764 1796 1797
f 1829 1797 1796
f 1796 1828 1829
f 1861 1829 1828
f 1828 1860 1861
f 1893 1861 1860
f 1860 1892 1893
f 1925 1893 1892
f 1892 1924 1925
f 966 934 933
f 933 965 966
f 998 966 965
f 965 997 998
f 1030 998 997
f 997 1029 1030
f 1062 1030 1029
f 1029 1061 1062
f 1094 1062 1061
f 1061 1093 1094
f 1126 1094 1093
f 1093 1125 1126
f 1158 1126 1125
f 1125 1157 1158
f 1190 1158 1157
f 1157 1189 1190
f 1222 1190 1189
f 1189 1221 1222
f 1254 1222 1221
f 1221 1253 1254
f 1286 1254 1253
f 1253 1285 1286
f 1318 1286 1285
f 1285 1317 1318
f 1350 1318 1317
f 1317 1349 1350
f 1382 1350 1349
f 1349 1381 1382
f 1414 1382 1381
f 1381 1413 1414
f 1446 1414 1413
f 1413 1445 1446
f 1478 1446 1445
f 1445 1477 1478
f 1510 1478 1477
f 1477 1509 1510
f 1542 1510 1509
f 1509 1541 1542
f 1574 1542 1541
f 1541 1573 1574
f 1606 1574 1573
f 1573 1605 1606
f 1638 1606 1605
f 1605 1637 1638
f 1670 1638 1637
f 1637 1669 1670
f 1702 1670 1669
f 1669 1701 1702
f 1734 1702 1701
f 1701 1733 1734
f 1766 1734 1733
f 1733 1765 1766
f 1798 1766 1765
f 1765 1797 1798
f 1830 1798 1797
f 1797 1829 1830
f 1862 1830 1829
f 1829 1861 1862
f 1894 1862 1861
f 1861 1893 1894
f 1926 1894 1893
f 1893 1925 1926
f 967 935 934
f 934 966 967
f 999 967 966
f 966 998 999
f 1031 999 998
f 998 1030 1031
f 1063 1031 1030
f 1030 1062 1063
f 1095 1063 1062
f 1062 1094 1095
f 1127 1095 1094
f 1094 1126 1127
f 1159 1127 1126
f 1126 1158 1159
f 1191 1159 1158
f 1158 1190 1191
f 1223 1191 1190
f 1190 1222 1223
f 1255 1223 1222
f 1222 1254 1255
f 1287 1255 1254
f 1254 1286 1287
f 1319 1287 1286
f 1286 1318 1319
f 1351 1319 1318
f 1318 1350 1351
f 1383 1351 1350
f 1350 1382 1383
f 1415 1383 1382
f 1382 1414 1415
f 1447 1415 1414
f 1414 1446 1447
f 1479 1447 1446
f 1446 1478 1479
f 1511 1479 1478
f 1478 1510 1511
f 1543 1511 1510
f 1510 1542 1543
f 1575 1543 1542
f 1542 1574 1575
f 1607 1575 1574
f 1574 1606 1607
f 1639 1607 1606
f 1606 1638 1639
f 1671 1639 1638
f 1638 1670 1671
f 1703 1671 1670
f 1670 1702 1703
f 1735 1703 1702
f 1702 1734 1735
f 1767 1735 1734
f 1734 1766 1767
f 1799 1767 1766
f 1766 1798 1799
f 1831 1799 1798
f 1798 1830 1831
f 1863 1831 1830
f 1830 1862 1863
f 1895 1863 1862
f 1862 1894 1895
f 1927 1895 1894
f 1894 1926 1927
f 968 936 935
f 935 967 968
f 1000 968 967
f 967 999 1000
f 1032 1000 999
f 999 1031 1032
f 1064 1032 1031
f 1031 1063 1064
f 1096 1064 1063
f 1063 1095 1096
f 1128 1096 1095
f 1095 1127 1128
f 1160 1128 1127
f 1127 1159 1160
f 1192 1160 1159
f 1159 1191 1192
f 1224 1192 1191
f 1191 1223 1224
f 1256 1224 1223
f 1223 1255 1256
f 1288 1256 1255
f 1255 1287 1288
f 1320 1288 1287
f 1287 1319 1320
f 1352 1320 1319
f 1319 1351 1352
f 1384 1352 1351
f 1351 1383 1384
f 1416 1384 1383
f 1383 1415 1416
f 1448 1416 1415
f 1415 1447 1448
f 1480 1448 1447
f 1447 1479 1480
f 1512 1480 1479
f 1479 1511 1512
f 1544 1512 1511
f 1511 1543 1544
f 1576 1544 1543
f 1543 1575 1576
f 1608 1576 1575
f 1575 1607 1608
f 1640 1608 1607
f 1607 1639 1640
f 1672 1640 1639
f 1639 1671 1672
f 1704 1672 1671
f 1671 1703 1704
f 1736 1704 1703
f 1703 1735 1736
f 1768 1736 1735
f 1735 1767 1768
f 1800 1768 1767
f 1767 1799 1800
f 1832 1800 1799
f 1799 1831 1832
f 1864 1832 1831
f 1831 1863 1864
f 1896 1864 1863
f 1863 1895 1896
f 1928 1896 1895
f 1895 1927 1928
f 969 937 936
f 936 968 969
f 1001 969 968
f 968 1000 1001
f 1033 1001 1000
f 1000 1032 1033
f 1065 1033 1032
f 1032 1064 1065
f 1097 1065 1064
f 1064 1096 1097
f 1129 1097 1096
f 1096 1128 1129
f 1161 1129 1128
f 1128 1160 1161
f 1193 1161 1160
f 1160 1192 1193
f 1225 1193 1192
f 1192 1224 1225
f 1257 1225 1224
f 1224 1256 1257
f 1289 1257 1256
f 1256 1288 1289
f 1321 1289 1288
f 1288 1320 1321
f 1353 1321 1320
f 1320 1352 1353
f 1385 1353 1352
f 1352 1384 1385
f 1417 1385 1384
f 1384 1416 1417
f 1449 1417 1416
f 1416 1448 1449
f 1481 1449 1448
f 1448 1480 1481
f 1513 1481 1480
f 1480 1512 1513
f 1545 1513 1512
f 1512 1544 1545
f 1577 1545 1544
f 1544 1576 1577
f 1609 1577 1576
f 1576 1608 1609
f 1641 1609 1608
f 1608 1640 1641
f 1673 1641 1640
f 1640 1672 1673
f 1705 1673 1672
f 1672 1704 1705
f 1737 1705 1704
f 1704 1736 1737
f 1769 1737 1736
f 1736 1768 1769
f 1801 1769 1768
f 1768 1800 1801
f 1833 1801 1800
f 1800 1832 1833
f 1865 1833 1832
f 1832 1864 1865
f 1897 1865 1864
f 1864 1896 1897
f 1929 1897 1896
f 1896 1928 1929
f 970 938 937
f 937 969 970
f 1002 970 969
f 969 1001 1002
f 1034 1002 1001
f 1001 1033 1034
f 1066 1034 1033
f 1033 1065 1066
f 1098 1066 1065
f 1065 1097 1098
f 1130 1098 1097
f 1097 1129 1130
f 1162 1130 1129
f 1129 1161 1162
f 1194 1162 1161
f 1161 1193 1194
f 1226 1194 1193
f 1193 1225 1226
f 1258 1226 1225
f 1225 1257 1258
f 1290 1258 1257
f 1257 1289 1290
f 1322 1290 1289
f 1289 1321 1322
f 1354 1322 1321
f 1321 1353 1354
f 1386 1354 1353
f 1353 1385 1386
f 1418 1386 1385
f 1385 1417 1418
f 1450 1418 1417
f 1417 1449 1450
f 1482 1450 1449
f 1449 1481 1482
f 1514 1482 1481
f 1481 1513 1514
f 1546 1514 1513
f 1513 1545 1546
f 1578 1546 1545
f 1545 1577 1578
f 1610 1578 1577
f 1577 1609 1610
f 1642 1610 1609
f 1609 1641 1642
f 1674 1642 1641
f 1641 1673 1674
f 1706 1674 1673
f 1673 1705 1706
f 1738 1706 1705
f 1705 1737 1738
f 1770 1738 1737
f 1737 1769 1770
f 1802 1770 1769
f 1769 1801 1802
f 1834 1802 1801
f 1801 1833 1834
f 1866 1834 1833
f 1833 1865 1866
f 1898 1866 1865
f 1865 1897 1898
f 1930 1898 1897
f 1897 1929 1930
f 971 939 938
f 938 970 971
f 1003 971 970
f 970 1002 1003
f 1035 1003 1002
f 1002 1034 1035
f 1067 1035 1034
f 1034 1066 1067
f 1099 1067 1066
f 1066 1098 1099
f 1131 1099 1098
f 1098 1130 1131
f 1163 1131 1130
f 1130 1162 1163
f 1195 1163 1162
f 1162 1194 1195
f 1227 1195 1194
f 1194 1226 1227
f 1259 1227 1226
f 1226 1258 1259
f 1291 1259 1258
f 1258 1290 1291
f 1323 1291 1290
f 1290 1322 1323
f 1355 1323 1322
f 1322 1354 1355
f 1387 1355 1354
f 1354 1386 1387
f 1419 1387 1386
f 1386 1418 1419
f 1451 1419 1418
f 1418 1450 1451
f 1483 1451 1450
f 1450 1482 1483
f 1515 1483 1482
f 1482 1514 1515
f 1547 1515 1514
f 1514 1546 1547
f 1579 1547 1546
f 1546 1578 1579
f 1611 1579 1578
f 1578 1610 1611
f 1643 1611 1610
f 1610 1642 1643
f 1675 1643 1642
f 1642 1674 1675
f 1707 1675 1674
f 1674 1706 1707
f 1739 1707 1706
f 1706 1738 1739
f 1771 1739 1738
f 1738 1770 1771
f 1803 1771 1770
f 1770 1802 1803
f 1835 1803 1802
f 1802 1834 1835
f 1867 1835 1834
f 1834 1866 1867
f 1899 1867 1866
f 1866 1898 1899
f 1931 1899 1898
f 1898 1930 1931
f 972 940 939
f 939 971 972
f 1004 972 971
f 971 1003 1004
f 1036 1004 1003
f 1003 1035 1036
f 1068 1036 1035
f 1035 1067 1068
f 1100 1068 1067
f 1067 1099 1100
f 1132 1100 1099
f 1099 1131 1132
f 1164 1132 1131
f 1131 1163 1164
f 1196 1164 1163
f 1163 1195 1196
f 1228 1196 1195
f 1195 1227 1228
f 1260 1228 1227
f 1227 1259 1260
f 1292 1260 1259
f 1259 1291 1292
f 1324 1292 1291
f 1291 1323 1324
f 1356 1324 1323
f 1323 1355 1356
f 1388 1356 1355
f 1355 1387 1388
f 1420 1388 1387
f 1387 1419 1420
f 1452 1420 1419
f 1419 1451 1452
f 1484 1452 1451
f 1451 1483 1484
f 1516 1484 1483
f 1483 1515 1516
f 1548 1516 1515
f 1515 1547 1548
f 1580 1548 1547
f 1547 1579 1580
f 1612 1580 1579
f 1579 1611 1612
f 1644 1612 1611
f 1611 1643 1644
f 1676 1644 1643
f 1643 1675 1676
f 1708 1676 1675
f 1675 1707 1708
f 1740 1708 1707
f 1707 1739 1740
f 1772 1740 1739
f 1739 1771 1772
f 1804 1772 1771
f 1771 1803 1804
f 1836 1804 1803
f 1803 1835 1836
f 1868 1836 1835
f 1835 1867 1868
f 1900 1868 1867
f 1867 1899 1900
f 1932 1900 1899
f 1899 1931 1932
f 973 941 940
f 940 972 973
f 1005 973 972
f 972 1004 1005
f 1037 1005 1004
f 1004 1036 1037
f 1069 1037 1036
f 1036 1068 1069
f 1101 1069 1068
f 1068 1100 1101
f 1133 1101 1100
f 1100 1132 1133
f 1165 1133 1132
f 1132 1164 1165
f 1197 1165 1164
f 1164 1196 1197
f 1229 1197 1196
f 1196 1228 1229
f 1261 1229 1228
f 1228 1260 1261
f 1293 1261 1260
f 1260 1292 1293
f 1325 1293 1292
f 1292 1324 1325
f 1357 1325 1324
f 1324 1356 1357
f 1389 1357 1356
f 1356 1388 1389
f 1421 1389 1388
f 1388 1420 1421
f 1453 1421 1420
f 1420 1452 1453
f 1485 1453 1452
f 1452 1484 1485
f 1517 1485 1484
f 1484 1516 1517
f 1549 1517 1516
f 1516 1548 1549
f 1581 1549 1548
f 1548 1580 1581
f 1613 1581 1580
f 1580 1612 1613
f 1645 1613 1612
f 1612 1644 1645
f 1677 1645 1644
f 1644 1676 1677
f 1709 1677 1676
f 1676 1708 1709
f 1741 1709 1708
f 1708 1740 1741
f 1773 1741 1740
f 1740 1772 1773
f 1805 1773 1772
f 1772 1804 1805
f 1837 1805 1804
f 1804 1836 1837
f 1869 1837 1836
f 1836 1868 1869
f 1901 1869 1868
f 1868 1900 1901
f 1933 1901 1900
f 1900 1932 1933
f 974 942 941
f 941 973 974
f 1006 974 973
f 973 1005 1006
f 1038 1006 1005
f 1005 1037 1038
f 1070 1038 1037
f 1037 1069 1070
f 1102 1070 1069
f 1069 1101 1102
f 1134 1102 1101
f 1101 1133 1134
f 1166 1134 1133
f 1133 1165 1166
f 1198 1166 1165
f 1165 1197 1198
f 1230 1198 1197
f 1197 1229 1230
f 1262 1230 1229
f 1229 1261 1262
f 1294 1262 1261
f 1261 1293 1294
f 1326 1294 1293
f 1293 1325 1326
f 1358 1326 1325
f 1325 1357 1358
f 1390 1358 1357
f 1357 1389 1390
f 1422 1390 1389
f 1389 1421 1422
f 1454 1422 1421
f 1421 1453 1454
f 1486 1454 1453
f 1453 1485 1486
f 1518 1486 1485
f 1485 1517 1518
f 1550 1518 1517
f 1517 1549 1550
f 1582 1550 1549
f 1549 1581 1582
f 1614 1582 1581
f 1581 1613 1614
f 1646 1614 1613
f 1613 1645 1646
f 1678 1646 1645
f 1645 1677 1678
f 1710 1678 1677
f 1677 1709 1710
f 1742 1710 1709
f 1709 1741 1742
f 1774 1742 1741
f 1741 1773 1774
f 1806 1774 1773
f 1773 1805 1806
f 1838 1806 1805
f 1805 1837 1838
f 1870 1838 1837
f 1837 1869 1870
f 1902 1870 1869
f 1869 1901 1902
f 1934 1902 1901
f 1901 1933 1934
f 975 943 942
f 942 974 975
f 1007 975 974
f 974 1006 1007
f 1039 1007 1006
f 1006 1038 1039
f 1071 1039 1038
f 1038 1070 1071
f 1103 1071 1070
f 1070 1102 1103
f 1135 1103 1102
f 1102 1134 1135
f 1167 1135 1134
f 1134 1166 1167
f 1199 1167 1166
f 1166 1198 1199
f 1231 1199 1198
f 1198 1230 1231
f 1263 1231 1230
f 1230 1262 1263
f 1295 1263 1262
f 1262 1294 1295
f 1327 1295 1294
f 1294 1326 1327
f 1359 1327 1326
f 1326 1358 1359
f 1391 1359 1358
f 1358 1390 1391
f 1423 1391 1390
f 1390 1422 1423
f 1455 1423 1422
f 1422 1454 1455
f 1487 1455 1454
f 1454 1486 1487
f 1519 1487 1486
f 1486 1518 1519
f 1551 1519 1518
f 1518 1550 1551
f 1583 1551 1550
f 1550 1582 1583
f 1615 1583 1582
f 1582 1614 1615
f 1647 1615 1614
f 1614 1646 1647
f 1679 1647 1646
f 1646 1678 1679
f 1711 1679 1678
f 1678 1710 1711
f 1743 1711 1710
f 1710 1742 1743
f 1775 1743 1742
f 1742 1774 1775
f 1807 1775 1774
f 1774 1806 1807
f 1839 1807 1806
f 1806 1838 1839
f 1871 1839 1838
f 1838 1870 1871
f 1903 1871 1870
f 1870 1902 1903
f 1935 1903 1902
f 1902 1934 1935
f 976 944 943
f 943 975 976
f 1008 976 975
f 975 1007 1008
f 1040 1008 1007
f 1007 1039 1040
f 1072 1040 1039
f 1039 1071 1072
f 1104 1072 1071
f 1071 1103 1104
f 1136 1104 1103
f 1103 1135 1136
f 1168 1136 1135
f 1135 1167 1168
f 1200 1168 1167
f 1167 1199 1200
f 1232 1200 1199
f 1199 1231 1232
f 1264 1232 1231
f 1231 1263 1264
f 1296 1264 1263
f 1263 1295 1296
f 1328 1296 1295
f 1295 1327 1328
f 1360 1328 1327
f 1327 1359 1360
f 1392 1360 1359
f 1359 1391 1392
f 1424 1392 1391
f 1391 1423 1424
f 1456 1424 1423
f 1423 1455 1456
f 1488 1456 1455
f 1455 1487 1488
f 1520 1488 1487
f 1487 1519 1520
f 1552 1520 1519
f 1519 1551 1552
f 1584 1552 1551
f 1551 1583 1584
f 1616 1584 1583
f 1583 1615 1616
f 1648 1616 1615
f 1615 1647 1648
f 1680 1648 1647
f 1647 1679 1680
f 1712 1680 1679
f 1679 1711 1712
f 1744 1712 1711
f 1711 1743 1744
f 1776 1744 1743
f 1743 1775 1776
f 1808 1776 1775
f 1775 1807 1808
f 1840 1808 1807
f 1807 1839 1840
f 1872 1840 1839
f 1839 1871 1872
f 1904 1872 1871
f 1871 1903 1904
f 1936 1904 1903
f 1903 1935 1936
f 977 945 944
f 944 976 977
f 1009 977 976
f 976 1008 1009
f 1041 1009 1008
f 1008 1040 1041
f 1073 1041 1040
f 1040 1072 1073
f 1105 1073 1072
f 1072 1104 1105
f 1137 1105 1104
f 1104 1136 1137
f 1169 1137 1136
f 1136 1168 1169
f 1201 1169 1168
f 1168 1200 1201
f 1233 1201 1200
f 1200 1232 1233
f 1265 1233 1232
f 1232 1264 1265
f 1297 1265 1264
f 1264 1296 1297
f 1329 1297 1296
f 1296 1328 1329
f 1361 1329 1328
f 1328 1360 1361
f 1393 1361 1360
f 1360 1392 1393
f 1425 1393 1392
f 1392 1424 1425
f 1457 1425 1424
f 1424 1456 1457
f 1489 1457 1456
f 1456 1488 1489
f 1521 1489 1488
f 1488 1520 1521
f 1553 1521 1520
f 1520 1552 1553
f 1585 1553 1552
f 1552 1584 1585
f 1617 1585 1584
f 1584 1616 1617
f 1649 1617 1616
f 1616 1648 1649
f 1681 1649 1648
f 1648 1680 1681
f 1713 1681 1680
f 1680 1712 1713
f 1745 1713 1712
f 1712 1744 1745
f 1777 1745 1744
f 1744 1776 1777
f 1809 1777 1776
f 1776 1808 1809
f 1841 1809 1808
f 1808 1840 1841
f 1873 1841 1840
f 1840 1872 1873
f 1905 1873 1872
f 1872 1904 1905
f 1937 1905 1904
f 1904 1936 1937
f 978 946 945
f 945 977 978
f 1010 978 977
f 977 1009 1010
f 1042 1010 1009
f 1009 1041 1042
f 1074 1042 1041
f 1041 1073 1074
f 1106 1074 1073
f 1073 1105 1106
f 1138 1106 1105
f 1105 1137 1138
f 1170 1138 1137
f 1137 1169 1170
f 1202 1170 1169
f 1169 1201 1202
f 1234 1202 1201
f 1201 1233 1234
f 1266 1234 1233
f 1233 1265 1266
f 1298 1266 1265
f 1265 1297 1298
f 1330 1298 1297
f 1297 1329 1330
f 1362 1330 1329
f 1329 1361 1362
f 1394 1362 1361
f 1361 1393 1394
f 1426 1394 1393
f 1393 1425 1426
f 1458 1426 1425
f 1425 1457 1458
f 1490 1458 1457
f 1457 1489 1490
f 1522 1490 1489
f 1489 1521 1522
f 1554 1522 1521
f 1521 1553 1554
f 1586 1554 1553
f 1553 1585 1586
f 1618 1586 1585
f 1585 1617 1618
f 1650 1618 1617
f 1617 1649 1650
f 1682 1650 1649
f 1649 1681 1682
f 1714 1682 1681
f 1681 1713 1714
f 1746 1714 1713
f 1713 1745 1746
f 1778 1746 1745
f 1745 1777 1778
f 1810 1778 1777
f 1777 1809 1810
f 1842 1810 1809
f 1809 1841 1842
f 1874 1842 1841
f 1841 1873 1874
f 1906 1874 1873
f 1873 1905 1906
f 1938 1906 1905
f 1905 1937 1938
f 979 947 946
f 946 978 979
f 1011 979 978
f 978 1010 1011
f 1043 1011 1010
f 1010 1042 1043
f 1075 1043 1042
f 1042 1074 1075
f 1107 1075 1074
f 1074 1106 1107
f 1139 1107 1106
f 1106 1138 1139
f 1171 1139 1138
f 1138 1170 1171
f 1203 1171 1170
f 1170 1202 1203
f 1235 1203 1202
f 1202 1234 1235
f 1267 1235 1234
f 1234 1266 1267
f 1299 1267 1266
f 1266 1298 1299
f 1331 1299 1298
f 1298 1330 1331
f 1363 1331 1330
f 1330 1362 1363
f 1395 1363 1362
f 1362 1394 1395
f 1427 1395 1394
f 1394 1426 1427
f 1459 1427 1426
f 1426 1458 1459
f 1491 1459 1458
f 1458 1490 1491
f 1523 1491 1490
f 1490 1522 1523
f 1555 1523 1522
f 1522 1554 1555
f 1587 1555 1554
f 1554 1586 1587
f 1619 1587 1586
f 1586 1618 1619
f 1651 1619 1618
f 1618 1650 1651
f 1683 1651 1650
f 1650 1682 1683
f 1715 1683 1682
f 1682 1714 1715
f 1747 1715 1714
f 1714 1746 1747
f 1779 1747 1746
f 1746 1778 1779
f 1811 1779 1778
f 1778 1810 1811
f 1843 1811 1810
f 1810 1842 1843
f 1875 1843 1842
f 1842 1874 1875
f 1907 1875 1874
f 1874 1906 1907
f 1939 1907 1906
f 1906 1938 1939
f 980 948 947
f 947 979 980
f 1012 980 979
f 979 1011 1012
f 1044 1012 1011
f 1011 1043 1044
f 1076 1044 1043
f 1043 1075 1076
f 1108 1076 1075
f 1075 1107 1108
f 1140 1108 1107
f 1107 1139 1140
f 1172 1140 1139
f 1139 1171 1172
f 1204 1172 1171
f 1171 1203 1204
f 1236 1204 1203
f 1203 1235 1236
f 1268 1236 1235
f 1235 1267 1268
f 1300 1268 1267
f 1267 1299 1300
f 1332 1300 1299
f 1299 1331 1332
f 1364 1332 1331
f 1331 1363 1364
f 1396 1364 1363
f 1363 1395 1396
f 1428 1396 1395
f 1395 1427 1428
f 1460 1428 1427
f 1427 1459 1460
f 1492 1460 1459
f 1459 1491 1492
f 1524 1492 1491
f 1491 1523 1524
f 1556 1524 1523
f 1523 1555 1556
f 1588 1556 1555
f 1555 1587 1588
f 1620 1588 1587
f 1587 1619 1620
f 1652 1620 1619
f 1619 1651 1652
f 1684 1652 1651
f 1651 1683 1684
f 1716 1684 1683
f 1683 1715 1716
f 1748 1716 1715
f 1715 1747 1748
f 1780 1748 1747
f 1747 1779 1780
f 1812 1780 1779
f 1779 1811 1812
f 1844 1812 1811
f 1811 1843 1844
f 1876 1844 1843
f 1843 1875 1876
f 1908 1876 1875
f 1875 1907 1908
f 1940 1908 1907
f 1907 1939 1940
f 981 949 948
f 948 980 981
f 1013 981 980
f 980 1012 1013
f 1045 1013 1012
f 1012 1044 1045
f 1077 1045 1044
f 1044 1076 1077
f 1109 1077 1076
f 1076 1108 1109
f 1141 1109 1108
f 1108 1140 1141
f 1173 1141 1140
f 1140 1172 1173
f 1205 1173 1172
f 1172 1204 1205
f 1237 1205 1204
f 1204 1236 1237
f 1269 1237 1236
f 1236 1268 1269
f 1301 1269 1268
f 1268 1300 1301
f 1333 1301 1300
f 1300 1332 1333
f 1365 1333 1332
f 1332 1364 1365
f 1397 1365 1364
f 1364 1396 1397
f 1429 1397 1396
f 1396 1428 1429
f 1461 1429 1428
f 1428 1460 1461
f 1493 1461 1460
f 1460 1492 1493
f 1525 1493 1492
f 1492 1524 1525
f 1557 1525 1524
f 1524 1556 1557
f 1589 1557 1556
f 1556 1588 1589
f 1621 1589 1588
f 1588 1620 1621
f 1653 1621 1620
f 1620 1652 1653
f 1685 1653 1652
f 1652 1684 1685
f 1717 1685 1684
f 1684 1716 1717
f 1749 1717 1716
f 1716 1748 1749
f 1781 1749 1748
f 1748 1780 1781
f 1813 1781 1780
f 1780 1812 1813
f 1845 1813 1812
f 1812 1844 1845
f 1877 1845 1844
f 1844 1876 1877
f 1909 1877 1876
f 1876 1908 1909
f 1941 1909 1908
f 1908 1940 1941
f 982 950 949
f 949 981 982
f 1014 982 981
f 981 1013 1014
f 1046 1014 1013
f 1013 1045 1046
f 1078 1046 1045
f 1045 1077 1078
f 1110 1078 1077
f 1077 1109 1110
f 1142 1110 1109
f 1109 1141 1142
f 1174 1142 1141
f 1141 1173 1174
f 1206 1174 1173
f 1173 1205 1206
f 1238 1206 1205
f 1205 1237 1238
f 1270 1238 1237
f 1237 1269 1270
f 1302 1270 1269
f 1269 1301 1302
f 1334 1302 1301
f 1301 1333 1334
f 1366 1334 1333
f 1333 1365 1366
f 1398 1366 1365
f 1365 1397 1398
f 1430 1398 1397
f 1397 1429 1430
f 1462 1430 1429
f 1429 1461 1462
f 1494 1462 1461
f 1461 1493 1494
f 1526 1494 1493
f 1493 1525 1526
f 1558 1526 1525
f 1525 1557 1558
f 1590 1558 1557
f 1557 1589 1590
f 1622 1590 1589
f 1589 1621 1622
f 1654 1622 1621
f 1621 1653 1654
f 1686 1654 1653
f 1653 1685 1686
f 1718 1686 1685
f 1685 1717 1718
f 1750 1718 1717
f 1717 1749 1750
f 1782 1750 1749
f 1749 1781 1782
f 1814 1782 1781
f 1781 1813 1814
f 1846 1814 1813
f 1813 1845 1846
f 1878 1846 1845
f 1845 1877 1878
f 1910 1878 1877
f 1877 1909 1910
f 1942 1910 1909
f 1909 1941 1942
f 983 951 950
f 950 982 983
f 1015 983 982
f 982 1014 1015
f 1047 1015 1014
f 1014 1046 1047
f 1079 1047 1046
f 1046 1078 1079
f 1111 1079 1078
f 1078 1110 1111
f 1143 1111 1110
f 1110 1142 1143
f 1175 1143 1142
f 1142 1174 1175
f 1207 1175 1174
f 1174 1206 1207
f 1239 1207 1206
f 1206 1238 1239
f 1271 1239 1238
f 1238 1270 1271
f 1303 1271 1270
f 1270 1302 1303
f 1335 1303 1302
f 1302 1334 1335
f 1367 1335 1334
f 1334 1366 1367
f 1399 1367 1366
f 1366 1398 1399
f 1431 1399 1398
f 1398 1430 1431
f 1463 1431 1430
f 1430 1462 1463
f 1495 1463 1462
f 1462 1494 1495
f 1527 1495 1494
f 1494 1526 1527
f 1559 1527 1526
f 1526 1558 1559
f 1591 1559 1558
f 1558 1590 1591
f 1623 1591 1590
f 1590 1622 1623
f 1655 1623 1622
f 1622 1654 1655
f 1687 1655 1654
f 1654 1686 1687
f 1719 1687 1686
f 1686 1718 1719
f 1751 1719 1718
f 1718 1750 1751
f 1783 1751 1750
f 1750 1782 1783
f 1815 1783 1782
f 1782 1814 1815
f 1847 1815 1814
f 1814 1846 1847
f 1879 1847 1846
f 1846 1878 1879
f 1911 1879 1878
f 1878 1910 1911
f 1943 1911 1910
f 1910 1942 1943
f 984 952 951
f 951 983 984
f 1016 984 983
f 983 1015 1016
f 1048 1016 1015
f 1015 1047 1048
f 1080 1048 1047
f 1047 1079 1080
f 1112 1080 1079
f 1079 1111 1112
f 1144 1112 1111
f 1111 1143 1144
f 1176 1144 1143
f 1143 1175 1176
f 1208 1176 1175
f 1175 1207 1208
f 1240 1208 1207
f 1207 1239 1240
f 1272 1240 1239
f 1239 1271 1272
f 1304 1272 1271
f 1271 1303 1304
f 1336 1304 1303
f 1303 1335 1336
f 1368 1336 1335
f 1335 1367 1368
f 1400 1368 1367
f 1367 1399 1400
f 1432 1400 1399
f 1399 1431 1432
f 1464 1432 1431
f 1431 1463 1464
f 1496 1464 1463
f 1463 1495 1496
f 1528 1496 1495
f 1495 1527 1528
f 1560 1528 1527
f 1527 1559 1560
f 1592 1560 1559
f 1559 1591 1592
f 1624 1592 1591
f 1591 1623 1624
f 1656 1624 1623
f 1623 1655 1656
f 1688 1656 1655
f 1655 1687 1688
f 1720 1688 1687
f 1687 1719 1720
f 1752 1720 1719
f 1719 1751 1752
f 1784 1752 1751
f 1751 1783 1784
f 1816 1784 1783
f 1783 1815 1816
f 1848 1816 1815
f 1815 1847 1848
f 1880 1848 1847
f 1847 1879 1880
f 1912 1880 1879
f 1879 1911 1912
f 1944 1912 1911
f 1911 1943 1944
f 985 953 952
f 952 984 985
f 1017 985 984
f 984 1016 1017
f 1049 1017 1016
f 1016 1048 1049
f 1081 1049 1048
f 1048 1080 1081
f 1113 1081 1080
f 1080 1112 1113
f 1145 1113 1112
f 1112 1144 1145
f 1177 1145 1144
f 1144 1176 1177
f 1209 1177 1176
f 1176 1208 1209
f 1241 1209 1208
f 1208 1240 1241
f 1273 1241 1240
f 1240 1272 1273
f 1305 1273 1272
f 1272 1304 1305
f 1337 1305 1304
f 1304 1336 1337
f 1369 1337 1336
f 1336 1368 1369
f 1401 1369 1368
f 1368 1400 1401
f 1433 1401 1400
f 1400 1432 1433
f 1465 1433 1432
f 1432 1464 1465
f 1497 1465 1464
f 1464 1496 1497
f 1529 1497 1496
f 1496 1528 1529
f 1561 1529 1528
f 1528 1560 1561
f 1593 1561 1560
f 1560 1592 1593
f 1625 1593 1592
f 1592 1624 1625
f 1657 1625 1624
f 1624 1656 1657
f 1689 1657 1656
f 1656 1688 1689
f 1721 1689 1688
f 1688 1720 1721
f 1753 1721 1720
f 1720 1752 1753
f 1785 1753 1752
f 1752 1784 1785
f 1817 1785 1784
f 1784 1816 1817
f 1849 1817 1816
f 1816 1848 1849
f 1881 1849 1848
f 1848 1880 1881
f 1913 1881 1880
f 1880 1912 1913
f 1945 1913 1912
f 1912 1944 1945
f 986 954 953
f 953 985 986
f 1018 986 985
f 985 1017 1018
f 1050 1018 1017
f 1017 1049 1050
f 1082 1050 1049
f 1049 1081 1082
f 1114 1082 1081
f 1081 1113 1114
f 1146 1114 1113
f 1113 1145 1146
f 1178 1146 1145
f 1145 1177 1178
f 1210 1178 1177
f 1177 1209 1210
f 1242 1210 1209
f 1209 1241 1242
f 1274 1242 1241
f 1241 1273 1274
f 1306 1274 1273
f 1273 1305 1306
f 1338 1306 1305
f 1305 1337 1338
f 1370 1338 1337
f 1337 1369 1370
f 1402 1370 1369
f 1369 1401 1402
f 1434 1402 1401
f 1401 1433 1434
f 1466 1434 1433
f 1433 1465 1466
f 1498 1466 1465
f 1465 1497 1498
f 1530 1498 1497
f 1497 1529 1530
f 1562 1530 1529
f 1529 1561 1562
f 1594 1562 1561
f 1561 1593 1594
f 1626 1594 1593
f 1593 1625 1626
f 1658 1626 1625
f 1625 1657 1658
f 1690 1658 1657
f 1657 1689 1690
f 1722 1690 1689
f 1689 1721 1722
f 1754 1722 1721
f 1721 1753 1754
f 1786 1754 1753
f 1753 1785 1786
f 1818 1786 1785
f 1785 1817 1818
f 1850 1818 1817
f 1817 1849 1850
f 1882 1850 1849
f 1849 1881 1882
f 1914 1882 1881
f 1881 1913 1914
f 1946 1914 1913
f 1913 1945 1946
f 987 955 954
f 954 986 987
f 1019 987 986
f 986 1018 1019
f 1051 1019 1018
f 1018 1050 1051
f 1083 1051 1050
f 1050 1082 1083
f 1115 1083 1082
f 1082 1114 1115
f 1147 1115 1114
f 1114 1146 1147
f 1179 1147 1146
f 1146 1178 1179
f 1211 1179 1178
f 1178 1210 1211
f 1243 1211 1210
f 1210 1242 1243
f 1275 1243 1242
f 1242 1274 1275
f 1307 1275 1274
f 1274 1306 1307
f 1339 1307 1306
f 1306 1338 1339
f 1371 1339 1338
f 1338 1370 1371
f 1403 1371 1370
f 1370 1402 1403
f 1435 1403 1402
f 1402 1434 1435
f 1467 1435 1434
f 1434 1466 1467
f 1499 1467 1466
f 1466 1498 1499
f 1531 1499 1498
f 1498 1530 1531
f 1563 1531 1530
f 1530 1562 1563
f 1595 1563 1562
f 1562 1594 1595
f 1627 1595 1594
f 1594 1626 1627
f 1659 1627 1626
f 1626 1658 1659
f 1691 1659 1658
f 1658 1690 1691
f 1723 1691 1690
f 1690 1722 1723
f 1755 1723 1722
f 1722 1754 1755
f 1787 1755 1754
f 1754 1786 1787
f 1819 1787 1786
f 1786 1818 1819
f 1851 1819 1818
f 1818 1850 1851
f 1883 1851 1850
f 1850 1882 1883
f 1915 1883 1882
f 1882 1914 1915
f 1947 1915 1914
f 1914 1946 1947
f 988 956 955
f 955 987 988
f 1020 988 987
f 987 1019 1020
f 1052 1020 1019
f 1019 1051 1052
f 1084 1052 1051
f 1051 1083 1084
f 1116 1084 1083
f 1083 1115 1116
f 1148 1116 1115
f 1115 1147 1148
f 1180 1148 1147
f 1147 1179 1180
f 1212 1180 1179
f 1179 1211 1212
f 1244 1212 1211
f 1211 1243 1244
f 1276 1244 1243
f 1243 1275 1276
f 1308 1276 1275
f 1275 1307 1308
f 1340 1308 1307
f 1307 1339 1340
f 1372 1340 1339
f 1339 1371 1372
f 1404 1372 1371
f 1371 1403 1404
f 1436 1404 1403
f 1403 1435 1436
f 1468 1436 1435
f 1435 1467 1468
f 1500 1468 1467
f 1467 1499 1500
f 1532 1500 1499
f 1499 1531 1532
f 1564 1532 1531
f 1531 1563 1564
f 1596 1564 1563
f 1563 1595 1596
f 1628 1596 1595
f 1595 1627 1628
f 1660 1628 1627
f 1627 1659 1660
f 1692 1660 1659
f 1659 1691 1692
f 1724 1692 1691
f 1691 1723 1724
f 1756 1724 1723
f 1723 1755 1756
f 1788 1756 1755
f 1755 1787 1788
f 1820 1788 1787
f 1787 1819 1820
f 1852 1820 1819
f 1819 1851 1852
f 1884 1852 1851
f 1851 1883 1884
f 1916 1884 1883
f 1883 1915 1916
f 1948 1916 1915
f 1915 1947 1948
f 989 957 956
f 956 988 989
f 1021 989 988
f 988 1020 1021
f 1053 1021 1020
f 1020 1052 1053
f 1085 1053 1052
f 1052 1084 1085
f 1117 1085 1084
f 1084 1116 1117
f 1149 1117 1116
f 1116 1148 1149
f 1181 1149 1148
f 1148 1180 1181
f 1213 1181 1180
f 1180 1212 1213
f 1245 1213 1212
f 1212 1244 1245
f 1277 1245 1244
f 1244 1276 1277
f 1309 1277 1276
f 1276 1308 1309
f 1341 1309 1308
f 1308 1340 1341
f 1373 1341 1340
f 1340 1372 1373
f 1405 1373 1372
f 1372 1404 1405
f 1437 1405 1404
f 1404 1436 1437
f 1469 1437 1436
f 1436 1468 1469
f 1501 1469 1468
f 1468 1500 1501
f 1533 1501 1500
f 1500 1532 1533
f 1565 1533 1532
f 1532 1564 1565
f 1597 1565 1564
f 1564 1596 1597
f 1629 1597 1596
f 1596 1628 1629
f 1661 1629 1628
f 1628 1660 1661
f 1693 1661 1660
f 1660 1692 1693
f 1725 1693 1692
f 1692 1724 1725
f 1757 1725 1724
f 1724 1756 1757
f 1789 1757 1756
f 1756 1788 1789
f 1821 1789 1788
f 1788 1820 1821
f 1853 1821 1820
f 1820 1852 1853
f 1885 1853 1852
f 1852 1884 1885
f 1917 1885 1884
f 1884 1916 1917
f 1949 1917 1916
f 1916 1948 1949
