v 7479.88 363.865 921.285
v 7479.88 363.988 921.285
v 7479.68 363.865 921.285
v 7479.68 363.988 921.285
v 7479.83 364.042 921.334
v 7479.83 364.042 921.436
v 7479.73 364.042 921.334
v 7479.73 364.042 921.436
v 7479.88 363.988 921.485
v 7479.88 363.865 921.485
v 7479.68 363.988 921.485
v 7479.68 363.865 921.485
v 7479.88 363.865 921.485
v 7479.88 363.865 921.285
v 7479.68 363.865 921.485
v 7479.68 363.865 921.285
v 7479.68 363.865 921.285
v 7479.68 363.988 921.285
v 7479.68 363.865 921.485
v 7479.68 363.988 921.485
v 7479.88 363.865 921.485
v 7479.88 363.988 921.485
v 7479.88 363.865 921.285
v 7479.88 363.988 921.285
v 7479.58 363.993 921.185
v 7479.68 363.988 921.285
v 7479.98 363.993 921.185
v 7479.88 363.988 921.285
v 7479.58 363.993 921.585
v 7479.68 363.988 921.485
v 7479.58 363.993 921.185
v 7479.68 363.988 921.285
v 7479.98 363.993 921.585
v 7479.88 363.988 921.485
v 7479.58 363.993 921.585
v 7479.68 363.988 921.485
v 7479.98 363.993 921.185
v 7479.88 363.988 921.285
v 7479.98 363.993 921.585
v 7479.88 363.988 921.485
v 7479.98 363.993 921.185
v 7479.85 364.057 921.321
v 7479.58 363.993 921.185
v 7479.72 364.057 921.321
v 7479.58 363.993 921.185
v 7479.72 364.057 921.321
v 7479.58 363.993 921.585
v 7479.72 364.057 921.449
v 7479.58 363.993 921.585
v 7479.72 364.057 921.449
v 7479.98 363.993 921.585
v 7479.85 364.057 921.449
v 7479.98 363.993 921.585
v 7479.85 364.057 921.449
v 7479.98 363.993 921.185
v 7479.85 364.057 921.321
v 7479.85 364.057 921.321
v 7479.83 364.042 921.334
v 7479.72 364.057 921.321
v 7479.73 364.042 921.334
v 7479.72 364.057 921.321
v 7479.73 364.042 921.334
v 7479.72 364.057 921.449
v 7479.73 364.042 921.436
v 7479.72 364.057 921.449
v 7479.73 364.042 921.436
v 7479.85 364.057 921.449
v 7479.83 364.042 921.436
v 7479.85 364.057 921.449
v 7479.83 364.042 921.436
v 7479.85 364.057 921.321
v 7479.83 364.042 921.334
v 7480.8 369.11 908.783
v 7480.37 368.749 907.966
v 7480.83 367.969 907.768
v 7481.38 368.188 908.648
v 7481.12 367.069 907.587
v 7481.76 367.126 908.545
v 7481.11 366.138 907.535
v 7481.77 366.027 908.53
v 7480.83 365.268 907.575
v 7481.43 364.999 908.59
v 7479.65 364.034 907.776
v 7480.04 363.543 908.843
v 7478.07 363.838 908.065
v 7478.18 363.312 909.187
v 7476.7 364.756 908.333
v 7476.56 364.396 909.491
v 7476.27 365.537 908.425
v 7476.05 365.318 909.59
v 7476.06 366.437 908.477
v 7475.8 366.38 909.638
v 7476.2 367.368 908.544
v 7475.96 367.479 909.631
v 7476.59 368.238 908.593
v 7476.43 368.506 909.575
v 7477.14 368.963 908.595
v 7477.06 369.362 909.483
v 7477.78 369.472 908.549
v 7477.79 369.963 909.366
v 7479.13 369.667 908.325
v 7479.34 370.194 909.086
v 7478.59 366.753 907.886
v 7479.69 367.361 907.542
v 7479.48 367.751 907.652
v 7479.81 366.911 907.439
v 7479.79 366.445 907.408
v 7479.65 366.01 907.427
v 7479.06 365.393 907.525
v 7478.27 365.296 907.669
v 7477.59 365.755 907.805
v 7477.37 366.145 907.852
v 7477.27 366.595 907.88
v 7477.32 367.06 907.929
v 7477.5 367.495 907.974
v 7477.77 367.858 907.989
v 7478.1 368.112 907.973
v 7478.83 368.21 907.854
v 7475.38 368.651 915.23
v 7475.9 368.721 915.459
v 7475.83 367.769 916.049
v 7475.28 367.732 915.793
v 7476 367.778 916.03
v 7476.05 368.739 915.433
v 7474.79 367.615 915.426
v 7474.92 368.429 914.942
v 7475.52 369.848 913.689
v 7475.89 369.99 913.752
v 7475.1 369.489 913.572
v 7475.61 369.848 911.98
v 7475.98 369.99 911.981
v 7475.18 369.489 912.026
v 7475.64 368.651 910.43
v 7476.08 368.739 910.371
v 7475.15 368.429 910.638
v 7475.61 367.732 909.856
v 7476.1 367.778 909.771
v 7475.08 367.615 910.137
v 7475.55 366.714 909.526
v 7476.1 366.714 909.423
v 7474.98 366.714 909.856
v 7475.52 365.618 909.602
v 7476.09 365.563 909.5
v 7474.94 365.756 909.931
v 7475.47 364.664 910.015
v 7476.04 364.562 909.931
v 7474.88 364.919 910.301
v 7474.81 364.301 910.943
v 7475.97 363.833 910.69
v 7474.72 363.963 911.792
v 7475.88 363.446 911.702
v 7474.6 363.963 913.723
v 7475.98 363.446 914.079
v 7474.59 364.301 914.579
v 7475.14 363.966 914.879
v 7475.95 363.833 915.097
v 7475.77 363.86 915.12
v 7475.14 364.664 915.61
v 7475.76 364.583 915.877
v 7475.94 364.562 915.861
v 7474.59 364.919 915.228
v 7475.15 365.618 916.029
v 7475.76 365.574 916.308
v 7475.93 365.563 916.295
v 7474.61 365.756 915.605
v 7475.17 366.714 916.11
v 7475.77 366.714 916.388
v 7475.94 366.714 916.374
v 7474.65 366.714 915.685
v 7474.61 366.714 912.753
v 7474.49 367.571 913.876
v 7474.41 367.164 914.097
v 7474.6 368.101 913.173
v 7474.65 368.101 912.336
v 7474.62 367.571 911.621
v 7474.56 367.164 911.389
v 7474.49 366.714 911.279
v 7474.47 366.258 911.332
v 7474.44 365.854 911.527
v 7474.39 365.546 911.847
v 7474.35 365.362 912.262
v 7474.29 365.362 913.195
v 7474.29 365.546 913.613
v 7474.3 365.854 913.938
v 7474.31 366.258 914.137
v 7474.33 366.714 914.194
v 7485.37 369.69 911.705
v 7485.5 369.548 913.433
v 7485.15 370.503 913.495
v 7485.02 370.637 911.862
v 7485.29 369.442 911.717
v 7485.42 369.302 913.419
v 7484.5 371.361 913.578
v 7484.37 371.48 912.123
v 7484.59 369.807 910.091
v 7484.29 370.748 910.34
v 7484.53 369.557 910.126
v 7483.73 371.578 910.775
v 7483.25 369.887 908.748
v 7483.03 370.823 909.078
v 7483.21 369.637 908.802
v 7482.62 371.645 909.667
v 7481.4 370.856 908.226
v 7481.51 369.922 907.839
v 7481.49 369.671 907.904
v 7481.2 371.673 908.928
v 7479.57 370.823 908.087
v 7479.56 369.887 907.692
v 7479.56 369.637 907.76
v 7479.6 371.645 908.803
v 7477.83 370.748 908.493
v 7477.71 369.807 908.123
v 7477.74 369.557 908.185
v 7478.08 371.578 909.161
v 7476.4 370.637 909.399
v 7476.2 369.69 909.084
v 7476.25 369.442 909.132
v 7476.82 371.48 909.963
v 7475.43 370.503 910.717
v 7475.17 369.548 910.482
v 7475.24 369.302 910.509
v 7475.94 371.361 911.132
v 7474.68 369.393 912.183
v 7474.96 370.357 912.322
v 7474.76 369.15 912.186
v 7475.5 371.231 912.555
v 7474.63 369.178 913.998
v 7474.91 370.092 914.026
v 7474.72 368.954 913.976
v 7475.44 370.927 914.053
v 7475.04 368.985 915.765
v 7475.3 369.852 915.687
v 7475.12 368.777 915.719
v 7475.77 370.652 915.515
v 7475.84 368.831 917.302
v 7476.05 369.662 917.132
v 7475.9 368.637 917.235
v 7476.44 370.434 916.791
v 7476.95 368.732 918.459
v 7477.09 369.54 918.222
v 7476.99 368.547 918.376
v 7477.38 370.294 917.756
v 7478.28 368.698 919.131
v 7478.36 369.498 918.856
v 7478.31 368.516 919.038
v 7478.52 370.246 918.321
v 7479.77 369.54 918.988
v 7479.78 368.732 919.268
v 7479.78 368.547 919.172
v 7479.78 370.294 918.443
v 7481.24 369.662 918.616
v 7481.33 368.831 918.87
v 7481.31 368.637 918.779
v 7481.09 370.434 918.12
v 7482.64 369.852 917.786
v 7482.81 368.985 917.986
v 7482.77 368.777 917.907
v 7482.33 370.652 917.39
v 7483.84 370.092 916.58
v 7484.09 369.178 916.702
v 7484.04 368.954 916.641
v 7483.38 370.927 916.323
v 7484.7 370.357 915.106
v 7485.01 369.393 915.135
v 7484.94 369.15 915.095
v 7484.12 371.231 915.02
v 7479.79 371.828 913.86
v 7482.01 371.948 912.956
v 7482.1 371.888 913.702
v 7481.69 371.997 912.282
v 7481.16 372.03 911.747
v 7480.49 372.042 911.407
v 7479.74 372.03 911.34
v 7479.01 371.997 911.516
v 7478.38 371.948 911.918
v 7477.91 371.888 912.505
v 7477.64 371.821 913.221
v 7477.58 371.646 913.959
v 7477.73 371.487 914.682
v 7478.06 371.361 915.319
v 7478.55 371.281 915.806
v 7479.15 371.253 916.098
v 7479.82 371.281 916.168
v 7480.49 371.361 916.013
v 7481.11 371.487 915.649
v 7481.62 371.646 915.112
v 7481.95 371.821 914.453
v 7485.48 367.732 912.651
v 7485.14 368.651 913.111
v 7484.81 368.739 912.8
v 7485.12 367.778 912.288
v 7485.75 367.615 913.197
v 7485.42 368.429 913.573
v 7484.33 369.848 914.43
v 7484.03 369.99 914.211
v 7484.65 369.489 914.719
v 7483.49 369.848 915.923
v 7483.16 369.99 915.758
v 7483.89 369.489 916.069
v 7482.21 368.721 917.231
v 7482.78 368.651 917.299
v 7482.11 368.739 917.085
v 7483.3 368.429 917.326
v 7482.55 367.732 917.826
v 7481.94 367.769 917.759
v 7481.82 367.778 917.613
v 7483.14 367.615 917.807
v 7482.45 366.714 918.148
v 7481.79 366.714 918.073
v 7481.67 366.714 917.926
v 7483.11 366.714 918.104
v 7481.84 365.574 918.012
v 7482.51 365.618 918.093
v 7481.71 365.563 917.863
v 7483.18 365.756 918.054
v 7482.07 364.583 917.649
v 7482.75 364.664 917.746
v 7481.94 364.562 917.496
v 7483.4 364.919 917.748
v 7484.2 363.963 916.484
v 7482.87 363.446 915.979
v 7485.16 363.963 914.803
v 7484.27 363.446 914.043
v 7485.84 364.919 913.46
v 7485.52 364.664 912.876
v 7485.1 364.562 912.466
v 7485.7 365.618 912.496
v 7485.29 365.563 912.078
v 7485.99 365.756 913.113
v 7485.71 366.714 912.413
v 7485.32 366.714 912.002
v 7485.99 366.714 913.026
v 7484.73 366.714 915.671
v 7485.33 367.571 914.718
v 7485.5 367.164 914.555
v 7484.92 368.101 915.297
v 7484.51 368.101 916.027
v 7484.22 367.571 916.683
v 7484.16 367.164 916.914
v 7484.18 366.714 917.044
v 7484.22 366.258 917.007
v 7484.34 365.854 916.848
v 7484.74 365.362 916.227
v 7485.21 365.362 915.414
v 7485.53 365.854 914.748
v 7485.61 366.258 914.565
v 7485.62 366.714 914.505
v 7482.35 366.417 907.995
v 7481.24 366.386 908.45
v 7482.46 365.53 908.102
v 7481.71 364.419 908.881
v 7482.74 364.784 908.361
v 7482.65 368.077 908.529
v 7481.75 368.35 908.998
v 7482.99 368.811 908.938
v 7482.19 369.2 909.436
v 7483.39 369.243 909.374
v 7482.69 369.71 909.908
v 7484.26 369.33 910.271
v 7483.69 369.812 910.921
v 7484.68 368.976 910.707
v 7484.15 369.395 911.448
v 7485.09 368.305 911.081
v 7484.58 368.619 911.93
v 7485.71 366.706 911.5
v 7485.22 366.732 912.573
v 7485.68 365.807 911.443
v 7484.94 364.682 912.24
v 7485.48 365.004 911.206
v 7484.71 364.077 910.314
v 7484.03 363.599 911.188
v 7483.67 364.032 909.221
v 7482.81 363.552 909.896
v 7484.23 366.566 909.568
v 7483.57 366.082 908.623
v 7483.71 365.725 908.753
v 7483.51 366.496 908.57
v 7483.61 367.321 908.816
v 7483.77 367.643 909.026
v 7483.98 367.859 909.261
v 7484.45 367.902 909.756
v 7484.69 367.726 909.987
v 7484.9 367.435 910.17
v 7485.19 366.636 910.328
v 7485.18 366.212 910.294
v 7485.07 365.832 910.175
v 7484.69 365.356 909.729
v 7484.17 365.324 909.182
v 7480.77 369.023 909.014
v 7480.8 369.11 908.783
v 7481.38 368.188 908.648
v 7481.33 368.135 908.91
v 7481.76 367.126 908.545
v 7481.71 367.112 908.841
v 7481.77 366.027 908.53
v 7481.71 366.054 908.84
v 7481.43 364.999 908.59
v 7481.39 365.064 908.901
v 7480.05 363.661 909.148
v 7480.04 363.543 908.843
v 7478.26 363.439 909.481
v 7478.18 363.312 909.187
v 7476.7 364.483 909.77
v 7476.56 364.396 909.491
v 7476.05 365.318 909.59
v 7476.2 365.37 909.863
v 7475.8 366.38 909.638
v 7475.96 366.394 909.907
v 7475.96 367.479 909.631
v 7476.11 367.452 909.879
v 7476.43 368.506 909.575
v 7476.55 368.442 909.797
v 7477.06 369.362 909.483
v 7477.16 369.266 909.685
v 7477.79 369.963 909.366
v 7477.86 369.845 909.555
v 7479.36 370.067 909.276
v 7479.34 370.194 909.086
v 7478.82 366.753 909.171
v 7476.17 369.87 912.023
v 7476.08 369.87 913.742
v 7475.89 369.99 913.752
v 7475.98 369.99 911.981
v 7476.3 368.664 910.472
v 7476.08 368.739 910.371
v 7476.1 367.778 909.771
v 7476.35 367.739 909.901
v 7476.1 366.714 909.423
v 7476.38 366.714 909.574
v 7476.09 365.563 909.5
v 7476.37 365.61 909.652
v 7476.04 364.562 909.931
v 7476.33 364.649 910.07
v 7475.97 363.833 910.69
v 7476.27 363.947 910.801
v 7475.88 363.446 911.702
v 7476.19 363.571 911.775
v 7476.06 363.571 913.991
v 7475.98 363.446 914.079
v 7476 367.778 916.03
v 7476.05 368.739 915.433
v 7475.9 366.714 912.863
v 7475.95 363.833 915.097
v 7475.94 364.562 915.861
v 7475.93 365.563 916.295
v 7475.94 366.714 916.374
v 7484.91 369.154 913.385
v 7485.42 369.302 913.419
v 7485.29 369.442 911.717
v 7484.79 369.281 911.837
v 7484.53 369.557 910.126
v 7484.1 369.386 910.393
v 7483.21 369.637 908.802
v 7482.9 369.458 909.195
v 7481.49 369.671 907.904
v 7481.35 369.489 908.386
v 7479.56 369.637 907.76
v 7479.61 369.458 908.254
v 7477.74 369.557 908.185
v 7477.96 369.386 908.639
v 7476.25 369.442 909.132
v 7476.61 369.281 909.499
v 7475.24 369.302 910.509
v 7475.69 369.154 910.749
v 7474.76 369.15 912.186
v 7475.25 369.016 912.272
v 7474.72 368.954 913.976
v 7475.2 368.878 913.898
v 7475.12 368.777 915.719
v 7484.04 368.954 916.641
v 7483.67 368.878 916.32
v 7482.77 368.777 917.907
v 7484.94 369.15 915.095
v 7484.49 369.016 914.912
v 7479.86 369.337 913.628
v 7475.9 368.637 917.235
v 7476.99 368.547 918.376
v 7478.31 368.516 919.038
v 7479.78 368.547 919.172
v 7481.31 368.637 918.779
v 7484.85 367.739 912.25
v 7485.12 367.778 912.288
v 7484.81 368.739 912.8
v 7484.58 368.664 912.755
v 7483.85 369.87 914.135
v 7484.03 369.99 914.211
v 7483.01 369.87 915.636
v 7483.16 369.99 915.758
v 7483.98 363.571 913.921
v 7482.88 363.571 915.849
v 7482.87 363.446 915.979
v 7484.27 363.446 914.043
v 7484.79 364.649 912.409
v 7485.1 364.562 912.466
v 7485.29 365.563 912.078
v 7484.98 365.61 912.037
v 7485.32 366.714 912.002
v 7485.01 366.714 911.965
v 7483.62 366.714 915.003
v 7482.11 368.739 917.085
v 7481.82 367.778 917.613
v 7481.67 366.714 917.926
v 7481.71 365.563 917.863
v 7481.94 364.562 917.496
v 7481.56 364.508 909.14
v 7482.62 363.668 910.118
v 7482.81 363.552 909.896
v 7481.71 364.419 908.881
v 7481.11 366.393 908.724
v 7481.24 366.386 908.45
v 7481.62 368.285 909.216
v 7481.75 368.35 908.998
v 7482.19 369.2 909.436
v 7482.06 369.106 909.625
v 7482.69 369.71 909.908
v 7482.56 369.597 910.074
v 7483.53 369.696 911.057
v 7483.69 369.812 910.921
v 7484.15 369.395 911.448
v 7483.96 369.294 911.574
v 7484.58 368.619 911.93
v 7484.37 368.543 912.051
v 7484.94 366.725 912.694
v 7485.22 366.732 912.573
v 7484.67 364.76 912.375
v 7484.94 364.682 912.24
v 7483.8 363.715 911.361
v 7484.03 363.599 911.188
v 7483.29 366.566 910.471
v 7474.53 364.297 915.682
v 7475.64 364.297 916.397
v 7474.53 367.297 915.682
v 7475.64 367.297 916.397
v 7475.64 364.297 916.397
v 7476.1 364.297 916.216
v 7475.64 367.297 916.397
v 7476.1 367.297 916.216
v 7481.61 364.297 917.832
v 7481.89 364.297 918.098
v 7481.61 367.297 917.832
v 7481.89 367.297 918.098
v 7481.89 364.297 918.098
v 7483.12 364.297 918.191
v 7481.89 367.297 918.098
v 7483.12 367.297 918.191
v 7483.12 364.297 918.191
v 7484.27 364.297 917.077
v 7483.12 367.297 918.191
v 7484.27 367.297 917.077
v 7484.27 364.297 917.077
v 7485.57 364.297 914.839
v 7484.27 367.297 917.077
v 7485.57 367.297 914.839
v 7485.57 364.297 914.839
v 7486.08 364.297 913.07
v 7485.57 367.297 914.839
v 7486.08 367.297 913.07
v 7486.08 364.297 913.07
v 7485.59 364.297 910.727
v 7486.08 367.297 913.07
v 7485.59 367.297 910.727
v 7485.59 364.297 910.727
v 7483.59 364.297 908.531
v 7485.59 367.297 910.727
v 7483.59 367.297 908.531
v 7483.59 364.297 908.531
v 7481.15 364.297 907.45
v 7483.59 367.297 908.531
v 7481.15 367.297 907.45
v 7481.15 364.297 907.45
v 7478.45 364.297 907.447
v 7481.15 367.297 907.45
v 7478.45 367.297 907.447
v 7478.45 364.297 907.447
v 7476.15 364.297 908.317
v 7478.45 367.297 907.447
v 7476.15 367.297 908.317
v 7474.23 364.297 913.681
v 7474.53 364.297 915.682
v 7474.23 367.297 913.681
v 7474.53 367.297 915.682
v 7476.15 364.297 908.317
v 7474.88 364.297 909.827
v 7476.15 367.297 908.317
v 7474.88 367.297 909.827
v 7474.88 364.297 909.827
v 7474.33 364.297 911.669
v 7474.88 367.297 909.827
v 7474.33 367.297 911.669
v 7474.33 364.297 911.669
v 7474.23 364.297 913.681
v 7474.33 367.297 911.669
v 7474.23 367.297 913.681
v 7476.1 364.297 916.216
v 7476.42 364.297 909.873
v 7476.1 367.297 916.216
v 7476.42 367.297 909.873
v 7484.64 364.297 912.438
v 7481.61 364.297 917.832
v 7484.64 367.297 912.438
v 7481.61 367.297 917.832
v 7481.31 364.297 909.003
v 7484.64 364.297 912.438
v 7481.31 367.297 909.003
v 7484.64 367.297 912.438
v 7476.42 364.297 909.873
v 7481.31 364.297 909.003
v 7476.42 367.297 909.873
v 7481.31 367.297 909.003
v 7480.74 361.148 911.734
v 7480.74 361.272 911.734
v 7480.54 361.148 911.734
v 7480.54 361.272 911.734
v 7480.69 361.325 911.783
v 7480.69 361.325 911.885
v 7480.59 361.325 911.783
v 7480.59 361.325 911.885
v 7480.74 361.272 911.934
v 7480.74 361.148 911.934
v 7480.54 361.272 911.934
v 7480.54 361.148 911.934
v 7480.74 361.148 911.934
v 7480.74 361.148 911.734
v 7480.54 361.148 911.934
v 7480.54 361.148 911.734
v 7480.54 361.148 911.734
v 7480.54 361.272 911.734
v 7480.54 361.148 911.934
v 7480.54 361.272 911.934
v 7480.74 361.148 911.934
v 7480.74 361.272 911.934
v 7480.74 361.148 911.734
v 7480.74 361.272 911.734
v 7480.44 361.277 911.634
v 7480.54 361.272 911.734
v 7480.84 361.277 911.634
v 7480.74 361.272 911.734
v 7480.44 361.277 912.034
v 7480.54 361.272 911.934
v 7480.44 361.277 911.634
v 7480.54 361.272 911.734
v 7480.84 361.277 912.034
v 7480.74 361.272 911.934
v 7480.44 361.277 912.034
v 7480.54 361.272 911.934
v 7480.84 361.277 911.634
v 7480.74 361.272 911.734
v 7480.84 361.277 912.034
v 7480.74 361.272 911.934
v 7480.84 361.277 911.634
v 7480.71 361.34 911.77
v 7480.44 361.277 911.634
v 7480.58 361.34 911.77
v 7480.44 361.277 911.634
v 7480.58 361.34 911.77
v 7480.44 361.277 912.034
v 7480.58 361.34 911.898
v 7480.44 361.277 912.034
v 7480.58 361.34 911.898
v 7480.84 361.277 912.034
v 7480.71 361.34 911.898
v 7480.84 361.277 912.034
v 7480.71 361.34 911.898
v 7480.84 361.277 911.634
v 7480.71 361.34 911.77
v 7480.71 361.34 911.77
v 7480.69 361.325 911.783
v 7480.58 361.34 911.77
v 7480.59 361.325 911.783
v 7480.58 361.34 911.77
v 7480.59 361.325 911.783
v 7480.58 361.34 911.898
v 7480.59 361.325 911.885
v 7480.58 361.34 911.898
v 7480.59 361.325 911.885
v 7480.71 361.34 911.898
v 7480.69 361.325 911.885
v 7480.71 361.34 911.898
v 7480.69 361.325 911.885
v 7480.71 361.34 911.77
v 7480.69 361.325 911.783
v 7448 353.696 944
v 7448 352.728 942
v 7448 351.854 940
v 7448 351.11 938
v 7448 350.523 936
v 7448 350.117 934
v 7448 349.908 932
v 7448 349.908 930
v 7448 350.121 928
v 7448 350.548 926
v 7448 351.181 924
v 7448 352.008 922
v 7448 353.012 920
v 7448 354.167 918
v 7448 355.461 916
v 7448 357.056 914
v 7448 358.946 912
v 7448 361.06 910
v 7448 363.336 908
v 7448 365.714 906
v 7448 368.141 904
v 7448 367.667 902
v 7448 366.336 900
v 7448 365.127 898
v 7448 364.072 896
v 7448 363.196 894
v 7448 362.521 892
v 7448 362.06 890
v 7448 361.822 888
v 7448 361.81 886
v 7448 362.022 884
v 7448 362.449 882
v 7450 355.098 944
v 7450 354.088 942
v 7450 353.143 940
v 7450 352.299 938
v 7450 351.589 936
v 7450 351.037 934
v 7450 350.665 932
v 7450 350.49 930
v 7450 350.523 928
v 7450 350.77 926
v 7450 351.232 924
v 7450 351.905 922
v 7450 352.781 920
v 7450 353.845 918
v 7450 355.092 916
v 7450 356.645 914
v 7450 358.487 912
v 7450 360.553 910
v 7450 362.784 908
v 7450 365.123 906
v 7450 367.523 904
v 7450 368.337 902
v 7450 366.978 900
v 7450 365.726 898
v 7450 364.612 896
v 7450 363.661 894
v 7450 362.896 892
v 7450 362.331 890
v 7450 361.978 888
v 7450 361.842 886
v 7450 361.923 884
v 7450 362.216 882
v 7452 356.703 944
v 7452 355.684 942
v 7452 354.702 940
v 7452 353.795 938
v 7452 352.996 936
v 7452 352.333 934
v 7452 351.832 932
v 7452 351.514 930
v 7452 351.395 928
v 7452 351.488 926
v 7452 351.801 924
v 7452 352.338 922
v 7452 353.1 920
v 7452 354.082 918
v 7452 355.284 916
v 7452 356.783 914
v 7452 358.553 912
v 7452 360.533 910
v 7452 362.672 908
v 7452 364.918 906
v 7452 367.226 904
v 7452 368.899 902
v 7452 367.589 900
v 7452 366.373 898
v 7452 365.28 896
v 7452 364.336 894
v 7452 363.56 892
v 7452 362.969 890
v 7452 362.572 888
v 7452 362.377 886
v 7452 362.386 884
v 7452 362.596 882
v 7454 358.436 944
v 7454 357.446 942
v 7454 356.466 940
v 7454 355.536 938
v 7454 354.689 936
v 7454 353.956 934
v 7454 353.366 932
v 7454 352.943 930
v 7454 352.708 928
v 7454 352.68 926
v 7454 352.872 924
v 7454 353.297 922
v 7454 353.962 920
v 7454 354.873 918
v 7454 356.033 916
v 7454 357.469 914
v 7454 359.143 912
v 7454 361.004 910
v 7454 363.005 908
v 7454 365.104 906
v 7454 367.259 904
v 7454 369.334 902
v 7454 368.148 900
v 7454 367.047 898
v 7454 366.056 896
v 7454 365.198 894
v 7454 364.492 892
v 7454 363.95 890
v 7454 363.583 888
v 7454 363.397 886
v 7454 363.394 884
v 7454 363.572 882
v 7456 360.213 944
v 7456 359.289 942
v 7456 358.353 940
v 7456 357.443 938
v 7456 356.593 936
v 7456 355.836 934
v 7456 355.201 932
v 7456 354.717 930
v 7456 354.408 928
v 7456 354.296 926
v 7456 354.402 924
v 7456 354.742 922
v 7456 355.332 920
v 7456 356.184 918
v 7456 357.307 916
v 7456 358.671 914
v 7456 360.23 912
v 7456 361.942 910
v 7456 363.767 908
v 7456 365.67 906
v 7456 367.619 904
v 7456 369.584 902
v 7456 368.641 900
v 7456 367.726 898
v 7456 366.912 896
v 7456 366.216 894
v 7456 365.653 892
v 7456 365.233 890
v 7456 364.965 888
v 7456 364.853 886
v 7456 364.897 884
v 7456 365.095 882
v 7458 361.942 944
v 7458 361.122 942
v 7458 360.271 940
v 7458 359.425 938
v 7458 358.619 936
v 7458 357.885 934
v 7458 357.254 932
v 7458 356.755 930
v 7458 356.417 928
v 7458 356.263 926
v 7458 356.319 924
v 7458 356.607 922
v 7458 357.146 920
v 7458 357.954 918
v 7458 359.044 916
v 7458 360.332 914
v 7458 361.762 912
v 7458 363.3 910
v 7458 364.918 908
v 7458 366.587 906
v 7458 368.283 904
v 7458 369.806 902
v 7458 369.062 900
v 7458 368.394 898
v 7458 367.819 896
v 7458 367.35 894
v 7458 366.995 892
v 7458 366.763 890
v 7458 366.656 888
v 7458 366.675 886
v 7458 366.82 884
v 7458 367.085 882
v 7460 363.522 944
v 7460 362.842 942
v 7460 362.115 940
v 7460 361.376 938
v 7460 360.659 936
v 7460 359.996 934
v 7460 359.417 932
v 7460 358.952 930
v 7460 358.63 928
v 7460 358.479 926
v 7460 358.524 924
v 7460 358.792 922
v 7460 359.305 920
v 7460 360.088 918
v 7460 361.15 916
v 7460 362.36 914
v 7460 363.653 912
v 7460 365.004 910
v 7460 366.394 908
v 7460 367.804 906
v 7460 369.217 904
v 7460 369.86 902
v 7460 369.407 900
v 7460 369.033 898
v 7460 368.745 896
v 7460 368.552 894
v 7460 368.457 892
v 7460 368.462 890
v 7460 368.566 888
v 7460 368.766 886
v 7460 369.056 884
v 7460 369.429 882
v 7462 363.122 944
v 7462 364.21 942
v 7462 363.767 940
v 7462 363.175 938
v 7462 362.591 936
v 7462 362.044 934
v 7462 361.564 932
v 7462 361.18 930
v 7462 360.922 928
v 7462 360.816 926
v 7462 360.891 924
v 7462 361.173 922
v 7462 361.689 920
v 7462 362.462 918
v 7462 363.505 916
v 7462 364.639 914
v 7462 365.794 912
v 7462 366.955 910
v 7462 368.11 908
v 7462 369.251 906
v 7462 370.037 904
v 7462 369.821 902
v 7462 369.683 900
v 7462 369.627 898
v 7462 369.655 896
v 7462 369.769 894
v 7462 369.965 892
v 7462 370.241 890
v 7462 370.59 888
v 7462 371.004 886
v 7462 371.472 884
v 7462 371.984 882
v 7464 363.045 944
v 7464 363.958 942
v 7464 364.916 940
v 7464 364.686 938
v 7464 364.273 936
v 7464 363.883 934
v 7464 363.546 932
v 7464 363.288 930
v 7464 363.138 928
v 7464 363.121 926
v 7464 363.265 924
v 7464 363.596 922
v 7464 364.14 920
v 7464 364.923 918
v 7464 365.954 916
v 7464 367.02 914
v 7464 368.046 912
v 7464 369.027 910
v 7464 369.748 908
v 7464 369.649 906
v 7464 369.641 904
v 7464 369.725 902
v 7464 369.899 900
v 7464 370.162 898
v 7464 370.51 896
v 7464 370.936 894
v 7464 371.432 892
v 7464 371.99 890
v 7464 372.597 888
v 7464 373.24 886
v 7464 373.905 884
v 7464 374.573 882
v 7466 363.505 944
v 7466 364.229 942
v 7466 364.995 940
v 7466 365.759 938
v 7466 365.547 936
v 7466 365.35 934
v 7466 365.194 932
v 7466 365.103 930
v 7466 365.1 928
v 7466 365.212 926
v 7466 365.462 924
v 7466 365.875 922
v 7466 366.475 920
v 7466 367.287 918
v 7466 368.315 916
v 7466 369.252 914
v 7466 369.015 912
v 7466 368.898 910
v 7466 368.902 908
v 7466 369.026 906
v 7466 369.266 904
v 7466 369.618 902
v 7466 370.074 900
v 7466 370.627 898
v 7466 371.267 896
v 7466 371.982 894
v 7466 372.759 892
v 7466 373.583 890
v 7466 374.437 888
v 7466 375.303 886
v 7466 376.161 884
v 7466 376.99 882
v 7468 364.516 944
v 7468 365.048 942
v 7468 365.615 940
v 7468 366.197 938
v 7468 366.346 936
v 7468 366.367 934
v 7468 366.419 932
v 7468 366.523 930
v 7468 366.702 928
v 7468 366.974 926
v 7468 367.361 924
v 7468 367.884 922
v 7468 368.564 920
v 7468 368.947 918
v 7468 368.545 916
v 7468 368.227 914
v 7468 368.069 912
v 7468 368.068 910
v 7468 368.22 908
v 7468 368.52 906
v 7468 368.958 904
v 7468 369.527 902
v 7468 370.214 900
v 7468 371.008 898
v 7468 371.893 896
v 7468 372.854 894
v 7468 373.873 892
v 7468 374.93 890
v 7468 375.69 888
v 7468 375.942 886
v 7468 376.299 884
v 7468 376.79 882
v 7470 365.341 944
v 7470 365.697 942
v 7470 366.077 940
v 7470 366.466 938
v 7470 366.852 936
v 7470 367.219 934
v 7470 367.553 932
v 7470 367.84 930
v 7470 368.066 928
v 7470 368.216 926
v 7470 368.277 924
v 7470 368.235 922
v 7470 368.076 920
v 7470 367.786 918
v 7470 367.372 916
v 7470 367.084 914
v 7470 366.996 912
v 7470 367.104 910
v 7470 367.4 908
v 7470 367.873 906
v 7470 368.512 904
v 7470 369.305 902
v 7470 370.235 900
v 7470 371.286 898
v 7470 372.438 896
v 7470 373.671 894
v 7470 374.963 892
v 7470 375.291 890
v 7470 375.209 888
v 7470 375.219 886
v 7470 375.356 884
v 7470 375.655 882
v 7472 365.878 944
v 7472 366.081 942
v 7472 366.3 940
v 7472 366.523 938
v 7472 366.741 936
v 7472 366.94 934
v 7472 367.111 932
v 7472 367.241 930
v 7472 367.321 928
v 7472 367.338 926
v 7472 367.283 924
v 7472 367.144 922
v 7472 366.911 920
v 7472 366.573 918
v 7472 366.141 916
v 7472 365.873 914
v 7472 365.847 912
v 7472 366.054 910
v 7472 366.484 908
v 7472 367.124 906
v 7472 367.961 904
v 7472 368.978 902
v 7472 370.155 900
v 7472 371.471 898
v 7472 372.904 896
v 7472 374.427 894
v 7472 375.587 892
v 7472 375.154 890
v 7472 374.788 888
v 7472 374.527 886
v 7472 374.413 884
v 7472 374.487 882
v 7474 366.187 944
v 7474 366.268 942
v 7474 366.359 940
v 7474 366.451 938
v 7474 366.533 936
v 7474 366.599 934
v 7474 366.637 932
v 7474 366.641 930
v 7474 366.601 928
v 7474 366.509 926
v 7474 366.356 924
v 7474 366.135 922
v 7474 365.836 920
v 7474 365.453 918
v 7474 364.998 916
v 7474 364.74 914
v 7474 364.759 912
v 7474 365.046 910
v 7474 365.589 908
v 7474 366.375 906
v 7474 367.388 904
v 7474 368.608 902
v 7474 370.014 900
v 7474 371.581 898
v 7474 373.282 896
v 7474 375.087 894
v 7474 375.9 892
v 7474 375.179 890
v 7474 374.527 888
v 7474 373.99 886
v 7474 373.614 884
v 7474 373.451 882
v 7476 366.309 944
v 7476 366.32 942
v 7476 366.322 940
v 7476 366.321 938
v 7476 366.309 936
v 7476 366.279 934
v 7476 366.224 932
v 7476 366.136 930
v 7476 366.008 928
v 7476 365.834 926
v 7476 365.607 924
v 7476 365.321 922
v 7476 364.969 920
v 7476 364.545 918
v 7476 364.064 916
v 7476 363.804 914
v 7476 363.847 912
v 7476 364.187 910
v 7476 364.812 908
v 7476 365.709 906
v 7476 366.862 904
v 7476 368.249 902
v 7476 369.847 900
v 7476 371.629 898
v 7476 373.565 896
v 7476 375.622 894
v 7476 376.408 892
v 7476 375.422 890
v 7476 374.504 888
v 7476 373.705 886
v 7476 373.078 884
v 7476 372.682 882
v 7478 363.662 944
v 7478 364.414 942
v 7478 365.235 940
v 7478 366.113 938
v 7478 366.133 936
v 7478 366.051 934
v 7478 365.942 932
v 7478 365.801 930
v 7478 365.621 928
v 7478 365.397 926
v 7478 365.122 924
v 7478 364.791 922
v 7478 364.399 920
v 7478 363.94 918
v 7478 363.432 916
v 7478 363.156 914
v 7478 363.201 912
v 7478 363.562 910
v 7478 364.23 908
v 7478 365.195 906
v 7478 366.439 904
v 7478 367.943 902
v 7478 369.682 900
v 7478 371.629 898
v 7478 373.752 896
v 7478 376.014 894
v 7478 377.134 892
v 7478 375.926 890
v 7478 374.778 888
v 7478 373.748 886
v 7478 372.895 884
v 7478 372.283 882
v 7480 360.981 944
v 7480 361.709 942
v 7480 362.504 940
v 7480 363.357 938
v 7480 364.256 936
v 7480 365.19 934
v 7480 365.848 932
v 7480 365.694 930
v 7480 365.499 928
v 7480 365.257 926
v 7480 364.962 924
v 7480 364.609 922
v 7480 364.192 920
v 7480 363.706 918
v 7480 363.168 916
v 7480 362.864 914
v 7480 362.885 912
v 7480 363.232 910
v 7480 363.901 908
v 7480 364.882 906
v 7480 366.163 904
v 7480 367.725 902
v 7480 369.544 900
v 7480 371.594 898
v 7480 373.841 896
v 7480 376.249 894
v 7480 378.089 892
v 7480 376.713 890
v 7480 375.386 888
v 7480 374.169 886
v 7480 373.126 884
v 7480 372.328 882
v 7482 358.321 944
v 7482 359.064 942
v 7482 359.877 940
v 7482 360.747 938
v 7482 361.662 936
v 7482 362.612 934
v 7482 363.585 932
v 7482 364.569 930
v 7482 365.554 928
v 7482 365.453 926
v 7482 365.165 924
v 7482 364.812 922
v 7482 364.385 920
v 7482 363.881 918
v 7482 363.314 916
v 7482 362.968 914
v 7482 362.94 912
v 7482 363.237 910
v 7482 363.86 908
v 7482 364.805 906
v 7482 366.063 904
v 7482 367.619 902
v 7482 369.452 900
v 7482 371.536 898
v 7482 373.839 896
v 7482 376.324 894
v 7482 378.947 892
v 7482 377.792 890
v 7482 376.345 888
v 7482 374.994 886
v 7482 373.808 884
v 7482 372.862 882
v 7484 355.735 944
v 7484 356.531 942
v 7484 357.399 940
v 7484 358.326 938
v 7484 359.299 936
v 7484 360.303 934
v 7484 361.326 932
v 7484 362.354 930
v 7484 363.376 928
v 7484 364.379 926
v 7484 365.35 924
v 7484 365.412 922
v 7484 364.992 920
v 7484 364.478 918
v 7484 363.883 916
v 7484 363.484 914
v 7484 363.382 912
v 7484 363.593 910
v 7484 364.125 908
v 7484 364.981 906
v 7484 366.156 904
v 7484 367.641 902
v 7484 369.418 900
v 7484 371.464 898
v 7484 373.75 896
v 7484 376.241 894
v 7484 378.892 892
v 7484 379.154 890
v 7484 377.651 888
v 7484 376.225 886
v 7484 374.948 884
v 7484 373.897 882
v 7486 353.272 944
v 7486 354.152 942
v 7486 355.11 940
v 7486 356.13 938
v 7486 357.194 936
v 7486 358.287 934
v 7486 359.393 932
v 7486 360.497 930
v 7486 361.585 928
v 7486 362.641 926
v 7486 363.651 924
v 7486 364.601 922
v 7486 365.478 920
v 7486 365.483 918
v 7486 364.862 916
v 7486 364.4 914
v 7486 364.203 912
v 7486 364.295 910
v 7486 364.694 908
v 7486 365.411 906
v 7486 366.446 904
v 7486 367.797 902
v 7486 369.451 900
v 7486 371.389 898
v 7486 373.587 896
v 7486 376.011 894
v 7486 378.62 892
v 7486 380.77 890
v 7486 379.279 888
v 7486 377.84 886
v 7486 376.526 884
v 7486 375.418 882
v 7488 350.973 944
v 7488 351.964 942
v 7488 353.04 940
v 7488 354.179 938
v 7488 355.362 936
v 7488 356.572 934
v 7488 357.788 932
v 7488 358.993 930
v 7488 360.17 928
v 7488 361.3 926
v 7488 362.366 924
v 7488 363.353 922
v 7488 364.243 920
v 7488 365.021 918
v 7488 365.69 916
v 7488 365.679 914
v 7488 365.369 912
v 7488 365.315 910
v 7488 365.545 908
v 7488 366.077 906
v 7488 366.922 904
v 7488 368.082 902
v 7488 369.552 900
v 7488 371.32 898
v 7488 373.363 896
v 7488 375.652 894
v 7488 378.151 892
v 7488 380.815 890
v 7488 381.185 888
v 7488 379.792 886
v 7488 378.496 884
v 7488 377.377 882
v 7490 348.88 944
v 7490 350 942
v 7490 351.21 940
v 7490 352.487 938
v 7490 353.809 936
v 7490 355.153 934
v 7490 356.497 932
v 7490 357.82 930
v 7490 359.101 928
v 7490 360.319 926
v 7490 361.455 924
v 7490 362.488 922
v 7490 363.399 920
v 7490 364.17 918
v 7490 364.799 916
v 7490 365.506 914
v 7490 366.401 912
v 7490 366.603 910
v 7490 366.635 908
v 7490 366.948 906
v 7490 367.561 904
v 7490 368.485 902
v 7490 369.721 900
v 7490 371.262 898
v 7490 373.094 896
v 7490 375.191 894
v 7490 377.522 892
v 7490 380.044 890
v 7490 382.708 888
v 7490 382.01 886
v 7490 380.782 884
v 7490 379.698 882
v 7492 347.029 944
v 7492 348.283 942
v 7492 349.635 940
v 7492 351.057 938
v 7492 352.524 936
v 7492 354.009 934
v 7492 355.488 932
v 7492 356.935 930
v 7492 358.327 928
v 7492 359.64 926
v 7492 360.85 924
v 7492 361.936 922
v 7492 362.873 920
v 7492 363.641 918
v 7492 364.233 916
v 7492 364.843 914
v 7492 365.584 912
v 7492 366.51 910
v 7492 367.662 908
v 7492 367.973 906
v 7492 368.327 904
v 7492 368.982 902
v 7492 369.947 900
v 7492 371.223 898
v 7492 372.801 896
v 7492 374.662 894
v 7492 376.778 892
v 7492 379.111 890
v 7492 381.617 888
v 7492 384.238 886
v 7492 383.283 884
v 7492 382.273 882
v 7494 345.451 944
v 7494 346.834 942
v 7494 348.321 940
v 7494 349.881 938
v 7494 351.486 936
v 7494 353.106 934
v 7494 354.713 932
v 7494 356.279 930
v 7494 357.778 928
v 7494 359.182 926
v 7494 360.465 924
v 7494 361.6 922
v 7494 362.564 920
v 7494 363.331 918
v 7494 363.889 916
v 7494 364.406 914
v 7494 364.994 912
v 7494 365.718 910
v 7494 366.629 908
v 7494 367.769 906
v 7494 369.17 904
v 7494 369.542 902
v 7494 370.219 900
v 7494 371.209 898
v 7494 372.508 896
v 7494 374.105 894
v 7494 375.976 892
v 7494 378.091 890
v 7494 380.405 888
v 7494 382.868 886
v 7494 385.418 884
v 7494 384.966 882
v 7496 344.175 944
v 7496 345.666 942
v 7496 347.265 940
v 7496 348.941 938
v 7496 350.661 936
v 7496 352.393 934
v 7496 354.108 932
v 7496 355.773 930
v 7496 357.115 928
v 7496 358.609 926
v 7496 360.184 924
v 7496 361.362 922
v 7496 362.348 920
v 7496 363.113 918
v 7496 363.643 916
v 7496 364.073 914
v 7496 364.519 912
v 7496 365.052 910
v 7496 365.732 908
v 7496 366.611 906
v 7496 367.73 904
v 7496 369.119 902
v 7496 370.518 900
v 7496 371.223 898
v 7496 372.242 896
v 7496 373.57 894
v 7496 375.188 892
v 7496 377.071 890
v 7496 379.18 888
v 7496 381.468 886
v 7496 383.876 884
v 7496 386.336 882
v 7498 343.226 944
v 7498 344.786 942
v 7498 346.458 940
v 7498 348.208 938
v 7498 350.002 936
v 7498 350.866 934
v 7498 351.768 932
v 7498 352.817 930
v 7498 354.04 928
v 7498 355.465 926
v 7498 357.117 924
v 7498 359.022 922
v 7498 361.207 920
v 7498 362.834 918
v 7498 363.34 916
v 7498 363.699 914
v 7498 364.023 912
v 7498 364.391 910
v 7498 364.871 908
v 7498 365.521 906
v 7498 366.389 904
v 7498 367.511 902
v 7498 368.912 900
v 7498 370.61 898
v 7498 372.033 896
v 7498 373.113 894
v 7498 374.495 892
v 7498 376.158 890
v 7498 378.069 888
v 7498 380.183 886
v 7498 382.446 884
v 7498 384.794 882
v 7500 342.623 944
v 7500 344.195 942
v 7500 345.88 940
v 7500 346.787 938
v 7500 347.448 936
v 7500 348.199 934
v 7500 349.069 932
v 7500 350.087 930
v 7500 351.281 928
v 7500 352.678 926
v 7500 354.306 924
v 7500 356.191 922
v 7500 358.359 920
v 7500 360.835 918
v 7500 362.803 916
v 7500 363.112 914
v 7500 363.348 912
v 7500 363.594 910
v 7500 363.925 908
v 7500 364.403 906
v 7500 365.08 904
v 7500 365.996 902
v 7500 367.182 900
v 7500 368.658 898
v 7500 370.432 896
v 7500 372.503 894
v 7500 373.991 892
v 7500 375.474 890
v 7500 377.219 888
v 7500 379.184 886
v 7500 381.319 884
v 7500 383.563 882
v 7502 342.182 944
v 7502 342.934 942
v 7502 343.492 940
v 7502 344.083 938
v 7502 344.737 936
v 7502 345.484 934
v 7502 346.353 932
v 7502 347.373 930
v 7502 348.57 928
v 7502 349.971 926
v 7502 351.603 924
v 7502 353.49 922
v 7502 355.658 920
v 7502 358.13 918
v 7502 360.924 916
v 7502 362.375 914
v 7502 362.552 912
v 7502 362.72 910
v 7502 362.952 908
v 7502 363.315 906
v 7502 363.86 904
v 7502 364.633 902
v 7502 365.665 900
v 7502 366.98 898
v 7502 368.587 896
v 7502 370.488 894
v 7502 372.674 892
v 7502 375.122 890
v 7502 376.913 888
v 7502 378.752 886
v 7502 380.773 884
v 7502 382.918 882
v 7504 339.578 944
v 7504 340.081 942
v 7504 340.594 940
v 7504 341.151 938
v 7504 341.782 936
v 7504 342.515 934
v 7504 343.38 932
v 7504 344.403 930
v 7504 345.61 928
v 7504 347.026 926
v 7504 348.674 924
v 7504 350.577 922
v 7504 352.757 920
v 7504 355.233 918
v 7504 358.022 916
v 7504 361.075 914
v 7504 361.755 912
v 7504 361.87 910
v 7504 362.038 908
v 7504 362.323 906
v 7504 362.779 904
v 7504 363.45 902
v 7504 364.37 900
v 7504 365.561 898
v 7504 367.037 896
v 7504 368.801 894
v 7504 370.842 892
v 7504 373.145 890
v 7504 375.679 888
v 7504 378.406 886
v 7504 380.889 884
v 7504 382.929 882
v 7506 336.69 944
v 7506 337.112 942
v 7506 337.56 940
v 7506 338.069 938
v 7506 338.667 936
v 7506 339.383 934
v 7506 340.245 932
v 7506 341.278 930
v 7506 342.506 928
v 7506 343.949 926
v 7506 345.628 924
v 7506 347.561 922
v 7506 349.765 920
v 7506 352.254 918
v 7506 355.04 916
v 7506 358.083 914
v 7506 360.871 912
v 7506 360.961 910
v 7506 361.098 908
v 7506 361.343 906
v 7506 361.75 904
v 7506 362.361 902
v 7506 363.21 900
v 7506 364.319 898
v 7506 365.701 896
v 7506 367.359 894
v 7506 369.287 892
v 7506 371.466 890
v 7506 373.871 888
v 7506 376.463 886
v 7506 379.197 884
v 7506 382.015 882
v 7508 333.758 944
v 7508 334.081 942
v 7508 334.453 940
v 7508 334.905 938
v 7508 335.468 936
v 7508 336.17 934
v 7508 337.036 932
v 7508 338.089 930
v 7508 339.35 928
v 7508 340.835 926
v 7508 342.561 924
v 7508 344.538 922
v 7508 346.778 920
v 7508 349.288 918
v 7508 352.072 916
v 7508 355.097 914
v 7508 358.278 912
v 7508 359.923 910
v 7508 360.06 908
v 7508 360.301 906
v 7508 360.699 904
v 7508 361.291 902
v 7508 362.11 900
v 7508 363.177 898
v 7508 364.503 896
v 7508 366.091 894
v 7508 367.935 892
v 7508 370.017 890
v 7508 372.312 888
v 7508 374.785 886
v 7508 377.39 884
v 7508 380.073 882
v 7510 330.821 944
v 7510 331.037 942
v 7510 331.326 940
v 7510 331.721 938
v 7510 332.252 936
v 7510 332.947 934
v 7510 333.827 932
v 7510 334.914 930
v 7510 336.222 928
v 7510 337.766 926
v 7510 339.552 924
v 7510 341.589 922
v 7510 343.877 920
v 7510 346.415 918
v 7510 349.199 916
v 7510 352.197 914
v 7510 355.332 912
v 7510 358.528 910
v 7510 358.867 908
v 7510 359.139 906
v 7510 359.564 904
v 7510 360.176 902
v 7510 361.005 900
v 7510 362.068 898
v 7510 363.375 896
v 7510 364.928 894
v 7510 366.719 892
v 7510 368.731 890
v 7510 370.939 888
v 7510 373.308 886
v 7510 375.796 884
v 7510 378.35 882
f 55 54 53
f 56 54 55
f 51 50 49
f 52 50 51
f 43 42 41
f 39 38 37
f 38 39 40
f 35 34 33
f 27 26 25
f 26 27 28
f 3 2 1
f 4 2 3
f 34 35 36
f 23 22 21
f 24 22 23
f 15 14 13
f 16 14 15
f 11 10 9
f 12 10 11
f 71 70 69
f 72 70 71
f 67 66 65
f 68 66 67
f 59 58 57
f 44 42 43
f 60 58 59
f 7 6 5
f 8 6 7
f 63 62 61
f 64 62 63
f 47 46 45
f 48 46 47
f 31 30 29
f 30 31 32
f 19 18 17
f 20 18 19
f 177 141 178
f 141 144 178
f 177 178 170
f 178 179 170
f 178 144 179
f 176 177 170
f 176 138 177
f 138 141 177
f 179 180 170
f 179 147 180
f 144 147 179
f 147 148 180
f 180 148 181
f 180 181 170
f 144 141 139
f 142 144 139
f 147 144 142
f 141 138 136
f 139 141 136
f 176 175 135
f 138 176 135
f 175 176 170
f 145 148 147
f 145 147 142
f 181 182 170
f 152 182 181
f 150 152 181
f 148 150 181
f 151 150 148
f 149 151 148
f 145 149 148
f 135 175 174
f 174 175 170
f 136 138 133
f 138 135 133
f 182 183 170
f 182 152 183
f 153 152 150
f 151 153 150
f 223 220 221
f 225 223 221
f 227 223 225
f 224 223 227
f 219 220 223
f 224 219 223
f 216 220 219
f 221 220 217
f 220 216 217
f 132 135 174
f 173 174 170
f 132 174 173
f 183 154 184
f 152 154 183
f 183 184 170
f 130 133 135
f 132 130 135
f 229 227 225
f 172 171 170
f 186 172 170
f 185 186 170
f 171 173 170
f 184 185 170
f 143 142 139
f 143 146 142
f 146 145 142
f 140 139 136
f 140 143 139
f 184 161 185
f 154 161 184
f 146 149 145
f 161 165 185
f 185 165 186
f 129 132 173
f 129 173 171
f 165 169 186
f 186 169 125
f 172 186 125
f 137 140 136
f 137 136 133
f 172 125 171
f 125 126 171
f 126 129 171
f 91 93 114
f 113 91 114
f 89 91 113
f 92 91 89
f 92 94 91
f 94 93 91
f 228 230 224
f 228 224 227
f 224 226 219
f 230 226 224
f 219 222 215
f 215 216 219
f 226 222 219
f 152 155 154
f 153 155 152
f 90 92 89
f 134 137 133
f 134 133 130
f 127 130 132
f 129 127 132
f 228 227 231
f 231 227 229
f 93 95 115
f 96 95 93
f 94 96 93
f 114 93 115
f 90 89 87
f 87 89 112
f 112 89 113
f 233 231 229
f 161 154 155
f 88 90 87
f 217 216 212
f 212 216 215
f 213 217 212
f 234 230 228
f 232 228 231
f 232 234 228
f 158 161 155
f 165 161 158
f 119 127 129
f 126 119 129
f 131 134 130
f 131 130 127
f 96 98 95
f 115 95 116
f 95 97 116
f 98 97 95
f 169 165 162
f 162 165 158
f 111 87 112
f 87 111 110
f 85 87 110
f 88 87 85
f 222 226 277
f 277 226 278
f 226 230 278
f 222 218 215
f 211 212 215
f 215 218 211
f 218 222 276
f 276 222 277
f 125 169 166
f 166 169 162
f 119 126 122
f 126 125 122
f 122 125 166
f 86 88 85
f 155 157 158
f 157 155 153
f 128 131 127
f 120 127 119
f 120 128 127
f 278 230 279
f 230 234 279
f 113 114 103
f 112 113 103
f 237 235 231
f 233 237 231
f 232 231 235
f 114 115 103
f 116 97 117
f 98 100 97
f 100 99 97
f 97 99 117
f 158 159 162
f 157 159 158
f 111 112 103
f 214 218 275
f 218 214 211
f 275 218 276
f 121 120 119
f 122 121 119
f 159 163 162
f 162 163 166
f 122 166 121
f 163 167 166
f 166 167 121
f 115 116 103
f 236 238 232
f 236 232 235
f 238 234 232
f 124 128 120
f 110 111 103
f 157 153 156
f 208 212 211
f 213 212 208
f 116 117 103
f 209 213 208
f 156 160 157
f 160 159 157
f 234 238 280
f 279 234 280
f 102 101 99
f 99 101 117
f 100 102 99
f 211 214 207
f 207 208 211
f 160 164 159
f 164 163 159
f 124 120 123
f 120 121 123
f 86 85 83
f 83 85 109
f 85 110 109
f 101 118 117
f 117 118 103
f 168 167 163
f 164 168 163
f 123 121 167
f 168 123 167
f 109 110 103
f 214 210 207
f 210 214 274
f 274 214 275
f 237 241 235
f 241 239 235
f 236 235 239
f 84 86 83
f 105 104 103
f 108 109 103
f 104 106 103
f 106 107 103
f 107 108 103
f 118 105 103
f 240 242 236
f 240 236 239
f 242 238 236
f 74 105 118
f 101 74 118
f 83 109 108
f 238 242 281
f 280 238 281
f 276 277 267
f 277 278 267
f 275 276 267
f 73 74 101
f 102 73 101
f 278 279 267
f 105 74 104
f 209 208 204
f 204 208 207
f 107 79 108
f 81 83 108
f 79 81 108
f 205 209 204
f 274 275 267
f 104 75 106
f 74 75 104
f 84 83 81
f 203 204 207
f 207 210 203
f 106 77 107
f 77 79 107
f 279 280 267
f 75 77 106
f 210 206 203
f 206 210 273
f 273 210 274
f 240 239 243
f 245 243 239
f 241 245 239
f 244 240 243
f 246 242 240
f 244 246 240
f 273 274 267
f 280 281 267
f 281 242 282
f 242 246 282
f 82 84 81
f 75 74 73
f 272 206 273
f 272 273 267
f 82 81 79
f 76 75 73
f 78 77 75
f 76 78 75
f 281 282 267
f 80 82 79
f 80 79 77
f 78 80 77
f 354 353 349
f 353 348 349
f 350 349 348
f 350 351 349
f 205 204 199
f 201 205 199
f 202 206 272
f 206 202 200
f 249 248 245
f 248 243 245
f 285 286 267
f 286 287 267
f 287 269 267
f 269 268 267
f 268 270 267
f 270 271 267
f 271 272 267
f 271 202 272
f 243 248 247
f 244 243 247
f 247 250 244
f 250 246 244
f 246 250 283
f 282 246 283
f 282 283 267
f 283 284 267
f 284 285 267
f 203 206 200
f 200 199 203
f 199 204 203
f 373 351 372
f 351 352 372
f 352 351 350
f 354 356 353
f 283 250 284
f 198 202 271
f 270 198 271
f 348 353 377
f 350 348 377
f 352 350 375
f 375 350 377
f 356 358 355
f 356 355 353
f 250 254 284
f 254 250 247
f 284 254 285
f 378 353 379
f 353 355 379
f 353 378 377
f 376 352 375
f 372 352 376
f 194 198 270
f 268 194 270
f 251 254 247
f 247 248 251
f 252 248 249
f 253 252 249
f 248 252 251
f 202 198 196
f 200 202 196
f 358 357 355
f 358 360 357
f 379 355 380
f 355 357 380
f 285 258 286
f 254 258 285
f 200 196 199
f 371 373 370
f 373 372 370
f 193 194 268
f 269 193 268
f 201 199 197
f 196 195 199
f 199 195 197
f 286 262 287
f 258 262 286
f 375 377 374
f 377 378 374
f 269 287 193
f 376 375 374
f 357 359 380
f 360 359 357
f 287 266 193
f 262 266 287
f 378 379 374
f 388 376 374
f 388 372 376
f 258 254 251
f 372 388 387
f 370 372 387
f 379 380 374
f 255 258 251
f 251 252 255
f 359 381 380
f 380 381 374
f 257 256 253
f 256 252 253
f 252 256 255
f 310 314 309
f 310 309 305
f 306 310 305
f 387 388 374
f 196 198 190
f 198 194 190
f 360 362 359
f 316 312 314
f 314 312 309
f 318 316 314
f 306 305 302
f 321 316 318
f 308 309 312
f 305 309 308
f 384 385 374
f 385 386 374
f 386 387 374
f 383 384 374
f 382 383 374
f 381 382 374
f 305 300 302
f 302 300 298
f 313 312 316
f 313 308 312
f 300 305 304
f 304 305 308
f 316 321 317
f 317 313 316
f 301 297 300
f 301 300 304
f 297 298 300
f 381 359 382
f 362 361 359
f 359 361 382
f 368 371 369
f 371 370 369
f 196 190 195
f 262 258 255
f 362 364 361
f 197 195 191
f 321 323 320
f 317 321 320
f 370 387 386
f 195 187 191
f 190 187 195
f 382 361 383
f 315 311 308
f 313 315 308
f 308 311 304
f 304 307 301
f 311 307 304
f 369 370 386
f 298 297 294
f 295 298 294
f 317 319 313
f 319 315 313
f 297 301 303
f 307 303 301
f 255 256 259
f 259 262 255
f 364 363 361
f 361 363 383
f 363 365 383
f 365 384 383
f 317 320 319
f 190 194 189
f 194 193 189
f 385 367 386
f 367 369 386
f 364 366 363
f 299 297 303
f 256 260 259
f 294 297 299
f 266 262 259
f 295 294 289
f 290 295 289
f 365 367 385
f 384 365 385
f 303 307 339
f 339 307 340
f 307 311 340
f 303 338 337
f 299 303 337
f 257 261 256
f 261 260 256
f 338 303 339
f 366 365 363
f 326 325 323
f 323 325 322
f 323 322 320
f 311 315 341
f 340 311 341
f 341 315 342
f 315 319 342
f 193 266 263
f 189 193 263
f 190 189 187
f 263 266 259
f 368 367 366
f 368 369 367
f 289 294 296
f 296 294 299
f 319 320 342
f 291 290 288
f 290 289 288
f 299 337 336
f 296 299 336
f 259 260 263
f 331 291 330
f 291 288 330
f 192 191 188
f 191 187 188
f 326 328 325
f 189 188 187
f 328 331 327
f 328 327 325
f 331 330 327
f 261 265 260
f 366 367 365
f 293 296 334
f 293 289 296
f 296 336 334
f 260 264 263
f 265 264 260
f 289 293 288
f 320 343 342
f 320 322 343
f 337 338 333
f 338 339 333
f 339 340 333
f 263 264 189
f 264 188 189
f 340 341 333
f 341 342 333
f 336 337 333
f 288 292 330
f 293 292 288
f 342 343 333
f 322 325 324
f 329 324 325
f 327 329 325
f 343 344 333
f 344 345 333
f 345 346 333
f 334 336 333
f 335 334 333
f 347 335 333
f 346 347 333
f 265 192 264
f 192 188 264
f 330 332 327
f 292 332 330
f 332 329 327
f 292 293 334
f 322 344 343
f 322 324 344
f 347 332 292
f 335 347 292
f 335 292 334
f 324 345 344
f 345 324 346
f 324 329 346
f 329 332 347
f 346 329 347
f 465 463 464
f 464 463 462
f 463 461 462
f 467 465 466
f 466 465 464
f 409 407 408
f 408 407 406
f 407 405 406
f 468 469 467
f 468 467 466
f 411 409 410
f 410 409 408
f 475 468 466
f 475 466 464
f 475 464 462
f 406 405 403
f 405 404 403
f 430 428 429
f 429 428 427
f 428 426 427
f 419 410 408
f 432 430 431
f 431 430 429
f 419 408 406
f 462 461 460
f 461 459 460
f 434 432 433
f 433 432 431
f 426 425 424
f 427 426 424
f 412 411 410
f 419 412 410
f 419 406 403
f 436 434 435
f 435 434 433
f 425 423 424
f 442 431 429
f 442 429 427
f 442 433 431
f 413 411 412
f 475 469 468
f 442 427 424
f 442 435 433
f 439 436 438
f 437 436 435
f 436 437 438
f 404 402 403
f 423 420 424
f 424 420 442
f 475 462 460
f 414 413 412
f 419 414 412
f 442 437 435
f 423 422 420
f 402 401 403
f 403 401 419
f 438 437 442
f 420 421 442
f 442 421 441
f 442 441 440
f 442 443 438
f 442 444 443
f 442 445 444
f 442 446 445
f 442 440 446
f 422 421 420
f 475 476 469
f 415 413 414
f 441 421 422
f 416 415 414
f 419 416 414
f 438 443 439
f 459 457 458
f 460 459 458
f 475 460 458
f 415 416 417
f 418 415 417
f 417 416 419
f 402 400 401
f 475 477 476
f 400 399 401
f 401 399 419
f 419 394 392
f 419 396 394
f 389 417 419
f 419 398 396
f 392 389 419
f 399 398 419
f 458 457 456
f 457 455 456
f 418 417 389
f 390 418 389
f 475 458 456
f 475 478 477
f 400 397 399
f 397 398 399
f 391 390 389
f 392 391 389
f 511 509 529
f 510 509 511
f 510 508 509
f 508 505 509
f 509 505 529
f 512 510 511
f 475 474 471
f 475 471 472
f 475 472 480
f 475 480 479
f 475 479 478
f 475 447 474
f 450 447 475
f 475 452 450
f 475 456 454
f 475 454 452
f 455 453 454
f 456 455 454
f 393 391 392
f 394 393 392
f 398 397 396
f 397 395 396
f 508 507 505
f 507 506 505
f 505 506 529
f 395 393 394
f 396 395 394
f 529 514 511
f 514 513 511
f 513 512 511
f 529 516 514
f 515 513 514
f 516 515 514
f 515 516 517
f 517 516 529
f 506 527 529
f 507 528 506
f 528 527 506
f 518 515 517
f 454 453 452
f 453 451 452
f 527 525 529
f 525 523 529
f 523 522 529
f 529 522 520
f 529 520 517
f 520 519 517
f 519 518 517
f 499 502 501
f 499 503 502
f 499 504 503
f 499 501 500
f 504 490 491
f 499 490 504
f 499 500 487
f 487 500 488
f 528 526 527
f 526 525 527
f 452 451 450
f 521 519 520
f 522 521 520
f 489 490 499
f 491 490 489
f 451 449 450
f 492 491 489
f 488 486 487
f 486 485 487
f 487 485 499
f 521 522 523
f 485 484 499
f 483 484 485
f 486 483 485
f 472 471 470
f 493 489 499
f 499 496 493
f 499 498 496
f 499 481 498
f 524 521 523
f 484 481 499
f 492 489 493
f 450 449 447
f 524 523 525
f 526 524 525
f 484 483 481
f 494 492 493
f 496 495 493
f 495 494 493
f 474 473 471
f 473 470 471
f 483 482 481
f 481 482 498
f 498 497 496
f 497 495 496
f 482 497 498
f 449 448 447
f 447 448 474
f 448 473 474
f 530 531 532
f 532 531 533
f 534 535 536
f 536 535 537
f 538 539 540
f 540 539 541
f 542 543 544
f 544 543 545
f 546 547 548
f 548 547 549
f 550 551 552
f 552 551 553
f 554 555 556
f 556 555 557
f 558 559 560
f 560 559 561
f 562 563 564
f 564 563 565
f 566 567 568
f 568 567 569
f 570 571 572
f 572 571 573
f 574 575 576
f 576 575 577
f 578 579 580
f 580 579 581
f 582 583 584
f 584 583 585
f 586 587 588
f 588 587 589
f 590 591 592
f 592 591 593
f 594 595 596
f 596 595 597
f 598 599 600
f 600 599 601
f 602 603 604
f 604 603 605
f 606 607 608
f 608 607 609
f 664 663 662
f 665 663 664
f 660 659 658
f 661 659 660
f 652 651 650
f 648 647 646
f 647 648 649
f 644 643 642
f 636 635 634
f 635 636 637
f 612 611 610
f 613 611 612
f 643 644 645
f 632 631 630
f 633 631 632
f 624 623 622
f 625 623 624
f 620 619 618
f 621 619 620
f 680 679 678
f 681 679 680
f 676 675 674
f 677 675 676
f 668 667 666
f 653 651 652
f 669 667 668
f 616 615 614
f 617 615 616
f 672 671 670
f 673 671 672
f 656 655 654
f 657 655 656
f 640 639 638
f 639 640 641
f 628 627 626
f 629 627 628
f 715 683 682
f 682 714 715
f 747 715 714
f 714 746 747
f 779 747 746
f 746 778 779
f 811 779 778
f 778 810 811
f 843 811 810
f 810 842 843
f 875 843 842
f 842 874 875
f 907 875 874
f 874 906 907
f 939 907 906
f 906 938 939
f 971 939 938
f 938 970 971
f 1003 971 970
f 970 1002 1003
f 1035 1003 1002
f 1002 1034 1035
f 1067 1035 1034
f 1034 1066 1067
f 1099 1067 1066
f 1066 1098 1099
f 1131 1099 1098
f 1098 1130 1131
f 1163 1131 1130
f 1130 1162 1163
f 1195 1163 1162
f 1162 1194 1195
f 1227 1195 1194
f 1194 1226 1227
f 1259 1227 1226
f 1226 1258 1259
f 1291 1259 1258
f 1258 1290 1291
f 1323 1291 1290
f 1290 1322 1323
f 1355 1323 1322
f 1322 1354 1355
f 1387 1355 1354
f 1354 1386 1387
f 1419 1387 1386
f 1386 1418 1419
f 1451 1419 1418
f 1418 1450 1451
f 1483 1451 1450
f 1450 1482 1483
f 1515 1483 1482
f 1482 1514 1515
f 1547 1515 1514
f 1514 1546 1547
f 1579 1547 1546
f 1546 1578 1579
f 1611 1579 1578
f 1578 1610 1611
f 1643 1611 1610
f 1610 1642 1643
f 1675 1643 1642
f 1642 1674 1675
f 716 684 683
f 683 715 716
f 748 716 715
f 715 747 748
f 780 748 747
f 747 779 780
f 812 780 779
f 779 811 812
f 844 812 811
f 811 843 844
f 876 844 843
f 843 875 876
f 908 876 875
f 875 907 908
f 940 908 907
f 907 939 940
f 972 940 939
f 939 971 972
f 1004 972 971
f 971 1003 1004
f 1036 1004 1003
f 1003 1035 1036
f 1068 1036 1035
f 1035 1067 1068
f 1100 1068 1067
f 1067 1099 1100
f 1132 1100 1099
f 1099 1131 1132
f 1164 1132 1131
f 1131 1163 1164
f 1196 1164 1163
f 1163 1195 1196
f 1228 1196 1195
f 1195 1227 1228
f 1260 1228 1227
f 1227 1259 1260
f 1292 1260 1259
f 1259 1291 1292
f 1324 1292 1291
f 1291 1323 1324
f 1356 1324 1323
f 1323 1355 1356
f 1388 1356 1355
f 1355 1387 1388
f 1420 1388 1387
f 1387 1419 1420
f 1452 1420 1419
f 1419 1451 1452
f 1484 1452 1451
f 1451 1483 1484
f 1516 1484 1483
f 1483 1515 1516
f 1548 1516 1515
f 1515 1547 1548
f 1580 1548 1547
f 1547 1579 1580
f 1612 1580 1579
f 1579 1611 1612
f 1644 1612 1611
f 1611 1643 1644
f 1676 1644 1643
f 1643 1675 1676
f 717 685 684
f 684 716 717
f 749 717 716
f 716 748 749
f 781 749 748
f 748 780 781
f 813 781 780
f 780 812 813
f 845 813 812
f 812 844 845
f 877 845 844
f 844 876 877
f 909 877 876
f 876 908 909
f 941 909 908
f 908 940 941
f 973 941 940
f 940 972 973
f 1005 973 972
f 972 1004 1005
f 1037 1005 1004
f 1004 1036 1037
f 1069 1037 1036
f 1036 1068 1069
f 1101 1069 1068
f 1068 1100 1101
f 1133 1101 1100
f 1100 1132 1133
f 1165 1133 1132
f 1132 1164 1165
f 1197 1165 1164
f 1164 1196 1197
f 1229 1197 1196
f 1196 1228 1229
f 1261 1229 1228
f 1228 1260 1261
f 1293 1261 1260
f 1260 1292 1293
f 1325 1293 1292
f 1292 1324 1325
f 1357 1325 1324
f 1324 1356 1357
f 1389 1357 1356
f 1356 1388 1389
f 1421 1389 1388
f 1388 1420 1421
f 1453 1421 1420
f 1420 1452 1453
f 1485 1453 1452
f 1452 1484 1485
f 1517 1485 1484
f 1484 1516 1517
f 1549 1517 1516
f 1516 1548 1549
f 1581 1549 1548
f 1548 1580 1581
f 1613 1581 1580
f 1580 1612 1613
f 1645 1613 1612
f 1612 1644 1645
f 1677 1645 1644
f 1644 1676 1677
f 718 686 685
f 685 717 718
f 750 718 717
f 717 749 750
f 782 750 749
f 749 781 782
f 814 782 781
f 781 813 814
f 846 814 813
f 813 845 846
f 878 846 845
f 845 877 878
f 910 878 877
f 877 909 910
f 942 910 909
f 909 941 942
f 974 942 941
f 941 973 974
f 1006 974 973
f 973 1005 1006
f 1038 1006 1005
f 1005 1037 1038
f 1070 1038 1037
f 1037 1069 1070
f 1102 1070 1069
f 1069 1101 1102
f 1134 1102 1101
f 1101 1133 1134
f 1166 1134 1133
f 1133 1165 1166
f 1198 1166 1165
f 1165 1197 1198
f 1230 1198 1197
f 1197 1229 1230
f 1262 1230 1229
f 1229 1261 1262
f 1294 1262 1261
f 1261 1293 1294
f 1326 1294 1293
f 1293 1325 1326
f 1358 1326 1325
f 1325 1357 1358
f 1390 1358 1357
f 1357 1389 1390
f 1422 1390 1389
f 1389 1421 1422
f 1454 1422 1421
f 1421 1453 1454
f 1486 1454 1453
f 1453 1485 1486
f 1518 1486 1485
f 1485 1517 1518
f 1550 1518 1517
f 1517 1549 1550
f 1582 1550 1549
f 1549 1581 1582
f 1614 1582 1581
f 1581 1613 1614
f 1646 1614 1613
f 1613 1645 1646
f 1678 1646 1645
f 1645 1677 1678
f 719 687 686
f 686 718 719
f 751 719 718
f 718 750 751
f 783 751 750
f 750 782 783
f 815 783 782
f 782 814 815
f 847 815 814
f 814 846 847
f 879 847 846
f 846 878 879
f 911 879 878
f 878 910 911
f 943 911 910
f 910 942 943
f 975 943 942
f 942 974 975
f 1007 975 974
f 974 1006 1007
f 1039 1007 1006
f 1006 1038 1039
f 1071 1039 1038
f 1038 1070 1071
f 1103 1071 1070
f 1070 1102 1103
f 1135 1103 1102
f 1102 1134 1135
f 1167 1135 1134
f 1134 1166 1167
f 1199 1167 1166
f 1166 1198 1199
f 1231 1199 1198
f 1198 1230 1231
f 1263 1231 1230
f 1230 1262 1263
f 1295 1263 1262
f 1262 1294 1295
f 1327 1295 1294
f 1294 1326 1327
f 1359 1327 1326
f 1326 1358 1359
f 1391 1359 1358
f 1358 1390 1391
f 1423 1391 1390
f 1390 1422 1423
f 1455 1423 1422
f 1422 1454 1455
f 1487 1455 1454
f 1454 1486 1487
f 1519 1487 1486
f 1486 1518 1519
f 1551 1519 1518
f 1518 1550 1551
f 1583 1551 1550
f 1550 1582 1583
f 1615 1583 1582
f 1582 1614 1615
f 1647 1615 1614
f 1614 1646 1647
f 1679 1647 1646
f 1646 1678 1679
f 720 688 687
f 687 719 720
f 752 720 719
f 719 751 752
f 784 752 751
f 751 783 784
f 816 784 783
f 783 815 816
f 848 816 815
f 815 847 848
f 880 848 847
f 847 879 880
f 912 880 879
f 879 911 912
f 944 912 911
f 911 943 944
f 976 944 943
f 943 975 976
f 1008 976 975
f 975 1007 1008
f 1040 1008 1007
f 1007 1039 1040
f 1072 1040 1039
f 1039 1071 1072
f 1104 1072 1071
f 1071 1103 1104
f 1136 1104 1103
f 1103 1135 1136
f 1168 1136 1135
f 1135 1167 1168
f 1200 1168 1167
f 1167 1199 1200
f 1232 1200 1199
f 1199 1231 1232
f 1264 1232 1231
f 1231 1263 1264
f 1296 1264 1263
f 1263 1295 1296
f 1328 1296 1295
f 1295 1327 1328
f 1360 1328 1327
f 1327 1359 1360
f 1392 1360 1359
f 1359 1391 1392
f 1424 1392 1391
f 1391 1423 1424
f 1456 1424 1423
f 1423 1455 1456
f 1488 1456 1455
f 1455 1487 1488
f 1520 1488 1487
f 1487 1519 1520
f 1552 1520 1519
f 1519 1551 1552
f 1584 1552 1551
f 1551 1583 1584
f 1616 1584 1583
f 1583 1615 1616
f 1648 1616 1615
f 1615 1647 1648
f 1680 1648 1647
f 1647 1679 1680
f 721 689 688
f 688 720 721
f 753 721 720
f 720 752 753
f 785 753 752
f 752 784 785
f 817 785 784
f 784 816 817
f 849 817 816
f 816 848 849
f 881 849 848
f 848 880 881
f 913 881 880
f 880 912 913
f 945 913 912
f 912 944 945
f 977 945 944
f 944 976 977
f 1009 977 976
f 976 1008 1009
f 1041 1009 1008
f 1008 1040 1041
f 1073 1041 1040
f 1040 1072 1073
f 1105 1073 1072
f 1072 1104 1105
f 1137 1105 1104
f 1104 1136 1137
f 1169 1137 1136
f 1136 1168 1169
f 1201 1169 1168
f 1168 1200 1201
f 1233 1201 1200
f 1200 1232 1233
f 1265 1233 1232
f 1232 1264 1265
f 1297 1265 1264
f 1264 1296 1297
f 1329 1297 1296
f 1296 1328 1329
f 1361 1329 1328
f 1328 1360 1361
f 1393 1361 1360
f 1360 1392 1393
f 1425 1393 1392
f 1392 1424 1425
f 1457 1425 1424
f 1424 1456 1457
f 1489 1457 1456
f 1456 1488 1489
f 1521 1489 1488
f 1488 1520 1521
f 1553 1521 1520
f 1520 1552 1553
f 1585 1553 1552
f 1552 1584 1585
f 1617 1585 1584
f 1584 1616 1617
f 1649 1617 1616
f 1616 1648 1649
f 1681 1649 1648
f 1648 1680 1681
f 722 690 689
f 689 721 722
f 754 722 721
f 721 753 754
f 786 754 753
f 753 785 786
f 818 786 785
f 785 817 818
f 850 818 817
f 817 849 850
f 882 850 849
f 849 881 882
f 914 882 881
f 881 913 914
f 946 914 913
f 913 945 946
f 978 946 945
f 945 977 978
f 1010 978 977
f 977 1009 1010
f 1042 1010 1009
f 1009 1041 1042
f 1074 1042 1041
f 1041 1073 1074
f 1106 1074 1073
f 1073 1105 1106
f 1138 1106 1105
f 1105 1137 1138
f 1170 1138 1137
f 1137 1169 1170
f 1202 1170 1169
f 1169 1201 1202
f 1234 1202 1201
f 1201 1233 1234
f 1266 1234 1233
f 1233 1265 1266
f 1298 1266 1265
f 1265 1297 1298
f 1330 1298 1297
f 1297 1329 1330
f 1362 1330 1329
f 1329 1361 1362
f 1394 1362 1361
f 1361 1393 1394
f 1426 1394 1393
f 1393 1425 1426
f 1458 1426 1425
f 1425 1457 1458
f 1490 1458 1457
f 1457 1489 1490
f 1522 1490 1489
f 1489 1521 1522
f 1554 1522 1521
f 1521 1553 1554
f 1586 1554 1553
f 1553 1585 1586
f 1618 1586 1585
f 1585 1617 1618
f 1650 1618 1617
f 1617 1649 1650
f 1682 1650 1649
f 1649 1681 1682
f 723 691 690
f 690 722 723
f 755 723 722
f 722 754 755
f 787 755 754
f 754 786 787
f 819 787 786
f 786 818 819
f 851 819 818
f 818 850 851
f 883 851 850
f 850 882 883
f 915 883 882
f 882 914 915
f 947 915 914
f 914 946 947
f 979 947 946
f 946 978 979
f 1011 979 978
f 978 1010 1011
f 1043 1011 1010
f 1010 1042 1043
f 1075 1043 1042
f 1042 1074 1075
f 1107 1075 1074
f 1074 1106 1107
f 1139 1107 1106
f 1106 1138 1139
f 1171 1139 1138
f 1138 1170 1171
f 1203 1171 1170
f 1170 1202 1203
f 1235 1203 1202
f 1202 1234 1235
f 1267 1235 1234
f 1234 1266 1267
f 1299 1267 1266
f 1266 1298 1299
f 1331 1299 1298
f 1298 1330 1331
f 1363 1331 1330
f 1330 1362 1363
f 1395 1363 1362
f 1362 1394 1395
f 1427 1395 1394
f 1394 1426 1427
f 1459 1427 1426
f 1426 1458 1459
f 1491 1459 1458
f 1458 1490 1491
f 1523 1491 1490
f 1490 1522 1523
f 1555 1523 1522
f 1522 1554 1555
f 1587 1555 1554
f 1554 1586 1587
f 1619 1587 1586
f 1586 1618 1619
f 1651 1619 1618
f 1618 1650 1651
f 1683 1651 1650
f 1650 1682 1683
f 724 692 691
f 691 723 724
f 756 724 723
f 723 755 756
f 788 756 755
f 755 787 788
f 820 788 787
f 787 819 820
f 852 820 819
f 819 851 852
f 884 852 851
f 851 883 884
f 916 884 883
f 883 915 916
f 948 916 915
f 915 947 948
f 980 948 947
f 947 979 980
f 1012 980 979
f 979 1011 1012
f 1044 1012 1011
f 1011 1043 1044
f 1076 1044 1043
f 1043 1075 1076
f 1108 1076 1075
f 1075 1107 1108
f 1140 1108 1107
f 1107 1139 1140
f 1172 1140 1139
f 1139 1171 1172
f 1204 1172 1171
f 1171 1203 1204
f 1236 1204 1203
f 1203 1235 1236
f 1268 1236 1235
f 1235 1267 1268
f 1300 1268 1267
f 1267 1299 1300
f 1332 1300 1299
f 1299 1331 1332
f 1364 1332 1331
f 1331 1363 1364
f 1396 1364 1363
f 1363 1395 1396
f 1428 1396 1395
f 1395 1427 1428
f 1460 1428 1427
f 1427 1459 1460
f 1492 1460 1459
f 1459 1491 1492
f 1524 1492 1491
f 1491 1523 1524
f 1556 1524 1523
f 1523 1555 1556
f 1588 1556 1555
f 1555 1587 1588
f 1620 1588 1587
f 1587 1619 1620
f 1652 1620 1619
f 1619 1651 1652
f 1684 1652 1651
f 1651 1683 1684
f 725 693 692
f 692 724 725
f 757 725 724
f 724 756 757
f 789 757 756
f 756 788 789
f 821 789 788
f 788 820 821
f 853 821 820
f 820 852 853
f 885 853 852
f 852 884 885
f 917 885 884
f 884 916 917
f 949 917 916
f 916 948 949
f 981 949 948
f 948 980 981
f 1013 981 980
f 980 1012 1013
f 1045 1013 1012
f 1012 1044 1045
f 1077 1045 1044
f 1044 1076 1077
f 1109 1077 1076
f 1076 1108 1109
f 1141 1109 1108
f 1108 1140 1141
f 1173 1141 1140
f 1140 1172 1173
f 1205 1173 1172
f 1172 1204 1205
f 1237 1205 1204
f 1204 1236 1237
f 1269 1237 1236
f 1236 1268 1269
f 1301 1269 1268
f 1268 1300 1301
f 1333 1301 1300
f 1300 1332 1333
f 1365 1333 1332
f 1332 1364 1365
f 1397 1365 1364
f 1364 1396 1397
f 1429 1397 1396
f 1396 1428 1429
f 1461 1429 1428
f 1428 1460 1461
f 1493 1461 1460
f 1460 1492 1493
f 1525 1493 1492
f 1492 1524 1525
f 1557 1525 1524
f 1524 1556 1557
f 1589 1557 1556
f 1556 1588 1589
f 1621 1589 1588
f 1588 1620 1621
f 1653 1621 1620
f 1620 1652 1653
f 1685 1653 1652
f 1652 1684 1685
f 726 694 693
f 693 725 726
f 758 726 725
f 725 757 758
f 790 758 757
f 757 789 790
f 822 790 789
f 789 821 822
f 854 822 821
f 821 853 854
f 886 854 853
f 853 885 886
f 918 886 885
f 885 917 918
f 950 918 917
f 917 949 950
f 982 950 949
f 949 981 982
f 1014 982 981
f 981 1013 1014
f 1046 1014 1013
f 1013 1045 1046
f 1078 1046 1045
f 1045 1077 1078
f 1110 1078 1077
f 1077 1109 1110
f 1142 1110 1109
f 1109 1141 1142
f 1174 1142 1141
f 1141 1173 1174
f 1206 1174 1173
f 1173 1205 1206
f 1238 1206 1205
f 1205 1237 1238
f 1270 1238 1237
f 1237 1269 1270
f 1302 1270 1269
f 1269 1301 1302
f 1334 1302 1301
f 1301 1333 1334
f 1366 1334 1333
f 1333 1365 1366
f 1398 1366 1365
f 1365 1397 1398
f 1430 1398 1397
f 1397 1429 1430
f 1462 1430 1429
f 1429 1461 1462
f 1494 1462 1461
f 1461 1493 1494
f 1526 1494 1493
f 1493 1525 1526
f 1558 1526 1525
f 1525 1557 1558
f 1590 1558 1557
f 1557 1589 1590
f 1622 1590 1589
f 1589 1621 1622
f 1654 1622 1621
f 1621 1653 1654
f 1686 1654 1653
f 1653 1685 1686
f 727 695 694
f 694 726 727
f 759 727 726
f 726 758 759
f 791 759 758
f 758 790 791
f 823 791 790
f 790 822 823
f 855 823 822
f 822 854 855
f 887 855 854
f 854 886 887
f 919 887 886
f 886 918 919
f 951 919 918
f 918 950 951
f 983 951 950
f 950 982 983
f 1015 983 982
f 982 1014 1015
f 1047 1015 1014
f 1014 1046 1047
f 1079 1047 1046
f 1046 1078 1079
f 1111 1079 1078
f 1078 1110 1111
f 1143 1111 1110
f 1110 1142 1143
f 1175 1143 1142
f 1142 1174 1175
f 1207 1175 1174
f 1174 1206 1207
f 1239 1207 1206
f 1206 1238 1239
f 1271 1239 1238
f 1238 1270 1271
f 1303 1271 1270
f 1270 1302 1303
f 1335 1303 1302
f 1302 1334 1335
f 1367 1335 1334
f 1334 1366 1367
f 1399 1367 1366
f 1366 1398 1399
f 1431 1399 1398
f 1398 1430 1431
f 1463 1431 1430
f 1430 1462 1463
f 1495 1463 1462
f 1462 1494 1495
f 1527 1495 1494
f 1494 1526 1527
f 1559 1527 1526
f 1526 1558 1559
f 1591 1559 1558
f 1558 1590 1591
f 1623 1591 1590
f 1590 1622 1623
f 1655 1623 1622
f 1622 1654 1655
f 1687 1655 1654
f 1654 1686 1687
f 728 696 695
f 695 727 728
f 760 728 727
f 727 759 760
f 792 760 759
f 759 791 792
f 824 792 791
f 791 823 824
f 856 824 823
f 823 855 856
f 888 856 855
f 855 887 888
f 920 888 887
f 887 919 920
f 952 920 919
f 919 951 952
f 984 952 951
f 951 983 984
f 1016 984 983
f 983 1015 1016
f 1048 1016 1015
f 1015 1047 1048
f 1080 1048 1047
f 1047 1079 1080
f 1112 1080 1079
f 1079 1111 1112
f 1144 1112 1111
f 1111 1143 1144
f 1176 1144 1143
f 1143 1175 1176
f 1208 1176 1175
f 1175 1207 1208
f 1240 1208 1207
f 1207 1239 1240
f 1272 1240 1239
f 1239 1271 1272
f 1304 1272 1271
f 1271 1303 1304
f 1336 1304 1303
f 1303 1335 1336
f 1368 1336 1335
f 1335 1367 1368
f 1400 1368 1367
f 1367 1399 1400
f 1432 1400 1399
f 1399 1431 1432
f 1464 1432 1431
f 1431 1463 1464
f 1496 1464 1463
f 1463 1495 1496
f 1528 1496 1495
f 1495 1527 1528
f 1560 1528 1527
f 1527 1559 1560
f 1592 1560 1559
f 1559 1591 1592
f 1624 1592 1591
f 1591 1623 1624
f 1656 1624 1623
f 1623 1655 1656
f 1688 1656 1655
f 1655 1687 1688
f 729 697 696
f 696 728 729
f 761 729 728
f 728 760 761
f 793 761 760
f 760 792 793
f 825 793 792
f 792 824 825
f 857 825 824
f 824 856 857
f 889 857 856
f 856 888 889
f 921 889 888
f 888 920 921
f 953 921 920
f 920 952 953
f 985 953 952
f 952 984 985
f 1017 985 984
f 984 1016 1017
f 1049 1017 1016
f 1016 1048 1049
f 1081 1049 1048
f 1048 1080 1081
f 1113 1081 1080
f 1080 1112 1113
f 1145 1113 1112
f 1112 1144 1145
f 1177 1145 1144
f 1144 1176 1177
f 1209 1177 1176
f 1176 1208 1209
f 1241 1209 1208
f 1208 1240 1241
f 1273 1241 1240
f 1240 1272 1273
f 1305 1273 1272
f 1272 1304 1305
f 1337 1305 1304
f 1304 1336 1337
f 1369 1337 1336
f 1336 1368 1369
f 1401 1369 1368
f 1368 1400 1401
f 1433 1401 1400
f 1400 1432 1433
f 1465 1433 1432
f 1432 1464 1465
f 1497 1465 1464
f 1464 1496 1497
f 1529 1497 1496
f 1496 1528 1529
f 1561 1529 1528
f 1528 1560 1561
f 1593 1561 1560
f 1560 1592 1593
f 1625 1593 1592
f 1592 1624 1625
f 1657 1625 1624
f 1624 1656 1657
f 1689 1657 1656
f 1656 1688 1689
f 730 698 697
f 697 729 730
f 762 730 729
f 729 761 762
f 794 762 761
f 761 793 794
f 826 794 793
f 793 825 826
f 858 826 825
f 825 857 858
f 890 858 857
f 857 889 890
f 922 890 889
f 889 921 922
f 954 922 921
f 921 953 954
f 986 954 953
f 953 985 986
f 1018 986 985
f 985 1017 1018
f 1050 1018 1017
f 1017 1049 1050
f 1082 1050 1049
f 1049 1081 1082
f 1114 1082 1081
f 1081 1113 1114
f 1146 1114 1113
f 1113 1145 1146
f 1178 1146 1145
f 1145 1177 1178
f 1210 1178 1177
f 1177 1209 1210
f 1242 1210 1209
f 1209 1241 1242
f 1274 1242 1241
f 1241 1273 1274
f 1306 1274 1273
f 1273 1305 1306
f 1338 1306 1305
f 1305 1337 1338
f 1370 1338 1337
f 1337 1369 1370
f 1402 1370 1369
f 1369 1401 1402
f 1434 1402 1401
f 1401 1433 1434
f 1466 1434 1433
f 1433 1465 1466
f 1498 1466 1465
f 1465 1497 1498
f 1530 1498 1497
f 1497 1529 1530
f 1562 1530 1529
f 1529 1561 1562
f 1594 1562 1561
f 1561 1593 1594
f 1626 1594 1593
f 1593 1625 1626
f 1658 1626 1625
f 1625 1657 1658
f 1690 1658 1657
f 1657 1689 1690
f 731 699 698
f 698 730 731
f 763 731 730
f 730 762 763
f 795 763 762
f 762 794 795
f 827 795 794
f 794 826 827
f 859 827 826
f 826 858 859
f 891 859 858
f 858 890 891
f 923 891 890
f 890 922 923
f 955 923 922
f 922 954 955
f 987 955 954
f 954 986 987
f 1019 987 986
f 986 1018 1019
f 1051 1019 1018
f 1018 1050 1051
f 1083 1051 1050
f 1050 1082 1083
f 1115 1083 1082
f 1082 1114 1115
f 1147 1115 1114
f 1114 1146 1147
f 1179 1147 1146
f 1146 1178 1179
f 1211 1179 1178
f 1178 1210 1211
f 1243 1211 1210
f 1210 1242 1243
f 1275 1243 1242
f 1242 1274 1275
f 1307 1275 1274
f 1274 1306 1307
f 1339 1307 1306
f 1306 1338 1339
f 1371 1339 1338
f 1338 1370 1371
f 1403 1371 1370
f 1370 1402 1403
f 1435 1403 1402
f 1402 1434 1435
f 1467 1435 1434
f 1434 1466 1467
f 1499 1467 1466
f 1466 1498 1499
f 1531 1499 1498
f 1498 1530 1531
f 1563 1531 1530
f 1530 1562 1563
f 1595 1563 1562
f 1562 1594 1595
f 1627 1595 1594
f 1594 1626 1627
f 1659 1627 1626
f 1626 1658 1659
f 1691 1659 1658
f 1658 1690 1691
f 732 700 699
f 699 731 732
f 764 732 731
f 731 763 764
f 796 764 763
f 763 795 796
f 828 796 795
f 795 827 828
f 860 828 827
f 827 859 860
f 892 860 859
f 859 891 892
f 924 892 891
f 891 923 924
f 956 924 923
f 923 955 956
f 988 956 955
f 955 987 988
f 1020 988 987
f 987 1019 1020
f 1052 1020 1019
f 1019 1051 1052
f 1084 1052 1051
f 1051 1083 1084
f 1116 1084 1083
f 1083 1115 1116
f 1148 1116 1115
f 1115 1147 1148
f 1180 1148 1147
f 1147 1179 1180
f 1212 1180 1179
f 1179 1211 1212
f 1244 1212 1211
f 1211 1243 1244
f 1276 1244 1243
f 1243 1275 1276
f 1308 1276 1275
f 1275 1307 1308
f 1340 1308 1307
f 1307 1339 1340
f 1372 1340 1339
f 1339 1371 1372
f 1404 1372 1371
f 1371 1403 1404
f 1436 1404 1403
f 1403 1435 1436
f 1468 1436 1435
f 1435 1467 1468
f 1500 1468 1467
f 1467 1499 1500
f 1532 1500 1499
f 1499 1531 1532
f 1564 1532 1531
f 1531 1563 1564
f 1596 1564 1563
f 1563 1595 1596
f 1628 1596 1595
f 1595 1627 1628
f 1660 1628 1627
f 1627 1659 1660
f 1692 1660 1659
f 1659 1691 1692
f 733 701 700
f 700 732 733
f 765 733 732
f 732 764 765
f 797 765 764
f 764 796 797
f 829 797 796
f 796 828 829
f 861 829 828
f 828 860 861
f 893 861 860
f 860 892 893
f 925 893 892
f 892 924 925
f 957 925 924
f 924 956 957
f 989 957 956
f 956 988 989
f 1021 989 988
f 988 1020 1021
f 1053 1021 1020
f 1020 1052 1053
f 1085 1053 1052
f 1052 1084 1085
f 1117 1085 1084
f 1084 1116 1117
f 1149 1117 1116
f 1116 1148 1149
f 1181 1149 1148
f 1148 1180 1181
f 1213 1181 1180
f 1180 1212 1213
f 1245 1213 1212
f 1212 1244 1245
f 1277 1245 1244
f 1244 1276 1277
f 1309 1277 1276
f 1276 1308 1309
f 1341 1309 1308
f 1308 1340 1341
f 1373 1341 1340
f 1340 1372 1373
f 1405 1373 1372
f 1372 1404 1405
f 1437 1405 1404
f 1404 1436 1437
f 1469 1437 1436
f 1436 1468 1469
f 1501 1469 1468
f 1468 1500 1501
f 1533 1501 1500
f 1500 1532 1533
f 1565 1533 1532
f 1532 1564 1565
f 1597 1565 1564
f 1564 1596 1597
f 1629 1597 1596
f 1596 1628 1629
f 1661 1629 1628
f 1628 1660 1661
f 1693 1661 1660
f 1660 1692 1693
f 734 702 701
f 701 733 734
f 766 734 733
f 733 765 766
f 798 766 765
f 765 797 798
f 830 798 797
f 797 829 830
f 862 830 829
f 829 861 862
f 894 862 861
f 861 893 894
f 926 894 893
f 893 925 926
f 958 926 925
f 925 957 958
f 990 958 957
f 957 989 990
f 1022 990 989
f 989 1021 1022
f 1054 1022 1021
f 1021 1053 1054
f 1086 1054 1053
f 1053 1085 1086
f 1118 1086 1085
f 1085 1117 1118
f 1150 1118 1117
f 1117 1149 1150
f 1182 1150 1149
f 1149 1181 1182
f 1214 1182 1181
f 1181 1213 1214
f 1246 1214 1213
f 1213 1245 1246
f 1278 1246 1245
f 1245 1277 1278
f 1310 1278 1277
f 1277 1309 1310
f 1342 1310 1309
f 1309 1341 1342
f 1374 1342 1341
f 1341 1373 1374
f 1406 1374 1373
f 1373 1405 1406
f 1438 1406 1405
f 1405 1437 1438
f 1470 1438 1437
f 1437 1469 1470
f 1502 1470 1469
f 1469 1501 1502
f 1534 1502 1501
f 1501 1533 1534
f 1566 1534 1533
f 1533 1565 1566
f 1598 1566 1565
f 1565 1597 1598
f 1630 1598 1597
f 1597 1629 1630
f 1662 1630 1629
f 1629 1661 1662
f 1694 1662 1661
f 1661 1693 1694
f 735 703 702
f 702 734 735
f 767 735 734
f 734 766 767
f 799 767 766
f 766 798 799
f 831 799 798
f 798 830 831
f 863 831 830
f 830 862 863
f 895 863 862
f 862 894 895
f 927 895 894
f 894 926 927
f 959 927 926
f 926 958 959
f 991 959 958
f 958 990 991
f 1023 991 990
f 990 1022 1023
f 1055 1023 1022
f 1022 1054 1055
f 1087 1055 1054
f 1054 1086 1087
f 1119 1087 1086
f 1086 1118 1119
f 1151 1119 1118
f 1118 1150 1151
f 1183 1151 1150
f 1150 1182 1183
f 1215 1183 1182
f 1182 1214 1215
f 1247 1215 1214
f 1214 1246 1247
f 1279 1247 1246
f 1246 1278 1279
f 1311 1279 1278
f 1278 1310 1311
f 1343 1311 1310
f 1310 1342 1343
f 1375 1343 1342
f 1342 1374 1375
f 1407 1375 1374
f 1374 1406 1407
f 1439 1407 1406
f 1406 1438 1439
f 1471 1439 1438
f 1438 1470 1471
f 1503 1471 1470
f 1470 1502 1503
f 1535 1503 1502
f 1502 1534 1535
f 1567 1535 1534
f 1534 1566 1567
f 1599 1567 1566
f 1566 1598 1599
f 1631 1599 1598
f 1598 1630 1631
f 1663 1631 1630
f 1630 1662 1663
f 1695 1663 1662
f 1662 1694 1695
f 736 704 703
f 703 735 736
f 768 736 735
f 735 767 768
f 800 768 767
f 767 799 800
f 832 800 799
f 799 831 832
f 864 832 831
f 831 863 864
f 896 864 863
f 863 895 896
f 928 896 895
f 895 927 928
f 960 928 927
f 927 959 960
f 992 960 959
f 959 991 992
f 1024 992 991
f 991 1023 1024
f 1056 1024 1023
f 1023 1055 1056
f 1088 1056 1055
f 1055 1087 1088
f 1120 1088 1087
f 1087 1119 1120
f 1152 1120 1119
f 1119 1151 1152
f 1184 1152 1151
f 1151 1183 1184
f 1216 1184 1183
f 1183 1215 1216
f 1248 1216 1215
f 1215 1247 1248
f 1280 1248 1247
f 1247 1279 1280
f 1312 1280 1279
f 1279 1311 1312
f 1344 1312 1311
f 1311 1343 1344
f 1376 1344 1343
f 1343 1375 1376
f 1408 1376 1375
f 1375 1407 1408
f 1440 1408 1407
f 1407 1439 1440
f 1472 1440 1439
f 1439 1471 1472
f 1504 1472 1471
f 1471 1503 1504
f 1536 1504 1503
f 1503 1535 1536
f 1568 1536 1535
f 1535 1567 1568
f 1600 1568 1567
f 1567 1599 1600
f 1632 1600 1599
f 1599 1631 1632
f 1664 1632 1631
f 1631 1663 1664
f 1696 1664 1663
f 1663 1695 1696
f 737 705 704
f 704 736 737
f 769 737 736
f 736 768 769
f 801 769 768
f 768 800 801
f 833 801 800
f 800 832 833
f 865 833 832
f 832 864 865
f 897 865 864
f 864 896 897
f 929 897 896
f 896 928 929
f 961 929 928
f 928 960 961
f 993 961 960
f 960 992 993
f 1025 993 992
f 992 1024 1025
f 1057 1025 1024
f 1024 1056 1057
f 1089 1057 1056
f 1056 1088 1089
f 1121 1089 1088
f 1088 1120 1121
f 1153 1121 1120
f 1120 1152 1153
f 1185 1153 1152
f 1152 1184 1185
f 1217 1185 1184
f 1184 1216 1217
f 1249 1217 1216
f 1216 1248 1249
f 1281 1249 1248
f 1248 1280 1281
f 1313 1281 1280
f 1280 1312 1313
f 1345 1313 1312
f 1312 1344 1345
f 1377 1345 1344
f 1344 1376 1377
f 1409 1377 1376
f 1376 1408 1409
f 1441 1409 1408
f 1408 1440 1441
f 1473 1441 1440
f 1440 1472 1473
f 1505 1473 1472
f 1472 1504 1505
f 1537 1505 1504
f 1504 1536 1537
f 1569 1537 1536
f 1536 1568 1569
f 1601 1569 1568
f 1568 1600 1601
f 1633 1601 1600
f 1600 1632 1633
f 1665 1633 1632
f 1632 1664 1665
f 1697 1665 1664
f 1664 1696 1697
f 738 706 705
f 705 737 738
f 770 738 737
f 737 769 770
f 802 770 769
f 769 801 802
f 834 802 801
f 801 833 834
f 866 834 833
f 833 865 866
f 898 866 865
f 865 897 898
f 930 898 897
f 897 929 930
f 962 930 929
f 929 961 962
f 994 962 961
f 961 993 994
f 1026 994 993
f 993 1025 1026
f 1058 1026 1025
f 1025 1057 1058
f 1090 1058 1057
f 1057 1089 1090
f 1122 1090 1089
f 1089 1121 1122
f 1154 1122 1121
f 1121 1153 1154
f 1186 1154 1153
f 1153 1185 1186
f 1218 1186 1185
f 1185 1217 1218
f 1250 1218 1217
f 1217 1249 1250
f 1282 1250 1249
f 1249 1281 1282
f 1314 1282 1281
f 1281 1313 1314
f 1346 1314 1313
f 1313 1345 1346
f 1378 1346 1345
f 1345 1377 1378
f 1410 1378 1377
f 1377 1409 1410
f 1442 1410 1409
f 1409 1441 1442
f 1474 1442 1441
f 1441 1473 1474
f 1506 1474 1473
f 1473 1505 1506
f 1538 1506 1505
f 1505 1537 1538
f 1570 1538 1537
f 1537 1569 1570
f 1602 1570 1569
f 1569 1601 1602
f 1634 1602 1601
f 1601 1633 1634
f 1666 1634 1633
f 1633 1665 1666
f 1698 1666 1665
f 1665 1697 1698
f 739 707 706
f 706 738 739
f 771 739 738
f 738 770 771
f 803 771 770
f 770 802 803
f 835 803 802
f 802 834 835
f 867 835 834
f 834 866 867
f 899 867 866
f 866 898 899
f 931 899 898
f 898 930 931
f 963 931 930
f 930 962 963
f 995 963 962
f 962 994 995
f 1027 995 994
f 994 1026 1027
f 1059 1027 1026
f 1026 1058 1059
f 1091 1059 1058
f 1058 1090 1091
f 1123 1091 1090
f 1090 1122 1123
f 1155 1123 1122
f 1122 1154 1155
f 1187 1155 1154
f 1154 1186 1187
f 1219 1187 1186
f 1186 1218 1219
f 1251 1219 1218
f 1218 1250 1251
f 1283 1251 1250
f 1250 1282 1283
f 1315 1283 1282
f 1282 1314 1315
f 1347 1315 1314
f 1314 1346 1347
f 1379 1347 1346
f 1346 1378 1379
f 1411 1379 1378
f 1378 1410 1411
f 1443 1411 1410
f 1410 1442 1443
f 1475 1443 1442
f 1442 1474 1475
f 1507 1475 1474
f 1474 1506 1507
f 1539 1507 1506
f 1506 1538 1539
f 1571 1539 1538
f 1538 1570 1571
f 1603 1571 1570
f 1570 1602 1603
f 1635 1603 1602
f 1602 1634 1635
f 1667 1635 1634
f 1634 1666 1667
f 1699 1667 1666
f 1666 1698 1699
f 740 708 707
f 707 739 740
f 772 740 739
f 739 771 772
f 804 772 771
f 771 803 804
f 836 804 803
f 803 835 836
f 868 836 835
f 835 867 868
f 900 868 867
f 867 899 900
f 932 900 899
f 899 931 932
f 964 932 931
f 931 963 964
f 996 964 963
f 963 995 996
f 1028 996 995
f 995 1027 1028
f 1060 1028 1027
f 1027 1059 1060
f 1092 1060 1059
f 1059 1091 1092
f 1124 1092 1091
f 1091 1123 1124
f 1156 1124 1123
f 1123 1155 1156
f 1188 1156 1155
f 1155 1187 1188
f 1220 1188 1187
f 1187 1219 1220
f 1252 1220 1219
f 1219 1251 1252
f 1284 1252 1251
f 1251 1283 1284
f 1316 1284 1283
f 1283 1315 1316
f 1348 1316 1315
f 1315 1347 1348
f 1380 1348 1347
f 1347 1379 1380
f 1412 1380 1379
f 1379 1411 1412
f 1444 1412 1411
f 1411 1443 1444
f 1476 1444 1443
f 1443 1475 1476
f 1508 1476 1475
f 1475 1507 1508
f 1540 1508 1507
f 1507 1539 1540
f 1572 1540 1539
f 1539 1571 1572
f 1604 1572 1571
f 1571 1603 1604
f 1636 1604 1603
f 1603 1635 1636
f 1668 1636 1635
f 1635 1667 1668
f 1700 1668 1667
f 1667 1699 1700
f 741 709 708
f 708 740 741
f 773 741 740
f 740 772 773
f 805 773 772
f 772 804 805
f 837 805 804
f 804 836 837
f 869 837 836
f 836 868 869
f 901 869 868
f 868 900 901
f 933 901 900
f 900 932 933
f 965 933 932
f 932 964 965
f 997 965 964
f 964 996 997
f 1029 997 996
f 996 1028 1029
f 1061 1029 1028
f 1028 1060 1061
f 1093 1061 1060
f 1060 1092 1093
f 1125 1093 1092
f 1092 1124 1125
f 1157 1125 1124
f 1124 1156 1157
f 1189 1157 1156
f 1156 1188 1189
f 1221 1189 1188
f 1188 1220 1221
f 1253 1221 1220
f 1220 1252 1253
f 1285 1253 1252
f 1252 1284 1285
f 1317 1285 1284
f 1284 1316 1317
f 1349 1317 1316
f 1316 1348 1349
f 1381 1349 1348
f 1348 1380 1381
f 1413 1381 1380
f 1380 1412 1413
f 1445 1413 1412
f 1412 1444 1445
f 1477 1445 1444
f 1444 1476 1477
f 1509 1477 1476
f 1476 1508 1509
f 1541 1509 1508
f 1508 1540 1541
f 1573 1541 1540
f 1540 1572 1573
f 1605 1573 1572
f 1572 1604 1605
f 1637 1605 1604
f 1604 1636 1637
f 1669 1637 1636
f 1636 1668 1669
f 1701 1669 1668
f 1668 1700 1701
f 742 710 709
f 709 741 742
f 774 742 741
f 741 773 774
f 806 774 773
f 773 805 806
f 838 806 805
f 805 837 838
f 870 838 837
f 837 869 870
f 902 870 869
f 869 901 902
f 934 902 901
f 901 933 934
f 966 934 933
f 933 965 966
f 998 966 965
f 965 997 998
f 1030 998 997
f 997 1029 1030
f 1062 1030 1029
f 1029 1061 1062
f 1094 1062 1061
f 1061 1093 1094
f 1126 1094 1093
f 1093 1125 1126
f 1158 1126 1125
f 1125 1157 1158
f 1190 1158 1157
f 1157 1189 1190
f 1222 1190 1189
f 1189 1221 1222
f 1254 1222 1221
f 1221 1253 1254
f 1286 1254 1253
f 1253 1285 1286
f 1318 1286 1285
f 1285 1317 1318
f 1350 1318 1317
f 1317 1349 1350
f 1382 1350 1349
f 1349 1381 1382
f 1414 1382 1381
f 1381 1413 1414
f 1446 1414 1413
f 1413 1445 1446
f 1478 1446 1445
f 1445 1477 1478
f 1510 1478 1477
f 1477 1509 1510
f 1542 1510 1509
f 1509 1541 1542
f 1574 1542 1541
f 1541 1573 1574
f 1606 1574 1573
f 1573 1605 1606
f 1638 1606 1605
f 1605 1637 1638
f 1670 1638 1637
f 1637 1669 1670
f 1702 1670 1669
f 1669 1701 1702
f 743 711 710
f 710 742 743
f 775 743 742
f 742 774 775
f 807 775 774
f 774 806 807
f 839 807 806
f 806 838 839
f 871 839 838
f 838 870 871
f 903 871 870
f 870 902 903
f 935 903 902
f 902 934 935
f 967 935 934
f 934 966 967
f 999 967 966
f 966 998 999
f 1031 999 998
f 998 1030 1031
f 1063 1031 1030
f 1030 1062 1063
f 1095 1063 1062
f 1062 1094 1095
f 1127 1095 1094
f 1094 1126 1127
f 1159 1127 1126
f 1126 1158 1159
f 1191 1159 1158
f 1158 1190 1191
f 1223 1191 1190
f 1190 1222 1223
f 1255 1223 1222
f 1222 1254 1255
f 1287 1255 1254
f 1254 1286 1287
f 1319 1287 1286
f 1286 1318 1319
f 1351 1319 1318
f 1318 1350 1351
f 1383 1351 1350
f 1350 1382 1383
f 1415 1383 1382
f 1382 1414 1415
f 1447 1415 1414
f 1414 1446 1447
f 1479 1447 1446
f 1446 1478 1479
f 1511 1479 1478
f 1478 1510 1511
f 1543 1511 1510
f 1510 1542 1543
f 1575 1543 1542
f 1542 1574 1575
f 1607 1575 1574
f 1574 1606 1607
f 1639 1607 1606
f 1606 1638 1639
f 1671 1639 1638
f 1638 1670 1671
f 1703 1671 1670
f 1670 1702 1703
f 744 712 711
f 711 743 744
f 776 744 743
f 743 775 776
f 808 776 775
f 775 807 808
f 840 808 807
f 807 839 840
f 872 840 839
f 839 871 872
f 904 872 871
f 871 903 904
f 936 904 903
f 903 935 936
f 968 936 935
f 935 967 968
f 1000 968 967
f 967 999 1000
f 1032 1000 999
f 999 1031 1032
f 1064 1032 1031
f 1031 1063 1064
f 1096 1064 1063
f 1063 1095 1096
f 1128 1096 1095
f 1095 1127 1128
f 1160 1128 1127
f 1127 1159 1160
f 1192 1160 1159
f 1159 1191 1192
f 1224 1192 1191
f 1191 1223 1224
f 1256 1224 1223
f 1223 1255 1256
f 1288 1256 1255
f 1255 1287 1288
f 1320 1288 1287
f 1287 1319 1320
f 1352 1320 1319
f 1319 1351 1352
f 1384 1352 1351
f 1351 1383 1384
f 1416 1384 1383
f 1383 1415 1416
f 1448 1416 1415
f 1415 1447 1448
f 1480 1448 1447
f 1447 1479 1480
f 1512 1480 1479
f 1479 1511 1512
f 1544 1512 1511
f 1511 1543 1544
f 1576 1544 1543
f 1543 1575 1576
f 1608 1576 1575
f 1575 1607 1608
f 1640 1608 1607
f 1607 1639 1640
f 1672 1640 1639
f 1639 1671 1672
f 1704 1672 1671
f 1671 1703 1704
f 745 713 712
f 712 744 745
f 777 745 744
f 744 776 777
f 809 777 776
f 776 808 809
f 841 809 808
f 808 840 841
f 873 841 840
f 840 872 873
f 905 873 872
f 872 904 905
f 937 905 904
f 904 936 937
f 969 937 936
f 936 968 969
f 1001 969 968
f 968 1000 1001
f 1033 1001 1000
f 1000 1032 1033
f 1065 1033 1032
f 1032 1064 1065
f 1097 1065 1064
f 1064 1096 1097
f 1129 1097 1096
f 1096 1128 1129
f 1161 1129 1128
f 1128 1160 1161
f 1193 1161 1160
f 1160 1192 1193
f 1225 1193 1192
f 1192 1224 1225
f 1257 1225 1224
f 1224 1256 1257
f 1289 1257 1256
f 1256 1288 1289
f 1321 1289 1288
f 1288 1320 1321
f 1353 1321 1320
f 1320 1352 1353
f 1385 1353 1352
f 1352 1384 1385
f 1417 1385 1384
f 1384 1416 1417
f 1449 1417 1416
f 1416 1448 1449
f 1481 1449 1448
f 1448 1480 1481
f 1513 1481 1480
f 1480 1512 1513
f 1545 1513 1512
f 1512 1544 1545
f 1577 1545 1544
f 1544 1576 1577
f 1609 1577 1576
f 1576 1608 1609
f 1641 1609 1608
f 1608 1640 1641
f 1673 1641 1640
f 1640 1672 1673
f 1705 1673 1672
f 1672 1704 1705
