v 5552.32 127.033 684.399
v 5552.53 128.909 684.659
v 5551.7 128.919 685.223
v 5551.4 127.033 685.072
v 5553.6 127.013 684.571
v 5553.39 128.832 685.128
v 5551.1 128.821 686.064
v 5550.95 127.019 686.209
v 5551.75 128.712 687.409
v 5552.32 126.985 687.519
v 5551.96 130.12 685.602
v 5551.8 129.702 685.377
v 5552.6 130.246 685.308
v 5553.22 130.075 685.47
v 5551.31 129.582 686.14
v 5551.52 130 686.226
v 5552.02 129.388 687.178
v 5552.09 130.043 687.033
v 5551.98 130.707 686.488
v 5552.17 130.792 685.916
v 5552.94 130.736 686.056
v 5552.44 130.718 686.698
v 5552.3 130.538 687.091
v 5552.66 130.607 685.598
v 5556.25 126.976 682.144
v 5555.75 128.513 682.553
v 5553.49 128.651 682.824
v 5553.28 126.976 682.43
v 5552.04 128.504 683.876
v 5551.5 126.976 683.887
v 5552.47 128.369 685.6
v 5552.09 126.976 685.982
v 5555.46 129.171 682.896
v 5553.83 129.085 683.344
v 5556.33 129.083 684.235
v 5557.55 126.976 683.96
v 5552.6 129.027 684.228
v 5552.84 129.49 685.394
v 5553.92 129.717 683.407
v 5553.31 129.943 685.168
v 5552.85 129.659 684.566
v 5555.28 129.594 683.46
v 5554.03 129.908 683.64
v 5555.5 129.755 684.336
v 5558.02 126.976 682.702
v 5557.88 129.156 683.541
v 5556.24 128.981 683.705
v 5555.59 126.976 682.714
v 5560.62 126.976 683.885
v 5558.95 129.138 684.185
v 5560.47 126.976 685.498
v 5559.29 128.652 685.097
v 5555.68 128.976 684.166
v 5554.67 126.976 684.156
v 5556.22 129.207 684.255
v 5557.81 129.308 683.719
v 5558.55 129.266 684.779
v 5560.42 128.839 686.193
v 5560.86 128.942 685.591
v 5561.81 127.018 685.732
v 5560.97 127.004 686.918
v 5560.89 128.618 684.785
v 5560.19 128.549 684.202
v 5560.15 127.016 683.821
v 5561.23 127.021 684.41
v 5558.86 128.433 684.893
v 5558.69 126.995 685.036
v 5560.57 129.158 685.616
v 5560.31 129.27 685.084
v 5559.76 129.222 684.827
v 5559.12 129.121 685.076
v 5560.08 129.236 685.833
v 5559.5 129.228 685.258
v 5562.44 126.978 686.788
v 5562.2 128.862 686.95
v 5561.83 128.892 686.018
v 5561.98 127.002 685.742
v 5562 126.963 687.996
v 5561.56 128.8 687.685
v 5561.13 128.823 685.25
v 5560.96 127.028 685.056
v 5559.68 128.759 685.596
v 5559.38 127.042 685.392
v 5561.68 129.68 686.094
v 5562.09 129.334 686.898
v 5561.6 130.22 686.894
v 5561.44 130.105 686.204
v 5561.17 130.058 687.423
v 5561.04 129.586 685.448
v 5560.93 130.007 685.633
v 5559.87 129.427 685.922
v 5560.02 130.076 686.027
v 5560.6 130.722 686.034
v 5561.12 130.786 686.342
v 5560.81 130.735 687.064
v 5560.29 130.74 686.437
v 5559.97 130.573 686.138
v 5561.32 130.59 686.894
v 5562.73 126.693 691.187
v 5562.14 129.185 690.634
v 5562.7 129.409 688.733
v 5563.15 126.693 688.705
v 5562.3 129.17 687.23
v 5562.5 126.693 686.805
v 5560.59 128.951 686.977
v 5560.34 126.693 686.554
v 5561.87 130.252 690.259
v 5562.09 130.112 688.825
v 5560.67 130.109 690.537
v 5560.24 126.693 691.616
v 5560.6 129.118 690.963
v 5561.76 130.018 687.551
v 5560.75 130.769 687.331
v 5562 131.137 688.875
v 5560.61 131.503 687.798
v 5561.35 131.042 687.634
v 5561.42 130.938 689.925
v 5561.74 131.447 688.879
v 5560.59 131.198 689.798
v 5560.05 126.976 694.697
v 5560 128.738 693.827
v 5561.85 128.897 692.481
v 5562.22 126.976 692.737
v 5562.66 128.728 690.88
v 5563.13 126.976 690.624
v 5561.49 128.573 689.545
v 5561.65 126.976 689.033
v 5560.07 129.493 693.322
v 5561.31 129.394 692.177
v 5558.77 129.392 692.699
v 5557.81 126.976 693.507
v 5558.42 128.691 693.053
v 5562 129.327 690.824
v 5561.25 129.858 689.899
v 5561.2 130.119 692.162
v 5560.93 130.378 690.319
v 5561.62 130.052 690.639
v 5559.97 129.978 692.738
v 5561 130.338 692.003
v 5559.37 130.162 692.062
v 5556.93 128.94 693.063
v 5557.25 129.048 693.74
v 5556.66 127.019 694.505
v 5556.03 127.004 693.193
v 5557.94 128.707 694.154
v 5558.79 128.634 693.824
v 5559.14 127.017 693.981
v 5558.1 127.022 694.636
v 5558.82 128.512 692.334
v 5558.79 126.995 692.108
v 5557.95 128.971 693.799
v 5558.57 128.897 693.589
v 5558.54 129.237 692.472
v 5558.45 129.344 693.152
v 5557.96 129.395 693.504
v 5557.41 129.358 692.939
v 5558.2 129.35 692.712
v 5557.37 129.277 693.471
v 5552.22 126.976 694.485
v 5552.93 128.401 693.976
v 5555.06 128.529 694.806
v 5555.04 126.976 695.251
v 5556.84 128.392 694.619
v 5557.31 126.976 694.876
v 5557.33 128.267 692.911
v 5557.85 126.976 692.769
v 5553.39 129.011 693.763
v 5555.02 128.931 694.186
v 5553.21 128.929 692.328
v 5552.01 126.976 691.955
v 5552.72 128.362 692.226
v 5556.53 128.877 694.035
v 5556.91 129.306 692.904
v 5554.98 129.517 694.086
v 5556.38 129.597 692.862
v 5556.48 129.333 693.617
v 5553.83 129.503 693.364
v 5555 129.694 693.831
v 5554.07 129.652 692.492
v 5552.76 129.204 692.247
v 5552.53 129.36 692.767
v 5551.69 127.088 692.94
v 5552.13 127.008 691.91
v 5552.62 128.991 693.38
v 5553.23 128.891 693.679
v 5553.23 127.058 694.028
v 5552.33 127.098 693.8
v 5554.11 128.68 692.926
v 5554.14 126.942 692.858
v 5552.85 129.275 693.19
v 5553.28 129.18 693.424
v 5553.92 129.512 692.807
v 5553.49 129.666 693.106
v 5553.04 129.743 693.018
v 5553.1 129.674 692.426
v 5553.6 129.649 692.636
v 5552.76 129.607 692.682
v 5551.04 127.063 691.837
v 5551.34 129.161 691.59
v 5551.89 129.179 692.429
v 5551.7 127.071 692.77
v 5551.23 127.015 690.566
v 5551.82 129.051 690.744
v 5552.72 129.068 693.046
v 5552.83 127.048 693.244
v 5554.07 128.915 692.423
v 5554.31 126.976 692.603
v 5552.3 130.516 692.144
v 5552.06 130.053 692.309
v 5551.73 129.74 691.568
v 5552.02 130.649 691.495
v 5551.48 129.506 691.611
v 5552.33 130.442 690.896
v 5551.82 129.051 690.744
v 5552.82 129.916 692.817
v 5552.92 130.38 692.604
v 5553.86 129.671 692.303
v 5553.73 130.406 692.165
v 5553.2 131.162 692.131
v 5552.63 131.261 691.93
v 5552.78 131.182 691.163
v 5553.26 131.163 691.869
v 5552.32 131.049 691.432
v 5551.48 129.506 691.611
v 5558.95 129.344 691.965
v 5558.55 129.476 691.638
v 5558.72 127.022 690.925
v 5559.4 127.004 691.258
v 5557.94 129.063 691.559
v 5557.44 128.974 692.048
v 5557.15 127.02 692.044
v 5557.68 127.026 691.271
v 5557.8 128.828 692.938
v 5557.96 126.993 693.246
v 5558.03 129.382 691.812
v 5557.67 129.293 692.146
v 5558.03 129.704 692.917
v 5557.89 129.833 692.413
v 5558.12 129.895 692.019
v 5558.67 129.851 692.249
v 5558.19 129.84 692.646
v 5558.54 129.752 691.863
v 5560.81 130.02 690.314
v 5559.21 130.02 691.231
v 5560.14 126.976 690.128
v 5558.73 126.976 690.921
v 5558.06 126.976 692.142
v 5558.3 130.02 692.597
v 5560.33 126.976 688.882
v 5560.77 130.02 688.901
v 5560.18 126.976 687.595
v 5560.74 130.02 687.458
v 5559.46 126.976 686.314
v 5559.86 130.02 685.989
v 5558.2 126.976 685.361
v 5558.46 130.02 684.895
v 5556.65 126.976 685.484
v 5556.7 130.02 685.123
v 5555.06 126.976 685.249
v 5554.89 130.02 684.759
v 5553.58 126.976 685.862
v 5553.27 130.02 685.476
v 5552.59 126.976 687.277
v 5552.22 130.02 687.067
v 5552.6 126.976 690.126
v 5553.54 126.976 691.578
v 5553.23 130.02 691.965
v 5552.23 130.02 690.34
v 5554.96 126.976 692.417
v 5554.79 130.02 692.315
v 5554 130.02 692.265
v 5556.55 130.02 692.023
v 5555.67 130.02 692.294
v 5556.52 126.976 691.87
v 5558.13 131.467 692.191
v 5559.46 131.442 691.359
v 5560.22 131.462 690.186
v 5560.14 131.448 688.895
v 5560.27 131.621 687.489
v 5559.57 131.677 686.102
v 5558.28 131.675 685.285
v 5556.74 131.66 685.222
v 5555.09 131.699 685.054
v 5553.68 131.737 685.841
v 5552.8 131.791 687.238
v 5553.56 131.734 691.681
v 5552.72 131.86 690.296
v 5554.99 131.653 692.424
v 5554.19 131.694 692.137
v 5555.79 131.586 692.32
v 5556.58 131.519 692.217
v 5558.85 132.41 690.859
v 5557.86 132.505 691.531
v 5559.45 132.567 689.941
v 5559.4 132.414 688.89
v 5559.5 132.823 687.668
v 5558.96 132.84 686.604
v 5557.99 132.805 685.991
v 5556.8 132.774 685.839
v 5555.47 132.849 685.915
v 5554.34 132.943 686.493
v 5553.64 133.065 687.551
v 5552.56 131.941 688.75
v 5553.43 133.188 688.781
v 5553.55 133.062 690.054
v 5554.22 132.939 691.122
v 5555.39 132.788 691.664
v 5556.67 132.634 691.796
v 5556.73 133.102 690.441
v 5557.86 133.059 689.951
v 5558.34 133.268 688.877
v 5557.92 133.189 687.7
v 5556.79 133.103 687.27
v 5555.54 133.306 687.657
v 5555.04 133.526 688.82
v 5555.5 133.306 689.978
v 5556.77 133.197 688.855
v 5558.56 128.379 693.181
v 5558.44 130.443 692.915
v 5560.13 130.443 691.856
v 5560.26 128.379 692.052
v 5561.17 130.443 690.439
v 5561.29 128.379 690.546
v 5561.12 130.443 688.907
v 5561.23 128.379 688.91
v 5561.21 130.443 687.31
v 5561.34 128.379 687.233
v 5560.26 130.443 685.716
v 5560.39 128.379 685.557
v 5558.61 130.443 684.561
v 5558.75 128.379 684.31
v 5556.72 130.443 684.127
v 5556.73 128.379 683.836
v 5554.74 130.443 684.179
v 5554.64 128.379 683.882
v 5552.99 130.443 685.19
v 5552.7 128.379 684.966
v 5551.85 130.443 686.917
v 5551.69 128.379 686.823
v 5551.71 128.379 690.55
v 5551.86 130.443 690.467
v 5552.94 130.443 692.23
v 5552.94 128.379 692.45
v 5554.62 130.443 693.249
v 5554.51 128.379 693.54
v 5556.53 130.443 693.185
v 5556.53 128.379 693.434
v 5558.26 131.519 692.475
v 5559.7 131.492 691.572
v 5560.53 131.514 690.301
v 5560.56 131.565 688.902
v 5560.58 131.686 687.374
v 5559.82 131.747 685.869
v 5558.42 131.773 684.983
v 5556.76 131.757 684.663
v 5554.96 132.02 684.733
v 5553.43 132.061 685.586
v 5552.47 132.12 687.102
v 5552.48 132.118 690.328
v 5553.4 132.058 691.856
v 5554.86 131.97 692.728
v 5556.58 131.604 692.765
v 5557.96 132.817 691.76
v 5559.04 132.489 691.03
v 5559.69 132.591 690.034
v 5559.81 132.78 688.898
v 5559.75 132.869 687.568
v 5559.52 132.351 686.143
v 5559.15 132.956 686.414
v 5558.33 132.458 685.284
v 5558.1 133.143 685.75
v 5556.79 132.433 685.063
v 5556.82 133.109 685.585
v 5555.37 133.19 685.667
v 5554.15 133.292 686.293
v 5553.39 133.425 687.442
v 5553.16 133.558 688.775
v 5552.21 132.206 688.743
v 5553.39 133.421 690.065
v 5554.12 133.288 691.223
v 5555.29 133.124 691.904
v 5556.67 132.957 692.047
v 5557.4 133.54 690.426
v 5557.97 133.322 690.046
v 5558.35 133.343 689.505
v 5559.15 133.268 688.889
v 5558.49 133.479 688.88
v 5558.38 133.45 688.184
v 5559.06 133.298 687.876
v 5558.03 133.462 687.604
v 5557.47 133.637 687.235
v 5557.79 133.528 686.492
v 5556.81 133.594 687.137
v 5556.08 133.688 687.213
v 5555.73 133.578 686.44
v 5555.45 133.815 687.557
v 5554.8 133.692 686.925
v 5555.04 133.947 688.123
v 5554.22 133.824 687.782
v 5554.91 134.053 688.818
v 5554.03 133.944 688.797
v 5555.01 133.947 689.5
v 5554.2 133.823 689.782
v 5555.4 133.814 690.075
v 5554.76 133.689 690.649
v 5556.02 133.688 690.452
v 5555.65 133.544 691.178
v 5556.74 133.593 690.576
v 5556.7 133.413 691.311
v 5556.78 133.696 688.857
v 5552.17 132.391 686.516
v 5551.78 132.44 686.715
v 5552.07 132.184 686.439
v 5553.64 132.434 691.137
v 5553.64 131.317 691.19
v 5553.55 131.754 691.346
v 5553.47 132.164 691.297
v 5553.67 131.298 688.382
v 5553.36 131.297 688.572
v 5553.66 131.425 688.617
v 5552.26 131.433 686.301
v 5552.08 131.66 686.321
v 5551.8 131.323 686.496
v 5553.31 132.363 691.269
v 5553.64 132.434 691.137
v 5553.47 132.164 691.297
v 5553.08 131.419 691.378
v 5553.55 131.754 691.346
v 5553.64 131.317 691.19
v 5553.72 132.44 686.699
v 5553.64 132.434 691.137
v 5551.7 132.434 691.067
v 5551.78 132.44 686.715
v 5551.97 131.298 688.49
v 5551.91 131.297 688.797
v 5553.36 131.297 688.572
v 5553.65 131.297 689.098
v 5551.72 131.297 689.102
v 5551.69 131.318 691.229
v 5551.8 131.323 686.496
v 5551.74 131.3 688.116
v 5553.67 131.298 688.382
v 5553.71 131.324 686.498
v 5552.62 131.963 691.354
v 5552.63 132.386 691.216
v 5551.83 132.173 691.262
v 5552.02 132.363 691.242
v 5551.96 131.419 691.355
v 5552.52 131.422 691.32
v 5551.83 131.571 691.331
v 5551.91 131.872 691.299
v 5552.76 131.957 686.341
v 5552.8 132.421 686.554
v 5553.44 132.391 686.542
v 5553.58 131.676 686.357
v 5553.53 132.006 686.454
v 5553.59 132.288 686.521
v 5551.69 131.318 691.229
v 5551.7 132.434 691.067
v 5551.96 131.419 691.355
v 5552.52 131.422 691.32
v 5553.08 131.419 691.378
v 5551.7 132.434 691.067
v 5551.91 131.872 691.299
v 5551.69 131.318 691.229
v 5551.83 131.571 691.331
v 5551.83 132.173 691.262
v 5553.31 132.363 691.269
v 5552.63 132.386 691.216
v 5552.02 132.363 691.242
v 5553.36 131.479 686.313
v 5553.71 131.324 686.498
v 5553.72 132.44 686.699
v 5552.17 132.391 686.516
v 5552.8 132.421 686.554
v 5553.44 132.391 686.542
v 5551.8 131.323 686.496
v 5552 131.919 686.402
v 5551.78 132.44 686.715
v 5552.07 132.184 686.439
v 5552.08 131.66 686.321
v 5552.81 131.408 686.373
v 5552.26 131.433 686.301
v 5553.36 131.479 686.313
v 5553.53 132.006 686.454
v 5553.71 131.324 686.498
v 5553.58 131.676 686.357
v 5553.59 132.288 686.521
v 5552 131.919 686.402
v 5552.81 131.408 686.373
v 5551.72 131.343 689.072
v 5551.73 131.416 688.409
v 5551.72 131.297 689.102
v 5551.91 131.297 688.797
v 5551.72 131.343 689.072
v 5551.73 131.416 688.409
v 5551.74 131.3 688.116
v 5551.97 131.298 688.49
v 5551.74 131.3 688.116
v 5551.72 131.297 689.102
v 5553.66 131.425 688.617
v 5553.65 131.297 689.098
v 5553.73 127.002 687.583
v 5553.64 128.756 686.623
v 5553.76 127.002 686.181
v 5553.65 128.6 686.386
v 5553.45 131.672 687.819
v 5553.61 129.077 686.786
v 5553.32 129.575 686.52
v 5553.57 129.922 686.578
v 5553.47 131.672 686.853
v 5551.84 130.881 687.742
v 5551.83 130.784 687.682
v 5551.95 131.672 687.788
v 5551.97 131.672 686.822
v 5551.7 129.885 687.53
v 5551.28 127.002 686.13
v 5551.67 129.686 687.674
v 5551.25 127.002 687.531
v 5552.08 130.312 687.716
v 5553.73 127.002 687.583
v 5553.45 131.672 687.819
v 5553.65 128.6 686.386
v 5553.61 129.077 686.786
v 5553.32 129.575 686.52
v 5553.57 129.922 686.578
v 5553.64 128.756 686.623
v 5551.84 130.881 687.742
v 5552.08 130.312 687.716
v 5551.83 130.784 687.682
v 5551.7 129.885 687.53
v 5551.67 129.686 687.674
v 5553.3 131.583 690.878
v 5553.39 130.039 690.052
v 5553.58 126.976 691.484
v 5553.61 126.976 689.975
v 5553.35 130.797 689.929
v 5553.32 131.532 689.836
v 5553.41 129.79 689.9
v 5553.08 130.678 689.863
v 5551.2 126.976 689.925
v 5552 131.532 689.809
v 5553.35 130.936 689.859
v 5551.55 129.014 691.075
v 5551.5 128.725 691.293
v 5551.17 126.976 691.434
v 5551.98 131.583 690.851
v 5551.94 129.559 691.194
v 5551.82 128.815 691.289
v 5551.55 129.014 691.075
v 5551.82 128.815 691.289
v 5553.58 126.976 691.484
v 5553.3 131.583 690.878
v 5551.94 129.559 691.194
v 5551.78 130.358 691.067
v 5551.78 130.358 691.067
v 5551.5 128.725 691.293
v 5551.48 128.825 687.632
v 5553.72 128.825 687.679
v 5551.48 131.825 687.632
v 5553.72 131.825 687.679
v 5553.49 128.825 689.905
v 5551.52 128.825 689.864
v 5553.49 131.825 689.905
v 5551.52 131.825 689.864
v 5553.54 128.825 685.66
v 5554.87 128.825 685.178
v 5553.54 131.825 685.66
v 5554.87 131.825 685.178
v 5553.72 128.825 687.679
v 5553.54 128.825 685.66
v 5553.72 131.825 687.679
v 5553.54 131.825 685.66
v 5553.47 128.825 691.834
v 5553.49 128.825 689.905
v 5553.47 131.825 691.834
v 5553.49 131.825 689.905
v 5554.49 128.825 692.223
v 5553.47 128.825 691.834
v 5554.49 131.825 692.223
v 5553.47 131.825 691.834
v 5557.22 128.825 691.858
v 5554.49 128.825 692.223
v 5557.22 131.825 691.858
v 5554.49 131.825 692.223
v 5560.55 128.825 690.179
v 5557.22 128.825 691.858
v 5560.55 131.825 690.179
v 5557.22 131.825 691.858
v 5560.59 128.825 687.721
v 5560.55 128.825 690.179
v 5560.59 131.825 687.721
v 5560.55 131.825 690.179
v 5559.64 128.825 686.042
v 5560.59 128.825 687.721
v 5559.64 131.825 686.042
v 5560.59 131.825 687.721
v 5558.37 128.825 685.34
v 5559.64 128.825 686.042
v 5558.37 131.825 685.34
v 5559.64 131.825 686.042
v 5554.87 128.825 685.178
v 5558.37 128.825 685.34
v 5554.87 131.825 685.178
v 5558.37 131.825 685.34
v 5561.94 128.825 685.972
v 5560.12 128.825 684.342
v 5561.94 131.825 685.972
v 5560.12 131.825 684.342
v 5560.12 128.825 684.342
v 5555.74 128.825 682.649
v 5560.12 131.825 684.342
v 5555.74 131.825 682.649
v 5555.74 128.825 682.649
v 5553.83 128.825 682.849
v 5555.74 131.825 682.649
v 5553.83 131.825 682.849
v 5553.83 128.825 682.849
v 5551.96 128.825 684.526
v 5553.83 131.825 682.849
v 5551.96 131.825 684.526
v 5551.96 128.825 684.526
v 5551.09 128.825 686.045
v 5551.96 131.825 684.526
v 5551.09 131.825 686.045
v 5551.09 128.825 686.045
v 5551.48 128.825 687.632
v 5551.09 131.825 686.045
v 5551.48 131.825 687.632
v 5551.52 128.825 689.864
v 5551.24 128.825 691.564
v 5551.52 131.825 689.864
v 5551.24 131.825 691.564
v 5551.24 128.825 691.564
v 5552.69 128.825 693.661
v 5551.24 131.825 691.564
v 5552.69 131.825 693.661
v 5552.69 128.825 693.661
v 5554.9 128.825 694.401
v 5552.69 131.825 693.661
v 5554.9 131.825 694.401
v 5554.9 128.825 694.401
v 5560.04 128.825 693.756
v 5554.9 131.825 694.401
v 5560.04 131.825 693.756
v 5560.04 128.825 693.756
v 5561.92 128.825 692.489
v 5560.04 131.825 693.756
v 5561.92 131.825 692.489
v 5561.92 128.825 692.489
v 5562.57 128.825 690.816
v 5561.92 131.825 692.489
v 5562.57 131.825 690.816
v 5562.57 128.825 690.816
v 5562.81 128.825 688.592
v 5562.57 131.825 690.816
v 5562.81 131.825 688.592
v 5562.81 128.825 688.592
v 5561.94 128.825 685.972
v 5562.81 131.825 688.592
v 5561.94 131.825 685.972
v 5556.82 126.907 688.745
v 5556.82 127.03 688.745
v 5556.62 126.907 688.745
v 5556.62 127.03 688.745
v 5556.77 127.083 688.794
v 5556.77 127.083 688.896
v 5556.67 127.083 688.794
v 5556.67 127.083 688.896
v 5556.82 127.03 688.945
v 5556.82 126.907 688.945
v 5556.62 127.03 688.945
v 5556.62 126.907 688.945
v 5556.82 126.907 688.945
v 5556.82 126.907 688.745
v 5556.62 126.907 688.945
v 5556.62 126.907 688.745
v 5556.62 126.907 688.745
v 5556.62 127.03 688.745
v 5556.62 126.907 688.945
v 5556.62 127.03 688.945
v 5556.82 126.907 688.945
v 5556.82 127.03 688.945
v 5556.82 126.907 688.745
v 5556.82 127.03 688.745
v 5556.52 127.035 688.645
v 5556.62 127.03 688.745
v 5556.92 127.035 688.645
v 5556.82 127.03 688.745
v 5556.52 127.035 689.046
v 5556.62 127.03 688.945
v 5556.52 127.035 688.645
v 5556.62 127.03 688.745
v 5556.92 127.035 689.046
v 5556.82 127.03 688.945
v 5556.52 127.035 689.046
v 5556.62 127.03 688.945
v 5556.92 127.035 688.645
v 5556.82 127.03 688.745
v 5556.92 127.035 689.046
v 5556.82 127.03 688.945
v 5556.92 127.035 688.645
v 5556.78 127.099 688.781
v 5556.52 127.035 688.645
v 5556.65 127.099 688.781
v 5556.52 127.035 688.645
v 5556.65 127.099 688.781
v 5556.52 127.035 689.046
v 5556.65 127.099 688.909
v 5556.52 127.035 689.046
v 5556.65 127.099 688.909
v 5556.92 127.035 689.046
v 5556.78 127.099 688.909
v 5556.92 127.035 689.046
v 5556.78 127.099 688.909
v 5556.92 127.035 688.645
v 5556.78 127.099 688.781
v 5556.78 127.099 688.781
v 5556.77 127.083 688.794
v 5556.65 127.099 688.781
v 5556.67 127.083 688.794
v 5556.65 127.099 688.781
v 5556.67 127.083 688.794
v 5556.65 127.099 688.909
v 5556.67 127.083 688.896
v 5556.65 127.099 688.909
v 5556.67 127.083 688.896
v 5556.78 127.099 688.909
v 5556.77 127.083 688.896
v 5556.78 127.099 688.909
v 5556.77 127.083 688.896
v 5556.78 127.099 688.781
v 5556.77 127.083 688.794
v 5524 125.789 720
v 5524 125.84 718
v 5524 125.883 716
v 5524 125.916 714
v 5524 125.13 712
v 5524 123.714 710
v 5524 121.453 708
v 5524 121.003 706
v 5524 120.79 704
v 5524 121.849 702
v 5524 121.812 700
v 5524 121.894 698
v 5524 122.52 696
v 5524 123.398 694
v 5524 124.165 692
v 5524 124.681 690
v 5524 125.046 688
v 5524 125.238 686
v 5524 125.271 684
v 5524 125.287 682
v 5524 125.319 680
v 5524 125.366 678
v 5524 125.429 676
v 5524 125.507 674
v 5524 125.602 672
v 5524 125.712 670
v 5524 125.837 668
v 5524 125.968 666
v 5524 126.046 664
v 5524 126.036 662
v 5524 125.869 660
v 5524 125.272 658
v 5526 125.788 720
v 5526 125.842 718
v 5526 125.889 716
v 5526 125.927 714
v 5526 124.965 712
v 5526 123.204 710
v 5526 122.709 708
v 5526 121.83 706
v 5526 120.893 704
v 5526 121.55 702
v 5526 121.723 700
v 5526 122.363 698
v 5526 123.347 696
v 5526 124.26 694
v 5526 124.842 692
v 5526 125.173 690
v 5526 125.364 688
v 5526 125.403 686
v 5526 125.419 684
v 5526 125.451 682
v 5526 125.5 680
v 5526 125.565 678
v 5526 125.646 676
v 5526 125.743 674
v 5526 125.856 672
v 5526 125.985 670
v 5526 126.129 668
v 5526 126.287 666
v 5526 126.395 664
v 5526 126.393 662
v 5526 126.209 660
v 5526 125.566 658
v 5528 125.801 720
v 5528 125.86 718
v 5528 125.912 716
v 5528 125.657 714
v 5528 123.677 712
v 5528 123.127 710
v 5528 122.272 708
v 5528 122.351 706
v 5528 121.782 704
v 5528 121.819 702
v 5528 122.023 700
v 5528 122.984 698
v 5528 124.075 696
v 5528 124.847 694
v 5528 125.291 692
v 5528 125.499 690
v 5528 125.542 688
v 5528 125.557 686
v 5528 125.589 684
v 5528 125.638 682
v 5528 125.704 680
v 5528 125.786 678
v 5528 125.885 676
v 5528 126 674
v 5528 126.132 672
v 5528 126.28 670
v 5528 126.443 668
v 5528 126.622 666
v 5528 126.751 664
v 5528 126.748 662
v 5528 126.55 660
v 5528 125.889 658
v 5530 122.277 720
v 5530 123.368 718
v 5530 122.555 716
v 5530 123.5 714
v 5530 122.308 712
v 5530 121.969 710
v 5530 122.075 708
v 5530 122.483 706
v 5530 121.986 704
v 5530 122.066 702
v 5530 122.731 700
v 5530 123.872 698
v 5530 124.772 696
v 5530 125.343 694
v 5530 125.632 692
v 5530 125.691 690
v 5530 125.703 688
v 5530 125.733 686
v 5530 125.781 684
v 5530 125.846 682
v 5530 125.929 680
v 5530 126.028 678
v 5530 126.145 676
v 5530 126.279 674
v 5530 126.429 672
v 5530 126.594 670
v 5530 126.776 668
v 5530 126.973 666
v 5530 127.105 664
v 5530 127.065 662
v 5530 126.8 660
v 5530 126.029 658
v 5532 117.464 720
v 5532 118.69 718
v 5532 120.383 716
v 5532 120.495 714
v 5532 121.255 712
v 5532 121.246 710
v 5532 121.834 708
v 5532 122.632 706
v 5532 122.617 704
v 5532 122.843 702
v 5532 123.777 700
v 5532 124.814 698
v 5532 125.424 696
v 5532 125.766 694
v 5532 125.851 692
v 5532 125.857 690
v 5532 125.883 688
v 5532 125.928 686
v 5532 125.991 684
v 5532 126.073 682
v 5532 126.173 680
v 5532 126.29 678
v 5532 126.424 676
v 5532 126.575 674
v 5532 126.743 672
v 5532 126.927 670
v 5532 127.127 668
v 5532 127.341 666
v 5532 127.442 664
v 5532 127.293 662
v 5532 126.843 660
v 5532 125.825 658
v 5534 114.458 720
v 5534 117.226 718
v 5534 118.635 716
v 5534 119.75 714
v 5534 119.422 712
v 5534 120.073 710
v 5534 121.894 708
v 5534 122.645 706
v 5534 123.021 704
v 5534 123.749 702
v 5534 124.811 700
v 5534 125.556 698
v 5534 125.924 696
v 5534 126.022 694
v 5534 126.021 692
v 5534 126.041 690
v 5534 126.081 688
v 5534 126.141 686
v 5534 126.22 684
v 5534 126.318 682
v 5534 126.434 680
v 5534 126.568 678
v 5534 126.72 676
v 5534 126.888 674
v 5534 127.074 672
v 5534 127.275 670
v 5534 127.492 668
v 5534 127.714 666
v 5534 127.729 664
v 5534 127.373 662
v 5534 126.565 660
v 5534 125.187 658
v 5536 115.318 720
v 5536 115.884 718
v 5536 116.243 716
v 5536 118.749 714
v 5536 119.823 712
v 5536 120.987 710
v 5536 122.122 708
v 5536 122.983 706
v 5536 123.74 704
v 5536 124.654 702
v 5536 125.573 700
v 5536 126.077 698
v 5536 126.207 696
v 5536 126.196 694
v 5536 126.207 692
v 5536 126.241 690
v 5536 126.295 688
v 5536 126.369 686
v 5536 126.464 684
v 5536 126.578 682
v 5536 126.71 680
v 5536 126.861 678
v 5536 127.03 676
v 5536 127.216 674
v 5536 127.418 672
v 5536 127.636 670
v 5536 127.865 668
v 5536 128.07 666
v 5536 127.96 664
v 5536 127.36 662
v 5536 126.113 660
v 5536 124.311 658
v 5538 115.52 720
v 5538 115.453 718
v 5538 115.37 716
v 5538 117.562 714
v 5538 118.892 712
v 5538 120.891 710
v 5538 122.542 708
v 5538 123.513 706
v 5538 124.501 704
v 5538 125.485 702
v 5538 126.17 700
v 5538 126.405 698
v 5538 126.383 696
v 5538 126.384 694
v 5538 126.408 692
v 5538 126.454 690
v 5538 126.523 688
v 5538 126.612 686
v 5538 126.722 684
v 5538 126.852 682
v 5538 127 680
v 5538 127.168 678
v 5538 127.353 676
v 5538 127.555 674
v 5538 127.771 672
v 5538 128 670
v 5538 128.239 668
v 5538 128.364 666
v 5538 128.086 664
v 5538 127.223 662
v 5538 125.593 660
v 5538 123.414 658
v 5540 114.925 720
v 5540 114.076 718
v 5540 113.541 716
v 5540 115.343 714
v 5540 118.294 712
v 5540 121.123 710
v 5540 122.748 708
v 5540 123.982 706
v 5540 125.242 704
v 5540 126.146 702
v 5540 126.58 700
v 5540 126.586 698
v 5540 126.572 696
v 5540 126.584 694
v 5540 126.621 692
v 5540 126.68 690
v 5540 126.763 688
v 5540 126.867 686
v 5540 126.992 684
v 5540 127.137 682
v 5540 127.302 680
v 5540 127.485 678
v 5540 127.685 676
v 5540 127.899 674
v 5540 128.125 672
v 5540 128.363 670
v 5540 128.594 668
v 5540 128.509 666
v 5540 127.99 664
v 5540 126.887 662
v 5540 124.847 660
v 5540 121.45 658
v 5542 113.457 720
v 5542 112.746 718
v 5542 112.005 716
v 5542 114.48 714
v 5542 117.668 712
v 5542 120.724 710
v 5542 122.495 708
v 5542 124.36 706
v 5542 125.87 704
v 5542 126.639 702
v 5542 126.806 700
v 5542 126.775 698
v 5542 126.772 696
v 5542 126.795 694
v 5542 126.844 692
v 5542 126.917 690
v 5542 127.013 688
v 5542 127.132 686
v 5542 127.272 684
v 5542 127.432 682
v 5542 127.612 680
v 5542 127.808 678
v 5542 128.019 676
v 5542 128.242 674
v 5542 128.478 672
v 5542 128.723 670
v 5542 128.803 668
v 5542 128.315 666
v 5542 127.354 664
v 5542 125.952 662
v 5542 123.202 660
v 5542 118.095 658
v 5544 111.827 720
v 5544 112.084 718
v 5544 112.232 716
v 5544 114.723 714
v 5544 117.219 712
v 5544 120.475 710
v 5544 122.736 708
v 5544 124.952 706
v 5544 126.419 704
v 5544 126.972 702
v 5544 126.995 700
v 5544 126.973 698
v 5544 126.98 696
v 5544 127.015 694
v 5544 127.076 692
v 5544 127.162 690
v 5544 127.272 688
v 5544 127.405 686
v 5544 127.56 684
v 5544 127.733 682
v 5544 127.924 680
v 5544 128.13 678
v 5544 128.35 676
v 5544 128.582 674
v 5544 128.825 672
v 5544 129.03 670
v 5544 128.666 668
v 5544 127.471 666
v 5544 125.963 664
v 5544 124.346 662
v 5544 120.21 660
v 5544 113.568 658
v 5546 110.258 720
v 5546 112.136 718
v 5546 113.098 716
v 5546 114.532 714
v 5546 117.314 712
v 5546 120.566 710
v 5546 123.425 708
v 5546 125.629 706
v 5546 126.84 704
v 5546 127.2 702
v 5546 127.19 700
v 5546 127.178 698
v 5546 127.195 696
v 5546 127.242 694
v 5546 127.315 692
v 5546 127.414 690
v 5546 127.538 688
v 5546 127.684 686
v 5546 127.849 684
v 5546 128.034 682
v 5546 128.234 680
v 5546 128.45 678
v 5546 128.678 676
v 5546 128.917 674
v 5546 129.166 672
v 5546 129.072 670
v 5546 128.032 668
v 5546 126.084 666
v 5546 124.124 664
v 5546 121.728 662
v 5546 117.064 660
v 5546 111.435 658
v 5548 109.706 720
v 5548 110.15 718
v 5548 112.415 716
v 5548 113.981 714
v 5548 118.367 712
v 5548 121.423 710
v 5548 124.2 708
v 5548 126.177 706
v 5548 127.158 704
v 5548 127.392 702
v 5548 127.39 700
v 5548 127.387 698
v 5548 127.415 696
v 5548 127.473 694
v 5548 127.559 692
v 5548 127.67 690
v 5548 127.805 688
v 5548 127.961 686
v 5548 128.137 684
v 5548 128.331 682
v 5548 128.54 680
v 5548 128.764 678
v 5548 128.999 676
v 5548 129.245 674
v 5548 129.369 672
v 5548 128.774 670
v 5548 127.035 668
v 5548 124.759 666
v 5548 122.43 664
v 5548 119.046 662
v 5548 113.801 660
v 5548 111.808 658
v 5550 110.373 720
v 5550 110.714 718
v 5550 112.195 716
v 5550 115.506 714
v 5550 119.142 712
v 5550 121.892 710
v 5550 124.73 708
v 5550 126.57 706
v 5550 127.418 704
v 5550 127.585 702
v 5550 127.593 700
v 5550 127.599 698
v 5550 127.638 696
v 5550 127.706 694
v 5550 127.802 692
v 5550 127.924 690
v 5550 128.069 688
v 5550 128.235 686
v 5550 128.421 684
v 5550 128.623 682
v 5550 128.84 680
v 5550 129.071 678
v 5550 129.312 676
v 5550 129.525 674
v 5550 129.275 672
v 5550 128.142 670
v 5550 126.119 668
v 5550 123.93 666
v 5550 120.741 664
v 5550 116.942 662
v 5550 112.856 660
v 5550 110.474 658
v 5552 112.567 720
v 5552 111.255 718
v 5552 114.194 716
v 5552 118.126 714
v 5552 120.366 712
v 5552 122.572 710
v 5552 125.212 708
v 5552 126.894 706
v 5552 127.643 704
v 5552 127.776 702
v 5552 127.794 700
v 5552 127.81 698
v 5552 127.858 696
v 5552 127.937 694
v 5552 128.043 692
v 5552 128.174 690
v 5552 128.329 688
v 5552 128.504 686
v 5552 128.698 684
v 5552 128.908 682
v 5552 129.132 680
v 5552 129.368 678
v 5552 129.612 676
v 5552 129.506 674
v 5552 128.68 672
v 5552 127.151 670
v 5552 125.343 668
v 5552 122.984 666
v 5552 119.254 664
v 5552 114.206 662
v 5552 110.55 660
v 5552 108.335 658
v 5554 114.367 720
v 5554 115.904 718
v 5554 117.824 716
v 5554 120.512 714
v 5554 121.52 712
v 5554 123.56 710
v 5554 125.803 708
v 5554 127.22 706
v 5554 127.845 704
v 5554 127.964 702
v 5554 127.991 700
v 5554 128.017 698
v 5554 128.074 696
v 5554 128.162 694
v 5554 128.278 692
v 5554 128.419 690
v 5554 128.582 688
v 5554 128.765 686
v 5554 128.967 684
v 5554 129.184 682
v 5554 129.414 680
v 5554 129.655 678
v 5554 129.703 676
v 5554 129.035 674
v 5554 127.51 672
v 5554 125.771 670
v 5554 124.037 668
v 5554 121.516 666
v 5554 116.952 664
v 5554 113.272 662
v 5554 108.908 660
v 5554 107.674 658
v 5556 122.138 720
v 5556 120.84 718
v 5556 121.693 716
v 5556 122.105 714
v 5556 122.794 712
v 5556 124.463 710
v 5556 126.386 708
v 5556 127.525 706
v 5556 128.029 704
v 5556 128.147 702
v 5556 128.183 700
v 5556 128.217 698
v 5556 128.284 696
v 5556 128.382 694
v 5556 128.506 692
v 5556 128.655 690
v 5556 128.827 688
v 5556 129.018 686
v 5556 129.226 684
v 5556 129.449 682
v 5556 129.684 680
v 5556 129.862 678
v 5556 129.56 676
v 5556 128.356 674
v 5556 126.159 672
v 5556 123.888 670
v 5556 121.452 668
v 5556 118.731 666
v 5556 116.576 664
v 5556 113.18 662
v 5556 109.177 660
v 5556 108.232 658
v 5558 125.732 720
v 5558 124.314 718
v 5558 123.298 716
v 5558 123.241 714
v 5558 123.806 712
v 5558 125.385 710
v 5558 126.894 708
v 5558 127.793 706
v 5558 128.2 704
v 5558 128.322 702
v 5558 128.367 700
v 5558 128.411 698
v 5558 128.486 696
v 5558 128.592 694
v 5558 128.725 692
v 5558 128.882 690
v 5558 129.061 688
v 5558 129.259 686
v 5558 129.473 684
v 5558 129.702 682
v 5558 129.928 680
v 5558 129.897 678
v 5558 129.387 676
v 5558 128.021 674
v 5558 125.287 672
v 5558 121.232 670
v 5558 117.821 668
v 5558 116.124 666
v 5558 115.991 664
v 5558 112.856 662
v 5558 110.33 660
v 5558 109.15 658
v 5560 124.946 720
v 5560 124.893 718
v 5560 124.248 716
v 5560 124.056 714
v 5560 124.752 712
v 5560 126.169 710
v 5560 127.309 708
v 5560 128.014 706
v 5560 128.359 704
v 5560 128.489 702
v 5560 128.543 700
v 5560 128.594 698
v 5560 128.679 696
v 5560 128.793 694
v 5560 128.933 692
v 5560 129.098 690
v 5560 129.284 688
v 5560 129.488 686
v 5560 129.708 684
v 5560 129.94 682
v 5560 130.045 680
v 5560 129.805 678
v 5560 129.086 676
v 5560 127.668 674
v 5560 124.298 672
v 5560 118.781 670
v 5560 114.024 668
v 5560 114.957 666
v 5560 114.798 664
v 5560 112.2 662
v 5560 110.289 660
v 5560 109.528 658
v 5562 124.281 720
v 5562 124.561 718
v 5562 124.675 716
v 5562 124.845 714
v 5562 125.8 712
v 5562 126.799 710
v 5562 127.637 708
v 5562 128.192 706
v 5562 128.502 704
v 5562 128.645 702
v 5562 128.707 700
v 5562 128.767 698
v 5562 128.859 696
v 5562 128.981 694
v 5562 129.129 692
v 5562 129.301 690
v 5562 129.493 688
v 5562 129.703 686
v 5562 129.927 684
v 5562 130.104 682
v 5562 130.039 680
v 5562 129.573 678
v 5562 128.744 676
v 5562 127.255 674
v 5562 122.706 672
v 5562 116.434 670
v 5562 112.717 668
v 5562 114.002 666
v 5562 113.524 664
v 5562 111.25 662
v 5562 109.579 660
v 5562 109.357 658
v 5564 124.85 720
v 5564 124.889 718
v 5564 125.104 716
v 5564 125.612 714
v 5564 126.344 712
v 5564 127.134 710
v 5564 127.81 708
v 5564 128.3 706
v 5564 128.618 704
v 5564 128.786 702
v 5564 128.859 700
v 5564 128.927 698
v 5564 129.027 696
v 5564 129.156 694
v 5564 129.311 692
v 5564 129.489 690
v 5564 129.687 688
v 5564 129.902 686
v 5564 130.109 684
v 5564 130.172 682
v 5564 129.945 680
v 5564 129.312 678
v 5564 128.489 676
v 5564 126.601 674
v 5564 121.243 672
v 5564 114.312 670
v 5564 113.303 668
v 5564 114.042 666
v 5564 113.162 664
v 5564 110.85 662
v 5564 109.458 660
v 5564 109.072 658
v 5566 125.039 720
v 5566 125.116 718
v 5566 125.303 716
v 5566 125.763 714
v 5566 126.428 712
v 5566 127.168 710
v 5566 127.819 708
v 5566 128.327 706
v 5566 128.693 704
v 5566 128.905 702
v 5566 128.997 700
v 5566 129.072 698
v 5566 129.18 696
v 5566 129.316 694
v 5566 129.477 692
v 5566 129.661 690
v 5566 129.864 688
v 5566 130.077 686
v 5566 130.22 684
v 5566 130.181 682
v 5566 129.815 680
v 5566 129.118 678
v 5566 128.212 676
v 5566 125.618 674
v 5566 119.527 672
v 5566 113.487 670
v 5566 114.799 668
v 5566 115.192 666
v 5566 113.905 664
v 5566 110.967 662
v 5566 109.68 660
v 5566 109.152 658
v 5568 124.409 720
v 5568 124.47 718
v 5568 124.856 716
v 5568 125.426 714
v 5568 126.138 712
v 5568 126.932 710
v 5568 127.672 708
v 5568 128.274 706
v 5568 128.721 704
v 5568 128.993 702
v 5568 129.118 700
v 5568 129.201 698
v 5568 129.316 696
v 5568 129.459 694
v 5568 129.626 692
v 5568 129.816 690
v 5568 130.022 688
v 5568 130.202 686
v 5568 130.285 684
v 5568 130.161 682
v 5568 129.688 680
v 5568 128.968 678
v 5568 128.128 676
v 5568 125.476 674
v 5568 119.081 672
v 5568 114.141 670
v 5568 115.53 668
v 5568 115.592 666
v 5568 114.527 664
v 5568 111.467 662
v 5568 110.513 660
v 5568 109.943 658
v 5570 124.914 720
v 5570 124.527 718
v 5570 124.336 716
v 5570 124.647 714
v 5570 125.537 712
v 5570 126.48 710
v 5570 127.391 708
v 5570 128.153 706
v 5570 128.706 704
v 5570 129.043 702
v 5570 129.212 700
v 5570 129.313 698
v 5570 129.434 696
v 5570 129.583 694
v 5570 129.757 692
v 5570 129.95 690
v 5570 130.141 688
v 5570 130.288 686
v 5570 130.322 684
v 5570 130.136 682
v 5570 129.621 680
v 5570 128.93 678
v 5570 127.662 676
v 5570 124.56 674
v 5570 117.337 672
v 5570 113.762 670
v 5570 115.137 668
v 5570 115.211 666
v 5570 114.358 664
v 5570 112.163 662
v 5570 111.132 660
v 5570 110.776 658
v 5572 125.551 720
v 5572 124.891 718
v 5572 124.421 716
v 5572 124.494 714
v 5572 124.856 712
v 5572 125.96 710
v 5572 127.111 708
v 5572 128.062 706
v 5572 128.7 704
v 5572 129.068 702
v 5572 129.27 700
v 5572 129.4 698
v 5572 129.533 696
v 5572 129.688 694
v 5572 129.864 692
v 5572 130.05 690
v 5572 130.223 688
v 5572 130.342 686
v 5572 130.339 684
v 5572 130.107 682
v 5572 129.578 680
v 5572 128.908 678
v 5572 127.571 676
v 5572 123.654 674
v 5572 116.247 672
v 5572 113.014 670
v 5572 114.264 668
v 5572 114.418 666
v 5572 113.889 664
v 5572 112.326 662
v 5572 110.772 660
v 5572 110.633 658
v 5574 126.512 720
v 5574 125.775 718
v 5574 124.315 716
v 5574 124.433 714
v 5574 124.612 712
v 5574 125.663 710
v 5574 127.046 708
v 5574 128.11 706
v 5574 128.74 704
v 5574 129.09 702
v 5574 129.299 700
v 5574 129.45 698
v 5574 129.6 696
v 5574 129.762 694
v 5574 129.937 692
v 5574 130.113 690
v 5574 130.269 688
v 5574 130.365 686
v 5574 130.331 684
v 5574 130.062 682
v 5574 129.543 680
v 5574 128.822 678
v 5574 127.231 676
v 5574 122.937 674
v 5574 115.131 672
v 5574 112.688 670
v 5574 113.619 668
v 5574 114.07 666
v 5574 112.542 664
v 5574 111.032 662
v 5574 109.932 660
v 5574 109.804 658
v 5576 126.347 720
v 5576 125.948 718
v 5576 124.677 716
v 5576 124.649 714
v 5576 124.733 712
v 5576 125.819 710
v 5576 127.099 708
v 5576 128.127 706
v 5576 128.729 704
v 5576 129.081 702
v 5576 129.299 700
v 5576 129.467 698
v 5576 129.631 696
v 5576 129.801 694
v 5576 129.977 692
v 5576 130.145 690
v 5576 130.282 688
v 5576 130.346 686
v 5576 130.266 684
v 5576 129.962 682
v 5576 129.437 680
v 5576 128.697 678
v 5576 127.452 676
v 5576 123.813 674
v 5576 116.192 672
v 5576 113.241 670
v 5576 113.847 668
v 5576 114.529 666
v 5576 112.473 664
v 5576 110.801 662
v 5576 109.416 660
v 5576 109.244 658
v 5578 124.776 720
v 5578 125.459 718
v 5578 124.568 716
v 5578 124.612 714
v 5578 125.253 712
v 5578 126.034 710
v 5578 127.048 708
v 5578 128.005 706
v 5578 128.629 704
v 5578 129.015 702
v 5578 129.257 700
v 5578 129.443 698
v 5578 129.623 696
v 5578 129.803 694
v 5578 129.982 692
v 5578 130.142 690
v 5578 130.264 688
v 5578 130.3 686
v 5578 130.186 684
v 5578 129.872 682
v 5578 129.427 680
v 5578 128.691 678
v 5578 127.075 676
v 5578 123.371 674
v 5578 116.411 672
v 5578 113.349 670
v 5578 113.748 668
v 5578 114.245 666
v 5578 112.278 664
v 5578 110.65 662
v 5578 109.071 660
v 5578 108.882 658
v 5580 123.171 720
v 5580 124.385 718
v 5580 124.366 716
v 5580 124.586 714
v 5580 125.435 712
v 5580 126.086 710
v 5580 126.851 708
v 5580 127.762 706
v 5580 128.453 704
v 5580 128.906 702
v 5580 129.183 700
v 5580 129.382 698
v 5580 129.572 696
v 5580 129.761 694
v 5580 129.946 692
v 5580 130.104 690
v 5580 130.217 688
v 5580 130.247 686
v 5580 130.149 684
v 5580 129.876 682
v 5580 129.47 680
v 5580 128.707 678
v 5580 126.954 676
v 5580 123.814 674
v 5580 117.051 672
v 5580 113.433 670
v 5580 113.746 668
v 5580 114.04 666
v 5580 113.261 664
v 5580 111.204 662
v 5580 109.381 660
v 5580 108.848 658
v 5582 121.947 720
v 5582 122.339 718
v 5582 123.52 716
v 5582 124.377 714
v 5582 125.193 712
v 5582 125.948 710
v 5582 126.612 708
v 5582 127.494 706
v 5582 128.272 704
v 5582 128.802 702
v 5582 129.106 700
v 5582 129.304 698
v 5582 129.496 696
v 5582 129.687 694
v 5582 129.877 692
v 5582 130.036 690
v 5582 130.146 688
v 5582 130.179 686
v 5582 130.107 684
v 5582 129.887 682
v 5582 129.533 680
v 5582 128.854 678
v 5582 127.608 676
v 5582 124.141 674
v 5582 118.362 672
v 5582 114.035 670
v 5582 114.047 668
v 5582 114.374 666
v 5582 114.109 664
v 5582 112.46 662
v 5582 110.552 660
v 5582 109.071 658
v 5584 118.569 720
v 5584 121.448 718
v 5584 122.415 716
v 5584 123.985 714
v 5584 125.012 712
v 5584 125.957 710
v 5584 126.587 708
v 5584 127.455 706
v 5584 128.234 704
v 5584 128.759 702
v 5584 129.053 700
v 5584 129.239 698
v 5584 129.426 696
v 5584 129.617 694
v 5584 129.809 692
v 5584 129.967 690
v 5584 130.061 688
v 5584 130.062 686
v 5584 129.967 684
v 5584 129.802 682
v 5584 129.615 680
v 5584 129.229 678
v 5584 128.852 676
v 5584 125.795 674
v 5584 121.186 672
v 5584 115.443 670
v 5584 115.039 668
v 5584 115.256 666
v 5584 115.239 664
v 5584 114.238 662
v 5584 111.56 660
v 5584 109.521 658
v 5586 120.554 720
v 5586 121.201 718
v 5586 121.723 716
v 5586 123.899 714
v 5586 125.147 712
v 5586 126.1 710
v 5586 126.863 708
v 5586 127.667 706
v 5586 128.314 704
v 5586 128.743 702
v 5586 128.999 700
v 5586 129.172 698
v 5586 129.349 696
v 5586 129.532 694
v 5586 129.716 692
v 5586 129.862 690
v 5586 129.932 688
v 5586 129.913 686
v 5586 129.833 684
v 5586 129.737 682
v 5586 129.548 680
v 5586 129.282 678
v 5586 129.088 676
v 5586 127.04 674
v 5586 123.447 672
v 5586 118.239 670
v 5586 116.213 668
v 5586 116.164 666
v 5586 115.996 664
v 5586 114.397 662
v 5586 112.39 660
v 5586 110.557 658
f 25 26 35
f 36 25 35
f 27 26 25
f 28 27 25
f 28 30 27
f 35 26 33
f 27 33 26
f 50 49 45
f 48 47 45
f 47 46 45
f 46 50 45
f 48 54 47
f 33 27 34
f 27 37 34
f 29 37 27
f 30 29 27
f 33 42 35
f 39 33 34
f 42 33 39
f 34 37 39
f 41 40 39
f 43 39 40
f 39 43 42
f 39 37 41
f 44 42 43
f 35 42 44
f 46 56 50
f 56 46 55
f 47 55 46
f 40 44 43
f 57 50 56
f 55 57 56
f 54 53 47
f 55 47 53
f 65 64 62
f 64 63 62
f 64 66 63
f 64 67 66
f 52 51 49
f 50 52 49
f 30 32 29
f 32 31 29
f 31 37 29
f 69 62 63
f 70 69 63
f 66 71 63
f 71 70 63
f 52 50 57
f 37 31 38
f 41 37 38
f 62 60 65
f 4 3 1
f 3 2 1
f 1 2 5
f 2 6 5
f 40 41 38
f 62 69 59
f 60 62 59
f 2 13 6
f 13 2 12
f 3 12 2
f 71 73 70
f 72 69 70
f 73 72 70
f 260 259 257
f 260 262 259
f 284 262 260
f 283 284 260
f 283 260 258
f 258 260 257
f 256 258 255
f 282 258 256
f 281 282 256
f 281 256 254
f 256 255 253
f 82 80 81
f 254 256 253
f 81 80 77
f 83 82 81
f 69 68 59
f 69 72 68
f 301 284 283
f 300 301 283
f 300 283 282
f 282 283 258
f 258 257 255
f 89 84 80
f 80 84 76
f 82 89 80
f 77 80 76
f 8 7 4
f 4 7 3
f 13 14 6
f 299 300 282
f 281 299 282
f 298 299 281
f 298 281 297
f 297 281 280
f 280 281 254
f 262 261 259
f 7 12 3
f 89 90 87
f 84 89 87
f 91 90 89
f 91 89 82
f 13 24 14
f 24 13 20
f 13 11 20
f 13 12 11
f 12 15 11
f 15 12 7
f 60 59 58
f 59 68 58
f 58 68 72
f 14 24 21
f 90 94 87
f 94 90 93
f 90 92 93
f 92 90 91
f 284 285 262
f 262 264 261
f 61 60 58
f 77 76 74
f 20 21 24
f 285 264 262
f 16 20 11
f 15 16 11
f 299 298 313
f 313 300 299
f 302 285 284
f 301 302 284
f 76 84 85
f 75 76 85
f 76 75 74
f 280 254 252
f 254 253 251
f 252 254 251
f 264 263 261
f 313 314 300
f 301 300 314
f 95 94 93
f 96 95 93
f 97 96 93
f 97 93 92
f 313 298 312
f 297 312 298
f 86 85 84
f 87 86 84
f 20 16 19
f 21 20 19
f 279 280 252
f 279 297 280
f 86 87 94
f 22 21 19
f 9 15 7
f 9 7 8
f 98 86 94
f 94 95 98
f 15 18 16
f 17 18 15
f 17 15 9
f 10 9 8
f 16 18 19
f 106 105 103
f 104 106 103
f 314 302 301
f 296 297 279
f 297 296 312
f 23 22 19
f 23 19 18
f 74 75 78
f 104 103 101
f 102 104 101
f 75 85 79
f 79 85 86
f 86 98 88
f 88 79 86
f 88 98 95
f 75 79 78
f 112 105 113
f 105 112 103
f 103 112 101
f 115 116 113
f 116 112 113
f 313 312 317
f 314 313 317
f 304 303 285
f 302 304 285
f 279 252 250
f 252 251 249
f 250 252 249
f 278 279 250
f 296 279 278
f 114 112 116
f 108 112 114
f 101 112 108
f 116 115 114
f 312 296 311
f 295 296 278
f 295 311 296
f 304 302 315
f 314 315 302
f 312 311 317
f 315 314 317
f 118 114 115
f 115 119 118
f 102 101 99
f 107 101 108
f 101 107 100
f 101 100 99
f 114 107 108
f 117 107 114
f 114 118 117
f 119 117 118
f 250 249 245
f 278 250 243
f 243 250 245
f 295 278 277
f 277 278 243
f 295 294 311
f 294 295 277
f 305 287 303
f 304 305 303
f 311 310 317
f 311 294 310
f 304 315 305
f 316 305 315
f 316 315 317
f 310 309 317
f 309 316 317
f 125 127 124
f 127 126 124
f 126 133 124
f 133 126 134
f 109 117 119
f 137 133 134
f 136 137 134
f 107 117 109
f 292 310 294
f 292 294 276
f 294 277 276
f 310 293 309
f 292 293 310
f 306 316 307
f 306 305 316
f 309 307 316
f 245 244 243
f 246 244 245
f 277 243 276
f 305 306 287
f 109 100 107
f 267 266 265
f 268 267 265
f 276 243 244
f 137 136 135
f 139 135 136
f 136 140 139
f 287 286 268
f 306 286 287
f 286 267 268
f 308 309 293
f 308 307 309
f 111 100 109
f 110 99 100
f 111 110 100
f 123 125 122
f 125 124 122
f 135 133 137
f 198 199 202
f 199 203 202
f 122 133 129
f 129 133 135
f 124 133 122
f 293 292 275
f 292 276 275
f 214 210 213
f 224 210 214
f 199 212 203
f 229 227 232
f 227 229 226
f 247 244 246
f 228 227 225
f 227 226 225
f 213 223 221
f 211 223 213
f 213 210 211
f 306 307 286
f 276 244 275
f 275 244 248
f 247 248 244
f 220 221 223
f 222 221 219
f 221 220 219
f 232 231 229
f 293 275 308
f 223 211 220
f 229 230 235
f 231 230 229
f 226 229 235
f 211 208 220
f 211 210 208
f 239 226 235
f 226 242 225
f 242 226 239
f 270 269 266
f 271 270 266
f 267 271 266
f 224 209 210
f 210 209 208
f 307 288 286
f 308 288 307
f 200 199 198
f 199 200 212
f 200 209 212
f 288 289 286
f 286 289 267
f 230 236 235
f 236 239 235
f 308 275 291
f 291 290 308
f 308 290 288
f 239 240 242
f 225 242 240
f 135 139 138
f 140 138 139
f 201 200 198
f 183 182 180
f 130 138 140
f 289 288 267
f 218 222 219
f 239 236 238
f 240 239 238
f 272 248 274
f 248 247 274
f 274 273 272
f 274 269 273
f 220 216 219
f 216 220 208
f 291 248 272
f 291 272 290
f 290 272 273
f 230 233 236
f 231 233 230
f 231 234 233
f 270 271 267
f 288 270 267
f 171 170 160
f 170 159 160
f 147 150 149
f 135 128 129
f 138 128 135
f 128 122 129
f 238 236 237
f 233 237 236
f 275 248 291
f 216 218 219
f 241 240 238
f 218 216 217
f 209 215 208
f 215 216 208
f 149 153 152
f 146 149 152
f 147 149 146
f 171 160 169
f 270 273 269
f 290 273 270
f 180 197 195
f 181 197 180
f 182 181 180
f 290 270 288
f 217 216 215
f 217 215 206
f 122 128 121
f 122 121 120
f 123 122 120
f 237 241 238
f 169 177 179
f 167 177 169
f 169 160 167
f 215 209 204
f 204 209 200
f 153 157 154
f 154 152 153
f 207 206 205
f 206 215 204
f 206 204 205
f 196 195 193
f 195 194 193
f 194 195 197
f 201 204 200
f 175 179 178
f 179 177 178
f 128 138 130
f 130 121 128
f 132 121 130
f 157 156 154
f 192 196 193
f 164 166 163
f 166 165 163
f 197 181 194
f 182 184 181
f 181 184 190
f 181 190 194
f 193 191 192
f 188 192 191
f 175 176 173
f 176 175 174
f 178 174 175
f 205 204 201
f 165 172 163
f 172 165 173
f 176 172 173
f 186 189 188
f 141 158 156
f 156 155 154
f 155 156 158
f 186 188 185
f 185 188 191
f 132 131 121
f 184 182 187
f 143 142 141
f 142 158 141
f 144 143 141
f 191 194 190
f 194 191 193
f 155 152 154
f 185 191 190
f 184 185 190
f 177 167 174
f 174 178 177
f 158 142 155
f 186 185 184
f 187 186 184
f 152 155 151
f 142 151 155
f 131 120 121
f 146 152 151
f 174 172 176
f 143 145 142
f 142 145 151
f 145 146 151
f 147 146 145
f 174 167 168
f 167 161 168
f 161 167 160
f 148 147 145
f 161 172 168
f 168 172 174
f 163 172 161
f 161 160 159
f 145 143 148
f 162 161 159
f 164 163 161
f 162 164 161
f 335 334 333
f 334 332 333
f 333 332 331
f 336 334 335
f 337 336 335
f 334 356 332
f 356 355 332
f 332 355 330
f 332 330 331
f 336 357 334
f 357 356 334
f 331 330 329
f 355 354 330
f 330 354 328
f 330 328 329
f 356 374 355
f 373 372 355
f 374 373 355
f 372 370 355
f 355 370 354
f 357 375 356
f 375 374 356
f 370 353 354
f 354 353 328
f 339 338 337
f 338 336 337
f 373 371 372
f 372 371 370
f 371 368 370
f 370 368 353
f 338 358 336
f 358 357 336
f 329 328 327
f 374 395 373
f 373 395 393
f 392 373 393
f 373 392 371
f 328 353 326
f 328 326 327
f 358 376 357
f 376 375 357
f 397 374 375
f 397 395 374
f 369 368 371
f 371 392 369
f 368 352 353
f 353 352 326
f 369 367 368
f 368 367 352
f 399 375 376
f 399 397 375
f 369 389 367
f 389 369 390
f 369 392 390
f 393 395 394
f 395 396 394
f 395 397 396
f 390 392 391
f 392 393 391
f 397 398 396
f 397 399 398
f 394 410 393
f 393 410 391
f 327 326 325
f 378 377 358
f 377 376 358
f 326 352 324
f 326 324 325
f 391 410 390
f 396 410 394
f 352 367 351
f 352 351 324
f 389 386 367
f 367 366 351
f 367 386 366
f 401 399 376
f 401 376 377
f 389 390 388
f 390 410 388
f 398 410 396
f 386 389 387
f 387 389 388
f 399 400 398
f 399 401 400
f 388 410 387
f 400 410 398
f 324 351 322
f 325 324 323
f 324 322 323
f 351 350 322
f 351 366 350
f 366 365 350
f 386 365 366
f 359 379 378
f 379 377 378
f 386 385 365
f 385 386 387
f 387 410 385
f 403 377 379
f 403 401 377
f 401 402 400
f 401 403 402
f 402 410 400
f 404 410 402
f 406 410 404
f 408 410 406
f 385 410 384
f 384 410 383
f 383 410 408
f 385 384 365
f 403 405 402
f 402 405 404
f 405 403 380
f 380 403 379
f 365 384 364
f 365 364 349
f 350 365 349
f 384 383 364
f 405 407 404
f 404 407 406
f 380 379 359
f 350 349 320
f 350 320 322
f 323 322 321
f 322 320 321
f 409 383 408
f 409 363 383
f 364 383 363
f 360 359 341
f 360 380 359
f 407 409 406
f 406 409 408
f 342 341 340
f 342 360 341
f 343 342 340
f 381 405 380
f 407 405 381
f 364 363 348
f 349 364 348
f 409 407 381
f 381 380 360
f 409 381 382
f 363 409 382
f 349 348 320
f 363 382 362
f 348 363 362
f 321 320 318
f 320 319 318
f 320 348 319
f 361 381 360
f 361 360 342
f 382 381 361
f 362 382 361
f 344 342 343
f 344 361 342
f 348 362 346
f 319 348 346
f 345 344 343
f 362 361 344
f 346 362 344
f 318 319 347
f 319 346 347
f 347 346 345
f 346 344 345
f 505 504 503
f 506 504 505
f 509 506 505
f 517 509 505
f 517 519 516
f 515 509 517
f 515 517 516
f 490 452 471
f 455 472 471
f 455 471 452
f 484 443 482
f 423 422 421
f 452 421 422
f 421 452 490
f 483 482 440
f 452 422 489
f 478 481 477
f 452 456 455
f 487 485 486
f 452 489 413
f 411 452 413
f 453 452 411
f 454 452 453
f 456 452 457
f 457 452 454
f 524 527 523
f 525 524 523
f 440 482 443
f 479 478 477
f 480 478 479
f 486 485 430
f 485 488 430
f 413 412 411
f 436 443 442
f 440 443 436
f 501 442 486
f 501 486 430
f 473 457 454
f 524 525 526
f 511 509 515
f 511 510 509
f 492 477 499
f 492 479 477
f 434 440 436
f 441 440 434
f 476 475 430
f 433 475 474
f 433 430 475
f 510 511 508
f 503 504 508
f 414 501 430
f 432 431 430
f 433 432 430
f 492 491 479
f 479 491 463
f 508 511 507
f 503 508 507
f 515 516 513
f 514 515 513
f 531 529 530
f 532 529 531
f 516 519 518
f 520 521 522
f 521 520 519
f 519 520 518
f 530 529 528
f 514 513 512
f 520 514 512
f 514 520 522
f 498 496 497
f 420 419 418
f 496 494 495
f 498 494 496
f 436 435 434
f 420 502 419
f 415 437 501
f 436 415 435
f 437 415 436
f 415 501 414
f 495 494 493
f 435 439 438
f 415 439 435
f 465 463 491
f 465 491 500
f 538 537 543
f 538 533 537
f 540 538 543
f 540 542 538
f 540 541 542
f 544 542 541
f 544 547 542
f 537 540 543
f 541 540 536
f 536 540 539
f 534 539 540
f 537 534 540
f 534 536 539
f 533 534 537
f 536 534 535
f 546 544 541
f 535 534 533
f 553 551 552
f 553 554 551
f 553 547 554
f 554 547 555
f 544 555 547
f 550 548 556
f 464 467 463
f 465 464 463
f 431 432 469
f 470 469 432
f 459 446 447
f 546 545 544
f 550 557 549
f 550 549 548
f 416 415 414
f 417 416 414
f 431 469 468
f 426 425 424
f 439 415 461
f 462 461 415
f 429 428 427
f 445 444 424
f 447 444 445
f 466 464 465
f 439 461 460
f 450 458 448
f 424 444 426
f 444 447 446
f 446 451 444
f 426 444 428
f 546 551 545
f 546 552 551
f 444 451 450
f 449 444 448
f 427 444 449
f 428 444 427
f 448 444 450
f 558 559 560
f 560 559 561
f 562 563 564
f 564 563 565
f 566 567 568
f 568 567 569
f 570 571 572
f 572 571 573
f 574 575 576
f 576 575 577
f 578 579 580
f 580 579 581
f 582 583 584
f 584 583 585
f 586 587 588
f 588 587 589
f 590 591 592
f 592 591 593
f 594 595 596
f 596 595 597
f 598 599 600
f 600 599 601
f 602 603 604
f 604 603 605
f 606 607 608
f 608 607 609
f 610 611 612
f 612 611 613
f 614 615 616
f 616 615 617
f 618 619 620
f 620 619 621
f 622 623 624
f 624 623 625
f 626 627 628
f 628 627 629
f 630 631 632
f 632 631 633
f 634 635 636
f 636 635 637
f 638 639 640
f 640 639 641
f 642 643 644
f 644 643 645
f 646 647 648
f 648 647 649
f 650 651 652
f 652 651 653
f 654 655 656
f 656 655 657
f 658 659 660
f 660 659 661
f 716 715 714
f 717 715 716
f 712 711 710
f 713 711 712
f 704 703 702
f 700 699 698
f 699 700 701
f 696 695 694
f 688 687 686
f 687 688 689
f 664 663 662
f 665 663 664
f 695 696 697
f 684 683 682
f 685 683 684
f 676 675 674
f 677 675 676
f 672 671 670
f 673 671 672
f 732 731 730
f 733 731 732
f 728 727 726
f 729 727 728
f 720 719 718
f 705 703 704
f 721 719 720
f 668 667 666
f 669 667 668
f 724 723 722
f 725 723 724
f 708 707 706
f 709 707 708
f 692 691 690
f 691 692 693
f 680 679 678
f 681 679 680
f 767 735 734
f 734 766 767
f 799 767 766
f 766 798 799
f 831 799 798
f 798 830 831
f 863 831 830
f 830 862 863
f 895 863 862
f 862 894 895
f 927 895 894
f 894 926 927
f 959 927 926
f 926 958 959
f 991 959 958
f 958 990 991
f 1023 991 990
f 990 1022 1023
f 1055 1023 1022
f 1022 1054 1055
f 1087 1055 1054
f 1054 1086 1087
f 1119 1087 1086
f 1086 1118 1119
f 1151 1119 1118
f 1118 1150 1151
f 1183 1151 1150
f 1150 1182 1183
f 1215 1183 1182
f 1182 1214 1215
f 1247 1215 1214
f 1214 1246 1247
f 1279 1247 1246
f 1246 1278 1279
f 1311 1279 1278
f 1278 1310 1311
f 1343 1311 1310
f 1310 1342 1343
f 1375 1343 1342
f 1342 1374 1375
f 1407 1375 1374
f 1374 1406 1407
f 1439 1407 1406
f 1406 1438 1439
f 1471 1439 1438
f 1438 1470 1471
f 1503 1471 1470
f 1470 1502 1503
f 1535 1503 1502
f 1502 1534 1535
f 1567 1535 1534
f 1534 1566 1567
f 1599 1567 1566
f 1566 1598 1599
f 1631 1599 1598
f 1598 1630 1631
f 1663 1631 1630
f 1630 1662 1663
f 1695 1663 1662
f 1662 1694 1695
f 1727 1695 1694
f 1694 1726 1727
f 768 736 735
f 735 767 768
f 800 768 767
f 767 799 800
f 832 800 799
f 799 831 832
f 864 832 831
f 831 863 864
f 896 864 863
f 863 895 896
f 928 896 895
f 895 927 928
f 960 928 927
f 927 959 960
f 992 960 959
f 959 991 992
f 1024 992 991
f 991 1023 1024
f 1056 1024 1023
f 1023 1055 1056
f 1088 1056 1055
f 1055 1087 1088
f 1120 1088 1087
f 1087 1119 1120
f 1152 1120 1119
f 1119 1151 1152
f 1184 1152 1151
f 1151 1183 1184
f 1216 1184 1183
f 1183 1215 1216
f 1248 1216 1215
f 1215 1247 1248
f 1280 1248 1247
f 1247 1279 1280
f 1312 1280 1279
f 1279 1311 1312
f 1344 1312 1311
f 1311 1343 1344
f 1376 1344 1343
f 1343 1375 1376
f 1408 1376 1375
f 1375 1407 1408
f 1440 1408 1407
f 1407 1439 1440
f 1472 1440 1439
f 1439 1471 1472
f 1504 1472 1471
f 1471 1503 1504
f 1536 1504 1503
f 1503 1535 1536
f 1568 1536 1535
f 1535 1567 1568
f 1600 1568 1567
f 1567 1599 1600
f 1632 1600 1599
f 1599 1631 1632
f 1664 1632 1631
f 1631 1663 1664
f 1696 1664 1663
f 1663 1695 1696
f 1728 1696 1695
f 1695 1727 1728
f 769 737 736
f 736 768 769
f 801 769 768
f 768 800 801
f 833 801 800
f 800 832 833
f 865 833 832
f 832 864 865
f 897 865 864
f 864 896 897
f 929 897 896
f 896 928 929
f 961 929 928
f 928 960 961
f 993 961 960
f 960 992 993
f 1025 993 992
f 992 1024 1025
f 1057 1025 1024
f 1024 1056 1057
f 1089 1057 1056
f 1056 1088 1089
f 1121 1089 1088
f 1088 1120 1121
f 1153 1121 1120
f 1120 1152 1153
f 1185 1153 1152
f 1152 1184 1185
f 1217 1185 1184
f 1184 1216 1217
f 1249 1217 1216
f 1216 1248 1249
f 1281 1249 1248
f 1248 1280 1281
f 1313 1281 1280
f 1280 1312 1313
f 1345 1313 1312
f 1312 1344 1345
f 1377 1345 1344
f 1344 1376 1377
f 1409 1377 1376
f 1376 1408 1409
f 1441 1409 1408
f 1408 1440 1441
f 1473 1441 1440
f 1440 1472 1473
f 1505 1473 1472
f 1472 1504 1505
f 1537 1505 1504
f 1504 1536 1537
f 1569 1537 1536
f 1536 1568 1569
f 1601 1569 1568
f 1568 1600 1601
f 1633 1601 1600
f 1600 1632 1633
f 1665 1633 1632
f 1632 1664 1665
f 1697 1665 1664
f 1664 1696 1697
f 1729 1697 1696
f 1696 1728 1729
f 770 738 737
f 737 769 770
f 802 770 769
f 769 801 802
f 834 802 801
f 801 833 834
f 866 834 833
f 833 865 866
f 898 866 865
f 865 897 898
f 930 898 897
f 897 929 930
f 962 930 929
f 929 961 962
f 994 962 961
f 961 993 994
f 1026 994 993
f 993 1025 1026
f 1058 1026 1025
f 1025 1057 1058
f 1090 1058 1057
f 1057 1089 1090
f 1122 1090 1089
f 1089 1121 1122
f 1154 1122 1121
f 1121 1153 1154
f 1186 1154 1153
f 1153 1185 1186
f 1218 1186 1185
f 1185 1217 1218
f 1250 1218 1217
f 1217 1249 1250
f 1282 1250 1249
f 1249 1281 1282
f 1314 1282 1281
f 1281 1313 1314
f 1346 1314 1313
f 1313 1345 1346
f 1378 1346 1345
f 1345 1377 1378
f 1410 1378 1377
f 1377 1409 1410
f 1442 1410 1409
f 1409 1441 1442
f 1474 1442 1441
f 1441 1473 1474
f 1506 1474 1473
f 1473 1505 1506
f 1538 1506 1505
f 1505 1537 1538
f 1570 1538 1537
f 1537 1569 1570
f 1602 1570 1569
f 1569 1601 1602
f 1634 1602 1601
f 1601 1633 1634
f 1666 1634 1633
f 1633 1665 1666
f 1698 1666 1665
f 1665 1697 1698
f 1730 1698 1697
f 1697 1729 1730
f 771 739 738
f 738 770 771
f 803 771 770
f 770 802 803
f 835 803 802
f 802 834 835
f 867 835 834
f 834 866 867
f 899 867 866
f 866 898 899
f 931 899 898
f 898 930 931
f 963 931 930
f 930 962 963
f 995 963 962
f 962 994 995
f 1027 995 994
f 994 1026 1027
f 1059 1027 1026
f 1026 1058 1059
f 1091 1059 1058
f 1058 1090 1091
f 1123 1091 1090
f 1090 1122 1123
f 1155 1123 1122
f 1122 1154 1155
f 1187 1155 1154
f 1154 1186 1187
f 1219 1187 1186
f 1186 1218 1219
f 1251 1219 1218
f 1218 1250 1251
f 1283 1251 1250
f 1250 1282 1283
f 1315 1283 1282
f 1282 1314 1315
f 1347 1315 1314
f 1314 1346 1347
f 1379 1347 1346
f 1346 1378 1379
f 1411 1379 1378
f 1378 1410 1411
f 1443 1411 1410
f 1410 1442 1443
f 1475 1443 1442
f 1442 1474 1475
f 1507 1475 1474
f 1474 1506 1507
f 1539 1507 1506
f 1506 1538 1539
f 1571 1539 1538
f 1538 1570 1571
f 1603 1571 1570
f 1570 1602 1603
f 1635 1603 1602
f 1602 1634 1635
f 1667 1635 1634
f 1634 1666 1667
f 1699 1667 1666
f 1666 1698 1699
f 1731 1699 1698
f 1698 1730 1731
f 772 740 739
f 739 771 772
f 804 772 771
f 771 803 804
f 836 804 803
f 803 835 836
f 868 836 835
f 835 867 868
f 900 868 867
f 867 899 900
f 932 900 899
f 899 931 932
f 964 932 931
f 931 963 964
f 996 964 963
f 963 995 996
f 1028 996 995
f 995 1027 1028
f 1060 1028 1027
f 1027 1059 1060
f 1092 1060 1059
f 1059 1091 1092
f 1124 1092 1091
f 1091 1123 1124
f 1156 1124 1123
f 1123 1155 1156
f 1188 1156 1155
f 1155 1187 1188
f 1220 1188 1187
f 1187 1219 1220
f 1252 1220 1219
f 1219 1251 1252
f 1284 1252 1251
f 1251 1283 1284
f 1316 1284 1283
f 1283 1315 1316
f 1348 1316 1315
f 1315 1347 1348
f 1380 1348 1347
f 1347 1379 1380
f 1412 1380 1379
f 1379 1411 1412
f 1444 1412 1411
f 1411 1443 1444
f 1476 1444 1443
f 1443 1475 1476
f 1508 1476 1475
f 1475 1507 1508
f 1540 1508 1507
f 1507 1539 1540
f 1572 1540 1539
f 1539 1571 1572
f 1604 1572 1571
f 1571 1603 1604
f 1636 1604 1603
f 1603 1635 1636
f 1668 1636 1635
f 1635 1667 1668
f 1700 1668 1667
f 1667 1699 1700
f 1732 1700 1699
f 1699 1731 1732
f 773 741 740
f 740 772 773
f 805 773 772
f 772 804 805
f 837 805 804
f 804 836 837
f 869 837 836
f 836 868 869
f 901 869 868
f 868 900 901
f 933 901 900
f 900 932 933
f 965 933 932
f 932 964 965
f 997 965 964
f 964 996 997
f 1029 997 996
f 996 1028 1029
f 1061 1029 1028
f 1028 1060 1061
f 1093 1061 1060
f 1060 1092 1093
f 1125 1093 1092
f 1092 1124 1125
f 1157 1125 1124
f 1124 1156 1157
f 1189 1157 1156
f 1156 1188 1189
f 1221 1189 1188
f 1188 1220 1221
f 1253 1221 1220
f 1220 1252 1253
f 1285 1253 1252
f 1252 1284 1285
f 1317 1285 1284
f 1284 1316 1317
f 1349 1317 1316
f 1316 1348 1349
f 1381 1349 1348
f 1348 1380 1381
f 1413 1381 1380
f 1380 1412 1413
f 1445 1413 1412
f 1412 1444 1445
f 1477 1445 1444
f 1444 1476 1477
f 1509 1477 1476
f 1476 1508 1509
f 1541 1509 1508
f 1508 1540 1541
f 1573 1541 1540
f 1540 1572 1573
f 1605 1573 1572
f 1572 1604 1605
f 1637 1605 1604
f 1604 1636 1637
f 1669 1637 1636
f 1636 1668 1669
f 1701 1669 1668
f 1668 1700 1701
f 1733 1701 1700
f 1700 1732 1733
f 774 742 741
f 741 773 774
f 806 774 773
f 773 805 806
f 838 806 805
f 805 837 838
f 870 838 837
f 837 869 870
f 902 870 869
f 869 901 902
f 934 902 901
f 901 933 934
f 966 934 933
f 933 965 966
f 998 966 965
f 965 997 998
f 1030 998 997
f 997 1029 1030
f 1062 1030 1029
f 1029 1061 1062
f 1094 1062 1061
f 1061 1093 1094
f 1126 1094 1093
f 1093 1125 1126
f 1158 1126 1125
f 1125 1157 1158
f 1190 1158 1157
f 1157 1189 1190
f 1222 1190 1189
f 1189 1221 1222
f 1254 1222 1221
f 1221 1253 1254
f 1286 1254 1253
f 1253 1285 1286
f 1318 1286 1285
f 1285 1317 1318
f 1350 1318 1317
f 1317 1349 1350
f 1382 1350 1349
f 1349 1381 1382
f 1414 1382 1381
f 1381 1413 1414
f 1446 1414 1413
f 1413 1445 1446
f 1478 1446 1445
f 1445 1477 1478
f 1510 1478 1477
f 1477 1509 1510
f 1542 1510 1509
f 1509 1541 1542
f 1574 1542 1541
f 1541 1573 1574
f 1606 1574 1573
f 1573 1605 1606
f 1638 1606 1605
f 1605 1637 1638
f 1670 1638 1637
f 1637 1669 1670
f 1702 1670 1669
f 1669 1701 1702
f 1734 1702 1701
f 1701 1733 1734
f 775 743 742
f 742 774 775
f 807 775 774
f 774 806 807
f 839 807 806
f 806 838 839
f 871 839 838
f 838 870 871
f 903 871 870
f 870 902 903
f 935 903 902
f 902 934 935
f 967 935 934
f 934 966 967
f 999 967 966
f 966 998 999
f 1031 999 998
f 998 1030 1031
f 1063 1031 1030
f 1030 1062 1063
f 1095 1063 1062
f 1062 1094 1095
f 1127 1095 1094
f 1094 1126 1127
f 1159 1127 1126
f 1126 1158 1159
f 1191 1159 1158
f 1158 1190 1191
f 1223 1191 1190
f 1190 1222 1223
f 1255 1223 1222
f 1222 1254 1255
f 1287 1255 1254
f 1254 1286 1287
f 1319 1287 1286
f 1286 1318 1319
f 1351 1319 1318
f 1318 1350 1351
f 1383 1351 1350
f 1350 1382 1383
f 1415 1383 1382
f 1382 1414 1415
f 1447 1415 1414
f 1414 1446 1447
f 1479 1447 1446
f 1446 1478 1479
f 1511 1479 1478
f 1478 1510 1511
f 1543 1511 1510
f 1510 1542 1543
f 1575 1543 1542
f 1542 1574 1575
f 1607 1575 1574
f 1574 1606 1607
f 1639 1607 1606
f 1606 1638 1639
f 1671 1639 1638
f 1638 1670 1671
f 1703 1671 1670
f 1670 1702 1703
f 1735 1703 1702
f 1702 1734 1735
f 776 744 743
f 743 775 776
f 808 776 775
f 775 807 808
f 840 808 807
f 807 839 840
f 872 840 839
f 839 871 872
f 904 872 871
f 871 903 904
f 936 904 903
f 903 935 936
f 968 936 935
f 935 967 968
f 1000 968 967
f 967 999 1000
f 1032 1000 999
f 999 1031 1032
f 1064 1032 1031
f 1031 1063 1064
f 1096 1064 1063
f 1063 1095 1096
f 1128 1096 1095
f 1095 1127 1128
f 1160 1128 1127
f 1127 1159 1160
f 1192 1160 1159
f 1159 1191 1192
f 1224 1192 1191
f 1191 1223 1224
f 1256 1224 1223
f 1223 1255 1256
f 1288 1256 1255
f 1255 1287 1288
f 1320 1288 1287
f 1287 1319 1320
f 1352 1320 1319
f 1319 1351 1352
f 1384 1352 1351
f 1351 1383 1384
f 1416 1384 1383
f 1383 1415 1416
f 1448 1416 1415
f 1415 1447 1448
f 1480 1448 1447
f 1447 1479 1480
f 1512 1480 1479
f 1479 1511 1512
f 1544 1512 1511
f 1511 1543 1544
f 1576 1544 1543
f 1543 1575 1576
f 1608 1576 1575
f 1575 1607 1608
f 1640 1608 1607
f 1607 1639 1640
f 1672 1640 1639
f 1639 1671 1672
f 1704 1672 1671
f 1671 1703 1704
f 1736 1704 1703
f 1703 1735 1736
f 777 745 744
f 744 776 777
f 809 777 776
f 776 808 809
f 841 809 808
f 808 840 841
f 873 841 840
f 840 872 873
f 905 873 872
f 872 904 905
f 937 905 904
f 904 936 937
f 969 937 936
f 936 968 969
f 1001 969 968
f 968 1000 1001
f 1033 1001 1000
f 1000 1032 1033
f 1065 1033 1032
f 1032 1064 1065
f 1097 1065 1064
f 1064 1096 1097
f 1129 1097 1096
f 1096 1128 1129
f 1161 1129 1128
f 1128 1160 1161
f 1193 1161 1160
f 1160 1192 1193
f 1225 1193 1192
f 1192 1224 1225
f 1257 1225 1224
f 1224 1256 1257
f 1289 1257 1256
f 1256 1288 1289
f 1321 1289 1288
f 1288 1320 1321
f 1353 1321 1320
f 1320 1352 1353
f 1385 1353 1352
f 1352 1384 1385
f 1417 1385 1384
f 1384 1416 1417
f 1449 1417 1416
f 1416 1448 1449
f 1481 1449 1448
f 1448 1480 1481
f 1513 1481 1480
f 1480 1512 1513
f 1545 1513 1512
f 1512 1544 1545
f 1577 1545 1544
f 1544 1576 1577
f 1609 1577 1576
f 1576 1608 1609
f 1641 1609 1608
f 1608 1640 1641
f 1673 1641 1640
f 1640 1672 1673
f 1705 1673 1672
f 1672 1704 1705
f 1737 1705 1704
f 1704 1736 1737
f 778 746 745
f 745 777 778
f 810 778 777
f 777 809 810
f 842 810 809
f 809 841 842
f 874 842 841
f 841 873 874
f 906 874 873
f 873 905 906
f 938 906 905
f 905 937 938
f 970 938 937
f 937 969 970
f 1002 970 969
f 969 1001 1002
f 1034 1002 1001
f 1001 1033 1034
f 1066 1034 1033
f 1033 1065 1066
f 1098 1066 1065
f 1065 1097 1098
f 1130 1098 1097
f 1097 1129 1130
f 1162 1130 1129
f 1129 1161 1162
f 1194 1162 1161
f 1161 1193 1194
f 1226 1194 1193
f 1193 1225 1226
f 1258 1226 1225
f 1225 1257 1258
f 1290 1258 1257
f 1257 1289 1290
f 1322 1290 1289
f 1289 1321 1322
f 1354 1322 1321
f 1321 1353 1354
f 1386 1354 1353
f 1353 1385 1386
f 1418 1386 1385
f 1385 1417 1418
f 1450 1418 1417
f 1417 1449 1450
f 1482 1450 1449
f 1449 1481 1482
f 1514 1482 1481
f 1481 1513 1514
f 1546 1514 1513
f 1513 1545 1546
f 1578 1546 1545
f 1545 1577 1578
f 1610 1578 1577
f 1577 1609 1610
f 1642 1610 1609
f 1609 1641 1642
f 1674 1642 1641
f 1641 1673 1674
f 1706 1674 1673
f 1673 1705 1706
f 1738 1706 1705
f 1705 1737 1738
f 779 747 746
f 746 778 779
f 811 779 778
f 778 810 811
f 843 811 810
f 810 842 843
f 875 843 842
f 842 874 875
f 907 875 874
f 874 906 907
f 939 907 906
f 906 938 939
f 971 939 938
f 938 970 971
f 1003 971 970
f 970 1002 1003
f 1035 1003 1002
f 1002 1034 1035
f 1067 1035 1034
f 1034 1066 1067
f 1099 1067 1066
f 1066 1098 1099
f 1131 1099 1098
f 1098 1130 1131
f 1163 1131 1130
f 1130 1162 1163
f 1195 1163 1162
f 1162 1194 1195
f 1227 1195 1194
f 1194 1226 1227
f 1259 1227 1226
f 1226 1258 1259
f 1291 1259 1258
f 1258 1290 1291
f 1323 1291 1290
f 1290 1322 1323
f 1355 1323 1322
f 1322 1354 1355
f 1387 1355 1354
f 1354 1386 1387
f 1419 1387 1386
f 1386 1418 1419
f 1451 1419 1418
f 1418 1450 1451
f 1483 1451 1450
f 1450 1482 1483
f 1515 1483 1482
f 1482 1514 1515
f 1547 1515 1514
f 1514 1546 1547
f 1579 1547 1546
f 1546 1578 1579
f 1611 1579 1578
f 1578 1610 1611
f 1643 1611 1610
f 1610 1642 1643
f 1675 1643 1642
f 1642 1674 1675
f 1707 1675 1674
f 1674 1706 1707
f 1739 1707 1706
f 1706 1738 1739
f 780 748 747
f 747 779 780
f 812 780 779
f 779 811 812
f 844 812 811
f 811 843 844
f 876 844 843
f 843 875 876
f 908 876 875
f 875 907 908
f 940 908 907
f 907 939 940
f 972 940 939
f 939 971 972
f 1004 972 971
f 971 1003 1004
f 1036 1004 1003
f 1003 1035 1036
f 1068 1036 1035
f 1035 1067 1068
f 1100 1068 1067
f 1067 1099 1100
f 1132 1100 1099
f 1099 1131 1132
f 1164 1132 1131
f 1131 1163 1164
f 1196 1164 1163
f 1163 1195 1196
f 1228 1196 1195
f 1195 1227 1228
f 1260 1228 1227
f 1227 1259 1260
f 1292 1260 1259
f 1259 1291 1292
f 1324 1292 1291
f 1291 1323 1324
f 1356 1324 1323
f 1323 1355 1356
f 1388 1356 1355
f 1355 1387 1388
f 1420 1388 1387
f 1387 1419 1420
f 1452 1420 1419
f 1419 1451 1452
f 1484 1452 1451
f 1451 1483 1484
f 1516 1484 1483
f 1483 1515 1516
f 1548 1516 1515
f 1515 1547 1548
f 1580 1548 1547
f 1547 1579 1580
f 1612 1580 1579
f 1579 1611 1612
f 1644 1612 1611
f 1611 1643 1644
f 1676 1644 1643
f 1643 1675 1676
f 1708 1676 1675
f 1675 1707 1708
f 1740 1708 1707
f 1707 1739 1740
f 781 749 748
f 748 780 781
f 813 781 780
f 780 812 813
f 845 813 812
f 812 844 845
f 877 845 844
f 844 876 877
f 909 877 876
f 876 908 909
f 941 909 908
f 908 940 941
f 973 941 940
f 940 972 973
f 1005 973 972
f 972 1004 1005
f 1037 1005 1004
f 1004 1036 1037
f 1069 1037 1036
f 1036 1068 1069
f 1101 1069 1068
f 1068 1100 1101
f 1133 1101 1100
f 1100 1132 1133
f 1165 1133 1132
f 1132 1164 1165
f 1197 1165 1164
f 1164 1196 1197
f 1229 1197 1196
f 1196 1228 1229
f 1261 1229 1228
f 1228 1260 1261
f 1293 1261 1260
f 1260 1292 1293
f 1325 1293 1292
f 1292 1324 1325
f 1357 1325 1324
f 1324 1356 1357
f 1389 1357 1356
f 1356 1388 1389
f 1421 1389 1388
f 1388 1420 1421
f 1453 1421 1420
f 1420 1452 1453
f 1485 1453 1452
f 1452 1484 1485
f 1517 1485 1484
f 1484 1516 1517
f 1549 1517 1516
f 1516 1548 1549
f 1581 1549 1548
f 1548 1580 1581
f 1613 1581 1580
f 1580 1612 1613
f 1645 1613 1612
f 1612 1644 1645
f 1677 1645 1644
f 1644 1676 1677
f 1709 1677 1676
f 1676 1708 1709
f 1741 1709 1708
f 1708 1740 1741
f 782 750 749
f 749 781 782
f 814 782 781
f 781 813 814
f 846 814 813
f 813 845 846
f 878 846 845
f 845 877 878
f 910 878 877
f 877 909 910
f 942 910 909
f 909 941 942
f 974 942 941
f 941 973 974
f 1006 974 973
f 973 1005 1006
f 1038 1006 1005
f 1005 1037 1038
f 1070 1038 1037
f 1037 1069 1070
f 1102 1070 1069
f 1069 1101 1102
f 1134 1102 1101
f 1101 1133 1134
f 1166 1134 1133
f 1133 1165 1166
f 1198 1166 1165
f 1165 1197 1198
f 1230 1198 1197
f 1197 1229 1230
f 1262 1230 1229
f 1229 1261 1262
f 1294 1262 1261
f 1261 1293 1294
f 1326 1294 1293
f 1293 1325 1326
f 1358 1326 1325
f 1325 1357 1358
f 1390 1358 1357
f 1357 1389 1390
f 1422 1390 1389
f 1389 1421 1422
f 1454 1422 1421
f 1421 1453 1454
f 1486 1454 1453
f 1453 1485 1486
f 1518 1486 1485
f 1485 1517 1518
f 1550 1518 1517
f 1517 1549 1550
f 1582 1550 1549
f 1549 1581 1582
f 1614 1582 1581
f 1581 1613 1614
f 1646 1614 1613
f 1613 1645 1646
f 1678 1646 1645
f 1645 1677 1678
f 1710 1678 1677
f 1677 1709 1710
f 1742 1710 1709
f 1709 1741 1742
f 783 751 750
f 750 782 783
f 815 783 782
f 782 814 815
f 847 815 814
f 814 846 847
f 879 847 846
f 846 878 879
f 911 879 878
f 878 910 911
f 943 911 910
f 910 942 943
f 975 943 942
f 942 974 975
f 1007 975 974
f 974 1006 1007
f 1039 1007 1006
f 1006 1038 1039
f 1071 1039 1038
f 1038 1070 1071
f 1103 1071 1070
f 1070 1102 1103
f 1135 1103 1102
f 1102 1134 1135
f 1167 1135 1134
f 1134 1166 1167
f 1199 1167 1166
f 1166 1198 1199
f 1231 1199 1198
f 1198 1230 1231
f 1263 1231 1230
f 1230 1262 1263
f 1295 1263 1262
f 1262 1294 1295
f 1327 1295 1294
f 1294 1326 1327
f 1359 1327 1326
f 1326 1358 1359
f 1391 1359 1358
f 1358 1390 1391
f 1423 1391 1390
f 1390 1422 1423
f 1455 1423 1422
f 1422 1454 1455
f 1487 1455 1454
f 1454 1486 1487
f 1519 1487 1486
f 1486 1518 1519
f 1551 1519 1518
f 1518 1550 1551
f 1583 1551 1550
f 1550 1582 1583
f 1615 1583 1582
f 1582 1614 1615
f 1647 1615 1614
f 1614 1646 1647
f 1679 1647 1646
f 1646 1678 1679
f 1711 1679 1678
f 1678 1710 1711
f 1743 1711 1710
f 1710 1742 1743
f 784 752 751
f 751 783 784
f 816 784 783
f 783 815 816
f 848 816 815
f 815 847 848
f 880 848 847
f 847 879 880
f 912 880 879
f 879 911 912
f 944 912 911
f 911 943 944
f 976 944 943
f 943 975 976
f 1008 976 975
f 975 1007 1008
f 1040 1008 1007
f 1007 1039 1040
f 1072 1040 1039
f 1039 1071 1072
f 1104 1072 1071
f 1071 1103 1104
f 1136 1104 1103
f 1103 1135 1136
f 1168 1136 1135
f 1135 1167 1168
f 1200 1168 1167
f 1167 1199 1200
f 1232 1200 1199
f 1199 1231 1232
f 1264 1232 1231
f 1231 1263 1264
f 1296 1264 1263
f 1263 1295 1296
f 1328 1296 1295
f 1295 1327 1328
f 1360 1328 1327
f 1327 1359 1360
f 1392 1360 1359
f 1359 1391 1392
f 1424 1392 1391
f 1391 1423 1424
f 1456 1424 1423
f 1423 1455 1456
f 1488 1456 1455
f 1455 1487 1488
f 1520 1488 1487
f 1487 1519 1520
f 1552 1520 1519
f 1519 1551 1552
f 1584 1552 1551
f 1551 1583 1584
f 1616 1584 1583
f 1583 1615 1616
f 1648 1616 1615
f 1615 1647 1648
f 1680 1648 1647
f 1647 1679 1680
f 1712 1680 1679
f 1679 1711 1712
f 1744 1712 1711
f 1711 1743 1744
f 785 753 752
f 752 784 785
f 817 785 784
f 784 816 817
f 849 817 816
f 816 848 849
f 881 849 848
f 848 880 881
f 913 881 880
f 880 912 913
f 945 913 912
f 912 944 945
f 977 945 944
f 944 976 977
f 1009 977 976
f 976 1008 1009
f 1041 1009 1008
f 1008 1040 1041
f 1073 1041 1040
f 1040 1072 1073
f 1105 1073 1072
f 1072 1104 1105
f 1137 1105 1104
f 1104 1136 1137
f 1169 1137 1136
f 1136 1168 1169
f 1201 1169 1168
f 1168 1200 1201
f 1233 1201 1200
f 1200 1232 1233
f 1265 1233 1232
f 1232 1264 1265
f 1297 1265 1264
f 1264 1296 1297
f 1329 1297 1296
f 1296 1328 1329
f 1361 1329 1328
f 1328 1360 1361
f 1393 1361 1360
f 1360 1392 1393
f 1425 1393 1392
f 1392 1424 1425
f 1457 1425 1424
f 1424 1456 1457
f 1489 1457 1456
f 1456 1488 1489
f 1521 1489 1488
f 1488 1520 1521
f 1553 1521 1520
f 1520 1552 1553
f 1585 1553 1552
f 1552 1584 1585
f 1617 1585 1584
f 1584 1616 1617
f 1649 1617 1616
f 1616 1648 1649
f 1681 1649 1648
f 1648 1680 1681
f 1713 1681 1680
f 1680 1712 1713
f 1745 1713 1712
f 1712 1744 1745
f 786 754 753
f 753 785 786
f 818 786 785
f 785 817 818
f 850 818 817
f 817 849 850
f 882 850 849
f 849 881 882
f 914 882 881
f 881 913 914
f 946 914 913
f 913 945 946
f 978 946 945
f 945 977 978
f 1010 978 977
f 977 1009 1010
f 1042 1010 1009
f 1009 1041 1042
f 1074 1042 1041
f 1041 1073 1074
f 1106 1074 1073
f 1073 1105 1106
f 1138 1106 1105
f 1105 1137 1138
f 1170 1138 1137
f 1137 1169 1170
f 1202 1170 1169
f 1169 1201 1202
f 1234 1202 1201
f 1201 1233 1234
f 1266 1234 1233
f 1233 1265 1266
f 1298 1266 1265
f 1265 1297 1298
f 1330 1298 1297
f 1297 1329 1330
f 1362 1330 1329
f 1329 1361 1362
f 1394 1362 1361
f 1361 1393 1394
f 1426 1394 1393
f 1393 1425 1426
f 1458 1426 1425
f 1425 1457 1458
f 1490 1458 1457
f 1457 1489 1490
f 1522 1490 1489
f 1489 1521 1522
f 1554 1522 1521
f 1521 1553 1554
f 1586 1554 1553
f 1553 1585 1586
f 1618 1586 1585
f 1585 1617 1618
f 1650 1618 1617
f 1617 1649 1650
f 1682 1650 1649
f 1649 1681 1682
f 1714 1682 1681
f 1681 1713 1714
f 1746 1714 1713
f 1713 1745 1746
f 787 755 754
f 754 786 787
f 819 787 786
f 786 818 819
f 851 819 818
f 818 850 851
f 883 851 850
f 850 882 883
f 915 883 882
f 882 914 915
f 947 915 914
f 914 946 947
f 979 947 946
f 946 978 979
f 1011 979 978
f 978 1010 1011
f 1043 1011 1010
f 1010 1042 1043
f 1075 1043 1042
f 1042 1074 1075
f 1107 1075 1074
f 1074 1106 1107
f 1139 1107 1106
f 1106 1138 1139
f 1171 1139 1138
f 1138 1170 1171
f 1203 1171 1170
f 1170 1202 1203
f 1235 1203 1202
f 1202 1234 1235
f 1267 1235 1234
f 1234 1266 1267
f 1299 1267 1266
f 1266 1298 1299
f 1331 1299 1298
f 1298 1330 1331
f 1363 1331 1330
f 1330 1362 1363
f 1395 1363 1362
f 1362 1394 1395
f 1427 1395 1394
f 1394 1426 1427
f 1459 1427 1426
f 1426 1458 1459
f 1491 1459 1458
f 1458 1490 1491
f 1523 1491 1490
f 1490 1522 1523
f 1555 1523 1522
f 1522 1554 1555
f 1587 1555 1554
f 1554 1586 1587
f 1619 1587 1586
f 1586 1618 1619
f 1651 1619 1618
f 1618 1650 1651
f 1683 1651 1650
f 1650 1682 1683
f 1715 1683 1682
f 1682 1714 1715
f 1747 1715 1714
f 1714 1746 1747
f 788 756 755
f 755 787 788
f 820 788 787
f 787 819 820
f 852 820 819
f 819 851 852
f 884 852 851
f 851 883 884
f 916 884 883
f 883 915 916
f 948 916 915
f 915 947 948
f 980 948 947
f 947 979 980
f 1012 980 979
f 979 1011 1012
f 1044 1012 1011
f 1011 1043 1044
f 1076 1044 1043
f 1043 1075 1076
f 1108 1076 1075
f 1075 1107 1108
f 1140 1108 1107
f 1107 1139 1140
f 1172 1140 1139
f 1139 1171 1172
f 1204 1172 1171
f 1171 1203 1204
f 1236 1204 1203
f 1203 1235 1236
f 1268 1236 1235
f 1235 1267 1268
f 1300 1268 1267
f 1267 1299 1300
f 1332 1300 1299
f 1299 1331 1332
f 1364 1332 1331
f 1331 1363 1364
f 1396 1364 1363
f 1363 1395 1396
f 1428 1396 1395
f 1395 1427 1428
f 1460 1428 1427
f 1427 1459 1460
f 1492 1460 1459
f 1459 1491 1492
f 1524 1492 1491
f 1491 1523 1524
f 1556 1524 1523
f 1523 1555 1556
f 1588 1556 1555
f 1555 1587 1588
f 1620 1588 1587
f 1587 1619 1620
f 1652 1620 1619
f 1619 1651 1652
f 1684 1652 1651
f 1651 1683 1684
f 1716 1684 1683
f 1683 1715 1716
f 1748 1716 1715
f 1715 1747 1748
f 789 757 756
f 756 788 789
f 821 789 788
f 788 820 821
f 853 821 820
f 820 852 853
f 885 853 852
f 852 884 885
f 917 885 884
f 884 916 917
f 949 917 916
f 916 948 949
f 981 949 948
f 948 980 981
f 1013 981 980
f 980 1012 1013
f 1045 1013 1012
f 1012 1044 1045
f 1077 1045 1044
f 1044 1076 1077
f 1109 1077 1076
f 1076 1108 1109
f 1141 1109 1108
f 1108 1140 1141
f 1173 1141 1140
f 1140 1172 1173
f 1205 1173 1172
f 1172 1204 1205
f 1237 1205 1204
f 1204 1236 1237
f 1269 1237 1236
f 1236 1268 1269
f 1301 1269 1268
f 1268 1300 1301
f 1333 1301 1300
f 1300 1332 1333
f 1365 1333 1332
f 1332 1364 1365
f 1397 1365 1364
f 1364 1396 1397
f 1429 1397 1396
f 1396 1428 1429
f 1461 1429 1428
f 1428 1460 1461
f 1493 1461 1460
f 1460 1492 1493
f 1525 1493 1492
f 1492 1524 1525
f 1557 1525 1524
f 1524 1556 1557
f 1589 1557 1556
f 1556 1588 1589
f 1621 1589 1588
f 1588 1620 1621
f 1653 1621 1620
f 1620 1652 1653
f 1685 1653 1652
f 1652 1684 1685
f 1717 1685 1684
f 1684 1716 1717
f 1749 1717 1716
f 1716 1748 1749
f 790 758 757
f 757 789 790
f 822 790 789
f 789 821 822
f 854 822 821
f 821 853 854
f 886 854 853
f 853 885 886
f 918 886 885
f 885 917 918
f 950 918 917
f 917 949 950
f 982 950 949
f 949 981 982
f 1014 982 981
f 981 1013 1014
f 1046 1014 1013
f 1013 1045 1046
f 1078 1046 1045
f 1045 1077 1078
f 1110 1078 1077
f 1077 1109 1110
f 1142 1110 1109
f 1109 1141 1142
f 1174 1142 1141
f 1141 1173 1174
f 1206 1174 1173
f 1173 1205 1206
f 1238 1206 1205
f 1205 1237 1238
f 1270 1238 1237
f 1237 1269 1270
f 1302 1270 1269
f 1269 1301 1302
f 1334 1302 1301
f 1301 1333 1334
f 1366 1334 1333
f 1333 1365 1366
f 1398 1366 1365
f 1365 1397 1398
f 1430 1398 1397
f 1397 1429 1430
f 1462 1430 1429
f 1429 1461 1462
f 1494 1462 1461
f 1461 1493 1494
f 1526 1494 1493
f 1493 1525 1526
f 1558 1526 1525
f 1525 1557 1558
f 1590 1558 1557
f 1557 1589 1590
f 1622 1590 1589
f 1589 1621 1622
f 1654 1622 1621
f 1621 1653 1654
f 1686 1654 1653
f 1653 1685 1686
f 1718 1686 1685
f 1685 1717 1718
f 1750 1718 1717
f 1717 1749 1750
f 791 759 758
f 758 790 791
f 823 791 790
f 790 822 823
f 855 823 822
f 822 854 855
f 887 855 854
f 854 886 887
f 919 887 886
f 886 918 919
f 951 919 918
f 918 950 951
f 983 951 950
f 950 982 983
f 1015 983 982
f 982 1014 1015
f 1047 1015 1014
f 1014 1046 1047
f 1079 1047 1046
f 1046 1078 1079
f 1111 1079 1078
f 1078 1110 1111
f 1143 1111 1110
f 1110 1142 1143
f 1175 1143 1142
f 1142 1174 1175
f 1207 1175 1174
f 1174 1206 1207
f 1239 1207 1206
f 1206 1238 1239
f 1271 1239 1238
f 1238 1270 1271
f 1303 1271 1270
f 1270 1302 1303
f 1335 1303 1302
f 1302 1334 1335
f 1367 1335 1334
f 1334 1366 1367
f 1399 1367 1366
f 1366 1398 1399
f 1431 1399 1398
f 1398 1430 1431
f 1463 1431 1430
f 1430 1462 1463
f 1495 1463 1462
f 1462 1494 1495
f 1527 1495 1494
f 1494 1526 1527
f 1559 1527 1526
f 1526 1558 1559
f 1591 1559 1558
f 1558 1590 1591
f 1623 1591 1590
f 1590 1622 1623
f 1655 1623 1622
f 1622 1654 1655
f 1687 1655 1654
f 1654 1686 1687
f 1719 1687 1686
f 1686 1718 1719
f 1751 1719 1718
f 1718 1750 1751
f 792 760 759
f 759 791 792
f 824 792 791
f 791 823 824
f 856 824 823
f 823 855 856
f 888 856 855
f 855 887 888
f 920 888 887
f 887 919 920
f 952 920 919
f 919 951 952
f 984 952 951
f 951 983 984
f 1016 984 983
f 983 1015 1016
f 1048 1016 1015
f 1015 1047 1048
f 1080 1048 1047
f 1047 1079 1080
f 1112 1080 1079
f 1079 1111 1112
f 1144 1112 1111
f 1111 1143 1144
f 1176 1144 1143
f 1143 1175 1176
f 1208 1176 1175
f 1175 1207 1208
f 1240 1208 1207
f 1207 1239 1240
f 1272 1240 1239
f 1239 1271 1272
f 1304 1272 1271
f 1271 1303 1304
f 1336 1304 1303
f 1303 1335 1336
f 1368 1336 1335
f 1335 1367 1368
f 1400 1368 1367
f 1367 1399 1400
f 1432 1400 1399
f 1399 1431 1432
f 1464 1432 1431
f 1431 1463 1464
f 1496 1464 1463
f 1463 1495 1496
f 1528 1496 1495
f 1495 1527 1528
f 1560 1528 1527
f 1527 1559 1560
f 1592 1560 1559
f 1559 1591 1592
f 1624 1592 1591
f 1591 1623 1624
f 1656 1624 1623
f 1623 1655 1656
f 1688 1656 1655
f 1655 1687 1688
f 1720 1688 1687
f 1687 1719 1720
f 1752 1720 1719
f 1719 1751 1752
f 793 761 760
f 760 792 793
f 825 793 792
f 792 824 825
f 857 825 824
f 824 856 857
f 889 857 856
f 856 888 889
f 921 889 888
f 888 920 921
f 953 921 920
f 920 952 953
f 985 953 952
f 952 984 985
f 1017 985 984
f 984 1016 1017
f 1049 1017 1016
f 1016 1048 1049
f 1081 1049 1048
f 1048 1080 1081
f 1113 1081 1080
f 1080 1112 1113
f 1145 1113 1112
f 1112 1144 1145
f 1177 1145 1144
f 1144 1176 1177
f 1209 1177 1176
f 1176 1208 1209
f 1241 1209 1208
f 1208 1240 1241
f 1273 1241 1240
f 1240 1272 1273
f 1305 1273 1272
f 1272 1304 1305
f 1337 1305 1304
f 1304 1336 1337
f 1369 1337 1336
f 1336 1368 1369
f 1401 1369 1368
f 1368 1400 1401
f 1433 1401 1400
f 1400 1432 1433
f 1465 1433 1432
f 1432 1464 1465
f 1497 1465 1464
f 1464 1496 1497
f 1529 1497 1496
f 1496 1528 1529
f 1561 1529 1528
f 1528 1560 1561
f 1593 1561 1560
f 1560 1592 1593
f 1625 1593 1592
f 1592 1624 1625
f 1657 1625 1624
f 1624 1656 1657
f 1689 1657 1656
f 1656 1688 1689
f 1721 1689 1688
f 1688 1720 1721
f 1753 1721 1720
f 1720 1752 1753
f 794 762 761
f 761 793 794
f 826 794 793
f 793 825 826
f 858 826 825
f 825 857 858
f 890 858 857
f 857 889 890
f 922 890 889
f 889 921 922
f 954 922 921
f 921 953 954
f 986 954 953
f 953 985 986
f 1018 986 985
f 985 1017 1018
f 1050 1018 1017
f 1017 1049 1050
f 1082 1050 1049
f 1049 1081 1082
f 1114 1082 1081
f 1081 1113 1114
f 1146 1114 1113
f 1113 1145 1146
f 1178 1146 1145
f 1145 1177 1178
f 1210 1178 1177
f 1177 1209 1210
f 1242 1210 1209
f 1209 1241 1242
f 1274 1242 1241
f 1241 1273 1274
f 1306 1274 1273
f 1273 1305 1306
f 1338 1306 1305
f 1305 1337 1338
f 1370 1338 1337
f 1337 1369 1370
f 1402 1370 1369
f 1369 1401 1402
f 1434 1402 1401
f 1401 1433 1434
f 1466 1434 1433
f 1433 1465 1466
f 1498 1466 1465
f 1465 1497 1498
f 1530 1498 1497
f 1497 1529 1530
f 1562 1530 1529
f 1529 1561 1562
f 1594 1562 1561
f 1561 1593 1594
f 1626 1594 1593
f 1593 1625 1626
f 1658 1626 1625
f 1625 1657 1658
f 1690 1658 1657
f 1657 1689 1690
f 1722 1690 1689
f 1689 1721 1722
f 1754 1722 1721
f 1721 1753 1754
f 795 763 762
f 762 794 795
f 827 795 794
f 794 826 827
f 859 827 826
f 826 858 859
f 891 859 858
f 858 890 891
f 923 891 890
f 890 922 923
f 955 923 922
f 922 954 955
f 987 955 954
f 954 986 987
f 1019 987 986
f 986 1018 1019
f 1051 1019 1018
f 1018 1050 1051
f 1083 1051 1050
f 1050 1082 1083
f 1115 1083 1082
f 1082 1114 1115
f 1147 1115 1114
f 1114 1146 1147
f 1179 1147 1146
f 1146 1178 1179
f 1211 1179 1178
f 1178 1210 1211
f 1243 1211 1210
f 1210 1242 1243
f 1275 1243 1242
f 1242 1274 1275
f 1307 1275 1274
f 1274 1306 1307
f 1339 1307 1306
f 1306 1338 1339
f 1371 1339 1338
f 1338 1370 1371
f 1403 1371 1370
f 1370 1402 1403
f 1435 1403 1402
f 1402 1434 1435
f 1467 1435 1434
f 1434 1466 1467
f 1499 1467 1466
f 1466 1498 1499
f 1531 1499 1498
f 1498 1530 1531
f 1563 1531 1530
f 1530 1562 1563
f 1595 1563 1562
f 1562 1594 1595
f 1627 1595 1594
f 1594 1626 1627
f 1659 1627 1626
f 1626 1658 1659
f 1691 1659 1658
f 1658 1690 1691
f 1723 1691 1690
f 1690 1722 1723
f 1755 1723 1722
f 1722 1754 1755
f 796 764 763
f 763 795 796
f 828 796 795
f 795 827 828
f 860 828 827
f 827 859 860
f 892 860 859
f 859 891 892
f 924 892 891
f 891 923 924
f 956 924 923
f 923 955 956
f 988 956 955
f 955 987 988
f 1020 988 987
f 987 1019 1020
f 1052 1020 1019
f 1019 1051 1052
f 1084 1052 1051
f 1051 1083 1084
f 1116 1084 1083
f 1083 1115 1116
f 1148 1116 1115
f 1115 1147 1148
f 1180 1148 1147
f 1147 1179 1180
f 1212 1180 1179
f 1179 1211 1212
f 1244 1212 1211
f 1211 1243 1244
f 1276 1244 1243
f 1243 1275 1276
f 1308 1276 1275
f 1275 1307 1308
f 1340 1308 1307
f 1307 1339 1340
f 1372 1340 1339
f 1339 1371 1372
f 1404 1372 1371
f 1371 1403 1404
f 1436 1404 1403
f 1403 1435 1436
f 1468 1436 1435
f 1435 1467 1468
f 1500 1468 1467
f 1467 1499 1500
f 1532 1500 1499
f 1499 1531 1532
f 1564 1532 1531
f 1531 1563 1564
f 1596 1564 1563
f 1563 1595 1596
f 1628 1596 1595
f 1595 1627 1628
f 1660 1628 1627
f 1627 1659 1660
f 1692 1660 1659
f 1659 1691 1692
f 1724 1692 1691
f 1691 1723 1724
f 1756 1724 1723
f 1723 1755 1756
f 797 765 764
f 764 796 797
f 829 797 796
f 796 828 829
f 861 829 828
f 828 860 861
f 893 861 860
f 860 892 893
f 925 893 892
f 892 924 925
f 957 925 924
f 924 956 957
f 989 957 956
f 956 988 989
f 1021 989 988
f 988 1020 1021
f 1053 1021 1020
f 1020 1052 1053
f 1085 1053 1052
f 1052 1084 1085
f 1117 1085 1084
f 1084 1116 1117
f 1149 1117 1116
f 1116 1148 1149
f 1181 1149 1148
f 1148 1180 1181
f 1213 1181 1180
f 1180 1212 1213
f 1245 1213 1212
f 1212 1244 1245
f 1277 1245 1244
f 1244 1276 1277
f 1309 1277 1276
f 1276 1308 1309
f 1341 1309 1308
f 1308 1340 1341
f 1373 1341 1340
f 1340 1372 1373
f 1405 1373 1372
f 1372 1404 1405
f 1437 1405 1404
f 1404 1436 1437
f 1469 1437 1436
f 1436 1468 1469
f 1501 1469 1468
f 1468 1500 1501
f 1533 1501 1500
f 1500 1532 1533
f 1565 1533 1532
f 1532 1564 1565
f 1597 1565 1564
f 1564 1596 1597
f 1629 1597 1596
f 1596 1628 1629
f 1661 1629 1628
f 1628 1660 1661
f 1693 1661 1660
f 1660 1692 1693
f 1725 1693 1692
f 1692 1724 1725
f 1757 1725 1724
f 1724 1756 1757
