v 5205.11 46.3392 3088.36
v 5204.62 47.7828 3088.12
v 5205.1 46.1683 3088
v 5204.63 47.4151 3087.75
v 5204.14 48.994 3087.81
v 5204.2 48.469 3087.5
v 5203.58 49.9157 3087.31
v 5203.72 49.2574 3087.07
v 5203.02 50.4168 3086.67
v 5203.24 49.6465 3086.52
v 5202.6 49.9203 3085.93
v 5202.88 49.2613 3085.88
v 5202.31 49.0026 3085.23
v 5202.63 48.4764 3085.27
v 5202.19 47.7943 3084.67
v 5202.53 47.425 3084.78
v 5202.11 46.3534 3084.12
v 5202.45 46.1808 3084.25
v 5202.13 44.7868 3083.65
v 5202.49 44.8162 3083.86
v 5202.36 43.0919 3083.42
v 5202.72 43.3081 3083.67
v 5202.79 41.5572 3083.53
v 5203.1 41.904 3083.74
v 5203.41 40.3198 3083.99
v 5203.63 40.8248 3084.14
v 5204.06 39.5111 3084.65
v 5204.2 40.1351 3084.71
v 5204.69 39.2554 3085.46
v 5204.75 39.8814 3085.41
v 5205.24 39.5056 3086.32
v 5205.23 40.1302 3086.17
v 5205.65 40.3092 3087.16
v 5205.59 40.8156 3086.9
v 5205.88 41.5426 3087.9
v 5205.79 41.8912 3087.55
v 5205.84 43.0754 3088.35
v 5205.73 43.2939 3087.93
v 5205.55 44.7706 3088.5
v 5205.48 44.8021 3088.09
v 5204.97 46.3381 3088.54
v 5204.17 46.0613 3088.9
v 5204.49 47.824 3088.28
v 5203.79 47.4633 3088.58
v 5203.43 45.7426 3089.1
v 5203.13 46.9887 3088.76
v 5204.01 49.0698 3087.96
v 5203.41 48.6397 3088.24
v 5202.85 48.0448 3088.4
v 5203.45 50.0198 3087.44
v 5202.92 49.5287 3087.73
v 5202.47 48.8271 3087.92
v 5202.87 50.5457 3086.78
v 5202.41 49.995 3087.1
v 5202.04 49.2043 3087.36
v 5202.44 50.0246 3086.01
v 5201.99 49.5331 3086.41
v 5201.66 48.8309 3086.77
v 5202.13 49.0787 3085.3
v 5201.67 48.6479 3085.78
v 5201.33 48.052 3086.25
v 5201.99 47.8358 3084.74
v 5201.47 47.4743 3085.3
v 5201.08 46.9984 3085.86
v 5201.9 46.3526 3084.2
v 5201.29 46.0749 3084.82
v 5200.85 45.7548 3085.46
v 5201.88 44.741 3083.73
v 5201.2 44.5503 3084.46
v 5200.73 44.3902 3085.19
v 5202.11 43.0087 3083.5
v 5201.41 42.9108 3084.27
v 5200.91 42.9099 3085.04
v 5202.55 41.4476 3083.62
v 5201.8 41.415 3084.37
v 5201.24 41.5326 3085.14
v 5203.18 40.1786 3084.09
v 5202.39 40.2312 3084.81
v 5201.75 40.4756 3085.52
v 5203.86 39.3437 3084.76
v 5203.01 39.465 3085.45
v 5202.3 39.8014 3086.09
v 5204.5 39.0885 3085.59
v 5203.62 39.2091 3086.22
v 5202.83 39.549 3086.77
v 5205.07 39.338 3086.47
v 5204.14 39.4597 3087.04
v 5203.29 39.7967 3087.5
v 5205.48 40.1677 3087.34
v 5204.53 40.221 3087.85
v 5203.65 40.4666 3088.21
v 5205.72 41.4326 3088.1
v 5204.75 41.401 3088.55
v 5203.85 41.5202 3088.82
v 5205.69 42.9918 3088.56
v 5204.73 42.8951 3088.97
v 5203.83 42.8961 3089.17
v 5205.4 44.7244 3088.7
v 5204.48 44.5348 3089.1
v 5203.63 44.3764 3089.3
v 5202.04 44.3191 3087.35
v 5202.29 45.5835 3088.34
v 5202.4 44.9554 3088.51
v 5202.13 46.0819 3088.11
v 5201.94 46.4021 3087.85
v 5201.74 46.5131 3087.57
v 5201.54 46.404 3087.28
v 5201.35 46.0855 3087.01
v 5201.19 45.5886 3086.78
v 5201.07 44.9617 3086.62
v 5201.02 44.2678 3086.53
v 5201.13 43.4787 3086.48
v 5201.31 42.7539 3086.54
v 5201.54 42.1546 3086.72
v 5201.81 41.7377 3086.98
v 5202.08 41.5523 3087.31
v 5202.29 41.7354 3087.67
v 5202.46 42.1503 3088.02
v 5202.54 42.7481 3088.3
v 5202.55 43.4719 3088.49
v 5202.47 44.2609 3088.58
v 5203.64 44.6965 3086.22
v 5205.1 46.1683 3088
v 5204.63 47.4151 3087.75
v 5204.2 48.469 3087.5
v 5203.72 49.2574 3087.07
v 5203.24 49.6465 3086.52
v 5202.88 49.2613 3085.88
v 5202.63 48.4764 3085.27
v 5202.53 47.425 3084.78
v 5202.45 46.1808 3084.25
v 5202.49 44.8162 3083.86
v 5202.72 43.3081 3083.67
v 5203.1 41.904 3083.74
v 5203.63 40.8248 3084.14
v 5204.2 40.1351 3084.71
v 5204.75 39.8814 3085.41
v 5205.23 40.1302 3086.17
v 5205.59 40.8156 3086.9
v 5205.79 41.8912 3087.55
v 5205.73 43.2939 3087.93
v 5205.48 44.8021 3088.09
v 5204.76 39.3282 3085.06
v 5204.76 39.452 3085.06
v 5204.56 39.3282 3085.06
v 5204.56 39.452 3085.06
v 5204.71 39.505 3085.11
v 5204.71 39.505 3085.21
v 5204.61 39.505 3085.11
v 5204.61 39.505 3085.21
v 5204.76 39.452 3085.26
v 5204.76 39.3282 3085.26
v 5204.56 39.452 3085.26
v 5204.56 39.3282 3085.26
v 5204.76 39.3282 3085.26
v 5204.76 39.3282 3085.06
v 5204.56 39.3282 3085.26
v 5204.56 39.3282 3085.06
v 5204.56 39.3282 3085.06
v 5204.56 39.452 3085.06
v 5204.56 39.3282 3085.26
v 5204.56 39.452 3085.26
v 5204.76 39.3282 3085.26
v 5204.76 39.452 3085.26
v 5204.76 39.3282 3085.06
v 5204.76 39.452 3085.06
v 5204.46 39.4566 3084.96
v 5204.56 39.452 3085.06
v 5204.86 39.4566 3084.96
v 5204.76 39.452 3085.06
v 5204.46 39.4566 3085.36
v 5204.56 39.452 3085.26
v 5204.46 39.4566 3084.96
v 5204.56 39.452 3085.06
v 5204.86 39.4566 3085.36
v 5204.76 39.452 3085.26
v 5204.46 39.4566 3085.36
v 5204.56 39.452 3085.26
v 5204.86 39.4566 3084.96
v 5204.76 39.452 3085.06
v 5204.86 39.4566 3085.36
v 5204.76 39.452 3085.26
v 5204.86 39.4566 3084.96
v 5204.73 39.5202 3085.09
v 5204.46 39.4566 3084.96
v 5204.6 39.5202 3085.09
v 5204.46 39.4566 3084.96
v 5204.6 39.5202 3085.09
v 5204.46 39.4566 3085.36
v 5204.6 39.5202 3085.22
v 5204.46 39.4566 3085.36
v 5204.6 39.5202 3085.22
v 5204.86 39.4566 3085.36
v 5204.73 39.5202 3085.22
v 5204.86 39.4566 3085.36
v 5204.73 39.5202 3085.22
v 5204.86 39.4566 3084.96
v 5204.73 39.5202 3085.09
v 5204.73 39.5202 3085.09
v 5204.71 39.505 3085.11
v 5204.6 39.5202 3085.09
v 5204.61 39.505 3085.11
v 5204.6 39.5202 3085.09
v 5204.61 39.505 3085.11
v 5204.6 39.5202 3085.22
v 5204.61 39.505 3085.21
v 5204.6 39.5202 3085.22
v 5204.61 39.505 3085.21
v 5204.73 39.5202 3085.22
v 5204.71 39.505 3085.21
v 5204.73 39.5202 3085.22
v 5204.71 39.505 3085.21
v 5204.73 39.5202 3085.09
v 5204.71 39.505 3085.11
v 5173 100.366 3116
v 5173 98.6507 3114
v 5173 96.933 3112
v 5173 93.4666 3110
v 5173 90.8102 3108
v 5173 90.983 3106
v 5173 91.3807 3104
v 5173 89.9056 3102
v 5173 85.793 3100
v 5173 79.583 3098
v 5173 76.1439 3096
v 5173 75.7556 3094
v 5173 76.5389 3092
v 5173 77.8922 3090
v 5173 78.5359 3088
v 5173 78.0904 3086
v 5173 76.642 3084
v 5173 76.379 3082
v 5173 75.2492 3080
v 5173 72.9123 3078
v 5173 69.5789 3076
v 5173 64.6329 3074
v 5173 62.0732 3072
v 5173 60.6736 3070
v 5173 60.2558 3068
v 5173 59.187 3066
v 5173 58.6913 3064
v 5173 57.6809 3062
v 5173 55.1582 3060
v 5173 49.4165 3058
v 5173 49.9785 3056
v 5173 46.9166 3054
v 5175 99.6714 3116
v 5175 97.5668 3114
v 5175 94.5615 3112
v 5175 91.1914 3110
v 5175 91.1962 3108
v 5175 91.9867 3106
v 5175 90.3242 3104
v 5175 86.8083 3102
v 5175 82.0126 3100
v 5175 78.173 3098
v 5175 76.6746 3096
v 5175 77.3189 3094
v 5175 77.8808 3092
v 5175 77.1958 3090
v 5175 76.0677 3088
v 5175 75.6829 3086
v 5175 75.1586 3084
v 5175 72.4044 3082
v 5175 70.4238 3080
v 5175 68.0624 3078
v 5175 64.454 3076
v 5175 62.4215 3074
v 5175 58.9559 3072
v 5175 57.9634 3070
v 5175 58.2494 3068
v 5175 58.924 3066
v 5175 57.9929 3064
v 5175 55.476 3062
v 5175 49.7019 3060
v 5175 49.005 3058
v 5175 46.8758 3056
v 5175 44.4016 3054
v 5177 98.3311 3116
v 5177 95.0542 3114
v 5177 91.2025 3112
v 5177 91.7699 3110
v 5177 91.7083 3108
v 5177 89.6722 3106
v 5177 86.9111 3104
v 5177 83.9797 3102
v 5177 80.7891 3100
v 5177 79.1979 3098
v 5177 77.5122 3096
v 5177 76.6767 3094
v 5177 75.8471 3092
v 5177 75.0785 3090
v 5177 75.2467 3088
v 5177 72.1843 3086
v 5177 68.5007 3084
v 5177 65.5168 3082
v 5177 64.0195 3080
v 5177 64.2502 3078
v 5177 64.6344 3076
v 5177 61.5523 3074
v 5177 58.413 3072
v 5177 57.2817 3070
v 5177 58.1839 3068
v 5177 58.0478 3066
v 5177 55.6638 3064
v 5177 50.4702 3062
v 5177 49.1837 3060
v 5177 47.603 3058
v 5177 44.4347 3056
v 5177 43.5439 3054
v 5179 96.1306 3116
v 5179 91.725 3114
v 5179 91.886 3112
v 5179 91.3099 3110
v 5179 88.5179 3108
v 5179 85.7871 3106
v 5179 82.6789 3104
v 5179 81.8769 3102
v 5179 80.0213 3100
v 5179 77.3865 3098
v 5179 75.4855 3096
v 5179 74.5948 3094
v 5179 74.9884 3092
v 5179 72.7734 3090
v 5179 70.3401 3088
v 5179 66.7758 3086
v 5179 61.9682 3084
v 5179 58.088 3082
v 5179 60.3371 3080
v 5179 62.7545 3078
v 5179 62.5401 3076
v 5179 60.4981 3074
v 5179 57.9536 3072
v 5179 57.934 3070
v 5179 57.5874 3068
v 5179 55.5359 3066
v 5179 51.4202 3064
v 5179 50.4405 3062
v 5179 48.5641 3060
v 5179 45.3661 3058
v 5179 43.6656 3056
v 5179 43.0661 3054
v 5181 90.2157 3116
v 5181 91.8428 3114
v 5181 90.1469 3112
v 5181 87.2249 3110
v 5181 84.2002 3108
v 5181 82.6056 3106
v 5181 80.9069 3104
v 5181 78.0802 3102
v 5181 75.9984 3100
v 5181 74.2618 3098
v 5181 74.5808 3096
v 5181 72.2331 3094
v 5181 69.4772 3092
v 5181 67.7627 3090
v 5181 66.171 3088
v 5181 62.6987 3086
v 5181 58.9945 3084
v 5181 58.0476 3082
v 5181 58.2358 3080
v 5181 59.2873 3078
v 5181 59.718 3076
v 5181 58.5249 3074
v 5181 58.5553 3072
v 5181 57.2812 3070
v 5181 55.0975 3068
v 5181 51.1376 3066
v 5181 50.7958 3064
v 5181 49.3956 3062
v 5181 45.3901 3060
v 5181 43.7262 3058
v 5181 43.0257 3056
v 5181 43.2475 3054
v 5183 92.0906 3116
v 5183 89.4772 3114
v 5183 86.376 3112
v 5183 83.254 3110
v 5183 82.7199 3108
v 5183 78.9072 3106
v 5183 76.1056 3104
v 5183 74.2228 3102
v 5183 74.3392 3100
v 5183 72.8242 3098
v 5183 69.8896 3096
v 5183 66.2586 3094
v 5183 63.1485 3092
v 5183 62.3745 3090
v 5183 62.7042 3088
v 5183 62.3678 3086
v 5183 59.4753 3084
v 5183 56.9796 3082
v 5183 56.09 3080
v 5183 56.5313 3078
v 5183 57.3693 3076
v 5183 58.3685 3074
v 5183 56.9222 3072
v 5183 54.4113 3070
v 5183 49.9402 3068
v 5183 50.1296 3066
v 5183 49.2169 3064
v 5183 45.447 3062
v 5183 43.7286 3060
v 5183 42.9777 3058
v 5183 43.214 3056
v 5183 40.9363 3054
v 5185 87.7756 3116
v 5185 85.2519 3114
v 5185 83.4968 3112
v 5185 81.3252 3110
v 5185 77.6463 3108
v 5185 74.8561 3106
v 5185 74.27 3104
v 5185 73.235 3102
v 5185 71.2648 3100
v 5185 68.823 3098
v 5185 65.0138 3096
v 5185 60.5216 3094
v 5185 57.4078 3092
v 5185 60.4003 3090
v 5185 62.6996 3088
v 5185 60.9152 3086
v 5185 57.6952 3084
v 5185 55.9214 3082
v 5185 55.2448 3080
v 5185 55.7709 3078
v 5185 56.8249 3076
v 5185 56.2246 3074
v 5185 53.3019 3072
v 5185 48.72 3070
v 5185 48.5165 3068
v 5185 47.7902 3066
v 5185 44.6418 3064
v 5185 43.6727 3062
v 5185 42.9223 3060
v 5185 43.1727 3058
v 5185 41.0947 3056
v 5185 38.7526 3054
v 5187 83.2094 3116
v 5187 83.2444 3114
v 5187 79.7893 3112
v 5187 76.1977 3110
v 5187 74.3456 3108
v 5187 73.9127 3106
v 5187 71.7783 3104
v 5187 69.9667 3102
v 5187 68.0126 3100
v 5187 64.4597 3098
v 5187 58.8292 3096
v 5187 56.4813 3094
v 5187 57.2263 3092
v 5187 59.3846 3090
v 5187 60.1453 3088
v 5187 58.764 3086
v 5187 56.6862 3084
v 5187 55.6617 3082
v 5187 55.9257 3080
v 5187 56.1035 3078
v 5187 55.6557 3076
v 5187 52.0785 3074
v 5187 48.0051 3072
v 5187 48.4023 3070
v 5187 46.4968 3068
v 5187 44.1544 3066
v 5187 43.6022 3064
v 5187 42.8594 3062
v 5187 43.1233 3060
v 5187 41.146 3058
v 5187 38.853 3056
v 5187 36.7545 3054
v 5189 81.9346 3116
v 5189 78.2195 3114
v 5189 74.6906 3112
v 5189 74.6187 3110
v 5189 72.5234 3108
v 5189 70.7759 3106
v 5189 69.2455 3104
v 5189 67.2838 3102
v 5189 64.1444 3100
v 5189 59.7625 3098
v 5189 56.1523 3096
v 5189 55.1544 3094
v 5189 55.9757 3092
v 5189 57.1544 3090
v 5189 57.4532 3088
v 5189 56.4529 3086
v 5189 55.851 3084
v 5189 56.1886 3082
v 5189 55.9099 3080
v 5189 55.1916 3078
v 5189 50.7675 3076
v 5189 47.8839 3074
v 5189 48.2885 3072
v 5189 45.9726 3070
v 5189 43.9751 3068
v 5189 43.3816 3066
v 5189 42.7886 3064
v 5189 43.0655 3062
v 5189 41.084 3060
v 5189 38.8498 3058
v 5189 36.7989 3056
v 5189 34.9659 3054
v 5191 76.748 3116
v 5191 74.8771 3114
v 5191 73.6311 3112
v 5191 71.4778 3110
v 5191 69.783 3108
v 5191 68.4005 3106
v 5191 66.7209 3104
v 5191 64.8245 3102
v 5191 61.9973 3100
v 5191 57.5406 3098
v 5191 54.061 3096
v 5191 53.8722 3094
v 5191 54.9661 3092
v 5191 55.5127 3090
v 5191 55.456 3088
v 5191 55.5597 3086
v 5191 55.2752 3084
v 5191 55.0921 3082
v 5191 53.423 3080
v 5191 49.3428 3078
v 5191 47.7616 3076
v 5191 48.1716 3074
v 5191 45.341 3072
v 5191 43.7842 3070
v 5191 43.1368 3068
v 5191 42.7095 3066
v 5191 42.9986 3064
v 5191 40.9058 3062
v 5191 38.7399 3060
v 5191 36.7465 3058
v 5191 34.9611 3056
v 5191 34.0232 3054
v 5193 74.9216 3116
v 5193 72.8838 3114
v 5193 70.6998 3112
v 5193 68.7581 3110
v 5193 67.2149 3108
v 5193 65.6257 3106
v 5193 65.7108 3104
v 5193 64.1919 3102
v 5193 59.4217 3100
v 5193 55.2398 3098
v 5193 53.4104 3096
v 5193 53.6894 3094
v 5193 54.4795 3092
v 5193 55.164 3090
v 5193 55.4439 3088
v 5193 54.7408 3086
v 5193 54.655 3084
v 5193 51.4341 3082
v 5193 47.8576 3080
v 5193 47.638 3078
v 5193 47.1752 3076
v 5193 44.6342 3074
v 5193 43.5388 3072
v 5193 42.8145 3070
v 5193 42.6213 3068
v 5193 42.8353 3066
v 5193 40.6122 3064
v 5193 38.5212 3062
v 5193 36.5953 3060
v 5193 34.8677 3058
v 5193 34.0127 3056
v 5193 34.1463 3054
v 5195 72.1013 3116
v 5195 70.064 3114
v 5195 67.8468 3112
v 5195 65.9301 3110
v 5195 65.702 3108
v 5195 65.9271 3106
v 5195 64.6096 3104
v 5195 60.1494 3102
v 5195 55.9679 3100
v 5195 53.8666 3098
v 5195 53.2539 3096
v 5195 53.802 3094
v 5195 54.9667 3092
v 5195 55.2615 3090
v 5195 54.5379 3088
v 5195 53.172 3086
v 5195 49.4575 3084
v 5195 47.0854 3082
v 5195 47.5123 3080
v 5195 46.0575 3078
v 5195 43.8888 3076
v 5195 43.2254 3074
v 5195 42.406 3072
v 5195 42.5226 3070
v 5195 42.3414 3068
v 5195 40.2127 3066
v 5195 38.1969 3064
v 5195 36.3457 3062
v 5195 34.6864 3060
v 5195 33.9893 3058
v 5195 34.1371 3056
v 5195 34.2426 3054
v 5197 69.2429 3116
v 5197 67.1185 3114
v 5197 65.3204 3112
v 5197 65.3884 3110
v 5197 65.7335 3108
v 5197 63.9356 3106
v 5197 61.1799 3104
v 5197 57.3154 3102
v 5197 54.6631 3100
v 5197 53.6078 3098
v 5197 53.644 3096
v 5197 54.2113 3094
v 5197 54.3451 3092
v 5197 53.9969 3090
v 5197 50.8427 3088
v 5197 47.5738 3086
v 5197 46.9611 3084
v 5197 47.3834 3082
v 5197 44.9335 3080
v 5197 43.1827 3078
v 5197 42.829 3076
v 5197 42.0687 3074
v 5197 42.4121 3072
v 5197 41.7396 3070
v 5197 39.6941 3068
v 5197 37.7702 3066
v 5197 36.0011 3064
v 5197 34.4179 3062
v 5197 33.951 3060
v 5197 34.113 3058
v 5197 34.231 3056
v 5197 34.2936 3054
v 5199 66.4089 3116
v 5199 66.0894 3114
v 5199 65.5735 3112
v 5199 64.0965 3110
v 5199 62.6953 3108
v 5199 60.9287 3106
v 5199 58.5525 3104
v 5199 55.882 3102
v 5199 54.9158 3100
v 5199 54.6201 3098
v 5199 53.9159 3096
v 5199 53.7782 3094
v 5199 52.1432 3092
v 5199 48.6927 3090
v 5199 46.4183 3088
v 5199 46.8349 3086
v 5199 46.0073 3084
v 5199 43.8487 3082
v 5199 42.8497 3080
v 5199 42.3373 3078
v 5199 41.9376 3076
v 5199 42.2877 3074
v 5199 41.0388 3072
v 5199 39.084 3070
v 5199 37.2498 3068
v 5199 35.5672 3066
v 5199 34.0683 3064
v 5199 33.8956 3062
v 5199 34.0713 3060
v 5199 34.2008 3058
v 5199 34.2753 3056
v 5199 34.2954 3054
v 5201 66.5965 3116
v 5201 65.9136 3114
v 5201 63.814 3112
v 5201 61.6674 3110
v 5201 59.9892 3108
v 5201 58.1914 3106
v 5201 56.7941 3104
v 5201 56.3045 3102
v 5201 55.5461 3100
v 5201 54.131 3098
v 5201 53.3311 3096
v 5201 49.827 3094
v 5201 46.7455 3092
v 5201 46.3045 3090
v 5201 46.707 3088
v 5201 44.6037 3086
v 5201 42.8427 3084
v 5201 42.417 3082
v 5201 41.7413 3080
v 5201 41.7943 3078
v 5201 42.1498 3076
v 5201 40.2525 3074
v 5201 38.3884 3072
v 5201 36.6458 3070
v 5201 35.0549 3068
v 5201 33.6461 3066
v 5201 33.8236 3064
v 5201 34.0119 3062
v 5201 34.1522 3060
v 5201 34.2388 3058
v 5201 34.2708 3056
v 5201 34.2474 3054
v 5203 64.9549 3116
v 5203 63.0211 3114
v 5203 61.0968 3112
v 5203 59.1604 3110
v 5203 57.2525 3108
v 5203 57.2538 3106
v 5203 57.067 3104
v 5203 55.1013 3102
v 5203 53.6315 3100
v 5203 51.3369 3098
v 5203 47.7613 3096
v 5203 45.8323 3094
v 5203 46.2048 3092
v 5203 45.4112 3090
v 5203 43.3504 3088
v 5203 42.2539 3086
v 5203 41.8895 3084
v 5203 41.2789 3082
v 5203 41.6527 3080
v 5203 41.2759 3078
v 5203 39.4081 3076
v 5203 37.6353 3074
v 5203 35.9859 3072
v 5203 34.49 3070
v 5203 33.5186 3068
v 5203 33.7498 3066
v 5203 33.9491 3064
v 5203 34.0977 3062
v 5203 34.1957 3060
v 5203 34.241 3058
v 5203 34.2301 3056
v 5203 34.1594 3054
v 5205 62.0483 3116
v 5205 60.106 3114
v 5205 58.166 3112
v 5205 57.3644 3110
v 5205 57.4579 3108
v 5205 56.4836 3106
v 5205 54.3695 3104
v 5205 52.6541 3102
v 5205 49.2259 3100
v 5205 45.9498 3098
v 5205 45.7733 3096
v 5205 46.1209 3094
v 5205 43.9726 3092
v 5205 42.2711 3090
v 5205 41.8281 3088
v 5205 41.2665 3086
v 5205 41.1393 3084
v 5205 41.5133 3082
v 5205 40.3046 3080
v 5205 38.5225 3078
v 5205 36.8394 3076
v 5205 35.2847 3074
v 5205 33.8865 3072
v 5205 33.4289 3070
v 5205 33.6739 3068
v 5205 33.8823 3066
v 5205 34.0366 3064
v 5205 34.1472 3062
v 5205 34.2047 3060
v 5205 34.2056 3058
v 5205 34.1519 3056
v 5205 34.0432 3054
v 5207 59.1189 3116
v 5207 57.5089 3114
v 5207 57.5661 3112
v 5207 57.4307 3110
v 5207 55.4127 3108
v 5207 53.499 3106
v 5207 50.8784 3104
v 5207 47.0988 3102
v 5207 45.4448 3100
v 5207 45.7336 3098
v 5207 44.7561 3096
v 5207 42.7374 3094
v 5207 41.6425 3092
v 5207 41.306 3090
v 5207 40.6255 3088
v 5207 41.0018 3086
v 5207 41.0849 3084
v 5207 39.3068 3082
v 5207 37.6068 3080
v 5207 36.0129 3078
v 5207 34.5526 3076
v 5207 33.255 3074
v 5207 33.334 3072
v 5207 33.5916 3070
v 5207 33.8057 3068
v 5207 33.9719 3066
v 5207 34.0794 3064
v 5207 34.1566 3062
v 5207 34.1641 3060
v 5207 34.1169 3058
v 5207 34.0311 3056
v 5207 33.8078 3054
v 5209 57.7431 3116
v 5209 57.7662 3114
v 5209 56.3613 3112
v 5209 54.2932 3110
v 5209 52.3588 3108
v 5209 49.2492 3106
v 5209 45.4738 3104
v 5209 45.4621 3102
v 5209 45.7139 3100
v 5209 43.4067 3098
v 5209 41.7053 3096
v 5209 41.2457 3094
v 5209 40.6939 3092
v 5209 40.4967 3090
v 5209 40.8653 3088
v 5209 40.0016 3086
v 5209 38.2956 3084
v 5209 36.6753 3082
v 5209 35.1683 3080
v 5209 33.803 3078
v 5209 32.9384 3076
v 5209 33.2311 3074
v 5209 33.4982 3072
v 5209 33.7199 3070
v 5209 33.8882 3068
v 5209 34.003 3066
v 5209 34.0581 3064
v 5209 34.077 3062
v 5209 34.0867 3060
v 5209 34.0016 3058
v 5209 33.8202 3056
v 5209 33.5056 3054
v 5211 57.4057 3116
v 5211 55.3408 3114
v 5211 53.405 3112
v 5211 50.5111 3110
v 5211 46.7842 3108
v 5211 45.3157 3106
v 5211 45.4983 3104
v 5211 44.3241 3102
v 5211 42.2711 3100
v 5211 41.1385 3098
v 5211 40.7624 3096
v 5211 40.0222 3094
v 5211 40.3711 3092
v 5211 40.6433 3090
v 5211 38.9215 3088
v 5211 37.2807 3086
v 5211 35.7381 3084
v 5211 34.3169 3082
v 5211 33.046 3080
v 5211 32.8143 3078
v 5211 33.118 3076
v 5211 33.3905 3074
v 5211 33.6187 3072
v 5211 33.7943 3070
v 5211 33.9181 3068
v 5211 33.9808 3066
v 5211 34.0091 3064
v 5211 33.9776 3062
v 5211 33.8645 3060
v 5211 33.73 3058
v 5211 33.5492 3056
v 5211 33.2565 3054
v 5213 54.4179 3116
v 5213 52.2913 3114
v 5213 49.0583 3112
v 5213 45.2838 3110
v 5213 45.3978 3108
v 5213 45.4942 3106
v 5213 43.1019 3104
v 5213 41.3382 3102
v 5213 40.802 3100
v 5213 40.2033 3098
v 5213 39.9185 3096
v 5213 40.2491 3094
v 5213 39.5374 3092
v 5213 37.8588 3090
v 5213 36.2753 3088
v 5213 34.8055 3086
v 5213 33.4698 3084
v 5213 32.3503 3082
v 5213 32.679 3080
v 5213 32.9907 3078
v 5213 33.2665 3076
v 5213 33.4976 3074
v 5213 33.6863 3072
v 5213 33.8234 3070
v 5213 33.8808 3068
v 5213 33.9004 3066
v 5213 33.8975 3064
v 5213 33.7792 3062
v 5213 33.6976 3060
v 5213 33.4975 3058
v 5213 33.2488 3056
v 5213 32.9941 3054
v 5215 51.2797 3116
v 5215 48.2887 3114
v 5215 46.0843 3112
v 5215 45.4882 3110
v 5215 44.1709 3108
v 5215 42.0713 3106
v 5215 40.8447 3104
v 5215 40.3937 3102
v 5215 39.5791 3100
v 5215 39.8231 3098
v 5215 40.1316 3096
v 5215 38.4637 3094
v 5215 36.8222 3092
v 5215 35.291 3090
v 5215 33.888 3088
v 5215 32.6346 3086
v 5215 32.1961 3084
v 5215 32.531 3082
v 5215 32.8455 3080
v 5215 33.1216 3078
v 5215 33.3545 3076
v 5215 33.5499 3074
v 5215 33.6944 3072
v 5215 33.7903 3070
v 5215 33.8091 3068
v 5215 33.804 3066
v 5215 33.7129 3064
v 5215 33.5398 3062
v 5215 33.41 3060
v 5215 33.1876 3058
v 5215 33.0161 3056
v 5215 32.6951 3054
v 5217 47.8185 3116
v 5217 46.8577 3114
v 5217 46.3332 3112
v 5217 43.4289 3110
v 5217 41.217 3108
v 5217 40.5836 3106
v 5217 39.919 3104
v 5217 39.4871 3102
v 5217 39.738 3100
v 5217 39.1416 3098
v 5217 37.4279 3096
v 5217 35.8208 3094
v 5217 34.3371 3092
v 5217 32.9971 3090
v 5217 31.8218 3088
v 5217 32.0302 3086
v 5217 32.3689 3084
v 5217 32.6804 3082
v 5217 32.9546 3080
v 5217 33.1873 3078
v 5217 33.3897 3076
v 5217 33.5382 3074
v 5217 33.6289 3072
v 5217 33.6903 3070
v 5217 33.6726 3068
v 5217 33.621 3066
v 5217 33.5142 3064
v 5217 33.3022 3062
v 5217 33.0501 3060
v 5217 32.9146 3058
v 5217 32.6024 3056
v 5217 32.1911 3054
v 5219 47.7067 3116
v 5219 45.695 3114
v 5219 43.3172 3112
v 5219 41.4418 3110
v 5219 40.2443 3108
v 5219 39.3786 3106
v 5219 39.4459 3104
v 5219 39.6655 3102
v 5219 38.1297 3100
v 5219 36.434 3098
v 5219 34.8579 3096
v 5219 33.4197 3094
v 5219 32.1394 3092
v 5219 31.5082 3090
v 5219 31.8526 3088
v 5219 32.1888 3086
v 5219 32.4944 3084
v 5219 32.7656 3082
v 5219 32.9997 3080
v 5219 33.1911 3078
v 5219 33.3461 3076
v 5219 33.4379 3074
v 5219 33.505 3072
v 5219 33.4495 3070
v 5219 33.3927 3068
v 5219 33.3193 3066
v 5219 33.0541 3064
v 5219 32.7796 3062
v 5219 32.7128 3060
v 5219 32.3726 3058
v 5219 32.1139 3056
v 5219 31.6724 3054
v 5221 45.0133 3116
v 5221 42.8531 3114
v 5221 41.3628 3112
v 5221 39.8255 3110
v 5221 39.2534 3108
v 5221 39.4133 3106
v 5221 38.9505 3104
v 5221 37.1635 3102
v 5221 35.4853 3100
v 5221 33.9385 3098
v 5221 32.5434 3096
v 5221 31.3215 3094
v 5221 31.3232 3092
v 5221 31.6634 3090
v 5221 31.9899 3088
v 5221 32.2885 3086
v 5221 32.5546 3084
v 5221 32.7888 3082
v 5221 32.9921 3080
v 5221 33.1439 3078
v 5221 33.2407 3076
v 5221 33.2551 3074
v 5221 33.2541 3072
v 5221 33.2273 3070
v 5221 33.0775 3068
v 5221 32.9164 3066
v 5221 32.639 3064
v 5221 32.4365 3062
v 5221 32.107 3060
v 5221 31.7663 3058
v 5221 31.5451 3056
v 5221 31.0942 3054
v 5223 41.2666 3116
v 5223 40.2791 3114
v 5223 39.3237 3112
v 5223 39.252 3110
v 5223 39.3859 3108
v 5223 38.0065 3106
v 5223 36.2385 3104
v 5223 34.5821 3102
v 5223 33.0643 3100
v 5223 31.711 3098
v 5223 30.8089 3096
v 5223 31.1311 3094
v 5223 31.4606 3092
v 5223 31.7728 3090
v 5223 32.0575 3088
v 5223 32.3203 3086
v 5223 32.5298 3084
v 5223 32.7529 3082
v 5223 32.8951 3080
v 5223 33.0102 3078
v 5223 33.0041 3076
v 5223 33.0184 3074
v 5223 32.889 3072
v 5223 32.7812 3070
v 5223 32.6901 3068
v 5223 32.3967 3066
v 5223 32.1792 3064
v 5223 31.8405 3062
v 5223 31.448 3060
v 5223 31.2319 3058
v 5223 30.7116 3056
v 5223 29.9425 3054
v 5225 39.8004 3116
v 5225 39.1681 3114
v 5225 39.2506 3112
v 5225 38.916 3110
v 5225 37.0872 3108
v 5225 35.346 3106
v 5225 33.7195 3104
v 5225 32.2354 3102
v 5225 30.9242 3100
v 5225 30.6277 3098
v 5225 30.934 3096
v 5225 31.2444 3094
v 5225 31.5384 3092
v 5225 31.8071 3090
v 5225 32.0488 3088
v 5225 32.2554 3086
v 5225 32.4577 3084
v 5225 32.6342 3082
v 5225 32.7391 3080
v 5225 32.7985 3078
v 5225 32.7811 3076
v 5225 32.6526 3074
v 5225 32.5116 3072
v 5225 32.3055 3070
v 5225 32.1434 3068
v 5225 31.9444 3066
v 5225 31.6596 3064
v 5225 31.3594 3062
v 5225 30.8386 3060
v 5225 30.3115 3058
v 5225 29.906 3056
v 5225 29.2503 3054
v 5227 39.1858 3116
v 5227 39.2468 3114
v 5227 37.9773 3112
v 5227 36.1839 3110
v 5227 34.4792 3108
v 5227 32.8903 3106
v 5227 31.4482 3104
v 5227 30.1904 3102
v 5227 30.4486 3100
v 5227 30.7328 3098
v 5227 31.0179 3096
v 5227 31.2908 3094
v 5227 31.5412 3092
v 5227 31.7703 3090
v 5227 31.974 3088
v 5227 32.1475 3086
v 5227 32.2506 3084
v 5227 32.3949 3082
v 5227 32.4898 3080
v 5227 32.5042 3078
v 5227 32.4428 3076
v 5227 32.1268 3074
v 5227 32.0431 3072
v 5227 31.7259 3070
v 5227 31.7668 3068
v 5227 31.5155 3066
v 5227 31.1223 3064
v 5227 30.7782 3062
v 5227 30.0766 3060
v 5227 29.5382 3058
v 5227 29.0112 3056
v 5227 27.9768 3054
v 5229 38.844 3116
v 5229 37.0345 3114
v 5229 35.2869 3112
v 5229 33.6276 3110
v 5229 32.0864 3108
v 5229 30.6941 3106
v 5229 30.0424 3104
v 5229 30.2747 3102
v 5229 30.5287 3100
v 5229 30.7848 3098
v 5229 31.0375 3096
v 5229 31.2744 3094
v 5229 31.4732 3092
v 5229 31.6592 3090
v 5229 31.8271 3088
v 5229 31.9455 3086
v 5229 32.0168 3084
v 5229 32.1403 3082
v 5229 32.1102 3080
v 5229 32.1226 3078
v 5229 31.9988 3076
v 5229 31.6494 3074
v 5229 31.5645 3072
v 5229 31.4373 3070
v 5229 31.0966 3068
v 5229 30.7899 3066
v 5229 30.3058 3064
v 5229 29.9823 3062
v 5229 29.177 3060
v 5229 28.4921 3058
v 5229 27.996 3056
v 5229 27.3334 3054
v 5231 36.0794 3116
v 5231 34.3875 3114
v 5231 32.7844 3112
v 5231 31.2998 3110
v 5231 29.9673 3108
v 5231 29.8966 3106
v 5231 30.1044 3104
v 5231 30.3253 3102
v 5231 30.5486 3100
v 5231 30.7737 3098
v 5231 30.9832 3096
v 5231 31.1848 3094
v 5231 31.3777 3092
v 5231 31.5113 3090
v 5231 31.62 3088
v 5231 31.6068 3086
v 5231 31.5959 3084
v 5231 31.5669 3082
v 5231 31.6407 3080
v 5231 31.5078 3078
v 5231 31.2948 3076
v 5231 30.812 3074
v 5231 30.7172 3072
v 5231 30.496 3070
v 5231 30.4253 3068
v 5231 30.0276 3066
v 5231 29.5801 3064
v 5231 29.0839 3062
v 5231 28.4751 3060
v 5231 27.4305 3058
v 5231 26.6021 3056
v 5231 26.1431 3054
v 5233 33.4776 3116
v 5233 31.9405 3114
v 5233 30.5234 3112
v 5233 29.5918 3110
v 5233 29.75 3108
v 5233 29.9321 3106
v 5233 30.1213 3104
v 5233 30.313 3102
v 5233 30.5021 3100
v 5233 30.6933 3098
v 5233 30.8663 3096
v 5233 31.016 3094
v 5233 31.1436 3092
v 5233 31.2757 3090
v 5233 31.337 3088
v 5233 31.2059 3086
v 5233 31.2305 3084
v 5233 31.1274 3082
v 5233 31.0389 3080
v 5233 30.9389 3078
v 5233 30.8826 3076
v 5233 30.3172 3074
v 5233 30.2709 3072
v 5233 29.7862 3070
v 5233 29.5809 3068
v 5233 29.1288 3066
v 5233 28.4971 3064
v 5233 27.641 3062
v 5233 26.5772 3060
v 5233 25.8789 3058
v 5233 25.7182 3056
v 5233 25.3078 3054
v 5235 31.0907 3116
v 5235 29.7513 3114
v 5235 29.4624 3112
v 5235 29.6 3110
v 5235 29.7542 3108
v 5235 29.9126 3106
v 5235 30.0725 3104
v 5235 30.2313 3102
v 5235 30.3866 3100
v 5235 30.5275 3098
v 5235 30.6472 3096
v 5235 30.7025 3094
v 5235 30.8409 3092
v 5235 30.8854 3090
v 5235 30.8988 3088
v 5235 30.7746 3086
v 5235 30.6641 3084
v 5235 30.4999 3082
v 5235 30.3731 3080
v 5235 30.279 3078
v 5235 29.9101 3076
v 5235 29.8518 3074
v 5235 29.4951 3072
v 5235 29.0781 3070
v 5235 28.6294 3068
v 5235 28.0664 3066
v 5235 27.5656 3064
v 5235 26.6744 3062
v 5235 25.5837 3060
v 5235 24.5954 3058
v 5235 24.2414 3056
v 5235 24.1085 3054
f 75 71 74
f 72 71 75
f 19 71 68
f 19 21 71
f 21 74 71
f 72 68 71
f 68 66 65
f 65 19 68
f 69 68 72
f 66 68 69
f 21 23 74
f 22 23 21
f 22 21 20
f 20 21 19
f 17 19 65
f 17 20 19
f 73 69 72
f 75 73 72
f 70 66 69
f 73 70 69
f 77 75 74
f 23 77 74
f 24 23 22
f 24 25 23
f 23 25 77
f 66 62 65
f 62 17 65
f 15 17 62
f 20 17 18
f 15 18 17
f 78 76 75
f 75 77 78
f 76 73 75
f 76 112 73
f 112 70 73
f 70 67 66
f 111 67 70
f 111 70 112
f 63 62 66
f 67 63 66
f 26 25 24
f 79 113 76
f 79 76 78
f 112 76 113
f 18 15 16
f 110 67 111
f 67 64 63
f 110 64 67
f 63 59 62
f 59 15 62
f 13 15 59
f 13 16 15
f 64 60 63
f 60 59 63
f 25 80 77
f 80 78 77
f 26 27 25
f 25 27 80
f 81 79 78
f 78 80 81
f 16 13 14
f 108 64 109
f 64 108 61
f 64 61 60
f 109 64 110
f 28 27 26
f 82 114 79
f 82 79 81
f 113 79 114
f 60 56 59
f 56 13 59
f 11 13 56
f 11 14 13
f 61 57 60
f 57 56 60
f 14 11 12
f 107 61 108
f 61 107 58
f 61 58 57
f 110 111 101
f 111 112 101
f 112 113 101
f 109 110 101
f 113 114 101
f 27 83 80
f 83 81 80
f 28 29 27
f 27 29 83
f 84 82 81
f 81 83 84
f 108 109 101
f 85 82 84
f 85 115 82
f 114 82 115
f 30 29 28
f 57 53 56
f 53 11 56
f 9 11 53
f 9 12 11
f 114 115 101
f 58 54 57
f 54 53 57
f 12 9 10
f 55 58 107
f 58 55 54
f 107 108 101
f 115 85 116
f 115 116 101
f 55 107 106
f 106 107 101
f 116 117 101
f 116 85 117
f 103 102 101
f 102 104 101
f 104 105 101
f 121 103 101
f 120 121 101
f 119 120 101
f 118 119 101
f 117 118 101
f 105 106 101
f 105 55 106
f 117 85 88
f 88 85 84
f 55 52 54
f 52 55 105
f 84 83 87
f 88 84 87
f 54 52 51
f 51 53 54
f 29 31 83
f 83 31 86
f 87 83 86
f 7 53 50
f 53 51 50
f 7 9 53
f 32 29 30
f 29 32 31
f 10 9 8
f 8 9 7
f 104 49 105
f 105 49 52
f 117 88 118
f 104 46 49
f 102 46 104
f 52 49 51
f 8 7 6
f 118 91 119
f 118 88 91
f 48 50 51
f 51 49 48
f 91 88 87
f 5 7 50
f 6 7 5
f 5 50 47
f 50 48 47
f 34 31 32
f 103 46 102
f 87 86 90
f 91 87 90
f 31 33 86
f 31 34 33
f 119 94 120
f 119 91 94
f 86 33 89
f 90 86 89
f 46 103 45
f 103 121 45
f 100 120 97
f 120 100 121
f 120 94 97
f 45 121 100
f 49 46 48
f 6 5 4
f 44 47 48
f 48 46 44
f 2 5 47
f 4 5 2
f 94 91 90
f 2 47 43
f 47 44 43
f 36 33 34
f 46 45 44
f 4 2 3
f 90 89 93
f 94 90 93
f 33 35 89
f 33 36 35
f 89 35 92
f 93 89 92
f 42 43 44
f 44 45 42
f 1 2 43
f 3 2 1
f 1 43 41
f 43 42 41
f 45 100 42
f 97 94 93
f 3 1 40
f 38 35 36
f 42 98 41
f 99 98 42
f 42 100 99
f 100 97 99
f 99 97 96
f 97 93 96
f 95 93 92
f 93 95 96
f 40 37 38
f 37 40 39
f 40 1 39
f 39 1 41
f 35 38 37
f 39 41 98
f 35 37 92
f 92 37 95
f 96 98 99
f 98 96 95
f 37 39 95
f 95 39 98
f 122 133 132
f 122 134 133
f 122 132 131
f 122 135 134
f 122 131 130
f 122 130 129
f 122 136 135
f 122 129 128
f 122 137 136
f 122 128 127
f 124 123 122
f 122 125 124
f 122 126 125
f 122 127 126
f 122 138 137
f 122 139 138
f 122 140 139
f 122 141 140
f 122 142 141
f 122 123 142
f 197 196 195
f 198 196 197
f 193 192 191
f 194 192 193
f 185 184 183
f 181 180 179
f 180 181 182
f 177 176 175
f 169 168 167
f 168 169 170
f 145 144 143
f 146 144 145
f 176 177 178
f 165 164 163
f 166 164 165
f 157 156 155
f 158 156 157
f 153 152 151
f 154 152 153
f 213 212 211
f 214 212 213
f 209 208 207
f 210 208 209
f 201 200 199
f 186 184 185
f 202 200 201
f 149 148 147
f 150 148 149
f 205 204 203
f 206 204 205
f 189 188 187
f 190 188 189
f 173 172 171
f 172 173 174
f 161 160 159
f 162 160 161
f 248 216 215
f 215 247 248
f 280 248 247
f 247 279 280
f 312 280 279
f 279 311 312
f 344 312 311
f 311 343 344
f 376 344 343
f 343 375 376
f 408 376 375
f 375 407 408
f 440 408 407
f 407 439 440
f 472 440 439
f 439 471 472
f 504 472 471
f 471 503 504
f 536 504 503
f 503 535 536
f 568 536 535
f 535 567 568
f 600 568 567
f 567 599 600
f 632 600 599
f 599 631 632
f 664 632 631
f 631 663 664
f 696 664 663
f 663 695 696
f 728 696 695
f 695 727 728
f 760 728 727
f 727 759 760
f 792 760 759
f 759 791 792
f 824 792 791
f 791 823 824
f 856 824 823
f 823 855 856
f 888 856 855
f 855 887 888
f 920 888 887
f 887 919 920
f 952 920 919
f 919 951 952
f 984 952 951
f 951 983 984
f 1016 984 983
f 983 1015 1016
f 1048 1016 1015
f 1015 1047 1048
f 1080 1048 1047
f 1047 1079 1080
f 1112 1080 1079
f 1079 1111 1112
f 1144 1112 1111
f 1111 1143 1144
f 1176 1144 1143
f 1143 1175 1176
f 1208 1176 1175
f 1175 1207 1208
f 249 217 216
f 216 248 249
f 281 249 248
f 248 280 281
f 313 281 280
f 280 312 313
f 345 313 312
f 312 344 345
f 377 345 344
f 344 376 377
f 409 377 376
f 376 408 409
f 441 409 408
f 408 440 441
f 473 441 440
f 440 472 473
f 505 473 472
f 472 504 505
f 537 505 504
f 504 536 537
f 569 537 536
f 536 568 569
f 601 569 568
f 568 600 601
f 633 601 600
f 600 632 633
f 665 633 632
f 632 664 665
f 697 665 664
f 664 696 697
f 729 697 696
f 696 728 729
f 761 729 728
f 728 760 761
f 793 761 760
f 760 792 793
f 825 793 792
f 792 824 825
f 857 825 824
f 824 856 857
f 889 857 856
f 856 888 889
f 921 889 888
f 888 920 921
f 953 921 920
f 920 952 953
f 985 953 952
f 952 984 985
f 1017 985 984
f 984 1016 1017
f 1049 1017 1016
f 1016 1048 1049
f 1081 1049 1048
f 1048 1080 1081
f 1113 1081 1080
f 1080 1112 1113
f 1145 1113 1112
f 1112 1144 1145
f 1177 1145 1144
f 1144 1176 1177
f 1209 1177 1176
f 1176 1208 1209
f 250 218 217
f 217 249 250
f 282 250 249
f 249 281 282
f 314 282 281
f 281 313 314
f 346 314 313
f 313 345 346
f 378 346 345
f 345 377 378
f 410 378 377
f 377 409 410
f 442 410 409
f 409 441 442
f 474 442 441
f 441 473 474
f 506 474 473
f 473 505 506
f 538 506 505
f 505 537 538
f 570 538 537
f 537 569 570
f 602 570 569
f 569 601 602
f 634 602 601
f 601 633 634
f 666 634 633
f 633 665 666
f 698 666 665
f 665 697 698
f 730 698 697
f 697 729 730
f 762 730 729
f 729 761 762
f 794 762 761
f 761 793 794
f 826 794 793
f 793 825 826
f 858 826 825
f 825 857 858
f 890 858 857
f 857 889 890
f 922 890 889
f 889 921 922
f 954 922 921
f 921 953 954
f 986 954 953
f 953 985 986
f 1018 986 985
f 985 1017 1018
f 1050 1018 1017
f 1017 1049 1050
f 1082 1050 1049
f 1049 1081 1082
f 1114 1082 1081
f 1081 1113 1114
f 1146 1114 1113
f 1113 1145 1146
f 1178 1146 1145
f 1145 1177 1178
f 1210 1178 1177
f 1177 1209 1210
f 251 219 218
f 218 250 251
f 283 251 250
f 250 282 283
f 315 283 282
f 282 314 315
f 347 315 314
f 314 346 347
f 379 347 346
f 346 378 379
f 411 379 378
f 378 410 411
f 443 411 410
f 410 442 443
f 475 443 442
f 442 474 475
f 507 475 474
f 474 506 507
f 539 507 506
f 506 538 539
f 571 539 538
f 538 570 571
f 603 571 570
f 570 602 603
f 635 603 602
f 602 634 635
f 667 635 634
f 634 666 667
f 699 667 666
f 666 698 699
f 731 699 698
f 698 730 731
f 763 731 730
f 730 762 763
f 795 763 762
f 762 794 795
f 827 795 794
f 794 826 827
f 859 827 826
f 826 858 859
f 891 859 858
f 858 890 891
f 923 891 890
f 890 922 923
f 955 923 922
f 922 954 955
f 987 955 954
f 954 986 987
f 1019 987 986
f 986 1018 1019
f 1051 1019 1018
f 1018 1050 1051
f 1083 1051 1050
f 1050 1082 1083
f 1115 1083 1082
f 1082 1114 1115
f 1147 1115 1114
f 1114 1146 1147
f 1179 1147 1146
f 1146 1178 1179
f 1211 1179 1178
f 1178 1210 1211
f 252 220 219
f 219 251 252
f 284 252 251
f 251 283 284
f 316 284 283
f 283 315 316
f 348 316 315
f 315 347 348
f 380 348 347
f 347 379 380
f 412 380 379
f 379 411 412
f 444 412 411
f 411 443 444
f 476 444 443
f 443 475 476
f 508 476 475
f 475 507 508
f 540 508 507
f 507 539 540
f 572 540 539
f 539 571 572
f 604 572 571
f 571 603 604
f 636 604 603
f 603 635 636
f 668 636 635
f 635 667 668
f 700 668 667
f 667 699 700
f 732 700 699
f 699 731 732
f 764 732 731
f 731 763 764
f 796 764 763
f 763 795 796
f 828 796 795
f 795 827 828
f 860 828 827
f 827 859 860
f 892 860 859
f 859 891 892
f 924 892 891
f 891 923 924
f 956 924 923
f 923 955 956
f 988 956 955
f 955 987 988
f 1020 988 987
f 987 1019 1020
f 1052 1020 1019
f 1019 1051 1052
f 1084 1052 1051
f 1051 1083 1084
f 1116 1084 1083
f 1083 1115 1116
f 1148 1116 1115
f 1115 1147 1148
f 1180 1148 1147
f 1147 1179 1180
f 1212 1180 1179
f 1179 1211 1212
f 253 221 220
f 220 252 253
f 285 253 252
f 252 284 285
f 317 285 284
f 284 316 317
f 349 317 316
f 316 348 349
f 381 349 348
f 348 380 381
f 413 381 380
f 380 412 413
f 445 413 412
f 412 444 445
f 477 445 444
f 444 476 477
f 509 477 476
f 476 508 509
f 541 509 508
f 508 540 541
f 573 541 540
f 540 572 573
f 605 573 572
f 572 604 605
f 637 605 604
f 604 636 637
f 669 637 636
f 636 668 669
f 701 669 668
f 668 700 701
f 733 701 700
f 700 732 733
f 765 733 732
f 732 764 765
f 797 765 764
f 764 796 797
f 829 797 796
f 796 828 829
f 861 829 828
f 828 860 861
f 893 861 860
f 860 892 893
f 925 893 892
f 892 924 925
f 957 925 924
f 924 956 957
f 989 957 956
f 956 988 989
f 1021 989 988
f 988 1020 1021
f 1053 1021 1020
f 1020 1052 1053
f 1085 1053 1052
f 1052 1084 1085
f 1117 1085 1084
f 1084 1116 1117
f 1149 1117 1116
f 1116 1148 1149
f 1181 1149 1148
f 1148 1180 1181
f 1213 1181 1180
f 1180 1212 1213
f 254 222 221
f 221 253 254
f 286 254 253
f 253 285 286
f 318 286 285
f 285 317 318
f 350 318 317
f 317 349 350
f 382 350 349
f 349 381 382
f 414 382 381
f 381 413 414
f 446 414 413
f 413 445 446
f 478 446 445
f 445 477 478
f 510 478 477
f 477 509 510
f 542 510 509
f 509 541 542
f 574 542 541
f 541 573 574
f 606 574 573
f 573 605 606
f 638 606 605
f 605 637 638
f 670 638 637
f 637 669 670
f 702 670 669
f 669 701 702
f 734 702 701
f 701 733 734
f 766 734 733
f 733 765 766
f 798 766 765
f 765 797 798
f 830 798 797
f 797 829 830
f 862 830 829
f 829 861 862
f 894 862 861
f 861 893 894
f 926 894 893
f 893 925 926
f 958 926 925
f 925 957 958
f 990 958 957
f 957 989 990
f 1022 990 989
f 989 1021 1022
f 1054 1022 1021
f 1021 1053 1054
f 1086 1054 1053
f 1053 1085 1086
f 1118 1086 1085
f 1085 1117 1118
f 1150 1118 1117
f 1117 1149 1150
f 1182 1150 1149
f 1149 1181 1182
f 1214 1182 1181
f 1181 1213 1214
f 255 223 222
f 222 254 255
f 287 255 254
f 254 286 287
f 319 287 286
f 286 318 319
f 351 319 318
f 318 350 351
f 383 351 350
f 350 382 383
f 415 383 382
f 382 414 415
f 447 415 414
f 414 446 447
f 479 447 446
f 446 478 479
f 511 479 478
f 478 510 511
f 543 511 510
f 510 542 543
f 575 543 542
f 542 574 575
f 607 575 574
f 574 606 607
f 639 607 606
f 606 638 639
f 671 639 638
f 638 670 671
f 703 671 670
f 670 702 703
f 735 703 702
f 702 734 735
f 767 735 734
f 734 766 767
f 799 767 766
f 766 798 799
f 831 799 798
f 798 830 831
f 863 831 830
f 830 862 863
f 895 863 862
f 862 894 895
f 927 895 894
f 894 926 927
f 959 927 926
f 926 958 959
f 991 959 958
f 958 990 991
f 1023 991 990
f 990 1022 1023
f 1055 1023 1022
f 1022 1054 1055
f 1087 1055 1054
f 1054 1086 1087
f 1119 1087 1086
f 1086 1118 1119
f 1151 1119 1118
f 1118 1150 1151
f 1183 1151 1150
f 1150 1182 1183
f 1215 1183 1182
f 1182 1214 1215
f 256 224 223
f 223 255 256
f 288 256 255
f 255 287 288
f 320 288 287
f 287 319 320
f 352 320 319
f 319 351 352
f 384 352 351
f 351 383 384
f 416 384 383
f 383 415 416
f 448 416 415
f 415 447 448
f 480 448 447
f 447 479 480
f 512 480 479
f 479 511 512
f 544 512 511
f 511 543 544
f 576 544 543
f 543 575 576
f 608 576 575
f 575 607 608
f 640 608 607
f 607 639 640
f 672 640 639
f 639 671 672
f 704 672 671
f 671 703 704
f 736 704 703
f 703 735 736
f 768 736 735
f 735 767 768
f 800 768 767
f 767 799 800
f 832 800 799
f 799 831 832
f 864 832 831
f 831 863 864
f 896 864 863
f 863 895 896
f 928 896 895
f 895 927 928
f 960 928 927
f 927 959 960
f 992 960 959
f 959 991 992
f 1024 992 991
f 991 1023 1024
f 1056 1024 1023
f 1023 1055 1056
f 1088 1056 1055
f 1055 1087 1088
f 1120 1088 1087
f 1087 1119 1120
f 1152 1120 1119
f 1119 1151 1152
f 1184 1152 1151
f 1151 1183 1184
f 1216 1184 1183
f 1183 1215 1216
f 257 225 224
f 224 256 257
f 289 257 256
f 256 288 289
f 321 289 288
f 288 320 321
f 353 321 320
f 320 352 353
f 385 353 352
f 352 384 385
f 417 385 384
f 384 416 417
f 449 417 416
f 416 448 449
f 481 449 448
f 448 480 481
f 513 481 480
f 480 512 513
f 545 513 512
f 512 544 545
f 577 545 544
f 544 576 577
f 609 577 576
f 576 608 609
f 641 609 608
f 608 640 641
f 673 641 640
f 640 672 673
f 705 673 672
f 672 704 705
f 737 705 704
f 704 736 737
f 769 737 736
f 736 768 769
f 801 769 768
f 768 800 801
f 833 801 800
f 800 832 833
f 865 833 832
f 832 864 865
f 897 865 864
f 864 896 897
f 929 897 896
f 896 928 929
f 961 929 928
f 928 960 961
f 993 961 960
f 960 992 993
f 1025 993 992
f 992 1024 1025
f 1057 1025 1024
f 1024 1056 1057
f 1089 1057 1056
f 1056 1088 1089
f 1121 1089 1088
f 1088 1120 1121
f 1153 1121 1120
f 1120 1152 1153
f 1185 1153 1152
f 1152 1184 1185
f 1217 1185 1184
f 1184 1216 1217
f 258 226 225
f 225 257 258
f 290 258 257
f 257 289 290
f 322 290 289
f 289 321 322
f 354 322 321
f 321 353 354
f 386 354 353
f 353 385 386
f 418 386 385
f 385 417 418
f 450 418 417
f 417 449 450
f 482 450 449
f 449 481 482
f 514 482 481
f 481 513 514
f 546 514 513
f 513 545 546
f 578 546 545
f 545 577 578
f 610 578 577
f 577 609 610
f 642 610 609
f 609 641 642
f 674 642 641
f 641 673 674
f 706 674 673
f 673 705 706
f 738 706 705
f 705 737 738
f 770 738 737
f 737 769 770
f 802 770 769
f 769 801 802
f 834 802 801
f 801 833 834
f 866 834 833
f 833 865 866
f 898 866 865
f 865 897 898
f 930 898 897
f 897 929 930
f 962 930 929
f 929 961 962
f 994 962 961
f 961 993 994
f 1026 994 993
f 993 1025 1026
f 1058 1026 1025
f 1025 1057 1058
f 1090 1058 1057
f 1057 1089 1090
f 1122 1090 1089
f 1089 1121 1122
f 1154 1122 1121
f 1121 1153 1154
f 1186 1154 1153
f 1153 1185 1186
f 1218 1186 1185
f 1185 1217 1218
f 259 227 226
f 226 258 259
f 291 259 258
f 258 290 291
f 323 291 290
f 290 322 323
f 355 323 322
f 322 354 355
f 387 355 354
f 354 386 387
f 419 387 386
f 386 418 419
f 451 419 418
f 418 450 451
f 483 451 450
f 450 482 483
f 515 483 482
f 482 514 515
f 547 515 514
f 514 546 547
f 579 547 546
f 546 578 579
f 611 579 578
f 578 610 611
f 643 611 610
f 610 642 643
f 675 643 642
f 642 674 675
f 707 675 674
f 674 706 707
f 739 707 706
f 706 738 739
f 771 739 738
f 738 770 771
f 803 771 770
f 770 802 803
f 835 803 802
f 802 834 835
f 867 835 834
f 834 866 867
f 899 867 866
f 866 898 899
f 931 899 898
f 898 930 931
f 963 931 930
f 930 962 963
f 995 963 962
f 962 994 995
f 1027 995 994
f 994 1026 1027
f 1059 1027 1026
f 1026 1058 1059
f 1091 1059 1058
f 1058 1090 1091
f 1123 1091 1090
f 1090 1122 1123
f 1155 1123 1122
f 1122 1154 1155
f 1187 1155 1154
f 1154 1186 1187
f 1219 1187 1186
f 1186 1218 1219
f 260 228 227
f 227 259 260
f 292 260 259
f 259 291 292
f 324 292 291
f 291 323 324
f 356 324 323
f 323 355 356
f 388 356 355
f 355 387 388
f 420 388 387
f 387 419 420
f 452 420 419
f 419 451 452
f 484 452 451
f 451 483 484
f 516 484 483
f 483 515 516
f 548 516 515
f 515 547 548
f 580 548 547
f 547 579 580
f 612 580 579
f 579 611 612
f 644 612 611
f 611 643 644
f 676 644 643
f 643 675 676
f 708 676 675
f 675 707 708
f 740 708 707
f 707 739 740
f 772 740 739
f 739 771 772
f 804 772 771
f 771 803 804
f 836 804 803
f 803 835 836
f 868 836 835
f 835 867 868
f 900 868 867
f 867 899 900
f 932 900 899
f 899 931 932
f 964 932 931
f 931 963 964
f 996 964 963
f 963 995 996
f 1028 996 995
f 995 1027 1028
f 1060 1028 1027
f 1027 1059 1060
f 1092 1060 1059
f 1059 1091 1092
f 1124 1092 1091
f 1091 1123 1124
f 1156 1124 1123
f 1123 1155 1156
f 1188 1156 1155
f 1155 1187 1188
f 1220 1188 1187
f 1187 1219 1220
f 261 229 228
f 228 260 261
f 293 261 260
f 260 292 293
f 325 293 292
f 292 324 325
f 357 325 324
f 324 356 357
f 389 357 356
f 356 388 389
f 421 389 388
f 388 420 421
f 453 421 420
f 420 452 453
f 485 453 452
f 452 484 485
f 517 485 484
f 484 516 517
f 549 517 516
f 516 548 549
f 581 549 548
f 548 580 581
f 613 581 580
f 580 612 613
f 645 613 612
f 612 644 645
f 677 645 644
f 644 676 677
f 709 677 676
f 676 708 709
f 741 709 708
f 708 740 741
f 773 741 740
f 740 772 773
f 805 773 772
f 772 804 805
f 837 805 804
f 804 836 837
f 869 837 836
f 836 868 869
f 901 869 868
f 868 900 901
f 933 901 900
f 900 932 933
f 965 933 932
f 932 964 965
f 997 965 964
f 964 996 997
f 1029 997 996
f 996 1028 1029
f 1061 1029 1028
f 1028 1060 1061
f 1093 1061 1060
f 1060 1092 1093
f 1125 1093 1092
f 1092 1124 1125
f 1157 1125 1124
f 1124 1156 1157
f 1189 1157 1156
f 1156 1188 1189
f 1221 1189 1188
f 1188 1220 1221
f 262 230 229
f 229 261 262
f 294 262 261
f 261 293 294
f 326 294 293
f 293 325 326
f 358 326 325
f 325 357 358
f 390 358 357
f 357 389 390
f 422 390 389
f 389 421 422
f 454 422 421
f 421 453 454
f 486 454 453
f 453 485 486
f 518 486 485
f 485 517 518
f 550 518 517
f 517 549 550
f 582 550 549
f 549 581 582
f 614 582 581
f 581 613 614
f 646 614 613
f 613 645 646
f 678 646 645
f 645 677 678
f 710 678 677
f 677 709 710
f 742 710 709
f 709 741 742
f 774 742 741
f 741 773 774
f 806 774 773
f 773 805 806
f 838 806 805
f 805 837 838
f 870 838 837
f 837 869 870
f 902 870 869
f 869 901 902
f 934 902 901
f 901 933 934
f 966 934 933
f 933 965 966
f 998 966 965
f 965 997 998
f 1030 998 997
f 997 1029 1030
f 1062 1030 1029
f 1029 1061 1062
f 1094 1062 1061
f 1061 1093 1094
f 1126 1094 1093
f 1093 1125 1126
f 1158 1126 1125
f 1125 1157 1158
f 1190 1158 1157
f 1157 1189 1190
f 1222 1190 1189
f 1189 1221 1222
f 263 231 230
f 230 262 263
f 295 263 262
f 262 294 295
f 327 295 294
f 294 326 327
f 359 327 326
f 326 358 359
f 391 359 358
f 358 390 391
f 423 391 390
f 390 422 423
f 455 423 422
f 422 454 455
f 487 455 454
f 454 486 487
f 519 487 486
f 486 518 519
f 551 519 518
f 518 550 551
f 583 551 550
f 550 582 583
f 615 583 582
f 582 614 615
f 647 615 614
f 614 646 647
f 679 647 646
f 646 678 679
f 711 679 678
f 678 710 711
f 743 711 710
f 710 742 743
f 775 743 742
f 742 774 775
f 807 775 774
f 774 806 807
f 839 807 806
f 806 838 839
f 871 839 838
f 838 870 871
f 903 871 870
f 870 902 903
f 935 903 902
f 902 934 935
f 967 935 934
f 934 966 967
f 999 967 966
f 966 998 999
f 1031 999 998
f 998 1030 1031
f 1063 1031 1030
f 1030 1062 1063
f 1095 1063 1062
f 1062 1094 1095
f 1127 1095 1094
f 1094 1126 1127
f 1159 1127 1126
f 1126 1158 1159
f 1191 1159 1158
f 1158 1190 1191
f 1223 1191 1190
f 1190 1222 1223
f 264 232 231
f 231 263 264
f 296 264 263
f 263 295 296
f 328 296 295
f 295 327 328
f 360 328 327
f 327 359 360
f 392 360 359
f 359 391 392
f 424 392 391
f 391 423 424
f 456 424 423
f 423 455 456
f 488 456 455
f 455 487 488
f 520 488 487
f 487 519 520
f 552 520 519
f 519 551 552
f 584 552 551
f 551 583 584
f 616 584 583
f 583 615 616
f 648 616 615
f 615 647 648
f 680 648 647
f 647 679 680
f 712 680 679
f 679 711 712
f 744 712 711
f 711 743 744
f 776 744 743
f 743 775 776
f 808 776 775
f 775 807 808
f 840 808 807
f 807 839 840
f 872 840 839
f 839 871 872
f 904 872 871
f 871 903 904
f 936 904 903
f 903 935 936
f 968 936 935
f 935 967 968
f 1000 968 967
f 967 999 1000
f 1032 1000 999
f 999 1031 1032
f 1064 1032 1031
f 1031 1063 1064
f 1096 1064 1063
f 1063 1095 1096
f 1128 1096 1095
f 1095 1127 1128
f 1160 1128 1127
f 1127 1159 1160
f 1192 1160 1159
f 1159 1191 1192
f 1224 1192 1191
f 1191 1223 1224
f 265 233 232
f 232 264 265
f 297 265 264
f 264 296 297
f 329 297 296
f 296 328 329
f 361 329 328
f 328 360 361
f 393 361 360
f 360 392 393
f 425 393 392
f 392 424 425
f 457 425 424
f 424 456 457
f 489 457 456
f 456 488 489
f 521 489 488
f 488 520 521
f 553 521 520
f 520 552 553
f 585 553 552
f 552 584 585
f 617 585 584
f 584 616 617
f 649 617 616
f 616 648 649
f 681 649 648
f 648 680 681
f 713 681 680
f 680 712 713
f 745 713 712
f 712 744 745
f 777 745 744
f 744 776 777
f 809 777 776
f 776 808 809
f 841 809 808
f 808 840 841
f 873 841 840
f 840 872 873
f 905 873 872
f 872 904 905
f 937 905 904
f 904 936 937
f 969 937 936
f 936 968 969
f 1001 969 968
f 968 1000 1001
f 1033 1001 1000
f 1000 1032 1033
f 1065 1033 1032
f 1032 1064 1065
f 1097 1065 1064
f 1064 1096 1097
f 1129 1097 1096
f 1096 1128 1129
f 1161 1129 1128
f 1128 1160 1161
f 1193 1161 1160
f 1160 1192 1193
f 1225 1193 1192
f 1192 1224 1225
f 266 234 233
f 233 265 266
f 298 266 265
f 265 297 298
f 330 298 297
f 297 329 330
f 362 330 329
f 329 361 362
f 394 362 361
f 361 393 394
f 426 394 393
f 393 425 426
f 458 426 425
f 425 457 458
f 490 458 457
f 457 489 490
f 522 490 489
f 489 521 522
f 554 522 521
f 521 553 554
f 586 554 553
f 553 585 586
f 618 586 585
f 585 617 618
f 650 618 617
f 617 649 650
f 682 650 649
f 649 681 682
f 714 682 681
f 681 713 714
f 746 714 713
f 713 745 746
f 778 746 745
f 745 777 778
f 810 778 777
f 777 809 810
f 842 810 809
f 809 841 842
f 874 842 841
f 841 873 874
f 906 874 873
f 873 905 906
f 938 906 905
f 905 937 938
f 970 938 937
f 937 969 970
f 1002 970 969
f 969 1001 1002
f 1034 1002 1001
f 1001 1033 1034
f 1066 1034 1033
f 1033 1065 1066
f 1098 1066 1065
f 1065 1097 1098
f 1130 1098 1097
f 1097 1129 1130
f 1162 1130 1129
f 1129 1161 1162
f 1194 1162 1161
f 1161 1193 1194
f 1226 1194 1193
f 1193 1225 1226
f 267 235 234
f 234 266 267
f 299 267 266
f 266 298 299
f 331 299 298
f 298 330 331
f 363 331 330
f 330 362 363
f 395 363 362
f 362 394 395
f 427 395 394
f 394 426 427
f 459 427 426
f 426 458 459
f 491 459 458
f 458 490 491
f 523 491 490
f 490 522 523
f 555 523 522
f 522 554 555
f 587 555 554
f 554 586 587
f 619 587 586
f 586 618 619
f 651 619 618
f 618 650 651
f 683 651 650
f 650 682 683
f 715 683 682
f 682 714 715
f 747 715 714
f 714 746 747
f 779 747 746
f 746 778 779
f 811 779 778
f 778 810 811
f 843 811 810
f 810 842 843
f 875 843 842
f 842 874 875
f 907 875 874
f 874 906 907
f 939 907 906
f 906 938 939
f 971 939 938
f 938 970 971
f 1003 971 970
f 970 1002 1003
f 1035 1003 1002
f 1002 1034 1035
f 1067 1035 1034
f 1034 1066 1067
f 1099 1067 1066
f 1066 1098 1099
f 1131 1099 1098
f 1098 1130 1131
f 1163 1131 1130
f 1130 1162 1163
f 1195 1163 1162
f 1162 1194 1195
f 1227 1195 1194
f 1194 1226 1227
f 268 236 235
f 235 267 268
f 300 268 267
f 267 299 300
f 332 300 299
f 299 331 332
f 364 332 331
f 331 363 364
f 396 364 363
f 363 395 396
f 428 396 395
f 395 427 428
f 460 428 427
f 427 459 460
f 492 460 459
f 459 491 492
f 524 492 491
f 491 523 524
f 556 524 523
f 523 555 556
f 588 556 555
f 555 587 588
f 620 588 587
f 587 619 620
f 652 620 619
f 619 651 652
f 684 652 651
f 651 683 684
f 716 684 683
f 683 715 716
f 748 716 715
f 715 747 748
f 780 748 747
f 747 779 780
f 812 780 779
f 779 811 812
f 844 812 811
f 811 843 844
f 876 844 843
f 843 875 876
f 908 876 875
f 875 907 908
f 940 908 907
f 907 939 940
f 972 940 939
f 939 971 972
f 1004 972 971
f 971 1003 1004
f 1036 1004 1003
f 1003 1035 1036
f 1068 1036 1035
f 1035 1067 1068
f 1100 1068 1067
f 1067 1099 1100
f 1132 1100 1099
f 1099 1131 1132
f 1164 1132 1131
f 1131 1163 1164
f 1196 1164 1163
f 1163 1195 1196
f 1228 1196 1195
f 1195 1227 1228
f 269 237 236
f 236 268 269
f 301 269 268
f 268 300 301
f 333 301 300
f 300 332 333
f 365 333 332
f 332 364 365
f 397 365 364
f 364 396 397
f 429 397 396
f 396 428 429
f 461 429 428
f 428 460 461
f 493 461 460
f 460 492 493
f 525 493 492
f 492 524 525
f 557 525 524
f 524 556 557
f 589 557 556
f 556 588 589
f 621 589 588
f 588 620 621
f 653 621 620
f 620 652 653
f 685 653 652
f 652 684 685
f 717 685 684
f 684 716 717
f 749 717 716
f 716 748 749
f 781 749 748
f 748 780 781
f 813 781 780
f 780 812 813
f 845 813 812
f 812 844 845
f 877 845 844
f 844 876 877
f 909 877 876
f 876 908 909
f 941 909 908
f 908 940 941
f 973 941 940
f 940 972 973
f 1005 973 972
f 972 1004 1005
f 1037 1005 1004
f 1004 1036 1037
f 1069 1037 1036
f 1036 1068 1069
f 1101 1069 1068
f 1068 1100 1101
f 1133 1101 1100
f 1100 1132 1133
f 1165 1133 1132
f 1132 1164 1165
f 1197 1165 1164
f 1164 1196 1197
f 1229 1197 1196
f 1196 1228 1229
f 270 238 237
f 237 269 270
f 302 270 269
f 269 301 302
f 334 302 301
f 301 333 334
f 366 334 333
f 333 365 366
f 398 366 365
f 365 397 398
f 430 398 397
f 397 429 430
f 462 430 429
f 429 461 462
f 494 462 461
f 461 493 494
f 526 494 493
f 493 525 526
f 558 526 525
f 525 557 558
f 590 558 557
f 557 589 590
f 622 590 589
f 589 621 622
f 654 622 621
f 621 653 654
f 686 654 653
f 653 685 686
f 718 686 685
f 685 717 718
f 750 718 717
f 717 749 750
f 782 750 749
f 749 781 782
f 814 782 781
f 781 813 814
f 846 814 813
f 813 845 846
f 878 846 845
f 845 877 878
f 910 878 877
f 877 909 910
f 942 910 909
f 909 941 942
f 974 942 941
f 941 973 974
f 1006 974 973
f 973 1005 1006
f 1038 1006 1005
f 1005 1037 1038
f 1070 1038 1037
f 1037 1069 1070
f 1102 1070 1069
f 1069 1101 1102
f 1134 1102 1101
f 1101 1133 1134
f 1166 1134 1133
f 1133 1165 1166
f 1198 1166 1165
f 1165 1197 1198
f 1230 1198 1197
f 1197 1229 1230
f 271 239 238
f 238 270 271
f 303 271 270
f 270 302 303
f 335 303 302
f 302 334 335
f 367 335 334
f 334 366 367
f 399 367 366
f 366 398 399
f 431 399 398
f 398 430 431
f 463 431 430
f 430 462 463
f 495 463 462
f 462 494 495
f 527 495 494
f 494 526 527
f 559 527 526
f 526 558 559
f 591 559 558
f 558 590 591
f 623 591 590
f 590 622 623
f 655 623 622
f 622 654 655
f 687 655 654
f 654 686 687
f 719 687 686
f 686 718 719
f 751 719 718
f 718 750 751
f 783 751 750
f 750 782 783
f 815 783 782
f 782 814 815
f 847 815 814
f 814 846 847
f 879 847 846
f 846 878 879
f 911 879 878
f 878 910 911
f 943 911 910
f 910 942 943
f 975 943 942
f 942 974 975
f 1007 975 974
f 974 1006 1007
f 1039 1007 1006
f 1006 1038 1039
f 1071 1039 1038
f 1038 1070 1071
f 1103 1071 1070
f 1070 1102 1103
f 1135 1103 1102
f 1102 1134 1135
f 1167 1135 1134
f 1134 1166 1167
f 1199 1167 1166
f 1166 1198 1199
f 1231 1199 1198
f 1198 1230 1231
f 272 240 239
f 239 271 272
f 304 272 271
f 271 303 304
f 336 304 303
f 303 335 336
f 368 336 335
f 335 367 368
f 400 368 367
f 367 399 400
f 432 400 399
f 399 431 432
f 464 432 431
f 431 463 464
f 496 464 463
f 463 495 496
f 528 496 495
f 495 527 528
f 560 528 527
f 527 559 560
f 592 560 559
f 559 591 592
f 624 592 591
f 591 623 624
f 656 624 623
f 623 655 656
f 688 656 655
f 655 687 688
f 720 688 687
f 687 719 720
f 752 720 719
f 719 751 752
f 784 752 751
f 751 783 784
f 816 784 783
f 783 815 816
f 848 816 815
f 815 847 848
f 880 848 847
f 847 879 880
f 912 880 879
f 879 911 912
f 944 912 911
f 911 943 944
f 976 944 943
f 943 975 976
f 1008 976 975
f 975 1007 1008
f 1040 1008 1007
f 1007 1039 1040
f 1072 1040 1039
f 1039 1071 1072
f 1104 1072 1071
f 1071 1103 1104
f 1136 1104 1103
f 1103 1135 1136
f 1168 1136 1135
f 1135 1167 1168
f 1200 1168 1167
f 1167 1199 1200
f 1232 1200 1199
f 1199 1231 1232
f 273 241 240
f 240 272 273
f 305 273 272
f 272 304 305
f 337 305 304
f 304 336 337
f 369 337 336
f 336 368 369
f 401 369 368
f 368 400 401
f 433 401 400
f 400 432 433
f 465 433 432
f 432 464 465
f 497 465 464
f 464 496 497
f 529 497 496
f 496 528 529
f 561 529 528
f 528 560 561
f 593 561 560
f 560 592 593
f 625 593 592
f 592 624 625
f 657 625 624
f 624 656 657
f 689 657 656
f 656 688 689
f 721 689 688
f 688 720 721
f 753 721 720
f 720 752 753
f 785 753 752
f 752 784 785
f 817 785 784
f 784 816 817
f 849 817 816
f 816 848 849
f 881 849 848
f 848 880 881
f 913 881 880
f 880 912 913
f 945 913 912
f 912 944 945
f 977 945 944
f 944 976 977
f 1009 977 976
f 976 1008 1009
f 1041 1009 1008
f 1008 1040 1041
f 1073 1041 1040
f 1040 1072 1073
f 1105 1073 1072
f 1072 1104 1105
f 1137 1105 1104
f 1104 1136 1137
f 1169 1137 1136
f 1136 1168 1169
f 1201 1169 1168
f 1168 1200 1201
f 1233 1201 1200
f 1200 1232 1233
f 274 242 241
f 241 273 274
f 306 274 273
f 273 305 306
f 338 306 305
f 305 337 338
f 370 338 337
f 337 369 370
f 402 370 369
f 369 401 402
f 434 402 401
f 401 433 434
f 466 434 433
f 433 465 466
f 498 466 465
f 465 497 498
f 530 498 497
f 497 529 530
f 562 530 529
f 529 561 562
f 594 562 561
f 561 593 594
f 626 594 593
f 593 625 626
f 658 626 625
f 625 657 658
f 690 658 657
f 657 689 690
f 722 690 689
f 689 721 722
f 754 722 721
f 721 753 754
f 786 754 753
f 753 785 786
f 818 786 785
f 785 817 818
f 850 818 817
f 817 849 850
f 882 850 849
f 849 881 882
f 914 882 881
f 881 913 914
f 946 914 913
f 913 945 946
f 978 946 945
f 945 977 978
f 1010 978 977
f 977 1009 1010
f 1042 1010 1009
f 1009 1041 1042
f 1074 1042 1041
f 1041 1073 1074
f 1106 1074 1073
f 1073 1105 1106
f 1138 1106 1105
f 1105 1137 1138
f 1170 1138 1137
f 1137 1169 1170
f 1202 1170 1169
f 1169 1201 1202
f 1234 1202 1201
f 1201 1233 1234
f 275 243 242
f 242 274 275
f 307 275 274
f 274 306 307
f 339 307 306
f 306 338 339
f 371 339 338
f 338 370 371
f 403 371 370
f 370 402 403
f 435 403 402
f 402 434 435
f 467 435 434
f 434 466 467
f 499 467 466
f 466 498 499
f 531 499 498
f 498 530 531
f 563 531 530
f 530 562 563
f 595 563 562
f 562 594 595
f 627 595 594
f 594 626 627
f 659 627 626
f 626 658 659
f 691 659 658
f 658 690 691
f 723 691 690
f 690 722 723
f 755 723 722
f 722 754 755
f 787 755 754
f 754 786 787
f 819 787 786
f 786 818 819
f 851 819 818
f 818 850 851
f 883 851 850
f 850 882 883
f 915 883 882
f 882 914 915
f 947 915 914
f 914 946 947
f 979 947 946
f 946 978 979
f 1011 979 978
f 978 1010 1011
f 1043 1011 1010
f 1010 1042 1043
f 1075 1043 1042
f 1042 1074 1075
f 1107 1075 1074
f 1074 1106 1107
f 1139 1107 1106
f 1106 1138 1139
f 1171 1139 1138
f 1138 1170 1171
f 1203 1171 1170
f 1170 1202 1203
f 1235 1203 1202
f 1202 1234 1235
f 276 244 243
f 243 275 276
f 308 276 275
f 275 307 308
f 340 308 307
f 307 339 340
f 372 340 339
f 339 371 372
f 404 372 371
f 371 403 404
f 436 404 403
f 403 435 436
f 468 436 435
f 435 467 468
f 500 468 467
f 467 499 500
f 532 500 499
f 499 531 532
f 564 532 531
f 531 563 564
f 596 564 563
f 563 595 596
f 628 596 595
f 595 627 628
f 660 628 627
f 627 659 660
f 692 660 659
f 659 691 692
f 724 692 691
f 691 723 724
f 756 724 723
f 723 755 756
f 788 756 755
f 755 787 788
f 820 788 787
f 787 819 820
f 852 820 819
f 819 851 852
f 884 852 851
f 851 883 884
f 916 884 883
f 883 915 916
f 948 916 915
f 915 947 948
f 980 948 947
f 947 979 980
f 1012 980 979
f 979 1011 1012
f 1044 1012 1011
f 1011 1043 1044
f 1076 1044 1043
f 1043 1075 1076
f 1108 1076 1075
f 1075 1107 1108
f 1140 1108 1107
f 1107 1139 1140
f 1172 1140 1139
f 1139 1171 1172
f 1204 1172 1171
f 1171 1203 1204
f 1236 1204 1203
f 1203 1235 1236
f 277 245 244
f 244 276 277
f 309 277 276
f 276 308 309
f 341 309 308
f 308 340 341
f 373 341 340
f 340 372 373
f 405 373 372
f 372 404 405
f 437 405 404
f 404 436 437
f 469 437 436
f 436 468 469
f 501 469 468
f 468 500 501
f 533 501 500
f 500 532 533
f 565 533 532
f 532 564 565
f 597 565 564
f 564 596 597
f 629 597 596
f 596 628 629
f 661 629 628
f 628 660 661
f 693 661 660
f 660 692 693
f 725 693 692
f 692 724 725
f 757 725 724
f 724 756 757
f 789 757 756
f 756 788 789
f 821 789 788
f 788 820 821
f 853 821 820
f 820 852 853
f 885 853 852
f 852 884 885
f 917 885 884
f 884 916 917
f 949 917 916
f 916 948 949
f 981 949 948
f 948 980 981
f 1013 981 980
f 980 1012 1013
f 1045 1013 1012
f 1012 1044 1045
f 1077 1045 1044
f 1044 1076 1077
f 1109 1077 1076
f 1076 1108 1109
f 1141 1109 1108
f 1108 1140 1141
f 1173 1141 1140
f 1140 1172 1173
f 1205 1173 1172
f 1172 1204 1205
f 1237 1205 1204
f 1204 1236 1237
f 278 246 245
f 245 277 278
f 310 278 277
f 277 309 310
f 342 310 309
f 309 341 342
f 374 342 341
f 341 373 374
f 406 374 373
f 373 405 406
f 438 406 405
f 405 437 438
f 470 438 437
f 437 469 470
f 502 470 469
f 469 501 502
f 534 502 501
f 501 533 534
f 566 534 533
f 533 565 566
f 598 566 565
f 565 597 598
f 630 598 597
f 597 629 630
f 662 630 629
f 629 661 662
f 694 662 661
f 661 693 694
f 726 694 693
f 693 725 726
f 758 726 725
f 725 757 758
f 790 758 757
f 757 789 790
f 822 790 789
f 789 821 822
f 854 822 821
f 821 853 854
f 886 854 853
f 853 885 886
f 918 886 885
f 885 917 918
f 950 918 917
f 917 949 950
f 982 950 949
f 949 981 982
f 1014 982 981
f 981 1013 1014
f 1046 1014 1013
f 1013 1045 1046
f 1078 1046 1045
f 1045 1077 1078
f 1110 1078 1077
f 1077 1109 1110
f 1142 1110 1109
f 1109 1141 1142
f 1174 1142 1141
f 1141 1173 1174
f 1206 1174 1173
f 1173 1205 1206
f 1238 1206 1205
f 1205 1237 1238
