v -7127.88 365.849 -2934.57
v -7129.03 365.126 -2935.26
v -7127.9 366.403 -2935.16
v -7128.82 365.33 -2935.87
v -7128.79 364.431 -2934.39
v -7127.84 365.612 -2933.84
v -7127.81 363.685 -2934.15
v -7127.25 365.027 -2933.93
v -7127.28 363.475 -2934.69
v -7126.6 364.849 -2934.16
v -7126.97 363.675 -2935.38
v -7126.67 365.053 -2934.87
v -7128.3 365.048 -2936.22
v -7127.44 364.403 -2936.21
v -7127.34 365.997 -2935.51
v -7126.69 365.568 -2935.41
v -7125.76 368.064 -2933.52
v -7126.16 368.117 -2933.22
v -7126.76 367.186 -2934.28
v -7126.96 367.047 -2933.75
v -7125.9 367.846 -2932.99
v -7125.67 367.516 -2932.87
v -7126.87 366.817 -2933.27
v -7126.42 366.384 -2933.21
v -7125.98 366.512 -2934.21
v -7125.89 366.251 -2933.61
v -7125.3 367.692 -2933.62
v -7125.37 367.58 -2933.22
v -7125.85 366.809 -2934.62
v -7125.04 367.944 -2933.95
v -7126.31 367.108 -2934.67
v -7125.53 368.16 -2933.96
v -7125.21 369.198 -2933.1
v -7124.71 369.526 -2932.71
v -7125.28 368.997 -2932.81
v -7124.68 369.133 -2932.63
v -7125.14 368.785 -2932.55
v -7124.76 368.574 -2932.77
v -7124.51 369.08 -2932.58
v -7124.42 368.517 -2932.96
v -7124.38 369.075 -2932.69
v -7124.51 369.08 -2932.58
v -7124.25 369.371 -2932.78
v -7124.56 369.496 -2932.91
v -7124.64 368.812 -2933.16
v -7124.92 368.945 -2933.19
v -7127.9 366.403 -2935.16
v -7128.82 365.33 -2935.87
v -7126.76 367.186 -2934.28
v -7125.76 368.064 -2933.52
v -7125.21 369.198 -2933.1
v -7124.44 369.394 -2932.55
v -7124.44 369.394 -2932.55
v -7124.71 369.526 -2932.71
v -7121.43 367.127 -2939.44
v -7121.4 366.609 -2940.87
v -7120.95 367.734 -2939.66
v -7120.77 366.846 -2940.96
v -7122 365.812 -2940.34
v -7122.04 366.817 -2939.08
v -7121.7 364.938 -2939.49
v -7121.65 366.18 -2938.7
v -7120.96 364.722 -2939.33
v -7121.11 365.952 -2938.29
v -7120.21 364.952 -2939.38
v -7120.53 366.231 -2938.67
v -7120.2 366.542 -2940.73
v -7119.75 365.806 -2940.09
v -7120.35 367.303 -2939.42
v -7120.1 366.795 -2938.88
v -7121.32 368.974 -2936.78
v -7121.78 369.041 -2936.96
v -7121.15 368.293 -2938.14
v -7121.71 368.127 -2938.07
v -7121.85 368.722 -2936.66
v -7121.83 368.358 -2936.46
v -7122.07 367.843 -2937.79
v -7121.88 367.357 -2937.44
v -7120.79 367.532 -2937.54
v -7121.26 367.205 -2937.2
v -7120.99 368.562 -2936.48
v -7121.37 368.422 -2936.37
v -7120.38 367.849 -2937.58
v -7120.58 368.814 -2936.39
v -7120.58 368.203 -2937.96
v -7120.83 369.085 -2936.79
v -7121.43 369.991 -2935.93
v -7121.52 370.221 -2935.26
v -7121.72 369.772 -2935.88
v -7121.57 369.82 -2935.25
v -7121.87 369.521 -2935.65
v -7121.48 369.292 -2935.48
v -7121.53 369.744 -2935.09
v -7121.14 369.214 -2935.28
v -7121.37 369.735 -2935.03
v -7121.53 369.744 -2935.09
v -7121.23 370.023 -2934.93
v -7121.28 370.193 -2935.24
v -7121.09 369.55 -2935.53
v -7121.21 369.717 -2935.77
v -7120.95 367.734 -2939.66
v -7120.77 366.846 -2940.96
v -7121.15 368.293 -2938.14
v -7121.32 368.974 -2936.78
v -7121.43 369.991 -2935.93
v -7121.53 370.044 -2934.97
v -7121.53 370.044 -2934.97
v -7121.52 370.221 -2935.26
v -7115.61 367.297 -2934.65
v -7114.39 366.6 -2935.23
v -7115.13 367.858 -2934.34
v -7114 366.808 -2934.72
v -7115.23 365.891 -2935.52
v -7116.24 367.05 -2935.03
v -7115.96 365.126 -2934.84
v -7116.48 366.457 -2934.49
v -7115.81 364.915 -2934.1
v -7116.64 366.271 -2933.82
v -7115.41 365.119 -2933.46
v -7116.02 366.485 -2933.48
v -7113.99 366.522 -2934.09
v -7114.47 365.864 -2933.38
v -7115.13 367.448 -2933.68
v -7115.57 367.007 -2933.2
v -7117.7 369.465 -2933.46
v -7117.74 369.52 -2933.95
v -7116.5 368.612 -2933.87
v -7116.83 368.47 -2934.34
v -7118.07 369.242 -2933.87
v -7118.29 368.907 -2933.75
v -7117.27 368.233 -2934.53
v -7117.56 367.791 -2934.19
v -7116.98 367.925 -2933.27
v -7117.52 367.655 -2933.53
v -7117.87 369.087 -2933.02
v -7118.16 368.971 -2933.3
v -7116.72 368.224 -2932.93
v -7117.74 369.338 -2932.62
v -7116.43 368.532 -2933.28
v -7117.46 369.562 -2933.02
v -7118.38 370.584 -2933.22
v -7118.99 370.9 -2933.02
v -7118.58 370.381 -2933.45
v -7119.07 370.505 -2933.05
v -7118.88 370.163 -2933.48
v -7118.89 369.949 -2933.04
v -7119.2 370.449 -2932.93
v -7118.93 369.889 -2932.65
v -7119.19 370.444 -2932.77
v -7119.2 370.449 -2932.93
v -7119.18 370.739 -2932.61
v -7118.91 370.87 -2932.79
v -7118.64 370.19 -2932.73
v -7118.46 370.328 -2932.94
v -7115.13 367.858 -2934.34
v -7114 366.808 -2934.72
v -7116.5 368.612 -2933.87
v -7117.7 369.465 -2933.46
v -7118.38 370.584 -2933.22
v -7119.27 370.761 -2932.89
v -7119.27 370.761 -2932.89
v -7118.99 370.9 -2933.02
v -7116.96 367.133 -2927.32
v -7115.76 366.559 -2926.58
v -7116.99 367.724 -2926.77
v -7115.99 366.785 -2925.98
v -7115.92 365.791 -2927.39
v -7116.97 366.845 -2928.03
v -7116.83 364.947 -2927.59
v -7117.5 366.218 -2927.91
v -7117.35 364.728 -2927.04
v -7118.14 366 -2927.66
v -7117.69 364.946 -2926.37
v -7118.1 366.256 -2926.96
v -7116.49 366.483 -2925.61
v -7117.29 365.767 -2925.58
v -7117.52 367.296 -2926.39
v -7118.13 366.806 -2926.46
v -7119.25 369.08 -2928.52
v -7118.86 369.146 -2928.83
v -7118.19 368.345 -2927.7
v -7117.96 368.189 -2928.22
v -7119.09 368.839 -2929.04
v -7119.28 368.483 -2929.14
v -7118.03 367.92 -2928.69
v -7118.44 367.446 -2928.71
v -7118.9 367.603 -2927.72
v -7118.96 367.295 -2928.31
v -7119.68 368.676 -2928.4
v -7119.59 368.545 -2928.79
v -7119.07 367.913 -2927.34
v -7119.96 368.926 -2928.09
v -7118.63 368.254 -2927.31
v -7119.49 369.184 -2928.09
v -7119.89 370.13 -2929.02
v -7120.42 370.387 -2929.43
v -7119.8 369.917 -2929.3
v -7120.41 369.988 -2929.49
v -7119.92 369.676 -2929.55
v -7120.28 369.45 -2929.31
v -7120.57 369.917 -2929.54
v -7120.62 369.375 -2929.12
v -7120.7 369.909 -2929.43
v -7120.57 369.917 -2929.54
v -7120.86 370.198 -2929.35
v -7120.56 370.357 -2929.23
v -7120.42 369.701 -2928.94
v -7120.16 369.86 -2928.91
v -7116.99 367.724 -2926.77
v -7115.99 366.785 -2925.98
v -7118.19 368.345 -2927.7
v -7119.25 369.08 -2928.52
v -7119.89 370.13 -2929.02
v -7120.67 370.222 -2929.58
v -7120.67 370.222 -2929.58
v -7120.42 370.387 -2929.43
v -7125.41 366.308 -2926.56
v -7126.14 365.568 -2925.45
v -7125.99 366.868 -2926.54
v -7126.74 365.784 -2925.67
v -7125.28 364.869 -2925.67
v -7124.68 366.064 -2926.58
v -7125.01 364.141 -2926.66
v -7124.76 365.492 -2927.18
v -7125.54 363.948 -2927.21
v -7124.98 365.33 -2927.85
v -7126.22 364.164 -2927.54
v -7125.69 365.541 -2927.79
v -7127.08 365.517 -2926.2
v -7127.06 364.891 -2927.08
v -7126.34 366.479 -2927.12
v -7126.22 366.062 -2927.78
v -7124.28 368.555 -2928.6
v -7123.99 368.596 -2928.2
v -7125.07 367.665 -2927.64
v -7124.55 367.515 -2927.42
v -7123.75 368.328 -2928.45
v -7123.63 368.001 -2928.68
v -7124.07 367.282 -2927.51
v -7124.01 366.857 -2927.97
v -7125 367.007 -2928.43
v -7124.4 366.741 -2928.51
v -7124.37 368.194 -2929.07
v -7123.98 368.076 -2928.99
v -7125.4 367.311 -2928.57
v -7124.69 368.455 -2929.34
v -7125.46 367.601 -2928.11
v -7124.71 368.66 -2928.84
v -7123.83 369.695 -2929.12
v -7123.43 370.029 -2929.6
v -7123.54 369.489 -2929.04
v -7123.35 369.636 -2929.63
v -7123.28 369.277 -2929.18
v -7123.5 369.077 -2929.56
v -7123.29 369.586 -2929.8
v -7123.67 369.03 -2929.91
v -7123.4 369.586 -2929.94
v -7123.29 369.586 -2929.8
v -7123.49 369.885 -2930.06
v -7123.62 370.005 -2929.75
v -7123.87 369.322 -2929.69
v -7123.92 369.449 -2929.41
v -7125.99 366.868 -2926.54
v -7126.74 365.784 -2925.67
v -7125.07 367.665 -2927.64
v -7124.28 368.555 -2928.6
v -7123.83 369.695 -2929.12
v -7123.26 369.901 -2929.86
v -7123.26 369.901 -2929.86
v -7123.43 370.029 -2929.6
v -7121.36 371.054 -2931.89
v -7121.61 370.75 -2932.06
v -7121.99 370.973 -2931.73
v -7121.84 370.725 -2932.07
v -7121.44 370.858 -2932.06
v -7121.86 371.108 -2931.32
v -7122.14 371.072 -2931.35
v -7121.86 371.449 -2931.11
v -7121.02 371.496 -2931.81
v -7121.62 371.17 -2931.42
v -7121.65 371.308 -2932.56
v -7121.26 371.225 -2932.26
v -7121.51 371.47 -2932.94
v -7121.2 371.48 -2932.69
v -7121.66 370.953 -2932.48
v -7122.05 371.044 -2932.5
v -7121.85 371.289 -2932.6
v -7122.29 371.18 -2932.48
v -7122.31 371.373 -2932.53
v -7121.84 371.337 -2932.89
v -7122.01 370.829 -2932.43
v -7122.37 370.975 -2932.28
v -7122.59 371.082 -2932.04
v -7122.71 371.256 -2932.03
v -7122.41 370.978 -2931.81
v -7122.56 371.06 -2931.75
v -7122.71 371.447 -2931.72
v -7122.18 371.446 -2931.19
v -7122.18 371.653 -2931.18
v -7121.85 371.854 -2931.06
v -7121.11 371.871 -2932.8
v -7120.93 371.64 -2932.4
v -7120.95 371.458 -2932.39
v -7121.82 371.469 -2933.01
v -7122.13 371.513 -2932.92
v -7121.24 372.239 -2931.47
v -7121.14 371.875 -2931.36
v -7122.47 371.863 -2931.32
v -7122.49 371.663 -2931.41
v -7121.59 371.499 -2931.27
v -7122.8 371.871 -2931.68
v -7122.49 372.066 -2931.43
v -7122.46 372.249 -2931.47
v -7120.99 371.669 -2931.77
v -7120.82 371.858 -2932.07
v -7120.86 371.642 -2932.07
v -7121.03 372.051 -2931.71
v -7121.45 371.872 -2933.04
v -7122.78 371.876 -2932.43
v -7122.65 371.484 -2932.41
v -7122.2 371.875 -2933.01
v -7122.15 372.414 -2932.98
v -7122.48 372.406 -2932.69
v -7122.69 372.072 -2932.38
v -7121.84 372.422 -2931.3
v -7121.84 372.203 -2931.34
v -7122.7 372.191 -2931.73
v -7122.38 372.405 -2931.54
v -7121.57 372.419 -2931.38
v -7121.19 372.364 -2931.75
v -7121.41 372.544 -2931.6
v -7122.67 372.28 -2932.37
v -7122.79 372.296 -2932.06
v -7122.72 372.5 -2932.07
v -7122.05 372.559 -2931.44
v -7121.83 372.601 -2931.37
v -7121.84 372.711 -2931.5
v -7121.61 372.584 -2931.42
v -7121.36 372.679 -2932.05
v -7122.4 372.715 -2932.62
v -7122.61 372.691 -2932.08
v -7122.44 372.842 -2932.31
v -7122.13 372.885 -2932.34
v -7122.28 372.858 -2932.07
v -7122.09 372.808 -2932.66
v -7122.15 372.712 -2932.8
v -7122.43 372.506 -2932.66
v -7122.37 372.743 -2931.9
v -7122.08 372.961 -2931.98
v -7121.95 372.694 -2931.76
v -7121.77 372.861 -2931.9
v -7121.62 372.883 -2932.06
v -7121.73 372.772 -2932.43
v -7121.62 372.595 -2932.73
v -7122.1 373.006 -2932.15
v -7121.85 370.745 -2932.28
v -7122.01 370.746 -2932.24
v -7122.22 370.832 -2932.23
v -7121.84 372.975 -2932.06
v -7121.85 372.932 -2932.24
v -7122.46 371.234 -2931.44
v -7120.99 371.308 -2932.07
v -7121.07 372.236 -2932.42
v -7121.3 372.403 -2932.64
v -7121.49 372.304 -2932.96
v -7121.85 372.522 -2932.98
v -7121.32 372.483 -2932.28
v -7121.82 369.416 -2931.55
v -7121.95 369.331 -2931.4
v -7122.14 369.5 -2931.51
v -7122.06 369.329 -2931.39
v -7121.87 369.332 -2931.46
v -7122.07 369.703 -2931.58
v -7122.22 369.688 -2931.56
v -7122.07 369.809 -2931.75
v -7121.66 369.461 -2931.77
v -7121.95 369.653 -2931.61
v -7121.97 369.084 -2931.68
v -7121.77 369.235 -2931.64
v -7121.9 368.894 -2931.77
v -7121.75 369.018 -2931.77
v -7121.98 369.121 -2931.5
v -7122.17 369.111 -2931.55
v -7122.07 369.063 -2931.67
v -7122.29 369.121 -2931.62
v -7122.3 369.1 -2931.72
v -7122.06 368.919 -2931.7
v -7122.15 369.148 -2931.44
v -7122.33 369.224 -2931.51
v -7122.44 369.342 -2931.57
v -7122.5 369.347 -2931.65
v -7122.35 369.458 -2931.51
v -7122.42 369.486 -2931.55
v -7122.5 369.505 -2931.75
v -7122.23 369.771 -2931.74
v -7122.23 369.776 -2931.85
v -7122.07 369.838 -2931.95
v -7121.7 368.968 -2931.97
v -7121.61 369.167 -2931.85
v -7121.62 369.171 -2931.76
v -7122.05 368.859 -2931.77
v -7122.21 368.905 -2931.79
v -7121.77 369.634 -2932.14
v -7121.71 369.686 -2931.96
v -7122.38 369.708 -2931.95
v -7122.39 369.663 -2931.85
v -7121.94 369.732 -2931.77
v -7122.54 369.53 -2931.96
v -7122.39 369.652 -2932.06
v -7122.38 369.632 -2932.15
v -7121.64 369.48 -2931.86
v -7121.55 369.334 -2931.96
v -7121.57 369.33 -2931.85
v -7121.66 369.514 -2932.05
v -7121.87 368.849 -2931.97
v -7122.53 369.155 -2931.97
v -7122.47 369.159 -2931.77
v -7122.25 368.863 -2931.97
v -7122.22 368.88 -2932.24
v -7122.39 369.024 -2932.23
v -7122.49 369.18 -2932.06
v -7122.06 369.718 -2932.23
v -7122.06 369.698 -2932.12
v -7122.49 369.503 -2932.12
v -7122.33 369.6 -2932.23
v -7121.93 369.68 -2932.23
v -7121.74 369.493 -2932.21
v -7121.85 369.571 -2932.3
v -7122.48 369.184 -2932.17
v -7122.54 369.342 -2932.17
v -7122.51 369.335 -2932.28
v -7122.17 369.65 -2932.3
v -7122.06 369.688 -2932.32
v -7122.06 369.621 -2932.38
v -7121.95 369.659 -2932.31
v -7121.82 369.346 -2932.37
v -7122.34 369.061 -2932.39
v -7122.45 369.331 -2932.37
v -7122.36 369.218 -2932.45
v -7122.21 369.204 -2932.47
v -7122.28 369.338 -2932.46
v -7122.19 369.044 -2932.43
v -7122.22 368.97 -2932.39
v -7122.36 369.041 -2932.28
v -7122.33 369.421 -2932.4
v -7122.18 369.383 -2932.51
v -7122.12 369.492 -2932.37
v -7122.03 369.421 -2932.46
v -7121.95 369.344 -2932.47
v -7122.01 369.157 -2932.41
v -7121.95 369.005 -2932.33
v -7122.19 369.297 -2932.53
v -7122.07 369.22 -2931.4
v -7122.15 369.243 -2931.4
v -7122.25 369.248 -2931.44
v -7122.07 369.342 -2932.51
v -7122.07 369.252 -2932.49
v -7122.37 369.643 -2931.64
v -7121.64 369.329 -2931.68
v -7121.68 369.158 -2932.15
v -7121.8 369.05 -2932.23
v -7121.89 368.889 -2932.18
v -7122.07 368.88 -2932.29
v -7121.8 369.229 -2932.27
v -7121.71 373.779 -2931.88
v -7121.83 373.627 -2931.97
v -7122.02 373.738 -2931.8
v -7121.95 373.615 -2931.97
v -7121.75 373.681 -2931.97
v -7121.96 373.806 -2931.6
v -7122.1 373.788 -2931.61
v -7121.96 373.977 -2931.49
v -7121.54 374 -2931.84
v -7121.84 373.837 -2931.65
v -7121.85 373.906 -2932.22
v -7121.66 373.865 -2932.07
v -7121.78 373.987 -2932.41
v -7121.63 373.992 -2932.28
v -7121.86 373.728 -2932.18
v -7122.05 373.774 -2932.19
v -7121.95 373.897 -2932.24
v -7122.17 373.842 -2932.18
v -7122.18 373.939 -2932.2
v -7121.95 373.921 -2932.38
v -7122.03 373.667 -2932.15
v -7122.21 373.74 -2932.07
v -7122.32 373.793 -2931.96
v -7122.38 373.88 -2931.95
v -7122.23 373.741 -2931.84
v -7122.3 373.782 -2931.81
v -7122.38 373.976 -2931.8
v -7122.12 373.975 -2931.53
v -7122.12 374.079 -2931.53
v -7121.95 374.179 -2931.47
v -7121.58 374.187 -2932.34
v -7121.49 374.072 -2932.14
v -7121.5 373.981 -2932.13
v -7121.94 373.986 -2932.44
v -7122.09 374.009 -2932.4
v -7121.65 374.372 -2931.67
v -7121.6 374.19 -2931.62
v -7122.26 374.183 -2931.6
v -7122.27 374.083 -2931.64
v -7121.82 374.002 -2931.57
v -7122.43 374.188 -2931.77
v -7122.27 374.285 -2931.65
v -7122.26 374.377 -2931.67
v -7121.52 374.086 -2931.82
v -7121.44 374.181 -2931.97
v -7121.46 374.073 -2931.97
v -7121.54 374.278 -2931.79
v -7121.75 374.188 -2932.45
v -7122.42 374.19 -2932.15
v -7122.35 373.994 -2932.14
v -7122.13 374.189 -2932.44
v -7122.1 374.459 -2932.43
v -7122.27 374.455 -2932.28
v -7122.37 374.288 -2932.12
v -7121.95 374.463 -2931.59
v -7121.95 374.353 -2931.61
v -7122.37 374.348 -2931.8
v -7122.22 374.454 -2931.71
v -7121.81 374.461 -2931.63
v -7121.62 374.434 -2931.81
v -7121.73 374.524 -2931.74
v -7122.36 374.392 -2932.12
v -7122.42 374.4 -2931.96
v -7122.39 374.502 -2931.97
v -7122.05 374.532 -2931.66
v -7121.94 374.552 -2931.62
v -7121.94 374.608 -2931.69
v -7121.83 374.544 -2931.65
v -7121.71 374.592 -2931.96
v -7122.23 374.61 -2932.25
v -7122.33 374.598 -2931.98
v -7122.25 374.673 -2932.09
v -7122.09 374.695 -2932.11
v -7122.17 374.681 -2931.97
v -7122.07 374.656 -2932.26
v -7122.1 374.608 -2932.34
v -7122.24 374.505 -2932.27
v -7122.21 374.624 -2931.89
v -7122.07 374.733 -2931.93
v -7122 374.599 -2931.82
v -7121.91 374.682 -2931.89
v -7121.83 374.694 -2931.97
v -7121.89 374.638 -2932.15
v -7121.84 374.549 -2932.3
v -7122.08 374.755 -2932.01
v -7121.95 373.624 -2932.08
v -7122.03 373.625 -2932.05
v -7122.14 373.668 -2932.05
v -7121.95 374.74 -2931.97
v -7121.95 374.718 -2932.06
v -7122.26 373.869 -2931.66
v -7121.52 373.906 -2931.97
v -7121.56 374.37 -2932.15
v -7121.68 374.454 -2932.26
v -7121.77 374.404 -2932.42
v -7121.95 374.513 -2932.43
v -7121.68 374.493 -2932.08
v -7152 370.465 -2899
v -7152 371.169 -2901
v -7152 372.088 -2903
v -7152 373.207 -2905
v -7152 374.499 -2907
v -7152 375.931 -2909
v -7152 377.462 -2911
v -7152 379.044 -2913
v -7152 380.621 -2915
v -7152 381.583 -2917
v -7152 380.974 -2919
v -7152 380.479 -2921
v -7152 380.133 -2923
v -7152 379.968 -2925
v -7152 380.005 -2927
v -7152 380.261 -2929
v -7152 380.744 -2931
v -7152 381.456 -2933
v -7152 382.392 -2935
v -7152 383.539 -2937
v -7152 384.878 -2939
v -7152 386.382 -2941
v -7152 386.416 -2943
v -7152 385.459 -2945
v -7152 384.442 -2947
v -7152 383.416 -2949
v -7152 382.443 -2951
v -7152 381.589 -2953
v -7152 380.928 -2955
v -7152 380.542 -2957
v -7152 380.509 -2959
v -7152 380.755 -2961
v -7150 368.465 -2899
v -7150 369.211 -2901
v -7150 370.2 -2903
v -7150 371.411 -2905
v -7150 372.81 -2907
v -7150 374.356 -2909
v -7150 375.998 -2911
v -7150 377.678 -2913
v -7150 379.327 -2915
v -7150 380.87 -2917
v -7150 380.815 -2919
v -7150 380.213 -2921
v -7150 379.721 -2923
v -7150 379.381 -2925
v -7150 379.227 -2927
v -7150 379.286 -2929
v -7150 379.574 -2931
v -7150 380.101 -2933
v -7150 380.87 -2935
v -7150 381.874 -2937
v -7150 383.097 -2939
v -7150 384.519 -2941
v -7150 386.107 -2943
v -7150 386.37 -2945
v -7150 385.368 -2947
v -7150 384.323 -2949
v -7150 383.296 -2951
v -7150 382.356 -2953
v -7150 381.581 -2955
v -7150 381.057 -2957
v -7150 380.871 -2959
v -7150 380.993 -2961
v -7148 366.667 -2899
v -7148 367.452 -2901
v -7148 368.508 -2903
v -7148 369.804 -2905
v -7148 371.304 -2907
v -7148 372.956 -2909
v -7148 374.703 -2911
v -7148 376.475 -2913
v -7148 378.191 -2915
v -7148 379.768 -2917
v -7148 380.637 -2919
v -7148 379.93 -2921
v -7148 379.292 -2923
v -7148 378.776 -2925
v -7148 378.428 -2927
v -7148 378.283 -2929
v -7148 378.369 -2931
v -7148 378.703 -2933
v -7148 379.293 -2935
v -7148 380.138 -2937
v -7148 381.231 -2939
v -7148 382.551 -2941
v -7148 384.071 -2943
v -7148 385.755 -2945
v -7148 386.625 -2947
v -7148 385.583 -2949
v -7148 384.525 -2951
v -7148 383.522 -2953
v -7148 382.653 -2955
v -7148 382.008 -2957
v -7148 381.683 -2959
v -7148 381.689 -2961
v -7146 365.125 -2899
v -7146 365.951 -2901
v -7146 367.07 -2903
v -7146 368.448 -2905
v -7146 370.041 -2907
v -7146 371.794 -2909
v -7146 373.637 -2911
v -7146 375.494 -2913
v -7146 377.273 -2915
v -7146 378.881 -2917
v -7146 380.382 -2919
v -7146 379.576 -2921
v -7146 378.799 -2923
v -7146 378.116 -2925
v -7146 377.581 -2927
v -7146 377.241 -2929
v -7146 377.128 -2931
v -7146 377.27 -2933
v -7146 377.681 -2935
v -7146 378.367 -2937
v -7146 379.322 -2939
v -7146 380.532 -2941
v -7146 381.973 -2943
v -7146 383.611 -2945
v -7146 385.399 -2947
v -7146 387.116 -2949
v -7146 386.048 -2951
v -7146 385.003 -2953
v -7146 384.063 -2955
v -7146 383.319 -2957
v -7146 382.873 -2959
v -7146 382.777 -2961
v -7144 363.893 -2899
v -7144 364.764 -2901
v -7144 365.947 -2903
v -7144 367.404 -2905
v -7144 369.086 -2907
v -7144 370.93 -2909
v -7144 372.862 -2911
v -7144 374.796 -2913
v -7144 376.633 -2915
v -7144 378.27 -2917
v -7144 379.934 -2919
v -7144 379.096 -2921
v -7144 378.197 -2923
v -7144 377.365 -2925
v -7144 376.664 -2927
v -7144 376.147 -2929
v -7144 375.856 -2931
v -7144 375.822 -2933
v -7144 376.068 -2935
v -7144 376.604 -2937
v -7144 377.429 -2939
v -7144 378.533 -2941
v -7144 379.893 -2943
v -7144 381.478 -2945
v -7144 383.245 -2947
v -7144 385.14 -2949
v -7144 387.099 -2951
v -7144 386.692 -2953
v -7144 385.703 -2955
v -7144 384.884 -2957
v -7144 384.343 -2959
v -7144 384.161 -2961
v -7142 363.023 -2899
v -7142 363.949 -2901
v -7142 365.2 -2903
v -7142 366.736 -2905
v -7142 368.502 -2907
v -7142 370.431 -2909
v -7142 372.443 -2911
v -7142 374.446 -2913
v -7142 376.334 -2915
v -7142 377.997 -2917
v -7142 379.391 -2919
v -7142 378.433 -2921
v -7142 377.439 -2923
v -7142 376.489 -2925
v -7142 375.654 -2927
v -7142 374.995 -2929
v -7142 374.559 -2931
v -7142 374.384 -2933
v -7142 374.495 -2935
v -7142 374.907 -2937
v -7142 375.624 -2939
v -7142 376.637 -2941
v -7142 377.927 -2943
v -7142 379.465 -2945
v -7142 381.208 -2947
v -7142 383.105 -2949
v -7142 385.091 -2951
v -7142 387.091 -2953
v -7142 387.44 -2955
v -7142 386.574 -2957
v -7142 385.967 -2959
v -7142 385.722 -2961
v -7140 362.569 -2899
v -7140 363.562 -2901
v -7140 364.889 -2903
v -7140 366.506 -2905
v -7140 368.353 -2907
v -7140 370.361 -2909
v -7140 372.445 -2911
v -7140 374.509 -2913
v -7140 376.441 -2915
v -7140 378.127 -2917
v -7140 378.526 -2919
v -7140 377.529 -2921
v -7140 376.475 -2923
v -7140 375.45 -2925
v -7140 374.531 -2927
v -7140 373.782 -2929
v -7140 373.253 -2931
v -7140 372.986 -2933
v -7140 373.01 -2935
v -7140 373.342 -2937
v -7140 373.988 -2939
v -7140 374.943 -2941
v -7140 376.188 -2943
v -7140 377.696 -2945
v -7140 379.426 -2947
v -7140 381.325 -2949
v -7140 383.331 -2951
v -7140 385.367 -2953
v -7140 387.348 -2955
v -7140 388.234 -2957
v -7140 387.594 -2959
v -7140 387.314 -2961
v -7138 362.579 -2899
v -7138 363.66 -2901
v -7138 365.075 -2903
v -7138 366.776 -2905
v -7138 368.705 -2907
v -7138 370.787 -2909
v -7138 372.935 -2911
v -7138 375.051 -2913
v -7138 377.019 -2915
v -7138 378.166 -2917
v -7138 377.326 -2919
v -7138 376.323 -2921
v -7138 375.257 -2923
v -7138 374.216 -2925
v -7138 373.277 -2927
v -7138 372.506 -2929
v -7138 371.955 -2931
v -7138 371.666 -2933
v -7138 371.671 -2935
v -7138 371.986 -2937
v -7138 372.618 -2939
v -7138 373.564 -2941
v -7138 374.805 -2943
v -7138 376.314 -2945
v -7138 378.051 -2947
v -7138 379.964 -2949
v -7138 381.989 -2951
v -7138 384.052 -2953
v -7138 386.065 -2955
v -7138 387.931 -2957
v -7138 389.05 -2959
v -7138 388.765 -2961
v -7136 362.907 -2899
v -7136 364.107 -2901
v -7136 365.634 -2903
v -7136 367.439 -2905
v -7136 369.46 -2907
v -7136 371.622 -2909
v -7136 373.838 -2911
v -7136 376.005 -2913
v -7136 377.466 -2915
v -7136 376.66 -2917
v -7136 375.831 -2919
v -7136 374.839 -2921
v -7136 373.785 -2923
v -7136 372.756 -2925
v -7136 371.83 -2927
v -7136 371.073 -2929
v -7136 370.538 -2931
v -7136 370.266 -2933
v -7136 370.288 -2935
v -7136 370.622 -2937
v -7136 371.275 -2939
v -7136 372.242 -2941
v -7136 373.507 -2943
v -7136 375.04 -2945
v -7136 376.802 -2947
v -7136 378.742 -2949
v -7136 380.794 -2951
v -7136 382.886 -2953
v -7136 384.928 -2955
v -7136 386.823 -2957
v -7136 388.459 -2959
v -7136 389.743 -2961
v -7134 363.384 -2899
v -7134 364.726 -2901
v -7134 366.383 -2903
v -7134 368.303 -2905
v -7134 370.425 -2907
v -7134 372.674 -2909
v -7134 374.958 -2911
v -7134 376.972 -2913
v -7134 375.836 -2915
v -7134 375.034 -2917
v -7134 374.216 -2919
v -7134 373.235 -2921
v -7134 372.193 -2923
v -7134 371.177 -2925
v -7134 370.266 -2927
v -7134 369.525 -2929
v -7134 369.007 -2931
v -7134 368.755 -2933
v -7134 368.799 -2935
v -7134 369.158 -2937
v -7134 369.838 -2939
v -7134 370.834 -2941
v -7134 372.13 -2943
v -7134 373.696 -2945
v -7134 375.492 -2947
v -7134 377.467 -2949
v -7134 379.556 -2951
v -7134 381.684 -2953
v -7134 383.763 -2955
v -7134 385.694 -2957
v -7134 387.367 -2959
v -7134 388.718 -2961
v -7132 363.962 -2899
v -7132 365.449 -2901
v -7132 367.235 -2903
v -7132 369.269 -2905
v -7132 371.487 -2907
v -7132 373.814 -2909
v -7132 376.161 -2911
v -7132 375.37 -2913
v -7132 374.226 -2915
v -7132 373.43 -2917
v -7132 372.623 -2919
v -7132 371.653 -2921
v -7132 370.621 -2923
v -7132 369.619 -2925
v -7132 368.722 -2927
v -7132 367.998 -2929
v -7132 367.5 -2931
v -7132 367.271 -2933
v -7132 367.34 -2935
v -7132 367.727 -2937
v -7132 368.439 -2939
v -7132 369.469 -2941
v -7132 370.801 -2943
v -7132 372.406 -2945
v -7132 374.243 -2947
v -7132 376.26 -2949
v -7132 378.392 -2951
v -7132 380.563 -2953
v -7132 382.685 -2955
v -7132 384.658 -2957
v -7132 386.373 -2959
v -7132 387.803 -2961
v -7130 364.598 -2899
v -7130 366.218 -2901
v -7130 368.118 -2903
v -7130 370.249 -2905
v -7130 372.546 -2907
v -7130 374.935 -2909
v -7130 375.283 -2911
v -7130 373.893 -2913
v -7130 372.751 -2915
v -7130 371.965 -2917
v -7130 371.168 -2919
v -7130 370.208 -2921
v -7130 369.188 -2923
v -7130 368.198 -2925
v -7130 367.316 -2927
v -7130 366.609 -2929
v -7130 366.132 -2931
v -7130 365.926 -2933
v -7130 366.022 -2935
v -7130 366.44 -2937
v -7130 367.185 -2939
v -7130 368.253 -2941
v -7130 369.626 -2943
v -7130 371.274 -2945
v -7130 373.157 -2947
v -7130 375.221 -2949
v -7130 377.402 -2951
v -7130 379.621 -2953
v -7130 381.791 -2955
v -7130 383.81 -2957
v -7130 385.572 -2959
v -7130 387.089 -2961
v -7128 365.255 -2899
v -7128 366.981 -2901
v -7128 368.969 -2903
v -7128 371.169 -2905
v -7128 373.519 -2907
v -7128 375.546 -2909
v -7128 374.017 -2911
v -7128 372.637 -2913
v -7128 371.508 -2915
v -7128 370.734 -2917
v -7128 369.948 -2919
v -7128 368.998 -2921
v -7128 367.989 -2923
v -7128 367.011 -2925
v -7128 366.143 -2927
v -7128 365.453 -2929
v -7128 364.995 -2931
v -7128 364.813 -2933
v -7128 364.937 -2935
v -7128 365.386 -2937
v -7128 366.167 -2939
v -7128 367.274 -2941
v -7128 368.69 -2943
v -7128 370.384 -2945
v -7128 372.316 -2947
v -7128 374.431 -2949
v -7128 376.664 -2951
v -7128 378.936 -2953
v -7128 381.156 -2955
v -7128 383.225 -2957
v -7128 385.036 -2959
v -7128 386.648 -2961
v -7126 365.899 -2899
v -7126 367.697 -2901
v -7126 369.736 -2903
v -7126 371.97 -2905
v -7126 374.341 -2907
v -7126 374.522 -2909
v -7126 373.02 -2911
v -7126 371.669 -2913
v -7126 370.568 -2915
v -7126 369.811 -2917
v -7126 369.036 -2919
v -7126 368.096 -2921
v -7126 367.097 -2923
v -7126 366.13 -2925
v -7126 365.275 -2927
v -7126 364.601 -2929
v -7126 364.162 -2931
v -7126 364.003 -2933
v -7126 364.155 -2935
v -7126 364.635 -2937
v -7126 365.452 -2939
v -7126 366.599 -2941
v -7126 368.059 -2943
v -7126 369.8 -2945
v -7126 371.782 -2947
v -7126 373.95 -2949
v -7126 376.236 -2951
v -7126 378.563 -2953
v -7126 380.837 -2955
v -7126 382.957 -2957
v -7126 384.821 -2959
v -7126 386.531 -2961
v -7124 366.505 -2899
v -7124 368.329 -2901
v -7124 370.377 -2903
v -7124 372.606 -2905
v -7124 374.96 -2907
v -7124 373.784 -2909
v -7124 372.339 -2911
v -7124 371.042 -2913
v -7124 369.982 -2915
v -7124 369.248 -2917
v -7124 368.484 -2919
v -7124 367.554 -2921
v -7124 366.564 -2923
v -7124 365.607 -2925
v -7124 364.764 -2927
v -7124 364.104 -2929
v -7124 363.684 -2931
v -7124 363.547 -2933
v -7124 363.724 -2935
v -7124 364.235 -2937
v -7124 365.087 -2939
v -7124 366.273 -2941
v -7124 367.776 -2943
v -7124 369.565 -2945
v -7124 371.597 -2947
v -7124 373.818 -2949
v -7124 376.159 -2951
v -7124 378.541 -2953
v -7124 380.87 -2955
v -7124 383.043 -2957
v -7124 384.96 -2959
v -7124 386.77 -2961
v -7122 367.048 -2899
v -7122 368.851 -2901
v -7122 370.863 -2903
v -7122 373.043 -2905
v -7122 374.78 -2907
v -7122 373.36 -2909
v -7122 372.004 -2911
v -7122 370.783 -2913
v -7122 369.779 -2915
v -7122 369.071 -2917
v -7122 368.32 -2919
v -7122 367.399 -2921
v -7122 366.418 -2923
v -7122 365.471 -2925
v -7122 364.639 -2927
v -7122 363.992 -2929
v -7122 363.588 -2931
v -7122 363.471 -2933
v -7122 363.672 -2935
v -7122 364.212 -2937
v -7122 365.097 -2939
v -7122 366.32 -2941
v -7122 367.865 -2943
v -7122 369.7 -2945
v -7122 371.782 -2947
v -7122 374.055 -2949
v -7122 376.45 -2951
v -7122 378.887 -2953
v -7122 381.271 -2955
v -7122 383.497 -2957
v -7122 385.469 -2959
v -7122 387.378 -2961
v -7120 367.511 -2899
v -7120 369.245 -2901
v -7120 371.174 -2903
v -7120 373.263 -2905
v -7120 374.549 -2907
v -7120 373.258 -2909
v -7120 372.02 -2911
v -7120 370.898 -2913
v -7120 369.965 -2915
v -7120 369.289 -2917
v -7120 368.55 -2919
v -7120 367.64 -2921
v -7120 366.668 -2923
v -7120 365.729 -2925
v -7120 364.907 -2927
v -7120 364.272 -2929
v -7120 363.882 -2931
v -7120 363.783 -2933
v -7120 364.006 -2935
v -7120 364.572 -2937
v -7120 365.487 -2939
v -7120 366.746 -2941
v -7120 368.331 -2943
v -7120 370.209 -2945
v -7120 372.338 -2947
v -7120 374.661 -2949
v -7120 377.109 -2951
v -7120 379.599 -2953
v -7120 382.037 -2955
v -7120 384.316 -2957
v -7120 386.341 -2959
v -7120 388.347 -2961
v -7118 367.881 -2899
v -7118 369.5 -2901
v -7118 371.302 -2903
v -7118 373.259 -2905
v -7118 374.595 -2907
v -7118 373.467 -2909
v -7118 372.376 -2911
v -7118 371.374 -2913
v -7118 370.524 -2915
v -7118 369.884 -2917
v -7118 369.16 -2919
v -7118 368.261 -2921
v -7118 367.297 -2923
v -7118 366.367 -2925
v -7118 365.553 -2927
v -7118 364.928 -2929
v -7118 364.551 -2931
v -7118 364.467 -2933
v -7118 364.71 -2935
v -7118 365.299 -2937
v -7118 366.242 -2939
v -7118 367.533 -2941
v -7118 369.154 -2943
v -7118 371.073 -2945
v -7118 373.246 -2947
v -7118 375.616 -2949
v -7118 378.113 -2951
v -7118 380.655 -2953
v -7118 383.145 -2955
v -7118 385.475 -2957
v -7118 387.553 -2959
v -7118 389.651 -2961
v -7116 368.152 -2899
v -7116 369.613 -2901
v -7116 371.249 -2903
v -7116 373.039 -2905
v -7116 374.897 -2907
v -7116 373.961 -2909
v -7116 373.039 -2911
v -7116 372.174 -2913
v -7116 371.419 -2915
v -7116 370.819 -2917
v -7116 370.111 -2919
v -7116 369.224 -2921
v -7116 368.269 -2923
v -7116 367.347 -2925
v -7116 366.541 -2927
v -7116 365.925 -2929
v -7116 365.559 -2931
v -7116 365.489 -2933
v -7116 365.748 -2935
v -7116 366.358 -2937
v -7116 367.325 -2939
v -7116 368.644 -2941
v -7116 370.298 -2943
v -7116 372.253 -2945
v -7116 374.467 -2947
v -7116 376.88 -2949
v -7116 379.423 -2951
v -7116 382.013 -2953
v -7116 384.552 -2955
v -7116 386.931 -2957
v -7116 389.059 -2959
v -7116 391.243 -2961
v -7114 368.32 -2899
v -7114 369.589 -2901
v -7114 371.029 -2903
v -7114 372.625 -2905
v -7114 374.355 -2907
v -7114 374.69 -2909
v -7114 373.956 -2911
v -7114 373.242 -2913
v -7114 372.589 -2915
v -7114 372.033 -2917
v -7114 371.343 -2919
v -7114 370.468 -2921
v -7114 369.524 -2923
v -7114 368.61 -2925
v -7114 367.812 -2927
v -7114 367.204 -2929
v -7114 366.848 -2931
v -7114 366.789 -2933
v -7114 367.062 -2935
v -7114 367.689 -2937
v -7114 368.678 -2939
v -7114 370.022 -2941
v -7114 371.703 -2943
v -7114 373.691 -2945
v -7114 375.94 -2947
v -7114 378.392 -2949
v -7114 380.977 -2951
v -7114 383.61 -2953
v -7114 386.194 -2955
v -7114 388.577 -2957
v -7114 390.346 -2959
v -7114 392.263 -2961
v -7112 368.388 -2899
v -7112 369.442 -2901
v -7112 370.666 -2903
v -7112 372.051 -2905
v -7112 373.584 -2907
v -7112 375.248 -2909
v -7112 375.055 -2911
v -7112 374.499 -2913
v -7112 373.953 -2915
v -7112 373.444 -2917
v -7112 372.773 -2919
v -7112 371.914 -2921
v -7112 370.981 -2923
v -7112 370.076 -2925
v -7112 369.286 -2927
v -7112 368.686 -2929
v -7112 368.338 -2931
v -7112 368.289 -2933
v -7112 368.575 -2935
v -7112 369.216 -2937
v -7112 370.222 -2939
v -7112 371.587 -2941
v -7112 373.292 -2943
v -7112 375.307 -2945
v -7112 377.586 -2947
v -7112 380.073 -2949
v -7112 382.365 -2951
v -7112 384.403 -2953
v -7112 386.444 -2955
v -7112 388.384 -2957
v -7112 390.139 -2959
v -7112 392.069 -2961
v -7110 368.364 -2899
v -7110 369.193 -2901
v -7110 370.194 -2903
v -7110 371.365 -2905
v -7110 372.701 -2907
v -7110 374.192 -2909
v -7110 375.822 -2911
v -7110 375.845 -2913
v -7110 375.406 -2915
v -7110 374.946 -2917
v -7110 374.297 -2919
v -7110 373.455 -2921
v -7110 372.535 -2923
v -7110 371.641 -2925
v -7110 370.86 -2927
v -7110 370.269 -2929
v -7110 369.929 -2931
v -7110 369.889 -2933
v -7110 370.185 -2935
v -7110 370.838 -2937
v -7110 371.858 -2939
v -7110 373.239 -2941
v -7110 374.965 -2943
v -7110 377.002 -2945
v -7110 378.676 -2947
v -7110 380.402 -2949
v -7110 382.31 -2951
v -7110 384.319 -2953
v -7110 386.337 -2955
v -7110 388.255 -2957
v -7110 389.992 -2959
v -7110 391.925 -2961
v -7108 368.261 -2899
v -7108 368.872 -2901
v -7108 369.66 -2903
v -7108 370.631 -2905
v -7108 371.783 -2907
v -7108 373.114 -2909
v -7108 374.617 -2911
v -7108 376.28 -2913
v -7108 376.823 -2915
v -7108 376.412 -2917
v -7108 375.787 -2919
v -7108 374.964 -2921
v -7108 374.061 -2923
v -7108 373.18 -2925
v -7108 372.41 -2927
v -7108 371.828 -2929
v -7108 371.497 -2931
v -7108 371.466 -2933
v -7108 371.771 -2935
v -7108 372.434 -2937
v -7108 373.465 -2939
v -7108 374.86 -2941
v -7108 376.112 -2943
v -7108 377.239 -2945
v -7108 378.671 -2947
v -7108 380.356 -2949
v -7108 382.226 -2951
v -7108 384.202 -2953
v -7108 386.189 -2955
v -7108 388.08 -2957
v -7108 389.795 -2959
v -7108 390.043 -2961
v -7106 368.095 -2899
v -7106 368.516 -2901
v -7106 369.121 -2903
v -7106 369.921 -2905
v -7106 370.921 -2907
v -7106 372.122 -2909
v -7106 373.524 -2911
v -7106 375.119 -2913
v -7106 376.9 -2915
v -7106 377.691 -2917
v -7106 377.094 -2919
v -7106 376.295 -2921
v -7106 375.411 -2923
v -7106 374.546 -2925
v -7106 373.79 -2927
v -7106 373.22 -2929
v -7106 372.899 -2931
v -7106 372.877 -2933
v -7106 373.19 -2935
v -7106 373.863 -2937
v -7106 374.903 -2939
v -7106 375.344 -2941
v -7106 376.068 -2943
v -7106 377.142 -2945
v -7106 378.524 -2947
v -7106 380.161 -2949
v -7106 381.988 -2951
v -7106 383.923 -2953
v -7106 385.874 -2955
v -7106 387.733 -2957
v -7106 389.017 -2959
v -7106 387.751 -2961
v -7104 367.834 -2899
v -7104 368.1 -2901
v -7104 368.561 -2903
v -7104 369.23 -2905
v -7104 370.116 -2907
v -7104 371.224 -2909
v -7104 372.556 -2911
v -7104 374.109 -2913
v -7104 375.878 -2915
v -7104 377.856 -2917
v -7104 378.155 -2919
v -7104 377.387 -2921
v -7104 376.532 -2923
v -7104 375.694 -2925
v -7104 374.963 -2927
v -7104 374.417 -2929
v -7104 374.117 -2931
v -7104 374.115 -2933
v -7104 374.446 -2935
v -7104 375.1 -2937
v -7104 375.007 -2939
v -7104 375.301 -2941
v -7104 375.97 -2943
v -7104 376.988 -2945
v -7104 378.315 -2947
v -7104 379.898 -2949
v -7104 381.672 -2951
v -7104 383.556 -2953
v -7104 385.458 -2955
v -7104 387.273 -2957
v -7104 387.023 -2959
v -7104 385.736 -2961
v -7102 367.302 -2899
v -7102 367.416 -2901
v -7102 367.74 -2903
v -7102 368.289 -2905
v -7102 369.074 -2907
v -7102 370.105 -2909
v -7102 371.382 -2911
v -7102 372.907 -2913
v -7102 374.675 -2915
v -7102 376.679 -2917
v -7102 378.984 -2919
v -7102 378.501 -2921
v -7102 377.703 -2923
v -7102 376.927 -2925
v -7102 376.26 -2927
v -7102 375.777 -2929
v -7102 375.54 -2931
v -7102 375.595 -2933
v -7102 375.979 -2935
v -7102 375.698 -2937
v -7102 375.577 -2939
v -7102 375.835 -2941
v -7102 376.462 -2943
v -7102 377.429 -2945
v -7102 378.698 -2947
v -7102 380.217 -2949
v -7102 381.92 -2951
v -7102 383.728 -2953
v -7102 385.55 -2955
v -7102 386.014 -2957
v -7102 384.867 -2959
v -7102 383.609 -2961
v -7100 366.514 -2899
v -7100 366.491 -2901
v -7100 366.695 -2903
v -7100 367.145 -2905
v -7100 367.852 -2907
v -7100 368.825 -2909
v -7100 370.069 -2911
v -7100 371.582 -2913
v -7100 373.36 -2915
v -7100 375.396 -2917
v -7100 377.721 -2919
v -7100 379.572 -2921
v -7100 378.855 -2923
v -7100 378.172 -2925
v -7100 377.603 -2927
v -7100 377.22 -2929
v -7100 377.08 -2931
v -7100 377.228 -2933
v -7100 377.219 -2935
v -7100 376.725 -2937
v -7100 376.598 -2939
v -7100 376.84 -2941
v -7100 377.434 -2943
v -7100 378.355 -2945
v -7100 379.563 -2947
v -7100 381.007 -2949
v -7100 382.621 -2951
v -7100 384.329 -2953
v -7100 385.095 -2955
v -7100 383.736 -2957
v -7100 382.652 -2959
v -7100 381.469 -2961
v -7098 365.506 -2899
v -7098 365.373 -2901
v -7098 365.488 -2903
v -7098 365.869 -2905
v -7098 366.528 -2907
v -7098 367.474 -2909
v -7098 368.709 -2911
v -7098 370.231 -2913
v -7098 372.033 -2915
v -7098 374.104 -2917
v -7098 376.444 -2919
v -7098 378.972 -2921
v -7098 379.899 -2923
v -7098 379.332 -2925
v -7098 378.889 -2927
v -7098 378.635 -2929
v -7098 378.621 -2931
v -7098 378.888 -2933
v -7098 378.492 -2935
v -7098 378.027 -2937
v -7098 377.914 -2939
v -7098 378.151 -2941
v -7098 378.721 -2943
v -7098 379.597 -2945
v -7098 380.74 -2947
v -7098 382.098 -2949
v -7098 383.609 -2951
v -7098 384.25 -2953
v -7098 382.771 -2955
v -7098 381.5 -2957
v -7098 380.515 -2959
v -7098 379.444 -2961
v -7096 364.311 -2899
v -7096 364.108 -2901
v -7096 364.173 -2903
v -7096 364.524 -2905
v -7096 365.173 -2907
v -7096 366.125 -2909
v -7096 367.381 -2911
v -7096 368.935 -2913
v -7096 370.776 -2915
v -7096 372.888 -2917
v -7096 375.238 -2919
v -7096 377.738 -2921
v -7096 380.291 -2923
v -7096 380.327 -2925
v -7096 380.031 -2927
v -7096 379.927 -2929
v -7096 380.062 -2931
v -7096 380.469 -2933
v -7096 379.889 -2935
v -7096 379.471 -2937
v -7096 379.385 -2939
v -7096 379.626 -2941
v -7096 380.177 -2943
v -7096 381.008 -2945
v -7096 382.081 -2947
v -7096 383.345 -2949
v -7096 383.467 -2951
v -7096 381.964 -2953
v -7096 380.584 -2955
v -7096 379.428 -2957
v -7096 378.57 -2959
v -7096 377.641 -2961
v -7094 362.965 -2899
v -7094 362.737 -2901
v -7094 362.798 -2903
v -7094 363.164 -2905
v -7094 363.844 -2907
v -7094 364.841 -2909
v -7094 366.149 -2911
v -7094 367.76 -2913
v -7094 369.655 -2915
v -7094 371.812 -2917
v -7094 374.169 -2919
v -7094 376.632 -2921
v -7094 379.116 -2923
v -7094 381.094 -2925
v -7094 380.96 -2927
v -7094 381.022 -2929
v -7094 381.319 -2931
v -7094 381.878 -2933
v -7094 381.301 -2935
v -7094 380.94 -2937
v -7094 380.89 -2939
v -7094 381.141 -2941
v -7094 381.675 -2943
v -7094 382.46 -2945
v -7094 383.459 -2947
v -7094 382.776 -2949
v -7094 381.309 -2951
v -7094 379.901 -2953
v -7094 378.639 -2955
v -7094 377.62 -2957
v -7094 376.912 -2959
v -7094 376.148 -2961
v -7092 361.501 -2899
v -7092 361.299 -2901
v -7092 361.406 -2903
v -7092 361.835 -2905
v -7092 362.59 -2907
v -7092 363.67 -2909
v -7092 365.064 -2911
v -7092 366.756 -2913
v -7092 368.721 -2915
v -7092 370.927 -2917
v -7092 373.287 -2919
v -7092 375.707 -2921
v -7092 378.113 -2923
v -7092 380.442 -2925
v -7092 381.622 -2927
v -7092 381.858 -2929
v -7092 382.326 -2931
v -7092 383.046 -2933
v -7092 382.634 -2935
v -7092 382.339 -2937
v -7092 382.33 -2939
v -7092 382.593 -2941
v -7092 383.109 -2943
v -7092 383.579 -2945
v -7092 382.23 -2947
v -7092 380.831 -2949
v -7092 379.446 -2951
v -7092 378.148 -2953
v -7092 377.02 -2955
v -7092 376.154 -2957
v -7092 375.614 -2959
v -7092 375.029 -2961
v -7090 359.955 -2899
v -7090 359.832 -2901
v -7090 360.036 -2903
v -7090 360.575 -2905
v -7090 361.449 -2907
v -7090 362.651 -2909
v -7090 364.162 -2911
v -7090 365.958 -2913
v -7090 368.007 -2915
v -7090 370.265 -2917
v -7090 372.627 -2919
v -7090 375 -2921
v -7090 377.323 -2923
v -7090 379.544 -2925
v -7090 381.622 -2927
v -7090 382.395 -2929
v -7090 383.036 -2931
v -7090 383.918 -2933
v -7090 383.817 -2935
v -7090 383.589 -2937
v -7090 383.62 -2939
v -7090 383.896 -2941
v -7090 383.158 -2943
v -7090 381.906 -2945
v -7090 380.585 -2947
v -7090 379.246 -2949
v -7090 377.953 -2951
v -7090 376.775 -2953
v -7090 375.791 -2955
v -7090 375.089 -2957
v -7090 374.727 -2959
v -7090 374.329 -2961
f 6 2 5
f 7 6 5
f 6 1 2
f 6 8 23
f 23 1 6
f 6 7 8
f 23 22 21
f 21 18 23
f 23 18 20
f 23 24 22
f 23 8 24
f 20 1 23
f 7 10 8
f 10 7 9
f 10 24 8
f 26 24 10
f 26 22 24
f 4 2 3
f 3 2 1
f 20 18 19
f 19 3 20
f 20 3 1
f 37 21 22
f 37 35 21
f 21 35 18
f 19 18 17
f 33 18 35
f 18 33 17
f 26 28 22
f 40 38 22
f 37 22 38
f 40 22 28
f 38 36 37
f 35 37 36
f 35 34 33
f 35 36 34
f 52 34 36
f 52 36 39
f 36 38 39
f 10 12 26
f 26 12 25
f 27 26 25
f 26 27 28
f 49 31 47
f 50 31 49
f 43 54 53
f 15 48 47
f 47 31 15
f 11 10 9
f 11 12 10
f 40 28 27
f 50 32 31
f 51 32 50
f 46 32 51
f 51 44 46
f 48 15 13
f 41 38 40
f 38 41 42
f 42 41 53
f 53 41 43
f 43 44 54
f 54 44 51
f 40 43 41
f 46 44 45
f 45 44 43
f 45 30 46
f 46 30 32
f 43 40 45
f 30 40 27
f 30 27 25
f 45 40 30
f 30 25 29
f 25 12 29
f 31 32 30
f 29 12 16
f 16 12 11
f 31 30 29
f 29 15 31
f 15 14 13
f 15 29 16
f 14 15 16
f 16 11 14
f 60 56 59
f 61 60 59
f 60 55 56
f 60 62 77
f 77 55 60
f 60 61 62
f 77 76 75
f 75 72 77
f 77 72 74
f 77 78 76
f 77 62 78
f 74 55 77
f 61 64 62
f 64 61 63
f 64 78 62
f 80 78 64
f 80 76 78
f 58 56 57
f 57 56 55
f 74 72 73
f 73 57 74
f 74 57 55
f 91 75 76
f 91 89 75
f 75 89 72
f 73 72 71
f 87 72 89
f 72 87 71
f 80 82 76
f 94 92 76
f 91 76 92
f 94 76 82
f 92 90 91
f 89 91 90
f 89 88 87
f 89 90 88
f 106 88 90
f 106 90 93
f 90 92 93
f 64 66 80
f 80 66 79
f 81 80 79
f 80 81 82
f 103 85 101
f 104 85 103
f 97 108 107
f 69 102 101
f 101 85 69
f 65 64 63
f 65 66 64
f 94 82 81
f 104 86 85
f 105 86 104
f 100 86 105
f 105 98 100
f 102 69 67
f 95 92 94
f 92 95 96
f 96 95 107
f 107 95 97
f 97 98 108
f 108 98 105
f 94 97 95
f 100 98 99
f 99 98 97
f 99 84 100
f 100 84 86
f 97 94 99
f 84 94 81
f 84 81 79
f 99 94 84
f 84 79 83
f 79 66 83
f 85 86 84
f 83 66 70
f 70 66 65
f 85 84 83
f 83 69 85
f 69 68 67
f 69 83 70
f 68 69 70
f 70 65 68
f 114 110 113
f 115 114 113
f 114 109 110
f 114 116 131
f 131 109 114
f 114 115 116
f 131 130 129
f 129 126 131
f 131 126 128
f 131 132 130
f 131 116 132
f 128 109 131
f 115 118 116
f 118 115 117
f 118 132 116
f 134 132 118
f 134 130 132
f 112 110 111
f 111 110 109
f 128 126 127
f 127 111 128
f 128 111 109
f 145 129 130
f 145 143 129
f 129 143 126
f 127 126 125
f 141 126 143
f 126 141 125
f 134 136 130
f 148 146 130
f 145 130 146
f 148 130 136
f 146 144 145
f 143 145 144
f 143 142 141
f 143 144 142
f 160 142 144
f 160 144 147
f 144 146 147
f 118 120 134
f 134 120 133
f 135 134 133
f 134 135 136
f 157 139 155
f 158 139 157
f 151 162 161
f 123 156 155
f 155 139 123
f 119 118 117
f 119 120 118
f 148 136 135
f 158 140 139
f 159 140 158
f 154 140 159
f 159 152 154
f 156 123 121
f 149 146 148
f 146 149 150
f 150 149 161
f 161 149 151
f 151 152 162
f 162 152 159
f 148 151 149
f 154 152 153
f 153 152 151
f 153 138 154
f 154 138 140
f 151 148 153
f 138 148 135
f 138 135 133
f 153 148 138
f 138 133 137
f 133 120 137
f 139 140 138
f 137 120 124
f 124 120 119
f 139 138 137
f 137 123 139
f 123 122 121
f 123 137 124
f 122 123 124
f 124 119 122
f 168 164 167
f 169 168 167
f 168 163 164
f 168 170 185
f 185 163 168
f 168 169 170
f 185 184 183
f 183 180 185
f 185 180 182
f 185 186 184
f 185 170 186
f 182 163 185
f 169 172 170
f 172 169 171
f 172 186 170
f 188 186 172
f 188 184 186
f 166 164 165
f 165 164 163
f 182 180 181
f 181 165 182
f 182 165 163
f 199 183 184
f 199 197 183
f 183 197 180
f 181 180 179
f 195 180 197
f 180 195 179
f 188 190 184
f 202 200 184
f 199 184 200
f 202 184 190
f 200 198 199
f 197 199 198
f 197 196 195
f 197 198 196
f 214 196 198
f 214 198 201
f 198 200 201
f 172 174 188
f 188 174 187
f 189 188 187
f 188 189 190
f 211 193 209
f 212 193 211
f 205 216 215
f 177 210 209
f 209 193 177
f 173 172 171
f 173 174 172
f 202 190 189
f 212 194 193
f 213 194 212
f 208 194 213
f 213 206 208
f 210 177 175
f 203 200 202
f 200 203 204
f 204 203 215
f 215 203 205
f 205 206 216
f 216 206 213
f 202 205 203
f 208 206 207
f 207 206 205
f 207 192 208
f 208 192 194
f 205 202 207
f 192 202 189
f 192 189 187
f 207 202 192
f 192 187 191
f 187 174 191
f 193 194 192
f 191 174 178
f 178 174 173
f 193 192 191
f 191 177 193
f 177 176 175
f 177 191 178
f 176 177 178
f 178 173 176
f 222 218 221
f 223 222 221
f 222 217 218
f 222 224 239
f 239 217 222
f 222 223 224
f 239 238 237
f 237 234 239
f 239 234 236
f 239 240 238
f 239 224 240
f 236 217 239
f 223 226 224
f 226 223 225
f 226 240 224
f 242 240 226
f 242 238 240
f 220 218 219
f 219 218 217
f 236 234 235
f 235 219 236
f 236 219 217
f 253 237 238
f 253 251 237
f 237 251 234
f 235 234 233
f 249 234 251
f 234 249 233
f 242 244 238
f 256 254 238
f 253 238 254
f 256 238 244
f 254 252 253
f 251 253 252
f 251 250 249
f 251 252 250
f 268 250 252
f 268 252 255
f 252 254 255
f 226 228 242
f 242 228 241
f 243 242 241
f 242 243 244
f 265 247 263
f 266 247 265
f 259 270 269
f 231 264 263
f 263 247 231
f 227 226 225
f 227 228 226
f 256 244 243
f 266 248 247
f 267 248 266
f 262 248 267
f 267 260 262
f 264 231 229
f 257 254 256
f 254 257 258
f 258 257 269
f 269 257 259
f 259 260 270
f 270 260 267
f 256 259 257
f 262 260 261
f 261 260 259
f 261 246 262
f 262 246 248
f 259 256 261
f 246 256 243
f 246 243 241
f 261 256 246
f 246 241 245
f 241 228 245
f 247 248 246
f 245 228 232
f 232 228 227
f 247 246 245
f 245 231 247
f 231 230 229
f 231 245 232
f 230 231 232
f 232 227 230
f 315 317 307
f 307 314 315
f 316 315 314
f 316 302 315
f 301 315 302
f 363 315 301
f 330 315 363
f 330 317 315
f 316 362 303
f 303 302 316
f 362 316 279
f 314 279 316
f 303 284 302
f 301 302 284
f 282 284 303
f 362 282 303
f 362 279 271
f 362 271 275
f 275 282 362
f 307 310 314
f 310 279 314
f 280 271 279
f 279 310 280
f 306 307 317
f 317 330 306
f 301 364 363
f 330 363 367
f 367 363 364
f 301 284 283
f 283 318 301
f 301 318 365
f 301 365 364
f 307 306 300
f 310 307 300
f 330 339 331
f 330 331 306
f 367 339 330
f 282 283 284
f 306 326 300
f 331 329 306
f 329 326 306
f 283 282 281
f 281 282 285
f 275 285 282
f 364 365 354
f 367 364 354
f 367 354 339
f 275 271 272
f 273 272 271
f 271 276 273
f 280 276 271
f 339 352 331
f 354 353 339
f 339 353 352
f 331 338 329
f 331 351 338
f 331 352 351
f 285 275 272
f 322 318 321
f 283 304 318
f 318 304 321
f 365 318 366
f 318 322 366
f 366 354 365
f 290 283 281
f 290 304 283
f 326 329 325
f 325 329 336
f 329 338 336
f 278 310 300
f 276 310 278
f 280 310 276
f 338 337 336
f 338 351 337
f 274 272 273
f 272 274 356
f 272 356 285
f 351 352 359
f 352 360 359
f 352 353 360
f 346 345 354
f 354 345 353
f 354 366 346
f 285 287 281
f 281 287 290
f 291 285 356
f 291 286 285
f 287 285 286
f 353 345 343
f 350 337 351
f 351 349 350
f 351 359 349
f 290 305 304
f 321 304 305
f 325 336 335
f 335 336 337
f 337 350 335
f 290 287 289
f 289 305 290
f 326 325 313
f 325 328 313
f 335 328 325
f 326 313 300
f 273 358 274
f 358 357 274
f 356 274 357
f 355 349 359
f 360 355 359
f 360 353 355
f 353 343 355
f 346 366 322
f 300 299 278
f 300 308 299
f 312 308 300
f 313 312 300
f 356 357 291
f 288 287 286
f 288 289 287
f 298 278 299
f 277 273 276
f 277 278 298
f 278 277 276
f 344 350 349
f 350 344 348
f 350 348 335
f 273 277 295
f 358 273 295
f 292 291 358
f 291 292 286
f 358 291 357
f 286 292 288
f 328 335 348
f 355 344 349
f 343 345 340
f 346 340 345
f 344 355 343
f 344 343 342
f 342 343 340
f 305 319 321
f 319 305 289
f 298 361 277
f 296 277 361
f 295 277 296
f 346 322 323
f 346 323 347
f 347 340 346
f 321 323 322
f 309 299 308
f 299 309 298
f 361 298 309
f 319 323 321
f 358 295 292
f 344 342 341
f 344 341 348
f 293 288 292
f 293 294 288
f 289 288 294
f 289 320 319
f 294 320 289
f 341 327 348
f 328 348 327
f 292 295 293
f 327 313 328
f 347 334 340
f 341 340 334
f 341 342 340
f 295 296 293
f 347 323 324
f 332 347 324
f 347 332 334
f 297 361 309
f 361 297 296
f 312 313 327
f 311 308 312
f 309 308 311
f 323 319 324
f 309 311 297
f 312 327 311
f 296 297 293
f 294 293 297
f 341 334 327
f 320 294 319
f 332 333 334
f 324 333 332
f 324 327 333
f 324 319 327
f 327 334 333
f 311 327 319
f 311 294 297
f 311 319 294
f 412 414 404
f 404 411 412
f 413 412 411
f 413 399 412
f 398 412 399
f 460 412 398
f 427 412 460
f 427 414 412
f 413 459 400
f 400 399 413
f 459 413 376
f 411 376 413
f 400 381 399
f 398 399 381
f 379 381 400
f 459 379 400
f 459 376 368
f 459 368 372
f 372 379 459
f 404 407 411
f 407 376 411
f 377 368 376
f 376 407 377
f 403 404 414
f 414 427 403
f 398 461 460
f 427 460 464
f 464 460 461
f 398 381 380
f 380 415 398
f 398 415 462
f 398 462 461
f 404 403 397
f 407 404 397
f 427 436 428
f 427 428 403
f 464 436 427
f 379 380 381
f 403 423 397
f 428 426 403
f 426 423 403
f 380 379 378
f 378 379 382
f 372 382 379
f 461 462 451
f 464 461 451
f 464 451 436
f 372 368 369
f 370 369 368
f 368 373 370
f 377 373 368
f 436 449 428
f 451 450 436
f 436 450 449
f 428 435 426
f 428 448 435
f 428 449 448
f 382 372 369
f 419 415 418
f 380 401 415
f 415 401 418
f 462 415 463
f 415 419 463
f 463 451 462
f 387 380 378
f 387 401 380
f 423 426 422
f 422 426 433
f 426 435 433
f 375 407 397
f 373 407 375
f 377 407 373
f 435 434 433
f 435 448 434
f 371 369 370
f 369 371 453
f 369 453 382
f 448 449 456
f 449 457 456
f 449 450 457
f 443 442 451
f 451 442 450
f 451 463 443
f 382 384 378
f 378 384 387
f 388 382 453
f 388 383 382
f 384 382 383
f 457 450 452
f 450 440 452
f 450 442 440
f 447 434 448
f 448 446 447
f 448 456 446
f 387 402 401
f 418 401 402
f 422 433 432
f 432 433 434
f 434 447 432
f 387 384 386
f 386 402 387
f 423 422 410
f 422 425 410
f 432 425 422
f 423 410 397
f 370 455 371
f 455 454 371
f 453 371 454
f 452 446 456
f 457 452 456
f 443 463 419
f 397 396 375
f 397 405 396
f 409 405 397
f 410 409 397
f 453 454 388
f 385 384 383
f 385 386 384
f 395 375 396
f 374 370 373
f 374 375 395
f 375 374 373
f 441 447 446
f 447 441 445
f 447 445 432
f 370 374 392
f 455 370 392
f 389 388 455
f 388 389 383
f 455 388 454
f 383 389 385
f 425 432 445
f 452 441 446
f 440 442 437
f 443 437 442
f 441 452 440
f 441 440 439
f 439 440 437
f 402 416 418
f 416 402 386
f 395 458 374
f 393 374 458
f 392 374 393
f 443 419 420
f 443 420 444
f 444 437 443
f 418 420 419
f 406 396 405
f 396 406 395
f 458 395 406
f 416 420 418
f 455 392 389
f 441 439 438
f 441 438 445
f 390 385 389
f 390 391 385
f 386 385 391
f 386 417 416
f 391 417 386
f 438 424 445
f 425 445 424
f 389 392 390
f 424 410 425
f 444 431 437
f 438 437 431
f 438 439 437
f 392 393 390
f 444 420 421
f 429 444 421
f 444 429 431
f 394 458 406
f 458 394 393
f 409 410 424
f 408 405 409
f 406 405 408
f 420 416 421
f 406 408 394
f 409 424 408
f 393 394 390
f 391 390 394
f 438 431 424
f 417 391 416
f 429 430 431
f 421 430 429
f 421 424 430
f 421 416 424
f 424 431 430
f 408 424 416
f 408 391 394
f 408 416 391
f 509 511 501
f 501 508 509
f 510 509 508
f 510 496 509
f 495 509 496
f 557 509 495
f 524 509 557
f 524 511 509
f 510 556 497
f 497 496 510
f 556 510 473
f 508 473 510
f 497 478 496
f 495 496 478
f 476 478 497
f 556 476 497
f 556 473 465
f 556 465 469
f 469 476 556
f 501 504 508
f 504 473 508
f 474 465 473
f 473 504 474
f 500 501 511
f 511 524 500
f 495 558 557
f 524 557 561
f 561 557 558
f 495 478 477
f 477 512 495
f 495 512 559
f 495 559 558
f 501 500 494
f 504 501 494
f 524 533 525
f 524 525 500
f 561 533 524
f 476 477 478
f 500 520 494
f 525 523 500
f 523 520 500
f 477 476 475
f 475 476 479
f 469 479 476
f 558 559 548
f 561 558 548
f 561 548 533
f 469 465 466
f 467 466 465
f 465 470 467
f 474 470 465
f 533 546 525
f 548 547 533
f 533 547 546
f 525 532 523
f 525 545 532
f 525 546 545
f 479 469 466
f 516 512 515
f 477 498 512
f 512 498 515
f 559 512 560
f 512 516 560
f 560 548 559
f 484 477 475
f 484 498 477
f 520 523 519
f 519 523 530
f 523 532 530
f 472 504 494
f 470 504 472
f 474 504 470
f 532 531 530
f 532 545 531
f 468 466 467
f 466 468 550
f 466 550 479
f 545 546 553
f 546 554 553
f 546 547 554
f 540 539 548
f 548 539 547
f 548 560 540
f 479 481 475
f 475 481 484
f 485 479 550
f 485 480 479
f 481 479 480
f 554 547 549
f 547 537 549
f 547 539 537
f 544 531 545
f 545 543 544
f 545 553 543
f 484 499 498
f 515 498 499
f 519 530 529
f 529 530 531
f 531 544 529
f 484 481 483
f 483 499 484
f 520 519 507
f 519 522 507
f 529 522 519
f 520 507 494
f 467 552 468
f 552 551 468
f 550 468 551
f 549 543 553
f 554 549 553
f 540 560 516
f 494 493 472
f 494 502 493
f 506 502 494
f 507 506 494
f 550 551 485
f 482 481 480
f 482 483 481
f 492 472 493
f 471 467 470
f 471 472 492
f 472 471 470
f 538 544 543
f 544 538 542
f 544 542 529
f 467 471 489
f 552 467 489
f 486 485 552
f 485 486 480
f 552 485 551
f 480 486 482
f 522 529 542
f 549 538 543
f 537 539 534
f 540 534 539
f 538 549 537
f 538 537 536
f 536 537 534
f 499 513 515
f 513 499 483
f 492 555 471
f 490 471 555
f 489 471 490
f 540 516 517
f 540 517 541
f 541 534 540
f 515 517 516
f 503 493 502
f 493 503 492
f 555 492 503
f 513 517 515
f 552 489 486
f 538 536 535
f 538 535 542
f 487 482 486
f 487 488 482
f 483 482 488
f 483 514 513
f 488 514 483
f 535 521 542
f 522 542 521
f 486 489 487
f 521 507 522
f 541 528 534
f 535 534 528
f 535 536 534
f 489 490 487
f 541 517 518
f 526 541 518
f 541 526 528
f 491 555 503
f 555 491 490
f 506 507 521
f 505 502 506
f 503 502 505
f 517 513 518
f 503 505 491
f 506 521 505
f 490 491 487
f 488 487 491
f 535 528 521
f 514 488 513
f 526 527 528
f 518 527 526
f 518 521 527
f 518 513 521
f 521 528 527
f 505 521 513
f 505 488 491
f 505 513 488
f 595 563 562
f 562 594 595
f 627 595 594
f 594 626 627
f 659 627 626
f 626 658 659
f 691 659 658
f 658 690 691
f 723 691 690
f 690 722 723
f 755 723 722
f 722 754 755
f 787 755 754
f 754 786 787
f 819 787 786
f 786 818 819
f 851 819 818
f 818 850 851
f 883 851 850
f 850 882 883
f 915 883 882
f 882 914 915
f 947 915 914
f 914 946 947
f 979 947 946
f 946 978 979
f 1011 979 978
f 978 1010 1011
f 1043 1011 1010
f 1010 1042 1043
f 1075 1043 1042
f 1042 1074 1075
f 1107 1075 1074
f 1074 1106 1107
f 1139 1107 1106
f 1106 1138 1139
f 1171 1139 1138
f 1138 1170 1171
f 1203 1171 1170
f 1170 1202 1203
f 1235 1203 1202
f 1202 1234 1235
f 1267 1235 1234
f 1234 1266 1267
f 1299 1267 1266
f 1266 1298 1299
f 1331 1299 1298
f 1298 1330 1331
f 1363 1331 1330
f 1330 1362 1363
f 1395 1363 1362
f 1362 1394 1395
f 1427 1395 1394
f 1394 1426 1427
f 1459 1427 1426
f 1426 1458 1459
f 1491 1459 1458
f 1458 1490 1491
f 1523 1491 1490
f 1490 1522 1523
f 1555 1523 1522
f 1522 1554 1555
f 596 564 563
f 563 595 596
f 628 596 595
f 595 627 628
f 660 628 627
f 627 659 660
f 692 660 659
f 659 691 692
f 724 692 691
f 691 723 724
f 756 724 723
f 723 755 756
f 788 756 755
f 755 787 788
f 820 788 787
f 787 819 820
f 852 820 819
f 819 851 852
f 884 852 851
f 851 883 884
f 916 884 883
f 883 915 916
f 948 916 915
f 915 947 948
f 980 948 947
f 947 979 980
f 1012 980 979
f 979 1011 1012
f 1044 1012 1011
f 1011 1043 1044
f 1076 1044 1043
f 1043 1075 1076
f 1108 1076 1075
f 1075 1107 1108
f 1140 1108 1107
f 1107 1139 1140
f 1172 1140 1139
f 1139 1171 1172
f 1204 1172 1171
f 1171 1203 1204
f 1236 1204 1203
f 1203 1235 1236
f 1268 1236 1235
f 1235 1267 1268
f 1300 1268 1267
f 1267 1299 1300
f 1332 1300 1299
f 1299 1331 1332
f 1364 1332 1331
f 1331 1363 1364
f 1396 1364 1363
f 1363 1395 1396
f 1428 1396 1395
f 1395 1427 1428
f 1460 1428 1427
f 1427 1459 1460
f 1492 1460 1459
f 1459 1491 1492
f 1524 1492 1491
f 1491 1523 1524
f 1556 1524 1523
f 1523 1555 1556
f 597 565 564
f 564 596 597
f 629 597 596
f 596 628 629
f 661 629 628
f 628 660 661
f 693 661 660
f 660 692 693
f 725 693 692
f 692 724 725
f 757 725 724
f 724 756 757
f 789 757 756
f 756 788 789
f 821 789 788
f 788 820 821
f 853 821 820
f 820 852 853
f 885 853 852
f 852 884 885
f 917 885 884
f 884 916 917
f 949 917 916
f 916 948 949
f 981 949 948
f 948 980 981
f 1013 981 980
f 980 1012 1013
f 1045 1013 1012
f 1012 1044 1045
f 1077 1045 1044
f 1044 1076 1077
f 1109 1077 1076
f 1076 1108 1109
f 1141 1109 1108
f 1108 1140 1141
f 1173 1141 1140
f 1140 1172 1173
f 1205 1173 1172
f 1172 1204 1205
f 1237 1205 1204
f 1204 1236 1237
f 1269 1237 1236
f 1236 1268 1269
f 1301 1269 1268
f 1268 1300 1301
f 1333 1301 1300
f 1300 1332 1333
f 1365 1333 1332
f 1332 1364 1365
f 1397 1365 1364
f 1364 1396 1397
f 1429 1397 1396
f 1396 1428 1429
f 1461 1429 1428
f 1428 1460 1461
f 1493 1461 1460
f 1460 1492 1493
f 1525 1493 1492
f 1492 1524 1525
f 1557 1525 1524
f 1524 1556 1557
f 598 566 565
f 565 597 598
f 630 598 597
f 597 629 630
f 662 630 629
f 629 661 662
f 694 662 661
f 661 693 694
f 726 694 693
f 693 725 726
f 758 726 725
f 725 757 758
f 790 758 757
f 757 789 790
f 822 790 789
f 789 821 822
f 854 822 821
f 821 853 854
f 886 854 853
f 853 885 886
f 918 886 885
f 885 917 918
f 950 918 917
f 917 949 950
f 982 950 949
f 949 981 982
f 1014 982 981
f 981 1013 1014
f 1046 1014 1013
f 1013 1045 1046
f 1078 1046 1045
f 1045 1077 1078
f 1110 1078 1077
f 1077 1109 1110
f 1142 1110 1109
f 1109 1141 1142
f 1174 1142 1141
f 1141 1173 1174
f 1206 1174 1173
f 1173 1205 1206
f 1238 1206 1205
f 1205 1237 1238
f 1270 1238 1237
f 1237 1269 1270
f 1302 1270 1269
f 1269 1301 1302
f 1334 1302 1301
f 1301 1333 1334
f 1366 1334 1333
f 1333 1365 1366
f 1398 1366 1365
f 1365 1397 1398
f 1430 1398 1397
f 1397 1429 1430
f 1462 1430 1429
f 1429 1461 1462
f 1494 1462 1461
f 1461 1493 1494
f 1526 1494 1493
f 1493 1525 1526
f 1558 1526 1525
f 1525 1557 1558
f 599 567 566
f 566 598 599
f 631 599 598
f 598 630 631
f 663 631 630
f 630 662 663
f 695 663 662
f 662 694 695
f 727 695 694
f 694 726 727
f 759 727 726
f 726 758 759
f 791 759 758
f 758 790 791
f 823 791 790
f 790 822 823
f 855 823 822
f 822 854 855
f 887 855 854
f 854 886 887
f 919 887 886
f 886 918 919
f 951 919 918
f 918 950 951
f 983 951 950
f 950 982 983
f 1015 983 982
f 982 1014 1015
f 1047 1015 1014
f 1014 1046 1047
f 1079 1047 1046
f 1046 1078 1079
f 1111 1079 1078
f 1078 1110 1111
f 1143 1111 1110
f 1110 1142 1143
f 1175 1143 1142
f 1142 1174 1175
f 1207 1175 1174
f 1174 1206 1207
f 1239 1207 1206
f 1206 1238 1239
f 1271 1239 1238
f 1238 1270 1271
f 1303 1271 1270
f 1270 1302 1303
f 1335 1303 1302
f 1302 1334 1335
f 1367 1335 1334
f 1334 1366 1367
f 1399 1367 1366
f 1366 1398 1399
f 1431 1399 1398
f 1398 1430 1431
f 1463 1431 1430
f 1430 1462 1463
f 1495 1463 1462
f 1462 1494 1495
f 1527 1495 1494
f 1494 1526 1527
f 1559 1527 1526
f 1526 1558 1559
f 600 568 567
f 567 599 600
f 632 600 599
f 599 631 632
f 664 632 631
f 631 663 664
f 696 664 663
f 663 695 696
f 728 696 695
f 695 727 728
f 760 728 727
f 727 759 760
f 792 760 759
f 759 791 792
f 824 792 791
f 791 823 824
f 856 824 823
f 823 855 856
f 888 856 855
f 855 887 888
f 920 888 887
f 887 919 920
f 952 920 919
f 919 951 952
f 984 952 951
f 951 983 984
f 1016 984 983
f 983 1015 1016
f 1048 1016 1015
f 1015 1047 1048
f 1080 1048 1047
f 1047 1079 1080
f 1112 1080 1079
f 1079 1111 1112
f 1144 1112 1111
f 1111 1143 1144
f 1176 1144 1143
f 1143 1175 1176
f 1208 1176 1175
f 1175 1207 1208
f 1240 1208 1207
f 1207 1239 1240
f 1272 1240 1239
f 1239 1271 1272
f 1304 1272 1271
f 1271 1303 1304
f 1336 1304 1303
f 1303 1335 1336
f 1368 1336 1335
f 1335 1367 1368
f 1400 1368 1367
f 1367 1399 1400
f 1432 1400 1399
f 1399 1431 1432
f 1464 1432 1431
f 1431 1463 1464
f 1496 1464 1463
f 1463 1495 1496
f 1528 1496 1495
f 1495 1527 1528
f 1560 1528 1527
f 1527 1559 1560
f 601 569 568
f 568 600 601
f 633 601 600
f 600 632 633
f 665 633 632
f 632 664 665
f 697 665 664
f 664 696 697
f 729 697 696
f 696 728 729
f 761 729 728
f 728 760 761
f 793 761 760
f 760 792 793
f 825 793 792
f 792 824 825
f 857 825 824
f 824 856 857
f 889 857 856
f 856 888 889
f 921 889 888
f 888 920 921
f 953 921 920
f 920 952 953
f 985 953 952
f 952 984 985
f 1017 985 984
f 984 1016 1017
f 1049 1017 1016
f 1016 1048 1049
f 1081 1049 1048
f 1048 1080 1081
f 1113 1081 1080
f 1080 1112 1113
f 1145 1113 1112
f 1112 1144 1145
f 1177 1145 1144
f 1144 1176 1177
f 1209 1177 1176
f 1176 1208 1209
f 1241 1209 1208
f 1208 1240 1241
f 1273 1241 1240
f 1240 1272 1273
f 1305 1273 1272
f 1272 1304 1305
f 1337 1305 1304
f 1304 1336 1337
f 1369 1337 1336
f 1336 1368 1369
f 1401 1369 1368
f 1368 1400 1401
f 1433 1401 1400
f 1400 1432 1433
f 1465 1433 1432
f 1432 1464 1465
f 1497 1465 1464
f 1464 1496 1497
f 1529 1497 1496
f 1496 1528 1529
f 1561 1529 1528
f 1528 1560 1561
f 602 570 569
f 569 601 602
f 634 602 601
f 601 633 634
f 666 634 633
f 633 665 666
f 698 666 665
f 665 697 698
f 730 698 697
f 697 729 730
f 762 730 729
f 729 761 762
f 794 762 761
f 761 793 794
f 826 794 793
f 793 825 826
f 858 826 825
f 825 857 858
f 890 858 857
f 857 889 890
f 922 890 889
f 889 921 922
f 954 922 921
f 921 953 954
f 986 954 953
f 953 985 986
f 1018 986 985
f 985 1017 1018
f 1050 1018 1017
f 1017 1049 1050
f 1082 1050 1049
f 1049 1081 1082
f 1114 1082 1081
f 1081 1113 1114
f 1146 1114 1113
f 1113 1145 1146
f 1178 1146 1145
f 1145 1177 1178
f 1210 1178 1177
f 1177 1209 1210
f 1242 1210 1209
f 1209 1241 1242
f 1274 1242 1241
f 1241 1273 1274
f 1306 1274 1273
f 1273 1305 1306
f 1338 1306 1305
f 1305 1337 1338
f 1370 1338 1337
f 1337 1369 1370
f 1402 1370 1369
f 1369 1401 1402
f 1434 1402 1401
f 1401 1433 1434
f 1466 1434 1433
f 1433 1465 1466
f 1498 1466 1465
f 1465 1497 1498
f 1530 1498 1497
f 1497 1529 1530
f 1562 1530 1529
f 1529 1561 1562
f 603 571 570
f 570 602 603
f 635 603 602
f 602 634 635
f 667 635 634
f 634 666 667
f 699 667 666
f 666 698 699
f 731 699 698
f 698 730 731
f 763 731 730
f 730 762 763
f 795 763 762
f 762 794 795
f 827 795 794
f 794 826 827
f 859 827 826
f 826 858 859
f 891 859 858
f 858 890 891
f 923 891 890
f 890 922 923
f 955 923 922
f 922 954 955
f 987 955 954
f 954 986 987
f 1019 987 986
f 986 1018 1019
f 1051 1019 1018
f 1018 1050 1051
f 1083 1051 1050
f 1050 1082 1083
f 1115 1083 1082
f 1082 1114 1115
f 1147 1115 1114
f 1114 1146 1147
f 1179 1147 1146
f 1146 1178 1179
f 1211 1179 1178
f 1178 1210 1211
f 1243 1211 1210
f 1210 1242 1243
f 1275 1243 1242
f 1242 1274 1275
f 1307 1275 1274
f 1274 1306 1307
f 1339 1307 1306
f 1306 1338 1339
f 1371 1339 1338
f 1338 1370 1371
f 1403 1371 1370
f 1370 1402 1403
f 1435 1403 1402
f 1402 1434 1435
f 1467 1435 1434
f 1434 1466 1467
f 1499 1467 1466
f 1466 1498 1499
f 1531 1499 1498
f 1498 1530 1531
f 1563 1531 1530
f 1530 1562 1563
f 604 572 571
f 571 603 604
f 636 604 603
f 603 635 636
f 668 636 635
f 635 667 668
f 700 668 667
f 667 699 700
f 732 700 699
f 699 731 732
f 764 732 731
f 731 763 764
f 796 764 763
f 763 795 796
f 828 796 795
f 795 827 828
f 860 828 827
f 827 859 860
f 892 860 859
f 859 891 892
f 924 892 891
f 891 923 924
f 956 924 923
f 923 955 956
f 988 956 955
f 955 987 988
f 1020 988 987
f 987 1019 1020
f 1052 1020 1019
f 1019 1051 1052
f 1084 1052 1051
f 1051 1083 1084
f 1116 1084 1083
f 1083 1115 1116
f 1148 1116 1115
f 1115 1147 1148
f 1180 1148 1147
f 1147 1179 1180
f 1212 1180 1179
f 1179 1211 1212
f 1244 1212 1211
f 1211 1243 1244
f 1276 1244 1243
f 1243 1275 1276
f 1308 1276 1275
f 1275 1307 1308
f 1340 1308 1307
f 1307 1339 1340
f 1372 1340 1339
f 1339 1371 1372
f 1404 1372 1371
f 1371 1403 1404
f 1436 1404 1403
f 1403 1435 1436
f 1468 1436 1435
f 1435 1467 1468
f 1500 1468 1467
f 1467 1499 1500
f 1532 1500 1499
f 1499 1531 1532
f 1564 1532 1531
f 1531 1563 1564
f 605 573 572
f 572 604 605
f 637 605 604
f 604 636 637
f 669 637 636
f 636 668 669
f 701 669 668
f 668 700 701
f 733 701 700
f 700 732 733
f 765 733 732
f 732 764 765
f 797 765 764
f 764 796 797
f 829 797 796
f 796 828 829
f 861 829 828
f 828 860 861
f 893 861 860
f 860 892 893
f 925 893 892
f 892 924 925
f 957 925 924
f 924 956 957
f 989 957 956
f 956 988 989
f 1021 989 988
f 988 1020 1021
f 1053 1021 1020
f 1020 1052 1053
f 1085 1053 1052
f 1052 1084 1085
f 1117 1085 1084
f 1084 1116 1117
f 1149 1117 1116
f 1116 1148 1149
f 1181 1149 1148
f 1148 1180 1181
f 1213 1181 1180
f 1180 1212 1213
f 1245 1213 1212
f 1212 1244 1245
f 1277 1245 1244
f 1244 1276 1277
f 1309 1277 1276
f 1276 1308 1309
f 1341 1309 1308
f 1308 1340 1341
f 1373 1341 1340
f 1340 1372 1373
f 1405 1373 1372
f 1372 1404 1405
f 1437 1405 1404
f 1404 1436 1437
f 1469 1437 1436
f 1436 1468 1469
f 1501 1469 1468
f 1468 1500 1501
f 1533 1501 1500
f 1500 1532 1533
f 1565 1533 1532
f 1532 1564 1565
f 606 574 573
f 573 605 606
f 638 606 605
f 605 637 638
f 670 638 637
f 637 669 670
f 702 670 669
f 669 701 702
f 734 702 701
f 701 733 734
f 766 734 733
f 733 765 766
f 798 766 765
f 765 797 798
f 830 798 797
f 797 829 830
f 862 830 829
f 829 861 862
f 894 862 861
f 861 893 894
f 926 894 893
f 893 925 926
f 958 926 925
f 925 957 958
f 990 958 957
f 957 989 990
f 1022 990 989
f 989 1021 1022
f 1054 1022 1021
f 1021 1053 1054
f 1086 1054 1053
f 1053 1085 1086
f 1118 1086 1085
f 1085 1117 1118
f 1150 1118 1117
f 1117 1149 1150
f 1182 1150 1149
f 1149 1181 1182
f 1214 1182 1181
f 1181 1213 1214
f 1246 1214 1213
f 1213 1245 1246
f 1278 1246 1245
f 1245 1277 1278
f 1310 1278 1277
f 1277 1309 1310
f 1342 1310 1309
f 1309 1341 1342
f 1374 1342 1341
f 1341 1373 1374
f 1406 1374 1373
f 1373 1405 1406
f 1438 1406 1405
f 1405 1437 1438
f 1470 1438 1437
f 1437 1469 1470
f 1502 1470 1469
f 1469 1501 1502
f 1534 1502 1501
f 1501 1533 1534
f 1566 1534 1533
f 1533 1565 1566
f 607 575 574
f 574 606 607
f 639 607 606
f 606 638 639
f 671 639 638
f 638 670 671
f 703 671 670
f 670 702 703
f 735 703 702
f 702 734 735
f 767 735 734
f 734 766 767
f 799 767 766
f 766 798 799
f 831 799 798
f 798 830 831
f 863 831 830
f 830 862 863
f 895 863 862
f 862 894 895
f 927 895 894
f 894 926 927
f 959 927 926
f 926 958 959
f 991 959 958
f 958 990 991
f 1023 991 990
f 990 1022 1023
f 1055 1023 1022
f 1022 1054 1055
f 1087 1055 1054
f 1054 1086 1087
f 1119 1087 1086
f 1086 1118 1119
f 1151 1119 1118
f 1118 1150 1151
f 1183 1151 1150
f 1150 1182 1183
f 1215 1183 1182
f 1182 1214 1215
f 1247 1215 1214
f 1214 1246 1247
f 1279 1247 1246
f 1246 1278 1279
f 1311 1279 1278
f 1278 1310 1311
f 1343 1311 1310
f 1310 1342 1343
f 1375 1343 1342
f 1342 1374 1375
f 1407 1375 1374
f 1374 1406 1407
f 1439 1407 1406
f 1406 1438 1439
f 1471 1439 1438
f 1438 1470 1471
f 1503 1471 1470
f 1470 1502 1503
f 1535 1503 1502
f 1502 1534 1535
f 1567 1535 1534
f 1534 1566 1567
f 608 576 575
f 575 607 608
f 640 608 607
f 607 639 640
f 672 640 639
f 639 671 672
f 704 672 671
f 671 703 704
f 736 704 703
f 703 735 736
f 768 736 735
f 735 767 768
f 800 768 767
f 767 799 800
f 832 800 799
f 799 831 832
f 864 832 831
f 831 863 864
f 896 864 863
f 863 895 896
f 928 896 895
f 895 927 928
f 960 928 927
f 927 959 960
f 992 960 959
f 959 991 992
f 1024 992 991
f 991 1023 1024
f 1056 1024 1023
f 1023 1055 1056
f 1088 1056 1055
f 1055 1087 1088
f 1120 1088 1087
f 1087 1119 1120
f 1152 1120 1119
f 1119 1151 1152
f 1184 1152 1151
f 1151 1183 1184
f 1216 1184 1183
f 1183 1215 1216
f 1248 1216 1215
f 1215 1247 1248
f 1280 1248 1247
f 1247 1279 1280
f 1312 1280 1279
f 1279 1311 1312
f 1344 1312 1311
f 1311 1343 1344
f 1376 1344 1343
f 1343 1375 1376
f 1408 1376 1375
f 1375 1407 1408
f 1440 1408 1407
f 1407 1439 1440
f 1472 1440 1439
f 1439 1471 1472
f 1504 1472 1471
f 1471 1503 1504
f 1536 1504 1503
f 1503 1535 1536
f 1568 1536 1535
f 1535 1567 1568
f 609 577 576
f 576 608 609
f 641 609 608
f 608 640 641
f 673 641 640
f 640 672 673
f 705 673 672
f 672 704 705
f 737 705 704
f 704 736 737
f 769 737 736
f 736 768 769
f 801 769 768
f 768 800 801
f 833 801 800
f 800 832 833
f 865 833 832
f 832 864 865
f 897 865 864
f 864 896 897
f 929 897 896
f 896 928 929
f 961 929 928
f 928 960 961
f 993 961 960
f 960 992 993
f 1025 993 992
f 992 1024 1025
f 1057 1025 1024
f 1024 1056 1057
f 1089 1057 1056
f 1056 1088 1089
f 1121 1089 1088
f 1088 1120 1121
f 1153 1121 1120
f 1120 1152 1153
f 1185 1153 1152
f 1152 1184 1185
f 1217 1185 1184
f 1184 1216 1217
f 1249 1217 1216
f 1216 1248 1249
f 1281 1249 1248
f 1248 1280 1281
f 1313 1281 1280
f 1280 1312 1313
f 1345 1313 1312
f 1312 1344 1345
f 1377 1345 1344
f 1344 1376 1377
f 1409 1377 1376
f 1376 1408 1409
f 1441 1409 1408
f 1408 1440 1441
f 1473 1441 1440
f 1440 1472 1473
f 1505 1473 1472
f 1472 1504 1505
f 1537 1505 1504
f 1504 1536 1537
f 1569 1537 1536
f 1536 1568 1569
f 610 578 577
f 577 609 610
f 642 610 609
f 609 641 642
f 674 642 641
f 641 673 674
f 706 674 673
f 673 705 706
f 738 706 705
f 705 737 738
f 770 738 737
f 737 769 770
f 802 770 769
f 769 801 802
f 834 802 801
f 801 833 834
f 866 834 833
f 833 865 866
f 898 866 865
f 865 897 898
f 930 898 897
f 897 929 930
f 962 930 929
f 929 961 962
f 994 962 961
f 961 993 994
f 1026 994 993
f 993 1025 1026
f 1058 1026 1025
f 1025 1057 1058
f 1090 1058 1057
f 1057 1089 1090
f 1122 1090 1089
f 1089 1121 1122
f 1154 1122 1121
f 1121 1153 1154
f 1186 1154 1153
f 1153 1185 1186
f 1218 1186 1185
f 1185 1217 1218
f 1250 1218 1217
f 1217 1249 1250
f 1282 1250 1249
f 1249 1281 1282
f 1314 1282 1281
f 1281 1313 1314
f 1346 1314 1313
f 1313 1345 1346
f 1378 1346 1345
f 1345 1377 1378
f 1410 1378 1377
f 1377 1409 1410
f 1442 1410 1409
f 1409 1441 1442
f 1474 1442 1441
f 1441 1473 1474
f 1506 1474 1473
f 1473 1505 1506
f 1538 1506 1505
f 1505 1537 1538
f 1570 1538 1537
f 1537 1569 1570
f 611 579 578
f 578 610 611
f 643 611 610
f 610 642 643
f 675 643 642
f 642 674 675
f 707 675 674
f 674 706 707
f 739 707 706
f 706 738 739
f 771 739 738
f 738 770 771
f 803 771 770
f 770 802 803
f 835 803 802
f 802 834 835
f 867 835 834
f 834 866 867
f 899 867 866
f 866 898 899
f 931 899 898
f 898 930 931
f 963 931 930
f 930 962 963
f 995 963 962
f 962 994 995
f 1027 995 994
f 994 1026 1027
f 1059 1027 1026
f 1026 1058 1059
f 1091 1059 1058
f 1058 1090 1091
f 1123 1091 1090
f 1090 1122 1123
f 1155 1123 1122
f 1122 1154 1155
f 1187 1155 1154
f 1154 1186 1187
f 1219 1187 1186
f 1186 1218 1219
f 1251 1219 1218
f 1218 1250 1251
f 1283 1251 1250
f 1250 1282 1283
f 1315 1283 1282
f 1282 1314 1315
f 1347 1315 1314
f 1314 1346 1347
f 1379 1347 1346
f 1346 1378 1379
f 1411 1379 1378
f 1378 1410 1411
f 1443 1411 1410
f 1410 1442 1443
f 1475 1443 1442
f 1442 1474 1475
f 1507 1475 1474
f 1474 1506 1507
f 1539 1507 1506
f 1506 1538 1539
f 1571 1539 1538
f 1538 1570 1571
f 612 580 579
f 579 611 612
f 644 612 611
f 611 643 644
f 676 644 643
f 643 675 676
f 708 676 675
f 675 707 708
f 740 708 707
f 707 739 740
f 772 740 739
f 739 771 772
f 804 772 771
f 771 803 804
f 836 804 803
f 803 835 836
f 868 836 835
f 835 867 868
f 900 868 867
f 867 899 900
f 932 900 899
f 899 931 932
f 964 932 931
f 931 963 964
f 996 964 963
f 963 995 996
f 1028 996 995
f 995 1027 1028
f 1060 1028 1027
f 1027 1059 1060
f 1092 1060 1059
f 1059 1091 1092
f 1124 1092 1091
f 1091 1123 1124
f 1156 1124 1123
f 1123 1155 1156
f 1188 1156 1155
f 1155 1187 1188
f 1220 1188 1187
f 1187 1219 1220
f 1252 1220 1219
f 1219 1251 1252
f 1284 1252 1251
f 1251 1283 1284
f 1316 1284 1283
f 1283 1315 1316
f 1348 1316 1315
f 1315 1347 1348
f 1380 1348 1347
f 1347 1379 1380
f 1412 1380 1379
f 1379 1411 1412
f 1444 1412 1411
f 1411 1443 1444
f 1476 1444 1443
f 1443 1475 1476
f 1508 1476 1475
f 1475 1507 1508
f 1540 1508 1507
f 1507 1539 1540
f 1572 1540 1539
f 1539 1571 1572
f 613 581 580
f 580 612 613
f 645 613 612
f 612 644 645
f 677 645 644
f 644 676 677
f 709 677 676
f 676 708 709
f 741 709 708
f 708 740 741
f 773 741 740
f 740 772 773
f 805 773 772
f 772 804 805
f 837 805 804
f 804 836 837
f 869 837 836
f 836 868 869
f 901 869 868
f 868 900 901
f 933 901 900
f 900 932 933
f 965 933 932
f 932 964 965
f 997 965 964
f 964 996 997
f 1029 997 996
f 996 1028 1029
f 1061 1029 1028
f 1028 1060 1061
f 1093 1061 1060
f 1060 1092 1093
f 1125 1093 1092
f 1092 1124 1125
f 1157 1125 1124
f 1124 1156 1157
f 1189 1157 1156
f 1156 1188 1189
f 1221 1189 1188
f 1188 1220 1221
f 1253 1221 1220
f 1220 1252 1253
f 1285 1253 1252
f 1252 1284 1285
f 1317 1285 1284
f 1284 1316 1317
f 1349 1317 1316
f 1316 1348 1349
f 1381 1349 1348
f 1348 1380 1381
f 1413 1381 1380
f 1380 1412 1413
f 1445 1413 1412
f 1412 1444 1445
f 1477 1445 1444
f 1444 1476 1477
f 1509 1477 1476
f 1476 1508 1509
f 1541 1509 1508
f 1508 1540 1541
f 1573 1541 1540
f 1540 1572 1573
f 614 582 581
f 581 613 614
f 646 614 613
f 613 645 646
f 678 646 645
f 645 677 678
f 710 678 677
f 677 709 710
f 742 710 709
f 709 741 742
f 774 742 741
f 741 773 774
f 806 774 773
f 773 805 806
f 838 806 805
f 805 837 838
f 870 838 837
f 837 869 870
f 902 870 869
f 869 901 902
f 934 902 901
f 901 933 934
f 966 934 933
f 933 965 966
f 998 966 965
f 965 997 998
f 1030 998 997
f 997 1029 1030
f 1062 1030 1029
f 1029 1061 1062
f 1094 1062 1061
f 1061 1093 1094
f 1126 1094 1093
f 1093 1125 1126
f 1158 1126 1125
f 1125 1157 1158
f 1190 1158 1157
f 1157 1189 1190
f 1222 1190 1189
f 1189 1221 1222
f 1254 1222 1221
f 1221 1253 1254
f 1286 1254 1253
f 1253 1285 1286
f 1318 1286 1285
f 1285 1317 1318
f 1350 1318 1317
f 1317 1349 1350
f 1382 1350 1349
f 1349 1381 1382
f 1414 1382 1381
f 1381 1413 1414
f 1446 1414 1413
f 1413 1445 1446
f 1478 1446 1445
f 1445 1477 1478
f 1510 1478 1477
f 1477 1509 1510
f 1542 1510 1509
f 1509 1541 1542
f 1574 1542 1541
f 1541 1573 1574
f 615 583 582
f 582 614 615
f 647 615 614
f 614 646 647
f 679 647 646
f 646 678 679
f 711 679 678
f 678 710 711
f 743 711 710
f 710 742 743
f 775 743 742
f 742 774 775
f 807 775 774
f 774 806 807
f 839 807 806
f 806 838 839
f 871 839 838
f 838 870 871
f 903 871 870
f 870 902 903
f 935 903 902
f 902 934 935
f 967 935 934
f 934 966 967
f 999 967 966
f 966 998 999
f 1031 999 998
f 998 1030 1031
f 1063 1031 1030
f 1030 1062 1063
f 1095 1063 1062
f 1062 1094 1095
f 1127 1095 1094
f 1094 1126 1127
f 1159 1127 1126
f 1126 1158 1159
f 1191 1159 1158
f 1158 1190 1191
f 1223 1191 1190
f 1190 1222 1223
f 1255 1223 1222
f 1222 1254 1255
f 1287 1255 1254
f 1254 1286 1287
f 1319 1287 1286
f 1286 1318 1319
f 1351 1319 1318
f 1318 1350 1351
f 1383 1351 1350
f 1350 1382 1383
f 1415 1383 1382
f 1382 1414 1415
f 1447 1415 1414
f 1414 1446 1447
f 1479 1447 1446
f 1446 1478 1479
f 1511 1479 1478
f 1478 1510 1511
f 1543 1511 1510
f 1510 1542 1543
f 1575 1543 1542
f 1542 1574 1575
f 616 584 583
f 583 615 616
f 648 616 615
f 615 647 648
f 680 648 647
f 647 679 680
f 712 680 679
f 679 711 712
f 744 712 711
f 711 743 744
f 776 744 743
f 743 775 776
f 808 776 775
f 775 807 808
f 840 808 807
f 807 839 840
f 872 840 839
f 839 871 872
f 904 872 871
f 871 903 904
f 936 904 903
f 903 935 936
f 968 936 935
f 935 967 968
f 1000 968 967
f 967 999 1000
f 1032 1000 999
f 999 1031 1032
f 1064 1032 1031
f 1031 1063 1064
f 1096 1064 1063
f 1063 1095 1096
f 1128 1096 1095
f 1095 1127 1128
f 1160 1128 1127
f 1127 1159 1160
f 1192 1160 1159
f 1159 1191 1192
f 1224 1192 1191
f 1191 1223 1224
f 1256 1224 1223
f 1223 1255 1256
f 1288 1256 1255
f 1255 1287 1288
f 1320 1288 1287
f 1287 1319 1320
f 1352 1320 1319
f 1319 1351 1352
f 1384 1352 1351
f 1351 1383 1384
f 1416 1384 1383
f 1383 1415 1416
f 1448 1416 1415
f 1415 1447 1448
f 1480 1448 1447
f 1447 1479 1480
f 1512 1480 1479
f 1479 1511 1512
f 1544 1512 1511
f 1511 1543 1544
f 1576 1544 1543
f 1543 1575 1576
f 617 585 584
f 584 616 617
f 649 617 616
f 616 648 649
f 681 649 648
f 648 680 681
f 713 681 680
f 680 712 713
f 745 713 712
f 712 744 745
f 777 745 744
f 744 776 777
f 809 777 776
f 776 808 809
f 841 809 808
f 808 840 841
f 873 841 840
f 840 872 873
f 905 873 872
f 872 904 905
f 937 905 904
f 904 936 937
f 969 937 936
f 936 968 969
f 1001 969 968
f 968 1000 1001
f 1033 1001 1000
f 1000 1032 1033
f 1065 1033 1032
f 1032 1064 1065
f 1097 1065 1064
f 1064 1096 1097
f 1129 1097 1096
f 1096 1128 1129
f 1161 1129 1128
f 1128 1160 1161
f 1193 1161 1160
f 1160 1192 1193
f 1225 1193 1192
f 1192 1224 1225
f 1257 1225 1224
f 1224 1256 1257
f 1289 1257 1256
f 1256 1288 1289
f 1321 1289 1288
f 1288 1320 1321
f 1353 1321 1320
f 1320 1352 1353
f 1385 1353 1352
f 1352 1384 1385
f 1417 1385 1384
f 1384 1416 1417
f 1449 1417 1416
f 1416 1448 1449
f 1481 1449 1448
f 1448 1480 1481
f 1513 1481 1480
f 1480 1512 1513
f 1545 1513 1512
f 1512 1544 1545
f 1577 1545 1544
f 1544 1576 1577
f 618 586 585
f 585 617 618
f 650 618 617
f 617 649 650
f 682 650 649
f 649 681 682
f 714 682 681
f 681 713 714
f 746 714 713
f 713 745 746
f 778 746 745
f 745 777 778
f 810 778 777
f 777 809 810
f 842 810 809
f 809 841 842
f 874 842 841
f 841 873 874
f 906 874 873
f 873 905 906
f 938 906 905
f 905 937 938
f 970 938 937
f 937 969 970
f 1002 970 969
f 969 1001 1002
f 1034 1002 1001
f 1001 1033 1034
f 1066 1034 1033
f 1033 1065 1066
f 1098 1066 1065
f 1065 1097 1098
f 1130 1098 1097
f 1097 1129 1130
f 1162 1130 1129
f 1129 1161 1162
f 1194 1162 1161
f 1161 1193 1194
f 1226 1194 1193
f 1193 1225 1226
f 1258 1226 1225
f 1225 1257 1258
f 1290 1258 1257
f 1257 1289 1290
f 1322 1290 1289
f 1289 1321 1322
f 1354 1322 1321
f 1321 1353 1354
f 1386 1354 1353
f 1353 1385 1386
f 1418 1386 1385
f 1385 1417 1418
f 1450 1418 1417
f 1417 1449 1450
f 1482 1450 1449
f 1449 1481 1482
f 1514 1482 1481
f 1481 1513 1514
f 1546 1514 1513
f 1513 1545 1546
f 1578 1546 1545
f 1545 1577 1578
f 619 587 586
f 586 618 619
f 651 619 618
f 618 650 651
f 683 651 650
f 650 682 683
f 715 683 682
f 682 714 715
f 747 715 714
f 714 746 747
f 779 747 746
f 746 778 779
f 811 779 778
f 778 810 811
f 843 811 810
f 810 842 843
f 875 843 842
f 842 874 875
f 907 875 874
f 874 906 907
f 939 907 906
f 906 938 939
f 971 939 938
f 938 970 971
f 1003 971 970
f 970 1002 1003
f 1035 1003 1002
f 1002 1034 1035
f 1067 1035 1034
f 1034 1066 1067
f 1099 1067 1066
f 1066 1098 1099
f 1131 1099 1098
f 1098 1130 1131
f 1163 1131 1130
f 1130 1162 1163
f 1195 1163 1162
f 1162 1194 1195
f 1227 1195 1194
f 1194 1226 1227
f 1259 1227 1226
f 1226 1258 1259
f 1291 1259 1258
f 1258 1290 1291
f 1323 1291 1290
f 1290 1322 1323
f 1355 1323 1322
f 1322 1354 1355
f 1387 1355 1354
f 1354 1386 1387
f 1419 1387 1386
f 1386 1418 1419
f 1451 1419 1418
f 1418 1450 1451
f 1483 1451 1450
f 1450 1482 1483
f 1515 1483 1482
f 1482 1514 1515
f 1547 1515 1514
f 1514 1546 1547
f 1579 1547 1546
f 1546 1578 1579
f 620 588 587
f 587 619 620
f 652 620 619
f 619 651 652
f 684 652 651
f 651 683 684
f 716 684 683
f 683 715 716
f 748 716 715
f 715 747 748
f 780 748 747
f 747 779 780
f 812 780 779
f 779 811 812
f 844 812 811
f 811 843 844
f 876 844 843
f 843 875 876
f 908 876 875
f 875 907 908
f 940 908 907
f 907 939 940
f 972 940 939
f 939 971 972
f 1004 972 971
f 971 1003 1004
f 1036 1004 1003
f 1003 1035 1036
f 1068 1036 1035
f 1035 1067 1068
f 1100 1068 1067
f 1067 1099 1100
f 1132 1100 1099
f 1099 1131 1132
f 1164 1132 1131
f 1131 1163 1164
f 1196 1164 1163
f 1163 1195 1196
f 1228 1196 1195
f 1195 1227 1228
f 1260 1228 1227
f 1227 1259 1260
f 1292 1260 1259
f 1259 1291 1292
f 1324 1292 1291
f 1291 1323 1324
f 1356 1324 1323
f 1323 1355 1356
f 1388 1356 1355
f 1355 1387 1388
f 1420 1388 1387
f 1387 1419 1420
f 1452 1420 1419
f 1419 1451 1452
f 1484 1452 1451
f 1451 1483 1484
f 1516 1484 1483
f 1483 1515 1516
f 1548 1516 1515
f 1515 1547 1548
f 1580 1548 1547
f 1547 1579 1580
f 621 589 588
f 588 620 621
f 653 621 620
f 620 652 653
f 685 653 652
f 652 684 685
f 717 685 684
f 684 716 717
f 749 717 716
f 716 748 749
f 781 749 748
f 748 780 781
f 813 781 780
f 780 812 813
f 845 813 812
f 812 844 845
f 877 845 844
f 844 876 877
f 909 877 876
f 876 908 909
f 941 909 908
f 908 940 941
f 973 941 940
f 940 972 973
f 1005 973 972
f 972 1004 1005
f 1037 1005 1004
f 1004 1036 1037
f 1069 1037 1036
f 1036 1068 1069
f 1101 1069 1068
f 1068 1100 1101
f 1133 1101 1100
f 1100 1132 1133
f 1165 1133 1132
f 1132 1164 1165
f 1197 1165 1164
f 1164 1196 1197
f 1229 1197 1196
f 1196 1228 1229
f 1261 1229 1228
f 1228 1260 1261
f 1293 1261 1260
f 1260 1292 1293
f 1325 1293 1292
f 1292 1324 1325
f 1357 1325 1324
f 1324 1356 1357
f 1389 1357 1356
f 1356 1388 1389
f 1421 1389 1388
f 1388 1420 1421
f 1453 1421 1420
f 1420 1452 1453
f 1485 1453 1452
f 1452 1484 1485
f 1517 1485 1484
f 1484 1516 1517
f 1549 1517 1516
f 1516 1548 1549
f 1581 1549 1548
f 1548 1580 1581
f 622 590 589
f 589 621 622
f 654 622 621
f 621 653 654
f 686 654 653
f 653 685 686
f 718 686 685
f 685 717 718
f 750 718 717
f 717 749 750
f 782 750 749
f 749 781 782
f 814 782 781
f 781 813 814
f 846 814 813
f 813 845 846
f 878 846 845
f 845 877 878
f 910 878 877
f 877 909 910
f 942 910 909
f 909 941 942
f 974 942 941
f 941 973 974
f 1006 974 973
f 973 1005 1006
f 1038 1006 1005
f 1005 1037 1038
f 1070 1038 1037
f 1037 1069 1070
f 1102 1070 1069
f 1069 1101 1102
f 1134 1102 1101
f 1101 1133 1134
f 1166 1134 1133
f 1133 1165 1166
f 1198 1166 1165
f 1165 1197 1198
f 1230 1198 1197
f 1197 1229 1230
f 1262 1230 1229
f 1229 1261 1262
f 1294 1262 1261
f 1261 1293 1294
f 1326 1294 1293
f 1293 1325 1326
f 1358 1326 1325
f 1325 1357 1358
f 1390 1358 1357
f 1357 1389 1390
f 1422 1390 1389
f 1389 1421 1422
f 1454 1422 1421
f 1421 1453 1454
f 1486 1454 1453
f 1453 1485 1486
f 1518 1486 1485
f 1485 1517 1518
f 1550 1518 1517
f 1517 1549 1550
f 1582 1550 1549
f 1549 1581 1582
f 623 591 590
f 590 622 623
f 655 623 622
f 622 654 655
f 687 655 654
f 654 686 687
f 719 687 686
f 686 718 719
f 751 719 718
f 718 750 751
f 783 751 750
f 750 782 783
f 815 783 782
f 782 814 815
f 847 815 814
f 814 846 847
f 879 847 846
f 846 878 879
f 911 879 878
f 878 910 911
f 943 911 910
f 910 942 943
f 975 943 942
f 942 974 975
f 1007 975 974
f 974 1006 1007
f 1039 1007 1006
f 1006 1038 1039
f 1071 1039 1038
f 1038 1070 1071
f 1103 1071 1070
f 1070 1102 1103
f 1135 1103 1102
f 1102 1134 1135
f 1167 1135 1134
f 1134 1166 1167
f 1199 1167 1166
f 1166 1198 1199
f 1231 1199 1198
f 1198 1230 1231
f 1263 1231 1230
f 1230 1262 1263
f 1295 1263 1262
f 1262 1294 1295
f 1327 1295 1294
f 1294 1326 1327
f 1359 1327 1326
f 1326 1358 1359
f 1391 1359 1358
f 1358 1390 1391
f 1423 1391 1390
f 1390 1422 1423
f 1455 1423 1422
f 1422 1454 1455
f 1487 1455 1454
f 1454 1486 1487
f 1519 1487 1486
f 1486 1518 1519
f 1551 1519 1518
f 1518 1550 1551
f 1583 1551 1550
f 1550 1582 1583
f 624 592 591
f 591 623 624
f 656 624 623
f 623 655 656
f 688 656 655
f 655 687 688
f 720 688 687
f 687 719 720
f 752 720 719
f 719 751 752
f 784 752 751
f 751 783 784
f 816 784 783
f 783 815 816
f 848 816 815
f 815 847 848
f 880 848 847
f 847 879 880
f 912 880 879
f 879 911 912
f 944 912 911
f 911 943 944
f 976 944 943
f 943 975 976
f 1008 976 975
f 975 1007 1008
f 1040 1008 1007
f 1007 1039 1040
f 1072 1040 1039
f 1039 1071 1072
f 1104 1072 1071
f 1071 1103 1104
f 1136 1104 1103
f 1103 1135 1136
f 1168 1136 1135
f 1135 1167 1168
f 1200 1168 1167
f 1167 1199 1200
f 1232 1200 1199
f 1199 1231 1232
f 1264 1232 1231
f 1231 1263 1264
f 1296 1264 1263
f 1263 1295 1296
f 1328 1296 1295
f 1295 1327 1328
f 1360 1328 1327
f 1327 1359 1360
f 1392 1360 1359
f 1359 1391 1392
f 1424 1392 1391
f 1391 1423 1424
f 1456 1424 1423
f 1423 1455 1456
f 1488 1456 1455
f 1455 1487 1488
f 1520 1488 1487
f 1487 1519 1520
f 1552 1520 1519
f 1519 1551 1552
f 1584 1552 1551
f 1551 1583 1584
f 625 593 592
f 592 624 625
f 657 625 624
f 624 656 657
f 689 657 656
f 656 688 689
f 721 689 688
f 688 720 721
f 753 721 720
f 720 752 753
f 785 753 752
f 752 784 785
f 817 785 784
f 784 816 817
f 849 817 816
f 816 848 849
f 881 849 848
f 848 880 881
f 913 881 880
f 880 912 913
f 945 913 912
f 912 944 945
f 977 945 944
f 944 976 977
f 1009 977 976
f 976 1008 1009
f 1041 1009 1008
f 1008 1040 1041
f 1073 1041 1040
f 1040 1072 1073
f 1105 1073 1072
f 1072 1104 1105
f 1137 1105 1104
f 1104 1136 1137
f 1169 1137 1136
f 1136 1168 1169
f 1201 1169 1168
f 1168 1200 1201
f 1233 1201 1200
f 1200 1232 1233
f 1265 1233 1232
f 1232 1264 1265
f 1297 1265 1264
f 1264 1296 1297
f 1329 1297 1296
f 1296 1328 1329
f 1361 1329 1328
f 1328 1360 1361
f 1393 1361 1360
f 1360 1392 1393
f 1425 1393 1392
f 1392 1424 1425
f 1457 1425 1424
f 1424 1456 1457
f 1489 1457 1456
f 1456 1488 1489
f 1521 1489 1488
f 1488 1520 1521
f 1553 1521 1520
f 1520 1552 1553
f 1585 1553 1552
f 1552 1584 1585
