v 7070.43 571.5 6442.81
v 7070.52 572.83 6441.73
v 7070.53 572.967 6441.91
v 7070.43 571.638 6442.98
v 7070.53 572.829 6441.73
v 7070.43 571.5 6442.81
v 7070.44 571.637 6442.98
v 7070.53 572.967 6441.91
v 7071.2 571.502 6442.63
v 7070.95 572.94 6441.73
v 7070.96 573.056 6441.92
v 7071.2 571.619 6442.81
v 7070.96 572.94 6441.73
v 7071.2 571.503 6442.63
v 7071.21 571.619 6442.81
v 7070.96 573.057 6441.92
v 7070.27 571.451 6443.35
v 7070.61 573.139 6441.67
v 7070.62 573.357 6441.88
v 7070.28 571.669 6443.57
v 7070.62 573.138 6441.67
v 7070.28 571.45 6443.35
v 7070.29 571.668 6443.57
v 7070.63 573.356 6441.88
v 7070.96 571.43 6443.69
v 7070.76 572.783 6441.71
v 7070.77 573.039 6441.88
v 7070.97 571.685 6443.87
v 7070.77 572.783 6441.71
v 7070.97 571.43 6443.69
v 7070.97 571.685 6443.87
v 7070.77 573.039 6441.88
v 7070.88 571.5 6437.62
v 7070.79 572.83 6438.69
v 7070.78 572.967 6438.52
v 7070.88 571.638 6437.45
v 7070.78 572.829 6438.69
v 7070.88 571.5 6437.62
v 7070.87 571.637 6437.45
v 7070.78 572.967 6438.52
v 7070.11 571.502 6437.79
v 7070.35 572.94 6438.69
v 7070.35 573.056 6438.5
v 7070.11 571.619 6437.61
v 7070.35 572.94 6438.69
v 7070.11 571.503 6437.79
v 7070.1 571.619 6437.61
v 7070.34 573.057 6438.5
v 7071.04 571.451 6437.07
v 7070.7 573.139 6438.76
v 7070.69 573.357 6438.54
v 7071.03 571.669 6436.85
v 7070.69 573.138 6438.76
v 7071.03 571.45 6437.07
v 7071.02 571.668 6436.85
v 7070.68 573.356 6438.54
v 7070.35 571.43 6436.73
v 7070.55 572.783 6438.71
v 7070.54 573.039 6438.54
v 7070.34 571.685 6436.55
v 7070.54 572.783 6438.71
v 7070.34 571.43 6436.73
v 7070.34 571.685 6436.56
v 7070.54 573.039 6438.54
v 7071.14 569.28 6444.45
v 7070.97 567.997 6444.98
v 7070.98 568.085 6445.3
v 7071.15 569.342 6444.77
v 7070.62 568 6445
v 7070.52 569.272 6444.62
v 7070.53 569.334 6444.95
v 7070.62 568.086 6445.32
v 7070.97 567.997 6444.98
v 7070.62 568 6445
v 7070.62 568.086 6445.32
v 7070.98 568.085 6445.3
v 7071.14 568.56 6444.35
v 7070.99 568.599 6445.63
v 7070.99 568.92 6445.55
v 7071.14 568.885 6444.29
v 7070.64 568.609 6445.64
v 7070.52 568.382 6444.37
v 7070.51 568.707 6444.32
v 7070.63 568.93 6445.56
v 7070.99 568.599 6445.63
v 7070.64 568.609 6445.64
v 7070.63 568.93 6445.56
v 7070.99 568.92 6445.55
v 7071.03 568.413 6444.32
v 7071.01 568.393 6445.57
v 7071 568.715 6445.64
v 7071.03 568.738 6444.38
v 7070.64 568.388 6445.58
v 7070.45 568.597 6444.32
v 7070.45 568.922 6444.37
v 7070.65 568.709 6445.66
v 7071.01 568.393 6445.57
v 7070.64 568.388 6445.58
v 7070.65 568.709 6445.66
v 7071 568.715 6445.64
v 7071.1 569.352 6444.88
v 7070.96 568.078 6444.67
v 7070.98 567.996 6444.99
v 7071.13 569.292 6445.2
v 7070.59 568.089 6444.7
v 7070.46 569.358 6444.94
v 7070.5 569.297 6445.27
v 7070.63 568.001 6445.02
v 7070.96 568.078 6444.67
v 7070.59 568.089 6444.7
v 7070.63 568.001 6445.02
v 7070.98 567.996 6444.99
v 7071.51 571.491 6444.51
v 7071.96 571.594 6444.09
v 7071.64 571.054 6444.73
v 7069.66 571.595 6436.09
v 7069.66 569.815 6436.01
v 7069.73 570.52 6435.7
v 7069.81 571.166 6435.78
v 7069.64 569.46 6441.43
v 7069.97 569.485 6441.04
v 7069.64 569.726 6440.95
v 7071.43 569.429 6445.34
v 7071.66 569.925 6445.18
v 7071.98 569.223 6444.98
v 7069.96 571.481 6435.83
v 7069.66 571.595 6436.09
v 7069.81 571.166 6435.78
v 7070.08 569.995 6435.61
v 7069.73 570.52 6435.7
v 7069.66 569.815 6436.01
v 7069.59 571.594 6444.27
v 7069.66 571.595 6436.09
v 7071.39 571.595 6436.09
v 7071.96 571.594 6444.09
v 7071.47 569.478 6441.1
v 7071.49 569.518 6440.5
v 7069.97 569.485 6441.04
v 7069.64 569.551 6440.04
v 7071.65 569.557 6439.89
v 7071.38 569.825 6435.8
v 7071.98 569.223 6444.98
v 7071.77 569.431 6441.81
v 7069.64 569.46 6441.43
v 7069.62 569.218 6445.12
v 7070.51 570.851 6435.62
v 7070.52 571.518 6435.88
v 7071.24 571.182 6435.74
v 7071.07 571.481 6435.79
v 7071.12 569.995 6435.58
v 7070.6 569.995 6435.68
v 7071.24 570.232 6435.61
v 7071.17 570.707 6435.68
v 7070.8 570.566 6445.06
v 7070.72 571.554 6444.47
v 7069.95 571.491 6444.56
v 7069.78 569.962 6445.22
v 7069.84 570.676 6444.89
v 7069.76 571.275 6444.65
v 7071.38 569.825 6435.8
v 7071.39 571.595 6436.09
v 7071.12 569.995 6435.58
v 7070.6 569.995 6435.68
v 7070.08 569.995 6435.61
v 7071.39 571.595 6436.09
v 7071.17 570.707 6435.68
v 7071.38 569.825 6435.8
v 7071.24 570.232 6435.61
v 7071.24 571.182 6435.74
v 7069.96 571.481 6435.83
v 7070.52 571.518 6435.88
v 7071.07 571.481 6435.79
v 7070.07 569.527 6445.39
v 7069.62 569.218 6445.12
v 7069.59 571.594 6444.27
v 7071.51 571.491 6444.51
v 7070.72 571.554 6444.47
v 7069.95 571.491 6444.56
v 7071.98 569.223 6444.98
v 7071.75 570.49 6444.91
v 7071.96 571.594 6444.09
v 7071.64 571.054 6444.73
v 7071.66 569.925 6445.18
v 7070.75 569.383 6445.26
v 7071.43 569.429 6445.34
v 7070.07 569.527 6445.39
v 7069.84 570.676 6444.89
v 7069.62 569.218 6445.12
v 7069.78 569.962 6445.22
v 7069.76 571.275 6444.65
v 7071.75 570.49 6444.91
v 7070.75 569.383 6445.26
v 7071.65 569.637 6439.94
v 7071.74 569.69 6441.21
v 7071.65 569.557 6439.89
v 7071.49 569.518 6440.5
v 7071.65 569.637 6439.94
v 7071.74 569.69 6441.21
v 7071.77 569.431 6441.81
v 7071.47 569.478 6441.1
v 7071.77 569.431 6441.81
v 7071.65 569.557 6439.89
v 7069.64 569.726 6440.95
v 7069.64 569.551 6440.04
v 7069.38 561.703 6442.94
v 7069.57 564.646 6444.65
v 7069.45 561.703 6445.42
v 7069.57 564.385 6445.05
v 7069.74 569.539 6442.74
v 7069.59 565.185 6444.38
v 7069.96 566.02 6444.82
v 7069.66 566.603 6444.75
v 7069.79 569.539 6444.35
v 7071.78 568.211 6442.71
v 7071.79 568.048 6442.8
v 7071.72 569.539 6442.68
v 7071.77 569.539 6444.29
v 7071.87 566.541 6443.01
v 7072.18 561.703 6445.33
v 7071.88 566.206 6442.75
v 7072.1 561.703 6442.86
v 7071.43 567.256 6442.74
v 7069.38 561.703 6442.94
v 7069.74 569.539 6442.74
v 7069.57 564.385 6445.05
v 7069.59 565.185 6444.38
v 7069.96 566.02 6444.82
v 7069.66 566.603 6444.75
v 7069.57 564.646 6444.65
v 7071.78 568.211 6442.71
v 7071.43 567.256 6442.74
v 7071.79 568.048 6442.8
v 7071.87 566.541 6443.01
v 7071.88 566.206 6442.75
v 7069.86 569.902 6436.19
v 7069.8 567.154 6437.28
v 7069.52 561.703 6434.95
v 7069.6 561.703 6437.4
v 7069.85 568.502 6437.44
v 7069.9 569.811 6437.55
v 7069.79 566.711 6437.49
v 7070.11 568.291 6437.51
v 7071.54 561.703 6437.33
v 7071.24 569.811 6437.5
v 7069.86 568.75 6437.53
v 7071.35 565.33 6435.71
v 7071.36 564.816 6435.37
v 7071.46 561.703 6434.89
v 7071.2 569.902 6436.15
v 7071.04 566.3 6435.6
v 7071.09 564.977 6435.4
v 7071.35 565.33 6435.71
v 7071.09 564.977 6435.4
v 7069.52 561.703 6434.95
v 7069.86 569.902 6436.19
v 7071.04 566.3 6435.6
v 7071.27 567.723 6435.81
v 7071.27 567.723 6435.81
v 7071.36 564.816 6435.37
v 7071.17 571.537 6441.07
v 7071.54 571.537 6441.6
v 7071.01 571.914 6441.36
v 7071.06 571.999 6441.52
v 7070.49 572.103 6441.77
v 7070.41 572.019 6441.51
v 7071.06 571.999 6441.52
v 7071.01 571.914 6441.36
v 7070.41 572.019 6441.51
v 7070.49 572.103 6441.77
v 7069.92 571.537 6441.37
v 7070.02 571.537 6442.31
v 7069.92 571.537 6441.37
v 7070.49 572.103 6441.77
v 7069.92 571.537 6441.37
v 7071.17 571.537 6441.07
v 7070.41 572.019 6441.51
v 7071.01 571.914 6441.36
v 7071.54 571.537 6441.6
v 7070.02 571.537 6442.31
v 7071.06 571.999 6441.52
v 7070.49 572.103 6441.77
v 7070.81 571.418 6440.49
v 7071.1 571.804 6440.37
v 7071.29 571.418 6440.55
v 7071.1 571.804 6440.37
v 7071.09 571.848 6440.04
v 7071.29 571.917 6440.11
v 7071.56 571.418 6439.97
v 7071.29 571.917 6440.11
v 7070.93 571.418 6439.67
v 7070.93 571.418 6439.67
v 7071.29 571.917 6440.11
v 7071.09 571.848 6440.04
v 7071.1 571.804 6440.37
v 7071.29 571.917 6440.11
v 7071.29 571.418 6440.55
v 7071.29 571.917 6440.11
v 7071.56 571.418 6439.97
v 7071.29 571.418 6440.55
v 7070.93 571.418 6439.67
v 7071.09 571.848 6440.04
v 7070.81 571.418 6440.49
v 7071.1 571.804 6440.37
v 7070.95 571.537 6439.28
v 7070.83 572.045 6438.88
v 7071.09 571.537 6438.66
v 7070.83 572.045 6438.88
v 7070.4 572.103 6438.85
v 7070.51 572.195 6438.59
v 7070.37 571.537 6438.23
v 7070.51 572.195 6438.59
v 7069.88 571.537 6439.02
v 7069.88 571.537 6439.02
v 7070.51 572.195 6438.59
v 7070.4 572.103 6438.85
v 7070.83 572.045 6438.88
v 7070.51 572.195 6438.59
v 7071.09 571.537 6438.66
v 7070.51 572.195 6438.59
v 7070.37 571.537 6438.23
v 7071.09 571.537 6438.66
v 7069.88 571.537 6439.02
v 7070.4 572.103 6438.85
v 7070.95 571.537 6439.28
v 7070.83 572.045 6438.88
v 7070.48 571.418 6440.47
v 7070.2 571.804 6440.62
v 7070 571.418 6440.45
v 7070.2 571.804 6440.62
v 7070.23 571.848 6440.94
v 7070.02 571.917 6440.89
v 7069.77 571.418 6441.05
v 7070.02 571.917 6440.89
v 7070.42 571.418 6441.3
v 7070.42 571.418 6441.3
v 7070.02 571.917 6440.89
v 7070.23 571.848 6440.94
v 7070.2 571.804 6440.62
v 7070.02 571.917 6440.89
v 7070 571.418 6440.45
v 7070.02 571.917 6440.89
v 7069.77 571.418 6441.05
v 7070 571.418 6440.45
v 7070.42 571.418 6441.3
v 7070.23 571.848 6440.94
v 7070.48 571.418 6440.47
v 7070.2 571.804 6440.62
v 7070.28 573.575 6438.69
v 7070.93 573.575 6438.67
v 7070.94 574.112 6439.03
v 7070.29 574.112 6439.05
v 7070.96 574.472 6439.57
v 7070.31 574.472 6439.59
v 7070.98 574.598 6440.2
v 7070.33 574.598 6440.22
v 7071 574.472 6440.84
v 7070.35 574.472 6440.85
v 7071.02 574.112 6441.37
v 7070.37 574.112 6441.39
v 7071.03 573.575 6441.73
v 7070.38 573.575 6441.75
v 7071.03 572.941 6441.86
v 7070.38 572.941 6441.88
v 7071.03 572.307 6441.73
v 7070.38 572.307 6441.75
v 7071.02 571.769 6441.37
v 7070.37 571.769 6441.39
v 7070.98 571.284 6440.2
v 7070.33 571.284 6440.22
v 7070.94 571.769 6439.03
v 7070.29 571.769 6439.05
v 7070.93 572.307 6438.67
v 7070.28 572.307 6438.69
v 7070.93 572.941 6438.55
v 7070.28 572.941 6438.57
v 7070.93 573.575 6438.67
v 7070.28 573.575 6438.69
v 7070.29 574.112 6439.05
v 7069.97 572.941 6440.23
v 7070.28 573.575 6438.69
v 7070.31 574.472 6439.59
v 7070.33 574.598 6440.22
v 7070.35 574.472 6440.85
v 7070.37 574.112 6441.39
v 7070.38 573.575 6441.75
v 7070.38 572.941 6441.88
v 7070.38 572.307 6441.75
v 7070.37 571.769 6441.39
v 7070.33 571.284 6440.22
v 7070.29 571.769 6439.05
v 7070.28 572.307 6438.69
v 7070.28 572.941 6438.57
v 7070.93 573.575 6438.67
v 7071.34 572.941 6440.19
v 7070.94 574.112 6439.03
v 7070.96 574.472 6439.57
v 7070.98 574.598 6440.2
v 7071 574.472 6440.84
v 7071.02 574.112 6441.37
v 7071.03 573.575 6441.73
v 7071.03 572.941 6441.86
v 7071.03 572.307 6441.73
v 7071.02 571.769 6441.37
v 7070.98 571.284 6440.2
v 7070.94 571.769 6439.03
v 7070.93 572.307 6438.67
v 7070.93 572.941 6438.55
v 7070.61 568.941 6444.47
v 7070.96 568.941 6444.46
v 7070.96 569.169 6444.69
v 7070.62 569.169 6444.7
v 7070.97 569.253 6445
v 7070.63 569.253 6445.01
v 7070.98 569.169 6445.31
v 7070.64 569.169 6445.32
v 7070.99 568.941 6445.54
v 7070.65 568.941 6445.55
v 7070.99 568.63 6445.62
v 7070.65 568.63 6445.63
v 7070.99 568.319 6445.54
v 7070.65 568.319 6445.55
v 7070.98 568.091 6445.31
v 7070.64 568.091 6445.32
v 7070.97 568.007 6445
v 7070.63 568.007 6445.01
v 7070.96 568.091 6444.69
v 7070.62 568.091 6444.7
v 7070.96 568.319 6444.46
v 7070.61 568.319 6444.47
v 7070.95 568.63 6444.38
v 7070.61 568.63 6444.39
v 7070.96 568.941 6444.46
v 7070.61 568.941 6444.47
v 7070.62 569.169 6444.7
v 7070.6 568.63 6445.01
v 7070.61 568.941 6444.47
v 7070.63 569.253 6445.01
v 7070.64 569.169 6445.32
v 7070.65 568.941 6445.55
v 7070.65 568.63 6445.63
v 7070.65 568.319 6445.55
v 7070.64 568.091 6445.32
v 7070.63 568.007 6445.01
v 7070.62 568.091 6444.7
v 7070.61 568.319 6444.47
v 7070.61 568.63 6444.39
v 7070.96 568.941 6444.46
v 7071 568.63 6445
v 7070.96 569.169 6444.69
v 7070.97 569.253 6445
v 7070.98 569.169 6445.31
v 7070.99 568.941 6445.54
v 7070.99 568.63 6445.62
v 7070.99 568.319 6445.54
v 7070.98 568.091 6445.31
v 7070.97 568.007 6445
v 7070.96 568.091 6444.69
v 7070.96 568.319 6444.46
v 7070.95 568.63 6444.38
v 7070.89 561.654 6439.91
v 7070.89 561.778 6439.91
v 7070.69 561.654 6439.91
v 7070.69 561.778 6439.91
v 7070.84 561.831 6439.96
v 7070.84 561.831 6440.07
v 7070.74 561.831 6439.96
v 7070.74 561.831 6440.07
v 7070.89 561.778 6440.11
v 7070.89 561.654 6440.11
v 7070.69 561.778 6440.11
v 7070.69 561.654 6440.11
v 7070.89 561.654 6440.11
v 7070.89 561.654 6439.91
v 7070.69 561.654 6440.11
v 7070.69 561.654 6439.91
v 7070.69 561.654 6439.91
v 7070.69 561.778 6439.91
v 7070.69 561.654 6440.11
v 7070.69 561.778 6440.11
v 7070.89 561.654 6440.11
v 7070.89 561.778 6440.11
v 7070.89 561.654 6439.91
v 7070.89 561.778 6439.91
v 7070.59 561.783 6439.81
v 7070.69 561.778 6439.91
v 7070.99 561.783 6439.81
v 7070.89 561.778 6439.91
v 7070.59 561.783 6440.21
v 7070.69 561.778 6440.11
v 7070.59 561.783 6439.81
v 7070.69 561.778 6439.91
v 7070.99 561.783 6440.21
v 7070.89 561.778 6440.11
v 7070.59 561.783 6440.21
v 7070.69 561.778 6440.11
v 7070.99 561.783 6439.81
v 7070.89 561.778 6439.91
v 7070.99 561.783 6440.21
v 7070.89 561.778 6440.11
v 7070.99 561.783 6439.81
v 7070.85 561.846 6439.95
v 7070.59 561.783 6439.81
v 7070.73 561.846 6439.95
v 7070.59 561.783 6439.81
v 7070.73 561.846 6439.95
v 7070.59 561.783 6440.21
v 7070.73 561.846 6440.08
v 7070.59 561.783 6440.21
v 7070.73 561.846 6440.08
v 7070.99 561.783 6440.21
v 7070.85 561.846 6440.08
v 7070.99 561.783 6440.21
v 7070.85 561.846 6440.08
v 7070.99 561.783 6439.81
v 7070.85 561.846 6439.95
v 7070.85 561.846 6439.95
v 7070.84 561.831 6439.96
v 7070.73 561.846 6439.95
v 7070.74 561.831 6439.96
v 7070.73 561.846 6439.95
v 7070.74 561.831 6439.96
v 7070.73 561.846 6440.08
v 7070.74 561.831 6440.07
v 7070.73 561.846 6440.08
v 7070.74 561.831 6440.07
v 7070.85 561.846 6440.08
v 7070.84 561.831 6440.07
v 7070.85 561.846 6440.08
v 7070.84 561.831 6440.07
v 7070.85 561.846 6439.95
v 7070.84 561.831 6439.96
v 7038 528.967 6472
v 7038 528.888 6470
v 7038 529.016 6468
v 7038 529.317 6466
v 7038 529.746 6464
v 7038 530.247 6462
v 7038 530.759 6460
v 7038 531.208 6458
v 7038 530.916 6456
v 7038 529.571 6454
v 7038 528.517 6452
v 7038 527.725 6450
v 7038 527.167 6448
v 7038 526.815 6446
v 7038 526.64 6444
v 7038 526.612 6442
v 7038 526.701 6440
v 7038 525.867 6438
v 7038 524.958 6436
v 7038 524.107 6434
v 7038 523.345 6432
v 7038 522.704 6430
v 7038 522.216 6428
v 7038 521.914 6426
v 7038 521.831 6424
v 7038 521.999 6422
v 7038 522.451 6420
v 7038 523.222 6418
v 7038 524.308 6416
v 7038 524.846 6414
v 7038 524.414 6412
v 7038 524.255 6410
v 7040 531.725 6472
v 7040 531.681 6470
v 7040 531.85 6468
v 7040 532.195 6466
v 7040 532.672 6464
v 7040 533.228 6462
v 7040 533.8 6460
v 7040 533.409 6458
v 7040 531.787 6456
v 7040 530.481 6454
v 7040 529.464 6452
v 7040 528.707 6450
v 7040 528.183 6448
v 7040 527.863 6446
v 7040 527.719 6444
v 7040 527.72 6442
v 7040 527.837 6440
v 7040 528.041 6438
v 7040 528.299 6436
v 7040 527.831 6434
v 7040 527.097 6432
v 7040 526.481 6430
v 7040 526.014 6428
v 7040 525.73 6426
v 7040 525.662 6424
v 7040 525.843 6422
v 7040 526.306 6420
v 7040 527.085 6418
v 7040 526.928 6416
v 7040 526.216 6414
v 7040 525.834 6412
v 7040 525.748 6410
v 7042 534.543 6472
v 7042 534.481 6470
v 7042 534.637 6468
v 7042 534.977 6466
v 7042 535.459 6464
v 7042 536.033 6462
v 7042 536.426 6460
v 7042 534.587 6458
v 7042 533.013 6456
v 7042 531.753 6454
v 7042 530.779 6452
v 7042 530.065 6450
v 7042 529.582 6448
v 7042 529.302 6446
v 7042 529.198 6444
v 7042 529.238 6442
v 7042 529.395 6440
v 7042 529.637 6438
v 7042 529.934 6436
v 7042 530.255 6434
v 7042 530.432 6432
v 7042 529.82 6430
v 7042 529.354 6428
v 7042 529.067 6426
v 7042 528.992 6424
v 7042 529.164 6422
v 7042 529.617 6420
v 7042 529.77 6418
v 7042 528.858 6416
v 7042 528.177 6414
v 7042 527.844 6412
v 7042 527.824 6410
v 7044 537.392 6472
v 7044 537.268 6470
v 7044 537.371 6468
v 7044 537.67 6466
v 7044 538.127 6464
v 7044 538.696 6462
v 7044 537.831 6460
v 7044 536.049 6458
v 7044 534.517 6456
v 7044 533.297 6454
v 7044 532.363 6452
v 7044 531.687 6450
v 7044 531.245 6448
v 7044 531.007 6446
v 7044 530.946 6444
v 7044 531.032 6442
v 7044 531.237 6440
v 7044 531.529 6438
v 7044 531.879 6436
v 7044 532.254 6434
v 7044 532.623 6432
v 7044 532.838 6430
v 7044 532.344 6428
v 7044 532.026 6426
v 7044 531.917 6424
v 7044 532.054 6422
v 7044 532.471 6420
v 7044 532.171 6418
v 7044 531.287 6416
v 7044 530.64 6414
v 7044 530.353 6412
v 7044 530.389 6410
v 7046 540.209 6472
v 7046 539.996 6470
v 7046 540.02 6468
v 7046 540.255 6466
v 7046 540.669 6464
v 7046 541.216 6462
v 7046 539.512 6460
v 7046 537.783 6458
v 7046 536.288 6456
v 7046 535.102 6454
v 7046 534.201 6452
v 7046 533.559 6450
v 7046 533.152 6448
v 7046 532.953 6446
v 7046 532.934 6444
v 7046 533.067 6442
v 7046 533.323 6440
v 7046 533.672 6438
v 7046 534.082 6436
v 7046 534.521 6434
v 7046 534.957 6432
v 7046 535.355 6430
v 7046 535.06 6428
v 7046 534.688 6426
v 7046 534.524 6424
v 7046 534.603 6422
v 7046 534.964 6420
v 7046 534.949 6418
v 7046 534.103 6416
v 7046 533.492 6414
v 7046 533.246 6412
v 7046 533.325 6410
v 7048 542.944 6472
v 7048 542.629 6470
v 7048 542.562 6468
v 7048 542.722 6466
v 7048 543.081 6464
v 7048 543.116 6462
v 7048 541.453 6460
v 7048 539.775 6458
v 7048 538.311 6456
v 7048 537.151 6454
v 7048 536.276 6452
v 7048 535.66 6450
v 7048 535.282 6448
v 7048 535.115 6446
v 7048 535.133 6444
v 7048 535.31 6442
v 7048 535.615 6440
v 7048 536.018 6438
v 7048 536.49 6436
v 7048 536.996 6434
v 7048 537.504 6432
v 7048 537.978 6430
v 7048 537.569 6428
v 7048 537.13 6426
v 7048 536.893 6424
v 7048 536.899 6422
v 7048 537.188 6420
v 7048 537.801 6418
v 7048 537.2 6416
v 7048 536.626 6414
v 7048 536.411 6412
v 7048 536.518 6410
v 7050 545.56 6472
v 7050 545.144 6470
v 7050 544.985 6468
v 7050 545.068 6466
v 7050 545.369 6464
v 7050 545.211 6462
v 7050 543.637 6460
v 7050 542.005 6458
v 7050 540.565 6456
v 7050 539.425 6454
v 7050 538.567 6452
v 7050 537.968 6450
v 7050 537.609 6448
v 7050 537.466 6446
v 7050 537.513 6444
v 7050 537.725 6442
v 7050 538.073 6440
v 7050 538.527 6438
v 7050 539.056 6436
v 7050 539.627 6434
v 7050 540.207 6432
v 7050 540.614 6430
v 7050 539.94 6428
v 7050 539.422 6426
v 7050 539.103 6424
v 7050 539.024 6422
v 7050 539.229 6420
v 7050 539.763 6418
v 7050 540.483 6416
v 7050 539.943 6414
v 7050 539.749 6412
v 7050 539.867 6410
v 7052 548.03 6472
v 7052 547.523 6470
v 7052 547.28 6468
v 7052 547.293 6466
v 7052 547.542 6464
v 7052 547.529 6462
v 7052 546.038 6460
v 7052 544.448 6458
v 7052 543.027 6456
v 7052 541.899 6454
v 7052 541.048 6452
v 7052 540.456 6450
v 7052 540.106 6448
v 7052 539.974 6446
v 7052 540.04 6444
v 7052 540.276 6442
v 7052 540.657 6440
v 7052 541.152 6438
v 7052 541.731 6436
v 7052 542.36 6434
v 7052 543.005 6432
v 7052 542.979 6430
v 7052 542.231 6428
v 7052 541.631 6426
v 7052 541.223 6424
v 7052 541.052 6422
v 7052 541.165 6420
v 7052 541.611 6418
v 7052 542.399 6416
v 7052 543.04 6414
v 7052 543.165 6412
v 7052 543.276 6410
v 7054 550.342 6472
v 7054 549.763 6470
v 7054 549.454 6468
v 7054 549.409 6466
v 7054 549.617 6464
v 7054 550.047 6462
v 7054 548.629 6460
v 7054 547.075 6458
v 7054 545.668 6456
v 7054 544.544 6454
v 7054 543.691 6452
v 7054 543.096 6450
v 7054 542.741 6448
v 7054 542.61 6446
v 7054 542.68 6444
v 7054 542.928 6442
v 7054 543.329 6440
v 7054 543.853 6438
v 7054 544.469 6436
v 7054 545.146 6434
v 7054 545.846 6432
v 7054 545.32 6430
v 7054 544.499 6428
v 7054 543.817 6426
v 7054 543.319 6424
v 7054 543.053 6422
v 7054 543.07 6420
v 7054 543.422 6418
v 7054 544.124 6416
v 7054 544.7 6414
v 7054 545.016 6412
v 7054 545.098 6410
v 7056 552.494 6472
v 7056 551.868 6470
v 7056 551.515 6468
v 7056 551.434 6466
v 7056 551.615 6464
v 7056 552.045 6462
v 7056 551.376 6460
v 7056 549.853 6458
v 7056 548.455 6456
v 7056 547.327 6454
v 7056 546.463 6452
v 7056 545.853 6450
v 7056 545.483 6448
v 7056 545.337 6446
v 7056 545.398 6444
v 7056 545.644 6442
v 7056 546.049 6440
v 7056 546.587 6438
v 7056 547.227 6436
v 7056 547.937 6434
v 7056 548.656 6432
v 7056 547.685 6430
v 7056 546.796 6428
v 7056 546.035 6426
v 7056 545.449 6424
v 7056 545.09 6422
v 7056 545.01 6420
v 7056 545.265 6418
v 7056 545.875 6416
v 7056 546.387 6414
v 7056 546.669 6412
v 7056 546.738 6410
v 7058 554.496 6472
v 7058 553.855 6470
v 7058 553.485 6468
v 7058 553.389 6466
v 7058 553.562 6464
v 7058 553.994 6462
v 7058 554.24 6460
v 7058 552.742 6458
v 7058 551.348 6456
v 7058 550.21 6454
v 7058 549.326 6452
v 7058 548.69 6450
v 7058 548.292 6448
v 7058 548.119 6446
v 7058 548.156 6444
v 7058 548.383 6442
v 7058 548.778 6440
v 7058 549.313 6438
v 7058 549.96 6436
v 7058 550.686 6434
v 7058 551.133 6432
v 7058 550.115 6430
v 7058 549.167 6428
v 7058 548.334 6426
v 7058 547.667 6424
v 7058 547.217 6422
v 7058 547.042 6420
v 7058 547.2 6418
v 7058 547.718 6416
v 7058 548.168 6414
v 7058 548.42 6412
v 7058 548.489 6410
v 7060 556.373 6472
v 7060 555.749 6470
v 7060 555.392 6468
v 7060 555.306 6466
v 7060 555.491 6464
v 7060 555.94 6462
v 7060 556.64 6460
v 7060 555.701 6458
v 7060 554.307 6456
v 7060 553.154 6454
v 7060 552.242 6452
v 7060 551.57 6450
v 7060 551.132 6448
v 7060 550.919 6446
v 7060 550.917 6444
v 7060 551.11 6442
v 7060 551.477 6440
v 7060 551.992 6438
v 7060 552.629 6436
v 7060 553.354 6434
v 7060 553.705 6432
v 7060 552.653 6430
v 7060 551.655 6428
v 7060 550.76 6426
v 7060 550.019 6424
v 7060 549.487 6422
v 7060 549.221 6420
v 7060 549.285 6418
v 7060 549.71 6416
v 7060 550.1 6414
v 7060 550.329 6412
v 7060 550.405 6410
v 7062 558.158 6472
v 7062 557.585 6470
v 7062 557.272 6468
v 7062 557.223 6466
v 7062 557.441 6464
v 7062 557.921 6462
v 7062 558.654 6460
v 7062 558.682 6458
v 7062 557.285 6456
v 7062 556.11 6454
v 7062 555.163 6452
v 7062 554.447 6450
v 7062 553.959 6448
v 7062 553.693 6446
v 7062 553.639 6444
v 7062 553.783 6442
v 7062 554.106 6440
v 7062 554.585 6438
v 7062 555.192 6436
v 7062 555.898 6434
v 7062 556.404 6432
v 7062 555.331 6430
v 7062 554.297 6428
v 7062 553.352 6426
v 7062 552.548 6424
v 7062 551.941 6422
v 7062 551.593 6420
v 7062 551.568 6418
v 7062 551.903 6416
v 7062 552.235 6414
v 7062 552.446 6412
v 7062 552.535 6410
v 7064 559.899 6472
v 7064 559.411 6470
v 7064 559.17 6468
v 7064 559.185 6466
v 7064 559.456 6464
v 7064 559.982 6462
v 7064 560.754 6460
v 7064 561.633 6458
v 7064 560.231 6456
v 7064 559.031 6454
v 7064 558.044 6452
v 7064 557.276 6450
v 7064 556.729 6448
v 7064 556.4 6446
v 7064 556.282 6444
v 7064 556.364 6442
v 7064 556.627 6440
v 7064 557.053 6438
v 7064 557.614 6436
v 7064 558.281 6434
v 7064 559.019 6432
v 7064 558.181 6430
v 7064 557.125 6428
v 7064 556.143 6426
v 7064 555.289 6424
v 7064 554.62 6422
v 7064 554.199 6420
v 7064 554.091 6418
v 7064 554.34 6416
v 7064 554.619 6414
v 7064 554.813 6412
v 7064 554.918 6410
v 7066 561.656 6472
v 7066 561.282 6470
v 7066 561.141 6468
v 7066 561.242 6466
v 7066 561.586 6464
v 7066 562.17 6462
v 7066 562.988 6460
v 7066 564.022 6458
v 7066 563.088 6456
v 7066 561.86 6454
v 7066 560.83 6452
v 7066 560.006 6450
v 7066 559.393 6448
v 7066 558.994 6446
v 7066 558.802 6444
v 7066 558.809 6442
v 7066 559.001 6440
v 7066 559.358 6438
v 7066 559.856 6436
v 7066 560.467 6434
v 7066 561.157 6432
v 7066 561.231 6430
v 7066 560.167 6428
v 7066 559.163 6426
v 7066 558.272 6424
v 7066 557.554 6422
v 7066 557.07 6420
v 7066 556.89 6418
v 7066 557.06 6416
v 7066 557.288 6414
v 7066 557.466 6412
v 7066 556.55 6410
v 7068 563.499 6472
v 7068 563.264 6470
v 7068 563.247 6468
v 7068 563.454 6466
v 7068 563.886 6464
v 7068 564.541 6462
v 7068 565.409 6460
v 7068 566.475 6458
v 7068 565.797 6456
v 7068 564.542 6454
v 7068 563.466 6452
v 7068 562.584 6450
v 7068 561.903 6448
v 7068 561.428 6446
v 7068 561.155 6444
v 7068 561.079 6442
v 7068 561.188 6440
v 7068 561.464 6438
v 7068 561.885 6436
v 7068 562.425 6434
v 7068 563.049 6432
v 7068 563.722 6430
v 7068 563.446 6428
v 7068 562.434 6426
v 7068 561.522 6424
v 7068 560.769 6422
v 7068 560.237 6420
v 7068 559.995 6418
v 7068 560.094 6416
v 7068 559.637 6414
v 7068 558.564 6412
v 7068 557.448 6410
v 7070 565.513 6472
v 7070 565.436 6470
v 7070 565.558 6468
v 7070 565.886 6466
v 7070 566.418 6464
v 7070 567.151 6462
v 7070 568.073 6460
v 7070 569.167 6458
v 7070 568.293 6456
v 7070 567.012 6454
v 7070 565.893 6452
v 7070 564.953 6450
v 7070 564.204 6448
v 7070 563.651 6446
v 7070 563.295 6444
v 7070 563.131 6442
v 7070 563.15 6440
v 7070 563.336 6438
v 7070 563.668 6436
v 7070 564.122 6434
v 7070 564.665 6432
v 7070 565.262 6430
v 7070 565.872 6428
v 7070 565.975 6426
v 7070 565.057 6424
v 7070 564.284 6422
v 7070 563.718 6420
v 7070 562.862 6418
v 7070 561.78 6416
v 7070 560.79 6414
v 7070 559.795 6412
v 7070 558.777 6410
v 7072 567.792 6472
v 7072 567.881 6470
v 7072 568.153 6468
v 7072 568.61 6466
v 7072 569.249 6464
v 7072 570.063 6462
v 7072 571.039 6460
v 7072 571.934 6458
v 7072 570.507 6456
v 7072 569.202 6454
v 7072 568.045 6452
v 7072 567.053 6450
v 7072 566.239 6448
v 7072 565.611 6446
v 7072 565.173 6444
v 7072 564.921 6442
v 7072 564.847 6440
v 7072 564.937 6438
v 7072 565.173 6436
v 7072 565.531 6434
v 7072 565.98 6432
v 7072 566.487 6430
v 7072 567.01 6428
v 7072 567.505 6426
v 7072 567.921 6424
v 7072 567.317 6422
v 7072 565.711 6420
v 7072 564.367 6418
v 7072 563.337 6416
v 7072 562.127 6414
v 7072 560.496 6412
v 7072 558.873 6410
v 7074 570.195 6472
v 7074 570.441 6470
v 7074 570.853 6468
v 7074 571.429 6466
v 7074 572.165 6464
v 7074 573.048 6462
v 7074 574.064 6460
v 7074 574.116 6458
v 7074 572.697 6456
v 7074 571.384 6454
v 7074 570.201 6452
v 7074 569.168 6450
v 7074 568.299 6448
v 7074 567.605 6446
v 7074 567.089 6444
v 7074 566.749 6442
v 7074 566.581 6440
v 7074 566.571 6438
v 7074 566.702 6436
v 7074 566.953 6434
v 7074 567.296 6432
v 7074 567.697 6430
v 7074 567.773 6428
v 7074 567.228 6426
v 7074 566.618 6424
v 7074 565.886 6422
v 7074 564.974 6420
v 7074 563.816 6418
v 7074 562.36 6416
v 7074 560.806 6414
v 7074 559.241 6412
v 7074 557.682 6410
v 7076 572.339 6472
v 7076 572.714 6470
v 7076 573.237 6468
v 7076 573.903 6466
v 7076 574.702 6464
v 7076 575.621 6462
v 7076 576.641 6460
v 7076 576.775 6458
v 7076 575.398 6456
v 7076 574.104 6454
v 7076 572.919 6452
v 7076 571.865 6450
v 7076 570.957 6448
v 7076 570.205 6446
v 7076 569.617 6444
v 7076 569.192 6442
v 7076 568.926 6440
v 7076 568.808 6438
v 7076 568.825 6436
v 7076 568.713 6434
v 7076 568.043 6432
v 7076 567.444 6430
v 7076 566.88 6428
v 7076 566.311 6426
v 7076 565.689 6424
v 7076 564.963 6422
v 7076 564.078 6420
v 7076 562.969 6418
v 7076 561.59 6416
v 7076 560.116 6414
v 7076 558.629 6412
v 7076 557.142 6410
v 7078 574.318 6472
v 7078 574.795 6470
v 7078 575.4 6468
v 7078 576.126 6466
v 7078 576.959 6464
v 7078 577.882 6462
v 7078 578.872 6460
v 7078 579.796 6458
v 7078 578.488 6456
v 7078 577.239 6454
v 7078 576.076 6452
v 7078 575.02 6450
v 7078 574.088 6448
v 7078 573.292 6446
v 7078 572.64 6444
v 7078 572.134 6442
v 7078 571.387 6440
v 7078 570.294 6438
v 7078 569.344 6436
v 7078 568.518 6434
v 7078 567.796 6432
v 7078 567.148 6430
v 7078 566.542 6428
v 7078 565.941 6426
v 7078 565.304 6424
v 7078 564.582 6422
v 7078 563.724 6420
v 7078 562.673 6418
v 7078 561.382 6416
v 7078 560.004 6414
v 7078 558.606 6412
v 7078 557.202 6410
v 7080 576.219 6472
v 7080 576.771 6470
v 7080 577.433 6468
v 7080 578.192 6466
v 7080 579.032 6464
v 7080 579.931 6462
v 7080 580.862 6460
v 7080 581.796 6458
v 7080 581.84 6456
v 7080 580.659 6454
v 7080 579.539 6452
v 7080 578.5 6450
v 7080 577.56 6448
v 7080 576.075 6446
v 7080 574.499 6444
v 7080 573.074 6442
v 7080 571.8 6440
v 7080 570.67 6438
v 7080 569.674 6436
v 7080 568.798 6434
v 7080 568.023 6432
v 7080 567.325 6430
v 7080 566.675 6428
v 7080 566.042 6426
v 7080 565.387 6424
v 7080 564.67 6422
v 7080 563.842 6420
v 7080 562.855 6418
v 7080 561.664 6416
v 7080 560.395 6414
v 7080 559.103 6412
v 7080 557.794 6410
v 7082 578.117 6472
v 7082 578.722 6470
v 7082 579.417 6468
v 7082 580.186 6466
v 7082 581.008 6464
v 7082 581.859 6462
v 7082 582.707 6460
v 7082 583.521 6458
v 7082 584.299 6456
v 7082 584.227 6454
v 7082 582.23 6452
v 7082 580.321 6450
v 7082 578.518 6448
v 7082 576.834 6446
v 7082 575.278 6444
v 7082 573.855 6442
v 7082 572.567 6440
v 7082 571.41 6438
v 7082 570.377 6436
v 7082 569.457 6434
v 7082 568.634 6432
v 7082 567.89 6430
v 7082 567.199 6428
v 7082 566.534 6426
v 7082 565.865 6424
v 7082 565.154 6422
v 7082 564.362 6420
v 7082 563.444 6418
v 7082 562.363 6416
v 7082 561.217 6414
v 7082 560.044 6412
v 7082 558.847 6410
v 7084 580.077 6472
v 7084 580.714 6470
v 7084 581.421 6468
v 7084 582.179 6466
v 7084 582.963 6464
v 7084 583.745 6462
v 7084 584.341 6460
v 7084 584.009 6458
v 7084 583.678 6456
v 7084 583.36 6454
v 7084 582.956 6452
v 7084 581.15 6450
v 7084 579.427 6448
v 7084 577.801 6446
v 7084 576.283 6444
v 7084 574.878 6442
v 7084 573.591 6440
v 7084 572.42 6438
v 7084 571.361 6436
v 7084 570.406 6434
v 7084 569.544 6432
v 7084 568.759 6430
v 7084 568.033 6428
v 7084 567.343 6426
v 7084 566.663 6424
v 7084 565.964 6422
v 7084 565.212 6420
v 7084 564.37 6418
v 7084 563.406 6416
v 7084 562.393 6414
v 7084 561.355 6412
v 7084 560.289 6410
v 7086 582.149 6472
v 7086 582.799 6470
v 7086 583.5 6468
v 7086 584.177 6466
v 7086 583.804 6464
v 7086 583.443 6462
v 7086 583.059 6460
v 7086 582.61 6458
v 7086 582.166 6456
v 7086 581.758 6454
v 7086 581.362 6452
v 7086 580.957 6450
v 7086 580.432 6448
v 7086 578.882 6446
v 7086 577.419 6444
v 7086 576.049 6442
v 7086 574.778 6440
v 7086 573.608 6438
v 7086 572.536 6436
v 7086 571.559 6434
v 7086 570.668 6432
v 7086 569.853 6430
v 7086 569.1 6428
v 7086 568.391 6426
v 7086 567.708 6424
v 7086 567.026 6422
v 7086 566.32 6420
v 7086 565.559 6418
v 7086 564.719 6416
v 7086 563.849 6414
v 7086 562.96 6412
v 7086 562.042 6410
v 7088 584.368 6472
v 7088 584.174 6470
v 7088 583.682 6468
v 7088 583.245 6466
v 7088 582.834 6464
v 7088 582.411 6462
v 7088 581.936 6460
v 7088 581.365 6458
v 7088 580.802 6456
v 7088 580.296 6454
v 7088 579.826 6452
v 7088 579.372 6450
v 7088 578.917 6448
v 7088 578.446 6446
v 7088 577.947 6444
v 7088 577.283 6442
v 7088 576.044 6440
v 7088 574.889 6438
v 7088 573.819 6436
v 7088 572.833 6434
v 7088 571.926 6432
v 7088 571.093 6430
v 7088 570.323 6428
v 7088 569.606 6426
v 7088 568.928 6424
v 7088 568.27 6422
v 7088 567.615 6420
v 7088 566.941 6418
v 7088 566.227 6416
v 7088 565.509 6414
v 7088 564.783 6412
v 7088 564.03 6410
v 7090 584.069 6472
v 7090 583.501 6470
v 7090 583.003 6468
v 7090 582.545 6466
v 7090 582.092 6464
v 7090 581.604 6462
v 7090 581.036 6460
v 7090 580.344 6458
v 7090 579.659 6456
v 7090 579.052 6454
v 7090 578.502 6452
v 7090 577.992 6450
v 7090 577.504 6448
v 7090 577.025 6446
v 7090 576.542 6444
v 7090 576.044 6442
v 7090 575.524 6440
v 7090 574.974 6438
v 7090 574.389 6436
v 7090 573.767 6434
v 7090 573.108 6432
v 7090 572.404 6430
v 7090 571.63 6428
v 7090 570.915 6426
v 7090 570.142 6424
v 7090 569.349 6422
v 7090 568.554 6420
v 7090 567.77 6418
v 7090 567.008 6416
v 7090 566.241 6414
v 7090 565.484 6412
v 7090 564.763 6410
v 7092 583.661 6472
v 7092 583.1 6470
v 7092 582.596 6468
v 7092 582.117 6466
v 7092 581.622 6464
v 7092 581.07 6462
v 7092 580.414 6460
v 7092 579.604 6458
v 7092 578.801 6456
v 7092 578.093 6454
v 7092 577.462 6452
v 7092 576.891 6450
v 7092 576.365 6448
v 7092 575.87 6446
v 7092 575.394 6444
v 7092 574.925 6442
v 7092 574.453 6440
v 7092 573.971 6438
v 7092 573.472 6436
v 7092 572.949 6434
v 7092 572.4 6432
v 7092 571.82 6430
v 7092 571.21 6428
v 7092 570.568 6426
v 7092 569.896 6424
v 7092 569.198 6422
v 7092 568.477 6420
v 7092 567.739 6418
v 7092 566.988 6416
v 7092 566.202 6414
v 7092 565.404 6412
v 7092 564.632 6410
v 7094 583.543 6472
v 7094 582.991 6470
v 7094 582.485 6468
v 7094 581.987 6466
v 7094 581.457 6464
v 7094 580.848 6462
v 7094 580.11 6460
v 7094 579.193 6458
v 7094 578.28 6456
v 7094 577.477 6454
v 7094 576.767 6452
v 7094 576.136 6450
v 7094 575.569 6448
v 7094 575.053 6446
v 7094 574.577 6444
v 7094 574.128 6442
v 7094 573.696 6440
v 7094 573.271 6438
v 7094 572.845 6436
v 7094 572.409 6434
v 7094 571.957 6432
v 7094 571.482 6430
v 7094 570.978 6428
v 7094 570.442 6426
v 7094 569.87 6424
v 7094 569.26 6422
v 7094 568.608 6420
v 7094 567.915 6418
v 7094 567.177 6416
v 7094 566.369 6414
v 7094 565.524 6412
v 7094 564.689 6410
v 7096 583.715 6472
v 7096 583.18 6470
v 7096 582.679 6468
v 7096 582.173 6466
v 7096 581.617 6464
v 7096 580.963 6462
v 7096 580.157 6460
v 7096 579.146 6458
v 7096 578.137 6456
v 7096 577.248 6454
v 7096 576.467 6452
v 7096 575.78 6450
v 7096 575.175 6448
v 7096 574.638 6446
v 7096 574.159 6444
v 7096 573.724 6442
v 7096 573.324 6440
v 7096 572.948 6438
v 7096 572.584 6436
v 7096 572.223 6434
v 7096 571.856 6432
v 7096 571.473 6430
v 7096 571.066 6428
v 7096 570.625 6426
v 7096 570.143 6424
v 7096 569.613 6422
v 7096 569.026 6420
v 7096 568.377 6418
v 7096 567.656 6416
v 7096 566.826 6414
v 7096 565.931 6412
v 7096 565.024 6410
v 7098 584.168 6472
v 7098 583.662 6470
v 7098 583.18 6468
v 7098 582.68 6466
v 7098 582.114 6464
v 7098 581.43 6462
v 7098 580.574 6460
v 7098 579.489 6458
v 7098 578.401 6456
v 7098 577.443 6454
v 7098 576.604 6452
v 7098 575.871 6450
v 7098 575.233 6448
v 7098 574.679 6446
v 7098 574.197 6444
v 7098 573.776 6442
v 7098 573.404 6440
v 7098 573.069 6438
v 7098 572.76 6436
v 7098 572.465 6434
v 7098 572.172 6432
v 7098 571.871 6430
v 7098 571.548 6428
v 7098 571.192 6426
v 7098 570.792 6424
v 7098 570.336 6422
v 7098 569.811 6420
v 7098 569.206 6418
v 7098 568.505 6416
v 7098 567.659 6414
v 7098 566.712 6412
v 7098 565.73 6410
v 7100 584.877 6472
v 7100 584.42 6470
v 7100 583.976 6468
v 7100 583.501 6466
v 7100 582.945 6464
v 7100 582.255 6462
v 7100 581.371 6460
v 7100 580.237 6458
v 7100 579.093 6456
v 7100 578.086 6454
v 7100 577.206 6452
v 7100 576.442 6450
v 7100 575.784 6448
v 7100 575.222 6446
v 7100 574.744 6444
v 7100 574.339 6442
v 7100 573.994 6440
v 7100 573.698 6438
v 7100 573.439 6436
v 7100 573.203 6434
v 7100 572.977 6432
v 7100 572.747 6430
v 7100 572.499 6428
v 7100 572.22 6426
v 7100 571.894 6424
v 7100 571.506 6422
v 7100 571.04 6420
v 7100 570.482 6418
v 7100 569.808 6416
v 7100 568.95 6414
v 7100 567.957 6412
v 7100 566.901 6410
f 96 95 93
f 99 98 97
f 100 99 97
f 91 90 89
f 92 91 89
f 83 82 81
f 84 83 81
f 87 86 85
f 79 78 77
f 88 87 85
f 95 94 93
f 80 79 77
f 75 74 73
f 76 75 73
f 72 71 69
f 67 66 65
f 68 67 65
f 107 106 105
f 108 107 105
f 104 103 101
f 111 110 109
f 112 111 109
f 103 102 101
f 71 70 69
f 28 27 25
f 27 26 25
f 31 30 29
f 32 31 29
f 23 22 21
f 24 23 21
f 20 19 17
f 19 18 17
f 7 6 5
f 8 7 5
f 4 3 1
f 12 11 9
f 16 15 13
f 3 2 1
f 11 10 9
f 15 14 13
f 51 50 49
f 63 62 61
f 64 63 61
f 59 58 57
f 35 34 33
f 47 46 45
f 48 47 45
f 52 51 49
f 55 54 53
f 56 55 53
f 60 59 57
f 36 35 33
f 39 38 37
f 40 39 37
f 43 42 41
f 44 43 41
f 217 219 218
f 219 221 218
f 211 208 207
f 208 206 207
f 207 206 205
f 217 211 219
f 219 211 207
f 186 145 184
f 185 184 142
f 125 124 123
f 154 123 124
f 123 154 192
f 192 154 173
f 157 173 154
f 157 174 173
f 142 184 145
f 180 183 179
f 154 124 191
f 189 187 188
f 154 158 157
f 188 187 132
f 203 188 132
f 203 144 188
f 138 145 144
f 142 145 138
f 154 191 115
f 113 154 115
f 155 154 113
f 156 154 155
f 159 154 156
f 158 154 159
f 226 229 225
f 227 226 225
f 136 142 138
f 143 142 136
f 181 180 179
f 194 181 179
f 194 179 201
f 182 180 181
f 187 190 132
f 226 227 228
f 213 212 211
f 213 211 217
f 115 114 113
f 212 213 210
f 175 159 156
f 205 206 210
f 135 177 176
f 178 177 132
f 135 132 177
f 205 210 209
f 210 213 209
f 216 217 215
f 217 218 215
f 116 203 132
f 134 133 132
f 135 134 132
f 181 193 165
f 194 193 181
f 218 221 220
f 233 231 232
f 234 231 233
f 221 222 220
f 223 222 221
f 222 223 224
f 216 215 214
f 232 231 230
f 216 222 224
f 222 216 214
f 280 279 278
f 280 281 279
f 273 272 271
f 200 198 199
f 270 269 268
f 266 265 264
f 262 261 260
f 262 263 261
f 267 265 266
f 276 277 275
f 276 275 274
f 122 121 120
f 346 345 344
f 337 336 335
f 334 333 332
f 200 196 198
f 198 196 197
f 138 137 136
f 343 342 341
f 138 117 137
f 122 204 121
f 139 117 138
f 347 345 346
f 331 330 329
f 117 139 203
f 117 203 116
f 340 339 338
f 328 327 326
f 284 283 282
f 296 295 294
f 299 298 297
f 197 196 195
f 137 141 140
f 117 141 137
f 303 301 302
f 302 301 300
f 287 286 285
f 290 289 288
f 293 292 291
f 167 165 193
f 167 193 202
f 324 323 322
f 325 323 324
f 306 305 304
f 309 308 307
f 315 314 313
f 312 311 310
f 318 317 316
f 321 320 319
f 242 243 244
f 246 244 243
f 246 249 244
f 242 244 240
f 240 235 239
f 240 239 245
f 242 240 245
f 239 242 245
f 238 242 241
f 243 242 238
f 239 236 242
f 236 241 242
f 236 238 241
f 235 236 239
f 248 246 243
f 238 236 237
f 237 236 235
f 246 257 249
f 256 249 257
f 255 249 256
f 255 256 253
f 255 253 254
f 167 166 165
f 166 169 165
f 172 171 134
f 133 134 171
f 161 148 149
f 118 117 116
f 119 118 116
f 133 171 170
f 128 127 126
f 141 117 163
f 164 163 117
f 131 130 129
f 149 146 147
f 147 146 126
f 252 250 258
f 168 166 167
f 141 163 162
f 152 160 150
f 146 149 148
f 126 146 128
f 148 153 146
f 128 146 130
f 248 247 246
f 252 251 250
f 252 259 251
f 146 153 152
f 151 146 150
f 129 146 151
f 130 146 129
f 150 146 152
f 248 254 253
f 248 253 247
f 420 418 419
f 421 420 419
f 453 448 452
f 454 448 453
f 440 435 441
f 439 435 440
f 418 416 417
f 419 418 417
f 422 420 421
f 423 422 421
f 455 448 454
f 441 435 442
f 452 448 451
f 438 435 439
f 416 414 415
f 417 416 415
f 424 422 423
f 425 424 423
f 451 448 450
f 456 448 455
f 442 435 443
f 437 435 438
f 414 412 413
f 415 414 413
f 426 424 425
f 427 426 425
f 449 448 447
f 450 448 449
f 457 448 456
f 458 448 457
f 459 448 458
f 447 448 459
f 436 435 434
f 446 435 436
f 445 435 446
f 444 435 445
f 443 435 444
f 434 435 437
f 412 410 411
f 413 412 411
f 428 426 427
f 429 428 427
f 410 409 408
f 411 410 408
f 430 428 429
f 431 430 429
f 432 430 431
f 433 432 431
f 401 394 400
f 402 394 401
f 362 360 361
f 363 362 361
f 364 362 363
f 365 364 363
f 386 379 387
f 385 379 386
f 403 394 402
f 366 364 365
f 367 366 365
f 387 379 388
f 400 394 399
f 360 358 359
f 361 360 359
f 384 379 385
f 403 404 394
f 366 367 368
f 367 369 368
f 379 389 388
f 399 394 398
f 358 356 357
f 359 358 357
f 383 379 384
f 398 394 397
f 356 354 355
f 357 356 355
f 382 379 383
f 404 405 394
f 368 369 370
f 369 371 370
f 379 390 389
f 395 394 393
f 396 394 395
f 397 394 396
f 406 394 405
f 407 394 406
f 393 394 407
f 380 379 378
f 392 379 380
f 391 379 392
f 390 379 391
f 381 379 382
f 378 379 381
f 354 352 353
f 355 354 353
f 352 350 351
f 353 352 351
f 372 370 371
f 373 372 371
f 350 349 348
f 351 350 348
f 376 374 375
f 377 376 375
f 374 372 373
f 375 374 373
f 514 513 512
f 515 513 514
f 510 509 508
f 511 509 510
f 502 501 500
f 498 497 496
f 497 498 499
f 494 493 492
f 486 485 484
f 485 486 487
f 462 461 460
f 463 461 462
f 493 494 495
f 482 481 480
f 483 481 482
f 474 473 472
f 475 473 474
f 470 469 468
f 471 469 470
f 530 529 528
f 531 529 530
f 526 525 524
f 527 525 526
f 518 517 516
f 503 501 502
f 519 517 518
f 466 465 464
f 467 465 466
f 522 521 520
f 523 521 522
f 506 505 504
f 507 505 506
f 490 489 488
f 489 490 491
f 478 477 476
f 479 477 478
f 565 533 532
f 532 564 565
f 597 565 564
f 564 596 597
f 629 597 596
f 596 628 629
f 661 629 628
f 628 660 661
f 693 661 660
f 660 692 693
f 725 693 692
f 692 724 725
f 757 725 724
f 724 756 757
f 789 757 756
f 756 788 789
f 821 789 788
f 788 820 821
f 853 821 820
f 820 852 853
f 885 853 852
f 852 884 885
f 917 885 884
f 884 916 917
f 949 917 916
f 916 948 949
f 981 949 948
f 948 980 981
f 1013 981 980
f 980 1012 1013
f 1045 1013 1012
f 1012 1044 1045
f 1077 1045 1044
f 1044 1076 1077
f 1109 1077 1076
f 1076 1108 1109
f 1141 1109 1108
f 1108 1140 1141
f 1173 1141 1140
f 1140 1172 1173
f 1205 1173 1172
f 1172 1204 1205
f 1237 1205 1204
f 1204 1236 1237
f 1269 1237 1236
f 1236 1268 1269
f 1301 1269 1268
f 1268 1300 1301
f 1333 1301 1300
f 1300 1332 1333
f 1365 1333 1332
f 1332 1364 1365
f 1397 1365 1364
f 1364 1396 1397
f 1429 1397 1396
f 1396 1428 1429
f 1461 1429 1428
f 1428 1460 1461
f 1493 1461 1460
f 1460 1492 1493
f 1525 1493 1492
f 1492 1524 1525
f 566 534 533
f 533 565 566
f 598 566 565
f 565 597 598
f 630 598 597
f 597 629 630
f 662 630 629
f 629 661 662
f 694 662 661
f 661 693 694
f 726 694 693
f 693 725 726
f 758 726 725
f 725 757 758
f 790 758 757
f 757 789 790
f 822 790 789
f 789 821 822
f 854 822 821
f 821 853 854
f 886 854 853
f 853 885 886
f 918 886 885
f 885 917 918
f 950 918 917
f 917 949 950
f 982 950 949
f 949 981 982
f 1014 982 981
f 981 1013 1014
f 1046 1014 1013
f 1013 1045 1046
f 1078 1046 1045
f 1045 1077 1078
f 1110 1078 1077
f 1077 1109 1110
f 1142 1110 1109
f 1109 1141 1142
f 1174 1142 1141
f 1141 1173 1174
f 1206 1174 1173
f 1173 1205 1206
f 1238 1206 1205
f 1205 1237 1238
f 1270 1238 1237
f 1237 1269 1270
f 1302 1270 1269
f 1269 1301 1302
f 1334 1302 1301
f 1301 1333 1334
f 1366 1334 1333
f 1333 1365 1366
f 1398 1366 1365
f 1365 1397 1398
f 1430 1398 1397
f 1397 1429 1430
f 1462 1430 1429
f 1429 1461 1462
f 1494 1462 1461
f 1461 1493 1494
f 1526 1494 1493
f 1493 1525 1526
f 567 535 534
f 534 566 567
f 599 567 566
f 566 598 599
f 631 599 598
f 598 630 631
f 663 631 630
f 630 662 663
f 695 663 662
f 662 694 695
f 727 695 694
f 694 726 727
f 759 727 726
f 726 758 759
f 791 759 758
f 758 790 791
f 823 791 790
f 790 822 823
f 855 823 822
f 822 854 855
f 887 855 854
f 854 886 887
f 919 887 886
f 886 918 919
f 951 919 918
f 918 950 951
f 983 951 950
f 950 982 983
f 1015 983 982
f 982 1014 1015
f 1047 1015 1014
f 1014 1046 1047
f 1079 1047 1046
f 1046 1078 1079
f 1111 1079 1078
f 1078 1110 1111
f 1143 1111 1110
f 1110 1142 1143
f 1175 1143 1142
f 1142 1174 1175
f 1207 1175 1174
f 1174 1206 1207
f 1239 1207 1206
f 1206 1238 1239
f 1271 1239 1238
f 1238 1270 1271
f 1303 1271 1270
f 1270 1302 1303
f 1335 1303 1302
f 1302 1334 1335
f 1367 1335 1334
f 1334 1366 1367
f 1399 1367 1366
f 1366 1398 1399
f 1431 1399 1398
f 1398 1430 1431
f 1463 1431 1430
f 1430 1462 1463
f 1495 1463 1462
f 1462 1494 1495
f 1527 1495 1494
f 1494 1526 1527
f 568 536 535
f 535 567 568
f 600 568 567
f 567 599 600
f 632 600 599
f 599 631 632
f 664 632 631
f 631 663 664
f 696 664 663
f 663 695 696
f 728 696 695
f 695 727 728
f 760 728 727
f 727 759 760
f 792 760 759
f 759 791 792
f 824 792 791
f 791 823 824
f 856 824 823
f 823 855 856
f 888 856 855
f 855 887 888
f 920 888 887
f 887 919 920
f 952 920 919
f 919 951 952
f 984 952 951
f 951 983 984
f 1016 984 983
f 983 1015 1016
f 1048 1016 1015
f 1015 1047 1048
f 1080 1048 1047
f 1047 1079 1080
f 1112 1080 1079
f 1079 1111 1112
f 1144 1112 1111
f 1111 1143 1144
f 1176 1144 1143
f 1143 1175 1176
f 1208 1176 1175
f 1175 1207 1208
f 1240 1208 1207
f 1207 1239 1240
f 1272 1240 1239
f 1239 1271 1272
f 1304 1272 1271
f 1271 1303 1304
f 1336 1304 1303
f 1303 1335 1336
f 1368 1336 1335
f 1335 1367 1368
f 1400 1368 1367
f 1367 1399 1400
f 1432 1400 1399
f 1399 1431 1432
f 1464 1432 1431
f 1431 1463 1464
f 1496 1464 1463
f 1463 1495 1496
f 1528 1496 1495
f 1495 1527 1528
f 569 537 536
f 536 568 569
f 601 569 568
f 568 600 601
f 633 601 600
f 600 632 633
f 665 633 632
f 632 664 665
f 697 665 664
f 664 696 697
f 729 697 696
f 696 728 729
f 761 729 728
f 728 760 761
f 793 761 760
f 760 792 793
f 825 793 792
f 792 824 825
f 857 825 824
f 824 856 857
f 889 857 856
f 856 888 889
f 921 889 888
f 888 920 921
f 953 921 920
f 920 952 953
f 985 953 952
f 952 984 985
f 1017 985 984
f 984 1016 1017
f 1049 1017 1016
f 1016 1048 1049
f 1081 1049 1048
f 1048 1080 1081
f 1113 1081 1080
f 1080 1112 1113
f 1145 1113 1112
f 1112 1144 1145
f 1177 1145 1144
f 1144 1176 1177
f 1209 1177 1176
f 1176 1208 1209
f 1241 1209 1208
f 1208 1240 1241
f 1273 1241 1240
f 1240 1272 1273
f 1305 1273 1272
f 1272 1304 1305
f 1337 1305 1304
f 1304 1336 1337
f 1369 1337 1336
f 1336 1368 1369
f 1401 1369 1368
f 1368 1400 1401
f 1433 1401 1400
f 1400 1432 1433
f 1465 1433 1432
f 1432 1464 1465
f 1497 1465 1464
f 1464 1496 1497
f 1529 1497 1496
f 1496 1528 1529
f 570 538 537
f 537 569 570
f 602 570 569
f 569 601 602
f 634 602 601
f 601 633 634
f 666 634 633
f 633 665 666
f 698 666 665
f 665 697 698
f 730 698 697
f 697 729 730
f 762 730 729
f 729 761 762
f 794 762 761
f 761 793 794
f 826 794 793
f 793 825 826
f 858 826 825
f 825 857 858
f 890 858 857
f 857 889 890
f 922 890 889
f 889 921 922
f 954 922 921
f 921 953 954
f 986 954 953
f 953 985 986
f 1018 986 985
f 985 1017 1018
f 1050 1018 1017
f 1017 1049 1050
f 1082 1050 1049
f 1049 1081 1082
f 1114 1082 1081
f 1081 1113 1114
f 1146 1114 1113
f 1113 1145 1146
f 1178 1146 1145
f 1145 1177 1178
f 1210 1178 1177
f 1177 1209 1210
f 1242 1210 1209
f 1209 1241 1242
f 1274 1242 1241
f 1241 1273 1274
f 1306 1274 1273
f 1273 1305 1306
f 1338 1306 1305
f 1305 1337 1338
f 1370 1338 1337
f 1337 1369 1370
f 1402 1370 1369
f 1369 1401 1402
f 1434 1402 1401
f 1401 1433 1434
f 1466 1434 1433
f 1433 1465 1466
f 1498 1466 1465
f 1465 1497 1498
f 1530 1498 1497
f 1497 1529 1530
f 571 539 538
f 538 570 571
f 603 571 570
f 570 602 603
f 635 603 602
f 602 634 635
f 667 635 634
f 634 666 667
f 699 667 666
f 666 698 699
f 731 699 698
f 698 730 731
f 763 731 730
f 730 762 763
f 795 763 762
f 762 794 795
f 827 795 794
f 794 826 827
f 859 827 826
f 826 858 859
f 891 859 858
f 858 890 891
f 923 891 890
f 890 922 923
f 955 923 922
f 922 954 955
f 987 955 954
f 954 986 987
f 1019 987 986
f 986 1018 1019
f 1051 1019 1018
f 1018 1050 1051
f 1083 1051 1050
f 1050 1082 1083
f 1115 1083 1082
f 1082 1114 1115
f 1147 1115 1114
f 1114 1146 1147
f 1179 1147 1146
f 1146 1178 1179
f 1211 1179 1178
f 1178 1210 1211
f 1243 1211 1210
f 1210 1242 1243
f 1275 1243 1242
f 1242 1274 1275
f 1307 1275 1274
f 1274 1306 1307
f 1339 1307 1306
f 1306 1338 1339
f 1371 1339 1338
f 1338 1370 1371
f 1403 1371 1370
f 1370 1402 1403
f 1435 1403 1402
f 1402 1434 1435
f 1467 1435 1434
f 1434 1466 1467
f 1499 1467 1466
f 1466 1498 1499
f 1531 1499 1498
f 1498 1530 1531
f 572 540 539
f 539 571 572
f 604 572 571
f 571 603 604
f 636 604 603
f 603 635 636
f 668 636 635
f 635 667 668
f 700 668 667
f 667 699 700
f 732 700 699
f 699 731 732
f 764 732 731
f 731 763 764
f 796 764 763
f 763 795 796
f 828 796 795
f 795 827 828
f 860 828 827
f 827 859 860
f 892 860 859
f 859 891 892
f 924 892 891
f 891 923 924
f 956 924 923
f 923 955 956
f 988 956 955
f 955 987 988
f 1020 988 987
f 987 1019 1020
f 1052 1020 1019
f 1019 1051 1052
f 1084 1052 1051
f 1051 1083 1084
f 1116 1084 1083
f 1083 1115 1116
f 1148 1116 1115
f 1115 1147 1148
f 1180 1148 1147
f 1147 1179 1180
f 1212 1180 1179
f 1179 1211 1212
f 1244 1212 1211
f 1211 1243 1244
f 1276 1244 1243
f 1243 1275 1276
f 1308 1276 1275
f 1275 1307 1308
f 1340 1308 1307
f 1307 1339 1340
f 1372 1340 1339
f 1339 1371 1372
f 1404 1372 1371
f 1371 1403 1404
f 1436 1404 1403
f 1403 1435 1436
f 1468 1436 1435
f 1435 1467 1468
f 1500 1468 1467
f 1467 1499 1500
f 1532 1500 1499
f 1499 1531 1532
f 573 541 540
f 540 572 573
f 605 573 572
f 572 604 605
f 637 605 604
f 604 636 637
f 669 637 636
f 636 668 669
f 701 669 668
f 668 700 701
f 733 701 700
f 700 732 733
f 765 733 732
f 732 764 765
f 797 765 764
f 764 796 797
f 829 797 796
f 796 828 829
f 861 829 828
f 828 860 861
f 893 861 860
f 860 892 893
f 925 893 892
f 892 924 925
f 957 925 924
f 924 956 957
f 989 957 956
f 956 988 989
f 1021 989 988
f 988 1020 1021
f 1053 1021 1020
f 1020 1052 1053
f 1085 1053 1052
f 1052 1084 1085
f 1117 1085 1084
f 1084 1116 1117
f 1149 1117 1116
f 1116 1148 1149
f 1181 1149 1148
f 1148 1180 1181
f 1213 1181 1180
f 1180 1212 1213
f 1245 1213 1212
f 1212 1244 1245
f 1277 1245 1244
f 1244 1276 1277
f 1309 1277 1276
f 1276 1308 1309
f 1341 1309 1308
f 1308 1340 1341
f 1373 1341 1340
f 1340 1372 1373
f 1405 1373 1372
f 1372 1404 1405
f 1437 1405 1404
f 1404 1436 1437
f 1469 1437 1436
f 1436 1468 1469
f 1501 1469 1468
f 1468 1500 1501
f 1533 1501 1500
f 1500 1532 1533
f 574 542 541
f 541 573 574
f 606 574 573
f 573 605 606
f 638 606 605
f 605 637 638
f 670 638 637
f 637 669 670
f 702 670 669
f 669 701 702
f 734 702 701
f 701 733 734
f 766 734 733
f 733 765 766
f 798 766 765
f 765 797 798
f 830 798 797
f 797 829 830
f 862 830 829
f 829 861 862
f 894 862 861
f 861 893 894
f 926 894 893
f 893 925 926
f 958 926 925
f 925 957 958
f 990 958 957
f 957 989 990
f 1022 990 989
f 989 1021 1022
f 1054 1022 1021
f 1021 1053 1054
f 1086 1054 1053
f 1053 1085 1086
f 1118 1086 1085
f 1085 1117 1118
f 1150 1118 1117
f 1117 1149 1150
f 1182 1150 1149
f 1149 1181 1182
f 1214 1182 1181
f 1181 1213 1214
f 1246 1214 1213
f 1213 1245 1246
f 1278 1246 1245
f 1245 1277 1278
f 1310 1278 1277
f 1277 1309 1310
f 1342 1310 1309
f 1309 1341 1342
f 1374 1342 1341
f 1341 1373 1374
f 1406 1374 1373
f 1373 1405 1406
f 1438 1406 1405
f 1405 1437 1438
f 1470 1438 1437
f 1437 1469 1470
f 1502 1470 1469
f 1469 1501 1502
f 1534 1502 1501
f 1501 1533 1534
f 575 543 542
f 542 574 575
f 607 575 574
f 574 606 607
f 639 607 606
f 606 638 639
f 671 639 638
f 638 670 671
f 703 671 670
f 670 702 703
f 735 703 702
f 702 734 735
f 767 735 734
f 734 766 767
f 799 767 766
f 766 798 799
f 831 799 798
f 798 830 831
f 863 831 830
f 830 862 863
f 895 863 862
f 862 894 895
f 927 895 894
f 894 926 927
f 959 927 926
f 926 958 959
f 991 959 958
f 958 990 991
f 1023 991 990
f 990 1022 1023
f 1055 1023 1022
f 1022 1054 1055
f 1087 1055 1054
f 1054 1086 1087
f 1119 1087 1086
f 1086 1118 1119
f 1151 1119 1118
f 1118 1150 1151
f 1183 1151 1150
f 1150 1182 1183
f 1215 1183 1182
f 1182 1214 1215
f 1247 1215 1214
f 1214 1246 1247
f 1279 1247 1246
f 1246 1278 1279
f 1311 1279 1278
f 1278 1310 1311
f 1343 1311 1310
f 1310 1342 1343
f 1375 1343 1342
f 1342 1374 1375
f 1407 1375 1374
f 1374 1406 1407
f 1439 1407 1406
f 1406 1438 1439
f 1471 1439 1438
f 1438 1470 1471
f 1503 1471 1470
f 1470 1502 1503
f 1535 1503 1502
f 1502 1534 1535
f 576 544 543
f 543 575 576
f 608 576 575
f 575 607 608
f 640 608 607
f 607 639 640
f 672 640 639
f 639 671 672
f 704 672 671
f 671 703 704
f 736 704 703
f 703 735 736
f 768 736 735
f 735 767 768
f 800 768 767
f 767 799 800
f 832 800 799
f 799 831 832
f 864 832 831
f 831 863 864
f 896 864 863
f 863 895 896
f 928 896 895
f 895 927 928
f 960 928 927
f 927 959 960
f 992 960 959
f 959 991 992
f 1024 992 991
f 991 1023 1024
f 1056 1024 1023
f 1023 1055 1056
f 1088 1056 1055
f 1055 1087 1088
f 1120 1088 1087
f 1087 1119 1120
f 1152 1120 1119
f 1119 1151 1152
f 1184 1152 1151
f 1151 1183 1184
f 1216 1184 1183
f 1183 1215 1216
f 1248 1216 1215
f 1215 1247 1248
f 1280 1248 1247
f 1247 1279 1280
f 1312 1280 1279
f 1279 1311 1312
f 1344 1312 1311
f 1311 1343 1344
f 1376 1344 1343
f 1343 1375 1376
f 1408 1376 1375
f 1375 1407 1408
f 1440 1408 1407
f 1407 1439 1440
f 1472 1440 1439
f 1439 1471 1472
f 1504 1472 1471
f 1471 1503 1504
f 1536 1504 1503
f 1503 1535 1536
f 577 545 544
f 544 576 577
f 609 577 576
f 576 608 609
f 641 609 608
f 608 640 641
f 673 641 640
f 640 672 673
f 705 673 672
f 672 704 705
f 737 705 704
f 704 736 737
f 769 737 736
f 736 768 769
f 801 769 768
f 768 800 801
f 833 801 800
f 800 832 833
f 865 833 832
f 832 864 865
f 897 865 864
f 864 896 897
f 929 897 896
f 896 928 929
f 961 929 928
f 928 960 961
f 993 961 960
f 960 992 993
f 1025 993 992
f 992 1024 1025
f 1057 1025 1024
f 1024 1056 1057
f 1089 1057 1056
f 1056 1088 1089
f 1121 1089 1088
f 1088 1120 1121
f 1153 1121 1120
f 1120 1152 1153
f 1185 1153 1152
f 1152 1184 1185
f 1217 1185 1184
f 1184 1216 1217
f 1249 1217 1216
f 1216 1248 1249
f 1281 1249 1248
f 1248 1280 1281
f 1313 1281 1280
f 1280 1312 1313
f 1345 1313 1312
f 1312 1344 1345
f 1377 1345 1344
f 1344 1376 1377
f 1409 1377 1376
f 1376 1408 1409
f 1441 1409 1408
f 1408 1440 1441
f 1473 1441 1440
f 1440 1472 1473
f 1505 1473 1472
f 1472 1504 1505
f 1537 1505 1504
f 1504 1536 1537
f 578 546 545
f 545 577 578
f 610 578 577
f 577 609 610
f 642 610 609
f 609 641 642
f 674 642 641
f 641 673 674
f 706 674 673
f 673 705 706
f 738 706 705
f 705 737 738
f 770 738 737
f 737 769 770
f 802 770 769
f 769 801 802
f 834 802 801
f 801 833 834
f 866 834 833
f 833 865 866
f 898 866 865
f 865 897 898
f 930 898 897
f 897 929 930
f 962 930 929
f 929 961 962
f 994 962 961
f 961 993 994
f 1026 994 993
f 993 1025 1026
f 1058 1026 1025
f 1025 1057 1058
f 1090 1058 1057
f 1057 1089 1090
f 1122 1090 1089
f 1089 1121 1122
f 1154 1122 1121
f 1121 1153 1154
f 1186 1154 1153
f 1153 1185 1186
f 1218 1186 1185
f 1185 1217 1218
f 1250 1218 1217
f 1217 1249 1250
f 1282 1250 1249
f 1249 1281 1282
f 1314 1282 1281
f 1281 1313 1314
f 1346 1314 1313
f 1313 1345 1346
f 1378 1346 1345
f 1345 1377 1378
f 1410 1378 1377
f 1377 1409 1410
f 1442 1410 1409
f 1409 1441 1442
f 1474 1442 1441
f 1441 1473 1474
f 1506 1474 1473
f 1473 1505 1506
f 1538 1506 1505
f 1505 1537 1538
f 579 547 546
f 546 578 579
f 611 579 578
f 578 610 611
f 643 611 610
f 610 642 643
f 675 643 642
f 642 674 675
f 707 675 674
f 674 706 707
f 739 707 706
f 706 738 739
f 771 739 738
f 738 770 771
f 803 771 770
f 770 802 803
f 835 803 802
f 802 834 835
f 867 835 834
f 834 866 867
f 899 867 866
f 866 898 899
f 931 899 898
f 898 930 931
f 963 931 930
f 930 962 963
f 995 963 962
f 962 994 995
f 1027 995 994
f 994 1026 1027
f 1059 1027 1026
f 1026 1058 1059
f 1091 1059 1058
f 1058 1090 1091
f 1123 1091 1090
f 1090 1122 1123
f 1155 1123 1122
f 1122 1154 1155
f 1187 1155 1154
f 1154 1186 1187
f 1219 1187 1186
f 1186 1218 1219
f 1251 1219 1218
f 1218 1250 1251
f 1283 1251 1250
f 1250 1282 1283
f 1315 1283 1282
f 1282 1314 1315
f 1347 1315 1314
f 1314 1346 1347
f 1379 1347 1346
f 1346 1378 1379
f 1411 1379 1378
f 1378 1410 1411
f 1443 1411 1410
f 1410 1442 1443
f 1475 1443 1442
f 1442 1474 1475
f 1507 1475 1474
f 1474 1506 1507
f 1539 1507 1506
f 1506 1538 1539
f 580 548 547
f 547 579 580
f 612 580 579
f 579 611 612
f 644 612 611
f 611 643 644
f 676 644 643
f 643 675 676
f 708 676 675
f 675 707 708
f 740 708 707
f 707 739 740
f 772 740 739
f 739 771 772
f 804 772 771
f 771 803 804
f 836 804 803
f 803 835 836
f 868 836 835
f 835 867 868
f 900 868 867
f 867 899 900
f 932 900 899
f 899 931 932
f 964 932 931
f 931 963 964
f 996 964 963
f 963 995 996
f 1028 996 995
f 995 1027 1028
f 1060 1028 1027
f 1027 1059 1060
f 1092 1060 1059
f 1059 1091 1092
f 1124 1092 1091
f 1091 1123 1124
f 1156 1124 1123
f 1123 1155 1156
f 1188 1156 1155
f 1155 1187 1188
f 1220 1188 1187
f 1187 1219 1220
f 1252 1220 1219
f 1219 1251 1252
f 1284 1252 1251
f 1251 1283 1284
f 1316 1284 1283
f 1283 1315 1316
f 1348 1316 1315
f 1315 1347 1348
f 1380 1348 1347
f 1347 1379 1380
f 1412 1380 1379
f 1379 1411 1412
f 1444 1412 1411
f 1411 1443 1444
f 1476 1444 1443
f 1443 1475 1476
f 1508 1476 1475
f 1475 1507 1508
f 1540 1508 1507
f 1507 1539 1540
f 581 549 548
f 548 580 581
f 613 581 580
f 580 612 613
f 645 613 612
f 612 644 645
f 677 645 644
f 644 676 677
f 709 677 676
f 676 708 709
f 741 709 708
f 708 740 741
f 773 741 740
f 740 772 773
f 805 773 772
f 772 804 805
f 837 805 804
f 804 836 837
f 869 837 836
f 836 868 869
f 901 869 868
f 868 900 901
f 933 901 900
f 900 932 933
f 965 933 932
f 932 964 965
f 997 965 964
f 964 996 997
f 1029 997 996
f 996 1028 1029
f 1061 1029 1028
f 1028 1060 1061
f 1093 1061 1060
f 1060 1092 1093
f 1125 1093 1092
f 1092 1124 1125
f 1157 1125 1124
f 1124 1156 1157
f 1189 1157 1156
f 1156 1188 1189
f 1221 1189 1188
f 1188 1220 1221
f 1253 1221 1220
f 1220 1252 1253
f 1285 1253 1252
f 1252 1284 1285
f 1317 1285 1284
f 1284 1316 1317
f 1349 1317 1316
f 1316 1348 1349
f 1381 1349 1348
f 1348 1380 1381
f 1413 1381 1380
f 1380 1412 1413
f 1445 1413 1412
f 1412 1444 1445
f 1477 1445 1444
f 1444 1476 1477
f 1509 1477 1476
f 1476 1508 1509
f 1541 1509 1508
f 1508 1540 1541
f 582 550 549
f 549 581 582
f 614 582 581
f 581 613 614
f 646 614 613
f 613 645 646
f 678 646 645
f 645 677 678
f 710 678 677
f 677 709 710
f 742 710 709
f 709 741 742
f 774 742 741
f 741 773 774
f 806 774 773
f 773 805 806
f 838 806 805
f 805 837 838
f 870 838 837
f 837 869 870
f 902 870 869
f 869 901 902
f 934 902 901
f 901 933 934
f 966 934 933
f 933 965 966
f 998 966 965
f 965 997 998
f 1030 998 997
f 997 1029 1030
f 1062 1030 1029
f 1029 1061 1062
f 1094 1062 1061
f 1061 1093 1094
f 1126 1094 1093
f 1093 1125 1126
f 1158 1126 1125
f 1125 1157 1158
f 1190 1158 1157
f 1157 1189 1190
f 1222 1190 1189
f 1189 1221 1222
f 1254 1222 1221
f 1221 1253 1254
f 1286 1254 1253
f 1253 1285 1286
f 1318 1286 1285
f 1285 1317 1318
f 1350 1318 1317
f 1317 1349 1350
f 1382 1350 1349
f 1349 1381 1382
f 1414 1382 1381
f 1381 1413 1414
f 1446 1414 1413
f 1413 1445 1446
f 1478 1446 1445
f 1445 1477 1478
f 1510 1478 1477
f 1477 1509 1510
f 1542 1510 1509
f 1509 1541 1542
f 583 551 550
f 550 582 583
f 615 583 582
f 582 614 615
f 647 615 614
f 614 646 647
f 679 647 646
f 646 678 679
f 711 679 678
f 678 710 711
f 743 711 710
f 710 742 743
f 775 743 742
f 742 774 775
f 807 775 774
f 774 806 807
f 839 807 806
f 806 838 839
f 871 839 838
f 838 870 871
f 903 871 870
f 870 902 903
f 935 903 902
f 902 934 935
f 967 935 934
f 934 966 967
f 999 967 966
f 966 998 999
f 1031 999 998
f 998 1030 1031
f 1063 1031 1030
f 1030 1062 1063
f 1095 1063 1062
f 1062 1094 1095
f 1127 1095 1094
f 1094 1126 1127
f 1159 1127 1126
f 1126 1158 1159
f 1191 1159 1158
f 1158 1190 1191
f 1223 1191 1190
f 1190 1222 1223
f 1255 1223 1222
f 1222 1254 1255
f 1287 1255 1254
f 1254 1286 1287
f 1319 1287 1286
f 1286 1318 1319
f 1351 1319 1318
f 1318 1350 1351
f 1383 1351 1350
f 1350 1382 1383
f 1415 1383 1382
f 1382 1414 1415
f 1447 1415 1414
f 1414 1446 1447
f 1479 1447 1446
f 1446 1478 1479
f 1511 1479 1478
f 1478 1510 1511
f 1543 1511 1510
f 1510 1542 1543
f 584 552 551
f 551 583 584
f 616 584 583
f 583 615 616
f 648 616 615
f 615 647 648
f 680 648 647
f 647 679 680
f 712 680 679
f 679 711 712
f 744 712 711
f 711 743 744
f 776 744 743
f 743 775 776
f 808 776 775
f 775 807 808
f 840 808 807
f 807 839 840
f 872 840 839
f 839 871 872
f 904 872 871
f 871 903 904
f 936 904 903
f 903 935 936
f 968 936 935
f 935 967 968
f 1000 968 967
f 967 999 1000
f 1032 1000 999
f 999 1031 1032
f 1064 1032 1031
f 1031 1063 1064
f 1096 1064 1063
f 1063 1095 1096
f 1128 1096 1095
f 1095 1127 1128
f 1160 1128 1127
f 1127 1159 1160
f 1192 1160 1159
f 1159 1191 1192
f 1224 1192 1191
f 1191 1223 1224
f 1256 1224 1223
f 1223 1255 1256
f 1288 1256 1255
f 1255 1287 1288
f 1320 1288 1287
f 1287 1319 1320
f 1352 1320 1319
f 1319 1351 1352
f 1384 1352 1351
f 1351 1383 1384
f 1416 1384 1383
f 1383 1415 1416
f 1448 1416 1415
f 1415 1447 1448
f 1480 1448 1447
f 1447 1479 1480
f 1512 1480 1479
f 1479 1511 1512
f 1544 1512 1511
f 1511 1543 1544
f 585 553 552
f 552 584 585
f 617 585 584
f 584 616 617
f 649 617 616
f 616 648 649
f 681 649 648
f 648 680 681
f 713 681 680
f 680 712 713
f 745 713 712
f 712 744 745
f 777 745 744
f 744 776 777
f 809 777 776
f 776 808 809
f 841 809 808
f 808 840 841
f 873 841 840
f 840 872 873
f 905 873 872
f 872 904 905
f 937 905 904
f 904 936 937
f 969 937 936
f 936 968 969
f 1001 969 968
f 968 1000 1001
f 1033 1001 1000
f 1000 1032 1033
f 1065 1033 1032
f 1032 1064 1065
f 1097 1065 1064
f 1064 1096 1097
f 1129 1097 1096
f 1096 1128 1129
f 1161 1129 1128
f 1128 1160 1161
f 1193 1161 1160
f 1160 1192 1193
f 1225 1193 1192
f 1192 1224 1225
f 1257 1225 1224
f 1224 1256 1257
f 1289 1257 1256
f 1256 1288 1289
f 1321 1289 1288
f 1288 1320 1321
f 1353 1321 1320
f 1320 1352 1353
f 1385 1353 1352
f 1352 1384 1385
f 1417 1385 1384
f 1384 1416 1417
f 1449 1417 1416
f 1416 1448 1449
f 1481 1449 1448
f 1448 1480 1481
f 1513 1481 1480
f 1480 1512 1513
f 1545 1513 1512
f 1512 1544 1545
f 586 554 553
f 553 585 586
f 618 586 585
f 585 617 618
f 650 618 617
f 617 649 650
f 682 650 649
f 649 681 682
f 714 682 681
f 681 713 714
f 746 714 713
f 713 745 746
f 778 746 745
f 745 777 778
f 810 778 777
f 777 809 810
f 842 810 809
f 809 841 842
f 874 842 841
f 841 873 874
f 906 874 873
f 873 905 906
f 938 906 905
f 905 937 938
f 970 938 937
f 937 969 970
f 1002 970 969
f 969 1001 1002
f 1034 1002 1001
f 1001 1033 1034
f 1066 1034 1033
f 1033 1065 1066
f 1098 1066 1065
f 1065 1097 1098
f 1130 1098 1097
f 1097 1129 1130
f 1162 1130 1129
f 1129 1161 1162
f 1194 1162 1161
f 1161 1193 1194
f 1226 1194 1193
f 1193 1225 1226
f 1258 1226 1225
f 1225 1257 1258
f 1290 1258 1257
f 1257 1289 1290
f 1322 1290 1289
f 1289 1321 1322
f 1354 1322 1321
f 1321 1353 1354
f 1386 1354 1353
f 1353 1385 1386
f 1418 1386 1385
f 1385 1417 1418
f 1450 1418 1417
f 1417 1449 1450
f 1482 1450 1449
f 1449 1481 1482
f 1514 1482 1481
f 1481 1513 1514
f 1546 1514 1513
f 1513 1545 1546
f 587 555 554
f 554 586 587
f 619 587 586
f 586 618 619
f 651 619 618
f 618 650 651
f 683 651 650
f 650 682 683
f 715 683 682
f 682 714 715
f 747 715 714
f 714 746 747
f 779 747 746
f 746 778 779
f 811 779 778
f 778 810 811
f 843 811 810
f 810 842 843
f 875 843 842
f 842 874 875
f 907 875 874
f 874 906 907
f 939 907 906
f 906 938 939
f 971 939 938
f 938 970 971
f 1003 971 970
f 970 1002 1003
f 1035 1003 1002
f 1002 1034 1035
f 1067 1035 1034
f 1034 1066 1067
f 1099 1067 1066
f 1066 1098 1099
f 1131 1099 1098
f 1098 1130 1131
f 1163 1131 1130
f 1130 1162 1163
f 1195 1163 1162
f 1162 1194 1195
f 1227 1195 1194
f 1194 1226 1227
f 1259 1227 1226
f 1226 1258 1259
f 1291 1259 1258
f 1258 1290 1291
f 1323 1291 1290
f 1290 1322 1323
f 1355 1323 1322
f 1322 1354 1355
f 1387 1355 1354
f 1354 1386 1387
f 1419 1387 1386
f 1386 1418 1419
f 1451 1419 1418
f 1418 1450 1451
f 1483 1451 1450
f 1450 1482 1483
f 1515 1483 1482
f 1482 1514 1515
f 1547 1515 1514
f 1514 1546 1547
f 588 556 555
f 555 587 588
f 620 588 587
f 587 619 620
f 652 620 619
f 619 651 652
f 684 652 651
f 651 683 684
f 716 684 683
f 683 715 716
f 748 716 715
f 715 747 748
f 780 748 747
f 747 779 780
f 812 780 779
f 779 811 812
f 844 812 811
f 811 843 844
f 876 844 843
f 843 875 876
f 908 876 875
f 875 907 908
f 940 908 907
f 907 939 940
f 972 940 939
f 939 971 972
f 1004 972 971
f 971 1003 1004
f 1036 1004 1003
f 1003 1035 1036
f 1068 1036 1035
f 1035 1067 1068
f 1100 1068 1067
f 1067 1099 1100
f 1132 1100 1099
f 1099 1131 1132
f 1164 1132 1131
f 1131 1163 1164
f 1196 1164 1163
f 1163 1195 1196
f 1228 1196 1195
f 1195 1227 1228
f 1260 1228 1227
f 1227 1259 1260
f 1292 1260 1259
f 1259 1291 1292
f 1324 1292 1291
f 1291 1323 1324
f 1356 1324 1323
f 1323 1355 1356
f 1388 1356 1355
f 1355 1387 1388
f 1420 1388 1387
f 1387 1419 1420
f 1452 1420 1419
f 1419 1451 1452
f 1484 1452 1451
f 1451 1483 1484
f 1516 1484 1483
f 1483 1515 1516
f 1548 1516 1515
f 1515 1547 1548
f 589 557 556
f 556 588 589
f 621 589 588
f 588 620 621
f 653 621 620
f 620 652 653
f 685 653 652
f 652 684 685
f 717 685 684
f 684 716 717
f 749 717 716
f 716 748 749
f 781 749 748
f 748 780 781
f 813 781 780
f 780 812 813
f 845 813 812
f 812 844 845
f 877 845 844
f 844 876 877
f 909 877 876
f 876 908 909
f 941 909 908
f 908 940 941
f 973 941 940
f 940 972 973
f 1005 973 972
f 972 1004 1005
f 1037 1005 1004
f 1004 1036 1037
f 1069 1037 1036
f 1036 1068 1069
f 1101 1069 1068
f 1068 1100 1101
f 1133 1101 1100
f 1100 1132 1133
f 1165 1133 1132
f 1132 1164 1165
f 1197 1165 1164
f 1164 1196 1197
f 1229 1197 1196
f 1196 1228 1229
f 1261 1229 1228
f 1228 1260 1261
f 1293 1261 1260
f 1260 1292 1293
f 1325 1293 1292
f 1292 1324 1325
f 1357 1325 1324
f 1324 1356 1357
f 1389 1357 1356
f 1356 1388 1389
f 1421 1389 1388
f 1388 1420 1421
f 1453 1421 1420
f 1420 1452 1453
f 1485 1453 1452
f 1452 1484 1485
f 1517 1485 1484
f 1484 1516 1517
f 1549 1517 1516
f 1516 1548 1549
f 590 558 557
f 557 589 590
f 622 590 589
f 589 621 622
f 654 622 621
f 621 653 654
f 686 654 653
f 653 685 686
f 718 686 685
f 685 717 718
f 750 718 717
f 717 749 750
f 782 750 749
f 749 781 782
f 814 782 781
f 781 813 814
f 846 814 813
f 813 845 846
f 878 846 845
f 845 877 878
f 910 878 877
f 877 909 910
f 942 910 909
f 909 941 942
f 974 942 941
f 941 973 974
f 1006 974 973
f 973 1005 1006
f 1038 1006 1005
f 1005 1037 1038
f 1070 1038 1037
f 1037 1069 1070
f 1102 1070 1069
f 1069 1101 1102
f 1134 1102 1101
f 1101 1133 1134
f 1166 1134 1133
f 1133 1165 1166
f 1198 1166 1165
f 1165 1197 1198
f 1230 1198 1197
f 1197 1229 1230
f 1262 1230 1229
f 1229 1261 1262
f 1294 1262 1261
f 1261 1293 1294
f 1326 1294 1293
f 1293 1325 1326
f 1358 1326 1325
f 1325 1357 1358
f 1390 1358 1357
f 1357 1389 1390
f 1422 1390 1389
f 1389 1421 1422
f 1454 1422 1421
f 1421 1453 1454
f 1486 1454 1453
f 1453 1485 1486
f 1518 1486 1485
f 1485 1517 1518
f 1550 1518 1517
f 1517 1549 1550
f 591 559 558
f 558 590 591
f 623 591 590
f 590 622 623
f 655 623 622
f 622 654 655
f 687 655 654
f 654 686 687
f 719 687 686
f 686 718 719
f 751 719 718
f 718 750 751
f 783 751 750
f 750 782 783
f 815 783 782
f 782 814 815
f 847 815 814
f 814 846 847
f 879 847 846
f 846 878 879
f 911 879 878
f 878 910 911
f 943 911 910
f 910 942 943
f 975 943 942
f 942 974 975
f 1007 975 974
f 974 1006 1007
f 1039 1007 1006
f 1006 1038 1039
f 1071 1039 1038
f 1038 1070 1071
f 1103 1071 1070
f 1070 1102 1103
f 1135 1103 1102
f 1102 1134 1135
f 1167 1135 1134
f 1134 1166 1167
f 1199 1167 1166
f 1166 1198 1199
f 1231 1199 1198
f 1198 1230 1231
f 1263 1231 1230
f 1230 1262 1263
f 1295 1263 1262
f 1262 1294 1295
f 1327 1295 1294
f 1294 1326 1327
f 1359 1327 1326
f 1326 1358 1359
f 1391 1359 1358
f 1358 1390 1391
f 1423 1391 1390
f 1390 1422 1423
f 1455 1423 1422
f 1422 1454 1455
f 1487 1455 1454
f 1454 1486 1487
f 1519 1487 1486
f 1486 1518 1519
f 1551 1519 1518
f 1518 1550 1551
f 592 560 559
f 559 591 592
f 624 592 591
f 591 623 624
f 656 624 623
f 623 655 656
f 688 656 655
f 655 687 688
f 720 688 687
f 687 719 720
f 752 720 719
f 719 751 752
f 784 752 751
f 751 783 784
f 816 784 783
f 783 815 816
f 848 816 815
f 815 847 848
f 880 848 847
f 847 879 880
f 912 880 879
f 879 911 912
f 944 912 911
f 911 943 944
f 976 944 943
f 943 975 976
f 1008 976 975
f 975 1007 1008
f 1040 1008 1007
f 1007 1039 1040
f 1072 1040 1039
f 1039 1071 1072
f 1104 1072 1071
f 1071 1103 1104
f 1136 1104 1103
f 1103 1135 1136
f 1168 1136 1135
f 1135 1167 1168
f 1200 1168 1167
f 1167 1199 1200
f 1232 1200 1199
f 1199 1231 1232
f 1264 1232 1231
f 1231 1263 1264
f 1296 1264 1263
f 1263 1295 1296
f 1328 1296 1295
f 1295 1327 1328
f 1360 1328 1327
f 1327 1359 1360
f 1392 1360 1359
f 1359 1391 1392
f 1424 1392 1391
f 1391 1423 1424
f 1456 1424 1423
f 1423 1455 1456
f 1488 1456 1455
f 1455 1487 1488
f 1520 1488 1487
f 1487 1519 1520
f 1552 1520 1519
f 1519 1551 1552
f 593 561 560
f 560 592 593
f 625 593 592
f 592 624 625
f 657 625 624
f 624 656 657
f 689 657 656
f 656 688 689
f 721 689 688
f 688 720 721
f 753 721 720
f 720 752 753
f 785 753 752
f 752 784 785
f 817 785 784
f 784 816 817
f 849 817 816
f 816 848 849
f 881 849 848
f 848 880 881
f 913 881 880
f 880 912 913
f 945 913 912
f 912 944 945
f 977 945 944
f 944 976 977
f 1009 977 976
f 976 1008 1009
f 1041 1009 1008
f 1008 1040 1041
f 1073 1041 1040
f 1040 1072 1073
f 1105 1073 1072
f 1072 1104 1105
f 1137 1105 1104
f 1104 1136 1137
f 1169 1137 1136
f 1136 1168 1169
f 1201 1169 1168
f 1168 1200 1201
f 1233 1201 1200
f 1200 1232 1233
f 1265 1233 1232
f 1232 1264 1265
f 1297 1265 1264
f 1264 1296 1297
f 1329 1297 1296
f 1296 1328 1329
f 1361 1329 1328
f 1328 1360 1361
f 1393 1361 1360
f 1360 1392 1393
f 1425 1393 1392
f 1392 1424 1425
f 1457 1425 1424
f 1424 1456 1457
f 1489 1457 1456
f 1456 1488 1489
f 1521 1489 1488
f 1488 1520 1521
f 1553 1521 1520
f 1520 1552 1553
f 594 562 561
f 561 593 594
f 626 594 593
f 593 625 626
f 658 626 625
f 625 657 658
f 690 658 657
f 657 689 690
f 722 690 689
f 689 721 722
f 754 722 721
f 721 753 754
f 786 754 753
f 753 785 786
f 818 786 785
f 785 817 818
f 850 818 817
f 817 849 850
f 882 850 849
f 849 881 882
f 914 882 881
f 881 913 914
f 946 914 913
f 913 945 946
f 978 946 945
f 945 977 978
f 1010 978 977
f 977 1009 1010
f 1042 1010 1009
f 1009 1041 1042
f 1074 1042 1041
f 1041 1073 1074
f 1106 1074 1073
f 1073 1105 1106
f 1138 1106 1105
f 1105 1137 1138
f 1170 1138 1137
f 1137 1169 1170
f 1202 1170 1169
f 1169 1201 1202
f 1234 1202 1201
f 1201 1233 1234
f 1266 1234 1233
f 1233 1265 1266
f 1298 1266 1265
f 1265 1297 1298
f 1330 1298 1297
f 1297 1329 1330
f 1362 1330 1329
f 1329 1361 1362
f 1394 1362 1361
f 1361 1393 1394
f 1426 1394 1393
f 1393 1425 1426
f 1458 1426 1425
f 1425 1457 1458
f 1490 1458 1457
f 1457 1489 1490
f 1522 1490 1489
f 1489 1521 1522
f 1554 1522 1521
f 1521 1553 1554
f 595 563 562
f 562 594 595
f 627 595 594
f 594 626 627
f 659 627 626
f 626 658 659
f 691 659 658
f 658 690 691
f 723 691 690
f 690 722 723
f 755 723 722
f 722 754 755
f 787 755 754
f 754 786 787
f 819 787 786
f 786 818 819
f 851 819 818
f 818 850 851
f 883 851 850
f 850 882 883
f 915 883 882
f 882 914 915
f 947 915 914
f 914 946 947
f 979 947 946
f 946 978 979
f 1011 979 978
f 978 1010 1011
f 1043 1011 1010
f 1010 1042 1043
f 1075 1043 1042
f 1042 1074 1075
f 1107 1075 1074
f 1074 1106 1107
f 1139 1107 1106
f 1106 1138 1139
f 1171 1139 1138
f 1138 1170 1171
f 1203 1171 1170
f 1170 1202 1203
f 1235 1203 1202
f 1202 1234 1235
f 1267 1235 1234
f 1234 1266 1267
f 1299 1267 1266
f 1266 1298 1299
f 1331 1299 1298
f 1298 1330 1331
f 1363 1331 1330
f 1330 1362 1363
f 1395 1363 1362
f 1362 1394 1395
f 1427 1395 1394
f 1394 1426 1427
f 1459 1427 1426
f 1426 1458 1459
f 1491 1459 1458
f 1458 1490 1491
f 1523 1491 1490
f 1490 1522 1523
f 1555 1523 1522
f 1522 1554 1555
