v -3392.58 108.682 2097.75
v -3392.39 125.611 2097.59
v -3391.74 108.682 2097.75
v -3391.93 125.611 2097.59
v -3392.58 108.682 2096.91
v -3392.39 125.611 2097.1
v -3392.58 108.682 2097.75
v -3392.39 125.611 2097.59
v -3391.74 108.682 2097.75
v -3391.93 125.611 2097.59
v -3391.74 108.682 2096.91
v -3391.93 125.611 2097.1
v -3391.74 108.682 2096.91
v -3391.93 125.611 2097.1
v -3392.58 108.682 2096.91
v -3392.39 125.611 2097.1
v -3391.93 125.611 2097.1
v -3392.16 130.244 2097.35
v -3392.39 125.611 2097.1
v -3392.39 125.611 2097.1
v -3392.16 130.244 2097.35
v -3392.39 125.611 2097.59
v -3392.39 125.611 2097.59
v -3392.16 130.244 2097.35
v -3391.93 125.611 2097.59
v -3391.93 125.611 2097.59
v -3392.16 130.244 2097.35
v -3391.93 125.611 2097.1
v -3391.73 108.154 2096.9
v -3391.74 108.682 2096.91
v -3392.58 108.154 2096.9
v -3392.58 108.682 2096.91
v -3392.58 108.154 2096.9
v -3392.58 108.682 2096.91
v -3392.58 108.154 2097.75
v -3392.58 108.682 2097.75
v -3392.58 108.154 2097.75
v -3392.58 108.682 2097.75
v -3391.73 108.154 2097.75
v -3391.74 108.682 2097.75
v -3391.73 108.154 2097.75
v -3391.74 108.682 2097.75
v -3391.73 108.154 2096.9
v -3391.74 108.682 2096.91
v -3391.73 108.154 2096.9
v -3392.58 108.154 2096.9
v -3391.73 111.154 2096.9
v -3392.58 111.154 2096.9
v -3392.58 108.154 2096.9
v -3392.58 108.154 2097.75
v -3392.58 111.154 2096.9
v -3392.58 111.154 2097.75
v -3392.58 108.154 2097.75
v -3391.73 108.154 2097.75
v -3392.58 111.154 2097.75
v -3391.73 111.154 2097.75
v -3391.73 108.154 2097.75
v -3391.73 108.154 2096.9
v -3391.73 111.154 2097.75
v -3391.73 111.154 2096.9
v -3393.72 107.731 2095.89
v -3393.72 108.241 2095.89
v -3393.72 108.241 2098.89
v -3393.72 107.731 2098.89
v -3393.72 108.241 2095.89
v -3393.62 108.278 2095.89
v -3393.62 108.278 2098.89
v -3393.72 108.241 2098.89
v -3393.62 108.278 2095.89
v -3393.52 108.241 2095.89
v -3393.52 108.241 2098.89
v -3393.62 108.278 2098.89
v -3393.52 108.241 2095.89
v -3393.52 107.731 2095.89
v -3393.52 107.731 2098.89
v -3393.52 108.241 2098.89
v -3393.77 107.689 2095.72
v -3393.72 109.246 2095.72
v -3393.72 109.246 2095.92
v -3393.77 107.689 2095.92
v -3393.77 107.689 2095.82
v -3393.52 109.246 2095.72
v -3393.47 107.689 2095.72
v -3393.47 107.689 2095.92
v -3393.52 109.246 2095.92
v -3393.77 107.689 2095.92
v -3393.72 109.246 2095.92
v -3393.52 109.246 2095.92
v -3393.47 107.689 2095.92
v -3393.47 107.689 2095.72
v -3393.52 109.246 2095.72
v -3393.72 109.246 2095.72
v -3393.77 107.689 2095.72
v -3393.62 108.186 2095.89
v -3393.62 108.956 2095.89
v -3393.62 108.956 2098.89
v -3393.62 108.186 2098.89
v -3393.62 108.186 2095.89
v -3393.62 108.186 2098.89
v -3393.62 108.956 2098.89
v -3393.62 108.956 2095.89
v -3393.62 108.985 2095.89
v -3393.62 109.266 2095.89
v -3393.62 109.266 2098.89
v -3393.62 108.985 2098.89
v -3393.62 108.985 2095.89
v -3393.62 108.985 2098.89
v -3393.62 109.266 2098.89
v -3393.62 109.266 2095.89
v -3393.74 109.221 2095.7
v -3393.75 109.271 2095.69
v -3393.75 109.271 2095.95
v -3393.74 109.221 2095.93
v -3393.75 109.271 2095.69
v -3393.49 109.271 2095.69
v -3393.49 109.271 2095.95
v -3393.75 109.271 2095.95
v -3393.49 109.271 2095.69
v -3393.51 109.221 2095.7
v -3393.51 109.221 2095.93
v -3393.49 109.271 2095.95
v -3393.51 109.221 2095.7
v -3393.74 109.221 2095.7
v -3393.74 109.221 2095.93
v -3393.51 109.221 2095.93
v -3393.74 109.221 2095.93
v -3393.75 109.271 2095.95
v -3393.49 109.271 2095.95
v -3393.51 109.221 2095.93
v -3393.51 109.221 2095.7
v -3393.49 109.271 2095.69
v -3393.75 109.271 2095.69
v -3393.74 109.221 2095.7
v -3393.62 108.945 2095.89
v -3393.64 108.967 2095.89
v -3393.64 108.967 2098.89
v -3393.62 108.945 2098.89
v -3393.64 108.967 2095.89
v -3393.62 108.99 2095.89
v -3393.62 108.99 2098.89
v -3393.64 108.967 2098.89
v -3393.62 108.99 2095.89
v -3393.6 108.967 2095.89
v -3393.6 108.967 2098.89
v -3393.62 108.99 2098.89
v -3393.6 108.967 2095.89
v -3393.62 108.945 2095.89
v -3393.62 108.945 2098.89
v -3393.6 108.967 2098.89
v -3393.66 108.216 2095.89
v -3393.66 108.291 2095.89
v -3393.66 108.291 2098.89
v -3393.66 108.216 2098.89
v -3393.66 108.291 2095.89
v -3393.58 108.291 2095.89
v -3393.58 108.291 2098.89
v -3393.66 108.291 2098.89
v -3393.58 108.291 2095.89
v -3393.58 108.216 2095.89
v -3393.58 108.216 2098.89
v -3393.58 108.291 2098.89
v -3393.62 109.094 2095.89
v -3393.64 109.117 2095.89
v -3393.64 109.194 2096.08
v -3393.62 109.171 2096.08
v -3393.64 109.227 2096.27
v -3393.62 109.204 2096.27
v -3393.64 109.194 2096.46
v -3393.62 109.171 2096.46
v -3393.64 109.117 2096.64
v -3393.62 109.094 2096.64
v -3393.64 109.194 2096.83
v -3393.62 109.171 2096.83
v -3393.64 109.227 2097.02
v -3393.62 109.204 2097.02
v -3393.64 109.194 2097.21
v -3393.62 109.171 2097.21
v -3393.64 109.117 2097.39
v -3393.62 109.094 2097.39
v -3393.64 109.194 2097.58
v -3393.62 109.171 2097.58
v -3393.64 109.227 2097.77
v -3393.62 109.204 2097.77
v -3393.64 109.194 2097.96
v -3393.62 109.171 2097.96
v -3393.64 109.117 2098.14
v -3393.62 109.094 2098.14
v -3393.64 109.194 2098.33
v -3393.62 109.171 2098.33
v -3393.64 109.227 2098.52
v -3393.62 109.204 2098.52
v -3393.64 109.194 2098.71
v -3393.62 109.171 2098.71
v -3393.64 109.117 2098.89
v -3393.62 109.094 2098.9
v -3393.64 109.117 2095.89
v -3393.62 109.141 2095.9
v -3393.62 109.217 2096.09
v -3393.64 109.194 2096.08
v -3393.62 109.25 2096.27
v -3393.64 109.227 2096.27
v -3393.62 109.217 2096.45
v -3393.64 109.194 2096.46
v -3393.62 109.141 2096.64
v -3393.64 109.117 2096.64
v -3393.62 109.217 2096.84
v -3393.64 109.194 2096.83
v -3393.62 109.25 2097.02
v -3393.64 109.227 2097.02
v -3393.62 109.217 2097.2
v -3393.64 109.194 2097.21
v -3393.62 109.141 2097.39
v -3393.64 109.117 2097.39
v -3393.62 109.217 2097.59
v -3393.64 109.194 2097.58
v -3393.62 109.25 2097.77
v -3393.64 109.227 2097.77
v -3393.62 109.217 2097.95
v -3393.64 109.194 2097.96
v -3393.62 109.141 2098.14
v -3393.64 109.117 2098.14
v -3393.62 109.217 2098.34
v -3393.64 109.194 2098.33
v -3393.62 109.25 2098.52
v -3393.64 109.227 2098.52
v -3393.62 109.217 2098.7
v -3393.64 109.194 2098.71
v -3393.62 109.141 2098.89
v -3393.64 109.117 2098.89
v -3393.62 109.141 2095.9
v -3393.6 109.117 2095.89
v -3393.6 109.194 2096.08
v -3393.62 109.217 2096.09
v -3393.6 109.227 2096.27
v -3393.62 109.25 2096.27
v -3393.6 109.194 2096.46
v -3393.62 109.217 2096.45
v -3393.6 109.117 2096.64
v -3393.62 109.141 2096.64
v -3393.6 109.194 2096.83
v -3393.62 109.217 2096.84
v -3393.6 109.227 2097.02
v -3393.62 109.25 2097.02
v -3393.6 109.194 2097.21
v -3393.62 109.217 2097.2
v -3393.6 109.117 2097.39
v -3393.62 109.141 2097.39
v -3393.6 109.194 2097.58
v -3393.62 109.217 2097.59
v -3393.6 109.227 2097.77
v -3393.62 109.25 2097.77
v -3393.6 109.194 2097.96
v -3393.62 109.217 2097.95
v -3393.6 109.117 2098.14
v -3393.62 109.141 2098.14
v -3393.6 109.194 2098.33
v -3393.62 109.217 2098.34
v -3393.6 109.227 2098.52
v -3393.62 109.25 2098.52
v -3393.6 109.194 2098.71
v -3393.62 109.217 2098.7
v -3393.6 109.117 2098.89
v -3393.62 109.141 2098.89
v -3393.6 109.117 2095.89
v -3393.62 109.094 2095.89
v -3393.62 109.171 2096.08
v -3393.6 109.194 2096.08
v -3393.62 109.204 2096.27
v -3393.6 109.227 2096.27
v -3393.62 109.171 2096.46
v -3393.6 109.194 2096.46
v -3393.62 109.094 2096.64
v -3393.6 109.117 2096.64
v -3393.62 109.171 2096.83
v -3393.6 109.194 2096.83
v -3393.62 109.204 2097.02
v -3393.6 109.227 2097.02
v -3393.62 109.171 2097.21
v -3393.6 109.194 2097.21
v -3393.62 109.094 2097.39
v -3393.6 109.117 2097.39
v -3393.62 109.171 2097.58
v -3393.6 109.194 2097.58
v -3393.62 109.204 2097.77
v -3393.6 109.227 2097.77
v -3393.62 109.171 2097.96
v -3393.6 109.194 2097.96
v -3393.62 109.094 2098.14
v -3393.6 109.117 2098.14
v -3393.62 109.171 2098.33
v -3393.6 109.194 2098.33
v -3393.62 109.204 2098.52
v -3393.6 109.227 2098.52
v -3393.62 109.171 2098.71
v -3393.6 109.194 2098.71
v -3393.62 109.094 2098.9
v -3393.6 109.117 2098.89
v -3390.74 107.686 2095.73
v -3390.74 108.196 2095.73
v -3393.74 108.196 2095.73
v -3393.74 107.686 2095.73
v -3390.74 108.196 2095.73
v -3390.74 108.233 2095.83
v -3393.74 108.233 2095.83
v -3393.74 108.196 2095.73
v -3390.74 108.233 2095.83
v -3390.74 108.196 2095.93
v -3393.74 108.196 2095.93
v -3393.74 108.233 2095.83
v -3390.74 108.196 2095.93
v -3390.74 107.686 2095.93
v -3393.74 107.686 2095.93
v -3393.74 108.196 2095.93
v -3390.56 107.644 2095.68
v -3390.56 109.201 2095.73
v -3390.76 109.201 2095.73
v -3390.76 107.644 2095.68
v -3390.66 107.644 2095.68
v -3390.56 109.201 2095.93
v -3390.56 107.644 2095.98
v -3390.76 107.644 2095.98
v -3390.76 109.201 2095.93
v -3390.76 107.644 2095.68
v -3390.76 109.201 2095.73
v -3390.76 109.201 2095.93
v -3390.76 107.644 2095.98
v -3390.56 107.644 2095.98
v -3390.56 109.201 2095.93
v -3390.56 109.201 2095.73
v -3390.56 107.644 2095.68
v -3390.74 108.141 2095.83
v -3390.74 108.911 2095.83
v -3393.74 108.911 2095.83
v -3393.74 108.141 2095.83
v -3390.74 108.141 2095.83
v -3393.74 108.141 2095.83
v -3393.74 108.911 2095.83
v -3390.74 108.911 2095.83
v -3390.74 108.94 2095.83
v -3390.74 109.221 2095.83
v -3393.74 109.221 2095.83
v -3393.74 108.94 2095.83
v -3390.74 108.94 2095.83
v -3393.74 108.94 2095.83
v -3393.74 109.221 2095.83
v -3390.74 109.221 2095.83
v -3390.55 109.176 2095.72
v -3390.53 109.226 2095.7
v -3390.79 109.226 2095.7
v -3390.78 109.176 2095.72
v -3390.53 109.226 2095.7
v -3390.53 109.226 2095.96
v -3390.79 109.226 2095.96
v -3390.79 109.226 2095.7
v -3390.53 109.226 2095.96
v -3390.55 109.176 2095.95
v -3390.78 109.176 2095.95
v -3390.79 109.226 2095.96
v -3390.55 109.176 2095.95
v -3390.55 109.176 2095.72
v -3390.78 109.176 2095.72
v -3390.78 109.176 2095.95
v -3390.78 109.176 2095.72
v -3390.79 109.226 2095.7
v -3390.79 109.226 2095.96
v -3390.78 109.176 2095.95
v -3390.55 109.176 2095.95
v -3390.53 109.226 2095.96
v -3390.53 109.226 2095.7
v -3390.55 109.176 2095.72
v -3390.74 108.9 2095.83
v -3390.74 108.922 2095.81
v -3393.74 108.922 2095.81
v -3393.74 108.9 2095.83
v -3390.74 108.922 2095.81
v -3390.74 108.944 2095.83
v -3393.74 108.944 2095.83
v -3393.74 108.922 2095.81
v -3390.74 108.944 2095.83
v -3390.74 108.922 2095.85
v -3393.74 108.922 2095.85
v -3393.74 108.944 2095.83
v -3390.74 108.922 2095.85
v -3390.74 108.9 2095.83
v -3393.74 108.9 2095.83
v -3393.74 108.922 2095.85
v -3390.74 108.171 2095.79
v -3390.74 108.246 2095.79
v -3393.74 108.246 2095.79
v -3393.74 108.171 2095.79
v -3390.74 108.246 2095.79
v -3390.74 108.246 2095.87
v -3393.74 108.246 2095.87
v -3393.74 108.246 2095.79
v -3390.74 108.246 2095.87
v -3390.74 108.171 2095.87
v -3393.74 108.171 2095.87
v -3393.74 108.246 2095.87
v -3390.73 109.049 2095.83
v -3390.74 109.072 2095.81
v -3390.92 109.149 2095.81
v -3390.92 109.126 2095.83
v -3391.11 109.181 2095.81
v -3391.11 109.158 2095.83
v -3391.3 109.149 2095.81
v -3391.3 109.126 2095.83
v -3391.49 109.072 2095.81
v -3391.49 109.049 2095.83
v -3391.67 109.149 2095.81
v -3391.67 109.126 2095.83
v -3391.86 109.181 2095.81
v -3391.86 109.158 2095.83
v -3392.05 109.149 2095.81
v -3392.05 109.126 2095.83
v -3392.24 109.072 2095.81
v -3392.24 109.049 2095.83
v -3392.42 109.149 2095.81
v -3392.42 109.126 2095.83
v -3392.61 109.181 2095.81
v -3392.61 109.158 2095.83
v -3392.8 109.149 2095.81
v -3392.8 109.126 2095.83
v -3392.99 109.072 2095.81
v -3392.99 109.049 2095.83
v -3393.17 109.149 2095.81
v -3393.17 109.126 2095.83
v -3393.36 109.181 2095.81
v -3393.36 109.158 2095.83
v -3393.55 109.149 2095.81
v -3393.55 109.126 2095.83
v -3393.74 109.072 2095.81
v -3393.74 109.049 2095.83
v -3390.74 109.072 2095.81
v -3390.74 109.095 2095.83
v -3390.93 109.172 2095.83
v -3390.92 109.149 2095.81
v -3391.11 109.204 2095.83
v -3391.11 109.181 2095.81
v -3391.29 109.172 2095.83
v -3391.3 109.149 2095.81
v -3391.49 109.095 2095.83
v -3391.49 109.072 2095.81
v -3391.68 109.172 2095.83
v -3391.67 109.149 2095.81
v -3391.86 109.204 2095.83
v -3391.86 109.181 2095.81
v -3392.04 109.172 2095.83
v -3392.05 109.149 2095.81
v -3392.24 109.095 2095.83
v -3392.24 109.072 2095.81
v -3392.43 109.172 2095.83
v -3392.42 109.149 2095.81
v -3392.61 109.204 2095.83
v -3392.61 109.181 2095.81
v -3392.79 109.172 2095.83
v -3392.8 109.149 2095.81
v -3392.99 109.095 2095.83
v -3392.99 109.072 2095.81
v -3393.18 109.172 2095.83
v -3393.17 109.149 2095.81
v -3393.36 109.204 2095.83
v -3393.36 109.181 2095.81
v -3393.54 109.172 2095.83
v -3393.55 109.149 2095.81
v -3393.73 109.095 2095.83
v -3393.74 109.072 2095.81
v -3390.74 109.095 2095.83
v -3390.74 109.072 2095.85
v -3390.92 109.149 2095.85
v -3390.93 109.172 2095.83
v -3391.11 109.181 2095.85
v -3391.11 109.204 2095.83
v -3391.3 109.149 2095.85
v -3391.29 109.172 2095.83
v -3391.49 109.072 2095.85
v -3391.49 109.095 2095.83
v -3391.67 109.149 2095.85
v -3391.68 109.172 2095.83
v -3391.86 109.181 2095.85
v -3391.86 109.204 2095.83
v -3392.05 109.149 2095.85
v -3392.04 109.172 2095.83
v -3392.24 109.072 2095.85
v -3392.24 109.095 2095.83
v -3392.42 109.149 2095.85
v -3392.43 109.172 2095.83
v -3392.61 109.181 2095.85
v -3392.61 109.204 2095.83
v -3392.8 109.149 2095.85
v -3392.79 109.172 2095.83
v -3392.99 109.072 2095.85
v -3392.99 109.095 2095.83
v -3393.17 109.149 2095.85
v -3393.18 109.172 2095.83
v -3393.36 109.181 2095.85
v -3393.36 109.204 2095.83
v -3393.55 109.149 2095.85
v -3393.54 109.172 2095.83
v -3393.74 109.072 2095.85
v -3393.73 109.095 2095.83
v -3390.74 109.072 2095.85
v -3390.73 109.049 2095.83
v -3390.92 109.126 2095.83
v -3390.92 109.149 2095.85
v -3391.11 109.158 2095.83
v -3391.11 109.181 2095.85
v -3391.3 109.126 2095.83
v -3391.3 109.149 2095.85
v -3391.49 109.049 2095.83
v -3391.49 109.072 2095.85
v -3391.67 109.126 2095.83
v -3391.67 109.149 2095.85
v -3391.86 109.158 2095.83
v -3391.86 109.181 2095.85
v -3392.05 109.126 2095.83
v -3392.05 109.149 2095.85
v -3392.24 109.049 2095.83
v -3392.24 109.072 2095.85
v -3392.42 109.126 2095.83
v -3392.42 109.149 2095.85
v -3392.61 109.158 2095.83
v -3392.61 109.181 2095.85
v -3392.8 109.126 2095.83
v -3392.8 109.149 2095.85
v -3392.99 109.049 2095.83
v -3392.99 109.072 2095.85
v -3393.17 109.126 2095.83
v -3393.17 109.149 2095.85
v -3393.36 109.158 2095.83
v -3393.36 109.181 2095.85
v -3393.55 109.126 2095.83
v -3393.55 109.149 2095.85
v -3393.74 109.049 2095.83
v -3393.74 109.072 2095.85
v -3393.59 107.705 2098.96
v -3393.59 108.215 2098.96
v -3390.59 108.215 2098.96
v -3390.59 107.705 2098.96
v -3393.59 108.215 2098.96
v -3393.59 108.253 2098.86
v -3390.59 108.253 2098.86
v -3390.59 108.215 2098.96
v -3393.59 108.253 2098.86
v -3393.59 108.215 2098.76
v -3390.59 108.215 2098.76
v -3390.59 108.253 2098.86
v -3393.59 108.215 2098.76
v -3393.59 107.705 2098.76
v -3390.59 107.705 2098.76
v -3390.59 108.215 2098.76
v -3393.76 107.663 2099.01
v -3393.76 109.22 2098.96
v -3393.56 109.22 2098.96
v -3393.56 107.663 2099.01
v -3393.66 107.663 2099.01
v -3393.76 109.22 2098.76
v -3393.76 107.663 2098.71
v -3393.56 107.663 2098.71
v -3393.56 109.22 2098.76
v -3393.56 107.663 2099.01
v -3393.56 109.22 2098.96
v -3393.56 109.22 2098.76
v -3393.56 107.663 2098.71
v -3393.76 107.663 2098.71
v -3393.76 109.22 2098.76
v -3393.76 109.22 2098.96
v -3393.76 107.663 2099.01
v -3393.59 108.161 2098.86
v -3393.59 108.93 2098.86
v -3390.59 108.93 2098.86
v -3390.59 108.161 2098.86
v -3393.59 108.161 2098.86
v -3390.59 108.161 2098.86
v -3390.59 108.93 2098.86
v -3393.59 108.93 2098.86
v -3393.59 108.96 2098.86
v -3393.59 109.24 2098.86
v -3390.59 109.24 2098.86
v -3390.59 108.96 2098.86
v -3393.59 108.96 2098.86
v -3390.59 108.96 2098.86
v -3390.59 109.24 2098.86
v -3393.59 109.24 2098.86
v -3393.78 109.195 2098.97
v -3393.79 109.245 2098.99
v -3393.53 109.245 2098.99
v -3393.55 109.195 2098.97
v -3393.79 109.245 2098.99
v -3393.79 109.245 2098.73
v -3393.53 109.245 2098.73
v -3393.53 109.245 2098.99
v -3393.79 109.245 2098.73
v -3393.78 109.195 2098.74
v -3393.55 109.195 2098.74
v -3393.53 109.245 2098.73
v -3393.78 109.195 2098.74
v -3393.78 109.195 2098.97
v -3393.55 109.195 2098.97
v -3393.55 109.195 2098.74
v -3393.55 109.195 2098.97
v -3393.53 109.245 2098.99
v -3393.53 109.245 2098.73
v -3393.55 109.195 2098.74
v -3393.78 109.195 2098.74
v -3393.79 109.245 2098.73
v -3393.79 109.245 2098.99
v -3393.78 109.195 2098.97
v -3393.59 108.92 2098.86
v -3393.59 108.942 2098.88
v -3390.59 108.942 2098.88
v -3390.59 108.92 2098.86
v -3393.59 108.942 2098.88
v -3393.59 108.964 2098.86
v -3390.59 108.964 2098.86
v -3390.59 108.942 2098.88
v -3393.59 108.964 2098.86
v -3393.59 108.942 2098.84
v -3390.59 108.942 2098.84
v -3390.59 108.964 2098.86
v -3393.59 108.942 2098.84
v -3393.59 108.92 2098.86
v -3390.59 108.92 2098.86
v -3390.59 108.942 2098.84
v -3393.59 108.19 2098.9
v -3393.59 108.265 2098.9
v -3390.59 108.265 2098.9
v -3390.59 108.19 2098.9
v -3393.59 108.265 2098.9
v -3393.59 108.265 2098.82
v -3390.59 108.265 2098.82
v -3390.59 108.265 2098.9
v -3393.59 108.265 2098.82
v -3393.59 108.19 2098.82
v -3390.59 108.19 2098.82
v -3390.59 108.265 2098.82
v -3393.59 109.068 2098.86
v -3393.59 109.092 2098.88
v -3393.4 109.168 2098.88
v -3393.4 109.145 2098.86
v -3393.21 109.201 2098.88
v -3393.21 109.178 2098.86
v -3393.02 109.168 2098.88
v -3393.02 109.145 2098.86
v -3392.84 109.092 2098.88
v -3392.84 109.068 2098.86
v -3392.65 109.168 2098.88
v -3392.65 109.145 2098.86
v -3392.46 109.201 2098.88
v -3392.46 109.178 2098.86
v -3392.27 109.168 2098.88
v -3392.27 109.145 2098.86
v -3392.09 109.092 2098.88
v -3392.09 109.068 2098.86
v -3391.9 109.168 2098.88
v -3391.9 109.145 2098.86
v -3391.71 109.201 2098.88
v -3391.71 109.178 2098.86
v -3391.52 109.168 2098.88
v -3391.52 109.145 2098.86
v -3391.34 109.092 2098.88
v -3391.34 109.068 2098.86
v -3391.15 109.168 2098.88
v -3391.15 109.145 2098.86
v -3390.96 109.201 2098.88
v -3390.96 109.178 2098.86
v -3390.77 109.168 2098.88
v -3390.77 109.145 2098.86
v -3390.59 109.092 2098.88
v -3390.58 109.068 2098.86
v -3393.59 109.092 2098.88
v -3393.58 109.115 2098.86
v -3393.39 109.191 2098.86
v -3393.4 109.168 2098.88
v -3393.21 109.224 2098.86
v -3393.21 109.201 2098.88
v -3393.03 109.191 2098.86
v -3393.02 109.168 2098.88
v -3392.84 109.115 2098.86
v -3392.84 109.092 2098.88
v -3392.64 109.191 2098.86
v -3392.65 109.168 2098.88
v -3392.46 109.224 2098.86
v -3392.46 109.201 2098.88
v -3392.28 109.191 2098.86
v -3392.27 109.168 2098.88
v -3392.09 109.115 2098.86
v -3392.09 109.092 2098.88
v -3391.89 109.191 2098.86
v -3391.9 109.168 2098.88
v -3391.71 109.224 2098.86
v -3391.71 109.201 2098.88
v -3391.53 109.191 2098.86
v -3391.52 109.168 2098.88
v -3391.34 109.115 2098.86
v -3391.34 109.092 2098.88
v -3391.14 109.191 2098.86
v -3391.15 109.168 2098.88
v -3390.96 109.224 2098.86
v -3390.96 109.201 2098.88
v -3390.78 109.191 2098.86
v -3390.77 109.168 2098.88
v -3390.59 109.115 2098.86
v -3390.59 109.092 2098.88
v -3393.58 109.115 2098.86
v -3393.59 109.092 2098.83
v -3393.4 109.168 2098.84
v -3393.39 109.191 2098.86
v -3393.21 109.201 2098.84
v -3393.21 109.224 2098.86
v -3393.02 109.168 2098.84
v -3393.03 109.191 2098.86
v -3392.84 109.092 2098.83
v -3392.84 109.115 2098.86
v -3392.65 109.168 2098.84
v -3392.64 109.191 2098.86
v -3392.46 109.201 2098.84
v -3392.46 109.224 2098.86
v -3392.27 109.168 2098.84
v -3392.28 109.191 2098.86
v -3392.09 109.092 2098.83
v -3392.09 109.115 2098.86
v -3391.9 109.168 2098.84
v -3391.89 109.191 2098.86
v -3391.71 109.201 2098.84
v -3391.71 109.224 2098.86
v -3391.52 109.168 2098.84
v -3391.53 109.191 2098.86
v -3391.34 109.092 2098.83
v -3391.34 109.115 2098.86
v -3391.15 109.168 2098.84
v -3391.14 109.191 2098.86
v -3390.96 109.201 2098.84
v -3390.96 109.224 2098.86
v -3390.77 109.168 2098.84
v -3390.78 109.191 2098.86
v -3390.59 109.092 2098.83
v -3390.59 109.115 2098.86
v -3393.59 109.092 2098.83
v -3393.59 109.068 2098.86
v -3393.4 109.145 2098.86
v -3393.4 109.168 2098.84
v -3393.21 109.178 2098.86
v -3393.21 109.201 2098.84
v -3393.02 109.145 2098.86
v -3393.02 109.168 2098.84
v -3392.84 109.068 2098.86
v -3392.84 109.092 2098.83
v -3392.65 109.145 2098.86
v -3392.65 109.168 2098.84
v -3392.46 109.178 2098.86
v -3392.46 109.201 2098.84
v -3392.27 109.145 2098.86
v -3392.27 109.168 2098.84
v -3392.09 109.068 2098.86
v -3392.09 109.092 2098.83
v -3391.9 109.145 2098.86
v -3391.9 109.168 2098.84
v -3391.71 109.178 2098.86
v -3391.71 109.201 2098.84
v -3391.52 109.145 2098.86
v -3391.52 109.168 2098.84
v -3391.34 109.068 2098.86
v -3391.34 109.092 2098.83
v -3391.15 109.145 2098.86
v -3391.15 109.168 2098.84
v -3390.96 109.178 2098.86
v -3390.96 109.201 2098.84
v -3390.77 109.145 2098.86
v -3390.77 109.168 2098.84
v -3390.58 109.068 2098.86
v -3390.59 109.092 2098.83
v -3390.54 107.668 2098.79
v -3390.54 108.177 2098.79
v -3390.54 108.177 2095.79
v -3390.54 107.668 2095.79
v -3390.54 108.177 2098.79
v -3390.64 108.215 2098.79
v -3390.64 108.215 2095.79
v -3390.54 108.177 2095.79
v -3390.64 108.215 2098.79
v -3390.74 108.177 2098.79
v -3390.74 108.177 2095.79
v -3390.64 108.215 2095.79
v -3390.74 108.177 2098.79
v -3390.74 107.668 2098.79
v -3390.74 107.668 2095.79
v -3390.74 108.177 2095.79
v -3390.49 107.625 2098.97
v -3390.54 109.182 2098.97
v -3390.54 109.182 2098.77
v -3390.49 107.625 2098.77
v -3390.49 107.625 2098.87
v -3390.75 109.182 2098.97
v -3390.79 107.625 2098.97
v -3390.79 107.625 2098.77
v -3390.75 109.182 2098.77
v -3390.49 107.625 2098.77
v -3390.54 109.182 2098.77
v -3390.75 109.182 2098.77
v -3390.79 107.625 2098.77
v -3390.79 107.625 2098.97
v -3390.75 109.182 2098.97
v -3390.54 109.182 2098.97
v -3390.49 107.625 2098.97
v -3390.64 108.123 2098.79
v -3390.64 108.893 2098.79
v -3390.64 108.893 2095.79
v -3390.64 108.123 2095.79
v -3390.65 108.123 2098.79
v -3390.65 108.123 2095.79
v -3390.65 108.893 2095.79
v -3390.65 108.893 2098.79
v -3390.64 108.922 2098.79
v -3390.64 109.202 2098.79
v -3390.64 109.202 2095.79
v -3390.64 108.922 2095.79
v -3390.65 108.922 2098.79
v -3390.65 108.922 2095.79
v -3390.65 109.202 2095.79
v -3390.65 109.202 2098.79
v -3390.53 109.157 2098.98
v -3390.51 109.207 2099
v -3390.51 109.207 2098.74
v -3390.53 109.157 2098.75
v -3390.51 109.207 2099
v -3390.78 109.207 2099
v -3390.78 109.207 2098.74
v -3390.51 109.207 2098.74
v -3390.78 109.207 2099
v -3390.76 109.157 2098.98
v -3390.76 109.157 2098.75
v -3390.78 109.207 2098.74
v -3390.76 109.157 2098.98
v -3390.53 109.157 2098.98
v -3390.53 109.157 2098.75
v -3390.76 109.157 2098.75
v -3390.53 109.157 2098.75
v -3390.51 109.207 2098.74
v -3390.78 109.207 2098.74
v -3390.76 109.157 2098.75
v -3390.76 109.157 2098.98
v -3390.78 109.207 2099
v -3390.51 109.207 2099
v -3390.53 109.157 2098.98
v -3390.64 108.882 2098.79
v -3390.62 108.904 2098.79
v -3390.62 108.904 2095.79
v -3390.64 108.882 2095.79
v -3390.62 108.904 2098.79
v -3390.64 108.926 2098.79
v -3390.64 108.926 2095.79
v -3390.62 108.904 2095.79
v -3390.64 108.926 2098.79
v -3390.67 108.904 2098.79
v -3390.67 108.904 2095.79
v -3390.64 108.926 2095.79
v -3390.67 108.904 2098.79
v -3390.64 108.882 2098.79
v -3390.64 108.882 2095.79
v -3390.67 108.904 2095.79
v -3390.61 108.152 2098.79
v -3390.61 108.227 2098.79
v -3390.61 108.227 2095.79
v -3390.61 108.152 2095.79
v -3390.61 108.227 2098.79
v -3390.68 108.227 2098.79
v -3390.68 108.227 2095.79
v -3390.61 108.227 2095.79
v -3390.68 108.227 2098.79
v -3390.68 108.152 2098.79
v -3390.68 108.152 2095.79
v -3390.68 108.227 2095.79
v -3390.64 109.03 2098.8
v -3390.62 109.054 2098.79
v -3390.62 109.13 2098.6
v -3390.64 109.107 2098.61
v -3390.62 109.163 2098.42
v -3390.64 109.14 2098.42
v -3390.62 109.13 2098.23
v -3390.64 109.107 2098.23
v -3390.62 109.054 2098.04
v -3390.64 109.03 2098.04
v -3390.62 109.13 2097.85
v -3390.64 109.107 2097.86
v -3390.62 109.163 2097.67
v -3390.64 109.14 2097.67
v -3390.62 109.13 2097.48
v -3390.64 109.107 2097.48
v -3390.62 109.054 2097.29
v -3390.64 109.03 2097.29
v -3390.62 109.13 2097.1
v -3390.64 109.107 2097.11
v -3390.62 109.163 2096.92
v -3390.64 109.14 2096.92
v -3390.62 109.13 2096.73
v -3390.64 109.107 2096.73
v -3390.62 109.054 2096.54
v -3390.64 109.03 2096.54
v -3390.62 109.13 2096.35
v -3390.64 109.107 2096.36
v -3390.62 109.163 2096.17
v -3390.64 109.14 2096.17
v -3390.62 109.13 2095.98
v -3390.64 109.107 2095.98
v -3390.62 109.054 2095.79
v -3390.64 109.03 2095.79
v -3390.62 109.054 2098.79
v -3390.64 109.077 2098.79
v -3390.64 109.153 2098.6
v -3390.62 109.13 2098.6
v -3390.64 109.186 2098.42
v -3390.62 109.163 2098.42
v -3390.64 109.153 2098.23
v -3390.62 109.13 2098.23
v -3390.64 109.077 2098.04
v -3390.62 109.054 2098.04
v -3390.64 109.153 2097.85
v -3390.62 109.13 2097.85
v -3390.64 109.186 2097.67
v -3390.62 109.163 2097.67
v -3390.64 109.153 2097.48
v -3390.62 109.13 2097.48
v -3390.64 109.077 2097.29
v -3390.62 109.054 2097.29
v -3390.64 109.153 2097.1
v -3390.62 109.13 2097.1
v -3390.64 109.186 2096.92
v -3390.62 109.163 2096.92
v -3390.64 109.153 2096.73
v -3390.62 109.13 2096.73
v -3390.64 109.077 2096.54
v -3390.62 109.054 2096.54
v -3390.64 109.153 2096.35
v -3390.62 109.13 2096.35
v -3390.64 109.186 2096.17
v -3390.62 109.163 2096.17
v -3390.64 109.153 2095.98
v -3390.62 109.13 2095.98
v -3390.64 109.077 2095.8
v -3390.62 109.054 2095.79
v -3390.64 109.077 2098.79
v -3390.67 109.054 2098.79
v -3390.67 109.13 2098.6
v -3390.64 109.153 2098.6
v -3390.67 109.163 2098.42
v -3390.64 109.186 2098.42
v -3390.67 109.13 2098.23
v -3390.64 109.153 2098.23
v -3390.67 109.054 2098.04
v -3390.64 109.077 2098.04
v -3390.67 109.13 2097.85
v -3390.64 109.153 2097.85
v -3390.67 109.163 2097.67
v -3390.64 109.186 2097.67
v -3390.67 109.13 2097.48
v -3390.64 109.153 2097.48
v -3390.67 109.054 2097.29
v -3390.64 109.077 2097.29
v -3390.67 109.13 2097.1
v -3390.64 109.153 2097.1
v -3390.67 109.163 2096.92
v -3390.64 109.186 2096.92
v -3390.67 109.13 2096.73
v -3390.64 109.153 2096.73
v -3390.67 109.054 2096.54
v -3390.64 109.077 2096.54
v -3390.67 109.13 2096.35
v -3390.64 109.153 2096.35
v -3390.67 109.163 2096.17
v -3390.64 109.186 2096.17
v -3390.67 109.13 2095.98
v -3390.64 109.153 2095.98
v -3390.67 109.054 2095.79
v -3390.64 109.077 2095.8
v -3390.67 109.054 2098.79
v -3390.64 109.03 2098.8
v -3390.64 109.107 2098.61
v -3390.67 109.13 2098.6
v -3390.64 109.14 2098.42
v -3390.67 109.163 2098.42
v -3390.64 109.107 2098.23
v -3390.67 109.13 2098.23
v -3390.64 109.03 2098.04
v -3390.67 109.054 2098.04
v -3390.64 109.107 2097.86
v -3390.67 109.13 2097.85
v -3390.64 109.14 2097.67
v -3390.67 109.163 2097.67
v -3390.64 109.107 2097.48
v -3390.67 109.13 2097.48
v -3390.64 109.03 2097.29
v -3390.67 109.054 2097.29
v -3390.64 109.107 2097.11
v -3390.67 109.13 2097.1
v -3390.64 109.14 2096.92
v -3390.67 109.163 2096.92
v -3390.64 109.107 2096.73
v -3390.67 109.13 2096.73
v -3390.64 109.03 2096.54
v -3390.67 109.054 2096.54
v -3390.64 109.107 2096.36
v -3390.67 109.13 2096.35
v -3390.64 109.14 2096.17
v -3390.67 109.163 2096.17
v -3390.64 109.107 2095.98
v -3390.67 109.13 2095.98
v -3390.64 109.03 2095.79
v -3390.67 109.054 2095.79
v -3424 108 2130
v -3424 108 2128
v -3424 108.003 2126
v -3424 108.007 2124
v -3424 108.014 2122
v -3424 108.022 2120
v -3424 108.032 2118
v -3424 108.042 2116
v -3424 108.054 2114
v -3424 108.067 2112
v -3424 108.082 2110
v -3424 108.101 2108
v -3424 108.123 2106
v -3424 108.149 2104
v -3424 108.177 2102
v -3424 108.208 2100
v -3424 108.241 2098
v -3424 108.277 2096
v -3424 108.313 2094
v -3424 108.349 2092
v -3424 108.383 2090
v -3424 108.414 2088
v -3424 108.442 2086
v -3424 108.463 2084
v -3424 108.477 2082
v -3424 108.481 2080
v -3424 108.474 2078
v -3424 108.455 2076
v -3424 108.423 2074
v -3424 108.378 2072
v -3424 108.319 2070
v -3424 108.257 2068
v -3422 108 2130
v -3422 108 2128
v -3422 108.002 2126
v -3422 108.007 2124
v -3422 108.014 2122
v -3422 108.022 2120
v -3422 108.032 2118
v -3422 108.044 2116
v -3422 108.056 2114
v -3422 108.07 2112
v -3422 108.087 2110
v -3422 108.107 2108
v -3422 108.13 2106
v -3422 108.156 2104
v -3422 108.186 2102
v -3422 108.218 2100
v -3422 108.253 2098
v -3422 108.29 2096
v -3422 108.326 2094
v -3422 108.363 2092
v -3422 108.399 2090
v -3422 108.432 2088
v -3422 108.461 2086
v -3422 108.484 2084
v -3422 108.5 2082
v -3422 108.507 2080
v -3422 108.505 2078
v -3422 108.49 2076
v -3422 108.465 2074
v -3422 108.426 2072
v -3422 108.375 2070
v -3422 108.318 2068
v -3420 108 2130
v -3420 108 2128
v -3420 108.002 2126
v -3420 108.007 2124
v -3420 108.014 2122
v -3420 108.022 2120
v -3420 108.033 2118
v -3420 108.045 2116
v -3420 108.058 2114
v -3420 108.074 2112
v -3420 108.091 2110
v -3420 108.112 2108
v -3420 108.137 2106
v -3420 108.164 2104
v -3420 108.194 2102
v -3420 108.228 2100
v -3420 108.264 2098
v -3420 108.301 2096
v -3420 108.339 2094
v -3420 108.377 2092
v -3420 108.414 2090
v -3420 108.448 2088
v -3420 108.478 2086
v -3420 108.504 2084
v -3420 108.522 2082
v -3420 108.533 2080
v -3420 108.534 2078
v -3420 108.525 2076
v -3420 108.505 2074
v -3420 108.473 2072
v -3420 108.429 2070
v -3420 108.379 2068
v -3418 108 2130
v -3418 108 2128
v -3418 108.002 2126
v -3418 108.006 2124
v -3418 108.013 2122
v -3418 108.022 2120
v -3418 108.033 2118
v -3418 108.046 2116
v -3418 108.06 2114
v -3418 108.076 2112
v -3418 108.095 2110
v -3418 108.117 2108
v -3418 108.143 2106
v -3418 108.171 2104
v -3418 108.202 2102
v -3418 108.236 2100
v -3418 108.273 2098
v -3418 108.311 2096
v -3418 108.35 2094
v -3418 108.389 2092
v -3418 108.427 2090
v -3418 108.462 2088
v -3418 108.494 2086
v -3418 108.52 2084
v -3418 108.542 2082
v -3418 108.555 2080
v -3418 108.56 2078
v -3418 108.556 2076
v -3418 108.542 2074
v -3418 108.516 2072
v -3418 108.48 2070
v -3418 108.436 2068
v -3416 108 2130
v -3416 108 2128
v -3416 108.002 2126
v -3416 108.006 2124
v -3416 108.013 2122
v -3416 108.022 2120
v -3416 108.033 2118
v -3416 108.047 2116
v -3416 108.062 2114
v -3416 108.079 2112
v -3416 108.098 2110
v -3416 108.121 2108
v -3416 108.147 2106
v -3416 108.176 2104
v -3416 108.208 2102
v -3416 108.243 2100
v -3416 108.28 2098
v -3416 108.319 2096
v -3416 108.358 2094
v -3416 108.397 2092
v -3416 108.436 2090
v -3416 108.472 2088
v -3416 108.505 2086
v -3416 108.532 2084
v -3416 108.556 2082
v -3416 108.573 2080
v -3416 108.582 2078
v -3416 108.582 2076
v -3416 108.573 2074
v -3416 108.553 2072
v -3416 108.525 2070
v -3416 108.487 2068
v -3414 108 2130
v -3414 108 2128
v -3414 108.002 2126
v -3414 108.006 2124
v -3414 108.013 2122
v -3414 108.022 2120
v -3414 108.033 2118
v -3414 108.047 2116
v -3414 108.062 2114
v -3414 108.08 2112
v -3414 108.101 2110
v -3414 108.124 2108
v -3414 108.151 2106
v -3414 108.18 2104
v -3414 108.212 2102
v -3414 108.247 2100
v -3414 108.284 2098
v -3414 108.323 2096
v -3414 108.363 2094
v -3414 108.402 2092
v -3414 108.441 2090
v -3414 108.478 2088
v -3414 108.511 2086
v -3414 108.541 2084
v -3414 108.566 2082
v -3414 108.585 2080
v -3414 108.597 2078
v -3414 108.601 2076
v -3414 108.597 2074
v -3414 108.584 2072
v -3414 108.562 2070
v -3414 108.531 2068
v -3412 108 2130
v -3412 108 2128
v -3412 108.001 2126
v -3412 108.005 2124
v -3412 108.012 2122
v -3412 108.021 2120
v -3412 108.033 2118
v -3412 108.047 2116
v -3412 108.063 2114
v -3412 108.081 2112
v -3412 108.102 2110
v -3412 108.126 2108
v -3412 108.153 2106
v -3412 108.183 2104
v -3412 108.215 2102
v -3412 108.25 2100
v -3412 108.287 2098
v -3412 108.325 2096
v -3412 108.364 2094
v -3412 108.403 2092
v -3412 108.441 2090
v -3412 108.478 2088
v -3412 108.512 2086
v -3412 108.543 2084
v -3412 108.569 2082
v -3412 108.59 2080
v -3412 108.605 2078
v -3412 108.612 2076
v -3412 108.613 2074
v -3412 108.604 2072
v -3412 108.591 2070
v -3412 108.566 2068
v -3410 108 2130
v -3410 108 2128
v -3410 108.001 2126
v -3410 108.005 2124
v -3410 108.011 2122
v -3410 108.02 2120
v -3410 108.032 2118
v -3410 108.046 2116
v -3410 108.062 2114
v -3410 108.081 2112
v -3410 108.102 2110
v -3410 108.126 2108
v -3410 108.153 2106
v -3410 108.183 2104
v -3410 108.215 2102
v -3410 108.249 2100
v -3410 108.286 2098
v -3410 108.324 2096
v -3410 108.362 2094
v -3410 108.4 2092
v -3410 108.438 2090
v -3410 108.474 2088
v -3410 108.507 2086
v -3410 108.538 2084
v -3410 108.565 2082
v -3410 108.588 2080
v -3410 108.604 2078
v -3410 108.615 2076
v -3410 108.618 2074
v -3410 108.616 2072
v -3410 108.608 2070
v -3410 108.588 2068
v -3408 108 2130
v -3408 108 2128
v -3408 108.001 2126
v -3408 108.005 2124
v -3408 108.011 2122
v -3408 108.019 2120
v -3408 108.031 2118
v -3408 108.045 2116
v -3408 108.061 2114
v -3408 108.08 2112
v -3408 108.101 2110
v -3408 108.125 2108
v -3408 108.152 2106
v -3408 108.181 2104
v -3408 108.213 2102
v -3408 108.246 2100
v -3408 108.282 2098
v -3408 108.319 2096
v -3408 108.356 2094
v -3408 108.392 2092
v -3408 108.428 2090
v -3408 108.463 2088
v -3408 108.496 2086
v -3408 108.526 2084
v -3408 108.553 2082
v -3408 108.576 2080
v -3408 108.595 2078
v -3408 108.607 2076
v -3408 108.615 2074
v -3408 108.616 2072
v -3408 108.615 2070
v -3408 108.599 2068
v -3406 108 2130
v -3406 108 2128
v -3406 108.001 2126
v -3406 108.004 2124
v -3406 108.01 2122
v -3406 108.018 2120
v -3406 108.03 2118
v -3406 108.043 2116
v -3406 108.059 2114
v -3406 108.078 2112
v -3406 108.099 2110
v -3406 108.123 2108
v -3406 108.149 2106
v -3406 108.177 2104
v -3406 108.208 2102
v -3406 108.24 2100
v -3406 108.274 2098
v -3406 108.309 2096
v -3406 108.345 2094
v -3406 108.38 2092
v -3406 108.414 2090
v -3406 108.447 2088
v -3406 108.479 2086
v -3406 108.507 2084
v -3406 108.534 2082
v -3406 108.556 2080
v -3406 108.576 2078
v -3406 108.589 2076
v -3406 108.6 2074
v -3406 108.605 2072
v -3406 108.608 2070
v -3406 108.597 2068
v -3404 108 2130
v -3404 108 2128
v -3404 108.001 2126
v -3404 108.004 2124
v -3404 108.009 2122
v -3404 108.017 2120
v -3404 108.028 2118
v -3404 108.041 2116
v -3404 108.057 2114
v -3404 108.075 2112
v -3404 108.096 2110
v -3404 108.119 2108
v -3404 108.144 2106
v -3404 108.171 2104
v -3404 108.2 2102
v -3404 108.231 2100
v -3404 108.264 2098
v -3404 108.296 2096
v -3404 108.33 2094
v -3404 108.362 2092
v -3404 108.394 2090
v -3404 108.425 2088
v -3404 108.455 2086
v -3404 108.482 2084
v -3404 108.507 2082
v -3404 108.529 2080
v -3404 108.547 2078
v -3404 108.562 2076
v -3404 108.574 2074
v -3404 108.583 2072
v -3404 108.589 2070
v -3404 108.58 2068
v -3402 108 2130
v -3402 108 2128
v -3402 108.001 2126
v -3402 108.003 2124
v -3402 108.008 2122
v -3402 108.016 2120
v -3402 108.026 2118
v -3402 108.039 2116
v -3402 108.054 2114
v -3402 108.071 2112
v -3402 108.091 2110
v -3402 108.113 2108
v -3402 108.137 2106
v -3402 108.164 2104
v -3402 108.191 2102
v -3402 108.22 2100
v -3402 108.25 2098
v -3402 108.28 2096
v -3402 108.311 2094
v -3402 108.342 2092
v -3402 108.372 2090
v -3402 108.401 2088
v -3402 108.428 2086
v -3402 108.454 2084
v -3402 108.476 2082
v -3402 108.496 2080
v -3402 108.513 2078
v -3402 108.527 2076
v -3402 108.538 2074
v -3402 108.549 2072
v -3402 108.557 2070
v -3402 108.551 2068
v -3400 108 2130
v -3400 108 2128
v -3400 108 2126
v -3400 108.003 2124
v -3400 108.007 2122
v -3400 108.014 2120
v -3400 108.024 2118
v -3400 108.036 2116
v -3400 108.05 2114
v -3400 108.067 2112
v -3400 108.086 2110
v -3400 108.107 2108
v -3400 108.129 2106
v -3400 108.153 2104
v -3400 108.179 2102
v -3400 108.206 2100
v -3400 108.234 2098
v -3400 108.263 2096
v -3400 108.291 2094
v -3400 108.319 2092
v -3400 108.346 2090
v -3400 108.372 2088
v -3400 108.396 2086
v -3400 108.419 2084
v -3400 108.439 2082
v -3400 108.457 2080
v -3400 108.473 2078
v -3400 108.486 2076
v -3400 108.497 2074
v -3400 108.507 2072
v -3400 108.516 2070
v -3400 108.509 2068
v -3398 108 2130
v -3398 108 2128
v -3398 108 2126
v -3398 108.002 2124
v -3398 108.006 2122
v -3398 108.013 2120
v -3398 108.021 2118
v -3398 108.033 2116
v -3398 108.046 2114
v -3398 108.062 2112
v -3398 108.08 2110
v -3398 108.099 2108
v -3398 108.12 2106
v -3398 108.142 2104
v -3398 108.166 2102
v -3398 108.191 2100
v -3398 108.216 2098
v -3398 108.242 2096
v -3398 108.267 2094
v -3398 108.291 2092
v -3398 108.315 2090
v -3398 108.338 2088
v -3398 108.358 2086
v -3398 108.377 2084
v -3398 108.394 2082
v -3398 108.41 2080
v -3398 108.424 2078
v -3398 108.435 2076
v -3398 108.445 2074
v -3398 108.455 2072
v -3398 108.465 2070
v -3398 108.458 2068
v -3396 108 2130
v -3396 108 2128
v -3396 108 2126
v -3396 108.002 2124
v -3396 108.005 2122
v -3396 108.011 2120
v -3396 108.019 2118
v -3396 108.029 2116
v -3396 108.042 2114
v -3396 108.056 2112
v -3396 108.073 2110
v -3396 108.09 2108
v -3396 108.109 2106
v -3396 108.13 2104
v -3396 108.151 2102
v -3396 108.173 2100
v -3396 108.195 2098
v -3396 108.218 2096
v -3396 108.239 2094
v -3396 108.26 2092
v -3396 108.28 2090
v -3396 108.298 2088
v -3396 108.315 2086
v -3396 108.33 2084
v -3396 108.344 2082
v -3396 108.355 2080
v -3396 108.365 2078
v -3396 108.374 2076
v -3396 108.383 2074
v -3396 108.391 2072
v -3396 108.4 2070
v -3396 108.393 2068
v -3394 108 2130
v -3394 108 2128
v -3394 108 2126
v -3394 108.001 2124
v -3394 108.004 2122
v -3394 108.009 2120
v -3394 108.016 2118
v -3394 108.025 2116
v -3394 108.037 2114
v -3394 108.05 2112
v -3394 108.065 2110
v -3394 108.081 2108
v -3394 108.098 2106
v -3394 108.116 2104
v -3394 108.135 2102
v -3394 108.153 2100
v -3394 108.172 2098
v -3394 108.19 2096
v -3394 108.208 2094
v -3394 108.225 2092
v -3394 108.24 2090
v -3394 108.254 2088
v -3394 108.266 2086
v -3394 108.276 2084
v -3394 108.285 2082
v -3394 108.293 2080
v -3394 108.298 2078
v -3394 108.304 2076
v -3394 108.31 2074
v -3394 108.317 2072
v -3394 108.325 2070
v -3394 108.315 2068
v -3392 108 2130
v -3392 108 2128
v -3392 108 2126
v -3392 108.001 2124
v -3392 108.004 2122
v -3392 108.008 2120
v -3392 108.014 2118
v -3392 108.022 2116
v -3392 108.032 2114
v -3392 108.043 2112
v -3392 108.056 2110
v -3392 108.071 2108
v -3392 108.086 2106
v -3392 108.101 2104
v -3392 108.117 2102
v -3392 108.132 2100
v -3392 108.147 2098
v -3392 108.161 2096
v -3392 108.174 2094
v -3392 108.186 2092
v -3392 108.197 2090
v -3392 108.206 2088
v -3392 108.212 2086
v -3392 108.218 2084
v -3392 108.222 2082
v -3392 108.223 2080
v -3392 108.226 2078
v -3392 108.228 2076
v -3392 108.229 2074
v -3392 108.233 2072
v -3392 108.239 2070
v -3392 108.227 2068
v -3390 108 2130
v -3390 108 2128
v -3390 108 2126
v -3390 108.001 2124
v -3390 108.003 2122
v -3390 108.006 2120
v -3390 108.011 2118
v -3390 108.018 2116
v -3390 108.026 2114
v -3390 108.036 2112
v -3390 108.047 2110
v -3390 108.059 2108
v -3390 108.072 2106
v -3390 108.085 2104
v -3390 108.097 2102
v -3390 108.109 2100
v -3390 108.12 2098
v -3390 108.13 2096
v -3390 108.138 2094
v -3390 108.145 2092
v -3390 108.15 2090
v -3390 108.154 2088
v -3390 108.156 2086
v -3390 108.155 2084
v -3390 108.154 2082
v -3390 108.151 2080
v -3390 108.147 2078
v -3390 108.144 2076
v -3390 108.143 2074
v -3390 108.141 2072
v -3390 108.143 2070
v -3390 108.128 2068
v -3388 108 2130
v -3388 108 2128
v -3388 108 2126
v -3388 108.001 2124
v -3388 108.002 2122
v -3388 108.004 2120
v -3388 108.008 2118
v -3388 108.014 2116
v -3388 108.021 2114
v -3388 108.029 2112
v -3388 108.038 2110
v -3388 108.048 2108
v -3388 108.058 2106
v -3388 108.067 2104
v -3388 108.077 2102
v -3388 108.085 2100
v -3388 108.092 2098
v -3388 108.097 2096
v -3388 108.101 2094
v -3388 108.102 2092
v -3388 108.102 2090
v -3388 108.1 2088
v -3388 108.095 2086
v -3388 108.089 2084
v -3388 108.082 2082
v -3388 108.074 2080
v -3388 108.065 2078
v -3388 108.056 2076
v -3388 108.048 2074
v -3388 108.043 2072
v -3388 108.041 2070
v -3388 108.022 2068
v -3386 108 2130
v -3386 108 2128
v -3386 108 2126
v -3386 108 2124
v -3386 108.001 2122
v -3386 108.003 2120
v -3386 108.005 2118
v -3386 108.009 2116
v -3386 108.015 2114
v -3386 108.021 2112
v -3386 108.028 2110
v -3386 108.036 2108
v -3386 108.043 2106
v -3386 108.049 2104
v -3386 108.055 2102
v -3386 108.06 2100
v -3386 108.062 2098
v -3386 108.063 2096
v -3386 108.061 2094
v -3386 108.057 2092
v -3386 108.051 2090
v -3386 108.043 2088
v -3386 108.033 2086
v -3386 108.021 2084
v -3386 108.008 2082
v -3386 107.82 2080
v -3386 107.485 2078
v -3386 107.227 2076
v -3386 107.028 2074
v -3386 106.916 2072
v -3386 106.861 2070
v -3386 106.577 2068
v -3384 106.638 2130
v -3384 107.025 2128
v -3384 107.544 2126
v -3384 108 2124
v -3384 108 2122
v -3384 108.001 2120
v -3384 108.003 2118
v -3384 108.005 2116
v -3384 108.009 2114
v -3384 108.013 2112
v -3384 108.018 2110
v -3384 108.023 2108
v -3384 108.027 2106
v -3384 108.031 2104
v -3384 108.033 2102
v -3384 108.033 2100
v -3384 108.031 2098
v -3384 108.027 2096
v -3384 108.02 2094
v -3384 108.011 2092
v -3384 107.946 2090
v -3384 107.426 2088
v -3384 106.969 2086
v -3384 106.557 2084
v -3384 106.215 2082
v -3384 105.903 2080
v -3384 105.637 2078
v -3384 105.383 2076
v -3384 105.206 2074
v -3384 105.125 2072
v -3384 105.123 2070
v -3384 102.966 2068
v -3382 105.091 2130
v -3382 105.412 2128
v -3382 105.803 2126
v -3382 106.24 2124
v -3382 106.761 2122
v -3382 107.317 2120
v -3382 107.921 2118
v -3382 108.001 2116
v -3382 108.003 2114
v -3382 108.005 2112
v -3382 108.008 2110
v -3382 108.01 2108
v -3382 108.011 2106
v -3382 108.011 2104
v -3382 108.01 2102
v -3382 108.006 2100
v -3382 107.988 2098
v -3382 107.451 2096
v -3382 106.952 2094
v -3382 106.462 2092
v -3382 105.981 2090
v -3382 105.494 2088
v -3382 105.058 2086
v -3382 100.875 2084
v -3382 99.243 2082
v -3382 98.06 2080
v -3382 97.2309 2078
v -3382 96.635 2076
v -3382 96.3216 2074
v -3382 96.185 2072
v -3382 96.2681 2070
v -3382 95.8451 2068
v -3380 96.2675 2130
v -3380 96.9651 2128
v -3380 98.1639 2126
v -3380 99.807 2124
v -3380 103.539 2122
v -3380 105.462 2120
v -3380 105.962 2118
v -3380 106.449 2116
v -3380 106.884 2114
v -3380 107.227 2112
v -3380 107.412 2110
v -3380 107.433 2108
v -3380 107.309 2106
v -3380 107.078 2104
v -3380 106.783 2102
v -3380 106.409 2100
v -3380 105.994 2098
v -3380 105.539 2096
v -3380 105.062 2094
v -3380 100.4 2092
v -3380 98.231 2090
v -3380 96.6362 2088
v -3380 95.5047 2086
v -3380 94.5803 2084
v -3380 93.8941 2082
v -3380 93.3879 2080
v -3380 93.0173 2078
v -3380 92.7334 2076
v -3380 92.6366 2074
v -3380 92.651 2072
v -3380 92.7677 2070
v -3380 92.5733 2068
v -3378 92.7823 2130
v -3378 93.0801 2128
v -3378 93.6017 2126
v -3378 94.2953 2124
v -3378 95.2901 2122
v -3378 96.6202 2120
v -3378 98.3082 2118
v -3378 100.496 2116
v -3378 105.009 2114
v -3378 105.348 2112
v -3378 105.54 2110
v -3378 105.557 2108
v -3378 105.449 2106
v -3378 105.222 2104
v -3378 103.137 2102
v -3378 100.205 2100
v -3378 98.3033 2098
v -3378 96.7865 2096
v -3378 95.5249 2094
v -3378 94.3789 2092
v -3378 93.4249 2090
v -3378 92.6296 2088
v -3378 91.9835 2086
v -3378 91.4832 2084
v -3378 91.0994 2082
v -3378 90.8268 2080
v -3378 90.6372 2078
v -3378 90.5146 2076
v -3378 90.5099 2074
v -3378 90.5491 2072
v -3378 90.6589 2070
v -3378 90.6279 2068
v -3376 90.6507 2130
v -3376 90.75 2128
v -3376 91.0052 2126
v -3376 91.3929 2124
v -3376 91.9533 2122
v -3376 92.6488 2120
v -3376 93.5355 2118
v -3376 94.4782 2116
v -3376 95.4648 2114
v -3376 96.4003 2112
v -3376 96.9479 2110
v -3376 97.043 2108
v -3376 96.7227 2106
v -3376 96.0614 2104
v -3376 95.2813 2102
v -3376 94.3861 2100
v -3376 93.5402 2098
v -3376 92.7242 2096
v -3376 92.0395 2094
v -3376 91.3724 2092
v -3376 90.8578 2090
v -3376 90.3951 2088
v -3376 90.2951 2086
v -3376 90.3098 2084
v -3376 90.3252 2082
v -3376 90.3426 2080
v -3376 90.362 2078
v -3376 90.386 2076
v -3376 90.4129 2074
v -3376 90.4467 2072
v -3376 90.4857 2070
v -3376 90.513 2068
v -3374 90 2130
v -3374 90 2128
v -3374 90 2126
v -3374 90.0007 2124
v -3374 90.037 2122
v -3374 90.4345 2120
v -3374 90.9507 2118
v -3374 91.523 2116
v -3374 92.1031 2114
v -3374 92.5966 2112
v -3374 92.915 2110
v -3374 92.9833 2108
v -3374 92.8422 2106
v -3374 92.4901 2104
v -3374 92.0076 2102
v -3374 91.5128 2100
v -3374 90.9631 2098
v -3374 90.4577 2096
v -3374 90.1933 2094
v -3374 90.2062 2092
v -3374 90.2181 2090
v -3374 90.2287 2088
v -3374 90.2388 2086
v -3374 90.2479 2084
v -3374 90.2576 2082
v -3374 90.2696 2080
v -3374 90.2841 2078
v -3374 90.3025 2076
v -3374 90.323 2074
v -3374 90.3505 2072
v -3374 90.3838 2070
v -3374 90.4073 2068
v -3372 90 2130
v -3372 90 2128
v -3372 90 2126
v -3372 90.0005 2124
v -3372 90.0024 2122
v -3372 90.0059 2120
v -3372 90.0112 2118
v -3372 90.0186 2116
v -3372 90.2057 2114
v -3372 90.5183 2112
v -3372 90.7444 2110
v -3372 90.7874 2108
v -3372 90.6941 2106
v -3372 90.4919 2104
v -3372 90.1726 2102
v -3372 90.125 2100
v -3372 90.1379 2098
v -3372 90.1492 2096
v -3372 90.1595 2094
v -3372 90.1684 2092
v -3372 90.1762 2090
v -3372 90.1826 2088
v -3372 90.1887 2086
v -3372 90.1933 2084
v -3372 90.199 2082
v -3372 90.2058 2080
v -3372 90.2154 2078
v -3372 90.2272 2076
v -3372 90.2436 2074
v -3372 90.2661 2072
v -3372 90.2939 2070
v -3372 90.31 2068
v -3370 90 2130
v -3370 90 2128
v -3370 90 2126
v -3370 90.0004 2124
v -3370 90.0019 2122
v -3370 90.0048 2120
v -3370 90.0093 2118
v -3370 90.0155 2116
v -3370 90.0236 2114
v -3370 90.0336 2112
v -3370 90.0449 2110
v -3370 90.0572 2108
v -3370 90.0699 2106
v -3370 90.0826 2104
v -3370 90.0945 2102
v -3370 90.1055 2100
v -3370 90.1152 2098
v -3370 90.1236 2096
v -3370 90.1309 2094
v -3370 90.136 2092
v -3370 90.1406 2090
v -3370 90.1435 2088
v -3370 90.146 2086
v -3370 90.1468 2084
v -3370 90.1477 2082
v -3370 90.1506 2080
v -3370 90.1552 2078
v -3370 90.1631 2076
v -3370 90.1753 2074
v -3370 90.1908 2072
v -3370 90.2133 2070
v -3370 90.2244 2068
v -3368 90 2130
v -3368 90 2128
v -3368 90 2126
v -3368 90.0003 2124
v -3368 90.0015 2122
v -3368 90.0038 2120
v -3368 90.0075 2118
v -3368 90.0128 2116
v -3368 90.0198 2114
v -3368 90.0284 2112
v -3368 90.0382 2110
v -3368 90.0487 2108
v -3368 90.0596 2106
v -3368 90.0702 2104
v -3368 90.08 2102
v -3368 90.0889 2100
v -3368 90.0965 2098
v -3368 90.1024 2096
v -3368 90.1065 2094
v -3368 90.1098 2092
v -3368 90.1111 2090
v -3368 90.111 2088
v -3368 90.1101 2086
v -3368 90.1075 2084
v -3368 90.1049 2082
v -3368 90.1036 2080
v -3368 90.1189 2078
v -3368 90.1448 2076
v -3368 90.1591 2074
v -3368 90.1595 2072
v -3368 90.1514 2070
v -3368 90.1699 2068
v -3366 90 2130
v -3366 90 2128
v -3366 90 2126
v -3366 90.0002 2124
v -3366 90.0011 2122
v -3366 90.0029 2120
v -3366 90.0059 2118
v -3366 90.0104 2116
v -3366 90.0164 2114
v -3366 90.0238 2112
v -3366 90.0324 2110
v -3366 90.0415 2108
v -3366 90.0507 2106
v -3366 90.0595 2104
v -3366 90.0678 2102
v -3366 90.0753 2100
v -3366 90.081 2098
v -3366 90.0847 2096
v -3366 90.0872 2094
v -3366 90.0882 2092
v -3366 90.0872 2090
v -3366 90.0843 2088
v -3366 90.0812 2086
v -3366 90.1156 2084
v -3366 90.1624 2082
v -3366 90.1854 2080
v -3366 90.1926 2078
v -3366 90.1935 2076
v -3366 90.1961 2074
v -3366 90.2017 2072
v -3366 90.2106 2070
v -3366 90.2121 2068
v -3364 90.0684 2130
v -3364 90.0539 2128
v -3364 90.0219 2126
v -3364 90.0001 2124
v -3364 90.0007 2122
v -3364 90.0022 2120
v -3364 90.0046 2118
v -3364 90.0083 2116
v -3364 90.0135 2114
v -3364 90.02 2112
v -3364 90.0274 2110
v -3364 90.0352 2108
v -3364 90.0431 2106
v -3364 90.0507 2104
v -3364 90.0579 2102
v -3364 90.0639 2100
v -3364 90.0683 2098
v -3364 90.071 2096
v -3364 90.0724 2094
v -3364 90.0711 2092
v -3364 90.0683 2090
v -3364 90.0911 2088
v -3364 90.1498 2086
v -3364 90.1788 2084
v -3364 90.1774 2082
v -3364 90.1551 2080
v -3364 90.1249 2078
v -3364 90.0949 2076
v -3364 90.0832 2074
v -3364 90.0853 2072
v -3364 90.1091 2070
v -3364 90.0899 2068
v -3362 90.1268 2130
v -3362 90.1347 2128
v -3362 90.1418 2126
v -3362 90.1307 2124
v -3362 90.0831 2122
v -3362 90.0015 2120
v -3362 90.0034 2118
v -3362 90.0066 2116
v -3362 90.0111 2114
v -3362 90.0168 2112
v -3362 90.0232 2110
v -3362 90.0299 2108
v -3362 90.0368 2106
v -3362 90.0435 2104
v -3362 90.0497 2102
v -3362 90.0547 2100
v -3362 90.0584 2098
v -3362 90.06 2096
v -3362 90.0604 2094
v -3362 90.0583 2092
v -3362 90.0995 2090
v -3362 90.1549 2088
v -3362 90.1759 2086
v -3362 90.1613 2084
v -3362 90.1142 2082
v -3362 90.049 2080
v -3362 89.9736 2078
v -3362 89.9066 2076
v -3362 89.8591 2074
v -3362 89.8585 2072
v -3362 89.8819 2070
v -3362 89.8284 2068
f 3 2 1
f 2 3 4
f 15 14 13
f 11 10 9
f 12 10 11
f 16 14 15
f 7 6 5
f 8 6 7
f 19 18 17
f 28 27 26
f 25 24 23
f 22 21 20
f 31 30 29
f 43 42 41
f 44 42 43
f 39 38 37
f 38 39 40
f 32 30 31
f 36 34 35
f 35 34 33
f 45 46 47
f 47 46 48
f 49 50 51
f 51 50 52
f 53 54 55
f 55 54 56
f 57 58 59
f 59 58 60
f 79 78 77
f 80 79 77
f 81 80 77
f 84 83 82
f 85 84 82
f 92 91 90
f 93 92 90
f 63 62 61
f 64 63 61
f 67 66 65
f 68 67 65
f 71 70 69
f 72 71 69
f 75 74 73
f 76 75 73
f 88 87 86
f 89 88 86
f 96 95 94
f 97 96 94
f 100 99 98
f 101 100 98
f 104 103 102
f 105 104 102
f 108 107 106
f 109 108 106
f 132 131 130
f 133 132 130
f 112 111 110
f 116 115 114
f 117 116 114
f 120 119 118
f 121 120 118
f 124 123 122
f 125 124 122
f 113 112 110
f 232 231 230
f 266 265 264
f 267 266 264
f 198 197 196
f 199 198 196
f 164 163 162
f 165 164 162
f 136 135 134
f 137 136 134
f 140 139 138
f 141 140 138
f 144 143 142
f 145 144 142
f 148 147 146
f 149 148 146
f 152 151 150
f 153 152 150
f 156 155 154
f 157 156 154
f 160 159 158
f 161 160 158
f 233 232 230
f 128 127 126
f 129 128 126
f 268 266 267
f 234 232 233
f 269 268 267
f 200 198 199
f 201 200 199
f 166 164 165
f 167 166 165
f 235 234 233
f 168 166 167
f 202 200 201
f 203 202 201
f 169 168 167
f 270 268 269
f 271 270 269
f 236 234 235
f 237 236 235
f 272 270 271
f 273 272 271
f 238 236 237
f 239 238 237
f 170 168 169
f 171 170 169
f 204 202 203
f 205 204 203
f 206 204 205
f 207 206 205
f 172 170 171
f 173 172 171
f 240 238 239
f 241 240 239
f 274 272 273
f 275 274 273
f 276 274 275
f 208 206 207
f 209 208 207
f 174 172 173
f 175 174 173
f 242 240 241
f 277 276 275
f 243 242 241
f 210 208 209
f 176 174 175
f 177 176 175
f 211 210 209
f 278 276 277
f 279 278 277
f 244 242 243
f 245 244 243
f 178 176 177
f 280 278 279
f 281 280 279
f 246 244 245
f 247 246 245
f 179 178 177
f 212 210 211
f 213 212 211
f 214 212 213
f 215 214 213
f 180 178 179
f 181 180 179
f 248 246 247
f 249 248 247
f 282 280 281
f 283 282 281
f 284 282 283
f 216 214 215
f 217 216 215
f 182 180 181
f 183 182 181
f 250 248 249
f 285 284 283
f 251 250 249
f 184 182 183
f 185 184 183
f 218 216 217
f 219 218 217
f 286 284 285
f 287 286 285
f 252 250 251
f 253 252 251
f 186 184 185
f 288 286 287
f 289 288 287
f 254 252 253
f 255 254 253
f 187 186 185
f 220 218 219
f 221 220 219
f 222 220 221
f 223 222 221
f 188 186 187
f 189 188 187
f 256 254 255
f 257 256 255
f 290 288 289
f 291 290 289
f 292 290 291
f 224 222 223
f 225 224 223
f 190 188 189
f 191 190 189
f 258 256 257
f 293 292 291
f 259 258 257
f 192 190 191
f 193 192 191
f 226 224 225
f 227 226 225
f 294 292 293
f 295 294 293
f 260 258 259
f 261 260 259
f 194 192 193
f 296 294 295
f 297 296 295
f 262 260 261
f 263 262 261
f 195 194 193
f 228 226 227
f 229 228 227
f 316 315 314
f 317 316 314
f 318 317 314
f 321 320 319
f 322 321 319
f 329 328 327
f 330 329 327
f 300 299 298
f 301 300 298
f 304 303 302
f 305 304 302
f 308 307 306
f 309 308 306
f 312 311 310
f 313 312 310
f 325 324 323
f 326 325 323
f 333 332 331
f 334 333 331
f 337 336 335
f 338 337 335
f 341 340 339
f 342 341 339
f 345 344 343
f 346 345 343
f 369 368 367
f 370 369 367
f 349 348 347
f 353 352 351
f 354 353 351
f 357 356 355
f 358 357 355
f 361 360 359
f 362 361 359
f 350 349 347
f 469 468 467
f 503 502 501
f 504 503 501
f 435 434 433
f 436 435 433
f 401 400 399
f 402 401 399
f 373 372 371
f 374 373 371
f 377 376 375
f 378 377 375
f 381 380 379
f 382 381 379
f 385 384 383
f 386 385 383
f 389 388 387
f 390 389 387
f 393 392 391
f 394 393 391
f 397 396 395
f 398 397 395
f 470 469 467
f 365 364 363
f 366 365 363
f 505 503 504
f 471 469 470
f 506 505 504
f 437 435 436
f 438 437 436
f 403 401 402
f 404 403 402
f 472 471 470
f 405 403 404
f 439 437 438
f 440 439 438
f 406 405 404
f 507 505 506
f 508 507 506
f 473 471 472
f 474 473 472
f 509 507 508
f 510 509 508
f 475 473 474
f 476 475 474
f 407 405 406
f 408 407 406
f 441 439 440
f 442 441 440
f 443 441 442
f 444 443 442
f 409 407 408
f 410 409 408
f 477 475 476
f 478 477 476
f 511 509 510
f 512 511 510
f 513 511 512
f 445 443 444
f 446 445 444
f 411 409 410
f 412 411 410
f 479 477 478
f 514 513 512
f 480 479 478
f 447 445 446
f 413 411 412
f 414 413 412
f 448 447 446
f 515 513 514
f 516 515 514
f 481 479 480
f 482 481 480
f 415 413 414
f 517 515 516
f 518 517 516
f 483 481 482
f 484 483 482
f 416 415 414
f 449 447 448
f 450 449 448
f 451 449 450
f 452 451 450
f 417 415 416
f 418 417 416
f 485 483 484
f 486 485 484
f 519 517 518
f 520 519 518
f 521 519 520
f 453 451 452
f 454 453 452
f 419 417 418
f 420 419 418
f 487 485 486
f 522 521 520
f 488 487 486
f 421 419 420
f 422 421 420
f 455 453 454
f 456 455 454
f 523 521 522
f 524 523 522
f 489 487 488
f 490 489 488
f 423 421 422
f 525 523 524
f 526 525 524
f 491 489 490
f 492 491 490
f 424 423 422
f 457 455 456
f 458 457 456
f 459 457 458
f 460 459 458
f 425 423 424
f 426 425 424
f 493 491 492
f 494 493 492
f 527 525 526
f 528 527 526
f 529 527 528
f 461 459 460
f 462 461 460
f 427 425 426
f 428 427 426
f 495 493 494
f 530 529 528
f 496 495 494
f 429 427 428
f 430 429 428
f 463 461 462
f 464 463 462
f 531 529 530
f 532 531 530
f 497 495 496
f 498 497 496
f 431 429 430
f 533 531 532
f 534 533 532
f 499 497 498
f 500 499 498
f 432 431 430
f 465 463 464
f 466 465 464
f 553 552 551
f 554 553 551
f 555 554 551
f 558 557 556
f 559 558 556
f 566 565 564
f 567 566 564
f 537 536 535
f 538 537 535
f 541 540 539
f 542 541 539
f 545 544 543
f 546 545 543
f 549 548 547
f 550 549 547
f 562 561 560
f 563 562 560
f 570 569 568
f 571 570 568
f 574 573 572
f 575 574 572
f 578 577 576
f 579 578 576
f 582 581 580
f 583 582 580
f 606 605 604
f 607 606 604
f 586 585 584
f 590 589 588
f 591 590 588
f 594 593 592
f 595 594 592
f 598 597 596
f 599 598 596
f 587 586 584
f 706 705 704
f 740 739 738
f 741 740 738
f 672 671 670
f 673 672 670
f 638 637 636
f 639 638 636
f 610 609 608
f 611 610 608
f 614 613 612
f 615 614 612
f 618 617 616
f 619 618 616
f 622 621 620
f 623 622 620
f 626 625 624
f 627 626 624
f 630 629 628
f 631 630 628
f 634 633 632
f 635 634 632
f 707 706 704
f 602 601 600
f 603 602 600
f 742 740 741
f 708 706 707
f 743 742 741
f 674 672 673
f 675 674 673
f 640 638 639
f 641 640 639
f 709 708 707
f 642 640 641
f 676 674 675
f 677 676 675
f 643 642 641
f 744 742 743
f 745 744 743
f 710 708 709
f 711 710 709
f 746 744 745
f 747 746 745
f 712 710 711
f 713 712 711
f 644 642 643
f 645 644 643
f 678 676 677
f 679 678 677
f 680 678 679
f 681 680 679
f 646 644 645
f 647 646 645
f 714 712 713
f 715 714 713
f 748 746 747
f 749 748 747
f 750 748 749
f 682 680 681
f 683 682 681
f 648 646 647
f 649 648 647
f 716 714 715
f 751 750 749
f 717 716 715
f 684 682 683
f 650 648 649
f 651 650 649
f 685 684 683
f 752 750 751
f 753 752 751
f 718 716 717
f 719 718 717
f 652 650 651
f 754 752 753
f 755 754 753
f 720 718 719
f 721 720 719
f 653 652 651
f 686 684 685
f 687 686 685
f 688 686 687
f 689 688 687
f 654 652 653
f 655 654 653
f 722 720 721
f 723 722 721
f 756 754 755
f 757 756 755
f 758 756 757
f 690 688 689
f 691 690 689
f 656 654 655
f 657 656 655
f 724 722 723
f 759 758 757
f 725 724 723
f 658 656 657
f 659 658 657
f 692 690 691
f 693 692 691
f 760 758 759
f 761 760 759
f 726 724 725
f 727 726 725
f 660 658 659
f 762 760 761
f 763 762 761
f 728 726 727
f 729 728 727
f 661 660 659
f 694 692 693
f 695 694 693
f 696 694 695
f 697 696 695
f 662 660 661
f 663 662 661
f 730 728 729
f 731 730 729
f 764 762 763
f 765 764 763
f 766 764 765
f 698 696 697
f 699 698 697
f 664 662 663
f 665 664 663
f 732 730 731
f 767 766 765
f 733 732 731
f 666 664 665
f 667 666 665
f 700 698 699
f 701 700 699
f 768 766 767
f 769 768 767
f 734 732 733
f 735 734 733
f 668 666 667
f 770 768 769
f 771 770 769
f 736 734 735
f 737 736 735
f 669 668 667
f 702 700 701
f 703 702 701
f 790 789 788
f 791 790 788
f 792 791 788
f 795 794 793
f 796 795 793
f 803 802 801
f 804 803 801
f 774 773 772
f 775 774 772
f 778 777 776
f 779 778 776
f 782 781 780
f 783 782 780
f 786 785 784
f 787 786 784
f 799 798 797
f 800 799 797
f 807 806 805
f 808 807 805
f 811 810 809
f 812 811 809
f 815 814 813
f 816 815 813
f 819 818 817
f 820 819 817
f 843 842 841
f 844 843 841
f 823 822 821
f 827 826 825
f 828 827 825
f 831 830 829
f 832 831 829
f 835 834 833
f 836 835 833
f 824 823 821
f 943 942 941
f 977 976 975
f 978 977 975
f 909 908 907
f 910 909 907
f 875 874 873
f 876 875 873
f 847 846 845
f 848 847 845
f 851 850 849
f 852 851 849
f 855 854 853
f 856 855 853
f 859 858 857
f 860 859 857
f 863 862 861
f 864 863 861
f 867 866 865
f 868 867 865
f 871 870 869
f 872 871 869
f 944 943 941
f 839 838 837
f 840 839 837
f 979 977 978
f 945 943 944
f 980 979 978
f 911 909 910
f 912 911 910
f 877 875 876
f 878 877 876
f 946 945 944
f 879 877 878
f 913 911 912
f 914 913 912
f 880 879 878
f 981 979 980
f 982 981 980
f 947 945 946
f 948 947 946
f 983 981 982
f 984 983 982
f 949 947 948
f 950 949 948
f 881 879 880
f 882 881 880
f 915 913 914
f 916 915 914
f 917 915 916
f 918 917 916
f 883 881 882
f 884 883 882
f 951 949 950
f 952 951 950
f 985 983 984
f 986 985 984
f 987 985 986
f 919 917 918
f 920 919 918
f 885 883 884
f 886 885 884
f 953 951 952
f 988 987 986
f 954 953 952
f 921 919 920
f 887 885 886
f 888 887 886
f 922 921 920
f 989 987 988
f 990 989 988
f 955 953 954
f 956 955 954
f 889 887 888
f 991 989 990
f 992 991 990
f 957 955 956
f 958 957 956
f 890 889 888
f 923 921 922
f 924 923 922
f 925 923 924
f 926 925 924
f 891 889 890
f 892 891 890
f 959 957 958
f 960 959 958
f 993 991 992
f 994 993 992
f 995 993 994
f 927 925 926
f 928 927 926
f 893 891 892
f 894 893 892
f 961 959 960
f 996 995 994
f 962 961 960
f 895 893 894
f 896 895 894
f 929 927 928
f 930 929 928
f 997 995 996
f 998 997 996
f 963 961 962
f 964 963 962
f 897 895 896
f 999 997 998
f 1000 999 998
f 965 963 964
f 966 965 964
f 898 897 896
f 931 929 930
f 932 931 930
f 933 931 932
f 934 933 932
f 899 897 898
f 900 899 898
f 967 965 966
f 968 967 966
f 1001 999 1000
f 1002 1001 1000
f 1003 1001 1002
f 935 933 934
f 936 935 934
f 901 899 900
f 902 901 900
f 969 967 968
f 1004 1003 1002
f 970 969 968
f 903 901 902
f 904 903 902
f 937 935 936
f 938 937 936
f 1005 1003 1004
f 1006 1005 1004
f 971 969 970
f 972 971 970
f 905 903 904
f 1007 1005 1006
f 1008 1007 1006
f 973 971 972
f 974 973 972
f 906 905 904
f 939 937 938
f 940 939 938
f 1042 1010 1009
f 1009 1041 1042
f 1074 1042 1041
f 1041 1073 1074
f 1106 1074 1073
f 1073 1105 1106
f 1138 1106 1105
f 1105 1137 1138
f 1170 1138 1137
f 1137 1169 1170
f 1202 1170 1169
f 1169 1201 1202
f 1234 1202 1201
f 1201 1233 1234
f 1266 1234 1233
f 1233 1265 1266
f 1298 1266 1265
f 1265 1297 1298
f 1330 1298 1297
f 1297 1329 1330
f 1362 1330 1329
f 1329 1361 1362
f 1394 1362 1361
f 1361 1393 1394
f 1426 1394 1393
f 1393 1425 1426
f 1458 1426 1425
f 1425 1457 1458
f 1490 1458 1457
f 1457 1489 1490
f 1522 1490 1489
f 1489 1521 1522
f 1554 1522 1521
f 1521 1553 1554
f 1586 1554 1553
f 1553 1585 1586
f 1618 1586 1585
f 1585 1617 1618
f 1650 1618 1617
f 1617 1649 1650
f 1682 1650 1649
f 1649 1681 1682
f 1714 1682 1681
f 1681 1713 1714
f 1746 1714 1713
f 1713 1745 1746
f 1778 1746 1745
f 1745 1777 1778
f 1810 1778 1777
f 1777 1809 1810
f 1842 1810 1809
f 1809 1841 1842
f 1874 1842 1841
f 1841 1873 1874
f 1906 1874 1873
f 1873 1905 1906
f 1938 1906 1905
f 1905 1937 1938
f 1970 1938 1937
f 1937 1969 1970
f 2002 1970 1969
f 1969 2001 2002
f 1043 1011 1010
f 1010 1042 1043
f 1075 1043 1042
f 1042 1074 1075
f 1107 1075 1074
f 1074 1106 1107
f 1139 1107 1106
f 1106 1138 1139
f 1171 1139 1138
f 1138 1170 1171
f 1203 1171 1170
f 1170 1202 1203
f 1235 1203 1202
f 1202 1234 1235
f 1267 1235 1234
f 1234 1266 1267
f 1299 1267 1266
f 1266 1298 1299
f 1331 1299 1298
f 1298 1330 1331
f 1363 1331 1330
f 1330 1362 1363
f 1395 1363 1362
f 1362 1394 1395
f 1427 1395 1394
f 1394 1426 1427
f 1459 1427 1426
f 1426 1458 1459
f 1491 1459 1458
f 1458 1490 1491
f 1523 1491 1490
f 1490 1522 1523
f 1555 1523 1522
f 1522 1554 1555
f 1587 1555 1554
f 1554 1586 1587
f 1619 1587 1586
f 1586 1618 1619
f 1651 1619 1618
f 1618 1650 1651
f 1683 1651 1650
f 1650 1682 1683
f 1715 1683 1682
f 1682 1714 1715
f 1747 1715 1714
f 1714 1746 1747
f 1779 1747 1746
f 1746 1778 1779
f 1811 1779 1778
f 1778 1810 1811
f 1843 1811 1810
f 1810 1842 1843
f 1875 1843 1842
f 1842 1874 1875
f 1907 1875 1874
f 1874 1906 1907
f 1939 1907 1906
f 1906 1938 1939
f 1971 1939 1938
f 1938 1970 1971
f 2003 1971 1970
f 1970 2002 2003
f 1044 1012 1011
f 1011 1043 1044
f 1076 1044 1043
f 1043 1075 1076
f 1108 1076 1075
f 1075 1107 1108
f 1140 1108 1107
f 1107 1139 1140
f 1172 1140 1139
f 1139 1171 1172
f 1204 1172 1171
f 1171 1203 1204
f 1236 1204 1203
f 1203 1235 1236
f 1268 1236 1235
f 1235 1267 1268
f 1300 1268 1267
f 1267 1299 1300
f 1332 1300 1299
f 1299 1331 1332
f 1364 1332 1331
f 1331 1363 1364
f 1396 1364 1363
f 1363 1395 1396
f 1428 1396 1395
f 1395 1427 1428
f 1460 1428 1427
f 1427 1459 1460
f 1492 1460 1459
f 1459 1491 1492
f 1524 1492 1491
f 1491 1523 1524
f 1556 1524 1523
f 1523 1555 1556
f 1588 1556 1555
f 1555 1587 1588
f 1620 1588 1587
f 1587 1619 1620
f 1652 1620 1619
f 1619 1651 1652
f 1684 1652 1651
f 1651 1683 1684
f 1716 1684 1683
f 1683 1715 1716
f 1748 1716 1715
f 1715 1747 1748
f 1780 1748 1747
f 1747 1779 1780
f 1812 1780 1779
f 1779 1811 1812
f 1844 1812 1811
f 1811 1843 1844
f 1876 1844 1843
f 1843 1875 1876
f 1908 1876 1875
f 1875 1907 1908
f 1940 1908 1907
f 1907 1939 1940
f 1972 1940 1939
f 1939 1971 1972
f 2004 1972 1971
f 1971 2003 2004
f 1045 1013 1012
f 1012 1044 1045
f 1077 1045 1044
f 1044 1076 1077
f 1109 1077 1076
f 1076 1108 1109
f 1141 1109 1108
f 1108 1140 1141
f 1173 1141 1140
f 1140 1172 1173
f 1205 1173 1172
f 1172 1204 1205
f 1237 1205 1204
f 1204 1236 1237
f 1269 1237 1236
f 1236 1268 1269
f 1301 1269 1268
f 1268 1300 1301
f 1333 1301 1300
f 1300 1332 1333
f 1365 1333 1332
f 1332 1364 1365
f 1397 1365 1364
f 1364 1396 1397
f 1429 1397 1396
f 1396 1428 1429
f 1461 1429 1428
f 1428 1460 1461
f 1493 1461 1460
f 1460 1492 1493
f 1525 1493 1492
f 1492 1524 1525
f 1557 1525 1524
f 1524 1556 1557
f 1589 1557 1556
f 1556 1588 1589
f 1621 1589 1588
f 1588 1620 1621
f 1653 1621 1620
f 1620 1652 1653
f 1685 1653 1652
f 1652 1684 1685
f 1717 1685 1684
f 1684 1716 1717
f 1749 1717 1716
f 1716 1748 1749
f 1781 1749 1748
f 1748 1780 1781
f 1813 1781 1780
f 1780 1812 1813
f 1845 1813 1812
f 1812 1844 1845
f 1877 1845 1844
f 1844 1876 1877
f 1909 1877 1876
f 1876 1908 1909
f 1941 1909 1908
f 1908 1940 1941
f 1973 1941 1940
f 1940 1972 1973
f 2005 1973 1972
f 1972 2004 2005
f 1046 1014 1013
f 1013 1045 1046
f 1078 1046 1045
f 1045 1077 1078
f 1110 1078 1077
f 1077 1109 1110
f 1142 1110 1109
f 1109 1141 1142
f 1174 1142 1141
f 1141 1173 1174
f 1206 1174 1173
f 1173 1205 1206
f 1238 1206 1205
f 1205 1237 1238
f 1270 1238 1237
f 1237 1269 1270
f 1302 1270 1269
f 1269 1301 1302
f 1334 1302 1301
f 1301 1333 1334
f 1366 1334 1333
f 1333 1365 1366
f 1398 1366 1365
f 1365 1397 1398
f 1430 1398 1397
f 1397 1429 1430
f 1462 1430 1429
f 1429 1461 1462
f 1494 1462 1461
f 1461 1493 1494
f 1526 1494 1493
f 1493 1525 1526
f 1558 1526 1525
f 1525 1557 1558
f 1590 1558 1557
f 1557 1589 1590
f 1622 1590 1589
f 1589 1621 1622
f 1654 1622 1621
f 1621 1653 1654
f 1686 1654 1653
f 1653 1685 1686
f 1718 1686 1685
f 1685 1717 1718
f 1750 1718 1717
f 1717 1749 1750
f 1782 1750 1749
f 1749 1781 1782
f 1814 1782 1781
f 1781 1813 1814
f 1846 1814 1813
f 1813 1845 1846
f 1878 1846 1845
f 1845 1877 1878
f 1910 1878 1877
f 1877 1909 1910
f 1942 1910 1909
f 1909 1941 1942
f 1974 1942 1941
f 1941 1973 1974
f 2006 1974 1973
f 1973 2005 2006
f 1047 1015 1014
f 1014 1046 1047
f 1079 1047 1046
f 1046 1078 1079
f 1111 1079 1078
f 1078 1110 1111
f 1143 1111 1110
f 1110 1142 1143
f 1175 1143 1142
f 1142 1174 1175
f 1207 1175 1174
f 1174 1206 1207
f 1239 1207 1206
f 1206 1238 1239
f 1271 1239 1238
f 1238 1270 1271
f 1303 1271 1270
f 1270 1302 1303
f 1335 1303 1302
f 1302 1334 1335
f 1367 1335 1334
f 1334 1366 1367
f 1399 1367 1366
f 1366 1398 1399
f 1431 1399 1398
f 1398 1430 1431
f 1463 1431 1430
f 1430 1462 1463
f 1495 1463 1462
f 1462 1494 1495
f 1527 1495 1494
f 1494 1526 1527
f 1559 1527 1526
f 1526 1558 1559
f 1591 1559 1558
f 1558 1590 1591
f 1623 1591 1590
f 1590 1622 1623
f 1655 1623 1622
f 1622 1654 1655
f 1687 1655 1654
f 1654 1686 1687
f 1719 1687 1686
f 1686 1718 1719
f 1751 1719 1718
f 1718 1750 1751
f 1783 1751 1750
f 1750 1782 1783
f 1815 1783 1782
f 1782 1814 1815
f 1847 1815 1814
f 1814 1846 1847
f 1879 1847 1846
f 1846 1878 1879
f 1911 1879 1878
f 1878 1910 1911
f 1943 1911 1910
f 1910 1942 1943
f 1975 1943 1942
f 1942 1974 1975
f 2007 1975 1974
f 1974 2006 2007
f 1048 1016 1015
f 1015 1047 1048
f 1080 1048 1047
f 1047 1079 1080
f 1112 1080 1079
f 1079 1111 1112
f 1144 1112 1111
f 1111 1143 1144
f 1176 1144 1143
f 1143 1175 1176
f 1208 1176 1175
f 1175 1207 1208
f 1240 1208 1207
f 1207 1239 1240
f 1272 1240 1239
f 1239 1271 1272
f 1304 1272 1271
f 1271 1303 1304
f 1336 1304 1303
f 1303 1335 1336
f 1368 1336 1335
f 1335 1367 1368
f 1400 1368 1367
f 1367 1399 1400
f 1432 1400 1399
f 1399 1431 1432
f 1464 1432 1431
f 1431 1463 1464
f 1496 1464 1463
f 1463 1495 1496
f 1528 1496 1495
f 1495 1527 1528
f 1560 1528 1527
f 1527 1559 1560
f 1592 1560 1559
f 1559 1591 1592
f 1624 1592 1591
f 1591 1623 1624
f 1656 1624 1623
f 1623 1655 1656
f 1688 1656 1655
f 1655 1687 1688
f 1720 1688 1687
f 1687 1719 1720
f 1752 1720 1719
f 1719 1751 1752
f 1784 1752 1751
f 1751 1783 1784
f 1816 1784 1783
f 1783 1815 1816
f 1848 1816 1815
f 1815 1847 1848
f 1880 1848 1847
f 1847 1879 1880
f 1912 1880 1879
f 1879 1911 1912
f 1944 1912 1911
f 1911 1943 1944
f 1976 1944 1943
f 1943 1975 1976
f 2008 1976 1975
f 1975 2007 2008
f 1049 1017 1016
f 1016 1048 1049
f 1081 1049 1048
f 1048 1080 1081
f 1113 1081 1080
f 1080 1112 1113
f 1145 1113 1112
f 1112 1144 1145
f 1177 1145 1144
f 1144 1176 1177
f 1209 1177 1176
f 1176 1208 1209
f 1241 1209 1208
f 1208 1240 1241
f 1273 1241 1240
f 1240 1272 1273
f 1305 1273 1272
f 1272 1304 1305
f 1337 1305 1304
f 1304 1336 1337
f 1369 1337 1336
f 1336 1368 1369
f 1401 1369 1368
f 1368 1400 1401
f 1433 1401 1400
f 1400 1432 1433
f 1465 1433 1432
f 1432 1464 1465
f 1497 1465 1464
f 1464 1496 1497
f 1529 1497 1496
f 1496 1528 1529
f 1561 1529 1528
f 1528 1560 1561
f 1593 1561 1560
f 1560 1592 1593
f 1625 1593 1592
f 1592 1624 1625
f 1657 1625 1624
f 1624 1656 1657
f 1689 1657 1656
f 1656 1688 1689
f 1721 1689 1688
f 1688 1720 1721
f 1753 1721 1720
f 1720 1752 1753
f 1785 1753 1752
f 1752 1784 1785
f 1817 1785 1784
f 1784 1816 1817
f 1849 1817 1816
f 1816 1848 1849
f 1881 1849 1848
f 1848 1880 1881
f 1913 1881 1880
f 1880 1912 1913
f 1945 1913 1912
f 1912 1944 1945
f 1977 1945 1944
f 1944 1976 1977
f 2009 1977 1976
f 1976 2008 2009
f 1050 1018 1017
f 1017 1049 1050
f 1082 1050 1049
f 1049 1081 1082
f 1114 1082 1081
f 1081 1113 1114
f 1146 1114 1113
f 1113 1145 1146
f 1178 1146 1145
f 1145 1177 1178
f 1210 1178 1177
f 1177 1209 1210
f 1242 1210 1209
f 1209 1241 1242
f 1274 1242 1241
f 1241 1273 1274
f 1306 1274 1273
f 1273 1305 1306
f 1338 1306 1305
f 1305 1337 1338
f 1370 1338 1337
f 1337 1369 1370
f 1402 1370 1369
f 1369 1401 1402
f 1434 1402 1401
f 1401 1433 1434
f 1466 1434 1433
f 1433 1465 1466
f 1498 1466 1465
f 1465 1497 1498
f 1530 1498 1497
f 1497 1529 1530
f 1562 1530 1529
f 1529 1561 1562
f 1594 1562 1561
f 1561 1593 1594
f 1626 1594 1593
f 1593 1625 1626
f 1658 1626 1625
f 1625 1657 1658
f 1690 1658 1657
f 1657 1689 1690
f 1722 1690 1689
f 1689 1721 1722
f 1754 1722 1721
f 1721 1753 1754
f 1786 1754 1753
f 1753 1785 1786
f 1818 1786 1785
f 1785 1817 1818
f 1850 1818 1817
f 1817 1849 1850
f 1882 1850 1849
f 1849 1881 1882
f 1914 1882 1881
f 1881 1913 1914
f 1946 1914 1913
f 1913 1945 1946
f 1978 1946 1945
f 1945 1977 1978
f 2010 1978 1977
f 1977 2009 2010
f 1051 1019 1018
f 1018 1050 1051
f 1083 1051 1050
f 1050 1082 1083
f 1115 1083 1082
f 1082 1114 1115
f 1147 1115 1114
f 1114 1146 1147
f 1179 1147 1146
f 1146 1178 1179
f 1211 1179 1178
f 1178 1210 1211
f 1243 1211 1210
f 1210 1242 1243
f 1275 1243 1242
f 1242 1274 1275
f 1307 1275 1274
f 1274 1306 1307
f 1339 1307 1306
f 1306 1338 1339
f 1371 1339 1338
f 1338 1370 1371
f 1403 1371 1370
f 1370 1402 1403
f 1435 1403 1402
f 1402 1434 1435
f 1467 1435 1434
f 1434 1466 1467
f 1499 1467 1466
f 1466 1498 1499
f 1531 1499 1498
f 1498 1530 1531
f 1563 1531 1530
f 1530 1562 1563
f 1595 1563 1562
f 1562 1594 1595
f 1627 1595 1594
f 1594 1626 1627
f 1659 1627 1626
f 1626 1658 1659
f 1691 1659 1658
f 1658 1690 1691
f 1723 1691 1690
f 1690 1722 1723
f 1755 1723 1722
f 1722 1754 1755
f 1787 1755 1754
f 1754 1786 1787
f 1819 1787 1786
f 1786 1818 1819
f 1851 1819 1818
f 1818 1850 1851
f 1883 1851 1850
f 1850 1882 1883
f 1915 1883 1882
f 1882 1914 1915
f 1947 1915 1914
f 1914 1946 1947
f 1979 1947 1946
f 1946 1978 1979
f 2011 1979 1978
f 1978 2010 2011
f 1052 1020 1019
f 1019 1051 1052
f 1084 1052 1051
f 1051 1083 1084
f 1116 1084 1083
f 1083 1115 1116
f 1148 1116 1115
f 1115 1147 1148
f 1180 1148 1147
f 1147 1179 1180
f 1212 1180 1179
f 1179 1211 1212
f 1244 1212 1211
f 1211 1243 1244
f 1276 1244 1243
f 1243 1275 1276
f 1308 1276 1275
f 1275 1307 1308
f 1340 1308 1307
f 1307 1339 1340
f 1372 1340 1339
f 1339 1371 1372
f 1404 1372 1371
f 1371 1403 1404
f 1436 1404 1403
f 1403 1435 1436
f 1468 1436 1435
f 1435 1467 1468
f 1500 1468 1467
f 1467 1499 1500
f 1532 1500 1499
f 1499 1531 1532
f 1564 1532 1531
f 1531 1563 1564
f 1596 1564 1563
f 1563 1595 1596
f 1628 1596 1595
f 1595 1627 1628
f 1660 1628 1627
f 1627 1659 1660
f 1692 1660 1659
f 1659 1691 1692
f 1724 1692 1691
f 1691 1723 1724
f 1756 1724 1723
f 1723 1755 1756
f 1788 1756 1755
f 1755 1787 1788
f 1820 1788 1787
f 1787 1819 1820
f 1852 1820 1819
f 1819 1851 1852
f 1884 1852 1851
f 1851 1883 1884
f 1916 1884 1883
f 1883 1915 1916
f 1948 1916 1915
f 1915 1947 1948
f 1980 1948 1947
f 1947 1979 1980
f 2012 1980 1979
f 1979 2011 2012
f 1053 1021 1020
f 1020 1052 1053
f 1085 1053 1052
f 1052 1084 1085
f 1117 1085 1084
f 1084 1116 1117
f 1149 1117 1116
f 1116 1148 1149
f 1181 1149 1148
f 1148 1180 1181
f 1213 1181 1180
f 1180 1212 1213
f 1245 1213 1212
f 1212 1244 1245
f 1277 1245 1244
f 1244 1276 1277
f 1309 1277 1276
f 1276 1308 1309
f 1341 1309 1308
f 1308 1340 1341
f 1373 1341 1340
f 1340 1372 1373
f 1405 1373 1372
f 1372 1404 1405
f 1437 1405 1404
f 1404 1436 1437
f 1469 1437 1436
f 1436 1468 1469
f 1501 1469 1468
f 1468 1500 1501
f 1533 1501 1500
f 1500 1532 1533
f 1565 1533 1532
f 1532 1564 1565
f 1597 1565 1564
f 1564 1596 1597
f 1629 1597 1596
f 1596 1628 1629
f 1661 1629 1628
f 1628 1660 1661
f 1693 1661 1660
f 1660 1692 1693
f 1725 1693 1692
f 1692 1724 1725
f 1757 1725 1724
f 1724 1756 1757
f 1789 1757 1756
f 1756 1788 1789
f 1821 1789 1788
f 1788 1820 1821
f 1853 1821 1820
f 1820 1852 1853
f 1885 1853 1852
f 1852 1884 1885
f 1917 1885 1884
f 1884 1916 1917
f 1949 1917 1916
f 1916 1948 1949
f 1981 1949 1948
f 1948 1980 1981
f 2013 1981 1980
f 1980 2012 2013
f 1054 1022 1021
f 1021 1053 1054
f 1086 1054 1053
f 1053 1085 1086
f 1118 1086 1085
f 1085 1117 1118
f 1150 1118 1117
f 1117 1149 1150
f 1182 1150 1149
f 1149 1181 1182
f 1214 1182 1181
f 1181 1213 1214
f 1246 1214 1213
f 1213 1245 1246
f 1278 1246 1245
f 1245 1277 1278
f 1310 1278 1277
f 1277 1309 1310
f 1342 1310 1309
f 1309 1341 1342
f 1374 1342 1341
f 1341 1373 1374
f 1406 1374 1373
f 1373 1405 1406
f 1438 1406 1405
f 1405 1437 1438
f 1470 1438 1437
f 1437 1469 1470
f 1502 1470 1469
f 1469 1501 1502
f 1534 1502 1501
f 1501 1533 1534
f 1566 1534 1533
f 1533 1565 1566
f 1598 1566 1565
f 1565 1597 1598
f 1630 1598 1597
f 1597 1629 1630
f 1662 1630 1629
f 1629 1661 1662
f 1694 1662 1661
f 1661 1693 1694
f 1726 1694 1693
f 1693 1725 1726
f 1758 1726 1725
f 1725 1757 1758
f 1790 1758 1757
f 1757 1789 1790
f 1822 1790 1789
f 1789 1821 1822
f 1854 1822 1821
f 1821 1853 1854
f 1886 1854 1853
f 1853 1885 1886
f 1918 1886 1885
f 1885 1917 1918
f 1950 1918 1917
f 1917 1949 1950
f 1982 1950 1949
f 1949 1981 1982
f 2014 1982 1981
f 1981 2013 2014
f 1055 1023 1022
f 1022 1054 1055
f 1087 1055 1054
f 1054 1086 1087
f 1119 1087 1086
f 1086 1118 1119
f 1151 1119 1118
f 1118 1150 1151
f 1183 1151 1150
f 1150 1182 1183
f 1215 1183 1182
f 1182 1214 1215
f 1247 1215 1214
f 1214 1246 1247
f 1279 1247 1246
f 1246 1278 1279
f 1311 1279 1278
f 1278 1310 1311
f 1343 1311 1310
f 1310 1342 1343
f 1375 1343 1342
f 1342 1374 1375
f 1407 1375 1374
f 1374 1406 1407
f 1439 1407 1406
f 1406 1438 1439
f 1471 1439 1438
f 1438 1470 1471
f 1503 1471 1470
f 1470 1502 1503
f 1535 1503 1502
f 1502 1534 1535
f 1567 1535 1534
f 1534 1566 1567
f 1599 1567 1566
f 1566 1598 1599
f 1631 1599 1598
f 1598 1630 1631
f 1663 1631 1630
f 1630 1662 1663
f 1695 1663 1662
f 1662 1694 1695
f 1727 1695 1694
f 1694 1726 1727
f 1759 1727 1726
f 1726 1758 1759
f 1791 1759 1758
f 1758 1790 1791
f 1823 1791 1790
f 1790 1822 1823
f 1855 1823 1822
f 1822 1854 1855
f 1887 1855 1854
f 1854 1886 1887
f 1919 1887 1886
f 1886 1918 1919
f 1951 1919 1918
f 1918 1950 1951
f 1983 1951 1950
f 1950 1982 1983
f 2015 1983 1982
f 1982 2014 2015
f 1056 1024 1023
f 1023 1055 1056
f 1088 1056 1055
f 1055 1087 1088
f 1120 1088 1087
f 1087 1119 1120
f 1152 1120 1119
f 1119 1151 1152
f 1184 1152 1151
f 1151 1183 1184
f 1216 1184 1183
f 1183 1215 1216
f 1248 1216 1215
f 1215 1247 1248
f 1280 1248 1247
f 1247 1279 1280
f 1312 1280 1279
f 1279 1311 1312
f 1344 1312 1311
f 1311 1343 1344
f 1376 1344 1343
f 1343 1375 1376
f 1408 1376 1375
f 1375 1407 1408
f 1440 1408 1407
f 1407 1439 1440
f 1472 1440 1439
f 1439 1471 1472
f 1504 1472 1471
f 1471 1503 1504
f 1536 1504 1503
f 1503 1535 1536
f 1568 1536 1535
f 1535 1567 1568
f 1600 1568 1567
f 1567 1599 1600
f 1632 1600 1599
f 1599 1631 1632
f 1664 1632 1631
f 1631 1663 1664
f 1696 1664 1663
f 1663 1695 1696
f 1728 1696 1695
f 1695 1727 1728
f 1760 1728 1727
f 1727 1759 1760
f 1792 1760 1759
f 1759 1791 1792
f 1824 1792 1791
f 1791 1823 1824
f 1856 1824 1823
f 1823 1855 1856
f 1888 1856 1855
f 1855 1887 1888
f 1920 1888 1887
f 1887 1919 1920
f 1952 1920 1919
f 1919 1951 1952
f 1984 1952 1951
f 1951 1983 1984
f 2016 1984 1983
f 1983 2015 2016
f 1057 1025 1024
f 1024 1056 1057
f 1089 1057 1056
f 1056 1088 1089
f 1121 1089 1088
f 1088 1120 1121
f 1153 1121 1120
f 1120 1152 1153
f 1185 1153 1152
f 1152 1184 1185
f 1217 1185 1184
f 1184 1216 1217
f 1249 1217 1216
f 1216 1248 1249
f 1281 1249 1248
f 1248 1280 1281
f 1313 1281 1280
f 1280 1312 1313
f 1345 1313 1312
f 1312 1344 1345
f 1377 1345 1344
f 1344 1376 1377
f 1409 1377 1376
f 1376 1408 1409
f 1441 1409 1408
f 1408 1440 1441
f 1473 1441 1440
f 1440 1472 1473
f 1505 1473 1472
f 1472 1504 1505
f 1537 1505 1504
f 1504 1536 1537
f 1569 1537 1536
f 1536 1568 1569
f 1601 1569 1568
f 1568 1600 1601
f 1633 1601 1600
f 1600 1632 1633
f 1665 1633 1632
f 1632 1664 1665
f 1697 1665 1664
f 1664 1696 1697
f 1729 1697 1696
f 1696 1728 1729
f 1761 1729 1728
f 1728 1760 1761
f 1793 1761 1760
f 1760 1792 1793
f 1825 1793 1792
f 1792 1824 1825
f 1857 1825 1824
f 1824 1856 1857
f 1889 1857 1856
f 1856 1888 1889
f 1921 1889 1888
f 1888 1920 1921
f 1953 1921 1920
f 1920 1952 1953
f 1985 1953 1952
f 1952 1984 1985
f 2017 1985 1984
f 1984 2016 2017
f 1058 1026 1025
f 1025 1057 1058
f 1090 1058 1057
f 1057 1089 1090
f 1122 1090 1089
f 1089 1121 1122
f 1154 1122 1121
f 1121 1153 1154
f 1186 1154 1153
f 1153 1185 1186
f 1218 1186 1185
f 1185 1217 1218
f 1250 1218 1217
f 1217 1249 1250
f 1282 1250 1249
f 1249 1281 1282
f 1314 1282 1281
f 1281 1313 1314
f 1346 1314 1313
f 1313 1345 1346
f 1378 1346 1345
f 1345 1377 1378
f 1410 1378 1377
f 1377 1409 1410
f 1442 1410 1409
f 1409 1441 1442
f 1474 1442 1441
f 1441 1473 1474
f 1506 1474 1473
f 1473 1505 1506
f 1538 1506 1505
f 1505 1537 1538
f 1570 1538 1537
f 1537 1569 1570
f 1602 1570 1569
f 1569 1601 1602
f 1634 1602 1601
f 1601 1633 1634
f 1666 1634 1633
f 1633 1665 1666
f 1698 1666 1665
f 1665 1697 1698
f 1730 1698 1697
f 1697 1729 1730
f 1762 1730 1729
f 1729 1761 1762
f 1794 1762 1761
f 1761 1793 1794
f 1826 1794 1793
f 1793 1825 1826
f 1858 1826 1825
f 1825 1857 1858
f 1890 1858 1857
f 1857 1889 1890
f 1922 1890 1889
f 1889 1921 1922
f 1954 1922 1921
f 1921 1953 1954
f 1986 1954 1953
f 1953 1985 1986
f 2018 1986 1985
f 1985 2017 2018
f 1059 1027 1026
f 1026 1058 1059
f 1091 1059 1058
f 1058 1090 1091
f 1123 1091 1090
f 1090 1122 1123
f 1155 1123 1122
f 1122 1154 1155
f 1187 1155 1154
f 1154 1186 1187
f 1219 1187 1186
f 1186 1218 1219
f 1251 1219 1218
f 1218 1250 1251
f 1283 1251 1250
f 1250 1282 1283
f 1315 1283 1282
f 1282 1314 1315
f 1347 1315 1314
f 1314 1346 1347
f 1379 1347 1346
f 1346 1378 1379
f 1411 1379 1378
f 1378 1410 1411
f 1443 1411 1410
f 1410 1442 1443
f 1475 1443 1442
f 1442 1474 1475
f 1507 1475 1474
f 1474 1506 1507
f 1539 1507 1506
f 1506 1538 1539
f 1571 1539 1538
f 1538 1570 1571
f 1603 1571 1570
f 1570 1602 1603
f 1635 1603 1602
f 1602 1634 1635
f 1667 1635 1634
f 1634 1666 1667
f 1699 1667 1666
f 1666 1698 1699
f 1731 1699 1698
f 1698 1730 1731
f 1763 1731 1730
f 1730 1762 1763
f 1795 1763 1762
f 1762 1794 1795
f 1827 1795 1794
f 1794 1826 1827
f 1859 1827 1826
f 1826 1858 1859
f 1891 1859 1858
f 1858 1890 1891
f 1923 1891 1890
f 1890 1922 1923
f 1955 1923 1922
f 1922 1954 1955
f 1987 1955 1954
f 1954 1986 1987
f 2019 1987 1986
f 1986 2018 2019
f 1060 1028 1027
f 1027 1059 1060
f 1092 1060 1059
f 1059 1091 1092
f 1124 1092 1091
f 1091 1123 1124
f 1156 1124 1123
f 1123 1155 1156
f 1188 1156 1155
f 1155 1187 1188
f 1220 1188 1187
f 1187 1219 1220
f 1252 1220 1219
f 1219 1251 1252
f 1284 1252 1251
f 1251 1283 1284
f 1316 1284 1283
f 1283 1315 1316
f 1348 1316 1315
f 1315 1347 1348
f 1380 1348 1347
f 1347 1379 1380
f 1412 1380 1379
f 1379 1411 1412
f 1444 1412 1411
f 1411 1443 1444
f 1476 1444 1443
f 1443 1475 1476
f 1508 1476 1475
f 1475 1507 1508
f 1540 1508 1507
f 1507 1539 1540
f 1572 1540 1539
f 1539 1571 1572
f 1604 1572 1571
f 1571 1603 1604
f 1636 1604 1603
f 1603 1635 1636
f 1668 1636 1635
f 1635 1667 1668
f 1700 1668 1667
f 1667 1699 1700
f 1732 1700 1699
f 1699 1731 1732
f 1764 1732 1731
f 1731 1763 1764
f 1796 1764 1763
f 1763 1795 1796
f 1828 1796 1795
f 1795 1827 1828
f 1860 1828 1827
f 1827 1859 1860
f 1892 1860 1859
f 1859 1891 1892
f 1924 1892 1891
f 1891 1923 1924
f 1956 1924 1923
f 1923 1955 1956
f 1988 1956 1955
f 1955 1987 1988
f 2020 1988 1987
f 1987 2019 2020
f 1061 1029 1028
f 1028 1060 1061
f 1093 1061 1060
f 1060 1092 1093
f 1125 1093 1092
f 1092 1124 1125
f 1157 1125 1124
f 1124 1156 1157
f 1189 1157 1156
f 1156 1188 1189
f 1221 1189 1188
f 1188 1220 1221
f 1253 1221 1220
f 1220 1252 1253
f 1285 1253 1252
f 1252 1284 1285
f 1317 1285 1284
f 1284 1316 1317
f 1349 1317 1316
f 1316 1348 1349
f 1381 1349 1348
f 1348 1380 1381
f 1413 1381 1380
f 1380 1412 1413
f 1445 1413 1412
f 1412 1444 1445
f 1477 1445 1444
f 1444 1476 1477
f 1509 1477 1476
f 1476 1508 1509
f 1541 1509 1508
f 1508 1540 1541
f 1573 1541 1540
f 1540 1572 1573
f 1605 1573 1572
f 1572 1604 1605
f 1637 1605 1604
f 1604 1636 1637
f 1669 1637 1636
f 1636 1668 1669
f 1701 1669 1668
f 1668 1700 1701
f 1733 1701 1700
f 1700 1732 1733
f 1765 1733 1732
f 1732 1764 1765
f 1797 1765 1764
f 1764 1796 1797
f 1829 1797 1796
f 1796 1828 1829
f 1861 1829 1828
f 1828 1860 1861
f 1893 1861 1860
f 1860 1892 1893
f 1925 1893 1892
f 1892 1924 1925
f 1957 1925 1924
f 1924 1956 1957
f 1989 1957 1956
f 1956 1988 1989
f 2021 1989 1988
f 1988 2020 2021
f 1062 1030 1029
f 1029 1061 1062
f 1094 1062 1061
f 1061 1093 1094
f 1126 1094 1093
f 1093 1125 1126
f 1158 1126 1125
f 1125 1157 1158
f 1190 1158 1157
f 1157 1189 1190
f 1222 1190 1189
f 1189 1221 1222
f 1254 1222 1221
f 1221 1253 1254
f 1286 1254 1253
f 1253 1285 1286
f 1318 1286 1285
f 1285 1317 1318
f 1350 1318 1317
f 1317 1349 1350
f 1382 1350 1349
f 1349 1381 1382
f 1414 1382 1381
f 1381 1413 1414
f 1446 1414 1413
f 1413 1445 1446
f 1478 1446 1445
f 1445 1477 1478
f 1510 1478 1477
f 1477 1509 1510
f 1542 1510 1509
f 1509 1541 1542
f 1574 1542 1541
f 1541 1573 1574
f 1606 1574 1573
f 1573 1605 1606
f 1638 1606 1605
f 1605 1637 1638
f 1670 1638 1637
f 1637 1669 1670
f 1702 1670 1669
f 1669 1701 1702
f 1734 1702 1701
f 1701 1733 1734
f 1766 1734 1733
f 1733 1765 1766
f 1798 1766 1765
f 1765 1797 1798
f 1830 1798 1797
f 1797 1829 1830
f 1862 1830 1829
f 1829 1861 1862
f 1894 1862 1861
f 1861 1893 1894
f 1926 1894 1893
f 1893 1925 1926
f 1958 1926 1925
f 1925 1957 1958
f 1990 1958 1957
f 1957 1989 1990
f 2022 1990 1989
f 1989 2021 2022
f 1063 1031 1030
f 1030 1062 1063
f 1095 1063 1062
f 1062 1094 1095
f 1127 1095 1094
f 1094 1126 1127
f 1159 1127 1126
f 1126 1158 1159
f 1191 1159 1158
f 1158 1190 1191
f 1223 1191 1190
f 1190 1222 1223
f 1255 1223 1222
f 1222 1254 1255
f 1287 1255 1254
f 1254 1286 1287
f 1319 1287 1286
f 1286 1318 1319
f 1351 1319 1318
f 1318 1350 1351
f 1383 1351 1350
f 1350 1382 1383
f 1415 1383 1382
f 1382 1414 1415
f 1447 1415 1414
f 1414 1446 1447
f 1479 1447 1446
f 1446 1478 1479
f 1511 1479 1478
f 1478 1510 1511
f 1543 1511 1510
f 1510 1542 1543
f 1575 1543 1542
f 1542 1574 1575
f 1607 1575 1574
f 1574 1606 1607
f 1639 1607 1606
f 1606 1638 1639
f 1671 1639 1638
f 1638 1670 1671
f 1703 1671 1670
f 1670 1702 1703
f 1735 1703 1702
f 1702 1734 1735
f 1767 1735 1734
f 1734 1766 1767
f 1799 1767 1766
f 1766 1798 1799
f 1831 1799 1798
f 1798 1830 1831
f 1863 1831 1830
f 1830 1862 1863
f 1895 1863 1862
f 1862 1894 1895
f 1927 1895 1894
f 1894 1926 1927
f 1959 1927 1926
f 1926 1958 1959
f 1991 1959 1958
f 1958 1990 1991
f 2023 1991 1990
f 1990 2022 2023
f 1064 1032 1031
f 1031 1063 1064
f 1096 1064 1063
f 1063 1095 1096
f 1128 1096 1095
f 1095 1127 1128
f 1160 1128 1127
f 1127 1159 1160
f 1192 1160 1159
f 1159 1191 1192
f 1224 1192 1191
f 1191 1223 1224
f 1256 1224 1223
f 1223 1255 1256
f 1288 1256 1255
f 1255 1287 1288
f 1320 1288 1287
f 1287 1319 1320
f 1352 1320 1319
f 1319 1351 1352
f 1384 1352 1351
f 1351 1383 1384
f 1416 1384 1383
f 1383 1415 1416
f 1448 1416 1415
f 1415 1447 1448
f 1480 1448 1447
f 1447 1479 1480
f 1512 1480 1479
f 1479 1511 1512
f 1544 1512 1511
f 1511 1543 1544
f 1576 1544 1543
f 1543 1575 1576
f 1608 1576 1575
f 1575 1607 1608
f 1640 1608 1607
f 1607 1639 1640
f 1672 1640 1639
f 1639 1671 1672
f 1704 1672 1671
f 1671 1703 1704
f 1736 1704 1703
f 1703 1735 1736
f 1768 1736 1735
f 1735 1767 1768
f 1800 1768 1767
f 1767 1799 1800
f 1832 1800 1799
f 1799 1831 1832
f 1864 1832 1831
f 1831 1863 1864
f 1896 1864 1863
f 1863 1895 1896
f 1928 1896 1895
f 1895 1927 1928
f 1960 1928 1927
f 1927 1959 1960
f 1992 1960 1959
f 1959 1991 1992
f 2024 1992 1991
f 1991 2023 2024
f 1065 1033 1032
f 1032 1064 1065
f 1097 1065 1064
f 1064 1096 1097
f 1129 1097 1096
f 1096 1128 1129
f 1161 1129 1128
f 1128 1160 1161
f 1193 1161 1160
f 1160 1192 1193
f 1225 1193 1192
f 1192 1224 1225
f 1257 1225 1224
f 1224 1256 1257
f 1289 1257 1256
f 1256 1288 1289
f 1321 1289 1288
f 1288 1320 1321
f 1353 1321 1320
f 1320 1352 1353
f 1385 1353 1352
f 1352 1384 1385
f 1417 1385 1384
f 1384 1416 1417
f 1449 1417 1416
f 1416 1448 1449
f 1481 1449 1448
f 1448 1480 1481
f 1513 1481 1480
f 1480 1512 1513
f 1545 1513 1512
f 1512 1544 1545
f 1577 1545 1544
f 1544 1576 1577
f 1609 1577 1576
f 1576 1608 1609
f 1641 1609 1608
f 1608 1640 1641
f 1673 1641 1640
f 1640 1672 1673
f 1705 1673 1672
f 1672 1704 1705
f 1737 1705 1704
f 1704 1736 1737
f 1769 1737 1736
f 1736 1768 1769
f 1801 1769 1768
f 1768 1800 1801
f 1833 1801 1800
f 1800 1832 1833
f 1865 1833 1832
f 1832 1864 1865
f 1897 1865 1864
f 1864 1896 1897
f 1929 1897 1896
f 1896 1928 1929
f 1961 1929 1928
f 1928 1960 1961
f 1993 1961 1960
f 1960 1992 1993
f 2025 1993 1992
f 1992 2024 2025
f 1066 1034 1033
f 1033 1065 1066
f 1098 1066 1065
f 1065 1097 1098
f 1130 1098 1097
f 1097 1129 1130
f 1162 1130 1129
f 1129 1161 1162
f 1194 1162 1161
f 1161 1193 1194
f 1226 1194 1193
f 1193 1225 1226
f 1258 1226 1225
f 1225 1257 1258
f 1290 1258 1257
f 1257 1289 1290
f 1322 1290 1289
f 1289 1321 1322
f 1354 1322 1321
f 1321 1353 1354
f 1386 1354 1353
f 1353 1385 1386
f 1418 1386 1385
f 1385 1417 1418
f 1450 1418 1417
f 1417 1449 1450
f 1482 1450 1449
f 1449 1481 1482
f 1514 1482 1481
f 1481 1513 1514
f 1546 1514 1513
f 1513 1545 1546
f 1578 1546 1545
f 1545 1577 1578
f 1610 1578 1577
f 1577 1609 1610
f 1642 1610 1609
f 1609 1641 1642
f 1674 1642 1641
f 1641 1673 1674
f 1706 1674 1673
f 1673 1705 1706
f 1738 1706 1705
f 1705 1737 1738
f 1770 1738 1737
f 1737 1769 1770
f 1802 1770 1769
f 1769 1801 1802
f 1834 1802 1801
f 1801 1833 1834
f 1866 1834 1833
f 1833 1865 1866
f 1898 1866 1865
f 1865 1897 1898
f 1930 1898 1897
f 1897 1929 1930
f 1962 1930 1929
f 1929 1961 1962
f 1994 1962 1961
f 1961 1993 1994
f 2026 1994 1993
f 1993 2025 2026
f 1067 1035 1034
f 1034 1066 1067
f 1099 1067 1066
f 1066 1098 1099
f 1131 1099 1098
f 1098 1130 1131
f 1163 1131 1130
f 1130 1162 1163
f 1195 1163 1162
f 1162 1194 1195
f 1227 1195 1194
f 1194 1226 1227
f 1259 1227 1226
f 1226 1258 1259
f 1291 1259 1258
f 1258 1290 1291
f 1323 1291 1290
f 1290 1322 1323
f 1355 1323 1322
f 1322 1354 1355
f 1387 1355 1354
f 1354 1386 1387
f 1419 1387 1386
f 1386 1418 1419
f 1451 1419 1418
f 1418 1450 1451
f 1483 1451 1450
f 1450 1482 1483
f 1515 1483 1482
f 1482 1514 1515
f 1547 1515 1514
f 1514 1546 1547
f 1579 1547 1546
f 1546 1578 1579
f 1611 1579 1578
f 1578 1610 1611
f 1643 1611 1610
f 1610 1642 1643
f 1675 1643 1642
f 1642 1674 1675
f 1707 1675 1674
f 1674 1706 1707
f 1739 1707 1706
f 1706 1738 1739
f 1771 1739 1738
f 1738 1770 1771
f 1803 1771 1770
f 1770 1802 1803
f 1835 1803 1802
f 1802 1834 1835
f 1867 1835 1834
f 1834 1866 1867
f 1899 1867 1866
f 1866 1898 1899
f 1931 1899 1898
f 1898 1930 1931
f 1963 1931 1930
f 1930 1962 1963
f 1995 1963 1962
f 1962 1994 1995
f 2027 1995 1994
f 1994 2026 2027
f 1068 1036 1035
f 1035 1067 1068
f 1100 1068 1067
f 1067 1099 1100
f 1132 1100 1099
f 1099 1131 1132
f 1164 1132 1131
f 1131 1163 1164
f 1196 1164 1163
f 1163 1195 1196
f 1228 1196 1195
f 1195 1227 1228
f 1260 1228 1227
f 1227 1259 1260
f 1292 1260 1259
f 1259 1291 1292
f 1324 1292 1291
f 1291 1323 1324
f 1356 1324 1323
f 1323 1355 1356
f 1388 1356 1355
f 1355 1387 1388
f 1420 1388 1387
f 1387 1419 1420
f 1452 1420 1419
f 1419 1451 1452
f 1484 1452 1451
f 1451 1483 1484
f 1516 1484 1483
f 1483 1515 1516
f 1548 1516 1515
f 1515 1547 1548
f 1580 1548 1547
f 1547 1579 1580
f 1612 1580 1579
f 1579 1611 1612
f 1644 1612 1611
f 1611 1643 1644
f 1676 1644 1643
f 1643 1675 1676
f 1708 1676 1675
f 1675 1707 1708
f 1740 1708 1707
f 1707 1739 1740
f 1772 1740 1739
f 1739 1771 1772
f 1804 1772 1771
f 1771 1803 1804
f 1836 1804 1803
f 1803 1835 1836
f 1868 1836 1835
f 1835 1867 1868
f 1900 1868 1867
f 1867 1899 1900
f 1932 1900 1899
f 1899 1931 1932
f 1964 1932 1931
f 1931 1963 1964
f 1996 1964 1963
f 1963 1995 1996
f 2028 1996 1995
f 1995 2027 2028
f 1069 1037 1036
f 1036 1068 1069
f 1101 1069 1068
f 1068 1100 1101
f 1133 1101 1100
f 1100 1132 1133
f 1165 1133 1132
f 1132 1164 1165
f 1197 1165 1164
f 1164 1196 1197
f 1229 1197 1196
f 1196 1228 1229
f 1261 1229 1228
f 1228 1260 1261
f 1293 1261 1260
f 1260 1292 1293
f 1325 1293 1292
f 1292 1324 1325
f 1357 1325 1324
f 1324 1356 1357
f 1389 1357 1356
f 1356 1388 1389
f 1421 1389 1388
f 1388 1420 1421
f 1453 1421 1420
f 1420 1452 1453
f 1485 1453 1452
f 1452 1484 1485
f 1517 1485 1484
f 1484 1516 1517
f 1549 1517 1516
f 1516 1548 1549
f 1581 1549 1548
f 1548 1580 1581
f 1613 1581 1580
f 1580 1612 1613
f 1645 1613 1612
f 1612 1644 1645
f 1677 1645 1644
f 1644 1676 1677
f 1709 1677 1676
f 1676 1708 1709
f 1741 1709 1708
f 1708 1740 1741
f 1773 1741 1740
f 1740 1772 1773
f 1805 1773 1772
f 1772 1804 1805
f 1837 1805 1804
f 1804 1836 1837
f 1869 1837 1836
f 1836 1868 1869
f 1901 1869 1868
f 1868 1900 1901
f 1933 1901 1900
f 1900 1932 1933
f 1965 1933 1932
f 1932 1964 1965
f 1997 1965 1964
f 1964 1996 1997
f 2029 1997 1996
f 1996 2028 2029
f 1070 1038 1037
f 1037 1069 1070
f 1102 1070 1069
f 1069 1101 1102
f 1134 1102 1101
f 1101 1133 1134
f 1166 1134 1133
f 1133 1165 1166
f 1198 1166 1165
f 1165 1197 1198
f 1230 1198 1197
f 1197 1229 1230
f 1262 1230 1229
f 1229 1261 1262
f 1294 1262 1261
f 1261 1293 1294
f 1326 1294 1293
f 1293 1325 1326
f 1358 1326 1325
f 1325 1357 1358
f 1390 1358 1357
f 1357 1389 1390
f 1422 1390 1389
f 1389 1421 1422
f 1454 1422 1421
f 1421 1453 1454
f 1486 1454 1453
f 1453 1485 1486
f 1518 1486 1485
f 1485 1517 1518
f 1550 1518 1517
f 1517 1549 1550
f 1582 1550 1549
f 1549 1581 1582
f 1614 1582 1581
f 1581 1613 1614
f 1646 1614 1613
f 1613 1645 1646
f 1678 1646 1645
f 1645 1677 1678
f 1710 1678 1677
f 1677 1709 1710
f 1742 1710 1709
f 1709 1741 1742
f 1774 1742 1741
f 1741 1773 1774
f 1806 1774 1773
f 1773 1805 1806
f 1838 1806 1805
f 1805 1837 1838
f 1870 1838 1837
f 1837 1869 1870
f 1902 1870 1869
f 1869 1901 1902
f 1934 1902 1901
f 1901 1933 1934
f 1966 1934 1933
f 1933 1965 1966
f 1998 1966 1965
f 1965 1997 1998
f 2030 1998 1997
f 1997 2029 2030
f 1071 1039 1038
f 1038 1070 1071
f 1103 1071 1070
f 1070 1102 1103
f 1135 1103 1102
f 1102 1134 1135
f 1167 1135 1134
f 1134 1166 1167
f 1199 1167 1166
f 1166 1198 1199
f 1231 1199 1198
f 1198 1230 1231
f 1263 1231 1230
f 1230 1262 1263
f 1295 1263 1262
f 1262 1294 1295
f 1327 1295 1294
f 1294 1326 1327
f 1359 1327 1326
f 1326 1358 1359
f 1391 1359 1358
f 1358 1390 1391
f 1423 1391 1390
f 1390 1422 1423
f 1455 1423 1422
f 1422 1454 1455
f 1487 1455 1454
f 1454 1486 1487
f 1519 1487 1486
f 1486 1518 1519
f 1551 1519 1518
f 1518 1550 1551
f 1583 1551 1550
f 1550 1582 1583
f 1615 1583 1582
f 1582 1614 1615
f 1647 1615 1614
f 1614 1646 1647
f 1679 1647 1646
f 1646 1678 1679
f 1711 1679 1678
f 1678 1710 1711
f 1743 1711 1710
f 1710 1742 1743
f 1775 1743 1742
f 1742 1774 1775
f 1807 1775 1774
f 1774 1806 1807
f 1839 1807 1806
f 1806 1838 1839
f 1871 1839 1838
f 1838 1870 1871
f 1903 1871 1870
f 1870 1902 1903
f 1935 1903 1902
f 1902 1934 1935
f 1967 1935 1934
f 1934 1966 1967
f 1999 1967 1966
f 1966 1998 1999
f 2031 1999 1998
f 1998 2030 2031
f 1072 1040 1039
f 1039 1071 1072
f 1104 1072 1071
f 1071 1103 1104
f 1136 1104 1103
f 1103 1135 1136
f 1168 1136 1135
f 1135 1167 1168
f 1200 1168 1167
f 1167 1199 1200
f 1232 1200 1199
f 1199 1231 1232
f 1264 1232 1231
f 1231 1263 1264
f 1296 1264 1263
f 1263 1295 1296
f 1328 1296 1295
f 1295 1327 1328
f 1360 1328 1327
f 1327 1359 1360
f 1392 1360 1359
f 1359 1391 1392
f 1424 1392 1391
f 1391 1423 1424
f 1456 1424 1423
f 1423 1455 1456
f 1488 1456 1455
f 1455 1487 1488
f 1520 1488 1487
f 1487 1519 1520
f 1552 1520 1519
f 1519 1551 1552
f 1584 1552 1551
f 1551 1583 1584
f 1616 1584 1583
f 1583 1615 1616
f 1648 1616 1615
f 1615 1647 1648
f 1680 1648 1647
f 1647 1679 1680
f 1712 1680 1679
f 1679 1711 1712
f 1744 1712 1711
f 1711 1743 1744
f 1776 1744 1743
f 1743 1775 1776
f 1808 1776 1775
f 1775 1807 1808
f 1840 1808 1807
f 1807 1839 1840
f 1872 1840 1839
f 1839 1871 1872
f 1904 1872 1871
f 1871 1903 1904
f 1936 1904 1903
f 1903 1935 1936
f 1968 1936 1935
f 1935 1967 1968
f 2000 1968 1967
f 1967 1999 2000
f 2032 2000 1999
f 1999 2031 2032
