v -862.051 15.7056 -1019.81
v -862.036 15.7056 -1019.81
v -862.036 13.8778 -1019.81
v -862.051 13.8778 -1019.81
v -862.029 15.7056 -1019.83
v -862.029 13.8778 -1019.83
v -862.036 15.7056 -1019.84
v -862.036 13.8778 -1019.84
v -862.051 15.7056 -1019.84
v -862.051 13.8778 -1019.84
v -862.059 15.7056 -1019.83
v -862.059 13.8778 -1019.83
v -862.051 13.8778 -1019.81
v -862.036 13.8778 -1019.81
v -862.059 13.8778 -1019.83
v -862.036 13.8778 -1019.84
v -862.051 13.8778 -1019.84
v -862.029 13.8778 -1019.83
v -862.051 15.7056 -1019.81
v -862.059 15.7056 -1019.83
v -862.036 15.7056 -1019.81
v -862.036 15.7056 -1019.84
v -862.029 15.7056 -1019.83
v -862.051 15.7056 -1019.84
v -862.044 15.7021 -1019.83
v -862.087 15.7123 -1019.83
v -862.111 15.7065 -1019.83
v -862.125 15.7374 -1019.83
v -862.044 15.6032 -1019.83
v -862.008 15.6761 -1019.83
v -862.08 15.6761 -1019.83
v -862.087 15.7123 -1019.82
v -862.087 15.7123 -1019.83
v -862.044 15.7021 -1019.83
v -862.044 15.7021 -1019.82
v -862.044 15.7021 -1019.82
v -862.111 15.7065 -1019.82
v -862.087 15.7123 -1019.82
v -862.125 15.7374 -1019.82
v -862.008 15.6761 -1019.82
v -862.044 15.6032 -1019.82
v -862.08 15.6761 -1019.82
v -862.16 15.7808 -1019.83
v -862.16 15.7808 -1019.82
v -862.198 15.7429 -1019.82
v -862.198 15.7429 -1019.83
v -862.153 15.7304 -1019.82
v -862.111 15.7065 -1019.82
v -862.111 15.7065 -1019.83
v -862.153 15.7304 -1019.83
v -862.153 15.7304 -1019.82
v -862.153 15.7304 -1019.82
v -862.16 15.7808 -1019.82
v -862.125 15.7374 -1019.82
v -862.198 15.7429 -1019.82
v -862.16 15.7808 -1019.82
v -862.16 15.7808 -1019.83
v -862.125 15.7374 -1019.83
v -862.125 15.7374 -1019.82
v -862.16 15.7808 -1019.83
v -862.153 15.7304 -1019.83
v -862.198 15.7429 -1019.83
v -862.08 15.6761 -1019.82
v -862.08 15.6761 -1019.83
v -862.044 15.6032 -1019.82
v -862.044 15.6032 -1019.83
v -862.198 15.7429 -1019.83
v -862.198 15.7429 -1019.82
v -861.976 15.7065 -1019.83
v -862 15.7123 -1019.83
v -861.963 15.7374 -1019.83
v -862.044 15.7021 -1019.83
v -862 15.7123 -1019.83
v -862 15.7123 -1019.82
v -862.044 15.7021 -1019.82
v -862 15.7123 -1019.82
v -861.976 15.7065 -1019.82
v -861.963 15.7374 -1019.82
v -861.89 15.7429 -1019.82
v -861.927 15.7808 -1019.82
v -861.927 15.7808 -1019.83
v -861.89 15.7429 -1019.83
v -861.976 15.7065 -1019.83
v -861.976 15.7065 -1019.82
v -861.935 15.7304 -1019.82
v -861.935 15.7304 -1019.83
v -861.935 15.7304 -1019.82
v -861.927 15.7808 -1019.82
v -861.927 15.7808 -1019.82
v -861.89 15.7429 -1019.82
v -861.935 15.7304 -1019.82
v -861.963 15.7374 -1019.83
v -861.927 15.7808 -1019.83
v -861.927 15.7808 -1019.82
v -861.963 15.7374 -1019.82
v -861.927 15.7808 -1019.83
v -861.935 15.7304 -1019.83
v -861.935 15.7304 -1019.83
v -861.89 15.7429 -1019.83
v -861.927 15.7808 -1019.83
v -862.008 15.6761 -1019.83
v -862.008 15.6761 -1019.82
v -862.044 15.6032 -1019.83
v -862.044 15.6032 -1019.82
v -861.89 15.7429 -1019.83
v -861.89 15.7429 -1019.82
v -862.049 15.7021 -1019.83
v -862.049 15.7123 -1019.78
v -862.049 15.7065 -1019.76
v -862.049 15.7374 -1019.75
v -862.049 15.6032 -1019.83
v -862.049 15.6761 -1019.86
v -862.049 15.6761 -1019.79
v -862.049 15.7021 -1019.83
v -862.049 15.7065 -1019.76
v -862.039 15.7123 -1019.78
v -862.049 15.7123 -1019.78
v -862.049 15.7021 -1019.83
v -862.039 15.7021 -1019.83
v -862.039 15.7021 -1019.83
v -862.039 15.7065 -1019.76
v -862.039 15.7123 -1019.78
v -862.039 15.7374 -1019.75
v -862.039 15.6761 -1019.86
v -862.039 15.6032 -1019.83
v -862.039 15.6761 -1019.79
v -862.049 15.7808 -1019.71
v -862.039 15.7808 -1019.71
v -862.039 15.7429 -1019.67
v -862.049 15.7429 -1019.67
v -862.039 15.7304 -1019.72
v -862.039 15.7065 -1019.76
v -862.049 15.7065 -1019.76
v -862.049 15.7304 -1019.72
v -862.039 15.7304 -1019.72
v -862.039 15.7808 -1019.71
v -862.039 15.7429 -1019.67
v -862.039 15.7808 -1019.71
v -862.049 15.7808 -1019.71
v -862.049 15.7374 -1019.75
v -862.039 15.7374 -1019.75
v -862.049 15.7808 -1019.71
v -862.049 15.7304 -1019.72
v -862.049 15.7429 -1019.67
v -862.039 15.6761 -1019.79
v -862.049 15.6761 -1019.79
v -862.039 15.6032 -1019.83
v -862.049 15.6032 -1019.83
v -862.049 15.7429 -1019.67
v -862.039 15.7429 -1019.67
v -862.049 15.7065 -1019.89
v -862.049 15.7123 -1019.87
v -862.049 15.7374 -1019.91
v -862.049 15.7021 -1019.83
v -862.049 15.7123 -1019.87
v -862.039 15.7123 -1019.87
v -862.039 15.7021 -1019.83
v -862.039 15.7021 -1019.83
v -862.039 15.7123 -1019.87
v -862.039 15.7065 -1019.89
v -862.039 15.7374 -1019.91
v -862.039 15.7429 -1019.98
v -862.039 15.7808 -1019.94
v -862.049 15.7808 -1019.94
v -862.049 15.7429 -1019.98
v -862.049 15.7065 -1019.89
v -862.039 15.7065 -1019.89
v -862.039 15.7304 -1019.94
v -862.049 15.7304 -1019.94
v -862.039 15.7304 -1019.94
v -862.039 15.7808 -1019.94
v -862.039 15.7429 -1019.98
v -862.049 15.7374 -1019.91
v -862.049 15.7808 -1019.94
v -862.039 15.7808 -1019.94
v -862.039 15.7374 -1019.91
v -862.049 15.7808 -1019.94
v -862.049 15.7304 -1019.94
v -862.049 15.7429 -1019.98
v -862.049 15.6761 -1019.86
v -862.039 15.6761 -1019.86
v -862.049 15.6032 -1019.83
v -862.039 15.6032 -1019.83
v -862.049 15.7429 -1019.98
v -862.039 15.7429 -1019.98
v -862.145 15.7653 -1019.8
v -862.118 15.7653 -1019.75
v -862.102 15.728 -1019.83
v -862.073 15.728 -1019.78
v -862.071 15.7653 -1019.73
v -862.014 15.728 -1019.78
v -862.016 15.7653 -1019.73
v -861.969 15.7653 -1019.75
v -861.985 15.728 -1019.83
v -861.942 15.7653 -1019.8
v -861.942 15.7653 -1019.85
v -862.014 15.728 -1019.88
v -861.969 15.7653 -1019.9
v -862.017 15.7653 -1019.93
v -862.073 15.728 -1019.88
v -862.071 15.7653 -1019.93
v -862.118 15.7653 -1019.9
v -862.145 15.7653 -1019.85
v -862.109 15.8193 -1019.71
v -862.157 15.8193 -1019.76
v -862.044 15.8193 -1019.7
v -861.978 15.8193 -1019.71
v -861.93 15.8193 -1019.76
v -861.912 15.8193 -1019.83
v -861.93 15.8193 -1019.89
v -861.978 15.8193 -1019.94
v -862.044 15.8193 -1019.96
v -862.109 15.8193 -1019.94
v -862.157 15.8193 -1019.89
v -862.175 15.8193 -1019.83
v -862.137 15.8793 -1019.73
v -862.171 15.8793 -1019.79
v -862.078 15.8793 -1019.7
v -862.01 15.8793 -1019.7
v -861.951 15.8793 -1019.73
v -861.917 15.8793 -1019.79
v -861.917 15.8793 -1019.86
v -861.951 15.8793 -1019.92
v -862.01 15.8793 -1019.95
v -862.078 15.8793 -1019.95
v -862.136 15.8793 -1019.92
v -862.17 15.8793 -1019.86
v -862.135 15.9333 -1019.77
v -862.096 15.9333 -1019.74
v -862.044 15.9333 -1019.72
v -861.991 15.9333 -1019.74
v -861.953 15.9333 -1019.77
v -861.938 15.9333 -1019.83
v -861.953 15.9333 -1019.88
v -861.991 15.9333 -1019.92
v -862.044 15.9333 -1019.93
v -862.096 15.9333 -1019.92
v -862.135 15.9333 -1019.88
v -862.149 15.9333 -1019.83
v -862.102 15.9706 -1019.83
v -862.073 15.9706 -1019.78
v -862.014 15.9706 -1019.78
v -861.985 15.9706 -1019.83
v -862.014 15.9706 -1019.88
v -862.073 15.9706 -1019.88
v -862.044 15.7146 -1019.83
v -862.044 15.984 -1019.83
v -862.445 15.8487 -1021.41
v -862.241 16.0932 -1021.25
v -862.515 15.8545 -1021.31
v -862.444 16.0806 -1020.99
v -862.476 16.0232 -1021.02
v -862.476 16.0201 -1021.06
v -862.161 16.1069 -1021.42
v -862.424 16.3317 -1021.35
v -862.466 16.2858 -1021.13
v -862.466 16.2912 -1021.14
v -862.475 16.3575 -1021.28
v -862.454 16.3561 -1021.33
v -862.472 16.1796 -1021.01
v -862.474 16.103 -1020.97
v -862.475 16.0775 -1020.96
v -862.475 16.065 -1020.98
v -862.527 15.6874 -1021.46
v -862.511 15.6824 -1021.5
v -862.528 15.6804 -1021.49
v -862.449 15.8249 -1021.48
v -862.422 15.8611 -1021.48
v -862.279 16.0261 -1021.44
v -862.443 13.8686 -1022.45
v -862.466 13.8496 -1022.29
v -861.486 13.8491 -1022.41
v -862.471 13.844 -1020.98
v -861.404 13.8566 -1022.31
v -862.419 13.8518 -1020.95
v -861.405 13.8409 -1021.14
v -861.475 13.8375 -1021.08
v -861.464 22.0448 -1022.54
v -861.45 22.0651 -1022.38
v -862.416 22.0757 -1022.48
v -861.446 22.0452 -1021.08
v -862.446 22.0675 -1022.37
v -861.491 22.0398 -1021.04
v -862.491 22.0483 -1021.07
v -862.418 22.0369 -1021.05
v -862.476 16.0201 -1021.06
v -862.518 14.9557 -1020.75
v -862.515 15.8545 -1021.31
v -862.527 15.6874 -1021.46
v -861.45 22.0651 -1022.38
v -861.464 22.0448 -1022.54
v -861.398 21.3742 -1021.96
v -861.479 21.3771 -1022.03
v -861.456 20.719 -1021.58
v -861.487 20.7197 -1021.66
v -861.397 20.9284 -1020.7
v -861.48 20.9256 -1020.62
v -861.446 22.0452 -1021.08
v -861.491 22.0398 -1021.04
v -861.489 20.0419 -1021.47
v -861.398 20.035 -1021.42
v -861.495 19.3531 -1021.4
v -861.386 19.3456 -1021.37
v -861.399 19.4518 -1020.52
v -861.463 19.4556 -1020.4
v -861.428 18.6487 -1021.2
v -861.465 18.6468 -1021.32
v -861.482 17.9471 -1021.26
v -861.407 17.9465 -1021.2
v -861.5 17.9375 -1020.22
v -861.456 17.9381 -1020.28
v -861.453 17.2429 -1021.12
v -861.462 17.2485 -1021.25
v -861.47 16.552 -1021.32
v -861.431 16.5466 -1021.22
v -861.466 16.4317 -1020.42
v -861.502 16.4343 -1020.26
v -861.423 15.8599 -1021.42
v -861.472 15.8655 -1021.52
v -861.489 15.1801 -1021.68
v -861.441 15.1833 -1021.62
v -861.465 14.9467 -1020.64
v -861.466 14.9651 -1020.78
v -861.406 14.5317 -1021.94
v -861.501 14.5134 -1021.97
v -861.486 13.8491 -1022.41
v -861.404 13.8566 -1022.31
v -861.405 13.8409 -1021.14
v -861.475 13.8375 -1021.08
v -862.416 22.0757 -1022.48
v -862.446 22.0675 -1022.37
v -862.413 21.3919 -1022
v -862.475 21.3793 -1021.95
v -862.418 22.0369 -1021.05
v -862.419 20.9158 -1020.66
v -862.491 22.0483 -1021.07
v -862.488 20.9249 -1020.71
v -862.429 20.7169 -1021.67
v -862.465 20.7178 -1021.59
v -862.45 20.0277 -1021.53
v -862.51 20.0354 -1021.42
v -862.509 19.4515 -1020.52
v -862.447 19.4546 -1020.41
v -862.534 19.3451 -1021.37
v -862.449 19.3421 -1021.47
v -862.526 18.6476 -1021.22
v -862.445 18.6472 -1021.32
v -862.449 17.9368 -1020.15
v -862.477 17.938 -1020.27
v -862.413 17.9467 -1021.22
v -862.475 17.9464 -1021.19
v -862.478 17.2436 -1021.13
v -862.431 17.2447 -1021.21
v -862.463 16.4299 -1020.32
v -862.422 16.4307 -1020.24
v -862.425 16.5458 -1021.29
v -862.456 16.545 -1021.21
v -862.454 16.3561 -1021.33
v -862.475 16.3575 -1021.28
v -862.424 16.3317 -1021.35
v -862.424 14.9636 -1020.7
v -862.422 15.8611 -1021.48
v -862.449 15.8249 -1021.48
v -862.412 15.172 -1021.66
v -862.511 15.6824 -1021.5
v -862.528 15.6804 -1021.49
v -862.531 15.1908 -1021.64
v -862.415 14.5177 -1021.98
v -862.453 14.5243 -1021.92
v -862.471 13.844 -1020.98
v -862.419 13.8518 -1020.95
v -862.466 13.8496 -1022.29
v -862.443 13.8686 -1022.45
v -861.464 22.0448 -1022.54
v -861.479 21.3771 -1022.03
v -861.487 20.7197 -1021.66
v -861.489 20.0419 -1021.47
v -861.495 19.3531 -1021.4
v -861.465 18.6468 -1021.32
v -861.482 17.9471 -1021.26
v -861.462 17.2485 -1021.25
v -861.47 16.552 -1021.32
v -861.472 15.8655 -1021.52
v -862.279 16.0261 -1021.44
v -862.161 16.1069 -1021.42
v -861.489 15.1801 -1021.68
v -861.501 14.5134 -1021.97
v -861.486 13.8491 -1022.41
v -862.466 16.2912 -1021.14
v -862.466 16.2858 -1021.13
v -862.472 16.1796 -1021.01
v -862.474 16.103 -1020.97
v -862.475 16.0775 -1020.96
v -862.476 16.0232 -1021.02
v -862.475 16.065 -1020.98
v -862.526 19.9952 -1018.19
v -862.322 19.7521 -1018.35
v -862.596 19.9902 -1018.29
v -862.525 19.7669 -1018.61
v -862.556 19.8241 -1018.59
v -862.557 19.8268 -1018.54
v -862.243 19.7369 -1018.18
v -862.505 19.5128 -1018.26
v -862.547 19.5605 -1018.48
v -862.546 19.555 -1018.46
v -862.556 19.4876 -1018.33
v -862.535 19.4885 -1018.28
v -862.552 19.6678 -1018.6
v -862.554 19.7446 -1018.63
v -862.555 19.7702 -1018.64
v -862.555 19.7825 -1018.62
v -862.608 20.1561 -1018.15
v -862.592 20.1609 -1018.1
v -862.609 20.1628 -1018.11
v -862.53 20.0184 -1018.12
v -862.503 19.9822 -1018.12
v -862.36 19.8176 -1018.16
v -862.526 21.9666 -1017.14
v -862.549 21.9868 -1017.29
v -861.568 21.9864 -1017.18
v -862.552 22.0035 -1018.6
v -861.486 21.9797 -1017.28
v -862.499 21.9959 -1018.64
v -861.486 22.0052 -1018.44
v -861.556 22.0091 -1018.5
v -861.546 13.7898 -1017.11
v -861.533 13.7709 -1017.27
v -862.499 13.7595 -1017.18
v -861.526 13.8017 -1018.57
v -862.528 13.7685 -1017.28
v -861.571 13.8075 -1018.61
v -862.572 13.7987 -1018.58
v -862.499 13.8103 -1018.61
v -862.557 19.8268 -1018.54
v -862.598 20.8937 -1018.84
v -862.596 19.9902 -1018.29
v -862.608 20.1561 -1018.15
v -861.533 13.7709 -1017.27
v -861.546 13.7898 -1017.11
v -861.48 14.4653 -1017.68
v -861.561 14.4618 -1017.62
v -861.538 15.1236 -1018.06
v -861.568 15.1223 -1017.99
v -861.477 14.9217 -1018.94
v -861.56 14.9251 -1019.02
v -861.526 13.8017 -1018.57
v -861.571 13.8075 -1018.61
v -861.57 15.8017 -1018.17
v -861.479 15.809 -1018.22
v -861.576 16.4911 -1018.23
v -861.467 16.4988 -1018.26
v -861.479 16.3997 -1019.11
v -861.543 16.397 -1019.23
v -861.509 17.197 -1018.42
v -861.546 17.198 -1018.3
v -861.563 17.8982 -1018.36
v -861.487 17.8993 -1018.42
v -861.579 17.9165 -1019.4
v -861.535 17.9154 -1019.34
v -861.534 18.6035 -1018.49
v -861.543 18.5968 -1018.36
v -861.551 19.2926 -1018.28
v -861.512 19.2989 -1018.38
v -861.545 19.4206 -1019.19
v -861.581 19.4192 -1019.34
v -861.504 19.9839 -1018.18
v -861.553 19.9775 -1018.08
v -861.571 20.6616 -1017.92
v -861.522 20.6588 -1017.98
v -861.545 20.9036 -1018.95
v -861.546 20.8841 -1018.81
v -861.487 21.3078 -1017.65
v -861.583 21.3258 -1017.62
v -861.568 21.9864 -1017.18
v -861.486 21.9797 -1017.28
v -861.486 22.0052 -1018.44
v -861.556 22.0091 -1018.5
v -862.499 13.7595 -1017.18
v -862.528 13.7685 -1017.28
v -862.495 14.4473 -1017.65
v -862.557 14.4603 -1017.7
v -862.499 13.8103 -1018.61
v -862.498 14.9346 -1018.99
v -862.572 13.7987 -1018.58
v -862.568 14.9251 -1018.93
v -862.51 15.125 -1017.98
v -862.547 15.1248 -1018.05
v -862.531 15.8154 -1018.11
v -862.591 15.8087 -1018.22
v -862.588 16.4 -1019.11
v -862.527 16.3979 -1019.22
v -862.615 16.4992 -1018.26
v -862.53 16.5015 -1018.16
v -862.607 17.198 -1018.4
v -862.525 17.1977 -1018.31
v -862.528 17.9178 -1019.47
v -862.557 17.9156 -1019.35
v -862.493 17.8988 -1018.4
v -862.556 17.8995 -1018.43
v -862.559 18.6028 -1018.49
v -862.512 18.601 -1018.4
v -862.543 19.4233 -1019.29
v -862.501 19.4231 -1019.36
v -862.506 19.2992 -1018.32
v -862.536 19.3006 -1018.39
v -862.535 19.4885 -1018.28
v -862.556 19.4876 -1018.33
v -862.505 19.5128 -1018.26
v -862.504 20.8863 -1018.9
v -862.503 19.9822 -1018.12
v -862.53 20.0184 -1018.12
v -862.493 20.6698 -1017.94
v -862.592 20.1609 -1018.1
v -862.609 20.1628 -1018.11
v -862.613 20.6511 -1017.95
v -862.497 21.3214 -1017.61
v -862.534 21.3153 -1017.67
v -862.552 22.0035 -1018.6
v -862.499 21.9959 -1018.64
v -862.549 21.9868 -1017.29
v -862.526 21.9666 -1017.14
v -861.546 13.7898 -1017.11
v -861.561 14.4618 -1017.62
v -861.568 15.1223 -1017.99
v -861.57 15.8017 -1018.17
v -861.576 16.4911 -1018.23
v -861.546 17.198 -1018.3
v -861.563 17.8982 -1018.36
v -861.543 18.5968 -1018.36
v -861.551 19.2926 -1018.28
v -861.553 19.9775 -1018.08
v -862.36 19.8176 -1018.16
v -862.243 19.7369 -1018.18
v -861.571 20.6616 -1017.92
v -861.583 21.3258 -1017.62
v -861.568 21.9864 -1017.18
v -862.546 19.555 -1018.46
v -862.547 19.5605 -1018.48
v -862.552 19.6678 -1018.6
v -862.554 19.7446 -1018.63
v -862.555 19.7702 -1018.64
v -862.556 19.8241 -1018.59
v -862.555 19.7825 -1018.62
v -862.317 20.7488 -1019.1
v -862.634 20.9495 -1018.89
v -862.263 21.3563 -1018.86
v -862.668 21.1753 -1018.84
v -862.566 20.8015 -1019
v -861.837 21.2518 -1018.78
v -861.902 21.5263 -1018.73
v -861.485 21.3029 -1018.96
v -861.992 20.4831 -1019.47
v -861.873 21.0229 -1018.92
v -862.781 21.07 -1019.62
v -862.534 20.6725 -1019.44
v -863.015 20.9624 -1019.97
v -862.774 20.6586 -1019.89
v -862.897 21.034 -1019.27
v -862.898 21.4268 -1019.31
v -862.842 21.2664 -1019.6
v -862.831 21.6893 -1019.39
v -862.773 21.7386 -1019.57
v -863.064 21.2619 -1019.79
v -862.939 21.3531 -1019.1
v -862.764 21.7392 -1019.1
v -862.524 21.9683 -1019.04
v -862.438 22.1133 -1019.16
v -862.364 21.7761 -1018.85
v -862.286 21.9313 -1018.87
v -862.072 22.1389 -1019.17
v -861.575 21.6163 -1018.96
v -861.462 21.6464 -1019.13
v -861.231 21.3493 -1019.28
v -862.657 20.6263 -1020.29
v -862.418 20.4157 -1019.91
v -862.504 20.4052 -1019.75
v -863.1 21.2633 -1019.96
v -863.023 21.5802 -1019.91
v -861.341 20.8107 -1019.9
v -861.426 20.6552 -1019.55
v -861.498 21.9664 -1019.34
v -861.677 21.9574 -1019.22
v -861.57 21.0382 -1019.12
v -861.825 22.2968 -1019.49
v -861.495 22.0196 -1019.57
v -861.434 22.0186 -1019.75
v -861.871 20.4736 -1019.6
v -862.013 20.3318 -1019.94
v -862.131 20.3397 -1019.75
v -861.626 20.5764 -1019.89
v -862.887 20.9637 -1020.37
v -862.464 22.2762 -1019.88
v -862.642 22.0865 -1019.56
v -862.921 21.7064 -1020.26
v -862.617 21.7325 -1020.71
v -862.4 22.0634 -1020.51
v -862.316 22.2198 -1020.04
v -861.152 21.426 -1019.89
v -861.297 21.3951 -1019.72
v -861.703 22.2397 -1019.8
v -861.406 21.9613 -1019.93
v -861.197 21.16 -1019.96
v -861.517 20.7738 -1020.16
v -861.31 21.017 -1020.2
v -862.203 22.2316 -1020.21
v -861.933 22.3445 -1020.05
v -861.838 22.3137 -1020.24
v -861.218 21.6611 -1020.05
v -861.115 21.4502 -1020.07
v -861.173 21.4672 -1020.24
v -861.155 21.2209 -1020.12
v -861.626 20.9944 -1020.55
v -862.175 22.0246 -1020.74
v -861.741 22.2334 -1020.42
v -861.846 22.0863 -1020.69
v -861.826 21.7859 -1020.78
v -861.621 21.9311 -1020.6
v -862.134 21.7318 -1020.88
v -862.314 21.7733 -1020.87
v -862.317 22.027 -1020.58
v -861.542 22.0042 -1020.4
v -861.476 21.7468 -1020.66
v -861.413 21.5809 -1020.34
v -861.438 21.4295 -1020.58
v -861.546 21.2766 -1020.7
v -861.932 21.3767 -1020.78
v -862.271 21.2356 -1020.8
v -861.602 21.7695 -1020.79
v -862.846 21.1839 -1018.97
v -862.817 21.3489 -1018.93
v -862.783 21.5669 -1018.97
v -861.52 21.5147 -1020.75
v -861.697 21.5103 -1020.8
v -861.922 21.86 -1018.87
v -862.311 20.4178 -1019.45
v -862.146 20.6431 -1020.41
v -862.265 20.8952 -1020.63
v -862.606 21.0625 -1020.69
v -862.539 21.4485 -1020.84
v -861.921 20.9192 -1020.51
v -862.423 17.8665 -1018.67
v -862.515 17.2818 -1018.59
v -862.461 17.8888 -1019.02
v -862.558 17.2929 -1018.93
v -862.242 17.275 -1018.39
v -862.207 17.8928 -1018.45
v -861.82 17.2663 -1018.26
v -861.863 17.8913 -1018.51
v -861.537 17.2672 -1018.59
v -861.579 17.9016 -1018.72
v -861.57 17.3078 -1019.03
v -861.635 17.8664 -1019.05
v -862.315 17.3025 -1019.31
v -861.896 17.3358 -1019.38
v -862.204 17.8577 -1019.25
v -861.905 17.901 -1019.3
v -862.284 19.0959 -1018.86
v -862.276 19.0988 -1018.67
v -862.331 18.5039 -1018.93
v -862.363 18.5082 -1018.73
v -862.162 18.5172 -1018.53
v -862.112 19.0832 -1018.59
v -861.888 18.5161 -1018.51
v -861.939 19.0548 -1018.55
v -861.791 19.0533 -1018.71
v -861.962 19.0777 -1019.02
v -861.68 18.5278 -1018.71
v -862.16 19.0879 -1018.99
v -862.171 18.5039 -1019.1
v -861.958 18.5099 -1019.11
v -862.307 19.5878 -1018.83
v -862.227 19.6584 -1018.8
v -862.273 19.5853 -1018.7
v -861.989 19.545 -1018.83
v -862.05 19.5235 -1018.73
v -862.145 19.6709 -1018.76
v -862.094 19.6498 -1018.84
v -862.095 19.5399 -1018.86
v -862.227 19.6584 -1018.8
v -862.307 19.5878 -1018.83
v -862.461 17.8888 -1019.02
v -862.558 17.2929 -1018.93
v -862.331 18.5039 -1018.93
v -862.18 19.5723 -1018.61
v -862.284 19.0959 -1018.86
v -862.145 19.6709 -1018.76
v -861.695 16.8442 -1020.45
v -861.584 16.2595 -1020.39
v -862.015 16.8665 -1020.29
v -861.891 16.2706 -1020.23
v -861.487 16.2527 -1020.71
v -861.555 16.8705 -1020.72
v -861.508 16.244 -1021.15
v -861.726 16.869 -1021.03
v -861.908 16.2449 -1021.31
v -862.023 16.8793 -1021.23
v -862.321 16.2855 -1021.13
v -862.318 16.844 -1021.06
v -862.33 16.2802 -1020.34
v -862.537 16.3135 -1020.71
v -862.316 16.8354 -1020.46
v -862.462 16.8787 -1020.72
v -861.918 18.0736 -1020.51
v -861.739 18.0765 -1020.59
v -861.973 17.4816 -1020.44
v -861.774 17.4859 -1020.48
v -861.649 17.4949 -1020.74
v -861.724 18.0609 -1020.77
v -861.724 17.4938 -1021
v -861.739 18.0325 -1020.94
v -861.941 18.031 -1021.03
v -862.173 18.0554 -1020.77
v -861.974 17.5055 -1021.14
v -862.083 18.0656 -1020.59
v -862.185 17.4816 -1020.54
v -862.261 17.4876 -1020.74
v -861.879 18.5655 -1020.5
v -861.882 18.6361 -1020.59
v -861.771 18.563 -1020.58
v -861.989 18.5227 -1020.8
v -861.877 18.5012 -1020.78
v -861.873 18.6486 -1020.68
v -861.967 18.6275 -1020.7
v -861.98 18.5176 -1020.69
v -861.882 18.6361 -1020.59
v -861.879 18.5655 -1020.5
v -862.015 16.8665 -1020.29
v -861.891 16.2706 -1020.23
v -861.973 17.4816 -1020.44
v -861.72 18.55 -1020.69
v -861.918 18.0736 -1020.51
v -861.873 18.6486 -1020.68
v -893 12.7879 -988
v -893 12.8367 -990
v -893 12.8801 -992
v -893 12.871 -994
v -893 12.8323 -996
v -893 12.7888 -998
v -893 12.7223 -1000
v -893 12.5986 -1002
v -893 12.6455 -1004
v -893 12.7009 -1006
v -893 12.7573 -1008
v -893 12.8147 -1010
v -893 12.8731 -1012
v -893 12.9326 -1014
v -893 12.9932 -1016
v -893 13.0548 -1018
v -893 13.1174 -1020
v -893 13.1811 -1022
v -893 13.2458 -1024
v -893 13.3115 -1026
v -893 13.3782 -1028
v -893 13.4459 -1030
v -893 13.5146 -1032
v -893 13.5843 -1034
v -893 13.6549 -1036
v -893 13.7265 -1038
v -893 13.799 -1040
v -893 13.8725 -1042
v -893 13.9469 -1044
v -893 14.0618 -1046
v -893 14.187 -1048
v -893 14.2899 -1050
v -891 12.9792 -988
v -891 13.0326 -990
v -891 13.0679 -992
v -891 13.0591 -994
v -891 13.0435 -996
v -891 13.0372 -998
v -891 13.003 -1000
v -891 12.9059 -1002
v -891 12.9152 -1004
v -891 12.9707 -1006
v -891 13.0272 -1008
v -891 13.0846 -1010
v -891 13.1431 -1012
v -891 13.2026 -1014
v -891 13.2632 -1016
v -891 13.3249 -1018
v -891 13.3875 -1020
v -891 13.4512 -1022
v -891 13.516 -1024
v -891 13.5817 -1026
v -891 13.6484 -1028
v -891 13.7161 -1030
v -891 13.7848 -1032
v -891 13.8545 -1034
v -891 13.9251 -1036
v -891 13.9967 -1038
v -891 14.0692 -1040
v -891 14.1426 -1042
v -891 14.2169 -1044
v -891 14.2922 -1046
v -891 14.3684 -1048
v -891 14.4454 -1050
v -889 13.1399 -988
v -889 13.2183 -990
v -889 13.2619 -992
v -889 13.2559 -994
v -889 13.2557 -996
v -889 13.2801 -998
v -889 13.2828 -1000
v -889 13.2244 -1002
v -889 13.1854 -1004
v -889 13.241 -1006
v -889 13.2975 -1008
v -889 13.355 -1010
v -889 13.4135 -1012
v -889 13.4731 -1014
v -889 13.5337 -1016
v -889 13.5954 -1018
v -889 13.6581 -1020
v -889 13.7218 -1022
v -889 13.7865 -1024
v -889 13.8523 -1026
v -889 13.919 -1028
v -889 13.9867 -1030
v -889 14.0554 -1032
v -889 14.1251 -1034
v -889 14.1957 -1036
v -889 14.2672 -1038
v -889 14.3397 -1040
v -889 14.4131 -1042
v -889 14.4875 -1044
v -889 14.5627 -1046
v -889 14.6388 -1048
v -889 14.7158 -1050
v -887 13.4982 -988
v -887 13.6416 -990
v -887 13.702 -992
v -887 13.6824 -994
v -887 13.6487 -996
v -887 13.6365 -998
v -887 13.6185 -1000
v -887 13.5542 -1002
v -887 13.4567 -1004
v -887 13.5115 -1006
v -887 13.5681 -1008
v -887 13.6257 -1010
v -887 13.6843 -1012
v -887 13.7439 -1014
v -887 13.8046 -1016
v -887 13.8663 -1018
v -887 13.929 -1020
v -887 13.9927 -1022
v -887 14.0575 -1024
v -887 14.1232 -1026
v -887 14.19 -1028
v -887 14.2577 -1030
v -887 14.3264 -1032
v -887 14.3961 -1034
v -887 14.4666 -1036
v -887 14.5382 -1038
v -887 14.6107 -1040
v -887 14.684 -1042
v -887 14.7583 -1044
v -887 14.8335 -1046
v -887 14.9096 -1048
v -887 14.9866 -1050
v -885 14.0557 -988
v -885 14.2467 -990
v -885 14.3038 -992
v -885 14.2716 -994
v -885 14.2084 -996
v -885 14.1417 -998
v -885 14.0609 -1000
v -885 13.9403 -1002
v -885 13.8129 -1004
v -885 13.7825 -1006
v -885 13.8392 -1008
v -885 13.8968 -1010
v -885 13.9554 -1012
v -885 14.0151 -1014
v -885 14.0758 -1016
v -885 14.1375 -1018
v -885 14.2003 -1020
v -885 14.2641 -1022
v -885 14.3288 -1024
v -885 14.3946 -1026
v -885 14.4614 -1028
v -885 14.5291 -1030
v -885 14.5978 -1032
v -885 14.6674 -1034
v -885 14.738 -1036
v -885 14.8095 -1038
v -885 14.882 -1040
v -885 14.9553 -1042
v -885 15.0296 -1044
v -885 15.1047 -1046
v -885 15.1808 -1048
v -885 15.2577 -1050
v -883 14.6753 -988
v -883 14.8959 -990
v -883 14.9355 -992
v -883 14.8941 -994
v -883 14.8244 -996
v -883 14.7238 -998
v -883 14.5832 -1000
v -883 14.3972 -1002
v -883 14.2153 -1004
v -883 14.0762 -1006
v -883 14.1106 -1008
v -883 14.1682 -1010
v -883 14.2269 -1012
v -883 14.2866 -1014
v -883 14.3474 -1016
v -883 14.4091 -1018
v -883 14.4719 -1020
v -883 14.5357 -1022
v -883 14.6005 -1024
v -883 14.6663 -1026
v -883 14.7331 -1028
v -883 14.8008 -1030
v -883 14.8695 -1032
v -883 14.9391 -1034
v -883 15.0097 -1036
v -883 15.0812 -1038
v -883 15.1536 -1040
v -883 15.227 -1042
v -883 15.3012 -1044
v -883 15.3763 -1046
v -883 15.4523 -1048
v -883 15.5292 -1050
v -881 15.2468 -988
v -881 15.4809 -990
v -881 15.5025 -992
v -881 15.4452 -994
v -881 15.3783 -996
v -881 15.2766 -998
v -881 15.1158 -1000
v -881 14.8988 -1002
v -881 14.6788 -1004
v -881 14.4876 -1006
v -881 14.3822 -1008
v -881 14.4399 -1010
v -881 14.4987 -1012
v -881 14.5584 -1014
v -881 14.6192 -1016
v -881 14.681 -1018
v -881 14.7438 -1020
v -881 14.8077 -1022
v -881 14.8725 -1024
v -881 14.9383 -1026
v -881 15.0051 -1028
v -881 15.0728 -1030
v -881 15.1415 -1032
v -881 15.2111 -1034
v -881 15.2817 -1036
v -881 15.3532 -1038
v -881 15.4256 -1040
v -881 15.4989 -1042
v -881 15.5731 -1044
v -881 15.6481 -1046
v -881 15.7241 -1048
v -881 15.8009 -1050
v -879 15.747 -988
v -879 15.9355 -990
v -879 15.9436 -992
v -879 15.8841 -994
v -879 15.8332 -996
v -879 15.7555 -998
v -879 15.6156 -1000
v -879 15.4109 -1002
v -879 15.1827 -1004
v -879 14.9556 -1006
v -879 14.7518 -1008
v -879 14.7119 -1010
v -879 14.7707 -1012
v -879 14.8305 -1014
v -879 14.8913 -1016
v -879 14.9532 -1018
v -879 15.016 -1020
v -879 15.0799 -1022
v -879 15.1447 -1024
v -879 15.2105 -1026
v -879 15.2773 -1028
v -879 15.345 -1030
v -879 15.4137 -1032
v -879 15.4833 -1034
v -879 15.5539 -1036
v -879 15.6254 -1038
v -879 15.6978 -1040
v -879 15.771 -1042
v -879 15.8452 -1044
v -879 15.9202 -1046
v -879 15.9962 -1048
v -879 16.0729 -1050
v -877 16.1667 -988
v -877 16.2968 -990
v -877 16.3077 -992
v -877 16.2503 -994
v -877 16.2082 -996
v -877 16.1391 -998
v -877 16.0272 -1000
v -877 15.8697 -1002
v -877 15.666 -1004
v -877 15.4364 -1006
v -877 15.2049 -1008
v -877 15.0162 -1010
v -877 15.043 -1012
v -877 15.1028 -1014
v -877 15.1637 -1016
v -877 15.2256 -1018
v -877 15.2885 -1020
v -877 15.3523 -1022
v -877 15.4172 -1024
v -877 15.483 -1026
v -877 15.5498 -1028
v -877 15.6176 -1030
v -877 15.6862 -1032
v -877 15.7559 -1034
v -877 15.8264 -1036
v -877 15.8979 -1038
v -877 15.9702 -1040
v -877 16.0435 -1042
v -877 16.1176 -1044
v -877 16.1926 -1046
v -877 16.2685 -1048
v -877 16.3452 -1050
v -875 16.5848 -988
v -875 16.6473 -990
v -875 16.656 -992
v -875 16.6219 -994
v -875 16.5618 -996
v -875 16.4657 -998
v -875 16.3604 -1000
v -875 16.2411 -1002
v -875 16.0839 -1004
v -875 15.8819 -1006
v -875 15.6769 -1008
v -875 15.5032 -1010
v -875 15.3154 -1012
v -875 15.3753 -1014
v -875 15.4363 -1016
v -875 15.4982 -1018
v -875 15.5611 -1020
v -875 15.625 -1022
v -875 15.6899 -1024
v -875 15.7557 -1026
v -875 15.8225 -1028
v -875 15.8903 -1030
v -875 15.959 -1032
v -875 16.0286 -1034
v -875 16.0991 -1036
v -875 16.1705 -1038
v -875 16.2429 -1040
v -875 16.3161 -1042
v -875 16.3902 -1044
v -875 16.4652 -1046
v -875 16.541 -1048
v -875 16.6177 -1050
v -873 17.0116 -988
v -873 17.0209 -990
v -873 17.0325 -992
v -873 16.9942 -994
v -873 16.896 -996
v -873 16.7629 -998
v -873 16.6548 -1000
v -873 16.5662 -1002
v -873 16.4567 -1004
v -873 16.3053 -1006
v -873 16.1827 -1008
v -873 15.976 -1010
v -873 15.741 -1012
v -873 15.648 -1014
v -873 15.709 -1016
v -873 15.7709 -1018
v -873 15.8339 -1020
v -873 15.8978 -1022
v -873 15.9627 -1024
v -873 16.0286 -1026
v -873 16.0954 -1028
v -873 16.1631 -1030
v -873 16.2318 -1032
v -873 16.3014 -1034
v -873 16.3719 -1036
v -873 16.4434 -1038
v -873 16.5157 -1040
v -873 16.5889 -1042
v -873 16.6629 -1044
v -873 16.7379 -1046
v -873 16.8137 -1048
v -873 16.8903 -1050
v -871 17.4026 -988
v -871 17.3855 -990
v -871 17.4045 -992
v -871 17.3536 -994
v -871 17.2184 -996
v -871 17.0511 -998
v -871 16.9359 -1000
v -871 16.8858 -1002
v -871 16.8288 -1004
v -871 16.7388 -1006
v -871 16.598 -1008
v -871 16.4179 -1010
v -871 16.2116 -1012
v -871 15.9803 -1014
v -871 15.9818 -1016
v -871 16.0438 -1018
v -871 16.1068 -1020
v -871 16.1708 -1022
v -871 16.2357 -1024
v -871 16.3016 -1026
v -871 16.3684 -1028
v -871 16.4362 -1030
v -871 16.5048 -1032
v -871 16.5744 -1034
v -871 16.6449 -1036
v -871 16.7163 -1038
v -871 16.7886 -1040
v -871 16.8618 -1042
v -871 16.9358 -1044
v -871 17.0107 -1046
v -871 17.0865 -1048
v -871 17.1631 -1050
v -869 17.6826 -988
v -869 17.66 -990
v -869 17.675 -992
v -869 17.6298 -994
v -869 17.5187 -996
v -869 17.3774 -998
v -869 17.2769 -1000
v -869 17.2533 -1002
v -869 17.2277 -1004
v -869 17.1487 -1006
v -869 17.006 -1008
v -869 16.8435 -1010
v -869 16.6655 -1012
v -869 16.4577 -1014
v -869 16.2548 -1016
v -869 16.3169 -1018
v -869 16.3799 -1020
v -869 16.4439 -1022
v -869 16.5088 -1024
v -869 16.5747 -1026
v -869 16.6415 -1028
v -869 16.7093 -1030
v -869 16.778 -1032
v -869 16.8476 -1034
v -869 16.9181 -1036
v -869 16.9894 -1038
v -869 17.0617 -1040
v -869 17.1349 -1042
v -869 17.2089 -1044
v -869 17.2837 -1046
v -869 17.3594 -1048
v -869 17.436 -1050
v -867 17.8685 -988
v -867 17.8354 -990
v -867 17.8433 -992
v -867 17.8225 -994
v -867 17.7825 -996
v -867 17.7156 -998
v -867 17.6521 -1000
v -867 17.6375 -1002
v -867 17.6156 -1004
v -867 17.5334 -1006
v -867 17.3916 -1008
v -867 17.2424 -1010
v -867 17.0883 -1012
v -867 16.9075 -1014
v -867 16.6994 -1016
v -867 16.5899 -1018
v -867 16.653 -1020
v -867 16.717 -1022
v -867 16.7819 -1024
v -867 16.8479 -1026
v -867 16.9147 -1028
v -867 16.9825 -1030
v -867 17.0511 -1032
v -867 17.1207 -1034
v -867 17.1912 -1036
v -867 17.2626 -1038
v -867 17.3348 -1040
v -867 17.4079 -1042
v -867 17.4819 -1044
v -867 17.5567 -1046
v -867 17.6324 -1048
v -867 17.7089 -1050
v -865 18.0401 -988
v -865 18.0092 -990
v -865 18.016 -992
v -865 18.0082 -994
v -865 18.008 -996
v -865 17.988 -998
v -865 17.9532 -1000
v -865 17.9351 -1002
v -865 17.9051 -1004
v -865 17.8324 -1006
v -865 17.7195 -1008
v -865 17.5988 -1010
v -865 17.4691 -1012
v -865 17.3151 -1014
v -865 17.1389 -1016
v -865 16.9571 -1018
v -865 16.9261 -1020
v -865 16.9902 -1022
v -865 17.0552 -1024
v -865 17.1211 -1026
v -865 17.1879 -1028
v -865 17.2557 -1030
v -865 17.3244 -1032
v -865 17.394 -1034
v -865 17.4644 -1036
v -865 17.5358 -1038
v -865 17.608 -1040
v -865 17.6811 -1042
v -865 17.755 -1044
v -865 17.8298 -1046
v -865 17.9054 -1048
v -865 17.9819 -1050
v -863 18.2322 -988
v -863 18.2167 -990
v -863 18.2192 -992
v -863 18.2012 -994
v -863 18.2007 -996
v -863 18.1927 -998
v -863 18.171 -1000
v -863 18.1449 -1002
v -863 18.1155 -1004
v -863 18.0751 -1006
v -863 18.0127 -1008
v -863 17.9393 -1010
v -863 17.8373 -1012
v -863 17.7005 -1014
v -863 17.549 -1016
v -863 17.4018 -1018
v -863 17.2344 -1020
v -863 17.2634 -1022
v -863 17.3284 -1024
v -863 17.3943 -1026
v -863 17.4612 -1028
v -863 17.529 -1030
v -863 17.5977 -1032
v -863 17.6672 -1034
v -863 17.7377 -1036
v -863 17.809 -1038
v -863 17.8812 -1040
v -863 17.9543 -1042
v -863 18.0282 -1044
v -863 18.1029 -1046
v -863 18.1785 -1048
v -863 18.2549 -1050
v -861 18.3812 -988
v -861 18.3791 -990
v -861 18.378 -992
v -861 18.3508 -994
v -861 18.3456 -996
v -861 18.3436 -998
v -861 18.3319 -1000
v -861 18.3084 -1002
v -861 18.2978 -1004
v -861 18.3027 -1006
v -861 18.2923 -1008
v -861 18.2671 -1010
v -861 18.1942 -1012
v -861 18.0723 -1014
v -861 17.9397 -1016
v -861 17.8182 -1018
v -861 17.6821 -1020
v -861 17.5366 -1022
v -861 17.6016 -1024
v -861 17.6675 -1026
v -861 17.7344 -1028
v -861 17.8022 -1030
v -861 17.8709 -1032
v -861 17.9404 -1034
v -861 18.0109 -1036
v -861 18.0822 -1038
v -861 18.1544 -1040
v -861 18.2274 -1042
v -861 18.3013 -1044
v -861 18.376 -1046
v -861 18.4515 -1048
v -861 18.5278 -1050
v -859 18.4378 -988
v -859 18.4363 -990
v -859 18.4348 -992
v -859 18.4179 -994
v -859 18.4349 -996
v -859 18.46 -998
v -859 18.4684 -1000
v -859 18.4595 -1002
v -859 18.4723 -1004
v -859 18.5091 -1006
v -859 18.5323 -1008
v -859 18.5389 -1010
v -859 18.4943 -1012
v -859 18.3983 -1014
v -859 18.2928 -1016
v -859 18.1974 -1018
v -859 18.0918 -1020
v -859 17.9704 -1022
v -859 17.8747 -1024
v -859 17.9407 -1026
v -859 18.0076 -1028
v -859 18.0754 -1030
v -859 18.1441 -1032
v -859 18.2136 -1034
v -859 18.2841 -1036
v -859 18.3554 -1038
v -859 18.4275 -1040
v -859 18.5005 -1042
v -859 18.5744 -1044
v -859 18.649 -1046
v -859 18.7245 -1048
v -859 18.8008 -1050
v -857 18.426 -988
v -857 18.4167 -990
v -857 18.4077 -992
v -857 18.406 -994
v -857 18.4524 -996
v -857 18.5174 -998
v -857 18.5614 -1000
v -857 18.5836 -1002
v -857 18.6202 -1004
v -857 18.6669 -1006
v -857 18.7026 -1008
v -857 18.7274 -1010
v -857 18.7137 -1012
v -857 18.6583 -1014
v -857 18.591 -1016
v -857 18.5288 -1018
v -857 18.4588 -1020
v -857 18.3721 -1022
v -857 18.2769 -1024
v -857 18.2138 -1026
v -857 18.2807 -1028
v -857 18.3485 -1030
v -857 18.4171 -1032
v -857 18.4867 -1034
v -857 18.5571 -1036
v -857 18.6284 -1038
v -857 18.7005 -1040
v -857 18.7735 -1042
v -857 18.8473 -1044
v -857 18.9219 -1046
v -857 18.9974 -1048
v -857 19.0736 -1050
v -855 18.3921 -988
v -855 18.3802 -990
v -855 18.3663 -992
v -855 18.3703 -994
v -855 18.4138 -996
v -855 18.4845 -998
v -855 18.549 -1000
v -855 18.6034 -1002
v -855 18.6629 -1004
v -855 18.7162 -1006
v -855 18.7628 -1008
v -855 18.8105 -1010
v -855 18.838 -1012
v -855 18.8355 -1014
v -855 18.814 -1016
v -855 18.7916 -1018
v -855 18.7647 -1020
v -855 18.7222 -1022
v -855 18.6605 -1024
v -855 18.5955 -1026
v -855 18.5537 -1028
v -855 18.6215 -1030
v -855 18.6901 -1032
v -855 18.7597 -1034
v -855 18.8301 -1036
v -855 18.9014 -1038
v -855 18.9735 -1040
v -855 19.0464 -1042
v -855 19.1202 -1044
v -855 19.1948 -1046
v -855 19.2702 -1048
v -855 19.3464 -1050
v -853 18.3132 -988
v -853 18.3044 -990
v -853 18.2978 -992
v -853 18.3079 -994
v -853 18.3378 -996
v -853 18.3912 -998
v -853 18.4537 -1000
v -853 18.5223 -1002
v -853 18.5964 -1004
v -853 18.6631 -1006
v -853 18.7287 -1008
v -853 18.8038 -1010
v -853 18.8732 -1012
v -853 18.9231 -1014
v -853 18.9502 -1016
v -853 18.9715 -1018
v -853 18.9904 -1020
v -853 18.9959 -1022
v -853 18.9777 -1024
v -853 18.9497 -1026
v -853 18.9196 -1028
v -853 18.8943 -1030
v -853 18.963 -1032
v -853 19.0325 -1034
v -853 19.1029 -1036
v -853 19.1742 -1038
v -853 19.2463 -1040
v -853 19.3192 -1042
v -853 19.3929 -1044
v -853 19.4674 -1046
v -853 19.5428 -1048
v -853 19.6189 -1050
v -851 18.1612 -988
v -851 18.1559 -990
v -851 18.1654 -992
v -851 18.1914 -994
v -851 18.2296 -996
v -851 18.2782 -998
v -851 18.3322 -1000
v -851 18.3971 -1002
v -851 18.4772 -1004
v -851 18.5643 -1006
v -851 18.6556 -1008
v -851 18.7542 -1010
v -851 18.8532 -1012
v -851 18.9424 -1014
v -851 19.0145 -1016
v -851 19.0776 -1018
v -851 19.1363 -1020
v -851 19.1839 -1022
v -851 19.2117 -1024
v -851 19.2286 -1026
v -851 19.2388 -1028
v -851 19.2386 -1030
v -851 19.2357 -1032
v -851 19.3052 -1034
v -851 19.3756 -1036
v -851 19.4468 -1038
v -851 19.5189 -1040
v -851 19.5918 -1042
v -851 19.6655 -1044
v -851 19.74 -1046
v -851 19.8153 -1048
v -851 19.8914 -1050
v -849 18.1995 -988
v -849 18.2504 -990
v -849 18.3021 -992
v -849 18.3545 -994
v -849 18.4076 -996
v -849 18.4616 -998
v -849 18.5163 -1000
v -849 18.5718 -1002
v -849 18.6281 -1004
v -849 18.6852 -1006
v -849 18.7431 -1008
v -849 18.8018 -1010
v -849 18.8615 -1012
v -849 18.922 -1014
v -849 19.0201 -1016
v -849 19.1244 -1018
v -849 19.2203 -1020
v -849 19.3066 -1022
v -849 19.3776 -1024
v -849 19.4354 -1026
v -849 19.4831 -1028
v -849 19.5209 -1030
v -849 19.5463 -1032
v -849 19.5777 -1034
v -849 19.6481 -1036
v -849 19.7193 -1038
v -849 19.7913 -1040
v -849 19.8642 -1042
v -849 19.9378 -1044
v -849 20.0123 -1046
v -849 20.0876 -1048
v -849 20.1636 -1050
v -847 18.4703 -988
v -847 18.5213 -990
v -847 18.5731 -992
v -847 18.6257 -994
v -847 18.679 -996
v -847 18.733 -998
v -847 18.7878 -1000
v -847 18.8434 -1002
v -847 18.8998 -1004
v -847 18.957 -1006
v -847 19.015 -1008
v -847 19.0738 -1010
v -847 19.1334 -1012
v -847 19.194 -1014
v -847 19.2556 -1016
v -847 19.3181 -1018
v -847 19.3814 -1020
v -847 19.4457 -1022
v -847 19.5451 -1024
v -847 19.6484 -1026
v -847 19.7376 -1028
v -847 19.8164 -1030
v -847 19.8859 -1032
v -847 19.9399 -1034
v -847 19.9792 -1036
v -847 20.0104 -1038
v -847 20.0635 -1040
v -847 20.1363 -1042
v -847 20.2099 -1044
v -847 20.2844 -1046
v -847 20.3596 -1048
v -847 20.4356 -1050
v -845 18.7409 -988
v -845 18.7921 -990
v -845 18.844 -992
v -845 18.8966 -994
v -845 18.9501 -996
v -845 19.0042 -998
v -845 19.0591 -1000
v -845 19.1148 -1002
v -845 19.1713 -1004
v -845 19.2286 -1006
v -845 19.2866 -1008
v -845 19.3455 -1010
v -845 19.4052 -1012
v -845 19.4659 -1014
v -845 19.5274 -1016
v -845 19.5899 -1018
v -845 19.6534 -1020
v -845 19.7177 -1022
v -845 19.7829 -1024
v -845 19.8777 -1026
v -845 20.0135 -1028
v -845 20.1362 -1030
v -845 20.2517 -1032
v -845 20.3502 -1034
v -845 20.4255 -1036
v -845 20.4864 -1038
v -845 20.5432 -1040
v -845 20.5945 -1042
v -845 20.6355 -1044
v -845 20.667 -1046
v -845 20.7 -1048
v -845 20.7392 -1050
v -843 19.0112 -988
v -843 19.0625 -990
v -843 19.1145 -992
v -843 19.1673 -994
v -843 19.2209 -996
v -843 19.2751 -998
v -843 19.3302 -1000
v -843 19.3859 -1002
v -843 19.4425 -1004
v -843 19.4998 -1006
v -843 19.558 -1008
v -843 19.6169 -1010
v -843 19.6767 -1012
v -843 19.7374 -1014
v -843 19.799 -1016
v -843 19.8616 -1018
v -843 19.925 -1020
v -843 19.9894 -1022
v -843 20.0546 -1024
v -843 20.1207 -1026
v -843 20.3055 -1028
v -843 20.475 -1030
v -843 20.6372 -1032
v -843 20.7793 -1034
v -843 20.8891 -1036
v -843 20.9775 -1038
v -843 21.0602 -1040
v -843 21.1382 -1042
v -843 21.2013 -1044
v -843 21.2439 -1046
v -843 21.2854 -1048
v -843 21.3222 -1050
v -841 19.2811 -988
v -841 19.3326 -990
v -841 19.3848 -992
v -841 19.4377 -994
v -841 19.4913 -996
v -841 19.5457 -998
v -841 19.6008 -1000
v -841 19.6567 -1002
v -841 19.7133 -1004
v -841 19.7708 -1006
v -841 19.829 -1008
v -841 19.8879 -1010
v -841 19.9478 -1012
v -841 20.0086 -1014
v -841 20.0702 -1016
v -841 20.1328 -1018
v -841 20.1963 -1020
v -841 20.2607 -1022
v -841 20.3259 -1024
v -841 20.392 -1026
v -841 20.6059 -1028
v -841 20.8161 -1030
v -841 21.0212 -1032
v -841 21.2086 -1034
v -841 21.3582 -1036
v -841 21.4743 -1038
v -841 21.583 -1040
v -841 21.6881 -1042
v -841 21.7712 -1044
v -841 21.8229 -1046
v -841 21.8724 -1048
v -841 21.9039 -1050
v -839 19.5507 -988
v -839 19.6023 -990
v -839 19.6547 -992
v -839 19.7077 -994
v -839 19.7614 -996
v -839 19.8159 -998
v -839 19.8712 -1000
v -839 19.9271 -1002
v -839 19.9839 -1004
v -839 20.0414 -1006
v -839 20.0996 -1008
v -839 20.1587 -1010
v -839 20.2186 -1012
v -839 20.2794 -1014
v -839 20.3411 -1016
v -839 20.4038 -1018
v -839 20.4673 -1020
v -839 20.5317 -1022
v -839 20.597 -1024
v -839 20.6631 -1026
v -839 20.9129 -1028
v -839 21.1598 -1030
v -839 21.4025 -1032
v -839 21.6322 -1034
v -839 21.8213 -1036
v -839 21.9635 -1038
v -839 22.0994 -1040
v -839 22.2337 -1042
v -839 22.3368 -1044
v -839 22.3928 -1046
v -839 22.4403 -1048
v -839 22.4535 -1050
v -837 19.82 -988
v -837 19.8717 -990
v -837 19.9242 -992
v -837 19.9773 -994
v -837 20.0312 -996
v -837 20.0858 -998
v -837 20.1411 -1000
v -837 20.1972 -1002
v -837 20.254 -1004
v -837 20.3116 -1006
v -837 20.37 -1008
v -837 20.4291 -1010
v -837 20.489 -1012
v -837 20.5499 -1014
v -837 20.6117 -1016
v -837 20.6744 -1018
v -837 20.7379 -1020
v -837 20.8023 -1022
v -837 20.8676 -1024
v -837 20.9338 -1026
v -837 21.225 -1028
v -837 21.5042 -1030
v -837 21.7818 -1032
v -837 22.0535 -1034
v -837 22.2767 -1036
v -837 22.439 -1038
v -837 22.5919 -1040
v -837 22.7421 -1042
v -837 22.8543 -1044
v -837 22.912 -1046
v -837 22.9614 -1048
v -837 22.9641 -1050
v -835 20.0888 -988
v -835 20.1407 -990
v -835 20.1933 -992
v -835 20.2465 -994
v -835 20.3005 -996
v -835 20.3552 -998
v -835 20.4107 -1000
v -835 20.4669 -1002
v -835 20.5238 -1004
v -835 20.5814 -1006
v -835 20.6399 -1008
v -835 20.699 -1010
v -835 20.759 -1012
v -835 20.82 -1014
v -835 20.8818 -1016
v -835 20.9445 -1018
v -835 21.0081 -1020
v -835 21.0725 -1022
v -835 21.1379 -1024
v -835 21.204 -1026
v -835 21.5405 -1028
v -835 21.8548 -1030
v -835 22.1129 -1032
v -835 22.411 -1034
v -835 22.6904 -1036
v -835 22.9029 -1038
v -835 23.066 -1040
v -835 23.2139 -1042
v -835 23.3307 -1044
v -835 23.3909 -1046
v -835 23.4371 -1048
v -835 23.4366 -1050
v -833 20.3572 -988
v -833 20.4092 -990
v -833 20.4619 -992
v -833 20.5153 -994
v -833 20.5694 -996
v -833 20.6243 -998
v -833 20.6798 -1000
v -833 20.7361 -1002
v -833 20.7931 -1004
v -833 20.8508 -1006
v -833 20.9093 -1008
v -833 20.9686 -1010
v -833 21.0286 -1012
v -833 21.0896 -1014
v -833 21.1515 -1016
v -833 21.2142 -1018
v -833 21.2778 -1020
v -833 21.3423 -1022
v -833 21.4077 -1024
v -833 21.4738 -1026
v -833 21.8456 -1028
v -833 22.1852 -1030
v -833 22.4632 -1032
v -833 22.6692 -1034
v -833 22.9971 -1036
v -833 23.2755 -1038
v -833 23.4919 -1040
v -833 23.6746 -1042
v -833 23.8143 -1044
v -833 23.8739 -1046
v -833 23.8815 -1048
v -833 23.8521 -1050
v -831 20.6252 -988
v -831 20.6773 -990
v -831 20.7302 -992
v -831 20.7837 -994
v -831 20.8379 -996
v -831 20.8929 -998
v -831 20.9485 -1000
v -831 21.0049 -1002
v -831 21.062 -1004
v -831 21.1198 -1006
v -831 21.1783 -1008
v -831 21.2377 -1010
v -831 21.2978 -1012
v -831 21.3588 -1014
v -831 21.4207 -1016
v -831 21.4835 -1018
v -831 21.5472 -1020
v -831 21.6117 -1022
v -831 21.677 -1024
v -831 21.7432 -1026
v -831 22.1474 -1028
v -831 22.5098 -1030
v -831 22.8046 -1032
v -831 22.9356 -1034
v -831 23.1228 -1036
v -831 23.4539 -1038
v -831 23.7514 -1040
v -831 24.0299 -1042
v -831 24.2535 -1044
v -831 24.3274 -1046
v -831 24.2867 -1048
v -831 24.2166 -1050
f 91 90 89
f 100 99 98
f 85 86 105
f 106 85 105
f 81 80 79
f 82 81 79
f 222 221 209
f 222 209 210
f 209 196 210
f 221 208 209
f 208 195 209
f 196 209 195
f 222 233 221
f 234 233 222
f 223 234 222
f 223 222 210
f 233 232 221
f 221 232 220
f 221 220 208
f 97 71 96
f 94 93 92
f 95 94 92
f 88 78 87
f 223 210 211
f 210 198 211
f 198 210 196
f 195 208 193
f 207 193 208
f 220 207 208
f 98 69 71
f 85 84 83
f 86 85 83
f 87 78 77
f 233 243 232
f 234 243 233
f 69 70 71
f 74 95 92
f 73 74 92
f 76 77 78
f 196 195 194
f 195 193 194
f 198 196 197
f 197 196 194
f 235 234 223
f 224 235 223
f 224 223 211
f 232 231 220
f 220 219 207
f 220 231 219
f 232 243 242
f 235 244 234
f 234 244 243
f 232 242 231
f 194 193 191
f 193 192 191
f 193 207 192
f 199 211 198
f 199 198 197
f 25 69 30
f 70 69 25
f 102 101 83
f 84 102 83
f 40 77 36
f 77 76 36
f 224 211 212
f 211 199 212
f 206 192 207
f 219 206 207
f 243 247 242
f 244 247 243
f 191 246 194
f 194 246 197
f 236 244 235
f 236 235 224
f 231 242 230
f 231 230 219
f 74 73 72
f 75 74 72
f 25 30 29
f 102 104 103
f 101 102 103
f 41 40 36
f 225 224 212
f 225 236 224
f 219 218 206
f 219 230 218
f 230 242 241
f 242 247 241
f 245 247 244
f 236 245 244
f 200 199 197
f 189 246 191
f 191 190 189
f 192 190 191
f 197 246 200
f 192 206 190
f 201 212 199
f 201 199 200
f 3 6 2
f 6 5 2
f 6 8 5
f 8 7 5
f 21 23 20
f 23 22 20
f 18 14 16
f 8 10 7
f 10 9 7
f 24 20 22
f 17 16 14
f 3 2 1
f 4 3 1
f 21 20 19
f 15 14 13
f 15 17 14
f 181 183 182
f 180 181 182
f 181 180 166
f 167 181 166
f 168 167 166
f 169 168 166
f 168 169 184
f 185 168 184
f 164 163 162
f 165 164 162
f 140 139 138
f 141 140 138
f 140 141 116
f 117 140 116
f 118 117 116
f 119 118 116
f 129 128 127
f 130 129 127
f 148 147 145
f 146 148 145
f 133 146 145
f 132 133 145
f 133 132 131
f 134 133 131
f 149 134 131
f 150 149 131
f 170 172 171
f 171 161 170
f 170 161 160
f 159 160 161
f 160 159 158
f 124 160 158
f 125 124 120
f 126 125 120
f 121 126 120
f 122 121 120
f 121 122 123
f 123 135 121
f 123 136 135
f 137 135 136
f 175 174 173
f 176 175 173
f 156 176 173
f 155 156 173
f 156 155 154
f 157 156 154
f 230 241 229
f 241 247 240
f 240 247 245
f 212 201 213
f 225 212 213
f 237 245 236
f 237 236 225
f 188 246 189
f 204 190 206
f 218 204 206
f 230 229 218
f 200 246 188
f 27 26 25
f 27 25 31
f 31 25 29
f 34 33 32
f 35 34 32
f 66 65 63
f 64 66 63
f 38 37 36
f 37 42 36
f 42 41 36
f 107 112 111
f 113 107 111
f 115 114 113
f 109 108 107
f 108 109 110
f 144 142 143
f 110 143 142
f 115 143 110
f 114 151 112
f 152 151 114
f 151 152 153
f 178 151 153
f 178 153 177
f 177 179 178
f 10 12 9
f 12 11 9
f 12 4 11
f 4 1 11
f 190 187 189
f 190 204 187
f 202 201 200
f 202 213 201
f 229 241 228
f 228 241 240
f 238 240 245
f 238 245 237
f 188 189 187
f 188 202 200
f 226 225 213
f 226 237 225
f 218 216 204
f 218 229 216
f 49 64 63
f 48 49 63
f 26 27 28
f 58 59 32
f 33 58 32
f 37 38 39
f 238 237 226
f 229 228 216
f 228 240 239
f 239 240 238
f 186 203 188
f 188 187 186
f 203 202 188
f 213 202 214
f 226 213 214
f 216 205 204
f 205 187 204
f 27 61 28
f 49 48 47
f 50 49 47
f 39 51 37
f 187 205 186
f 203 214 202
f 28 61 60
f 54 53 52
f 58 57 56
f 59 58 56
f 228 239 217
f 227 238 226
f 239 238 227
f 216 228 217
f 227 226 214
f 216 217 205
f 215 186 205
f 186 215 203
f 214 203 215
f 217 239 227
f 62 60 61
f 55 52 53
f 67 50 47
f 68 67 47
f 217 215 205
f 227 214 215
f 45 44 43
f 46 45 43
f 217 227 215
f 280 279 278
f 280 281 279
f 282 281 280
f 282 283 281
f 283 282 285
f 285 282 284
f 259 249 258
f 258 249 257
f 259 255 249
f 249 255 254
f 257 249 256
f 249 260 256
f 251 260 249
f 251 261 260
f 251 262 261
f 249 254 269
f 250 253 249
f 250 249 248
f 269 248 249
f 249 252 251
f 249 253 252
f 251 263 262
f 251 252 263
f 248 269 268
f 267 248 268
f 248 264 250
f 248 266 264
f 266 248 265
f 248 267 265
f 272 271 270
f 274 275 273
f 276 275 274
f 277 275 276
f 274 273 272
f 272 273 271
f 332 331 330
f 375 330 374
f 332 330 375
f 331 333 336
f 332 333 331
f 292 291 290
f 298 292 290
f 336 335 334
f 336 337 335
f 336 333 337
f 298 297 296
f 299 297 298
f 298 296 292
f 299 334 297
f 297 334 335
f 293 291 292
f 338 333 332
f 338 332 376
f 376 332 375
f 339 337 333
f 339 333 338
f 295 293 294
f 294 293 292
f 294 292 296
f 296 305 304
f 305 296 297
f 296 301 294
f 296 304 301
f 297 335 305
f 335 337 343
f 343 337 342
f 337 341 342
f 339 341 337
f 305 335 343
f 376 377 338
f 295 301 300
f 294 301 295
f 341 339 338
f 341 338 340
f 338 377 340
f 301 302 300
f 340 377 345
f 345 377 378
f 344 342 341
f 340 344 341
f 303 301 304
f 301 303 302
f 344 340 345
f 348 305 343
f 310 305 348
f 310 304 305
f 342 348 343
f 311 304 310
f 311 306 304
f 306 303 304
f 349 348 342
f 344 346 342
f 342 346 349
f 303 307 302
f 345 378 347
f 347 378 379
f 307 303 306
f 345 346 344
f 347 346 345
f 306 308 307
f 309 308 306
f 309 306 311
f 351 349 346
f 350 351 346
f 350 346 347
f 379 350 347
f 380 350 379
f 349 351 352
f 351 353 352
f 350 353 351
f 311 312 309
f 308 309 313
f 350 380 381
f 350 381 353
f 313 309 312
f 355 348 354
f 355 310 348
f 317 310 355
f 354 349 352
f 354 348 349
f 316 312 311
f 311 317 316
f 310 317 311
f 382 353 381
f 312 314 313
f 356 352 353
f 382 356 353
f 357 352 356
f 354 352 357
f 312 316 315
f 315 314 312
f 382 360 356
f 385 382 383
f 360 382 385
f 318 314 315
f 319 314 318
f 316 318 315
f 358 357 356
f 358 356 360
f 359 357 358
f 389 357 359
f 389 354 357
f 361 317 355
f 322 317 361
f 322 316 317
f 390 354 389
f 391 354 390
f 392 354 391
f 393 354 392
f 354 393 287
f 354 287 355
f 355 287 361
f 316 323 318
f 323 316 322
f 385 383 384
f 395 394 393
f 287 393 394
f 287 394 286
f 384 383 362
f 288 287 286
f 386 362 383
f 319 321 320
f 318 321 319
f 364 363 362
f 364 362 386
f 321 318 323
f 289 287 288
f 364 365 363
f 367 287 289
f 367 289 366
f 365 367 366
f 367 365 364
f 369 367 368
f 368 367 364
f 287 367 369
f 323 324 321
f 324 320 321
f 387 364 386
f 320 324 325
f 368 364 387
f 323 328 324
f 322 328 323
f 361 371 322
f 371 361 370
f 370 361 287
f 370 287 369
f 322 371 329
f 329 328 322
f 324 326 325
f 324 327 326
f 327 324 328
f 368 373 369
f 369 373 372
f 370 369 372
f 387 388 368
f 368 388 373
f 428 427 426
f 428 429 427
f 430 429 428
f 430 431 429
f 431 430 433
f 433 430 432
f 407 397 406
f 406 397 405
f 407 403 397
f 397 403 402
f 405 397 404
f 397 408 404
f 399 408 397
f 399 409 408
f 399 410 409
f 397 402 417
f 398 401 397
f 398 397 396
f 417 396 397
f 397 400 399
f 397 401 400
f 399 411 410
f 399 400 411
f 396 417 416
f 415 396 416
f 396 412 398
f 396 414 412
f 414 396 413
f 396 415 413
f 420 419 418
f 422 423 421
f 424 423 422
f 425 423 424
f 422 421 420
f 420 421 419
f 480 479 478
f 523 478 522
f 480 478 523
f 479 481 484
f 480 481 479
f 440 439 438
f 446 440 438
f 484 483 482
f 484 485 483
f 484 481 485
f 446 445 444
f 447 445 446
f 446 444 440
f 447 482 445
f 445 482 483
f 441 439 440
f 486 481 480
f 486 480 524
f 524 480 523
f 487 485 481
f 487 481 486
f 443 441 442
f 442 441 440
f 442 440 444
f 444 453 452
f 453 444 445
f 444 449 442
f 444 452 449
f 445 483 453
f 483 485 491
f 491 485 490
f 485 489 490
f 487 489 485
f 453 483 491
f 524 525 486
f 443 449 448
f 442 449 443
f 489 487 486
f 489 486 488
f 486 525 488
f 449 450 448
f 488 525 493
f 493 525 526
f 492 490 489
f 488 492 489
f 451 449 452
f 449 451 450
f 492 488 493
f 496 453 491
f 458 453 496
f 458 452 453
f 490 496 491
f 459 452 458
f 459 454 452
f 454 451 452
f 497 496 490
f 492 494 490
f 490 494 497
f 451 455 450
f 493 526 495
f 495 526 527
f 455 451 454
f 493 494 492
f 495 494 493
f 454 456 455
f 457 456 454
f 457 454 459
f 499 497 494
f 498 499 494
f 498 494 495
f 527 498 495
f 528 498 527
f 497 499 500
f 499 501 500
f 498 501 499
f 459 460 457
f 456 457 461
f 498 528 529
f 498 529 501
f 461 457 460
f 503 496 502
f 503 458 496
f 465 458 503
f 502 497 500
f 502 496 497
f 464 460 459
f 459 465 464
f 458 465 459
f 530 501 529
f 460 462 461
f 504 500 501
f 530 504 501
f 505 500 504
f 502 500 505
f 460 464 463
f 463 462 460
f 530 508 504
f 533 530 531
f 508 530 533
f 466 462 463
f 467 462 466
f 464 466 463
f 506 505 504
f 506 504 508
f 507 505 506
f 537 505 507
f 537 502 505
f 509 465 503
f 470 465 509
f 470 464 465
f 538 502 537
f 539 502 538
f 540 502 539
f 541 502 540
f 502 541 435
f 502 435 503
f 503 435 509
f 464 471 466
f 471 464 470
f 533 531 532
f 543 542 541
f 435 541 542
f 435 542 434
f 532 531 510
f 436 435 434
f 534 510 531
f 467 469 468
f 466 469 467
f 512 511 510
f 512 510 534
f 469 466 471
f 437 435 436
f 512 513 511
f 515 435 437
f 515 437 514
f 513 515 514
f 515 513 512
f 517 515 516
f 516 515 512
f 435 515 517
f 471 472 469
f 472 468 469
f 535 512 534
f 468 472 473
f 516 512 535
f 471 476 472
f 470 476 471
f 509 519 470
f 519 509 518
f 518 509 435
f 518 435 517
f 470 519 477
f 477 476 470
f 472 474 473
f 472 475 474
f 475 472 476
f 516 521 517
f 517 521 520
f 518 517 520
f 535 536 516
f 516 536 521
f 588 590 580
f 580 587 588
f 589 588 587
f 589 575 588
f 574 588 575
f 636 588 574
f 603 588 636
f 603 590 588
f 589 635 576
f 576 575 589
f 635 589 552
f 587 552 589
f 576 557 575
f 574 575 557
f 555 557 576
f 635 555 576
f 635 552 544
f 635 544 548
f 548 555 635
f 580 583 587
f 583 552 587
f 553 544 552
f 552 583 553
f 579 580 590
f 590 603 579
f 574 637 636
f 603 636 640
f 640 636 637
f 574 557 556
f 556 591 574
f 574 591 638
f 574 638 637
f 580 579 573
f 583 580 573
f 603 612 604
f 603 604 579
f 640 612 603
f 555 556 557
f 579 599 573
f 604 602 579
f 602 599 579
f 556 555 554
f 554 555 558
f 548 558 555
f 637 638 627
f 640 637 627
f 640 627 612
f 548 544 545
f 546 545 544
f 544 549 546
f 553 549 544
f 612 625 604
f 627 626 612
f 612 626 625
f 604 611 602
f 604 624 611
f 604 625 624
f 558 548 545
f 595 591 594
f 556 577 591
f 591 577 594
f 638 591 639
f 591 595 639
f 639 627 638
f 563 556 554
f 563 577 556
f 599 602 598
f 598 602 609
f 602 611 609
f 551 583 573
f 549 583 551
f 553 583 549
f 611 610 609
f 611 624 610
f 547 545 546
f 545 547 629
f 545 629 558
f 624 625 632
f 625 633 632
f 625 626 633
f 619 618 627
f 627 618 626
f 627 639 619
f 558 560 554
f 554 560 563
f 564 558 629
f 564 559 558
f 560 558 559
f 626 618 616
f 623 610 624
f 624 622 623
f 624 632 622
f 563 578 577
f 594 577 578
f 598 609 608
f 608 609 610
f 610 623 608
f 563 560 562
f 562 578 563
f 599 598 586
f 598 601 586
f 608 601 598
f 599 586 573
f 546 631 547
f 631 630 547
f 629 547 630
f 628 622 632
f 633 628 632
f 633 626 628
f 626 616 628
f 619 639 595
f 573 572 551
f 573 581 572
f 585 581 573
f 586 585 573
f 629 630 564
f 561 560 559
f 561 562 560
f 571 551 572
f 550 546 549
f 550 551 571
f 551 550 549
f 617 623 622
f 623 617 621
f 623 621 608
f 546 550 568
f 631 546 568
f 565 564 631
f 564 565 559
f 631 564 630
f 559 565 561
f 601 608 621
f 628 617 622
f 616 618 613
f 619 613 618
f 617 628 616
f 617 616 615
f 615 616 613
f 578 592 594
f 592 578 562
f 571 634 550
f 569 550 634
f 568 550 569
f 619 595 596
f 619 596 620
f 620 613 619
f 594 596 595
f 582 572 581
f 572 582 571
f 634 571 582
f 592 596 594
f 631 568 565
f 617 615 614
f 617 614 621
f 566 561 565
f 566 567 561
f 562 561 567
f 562 593 592
f 567 593 562
f 614 600 621
f 601 621 600
f 565 568 566
f 600 586 601
f 620 607 613
f 614 613 607
f 614 615 613
f 568 569 566
f 620 596 597
f 605 620 597
f 620 605 607
f 570 634 582
f 634 570 569
f 585 586 600
f 584 581 585
f 582 581 584
f 596 592 597
f 582 584 570
f 585 600 584
f 569 570 566
f 567 566 570
f 614 607 600
f 593 567 592
f 605 606 607
f 597 606 605
f 597 600 606
f 597 592 600
f 600 607 606
f 584 600 592
f 584 567 570
f 584 592 567
f 647 646 645
f 646 642 645
f 646 647 648
f 647 650 648
f 649 650 647
f 661 646 663
f 661 641 646
f 663 646 648
f 646 641 642
f 644 642 643
f 643 642 641
f 663 662 661
f 660 641 661
f 661 658 660
f 662 658 661
f 660 643 641
f 684 672 673
f 672 684 686
f 675 686 684
f 664 675 684
f 664 684 662
f 662 684 658
f 658 684 673
f 663 664 662
f 667 664 663
f 663 650 667
f 663 648 650
f 660 658 659
f 659 658 657
f 658 671 657
f 671 658 673
f 675 664 665
f 665 664 667
f 673 672 671
f 659 643 660
f 676 675 674
f 676 677 679
f 677 676 674
f 675 665 674
f 680 668 685
f 678 668 680
f 680 679 678
f 679 677 678
f 682 655 653
f 655 682 681
f 651 650 649
f 685 669 683
f 685 668 669
f 674 665 666
f 667 666 665
f 678 677 674
f 683 669 681
f 652 667 650
f 670 666 667
f 670 667 652
f 678 674 666
f 668 678 666
f 681 669 655
f 651 652 650
f 666 669 668
f 670 669 666
f 669 656 655
f 670 656 669
f 670 652 656
f 654 655 656
f 655 654 653
f 654 652 651
f 654 656 652
f 693 692 691
f 692 688 691
f 692 693 694
f 693 696 694
f 695 696 693
f 707 692 709
f 707 687 692
f 709 692 694
f 692 687 688
f 690 688 689
f 689 688 687
f 709 708 707
f 706 687 707
f 707 704 706
f 708 704 707
f 706 689 687
f 730 718 719
f 718 730 732
f 721 732 730
f 710 721 730
f 710 730 708
f 708 730 704
f 704 730 719
f 709 710 708
f 713 710 709
f 709 696 713
f 709 694 696
f 706 704 705
f 705 704 703
f 704 717 703
f 717 704 719
f 721 710 711
f 711 710 713
f 719 718 717
f 705 689 706
f 722 721 720
f 722 723 725
f 723 722 720
f 721 711 720
f 726 714 731
f 724 714 726
f 726 725 724
f 725 723 724
f 728 701 699
f 701 728 727
f 697 696 695
f 731 715 729
f 731 714 715
f 720 711 712
f 713 712 711
f 724 723 720
f 729 715 727
f 698 713 696
f 716 712 713
f 716 713 698
f 724 720 712
f 714 724 712
f 727 715 701
f 697 698 696
f 712 715 714
f 716 715 712
f 715 702 701
f 716 702 715
f 716 698 702
f 700 701 702
f 701 700 699
f 700 698 697
f 700 702 698
f 766 734 733
f 733 765 766
f 798 766 765
f 765 797 798
f 830 798 797
f 797 829 830
f 862 830 829
f 829 861 862
f 894 862 861
f 861 893 894
f 926 894 893
f 893 925 926
f 958 926 925
f 925 957 958
f 990 958 957
f 957 989 990
f 1022 990 989
f 989 1021 1022
f 1054 1022 1021
f 1021 1053 1054
f 1086 1054 1053
f 1053 1085 1086
f 1118 1086 1085
f 1085 1117 1118
f 1150 1118 1117
f 1117 1149 1150
f 1182 1150 1149
f 1149 1181 1182
f 1214 1182 1181
f 1181 1213 1214
f 1246 1214 1213
f 1213 1245 1246
f 1278 1246 1245
f 1245 1277 1278
f 1310 1278 1277
f 1277 1309 1310
f 1342 1310 1309
f 1309 1341 1342
f 1374 1342 1341
f 1341 1373 1374
f 1406 1374 1373
f 1373 1405 1406
f 1438 1406 1405
f 1405 1437 1438
f 1470 1438 1437
f 1437 1469 1470
f 1502 1470 1469
f 1469 1501 1502
f 1534 1502 1501
f 1501 1533 1534
f 1566 1534 1533
f 1533 1565 1566
f 1598 1566 1565
f 1565 1597 1598
f 1630 1598 1597
f 1597 1629 1630
f 1662 1630 1629
f 1629 1661 1662
f 1694 1662 1661
f 1661 1693 1694
f 1726 1694 1693
f 1693 1725 1726
f 767 735 734
f 734 766 767
f 799 767 766
f 766 798 799
f 831 799 798
f 798 830 831
f 863 831 830
f 830 862 863
f 895 863 862
f 862 894 895
f 927 895 894
f 894 926 927
f 959 927 926
f 926 958 959
f 991 959 958
f 958 990 991
f 1023 991 990
f 990 1022 1023
f 1055 1023 1022
f 1022 1054 1055
f 1087 1055 1054
f 1054 1086 1087
f 1119 1087 1086
f 1086 1118 1119
f 1151 1119 1118
f 1118 1150 1151
f 1183 1151 1150
f 1150 1182 1183
f 1215 1183 1182
f 1182 1214 1215
f 1247 1215 1214
f 1214 1246 1247
f 1279 1247 1246
f 1246 1278 1279
f 1311 1279 1278
f 1278 1310 1311
f 1343 1311 1310
f 1310 1342 1343
f 1375 1343 1342
f 1342 1374 1375
f 1407 1375 1374
f 1374 1406 1407
f 1439 1407 1406
f 1406 1438 1439
f 1471 1439 1438
f 1438 1470 1471
f 1503 1471 1470
f 1470 1502 1503
f 1535 1503 1502
f 1502 1534 1535
f 1567 1535 1534
f 1534 1566 1567
f 1599 1567 1566
f 1566 1598 1599
f 1631 1599 1598
f 1598 1630 1631
f 1663 1631 1630
f 1630 1662 1663
f 1695 1663 1662
f 1662 1694 1695
f 1727 1695 1694
f 1694 1726 1727
f 768 736 735
f 735 767 768
f 800 768 767
f 767 799 800
f 832 800 799
f 799 831 832
f 864 832 831
f 831 863 864
f 896 864 863
f 863 895 896
f 928 896 895
f 895 927 928
f 960 928 927
f 927 959 960
f 992 960 959
f 959 991 992
f 1024 992 991
f 991 1023 1024
f 1056 1024 1023
f 1023 1055 1056
f 1088 1056 1055
f 1055 1087 1088
f 1120 1088 1087
f 1087 1119 1120
f 1152 1120 1119
f 1119 1151 1152
f 1184 1152 1151
f 1151 1183 1184
f 1216 1184 1183
f 1183 1215 1216
f 1248 1216 1215
f 1215 1247 1248
f 1280 1248 1247
f 1247 1279 1280
f 1312 1280 1279
f 1279 1311 1312
f 1344 1312 1311
f 1311 1343 1344
f 1376 1344 1343
f 1343 1375 1376
f 1408 1376 1375
f 1375 1407 1408
f 1440 1408 1407
f 1407 1439 1440
f 1472 1440 1439
f 1439 1471 1472
f 1504 1472 1471
f 1471 1503 1504
f 1536 1504 1503
f 1503 1535 1536
f 1568 1536 1535
f 1535 1567 1568
f 1600 1568 1567
f 1567 1599 1600
f 1632 1600 1599
f 1599 1631 1632
f 1664 1632 1631
f 1631 1663 1664
f 1696 1664 1663
f 1663 1695 1696
f 1728 1696 1695
f 1695 1727 1728
f 769 737 736
f 736 768 769
f 801 769 768
f 768 800 801
f 833 801 800
f 800 832 833
f 865 833 832
f 832 864 865
f 897 865 864
f 864 896 897
f 929 897 896
f 896 928 929
f 961 929 928
f 928 960 961
f 993 961 960
f 960 992 993
f 1025 993 992
f 992 1024 1025
f 1057 1025 1024
f 1024 1056 1057
f 1089 1057 1056
f 1056 1088 1089
f 1121 1089 1088
f 1088 1120 1121
f 1153 1121 1120
f 1120 1152 1153
f 1185 1153 1152
f 1152 1184 1185
f 1217 1185 1184
f 1184 1216 1217
f 1249 1217 1216
f 1216 1248 1249
f 1281 1249 1248
f 1248 1280 1281
f 1313 1281 1280
f 1280 1312 1313
f 1345 1313 1312
f 1312 1344 1345
f 1377 1345 1344
f 1344 1376 1377
f 1409 1377 1376
f 1376 1408 1409
f 1441 1409 1408
f 1408 1440 1441
f 1473 1441 1440
f 1440 1472 1473
f 1505 1473 1472
f 1472 1504 1505
f 1537 1505 1504
f 1504 1536 1537
f 1569 1537 1536
f 1536 1568 1569
f 1601 1569 1568
f 1568 1600 1601
f 1633 1601 1600
f 1600 1632 1633
f 1665 1633 1632
f 1632 1664 1665
f 1697 1665 1664
f 1664 1696 1697
f 1729 1697 1696
f 1696 1728 1729
f 770 738 737
f 737 769 770
f 802 770 769
f 769 801 802
f 834 802 801
f 801 833 834
f 866 834 833
f 833 865 866
f 898 866 865
f 865 897 898
f 930 898 897
f 897 929 930
f 962 930 929
f 929 961 962
f 994 962 961
f 961 993 994
f 1026 994 993
f 993 1025 1026
f 1058 1026 1025
f 1025 1057 1058
f 1090 1058 1057
f 1057 1089 1090
f 1122 1090 1089
f 1089 1121 1122
f 1154 1122 1121
f 1121 1153 1154
f 1186 1154 1153
f 1153 1185 1186
f 1218 1186 1185
f 1185 1217 1218
f 1250 1218 1217
f 1217 1249 1250
f 1282 1250 1249
f 1249 1281 1282
f 1314 1282 1281
f 1281 1313 1314
f 1346 1314 1313
f 1313 1345 1346
f 1378 1346 1345
f 1345 1377 1378
f 1410 1378 1377
f 1377 1409 1410
f 1442 1410 1409
f 1409 1441 1442
f 1474 1442 1441
f 1441 1473 1474
f 1506 1474 1473
f 1473 1505 1506
f 1538 1506 1505
f 1505 1537 1538
f 1570 1538 1537
f 1537 1569 1570
f 1602 1570 1569
f 1569 1601 1602
f 1634 1602 1601
f 1601 1633 1634
f 1666 1634 1633
f 1633 1665 1666
f 1698 1666 1665
f 1665 1697 1698
f 1730 1698 1697
f 1697 1729 1730
f 771 739 738
f 738 770 771
f 803 771 770
f 770 802 803
f 835 803 802
f 802 834 835
f 867 835 834
f 834 866 867
f 899 867 866
f 866 898 899
f 931 899 898
f 898 930 931
f 963 931 930
f 930 962 963
f 995 963 962
f 962 994 995
f 1027 995 994
f 994 1026 1027
f 1059 1027 1026
f 1026 1058 1059
f 1091 1059 1058
f 1058 1090 1091
f 1123 1091 1090
f 1090 1122 1123
f 1155 1123 1122
f 1122 1154 1155
f 1187 1155 1154
f 1154 1186 1187
f 1219 1187 1186
f 1186 1218 1219
f 1251 1219 1218
f 1218 1250 1251
f 1283 1251 1250
f 1250 1282 1283
f 1315 1283 1282
f 1282 1314 1315
f 1347 1315 1314
f 1314 1346 1347
f 1379 1347 1346
f 1346 1378 1379
f 1411 1379 1378
f 1378 1410 1411
f 1443 1411 1410
f 1410 1442 1443
f 1475 1443 1442
f 1442 1474 1475
f 1507 1475 1474
f 1474 1506 1507
f 1539 1507 1506
f 1506 1538 1539
f 1571 1539 1538
f 1538 1570 1571
f 1603 1571 1570
f 1570 1602 1603
f 1635 1603 1602
f 1602 1634 1635
f 1667 1635 1634
f 1634 1666 1667
f 1699 1667 1666
f 1666 1698 1699
f 1731 1699 1698
f 1698 1730 1731
f 772 740 739
f 739 771 772
f 804 772 771
f 771 803 804
f 836 804 803
f 803 835 836
f 868 836 835
f 835 867 868
f 900 868 867
f 867 899 900
f 932 900 899
f 899 931 932
f 964 932 931
f 931 963 964
f 996 964 963
f 963 995 996
f 1028 996 995
f 995 1027 1028
f 1060 1028 1027
f 1027 1059 1060
f 1092 1060 1059
f 1059 1091 1092
f 1124 1092 1091
f 1091 1123 1124
f 1156 1124 1123
f 1123 1155 1156
f 1188 1156 1155
f 1155 1187 1188
f 1220 1188 1187
f 1187 1219 1220
f 1252 1220 1219
f 1219 1251 1252
f 1284 1252 1251
f 1251 1283 1284
f 1316 1284 1283
f 1283 1315 1316
f 1348 1316 1315
f 1315 1347 1348
f 1380 1348 1347
f 1347 1379 1380
f 1412 1380 1379
f 1379 1411 1412
f 1444 1412 1411
f 1411 1443 1444
f 1476 1444 1443
f 1443 1475 1476
f 1508 1476 1475
f 1475 1507 1508
f 1540 1508 1507
f 1507 1539 1540
f 1572 1540 1539
f 1539 1571 1572
f 1604 1572 1571
f 1571 1603 1604
f 1636 1604 1603
f 1603 1635 1636
f 1668 1636 1635
f 1635 1667 1668
f 1700 1668 1667
f 1667 1699 1700
f 1732 1700 1699
f 1699 1731 1732
f 773 741 740
f 740 772 773
f 805 773 772
f 772 804 805
f 837 805 804
f 804 836 837
f 869 837 836
f 836 868 869
f 901 869 868
f 868 900 901
f 933 901 900
f 900 932 933
f 965 933 932
f 932 964 965
f 997 965 964
f 964 996 997
f 1029 997 996
f 996 1028 1029
f 1061 1029 1028
f 1028 1060 1061
f 1093 1061 1060
f 1060 1092 1093
f 1125 1093 1092
f 1092 1124 1125
f 1157 1125 1124
f 1124 1156 1157
f 1189 1157 1156
f 1156 1188 1189
f 1221 1189 1188
f 1188 1220 1221
f 1253 1221 1220
f 1220 1252 1253
f 1285 1253 1252
f 1252 1284 1285
f 1317 1285 1284
f 1284 1316 1317
f 1349 1317 1316
f 1316 1348 1349
f 1381 1349 1348
f 1348 1380 1381
f 1413 1381 1380
f 1380 1412 1413
f 1445 1413 1412
f 1412 1444 1445
f 1477 1445 1444
f 1444 1476 1477
f 1509 1477 1476
f 1476 1508 1509
f 1541 1509 1508
f 1508 1540 1541
f 1573 1541 1540
f 1540 1572 1573
f 1605 1573 1572
f 1572 1604 1605
f 1637 1605 1604
f 1604 1636 1637
f 1669 1637 1636
f 1636 1668 1669
f 1701 1669 1668
f 1668 1700 1701
f 1733 1701 1700
f 1700 1732 1733
f 774 742 741
f 741 773 774
f 806 774 773
f 773 805 806
f 838 806 805
f 805 837 838
f 870 838 837
f 837 869 870
f 902 870 869
f 869 901 902
f 934 902 901
f 901 933 934
f 966 934 933
f 933 965 966
f 998 966 965
f 965 997 998
f 1030 998 997
f 997 1029 1030
f 1062 1030 1029
f 1029 1061 1062
f 1094 1062 1061
f 1061 1093 1094
f 1126 1094 1093
f 1093 1125 1126
f 1158 1126 1125
f 1125 1157 1158
f 1190 1158 1157
f 1157 1189 1190
f 1222 1190 1189
f 1189 1221 1222
f 1254 1222 1221
f 1221 1253 1254
f 1286 1254 1253
f 1253 1285 1286
f 1318 1286 1285
f 1285 1317 1318
f 1350 1318 1317
f 1317 1349 1350
f 1382 1350 1349
f 1349 1381 1382
f 1414 1382 1381
f 1381 1413 1414
f 1446 1414 1413
f 1413 1445 1446
f 1478 1446 1445
f 1445 1477 1478
f 1510 1478 1477
f 1477 1509 1510
f 1542 1510 1509
f 1509 1541 1542
f 1574 1542 1541
f 1541 1573 1574
f 1606 1574 1573
f 1573 1605 1606
f 1638 1606 1605
f 1605 1637 1638
f 1670 1638 1637
f 1637 1669 1670
f 1702 1670 1669
f 1669 1701 1702
f 1734 1702 1701
f 1701 1733 1734
f 775 743 742
f 742 774 775
f 807 775 774
f 774 806 807
f 839 807 806
f 806 838 839
f 871 839 838
f 838 870 871
f 903 871 870
f 870 902 903
f 935 903 902
f 902 934 935
f 967 935 934
f 934 966 967
f 999 967 966
f 966 998 999
f 1031 999 998
f 998 1030 1031
f 1063 1031 1030
f 1030 1062 1063
f 1095 1063 1062
f 1062 1094 1095
f 1127 1095 1094
f 1094 1126 1127
f 1159 1127 1126
f 1126 1158 1159
f 1191 1159 1158
f 1158 1190 1191
f 1223 1191 1190
f 1190 1222 1223
f 1255 1223 1222
f 1222 1254 1255
f 1287 1255 1254
f 1254 1286 1287
f 1319 1287 1286
f 1286 1318 1319
f 1351 1319 1318
f 1318 1350 1351
f 1383 1351 1350
f 1350 1382 1383
f 1415 1383 1382
f 1382 1414 1415
f 1447 1415 1414
f 1414 1446 1447
f 1479 1447 1446
f 1446 1478 1479
f 1511 1479 1478
f 1478 1510 1511
f 1543 1511 1510
f 1510 1542 1543
f 1575 1543 1542
f 1542 1574 1575
f 1607 1575 1574
f 1574 1606 1607
f 1639 1607 1606
f 1606 1638 1639
f 1671 1639 1638
f 1638 1670 1671
f 1703 1671 1670
f 1670 1702 1703
f 1735 1703 1702
f 1702 1734 1735
f 776 744 743
f 743 775 776
f 808 776 775
f 775 807 808
f 840 808 807
f 807 839 840
f 872 840 839
f 839 871 872
f 904 872 871
f 871 903 904
f 936 904 903
f 903 935 936
f 968 936 935
f 935 967 968
f 1000 968 967
f 967 999 1000
f 1032 1000 999
f 999 1031 1032
f 1064 1032 1031
f 1031 1063 1064
f 1096 1064 1063
f 1063 1095 1096
f 1128 1096 1095
f 1095 1127 1128
f 1160 1128 1127
f 1127 1159 1160
f 1192 1160 1159
f 1159 1191 1192
f 1224 1192 1191
f 1191 1223 1224
f 1256 1224 1223
f 1223 1255 1256
f 1288 1256 1255
f 1255 1287 1288
f 1320 1288 1287
f 1287 1319 1320
f 1352 1320 1319
f 1319 1351 1352
f 1384 1352 1351
f 1351 1383 1384
f 1416 1384 1383
f 1383 1415 1416
f 1448 1416 1415
f 1415 1447 1448
f 1480 1448 1447
f 1447 1479 1480
f 1512 1480 1479
f 1479 1511 1512
f 1544 1512 1511
f 1511 1543 1544
f 1576 1544 1543
f 1543 1575 1576
f 1608 1576 1575
f 1575 1607 1608
f 1640 1608 1607
f 1607 1639 1640
f 1672 1640 1639
f 1639 1671 1672
f 1704 1672 1671
f 1671 1703 1704
f 1736 1704 1703
f 1703 1735 1736
f 777 745 744
f 744 776 777
f 809 777 776
f 776 808 809
f 841 809 808
f 808 840 841
f 873 841 840
f 840 872 873
f 905 873 872
f 872 904 905
f 937 905 904
f 904 936 937
f 969 937 936
f 936 968 969
f 1001 969 968
f 968 1000 1001
f 1033 1001 1000
f 1000 1032 1033
f 1065 1033 1032
f 1032 1064 1065
f 1097 1065 1064
f 1064 1096 1097
f 1129 1097 1096
f 1096 1128 1129
f 1161 1129 1128
f 1128 1160 1161
f 1193 1161 1160
f 1160 1192 1193
f 1225 1193 1192
f 1192 1224 1225
f 1257 1225 1224
f 1224 1256 1257
f 1289 1257 1256
f 1256 1288 1289
f 1321 1289 1288
f 1288 1320 1321
f 1353 1321 1320
f 1320 1352 1353
f 1385 1353 1352
f 1352 1384 1385
f 1417 1385 1384
f 1384 1416 1417
f 1449 1417 1416
f 1416 1448 1449
f 1481 1449 1448
f 1448 1480 1481
f 1513 1481 1480
f 1480 1512 1513
f 1545 1513 1512
f 1512 1544 1545
f 1577 1545 1544
f 1544 1576 1577
f 1609 1577 1576
f 1576 1608 1609
f 1641 1609 1608
f 1608 1640 1641
f 1673 1641 1640
f 1640 1672 1673
f 1705 1673 1672
f 1672 1704 1705
f 1737 1705 1704
f 1704 1736 1737
f 778 746 745
f 745 777 778
f 810 778 777
f 777 809 810
f 842 810 809
f 809 841 842
f 874 842 841
f 841 873 874
f 906 874 873
f 873 905 906
f 938 906 905
f 905 937 938
f 970 938 937
f 937 969 970
f 1002 970 969
f 969 1001 1002
f 1034 1002 1001
f 1001 1033 1034
f 1066 1034 1033
f 1033 1065 1066
f 1098 1066 1065
f 1065 1097 1098
f 1130 1098 1097
f 1097 1129 1130
f 1162 1130 1129
f 1129 1161 1162
f 1194 1162 1161
f 1161 1193 1194
f 1226 1194 1193
f 1193 1225 1226
f 1258 1226 1225
f 1225 1257 1258
f 1290 1258 1257
f 1257 1289 1290
f 1322 1290 1289
f 1289 1321 1322
f 1354 1322 1321
f 1321 1353 1354
f 1386 1354 1353
f 1353 1385 1386
f 1418 1386 1385
f 1385 1417 1418
f 1450 1418 1417
f 1417 1449 1450
f 1482 1450 1449
f 1449 1481 1482
f 1514 1482 1481
f 1481 1513 1514
f 1546 1514 1513
f 1513 1545 1546
f 1578 1546 1545
f 1545 1577 1578
f 1610 1578 1577
f 1577 1609 1610
f 1642 1610 1609
f 1609 1641 1642
f 1674 1642 1641
f 1641 1673 1674
f 1706 1674 1673
f 1673 1705 1706
f 1738 1706 1705
f 1705 1737 1738
f 779 747 746
f 746 778 779
f 811 779 778
f 778 810 811
f 843 811 810
f 810 842 843
f 875 843 842
f 842 874 875
f 907 875 874
f 874 906 907
f 939 907 906
f 906 938 939
f 971 939 938
f 938 970 971
f 1003 971 970
f 970 1002 1003
f 1035 1003 1002
f 1002 1034 1035
f 1067 1035 1034
f 1034 1066 1067
f 1099 1067 1066
f 1066 1098 1099
f 1131 1099 1098
f 1098 1130 1131
f 1163 1131 1130
f 1130 1162 1163
f 1195 1163 1162
f 1162 1194 1195
f 1227 1195 1194
f 1194 1226 1227
f 1259 1227 1226
f 1226 1258 1259
f 1291 1259 1258
f 1258 1290 1291
f 1323 1291 1290
f 1290 1322 1323
f 1355 1323 1322
f 1322 1354 1355
f 1387 1355 1354
f 1354 1386 1387
f 1419 1387 1386
f 1386 1418 1419
f 1451 1419 1418
f 1418 1450 1451
f 1483 1451 1450
f 1450 1482 1483
f 1515 1483 1482
f 1482 1514 1515
f 1547 1515 1514
f 1514 1546 1547
f 1579 1547 1546
f 1546 1578 1579
f 1611 1579 1578
f 1578 1610 1611
f 1643 1611 1610
f 1610 1642 1643
f 1675 1643 1642
f 1642 1674 1675
f 1707 1675 1674
f 1674 1706 1707
f 1739 1707 1706
f 1706 1738 1739
f 780 748 747
f 747 779 780
f 812 780 779
f 779 811 812
f 844 812 811
f 811 843 844
f 876 844 843
f 843 875 876
f 908 876 875
f 875 907 908
f 940 908 907
f 907 939 940
f 972 940 939
f 939 971 972
f 1004 972 971
f 971 1003 1004
f 1036 1004 1003
f 1003 1035 1036
f 1068 1036 1035
f 1035 1067 1068
f 1100 1068 1067
f 1067 1099 1100
f 1132 1100 1099
f 1099 1131 1132
f 1164 1132 1131
f 1131 1163 1164
f 1196 1164 1163
f 1163 1195 1196
f 1228 1196 1195
f 1195 1227 1228
f 1260 1228 1227
f 1227 1259 1260
f 1292 1260 1259
f 1259 1291 1292
f 1324 1292 1291
f 1291 1323 1324
f 1356 1324 1323
f 1323 1355 1356
f 1388 1356 1355
f 1355 1387 1388
f 1420 1388 1387
f 1387 1419 1420
f 1452 1420 1419
f 1419 1451 1452
f 1484 1452 1451
f 1451 1483 1484
f 1516 1484 1483
f 1483 1515 1516
f 1548 1516 1515
f 1515 1547 1548
f 1580 1548 1547
f 1547 1579 1580
f 1612 1580 1579
f 1579 1611 1612
f 1644 1612 1611
f 1611 1643 1644
f 1676 1644 1643
f 1643 1675 1676
f 1708 1676 1675
f 1675 1707 1708
f 1740 1708 1707
f 1707 1739 1740
f 781 749 748
f 748 780 781
f 813 781 780
f 780 812 813
f 845 813 812
f 812 844 845
f 877 845 844
f 844 876 877
f 909 877 876
f 876 908 909
f 941 909 908
f 908 940 941
f 973 941 940
f 940 972 973
f 1005 973 972
f 972 1004 1005
f 1037 1005 1004
f 1004 1036 1037
f 1069 1037 1036
f 1036 1068 1069
f 1101 1069 1068
f 1068 1100 1101
f 1133 1101 1100
f 1100 1132 1133
f 1165 1133 1132
f 1132 1164 1165
f 1197 1165 1164
f 1164 1196 1197
f 1229 1197 1196
f 1196 1228 1229
f 1261 1229 1228
f 1228 1260 1261
f 1293 1261 1260
f 1260 1292 1293
f 1325 1293 1292
f 1292 1324 1325
f 1357 1325 1324
f 1324 1356 1357
f 1389 1357 1356
f 1356 1388 1389
f 1421 1389 1388
f 1388 1420 1421
f 1453 1421 1420
f 1420 1452 1453
f 1485 1453 1452
f 1452 1484 1485
f 1517 1485 1484
f 1484 1516 1517
f 1549 1517 1516
f 1516 1548 1549
f 1581 1549 1548
f 1548 1580 1581
f 1613 1581 1580
f 1580 1612 1613
f 1645 1613 1612
f 1612 1644 1645
f 1677 1645 1644
f 1644 1676 1677
f 1709 1677 1676
f 1676 1708 1709
f 1741 1709 1708
f 1708 1740 1741
f 782 750 749
f 749 781 782
f 814 782 781
f 781 813 814
f 846 814 813
f 813 845 846
f 878 846 845
f 845 877 878
f 910 878 877
f 877 909 910
f 942 910 909
f 909 941 942
f 974 942 941
f 941 973 974
f 1006 974 973
f 973 1005 1006
f 1038 1006 1005
f 1005 1037 1038
f 1070 1038 1037
f 1037 1069 1070
f 1102 1070 1069
f 1069 1101 1102
f 1134 1102 1101
f 1101 1133 1134
f 1166 1134 1133
f 1133 1165 1166
f 1198 1166 1165
f 1165 1197 1198
f 1230 1198 1197
f 1197 1229 1230
f 1262 1230 1229
f 1229 1261 1262
f 1294 1262 1261
f 1261 1293 1294
f 1326 1294 1293
f 1293 1325 1326
f 1358 1326 1325
f 1325 1357 1358
f 1390 1358 1357
f 1357 1389 1390
f 1422 1390 1389
f 1389 1421 1422
f 1454 1422 1421
f 1421 1453 1454
f 1486 1454 1453
f 1453 1485 1486
f 1518 1486 1485
f 1485 1517 1518
f 1550 1518 1517
f 1517 1549 1550
f 1582 1550 1549
f 1549 1581 1582
f 1614 1582 1581
f 1581 1613 1614
f 1646 1614 1613
f 1613 1645 1646
f 1678 1646 1645
f 1645 1677 1678
f 1710 1678 1677
f 1677 1709 1710
f 1742 1710 1709
f 1709 1741 1742
f 783 751 750
f 750 782 783
f 815 783 782
f 782 814 815
f 847 815 814
f 814 846 847
f 879 847 846
f 846 878 879
f 911 879 878
f 878 910 911
f 943 911 910
f 910 942 943
f 975 943 942
f 942 974 975
f 1007 975 974
f 974 1006 1007
f 1039 1007 1006
f 1006 1038 1039
f 1071 1039 1038
f 1038 1070 1071
f 1103 1071 1070
f 1070 1102 1103
f 1135 1103 1102
f 1102 1134 1135
f 1167 1135 1134
f 1134 1166 1167
f 1199 1167 1166
f 1166 1198 1199
f 1231 1199 1198
f 1198 1230 1231
f 1263 1231 1230
f 1230 1262 1263
f 1295 1263 1262
f 1262 1294 1295
f 1327 1295 1294
f 1294 1326 1327
f 1359 1327 1326
f 1326 1358 1359
f 1391 1359 1358
f 1358 1390 1391
f 1423 1391 1390
f 1390 1422 1423
f 1455 1423 1422
f 1422 1454 1455
f 1487 1455 1454
f 1454 1486 1487
f 1519 1487 1486
f 1486 1518 1519
f 1551 1519 1518
f 1518 1550 1551
f 1583 1551 1550
f 1550 1582 1583
f 1615 1583 1582
f 1582 1614 1615
f 1647 1615 1614
f 1614 1646 1647
f 1679 1647 1646
f 1646 1678 1679
f 1711 1679 1678
f 1678 1710 1711
f 1743 1711 1710
f 1710 1742 1743
f 784 752 751
f 751 783 784
f 816 784 783
f 783 815 816
f 848 816 815
f 815 847 848
f 880 848 847
f 847 879 880
f 912 880 879
f 879 911 912
f 944 912 911
f 911 943 944
f 976 944 943
f 943 975 976
f 1008 976 975
f 975 1007 1008
f 1040 1008 1007
f 1007 1039 1040
f 1072 1040 1039
f 1039 1071 1072
f 1104 1072 1071
f 1071 1103 1104
f 1136 1104 1103
f 1103 1135 1136
f 1168 1136 1135
f 1135 1167 1168
f 1200 1168 1167
f 1167 1199 1200
f 1232 1200 1199
f 1199 1231 1232
f 1264 1232 1231
f 1231 1263 1264
f 1296 1264 1263
f 1263 1295 1296
f 1328 1296 1295
f 1295 1327 1328
f 1360 1328 1327
f 1327 1359 1360
f 1392 1360 1359
f 1359 1391 1392
f 1424 1392 1391
f 1391 1423 1424
f 1456 1424 1423
f 1423 1455 1456
f 1488 1456 1455
f 1455 1487 1488
f 1520 1488 1487
f 1487 1519 1520
f 1552 1520 1519
f 1519 1551 1552
f 1584 1552 1551
f 1551 1583 1584
f 1616 1584 1583
f 1583 1615 1616
f 1648 1616 1615
f 1615 1647 1648
f 1680 1648 1647
f 1647 1679 1680
f 1712 1680 1679
f 1679 1711 1712
f 1744 1712 1711
f 1711 1743 1744
f 785 753 752
f 752 784 785
f 817 785 784
f 784 816 817
f 849 817 816
f 816 848 849
f 881 849 848
f 848 880 881
f 913 881 880
f 880 912 913
f 945 913 912
f 912 944 945
f 977 945 944
f 944 976 977
f 1009 977 976
f 976 1008 1009
f 1041 1009 1008
f 1008 1040 1041
f 1073 1041 1040
f 1040 1072 1073
f 1105 1073 1072
f 1072 1104 1105
f 1137 1105 1104
f 1104 1136 1137
f 1169 1137 1136
f 1136 1168 1169
f 1201 1169 1168
f 1168 1200 1201
f 1233 1201 1200
f 1200 1232 1233
f 1265 1233 1232
f 1232 1264 1265
f 1297 1265 1264
f 1264 1296 1297
f 1329 1297 1296
f 1296 1328 1329
f 1361 1329 1328
f 1328 1360 1361
f 1393 1361 1360
f 1360 1392 1393
f 1425 1393 1392
f 1392 1424 1425
f 1457 1425 1424
f 1424 1456 1457
f 1489 1457 1456
f 1456 1488 1489
f 1521 1489 1488
f 1488 1520 1521
f 1553 1521 1520
f 1520 1552 1553
f 1585 1553 1552
f 1552 1584 1585
f 1617 1585 1584
f 1584 1616 1617
f 1649 1617 1616
f 1616 1648 1649
f 1681 1649 1648
f 1648 1680 1681
f 1713 1681 1680
f 1680 1712 1713
f 1745 1713 1712
f 1712 1744 1745
f 786 754 753
f 753 785 786
f 818 786 785
f 785 817 818
f 850 818 817
f 817 849 850
f 882 850 849
f 849 881 882
f 914 882 881
f 881 913 914
f 946 914 913
f 913 945 946
f 978 946 945
f 945 977 978
f 1010 978 977
f 977 1009 1010
f 1042 1010 1009
f 1009 1041 1042
f 1074 1042 1041
f 1041 1073 1074
f 1106 1074 1073
f 1073 1105 1106
f 1138 1106 1105
f 1105 1137 1138
f 1170 1138 1137
f 1137 1169 1170
f 1202 1170 1169
f 1169 1201 1202
f 1234 1202 1201
f 1201 1233 1234
f 1266 1234 1233
f 1233 1265 1266
f 1298 1266 1265
f 1265 1297 1298
f 1330 1298 1297
f 1297 1329 1330
f 1362 1330 1329
f 1329 1361 1362
f 1394 1362 1361
f 1361 1393 1394
f 1426 1394 1393
f 1393 1425 1426
f 1458 1426 1425
f 1425 1457 1458
f 1490 1458 1457
f 1457 1489 1490
f 1522 1490 1489
f 1489 1521 1522
f 1554 1522 1521
f 1521 1553 1554
f 1586 1554 1553
f 1553 1585 1586
f 1618 1586 1585
f 1585 1617 1618
f 1650 1618 1617
f 1617 1649 1650
f 1682 1650 1649
f 1649 1681 1682
f 1714 1682 1681
f 1681 1713 1714
f 1746 1714 1713
f 1713 1745 1746
f 787 755 754
f 754 786 787
f 819 787 786
f 786 818 819
f 851 819 818
f 818 850 851
f 883 851 850
f 850 882 883
f 915 883 882
f 882 914 915
f 947 915 914
f 914 946 947
f 979 947 946
f 946 978 979
f 1011 979 978
f 978 1010 1011
f 1043 1011 1010
f 1010 1042 1043
f 1075 1043 1042
f 1042 1074 1075
f 1107 1075 1074
f 1074 1106 1107
f 1139 1107 1106
f 1106 1138 1139
f 1171 1139 1138
f 1138 1170 1171
f 1203 1171 1170
f 1170 1202 1203
f 1235 1203 1202
f 1202 1234 1235
f 1267 1235 1234
f 1234 1266 1267
f 1299 1267 1266
f 1266 1298 1299
f 1331 1299 1298
f 1298 1330 1331
f 1363 1331 1330
f 1330 1362 1363
f 1395 1363 1362
f 1362 1394 1395
f 1427 1395 1394
f 1394 1426 1427
f 1459 1427 1426
f 1426 1458 1459
f 1491 1459 1458
f 1458 1490 1491
f 1523 1491 1490
f 1490 1522 1523
f 1555 1523 1522
f 1522 1554 1555
f 1587 1555 1554
f 1554 1586 1587
f 1619 1587 1586
f 1586 1618 1619
f 1651 1619 1618
f 1618 1650 1651
f 1683 1651 1650
f 1650 1682 1683
f 1715 1683 1682
f 1682 1714 1715
f 1747 1715 1714
f 1714 1746 1747
f 788 756 755
f 755 787 788
f 820 788 787
f 787 819 820
f 852 820 819
f 819 851 852
f 884 852 851
f 851 883 884
f 916 884 883
f 883 915 916
f 948 916 915
f 915 947 948
f 980 948 947
f 947 979 980
f 1012 980 979
f 979 1011 1012
f 1044 1012 1011
f 1011 1043 1044
f 1076 1044 1043
f 1043 1075 1076
f 1108 1076 1075
f 1075 1107 1108
f 1140 1108 1107
f 1107 1139 1140
f 1172 1140 1139
f 1139 1171 1172
f 1204 1172 1171
f 1171 1203 1204
f 1236 1204 1203
f 1203 1235 1236
f 1268 1236 1235
f 1235 1267 1268
f 1300 1268 1267
f 1267 1299 1300
f 1332 1300 1299
f 1299 1331 1332
f 1364 1332 1331
f 1331 1363 1364
f 1396 1364 1363
f 1363 1395 1396
f 1428 1396 1395
f 1395 1427 1428
f 1460 1428 1427
f 1427 1459 1460
f 1492 1460 1459
f 1459 1491 1492
f 1524 1492 1491
f 1491 1523 1524
f 1556 1524 1523
f 1523 1555 1556
f 1588 1556 1555
f 1555 1587 1588
f 1620 1588 1587
f 1587 1619 1620
f 1652 1620 1619
f 1619 1651 1652
f 1684 1652 1651
f 1651 1683 1684
f 1716 1684 1683
f 1683 1715 1716
f 1748 1716 1715
f 1715 1747 1748
f 789 757 756
f 756 788 789
f 821 789 788
f 788 820 821
f 853 821 820
f 820 852 853
f 885 853 852
f 852 884 885
f 917 885 884
f 884 916 917
f 949 917 916
f 916 948 949
f 981 949 948
f 948 980 981
f 1013 981 980
f 980 1012 1013
f 1045 1013 1012
f 1012 1044 1045
f 1077 1045 1044
f 1044 1076 1077
f 1109 1077 1076
f 1076 1108 1109
f 1141 1109 1108
f 1108 1140 1141
f 1173 1141 1140
f 1140 1172 1173
f 1205 1173 1172
f 1172 1204 1205
f 1237 1205 1204
f 1204 1236 1237
f 1269 1237 1236
f 1236 1268 1269
f 1301 1269 1268
f 1268 1300 1301
f 1333 1301 1300
f 1300 1332 1333
f 1365 1333 1332
f 1332 1364 1365
f 1397 1365 1364
f 1364 1396 1397
f 1429 1397 1396
f 1396 1428 1429
f 1461 1429 1428
f 1428 1460 1461
f 1493 1461 1460
f 1460 1492 1493
f 1525 1493 1492
f 1492 1524 1525
f 1557 1525 1524
f 1524 1556 1557
f 1589 1557 1556
f 1556 1588 1589
f 1621 1589 1588
f 1588 1620 1621
f 1653 1621 1620
f 1620 1652 1653
f 1685 1653 1652
f 1652 1684 1685
f 1717 1685 1684
f 1684 1716 1717
f 1749 1717 1716
f 1716 1748 1749
f 790 758 757
f 757 789 790
f 822 790 789
f 789 821 822
f 854 822 821
f 821 853 854
f 886 854 853
f 853 885 886
f 918 886 885
f 885 917 918
f 950 918 917
f 917 949 950
f 982 950 949
f 949 981 982
f 1014 982 981
f 981 1013 1014
f 1046 1014 1013
f 1013 1045 1046
f 1078 1046 1045
f 1045 1077 1078
f 1110 1078 1077
f 1077 1109 1110
f 1142 1110 1109
f 1109 1141 1142
f 1174 1142 1141
f 1141 1173 1174
f 1206 1174 1173
f 1173 1205 1206
f 1238 1206 1205
f 1205 1237 1238
f 1270 1238 1237
f 1237 1269 1270
f 1302 1270 1269
f 1269 1301 1302
f 1334 1302 1301
f 1301 1333 1334
f 1366 1334 1333
f 1333 1365 1366
f 1398 1366 1365
f 1365 1397 1398
f 1430 1398 1397
f 1397 1429 1430
f 1462 1430 1429
f 1429 1461 1462
f 1494 1462 1461
f 1461 1493 1494
f 1526 1494 1493
f 1493 1525 1526
f 1558 1526 1525
f 1525 1557 1558
f 1590 1558 1557
f 1557 1589 1590
f 1622 1590 1589
f 1589 1621 1622
f 1654 1622 1621
f 1621 1653 1654
f 1686 1654 1653
f 1653 1685 1686
f 1718 1686 1685
f 1685 1717 1718
f 1750 1718 1717
f 1717 1749 1750
f 791 759 758
f 758 790 791
f 823 791 790
f 790 822 823
f 855 823 822
f 822 854 855
f 887 855 854
f 854 886 887
f 919 887 886
f 886 918 919
f 951 919 918
f 918 950 951
f 983 951 950
f 950 982 983
f 1015 983 982
f 982 1014 1015
f 1047 1015 1014
f 1014 1046 1047
f 1079 1047 1046
f 1046 1078 1079
f 1111 1079 1078
f 1078 1110 1111
f 1143 1111 1110
f 1110 1142 1143
f 1175 1143 1142
f 1142 1174 1175
f 1207 1175 1174
f 1174 1206 1207
f 1239 1207 1206
f 1206 1238 1239
f 1271 1239 1238
f 1238 1270 1271
f 1303 1271 1270
f 1270 1302 1303
f 1335 1303 1302
f 1302 1334 1335
f 1367 1335 1334
f 1334 1366 1367
f 1399 1367 1366
f 1366 1398 1399
f 1431 1399 1398
f 1398 1430 1431
f 1463 1431 1430
f 1430 1462 1463
f 1495 1463 1462
f 1462 1494 1495
f 1527 1495 1494
f 1494 1526 1527
f 1559 1527 1526
f 1526 1558 1559
f 1591 1559 1558
f 1558 1590 1591
f 1623 1591 1590
f 1590 1622 1623
f 1655 1623 1622
f 1622 1654 1655
f 1687 1655 1654
f 1654 1686 1687
f 1719 1687 1686
f 1686 1718 1719
f 1751 1719 1718
f 1718 1750 1751
f 792 760 759
f 759 791 792
f 824 792 791
f 791 823 824
f 856 824 823
f 823 855 856
f 888 856 855
f 855 887 888
f 920 888 887
f 887 919 920
f 952 920 919
f 919 951 952
f 984 952 951
f 951 983 984
f 1016 984 983
f 983 1015 1016
f 1048 1016 1015
f 1015 1047 1048
f 1080 1048 1047
f 1047 1079 1080
f 1112 1080 1079
f 1079 1111 1112
f 1144 1112 1111
f 1111 1143 1144
f 1176 1144 1143
f 1143 1175 1176
f 1208 1176 1175
f 1175 1207 1208
f 1240 1208 1207
f 1207 1239 1240
f 1272 1240 1239
f 1239 1271 1272
f 1304 1272 1271
f 1271 1303 1304
f 1336 1304 1303
f 1303 1335 1336
f 1368 1336 1335
f 1335 1367 1368
f 1400 1368 1367
f 1367 1399 1400
f 1432 1400 1399
f 1399 1431 1432
f 1464 1432 1431
f 1431 1463 1464
f 1496 1464 1463
f 1463 1495 1496
f 1528 1496 1495
f 1495 1527 1528
f 1560 1528 1527
f 1527 1559 1560
f 1592 1560 1559
f 1559 1591 1592
f 1624 1592 1591
f 1591 1623 1624
f 1656 1624 1623
f 1623 1655 1656
f 1688 1656 1655
f 1655 1687 1688
f 1720 1688 1687
f 1687 1719 1720
f 1752 1720 1719
f 1719 1751 1752
f 793 761 760
f 760 792 793
f 825 793 792
f 792 824 825
f 857 825 824
f 824 856 857
f 889 857 856
f 856 888 889
f 921 889 888
f 888 920 921
f 953 921 920
f 920 952 953
f 985 953 952
f 952 984 985
f 1017 985 984
f 984 1016 1017
f 1049 1017 1016
f 1016 1048 1049
f 1081 1049 1048
f 1048 1080 1081
f 1113 1081 1080
f 1080 1112 1113
f 1145 1113 1112
f 1112 1144 1145
f 1177 1145 1144
f 1144 1176 1177
f 1209 1177 1176
f 1176 1208 1209
f 1241 1209 1208
f 1208 1240 1241
f 1273 1241 1240
f 1240 1272 1273
f 1305 1273 1272
f 1272 1304 1305
f 1337 1305 1304
f 1304 1336 1337
f 1369 1337 1336
f 1336 1368 1369
f 1401 1369 1368
f 1368 1400 1401
f 1433 1401 1400
f 1400 1432 1433
f 1465 1433 1432
f 1432 1464 1465
f 1497 1465 1464
f 1464 1496 1497
f 1529 1497 1496
f 1496 1528 1529
f 1561 1529 1528
f 1528 1560 1561
f 1593 1561 1560
f 1560 1592 1593
f 1625 1593 1592
f 1592 1624 1625
f 1657 1625 1624
f 1624 1656 1657
f 1689 1657 1656
f 1656 1688 1689
f 1721 1689 1688
f 1688 1720 1721
f 1753 1721 1720
f 1720 1752 1753
f 794 762 761
f 761 793 794
f 826 794 793
f 793 825 826
f 858 826 825
f 825 857 858
f 890 858 857
f 857 889 890
f 922 890 889
f 889 921 922
f 954 922 921
f 921 953 954
f 986 954 953
f 953 985 986
f 1018 986 985
f 985 1017 1018
f 1050 1018 1017
f 1017 1049 1050
f 1082 1050 1049
f 1049 1081 1082
f 1114 1082 1081
f 1081 1113 1114
f 1146 1114 1113
f 1113 1145 1146
f 1178 1146 1145
f 1145 1177 1178
f 1210 1178 1177
f 1177 1209 1210
f 1242 1210 1209
f 1209 1241 1242
f 1274 1242 1241
f 1241 1273 1274
f 1306 1274 1273
f 1273 1305 1306
f 1338 1306 1305
f 1305 1337 1338
f 1370 1338 1337
f 1337 1369 1370
f 1402 1370 1369
f 1369 1401 1402
f 1434 1402 1401
f 1401 1433 1434
f 1466 1434 1433
f 1433 1465 1466
f 1498 1466 1465
f 1465 1497 1498
f 1530 1498 1497
f 1497 1529 1530
f 1562 1530 1529
f 1529 1561 1562
f 1594 1562 1561
f 1561 1593 1594
f 1626 1594 1593
f 1593 1625 1626
f 1658 1626 1625
f 1625 1657 1658
f 1690 1658 1657
f 1657 1689 1690
f 1722 1690 1689
f 1689 1721 1722
f 1754 1722 1721
f 1721 1753 1754
f 795 763 762
f 762 794 795
f 827 795 794
f 794 826 827
f 859 827 826
f 826 858 859
f 891 859 858
f 858 890 891
f 923 891 890
f 890 922 923
f 955 923 922
f 922 954 955
f 987 955 954
f 954 986 987
f 1019 987 986
f 986 1018 1019
f 1051 1019 1018
f 1018 1050 1051
f 1083 1051 1050
f 1050 1082 1083
f 1115 1083 1082
f 1082 1114 1115
f 1147 1115 1114
f 1114 1146 1147
f 1179 1147 1146
f 1146 1178 1179
f 1211 1179 1178
f 1178 1210 1211
f 1243 1211 1210
f 1210 1242 1243
f 1275 1243 1242
f 1242 1274 1275
f 1307 1275 1274
f 1274 1306 1307
f 1339 1307 1306
f 1306 1338 1339
f 1371 1339 1338
f 1338 1370 1371
f 1403 1371 1370
f 1370 1402 1403
f 1435 1403 1402
f 1402 1434 1435
f 1467 1435 1434
f 1434 1466 1467
f 1499 1467 1466
f 1466 1498 1499
f 1531 1499 1498
f 1498 1530 1531
f 1563 1531 1530
f 1530 1562 1563
f 1595 1563 1562
f 1562 1594 1595
f 1627 1595 1594
f 1594 1626 1627
f 1659 1627 1626
f 1626 1658 1659
f 1691 1659 1658
f 1658 1690 1691
f 1723 1691 1690
f 1690 1722 1723
f 1755 1723 1722
f 1722 1754 1755
f 796 764 763
f 763 795 796
f 828 796 795
f 795 827 828
f 860 828 827
f 827 859 860
f 892 860 859
f 859 891 892
f 924 892 891
f 891 923 924
f 956 924 923
f 923 955 956
f 988 956 955
f 955 987 988
f 1020 988 987
f 987 1019 1020
f 1052 1020 1019
f 1019 1051 1052
f 1084 1052 1051
f 1051 1083 1084
f 1116 1084 1083
f 1083 1115 1116
f 1148 1116 1115
f 1115 1147 1148
f 1180 1148 1147
f 1147 1179 1180
f 1212 1180 1179
f 1179 1211 1212
f 1244 1212 1211
f 1211 1243 1244
f 1276 1244 1243
f 1243 1275 1276
f 1308 1276 1275
f 1275 1307 1308
f 1340 1308 1307
f 1307 1339 1340
f 1372 1340 1339
f 1339 1371 1372
f 1404 1372 1371
f 1371 1403 1404
f 1436 1404 1403
f 1403 1435 1436
f 1468 1436 1435
f 1435 1467 1468
f 1500 1468 1467
f 1467 1499 1500
f 1532 1500 1499
f 1499 1531 1532
f 1564 1532 1531
f 1531 1563 1564
f 1596 1564 1563
f 1563 1595 1596
f 1628 1596 1595
f 1595 1627 1628
f 1660 1628 1627
f 1627 1659 1660
f 1692 1660 1659
f 1659 1691 1692
f 1724 1692 1691
f 1691 1723 1724
f 1756 1724 1723
f 1723 1755 1756
