v -1361.45 42.4551 -1058.83
v -1361.28 41.4897 -1059.02
v -1360.93 42.55 -1059.1
v -1360.72 41.5887 -1059.01
v -1361.66 41.4533 -1058.61
v -1362.02 42.4249 -1058.78
v -1361.97 41.4444 -1057.95
v -1362.01 42.4713 -1058.16
v -1361.42 41.5514 -1057.58
v -1361.71 42.575 -1057.6
v -1360.78 41.7263 -1057.38
v -1361.16 42.5705 -1057.85
v -1360.36 41.6937 -1058.49
v -1360.16 41.8286 -1057.83
v -1360.59 42.581 -1058.58
v -1360.59 42.7003 -1058.04
v -1361.44 44.5209 -1059
v -1361.82 44.4559 -1059.24
v -1361.27 43.5353 -1058.93
v -1361.7 43.4734 -1059.06
v -1362.13 43.4486 -1058.84
v -1362.06 44.4106 -1058.85
v -1362.26 43.4732 -1058.24
v -1362.23 44.3456 -1058.43
v -1361.4 43.5321 -1058.05
v -1361.91 43.5889 -1057.72
v -1361.52 44.3545 -1058.21
v -1361.86 44.4145 -1058.16
v -1361.06 44.5677 -1058.83
v -1360.86 43.6114 -1058.68
v -1361.06 44.5785 -1058.33
v -1360.92 43.6524 -1058.21
v -1361.44 45.2916 -1059.27
v -1361.59 45.5187 -1059.04
v -1361.86 45.2277 -1059.22
v -1361.76 45.2926 -1058.97
v -1361.7 45.1536 -1058.77
v -1361.51 45.5353 -1058.6
v -1361.79 45.2789 -1058.61
v -1361.82 45.0849 -1058.48
v -1361.56 45.2113 -1058.24
v -1361.43 45.579 -1058.92
v -1361.44 45.2916 -1059.27
v -1361.41 45.1905 -1058.57
v -1360.93 42.55 -1059.1
v -1360.72 41.5887 -1059.01
v -1361.27 43.5353 -1058.93
v -1362.17 45.1595 -1058.96
v -1361.44 44.5209 -1059
v -1361.9 45.2073 -1058.77
v -1361.7 45.1536 -1058.77
v -1361.79 45.2789 -1058.61
v -1361.59 45.5187 -1059.04
v -1363.21 42.5432 -1058.85
v -1363.59 41.7196 -1058.43
v -1363.61 42.8321 -1058.53
v -1364.09 41.9835 -1058.37
v -1363.33 41.5032 -1058.88
v -1362.69 42.3316 -1058.98
v -1363.19 41.2965 -1059.56
v -1362.83 42.2798 -1059.59
v -1363.75 41.5044 -1059.85
v -1363.21 42.3809 -1060.11
v -1364.35 41.8323 -1059.98
v -1363.67 42.5849 -1059.77
v -1364.51 42.1081 -1058.83
v -1364.81 42.1937 -1059.46
v -1364.04 42.8841 -1058.98
v -1364.12 42.9103 -1059.53
v -1362.62 44.5116 -1059.13
v -1362.23 44.37 -1058.95
v -1363.07 43.6277 -1058.96
v -1362.65 43.4581 -1058.89
v -1362.3 43.2676 -1059.16
v -1362.1 44.1923 -1059.35
v -1362.31 43.155 -1059.78
v -1362.06 44.0129 -1059.78
v -1363.14 43.4453 -1059.82
v -1362.72 43.289 -1060.24
v -1362.77 44.2053 -1059.87
v -1362.45 44.1502 -1059.98
v -1363.01 44.6456 -1059.24
v -1363.48 43.7846 -1059.15
v -1363.11 44.5734 -1059.73
v -1363.52 43.7297 -1059.62
v -1362.36 45.2785 -1059.04
v -1362.21 45.4082 -1059.33
v -1362 45.0811 -1059.14
v -1362.13 45.134 -1059.38
v -1362.26 44.9887 -1059.53
v -1362.37 45.3773 -1059.75
v -1362.18 45.0534 -1059.73
v -1362.23 44.8389 -1059.82
v -1362.5 45.0029 -1060.03
v -1362.37 45.4941 -1059.44
v -1362.36 45.2785 -1059.04
v -1362.56 45.0784 -1059.69
v -1363.61 42.8321 -1058.53
v -1364.09 41.9835 -1058.37
v -1363.07 43.6277 -1058.96
v -1361.78 44.8792 -1059.43
v -1362.62 44.5116 -1059.13
v -1362.06 44.9782 -1059.58
v -1362.26 44.9887 -1059.53
v -1362.18 45.0534 -1059.73
v -1362.21 45.4082 -1059.33
v -1361.33 42.7016 -1059.59
v -1361.39 41.7103 -1059.49
v -1361.9 42.675 -1059.74
v -1361.81 41.6982 -1059.87
v -1360.84 41.7788 -1059.53
v -1360.88 42.7873 -1059.24
v -1360.18 41.8768 -1059.82
v -1360.48 42.8747 -1059.73
v -1360.35 41.902 -1060.47
v -1360.35 42.9572 -1060.35
v -1360.71 41.9628 -1061.06
v -1360.91 42.8277 -1060.53
v -1361.74 41.769 -1060.5
v -1361.48 41.9075 -1061.14
v -1361.81 42.6753 -1060.36
v -1361.47 42.8307 -1060.77
v -1361.85 44.7082 -1059.63
v -1361.71 44.7029 -1059.19
v -1361.73 43.7159 -1059.72
v -1361.5 43.7302 -1059.33
v -1361.03 43.8059 -1059.21
v -1361.27 44.7332 -1059.32
v -1360.54 43.8984 -1059.58
v -1360.86 44.7322 -1059.52
v -1361.06 43.801 -1060.28
v -1360.48 43.98 -1060.21
v -1361.23 44.6174 -1060.15
v -1360.97 44.7457 -1059.97
v -1362.02 44.6917 -1060.01
v -1361.88 43.7288 -1060.18
v -1361.68 44.7396 -1060.38
v -1361.53 43.8142 -1060.49
v -1362.18 45.4422 -1059.49
v -1361.96 45.7106 -1059.58
v -1361.82 45.4656 -1059.25
v -1361.75 45.5269 -1059.5
v -1361.63 45.3944 -1059.68
v -1361.72 45.7432 -1059.96
v -1361.48 45.5459 -1059.75
v -1361.33 45.3728 -1059.81
v -1361.39 45.4605 -1060.17
v -1362 45.7472 -1059.78
v -1362.18 45.4422 -1059.49
v -1361.71 45.3894 -1060.02
v -1361.9 42.675 -1059.74
v -1361.81 41.6982 -1059.87
v -1361.73 43.7159 -1059.72
v -1361.41 45.4789 -1059.23
v -1361.85 44.7082 -1059.63
v -1361.5 45.4857 -1059.55
v -1361.63 45.3944 -1059.68
v -1361.48 45.5459 -1059.75
v -1361.96 45.7106 -1059.58
v -1361.87 42.1215 -1059.87
v -1361.93 42.1997 -1059.56
v -1362.26 42.1997 -1059.7
v -1362.24 42.1215 -1059.91
v -1362.6 42.1997 -1059.59
v -1362.61 42.1215 -1059.83
v -1362.1 42.2986 -1059.4
v -1362.21 42.3351 -1059.47
v -1362.33 42.3052 -1059.45
v -1362.11 42.3351 -1059.33
v -1362.24 42.3707 -1059.34
v -1362.41 42.3354 -1059.37
v -1362.13 42.3009 -1059.2
v -1362.25 42.3351 -1059.19
v -1362.32 42.2962 -1059.26
v -1361.94 42.1997 -1058.99
v -1362.24 42.2364 -1058.94
v -1362.57 42.1997 -1059.17
v -1361.77 42.1215 -1058.9
v -1362.24 42.1215 -1058.78
v -1362.79 42.1215 -1059.02
v -1361.77 42.1215 -1058.9
v -1361.67 42.1215 -1059.34
v -1362.24 42.2333 -1059.34
v -1362.24 42.1215 -1058.78
v -1362.8 42.1215 -1059.34
v -1362.79 42.1215 -1059.02
v -1361.87 42.1215 -1059.87
v -1362.24 42.1215 -1059.91
v -1362.61 42.1215 -1059.83
v -1362.8 42.1215 -1059.34
v -1362.65 42.1997 -1059.35
v -1361.83 42.2271 -1059.35
v -1361.67 42.1215 -1059.34
v -1362.16 42.3154 -1059.55
v -1362.34 42.2921 -1059.47
v -1362.35 42.2527 -1059.46
v -1362.15 42.259 -1059.56
v -1362.34 42.2285 -1059.44
v -1362.13 42.2166 -1059.53
v -1362.32 42.2291 -1059.42
v -1362.11 42.2198 -1059.48
v -1362.33 42.2664 -1059.39
v -1362.11 42.2663 -1059.44
v -1362.33 42.2984 -1059.4
v -1362.1 42.322 -1059.46
v -1362.32 42.3093 -1059.44
v -1362.15 42.3329 -1059.5
v -1362.34 42.2921 -1059.47
v -1362.16 42.3154 -1059.55
v -1362.55 42.2962 -1059.39
v -1362.55 42.2505 -1059.4
v -1362.53 42.2205 -1059.38
v -1362.52 42.2186 -1059.32
v -1362.5 42.2571 -1059.31
v -1362.52 42.3011 -1059.31
v -1362.52 42.3191 -1059.36
v -1362.55 42.2962 -1059.39
v -1362.15 42.259 -1059.56
v -1362.16 42.2643 -1059.49
v -1362.16 42.3154 -1059.55
v -1362.13 42.2166 -1059.53
v -1362.11 42.2198 -1059.48
v -1362.11 42.2663 -1059.44
v -1362.1 42.322 -1059.46
v -1362.15 42.3329 -1059.5
v -1362.55 42.2962 -1059.39
v -1362.54 42.2644 -1059.34
v -1362.55 42.2505 -1059.4
v -1362.53 42.2205 -1059.38
v -1362.52 42.2186 -1059.32
v -1362.5 42.2571 -1059.31
v -1362.52 42.3011 -1059.31
v -1362.52 42.3191 -1059.36
v -1362.24 42.3079 -1059.03
v -1362.33 42.3474 -1059.21
v -1362.3 42.3607 -1059.24
v -1362.19 42.3238 -1059.05
v -1362.28 42.34 -1059.26
v -1362.14 42.2911 -1059.07
v -1362.27 42.3058 -1059.26
v -1362.15 42.2376 -1059.09
v -1362.31 42.2813 -1059.26
v -1362.2 42.2018 -1059.09
v -1362.34 42.2833 -1059.24
v -1362.23 42.2033 -1059.04
v -1362.33 42.3091 -1059.2
v -1362.26 42.2594 -1059.05
v -1362.33 42.3474 -1059.21
v -1362.24 42.3079 -1059.03
v -1362.45 42.4058 -1059.39
v -1362.41 42.4204 -1059.41
v -1362.37 42.4026 -1059.42
v -1362.38 42.3529 -1059.45
v -1362.4 42.3164 -1059.42
v -1362.45 42.3255 -1059.41
v -1362.46 42.3604 -1059.38
v -1362.45 42.4058 -1059.39
v -1362.19 42.3238 -1059.05
v -1362.21 42.2694 -1059.09
v -1362.24 42.3079 -1059.03
v -1362.14 42.2911 -1059.07
v -1362.15 42.2376 -1059.09
v -1362.2 42.2018 -1059.09
v -1362.23 42.2033 -1059.04
v -1362.26 42.2594 -1059.05
v -1362.45 42.4058 -1059.39
v -1362.42 42.3724 -1059.42
v -1362.41 42.4204 -1059.41
v -1362.37 42.4026 -1059.42
v -1362.38 42.3529 -1059.45
v -1362.4 42.3164 -1059.42
v -1362.45 42.3255 -1059.41
v -1362.46 42.3604 -1059.38
v -1362.26 42.4739 -1059.25
v -1362.15 42.3333 -1059.33
v -1362.15 42.2942 -1059.32
v -1362.29 42.436 -1059.21
v -1362.18 42.2763 -1059.33
v -1362.34 42.4083 -1059.22
v -1362.21 42.282 -1059.35
v -1362.37 42.4041 -1059.27
v -1362.19 42.298 -1059.4
v -1362.35 42.4307 -1059.32
v -1362.18 42.3284 -1059.4
v -1362.33 42.4866 -1059.32
v -1362.17 42.353 -1059.36
v -1362.27 42.4783 -1059.3
v -1362.15 42.3333 -1059.33
v -1362.26 42.4739 -1059.25
v -1361.99 42.2025 -1059.43
v -1362.01 42.1675 -1059.4
v -1362.05 42.1509 -1059.4
v -1362.07 42.1367 -1059.46
v -1362.08 42.1772 -1059.49
v -1362.04 42.2025 -1059.5
v -1362.01 42.226 -1059.47
v -1361.99 42.2025 -1059.43
v -1362.29 42.436 -1059.21
v -1362.3 42.4197 -1059.29
v -1362.26 42.4739 -1059.25
v -1362.34 42.4083 -1059.22
v -1362.37 42.4041 -1059.27
v -1362.35 42.4307 -1059.32
v -1362.33 42.4866 -1059.32
v -1362.27 42.4783 -1059.3
v -1361.99 42.2025 -1059.43
v -1362.03 42.1682 -1059.46
v -1362.01 42.1675 -1059.4
v -1362.05 42.1509 -1059.4
v -1362.07 42.1367 -1059.46
v -1362.08 42.1772 -1059.49
v -1362.04 42.2025 -1059.5
v -1362.01 42.226 -1059.47
v -1361.94 42.2967 -1059.18
v -1362.02 42.2873 -1059.37
v -1361.99 42.2916 -1059.4
v -1361.89 42.3065 -1059.2
v -1361.97 42.2669 -1059.41
v -1361.84 42.2683 -1059.21
v -1361.96 42.2338 -1059.4
v -1361.85 42.2111 -1059.22
v -1362.01 42.2094 -1059.4
v -1361.9 42.1779 -1059.21
v -1362.03 42.2185 -1059.37
v -1361.94 42.1928 -1059.16
v -1362.03 42.2529 -1059.35
v -1361.96 42.246 -1059.18
v -1362.02 42.2873 -1059.37
v -1361.94 42.2967 -1059.18
v -1362.13 42.2972 -1059.56
v -1362.09 42.3053 -1059.58
v -1362.06 42.2849 -1059.58
v -1362.07 42.2286 -1059.6
v -1362.09 42.201 -1059.56
v -1362.14 42.2138 -1059.56
v -1362.15 42.2562 -1059.54
v -1362.13 42.2972 -1059.56
v -1361.89 42.3065 -1059.2
v -1361.93 42.2375 -1059.24
v -1361.94 42.2967 -1059.18
v -1361.84 42.2683 -1059.21
v -1361.85 42.2111 -1059.22
v -1361.9 42.1779 -1059.21
v -1361.94 42.1928 -1059.16
v -1361.96 42.246 -1059.18
v -1362.13 42.2972 -1059.56
v -1362.11 42.2542 -1059.58
v -1362.09 42.3053 -1059.58
v -1362.06 42.2849 -1059.58
v -1362.07 42.2286 -1059.6
v -1362.09 42.201 -1059.56
v -1362.14 42.2138 -1059.56
v -1362.15 42.2562 -1059.54
v -1362.13 42.3007 -1059.08
v -1362.07 42.3411 -1059.27
v -1362.03 42.3487 -1059.27
v -1362.08 42.308 -1059.06
v -1362 42.324 -1059.27
v -1362.04 42.2684 -1059.05
v -1362 42.2894 -1059.27
v -1362.04 42.215 -1059.07
v -1362.04 42.2708 -1059.3
v -1362.08 42.1862 -1059.1
v -1362.07 42.2776 -1059.3
v -1362.14 42.1958 -1059.09
v -1362.09 42.3048 -1059.27
v -1362.14 42.2547 -1059.11
v -1362.07 42.3411 -1059.27
v -1362.13 42.3007 -1059.08
v -1362.03 42.4049 -1059.48
v -1361.99 42.4127 -1059.46
v -1361.96 42.3899 -1059.45
v -1361.95 42.3398 -1059.48
v -1361.99 42.3084 -1059.48
v -1362.03 42.3246 -1059.5
v -1362.05 42.3623 -1059.48
v -1362.03 42.4049 -1059.48
v -1362.08 42.308 -1059.06
v -1362.08 42.256 -1059.1
v -1362.13 42.3007 -1059.08
v -1362.04 42.2684 -1059.05
v -1362.04 42.215 -1059.07
v -1362.08 42.1862 -1059.1
v -1362.14 42.1958 -1059.09
v -1362.14 42.2547 -1059.11
v -1362.03 42.4049 -1059.48
v -1361.99 42.3666 -1059.49
v -1361.99 42.4127 -1059.46
v -1361.96 42.3899 -1059.45
v -1361.95 42.3398 -1059.48
v -1361.99 42.3084 -1059.48
v -1362.03 42.3246 -1059.5
v -1362.05 42.3623 -1059.48
v -1394 45.6225 -1028
v -1394 45.5539 -1030
v -1394 45.4829 -1032
v -1394 45.4096 -1034
v -1394 45.3339 -1036
v -1394 45.2561 -1038
v -1394 45.176 -1040
v -1394 45.0939 -1042
v -1394 45.0098 -1044
v -1394 44.9237 -1046
v -1394 44.8357 -1048
v -1394 44.7459 -1050
v -1394 44.6543 -1052
v -1394 44.561 -1054
v -1394 44.4661 -1056
v -1394 44.3697 -1058
v -1394 44.2717 -1060
v -1394 44.1724 -1062
v -1394 44.0716 -1064
v -1394 43.9694 -1066
v -1394 43.8618 -1068
v -1394 43.7473 -1070
v -1394 43.6258 -1072
v -1394 43.4967 -1074
v -1394 43.3599 -1076
v -1394 43.2151 -1078
v -1394 43.062 -1080
v -1394 42.9005 -1082
v -1394 42.7305 -1084
v -1394 42.5517 -1086
v -1394 42.3638 -1088
v -1394 42.1654 -1090
v -1392 45.535 -1028
v -1392 45.4647 -1030
v -1392 45.392 -1032
v -1392 45.317 -1034
v -1392 45.2397 -1036
v -1392 45.1602 -1038
v -1392 45.0786 -1040
v -1392 44.9949 -1042
v -1392 44.9093 -1044
v -1392 44.8217 -1046
v -1392 44.7323 -1048
v -1392 44.641 -1050
v -1392 44.548 -1052
v -1392 44.4534 -1054
v -1392 44.3572 -1056
v -1392 44.2595 -1058
v -1392 44.1603 -1060
v -1392 44.0598 -1062
v -1392 43.9577 -1064
v -1392 43.8507 -1066
v -1392 43.7374 -1068
v -1392 43.6173 -1070
v -1392 43.4902 -1072
v -1392 43.3557 -1074
v -1392 43.2135 -1076
v -1392 43.0635 -1078
v -1392 42.9055 -1080
v -1392 42.7392 -1082
v -1392 42.5644 -1084
v -1392 42.3812 -1086
v -1392 42.189 -1088
v -1392 41.9864 -1090
v -1390 45.4432 -1028
v -1390 45.3712 -1030
v -1390 45.2968 -1032
v -1390 45.2202 -1034
v -1390 45.1413 -1036
v -1390 45.0602 -1038
v -1390 44.9771 -1040
v -1390 44.8919 -1042
v -1390 44.8047 -1044
v -1390 44.7157 -1046
v -1390 44.6248 -1048
v -1390 44.5322 -1050
v -1390 44.4378 -1052
v -1390 44.3419 -1054
v -1390 44.2444 -1056
v -1390 44.1454 -1058
v -1390 44.045 -1060
v -1390 43.9431 -1062
v -1390 43.8364 -1064
v -1390 43.7237 -1066
v -1390 43.6047 -1068
v -1390 43.4791 -1070
v -1390 43.3465 -1072
v -1390 43.2067 -1074
v -1390 43.0594 -1076
v -1390 42.9043 -1078
v -1390 42.7414 -1080
v -1390 42.5703 -1082
v -1390 42.391 -1084
v -1390 42.2034 -1086
v -1390 42.007 -1088
v -1390 41.8005 -1090
v -1388 45.3473 -1028
v -1388 45.2736 -1030
v -1388 45.1976 -1032
v -1388 45.1193 -1034
v -1388 45.0389 -1036
v -1388 44.9563 -1038
v -1388 44.8716 -1040
v -1388 44.7849 -1042
v -1388 44.6963 -1044
v -1388 44.6058 -1046
v -1388 44.5135 -1048
v -1388 44.4195 -1050
v -1388 44.3239 -1052
v -1388 44.2266 -1054
v -1388 44.1278 -1056
v -1388 44.0276 -1058
v -1388 43.9256 -1060
v -1388 43.8189 -1062
v -1388 43.7066 -1064
v -1388 43.5883 -1066
v -1388 43.4639 -1068
v -1388 43.3329 -1070
v -1388 43.195 -1072
v -1388 43.05 -1074
v -1388 42.8976 -1076
v -1388 42.7376 -1078
v -1388 42.5699 -1080
v -1388 42.3943 -1082
v -1388 42.2105 -1084
v -1388 42.0186 -1086
v -1388 41.8182 -1088
v -1388 41.6078 -1090
v -1386 45.2474 -1028
v -1386 45.1721 -1030
v -1386 45.0945 -1032
v -1386 45.0147 -1034
v -1386 44.9327 -1036
v -1386 44.8486 -1038
v -1386 44.7624 -1040
v -1386 44.6742 -1042
v -1386 44.5842 -1044
v -1386 44.4923 -1046
v -1386 44.3987 -1048
v -1386 44.3033 -1050
v -1386 44.2063 -1052
v -1386 44.1078 -1054
v -1386 44.0078 -1056
v -1386 43.9055 -1058
v -1386 43.7985 -1060
v -1386 43.6862 -1062
v -1386 43.5685 -1064
v -1386 43.4449 -1066
v -1386 43.3151 -1068
v -1386 43.1788 -1070
v -1386 43.0358 -1072
v -1386 42.8857 -1074
v -1386 42.7285 -1076
v -1386 42.5637 -1078
v -1386 42.3914 -1080
v -1386 42.2113 -1082
v -1386 42.0232 -1084
v -1386 41.8272 -1086
v -1386 41.6229 -1088
v -1386 41.4087 -1090
v -1384 45.1437 -1028
v -1384 45.0669 -1030
v -1384 44.9878 -1032
v -1384 44.9064 -1034
v -1384 44.8229 -1036
v -1384 44.7373 -1038
v -1384 44.6497 -1040
v -1384 44.5601 -1042
v -1384 44.4686 -1044
v -1384 44.3754 -1046
v -1384 44.2804 -1048
v -1384 44.1838 -1050
v -1384 44.0855 -1052
v -1384 43.9857 -1054
v -1384 43.8827 -1056
v -1384 43.7752 -1058
v -1384 43.6628 -1060
v -1384 43.5454 -1062
v -1384 43.4223 -1064
v -1384 43.2935 -1066
v -1384 43.1585 -1068
v -1384 43.0172 -1070
v -1384 42.8692 -1072
v -1384 42.7142 -1074
v -1384 42.5522 -1076
v -1384 42.3828 -1078
v -1384 42.206 -1080
v -1384 42.0216 -1082
v -1384 41.8294 -1084
v -1384 41.6295 -1086
v -1384 41.4214 -1088
v -1384 41.2036 -1090
v -1382 45.0365 -1028
v -1382 44.9581 -1030
v -1382 44.8775 -1032
v -1382 44.7946 -1034
v -1382 44.7097 -1036
v -1382 44.6226 -1038
v -1382 44.5336 -1040
v -1382 44.4427 -1042
v -1382 44.3499 -1044
v -1382 44.2553 -1046
v -1382 44.159 -1048
v -1382 44.0611 -1050
v -1382 43.961 -1052
v -1382 43.8571 -1054
v -1382 43.749 -1056
v -1382 43.6364 -1058
v -1382 43.519 -1060
v -1382 43.3964 -1062
v -1382 43.2683 -1064
v -1382 43.1344 -1066
v -1382 42.9945 -1068
v -1382 42.8482 -1070
v -1382 42.6954 -1072
v -1382 42.5357 -1074
v -1382 42.3691 -1076
v -1382 42.1953 -1078
v -1382 42.0142 -1080
v -1382 41.8256 -1082
v -1382 41.6294 -1084
v -1382 41.4256 -1086
v -1382 41.2139 -1088
v -1382 40.9927 -1090
v -1380 44.9258 -1028
v -1380 44.846 -1030
v -1380 44.7639 -1032
v -1380 44.6796 -1034
v -1380 44.5933 -1036
v -1380 44.5049 -1038
v -1380 44.4145 -1040
v -1380 44.3222 -1042
v -1380 44.2281 -1044
v -1380 44.1323 -1046
v -1380 44.0344 -1048
v -1380 43.9332 -1050
v -1380 43.8285 -1052
v -1380 43.7198 -1054
v -1380 43.6069 -1056
v -1380 43.4894 -1058
v -1380 43.3671 -1060
v -1380 43.2396 -1062
v -1380 43.1066 -1064
v -1380 42.9679 -1066
v -1380 42.8232 -1068
v -1380 42.6722 -1070
v -1380 42.5147 -1072
v -1380 42.3506 -1074
v -1380 42.1795 -1076
v -1380 42.0014 -1078
v -1380 41.8161 -1080
v -1380 41.6235 -1082
v -1380 41.4235 -1084
v -1380 41.2161 -1086
v -1380 41.0009 -1088
v -1380 40.7764 -1090
v -1378 44.8119 -1028
v -1378 44.7307 -1030
v -1378 44.6472 -1032
v -1378 44.5616 -1034
v -1378 44.4739 -1036
v -1378 44.3842 -1038
v -1378 44.2925 -1040
v -1378 44.199 -1042
v -1378 44.103 -1044
v -1378 44.0041 -1046
v -1378 43.902 -1048
v -1378 43.7966 -1050
v -1378 43.6874 -1052
v -1378 43.5741 -1054
v -1378 43.4566 -1056
v -1378 43.3345 -1058
v -1378 43.2075 -1060
v -1378 43.0753 -1062
v -1378 42.9376 -1064
v -1378 42.7943 -1066
v -1378 42.645 -1068
v -1378 42.4895 -1070
v -1378 42.3275 -1072
v -1378 42.159 -1074
v -1378 41.9837 -1076
v -1378 41.8015 -1078
v -1378 41.6123 -1080
v -1378 41.4159 -1082
v -1378 41.2122 -1084
v -1378 41.0013 -1086
v -1378 40.7827 -1088
v -1378 40.5551 -1090
v -1376 44.695 -1028
v -1376 44.6124 -1030
v -1376 44.5277 -1032
v -1376 44.4408 -1034
v -1376 44.3516 -1036
v -1376 44.26 -1038
v -1376 44.1659 -1040
v -1376 44.0692 -1042
v -1376 43.9696 -1044
v -1376 43.8669 -1046
v -1376 43.7609 -1048
v -1376 43.6513 -1050
v -1376 43.5379 -1052
v -1376 43.4204 -1054
v -1376 43.2985 -1056
v -1376 43.1719 -1058
v -1376 43.0404 -1060
v -1376 42.9038 -1062
v -1376 42.7617 -1064
v -1376 42.6139 -1066
v -1376 42.4602 -1068
v -1376 42.3004 -1070
v -1376 42.1342 -1072
v -1376 41.9615 -1074
v -1376 41.7822 -1076
v -1376 41.6098 -1078
v -1376 41.426 -1080
v -1376 41.2149 -1082
v -1376 40.9958 -1084
v -1376 40.7815 -1086
v -1376 40.5598 -1088
v -1376 40.3292 -1090
v -1374 44.5713 -1028
v -1374 44.4874 -1030
v -1374 44.4009 -1032
v -1374 44.312 -1034
v -1374 44.2204 -1036
v -1374 44.1262 -1038
v -1374 44.0292 -1040
v -1374 43.9293 -1042
v -1374 43.8264 -1044
v -1374 43.7202 -1046
v -1374 43.6105 -1048
v -1374 43.497 -1050
v -1374 43.3797 -1052
v -1374 43.2581 -1054
v -1374 43.1321 -1056
v -1374 43.0013 -1058
v -1374 42.8656 -1060
v -1374 42.7248 -1062
v -1374 42.5784 -1064
v -1374 42.4264 -1066
v -1374 42.2686 -1068
v -1374 42.1311 -1070
v -1374 42.0303 -1072
v -1374 41.8785 -1074
v -1374 41.7104 -1076
v -1374 41.5454 -1078
v -1374 41.3573 -1080
v -1374 41.1411 -1082
v -1374 40.8914 -1084
v -1374 40.59 -1086
v -1374 40.332 -1088
v -1374 40.0986 -1090
v -1372 44.432 -1028
v -1372 44.347 -1030
v -1372 44.2591 -1032
v -1372 44.1684 -1034
v -1372 44.0747 -1036
v -1372 43.9781 -1038
v -1372 43.8785 -1040
v -1372 43.7758 -1042
v -1372 43.6697 -1044
v -1372 43.5602 -1046
v -1372 43.4471 -1048
v -1372 43.3301 -1050
v -1372 43.209 -1052
v -1372 43.0836 -1054
v -1372 42.9538 -1056
v -1372 42.8191 -1058
v -1372 42.6795 -1060
v -1372 42.5346 -1062
v -1372 42.3843 -1064
v -1372 42.3025 -1066
v -1372 42.2387 -1068
v -1372 42.1293 -1070
v -1372 41.9935 -1072
v -1372 41.8355 -1074
v -1372 41.6464 -1076
v -1372 41.4866 -1078
v -1372 41.2908 -1080
v -1372 41.0632 -1082
v -1372 40.8103 -1084
v -1372 40.5019 -1086
v -1372 40.1189 -1088
v -1372 39.8605 -1090
v -1370 44.277 -1028
v -1370 44.1912 -1030
v -1370 44.1021 -1032
v -1370 44.0098 -1034
v -1370 43.9143 -1036
v -1370 43.8156 -1038
v -1370 43.7136 -1040
v -1370 43.6082 -1042
v -1370 43.4994 -1044
v -1370 43.3869 -1046
v -1370 43.2706 -1048
v -1370 43.1503 -1050
v -1370 43.0258 -1052
v -1370 42.8969 -1054
v -1370 42.7634 -1056
v -1370 42.6251 -1058
v -1370 42.4818 -1060
v -1370 42.3861 -1062
v -1370 42.3119 -1064
v -1370 42.2952 -1066
v -1370 42.2138 -1068
v -1370 42.0714 -1070
v -1370 41.9178 -1072
v -1370 41.7628 -1074
v -1370 41.5911 -1076
v -1370 41.4305 -1078
v -1370 41.2255 -1080
v -1370 40.9843 -1082
v -1370 40.7239 -1084
v -1370 40.4069 -1086
v -1370 40.0119 -1088
v -1370 39.6149 -1090
v -1368 44.1368 -1028
v -1368 44.0205 -1030
v -1368 43.9304 -1032
v -1368 43.8368 -1034
v -1368 43.7397 -1036
v -1368 43.6391 -1038
v -1368 43.535 -1040
v -1368 43.4273 -1042
v -1368 43.3159 -1044
v -1368 43.2007 -1046
v -1368 43.0815 -1048
v -1368 42.9582 -1050
v -1368 42.8305 -1052
v -1368 42.6984 -1054
v -1368 42.5616 -1056
v -1368 42.4601 -1058
v -1368 42.3696 -1060
v -1368 42.287 -1062
v -1368 42.2129 -1064
v -1368 42.2206 -1066
v -1368 42.1419 -1068
v -1368 41.9841 -1070
v -1368 41.8205 -1072
v -1368 41.6688 -1074
v -1368 41.5258 -1076
v -1368 41.3575 -1078
v -1368 41.141 -1080
v -1368 40.8905 -1082
v -1368 40.6269 -1084
v -1368 40.3096 -1086
v -1368 39.8943 -1088
v -1368 39.4025 -1090
v -1366 44.0776 -1028
v -1366 43.9401 -1030
v -1366 43.7903 -1032
v -1366 43.65 -1034
v -1366 43.5516 -1036
v -1366 43.4494 -1038
v -1366 43.3435 -1040
v -1366 43.2337 -1042
v -1366 43.12 -1044
v -1366 43.0023 -1046
v -1366 42.8805 -1048
v -1366 42.7544 -1050
v -1366 42.6239 -1052
v -1366 42.4888 -1054
v -1366 42.4603 -1056
v -1366 42.4135 -1058
v -1366 42.2838 -1060
v -1366 42.1636 -1062
v -1366 42.0846 -1064
v -1366 42.064 -1066
v -1366 42.0375 -1068
v -1366 41.8764 -1070
v -1366 41.7044 -1072
v -1366 41.5588 -1074
v -1366 41.436 -1076
v -1366 41.2762 -1078
v -1366 41.0528 -1080
v -1366 40.7979 -1082
v -1366 40.5327 -1084
v -1366 40.2173 -1086
v -1366 39.7701 -1088
v -1366 39.2479 -1090
v -1364 43.9875 -1028
v -1364 43.8407 -1030
v -1364 43.6844 -1032
v -1364 43.5149 -1034
v -1364 43.3506 -1036
v -1364 43.2471 -1038
v -1364 43.1395 -1040
v -1364 43.0279 -1042
v -1364 42.9122 -1044
v -1364 42.7923 -1046
v -1364 42.6681 -1048
v -1364 42.5395 -1050
v -1364 42.4064 -1052
v -1364 42.3973 -1054
v -1364 42.4137 -1056
v -1364 42.3793 -1058
v -1364 42.2208 -1060
v -1364 42.0231 -1062
v -1364 41.9367 -1064
v -1364 41.8873 -1066
v -1364 41.8885 -1068
v -1364 41.7364 -1070
v -1364 41.5704 -1072
v -1364 41.4439 -1074
v -1364 41.3489 -1076
v -1364 41.2028 -1078
v -1364 40.9829 -1080
v -1364 40.7261 -1082
v -1364 40.4539 -1084
v -1364 40.1315 -1086
v -1364 39.6346 -1088
v -1364 39.0878 -1090
v -1362 43.8797 -1028
v -1362 43.7196 -1030
v -1362 43.5528 -1032
v -1362 43.3701 -1034
v -1362 43.1809 -1036
v -1362 43.0328 -1038
v -1362 42.9239 -1040
v -1362 42.8107 -1042
v -1362 42.6932 -1044
v -1362 42.5714 -1046
v -1362 42.4451 -1048
v -1362 42.3143 -1050
v -1362 42.2762 -1052
v -1362 42.289 -1054
v -1362 42.322 -1056
v -1362 42.3132 -1058
v -1362 42.149 -1060
v -1362 41.9004 -1062
v -1362 41.8047 -1064
v -1362 41.761 -1066
v -1362 41.7284 -1068
v -1362 41.5979 -1070
v -1362 41.4653 -1072
v -1362 41.3602 -1074
v -1362 41.2779 -1076
v -1362 41.1463 -1078
v -1362 40.9368 -1080
v -1362 40.6813 -1082
v -1362 40.3937 -1084
v -1362 40.0526 -1086
v -1362 39.4821 -1088
v -1362 38.9169 -1090
v -1360 43.7475 -1028
v -1360 43.5692 -1030
v -1360 43.3863 -1032
v -1360 43.1902 -1034
v -1360 42.9887 -1036
v -1360 42.8072 -1038
v -1360 42.6971 -1040
v -1360 42.5826 -1042
v -1360 42.4636 -1044
v -1360 42.3401 -1046
v -1360 42.212 -1048
v -1360 42.1012 -1050
v -1360 42.1158 -1052
v -1360 42.1458 -1054
v -1360 42.1968 -1056
v -1360 42.2289 -1058
v -1360 42.0942 -1060
v -1360 41.8392 -1062
v -1360 41.7145 -1064
v -1360 41.6639 -1066
v -1360 41.5879 -1068
v -1360 41.4731 -1070
v -1360 41.3569 -1072
v -1360 41.261 -1074
v -1360 41.1739 -1076
v -1360 41.0471 -1078
v -1360 40.8599 -1080
v -1360 40.6267 -1082
v -1360 40.3368 -1084
v -1360 39.9738 -1086
v -1360 39.3338 -1088
v -1360 38.7557 -1090
v -1358 43.5555 -1028
v -1358 43.36 -1030
v -1358 43.1644 -1032
v -1358 42.9597 -1034
v -1358 42.7508 -1036
v -1358 42.571 -1038
v -1358 42.4601 -1040
v -1358 42.3445 -1042
v -1358 42.2243 -1044
v -1358 42.0993 -1046
v -1358 41.9697 -1048
v -1358 41.8735 -1050
v -1358 41.907 -1052
v -1358 41.9571 -1054
v -1358 42.0308 -1056
v -1358 42.1072 -1058
v -1358 42.0269 -1060
v -1358 41.802 -1062
v -1358 41.6369 -1064
v -1358 41.5663 -1066
v -1358 41.467 -1068
v -1358 41.3517 -1070
v -1358 41.2556 -1072
v -1358 41.1737 -1074
v -1358 41.0708 -1076
v -1358 40.9365 -1078
v -1358 40.77 -1080
v -1358 40.5691 -1082
v -1358 40.2931 -1084
v -1358 39.8986 -1086
v -1358 39.2287 -1088
v -1358 38.6345 -1090
v -1356 43.2948 -1028
v -1356 43.088 -1030
v -1356 42.8859 -1032
v -1356 42.6769 -1034
v -1356 42.4636 -1036
v -1356 42.3251 -1038
v -1356 42.2135 -1040
v -1356 42.097 -1042
v -1356 41.9758 -1044
v -1356 41.8496 -1046
v -1356 41.7186 -1048
v -1356 41.5867 -1050
v -1356 41.6367 -1052
v -1356 41.7041 -1054
v -1356 41.7964 -1056
v -1356 41.9067 -1058
v -1356 41.8883 -1060
v -1356 41.7227 -1062
v -1356 41.5344 -1064
v -1356 41.4551 -1066
v -1356 41.347 -1068
v -1356 41.2457 -1070
v -1356 41.178 -1072
v -1356 41.1136 -1074
v -1356 41.0001 -1076
v -1356 40.8591 -1078
v -1356 40.7025 -1080
v -1356 40.527 -1082
v -1356 40.2701 -1084
v -1356 39.8716 -1086
v -1356 39.1728 -1088
v -1356 38.556 -1090
v -1354 42.9897 -1028
v -1354 42.7793 -1030
v -1354 42.5706 -1032
v -1354 42.352 -1034
v -1354 42.1769 -1036
v -1354 42.07 -1038
v -1354 41.958 -1040
v -1354 41.8409 -1042
v -1354 41.7188 -1044
v -1354 41.5917 -1046
v -1354 41.4597 -1048
v -1354 41.3226 -1050
v -1354 41.3018 -1052
v -1354 41.385 -1054
v -1354 41.4847 -1056
v -1354 41.6041 -1058
v -1354 41.6367 -1060
v -1354 41.5471 -1062
v -1354 41.3886 -1064
v -1354 41.3251 -1066
v -1354 41.2405 -1068
v -1354 41.1659 -1070
v -1354 41.1242 -1072
v -1354 41.097 -1074
v -1354 41.0159 -1076
v -1354 40.8776 -1078
v -1354 40.6996 -1080
v -1354 40.5037 -1082
v -1354 40.2459 -1084
v -1354 39.8271 -1086
v -1354 39.0946 -1088
v -1354 38.4564 -1090
v -1352 42.646 -1028
v -1352 42.4346 -1030
v -1352 42.2115 -1032
v -1352 42.0152 -1034
v -1352 41.9136 -1036
v -1352 41.8066 -1038
v -1352 41.6943 -1040
v -1352 41.5768 -1042
v -1352 41.4542 -1044
v -1352 41.3264 -1046
v -1352 41.1935 -1048
v -1352 41.0554 -1050
v -1352 40.9122 -1052
v -1352 41.0043 -1054
v -1352 41.1226 -1056
v -1352 41.2538 -1058
v -1352 41.3368 -1060
v -1352 41.3192 -1062
v -1352 41.2176 -1064
v -1352 41.187 -1066
v -1352 41.1537 -1068
v -1352 41.1263 -1070
v -1352 41.1298 -1072
v -1352 41.1385 -1074
v -1352 41.0921 -1076
v -1352 40.9508 -1078
v -1352 40.723 -1080
v -1352 40.4713 -1082
v -1352 40.1914 -1084
v -1352 39.725 -1086
v -1352 38.9933 -1088
v -1352 38.3314 -1090
v -1350 42.2546 -1028
v -1350 42.0308 -1030
v -1350 41.8392 -1032
v -1350 41.7437 -1034
v -1350 41.6425 -1036
v -1350 41.5356 -1038
v -1350 41.4233 -1040
v -1350 41.3055 -1042
v -1350 41.1825 -1044
v -1350 41.0542 -1046
v -1350 40.9207 -1048
v -1350 40.7819 -1050
v -1350 40.6379 -1052
v -1350 40.532 -1054
v -1350 40.6882 -1056
v -1350 40.8601 -1058
v -1350 41.009 -1060
v -1350 41.0617 -1062
v -1350 41.0249 -1064
v -1350 41.0733 -1066
v -1350 41.1074 -1068
v -1350 41.1182 -1070
v -1350 41.1275 -1072
v -1350 41.1397 -1074
v -1350 41.1308 -1076
v -1350 41.0031 -1078
v -1350 40.7334 -1080
v -1350 40.4227 -1082
v -1350 40.1307 -1084
v -1350 39.6383 -1086
v -1350 38.9541 -1088
v -1350 38.2605 -1090
v -1348 41.8267 -1028
v -1348 41.6485 -1030
v -1348 41.5599 -1032
v -1348 41.4651 -1034
v -1348 41.3643 -1036
v -1348 41.2578 -1038
v -1348 41.1456 -1040
v -1348 41.0278 -1042
v -1348 40.9046 -1044
v -1348 40.776 -1046
v -1348 40.642 -1048
v -1348 40.5028 -1050
v -1348 40.3582 -1052
v -1348 40.2083 -1054
v -1348 40.2041 -1056
v -1348 40.4206 -1058
v -1348 40.6358 -1060
v -1348 40.7657 -1062
v -1348 40.8167 -1064
v -1348 40.9276 -1066
v -1348 41.0201 -1068
v -1348 41.0537 -1070
v -1348 41.0525 -1072
v -1348 41.0537 -1074
v -1348 41.0727 -1076
v -1348 40.9728 -1078
v -1348 40.6959 -1080
v -1348 40.3558 -1082
v -1348 40.0685 -1084
v -1348 39.5718 -1086
v -1348 38.9528 -1088
v -1348 38.2431 -1090
v -1346 41.4426 -1028
v -1346 41.3616 -1030
v -1346 41.274 -1032
v -1346 41.18 -1034
v -1346 41.0799 -1036
v -1346 40.9738 -1038
v -1346 40.8619 -1040
v -1346 40.7443 -1042
v -1346 40.6211 -1044
v -1346 40.4924 -1046
v -1346 40.3582 -1048
v -1346 40.2186 -1050
v -1346 40.0737 -1052
v -1346 39.9233 -1054
v -1346 39.7676 -1056
v -1346 39.9692 -1058
v -1346 40.2281 -1060
v -1346 40.4293 -1062
v -1346 40.5579 -1064
v -1346 40.6865 -1066
v -1346 40.8104 -1068
v -1346 40.8826 -1070
v -1346 40.9098 -1072
v -1346 40.9116 -1074
v -1346 40.92 -1076
v -1346 40.8346 -1078
v -1346 40.5824 -1080
v -1346 40.2511 -1082
v -1346 39.9708 -1084
v -1346 39.4744 -1086
v -1346 38.8966 -1088
v -1346 38.1807 -1090
v -1344 41.1486 -1028
v -1344 41.0689 -1030
v -1344 40.9824 -1032
v -1344 40.8894 -1034
v -1344 40.79 -1036
v -1344 40.6845 -1038
v -1344 40.5731 -1040
v -1344 40.4558 -1042
v -1344 40.3328 -1044
v -1344 40.2041 -1046
v -1344 40.0699 -1048
v -1344 39.9302 -1050
v -1344 39.7851 -1052
v -1344 39.6345 -1054
v -1344 39.4785 -1056
v -1344 39.5224 -1058
v -1344 39.7872 -1060
v -1344 40.0444 -1062
v -1344 40.2263 -1064
v -1344 40.3573 -1066
v -1344 40.4871 -1068
v -1344 40.5949 -1070
v -1344 40.6602 -1072
v -1344 40.6571 -1074
v -1344 40.6215 -1076
v -1344 40.5328 -1078
v -1344 40.3208 -1080
v -1344 40.0249 -1082
v -1344 39.6332 -1084
v -1344 39.1953 -1086
v -1344 38.62 -1088
v -1344 37.8887 -1090
v -1342 40.8494 -1028
v -1342 40.7711 -1030
v -1342 40.6858 -1032
v -1342 40.5938 -1034
v -1342 40.4953 -1036
v -1342 40.3906 -1038
v -1342 40.2797 -1040
v -1342 40.1629 -1042
v -1342 40.0402 -1044
v -1342 39.9118 -1046
v -1342 39.7778 -1048
v -1342 39.6382 -1050
v -1342 39.493 -1052
v -1342 39.3424 -1054
v -1342 39.1863 -1056
v -1342 39.0966 -1058
v -1342 39.3399 -1060
v -1342 39.5867 -1062
v -1342 39.8056 -1064
v -1342 39.9704 -1066
v -1342 40.0983 -1068
v -1342 40.2063 -1070
v -1342 40.27 -1072
v -1342 40.2412 -1074
v -1342 40.1586 -1076
v -1342 40.0611 -1078
v -1342 39.8698 -1080
v -1342 39.5294 -1082
v -1342 39.1514 -1084
v -1342 38.7016 -1086
v -1342 38.0736 -1088
v -1342 37.2998 -1090
v -1340 40.5458 -1028
v -1340 40.469 -1030
v -1340 40.385 -1032
v -1340 40.2941 -1034
v -1340 40.1966 -1036
v -1340 40.0927 -1038
v -1340 39.9826 -1040
v -1340 39.8663 -1042
v -1340 39.7442 -1044
v -1340 39.6162 -1046
v -1340 39.4825 -1048
v -1340 39.3431 -1050
v -1340 39.1981 -1052
v -1340 39.0476 -1054
v -1340 38.8916 -1056
v -1340 38.7302 -1058
v -1340 38.9123 -1060
v -1340 39.1362 -1062
v -1340 39.327 -1064
v -1340 39.4722 -1066
v -1340 39.5949 -1068
v -1340 39.6826 -1070
v -1340 39.7048 -1072
v -1340 39.6402 -1074
v -1340 39.5468 -1076
v -1340 39.4556 -1078
v -1340 39.2927 -1080
v -1340 38.9895 -1082
v -1340 38.6245 -1084
v -1340 38.1547 -1086
v -1340 37.4817 -1088
v -1340 36.65 -1090
v -1338 40.2386 -1028
v -1338 40.1632 -1030
v -1338 40.0806 -1032
v -1338 39.991 -1034
v -1338 39.8946 -1036
v -1338 39.7916 -1038
v -1338 39.6823 -1040
v -1338 39.5668 -1042
v -1338 39.4453 -1044
v -1338 39.3179 -1046
v -1338 39.1846 -1048
v -1338 39.0456 -1050
v -1338 38.901 -1052
v -1338 38.7508 -1054
v -1338 38.5951 -1056
v -1338 38.4339 -1058
v -1338 38.4975 -1060
v -1338 38.6809 -1062
v -1338 38.8159 -1064
v -1338 38.933 -1066
v -1338 39.0271 -1068
v -1338 39.0843 -1070
v -1338 39.0762 -1072
v -1338 38.996 -1074
v -1338 38.8905 -1076
v -1338 38.7923 -1078
v -1338 38.6643 -1080
v -1338 38.4275 -1082
v -1338 38.1069 -1084
v -1338 37.6521 -1086
v -1338 36.9832 -1088
v -1338 36.1345 -1090
v -1336 39.9285 -1028
v -1336 39.8547 -1030
v -1336 39.7735 -1032
v -1336 39.6851 -1034
v -1336 39.5899 -1036
v -1336 39.488 -1038
v -1336 39.3796 -1040
v -1336 39.265 -1042
v -1336 39.1442 -1044
v -1336 39.0174 -1046
v -1336 38.8848 -1048
v -1336 38.7464 -1050
v -1336 38.6022 -1052
v -1336 38.4525 -1054
v -1336 38.2972 -1056
v -1336 38.1364 -1058
v -1336 38.0987 -1060
v -1336 38.23 -1062
v -1336 38.3323 -1064
v -1336 38.3883 -1066
v -1336 38.4566 -1068
v -1336 38.5102 -1070
v -1336 38.5071 -1072
v -1336 38.4294 -1074
v -1336 38.3048 -1076
v -1336 38.1891 -1078
v -1336 38.0946 -1080
v -1336 37.9359 -1082
v -1336 37.6536 -1084
v -1336 37.189 -1086
v -1336 36.5015 -1088
v -1336 35.6612 -1090
v -1334 39.6162 -1028
v -1334 39.544 -1030
v -1334 39.4642 -1032
v -1334 39.3772 -1034
v -1334 39.2832 -1036
v -1334 39.1824 -1038
v -1334 39.0751 -1040
v -1334 38.9614 -1042
v -1334 38.8415 -1044
v -1334 38.7156 -1046
v -1334 38.5836 -1048
v -1334 38.4459 -1050
v -1334 38.3024 -1052
v -1334 38.1532 -1054
v -1334 37.9985 -1056
v -1334 37.8382 -1058
v -1334 37.7155 -1060
v -1334 37.7979 -1062
v -1334 37.8752 -1064
v -1334 37.8875 -1066
v -1334 37.9142 -1068
v -1334 37.9659 -1070
v -1334 37.977 -1072
v -1334 37.9138 -1074
v -1334 37.7885 -1076
v -1334 37.6723 -1078
v -1334 37.6066 -1080
v -1334 37.5053 -1082
v -1334 37.2337 -1084
v -1334 36.7249 -1086
v -1334 35.9761 -1088
v -1334 35.1286 -1090
v -1332 39.3007 -1028
v -1332 39.2301 -1030
v -1332 39.1518 -1032
v -1332 39.0662 -1034
v -1332 38.9735 -1036
v -1332 38.874 -1038
v -1332 38.7678 -1040
v -1332 38.6552 -1042
v -1332 38.5362 -1044
v -1332 38.4112 -1046
v -1332 38.2801 -1048
v -1332 38.1432 -1050
v -1332 38.0004 -1052
v -1332 37.852 -1054
v -1332 37.6979 -1056
v -1332 37.5383 -1058
v -1332 37.3733 -1060
v -1332 37.3859 -1062
v -1332 37.4299 -1064
v -1332 37.4625 -1066
v -1332 37.4075 -1068
v -1332 37.4357 -1070
v -1332 37.4371 -1072
v -1332 37.3812 -1074
v -1332 37.2717 -1076
v -1332 37.1672 -1078
v -1332 37.113 -1080
v -1332 37.0346 -1082
v -1332 36.7633 -1084
v -1332 36.2134 -1086
v -1332 35.3891 -1088
v -1332 34.4909 -1090
f 21 6 23
f 21 1 6
f 23 6 8
f 6 7 8
f 7 6 5
f 6 2 5
f 6 1 2
f 20 1 21
f 21 18 20
f 22 18 21
f 23 22 21
f 23 24 22
f 26 24 23
f 23 10 26
f 23 8 10
f 22 48 18
f 18 48 35
f 48 36 35
f 48 50 36
f 48 40 50
f 24 40 48
f 24 48 22
f 7 10 8
f 9 10 7
f 20 18 19
f 19 18 17
f 33 18 35
f 18 33 17
f 40 24 28
f 28 24 26
f 20 3 1
f 19 3 20
f 35 34 33
f 35 36 34
f 4 2 3
f 3 2 1
f 36 50 51
f 50 40 52
f 51 50 52
f 36 51 34
f 37 38 53
f 39 38 37
f 41 38 39
f 41 39 40
f 40 28 41
f 49 30 47
f 49 29 30
f 43 29 49
f 26 27 28
f 41 28 27
f 44 29 43
f 53 38 42
f 44 43 42
f 43 53 42
f 47 30 45
f 26 12 25
f 12 26 10
f 27 26 25
f 15 46 45
f 45 30 15
f 11 12 10
f 11 10 9
f 46 15 13
f 44 42 38
f 31 27 25
f 31 41 27
f 44 38 41
f 25 12 32
f 31 25 32
f 44 41 31
f 29 44 31
f 31 30 29
f 32 12 16
f 16 12 11
f 32 16 30
f 30 16 15
f 32 30 31
f 14 15 16
f 15 14 13
f 16 11 14
f 74 59 76
f 74 54 59
f 76 59 61
f 59 60 61
f 60 59 58
f 59 55 58
f 59 54 55
f 73 54 74
f 74 71 73
f 75 71 74
f 76 75 74
f 76 77 75
f 79 77 76
f 76 63 79
f 76 61 63
f 75 101 71
f 71 101 88
f 101 89 88
f 101 103 89
f 101 93 103
f 77 93 101
f 77 101 75
f 60 63 61
f 62 63 60
f 73 71 72
f 72 71 70
f 86 71 88
f 71 86 70
f 93 77 81
f 81 77 79
f 73 56 54
f 72 56 73
f 88 87 86
f 88 89 87
f 57 55 56
f 56 55 54
f 89 103 104
f 103 93 105
f 104 103 105
f 89 104 87
f 90 91 106
f 92 91 90
f 94 91 92
f 94 92 93
f 93 81 94
f 102 83 100
f 102 82 83
f 96 82 102
f 79 80 81
f 94 81 80
f 97 82 96
f 106 91 95
f 97 96 95
f 96 106 95
f 100 83 98
f 79 65 78
f 65 79 63
f 80 79 78
f 68 99 98
f 98 83 68
f 64 65 63
f 64 63 62
f 99 68 66
f 97 95 91
f 84 80 78
f 84 94 80
f 97 91 94
f 78 65 85
f 84 78 85
f 97 94 84
f 82 97 84
f 84 83 82
f 85 65 69
f 69 65 64
f 85 69 83
f 83 69 68
f 85 83 84
f 67 68 69
f 68 67 66
f 69 64 67
f 127 112 129
f 127 107 112
f 129 112 114
f 112 113 114
f 113 112 111
f 112 108 111
f 112 107 108
f 126 107 127
f 127 124 126
f 128 124 127
f 129 128 127
f 129 130 128
f 132 130 129
f 129 116 132
f 129 114 116
f 128 154 124
f 124 154 141
f 154 142 141
f 154 156 142
f 154 146 156
f 130 146 154
f 130 154 128
f 113 116 114
f 115 116 113
f 126 124 125
f 125 124 123
f 139 124 141
f 124 139 123
f 146 130 134
f 134 130 132
f 126 109 107
f 125 109 126
f 141 140 139
f 141 142 140
f 110 108 109
f 109 108 107
f 142 156 157
f 156 146 158
f 157 156 158
f 142 157 140
f 143 144 159
f 145 144 143
f 147 144 145
f 147 145 146
f 146 134 147
f 155 136 153
f 155 135 136
f 149 135 155
f 132 133 134
f 147 134 133
f 150 135 149
f 159 144 148
f 150 149 148
f 149 159 148
f 153 136 151
f 132 118 131
f 118 132 116
f 133 132 131
f 121 152 151
f 151 136 121
f 117 118 116
f 117 116 115
f 152 121 119
f 150 148 144
f 137 133 131
f 137 147 133
f 150 144 147
f 131 118 138
f 137 131 138
f 150 147 137
f 135 150 137
f 137 136 135
f 138 118 122
f 122 118 117
f 138 122 136
f 136 122 121
f 138 136 137
f 120 121 122
f 121 120 119
f 122 117 120
f 193 192 178
f 160 161 193
f 161 192 193
f 183 188 182
f 183 182 181
f 188 187 182
f 179 178 175
f 192 175 178
f 184 183 181
f 166 169 192
f 192 169 175
f 161 166 192
f 163 162 160
f 162 161 160
f 167 166 161
f 162 167 161
f 176 179 175
f 169 172 175
f 176 175 172
f 170 169 166
f 167 170 166
f 173 172 169
f 170 173 169
f 173 176 172
f 168 167 162
f 168 171 167
f 171 170 167
f 180 179 176
f 164 162 163
f 165 164 163
f 177 180 176
f 189 188 183
f 185 189 183
f 185 183 184
f 186 185 184
f 177 176 173
f 174 173 170
f 171 174 170
f 174 177 173
f 164 168 162
f 177 174 191
f 174 171 191
f 171 168 164
f 191 171 164
f 177 191 190
f 180 177 190
f 191 164 165
f 190 191 165
f 320 318 319
f 319 318 317
f 321 320 319
f 338 339 341
f 341 339 342
f 323 322 321
f 322 320 321
f 342 339 343
f 340 339 338
f 318 316 317
f 317 316 314
f 325 324 323
f 324 322 323
f 343 339 344
f 345 339 340
f 344 339 345
f 327 326 325
f 326 324 325
f 329 328 327
f 316 315 314
f 373 372 358
f 360 373 358
f 374 373 360
f 391 387 390
f 390 387 389
f 358 372 356
f 372 371 356
f 389 387 388
f 328 326 327
f 322 334 320
f 334 333 320
f 320 333 318
f 318 332 316
f 333 332 318
f 356 371 355
f 388 387 386
f 371 370 355
f 392 387 391
f 362 374 360
f 375 374 362
f 332 331 316
f 316 331 315
f 393 387 392
f 386 387 393
f 291 290 275
f 306 307 313
f 297 296 286
f 308 307 306
f 288 297 286
f 360 358 359
f 359 358 357
f 358 356 357
f 362 360 361
f 361 360 359
f 335 334 322
f 324 335 322
f 292 291 276
f 309 307 308
f 276 291 275
f 313 307 312
f 296 295 284
f 286 296 284
f 331 330 315
f 328 337 326
f 310 307 309
f 311 307 310
f 312 307 311
f 364 375 362
f 376 375 364
f 357 356 354
f 356 355 354
f 326 336 324
f 337 336 326
f 377 376 366
f 368 377 366
f 336 335 324
f 363 362 361
f 364 362 363
f 382 379 383
f 381 379 382
f 378 379 381
f 284 295 282
f 295 294 282
f 293 292 278
f 366 376 364
f 278 292 276
f 350 347 349
f 349 347 348
f 351 347 350
f 369 368 367
f 294 293 280
f 280 293 278
f 383 379 384
f 365 364 363
f 366 364 365
f 368 366 367
f 282 294 280
f 380 379 378
f 385 379 380
f 384 379 385
f 367 366 365
f 352 347 351
f 348 347 346
f 223 219 224
f 224 219 225
f 205 204 203
f 207 206 205
f 206 204 205
f 346 347 353
f 353 347 352
f 203 202 201
f 202 200 201
f 222 219 223
f 221 219 222
f 201 200 199
f 204 202 203
f 200 198 199
f 218 219 221
f 199 198 197
f 240 238 239
f 241 240 239
f 239 238 237
f 261 259 262
f 258 259 261
f 276 275 274
f 289 288 287
f 288 286 287
f 242 240 241
f 262 259 263
f 243 242 241
f 225 219 220
f 209 208 207
f 208 206 207
f 220 219 218
f 198 196 197
f 197 196 194
f 278 276 277
f 277 276 274
f 196 195 194
f 287 286 285
f 286 284 285
f 285 284 283
f 284 282 283
f 279 278 277
f 280 278 279
f 260 259 258
f 238 236 237
f 237 236 234
f 283 282 281
f 282 280 281
f 263 259 264
f 245 244 243
f 244 242 243
f 281 280 279
f 264 259 265
f 265 259 260
f 247 246 245
f 246 244 245
f 236 235 234
f 249 248 247
f 300 299 298
f 305 299 300
f 248 246 247
f 242 254 240
f 254 253 240
f 240 253 238
f 304 299 305
f 253 252 238
f 238 252 236
f 298 299 301
f 302 299 303
f 301 299 302
f 303 299 304
f 252 251 236
f 236 251 235
f 255 254 242
f 244 255 242
f 206 216 204
f 208 217 206
f 216 215 204
f 204 215 202
f 217 216 206
f 202 214 200
f 214 213 200
f 200 213 198
f 251 250 235
f 248 257 246
f 215 214 202
f 257 256 246
f 246 256 244
f 256 255 244
f 196 211 195
f 211 210 195
f 213 212 198
f 198 212 196
f 212 211 196
f 270 267 269
f 269 267 268
f 271 267 270
f 272 267 271
f 268 267 266
f 273 267 272
f 266 267 273
f 232 227 231
f 231 227 230
f 233 227 232
f 226 227 233
f 230 227 229
f 229 227 228
f 228 227 226
f 427 395 394
f 394 426 427
f 459 427 426
f 426 458 459
f 491 459 458
f 458 490 491
f 523 491 490
f 490 522 523
f 555 523 522
f 522 554 555
f 587 555 554
f 554 586 587
f 619 587 586
f 586 618 619
f 651 619 618
f 618 650 651
f 683 651 650
f 650 682 683
f 715 683 682
f 682 714 715
f 747 715 714
f 714 746 747
f 779 747 746
f 746 778 779
f 811 779 778
f 778 810 811
f 843 811 810
f 810 842 843
f 875 843 842
f 842 874 875
f 907 875 874
f 874 906 907
f 939 907 906
f 906 938 939
f 971 939 938
f 938 970 971
f 1003 971 970
f 970 1002 1003
f 1035 1003 1002
f 1002 1034 1035
f 1067 1035 1034
f 1034 1066 1067
f 1099 1067 1066
f 1066 1098 1099
f 1131 1099 1098
f 1098 1130 1131
f 1163 1131 1130
f 1130 1162 1163
f 1195 1163 1162
f 1162 1194 1195
f 1227 1195 1194
f 1194 1226 1227
f 1259 1227 1226
f 1226 1258 1259
f 1291 1259 1258
f 1258 1290 1291
f 1323 1291 1290
f 1290 1322 1323
f 1355 1323 1322
f 1322 1354 1355
f 1387 1355 1354
f 1354 1386 1387
f 428 396 395
f 395 427 428
f 460 428 427
f 427 459 460
f 492 460 459
f 459 491 492
f 524 492 491
f 491 523 524
f 556 524 523
f 523 555 556
f 588 556 555
f 555 587 588
f 620 588 587
f 587 619 620
f 652 620 619
f 619 651 652
f 684 652 651
f 651 683 684
f 716 684 683
f 683 715 716
f 748 716 715
f 715 747 748
f 780 748 747
f 747 779 780
f 812 780 779
f 779 811 812
f 844 812 811
f 811 843 844
f 876 844 843
f 843 875 876
f 908 876 875
f 875 907 908
f 940 908 907
f 907 939 940
f 972 940 939
f 939 971 972
f 1004 972 971
f 971 1003 1004
f 1036 1004 1003
f 1003 1035 1036
f 1068 1036 1035
f 1035 1067 1068
f 1100 1068 1067
f 1067 1099 1100
f 1132 1100 1099
f 1099 1131 1132
f 1164 1132 1131
f 1131 1163 1164
f 1196 1164 1163
f 1163 1195 1196
f 1228 1196 1195
f 1195 1227 1228
f 1260 1228 1227
f 1227 1259 1260
f 1292 1260 1259
f 1259 1291 1292
f 1324 1292 1291
f 1291 1323 1324
f 1356 1324 1323
f 1323 1355 1356
f 1388 1356 1355
f 1355 1387 1388
f 429 397 396
f 396 428 429
f 461 429 428
f 428 460 461
f 493 461 460
f 460 492 493
f 525 493 492
f 492 524 525
f 557 525 524
f 524 556 557
f 589 557 556
f 556 588 589
f 621 589 588
f 588 620 621
f 653 621 620
f 620 652 653
f 685 653 652
f 652 684 685
f 717 685 684
f 684 716 717
f 749 717 716
f 716 748 749
f 781 749 748
f 748 780 781
f 813 781 780
f 780 812 813
f 845 813 812
f 812 844 845
f 877 845 844
f 844 876 877
f 909 877 876
f 876 908 909
f 941 909 908
f 908 940 941
f 973 941 940
f 940 972 973
f 1005 973 972
f 972 1004 1005
f 1037 1005 1004
f 1004 1036 1037
f 1069 1037 1036
f 1036 1068 1069
f 1101 1069 1068
f 1068 1100 1101
f 1133 1101 1100
f 1100 1132 1133
f 1165 1133 1132
f 1132 1164 1165
f 1197 1165 1164
f 1164 1196 1197
f 1229 1197 1196
f 1196 1228 1229
f 1261 1229 1228
f 1228 1260 1261
f 1293 1261 1260
f 1260 1292 1293
f 1325 1293 1292
f 1292 1324 1325
f 1357 1325 1324
f 1324 1356 1357
f 1389 1357 1356
f 1356 1388 1389
f 430 398 397
f 397 429 430
f 462 430 429
f 429 461 462
f 494 462 461
f 461 493 494
f 526 494 493
f 493 525 526
f 558 526 525
f 525 557 558
f 590 558 557
f 557 589 590
f 622 590 589
f 589 621 622
f 654 622 621
f 621 653 654
f 686 654 653
f 653 685 686
f 718 686 685
f 685 717 718
f 750 718 717
f 717 749 750
f 782 750 749
f 749 781 782
f 814 782 781
f 781 813 814
f 846 814 813
f 813 845 846
f 878 846 845
f 845 877 878
f 910 878 877
f 877 909 910
f 942 910 909
f 909 941 942
f 974 942 941
f 941 973 974
f 1006 974 973
f 973 1005 1006
f 1038 1006 1005
f 1005 1037 1038
f 1070 1038 1037
f 1037 1069 1070
f 1102 1070 1069
f 1069 1101 1102
f 1134 1102 1101
f 1101 1133 1134
f 1166 1134 1133
f 1133 1165 1166
f 1198 1166 1165
f 1165 1197 1198
f 1230 1198 1197
f 1197 1229 1230
f 1262 1230 1229
f 1229 1261 1262
f 1294 1262 1261
f 1261 1293 1294
f 1326 1294 1293
f 1293 1325 1326
f 1358 1326 1325
f 1325 1357 1358
f 1390 1358 1357
f 1357 1389 1390
f 431 399 398
f 398 430 431
f 463 431 430
f 430 462 463
f 495 463 462
f 462 494 495
f 527 495 494
f 494 526 527
f 559 527 526
f 526 558 559
f 591 559 558
f 558 590 591
f 623 591 590
f 590 622 623
f 655 623 622
f 622 654 655
f 687 655 654
f 654 686 687
f 719 687 686
f 686 718 719
f 751 719 718
f 718 750 751
f 783 751 750
f 750 782 783
f 815 783 782
f 782 814 815
f 847 815 814
f 814 846 847
f 879 847 846
f 846 878 879
f 911 879 878
f 878 910 911
f 943 911 910
f 910 942 943
f 975 943 942
f 942 974 975
f 1007 975 974
f 974 1006 1007
f 1039 1007 1006
f 1006 1038 1039
f 1071 1039 1038
f 1038 1070 1071
f 1103 1071 1070
f 1070 1102 1103
f 1135 1103 1102
f 1102 1134 1135
f 1167 1135 1134
f 1134 1166 1167
f 1199 1167 1166
f 1166 1198 1199
f 1231 1199 1198
f 1198 1230 1231
f 1263 1231 1230
f 1230 1262 1263
f 1295 1263 1262
f 1262 1294 1295
f 1327 1295 1294
f 1294 1326 1327
f 1359 1327 1326
f 1326 1358 1359
f 1391 1359 1358
f 1358 1390 1391
f 432 400 399
f 399 431 432
f 464 432 431
f 431 463 464
f 496 464 463
f 463 495 496
f 528 496 495
f 495 527 528
f 560 528 527
f 527 559 560
f 592 560 559
f 559 591 592
f 624 592 591
f 591 623 624
f 656 624 623
f 623 655 656
f 688 656 655
f 655 687 688
f 720 688 687
f 687 719 720
f 752 720 719
f 719 751 752
f 784 752 751
f 751 783 784
f 816 784 783
f 783 815 816
f 848 816 815
f 815 847 848
f 880 848 847
f 847 879 880
f 912 880 879
f 879 911 912
f 944 912 911
f 911 943 944
f 976 944 943
f 943 975 976
f 1008 976 975
f 975 1007 1008
f 1040 1008 1007
f 1007 1039 1040
f 1072 1040 1039
f 1039 1071 1072
f 1104 1072 1071
f 1071 1103 1104
f 1136 1104 1103
f 1103 1135 1136
f 1168 1136 1135
f 1135 1167 1168
f 1200 1168 1167
f 1167 1199 1200
f 1232 1200 1199
f 1199 1231 1232
f 1264 1232 1231
f 1231 1263 1264
f 1296 1264 1263
f 1263 1295 1296
f 1328 1296 1295
f 1295 1327 1328
f 1360 1328 1327
f 1327 1359 1360
f 1392 1360 1359
f 1359 1391 1392
f 433 401 400
f 400 432 433
f 465 433 432
f 432 464 465
f 497 465 464
f 464 496 497
f 529 497 496
f 496 528 529
f 561 529 528
f 528 560 561
f 593 561 560
f 560 592 593
f 625 593 592
f 592 624 625
f 657 625 624
f 624 656 657
f 689 657 656
f 656 688 689
f 721 689 688
f 688 720 721
f 753 721 720
f 720 752 753
f 785 753 752
f 752 784 785
f 817 785 784
f 784 816 817
f 849 817 816
f 816 848 849
f 881 849 848
f 848 880 881
f 913 881 880
f 880 912 913
f 945 913 912
f 912 944 945
f 977 945 944
f 944 976 977
f 1009 977 976
f 976 1008 1009
f 1041 1009 1008
f 1008 1040 1041
f 1073 1041 1040
f 1040 1072 1073
f 1105 1073 1072
f 1072 1104 1105
f 1137 1105 1104
f 1104 1136 1137
f 1169 1137 1136
f 1136 1168 1169
f 1201 1169 1168
f 1168 1200 1201
f 1233 1201 1200
f 1200 1232 1233
f 1265 1233 1232
f 1232 1264 1265
f 1297 1265 1264
f 1264 1296 1297
f 1329 1297 1296
f 1296 1328 1329
f 1361 1329 1328
f 1328 1360 1361
f 1393 1361 1360
f 1360 1392 1393
f 434 402 401
f 401 433 434
f 466 434 433
f 433 465 466
f 498 466 465
f 465 497 498
f 530 498 497
f 497 529 530
f 562 530 529
f 529 561 562
f 594 562 561
f 561 593 594
f 626 594 593
f 593 625 626
f 658 626 625
f 625 657 658
f 690 658 657
f 657 689 690
f 722 690 689
f 689 721 722
f 754 722 721
f 721 753 754
f 786 754 753
f 753 785 786
f 818 786 785
f 785 817 818
f 850 818 817
f 817 849 850
f 882 850 849
f 849 881 882
f 914 882 881
f 881 913 914
f 946 914 913
f 913 945 946
f 978 946 945
f 945 977 978
f 1010 978 977
f 977 1009 1010
f 1042 1010 1009
f 1009 1041 1042
f 1074 1042 1041
f 1041 1073 1074
f 1106 1074 1073
f 1073 1105 1106
f 1138 1106 1105
f 1105 1137 1138
f 1170 1138 1137
f 1137 1169 1170
f 1202 1170 1169
f 1169 1201 1202
f 1234 1202 1201
f 1201 1233 1234
f 1266 1234 1233
f 1233 1265 1266
f 1298 1266 1265
f 1265 1297 1298
f 1330 1298 1297
f 1297 1329 1330
f 1362 1330 1329
f 1329 1361 1362
f 1394 1362 1361
f 1361 1393 1394
f 435 403 402
f 402 434 435
f 467 435 434
f 434 466 467
f 499 467 466
f 466 498 499
f 531 499 498
f 498 530 531
f 563 531 530
f 530 562 563
f 595 563 562
f 562 594 595
f 627 595 594
f 594 626 627
f 659 627 626
f 626 658 659
f 691 659 658
f 658 690 691
f 723 691 690
f 690 722 723
f 755 723 722
f 722 754 755
f 787 755 754
f 754 786 787
f 819 787 786
f 786 818 819
f 851 819 818
f 818 850 851
f 883 851 850
f 850 882 883
f 915 883 882
f 882 914 915
f 947 915 914
f 914 946 947
f 979 947 946
f 946 978 979
f 1011 979 978
f 978 1010 1011
f 1043 1011 1010
f 1010 1042 1043
f 1075 1043 1042
f 1042 1074 1075
f 1107 1075 1074
f 1074 1106 1107
f 1139 1107 1106
f 1106 1138 1139
f 1171 1139 1138
f 1138 1170 1171
f 1203 1171 1170
f 1170 1202 1203
f 1235 1203 1202
f 1202 1234 1235
f 1267 1235 1234
f 1234 1266 1267
f 1299 1267 1266
f 1266 1298 1299
f 1331 1299 1298
f 1298 1330 1331
f 1363 1331 1330
f 1330 1362 1363
f 1395 1363 1362
f 1362 1394 1395
f 436 404 403
f 403 435 436
f 468 436 435
f 435 467 468
f 500 468 467
f 467 499 500
f 532 500 499
f 499 531 532
f 564 532 531
f 531 563 564
f 596 564 563
f 563 595 596
f 628 596 595
f 595 627 628
f 660 628 627
f 627 659 660
f 692 660 659
f 659 691 692
f 724 692 691
f 691 723 724
f 756 724 723
f 723 755 756
f 788 756 755
f 755 787 788
f 820 788 787
f 787 819 820
f 852 820 819
f 819 851 852
f 884 852 851
f 851 883 884
f 916 884 883
f 883 915 916
f 948 916 915
f 915 947 948
f 980 948 947
f 947 979 980
f 1012 980 979
f 979 1011 1012
f 1044 1012 1011
f 1011 1043 1044
f 1076 1044 1043
f 1043 1075 1076
f 1108 1076 1075
f 1075 1107 1108
f 1140 1108 1107
f 1107 1139 1140
f 1172 1140 1139
f 1139 1171 1172
f 1204 1172 1171
f 1171 1203 1204
f 1236 1204 1203
f 1203 1235 1236
f 1268 1236 1235
f 1235 1267 1268
f 1300 1268 1267
f 1267 1299 1300
f 1332 1300 1299
f 1299 1331 1332
f 1364 1332 1331
f 1331 1363 1364
f 1396 1364 1363
f 1363 1395 1396
f 437 405 404
f 404 436 437
f 469 437 436
f 436 468 469
f 501 469 468
f 468 500 501
f 533 501 500
f 500 532 533
f 565 533 532
f 532 564 565
f 597 565 564
f 564 596 597
f 629 597 596
f 596 628 629
f 661 629 628
f 628 660 661
f 693 661 660
f 660 692 693
f 725 693 692
f 692 724 725
f 757 725 724
f 724 756 757
f 789 757 756
f 756 788 789
f 821 789 788
f 788 820 821
f 853 821 820
f 820 852 853
f 885 853 852
f 852 884 885
f 917 885 884
f 884 916 917
f 949 917 916
f 916 948 949
f 981 949 948
f 948 980 981
f 1013 981 980
f 980 1012 1013
f 1045 1013 1012
f 1012 1044 1045
f 1077 1045 1044
f 1044 1076 1077
f 1109 1077 1076
f 1076 1108 1109
f 1141 1109 1108
f 1108 1140 1141
f 1173 1141 1140
f 1140 1172 1173
f 1205 1173 1172
f 1172 1204 1205
f 1237 1205 1204
f 1204 1236 1237
f 1269 1237 1236
f 1236 1268 1269
f 1301 1269 1268
f 1268 1300 1301
f 1333 1301 1300
f 1300 1332 1333
f 1365 1333 1332
f 1332 1364 1365
f 1397 1365 1364
f 1364 1396 1397
f 438 406 405
f 405 437 438
f 470 438 437
f 437 469 470
f 502 470 469
f 469 501 502
f 534 502 501
f 501 533 534
f 566 534 533
f 533 565 566
f 598 566 565
f 565 597 598
f 630 598 597
f 597 629 630
f 662 630 629
f 629 661 662
f 694 662 661
f 661 693 694
f 726 694 693
f 693 725 726
f 758 726 725
f 725 757 758
f 790 758 757
f 757 789 790
f 822 790 789
f 789 821 822
f 854 822 821
f 821 853 854
f 886 854 853
f 853 885 886
f 918 886 885
f 885 917 918
f 950 918 917
f 917 949 950
f 982 950 949
f 949 981 982
f 1014 982 981
f 981 1013 1014
f 1046 1014 1013
f 1013 1045 1046
f 1078 1046 1045
f 1045 1077 1078
f 1110 1078 1077
f 1077 1109 1110
f 1142 1110 1109
f 1109 1141 1142
f 1174 1142 1141
f 1141 1173 1174
f 1206 1174 1173
f 1173 1205 1206
f 1238 1206 1205
f 1205 1237 1238
f 1270 1238 1237
f 1237 1269 1270
f 1302 1270 1269
f 1269 1301 1302
f 1334 1302 1301
f 1301 1333 1334
f 1366 1334 1333
f 1333 1365 1366
f 1398 1366 1365
f 1365 1397 1398
f 439 407 406
f 406 438 439
f 471 439 438
f 438 470 471
f 503 471 470
f 470 502 503
f 535 503 502
f 502 534 535
f 567 535 534
f 534 566 567
f 599 567 566
f 566 598 599
f 631 599 598
f 598 630 631
f 663 631 630
f 630 662 663
f 695 663 662
f 662 694 695
f 727 695 694
f 694 726 727
f 759 727 726
f 726 758 759
f 791 759 758
f 758 790 791
f 823 791 790
f 790 822 823
f 855 823 822
f 822 854 855
f 887 855 854
f 854 886 887
f 919 887 886
f 886 918 919
f 951 919 918
f 918 950 951
f 983 951 950
f 950 982 983
f 1015 983 982
f 982 1014 1015
f 1047 1015 1014
f 1014 1046 1047
f 1079 1047 1046
f 1046 1078 1079
f 1111 1079 1078
f 1078 1110 1111
f 1143 1111 1110
f 1110 1142 1143
f 1175 1143 1142
f 1142 1174 1175
f 1207 1175 1174
f 1174 1206 1207
f 1239 1207 1206
f 1206 1238 1239
f 1271 1239 1238
f 1238 1270 1271
f 1303 1271 1270
f 1270 1302 1303
f 1335 1303 1302
f 1302 1334 1335
f 1367 1335 1334
f 1334 1366 1367
f 1399 1367 1366
f 1366 1398 1399
f 440 408 407
f 407 439 440
f 472 440 439
f 439 471 472
f 504 472 471
f 471 503 504
f 536 504 503
f 503 535 536
f 568 536 535
f 535 567 568
f 600 568 567
f 567 599 600
f 632 600 599
f 599 631 632
f 664 632 631
f 631 663 664
f 696 664 663
f 663 695 696
f 728 696 695
f 695 727 728
f 760 728 727
f 727 759 760
f 792 760 759
f 759 791 792
f 824 792 791
f 791 823 824
f 856 824 823
f 823 855 856
f 888 856 855
f 855 887 888
f 920 888 887
f 887 919 920
f 952 920 919
f 919 951 952
f 984 952 951
f 951 983 984
f 1016 984 983
f 983 1015 1016
f 1048 1016 1015
f 1015 1047 1048
f 1080 1048 1047
f 1047 1079 1080
f 1112 1080 1079
f 1079 1111 1112
f 1144 1112 1111
f 1111 1143 1144
f 1176 1144 1143
f 1143 1175 1176
f 1208 1176 1175
f 1175 1207 1208
f 1240 1208 1207
f 1207 1239 1240
f 1272 1240 1239
f 1239 1271 1272
f 1304 1272 1271
f 1271 1303 1304
f 1336 1304 1303
f 1303 1335 1336
f 1368 1336 1335
f 1335 1367 1368
f 1400 1368 1367
f 1367 1399 1400
f 441 409 408
f 408 440 441
f 473 441 440
f 440 472 473
f 505 473 472
f 472 504 505
f 537 505 504
f 504 536 537
f 569 537 536
f 536 568 569
f 601 569 568
f 568 600 601
f 633 601 600
f 600 632 633
f 665 633 632
f 632 664 665
f 697 665 664
f 664 696 697
f 729 697 696
f 696 728 729
f 761 729 728
f 728 760 761
f 793 761 760
f 760 792 793
f 825 793 792
f 792 824 825
f 857 825 824
f 824 856 857
f 889 857 856
f 856 888 889
f 921 889 888
f 888 920 921
f 953 921 920
f 920 952 953
f 985 953 952
f 952 984 985
f 1017 985 984
f 984 1016 1017
f 1049 1017 1016
f 1016 1048 1049
f 1081 1049 1048
f 1048 1080 1081
f 1113 1081 1080
f 1080 1112 1113
f 1145 1113 1112
f 1112 1144 1145
f 1177 1145 1144
f 1144 1176 1177
f 1209 1177 1176
f 1176 1208 1209
f 1241 1209 1208
f 1208 1240 1241
f 1273 1241 1240
f 1240 1272 1273
f 1305 1273 1272
f 1272 1304 1305
f 1337 1305 1304
f 1304 1336 1337
f 1369 1337 1336
f 1336 1368 1369
f 1401 1369 1368
f 1368 1400 1401
f 442 410 409
f 409 441 442
f 474 442 441
f 441 473 474
f 506 474 473
f 473 505 506
f 538 506 505
f 505 537 538
f 570 538 537
f 537 569 570
f 602 570 569
f 569 601 602
f 634 602 601
f 601 633 634
f 666 634 633
f 633 665 666
f 698 666 665
f 665 697 698
f 730 698 697
f 697 729 730
f 762 730 729
f 729 761 762
f 794 762 761
f 761 793 794
f 826 794 793
f 793 825 826
f 858 826 825
f 825 857 858
f 890 858 857
f 857 889 890
f 922 890 889
f 889 921 922
f 954 922 921
f 921 953 954
f 986 954 953
f 953 985 986
f 1018 986 985
f 985 1017 1018
f 1050 1018 1017
f 1017 1049 1050
f 1082 1050 1049
f 1049 1081 1082
f 1114 1082 1081
f 1081 1113 1114
f 1146 1114 1113
f 1113 1145 1146
f 1178 1146 1145
f 1145 1177 1178
f 1210 1178 1177
f 1177 1209 1210
f 1242 1210 1209
f 1209 1241 1242
f 1274 1242 1241
f 1241 1273 1274
f 1306 1274 1273
f 1273 1305 1306
f 1338 1306 1305
f 1305 1337 1338
f 1370 1338 1337
f 1337 1369 1370
f 1402 1370 1369
f 1369 1401 1402
f 443 411 410
f 410 442 443
f 475 443 442
f 442 474 475
f 507 475 474
f 474 506 507
f 539 507 506
f 506 538 539
f 571 539 538
f 538 570 571
f 603 571 570
f 570 602 603
f 635 603 602
f 602 634 635
f 667 635 634
f 634 666 667
f 699 667 666
f 666 698 699
f 731 699 698
f 698 730 731
f 763 731 730
f 730 762 763
f 795 763 762
f 762 794 795
f 827 795 794
f 794 826 827
f 859 827 826
f 826 858 859
f 891 859 858
f 858 890 891
f 923 891 890
f 890 922 923
f 955 923 922
f 922 954 955
f 987 955 954
f 954 986 987
f 1019 987 986
f 986 1018 1019
f 1051 1019 1018
f 1018 1050 1051
f 1083 1051 1050
f 1050 1082 1083
f 1115 1083 1082
f 1082 1114 1115
f 1147 1115 1114
f 1114 1146 1147
f 1179 1147 1146
f 1146 1178 1179
f 1211 1179 1178
f 1178 1210 1211
f 1243 1211 1210
f 1210 1242 1243
f 1275 1243 1242
f 1242 1274 1275
f 1307 1275 1274
f 1274 1306 1307
f 1339 1307 1306
f 1306 1338 1339
f 1371 1339 1338
f 1338 1370 1371
f 1403 1371 1370
f 1370 1402 1403
f 444 412 411
f 411 443 444
f 476 444 443
f 443 475 476
f 508 476 475
f 475 507 508
f 540 508 507
f 507 539 540
f 572 540 539
f 539 571 572
f 604 572 571
f 571 603 604
f 636 604 603
f 603 635 636
f 668 636 635
f 635 667 668
f 700 668 667
f 667 699 700
f 732 700 699
f 699 731 732
f 764 732 731
f 731 763 764
f 796 764 763
f 763 795 796
f 828 796 795
f 795 827 828
f 860 828 827
f 827 859 860
f 892 860 859
f 859 891 892
f 924 892 891
f 891 923 924
f 956 924 923
f 923 955 956
f 988 956 955
f 955 987 988
f 1020 988 987
f 987 1019 1020
f 1052 1020 1019
f 1019 1051 1052
f 1084 1052 1051
f 1051 1083 1084
f 1116 1084 1083
f 1083 1115 1116
f 1148 1116 1115
f 1115 1147 1148
f 1180 1148 1147
f 1147 1179 1180
f 1212 1180 1179
f 1179 1211 1212
f 1244 1212 1211
f 1211 1243 1244
f 1276 1244 1243
f 1243 1275 1276
f 1308 1276 1275
f 1275 1307 1308
f 1340 1308 1307
f 1307 1339 1340
f 1372 1340 1339
f 1339 1371 1372
f 1404 1372 1371
f 1371 1403 1404
f 445 413 412
f 412 444 445
f 477 445 444
f 444 476 477
f 509 477 476
f 476 508 509
f 541 509 508
f 508 540 541
f 573 541 540
f 540 572 573
f 605 573 572
f 572 604 605
f 637 605 604
f 604 636 637
f 669 637 636
f 636 668 669
f 701 669 668
f 668 700 701
f 733 701 700
f 700 732 733
f 765 733 732
f 732 764 765
f 797 765 764
f 764 796 797
f 829 797 796
f 796 828 829
f 861 829 828
f 828 860 861
f 893 861 860
f 860 892 893
f 925 893 892
f 892 924 925
f 957 925 924
f 924 956 957
f 989 957 956
f 956 988 989
f 1021 989 988
f 988 1020 1021
f 1053 1021 1020
f 1020 1052 1053
f 1085 1053 1052
f 1052 1084 1085
f 1117 1085 1084
f 1084 1116 1117
f 1149 1117 1116
f 1116 1148 1149
f 1181 1149 1148
f 1148 1180 1181
f 1213 1181 1180
f 1180 1212 1213
f 1245 1213 1212
f 1212 1244 1245
f 1277 1245 1244
f 1244 1276 1277
f 1309 1277 1276
f 1276 1308 1309
f 1341 1309 1308
f 1308 1340 1341
f 1373 1341 1340
f 1340 1372 1373
f 1405 1373 1372
f 1372 1404 1405
f 446 414 413
f 413 445 446
f 478 446 445
f 445 477 478
f 510 478 477
f 477 509 510
f 542 510 509
f 509 541 542
f 574 542 541
f 541 573 574
f 606 574 573
f 573 605 606
f 638 606 605
f 605 637 638
f 670 638 637
f 637 669 670
f 702 670 669
f 669 701 702
f 734 702 701
f 701 733 734
f 766 734 733
f 733 765 766
f 798 766 765
f 765 797 798
f 830 798 797
f 797 829 830
f 862 830 829
f 829 861 862
f 894 862 861
f 861 893 894
f 926 894 893
f 893 925 926
f 958 926 925
f 925 957 958
f 990 958 957
f 957 989 990
f 1022 990 989
f 989 1021 1022
f 1054 1022 1021
f 1021 1053 1054
f 1086 1054 1053
f 1053 1085 1086
f 1118 1086 1085
f 1085 1117 1118
f 1150 1118 1117
f 1117 1149 1150
f 1182 1150 1149
f 1149 1181 1182
f 1214 1182 1181
f 1181 1213 1214
f 1246 1214 1213
f 1213 1245 1246
f 1278 1246 1245
f 1245 1277 1278
f 1310 1278 1277
f 1277 1309 1310
f 1342 1310 1309
f 1309 1341 1342
f 1374 1342 1341
f 1341 1373 1374
f 1406 1374 1373
f 1373 1405 1406
f 447 415 414
f 414 446 447
f 479 447 446
f 446 478 479
f 511 479 478
f 478 510 511
f 543 511 510
f 510 542 543
f 575 543 542
f 542 574 575
f 607 575 574
f 574 606 607
f 639 607 606
f 606 638 639
f 671 639 638
f 638 670 671
f 703 671 670
f 670 702 703
f 735 703 702
f 702 734 735
f 767 735 734
f 734 766 767
f 799 767 766
f 766 798 799
f 831 799 798
f 798 830 831
f 863 831 830
f 830 862 863
f 895 863 862
f 862 894 895
f 927 895 894
f 894 926 927
f 959 927 926
f 926 958 959
f 991 959 958
f 958 990 991
f 1023 991 990
f 990 1022 1023
f 1055 1023 1022
f 1022 1054 1055
f 1087 1055 1054
f 1054 1086 1087
f 1119 1087 1086
f 1086 1118 1119
f 1151 1119 1118
f 1118 1150 1151
f 1183 1151 1150
f 1150 1182 1183
f 1215 1183 1182
f 1182 1214 1215
f 1247 1215 1214
f 1214 1246 1247
f 1279 1247 1246
f 1246 1278 1279
f 1311 1279 1278
f 1278 1310 1311
f 1343 1311 1310
f 1310 1342 1343
f 1375 1343 1342
f 1342 1374 1375
f 1407 1375 1374
f 1374 1406 1407
f 448 416 415
f 415 447 448
f 480 448 447
f 447 479 480
f 512 480 479
f 479 511 512
f 544 512 511
f 511 543 544
f 576 544 543
f 543 575 576
f 608 576 575
f 575 607 608
f 640 608 607
f 607 639 640
f 672 640 639
f 639 671 672
f 704 672 671
f 671 703 704
f 736 704 703
f 703 735 736
f 768 736 735
f 735 767 768
f 800 768 767
f 767 799 800
f 832 800 799
f 799 831 832
f 864 832 831
f 831 863 864
f 896 864 863
f 863 895 896
f 928 896 895
f 895 927 928
f 960 928 927
f 927 959 960
f 992 960 959
f 959 991 992
f 1024 992 991
f 991 1023 1024
f 1056 1024 1023
f 1023 1055 1056
f 1088 1056 1055
f 1055 1087 1088
f 1120 1088 1087
f 1087 1119 1120
f 1152 1120 1119
f 1119 1151 1152
f 1184 1152 1151
f 1151 1183 1184
f 1216 1184 1183
f 1183 1215 1216
f 1248 1216 1215
f 1215 1247 1248
f 1280 1248 1247
f 1247 1279 1280
f 1312 1280 1279
f 1279 1311 1312
f 1344 1312 1311
f 1311 1343 1344
f 1376 1344 1343
f 1343 1375 1376
f 1408 1376 1375
f 1375 1407 1408
f 449 417 416
f 416 448 449
f 481 449 448
f 448 480 481
f 513 481 480
f 480 512 513
f 545 513 512
f 512 544 545
f 577 545 544
f 544 576 577
f 609 577 576
f 576 608 609
f 641 609 608
f 608 640 641
f 673 641 640
f 640 672 673
f 705 673 672
f 672 704 705
f 737 705 704
f 704 736 737
f 769 737 736
f 736 768 769
f 801 769 768
f 768 800 801
f 833 801 800
f 800 832 833
f 865 833 832
f 832 864 865
f 897 865 864
f 864 896 897
f 929 897 896
f 896 928 929
f 961 929 928
f 928 960 961
f 993 961 960
f 960 992 993
f 1025 993 992
f 992 1024 1025
f 1057 1025 1024
f 1024 1056 1057
f 1089 1057 1056
f 1056 1088 1089
f 1121 1089 1088
f 1088 1120 1121
f 1153 1121 1120
f 1120 1152 1153
f 1185 1153 1152
f 1152 1184 1185
f 1217 1185 1184
f 1184 1216 1217
f 1249 1217 1216
f 1216 1248 1249
f 1281 1249 1248
f 1248 1280 1281
f 1313 1281 1280
f 1280 1312 1313
f 1345 1313 1312
f 1312 1344 1345
f 1377 1345 1344
f 1344 1376 1377
f 1409 1377 1376
f 1376 1408 1409
f 450 418 417
f 417 449 450
f 482 450 449
f 449 481 482
f 514 482 481
f 481 513 514
f 546 514 513
f 513 545 546
f 578 546 545
f 545 577 578
f 610 578 577
f 577 609 610
f 642 610 609
f 609 641 642
f 674 642 641
f 641 673 674
f 706 674 673
f 673 705 706
f 738 706 705
f 705 737 738
f 770 738 737
f 737 769 770
f 802 770 769
f 769 801 802
f 834 802 801
f 801 833 834
f 866 834 833
f 833 865 866
f 898 866 865
f 865 897 898
f 930 898 897
f 897 929 930
f 962 930 929
f 929 961 962
f 994 962 961
f 961 993 994
f 1026 994 993
f 993 1025 1026
f 1058 1026 1025
f 1025 1057 1058
f 1090 1058 1057
f 1057 1089 1090
f 1122 1090 1089
f 1089 1121 1122
f 1154 1122 1121
f 1121 1153 1154
f 1186 1154 1153
f 1153 1185 1186
f 1218 1186 1185
f 1185 1217 1218
f 1250 1218 1217
f 1217 1249 1250
f 1282 1250 1249
f 1249 1281 1282
f 1314 1282 1281
f 1281 1313 1314
f 1346 1314 1313
f 1313 1345 1346
f 1378 1346 1345
f 1345 1377 1378
f 1410 1378 1377
f 1377 1409 1410
f 451 419 418
f 418 450 451
f 483 451 450
f 450 482 483
f 515 483 482
f 482 514 515
f 547 515 514
f 514 546 547
f 579 547 546
f 546 578 579
f 611 579 578
f 578 610 611
f 643 611 610
f 610 642 643
f 675 643 642
f 642 674 675
f 707 675 674
f 674 706 707
f 739 707 706
f 706 738 739
f 771 739 738
f 738 770 771
f 803 771 770
f 770 802 803
f 835 803 802
f 802 834 835
f 867 835 834
f 834 866 867
f 899 867 866
f 866 898 899
f 931 899 898
f 898 930 931
f 963 931 930
f 930 962 963
f 995 963 962
f 962 994 995
f 1027 995 994
f 994 1026 1027
f 1059 1027 1026
f 1026 1058 1059
f 1091 1059 1058
f 1058 1090 1091
f 1123 1091 1090
f 1090 1122 1123
f 1155 1123 1122
f 1122 1154 1155
f 1187 1155 1154
f 1154 1186 1187
f 1219 1187 1186
f 1186 1218 1219
f 1251 1219 1218
f 1218 1250 1251
f 1283 1251 1250
f 1250 1282 1283
f 1315 1283 1282
f 1282 1314 1315
f 1347 1315 1314
f 1314 1346 1347
f 1379 1347 1346
f 1346 1378 1379
f 1411 1379 1378
f 1378 1410 1411
f 452 420 419
f 419 451 452
f 484 452 451
f 451 483 484
f 516 484 483
f 483 515 516
f 548 516 515
f 515 547 548
f 580 548 547
f 547 579 580
f 612 580 579
f 579 611 612
f 644 612 611
f 611 643 644
f 676 644 643
f 643 675 676
f 708 676 675
f 675 707 708
f 740 708 707
f 707 739 740
f 772 740 739
f 739 771 772
f 804 772 771
f 771 803 804
f 836 804 803
f 803 835 836
f 868 836 835
f 835 867 868
f 900 868 867
f 867 899 900
f 932 900 899
f 899 931 932
f 964 932 931
f 931 963 964
f 996 964 963
f 963 995 996
f 1028 996 995
f 995 1027 1028
f 1060 1028 1027
f 1027 1059 1060
f 1092 1060 1059
f 1059 1091 1092
f 1124 1092 1091
f 1091 1123 1124
f 1156 1124 1123
f 1123 1155 1156
f 1188 1156 1155
f 1155 1187 1188
f 1220 1188 1187
f 1187 1219 1220
f 1252 1220 1219
f 1219 1251 1252
f 1284 1252 1251
f 1251 1283 1284
f 1316 1284 1283
f 1283 1315 1316
f 1348 1316 1315
f 1315 1347 1348
f 1380 1348 1347
f 1347 1379 1380
f 1412 1380 1379
f 1379 1411 1412
f 453 421 420
f 420 452 453
f 485 453 452
f 452 484 485
f 517 485 484
f 484 516 517
f 549 517 516
f 516 548 549
f 581 549 548
f 548 580 581
f 613 581 580
f 580 612 613
f 645 613 612
f 612 644 645
f 677 645 644
f 644 676 677
f 709 677 676
f 676 708 709
f 741 709 708
f 708 740 741
f 773 741 740
f 740 772 773
f 805 773 772
f 772 804 805
f 837 805 804
f 804 836 837
f 869 837 836
f 836 868 869
f 901 869 868
f 868 900 901
f 933 901 900
f 900 932 933
f 965 933 932
f 932 964 965
f 997 965 964
f 964 996 997
f 1029 997 996
f 996 1028 1029
f 1061 1029 1028
f 1028 1060 1061
f 1093 1061 1060
f 1060 1092 1093
f 1125 1093 1092
f 1092 1124 1125
f 1157 1125 1124
f 1124 1156 1157
f 1189 1157 1156
f 1156 1188 1189
f 1221 1189 1188
f 1188 1220 1221
f 1253 1221 1220
f 1220 1252 1253
f 1285 1253 1252
f 1252 1284 1285
f 1317 1285 1284
f 1284 1316 1317
f 1349 1317 1316
f 1316 1348 1349
f 1381 1349 1348
f 1348 1380 1381
f 1413 1381 1380
f 1380 1412 1413
f 454 422 421
f 421 453 454
f 486 454 453
f 453 485 486
f 518 486 485
f 485 517 518
f 550 518 517
f 517 549 550
f 582 550 549
f 549 581 582
f 614 582 581
f 581 613 614
f 646 614 613
f 613 645 646
f 678 646 645
f 645 677 678
f 710 678 677
f 677 709 710
f 742 710 709
f 709 741 742
f 774 742 741
f 741 773 774
f 806 774 773
f 773 805 806
f 838 806 805
f 805 837 838
f 870 838 837
f 837 869 870
f 902 870 869
f 869 901 902
f 934 902 901
f 901 933 934
f 966 934 933
f 933 965 966
f 998 966 965
f 965 997 998
f 1030 998 997
f 997 1029 1030
f 1062 1030 1029
f 1029 1061 1062
f 1094 1062 1061
f 1061 1093 1094
f 1126 1094 1093
f 1093 1125 1126
f 1158 1126 1125
f 1125 1157 1158
f 1190 1158 1157
f 1157 1189 1190
f 1222 1190 1189
f 1189 1221 1222
f 1254 1222 1221
f 1221 1253 1254
f 1286 1254 1253
f 1253 1285 1286
f 1318 1286 1285
f 1285 1317 1318
f 1350 1318 1317
f 1317 1349 1350
f 1382 1350 1349
f 1349 1381 1382
f 1414 1382 1381
f 1381 1413 1414
f 455 423 422
f 422 454 455
f 487 455 454
f 454 486 487
f 519 487 486
f 486 518 519
f 551 519 518
f 518 550 551
f 583 551 550
f 550 582 583
f 615 583 582
f 582 614 615
f 647 615 614
f 614 646 647
f 679 647 646
f 646 678 679
f 711 679 678
f 678 710 711
f 743 711 710
f 710 742 743
f 775 743 742
f 742 774 775
f 807 775 774
f 774 806 807
f 839 807 806
f 806 838 839
f 871 839 838
f 838 870 871
f 903 871 870
f 870 902 903
f 935 903 902
f 902 934 935
f 967 935 934
f 934 966 967
f 999 967 966
f 966 998 999
f 1031 999 998
f 998 1030 1031
f 1063 1031 1030
f 1030 1062 1063
f 1095 1063 1062
f 1062 1094 1095
f 1127 1095 1094
f 1094 1126 1127
f 1159 1127 1126
f 1126 1158 1159
f 1191 1159 1158
f 1158 1190 1191
f 1223 1191 1190
f 1190 1222 1223
f 1255 1223 1222
f 1222 1254 1255
f 1287 1255 1254
f 1254 1286 1287
f 1319 1287 1286
f 1286 1318 1319
f 1351 1319 1318
f 1318 1350 1351
f 1383 1351 1350
f 1350 1382 1383
f 1415 1383 1382
f 1382 1414 1415
f 456 424 423
f 423 455 456
f 488 456 455
f 455 487 488
f 520 488 487
f 487 519 520
f 552 520 519
f 519 551 552
f 584 552 551
f 551 583 584
f 616 584 583
f 583 615 616
f 648 616 615
f 615 647 648
f 680 648 647
f 647 679 680
f 712 680 679
f 679 711 712
f 744 712 711
f 711 743 744
f 776 744 743
f 743 775 776
f 808 776 775
f 775 807 808
f 840 808 807
f 807 839 840
f 872 840 839
f 839 871 872
f 904 872 871
f 871 903 904
f 936 904 903
f 903 935 936
f 968 936 935
f 935 967 968
f 1000 968 967
f 967 999 1000
f 1032 1000 999
f 999 1031 1032
f 1064 1032 1031
f 1031 1063 1064
f 1096 1064 1063
f 1063 1095 1096
f 1128 1096 1095
f 1095 1127 1128
f 1160 1128 1127
f 1127 1159 1160
f 1192 1160 1159
f 1159 1191 1192
f 1224 1192 1191
f 1191 1223 1224
f 1256 1224 1223
f 1223 1255 1256
f 1288 1256 1255
f 1255 1287 1288
f 1320 1288 1287
f 1287 1319 1320
f 1352 1320 1319
f 1319 1351 1352
f 1384 1352 1351
f 1351 1383 1384
f 1416 1384 1383
f 1383 1415 1416
f 457 425 424
f 424 456 457
f 489 457 456
f 456 488 489
f 521 489 488
f 488 520 521
f 553 521 520
f 520 552 553
f 585 553 552
f 552 584 585
f 617 585 584
f 584 616 617
f 649 617 616
f 616 648 649
f 681 649 648
f 648 680 681
f 713 681 680
f 680 712 713
f 745 713 712
f 712 744 745
f 777 745 744
f 744 776 777
f 809 777 776
f 776 808 809
f 841 809 808
f 808 840 841
f 873 841 840
f 840 872 873
f 905 873 872
f 872 904 905
f 937 905 904
f 904 936 937
f 969 937 936
f 936 968 969
f 1001 969 968
f 968 1000 1001
f 1033 1001 1000
f 1000 1032 1033
f 1065 1033 1032
f 1032 1064 1065
f 1097 1065 1064
f 1064 1096 1097
f 1129 1097 1096
f 1096 1128 1129
f 1161 1129 1128
f 1128 1160 1161
f 1193 1161 1160
f 1160 1192 1193
f 1225 1193 1192
f 1192 1224 1225
f 1257 1225 1224
f 1224 1256 1257
f 1289 1257 1256
f 1256 1288 1289
f 1321 1289 1288
f 1288 1320 1321
f 1353 1321 1320
f 1320 1352 1353
f 1385 1353 1352
f 1352 1384 1385
f 1417 1385 1384
f 1384 1416 1417
