v 715.445 13.3166 3372.8
v 707.445 13.3166 3372.8
v 715.445 5.31657 3372.8
v 707.445 5.31657 3372.8
v 707.445 5.31657 3372.8
v 707.445 13.3166 3372.8
v 707.445 5.31657 3380.8
v 707.445 13.3166 3380.8
v 723.445 5.31657 3372.8
v 723.445 5.31657 3380.8
v 723.445 13.3166 3372.8
v 723.445 13.3166 3380.8
v 707.445 13.3166 3388.8
v 707.445 5.31657 3388.8
v 723.445 13.3166 3388.8
v 723.445 5.31657 3388.8
v 707.445 5.31657 3388.8
v 707.445 13.3166 3388.8
v 715.445 5.31657 3388.8
v 715.445 13.3166 3388.8
v 723.445 5.31657 3388.8
v 723.445 13.3166 3388.8
v 723.445 13.3166 3372.8
v 723.445 5.31657 3372.8
v 707.445 13.3166 3380.8
v 707.445 13.3166 3372.8
v 715.445 13.3166 3380.8
v 715.445 13.3166 3372.8
v 715.445 13.3166 3388.8
v 707.445 13.3166 3388.8
v 723.445 13.3166 3388.8
v 723.445 13.3166 3380.8
v 723.445 13.3166 3372.8
v 712.614 16.0642 3387.59
v 711.614 16.0642 3387.59
v 712.614 16.0642 3387.09
v 711.614 16.0642 3387.09
v 719.614 16.0642 3387.09
v 719.614 16.0642 3387.59
v 718.614 16.0642 3387.09
v 718.614 16.0642 3387.59
v 713.85 18.4915 3387.7
v 714.252 18.6962 3387.84
v 713.906 18.4085 3387.84
v 713.186 17.8277 3387.73
v 713.344 17.9855 3387.76
v 713.283 17.7576 3387.84
v 713.764 18.3136 3387.84
v 713.764 18.3136 3387.84
v 713.344 17.9855 3387.76
v 713.85 18.4915 3387.7
v 713.764 18.3136 3387.84
v 712.778 17.0276 3387.84
v 713.186 17.8277 3387.73
v 713.117 17.4821 3387.84
v 713.117 17.4821 3387.84
v 717.742 18.1267 3386.94
v 717.499 18.3693 3386.84
v 717.678 18.1152 3386.84
v 718.041 17.8277 3386.95
v 717.952 17.763 3386.84
v 718.273 17.373 3386.84
v 717.952 17.763 3386.84
v 717.742 18.1267 3386.94
v 711.614 16.0642 3387.09
v 711.614 16.0642 3387.59
v 711.614 12.0642 3387.09
v 711.614 12.0642 3387.59
v 711.614 16.0642 3387.09
v 711.614 12.0642 3387.09
v 712.614 16.0642 3387.09
v 712.614 12.0642 3387.09
v 711.614 16.0642 3387.59
v 712.614 16.0642 3387.59
v 711.614 12.0642 3387.59
v 712.614 12.0642 3387.59
v 713.615 16.0642 3387.84
v 713.614 12.0642 3387.84
v 712.613 16.0642 3387.84
v 712.614 12.0642 3387.84
v 713.615 16.0642 3386.84
v 713.615 16.0642 3387.84
v 713.715 16.6812 3386.84
v 713.715 16.6812 3387.84
v 713.998 17.2378 3386.84
v 713.998 17.2378 3387.84
v 714.44 17.6796 3386.84
v 714.44 17.6796 3387.84
v 714.997 17.9632 3386.84
v 714.997 17.9632 3387.84
v 715.614 18.0609 3386.84
v 715.614 18.0609 3387.84
v 712.613 16.0642 3386.84
v 713.615 16.0642 3386.84
v 712.76 16.9927 3386.84
v 713.715 16.6812 3386.84
v 713.186 17.8277 3386.84
v 713.998 17.2378 3386.84
v 713.85 18.4915 3386.84
v 714.44 17.6796 3386.84
v 714.687 18.9177 3386.84
v 714.997 17.9632 3386.84
v 715.614 19.0645 3386.84
v 715.614 18.0609 3386.84
v 712.76 16.9927 3387.84
v 713.715 16.6812 3387.84
v 712.613 16.0642 3387.84
v 715.614 19.0645 3387.84
v 715.614 18.0609 3387.84
v 714.687 18.9177 3387.84
v 714.997 17.9632 3387.84
v 712.76 16.9927 3387.84
v 712.613 16.0642 3387.84
v 712.76 16.9927 3386.84
v 712.614 16.0642 3387.59
v 712.614 16.0642 3387.09
v 712.613 16.0642 3386.84
v 715.614 19.0645 3387.84
v 714.687 18.9177 3387.84
v 715.614 19.0645 3386.84
v 714.687 18.9177 3386.84
v 718.615 16.0642 3387.84
v 718.614 12.0642 3387.84
v 717.612 16.0642 3387.84
v 717.614 12.0642 3387.84
v 717.612 16.0642 3386.84
v 717.614 12.0642 3386.84
v 718.615 16.0642 3386.84
v 718.614 12.0642 3386.84
v 717.612 16.0642 3386.84
v 717.513 16.6812 3386.84
v 717.612 16.0642 3387.84
v 717.513 16.6812 3387.84
v 717.229 17.2378 3386.84
v 717.229 17.2378 3387.84
v 716.787 17.6796 3386.84
v 716.787 17.6796 3387.84
v 716.231 17.9632 3386.84
v 716.231 17.9632 3387.84
v 718.467 16.9927 3386.84
v 717.513 16.6812 3386.84
v 718.615 16.0642 3386.84
v 716.541 18.9177 3386.84
v 716.231 17.9632 3386.84
v 717.377 18.4915 3386.84
v 716.787 17.6796 3386.84
v 718.615 16.0642 3387.84
v 718.467 16.9927 3387.84
v 717.513 16.6812 3387.84
v 718.041 17.8277 3387.84
v 717.229 17.2378 3387.84
v 717.377 18.4915 3387.84
v 716.787 17.6796 3387.84
v 716.541 18.9177 3387.84
v 716.231 17.9632 3387.84
v 718.467 16.9927 3387.84
v 718.467 16.9927 3386.84
v 718.615 16.0642 3387.84
v 718.614 16.0642 3387.59
v 718.614 16.0642 3387.09
v 718.615 16.0642 3386.84
v 716.541 18.9177 3387.84
v 716.541 18.9177 3386.84
v 717.377 18.4915 3387.84
v 717.377 18.4915 3386.84
v 712.614 12.0642 3387.84
v 712.614 12.0642 3387.59
v 712.613 16.0642 3387.84
v 712.614 16.0642 3387.59
v 712.614 16.0642 3387.09
v 712.614 12.0642 3387.09
v 712.613 16.0642 3386.84
v 712.614 12.0642 3386.84
v 718.614 12.0642 3386.84
v 718.614 12.0642 3387.09
v 718.615 16.0642 3386.84
v 718.614 16.0642 3387.09
v 718.615 16.0642 3387.84
v 718.614 16.0642 3387.59
v 718.614 12.0642 3387.84
v 718.614 12.0642 3387.59
v 719.614 12.0642 3387.09
v 719.614 12.0642 3387.59
v 719.614 16.0642 3387.09
v 719.614 16.0642 3387.59
v 718.614 16.0642 3387.59
v 719.614 16.0642 3387.59
v 718.614 12.0642 3387.59
v 719.614 12.0642 3387.59
v 718.614 12.0642 3387.09
v 719.614 12.0642 3387.09
v 718.614 16.0642 3387.09
v 719.614 16.0642 3387.09
v 712.778 17.0276 3387.84
v 713.117 17.4821 3387.84
v 713.998 17.2378 3387.84
v 713.283 17.7576 3387.84
v 713.764 18.3136 3387.84
v 713.906 18.4085 3387.84
v 714.44 17.6796 3387.84
v 714.252 18.6962 3387.84
v 714.252 18.6962 3387.84
v 713.85 18.4915 3386.84
v 713.85 18.4915 3387.7
v 713.344 17.9855 3387.76
v 713.186 17.8277 3387.73
v 713.186 17.8277 3386.84
v 712.778 17.0276 3387.84
v 717.614 12.0642 3386.84
v 717.614 12.0642 3387.84
v 712.613 16.0642 3386.84
v 712.614 12.0642 3386.84
v 713.614 12.0642 3386.84
v 713.614 12.0642 3387.84
v 713.614 12.0642 3386.84
v 718.273 17.373 3386.84
v 717.229 17.2378 3386.84
v 717.952 17.763 3386.84
v 717.499 18.3693 3386.84
v 717.678 18.1152 3386.84
v 717.499 18.3693 3386.84
v 718.041 17.8277 3387.84
v 717.742 18.1267 3386.94
v 718.041 17.8277 3386.95
v 718.273 17.373 3386.84
v 720.199 12.0894 3387.89
v 719.199 12.0894 3387.89
v 720.199 20.3365 3387.89
v 719.199 20.3365 3387.89
v 720.199 20.3365 3386.89
v 719.199 20.3365 3386.89
v 720.199 12.0894 3386.89
v 719.199 12.0894 3386.89
v 719.199 20.3365 3386.89
v 719.199 20.3365 3387.89
v 719.199 12.0894 3386.89
v 719.199 12.0894 3387.89
v 720.199 20.3365 3386.89
v 720.199 12.0894 3386.89
v 720.199 20.3365 3387.89
v 720.199 12.0894 3387.89
v 720.199 20.3365 3387.89
v 719.199 20.3365 3387.89
v 720.199 20.3365 3386.89
v 719.199 20.3365 3386.89
v 711.669 11.9959 3387.83
v 710.669 11.9959 3387.83
v 711.669 20.243 3387.83
v 710.669 20.243 3387.83
v 711.669 20.243 3386.83
v 710.669 20.243 3386.83
v 711.669 11.9959 3386.83
v 710.669 11.9959 3386.83
v 710.669 20.243 3386.83
v 710.669 20.243 3387.83
v 710.669 11.9959 3386.83
v 710.669 11.9959 3387.83
v 711.669 20.243 3386.83
v 711.669 11.9959 3386.83
v 711.669 20.243 3387.83
v 711.669 11.9959 3387.83
v 711.669 20.243 3387.83
v 710.669 20.243 3387.83
v 711.669 20.243 3386.83
v 710.669 20.243 3386.83
v 712.567 16.0475 3374.32
v 711.567 16.0475 3374.32
v 712.567 16.0475 3373.82
v 711.567 16.0475 3373.82
v 719.567 16.0475 3373.82
v 719.567 16.0475 3374.32
v 718.567 16.0475 3373.82
v 718.567 16.0475 3374.32
v 713.803 18.4748 3374.43
v 714.205 18.6795 3374.57
v 713.859 18.3917 3374.57
v 713.14 17.811 3374.46
v 713.297 17.9688 3374.49
v 713.236 17.7408 3374.57
v 713.718 18.2968 3374.57
v 713.718 18.2968 3374.57
v 713.297 17.9688 3374.49
v 713.803 18.4748 3374.43
v 713.718 18.2968 3374.57
v 712.732 17.0108 3374.57
v 713.14 17.811 3374.46
v 713.07 17.4654 3374.57
v 713.07 17.4654 3374.57
v 717.695 18.11 3373.66
v 717.453 18.3526 3373.57
v 717.632 18.0985 3373.57
v 717.994 17.811 3373.68
v 717.905 17.7463 3373.57
v 718.226 17.3562 3373.57
v 717.905 17.7463 3373.57
v 717.695 18.11 3373.66
v 711.567 16.0475 3373.82
v 711.567 16.0475 3374.32
v 711.567 12.0475 3373.82
v 711.567 12.0475 3374.32
v 711.567 16.0475 3373.82
v 711.567 12.0475 3373.82
v 712.567 16.0475 3373.82
v 712.567 12.0475 3373.82
v 711.567 16.0475 3374.32
v 712.567 16.0475 3374.32
v 711.567 12.0475 3374.32
v 712.567 12.0475 3374.32
v 713.569 16.0475 3374.57
v 713.567 12.0475 3374.57
v 712.566 16.0475 3374.57
v 712.567 12.0475 3374.57
v 713.569 16.0475 3373.57
v 713.569 16.0475 3374.57
v 713.668 16.6645 3373.57
v 713.668 16.6645 3374.57
v 713.952 17.2211 3373.57
v 713.952 17.2211 3374.57
v 714.393 17.6628 3373.57
v 714.393 17.6628 3374.57
v 714.95 17.9464 3373.57
v 714.95 17.9464 3374.57
v 715.567 18.0441 3373.57
v 715.567 18.0441 3374.57
v 712.566 16.0475 3373.57
v 713.569 16.0475 3373.57
v 712.714 16.9759 3373.57
v 713.668 16.6645 3373.57
v 713.14 17.811 3373.57
v 713.952 17.2211 3373.57
v 713.803 18.4748 3373.57
v 714.393 17.6628 3373.57
v 714.64 18.9009 3373.57
v 714.95 17.9464 3373.57
v 715.567 19.0478 3373.57
v 715.567 18.0441 3373.57
v 712.714 16.9759 3374.57
v 713.668 16.6645 3374.57
v 712.566 16.0475 3374.57
v 715.567 19.0478 3374.57
v 715.567 18.0441 3374.57
v 714.64 18.9009 3374.57
v 714.95 17.9464 3374.57
v 712.714 16.9759 3374.57
v 712.566 16.0475 3374.57
v 712.714 16.9759 3373.57
v 712.567 16.0475 3374.32
v 712.567 16.0475 3373.82
v 712.566 16.0475 3373.57
v 715.567 19.0478 3374.57
v 714.64 18.9009 3374.57
v 715.567 19.0478 3373.57
v 714.64 18.9009 3373.57
v 718.568 16.0475 3374.57
v 718.567 12.0475 3374.57
v 717.565 16.0475 3374.57
v 717.567 12.0475 3374.57
v 717.565 16.0475 3373.57
v 717.567 12.0475 3373.57
v 718.568 16.0475 3373.57
v 718.567 12.0475 3373.57
v 717.565 16.0475 3373.57
v 717.466 16.6645 3373.57
v 717.565 16.0475 3374.57
v 717.466 16.6645 3374.57
v 717.182 17.2211 3373.57
v 717.182 17.2211 3374.57
v 716.741 17.6628 3373.57
v 716.741 17.6628 3374.57
v 716.184 17.9464 3373.57
v 716.184 17.9464 3374.57
v 718.42 16.9759 3373.57
v 717.466 16.6645 3373.57
v 718.568 16.0475 3373.57
v 716.494 18.9009 3373.57
v 716.184 17.9464 3373.57
v 717.331 18.4748 3373.57
v 716.741 17.6628 3373.57
v 718.568 16.0475 3374.57
v 718.42 16.9759 3374.57
v 717.466 16.6645 3374.57
v 717.994 17.811 3374.57
v 717.182 17.2211 3374.57
v 717.331 18.4748 3374.57
v 716.741 17.6628 3374.57
v 716.494 18.9009 3374.57
v 716.184 17.9464 3374.57
v 718.42 16.9759 3374.57
v 718.42 16.9759 3373.57
v 718.568 16.0475 3374.57
v 718.567 16.0475 3374.32
v 718.567 16.0475 3373.82
v 718.568 16.0475 3373.57
v 716.494 18.9009 3374.57
v 716.494 18.9009 3373.57
v 717.331 18.4748 3374.57
v 717.331 18.4748 3373.57
v 712.567 12.0475 3374.57
v 712.567 12.0475 3374.32
v 712.566 16.0475 3374.57
v 712.567 16.0475 3374.32
v 712.567 16.0475 3373.82
v 712.567 12.0475 3373.82
v 712.566 16.0475 3373.57
v 712.567 12.0475 3373.57
v 718.567 12.0475 3373.57
v 718.567 12.0475 3373.82
v 718.568 16.0475 3373.57
v 718.567 16.0475 3373.82
v 718.568 16.0475 3374.57
v 718.567 16.0475 3374.32
v 718.567 12.0475 3374.57
v 718.567 12.0475 3374.32
v 719.567 12.0475 3373.82
v 719.567 12.0475 3374.32
v 719.567 16.0475 3373.82
v 719.567 16.0475 3374.32
v 718.567 16.0475 3374.32
v 719.567 16.0475 3374.32
v 718.567 12.0475 3374.32
v 719.567 12.0475 3374.32
v 718.567 12.0475 3373.82
v 719.567 12.0475 3373.82
v 718.567 16.0475 3373.82
v 719.567 16.0475 3373.82
v 712.732 17.0108 3374.57
v 713.07 17.4654 3374.57
v 713.952 17.2211 3374.57
v 713.236 17.7408 3374.57
v 713.718 18.2968 3374.57
v 713.859 18.3917 3374.57
v 714.393 17.6628 3374.57
v 714.205 18.6795 3374.57
v 714.205 18.6795 3374.57
v 713.803 18.4748 3373.57
v 713.803 18.4748 3374.43
v 713.297 17.9688 3374.49
v 713.14 17.811 3374.46
v 713.14 17.811 3373.57
v 712.732 17.0108 3374.57
v 717.567 12.0475 3373.57
v 717.567 12.0475 3374.57
v 712.566 16.0475 3373.57
v 712.567 12.0475 3373.57
v 713.567 12.0475 3373.57
v 713.567 12.0475 3374.57
v 713.567 12.0475 3373.57
v 718.226 17.3562 3373.57
v 717.182 17.2211 3373.57
v 717.905 17.7463 3373.57
v 717.453 18.3526 3373.57
v 717.632 18.0985 3373.57
v 717.453 18.3526 3373.57
v 717.994 17.811 3374.57
v 717.695 18.11 3373.66
v 717.994 17.811 3373.68
v 718.226 17.3562 3373.57
v 720.152 12.1046 3374.62
v 719.152 12.1046 3374.62
v 720.152 20.3517 3374.62
v 719.152 20.3517 3374.62
v 720.152 20.3517 3373.62
v 719.152 20.3517 3373.62
v 720.152 12.1046 3373.62
v 719.152 12.1046 3373.62
v 719.152 20.3517 3373.62
v 719.152 20.3517 3374.62
v 719.152 12.1046 3373.62
v 719.152 12.1046 3374.62
v 720.152 20.3517 3373.62
v 720.152 12.1046 3373.62
v 720.152 20.3517 3374.62
v 720.152 12.1046 3374.62
v 720.152 20.3517 3374.62
v 719.152 20.3517 3374.62
v 720.152 20.3517 3373.62
v 719.152 20.3517 3373.62
v 711.622 11.9883 3374.56
v 710.622 11.9883 3374.56
v 711.622 20.2354 3374.56
v 710.622 20.2354 3374.56
v 711.622 20.2354 3373.56
v 710.622 20.2354 3373.56
v 711.622 11.9883 3373.56
v 710.622 11.9883 3373.56
v 710.622 20.2354 3373.56
v 710.622 20.2354 3374.56
v 710.622 11.9883 3373.56
v 710.622 11.9883 3374.56
v 711.622 20.2354 3373.56
v 711.622 11.9883 3373.56
v 711.622 20.2354 3374.56
v 711.622 11.9883 3374.56
v 711.622 20.2354 3374.56
v 710.622 20.2354 3374.56
v 711.622 20.2354 3373.56
v 710.622 20.2354 3373.56
v 684 16.3806 3412
v 684 16.2626 3410
v 684 15.7341 3408
v 684 15.3954 3406
v 684 15.0426 3404
v 684 14.6914 3402
v 684 14.1685 3400
v 684 13.6642 3398
v 684 13.4024 3396
v 684 13.4398 3394
v 684 13.4493 3392
v 684 13.3066 3390
v 684 13.4402 3388
v 684 13.8348 3386
v 684 13.9464 3384
v 684 14.3626 3382
v 684 15.5097 3380
v 684 16.1257 3378
v 684 17.0393 3376
v 684 17.6429 3374
v 684 18.2494 3372
v 684 19.1778 3370
v 684 18.9689 3368
v 684 19.8504 3366
v 684 20.3966 3364
v 684 20.7363 3362
v 684 20.6106 3360
v 684 19.8163 3358
v 684 19.6064 3356
v 684 19.676 3354
v 684 19.6818 3352
v 684 19.6389 3350
v 686 15.7372 3412
v 686 15.5321 3410
v 686 15.0754 3408
v 686 14.7008 3406
v 686 14.0346 3404
v 686 13.5682 3402
v 686 13.3572 3400
v 686 13.1562 3398
v 686 13.1282 3396
v 686 12.8342 3394
v 686 12.6385 3392
v 686 12.8665 3390
v 686 13.0166 3388
v 686 13.0567 3386
v 686 13.3381 3384
v 686 13.5094 3382
v 686 14.3482 3380
v 686 15.2567 3378
v 686 15.912 3376
v 686 16.9721 3374
v 686 17.297 3372
v 686 18.2392 3370
v 686 18.5718 3368
v 686 19.1661 3366
v 686 19.6064 3364
v 686 19.7837 3362
v 686 19.8007 3360
v 686 19.6071 3358
v 686 19.6882 3356
v 686 19.1156 3354
v 686 18.799 3352
v 686 19.2292 3350
v 688 15.3472 3412
v 688 14.7154 3410
v 688 14.3403 3408
v 688 13.9423 3406
v 688 13.1991 3404
v 688 12.9103 3402
v 688 12.7211 3400
v 688 12.6113 3398
v 688 12.606 3396
v 688 12.5336 3394
v 688 12.3162 3392
v 688 12.3639 3390
v 688 12.4615 3388
v 688 12.555 3386
v 688 12.7573 3384
v 688 12.9655 3382
v 688 13.3268 3380
v 688 13.9923 3378
v 688 14.6936 3376
v 688 15.5004 3374
v 688 16.628 3372
v 688 17.1028 3370
v 688 17.5476 3368
v 688 18.0331 3366
v 688 18.3878 3364
v 688 18.8512 3362
v 688 18.9094 3360
v 688 19.0126 3358
v 688 18.8973 3356
v 688 18.4304 3354
v 688 18.4426 3352
v 688 18.606 3350
v 690 14.7326 3412
v 690 14.1684 3410
v 690 13.3769 3408
v 690 13.0654 3406
v 690 12.9647 3404
v 690 12.6756 3402
v 690 12.4942 3400
v 690 12.3529 3398
v 690 12.3015 3396
v 690 12.1226 3394
v 690 12.0954 3392
v 690 12.1852 3390
v 690 12.1683 3388
v 690 12.2204 3386
v 690 12.3233 3384
v 690 12.35 3382
v 690 12.7918 3380
v 690 13.0383 3378
v 690 13.7795 3376
v 690 14.4146 3374
v 690 15.0593 3372
v 690 16.0435 3370
v 690 16.1546 3368
v 690 16.8034 3366
v 690 17.3775 3364
v 690 17.39 3362
v 690 18.0644 3360
v 690 18.0666 3358
v 690 18.0027 3356
v 690 17.7942 3354
v 690 17.8189 3352
v 690 18.1515 3350
v 692 14.0334 3412
v 692 13.3198 3410
v 692 12.586 3408
v 692 12.4237 3406
v 692 12.4746 3404
v 692 12.1884 3402
v 692 12.1165 3400
v 692 12.0344 3398
v 692 12.0306 3396
v 692 11.9558 3394
v 692 11.8322 3392
v 692 11.9254 3390
v 692 12.0663 3388
v 692 12.1537 3386
v 692 12.2276 3384
v 692 12.2414 3382
v 692 12.1613 3380
v 692 12.4608 3378
v 692 12.8578 3376
v 692 13.2451 3374
v 692 14.0978 3372
v 692 14.614 3370
v 692 14.7739 3368
v 692 15.5472 3366
v 692 16.0062 3364
v 692 16.3244 3362
v 692 16.6144 3360
v 692 16.8357 3358
v 692 16.7098 3356
v 692 17.1324 3354
v 692 16.9132 3352
v 692 17.115 3350
v 694 13.3364 3412
v 694 12.9589 3410
v 694 12.2584 3408
v 694 12.1437 3406
v 694 12.0596 3404
v 694 11.8848 3402
v 694 11.982 3400
v 694 11.9455 3398
v 694 11.9488 3396
v 694 12.0022 3394
v 694 11.8384 3392
v 694 11.9293 3390
v 694 12.0254 3388
v 694 12.0475 3386
v 694 12.0846 3384
v 694 12.1005 3382
v 694 12.1868 3380
v 694 12.1532 3378
v 694 12.3516 3376
v 694 12.4088 3374
v 694 12.7425 3372
v 694 13.1292 3370
v 694 13.5071 3368
v 694 13.9811 3366
v 694 14.5914 3364
v 694 14.7114 3362
v 694 15.1725 3360
v 694 15.358 3358
v 694 15.3862 3356
v 694 15.9934 3354
v 694 16.0442 3352
v 694 16.4404 3350
v 696 12.8978 3412
v 696 12.6546 3410
v 696 12.165 3408
v 696 11.8914 3406
v 696 11.9352 3404
v 696 11.7907 3402
v 696 11.9129 3400
v 696 11.9332 3398
v 696 11.989 3396
v 696 11.8577 3394
v 696 11.8252 3392
v 696 11.8817 3390
v 696 11.9959 3388
v 696 11.9577 3386
v 696 12.1386 3384
v 696 12.1496 3382
v 696 12.175 3380
v 696 12.158 3378
v 696 12.2155 3376
v 696 12.0255 3374
v 696 12.1647 3372
v 696 12.2998 3370
v 696 12.5764 3368
v 696 12.9843 3366
v 696 13.1095 3364
v 696 13.6177 3362
v 696 13.8404 3360
v 696 13.9516 3358
v 696 14.3613 3356
v 696 14.5892 3354
v 696 14.5452 3352
v 696 15.0785 3350
v 698 12.775 3412
v 698 12.3169 3410
v 698 12.1814 3408
v 698 11.8997 3406
v 698 11.648 3404
v 698 11.8789 3402
v 698 11.9666 3400
v 698 11.9491 3398
v 698 11.9717 3396
v 698 11.9473 3394
v 698 11.8098 3392
v 698 11.9058 3390
v 698 11.9298 3388
v 698 11.9513 3386
v 698 12.0871 3384
v 698 12.1244 3382
v 698 12.0851 3380
v 698 12.1759 3378
v 698 12.1728 3376
v 698 12.0647 3374
v 698 11.9642 3372
v 698 11.9892 3370
v 698 12.0932 3368
v 698 12.2291 3366
v 698 12.3623 3364
v 698 12.6472 3362
v 698 12.8487 3360
v 698 12.9575 3358
v 698 13.2345 3356
v 698 13.6128 3354
v 698 13.6186 3352
v 698 13.6969 3350
v 700 12.7407 3412
v 700 12.3809 3410
v 700 12.0374 3408
v 700 11.7927 3406
v 700 11.7226 3404
v 700 11.8447 3402
v 700 11.9612 3400
v 700 12.0261 3398
v 700 11.9872 3396
v 700 12.0364 3394
v 700 12.0436 3392
v 700 11.919 3390
v 700 12.0769 3388
v 700 11.9975 3386
v 700 12.0264 3384
v 700 12.0983 3382
v 700 12.0866 3380
v 700 12.0305 3378
v 700 12.0968 3376
v 700 12.1179 3374
v 700 12.12 3372
v 700 11.8758 3370
v 700 11.8669 3368
v 700 11.9692 3366
v 700 11.9909 3364
v 700 12.1912 3362
v 700 12.2196 3360
v 700 12.3518 3358
v 700 12.5975 3356
v 700 12.8064 3354
v 700 12.9112 3352
v 700 13.2357 3350
v 702 12.5797 3412
v 702 12.2154 3410
v 702 11.9047 3408
v 702 11.7613 3406
v 702 11.9084 3404
v 702 11.8743 3402
v 702 11.9787 3400
v 702 12.0466 3398
v 702 12.0202 3396
v 702 12.046 3394
v 702 12.014 3392
v 702 12.021 3390
v 702 12.0113 3388
v 702 11.9325 3386
v 702 11.9333 3384
v 702 11.9457 3382
v 702 12.0031 3380
v 702 12.0998 3378
v 702 12.0956 3376
v 702 12.0497 3374
v 702 12.0524 3372
v 702 12.0261 3370
v 702 11.9357 3368
v 702 12.0783 3366
v 702 12.0438 3364
v 702 12.0375 3362
v 702 12.0778 3360
v 702 12.0577 3358
v 702 11.9583 3356
v 702 12.0342 3354
v 702 12.2797 3352
v 702 12.3129 3350
v 704 12.4353 3412
v 704 12.0746 3410
v 704 11.8612 3408
v 704 11.8141 3406
v 704 11.7391 3404
v 704 11.9733 3402
v 704 12.0416 3400
v 704 12.1161 3398
v 704 12.0173 3396
v 704 12.0552 3394
v 704 12.0191 3392
v 704 12.0363 3390
v 704 12.0715 3388
v 704 11.9411 3386
v 704 12.0512 3384
v 704 11.8714 3382
v 704 11.9322 3380
v 704 11.9992 3378
v 704 12.0827 3376
v 704 12.1878 3374
v 704 12.124 3372
v 704 12.1249 3370
v 704 12.1054 3368
v 704 12.0996 3366
v 704 12.1711 3364
v 704 12.1213 3362
v 704 12.1216 3360
v 704 12.0338 3358
v 704 12.0235 3356
v 704 11.8818 3354
v 704 12.0123 3352
v 704 11.9788 3350
v 706 12.3347 3412
v 706 12.0297 3410
v 706 11.8503 3408
v 706 11.8681 3406
v 706 11.9508 3404
v 706 11.9838 3402
v 706 12.0959 3400
v 706 12.0835 3398
v 706 11.9888 3396
v 706 12.047 3394
v 706 12.025 3392
v 706 12.0267 3390
v 706 12.0763 3388
v 706 11.9849 3386
v 706 11.9729 3384
v 706 11.9109 3382
v 706 11.8694 3380
v 706 11.9894 3378
v 706 11.9773 3376
v 706 12.1353 3374
v 706 12.1749 3372
v 706 12.2035 3370
v 706 12.1636 3368
v 706 12.1577 3366
v 706 12.2697 3364
v 706 12.1739 3362
v 706 12.1158 3360
v 706 12.1113 3358
v 706 12.1022 3356
v 706 12.0949 3354
v 706 12.0044 3352
v 706 11.8895 3350
v 708 12.3575 3412
v 708 11.9212 3410
v 708 11.7467 3408
v 708 11.836 3406
v 708 12.0527 3404
v 708 12.1002 3402
v 708 11.9961 3400
v 708 12.0374 3398
v 708 11.8636 3396
v 708 12.0015 3394
v 708 12.0854 3392
v 708 11.9454 3390
v 708 11.9064 3388
v 708 11.9428 3386
v 708 11.9305 3384
v 708 11.9905 3382
v 708 11.9432 3380
v 708 11.9568 3378
v 708 12.0422 3376
v 708 12.1459 3374
v 708 12.2071 3372
v 708 12.1973 3370
v 708 12.2262 3368
v 708 12.1848 3366
v 708 12.2267 3364
v 708 12.1976 3362
v 708 12.2091 3360
v 708 12.0477 3358
v 708 12.0023 3356
v 708 12.0065 3354
v 708 12.0132 3352
v 708 12.0088 3350
v 710 12.4779 3412
v 710 12.1153 3410
v 710 11.9379 3408
v 710 11.9392 3406
v 710 12.0309 3404
v 710 12.01 3402
v 710 12.0936 3400
v 710 12.0257 3398
v 710 11.9541 3396
v 710 12.0277 3394
v 710 11.9334 3392
v 710 12.0237 3390
v 710 11.9893 3388
v 710 12.0169 3386
v 710 11.9721 3384
v 710 12.0583 3382
v 710 12.0101 3380
v 710 11.872 3378
v 710 11.9669 3376
v 710 11.9515 3374
v 710 12.0893 3372
v 710 12.098 3370
v 710 12.1233 3368
v 710 12.1009 3366
v 710 12.0801 3364
v 710 12.0931 3362
v 710 12.0515 3360
v 710 12.0551 3358
v 710 12.1109 3356
v 710 12.0434 3354
v 710 11.986 3352
v 710 11.9219 3350
v 712 12.6825 3412
v 712 12.1705 3410
v 712 11.9381 3408
v 712 12.0768 3406
v 712 11.9998 3404
v 712 12.0963 3402
v 712 12.0107 3400
v 712 11.9543 3398
v 712 11.9508 3396
v 712 11.9471 3394
v 712 12.0661 3392
v 712 12.0102 3390
v 712 11.9822 3388
v 712 11.9898 3386
v 712 12.1262 3384
v 712 12.0243 3382
v 712 12.0103 3380
v 712 11.9208 3378
v 712 12.0197 3376
v 712 11.8627 3374
v 712 12.0372 3372
v 712 12.0108 3370
v 712 11.9999 3368
v 712 12.0171 3366
v 712 12.0405 3364
v 712 12.0706 3362
v 712 12.0097 3360
v 712 11.9422 3358
v 712 12.0437 3356
v 712 11.9518 3354
v 712 11.9546 3352
v 712 11.8905 3350
v 714 12.9065 3412
v 714 12.301 3410
v 714 12.1033 3408
v 714 12.0731 3406
v 714 11.9821 3404
v 714 12.0902 3402
v 714 11.9134 3400
v 714 11.9397 3398
v 714 11.9162 3396
v 714 11.9656 3394
v 714 12.0645 3392
v 714 11.9857 3390
v 714 11.9966 3388
v 714 12.0198 3386
v 714 12.1866 3384
v 714 12.0932 3382
v 714 12.0562 3380
v 714 12.0254 3378
v 714 11.9374 3376
v 714 11.8383 3374
v 714 11.9496 3372
v 714 11.9456 3370
v 714 11.9394 3368
v 714 12.0019 3366
v 714 11.9493 3364
v 714 11.8953 3362
v 714 11.9851 3360
v 714 11.8166 3358
v 714 11.9009 3356
v 714 11.8228 3354
v 714 11.9288 3352
v 714 11.8254 3350
v 716 13.3457 3412
v 716 12.5216 3410
v 716 12.0587 3408
v 716 12.0007 3406
v 716 11.9069 3404
v 716 11.929 3402
v 716 11.9197 3400
v 716 11.9387 3398
v 716 12.0108 3396
v 716 11.9806 3394
v 716 12.0022 3392
v 716 12.0708 3390
v 716 12.0813 3388
v 716 12.1035 3386
v 716 12.1398 3384
v 716 12.0583 3382
v 716 12.0765 3380
v 716 11.9314 3378
v 716 11.9416 3376
v 716 12.0343 3374
v 716 12.0598 3372
v 716 12.0178 3370
v 716 11.9837 3368
v 716 11.947 3366
v 716 11.8981 3364
v 716 11.9454 3362
v 716 11.7127 3360
v 716 11.7472 3358
v 716 11.8426 3356
v 716 11.8264 3354
v 716 11.8093 3352
v 716 11.7341 3350
v 718 13.5714 3412
v 718 12.5402 3410
v 718 12.137 3408
v 718 12.035 3406
v 718 11.9541 3404
v 718 11.9561 3402
v 718 11.9982 3400
v 718 11.8983 3398
v 718 12.0231 3396
v 718 11.9509 3394
v 718 11.8969 3392
v 718 12.0049 3390
v 718 12.1304 3388
v 718 12.0941 3386
v 718 12.0967 3384
v 718 12.1772 3382
v 718 12.0371 3380
v 718 12.0617 3378
v 718 11.8961 3376
v 718 11.9588 3374
v 718 11.9247 3372
v 718 12.0171 3370
v 718 11.9508 3368
v 718 11.9993 3366
v 718 11.9071 3364
v 718 11.8767 3362
v 718 11.8936 3360
v 718 11.851 3358
v 718 11.7054 3356
v 718 11.7673 3354
v 718 11.8074 3352
v 718 11.7336 3350
v 720 13.6338 3412
v 720 12.9115 3410
v 720 12.1828 3408
v 720 11.9948 3406
v 720 11.8413 3404
v 720 11.8606 3402
v 720 11.9476 3400
v 720 12.0072 3398
v 720 11.9004 3396
v 720 11.9988 3394
v 720 11.972 3392
v 720 11.9754 3390
v 720 12.0705 3388
v 720 12.0832 3386
v 720 12.2132 3384
v 720 12.091 3382
v 720 12.067 3380
v 720 12.006 3378
v 720 11.8777 3376
v 720 11.9755 3374
v 720 12.0182 3372
v 720 12.0429 3370
v 720 12.0136 3368
v 720 12.0739 3366
v 720 11.8525 3364
v 720 11.9283 3362
v 720 11.8793 3360
v 720 11.8288 3358
v 720 11.835 3356
v 720 11.94 3354
v 720 11.8367 3352
v 720 11.8163 3350
v 722 13.709 3412
v 722 12.9297 3410
v 722 12.2229 3408
v 722 11.8105 3406
v 722 11.8624 3404
v 722 11.9561 3402
v 722 12.0075 3400
v 722 12.056 3398
v 722 12.0538 3396
v 722 12.0279 3394
v 722 11.9625 3392
v 722 12.0222 3390
v 722 12.0148 3388
v 722 12.1724 3386
v 722 12.1639 3384
v 722 12.101 3382
v 722 12.0852 3380
v 722 11.8783 3378
v 722 11.8839 3376
v 722 11.9218 3374
v 722 11.9351 3372
v 722 11.9766 3370
v 722 12.008 3368
v 722 12.0176 3366
v 722 12.0066 3364
v 722 11.9365 3362
v 722 11.9842 3360
v 722 12.0195 3358
v 722 11.8234 3356
v 722 11.8989 3354
v 722 11.9732 3352
v 722 11.9084 3350
v 724 14.0872 3412
v 724 13.3843 3410
v 724 12.5516 3408
v 724 11.9226 3406
v 724 11.8325 3404
v 724 11.9808 3402
v 724 11.9612 3400
v 724 12.0932 3398
v 724 12.0867 3396
v 724 11.9672 3394
v 724 11.9581 3392
v 724 11.9484 3390
v 724 12.1127 3388
v 724 12.166 3386
v 724 12.0933 3384
v 724 12.0836 3382
v 724 11.9537 3380
v 724 11.8792 3378
v 724 11.9225 3376
v 724 11.9582 3374
v 724 11.9684 3372
v 724 12.052 3370
v 724 11.9917 3368
v 724 12.0314 3366
v 724 12.0664 3364
v 724 12.0482 3362
v 724 12.0537 3360
v 724 12.0101 3358
v 724 12.0174 3356
v 724 11.992 3354
v 724 11.9385 3352
v 724 11.8562 3350
v 726 14.733 3412
v 726 13.8773 3410
v 726 12.7175 3408
v 726 12.0885 3406
v 726 11.8403 3404
v 726 12.0055 3402
v 726 12.1277 3400
v 726 12.1666 3398
v 726 12.1461 3396
v 726 12.0041 3394
v 726 12.0451 3392
v 726 12.0747 3390
v 726 12.0408 3388
v 726 12.1379 3386
v 726 12.1247 3384
v 726 12.1002 3382
v 726 12.0387 3380
v 726 11.9262 3378
v 726 11.8405 3376
v 726 11.8538 3374
v 726 11.8581 3372
v 726 11.9243 3370
v 726 11.9544 3368
v 726 11.9639 3366
v 726 12.0001 3364
v 726 12.0422 3362
v 726 11.9884 3360
v 726 12.0468 3358
v 726 12.0511 3356
v 726 11.9478 3354
v 726 11.9466 3352
v 726 12.0398 3350
v 728 15.6383 3412
v 728 14.1798 3410
v 728 13.2358 3408
v 728 12.4827 3406
v 728 12.0809 3404
v 728 12.1164 3402
v 728 12.1291 3400
v 728 12.1552 3398
v 728 12.0602 3396
v 728 12.0078 3394
v 728 11.9775 3392
v 728 11.9874 3390
v 728 11.98 3388
v 728 12.0705 3386
v 728 12.1429 3384
v 728 12.0328 3382
v 728 12.0497 3380
v 728 12.0048 3378
v 728 11.9052 3376
v 728 11.9878 3374
v 728 11.8965 3372
v 728 11.9726 3370
v 728 12.0581 3368
v 728 11.934 3366
v 728 12.0381 3364
v 728 12.0176 3362
v 728 12.0203 3360
v 728 12.0619 3358
v 728 11.9813 3356
v 728 12.011 3354
v 728 12.0407 3352
v 728 12.0258 3350
v 730 16.2764 3412
v 730 15.2073 3410
v 730 13.9303 3408
v 730 13.0191 3406
v 730 12.4679 3404
v 730 12.1491 3402
v 730 12.1174 3400
v 730 12.1081 3398
v 730 11.9976 3396
v 730 11.9634 3394
v 730 11.9571 3392
v 730 11.9044 3390
v 730 11.9971 3388
v 730 11.9231 3386
v 730 12.0232 3384
v 730 12.017 3382
v 730 12.0465 3380
v 730 12.0267 3378
v 730 11.9783 3376
v 730 12.074 3374
v 730 11.9342 3372
v 730 11.9675 3370
v 730 12.0534 3368
v 730 12.071 3366
v 730 12.1061 3364
v 730 11.9908 3362
v 730 11.9879 3360
v 730 12.0339 3358
v 730 11.9949 3356
v 730 12.0248 3354
v 730 12.0809 3352
v 730 11.9867 3350
v 732 17.0639 3412
v 732 15.6019 3410
v 732 14.7771 3408
v 732 13.429 3406
v 732 13.0295 3404
v 732 12.3861 3402
v 732 12.0353 3400
v 732 11.9082 3398
v 732 11.8799 3396
v 732 11.8562 3394
v 732 11.9727 3392
v 732 12.052 3390
v 732 11.9712 3388
v 732 11.942 3386
v 732 12.043 3384
v 732 12.0485 3382
v 732 12.0047 3380
v 732 12.1153 3378
v 732 12.0384 3376
v 732 12.0569 3374
v 732 11.9385 3372
v 732 12.0851 3370
v 732 11.9965 3368
v 732 12.0129 3366
v 732 11.9274 3364
v 732 11.9296 3362
v 732 12.0509 3360
v 732 11.9116 3358
v 732 12.0013 3356
v 732 11.9948 3354
v 732 11.9784 3352
v 732 12.0814 3350
v 734 18.0361 3412
v 734 16.7736 3410
v 734 15.6891 3408
v 734 14.2827 3406
v 734 13.6068 3404
v 734 12.6589 3402
v 734 12.2449 3400
v 734 12.0413 3398
v 734 11.9758 3396
v 734 11.9206 3394
v 734 12.0299 3392
v 734 12.031 3390
v 734 12.0274 3388
v 734 11.9094 3386
v 734 11.912 3384
v 734 12.0453 3382
v 734 12.0543 3380
v 734 11.9341 3378
v 734 11.9042 3376
v 734 11.9703 3374
v 734 11.912 3372
v 734 11.988 3370
v 734 12.0283 3368
v 734 12.1336 3366
v 734 12.0346 3364
v 734 12.0561 3362
v 734 11.957 3360
v 734 12.0914 3358
v 734 12.0018 3356
v 734 11.9271 3354
v 734 11.9896 3352
v 734 11.9486 3350
v 736 18.7305 3412
v 736 17.701 3410
v 736 16.6963 3408
v 736 15.4045 3406
v 736 14.3842 3404
v 736 13.4651 3402
v 736 12.6943 3400
v 736 12.317 3398
v 736 11.95 3396
v 736 11.9946 3394
v 736 12.0425 3392
v 736 12.0449 3390
v 736 12.0104 3388
v 736 12.0771 3386
v 736 11.8851 3384
v 736 11.9884 3382
v 736 11.9605 3380
v 736 11.9112 3378
v 736 11.891 3376
v 736 11.9579 3374
v 736 11.8257 3372
v 736 11.9041 3370
v 736 11.95 3368
v 736 11.9784 3366
v 736 12.0561 3364
v 736 12.0867 3362
v 736 12.0634 3360
v 736 12.0479 3358
v 736 11.9508 3356
v 736 11.996 3354
v 736 11.8743 3352
v 736 11.9699 3350
v 738 19.5441 3412
v 738 18.2428 3410
v 738 17.2359 3408
v 738 16.2851 3406
v 738 15.4562 3404
v 738 14.4114 3402
v 738 13.3712 3400
v 738 12.9077 3398
v 738 12.5046 3396
v 738 12.1316 3394
v 738 12.0539 3392
v 738 12.0301 3390
v 738 12.0995 3388
v 738 12.0018 3386
v 738 12.0957 3384
v 738 12.0047 3382
v 738 11.9426 3380
v 738 11.8868 3378
v 738 11.8922 3376
v 738 11.744 3374
v 738 11.7603 3372
v 738 11.8615 3370
v 738 11.894 3368
v 738 11.9483 3366
v 738 12.058 3364
v 738 12.0881 3362
v 738 12.0345 3360
v 738 12.0183 3358
v 738 11.9559 3356
v 738 11.9823 3354
v 738 11.9038 3352
v 738 12 3350
v 740 19.7982 3412
v 740 19.4891 3410
v 740 18.3445 3408
v 740 17.4084 3406
v 740 16.3111 3404
v 740 15.1616 3402
v 740 14.8803 3400
v 740 13.7064 3398
v 740 13.2702 3396
v 740 12.9149 3394
v 740 12.6153 3392
v 740 12.402 3390
v 740 12.2501 3388
v 740 12.23 3386
v 740 12.1929 3384
v 740 12.0562 3382
v 740 12.0934 3380
v 740 12.0123 3378
v 740 11.9499 3376
v 740 11.8595 3374
v 740 11.9042 3372
v 740 11.8092 3370
v 740 11.9776 3368
v 740 11.9673 3366
v 740 12.034 3364
v 740 12.0616 3362
v 740 12.0728 3360
v 740 11.8638 3358
v 740 11.8089 3356
v 740 11.8468 3354
v 740 11.9719 3352
v 740 12.0289 3350
v 742 19.6571 3412
v 742 19.1536 3410
v 742 18.9663 3408
v 742 18.1642 3406
v 742 16.9072 3404
v 742 15.9686 3402
v 742 15.66 3400
v 742 15.0976 3398
v 742 14.1392 3396
v 742 14.0546 3394
v 742 13.7287 3392
v 742 13.2539 3390
v 742 12.9575 3388
v 742 13.0681 3386
v 742 12.9768 3384
v 742 12.9186 3382
v 742 12.7826 3380
v 742 12.6792 3378
v 742 12.8055 3376
v 742 12.6104 3374
v 742 12.4987 3372
v 742 12.6525 3370
v 742 12.5963 3368
v 742 12.5137 3366
v 742 12.4081 3364
v 742 12.2687 3362
v 742 12.105 3360
v 742 11.9995 3358
v 742 11.9187 3356
v 742 11.8129 3354
v 742 11.8487 3352
v 742 11.9965 3350
v 744 19.9483 3412
v 744 19.5296 3410
v 744 19.1923 3408
v 744 18.8925 3406
v 744 17.7782 3404
v 744 17.1373 3402
v 744 16.9271 3400
v 744 16.534 3398
v 744 15.6798 3396
v 744 15.615 3394
v 744 15.2143 3392
v 744 14.769 3390
v 744 14.6473 3388
v 744 14.8372 3386
v 744 14.3362 3384
v 744 14.1556 3382
v 744 14.2378 3380
v 744 13.8604 3378
v 744 14.1919 3376
v 744 14.1008 3374
v 744 14.4273 3372
v 744 14.1941 3370
v 744 14.0319 3368
v 744 13.7822 3366
v 744 13.3576 3364
v 744 13.1143 3362
v 744 12.8703 3360
v 744 12.4381 3358
v 744 12.2807 3356
v 744 12.2618 3354
v 744 12.1471 3352
v 744 12.175 3350
v 746 19.9059 3412
v 746 19.8282 3410
v 746 19.0094 3408
v 746 18.8728 3406
v 746 18.7191 3404
v 746 18.3732 3402
v 746 17.9623 3400
v 746 17.4746 3398
v 746 17.6103 3396
v 746 16.8825 3394
v 746 16.4845 3392
v 746 16.6135 3390
v 746 16.6361 3388
v 746 16.6503 3386
v 746 16.3953 3384
v 746 16.0406 3382
v 746 16.3744 3380
v 746 15.8131 3378
v 746 16.1395 3376
v 746 16.5581 3374
v 746 16.4645 3372
v 746 16.2912 3370
v 746 16.0076 3368
v 746 15.5835 3366
v 746 15.3169 3364
v 746 14.5129 3362
v 746 14.3927 3360
v 746 13.8414 3358
v 746 13.6178 3356
v 746 13.0793 3354
v 746 13.1527 3352
v 746 12.9555 3350
f 20 19 22
f 22 19 21
f 24 3 23
f 23 3 1
f 11 10 9
f 12 10 11
f 15 10 12
f 16 10 15
f 19 18 17
f 20 18 19
f 3 2 1
f 4 2 3
f 7 6 5
f 8 6 7
f 7 13 8
f 14 13 7
f 28 27 33
f 33 27 32
f 32 27 31
f 31 27 29
f 27 26 25
f 28 26 27
f 27 30 29
f 25 30 27
f 36 35 34
f 37 35 36
f 40 39 38
f 41 39 40
f 59 58 57
f 57 63 59
f 61 64 60
f 62 61 60
f 52 51 50
f 44 43 42
f 42 49 44
f 47 46 45
f 56 47 45
f 55 54 53
f 48 46 47
f 94 212 211
f 94 213 212
f 94 95 96
f 95 94 93
f 210 130 209
f 176 175 174
f 173 171 172
f 128 127 126
f 127 128 129
f 215 81 214
f 214 81 82
f 83 82 81
f 102 103 104
f 103 102 101
f 100 101 102
f 101 100 99
f 98 99 100
f 99 98 97
f 96 97 98
f 97 96 95
f 132 131 130
f 210 132 130
f 91 90 89
f 142 126 141
f 84 82 83
f 85 84 83
f 86 84 85
f 87 86 85
f 88 86 87
f 89 88 87
f 90 88 89
f 145 144 143
f 143 144 104
f 143 104 103
f 133 131 132
f 92 90 91
f 92 91 139
f 139 91 138
f 139 138 137
f 137 138 136
f 137 136 135
f 135 136 134
f 135 134 133
f 133 134 131
f 177 175 176
f 172 171 170
f 142 141 140
f 141 216 140
f 217 216 141
f 218 216 217
f 218 217 220
f 220 217 146
f 220 146 219
f 219 146 145
f 145 146 144
f 203 205 204
f 203 207 205
f 117 116 114
f 164 221 165
f 165 163 164
f 164 163 162
f 163 120 162
f 121 119 120
f 121 202 119
f 203 202 121
f 204 202 203
f 161 157 160
f 222 223 221
f 222 221 164
f 162 120 118
f 120 119 118
f 205 207 206
f 206 207 208
f 208 207 114
f 208 114 112
f 114 113 112
f 114 115 113
f 114 116 115
f 160 157 159
f 159 157 158
f 158 157 156
f 225 156 157
f 225 222 156
f 225 224 222
f 224 223 222
f 71 70 69
f 72 70 71
f 67 66 65
f 68 66 67
f 192 191 190
f 193 191 192
f 184 183 182
f 185 183 184
f 75 74 73
f 76 74 75
f 188 187 186
f 189 187 188
f 180 179 178
f 181 179 180
f 168 167 166
f 169 167 168
f 200 198 196
f 198 200 199
f 201 199 200
f 201 200 111
f 79 78 77
f 78 79 80
f 106 107 77
f 107 106 105
f 106 194 105
f 106 195 194
f 196 195 106
f 197 195 196
f 196 198 197
f 201 111 110
f 109 110 111
f 110 109 108
f 108 109 155
f 108 155 154
f 154 155 153
f 154 153 152
f 152 153 151
f 152 151 150
f 150 151 149
f 150 149 148
f 148 149 124
f 148 124 147
f 124 123 122
f 123 124 125
f 228 227 226
f 229 227 228
f 244 243 242
f 245 243 244
f 240 239 238
f 241 239 240
f 232 231 230
f 233 231 232
f 236 235 234
f 237 235 236
f 248 247 246
f 249 247 248
f 264 263 262
f 265 263 264
f 260 259 258
f 261 259 260
f 252 251 250
f 253 251 252
f 256 255 254
f 257 255 256
f 268 267 266
f 269 267 268
f 272 271 270
f 273 271 272
f 291 290 289
f 289 295 291
f 293 296 292
f 294 293 292
f 284 283 282
f 276 275 274
f 274 281 276
f 279 278 277
f 288 279 277
f 287 286 285
f 280 278 279
f 326 444 443
f 326 445 444
f 326 327 328
f 327 326 325
f 442 362 441
f 408 407 406
f 405 403 404
f 360 359 358
f 359 360 361
f 447 313 446
f 446 313 314
f 315 314 313
f 334 335 336
f 335 334 333
f 332 333 334
f 333 332 331
f 330 331 332
f 331 330 329
f 328 329 330
f 329 328 327
f 364 363 362
f 442 364 362
f 323 322 321
f 374 358 373
f 316 314 315
f 317 316 315
f 318 316 317
f 319 318 317
f 320 318 319
f 321 320 319
f 322 320 321
f 377 376 375
f 375 376 336
f 375 336 335
f 365 363 364
f 324 322 323
f 324 323 371
f 371 323 370
f 371 370 369
f 369 370 368
f 369 368 367
f 367 368 366
f 367 366 365
f 365 366 363
f 409 407 408
f 404 403 402
f 374 373 372
f 373 448 372
f 449 448 373
f 450 448 449
f 450 449 452
f 452 449 378
f 452 378 451
f 451 378 377
f 377 378 376
f 435 437 436
f 435 439 437
f 349 348 346
f 396 453 397
f 397 395 396
f 396 395 394
f 395 352 394
f 353 351 352
f 353 434 351
f 435 434 353
f 436 434 435
f 393 389 392
f 454 455 453
f 454 453 396
f 394 352 350
f 352 351 350
f 437 439 438
f 438 439 440
f 440 439 346
f 440 346 344
f 346 345 344
f 346 347 345
f 346 348 347
f 392 389 391
f 391 389 390
f 390 389 388
f 457 388 389
f 457 454 388
f 457 456 454
f 456 455 454
f 303 302 301
f 304 302 303
f 299 298 297
f 300 298 299
f 424 423 422
f 425 423 424
f 416 415 414
f 417 415 416
f 307 306 305
f 308 306 307
f 420 419 418
f 421 419 420
f 412 411 410
f 413 411 412
f 400 399 398
f 401 399 400
f 432 430 428
f 430 432 431
f 433 431 432
f 433 432 343
f 311 310 309
f 310 311 312
f 338 339 309
f 339 338 337
f 338 426 337
f 338 427 426
f 428 427 338
f 429 427 428
f 428 430 429
f 433 343 342
f 341 342 343
f 342 341 340
f 340 341 387
f 340 387 386
f 386 387 385
f 386 385 384
f 384 385 383
f 384 383 382
f 382 383 381
f 382 381 380
f 380 381 356
f 380 356 379
f 356 355 354
f 355 356 357
f 460 459 458
f 461 459 460
f 476 475 474
f 477 475 476
f 472 471 470
f 473 471 472
f 464 463 462
f 465 463 464
f 468 467 466
f 469 467 468
f 480 479 478
f 481 479 480
f 496 495 494
f 497 495 496
f 492 491 490
f 493 491 492
f 484 483 482
f 485 483 484
f 488 487 486
f 489 487 488
f 531 499 498
f 498 530 531
f 563 531 530
f 530 562 563
f 595 563 562
f 562 594 595
f 627 595 594
f 594 626 627
f 659 627 626
f 626 658 659
f 691 659 658
f 658 690 691
f 723 691 690
f 690 722 723
f 755 723 722
f 722 754 755
f 787 755 754
f 754 786 787
f 819 787 786
f 786 818 819
f 851 819 818
f 818 850 851
f 883 851 850
f 850 882 883
f 915 883 882
f 882 914 915
f 947 915 914
f 914 946 947
f 979 947 946
f 946 978 979
f 1011 979 978
f 978 1010 1011
f 1043 1011 1010
f 1010 1042 1043
f 1075 1043 1042
f 1042 1074 1075
f 1107 1075 1074
f 1074 1106 1107
f 1139 1107 1106
f 1106 1138 1139
f 1171 1139 1138
f 1138 1170 1171
f 1203 1171 1170
f 1170 1202 1203
f 1235 1203 1202
f 1202 1234 1235
f 1267 1235 1234
f 1234 1266 1267
f 1299 1267 1266
f 1266 1298 1299
f 1331 1299 1298
f 1298 1330 1331
f 1363 1331 1330
f 1330 1362 1363
f 1395 1363 1362
f 1362 1394 1395
f 1427 1395 1394
f 1394 1426 1427
f 1459 1427 1426
f 1426 1458 1459
f 1491 1459 1458
f 1458 1490 1491
f 532 500 499
f 499 531 532
f 564 532 531
f 531 563 564
f 596 564 563
f 563 595 596
f 628 596 595
f 595 627 628
f 660 628 627
f 627 659 660
f 692 660 659
f 659 691 692
f 724 692 691
f 691 723 724
f 756 724 723
f 723 755 756
f 788 756 755
f 755 787 788
f 820 788 787
f 787 819 820
f 852 820 819
f 819 851 852
f 884 852 851
f 851 883 884
f 916 884 883
f 883 915 916
f 948 916 915
f 915 947 948
f 980 948 947
f 947 979 980
f 1012 980 979
f 979 1011 1012
f 1044 1012 1011
f 1011 1043 1044
f 1076 1044 1043
f 1043 1075 1076
f 1108 1076 1075
f 1075 1107 1108
f 1140 1108 1107
f 1107 1139 1140
f 1172 1140 1139
f 1139 1171 1172
f 1204 1172 1171
f 1171 1203 1204
f 1236 1204 1203
f 1203 1235 1236
f 1268 1236 1235
f 1235 1267 1268
f 1300 1268 1267
f 1267 1299 1300
f 1332 1300 1299
f 1299 1331 1332
f 1364 1332 1331
f 1331 1363 1364
f 1396 1364 1363
f 1363 1395 1396
f 1428 1396 1395
f 1395 1427 1428
f 1460 1428 1427
f 1427 1459 1460
f 1492 1460 1459
f 1459 1491 1492
f 533 501 500
f 500 532 533
f 565 533 532
f 532 564 565
f 597 565 564
f 564 596 597
f 629 597 596
f 596 628 629
f 661 629 628
f 628 660 661
f 693 661 660
f 660 692 693
f 725 693 692
f 692 724 725
f 757 725 724
f 724 756 757
f 789 757 756
f 756 788 789
f 821 789 788
f 788 820 821
f 853 821 820
f 820 852 853
f 885 853 852
f 852 884 885
f 917 885 884
f 884 916 917
f 949 917 916
f 916 948 949
f 981 949 948
f 948 980 981
f 1013 981 980
f 980 1012 1013
f 1045 1013 1012
f 1012 1044 1045
f 1077 1045 1044
f 1044 1076 1077
f 1109 1077 1076
f 1076 1108 1109
f 1141 1109 1108
f 1108 1140 1141
f 1173 1141 1140
f 1140 1172 1173
f 1205 1173 1172
f 1172 1204 1205
f 1237 1205 1204
f 1204 1236 1237
f 1269 1237 1236
f 1236 1268 1269
f 1301 1269 1268
f 1268 1300 1301
f 1333 1301 1300
f 1300 1332 1333
f 1365 1333 1332
f 1332 1364 1365
f 1397 1365 1364
f 1364 1396 1397
f 1429 1397 1396
f 1396 1428 1429
f 1461 1429 1428
f 1428 1460 1461
f 1493 1461 1460
f 1460 1492 1493
f 534 502 501
f 501 533 534
f 566 534 533
f 533 565 566
f 598 566 565
f 565 597 598
f 630 598 597
f 597 629 630
f 662 630 629
f 629 661 662
f 694 662 661
f 661 693 694
f 726 694 693
f 693 725 726
f 758 726 725
f 725 757 758
f 790 758 757
f 757 789 790
f 822 790 789
f 789 821 822
f 854 822 821
f 821 853 854
f 886 854 853
f 853 885 886
f 918 886 885
f 885 917 918
f 950 918 917
f 917 949 950
f 982 950 949
f 949 981 982
f 1014 982 981
f 981 1013 1014
f 1046 1014 1013
f 1013 1045 1046
f 1078 1046 1045
f 1045 1077 1078
f 1110 1078 1077
f 1077 1109 1110
f 1142 1110 1109
f 1109 1141 1142
f 1174 1142 1141
f 1141 1173 1174
f 1206 1174 1173
f 1173 1205 1206
f 1238 1206 1205
f 1205 1237 1238
f 1270 1238 1237
f 1237 1269 1270
f 1302 1270 1269
f 1269 1301 1302
f 1334 1302 1301
f 1301 1333 1334
f 1366 1334 1333
f 1333 1365 1366
f 1398 1366 1365
f 1365 1397 1398
f 1430 1398 1397
f 1397 1429 1430
f 1462 1430 1429
f 1429 1461 1462
f 1494 1462 1461
f 1461 1493 1494
f 535 503 502
f 502 534 535
f 567 535 534
f 534 566 567
f 599 567 566
f 566 598 599
f 631 599 598
f 598 630 631
f 663 631 630
f 630 662 663
f 695 663 662
f 662 694 695
f 727 695 694
f 694 726 727
f 759 727 726
f 726 758 759
f 791 759 758
f 758 790 791
f 823 791 790
f 790 822 823
f 855 823 822
f 822 854 855
f 887 855 854
f 854 886 887
f 919 887 886
f 886 918 919
f 951 919 918
f 918 950 951
f 983 951 950
f 950 982 983
f 1015 983 982
f 982 1014 1015
f 1047 1015 1014
f 1014 1046 1047
f 1079 1047 1046
f 1046 1078 1079
f 1111 1079 1078
f 1078 1110 1111
f 1143 1111 1110
f 1110 1142 1143
f 1175 1143 1142
f 1142 1174 1175
f 1207 1175 1174
f 1174 1206 1207
f 1239 1207 1206
f 1206 1238 1239
f 1271 1239 1238
f 1238 1270 1271
f 1303 1271 1270
f 1270 1302 1303
f 1335 1303 1302
f 1302 1334 1335
f 1367 1335 1334
f 1334 1366 1367
f 1399 1367 1366
f 1366 1398 1399
f 1431 1399 1398
f 1398 1430 1431
f 1463 1431 1430
f 1430 1462 1463
f 1495 1463 1462
f 1462 1494 1495
f 536 504 503
f 503 535 536
f 568 536 535
f 535 567 568
f 600 568 567
f 567 599 600
f 632 600 599
f 599 631 632
f 664 632 631
f 631 663 664
f 696 664 663
f 663 695 696
f 728 696 695
f 695 727 728
f 760 728 727
f 727 759 760
f 792 760 759
f 759 791 792
f 824 792 791
f 791 823 824
f 856 824 823
f 823 855 856
f 888 856 855
f 855 887 888
f 920 888 887
f 887 919 920
f 952 920 919
f 919 951 952
f 984 952 951
f 951 983 984
f 1016 984 983
f 983 1015 1016
f 1048 1016 1015
f 1015 1047 1048
f 1080 1048 1047
f 1047 1079 1080
f 1112 1080 1079
f 1079 1111 1112
f 1144 1112 1111
f 1111 1143 1144
f 1176 1144 1143
f 1143 1175 1176
f 1208 1176 1175
f 1175 1207 1208
f 1240 1208 1207
f 1207 1239 1240
f 1272 1240 1239
f 1239 1271 1272
f 1304 1272 1271
f 1271 1303 1304
f 1336 1304 1303
f 1303 1335 1336
f 1368 1336 1335
f 1335 1367 1368
f 1400 1368 1367
f 1367 1399 1400
f 1432 1400 1399
f 1399 1431 1432
f 1464 1432 1431
f 1431 1463 1464
f 1496 1464 1463
f 1463 1495 1496
f 537 505 504
f 504 536 537
f 569 537 536
f 536 568 569
f 601 569 568
f 568 600 601
f 633 601 600
f 600 632 633
f 665 633 632
f 632 664 665
f 697 665 664
f 664 696 697
f 729 697 696
f 696 728 729
f 761 729 728
f 728 760 761
f 793 761 760
f 760 792 793
f 825 793 792
f 792 824 825
f 857 825 824
f 824 856 857
f 889 857 856
f 856 888 889
f 921 889 888
f 888 920 921
f 953 921 920
f 920 952 953
f 985 953 952
f 952 984 985
f 1017 985 984
f 984 1016 1017
f 1049 1017 1016
f 1016 1048 1049
f 1081 1049 1048
f 1048 1080 1081
f 1113 1081 1080
f 1080 1112 1113
f 1145 1113 1112
f 1112 1144 1145
f 1177 1145 1144
f 1144 1176 1177
f 1209 1177 1176
f 1176 1208 1209
f 1241 1209 1208
f 1208 1240 1241
f 1273 1241 1240
f 1240 1272 1273
f 1305 1273 1272
f 1272 1304 1305
f 1337 1305 1304
f 1304 1336 1337
f 1369 1337 1336
f 1336 1368 1369
f 1401 1369 1368
f 1368 1400 1401
f 1433 1401 1400
f 1400 1432 1433
f 1465 1433 1432
f 1432 1464 1465
f 1497 1465 1464
f 1464 1496 1497
f 538 506 505
f 505 537 538
f 570 538 537
f 537 569 570
f 602 570 569
f 569 601 602
f 634 602 601
f 601 633 634
f 666 634 633
f 633 665 666
f 698 666 665
f 665 697 698
f 730 698 697
f 697 729 730
f 762 730 729
f 729 761 762
f 794 762 761
f 761 793 794
f 826 794 793
f 793 825 826
f 858 826 825
f 825 857 858
f 890 858 857
f 857 889 890
f 922 890 889
f 889 921 922
f 954 922 921
f 921 953 954
f 986 954 953
f 953 985 986
f 1018 986 985
f 985 1017 1018
f 1050 1018 1017
f 1017 1049 1050
f 1082 1050 1049
f 1049 1081 1082
f 1114 1082 1081
f 1081 1113 1114
f 1146 1114 1113
f 1113 1145 1146
f 1178 1146 1145
f 1145 1177 1178
f 1210 1178 1177
f 1177 1209 1210
f 1242 1210 1209
f 1209 1241 1242
f 1274 1242 1241
f 1241 1273 1274
f 1306 1274 1273
f 1273 1305 1306
f 1338 1306 1305
f 1305 1337 1338
f 1370 1338 1337
f 1337 1369 1370
f 1402 1370 1369
f 1369 1401 1402
f 1434 1402 1401
f 1401 1433 1434
f 1466 1434 1433
f 1433 1465 1466
f 1498 1466 1465
f 1465 1497 1498
f 539 507 506
f 506 538 539
f 571 539 538
f 538 570 571
f 603 571 570
f 570 602 603
f 635 603 602
f 602 634 635
f 667 635 634
f 634 666 667
f 699 667 666
f 666 698 699
f 731 699 698
f 698 730 731
f 763 731 730
f 730 762 763
f 795 763 762
f 762 794 795
f 827 795 794
f 794 826 827
f 859 827 826
f 826 858 859
f 891 859 858
f 858 890 891
f 923 891 890
f 890 922 923
f 955 923 922
f 922 954 955
f 987 955 954
f 954 986 987
f 1019 987 986
f 986 1018 1019
f 1051 1019 1018
f 1018 1050 1051
f 1083 1051 1050
f 1050 1082 1083
f 1115 1083 1082
f 1082 1114 1115
f 1147 1115 1114
f 1114 1146 1147
f 1179 1147 1146
f 1146 1178 1179
f 1211 1179 1178
f 1178 1210 1211
f 1243 1211 1210
f 1210 1242 1243
f 1275 1243 1242
f 1242 1274 1275
f 1307 1275 1274
f 1274 1306 1307
f 1339 1307 1306
f 1306 1338 1339
f 1371 1339 1338
f 1338 1370 1371
f 1403 1371 1370
f 1370 1402 1403
f 1435 1403 1402
f 1402 1434 1435
f 1467 1435 1434
f 1434 1466 1467
f 1499 1467 1466
f 1466 1498 1499
f 540 508 507
f 507 539 540
f 572 540 539
f 539 571 572
f 604 572 571
f 571 603 604
f 636 604 603
f 603 635 636
f 668 636 635
f 635 667 668
f 700 668 667
f 667 699 700
f 732 700 699
f 699 731 732
f 764 732 731
f 731 763 764
f 796 764 763
f 763 795 796
f 828 796 795
f 795 827 828
f 860 828 827
f 827 859 860
f 892 860 859
f 859 891 892
f 924 892 891
f 891 923 924
f 956 924 923
f 923 955 956
f 988 956 955
f 955 987 988
f 1020 988 987
f 987 1019 1020
f 1052 1020 1019
f 1019 1051 1052
f 1084 1052 1051
f 1051 1083 1084
f 1116 1084 1083
f 1083 1115 1116
f 1148 1116 1115
f 1115 1147 1148
f 1180 1148 1147
f 1147 1179 1180
f 1212 1180 1179
f 1179 1211 1212
f 1244 1212 1211
f 1211 1243 1244
f 1276 1244 1243
f 1243 1275 1276
f 1308 1276 1275
f 1275 1307 1308
f 1340 1308 1307
f 1307 1339 1340
f 1372 1340 1339
f 1339 1371 1372
f 1404 1372 1371
f 1371 1403 1404
f 1436 1404 1403
f 1403 1435 1436
f 1468 1436 1435
f 1435 1467 1468
f 1500 1468 1467
f 1467 1499 1500
f 541 509 508
f 508 540 541
f 573 541 540
f 540 572 573
f 605 573 572
f 572 604 605
f 637 605 604
f 604 636 637
f 669 637 636
f 636 668 669
f 701 669 668
f 668 700 701
f 733 701 700
f 700 732 733
f 765 733 732
f 732 764 765
f 797 765 764
f 764 796 797
f 829 797 796
f 796 828 829
f 861 829 828
f 828 860 861
f 893 861 860
f 860 892 893
f 925 893 892
f 892 924 925
f 957 925 924
f 924 956 957
f 989 957 956
f 956 988 989
f 1021 989 988
f 988 1020 1021
f 1053 1021 1020
f 1020 1052 1053
f 1085 1053 1052
f 1052 1084 1085
f 1117 1085 1084
f 1084 1116 1117
f 1149 1117 1116
f 1116 1148 1149
f 1181 1149 1148
f 1148 1180 1181
f 1213 1181 1180
f 1180 1212 1213
f 1245 1213 1212
f 1212 1244 1245
f 1277 1245 1244
f 1244 1276 1277
f 1309 1277 1276
f 1276 1308 1309
f 1341 1309 1308
f 1308 1340 1341
f 1373 1341 1340
f 1340 1372 1373
f 1405 1373 1372
f 1372 1404 1405
f 1437 1405 1404
f 1404 1436 1437
f 1469 1437 1436
f 1436 1468 1469
f 1501 1469 1468
f 1468 1500 1501
f 542 510 509
f 509 541 542
f 574 542 541
f 541 573 574
f 606 574 573
f 573 605 606
f 638 606 605
f 605 637 638
f 670 638 637
f 637 669 670
f 702 670 669
f 669 701 702
f 734 702 701
f 701 733 734
f 766 734 733
f 733 765 766
f 798 766 765
f 765 797 798
f 830 798 797
f 797 829 830
f 862 830 829
f 829 861 862
f 894 862 861
f 861 893 894
f 926 894 893
f 893 925 926
f 958 926 925
f 925 957 958
f 990 958 957
f 957 989 990
f 1022 990 989
f 989 1021 1022
f 1054 1022 1021
f 1021 1053 1054
f 1086 1054 1053
f 1053 1085 1086
f 1118 1086 1085
f 1085 1117 1118
f 1150 1118 1117
f 1117 1149 1150
f 1182 1150 1149
f 1149 1181 1182
f 1214 1182 1181
f 1181 1213 1214
f 1246 1214 1213
f 1213 1245 1246
f 1278 1246 1245
f 1245 1277 1278
f 1310 1278 1277
f 1277 1309 1310
f 1342 1310 1309
f 1309 1341 1342
f 1374 1342 1341
f 1341 1373 1374
f 1406 1374 1373
f 1373 1405 1406
f 1438 1406 1405
f 1405 1437 1438
f 1470 1438 1437
f 1437 1469 1470
f 1502 1470 1469
f 1469 1501 1502
f 543 511 510
f 510 542 543
f 575 543 542
f 542 574 575
f 607 575 574
f 574 606 607
f 639 607 606
f 606 638 639
f 671 639 638
f 638 670 671
f 703 671 670
f 670 702 703
f 735 703 702
f 702 734 735
f 767 735 734
f 734 766 767
f 799 767 766
f 766 798 799
f 831 799 798
f 798 830 831
f 863 831 830
f 830 862 863
f 895 863 862
f 862 894 895
f 927 895 894
f 894 926 927
f 959 927 926
f 926 958 959
f 991 959 958
f 958 990 991
f 1023 991 990
f 990 1022 1023
f 1055 1023 1022
f 1022 1054 1055
f 1087 1055 1054
f 1054 1086 1087
f 1119 1087 1086
f 1086 1118 1119
f 1151 1119 1118
f 1118 1150 1151
f 1183 1151 1150
f 1150 1182 1183
f 1215 1183 1182
f 1182 1214 1215
f 1247 1215 1214
f 1214 1246 1247
f 1279 1247 1246
f 1246 1278 1279
f 1311 1279 1278
f 1278 1310 1311
f 1343 1311 1310
f 1310 1342 1343
f 1375 1343 1342
f 1342 1374 1375
f 1407 1375 1374
f 1374 1406 1407
f 1439 1407 1406
f 1406 1438 1439
f 1471 1439 1438
f 1438 1470 1471
f 1503 1471 1470
f 1470 1502 1503
f 544 512 511
f 511 543 544
f 576 544 543
f 543 575 576
f 608 576 575
f 575 607 608
f 640 608 607
f 607 639 640
f 672 640 639
f 639 671 672
f 704 672 671
f 671 703 704
f 736 704 703
f 703 735 736
f 768 736 735
f 735 767 768
f 800 768 767
f 767 799 800
f 832 800 799
f 799 831 832
f 864 832 831
f 831 863 864
f 896 864 863
f 863 895 896
f 928 896 895
f 895 927 928
f 960 928 927
f 927 959 960
f 992 960 959
f 959 991 992
f 1024 992 991
f 991 1023 1024
f 1056 1024 1023
f 1023 1055 1056
f 1088 1056 1055
f 1055 1087 1088
f 1120 1088 1087
f 1087 1119 1120
f 1152 1120 1119
f 1119 1151 1152
f 1184 1152 1151
f 1151 1183 1184
f 1216 1184 1183
f 1183 1215 1216
f 1248 1216 1215
f 1215 1247 1248
f 1280 1248 1247
f 1247 1279 1280
f 1312 1280 1279
f 1279 1311 1312
f 1344 1312 1311
f 1311 1343 1344
f 1376 1344 1343
f 1343 1375 1376
f 1408 1376 1375
f 1375 1407 1408
f 1440 1408 1407
f 1407 1439 1440
f 1472 1440 1439
f 1439 1471 1472
f 1504 1472 1471
f 1471 1503 1504
f 545 513 512
f 512 544 545
f 577 545 544
f 544 576 577
f 609 577 576
f 576 608 609
f 641 609 608
f 608 640 641
f 673 641 640
f 640 672 673
f 705 673 672
f 672 704 705
f 737 705 704
f 704 736 737
f 769 737 736
f 736 768 769
f 801 769 768
f 768 800 801
f 833 801 800
f 800 832 833
f 865 833 832
f 832 864 865
f 897 865 864
f 864 896 897
f 929 897 896
f 896 928 929
f 961 929 928
f 928 960 961
f 993 961 960
f 960 992 993
f 1025 993 992
f 992 1024 1025
f 1057 1025 1024
f 1024 1056 1057
f 1089 1057 1056
f 1056 1088 1089
f 1121 1089 1088
f 1088 1120 1121
f 1153 1121 1120
f 1120 1152 1153
f 1185 1153 1152
f 1152 1184 1185
f 1217 1185 1184
f 1184 1216 1217
f 1249 1217 1216
f 1216 1248 1249
f 1281 1249 1248
f 1248 1280 1281
f 1313 1281 1280
f 1280 1312 1313
f 1345 1313 1312
f 1312 1344 1345
f 1377 1345 1344
f 1344 1376 1377
f 1409 1377 1376
f 1376 1408 1409
f 1441 1409 1408
f 1408 1440 1441
f 1473 1441 1440
f 1440 1472 1473
f 1505 1473 1472
f 1472 1504 1505
f 546 514 513
f 513 545 546
f 578 546 545
f 545 577 578
f 610 578 577
f 577 609 610
f 642 610 609
f 609 641 642
f 674 642 641
f 641 673 674
f 706 674 673
f 673 705 706
f 738 706 705
f 705 737 738
f 770 738 737
f 737 769 770
f 802 770 769
f 769 801 802
f 834 802 801
f 801 833 834
f 866 834 833
f 833 865 866
f 898 866 865
f 865 897 898
f 930 898 897
f 897 929 930
f 962 930 929
f 929 961 962
f 994 962 961
f 961 993 994
f 1026 994 993
f 993 1025 1026
f 1058 1026 1025
f 1025 1057 1058
f 1090 1058 1057
f 1057 1089 1090
f 1122 1090 1089
f 1089 1121 1122
f 1154 1122 1121
f 1121 1153 1154
f 1186 1154 1153
f 1153 1185 1186
f 1218 1186 1185
f 1185 1217 1218
f 1250 1218 1217
f 1217 1249 1250
f 1282 1250 1249
f 1249 1281 1282
f 1314 1282 1281
f 1281 1313 1314
f 1346 1314 1313
f 1313 1345 1346
f 1378 1346 1345
f 1345 1377 1378
f 1410 1378 1377
f 1377 1409 1410
f 1442 1410 1409
f 1409 1441 1442
f 1474 1442 1441
f 1441 1473 1474
f 1506 1474 1473
f 1473 1505 1506
f 547 515 514
f 514 546 547
f 579 547 546
f 546 578 579
f 611 579 578
f 578 610 611
f 643 611 610
f 610 642 643
f 675 643 642
f 642 674 675
f 707 675 674
f 674 706 707
f 739 707 706
f 706 738 739
f 771 739 738
f 738 770 771
f 803 771 770
f 770 802 803
f 835 803 802
f 802 834 835
f 867 835 834
f 834 866 867
f 899 867 866
f 866 898 899
f 931 899 898
f 898 930 931
f 963 931 930
f 930 962 963
f 995 963 962
f 962 994 995
f 1027 995 994
f 994 1026 1027
f 1059 1027 1026
f 1026 1058 1059
f 1091 1059 1058
f 1058 1090 1091
f 1123 1091 1090
f 1090 1122 1123
f 1155 1123 1122
f 1122 1154 1155
f 1187 1155 1154
f 1154 1186 1187
f 1219 1187 1186
f 1186 1218 1219
f 1251 1219 1218
f 1218 1250 1251
f 1283 1251 1250
f 1250 1282 1283
f 1315 1283 1282
f 1282 1314 1315
f 1347 1315 1314
f 1314 1346 1347
f 1379 1347 1346
f 1346 1378 1379
f 1411 1379 1378
f 1378 1410 1411
f 1443 1411 1410
f 1410 1442 1443
f 1475 1443 1442
f 1442 1474 1475
f 1507 1475 1474
f 1474 1506 1507
f 548 516 515
f 515 547 548
f 580 548 547
f 547 579 580
f 612 580 579
f 579 611 612
f 644 612 611
f 611 643 644
f 676 644 643
f 643 675 676
f 708 676 675
f 675 707 708
f 740 708 707
f 707 739 740
f 772 740 739
f 739 771 772
f 804 772 771
f 771 803 804
f 836 804 803
f 803 835 836
f 868 836 835
f 835 867 868
f 900 868 867
f 867 899 900
f 932 900 899
f 899 931 932
f 964 932 931
f 931 963 964
f 996 964 963
f 963 995 996
f 1028 996 995
f 995 1027 1028
f 1060 1028 1027
f 1027 1059 1060
f 1092 1060 1059
f 1059 1091 1092
f 1124 1092 1091
f 1091 1123 1124
f 1156 1124 1123
f 1123 1155 1156
f 1188 1156 1155
f 1155 1187 1188
f 1220 1188 1187
f 1187 1219 1220
f 1252 1220 1219
f 1219 1251 1252
f 1284 1252 1251
f 1251 1283 1284
f 1316 1284 1283
f 1283 1315 1316
f 1348 1316 1315
f 1315 1347 1348
f 1380 1348 1347
f 1347 1379 1380
f 1412 1380 1379
f 1379 1411 1412
f 1444 1412 1411
f 1411 1443 1444
f 1476 1444 1443
f 1443 1475 1476
f 1508 1476 1475
f 1475 1507 1508
f 549 517 516
f 516 548 549
f 581 549 548
f 548 580 581
f 613 581 580
f 580 612 613
f 645 613 612
f 612 644 645
f 677 645 644
f 644 676 677
f 709 677 676
f 676 708 709
f 741 709 708
f 708 740 741
f 773 741 740
f 740 772 773
f 805 773 772
f 772 804 805
f 837 805 804
f 804 836 837
f 869 837 836
f 836 868 869
f 901 869 868
f 868 900 901
f 933 901 900
f 900 932 933
f 965 933 932
f 932 964 965
f 997 965 964
f 964 996 997
f 1029 997 996
f 996 1028 1029
f 1061 1029 1028
f 1028 1060 1061
f 1093 1061 1060
f 1060 1092 1093
f 1125 1093 1092
f 1092 1124 1125
f 1157 1125 1124
f 1124 1156 1157
f 1189 1157 1156
f 1156 1188 1189
f 1221 1189 1188
f 1188 1220 1221
f 1253 1221 1220
f 1220 1252 1253
f 1285 1253 1252
f 1252 1284 1285
f 1317 1285 1284
f 1284 1316 1317
f 1349 1317 1316
f 1316 1348 1349
f 1381 1349 1348
f 1348 1380 1381
f 1413 1381 1380
f 1380 1412 1413
f 1445 1413 1412
f 1412 1444 1445
f 1477 1445 1444
f 1444 1476 1477
f 1509 1477 1476
f 1476 1508 1509
f 550 518 517
f 517 549 550
f 582 550 549
f 549 581 582
f 614 582 581
f 581 613 614
f 646 614 613
f 613 645 646
f 678 646 645
f 645 677 678
f 710 678 677
f 677 709 710
f 742 710 709
f 709 741 742
f 774 742 741
f 741 773 774
f 806 774 773
f 773 805 806
f 838 806 805
f 805 837 838
f 870 838 837
f 837 869 870
f 902 870 869
f 869 901 902
f 934 902 901
f 901 933 934
f 966 934 933
f 933 965 966
f 998 966 965
f 965 997 998
f 1030 998 997
f 997 1029 1030
f 1062 1030 1029
f 1029 1061 1062
f 1094 1062 1061
f 1061 1093 1094
f 1126 1094 1093
f 1093 1125 1126
f 1158 1126 1125
f 1125 1157 1158
f 1190 1158 1157
f 1157 1189 1190
f 1222 1190 1189
f 1189 1221 1222
f 1254 1222 1221
f 1221 1253 1254
f 1286 1254 1253
f 1253 1285 1286
f 1318 1286 1285
f 1285 1317 1318
f 1350 1318 1317
f 1317 1349 1350
f 1382 1350 1349
f 1349 1381 1382
f 1414 1382 1381
f 1381 1413 1414
f 1446 1414 1413
f 1413 1445 1446
f 1478 1446 1445
f 1445 1477 1478
f 1510 1478 1477
f 1477 1509 1510
f 551 519 518
f 518 550 551
f 583 551 550
f 550 582 583
f 615 583 582
f 582 614 615
f 647 615 614
f 614 646 647
f 679 647 646
f 646 678 679
f 711 679 678
f 678 710 711
f 743 711 710
f 710 742 743
f 775 743 742
f 742 774 775
f 807 775 774
f 774 806 807
f 839 807 806
f 806 838 839
f 871 839 838
f 838 870 871
f 903 871 870
f 870 902 903
f 935 903 902
f 902 934 935
f 967 935 934
f 934 966 967
f 999 967 966
f 966 998 999
f 1031 999 998
f 998 1030 1031
f 1063 1031 1030
f 1030 1062 1063
f 1095 1063 1062
f 1062 1094 1095
f 1127 1095 1094
f 1094 1126 1127
f 1159 1127 1126
f 1126 1158 1159
f 1191 1159 1158
f 1158 1190 1191
f 1223 1191 1190
f 1190 1222 1223
f 1255 1223 1222
f 1222 1254 1255
f 1287 1255 1254
f 1254 1286 1287
f 1319 1287 1286
f 1286 1318 1319
f 1351 1319 1318
f 1318 1350 1351
f 1383 1351 1350
f 1350 1382 1383
f 1415 1383 1382
f 1382 1414 1415
f 1447 1415 1414
f 1414 1446 1447
f 1479 1447 1446
f 1446 1478 1479
f 1511 1479 1478
f 1478 1510 1511
f 552 520 519
f 519 551 552
f 584 552 551
f 551 583 584
f 616 584 583
f 583 615 616
f 648 616 615
f 615 647 648
f 680 648 647
f 647 679 680
f 712 680 679
f 679 711 712
f 744 712 711
f 711 743 744
f 776 744 743
f 743 775 776
f 808 776 775
f 775 807 808
f 840 808 807
f 807 839 840
f 872 840 839
f 839 871 872
f 904 872 871
f 871 903 904
f 936 904 903
f 903 935 936
f 968 936 935
f 935 967 968
f 1000 968 967
f 967 999 1000
f 1032 1000 999
f 999 1031 1032
f 1064 1032 1031
f 1031 1063 1064
f 1096 1064 1063
f 1063 1095 1096
f 1128 1096 1095
f 1095 1127 1128
f 1160 1128 1127
f 1127 1159 1160
f 1192 1160 1159
f 1159 1191 1192
f 1224 1192 1191
f 1191 1223 1224
f 1256 1224 1223
f 1223 1255 1256
f 1288 1256 1255
f 1255 1287 1288
f 1320 1288 1287
f 1287 1319 1320
f 1352 1320 1319
f 1319 1351 1352
f 1384 1352 1351
f 1351 1383 1384
f 1416 1384 1383
f 1383 1415 1416
f 1448 1416 1415
f 1415 1447 1448
f 1480 1448 1447
f 1447 1479 1480
f 1512 1480 1479
f 1479 1511 1512
f 553 521 520
f 520 552 553
f 585 553 552
f 552 584 585
f 617 585 584
f 584 616 617
f 649 617 616
f 616 648 649
f 681 649 648
f 648 680 681
f 713 681 680
f 680 712 713
f 745 713 712
f 712 744 745
f 777 745 744
f 744 776 777
f 809 777 776
f 776 808 809
f 841 809 808
f 808 840 841
f 873 841 840
f 840 872 873
f 905 873 872
f 872 904 905
f 937 905 904
f 904 936 937
f 969 937 936
f 936 968 969
f 1001 969 968
f 968 1000 1001
f 1033 1001 1000
f 1000 1032 1033
f 1065 1033 1032
f 1032 1064 1065
f 1097 1065 1064
f 1064 1096 1097
f 1129 1097 1096
f 1096 1128 1129
f 1161 1129 1128
f 1128 1160 1161
f 1193 1161 1160
f 1160 1192 1193
f 1225 1193 1192
f 1192 1224 1225
f 1257 1225 1224
f 1224 1256 1257
f 1289 1257 1256
f 1256 1288 1289
f 1321 1289 1288
f 1288 1320 1321
f 1353 1321 1320
f 1320 1352 1353
f 1385 1353 1352
f 1352 1384 1385
f 1417 1385 1384
f 1384 1416 1417
f 1449 1417 1416
f 1416 1448 1449
f 1481 1449 1448
f 1448 1480 1481
f 1513 1481 1480
f 1480 1512 1513
f 554 522 521
f 521 553 554
f 586 554 553
f 553 585 586
f 618 586 585
f 585 617 618
f 650 618 617
f 617 649 650
f 682 650 649
f 649 681 682
f 714 682 681
f 681 713 714
f 746 714 713
f 713 745 746
f 778 746 745
f 745 777 778
f 810 778 777
f 777 809 810
f 842 810 809
f 809 841 842
f 874 842 841
f 841 873 874
f 906 874 873
f 873 905 906
f 938 906 905
f 905 937 938
f 970 938 937
f 937 969 970
f 1002 970 969
f 969 1001 1002
f 1034 1002 1001
f 1001 1033 1034
f 1066 1034 1033
f 1033 1065 1066
f 1098 1066 1065
f 1065 1097 1098
f 1130 1098 1097
f 1097 1129 1130
f 1162 1130 1129
f 1129 1161 1162
f 1194 1162 1161
f 1161 1193 1194
f 1226 1194 1193
f 1193 1225 1226
f 1258 1226 1225
f 1225 1257 1258
f 1290 1258 1257
f 1257 1289 1290
f 1322 1290 1289
f 1289 1321 1322
f 1354 1322 1321
f 1321 1353 1354
f 1386 1354 1353
f 1353 1385 1386
f 1418 1386 1385
f 1385 1417 1418
f 1450 1418 1417
f 1417 1449 1450
f 1482 1450 1449
f 1449 1481 1482
f 1514 1482 1481
f 1481 1513 1514
f 555 523 522
f 522 554 555
f 587 555 554
f 554 586 587
f 619 587 586
f 586 618 619
f 651 619 618
f 618 650 651
f 683 651 650
f 650 682 683
f 715 683 682
f 682 714 715
f 747 715 714
f 714 746 747
f 779 747 746
f 746 778 779
f 811 779 778
f 778 810 811
f 843 811 810
f 810 842 843
f 875 843 842
f 842 874 875
f 907 875 874
f 874 906 907
f 939 907 906
f 906 938 939
f 971 939 938
f 938 970 971
f 1003 971 970
f 970 1002 1003
f 1035 1003 1002
f 1002 1034 1035
f 1067 1035 1034
f 1034 1066 1067
f 1099 1067 1066
f 1066 1098 1099
f 1131 1099 1098
f 1098 1130 1131
f 1163 1131 1130
f 1130 1162 1163
f 1195 1163 1162
f 1162 1194 1195
f 1227 1195 1194
f 1194 1226 1227
f 1259 1227 1226
f 1226 1258 1259
f 1291 1259 1258
f 1258 1290 1291
f 1323 1291 1290
f 1290 1322 1323
f 1355 1323 1322
f 1322 1354 1355
f 1387 1355 1354
f 1354 1386 1387
f 1419 1387 1386
f 1386 1418 1419
f 1451 1419 1418
f 1418 1450 1451
f 1483 1451 1450
f 1450 1482 1483
f 1515 1483 1482
f 1482 1514 1515
f 556 524 523
f 523 555 556
f 588 556 555
f 555 587 588
f 620 588 587
f 587 619 620
f 652 620 619
f 619 651 652
f 684 652 651
f 651 683 684
f 716 684 683
f 683 715 716
f 748 716 715
f 715 747 748
f 780 748 747
f 747 779 780
f 812 780 779
f 779 811 812
f 844 812 811
f 811 843 844
f 876 844 843
f 843 875 876
f 908 876 875
f 875 907 908
f 940 908 907
f 907 939 940
f 972 940 939
f 939 971 972
f 1004 972 971
f 971 1003 1004
f 1036 1004 1003
f 1003 1035 1036
f 1068 1036 1035
f 1035 1067 1068
f 1100 1068 1067
f 1067 1099 1100
f 1132 1100 1099
f 1099 1131 1132
f 1164 1132 1131
f 1131 1163 1164
f 1196 1164 1163
f 1163 1195 1196
f 1228 1196 1195
f 1195 1227 1228
f 1260 1228 1227
f 1227 1259 1260
f 1292 1260 1259
f 1259 1291 1292
f 1324 1292 1291
f 1291 1323 1324
f 1356 1324 1323
f 1323 1355 1356
f 1388 1356 1355
f 1355 1387 1388
f 1420 1388 1387
f 1387 1419 1420
f 1452 1420 1419
f 1419 1451 1452
f 1484 1452 1451
f 1451 1483 1484
f 1516 1484 1483
f 1483 1515 1516
f 557 525 524
f 524 556 557
f 589 557 556
f 556 588 589
f 621 589 588
f 588 620 621
f 653 621 620
f 620 652 653
f 685 653 652
f 652 684 685
f 717 685 684
f 684 716 717
f 749 717 716
f 716 748 749
f 781 749 748
f 748 780 781
f 813 781 780
f 780 812 813
f 845 813 812
f 812 844 845
f 877 845 844
f 844 876 877
f 909 877 876
f 876 908 909
f 941 909 908
f 908 940 941
f 973 941 940
f 940 972 973
f 1005 973 972
f 972 1004 1005
f 1037 1005 1004
f 1004 1036 1037
f 1069 1037 1036
f 1036 1068 1069
f 1101 1069 1068
f 1068 1100 1101
f 1133 1101 1100
f 1100 1132 1133
f 1165 1133 1132
f 1132 1164 1165
f 1197 1165 1164
f 1164 1196 1197
f 1229 1197 1196
f 1196 1228 1229
f 1261 1229 1228
f 1228 1260 1261
f 1293 1261 1260
f 1260 1292 1293
f 1325 1293 1292
f 1292 1324 1325
f 1357 1325 1324
f 1324 1356 1357
f 1389 1357 1356
f 1356 1388 1389
f 1421 1389 1388
f 1388 1420 1421
f 1453 1421 1420
f 1420 1452 1453
f 1485 1453 1452
f 1452 1484 1485
f 1517 1485 1484
f 1484 1516 1517
f 558 526 525
f 525 557 558
f 590 558 557
f 557 589 590
f 622 590 589
f 589 621 622
f 654 622 621
f 621 653 654
f 686 654 653
f 653 685 686
f 718 686 685
f 685 717 718
f 750 718 717
f 717 749 750
f 782 750 749
f 749 781 782
f 814 782 781
f 781 813 814
f 846 814 813
f 813 845 846
f 878 846 845
f 845 877 878
f 910 878 877
f 877 909 910
f 942 910 909
f 909 941 942
f 974 942 941
f 941 973 974
f 1006 974 973
f 973 1005 1006
f 1038 1006 1005
f 1005 1037 1038
f 1070 1038 1037
f 1037 1069 1070
f 1102 1070 1069
f 1069 1101 1102
f 1134 1102 1101
f 1101 1133 1134
f 1166 1134 1133
f 1133 1165 1166
f 1198 1166 1165
f 1165 1197 1198
f 1230 1198 1197
f 1197 1229 1230
f 1262 1230 1229
f 1229 1261 1262
f 1294 1262 1261
f 1261 1293 1294
f 1326 1294 1293
f 1293 1325 1326
f 1358 1326 1325
f 1325 1357 1358
f 1390 1358 1357
f 1357 1389 1390
f 1422 1390 1389
f 1389 1421 1422
f 1454 1422 1421
f 1421 1453 1454
f 1486 1454 1453
f 1453 1485 1486
f 1518 1486 1485
f 1485 1517 1518
f 559 527 526
f 526 558 559
f 591 559 558
f 558 590 591
f 623 591 590
f 590 622 623
f 655 623 622
f 622 654 655
f 687 655 654
f 654 686 687
f 719 687 686
f 686 718 719
f 751 719 718
f 718 750 751
f 783 751 750
f 750 782 783
f 815 783 782
f 782 814 815
f 847 815 814
f 814 846 847
f 879 847 846
f 846 878 879
f 911 879 878
f 878 910 911
f 943 911 910
f 910 942 943
f 975 943 942
f 942 974 975
f 1007 975 974
f 974 1006 1007
f 1039 1007 1006
f 1006 1038 1039
f 1071 1039 1038
f 1038 1070 1071
f 1103 1071 1070
f 1070 1102 1103
f 1135 1103 1102
f 1102 1134 1135
f 1167 1135 1134
f 1134 1166 1167
f 1199 1167 1166
f 1166 1198 1199
f 1231 1199 1198
f 1198 1230 1231
f 1263 1231 1230
f 1230 1262 1263
f 1295 1263 1262
f 1262 1294 1295
f 1327 1295 1294
f 1294 1326 1327
f 1359 1327 1326
f 1326 1358 1359
f 1391 1359 1358
f 1358 1390 1391
f 1423 1391 1390
f 1390 1422 1423
f 1455 1423 1422
f 1422 1454 1455
f 1487 1455 1454
f 1454 1486 1487
f 1519 1487 1486
f 1486 1518 1519
f 560 528 527
f 527 559 560
f 592 560 559
f 559 591 592
f 624 592 591
f 591 623 624
f 656 624 623
f 623 655 656
f 688 656 655
f 655 687 688
f 720 688 687
f 687 719 720
f 752 720 719
f 719 751 752
f 784 752 751
f 751 783 784
f 816 784 783
f 783 815 816
f 848 816 815
f 815 847 848
f 880 848 847
f 847 879 880
f 912 880 879
f 879 911 912
f 944 912 911
f 911 943 944
f 976 944 943
f 943 975 976
f 1008 976 975
f 975 1007 1008
f 1040 1008 1007
f 1007 1039 1040
f 1072 1040 1039
f 1039 1071 1072
f 1104 1072 1071
f 1071 1103 1104
f 1136 1104 1103
f 1103 1135 1136
f 1168 1136 1135
f 1135 1167 1168
f 1200 1168 1167
f 1167 1199 1200
f 1232 1200 1199
f 1199 1231 1232
f 1264 1232 1231
f 1231 1263 1264
f 1296 1264 1263
f 1263 1295 1296
f 1328 1296 1295
f 1295 1327 1328
f 1360 1328 1327
f 1327 1359 1360
f 1392 1360 1359
f 1359 1391 1392
f 1424 1392 1391
f 1391 1423 1424
f 1456 1424 1423
f 1423 1455 1456
f 1488 1456 1455
f 1455 1487 1488
f 1520 1488 1487
f 1487 1519 1520
f 561 529 528
f 528 560 561
f 593 561 560
f 560 592 593
f 625 593 592
f 592 624 625
f 657 625 624
f 624 656 657
f 689 657 656
f 656 688 689
f 721 689 688
f 688 720 721
f 753 721 720
f 720 752 753
f 785 753 752
f 752 784 785
f 817 785 784
f 784 816 817
f 849 817 816
f 816 848 849
f 881 849 848
f 848 880 881
f 913 881 880
f 880 912 913
f 945 913 912
f 912 944 945
f 977 945 944
f 944 976 977
f 1009 977 976
f 976 1008 1009
f 1041 1009 1008
f 1008 1040 1041
f 1073 1041 1040
f 1040 1072 1073
f 1105 1073 1072
f 1072 1104 1105
f 1137 1105 1104
f 1104 1136 1137
f 1169 1137 1136
f 1136 1168 1169
f 1201 1169 1168
f 1168 1200 1201
f 1233 1201 1200
f 1200 1232 1233
f 1265 1233 1232
f 1232 1264 1265
f 1297 1265 1264
f 1264 1296 1297
f 1329 1297 1296
f 1296 1328 1329
f 1361 1329 1328
f 1328 1360 1361
f 1393 1361 1360
f 1360 1392 1393
f 1425 1393 1392
f 1392 1424 1425
f 1457 1425 1424
f 1424 1456 1457
f 1489 1457 1456
f 1456 1488 1489
f 1521 1489 1488
f 1488 1520 1521
